<?xml version="1.0" encoding="utf-8" standalone="no"?>
<!DOCTYPE svg PUBLIC "-//W3C//DTD SVG 1.1//EN"
  "http://www.w3.org/Graphics/SVG/1.1/DTD/svg11.dtd">
<svg xmlns:xlink="http://www.w3.org/1999/xlink" width="432pt" height="288pt" viewBox="0 0 432 288" xmlns="http://www.w3.org/2000/svg" version="1.1">
 <metadata>
  <rdf:RDF xmlns:dc="http://purl.org/dc/elements/1.1/" xmlns:cc="http://creativecommons.org/ns#" xmlns:rdf="http://www.w3.org/1999/02/22-rdf-syntax-ns#">
   <cc:Work>
    <dc:type rdf:resource="http://purl.org/dc/dcmitype/StillImage"/>
    <dc:date>2022-10-31T16:54:54.897795</dc:date>
    <dc:format>image/svg+xml</dc:format>
    <dc:creator>
     <cc:Agent>
      <dc:title>Matplotlib v3.5.2, https://matplotlib.org/</dc:title>
     </cc:Agent>
    </dc:creator>
   </cc:Work>
  </rdf:RDF>
 </metadata>
 <defs>
  <style type="text/css">*{stroke-linejoin: round; stroke-linecap: butt}</style>
 </defs>
 <g id="figure_1">
  <g id="patch_1">
   <path d="M 0 288 
L 432 288 
L 432 0 
L 0 0 
L 0 288 
z
" style="fill: none"/>
  </g>
  <g id="axes_1">
   <g id="patch_2">
    <path d="M 54 252 
L 388.8 252 
L 388.8 34.56 
L 54 34.56 
z
" style="fill: #ffffff"/>
   </g>
   <g id="matplotlib.axis_1">
    <g id="xtick_1">
     <g id="line2d_1">
      <defs>
       <path id="meef1339364" d="M 0 0 
L 0 3.5 
" style="stroke: #000000; stroke-width: 0.8"/>
      </defs>
      <g>
       <use xlink:href="#meef1339364" x="54" y="252" style="stroke: #000000; stroke-width: 0.8"/>
      </g>
     </g>
     <g id="text_1">
      <!-- 0.0 -->
      <g transform="translate(42.867812 269.637812)scale(0.14 -0.14)">
       <defs>
        <path id="DejaVuSans-30" d="M 2034 4250 
Q 1547 4250 1301 3770 
Q 1056 3291 1056 2328 
Q 1056 1369 1301 889 
Q 1547 409 2034 409 
Q 2525 409 2770 889 
Q 3016 1369 3016 2328 
Q 3016 3291 2770 3770 
Q 2525 4250 2034 4250 
z
M 2034 4750 
Q 2819 4750 3233 4129 
Q 3647 3509 3647 2328 
Q 3647 1150 3233 529 
Q 2819 -91 2034 -91 
Q 1250 -91 836 529 
Q 422 1150 422 2328 
Q 422 3509 836 4129 
Q 1250 4750 2034 4750 
z
" transform="scale(0.015625)"/>
        <path id="DejaVuSans-2e" d="M 684 794 
L 1344 794 
L 1344 0 
L 684 0 
L 684 794 
z
" transform="scale(0.015625)"/>
       </defs>
       <use xlink:href="#DejaVuSans-30"/>
       <use xlink:href="#DejaVuSans-2e" x="63.623047"/>
       <use xlink:href="#DejaVuSans-30" x="95.410156"/>
      </g>
     </g>
    </g>
    <g id="xtick_2">
     <g id="line2d_2">
      <g>
       <use xlink:href="#meef1339364" x="109.8" y="252" style="stroke: #000000; stroke-width: 0.8"/>
      </g>
     </g>
     <g id="text_2">
      <!-- 0.5 -->
      <g transform="translate(98.667812 269.637812)scale(0.14 -0.14)">
       <defs>
        <path id="DejaVuSans-35" d="M 691 4666 
L 3169 4666 
L 3169 4134 
L 1269 4134 
L 1269 2991 
Q 1406 3038 1543 3061 
Q 1681 3084 1819 3084 
Q 2600 3084 3056 2656 
Q 3513 2228 3513 1497 
Q 3513 744 3044 326 
Q 2575 -91 1722 -91 
Q 1428 -91 1123 -41 
Q 819 9 494 109 
L 494 744 
Q 775 591 1075 516 
Q 1375 441 1709 441 
Q 2250 441 2565 725 
Q 2881 1009 2881 1497 
Q 2881 1984 2565 2268 
Q 2250 2553 1709 2553 
Q 1456 2553 1204 2497 
Q 953 2441 691 2322 
L 691 4666 
z
" transform="scale(0.015625)"/>
       </defs>
       <use xlink:href="#DejaVuSans-30"/>
       <use xlink:href="#DejaVuSans-2e" x="63.623047"/>
       <use xlink:href="#DejaVuSans-35" x="95.410156"/>
      </g>
     </g>
    </g>
    <g id="xtick_3">
     <g id="line2d_3">
      <g>
       <use xlink:href="#meef1339364" x="165.6" y="252" style="stroke: #000000; stroke-width: 0.8"/>
      </g>
     </g>
     <g id="text_3">
      <!-- 1.0 -->
      <g transform="translate(154.467812 269.637812)scale(0.14 -0.14)">
       <defs>
        <path id="DejaVuSans-31" d="M 794 531 
L 1825 531 
L 1825 4091 
L 703 3866 
L 703 4441 
L 1819 4666 
L 2450 4666 
L 2450 531 
L 3481 531 
L 3481 0 
L 794 0 
L 794 531 
z
" transform="scale(0.015625)"/>
       </defs>
       <use xlink:href="#DejaVuSans-31"/>
       <use xlink:href="#DejaVuSans-2e" x="63.623047"/>
       <use xlink:href="#DejaVuSans-30" x="95.410156"/>
      </g>
     </g>
    </g>
    <g id="xtick_4">
     <g id="line2d_4">
      <g>
       <use xlink:href="#meef1339364" x="221.4" y="252" style="stroke: #000000; stroke-width: 0.8"/>
      </g>
     </g>
     <g id="text_4">
      <!-- 1.5 -->
      <g transform="translate(210.267812 269.637812)scale(0.14 -0.14)">
       <use xlink:href="#DejaVuSans-31"/>
       <use xlink:href="#DejaVuSans-2e" x="63.623047"/>
       <use xlink:href="#DejaVuSans-35" x="95.410156"/>
      </g>
     </g>
    </g>
    <g id="xtick_5">
     <g id="line2d_5">
      <g>
       <use xlink:href="#meef1339364" x="277.2" y="252" style="stroke: #000000; stroke-width: 0.8"/>
      </g>
     </g>
     <g id="text_5">
      <!-- 2.0 -->
      <g transform="translate(266.067813 269.637812)scale(0.14 -0.14)">
       <defs>
        <path id="DejaVuSans-32" d="M 1228 531 
L 3431 531 
L 3431 0 
L 469 0 
L 469 531 
Q 828 903 1448 1529 
Q 2069 2156 2228 2338 
Q 2531 2678 2651 2914 
Q 2772 3150 2772 3378 
Q 2772 3750 2511 3984 
Q 2250 4219 1831 4219 
Q 1534 4219 1204 4116 
Q 875 4013 500 3803 
L 500 4441 
Q 881 4594 1212 4672 
Q 1544 4750 1819 4750 
Q 2544 4750 2975 4387 
Q 3406 4025 3406 3419 
Q 3406 3131 3298 2873 
Q 3191 2616 2906 2266 
Q 2828 2175 2409 1742 
Q 1991 1309 1228 531 
z
" transform="scale(0.015625)"/>
       </defs>
       <use xlink:href="#DejaVuSans-32"/>
       <use xlink:href="#DejaVuSans-2e" x="63.623047"/>
       <use xlink:href="#DejaVuSans-30" x="95.410156"/>
      </g>
     </g>
    </g>
    <g id="xtick_6">
     <g id="line2d_6">
      <g>
       <use xlink:href="#meef1339364" x="333" y="252" style="stroke: #000000; stroke-width: 0.8"/>
      </g>
     </g>
     <g id="text_6">
      <!-- 2.5 -->
      <g transform="translate(321.867813 269.637812)scale(0.14 -0.14)">
       <use xlink:href="#DejaVuSans-32"/>
       <use xlink:href="#DejaVuSans-2e" x="63.623047"/>
       <use xlink:href="#DejaVuSans-35" x="95.410156"/>
      </g>
     </g>
    </g>
    <g id="xtick_7">
     <g id="line2d_7">
      <g>
       <use xlink:href="#meef1339364" x="388.8" y="252" style="stroke: #000000; stroke-width: 0.8"/>
      </g>
     </g>
     <g id="text_7">
      <!-- 3.0 -->
      <g transform="translate(377.667812 269.637812)scale(0.14 -0.14)">
       <defs>
        <path id="DejaVuSans-33" d="M 2597 2516 
Q 3050 2419 3304 2112 
Q 3559 1806 3559 1356 
Q 3559 666 3084 287 
Q 2609 -91 1734 -91 
Q 1441 -91 1130 -33 
Q 819 25 488 141 
L 488 750 
Q 750 597 1062 519 
Q 1375 441 1716 441 
Q 2309 441 2620 675 
Q 2931 909 2931 1356 
Q 2931 1769 2642 2001 
Q 2353 2234 1838 2234 
L 1294 2234 
L 1294 2753 
L 1863 2753 
Q 2328 2753 2575 2939 
Q 2822 3125 2822 3475 
Q 2822 3834 2567 4026 
Q 2313 4219 1838 4219 
Q 1578 4219 1281 4162 
Q 984 4106 628 3988 
L 628 4550 
Q 988 4650 1302 4700 
Q 1616 4750 1894 4750 
Q 2613 4750 3031 4423 
Q 3450 4097 3450 3541 
Q 3450 3153 3228 2886 
Q 3006 2619 2597 2516 
z
" transform="scale(0.015625)"/>
       </defs>
       <use xlink:href="#DejaVuSans-33"/>
       <use xlink:href="#DejaVuSans-2e" x="63.623047"/>
       <use xlink:href="#DejaVuSans-30" x="95.410156"/>
      </g>
     </g>
    </g>
    <g id="text_8">
     <!--  Time (s)  -->
     <g transform="translate(188.06875 288.196875)scale(0.16 -0.16)">
      <defs>
       <path id="ArialMT-20" transform="scale(0.015625)"/>
       <path id="ArialMT-54" d="M 1659 0 
L 1659 4041 
L 150 4041 
L 150 4581 
L 3781 4581 
L 3781 4041 
L 2266 4041 
L 2266 0 
L 1659 0 
z
" transform="scale(0.015625)"/>
       <path id="ArialMT-69" d="M 425 3934 
L 425 4581 
L 988 4581 
L 988 3934 
L 425 3934 
z
M 425 0 
L 425 3319 
L 988 3319 
L 988 0 
L 425 0 
z
" transform="scale(0.015625)"/>
       <path id="ArialMT-6d" d="M 422 0 
L 422 3319 
L 925 3319 
L 925 2853 
Q 1081 3097 1340 3245 
Q 1600 3394 1931 3394 
Q 2300 3394 2536 3241 
Q 2772 3088 2869 2813 
Q 3263 3394 3894 3394 
Q 4388 3394 4653 3120 
Q 4919 2847 4919 2278 
L 4919 0 
L 4359 0 
L 4359 2091 
Q 4359 2428 4304 2576 
Q 4250 2725 4106 2815 
Q 3963 2906 3769 2906 
Q 3419 2906 3187 2673 
Q 2956 2441 2956 1928 
L 2956 0 
L 2394 0 
L 2394 2156 
Q 2394 2531 2256 2718 
Q 2119 2906 1806 2906 
Q 1569 2906 1367 2781 
Q 1166 2656 1075 2415 
Q 984 2175 984 1722 
L 984 0 
L 422 0 
z
" transform="scale(0.015625)"/>
       <path id="ArialMT-65" d="M 2694 1069 
L 3275 997 
Q 3138 488 2766 206 
Q 2394 -75 1816 -75 
Q 1088 -75 661 373 
Q 234 822 234 1631 
Q 234 2469 665 2931 
Q 1097 3394 1784 3394 
Q 2450 3394 2872 2941 
Q 3294 2488 3294 1666 
Q 3294 1616 3291 1516 
L 816 1516 
Q 847 969 1125 678 
Q 1403 388 1819 388 
Q 2128 388 2347 550 
Q 2566 713 2694 1069 
z
M 847 1978 
L 2700 1978 
Q 2663 2397 2488 2606 
Q 2219 2931 1791 2931 
Q 1403 2931 1139 2672 
Q 875 2413 847 1978 
z
" transform="scale(0.015625)"/>
       <path id="ArialMT-28" d="M 1497 -1347 
Q 1031 -759 709 28 
Q 388 816 388 1659 
Q 388 2403 628 3084 
Q 909 3875 1497 4659 
L 1900 4659 
Q 1522 4009 1400 3731 
Q 1209 3300 1100 2831 
Q 966 2247 966 1656 
Q 966 153 1900 -1347 
L 1497 -1347 
z
" transform="scale(0.015625)"/>
       <path id="ArialMT-73" d="M 197 991 
L 753 1078 
Q 800 744 1014 566 
Q 1228 388 1613 388 
Q 2000 388 2187 545 
Q 2375 703 2375 916 
Q 2375 1106 2209 1216 
Q 2094 1291 1634 1406 
Q 1016 1563 777 1677 
Q 538 1791 414 1992 
Q 291 2194 291 2438 
Q 291 2659 392 2848 
Q 494 3038 669 3163 
Q 800 3259 1026 3326 
Q 1253 3394 1513 3394 
Q 1903 3394 2198 3281 
Q 2494 3169 2634 2976 
Q 2775 2784 2828 2463 
L 2278 2388 
Q 2241 2644 2061 2787 
Q 1881 2931 1553 2931 
Q 1166 2931 1000 2803 
Q 834 2675 834 2503 
Q 834 2394 903 2306 
Q 972 2216 1119 2156 
Q 1203 2125 1616 2013 
Q 2213 1853 2448 1751 
Q 2684 1650 2818 1456 
Q 2953 1263 2953 975 
Q 2953 694 2789 445 
Q 2625 197 2315 61 
Q 2006 -75 1616 -75 
Q 969 -75 630 194 
Q 291 463 197 991 
z
" transform="scale(0.015625)"/>
       <path id="ArialMT-29" d="M 791 -1347 
L 388 -1347 
Q 1322 153 1322 1656 
Q 1322 2244 1188 2822 
Q 1081 3291 891 3722 
Q 769 4003 388 4659 
L 791 4659 
Q 1378 3875 1659 3084 
Q 1900 2403 1900 1659 
Q 1900 816 1576 28 
Q 1253 -759 791 -1347 
z
" transform="scale(0.015625)"/>
      </defs>
      <use xlink:href="#ArialMT-20"/>
      <use xlink:href="#ArialMT-54" x="26.033203"/>
      <use xlink:href="#ArialMT-69" x="83.367188"/>
      <use xlink:href="#ArialMT-6d" x="105.583984"/>
      <use xlink:href="#ArialMT-65" x="188.884766"/>
      <use xlink:href="#ArialMT-20" x="244.5"/>
      <use xlink:href="#ArialMT-28" x="272.283203"/>
      <use xlink:href="#ArialMT-73" x="305.583984"/>
      <use xlink:href="#ArialMT-29" x="355.583984"/>
      <use xlink:href="#ArialMT-20" x="388.884766"/>
     </g>
    </g>
   </g>
   <g id="matplotlib.axis_2">
    <g id="ytick_1">
     <g id="line2d_8">
      <defs>
       <path id="m720b5dd238" d="M 0 0 
L -3.5 0 
" style="stroke: #000000; stroke-width: 0.8"/>
      </defs>
      <g>
       <use xlink:href="#m720b5dd238" x="54" y="252" style="stroke: #000000; stroke-width: 0.8"/>
      </g>
     </g>
     <g id="text_9">
      <!-- 0 -->
      <g transform="translate(38.0925 257.318906)scale(0.14 -0.14)">
       <use xlink:href="#DejaVuSans-30"/>
      </g>
     </g>
    </g>
    <g id="ytick_2">
     <g id="line2d_9">
      <g>
       <use xlink:href="#m720b5dd238" x="54" y="215.76" style="stroke: #000000; stroke-width: 0.8"/>
      </g>
     </g>
     <g id="text_10">
      <!-- 5 -->
      <g transform="translate(38.0925 221.078906)scale(0.14 -0.14)">
       <use xlink:href="#DejaVuSans-35"/>
      </g>
     </g>
    </g>
    <g id="ytick_3">
     <g id="line2d_10">
      <g>
       <use xlink:href="#m720b5dd238" x="54" y="179.52" style="stroke: #000000; stroke-width: 0.8"/>
      </g>
     </g>
     <g id="text_11">
      <!-- 10 -->
      <g transform="translate(29.185 184.838906)scale(0.14 -0.14)">
       <use xlink:href="#DejaVuSans-31"/>
       <use xlink:href="#DejaVuSans-30" x="63.623047"/>
      </g>
     </g>
    </g>
    <g id="ytick_4">
     <g id="line2d_11">
      <g>
       <use xlink:href="#m720b5dd238" x="54" y="143.28" style="stroke: #000000; stroke-width: 0.8"/>
      </g>
     </g>
     <g id="text_12">
      <!-- 15 -->
      <g transform="translate(29.185 148.598906)scale(0.14 -0.14)">
       <use xlink:href="#DejaVuSans-31"/>
       <use xlink:href="#DejaVuSans-35" x="63.623047"/>
      </g>
     </g>
    </g>
    <g id="ytick_5">
     <g id="line2d_12">
      <g>
       <use xlink:href="#m720b5dd238" x="54" y="107.04" style="stroke: #000000; stroke-width: 0.8"/>
      </g>
     </g>
     <g id="text_13">
      <!-- 20 -->
      <g transform="translate(29.185 112.358906)scale(0.14 -0.14)">
       <use xlink:href="#DejaVuSans-32"/>
       <use xlink:href="#DejaVuSans-30" x="63.623047"/>
      </g>
     </g>
    </g>
    <g id="ytick_6">
     <g id="line2d_13">
      <g>
       <use xlink:href="#m720b5dd238" x="54" y="70.8" style="stroke: #000000; stroke-width: 0.8"/>
      </g>
     </g>
     <g id="text_14">
      <!-- 25 -->
      <g transform="translate(29.185 76.118906)scale(0.14 -0.14)">
       <use xlink:href="#DejaVuSans-32"/>
       <use xlink:href="#DejaVuSans-35" x="63.623047"/>
      </g>
     </g>
    </g>
    <g id="ytick_7">
     <g id="line2d_14">
      <g>
       <use xlink:href="#m720b5dd238" x="54" y="34.56" style="stroke: #000000; stroke-width: 0.8"/>
      </g>
     </g>
     <g id="text_15">
      <!-- 30 -->
      <g transform="translate(29.185 39.878906)scale(0.14 -0.14)">
       <use xlink:href="#DejaVuSans-33"/>
       <use xlink:href="#DejaVuSans-30" x="63.623047"/>
      </g>
     </g>
    </g>
    <g id="text_16">
     <!--  Rate (Hz) -->
     <g transform="translate(21.8175 179.7275)rotate(-90)scale(0.16 -0.16)">
      <defs>
       <path id="ArialMT-52" d="M 503 0 
L 503 4581 
L 2534 4581 
Q 3147 4581 3465 4457 
Q 3784 4334 3975 4021 
Q 4166 3709 4166 3331 
Q 4166 2844 3850 2509 
Q 3534 2175 2875 2084 
Q 3116 1969 3241 1856 
Q 3506 1613 3744 1247 
L 4541 0 
L 3778 0 
L 3172 953 
Q 2906 1366 2734 1584 
Q 2563 1803 2427 1890 
Q 2291 1978 2150 2013 
Q 2047 2034 1813 2034 
L 1109 2034 
L 1109 0 
L 503 0 
z
M 1109 2559 
L 2413 2559 
Q 2828 2559 3062 2645 
Q 3297 2731 3419 2920 
Q 3541 3109 3541 3331 
Q 3541 3656 3305 3865 
Q 3069 4075 2559 4075 
L 1109 4075 
L 1109 2559 
z
" transform="scale(0.015625)"/>
       <path id="ArialMT-61" d="M 2588 409 
Q 2275 144 1986 34 
Q 1697 -75 1366 -75 
Q 819 -75 525 192 
Q 231 459 231 875 
Q 231 1119 342 1320 
Q 453 1522 633 1644 
Q 813 1766 1038 1828 
Q 1203 1872 1538 1913 
Q 2219 1994 2541 2106 
Q 2544 2222 2544 2253 
Q 2544 2597 2384 2738 
Q 2169 2928 1744 2928 
Q 1347 2928 1158 2789 
Q 969 2650 878 2297 
L 328 2372 
Q 403 2725 575 2942 
Q 747 3159 1072 3276 
Q 1397 3394 1825 3394 
Q 2250 3394 2515 3294 
Q 2781 3194 2906 3042 
Q 3031 2891 3081 2659 
Q 3109 2516 3109 2141 
L 3109 1391 
Q 3109 606 3145 398 
Q 3181 191 3288 0 
L 2700 0 
Q 2613 175 2588 409 
z
M 2541 1666 
Q 2234 1541 1622 1453 
Q 1275 1403 1131 1340 
Q 988 1278 909 1158 
Q 831 1038 831 891 
Q 831 666 1001 516 
Q 1172 366 1500 366 
Q 1825 366 2078 508 
Q 2331 650 2450 897 
Q 2541 1088 2541 1459 
L 2541 1666 
z
" transform="scale(0.015625)"/>
       <path id="ArialMT-74" d="M 1650 503 
L 1731 6 
Q 1494 -44 1306 -44 
Q 1000 -44 831 53 
Q 663 150 594 308 
Q 525 466 525 972 
L 525 2881 
L 113 2881 
L 113 3319 
L 525 3319 
L 525 4141 
L 1084 4478 
L 1084 3319 
L 1650 3319 
L 1650 2881 
L 1084 2881 
L 1084 941 
Q 1084 700 1114 631 
Q 1144 563 1211 522 
Q 1278 481 1403 481 
Q 1497 481 1650 503 
z
" transform="scale(0.015625)"/>
       <path id="ArialMT-48" d="M 513 0 
L 513 4581 
L 1119 4581 
L 1119 2700 
L 3500 2700 
L 3500 4581 
L 4106 4581 
L 4106 0 
L 3500 0 
L 3500 2159 
L 1119 2159 
L 1119 0 
L 513 0 
z
" transform="scale(0.015625)"/>
       <path id="ArialMT-7a" d="M 125 0 
L 125 456 
L 2238 2881 
Q 1878 2863 1603 2863 
L 250 2863 
L 250 3319 
L 2963 3319 
L 2963 2947 
L 1166 841 
L 819 456 
Q 1197 484 1528 484 
L 3063 484 
L 3063 0 
L 125 0 
z
" transform="scale(0.015625)"/>
      </defs>
      <use xlink:href="#ArialMT-20"/>
      <use xlink:href="#ArialMT-52" x="27.783203"/>
      <use xlink:href="#ArialMT-61" x="100"/>
      <use xlink:href="#ArialMT-74" x="155.615234"/>
      <use xlink:href="#ArialMT-65" x="183.398438"/>
      <use xlink:href="#ArialMT-20" x="239.013672"/>
      <use xlink:href="#ArialMT-28" x="266.796875"/>
      <use xlink:href="#ArialMT-48" x="300.097656"/>
      <use xlink:href="#ArialMT-7a" x="372.314453"/>
      <use xlink:href="#ArialMT-29" x="422.314453"/>
     </g>
    </g>
   </g>
   <g id="line2d_15">
    <path d="M 54 252 
L 96.1848 251.88957 
L 98.1936 251.643208 
L 99.5328 251.269675 
L 100.593 250.758731 
L 101.5416 250.058445 
L 102.4344 249.109957 
L 103.2714 247.888018 
L 104.1084 246.26201 
L 104.9454 244.145409 
L 105.8382 241.247836 
L 106.7868 237.335432 
L 107.7912 232.148059 
L 108.8514 225.426623 
L 110.0232 216.499803 
L 111.4182 204.002276 
L 113.2596 185.240333 
L 117.054 146.087616 
L 118.449 134.183361 
L 119.6208 125.909623 
L 120.681 119.89079 
L 121.6296 115.677422 
L 122.5224 112.666705 
L 123.3594 110.613175 
L 124.0848 109.37314 
L 124.7544 108.622853 
L 125.3682 108.228673 
L 125.982 108.080622 
L 126.6516 108.16168 
L 127.377 108.490036 
L 128.214 109.119387 
L 129.33 110.265672 
L 131.004 112.359618 
L 133.9056 115.998478 
L 135.2448 117.3082 
L 136.3608 118.103657 
L 137.3652 118.55434 
L 138.3138 118.735878 
L 139.2624 118.679378 
L 140.211 118.393942 
L 141.2712 117.826191 
L 142.443 116.934919 
L 143.8938 115.534216 
L 146.0142 113.140006 
L 149.9202 108.717384 
L 151.9848 106.743341 
L 154.1052 105.023461 
L 156.672 103.242756 
L 159.9084 101.277986 
L 162.7542 99.793277 
L 165.2652 98.730496 
L 167.9994 97.82548 
L 172.6308 96.580017 
L 180.4428 94.662557 
L 184.3488 93.959455 
L 188.3664 93.470897 
L 194.6718 92.972705 
L 200.8656 92.393965 
L 209.2914 91.566018 
L 227.3148 90.302015 
L 238.698 89.529734 
L 252.4248 88.360371 
L 257.5026 88.326717 
L 265.4262 88.276815 
L 274.131 87.937001 
L 285.012 87.503657 
L 308.727 86.817328 
L 313.5816 86.877255 
L 316.1484 87.113172 
L 317.7666 87.474781 
L 318.9942 87.977619 
L 319.9986 88.631331 
L 320.8914 89.478928 
L 321.7284 90.580685 
L 322.5654 92.064889 
L 323.4024 94.02478 
L 324.2394 96.559144 
L 325.1322 100.006313 
L 326.0808 104.628862 
L 327.0852 110.71111 
L 328.1454 118.524177 
L 329.373 129.326338 
L 330.8238 144.213458 
L 333 169.231216 
L 335.79 200.853706 
L 337.2966 215.390715 
L 338.5242 225.252278 
L 339.6402 232.554131 
L 340.7004 238.065375 
L 341.7048 242.117804 
L 342.6534 245.035843 
L 343.5462 247.103525 
L 344.439 248.63384 
L 345.3318 249.737894 
L 346.2804 250.553977 
L 347.2848 251.124982 
L 348.4566 251.530925 
L 349.9632 251.801791 
L 352.1952 251.9512 
L 357.1614 251.998789 
L 388.7442 252 
L 388.7442 252 
" clip-path="url(#p5789e25cd3)" style="fill: none; stroke: #add8e6; stroke-width: 1.5; stroke-linecap: square"/>
   </g>
   <g id="line2d_16">
    <path d="M 54 252 
L 96.1848 251.891127 
L 98.1936 251.64823 
L 99.5328 251.279943 
L 100.6488 250.742631 
L 101.5974 250.036169 
L 102.4902 249.080812 
L 103.3272 247.85181 
L 104.1642 246.218684 
L 105.0012 244.095734 
L 105.894 241.193525 
L 106.8426 237.280511 
L 107.847 232.099915 
L 108.9072 225.396921 
L 110.079 216.506912 
L 111.474 204.076457 
L 113.3154 185.428002 
L 117.2214 145.301451 
L 118.6722 132.924077 
L 119.9556 123.828558 
L 121.0716 117.395981 
L 122.1318 112.492328 
L 123.1362 108.816651 
L 124.1406 105.945064 
L 125.145 103.730086 
L 126.1494 102.029216 
L 127.2096 100.65137 
L 128.3814 99.481528 
L 129.7764 98.403024 
L 131.6178 97.27504 
L 134.4078 95.853303 
L 138.537 94.008342 
L 142.3872 92.522296 
L 145.9584 91.379353 
L 149.5296 90.467658 
L 153.5472 89.679754 
L 171.6822 86.663717 
L 176.9274 86.002088 
L 198.4104 83.760411 
L 224.2458 81.999182 
L 237.4146 81.210462 
L 249.0768 80.671582 
L 256.9446 80.389437 
L 266.598 79.98777 
L 284.175 79.406457 
L 294.1074 79.150395 
L 313.191 78.887863 
L 316.1484 79.000411 
L 317.7108 79.271763 
L 318.8826 79.696439 
L 319.8312 80.267438 
L 320.724 81.072382 
L 321.561 82.142948 
L 322.398 83.606963 
L 323.235 85.560558 
L 324.072 88.106048 
L 324.9648 91.58921 
L 325.9134 96.284306 
L 326.9178 102.491586 
L 327.978 110.502687 
L 329.1498 121.087711 
L 330.5448 135.806961 
L 332.4978 159.076252 
L 335.8458 199.104785 
L 337.2966 213.735839 
L 338.5242 224.064247 
L 339.6402 231.705165 
L 340.7004 237.467534 
L 341.7048 241.701164 
L 342.6534 244.747258 
L 343.5462 246.904032 
L 344.439 248.499077 
L 345.3318 249.648952 
L 346.2246 250.456999 
L 347.229 251.065508 
L 348.4008 251.498538 
L 349.8516 251.780693 
L 351.972 251.941555 
L 356.3802 251.997625 
L 388.7442 252 
L 388.7442 252 
" clip-path="url(#p5789e25cd3)" style="fill: none; stroke: #008000; stroke-width: 1.5; stroke-linecap: square"/>
   </g>
   <g id="line2d_17">
    <path d="M 54 252 
L 95.6268 251.892719 
L 97.5798 251.652941 
L 98.919 251.272696 
L 99.9792 250.741345 
L 100.872 250.052329 
L 101.709 249.127688 
L 102.546 247.847812 
L 103.3272 246.246867 
L 104.1642 243.993752 
L 105.0012 241.071832 
L 105.894 237.088273 
L 106.8426 231.734452 
L 107.847 224.672833 
L 108.9072 215.576204 
L 110.1348 202.956216 
L 111.5856 185.489767 
L 113.6502 157.5384 
L 116.5518 118.594834 
L 118.0026 102.136321 
L 119.1744 91.161346 
L 120.2346 83.20433 
L 121.1832 77.677834 
L 122.0202 73.988792 
L 122.8014 71.468462 
L 123.5268 69.845062 
L 124.1406 68.9497 
L 124.6986 68.471202 
L 125.2566 68.273202 
L 125.8146 68.318923 
L 126.4284 68.60874 
L 127.1538 69.216496 
L 128.1024 70.340147 
L 129.4416 72.329209 
L 133.6266 78.806073 
L 134.8542 80.205918 
L 135.9144 81.107122 
L 136.863 81.647796 
L 137.7558 81.919161 
L 138.6486 81.960784 
L 139.5414 81.780378 
L 140.49 81.361393 
L 141.5502 80.645306 
L 142.8336 79.487894 
L 144.4518 77.704473 
L 151.0362 70.098807 
L 152.9892 68.384753 
L 155.1096 66.822555 
L 157.6764 65.219136 
L 160.3548 63.801218 
L 162.6984 62.800746 
L 164.9304 62.088954 
L 167.4972 61.515092 
L 174.9744 59.987481 
L 180.2754 58.798815 
L 183.5676 58.326321 
L 189.0918 57.810577 
L 203.2092 56.482736 
L 209.3472 55.871697 
L 216.8802 55.404911 
L 226.5894 55.042118 
L 234.2898 54.597614 
L 251.7552 53.496873 
L 257.7258 53.274832 
L 274.0752 52.847361 
L 300.7476 51.855267 
L 312.6888 51.751876 
L 315.5346 51.878416 
L 317.1528 52.162952 
L 318.3246 52.579624 
L 319.329 53.169205 
L 320.2218 53.95616 
L 321.0588 55.000578 
L 321.8958 56.432592 
L 322.7328 58.355226 
L 323.5698 60.882306 
L 324.4068 64.133108 
L 325.2996 68.530072 
L 326.2482 74.391323 
L 327.2526 82.055898 
L 328.3686 92.40181 
L 329.5962 105.932199 
L 331.1028 125.139766 
L 333.6696 161.344105 
L 335.9016 191.534144 
L 337.3524 208.334112 
L 338.58 220.168338 
L 339.696 228.907039 
L 340.7562 235.486085 
L 341.7048 240.076782 
L 342.6534 243.601314 
L 343.5462 246.097468 
L 344.439 247.943978 
L 345.3318 249.275487 
L 346.2246 250.211431 
L 347.1732 250.885006 
L 348.2334 251.362713 
L 349.5168 251.69031 
L 351.3024 251.895456 
L 354.3714 251.987125 
L 367.7634 252 
L 388.7442 252 
L 388.7442 252 
" clip-path="url(#p5789e25cd3)" style="fill: none; stroke: #7f2aff; stroke-width: 1.5; stroke-linecap: square"/>
   </g>
   <g id="line2d_18">
    <path d="M 54 252 
L 95.6268 251.892716 
L 97.5798 251.652928 
L 98.919 251.272652 
L 99.9792 250.741244 
L 100.872 250.052135 
L 101.709 249.127344 
L 102.546 247.847201 
L 103.3272 246.245831 
L 104.1642 243.991966 
L 105.0012 241.068801 
L 105.894 237.083097 
L 106.8426 231.725487 
L 107.847 224.657236 
L 108.9072 215.548938 
L 110.079 203.527194 
L 111.474 186.822383 
L 113.427 160.430234 
L 116.7192 115.810562 
L 118.17 99.237039 
L 119.3976 87.590427 
L 120.5136 79.037832 
L 121.518 72.951539 
L 122.4666 68.4827 
L 123.3594 65.26778 
L 124.2522 62.859475 
L 125.0892 61.196301 
L 125.9262 59.984323 
L 126.819 59.066688 
L 127.8234 58.362713 
L 128.9952 57.825382 
L 130.5576 57.372991 
L 132.9012 56.950844 
L 136.1934 56.595775 
L 141.1038 56.074952 
L 144.3402 55.450716 
L 148.6926 54.63065 
L 152.3754 54.21412 
L 156.7836 53.662759 
L 164.763 52.512069 
L 172.017 51.687065 
L 177.039 51.11798 
L 187.0272 50.165383 
L 193.5 49.602055 
L 212.751 48.172311 
L 218.2752 47.808845 
L 224.4132 47.395347 
L 233.7318 46.864346 
L 240.1488 46.679559 
L 245.6172 46.383743 
L 250.974 46.16113 
L 257.7258 45.905046 
L 263.5848 45.6728 
L 271.1736 45.436884 
L 276.5862 45.322681 
L 281.9988 45.169176 
L 288.639 44.931812 
L 297.1764 44.804058 
L 303.705 44.67785 
L 315.9252 44.674893 
L 317.376 44.994862 
L 318.492 45.469346 
L 319.4406 46.121697 
L 320.2776 46.968617 
L 321.0588 48.065439 
L 321.84 49.540465 
L 322.6212 51.484826 
L 323.4582 54.201158 
L 324.2952 57.694858 
L 325.188 62.414252 
L 326.1366 68.690642 
L 327.141 76.871425 
L 328.257 87.868304 
L 329.5404 102.878309 
L 331.1028 123.94745 
L 336.6828 202.029972 
L 337.9662 215.644956 
L 339.138 225.784088 
L 340.1982 233.092033 
L 341.2026 238.506136 
L 342.1512 242.432613 
L 343.044 245.233763 
L 343.9368 247.32061 
L 344.8296 248.8362 
L 345.7224 249.909218 
L 346.6152 250.649799 
L 347.6196 251.197053 
L 348.7914 251.578215 
L 350.3538 251.832241 
L 352.7532 251.964705 
L 358.7796 251.999747 
L 388.7442 252 
L 388.7442 252 
" clip-path="url(#p5789e25cd3)" style="fill: none; stroke: #a6611a; stroke-width: 1.5; stroke-linecap: square"/>
   </g>
   <g id="patch_3">
    <path d="M 54 252 
L 54 34.56 
" style="fill: none; stroke: #000000; stroke-width: 0.8; stroke-linejoin: miter; stroke-linecap: square"/>
   </g>
   <g id="patch_4">
    <path d="M 388.8 252 
L 388.8 34.56 
" style="fill: none; stroke: #000000; stroke-width: 0.8; stroke-linejoin: miter; stroke-linecap: square"/>
   </g>
   <g id="patch_5">
    <path d="M 54 252 
L 388.8 252 
" style="fill: none; stroke: #000000; stroke-width: 0.8; stroke-linejoin: miter; stroke-linecap: square"/>
   </g>
   <g id="patch_6">
    <path d="M 54 34.56 
L 388.8 34.56 
" style="fill: none; stroke: #000000; stroke-width: 0.8; stroke-linejoin: miter; stroke-linecap: square"/>
   </g>
   <g id="text_17">
    <!--  Instantaneous rate  -->
    <g transform="translate(150.69125 28.56)scale(0.16 -0.16)">
     <defs>
      <path id="ArialMT-49" d="M 597 0 
L 597 4581 
L 1203 4581 
L 1203 0 
L 597 0 
z
" transform="scale(0.015625)"/>
      <path id="ArialMT-6e" d="M 422 0 
L 422 3319 
L 928 3319 
L 928 2847 
Q 1294 3394 1984 3394 
Q 2284 3394 2536 3286 
Q 2788 3178 2913 3003 
Q 3038 2828 3088 2588 
Q 3119 2431 3119 2041 
L 3119 0 
L 2556 0 
L 2556 2019 
Q 2556 2363 2490 2533 
Q 2425 2703 2258 2804 
Q 2091 2906 1866 2906 
Q 1506 2906 1245 2678 
Q 984 2450 984 1813 
L 984 0 
L 422 0 
z
" transform="scale(0.015625)"/>
      <path id="ArialMT-6f" d="M 213 1659 
Q 213 2581 725 3025 
Q 1153 3394 1769 3394 
Q 2453 3394 2887 2945 
Q 3322 2497 3322 1706 
Q 3322 1066 3130 698 
Q 2938 331 2570 128 
Q 2203 -75 1769 -75 
Q 1072 -75 642 372 
Q 213 819 213 1659 
z
M 791 1659 
Q 791 1022 1069 705 
Q 1347 388 1769 388 
Q 2188 388 2466 706 
Q 2744 1025 2744 1678 
Q 2744 2294 2464 2611 
Q 2184 2928 1769 2928 
Q 1347 2928 1069 2612 
Q 791 2297 791 1659 
z
" transform="scale(0.015625)"/>
      <path id="ArialMT-75" d="M 2597 0 
L 2597 488 
Q 2209 -75 1544 -75 
Q 1250 -75 995 37 
Q 741 150 617 320 
Q 494 491 444 738 
Q 409 903 409 1263 
L 409 3319 
L 972 3319 
L 972 1478 
Q 972 1038 1006 884 
Q 1059 663 1231 536 
Q 1403 409 1656 409 
Q 1909 409 2131 539 
Q 2353 669 2445 892 
Q 2538 1116 2538 1541 
L 2538 3319 
L 3100 3319 
L 3100 0 
L 2597 0 
z
" transform="scale(0.015625)"/>
      <path id="ArialMT-72" d="M 416 0 
L 416 3319 
L 922 3319 
L 922 2816 
Q 1116 3169 1280 3281 
Q 1444 3394 1641 3394 
Q 1925 3394 2219 3213 
L 2025 2691 
Q 1819 2813 1613 2813 
Q 1428 2813 1281 2702 
Q 1134 2591 1072 2394 
Q 978 2094 978 1738 
L 978 0 
L 416 0 
z
" transform="scale(0.015625)"/>
     </defs>
     <use xlink:href="#ArialMT-20"/>
     <use xlink:href="#ArialMT-49" x="27.783203"/>
     <use xlink:href="#ArialMT-6e" x="55.566406"/>
     <use xlink:href="#ArialMT-73" x="111.181641"/>
     <use xlink:href="#ArialMT-74" x="161.181641"/>
     <use xlink:href="#ArialMT-61" x="188.964844"/>
     <use xlink:href="#ArialMT-6e" x="244.580078"/>
     <use xlink:href="#ArialMT-74" x="300.195312"/>
     <use xlink:href="#ArialMT-61" x="327.978516"/>
     <use xlink:href="#ArialMT-6e" x="383.59375"/>
     <use xlink:href="#ArialMT-65" x="439.208984"/>
     <use xlink:href="#ArialMT-6f" x="494.824219"/>
     <use xlink:href="#ArialMT-75" x="550.439453"/>
     <use xlink:href="#ArialMT-73" x="606.054688"/>
     <use xlink:href="#ArialMT-20" x="656.054688"/>
     <use xlink:href="#ArialMT-72" x="683.837891"/>
     <use xlink:href="#ArialMT-61" x="717.138672"/>
     <use xlink:href="#ArialMT-74" x="772.753906"/>
     <use xlink:href="#ArialMT-65" x="800.537109"/>
     <use xlink:href="#ArialMT-20" x="856.152344"/>
    </g>
   </g>
  </g>
 </g>
 <defs>
  <clipPath id="p5789e25cd3">
   <rect x="54" y="34.56" width="334.8" height="217.44"/>
  </clipPath>
 </defs>
</svg>
