<?xml version="1.0" encoding="utf-8" standalone="no"?>
<!DOCTYPE svg PUBLIC "-//W3C//DTD SVG 1.1//EN"
  "http://www.w3.org/Graphics/SVG/1.1/DTD/svg11.dtd">
<svg xmlns:xlink="http://www.w3.org/1999/xlink" width="432pt" height="288pt" viewBox="0 0 432 288" xmlns="http://www.w3.org/2000/svg" version="1.1">
 <metadata>
  <rdf:RDF xmlns:dc="http://purl.org/dc/elements/1.1/" xmlns:cc="http://creativecommons.org/ns#" xmlns:rdf="http://www.w3.org/1999/02/22-rdf-syntax-ns#">
   <cc:Work>
    <dc:type rdf:resource="http://purl.org/dc/dcmitype/StillImage"/>
    <dc:date>2022-10-31T17:06:16.819184</dc:date>
    <dc:format>image/svg+xml</dc:format>
    <dc:creator>
     <cc:Agent>
      <dc:title>Matplotlib v3.5.2, https://matplotlib.org/</dc:title>
     </cc:Agent>
    </dc:creator>
   </cc:Work>
  </rdf:RDF>
 </metadata>
 <defs>
  <style type="text/css">*{stroke-linejoin: round; stroke-linecap: butt}</style>
 </defs>
 <g id="figure_1">
  <g id="patch_1">
   <path d="M 0 288 
L 432 288 
L 432 0 
L 0 0 
L 0 288 
z
" style="fill: none"/>
  </g>
  <g id="axes_1">
   <g id="patch_2">
    <path d="M 54 252 
L 388.8 252 
L 388.8 34.56 
L 54 34.56 
z
" style="fill: #ffffff"/>
   </g>
   <g id="matplotlib.axis_1">
    <g id="xtick_1">
     <g id="line2d_1">
      <defs>
       <path id="m186df75368" d="M 0 0 
L 0 3.5 
" style="stroke: #000000; stroke-width: 0.8"/>
      </defs>
      <g>
       <use xlink:href="#m186df75368" x="54" y="252" style="stroke: #000000; stroke-width: 0.8"/>
      </g>
     </g>
     <g id="text_1">
      <!-- 0.0 -->
      <g transform="translate(42.867812 269.637812)scale(0.14 -0.14)">
       <defs>
        <path id="DejaVuSans-30" d="M 2034 4250 
Q 1547 4250 1301 3770 
Q 1056 3291 1056 2328 
Q 1056 1369 1301 889 
Q 1547 409 2034 409 
Q 2525 409 2770 889 
Q 3016 1369 3016 2328 
Q 3016 3291 2770 3770 
Q 2525 4250 2034 4250 
z
M 2034 4750 
Q 2819 4750 3233 4129 
Q 3647 3509 3647 2328 
Q 3647 1150 3233 529 
Q 2819 -91 2034 -91 
Q 1250 -91 836 529 
Q 422 1150 422 2328 
Q 422 3509 836 4129 
Q 1250 4750 2034 4750 
z
" transform="scale(0.015625)"/>
        <path id="DejaVuSans-2e" d="M 684 794 
L 1344 794 
L 1344 0 
L 684 0 
L 684 794 
z
" transform="scale(0.015625)"/>
       </defs>
       <use xlink:href="#DejaVuSans-30"/>
       <use xlink:href="#DejaVuSans-2e" x="63.623047"/>
       <use xlink:href="#DejaVuSans-30" x="95.410156"/>
      </g>
     </g>
    </g>
    <g id="xtick_2">
     <g id="line2d_2">
      <g>
       <use xlink:href="#m186df75368" x="109.8" y="252" style="stroke: #000000; stroke-width: 0.8"/>
      </g>
     </g>
     <g id="text_2">
      <!-- 0.5 -->
      <g transform="translate(98.667812 269.637812)scale(0.14 -0.14)">
       <defs>
        <path id="DejaVuSans-35" d="M 691 4666 
L 3169 4666 
L 3169 4134 
L 1269 4134 
L 1269 2991 
Q 1406 3038 1543 3061 
Q 1681 3084 1819 3084 
Q 2600 3084 3056 2656 
Q 3513 2228 3513 1497 
Q 3513 744 3044 326 
Q 2575 -91 1722 -91 
Q 1428 -91 1123 -41 
Q 819 9 494 109 
L 494 744 
Q 775 591 1075 516 
Q 1375 441 1709 441 
Q 2250 441 2565 725 
Q 2881 1009 2881 1497 
Q 2881 1984 2565 2268 
Q 2250 2553 1709 2553 
Q 1456 2553 1204 2497 
Q 953 2441 691 2322 
L 691 4666 
z
" transform="scale(0.015625)"/>
       </defs>
       <use xlink:href="#DejaVuSans-30"/>
       <use xlink:href="#DejaVuSans-2e" x="63.623047"/>
       <use xlink:href="#DejaVuSans-35" x="95.410156"/>
      </g>
     </g>
    </g>
    <g id="xtick_3">
     <g id="line2d_3">
      <g>
       <use xlink:href="#m186df75368" x="165.6" y="252" style="stroke: #000000; stroke-width: 0.8"/>
      </g>
     </g>
     <g id="text_3">
      <!-- 1.0 -->
      <g transform="translate(154.467812 269.637812)scale(0.14 -0.14)">
       <defs>
        <path id="DejaVuSans-31" d="M 794 531 
L 1825 531 
L 1825 4091 
L 703 3866 
L 703 4441 
L 1819 4666 
L 2450 4666 
L 2450 531 
L 3481 531 
L 3481 0 
L 794 0 
L 794 531 
z
" transform="scale(0.015625)"/>
       </defs>
       <use xlink:href="#DejaVuSans-31"/>
       <use xlink:href="#DejaVuSans-2e" x="63.623047"/>
       <use xlink:href="#DejaVuSans-30" x="95.410156"/>
      </g>
     </g>
    </g>
    <g id="xtick_4">
     <g id="line2d_4">
      <g>
       <use xlink:href="#m186df75368" x="221.4" y="252" style="stroke: #000000; stroke-width: 0.8"/>
      </g>
     </g>
     <g id="text_4">
      <!-- 1.5 -->
      <g transform="translate(210.267812 269.637812)scale(0.14 -0.14)">
       <use xlink:href="#DejaVuSans-31"/>
       <use xlink:href="#DejaVuSans-2e" x="63.623047"/>
       <use xlink:href="#DejaVuSans-35" x="95.410156"/>
      </g>
     </g>
    </g>
    <g id="xtick_5">
     <g id="line2d_5">
      <g>
       <use xlink:href="#m186df75368" x="277.2" y="252" style="stroke: #000000; stroke-width: 0.8"/>
      </g>
     </g>
     <g id="text_5">
      <!-- 2.0 -->
      <g transform="translate(266.067813 269.637812)scale(0.14 -0.14)">
       <defs>
        <path id="DejaVuSans-32" d="M 1228 531 
L 3431 531 
L 3431 0 
L 469 0 
L 469 531 
Q 828 903 1448 1529 
Q 2069 2156 2228 2338 
Q 2531 2678 2651 2914 
Q 2772 3150 2772 3378 
Q 2772 3750 2511 3984 
Q 2250 4219 1831 4219 
Q 1534 4219 1204 4116 
Q 875 4013 500 3803 
L 500 4441 
Q 881 4594 1212 4672 
Q 1544 4750 1819 4750 
Q 2544 4750 2975 4387 
Q 3406 4025 3406 3419 
Q 3406 3131 3298 2873 
Q 3191 2616 2906 2266 
Q 2828 2175 2409 1742 
Q 1991 1309 1228 531 
z
" transform="scale(0.015625)"/>
       </defs>
       <use xlink:href="#DejaVuSans-32"/>
       <use xlink:href="#DejaVuSans-2e" x="63.623047"/>
       <use xlink:href="#DejaVuSans-30" x="95.410156"/>
      </g>
     </g>
    </g>
    <g id="xtick_6">
     <g id="line2d_6">
      <g>
       <use xlink:href="#m186df75368" x="333" y="252" style="stroke: #000000; stroke-width: 0.8"/>
      </g>
     </g>
     <g id="text_6">
      <!-- 2.5 -->
      <g transform="translate(321.867813 269.637812)scale(0.14 -0.14)">
       <use xlink:href="#DejaVuSans-32"/>
       <use xlink:href="#DejaVuSans-2e" x="63.623047"/>
       <use xlink:href="#DejaVuSans-35" x="95.410156"/>
      </g>
     </g>
    </g>
    <g id="xtick_7">
     <g id="line2d_7">
      <g>
       <use xlink:href="#m186df75368" x="388.8" y="252" style="stroke: #000000; stroke-width: 0.8"/>
      </g>
     </g>
     <g id="text_7">
      <!-- 3.0 -->
      <g transform="translate(377.667812 269.637812)scale(0.14 -0.14)">
       <defs>
        <path id="DejaVuSans-33" d="M 2597 2516 
Q 3050 2419 3304 2112 
Q 3559 1806 3559 1356 
Q 3559 666 3084 287 
Q 2609 -91 1734 -91 
Q 1441 -91 1130 -33 
Q 819 25 488 141 
L 488 750 
Q 750 597 1062 519 
Q 1375 441 1716 441 
Q 2309 441 2620 675 
Q 2931 909 2931 1356 
Q 2931 1769 2642 2001 
Q 2353 2234 1838 2234 
L 1294 2234 
L 1294 2753 
L 1863 2753 
Q 2328 2753 2575 2939 
Q 2822 3125 2822 3475 
Q 2822 3834 2567 4026 
Q 2313 4219 1838 4219 
Q 1578 4219 1281 4162 
Q 984 4106 628 3988 
L 628 4550 
Q 988 4650 1302 4700 
Q 1616 4750 1894 4750 
Q 2613 4750 3031 4423 
Q 3450 4097 3450 3541 
Q 3450 3153 3228 2886 
Q 3006 2619 2597 2516 
z
" transform="scale(0.015625)"/>
       </defs>
       <use xlink:href="#DejaVuSans-33"/>
       <use xlink:href="#DejaVuSans-2e" x="63.623047"/>
       <use xlink:href="#DejaVuSans-30" x="95.410156"/>
      </g>
     </g>
    </g>
    <g id="text_8">
     <!--  Time (s)  -->
     <g transform="translate(188.06875 288.196875)scale(0.16 -0.16)">
      <defs>
       <path id="ArialMT-20" transform="scale(0.015625)"/>
       <path id="ArialMT-54" d="M 1659 0 
L 1659 4041 
L 150 4041 
L 150 4581 
L 3781 4581 
L 3781 4041 
L 2266 4041 
L 2266 0 
L 1659 0 
z
" transform="scale(0.015625)"/>
       <path id="ArialMT-69" d="M 425 3934 
L 425 4581 
L 988 4581 
L 988 3934 
L 425 3934 
z
M 425 0 
L 425 3319 
L 988 3319 
L 988 0 
L 425 0 
z
" transform="scale(0.015625)"/>
       <path id="ArialMT-6d" d="M 422 0 
L 422 3319 
L 925 3319 
L 925 2853 
Q 1081 3097 1340 3245 
Q 1600 3394 1931 3394 
Q 2300 3394 2536 3241 
Q 2772 3088 2869 2813 
Q 3263 3394 3894 3394 
Q 4388 3394 4653 3120 
Q 4919 2847 4919 2278 
L 4919 0 
L 4359 0 
L 4359 2091 
Q 4359 2428 4304 2576 
Q 4250 2725 4106 2815 
Q 3963 2906 3769 2906 
Q 3419 2906 3187 2673 
Q 2956 2441 2956 1928 
L 2956 0 
L 2394 0 
L 2394 2156 
Q 2394 2531 2256 2718 
Q 2119 2906 1806 2906 
Q 1569 2906 1367 2781 
Q 1166 2656 1075 2415 
Q 984 2175 984 1722 
L 984 0 
L 422 0 
z
" transform="scale(0.015625)"/>
       <path id="ArialMT-65" d="M 2694 1069 
L 3275 997 
Q 3138 488 2766 206 
Q 2394 -75 1816 -75 
Q 1088 -75 661 373 
Q 234 822 234 1631 
Q 234 2469 665 2931 
Q 1097 3394 1784 3394 
Q 2450 3394 2872 2941 
Q 3294 2488 3294 1666 
Q 3294 1616 3291 1516 
L 816 1516 
Q 847 969 1125 678 
Q 1403 388 1819 388 
Q 2128 388 2347 550 
Q 2566 713 2694 1069 
z
M 847 1978 
L 2700 1978 
Q 2663 2397 2488 2606 
Q 2219 2931 1791 2931 
Q 1403 2931 1139 2672 
Q 875 2413 847 1978 
z
" transform="scale(0.015625)"/>
       <path id="ArialMT-28" d="M 1497 -1347 
Q 1031 -759 709 28 
Q 388 816 388 1659 
Q 388 2403 628 3084 
Q 909 3875 1497 4659 
L 1900 4659 
Q 1522 4009 1400 3731 
Q 1209 3300 1100 2831 
Q 966 2247 966 1656 
Q 966 153 1900 -1347 
L 1497 -1347 
z
" transform="scale(0.015625)"/>
       <path id="ArialMT-73" d="M 197 991 
L 753 1078 
Q 800 744 1014 566 
Q 1228 388 1613 388 
Q 2000 388 2187 545 
Q 2375 703 2375 916 
Q 2375 1106 2209 1216 
Q 2094 1291 1634 1406 
Q 1016 1563 777 1677 
Q 538 1791 414 1992 
Q 291 2194 291 2438 
Q 291 2659 392 2848 
Q 494 3038 669 3163 
Q 800 3259 1026 3326 
Q 1253 3394 1513 3394 
Q 1903 3394 2198 3281 
Q 2494 3169 2634 2976 
Q 2775 2784 2828 2463 
L 2278 2388 
Q 2241 2644 2061 2787 
Q 1881 2931 1553 2931 
Q 1166 2931 1000 2803 
Q 834 2675 834 2503 
Q 834 2394 903 2306 
Q 972 2216 1119 2156 
Q 1203 2125 1616 2013 
Q 2213 1853 2448 1751 
Q 2684 1650 2818 1456 
Q 2953 1263 2953 975 
Q 2953 694 2789 445 
Q 2625 197 2315 61 
Q 2006 -75 1616 -75 
Q 969 -75 630 194 
Q 291 463 197 991 
z
" transform="scale(0.015625)"/>
       <path id="ArialMT-29" d="M 791 -1347 
L 388 -1347 
Q 1322 153 1322 1656 
Q 1322 2244 1188 2822 
Q 1081 3291 891 3722 
Q 769 4003 388 4659 
L 791 4659 
Q 1378 3875 1659 3084 
Q 1900 2403 1900 1659 
Q 1900 816 1576 28 
Q 1253 -759 791 -1347 
z
" transform="scale(0.015625)"/>
      </defs>
      <use xlink:href="#ArialMT-20"/>
      <use xlink:href="#ArialMT-54" x="26.033203"/>
      <use xlink:href="#ArialMT-69" x="83.367188"/>
      <use xlink:href="#ArialMT-6d" x="105.583984"/>
      <use xlink:href="#ArialMT-65" x="188.884766"/>
      <use xlink:href="#ArialMT-20" x="244.5"/>
      <use xlink:href="#ArialMT-28" x="272.283203"/>
      <use xlink:href="#ArialMT-73" x="305.583984"/>
      <use xlink:href="#ArialMT-29" x="355.583984"/>
      <use xlink:href="#ArialMT-20" x="388.884766"/>
     </g>
    </g>
   </g>
   <g id="matplotlib.axis_2">
    <g id="ytick_1">
     <g id="line2d_8">
      <defs>
       <path id="mecea146794" d="M 0 0 
L -3.5 0 
" style="stroke: #000000; stroke-width: 0.8"/>
      </defs>
      <g>
       <use xlink:href="#mecea146794" x="54" y="252" style="stroke: #000000; stroke-width: 0.8"/>
      </g>
     </g>
     <g id="text_9">
      <!-- 0 -->
      <g transform="translate(38.0925 257.318906)scale(0.14 -0.14)">
       <use xlink:href="#DejaVuSans-30"/>
      </g>
     </g>
    </g>
    <g id="ytick_2">
     <g id="line2d_9">
      <g>
       <use xlink:href="#mecea146794" x="54" y="215.76" style="stroke: #000000; stroke-width: 0.8"/>
      </g>
     </g>
     <g id="text_10">
      <!-- 5 -->
      <g transform="translate(38.0925 221.078906)scale(0.14 -0.14)">
       <use xlink:href="#DejaVuSans-35"/>
      </g>
     </g>
    </g>
    <g id="ytick_3">
     <g id="line2d_10">
      <g>
       <use xlink:href="#mecea146794" x="54" y="179.52" style="stroke: #000000; stroke-width: 0.8"/>
      </g>
     </g>
     <g id="text_11">
      <!-- 10 -->
      <g transform="translate(29.185 184.838906)scale(0.14 -0.14)">
       <use xlink:href="#DejaVuSans-31"/>
       <use xlink:href="#DejaVuSans-30" x="63.623047"/>
      </g>
     </g>
    </g>
    <g id="ytick_4">
     <g id="line2d_11">
      <g>
       <use xlink:href="#mecea146794" x="54" y="143.28" style="stroke: #000000; stroke-width: 0.8"/>
      </g>
     </g>
     <g id="text_12">
      <!-- 15 -->
      <g transform="translate(29.185 148.598906)scale(0.14 -0.14)">
       <use xlink:href="#DejaVuSans-31"/>
       <use xlink:href="#DejaVuSans-35" x="63.623047"/>
      </g>
     </g>
    </g>
    <g id="ytick_5">
     <g id="line2d_12">
      <g>
       <use xlink:href="#mecea146794" x="54" y="107.04" style="stroke: #000000; stroke-width: 0.8"/>
      </g>
     </g>
     <g id="text_13">
      <!-- 20 -->
      <g transform="translate(29.185 112.358906)scale(0.14 -0.14)">
       <use xlink:href="#DejaVuSans-32"/>
       <use xlink:href="#DejaVuSans-30" x="63.623047"/>
      </g>
     </g>
    </g>
    <g id="ytick_6">
     <g id="line2d_13">
      <g>
       <use xlink:href="#mecea146794" x="54" y="70.8" style="stroke: #000000; stroke-width: 0.8"/>
      </g>
     </g>
     <g id="text_14">
      <!-- 25 -->
      <g transform="translate(29.185 76.118906)scale(0.14 -0.14)">
       <use xlink:href="#DejaVuSans-32"/>
       <use xlink:href="#DejaVuSans-35" x="63.623047"/>
      </g>
     </g>
    </g>
    <g id="ytick_7">
     <g id="line2d_14">
      <g>
       <use xlink:href="#mecea146794" x="54" y="34.56" style="stroke: #000000; stroke-width: 0.8"/>
      </g>
     </g>
     <g id="text_15">
      <!-- 30 -->
      <g transform="translate(29.185 39.878906)scale(0.14 -0.14)">
       <use xlink:href="#DejaVuSans-33"/>
       <use xlink:href="#DejaVuSans-30" x="63.623047"/>
      </g>
     </g>
    </g>
    <g id="text_16">
     <!--  Rate (Hz) -->
     <g transform="translate(21.8175 179.7275)rotate(-90)scale(0.16 -0.16)">
      <defs>
       <path id="ArialMT-52" d="M 503 0 
L 503 4581 
L 2534 4581 
Q 3147 4581 3465 4457 
Q 3784 4334 3975 4021 
Q 4166 3709 4166 3331 
Q 4166 2844 3850 2509 
Q 3534 2175 2875 2084 
Q 3116 1969 3241 1856 
Q 3506 1613 3744 1247 
L 4541 0 
L 3778 0 
L 3172 953 
Q 2906 1366 2734 1584 
Q 2563 1803 2427 1890 
Q 2291 1978 2150 2013 
Q 2047 2034 1813 2034 
L 1109 2034 
L 1109 0 
L 503 0 
z
M 1109 2559 
L 2413 2559 
Q 2828 2559 3062 2645 
Q 3297 2731 3419 2920 
Q 3541 3109 3541 3331 
Q 3541 3656 3305 3865 
Q 3069 4075 2559 4075 
L 1109 4075 
L 1109 2559 
z
" transform="scale(0.015625)"/>
       <path id="ArialMT-61" d="M 2588 409 
Q 2275 144 1986 34 
Q 1697 -75 1366 -75 
Q 819 -75 525 192 
Q 231 459 231 875 
Q 231 1119 342 1320 
Q 453 1522 633 1644 
Q 813 1766 1038 1828 
Q 1203 1872 1538 1913 
Q 2219 1994 2541 2106 
Q 2544 2222 2544 2253 
Q 2544 2597 2384 2738 
Q 2169 2928 1744 2928 
Q 1347 2928 1158 2789 
Q 969 2650 878 2297 
L 328 2372 
Q 403 2725 575 2942 
Q 747 3159 1072 3276 
Q 1397 3394 1825 3394 
Q 2250 3394 2515 3294 
Q 2781 3194 2906 3042 
Q 3031 2891 3081 2659 
Q 3109 2516 3109 2141 
L 3109 1391 
Q 3109 606 3145 398 
Q 3181 191 3288 0 
L 2700 0 
Q 2613 175 2588 409 
z
M 2541 1666 
Q 2234 1541 1622 1453 
Q 1275 1403 1131 1340 
Q 988 1278 909 1158 
Q 831 1038 831 891 
Q 831 666 1001 516 
Q 1172 366 1500 366 
Q 1825 366 2078 508 
Q 2331 650 2450 897 
Q 2541 1088 2541 1459 
L 2541 1666 
z
" transform="scale(0.015625)"/>
       <path id="ArialMT-74" d="M 1650 503 
L 1731 6 
Q 1494 -44 1306 -44 
Q 1000 -44 831 53 
Q 663 150 594 308 
Q 525 466 525 972 
L 525 2881 
L 113 2881 
L 113 3319 
L 525 3319 
L 525 4141 
L 1084 4478 
L 1084 3319 
L 1650 3319 
L 1650 2881 
L 1084 2881 
L 1084 941 
Q 1084 700 1114 631 
Q 1144 563 1211 522 
Q 1278 481 1403 481 
Q 1497 481 1650 503 
z
" transform="scale(0.015625)"/>
       <path id="ArialMT-48" d="M 513 0 
L 513 4581 
L 1119 4581 
L 1119 2700 
L 3500 2700 
L 3500 4581 
L 4106 4581 
L 4106 0 
L 3500 0 
L 3500 2159 
L 1119 2159 
L 1119 0 
L 513 0 
z
" transform="scale(0.015625)"/>
       <path id="ArialMT-7a" d="M 125 0 
L 125 456 
L 2238 2881 
Q 1878 2863 1603 2863 
L 250 2863 
L 250 3319 
L 2963 3319 
L 2963 2947 
L 1166 841 
L 819 456 
Q 1197 484 1528 484 
L 3063 484 
L 3063 0 
L 125 0 
z
" transform="scale(0.015625)"/>
      </defs>
      <use xlink:href="#ArialMT-20"/>
      <use xlink:href="#ArialMT-52" x="27.783203"/>
      <use xlink:href="#ArialMT-61" x="100"/>
      <use xlink:href="#ArialMT-74" x="155.615234"/>
      <use xlink:href="#ArialMT-65" x="183.398438"/>
      <use xlink:href="#ArialMT-20" x="239.013672"/>
      <use xlink:href="#ArialMT-28" x="266.796875"/>
      <use xlink:href="#ArialMT-48" x="300.097656"/>
      <use xlink:href="#ArialMT-7a" x="372.314453"/>
      <use xlink:href="#ArialMT-29" x="422.314453"/>
     </g>
    </g>
   </g>
   <g id="line2d_15">
    <path d="M 54 252 
L 94.8456 251.891672 
L 96.8544 251.643034 
L 98.1936 251.261562 
L 99.2538 250.736316 
L 100.2024 250.013518 
L 101.0952 249.032131 
L 101.9322 247.766262 
L 102.7692 246.081536 
L 103.6062 243.890387 
L 104.499 240.896599 
L 105.4476 236.867294 
L 106.452 231.549818 
L 107.5122 224.70277 
L 108.7398 215.217612 
L 110.1906 202.124499 
L 112.311 180.667128 
L 115.2126 151.621917 
L 116.7192 138.753675 
L 118.0026 129.594761 
L 119.1744 122.78104 
L 120.2346 117.849526 
L 121.239 114.166726 
L 122.1876 111.469935 
L 123.1362 109.427875 
L 124.029 108.013932 
L 124.9218 107.013475 
L 125.7588 106.389666 
L 126.6516 106.002045 
L 127.6002 105.846841 
L 128.6046 105.910543 
L 129.8322 106.223454 
L 131.5062 106.902683 
L 135.0774 108.409379 
L 136.5282 108.749614 
L 137.8674 108.8328 
L 139.1508 108.685272 
L 140.49 108.297496 
L 141.9408 107.634252 
L 143.6148 106.615972 
L 145.9584 104.904954 
L 150.9804 101.181471 
L 153.4356 99.685216 
L 156.114 98.319272 
L 159.462 96.872618 
L 162.8658 95.635933 
L 165.879 94.778001 
L 169.227 94.069983 
L 176.0904 92.918511 
L 181.2798 92.209012 
L 185.9112 91.819017 
L 207.0036 90.540548 
L 219.447 90.02207 
L 232.1694 89.692671 
L 241.1532 89.478508 
L 258.6186 88.828632 
L 269.2206 88.679494 
L 279.8784 88.531117 
L 297.9018 88.132266 
L 316.4274 88.091918 
L 317.934 88.420344 
L 319.05 88.879201 
L 319.9986 89.494404 
L 320.8914 90.33914 
L 321.7284 91.441294 
L 322.5654 92.926648 
L 323.4024 94.885873 
L 324.2394 97.415044 
L 325.1322 100.848793 
L 326.0808 105.445365 
L 327.0852 111.48484 
L 328.2012 119.682375 
L 329.4288 130.473221 
L 330.8796 145.308677 
L 333.0558 170.176435 
L 335.79 200.948548 
L 337.2966 215.42186 
L 338.58 225.654199 
L 339.696 232.862409 
L 340.7562 238.297691 
L 341.7606 242.290512 
L 342.7092 245.163024 
L 343.602 247.196668 
L 344.4948 248.700497 
L 345.3876 249.784492 
L 346.3362 250.585018 
L 347.3406 251.144584 
L 348.5124 251.541954 
L 350.019 251.806742 
L 352.3068 251.954253 
L 357.4962 251.999077 
L 388.7442 252 
L 388.7442 252 
" clip-path="url(#p1ad9556d9e)" style="fill: none; stroke: #800080; stroke-width: 1.5; stroke-linecap: square"/>
   </g>
   <g id="line2d_16">
    <path d="M 54 252 
L 94.8456 251.892582 
L 96.8544 251.646031 
L 98.1936 251.267757 
L 99.2538 250.746906 
L 100.2024 250.030149 
L 101.0952 249.056949 
L 101.9322 247.801613 
L 102.7692 246.130864 
L 103.6062 243.957827 
L 104.499 240.988651 
L 105.4476 236.992224 
L 106.452 231.717663 
L 107.5122 224.924966 
L 108.7398 215.513047 
L 110.1906 202.515778 
L 112.311 181.194145 
L 115.2684 151.721317 
L 116.8308 138.435445 
L 118.17 128.927358 
L 119.3418 122.098344 
L 120.4578 116.812561 
L 121.5738 112.574571 
L 122.6898 109.213019 
L 123.8058 106.551885 
L 124.9776 104.33591 
L 126.2052 102.484467 
L 127.5444 100.857591 
L 129.051 99.370892 
L 130.7808 97.976934 
L 132.7338 96.689166 
L 134.9658 95.487961 
L 137.5326 94.365806 
L 140.5458 93.300076 
L 143.8938 92.354694 
L 147.4092 91.594016 
L 151.4826 90.950059 
L 161.136 89.747887 
L 168.5016 88.965972 
L 184.4604 87.670698 
L 190.5426 87.342219 
L 204.7716 86.669647 
L 223.5204 85.790362 
L 254.88 84.67596 
L 273.2382 84.366288 
L 315.9252 84.044962 
L 317.5992 84.311747 
L 318.8268 84.727314 
L 319.8312 85.300648 
L 320.724 86.06827 
L 321.561 87.08626 
L 322.398 88.477032 
L 323.235 90.333279 
L 324.072 92.754272 
L 324.9648 96.072033 
L 325.8576 100.259783 
L 326.8062 105.766276 
L 327.8664 113.2918 
L 329.0382 123.300829 
L 330.3774 136.724622 
L 332.163 157.049067 
L 336.1806 203.483925 
L 337.6314 217.237038 
L 338.859 226.833371 
L 339.975 233.860814 
L 340.9794 238.866912 
L 341.928 242.559055 
L 342.8766 245.379335 
L 343.7694 247.366819 
L 344.6622 248.829962 
L 345.555 249.879931 
L 346.5036 250.651777 
L 347.508 251.188677 
L 348.7356 251.581103 
L 350.298 251.830724 
L 352.6974 251.963522 
L 358.7238 251.999688 
L 388.7442 252 
L 388.7442 252 
" clip-path="url(#p1ad9556d9e)" style="fill: none; stroke: #008000; stroke-width: 1.5; stroke-linecap: square"/>
   </g>
   <g id="line2d_17">
    <path d="M 54 252 
L 94.6224 251.890557 
L 96.5754 251.642938 
L 97.8588 251.270827 
L 98.919 250.733094 
L 99.8118 250.034408 
L 100.6488 249.095827 
L 101.4858 247.796368 
L 102.267 246.171733 
L 103.104 243.888086 
L 103.941 240.932575 
L 104.8338 236.91512 
L 105.7824 231.538029 
L 106.7868 224.484715 
L 107.9028 214.94384 
L 109.1304 202.456086 
L 110.637 184.75048 
L 116.3286 115.17026 
L 117.5562 104.150418 
L 118.6164 96.494268 
L 119.565 91.101423 
L 120.4578 87.206661 
L 121.2948 84.494158 
L 122.076 82.681277 
L 122.8014 81.531696 
L 123.471 80.857198 
L 124.1406 80.4933 
L 124.8102 80.385494 
L 125.5356 80.500903 
L 126.3726 80.865175 
L 127.4328 81.57847 
L 128.9952 82.927852 
L 133.3476 86.829628 
L 134.7984 87.778961 
L 136.0818 88.359145 
L 137.2536 88.644661 
L 138.3696 88.687664 
L 139.4856 88.509061 
L 140.6574 88.09878 
L 141.9966 87.388839 
L 143.6706 86.230883 
L 146.8512 83.679451 
L 149.418 81.762239 
L 151.4826 80.493688 
L 153.6588 79.419062 
L 156.5604 78.256001 
L 160.5222 76.910156 
L 163.5354 76.104664 
L 166.437 75.564802 
L 172.296 74.786382 
L 181.503 73.629283 
L 187.4736 73.213102 
L 214.0902 71.829029 
L 235.2384 71.236322 
L 242.2692 70.970905 
L 249.9696 70.646503 
L 278.1486 70.047473 
L 311.8518 69.45378 
L 315.423 69.588345 
L 317.2086 69.862307 
L 318.492 70.279833 
L 319.4964 70.832272 
L 320.3892 71.572016 
L 321.2262 72.556839 
L 322.0632 73.91006 
L 322.9002 75.728719 
L 323.7372 78.118752 
L 324.5742 81.189662 
L 325.467 85.334715 
L 326.4156 90.84406 
L 327.42 98.022193 
L 328.536 107.669131 
L 329.8194 120.835982 
L 331.3818 139.321347 
L 337.0176 208.487025 
L 338.301 220.375468 
L 339.4728 229.217405 
L 340.533 235.583148 
L 341.5374 240.294351 
L 342.486 243.707744 
L 343.3788 246.140603 
L 344.2716 247.95143 
L 345.1644 249.265317 
L 346.0572 250.194624 
L 347.0058 250.867708 
L 348.066 251.348397 
L 349.3494 251.6807 
L 351.135 251.890937 
L 354.1482 251.985721 
L 366.5358 252 
L 388.7442 252 
L 388.7442 252 
" clip-path="url(#p1ad9556d9e)" style="fill: none; stroke: #7f2aff; stroke-width: 1.5; stroke-linecap: square"/>
   </g>
   <g id="line2d_18">
    <path d="M 54 252 
L 94.6224 251.890489 
L 96.5754 251.642711 
L 97.8588 251.270359 
L 98.919 250.732272 
L 99.8118 250.033117 
L 100.6488 249.093896 
L 101.4858 247.793529 
L 102.267 246.167726 
L 103.104 243.882387 
L 103.941 240.92457 
L 104.8338 236.903803 
L 105.7824 231.521922 
L 106.7868 224.461649 
L 107.9028 214.909963 
L 109.1304 202.405067 
L 110.637 184.667238 
L 113.6502 145.690255 
L 115.5474 122.917256 
L 116.9424 108.788637 
L 118.1142 99.075113 
L 119.1744 92.044551 
L 120.1788 86.844866 
L 121.1274 83.100251 
L 122.0202 80.458995 
L 122.8572 78.62282 
L 123.6942 77.279313 
L 124.587 76.260369 
L 125.5356 75.514446 
L 126.6516 74.927683 
L 128.1582 74.411315 
L 130.6134 73.838216 
L 134.073 73.253074 
L 138.0906 72.822041 
L 148.3578 72.003843 
L 153.045 71.521092 
L 159.0156 70.894676 
L 163.5354 70.716155 
L 167.6088 70.473405 
L 172.6866 69.876966 
L 176.0904 69.616998 
L 189.9288 68.92388 
L 196.3458 68.590228 
L 205.1064 68.234581 
L 211.5792 67.832055 
L 222.7392 67.490336 
L 226.98 67.264017 
L 232.7274 67.272906 
L 236.9124 67.119957 
L 244.278 66.796997 
L 254.322 66.658487 
L 259.7904 66.426306 
L 264.366 66.528407 
L 268.0488 66.50902 
L 272.8476 66.194459 
L 276.0282 66.123159 
L 284.2866 66.141317 
L 289.476 65.890446 
L 293.94 66.026377 
L 296.9532 65.981339 
L 300.636 65.664496 
L 304.0956 65.444977 
L 307.3878 65.486896 
L 312.8004 65.552405 
L 315.8136 65.646943 
L 317.4318 65.919343 
L 318.6594 66.349035 
L 319.6638 66.93045 
L 320.5566 67.698845 
L 321.3936 68.711611 
L 322.2306 70.094176 
L 323.0676 71.945755 
L 323.9046 74.376278 
L 324.7416 77.500644 
L 325.6344 81.724009 
L 326.583 87.348817 
L 327.5874 94.693541 
L 328.7034 104.584987 
L 329.9868 118.109008 
L 331.5492 137.116086 
L 337.1292 207.497385 
L 338.4126 219.714676 
L 339.5844 228.78862 
L 340.6446 235.310194 
L 341.649 240.127254 
L 342.5976 243.609771 
L 343.4904 246.086167 
L 344.3832 247.924826 
L 345.276 249.25529 
L 346.1688 250.193572 
L 347.1174 250.87098 
L 348.1776 251.35296 
L 349.461 251.684613 
L 351.2466 251.893123 
L 354.3156 251.98676 
L 367.4844 252 
L 388.7442 252 
L 388.7442 252 
" clip-path="url(#p1ad9556d9e)" style="fill: none; stroke: #a6611a; stroke-width: 1.5; stroke-linecap: square"/>
   </g>
   <g id="patch_3">
    <path d="M 54 252 
L 54 34.56 
" style="fill: none; stroke: #000000; stroke-width: 0.8; stroke-linejoin: miter; stroke-linecap: square"/>
   </g>
   <g id="patch_4">
    <path d="M 388.8 252 
L 388.8 34.56 
" style="fill: none; stroke: #000000; stroke-width: 0.8; stroke-linejoin: miter; stroke-linecap: square"/>
   </g>
   <g id="patch_5">
    <path d="M 54 252 
L 388.8 252 
" style="fill: none; stroke: #000000; stroke-width: 0.8; stroke-linejoin: miter; stroke-linecap: square"/>
   </g>
   <g id="patch_6">
    <path d="M 54 34.56 
L 388.8 34.56 
" style="fill: none; stroke: #000000; stroke-width: 0.8; stroke-linejoin: miter; stroke-linecap: square"/>
   </g>
   <g id="text_17">
    <!--  Instantaneous rate  -->
    <g transform="translate(150.69125 28.56)scale(0.16 -0.16)">
     <defs>
      <path id="ArialMT-49" d="M 597 0 
L 597 4581 
L 1203 4581 
L 1203 0 
L 597 0 
z
" transform="scale(0.015625)"/>
      <path id="ArialMT-6e" d="M 422 0 
L 422 3319 
L 928 3319 
L 928 2847 
Q 1294 3394 1984 3394 
Q 2284 3394 2536 3286 
Q 2788 3178 2913 3003 
Q 3038 2828 3088 2588 
Q 3119 2431 3119 2041 
L 3119 0 
L 2556 0 
L 2556 2019 
Q 2556 2363 2490 2533 
Q 2425 2703 2258 2804 
Q 2091 2906 1866 2906 
Q 1506 2906 1245 2678 
Q 984 2450 984 1813 
L 984 0 
L 422 0 
z
" transform="scale(0.015625)"/>
      <path id="ArialMT-6f" d="M 213 1659 
Q 213 2581 725 3025 
Q 1153 3394 1769 3394 
Q 2453 3394 2887 2945 
Q 3322 2497 3322 1706 
Q 3322 1066 3130 698 
Q 2938 331 2570 128 
Q 2203 -75 1769 -75 
Q 1072 -75 642 372 
Q 213 819 213 1659 
z
M 791 1659 
Q 791 1022 1069 705 
Q 1347 388 1769 388 
Q 2188 388 2466 706 
Q 2744 1025 2744 1678 
Q 2744 2294 2464 2611 
Q 2184 2928 1769 2928 
Q 1347 2928 1069 2612 
Q 791 2297 791 1659 
z
" transform="scale(0.015625)"/>
      <path id="ArialMT-75" d="M 2597 0 
L 2597 488 
Q 2209 -75 1544 -75 
Q 1250 -75 995 37 
Q 741 150 617 320 
Q 494 491 444 738 
Q 409 903 409 1263 
L 409 3319 
L 972 3319 
L 972 1478 
Q 972 1038 1006 884 
Q 1059 663 1231 536 
Q 1403 409 1656 409 
Q 1909 409 2131 539 
Q 2353 669 2445 892 
Q 2538 1116 2538 1541 
L 2538 3319 
L 3100 3319 
L 3100 0 
L 2597 0 
z
" transform="scale(0.015625)"/>
      <path id="ArialMT-72" d="M 416 0 
L 416 3319 
L 922 3319 
L 922 2816 
Q 1116 3169 1280 3281 
Q 1444 3394 1641 3394 
Q 1925 3394 2219 3213 
L 2025 2691 
Q 1819 2813 1613 2813 
Q 1428 2813 1281 2702 
Q 1134 2591 1072 2394 
Q 978 2094 978 1738 
L 978 0 
L 416 0 
z
" transform="scale(0.015625)"/>
     </defs>
     <use xlink:href="#ArialMT-20"/>
     <use xlink:href="#ArialMT-49" x="27.783203"/>
     <use xlink:href="#ArialMT-6e" x="55.566406"/>
     <use xlink:href="#ArialMT-73" x="111.181641"/>
     <use xlink:href="#ArialMT-74" x="161.181641"/>
     <use xlink:href="#ArialMT-61" x="188.964844"/>
     <use xlink:href="#ArialMT-6e" x="244.580078"/>
     <use xlink:href="#ArialMT-74" x="300.195312"/>
     <use xlink:href="#ArialMT-61" x="327.978516"/>
     <use xlink:href="#ArialMT-6e" x="383.59375"/>
     <use xlink:href="#ArialMT-65" x="439.208984"/>
     <use xlink:href="#ArialMT-6f" x="494.824219"/>
     <use xlink:href="#ArialMT-75" x="550.439453"/>
     <use xlink:href="#ArialMT-73" x="606.054688"/>
     <use xlink:href="#ArialMT-20" x="656.054688"/>
     <use xlink:href="#ArialMT-72" x="683.837891"/>
     <use xlink:href="#ArialMT-61" x="717.138672"/>
     <use xlink:href="#ArialMT-74" x="772.753906"/>
     <use xlink:href="#ArialMT-65" x="800.537109"/>
     <use xlink:href="#ArialMT-20" x="856.152344"/>
    </g>
   </g>
  </g>
 </g>
 <defs>
  <clipPath id="p1ad9556d9e">
   <rect x="54" y="34.56" width="334.8" height="217.44"/>
  </clipPath>
 </defs>
</svg>
