<?xml version="1.0" encoding="utf-8" standalone="no"?>
<!DOCTYPE svg PUBLIC "-//W3C//DTD SVG 1.1//EN"
  "http://www.w3.org/Graphics/SVG/1.1/DTD/svg11.dtd">
<svg xmlns:xlink="http://www.w3.org/1999/xlink" width="432pt" height="288pt" viewBox="0 0 432 288" xmlns="http://www.w3.org/2000/svg" version="1.1">
 <metadata>
  <rdf:RDF xmlns:dc="http://purl.org/dc/elements/1.1/" xmlns:cc="http://creativecommons.org/ns#" xmlns:rdf="http://www.w3.org/1999/02/22-rdf-syntax-ns#">
   <cc:Work>
    <dc:type rdf:resource="http://purl.org/dc/dcmitype/StillImage"/>
    <dc:date>2022-10-31T16:54:33.165168</dc:date>
    <dc:format>image/svg+xml</dc:format>
    <dc:creator>
     <cc:Agent>
      <dc:title>Matplotlib v3.5.2, https://matplotlib.org/</dc:title>
     </cc:Agent>
    </dc:creator>
   </cc:Work>
  </rdf:RDF>
 </metadata>
 <defs>
  <style type="text/css">*{stroke-linejoin: round; stroke-linecap: butt}</style>
 </defs>
 <g id="figure_1">
  <g id="patch_1">
   <path d="M 0 288 
L 432 288 
L 432 0 
L 0 0 
L 0 288 
z
" style="fill: none"/>
  </g>
  <g id="axes_1">
   <g id="patch_2">
    <path d="M 54 252 
L 388.8 252 
L 388.8 34.56 
L 54 34.56 
z
" style="fill: #ffffff"/>
   </g>
   <g id="matplotlib.axis_1">
    <g id="xtick_1">
     <g id="line2d_1">
      <defs>
       <path id="ma2f1f1c16a" d="M 0 0 
L 0 3.5 
" style="stroke: #000000; stroke-width: 0.8"/>
      </defs>
      <g>
       <use xlink:href="#ma2f1f1c16a" x="54" y="252" style="stroke: #000000; stroke-width: 0.8"/>
      </g>
     </g>
     <g id="text_1">
      <!-- 0.0 -->
      <g transform="translate(42.867812 269.637812)scale(0.14 -0.14)">
       <defs>
        <path id="DejaVuSans-30" d="M 2034 4250 
Q 1547 4250 1301 3770 
Q 1056 3291 1056 2328 
Q 1056 1369 1301 889 
Q 1547 409 2034 409 
Q 2525 409 2770 889 
Q 3016 1369 3016 2328 
Q 3016 3291 2770 3770 
Q 2525 4250 2034 4250 
z
M 2034 4750 
Q 2819 4750 3233 4129 
Q 3647 3509 3647 2328 
Q 3647 1150 3233 529 
Q 2819 -91 2034 -91 
Q 1250 -91 836 529 
Q 422 1150 422 2328 
Q 422 3509 836 4129 
Q 1250 4750 2034 4750 
z
" transform="scale(0.015625)"/>
        <path id="DejaVuSans-2e" d="M 684 794 
L 1344 794 
L 1344 0 
L 684 0 
L 684 794 
z
" transform="scale(0.015625)"/>
       </defs>
       <use xlink:href="#DejaVuSans-30"/>
       <use xlink:href="#DejaVuSans-2e" x="63.623047"/>
       <use xlink:href="#DejaVuSans-30" x="95.410156"/>
      </g>
     </g>
    </g>
    <g id="xtick_2">
     <g id="line2d_2">
      <g>
       <use xlink:href="#ma2f1f1c16a" x="109.8" y="252" style="stroke: #000000; stroke-width: 0.8"/>
      </g>
     </g>
     <g id="text_2">
      <!-- 0.5 -->
      <g transform="translate(98.667812 269.637812)scale(0.14 -0.14)">
       <defs>
        <path id="DejaVuSans-35" d="M 691 4666 
L 3169 4666 
L 3169 4134 
L 1269 4134 
L 1269 2991 
Q 1406 3038 1543 3061 
Q 1681 3084 1819 3084 
Q 2600 3084 3056 2656 
Q 3513 2228 3513 1497 
Q 3513 744 3044 326 
Q 2575 -91 1722 -91 
Q 1428 -91 1123 -41 
Q 819 9 494 109 
L 494 744 
Q 775 591 1075 516 
Q 1375 441 1709 441 
Q 2250 441 2565 725 
Q 2881 1009 2881 1497 
Q 2881 1984 2565 2268 
Q 2250 2553 1709 2553 
Q 1456 2553 1204 2497 
Q 953 2441 691 2322 
L 691 4666 
z
" transform="scale(0.015625)"/>
       </defs>
       <use xlink:href="#DejaVuSans-30"/>
       <use xlink:href="#DejaVuSans-2e" x="63.623047"/>
       <use xlink:href="#DejaVuSans-35" x="95.410156"/>
      </g>
     </g>
    </g>
    <g id="xtick_3">
     <g id="line2d_3">
      <g>
       <use xlink:href="#ma2f1f1c16a" x="165.6" y="252" style="stroke: #000000; stroke-width: 0.8"/>
      </g>
     </g>
     <g id="text_3">
      <!-- 1.0 -->
      <g transform="translate(154.467812 269.637812)scale(0.14 -0.14)">
       <defs>
        <path id="DejaVuSans-31" d="M 794 531 
L 1825 531 
L 1825 4091 
L 703 3866 
L 703 4441 
L 1819 4666 
L 2450 4666 
L 2450 531 
L 3481 531 
L 3481 0 
L 794 0 
L 794 531 
z
" transform="scale(0.015625)"/>
       </defs>
       <use xlink:href="#DejaVuSans-31"/>
       <use xlink:href="#DejaVuSans-2e" x="63.623047"/>
       <use xlink:href="#DejaVuSans-30" x="95.410156"/>
      </g>
     </g>
    </g>
    <g id="xtick_4">
     <g id="line2d_4">
      <g>
       <use xlink:href="#ma2f1f1c16a" x="221.4" y="252" style="stroke: #000000; stroke-width: 0.8"/>
      </g>
     </g>
     <g id="text_4">
      <!-- 1.5 -->
      <g transform="translate(210.267812 269.637812)scale(0.14 -0.14)">
       <use xlink:href="#DejaVuSans-31"/>
       <use xlink:href="#DejaVuSans-2e" x="63.623047"/>
       <use xlink:href="#DejaVuSans-35" x="95.410156"/>
      </g>
     </g>
    </g>
    <g id="xtick_5">
     <g id="line2d_5">
      <g>
       <use xlink:href="#ma2f1f1c16a" x="277.2" y="252" style="stroke: #000000; stroke-width: 0.8"/>
      </g>
     </g>
     <g id="text_5">
      <!-- 2.0 -->
      <g transform="translate(266.067813 269.637812)scale(0.14 -0.14)">
       <defs>
        <path id="DejaVuSans-32" d="M 1228 531 
L 3431 531 
L 3431 0 
L 469 0 
L 469 531 
Q 828 903 1448 1529 
Q 2069 2156 2228 2338 
Q 2531 2678 2651 2914 
Q 2772 3150 2772 3378 
Q 2772 3750 2511 3984 
Q 2250 4219 1831 4219 
Q 1534 4219 1204 4116 
Q 875 4013 500 3803 
L 500 4441 
Q 881 4594 1212 4672 
Q 1544 4750 1819 4750 
Q 2544 4750 2975 4387 
Q 3406 4025 3406 3419 
Q 3406 3131 3298 2873 
Q 3191 2616 2906 2266 
Q 2828 2175 2409 1742 
Q 1991 1309 1228 531 
z
" transform="scale(0.015625)"/>
       </defs>
       <use xlink:href="#DejaVuSans-32"/>
       <use xlink:href="#DejaVuSans-2e" x="63.623047"/>
       <use xlink:href="#DejaVuSans-30" x="95.410156"/>
      </g>
     </g>
    </g>
    <g id="xtick_6">
     <g id="line2d_6">
      <g>
       <use xlink:href="#ma2f1f1c16a" x="333" y="252" style="stroke: #000000; stroke-width: 0.8"/>
      </g>
     </g>
     <g id="text_6">
      <!-- 2.5 -->
      <g transform="translate(321.867813 269.637812)scale(0.14 -0.14)">
       <use xlink:href="#DejaVuSans-32"/>
       <use xlink:href="#DejaVuSans-2e" x="63.623047"/>
       <use xlink:href="#DejaVuSans-35" x="95.410156"/>
      </g>
     </g>
    </g>
    <g id="xtick_7">
     <g id="line2d_7">
      <g>
       <use xlink:href="#ma2f1f1c16a" x="388.8" y="252" style="stroke: #000000; stroke-width: 0.8"/>
      </g>
     </g>
     <g id="text_7">
      <!-- 3.0 -->
      <g transform="translate(377.667812 269.637812)scale(0.14 -0.14)">
       <defs>
        <path id="DejaVuSans-33" d="M 2597 2516 
Q 3050 2419 3304 2112 
Q 3559 1806 3559 1356 
Q 3559 666 3084 287 
Q 2609 -91 1734 -91 
Q 1441 -91 1130 -33 
Q 819 25 488 141 
L 488 750 
Q 750 597 1062 519 
Q 1375 441 1716 441 
Q 2309 441 2620 675 
Q 2931 909 2931 1356 
Q 2931 1769 2642 2001 
Q 2353 2234 1838 2234 
L 1294 2234 
L 1294 2753 
L 1863 2753 
Q 2328 2753 2575 2939 
Q 2822 3125 2822 3475 
Q 2822 3834 2567 4026 
Q 2313 4219 1838 4219 
Q 1578 4219 1281 4162 
Q 984 4106 628 3988 
L 628 4550 
Q 988 4650 1302 4700 
Q 1616 4750 1894 4750 
Q 2613 4750 3031 4423 
Q 3450 4097 3450 3541 
Q 3450 3153 3228 2886 
Q 3006 2619 2597 2516 
z
" transform="scale(0.015625)"/>
       </defs>
       <use xlink:href="#DejaVuSans-33"/>
       <use xlink:href="#DejaVuSans-2e" x="63.623047"/>
       <use xlink:href="#DejaVuSans-30" x="95.410156"/>
      </g>
     </g>
    </g>
    <g id="text_8">
     <!--  Time (s)  -->
     <g transform="translate(188.06875 288.196875)scale(0.16 -0.16)">
      <defs>
       <path id="ArialMT-20" transform="scale(0.015625)"/>
       <path id="ArialMT-54" d="M 1659 0 
L 1659 4041 
L 150 4041 
L 150 4581 
L 3781 4581 
L 3781 4041 
L 2266 4041 
L 2266 0 
L 1659 0 
z
" transform="scale(0.015625)"/>
       <path id="ArialMT-69" d="M 425 3934 
L 425 4581 
L 988 4581 
L 988 3934 
L 425 3934 
z
M 425 0 
L 425 3319 
L 988 3319 
L 988 0 
L 425 0 
z
" transform="scale(0.015625)"/>
       <path id="ArialMT-6d" d="M 422 0 
L 422 3319 
L 925 3319 
L 925 2853 
Q 1081 3097 1340 3245 
Q 1600 3394 1931 3394 
Q 2300 3394 2536 3241 
Q 2772 3088 2869 2813 
Q 3263 3394 3894 3394 
Q 4388 3394 4653 3120 
Q 4919 2847 4919 2278 
L 4919 0 
L 4359 0 
L 4359 2091 
Q 4359 2428 4304 2576 
Q 4250 2725 4106 2815 
Q 3963 2906 3769 2906 
Q 3419 2906 3187 2673 
Q 2956 2441 2956 1928 
L 2956 0 
L 2394 0 
L 2394 2156 
Q 2394 2531 2256 2718 
Q 2119 2906 1806 2906 
Q 1569 2906 1367 2781 
Q 1166 2656 1075 2415 
Q 984 2175 984 1722 
L 984 0 
L 422 0 
z
" transform="scale(0.015625)"/>
       <path id="ArialMT-65" d="M 2694 1069 
L 3275 997 
Q 3138 488 2766 206 
Q 2394 -75 1816 -75 
Q 1088 -75 661 373 
Q 234 822 234 1631 
Q 234 2469 665 2931 
Q 1097 3394 1784 3394 
Q 2450 3394 2872 2941 
Q 3294 2488 3294 1666 
Q 3294 1616 3291 1516 
L 816 1516 
Q 847 969 1125 678 
Q 1403 388 1819 388 
Q 2128 388 2347 550 
Q 2566 713 2694 1069 
z
M 847 1978 
L 2700 1978 
Q 2663 2397 2488 2606 
Q 2219 2931 1791 2931 
Q 1403 2931 1139 2672 
Q 875 2413 847 1978 
z
" transform="scale(0.015625)"/>
       <path id="ArialMT-28" d="M 1497 -1347 
Q 1031 -759 709 28 
Q 388 816 388 1659 
Q 388 2403 628 3084 
Q 909 3875 1497 4659 
L 1900 4659 
Q 1522 4009 1400 3731 
Q 1209 3300 1100 2831 
Q 966 2247 966 1656 
Q 966 153 1900 -1347 
L 1497 -1347 
z
" transform="scale(0.015625)"/>
       <path id="ArialMT-73" d="M 197 991 
L 753 1078 
Q 800 744 1014 566 
Q 1228 388 1613 388 
Q 2000 388 2187 545 
Q 2375 703 2375 916 
Q 2375 1106 2209 1216 
Q 2094 1291 1634 1406 
Q 1016 1563 777 1677 
Q 538 1791 414 1992 
Q 291 2194 291 2438 
Q 291 2659 392 2848 
Q 494 3038 669 3163 
Q 800 3259 1026 3326 
Q 1253 3394 1513 3394 
Q 1903 3394 2198 3281 
Q 2494 3169 2634 2976 
Q 2775 2784 2828 2463 
L 2278 2388 
Q 2241 2644 2061 2787 
Q 1881 2931 1553 2931 
Q 1166 2931 1000 2803 
Q 834 2675 834 2503 
Q 834 2394 903 2306 
Q 972 2216 1119 2156 
Q 1203 2125 1616 2013 
Q 2213 1853 2448 1751 
Q 2684 1650 2818 1456 
Q 2953 1263 2953 975 
Q 2953 694 2789 445 
Q 2625 197 2315 61 
Q 2006 -75 1616 -75 
Q 969 -75 630 194 
Q 291 463 197 991 
z
" transform="scale(0.015625)"/>
       <path id="ArialMT-29" d="M 791 -1347 
L 388 -1347 
Q 1322 153 1322 1656 
Q 1322 2244 1188 2822 
Q 1081 3291 891 3722 
Q 769 4003 388 4659 
L 791 4659 
Q 1378 3875 1659 3084 
Q 1900 2403 1900 1659 
Q 1900 816 1576 28 
Q 1253 -759 791 -1347 
z
" transform="scale(0.015625)"/>
      </defs>
      <use xlink:href="#ArialMT-20"/>
      <use xlink:href="#ArialMT-54" x="26.033203"/>
      <use xlink:href="#ArialMT-69" x="83.367188"/>
      <use xlink:href="#ArialMT-6d" x="105.583984"/>
      <use xlink:href="#ArialMT-65" x="188.884766"/>
      <use xlink:href="#ArialMT-20" x="244.5"/>
      <use xlink:href="#ArialMT-28" x="272.283203"/>
      <use xlink:href="#ArialMT-73" x="305.583984"/>
      <use xlink:href="#ArialMT-29" x="355.583984"/>
      <use xlink:href="#ArialMT-20" x="388.884766"/>
     </g>
    </g>
   </g>
   <g id="matplotlib.axis_2">
    <g id="ytick_1">
     <g id="line2d_8">
      <defs>
       <path id="m299c507ce7" d="M 0 0 
L -3.5 0 
" style="stroke: #000000; stroke-width: 0.8"/>
      </defs>
      <g>
       <use xlink:href="#m299c507ce7" x="54" y="252" style="stroke: #000000; stroke-width: 0.8"/>
      </g>
     </g>
     <g id="text_9">
      <!-- 0 -->
      <g transform="translate(38.0925 257.318906)scale(0.14 -0.14)">
       <use xlink:href="#DejaVuSans-30"/>
      </g>
     </g>
    </g>
    <g id="ytick_2">
     <g id="line2d_9">
      <g>
       <use xlink:href="#m299c507ce7" x="54" y="215.76" style="stroke: #000000; stroke-width: 0.8"/>
      </g>
     </g>
     <g id="text_10">
      <!-- 5 -->
      <g transform="translate(38.0925 221.078906)scale(0.14 -0.14)">
       <use xlink:href="#DejaVuSans-35"/>
      </g>
     </g>
    </g>
    <g id="ytick_3">
     <g id="line2d_10">
      <g>
       <use xlink:href="#m299c507ce7" x="54" y="179.52" style="stroke: #000000; stroke-width: 0.8"/>
      </g>
     </g>
     <g id="text_11">
      <!-- 10 -->
      <g transform="translate(29.185 184.838906)scale(0.14 -0.14)">
       <use xlink:href="#DejaVuSans-31"/>
       <use xlink:href="#DejaVuSans-30" x="63.623047"/>
      </g>
     </g>
    </g>
    <g id="ytick_4">
     <g id="line2d_11">
      <g>
       <use xlink:href="#m299c507ce7" x="54" y="143.28" style="stroke: #000000; stroke-width: 0.8"/>
      </g>
     </g>
     <g id="text_12">
      <!-- 15 -->
      <g transform="translate(29.185 148.598906)scale(0.14 -0.14)">
       <use xlink:href="#DejaVuSans-31"/>
       <use xlink:href="#DejaVuSans-35" x="63.623047"/>
      </g>
     </g>
    </g>
    <g id="ytick_5">
     <g id="line2d_12">
      <g>
       <use xlink:href="#m299c507ce7" x="54" y="107.04" style="stroke: #000000; stroke-width: 0.8"/>
      </g>
     </g>
     <g id="text_13">
      <!-- 20 -->
      <g transform="translate(29.185 112.358906)scale(0.14 -0.14)">
       <use xlink:href="#DejaVuSans-32"/>
       <use xlink:href="#DejaVuSans-30" x="63.623047"/>
      </g>
     </g>
    </g>
    <g id="ytick_6">
     <g id="line2d_13">
      <g>
       <use xlink:href="#m299c507ce7" x="54" y="70.8" style="stroke: #000000; stroke-width: 0.8"/>
      </g>
     </g>
     <g id="text_14">
      <!-- 25 -->
      <g transform="translate(29.185 76.118906)scale(0.14 -0.14)">
       <use xlink:href="#DejaVuSans-32"/>
       <use xlink:href="#DejaVuSans-35" x="63.623047"/>
      </g>
     </g>
    </g>
    <g id="ytick_7">
     <g id="line2d_14">
      <g>
       <use xlink:href="#m299c507ce7" x="54" y="34.56" style="stroke: #000000; stroke-width: 0.8"/>
      </g>
     </g>
     <g id="text_15">
      <!-- 30 -->
      <g transform="translate(29.185 39.878906)scale(0.14 -0.14)">
       <use xlink:href="#DejaVuSans-33"/>
       <use xlink:href="#DejaVuSans-30" x="63.623047"/>
      </g>
     </g>
    </g>
    <g id="text_16">
     <!--  Rate (Hz) -->
     <g transform="translate(21.8175 179.7275)rotate(-90)scale(0.16 -0.16)">
      <defs>
       <path id="ArialMT-52" d="M 503 0 
L 503 4581 
L 2534 4581 
Q 3147 4581 3465 4457 
Q 3784 4334 3975 4021 
Q 4166 3709 4166 3331 
Q 4166 2844 3850 2509 
Q 3534 2175 2875 2084 
Q 3116 1969 3241 1856 
Q 3506 1613 3744 1247 
L 4541 0 
L 3778 0 
L 3172 953 
Q 2906 1366 2734 1584 
Q 2563 1803 2427 1890 
Q 2291 1978 2150 2013 
Q 2047 2034 1813 2034 
L 1109 2034 
L 1109 0 
L 503 0 
z
M 1109 2559 
L 2413 2559 
Q 2828 2559 3062 2645 
Q 3297 2731 3419 2920 
Q 3541 3109 3541 3331 
Q 3541 3656 3305 3865 
Q 3069 4075 2559 4075 
L 1109 4075 
L 1109 2559 
z
" transform="scale(0.015625)"/>
       <path id="ArialMT-61" d="M 2588 409 
Q 2275 144 1986 34 
Q 1697 -75 1366 -75 
Q 819 -75 525 192 
Q 231 459 231 875 
Q 231 1119 342 1320 
Q 453 1522 633 1644 
Q 813 1766 1038 1828 
Q 1203 1872 1538 1913 
Q 2219 1994 2541 2106 
Q 2544 2222 2544 2253 
Q 2544 2597 2384 2738 
Q 2169 2928 1744 2928 
Q 1347 2928 1158 2789 
Q 969 2650 878 2297 
L 328 2372 
Q 403 2725 575 2942 
Q 747 3159 1072 3276 
Q 1397 3394 1825 3394 
Q 2250 3394 2515 3294 
Q 2781 3194 2906 3042 
Q 3031 2891 3081 2659 
Q 3109 2516 3109 2141 
L 3109 1391 
Q 3109 606 3145 398 
Q 3181 191 3288 0 
L 2700 0 
Q 2613 175 2588 409 
z
M 2541 1666 
Q 2234 1541 1622 1453 
Q 1275 1403 1131 1340 
Q 988 1278 909 1158 
Q 831 1038 831 891 
Q 831 666 1001 516 
Q 1172 366 1500 366 
Q 1825 366 2078 508 
Q 2331 650 2450 897 
Q 2541 1088 2541 1459 
L 2541 1666 
z
" transform="scale(0.015625)"/>
       <path id="ArialMT-74" d="M 1650 503 
L 1731 6 
Q 1494 -44 1306 -44 
Q 1000 -44 831 53 
Q 663 150 594 308 
Q 525 466 525 972 
L 525 2881 
L 113 2881 
L 113 3319 
L 525 3319 
L 525 4141 
L 1084 4478 
L 1084 3319 
L 1650 3319 
L 1650 2881 
L 1084 2881 
L 1084 941 
Q 1084 700 1114 631 
Q 1144 563 1211 522 
Q 1278 481 1403 481 
Q 1497 481 1650 503 
z
" transform="scale(0.015625)"/>
       <path id="ArialMT-48" d="M 513 0 
L 513 4581 
L 1119 4581 
L 1119 2700 
L 3500 2700 
L 3500 4581 
L 4106 4581 
L 4106 0 
L 3500 0 
L 3500 2159 
L 1119 2159 
L 1119 0 
L 513 0 
z
" transform="scale(0.015625)"/>
       <path id="ArialMT-7a" d="M 125 0 
L 125 456 
L 2238 2881 
Q 1878 2863 1603 2863 
L 250 2863 
L 250 3319 
L 2963 3319 
L 2963 2947 
L 1166 841 
L 819 456 
Q 1197 484 1528 484 
L 3063 484 
L 3063 0 
L 125 0 
z
" transform="scale(0.015625)"/>
      </defs>
      <use xlink:href="#ArialMT-20"/>
      <use xlink:href="#ArialMT-52" x="27.783203"/>
      <use xlink:href="#ArialMT-61" x="100"/>
      <use xlink:href="#ArialMT-74" x="155.615234"/>
      <use xlink:href="#ArialMT-65" x="183.398438"/>
      <use xlink:href="#ArialMT-20" x="239.013672"/>
      <use xlink:href="#ArialMT-28" x="266.796875"/>
      <use xlink:href="#ArialMT-48" x="300.097656"/>
      <use xlink:href="#ArialMT-7a" x="372.314453"/>
      <use xlink:href="#ArialMT-29" x="422.314453"/>
     </g>
    </g>
   </g>
   <g id="line2d_15">
    <path d="M 54 252 
L 56.79 252 
L 56.79 252 
L 62.37 252 
L 62.37 252 
L 67.95 252 
L 67.95 252 
L 73.53 252 
L 73.53 252 
L 79.11 252 
L 79.11 252 
L 84.69 252 
L 84.69 252 
L 90.27 252 
L 90.27 252 
L 95.85 252 
L 95.85 252 
L 101.43 252 
L 101.43 252 
L 107.01 252 
L 107.01 220.605471 
L 112.59 220.605471 
L 112.59 97.2302 
L 118.17 97.2302 
L 118.17 99.322112 
L 123.75 99.322112 
L 123.75 109.955999 
L 129.33 109.955999 
L 129.33 121.477363 
L 134.91 121.477363 
L 134.91 121.160407 
L 140.49 121.160407 
L 140.49 115.407648 
L 146.07 115.407648 
L 146.07 102.602611 
L 151.65 102.602611 
L 151.65 105.29674 
L 157.23 105.29674 
L 157.23 96.738918 
L 162.81 96.738918 
L 162.81 99.227025 
L 168.39 99.227025 
L 168.39 96.627983 
L 173.97 96.627983 
L 173.97 93.442571 
L 179.55 93.442571 
L 179.55 93.965549 
L 185.13 93.965549 
L 185.13 93.37918 
L 190.71 93.37918 
L 190.71 92.65018 
L 196.29 92.65018 
L 196.29 93.252398 
L 201.87 93.252398 
L 201.87 90.54242 
L 207.45 90.54242 
L 207.45 91.810246 
L 213.03 91.810246 
L 213.03 90.859377 
L 218.61 90.859377 
L 218.61 90.558268 
L 224.19 90.558268 
L 224.19 90.62166 
L 229.77 90.62166 
L 229.77 87.452096 
L 235.35 87.452096 
L 235.35 91.63592 
L 240.93 91.63592 
L 240.93 87.309465 
L 246.51 87.309465 
L 246.51 89.718334 
L 252.09 89.718334 
L 252.09 86.453683 
L 257.67 86.453683 
L 257.67 89.433073 
L 263.25 89.433073 
L 263.25 87.911683 
L 268.83 87.911683 
L 268.83 88.339574 
L 274.41 88.339574 
L 274.41 87.103444 
L 279.99 87.103444 
L 279.99 87.769052 
L 285.57 87.769052 
L 285.57 87.499639 
L 291.15 87.499639 
L 291.15 86.18427 
L 296.73 86.18427 
L 296.73 86.311053 
L 302.31 86.311053 
L 302.31 87.864139 
L 307.89 87.864139 
L 307.89 87.895835 
L 313.47 87.895835 
L 313.47 85.059075 
L 319.05 85.059075 
L 319.05 87.832443 
L 324.63 87.832443 
L 324.63 87.0559 
L 330.21 87.0559 
L 330.21 250.542001 
L 335.79 250.542001 
L 335.79 252 
L 341.37 252 
L 341.37 252 
L 346.95 252 
L 346.95 252 
L 352.53 252 
L 352.53 252 
L 358.11 252 
L 358.11 252 
L 363.69 252 
L 363.69 252 
L 369.27 252 
L 369.27 252 
L 374.85 252 
L 374.85 252 
L 380.43 252 
L 380.43 252 
L 383.22 252 
" clip-path="url(#p32d01fa451)" style="fill: none; stroke: #add8e6; stroke-width: 1.5; stroke-linecap: square"/>
   </g>
   <g id="line2d_16">
    <path d="M 54 252 
L 56.79 252 
L 56.79 252 
L 62.37 252 
L 62.37 252 
L 67.95 252 
L 67.95 252 
L 73.53 252 
L 73.53 252 
L 79.11 252 
L 79.11 252 
L 84.69 252 
L 84.69 252 
L 90.27 252 
L 90.27 252 
L 95.85 252 
L 95.85 252 
L 101.43 252 
L 101.43 252 
L 107.01 252 
L 107.01 221.048743 
L 112.59 221.048743 
L 112.59 99.352964 
L 118.17 99.352964 
L 118.17 98.931114 
L 123.75 98.931114 
L 123.75 101.962182 
L 129.33 101.962182 
L 129.33 93.712679 
L 134.91 93.712679 
L 134.91 93.118965 
L 140.49 93.118965 
L 140.49 90.728485 
L 146.07 90.728485 
L 146.07 92.259642 
L 151.65 92.259642 
L 151.65 88.556741 
L 157.23 88.556741 
L 157.23 87.728666 
L 162.81 87.728666 
L 162.81 87.009959 
L 168.39 87.009959 
L 168.39 85.150696 
L 173.97 85.150696 
L 173.97 87.572425 
L 179.55 87.572425 
L 179.55 84.51011 
L 185.13 84.51011 
L 185.13 83.885148 
L 190.71 83.885148 
L 190.71 84.228877 
L 196.29 84.228877 
L 196.29 82.994576 
L 201.87 82.994576 
L 201.87 84.322621 
L 207.45 84.322621 
L 207.45 82.27587 
L 213.03 82.27587 
L 213.03 81.932141 
L 218.61 81.932141 
L 218.61 81.27593 
L 224.19 81.27593 
L 224.19 83.166441 
L 229.77 83.166441 
L 229.77 80.541599 
L 235.35 80.541599 
L 235.35 81.338426 
L 240.93 81.338426 
L 240.93 80.275991 
L 246.51 80.275991 
L 246.51 80.666592 
L 252.09 80.666592 
L 252.09 80.213494 
L 257.67 80.213494 
L 257.67 80.666592 
L 263.25 80.666592 
L 263.25 79.182307 
L 268.83 79.182307 
L 268.83 80.900953 
L 274.41 80.900953 
L 274.41 78.494848 
L 279.99 78.494848 
L 279.99 78.869825 
L 285.57 78.869825 
L 285.57 80.275991 
L 291.15 80.275991 
L 291.15 78.369856 
L 296.73 78.369856 
L 296.73 79.713524 
L 302.31 79.713524 
L 302.31 78.526096 
L 307.89 78.526096 
L 307.89 78.666713 
L 313.47 78.666713 
L 313.47 78.885449 
L 319.05 78.885449 
L 319.05 79.244803 
L 324.63 79.244803 
L 324.63 78.869825 
L 330.21 78.869825 
L 330.21 250.359474 
L 335.79 250.359474 
L 335.79 252 
L 341.37 252 
L 341.37 252 
L 346.95 252 
L 346.95 252 
L 352.53 252 
L 352.53 252 
L 358.11 252 
L 358.11 252 
L 363.69 252 
L 363.69 252 
L 369.27 252 
L 369.27 252 
L 374.85 252 
L 374.85 252 
L 380.43 252 
L 380.43 252 
L 383.22 252 
" clip-path="url(#p32d01fa451)" style="fill: none; stroke: #008000; stroke-width: 1.5; stroke-linecap: square"/>
   </g>
   <g id="line2d_17">
    <path d="M 54 252 
L 56.79 252 
L 56.79 252 
L 62.37 252 
L 62.37 252 
L 67.95 252 
L 67.95 252 
L 73.53 252 
L 73.53 252 
L 79.11 252 
L 79.11 252 
L 84.69 252 
L 84.69 252 
L 90.27 252 
L 90.27 252 
L 95.85 252 
L 95.85 252 
L 101.43 252 
L 101.43 252 
L 107.01 252 
L 107.01 199.144387 
L 112.59 199.144387 
L 112.59 62.357472 
L 118.17 62.357472 
L 118.17 58.764907 
L 123.75 58.764907 
L 123.75 66.039851 
L 129.33 66.039851 
L 129.33 83.733234 
L 134.91 83.733234 
L 134.91 86.188154 
L 140.49 86.188154 
L 140.49 77.52109 
L 146.07 77.52109 
L 146.07 64.797423 
L 151.65 64.797423 
L 151.65 66.384139 
L 157.23 66.384139 
L 157.23 61.369517 
L 162.81 61.369517 
L 162.81 62.462255 
L 168.39 62.462255 
L 168.39 60.636035 
L 173.97 60.636035 
L 173.97 57.178191 
L 179.55 57.178191 
L 179.55 58.839752 
L 185.13 58.839752 
L 185.13 58.270929 
L 190.71 58.270929 
L 190.71 56.848872 
L 196.29 56.848872 
L 196.29 57.732045 
L 201.87 57.732045 
L 201.87 55.007683 
L 207.45 55.007683 
L 207.45 55.621413 
L 213.03 55.621413 
L 213.03 54.783147 
L 218.61 54.783147 
L 218.61 55.007683 
L 224.19 55.007683 
L 224.19 56.130359 
L 229.77 56.130359 
L 229.77 51.864188 
L 235.35 51.864188 
L 235.35 55.381908 
L 240.93 55.381908 
L 240.93 53.795192 
L 246.51 53.795192 
L 246.51 54.783147 
L 252.09 54.783147 
L 252.09 52.118662 
L 257.67 52.118662 
L 257.67 53.046741 
L 263.25 53.046741 
L 263.25 53.570657 
L 268.83 53.570657 
L 268.83 52.29829 
L 274.41 52.29829 
L 274.41 53.106617 
L 279.99 53.106617 
L 279.99 52.507856 
L 285.57 52.507856 
L 285.57 51.594746 
L 291.15 51.594746 
L 291.15 51.774374 
L 296.73 51.774374 
L 296.73 51.729467 
L 302.31 51.729467 
L 302.31 51.430087 
L 307.89 51.430087 
L 307.89 52.373135 
L 313.47 52.373135 
L 313.47 50.995985 
L 319.05 50.995985 
L 319.05 53.166493 
L 324.63 53.166493 
L 324.63 51.579777 
L 330.21 51.579777 
L 330.21 250.398315 
L 335.79 250.398315 
L 335.79 252 
L 341.37 252 
L 341.37 252 
L 346.95 252 
L 346.95 252 
L 352.53 252 
L 352.53 252 
L 358.11 252 
L 358.11 252 
L 363.69 252 
L 363.69 252 
L 369.27 252 
L 369.27 252 
L 374.85 252 
L 374.85 252 
L 380.43 252 
L 380.43 252 
L 383.22 252 
" clip-path="url(#p32d01fa451)" style="fill: none; stroke: #7f2aff; stroke-width: 1.5; stroke-linecap: square"/>
   </g>
   <g id="line2d_18">
    <path d="M 54 252 
L 56.79 252 
L 56.79 252 
L 62.37 252 
L 62.37 252 
L 67.95 252 
L 67.95 252 
L 73.53 252 
L 73.53 252 
L 79.11 252 
L 79.11 252 
L 84.69 252 
L 84.69 252 
L 90.27 252 
L 90.27 252 
L 95.85 252 
L 95.85 252 
L 101.43 252 
L 101.43 252 
L 107.01 252 
L 107.01 199.144387 
L 112.59 199.144387 
L 112.59 62.342503 
L 118.17 62.342503 
L 118.17 56.908748 
L 123.75 56.908748 
L 123.75 56.519554 
L 129.33 56.519554 
L 129.33 56.444709 
L 134.91 56.444709 
L 134.91 51.579777 
L 140.49 51.579777 
L 140.49 58.899628 
L 146.07 58.899628 
L 146.07 50.067906 
L 151.65 50.067906 
L 151.65 52.552763 
L 157.23 52.552763 
L 157.23 55.037621 
L 162.81 55.037621 
L 162.81 55.05259 
L 168.39 55.05259 
L 168.39 48.31653 
L 173.97 48.31653 
L 173.97 45.382602 
L 179.55 45.382602 
L 179.55 55.262156 
L 185.13 55.262156 
L 185.13 49.154796 
L 190.71 49.154796 
L 190.71 45.41254 
L 196.29 45.41254 
L 196.29 49.798463 
L 201.87 49.798463 
L 201.87 51.205551 
L 207.45 51.205551 
L 207.45 56.818934 
L 213.03 56.818934 
L 213.03 40.727237 
L 218.61 40.727237 
L 218.61 46.49031 
L 224.19 46.49031 
L 224.19 47.148947 
L 229.77 47.148947 
L 229.77 44.34974 
L 235.35 44.34974 
L 235.35 50.487038 
L 240.93 50.487038 
L 240.93 45.008377 
L 246.51 45.008377 
L 246.51 41.385874 
L 252.09 41.385874 
L 252.09 44.34974 
L 257.67 44.34974 
L 257.67 57.896704 
L 263.25 57.896704 
L 263.25 44.244957 
L 268.83 44.244957 
L 268.83 42.164263 
L 274.41 42.164263 
L 274.41 50.576853 
L 279.99 50.576853 
L 279.99 33.302602 
L 285.57 33.302602 
L 285.57 50.277472 
L 291.15 50.277472 
L 291.15 43.631227 
L 296.73 43.631227 
L 296.73 50.202627 
L 302.31 50.202627 
L 302.31 32.105081 
L 307.89 32.105081 
L 307.89 46.131053 
L 313.47 46.131053 
L 313.47 41.655316 
L 319.05 41.655316 
L 319.05 65.545874 
L 324.63 65.545874 
L 324.63 40.906865 
L 330.21 40.906865 
L 330.21 251.296456 
L 335.79 251.296456 
L 335.79 252 
L 341.37 252 
L 341.37 252 
L 346.95 252 
L 346.95 252 
L 352.53 252 
L 352.53 252 
L 358.11 252 
L 358.11 252 
L 363.69 252 
L 363.69 252 
L 369.27 252 
L 369.27 252 
L 374.85 252 
L 374.85 252 
L 380.43 252 
L 380.43 252 
L 383.22 252 
" clip-path="url(#p32d01fa451)" style="fill: none; stroke: #a6611a; stroke-width: 1.5; stroke-linecap: square"/>
   </g>
   <g id="patch_3">
    <path d="M 54 252 
L 54 34.56 
" style="fill: none; stroke: #000000; stroke-width: 0.8; stroke-linejoin: miter; stroke-linecap: square"/>
   </g>
   <g id="patch_4">
    <path d="M 388.8 252 
L 388.8 34.56 
" style="fill: none; stroke: #000000; stroke-width: 0.8; stroke-linejoin: miter; stroke-linecap: square"/>
   </g>
   <g id="patch_5">
    <path d="M 54 252 
L 388.8 252 
" style="fill: none; stroke: #000000; stroke-width: 0.8; stroke-linejoin: miter; stroke-linecap: square"/>
   </g>
   <g id="patch_6">
    <path d="M 54 34.56 
L 388.8 34.56 
" style="fill: none; stroke: #000000; stroke-width: 0.8; stroke-linejoin: miter; stroke-linecap: square"/>
   </g>
   <g id="text_17">
    <!--  PSTH - peristimulus time histogram  -->
    <g transform="translate(91.1525 28.56)scale(0.16 -0.16)">
     <defs>
      <path id="ArialMT-50" d="M 494 0 
L 494 4581 
L 2222 4581 
Q 2678 4581 2919 4538 
Q 3256 4481 3484 4323 
Q 3713 4166 3852 3881 
Q 3991 3597 3991 3256 
Q 3991 2672 3619 2267 
Q 3247 1863 2275 1863 
L 1100 1863 
L 1100 0 
L 494 0 
z
M 1100 2403 
L 2284 2403 
Q 2872 2403 3119 2622 
Q 3366 2841 3366 3238 
Q 3366 3525 3220 3729 
Q 3075 3934 2838 4000 
Q 2684 4041 2272 4041 
L 1100 4041 
L 1100 2403 
z
" transform="scale(0.015625)"/>
      <path id="ArialMT-53" d="M 288 1472 
L 859 1522 
Q 900 1178 1048 958 
Q 1197 738 1509 602 
Q 1822 466 2213 466 
Q 2559 466 2825 569 
Q 3091 672 3220 851 
Q 3350 1031 3350 1244 
Q 3350 1459 3225 1620 
Q 3100 1781 2813 1891 
Q 2628 1963 1997 2114 
Q 1366 2266 1113 2400 
Q 784 2572 623 2826 
Q 463 3081 463 3397 
Q 463 3744 659 4045 
Q 856 4347 1234 4503 
Q 1613 4659 2075 4659 
Q 2584 4659 2973 4495 
Q 3363 4331 3572 4012 
Q 3781 3694 3797 3291 
L 3216 3247 
Q 3169 3681 2898 3903 
Q 2628 4125 2100 4125 
Q 1550 4125 1298 3923 
Q 1047 3722 1047 3438 
Q 1047 3191 1225 3031 
Q 1400 2872 2139 2705 
Q 2878 2538 3153 2413 
Q 3553 2228 3743 1945 
Q 3934 1663 3934 1294 
Q 3934 928 3725 604 
Q 3516 281 3123 101 
Q 2731 -78 2241 -78 
Q 1619 -78 1198 103 
Q 778 284 539 648 
Q 300 1013 288 1472 
z
" transform="scale(0.015625)"/>
      <path id="ArialMT-2d" d="M 203 1375 
L 203 1941 
L 1931 1941 
L 1931 1375 
L 203 1375 
z
" transform="scale(0.015625)"/>
      <path id="ArialMT-70" d="M 422 -1272 
L 422 3319 
L 934 3319 
L 934 2888 
Q 1116 3141 1344 3267 
Q 1572 3394 1897 3394 
Q 2322 3394 2647 3175 
Q 2972 2956 3137 2557 
Q 3303 2159 3303 1684 
Q 3303 1175 3120 767 
Q 2938 359 2589 142 
Q 2241 -75 1856 -75 
Q 1575 -75 1351 44 
Q 1128 163 984 344 
L 984 -1272 
L 422 -1272 
z
M 931 1641 
Q 931 1000 1190 694 
Q 1450 388 1819 388 
Q 2194 388 2461 705 
Q 2728 1022 2728 1688 
Q 2728 2322 2467 2637 
Q 2206 2953 1844 2953 
Q 1484 2953 1207 2617 
Q 931 2281 931 1641 
z
" transform="scale(0.015625)"/>
      <path id="ArialMT-72" d="M 416 0 
L 416 3319 
L 922 3319 
L 922 2816 
Q 1116 3169 1280 3281 
Q 1444 3394 1641 3394 
Q 1925 3394 2219 3213 
L 2025 2691 
Q 1819 2813 1613 2813 
Q 1428 2813 1281 2702 
Q 1134 2591 1072 2394 
Q 978 2094 978 1738 
L 978 0 
L 416 0 
z
" transform="scale(0.015625)"/>
      <path id="ArialMT-75" d="M 2597 0 
L 2597 488 
Q 2209 -75 1544 -75 
Q 1250 -75 995 37 
Q 741 150 617 320 
Q 494 491 444 738 
Q 409 903 409 1263 
L 409 3319 
L 972 3319 
L 972 1478 
Q 972 1038 1006 884 
Q 1059 663 1231 536 
Q 1403 409 1656 409 
Q 1909 409 2131 539 
Q 2353 669 2445 892 
Q 2538 1116 2538 1541 
L 2538 3319 
L 3100 3319 
L 3100 0 
L 2597 0 
z
" transform="scale(0.015625)"/>
      <path id="ArialMT-6c" d="M 409 0 
L 409 4581 
L 972 4581 
L 972 0 
L 409 0 
z
" transform="scale(0.015625)"/>
      <path id="ArialMT-68" d="M 422 0 
L 422 4581 
L 984 4581 
L 984 2938 
Q 1378 3394 1978 3394 
Q 2347 3394 2619 3248 
Q 2891 3103 3008 2847 
Q 3125 2591 3125 2103 
L 3125 0 
L 2563 0 
L 2563 2103 
Q 2563 2525 2380 2717 
Q 2197 2909 1863 2909 
Q 1613 2909 1392 2779 
Q 1172 2650 1078 2428 
Q 984 2206 984 1816 
L 984 0 
L 422 0 
z
" transform="scale(0.015625)"/>
      <path id="ArialMT-6f" d="M 213 1659 
Q 213 2581 725 3025 
Q 1153 3394 1769 3394 
Q 2453 3394 2887 2945 
Q 3322 2497 3322 1706 
Q 3322 1066 3130 698 
Q 2938 331 2570 128 
Q 2203 -75 1769 -75 
Q 1072 -75 642 372 
Q 213 819 213 1659 
z
M 791 1659 
Q 791 1022 1069 705 
Q 1347 388 1769 388 
Q 2188 388 2466 706 
Q 2744 1025 2744 1678 
Q 2744 2294 2464 2611 
Q 2184 2928 1769 2928 
Q 1347 2928 1069 2612 
Q 791 2297 791 1659 
z
" transform="scale(0.015625)"/>
      <path id="ArialMT-67" d="M 319 -275 
L 866 -356 
Q 900 -609 1056 -725 
Q 1266 -881 1628 -881 
Q 2019 -881 2231 -725 
Q 2444 -569 2519 -288 
Q 2563 -116 2559 434 
Q 2191 0 1641 0 
Q 956 0 581 494 
Q 206 988 206 1678 
Q 206 2153 378 2554 
Q 550 2956 876 3175 
Q 1203 3394 1644 3394 
Q 2231 3394 2613 2919 
L 2613 3319 
L 3131 3319 
L 3131 450 
Q 3131 -325 2973 -648 
Q 2816 -972 2473 -1159 
Q 2131 -1347 1631 -1347 
Q 1038 -1347 672 -1080 
Q 306 -813 319 -275 
z
M 784 1719 
Q 784 1066 1043 766 
Q 1303 466 1694 466 
Q 2081 466 2343 764 
Q 2606 1063 2606 1700 
Q 2606 2309 2336 2618 
Q 2066 2928 1684 2928 
Q 1309 2928 1046 2623 
Q 784 2319 784 1719 
z
" transform="scale(0.015625)"/>
     </defs>
     <use xlink:href="#ArialMT-20"/>
     <use xlink:href="#ArialMT-50" x="27.783203"/>
     <use xlink:href="#ArialMT-53" x="94.482422"/>
     <use xlink:href="#ArialMT-54" x="161.181641"/>
     <use xlink:href="#ArialMT-48" x="222.265625"/>
     <use xlink:href="#ArialMT-20" x="294.482422"/>
     <use xlink:href="#ArialMT-2d" x="322.265625"/>
     <use xlink:href="#ArialMT-20" x="355.566406"/>
     <use xlink:href="#ArialMT-70" x="383.349609"/>
     <use xlink:href="#ArialMT-65" x="438.964844"/>
     <use xlink:href="#ArialMT-72" x="494.580078"/>
     <use xlink:href="#ArialMT-69" x="527.880859"/>
     <use xlink:href="#ArialMT-73" x="550.097656"/>
     <use xlink:href="#ArialMT-74" x="600.097656"/>
     <use xlink:href="#ArialMT-69" x="627.880859"/>
     <use xlink:href="#ArialMT-6d" x="650.097656"/>
     <use xlink:href="#ArialMT-75" x="733.398438"/>
     <use xlink:href="#ArialMT-6c" x="789.013672"/>
     <use xlink:href="#ArialMT-75" x="811.230469"/>
     <use xlink:href="#ArialMT-73" x="866.845703"/>
     <use xlink:href="#ArialMT-20" x="916.845703"/>
     <use xlink:href="#ArialMT-74" x="944.628906"/>
     <use xlink:href="#ArialMT-69" x="972.412109"/>
     <use xlink:href="#ArialMT-6d" x="994.628906"/>
     <use xlink:href="#ArialMT-65" x="1077.929688"/>
     <use xlink:href="#ArialMT-20" x="1133.544922"/>
     <use xlink:href="#ArialMT-68" x="1161.328125"/>
     <use xlink:href="#ArialMT-69" x="1216.943359"/>
     <use xlink:href="#ArialMT-73" x="1239.160156"/>
     <use xlink:href="#ArialMT-74" x="1289.160156"/>
     <use xlink:href="#ArialMT-6f" x="1316.943359"/>
     <use xlink:href="#ArialMT-67" x="1372.558594"/>
     <use xlink:href="#ArialMT-72" x="1428.173828"/>
     <use xlink:href="#ArialMT-61" x="1461.474609"/>
     <use xlink:href="#ArialMT-6d" x="1517.089844"/>
     <use xlink:href="#ArialMT-20" x="1600.390625"/>
    </g>
   </g>
  </g>
 </g>
 <defs>
  <clipPath id="p32d01fa451">
   <rect x="54" y="34.56" width="334.8" height="217.44"/>
  </clipPath>
 </defs>
</svg>
