<?xml version="1.0" encoding="utf-8" standalone="no"?>
<!DOCTYPE svg PUBLIC "-//W3C//DTD SVG 1.1//EN"
  "http://www.w3.org/Graphics/SVG/1.1/DTD/svg11.dtd">
<svg xmlns:xlink="http://www.w3.org/1999/xlink" width="432pt" height="288pt" viewBox="0 0 432 288" xmlns="http://www.w3.org/2000/svg" version="1.1">
 <metadata>
  <rdf:RDF xmlns:dc="http://purl.org/dc/elements/1.1/" xmlns:cc="http://creativecommons.org/ns#" xmlns:rdf="http://www.w3.org/1999/02/22-rdf-syntax-ns#">
   <cc:Work>
    <dc:type rdf:resource="http://purl.org/dc/dcmitype/StillImage"/>
    <dc:date>2022-10-30T20:28:16.028429</dc:date>
    <dc:format>image/svg+xml</dc:format>
    <dc:creator>
     <cc:Agent>
      <dc:title>Matplotlib v3.5.2, https://matplotlib.org/</dc:title>
     </cc:Agent>
    </dc:creator>
   </cc:Work>
  </rdf:RDF>
 </metadata>
 <defs>
  <style type="text/css">*{stroke-linejoin: round; stroke-linecap: butt}</style>
 </defs>
 <g id="figure_1">
  <g id="patch_1">
   <path d="M 0 288 
L 432 288 
L 432 0 
L 0 0 
L 0 288 
z
" style="fill: none"/>
  </g>
  <g id="axes_1">
   <g id="patch_2">
    <path d="M 54 252 
L 388.8 252 
L 388.8 34.56 
L 54 34.56 
z
" style="fill: #ffffff"/>
   </g>
   <g id="PolyCollection_1">
    <defs>
     <path id="mea15078cb3" d="M 111.670266 -36 
L 81.629097 -36 
L 81.670097 -38.025535 
L 82.471457 -40.051071 
L 83.849147 -42.076606 
L 85.543661 -44.102141 
L 87.29004 -46.127677 
L 88.877711 -48.153212 
L 90.18282 -50.178747 
L 91.169356 -52.204283 
L 91.867278 -54.229818 
L 92.341378 -56.255354 
L 92.663129 -58.280889 
L 92.892343 -60.306424 
L 93.069628 -62.33196 
L 93.216958 -64.357495 
L 93.34247 -66.38303 
L 93.446285 -68.408566 
L 93.525385 -70.434101 
L 93.57678 -72.459636 
L 93.598916 -74.485172 
L 93.591691 -76.510707 
L 93.55561 -78.536242 
L 93.490669 -80.561778 
L 93.395476 -82.587313 
L 93.266944 -84.612848 
L 93.100636 -86.638384 
L 92.891575 -88.663919 
L 92.635218 -90.689455 
L 92.328274 -92.71499 
L 91.969201 -94.740525 
L 91.558368 -96.766061 
L 91.097979 -98.791596 
L 90.591873 -100.817131 
L 90.045192 -102.842667 
L 89.463858 -104.868202 
L 88.853756 -106.893737 
L 88.219643 -108.919273 
L 87.563938 -110.944808 
L 86.885726 -112.970343 
L 86.180326 -114.995879 
L 85.439715 -117.021414 
L 84.654006 -119.046949 
L 83.813949 -121.072485 
L 82.914215 -123.09802 
L 81.95692 -125.123556 
L 80.954549 -127.149091 
L 79.931298 -129.174626 
L 78.92209 -131.200162 
L 77.969042 -133.225697 
L 77.115998 -135.251232 
L 76.40237 -137.276768 
L 75.857707 -139.302303 
L 75.498097 -141.327838 
L 75.324841 -143.353374 
L 75.325274 -145.378909 
L 75.475343 -147.404444 
L 75.743535 -149.42998 
L 76.095773 -151.455515 
L 76.500662 -153.481051 
L 76.934146 -155.506586 
L 77.382472 -157.532121 
L 77.842729 -159.557657 
L 78.320955 -161.583192 
L 78.828674 -163.608727 
L 79.379121 -165.634263 
L 79.984157 -167.659798 
L 80.652266 -169.685333 
L 81.38738 -171.710869 
L 82.188135 -173.736404 
L 83.047385 -175.761939 
L 83.952244 -177.787475 
L 84.885068 -179.81301 
L 85.825609 -181.838545 
L 86.753996 -183.864081 
L 87.653719 -185.889616 
L 88.513636 -187.915152 
L 89.328317 -189.940687 
L 90.096699 -191.966222 
L 90.819693 -193.991758 
L 91.497708 -196.017293 
L 92.128998 -198.042828 
L 92.709225 -200.068364 
L 93.232117 -202.093899 
L 93.690709 -204.119434 
L 94.078682 -206.14497 
L 94.391493 -208.170505 
L 94.627329 -210.19604 
L 94.788013 -212.221576 
L 94.879916 -214.247111 
L 94.914661 -216.272646 
L 94.909183 -218.298182 
L 94.884707 -220.323717 
L 94.864417 -222.349253 
L 94.870078 -224.374788 
L 94.918331 -226.400323 
L 95.017658 -228.425859 
L 95.166967 -230.451394 
L 95.356267 -232.476929 
L 95.56929 -234.502465 
L 95.787276 -236.528 
L 97.512087 -236.528 
L 97.512087 -236.528 
L 97.730073 -234.502465 
L 97.943096 -232.476929 
L 98.132396 -230.451394 
L 98.281705 -228.425859 
L 98.381032 -226.400323 
L 98.429285 -224.374788 
L 98.434946 -222.349253 
L 98.414656 -220.323717 
L 98.39018 -218.298182 
L 98.384702 -216.272646 
L 98.419447 -214.247111 
L 98.51135 -212.221576 
L 98.672034 -210.19604 
L 98.90787 -208.170505 
L 99.220681 -206.14497 
L 99.608654 -204.119434 
L 100.067246 -202.093899 
L 100.590138 -200.068364 
L 101.170365 -198.042828 
L 101.801655 -196.017293 
L 102.47967 -193.991758 
L 103.202664 -191.966222 
L 103.971046 -189.940687 
L 104.785727 -187.915152 
L 105.645644 -185.889616 
L 106.545368 -183.864081 
L 107.473754 -181.838545 
L 108.414296 -179.81301 
L 109.347119 -177.787475 
L 110.251978 -175.761939 
L 111.111228 -173.736404 
L 111.911983 -171.710869 
L 112.647097 -169.685333 
L 113.315206 -167.659798 
L 113.920242 -165.634263 
L 114.470689 -163.608727 
L 114.978408 -161.583192 
L 115.456634 -159.557657 
L 115.916891 -157.532121 
L 116.365217 -155.506586 
L 116.798701 -153.481051 
L 117.20359 -151.455515 
L 117.555828 -149.42998 
L 117.82402 -147.404444 
L 117.974089 -145.378909 
L 117.974522 -143.353374 
L 117.801266 -141.327838 
L 117.441656 -139.302303 
L 116.896993 -137.276768 
L 116.183365 -135.251232 
L 115.330321 -133.225697 
L 114.377273 -131.200162 
L 113.368065 -129.174626 
L 112.344814 -127.149091 
L 111.342443 -125.123556 
L 110.385148 -123.09802 
L 109.485414 -121.072485 
L 108.645357 -119.046949 
L 107.859648 -117.021414 
L 107.119037 -114.995879 
L 106.413637 -112.970343 
L 105.735426 -110.944808 
L 105.07972 -108.919273 
L 104.445607 -106.893737 
L 103.835506 -104.868202 
L 103.254171 -102.842667 
L 102.70749 -100.817131 
L 102.201384 -98.791596 
L 101.740995 -96.766061 
L 101.330162 -94.740525 
L 100.971089 -92.71499 
L 100.664145 -90.689455 
L 100.407788 -88.663919 
L 100.198727 -86.638384 
L 100.032419 -84.612848 
L 99.903887 -82.587313 
L 99.808694 -80.561778 
L 99.743753 -78.536242 
L 99.707672 -76.510707 
L 99.700447 -74.485172 
L 99.722583 -72.459636 
L 99.773978 -70.434101 
L 99.853078 -68.408566 
L 99.956893 -66.38303 
L 100.082405 -64.357495 
L 100.229735 -62.33196 
L 100.40702 -60.306424 
L 100.636234 -58.280889 
L 100.957985 -56.255354 
L 101.432085 -54.229818 
L 102.130008 -52.204283 
L 103.116543 -50.178747 
L 104.421652 -48.153212 
L 106.009323 -46.127677 
L 107.755702 -44.102141 
L 109.450216 -42.076606 
L 110.827906 -40.051071 
L 111.629266 -38.025535 
L 111.670266 -36 
z
" style="stroke: #000000; stroke-opacity: 0.8"/>
    </defs>
    <g clip-path="url(#p8813a41dec)">
     <use xlink:href="#mea15078cb3" x="0" y="288" style="fill: #800080; fill-opacity: 0.8; stroke: #000000; stroke-opacity: 0.8"/>
    </g>
   </g>
   <g id="PolyCollection_2">
    <defs>
     <path id="m944af16be5" d="M 195.758616 -36 
L 168.139473 -36 
L 168.164259 -38.025535 
L 168.881689 -40.051071 
L 170.131402 -42.076606 
L 171.682759 -44.102141 
L 173.295662 -46.127677 
L 174.774142 -48.153212 
L 175.997367 -50.178747 
L 176.923829 -52.204283 
L 177.574613 -54.229818 
L 178.006895 -56.255354 
L 178.288312 -58.280889 
L 178.478801 -60.306424 
L 178.621741 -62.33196 
L 178.742778 -64.357495 
L 178.853264 -66.38303 
L 178.955333 -68.408566 
L 179.046573 -70.434101 
L 179.123322 -72.459636 
L 179.182421 -74.485172 
L 179.221764 -76.510707 
L 179.240068 -78.536242 
L 179.236289 -80.561778 
L 179.208945 -82.587313 
L 179.15555 -84.612848 
L 179.072269 -86.638384 
L 178.953916 -88.663919 
L 178.79429 -90.689455 
L 178.586812 -92.71499 
L 178.325277 -94.740525 
L 178.00456 -96.766061 
L 177.621145 -98.791596 
L 177.173481 -100.817131 
L 176.662236 -102.842667 
L 176.090578 -104.868202 
L 175.464446 -106.893737 
L 174.792656 -108.919273 
L 174.08655 -110.944808 
L 173.358905 -112.970343 
L 172.622046 -114.995879 
L 171.885403 -117.021414 
L 171.153098 -119.046949 
L 170.422348 -121.072485 
L 169.683423 -123.09802 
L 168.921564 -125.123556 
L 168.120769 -127.149091 
L 167.268803 -129.174626 
L 166.362343 -131.200162 
L 165.411052 -133.225697 
L 164.439464 -135.251232 
L 163.485985 -137.276768 
L 162.598851 -139.302303 
L 161.829527 -141.327838 
L 161.224631 -143.353374 
L 160.817942 -145.378909 
L 160.624204 -147.404444 
L 160.63629 -149.42998 
L 160.826658 -151.455515 
L 161.153099 -153.481051 
L 161.567621 -155.506586 
L 162.026373 -157.532121 
L 162.498053 -159.557657 
L 162.968633 -161.583192 
L 163.441339 -163.608727 
L 163.932329 -165.634263 
L 164.463745 -167.659798 
L 165.056397 -169.685333 
L 165.724021 -171.710869 
L 166.470187 -173.736404 
L 167.287968 -175.761939 
L 168.161821 -177.787475 
L 169.070843 -179.81301 
L 169.992583 -181.838545 
L 170.906669 -183.864081 
L 171.797579 -185.889616 
L 172.656024 -187.915152 
L 173.478687 -189.940687 
L 174.266532 -191.966222 
L 175.022266 -193.991758 
L 175.747818 -196.017293 
L 176.442548 -198.042828 
L 177.102553 -200.068364 
L 177.720998 -202.093899 
L 178.289066 -204.119434 
L 178.797114 -206.14497 
L 179.235775 -208.170505 
L 179.597022 -210.19604 
L 179.875347 -212.221576 
L 180.069189 -214.247111 
L 180.182472 -216.272646 
L 180.225832 -218.298182 
L 180.21695 -220.323717 
L 180.17944 -222.349253 
L 180.140114 -224.374788 
L 180.124942 -226.400323 
L 180.154578 -228.425859 
L 180.240622 -230.451394 
L 180.383707 -232.476929 
L 180.574028 -234.502465 
L 180.794164 -236.528 
L 183.103925 -236.528 
L 183.103925 -236.528 
L 183.324061 -234.502465 
L 183.514382 -232.476929 
L 183.657468 -230.451394 
L 183.743511 -228.425859 
L 183.773147 -226.400323 
L 183.757975 -224.374788 
L 183.718649 -222.349253 
L 183.68114 -220.323717 
L 183.672257 -218.298182 
L 183.715617 -216.272646 
L 183.8289 -214.247111 
L 184.022742 -212.221576 
L 184.301067 -210.19604 
L 184.662314 -208.170505 
L 185.100976 -206.14497 
L 185.609024 -204.119434 
L 186.177091 -202.093899 
L 186.795536 -200.068364 
L 187.455541 -198.042828 
L 188.150271 -196.017293 
L 188.875823 -193.991758 
L 189.631557 -191.966222 
L 190.419402 -189.940687 
L 191.242066 -187.915152 
L 192.10051 -185.889616 
L 192.99142 -183.864081 
L 193.905506 -181.838545 
L 194.827246 -179.81301 
L 195.736268 -177.787475 
L 196.610122 -175.761939 
L 197.427902 -173.736404 
L 198.174068 -171.710869 
L 198.841692 -169.685333 
L 199.434345 -167.659798 
L 199.96576 -165.634263 
L 200.45675 -163.608727 
L 200.929456 -161.583192 
L 201.400036 -159.557657 
L 201.871716 -157.532121 
L 202.330468 -155.506586 
L 202.74499 -153.481051 
L 203.071431 -151.455515 
L 203.2618 -149.42998 
L 203.273885 -147.404444 
L 203.080147 -145.378909 
L 202.673458 -143.353374 
L 202.068562 -141.327838 
L 201.299238 -139.302303 
L 200.412104 -137.276768 
L 199.458626 -135.251232 
L 198.487037 -133.225697 
L 197.535746 -131.200162 
L 196.629286 -129.174626 
L 195.77732 -127.149091 
L 194.976525 -125.123556 
L 194.214666 -123.09802 
L 193.475741 -121.072485 
L 192.744992 -119.046949 
L 192.012686 -117.021414 
L 191.276043 -114.995879 
L 190.539184 -112.970343 
L 189.811539 -110.944808 
L 189.105433 -108.919273 
L 188.433644 -106.893737 
L 187.807512 -104.868202 
L 187.235854 -102.842667 
L 186.724608 -100.817131 
L 186.276944 -98.791596 
L 185.89353 -96.766061 
L 185.572812 -94.740525 
L 185.311277 -92.71499 
L 185.103799 -90.689455 
L 184.944173 -88.663919 
L 184.82582 -86.638384 
L 184.742539 -84.612848 
L 184.689144 -82.587313 
L 184.6618 -80.561778 
L 184.658021 -78.536242 
L 184.676325 -76.510707 
L 184.715668 -74.485172 
L 184.774767 -72.459636 
L 184.851516 -70.434101 
L 184.942756 -68.408566 
L 185.044825 -66.38303 
L 185.155311 -64.357495 
L 185.276348 -62.33196 
L 185.419288 -60.306424 
L 185.609777 -58.280889 
L 185.891194 -56.255354 
L 186.323476 -54.229818 
L 186.97426 -52.204283 
L 187.900722 -50.178747 
L 189.123947 -48.153212 
L 190.602427 -46.127677 
L 192.215331 -44.102141 
L 193.766688 -42.076606 
L 195.0164 -40.051071 
L 195.73383 -38.025535 
L 195.758616 -36 
z
" style="stroke: #000000; stroke-opacity: 0.8"/>
    </defs>
    <g clip-path="url(#p8813a41dec)">
     <use xlink:href="#m944af16be5" x="0" y="288" style="fill: #008000; fill-opacity: 0.8; stroke: #000000; stroke-opacity: 0.8"/>
    </g>
   </g>
   <g id="PolyCollection_3">
    <defs>
     <path id="m3b5ea878a6" d="M 268.107438 -36 
L 266.389378 -36 
L 266.315166 -38.001131 
L 266.302536 -40.002263 
L 266.347254 -42.003394 
L 266.431312 -44.004525 
L 266.526665 -46.005657 
L 266.599814 -48.006788 
L 266.615985 -50.007919 
L 266.542896 -52.009051 
L 266.354791 -54.010182 
L 266.037355 -56.011313 
L 265.593117 -58.012444 
L 265.045559 -60.013576 
L 264.439164 -62.014707 
L 263.83326 -64.015838 
L 263.289983 -66.01697 
L 262.860053 -68.018101 
L 262.571888 -70.019232 
L 262.428453 -72.020364 
L 262.412357 -74.021495 
L 262.495651 -76.022626 
L 262.649258 -78.023758 
L 262.848497 -80.024889 
L 263.074124 -82.02602 
L 263.31043 -84.027152 
L 263.542299 -86.028283 
L 263.752746 -88.029414 
L 263.922067 -90.030545 
L 264.029436 -92.031677 
L 264.056886 -94.032808 
L 263.994065 -96.033939 
L 263.841163 -98.035071 
L 263.6081 -100.036202 
L 263.310659 -102.037333 
L 262.966853 -104.038465 
L 262.597097 -106.039596 
L 262.228652 -108.040727 
L 261.900259 -110.041859 
L 261.660423 -112.04299 
L 261.555464 -114.044121 
L 261.610314 -116.045253 
L 261.811777 -118.046384 
L 262.105164 -120.047515 
L 262.408797 -122.048646 
L 262.64037 -124.049778 
L 262.741812 -126.050909 
L 262.690518 -128.05204 
L 262.493708 -130.053172 
L 262.172535 -132.054303 
L 261.746631 -134.055434 
L 261.226303 -136.056566 
L 260.612558 -138.057697 
L 259.900219 -140.058828 
L 259.079181 -142.05996 
L 258.132385 -144.061091 
L 257.033519 -146.062222 
L 255.750556 -148.063354 
L 254.260811 -150.064485 
L 252.577576 -152.065616 
L 250.778311 -154.066747 
L 249.015976 -156.067879 
L 247.496857 -158.06901 
L 246.423607 -160.070141 
L 245.923567 -162.071273 
L 245.995302 -164.072404 
L 246.500757 -166.073535 
L 247.209276 -168.074667 
L 247.875999 -170.075798 
L 248.323681 -172.076929 
L 248.498263 -174.078061 
L 248.480189 -176.079192 
L 248.449143 -178.080323 
L 248.615244 -180.081455 
L 249.14195 -182.082586 
L 250.090164 -184.083717 
L 251.404959 -186.084848 
L 252.947234 -188.08598 
L 254.551976 -190.087111 
L 256.08464 -192.088242 
L 257.47265 -194.089374 
L 258.705111 -196.090505 
L 259.809959 -198.091636 
L 260.825457 -200.092768 
L 261.780065 -202.093899 
L 262.685372 -204.09503 
L 263.538093 -206.096162 
L 264.324306 -208.097293 
L 265.022246 -210.098424 
L 265.604598 -212.099556 
L 266.042692 -214.100687 
L 266.313141 -216.101818 
L 266.405166 -218.102949 
L 266.326634 -220.104081 
L 266.107804 -222.105212 
L 265.801883 -224.106343 
L 265.48051 -226.107475 
L 265.22218 -228.108606 
L 265.094286 -230.109737 
L 265.134156 -232.110869 
L 265.3375 -234.112 
L 269.159315 -234.112 
L 269.159315 -234.112 
L 269.362659 -232.110869 
L 269.402529 -230.109737 
L 269.274635 -228.108606 
L 269.016305 -226.107475 
L 268.694933 -224.106343 
L 268.389011 -222.105212 
L 268.170181 -220.104081 
L 268.09165 -218.102949 
L 268.183674 -216.101818 
L 268.454123 -214.100687 
L 268.892217 -212.099556 
L 269.474569 -210.098424 
L 270.172509 -208.097293 
L 270.958722 -206.096162 
L 271.811444 -204.09503 
L 272.71675 -202.093899 
L 273.671358 -200.092768 
L 274.686857 -198.091636 
L 275.791704 -196.090505 
L 277.024165 -194.089374 
L 278.412175 -192.088242 
L 279.944839 -190.087111 
L 281.549582 -188.08598 
L 283.091857 -186.084848 
L 284.406651 -184.083717 
L 285.354865 -182.082586 
L 285.881572 -180.081455 
L 286.047672 -178.080323 
L 286.016626 -176.079192 
L 285.998553 -174.078061 
L 286.173134 -172.076929 
L 286.620816 -170.075798 
L 287.287539 -168.074667 
L 287.996059 -166.073535 
L 288.501513 -164.072404 
L 288.573248 -162.071273 
L 288.073209 -160.070141 
L 286.999959 -158.06901 
L 285.48084 -156.067879 
L 283.718505 -154.066747 
L 281.919239 -152.065616 
L 280.236004 -150.064485 
L 278.74626 -148.063354 
L 277.463297 -146.062222 
L 276.36443 -144.061091 
L 275.417634 -142.05996 
L 274.596597 -140.058828 
L 273.884258 -138.057697 
L 273.270513 -136.056566 
L 272.750184 -134.055434 
L 272.324281 -132.054303 
L 272.003107 -130.053172 
L 271.806297 -128.05204 
L 271.755003 -126.050909 
L 271.856445 -124.049778 
L 272.088018 -122.048646 
L 272.391651 -120.047515 
L 272.685038 -118.046384 
L 272.886501 -116.045253 
L 272.941352 -114.044121 
L 272.836392 -112.04299 
L 272.596556 -110.041859 
L 272.268163 -108.040727 
L 271.899718 -106.039596 
L 271.529962 -104.038465 
L 271.186157 -102.037333 
L 270.888715 -100.036202 
L 270.655652 -98.035071 
L 270.50275 -96.033939 
L 270.439929 -94.032808 
L 270.467379 -92.031677 
L 270.574748 -90.030545 
L 270.744069 -88.029414 
L 270.954516 -86.028283 
L 271.186385 -84.027152 
L 271.422691 -82.02602 
L 271.648319 -80.024889 
L 271.847557 -78.023758 
L 272.001164 -76.022626 
L 272.084458 -74.021495 
L 272.068362 -72.020364 
L 271.924927 -70.019232 
L 271.636762 -68.018101 
L 271.206832 -66.01697 
L 270.663556 -64.015838 
L 270.057651 -62.014707 
L 269.451256 -60.013576 
L 268.903698 -58.012444 
L 268.459461 -56.011313 
L 268.142025 -54.010182 
L 267.95392 -52.009051 
L 267.88083 -50.007919 
L 267.897001 -48.006788 
L 267.97015 -46.005657 
L 268.065503 -44.004525 
L 268.149561 -42.003394 
L 268.194279 -40.002263 
L 268.181649 -38.001131 
L 268.107438 -36 
z
" style="stroke: #000000; stroke-opacity: 0.8"/>
    </defs>
    <g clip-path="url(#p8813a41dec)">
     <use xlink:href="#m3b5ea878a6" x="0" y="288" style="fill: #7f2aff; fill-opacity: 0.8; stroke: #000000; stroke-opacity: 0.8"/>
    </g>
   </g>
   <g id="PolyCollection_4">
    <defs>
     <path id="m8da44476be" d="M 353.529798 -36 
L 351.565744 -36 
L 351.498663 -38.001131 
L 351.520943 -40.002263 
L 351.627153 -42.003394 
L 351.791931 -44.004525 
L 351.979125 -46.005657 
L 352.15323 -48.006788 
L 352.287265 -50.007919 
L 352.363598 -52.009051 
L 352.36842 -54.010182 
L 352.284187 -56.011313 
L 352.085845 -58.012444 
L 351.745444 -60.013576 
L 351.245856 -62.014707 
L 350.59841 -64.015838 
L 349.854335 -66.01697 
L 349.100012 -68.018101 
L 348.433918 -70.019232 
L 347.934967 -72.020364 
L 347.638919 -74.021495 
L 347.534949 -76.022626 
L 347.581156 -78.023758 
L 347.726793 -80.024889 
L 347.928612 -82.02602 
L 348.156941 -84.027152 
L 348.394715 -86.028283 
L 348.633751 -88.029414 
L 348.869526 -90.030545 
L 349.094337 -92.031677 
L 349.29089 -94.032808 
L 349.430446 -96.033939 
L 349.478081 -98.035071 
L 349.403005 -100.036202 
L 349.188549 -102.037333 
L 348.837266 -104.038465 
L 348.370897 -106.039596 
L 347.828617 -108.040727 
L 347.266687 -110.041859 
L 346.758149 -112.04299 
L 346.386522 -114.044121 
L 346.227684 -116.045253 
L 346.321528 -118.046384 
L 346.645402 -120.047515 
L 347.106455 -122.048646 
L 347.563767 -124.049778 
L 347.875339 -126.050909 
L 347.949295 -128.05204 
L 347.773763 -130.053172 
L 347.410291 -132.054303 
L 346.955477 -134.055434 
L 346.492367 -136.056566 
L 346.056461 -138.057697 
L 345.629553 -140.058828 
L 345.157305 -142.05996 
L 344.574983 -144.061091 
L 343.826016 -146.062222 
L 342.867272 -148.063354 
L 341.666644 -150.064485 
L 340.205979 -152.065616 
L 338.499568 -154.066747 
L 336.624202 -156.067879 
L 334.739316 -158.06901 
L 333.071031 -160.070141 
L 331.851137 -162.071273 
L 331.232503 -164.072404 
L 331.22293 -166.073535 
L 331.673614 -168.074667 
L 332.329623 -170.075798 
L 332.918981 -172.076929 
L 333.243229 -174.078061 
L 333.238652 -176.079192 
L 332.992252 -178.080323 
L 332.709379 -180.081455 
L 332.64124 -182.082586 
L 332.994897 -184.083717 
L 333.860513 -186.084848 
L 335.187216 -188.08598 
L 336.815868 -190.087111 
L 338.548192 -192.088242 
L 340.217184 -194.089374 
L 341.730021 -196.090505 
L 343.072797 -198.091636 
L 344.284211 -200.092768 
L 345.416534 -202.093899 
L 346.504189 -204.09503 
L 347.552193 -206.096162 
L 348.542814 -208.097293 
L 349.448807 -210.098424 
L 350.242456 -212.099556 
L 350.898016 -214.100687 
L 351.391708 -216.101818 
L 351.703349 -218.102949 
L 351.820456 -220.104081 
L 351.744222 -222.105212 
L 351.497054 -224.106343 
L 351.129936 -226.107475 
L 350.724132 -228.108606 
L 350.380155 -230.109737 
L 350.192134 -232.110869 
L 350.216258 -234.112 
L 354.879284 -234.112 
L 354.879284 -234.112 
L 354.903407 -232.110869 
L 354.715386 -230.109737 
L 354.37141 -228.108606 
L 353.965605 -226.107475 
L 353.598487 -224.106343 
L 353.35132 -222.105212 
L 353.275085 -220.104081 
L 353.392192 -218.102949 
L 353.703834 -216.101818 
L 354.197526 -214.100687 
L 354.853085 -212.099556 
L 355.646734 -210.098424 
L 356.552728 -208.097293 
L 357.543348 -206.096162 
L 358.591352 -204.09503 
L 359.679008 -202.093899 
L 360.811331 -200.092768 
L 362.022745 -198.091636 
L 363.365521 -196.090505 
L 364.878358 -194.089374 
L 366.547349 -192.088242 
L 368.279674 -190.087111 
L 369.908326 -188.08598 
L 371.235029 -186.084848 
L 372.100644 -184.083717 
L 372.454302 -182.082586 
L 372.386162 -180.081455 
L 372.103289 -178.080323 
L 371.85689 -176.079192 
L 371.852312 -174.078061 
L 372.176561 -172.076929 
L 372.765919 -170.075798 
L 373.421927 -168.074667 
L 373.872611 -166.073535 
L 373.863038 -164.072404 
L 373.244404 -162.071273 
L 372.024511 -160.070141 
L 370.356225 -158.06901 
L 368.47134 -156.067879 
L 366.595973 -154.066747 
L 364.889563 -152.065616 
L 363.428897 -150.064485 
L 362.22827 -148.063354 
L 361.269525 -146.062222 
L 360.520559 -144.061091 
L 359.938236 -142.05996 
L 359.465989 -140.058828 
L 359.039081 -138.057697 
L 358.603174 -136.056566 
L 358.140064 -134.055434 
L 357.68525 -132.054303 
L 357.321779 -130.053172 
L 357.146246 -128.05204 
L 357.220202 -126.050909 
L 357.531775 -124.049778 
L 357.989086 -122.048646 
L 358.450139 -120.047515 
L 358.774013 -118.046384 
L 358.867858 -116.045253 
L 358.709019 -114.044121 
L 358.337392 -112.04299 
L 357.828854 -110.041859 
L 357.266924 -108.040727 
L 356.724645 -106.039596 
L 356.258276 -104.038465 
L 355.906993 -102.037333 
L 355.692537 -100.036202 
L 355.617461 -98.035071 
L 355.665095 -96.033939 
L 355.804652 -94.032808 
L 356.001204 -92.031677 
L 356.226015 -90.030545 
L 356.46179 -88.029414 
L 356.700827 -86.028283 
L 356.9386 -84.027152 
L 357.16693 -82.02602 
L 357.368749 -80.024889 
L 357.514386 -78.023758 
L 357.560593 -76.022626 
L 357.456622 -74.021495 
L 357.160574 -72.020364 
L 356.661623 -70.019232 
L 355.99553 -68.018101 
L 355.241206 -66.01697 
L 354.497131 -64.015838 
L 353.849686 -62.014707 
L 353.350097 -60.013576 
L 353.009697 -58.012444 
L 352.811354 -56.011313 
L 352.727122 -54.010182 
L 352.731944 -52.009051 
L 352.808276 -50.007919 
L 352.942311 -48.006788 
L 353.116416 -46.005657 
L 353.30361 -44.004525 
L 353.468389 -42.003394 
L 353.574599 -40.002263 
L 353.596878 -38.001131 
L 353.529798 -36 
z
" style="stroke: #000000; stroke-opacity: 0.8"/>
    </defs>
    <g clip-path="url(#p8813a41dec)">
     <use xlink:href="#m8da44476be" x="0" y="288" style="fill: #a6611a; fill-opacity: 0.8; stroke: #000000; stroke-opacity: 0.8"/>
    </g>
   </g>
   <g id="matplotlib.axis_1">
    <g id="xtick_1">
     <g id="line2d_1">
      <defs>
       <path id="m29663da4d9" d="M 0 0 
L 0 3.5 
" style="stroke: #000000; stroke-width: 0.8"/>
      </defs>
      <g>
       <use xlink:href="#m29663da4d9" x="54" y="252" style="stroke: #000000; stroke-width: 0.8"/>
      </g>
     </g>
     <g id="text_1">
      <!-- current_injection -->
      <g transform="translate(15.354847 350.105405)rotate(-45)scale(0.16 -0.16)">
       <defs>
        <path id="ArialMT-63" d="M 2588 1216 
L 3141 1144 
Q 3050 572 2676 248 
Q 2303 -75 1759 -75 
Q 1078 -75 664 370 
Q 250 816 250 1647 
Q 250 2184 428 2587 
Q 606 2991 970 3192 
Q 1334 3394 1763 3394 
Q 2303 3394 2647 3120 
Q 2991 2847 3088 2344 
L 2541 2259 
Q 2463 2594 2264 2762 
Q 2066 2931 1784 2931 
Q 1359 2931 1093 2626 
Q 828 2322 828 1663 
Q 828 994 1084 691 
Q 1341 388 1753 388 
Q 2084 388 2306 591 
Q 2528 794 2588 1216 
z
" transform="scale(0.015625)"/>
        <path id="ArialMT-75" d="M 2597 0 
L 2597 488 
Q 2209 -75 1544 -75 
Q 1250 -75 995 37 
Q 741 150 617 320 
Q 494 491 444 738 
Q 409 903 409 1263 
L 409 3319 
L 972 3319 
L 972 1478 
Q 972 1038 1006 884 
Q 1059 663 1231 536 
Q 1403 409 1656 409 
Q 1909 409 2131 539 
Q 2353 669 2445 892 
Q 2538 1116 2538 1541 
L 2538 3319 
L 3100 3319 
L 3100 0 
L 2597 0 
z
" transform="scale(0.015625)"/>
        <path id="ArialMT-72" d="M 416 0 
L 416 3319 
L 922 3319 
L 922 2816 
Q 1116 3169 1280 3281 
Q 1444 3394 1641 3394 
Q 1925 3394 2219 3213 
L 2025 2691 
Q 1819 2813 1613 2813 
Q 1428 2813 1281 2702 
Q 1134 2591 1072 2394 
Q 978 2094 978 1738 
L 978 0 
L 416 0 
z
" transform="scale(0.015625)"/>
        <path id="ArialMT-65" d="M 2694 1069 
L 3275 997 
Q 3138 488 2766 206 
Q 2394 -75 1816 -75 
Q 1088 -75 661 373 
Q 234 822 234 1631 
Q 234 2469 665 2931 
Q 1097 3394 1784 3394 
Q 2450 3394 2872 2941 
Q 3294 2488 3294 1666 
Q 3294 1616 3291 1516 
L 816 1516 
Q 847 969 1125 678 
Q 1403 388 1819 388 
Q 2128 388 2347 550 
Q 2566 713 2694 1069 
z
M 847 1978 
L 2700 1978 
Q 2663 2397 2488 2606 
Q 2219 2931 1791 2931 
Q 1403 2931 1139 2672 
Q 875 2413 847 1978 
z
" transform="scale(0.015625)"/>
        <path id="ArialMT-6e" d="M 422 0 
L 422 3319 
L 928 3319 
L 928 2847 
Q 1294 3394 1984 3394 
Q 2284 3394 2536 3286 
Q 2788 3178 2913 3003 
Q 3038 2828 3088 2588 
Q 3119 2431 3119 2041 
L 3119 0 
L 2556 0 
L 2556 2019 
Q 2556 2363 2490 2533 
Q 2425 2703 2258 2804 
Q 2091 2906 1866 2906 
Q 1506 2906 1245 2678 
Q 984 2450 984 1813 
L 984 0 
L 422 0 
z
" transform="scale(0.015625)"/>
        <path id="ArialMT-74" d="M 1650 503 
L 1731 6 
Q 1494 -44 1306 -44 
Q 1000 -44 831 53 
Q 663 150 594 308 
Q 525 466 525 972 
L 525 2881 
L 113 2881 
L 113 3319 
L 525 3319 
L 525 4141 
L 1084 4478 
L 1084 3319 
L 1650 3319 
L 1650 2881 
L 1084 2881 
L 1084 941 
Q 1084 700 1114 631 
Q 1144 563 1211 522 
Q 1278 481 1403 481 
Q 1497 481 1650 503 
z
" transform="scale(0.015625)"/>
        <path id="ArialMT-5f" d="M -97 -1272 
L -97 -866 
L 3631 -866 
L 3631 -1272 
L -97 -1272 
z
" transform="scale(0.015625)"/>
        <path id="ArialMT-69" d="M 425 3934 
L 425 4581 
L 988 4581 
L 988 3934 
L 425 3934 
z
M 425 0 
L 425 3319 
L 988 3319 
L 988 0 
L 425 0 
z
" transform="scale(0.015625)"/>
        <path id="ArialMT-6a" d="M 419 3928 
L 419 4581 
L 981 4581 
L 981 3928 
L 419 3928 
z
M -294 -1288 
L -188 -809 
Q -19 -853 78 -853 
Q 250 -853 334 -739 
Q 419 -625 419 -169 
L 419 3319 
L 981 3319 
L 981 -181 
Q 981 -794 822 -1034 
Q 619 -1347 147 -1347 
Q -81 -1347 -294 -1288 
z
" transform="scale(0.015625)"/>
        <path id="ArialMT-6f" d="M 213 1659 
Q 213 2581 725 3025 
Q 1153 3394 1769 3394 
Q 2453 3394 2887 2945 
Q 3322 2497 3322 1706 
Q 3322 1066 3130 698 
Q 2938 331 2570 128 
Q 2203 -75 1769 -75 
Q 1072 -75 642 372 
Q 213 819 213 1659 
z
M 791 1659 
Q 791 1022 1069 705 
Q 1347 388 1769 388 
Q 2188 388 2466 706 
Q 2744 1025 2744 1678 
Q 2744 2294 2464 2611 
Q 2184 2928 1769 2928 
Q 1347 2928 1069 2612 
Q 791 2297 791 1659 
z
" transform="scale(0.015625)"/>
       </defs>
       <use xlink:href="#ArialMT-63"/>
       <use xlink:href="#ArialMT-75" x="50"/>
       <use xlink:href="#ArialMT-72" x="105.615234"/>
       <use xlink:href="#ArialMT-72" x="138.916016"/>
       <use xlink:href="#ArialMT-65" x="172.216797"/>
       <use xlink:href="#ArialMT-6e" x="227.832031"/>
       <use xlink:href="#ArialMT-74" x="283.447266"/>
       <use xlink:href="#ArialMT-5f" x="311.230469"/>
       <use xlink:href="#ArialMT-69" x="366.845703"/>
       <use xlink:href="#ArialMT-6e" x="389.0625"/>
       <use xlink:href="#ArialMT-6a" x="444.677734"/>
       <use xlink:href="#ArialMT-65" x="466.894531"/>
       <use xlink:href="#ArialMT-63" x="522.509766"/>
       <use xlink:href="#ArialMT-74" x="572.509766"/>
       <use xlink:href="#ArialMT-69" x="600.292969"/>
       <use xlink:href="#ArialMT-6f" x="622.509766"/>
       <use xlink:href="#ArialMT-6e" x="678.125"/>
      </g>
     </g>
    </g>
    <g id="xtick_2">
     <g id="line2d_2">
      <g>
       <use xlink:href="#m29663da4d9" x="139.299363" y="252" style="stroke: #000000; stroke-width: 0.8"/>
      </g>
     </g>
     <g id="text_2">
      <!-- current_injection-FS -->
      <g transform="translate(91.611198 368.467201)rotate(-45)scale(0.16 -0.16)">
       <defs>
        <path id="ArialMT-2d" d="M 203 1375 
L 203 1941 
L 1931 1941 
L 1931 1375 
L 203 1375 
z
" transform="scale(0.015625)"/>
        <path id="ArialMT-46" d="M 525 0 
L 525 4581 
L 3616 4581 
L 3616 4041 
L 1131 4041 
L 1131 2622 
L 3281 2622 
L 3281 2081 
L 1131 2081 
L 1131 0 
L 525 0 
z
" transform="scale(0.015625)"/>
        <path id="ArialMT-53" d="M 288 1472 
L 859 1522 
Q 900 1178 1048 958 
Q 1197 738 1509 602 
Q 1822 466 2213 466 
Q 2559 466 2825 569 
Q 3091 672 3220 851 
Q 3350 1031 3350 1244 
Q 3350 1459 3225 1620 
Q 3100 1781 2813 1891 
Q 2628 1963 1997 2114 
Q 1366 2266 1113 2400 
Q 784 2572 623 2826 
Q 463 3081 463 3397 
Q 463 3744 659 4045 
Q 856 4347 1234 4503 
Q 1613 4659 2075 4659 
Q 2584 4659 2973 4495 
Q 3363 4331 3572 4012 
Q 3781 3694 3797 3291 
L 3216 3247 
Q 3169 3681 2898 3903 
Q 2628 4125 2100 4125 
Q 1550 4125 1298 3923 
Q 1047 3722 1047 3438 
Q 1047 3191 1225 3031 
Q 1400 2872 2139 2705 
Q 2878 2538 3153 2413 
Q 3553 2228 3743 1945 
Q 3934 1663 3934 1294 
Q 3934 928 3725 604 
Q 3516 281 3123 101 
Q 2731 -78 2241 -78 
Q 1619 -78 1198 103 
Q 778 284 539 648 
Q 300 1013 288 1472 
z
" transform="scale(0.015625)"/>
       </defs>
       <use xlink:href="#ArialMT-63"/>
       <use xlink:href="#ArialMT-75" x="50"/>
       <use xlink:href="#ArialMT-72" x="105.615234"/>
       <use xlink:href="#ArialMT-72" x="138.916016"/>
       <use xlink:href="#ArialMT-65" x="172.216797"/>
       <use xlink:href="#ArialMT-6e" x="227.832031"/>
       <use xlink:href="#ArialMT-74" x="283.447266"/>
       <use xlink:href="#ArialMT-5f" x="311.230469"/>
       <use xlink:href="#ArialMT-69" x="366.845703"/>
       <use xlink:href="#ArialMT-6e" x="389.0625"/>
       <use xlink:href="#ArialMT-6a" x="444.677734"/>
       <use xlink:href="#ArialMT-65" x="466.894531"/>
       <use xlink:href="#ArialMT-63" x="522.509766"/>
       <use xlink:href="#ArialMT-74" x="572.509766"/>
       <use xlink:href="#ArialMT-69" x="600.292969"/>
       <use xlink:href="#ArialMT-6f" x="622.509766"/>
       <use xlink:href="#ArialMT-6e" x="678.125"/>
       <use xlink:href="#ArialMT-2d" x="733.740234"/>
       <use xlink:href="#ArialMT-46" x="767.041016"/>
       <use xlink:href="#ArialMT-53" x="828.125"/>
      </g>
     </g>
    </g>
    <g id="xtick_3">
     <g id="line2d_3">
      <g>
       <use xlink:href="#m29663da4d9" x="224.598726" y="252" style="stroke: #000000; stroke-width: 0.8"/>
      </g>
     </g>
     <g id="text_3">
      <!-- current_injection-SPN -->
      <g transform="translate(172.507053 377.274216)rotate(-45)scale(0.16 -0.16)">
       <defs>
        <path id="ArialMT-50" d="M 494 0 
L 494 4581 
L 2222 4581 
Q 2678 4581 2919 4538 
Q 3256 4481 3484 4323 
Q 3713 4166 3852 3881 
Q 3991 3597 3991 3256 
Q 3991 2672 3619 2267 
Q 3247 1863 2275 1863 
L 1100 1863 
L 1100 0 
L 494 0 
z
M 1100 2403 
L 2284 2403 
Q 2872 2403 3119 2622 
Q 3366 2841 3366 3238 
Q 3366 3525 3220 3729 
Q 3075 3934 2838 4000 
Q 2684 4041 2272 4041 
L 1100 4041 
L 1100 2403 
z
" transform="scale(0.015625)"/>
        <path id="ArialMT-4e" d="M 488 0 
L 488 4581 
L 1109 4581 
L 3516 984 
L 3516 4581 
L 4097 4581 
L 4097 0 
L 3475 0 
L 1069 3600 
L 1069 0 
L 488 0 
z
" transform="scale(0.015625)"/>
       </defs>
       <use xlink:href="#ArialMT-63"/>
       <use xlink:href="#ArialMT-75" x="50"/>
       <use xlink:href="#ArialMT-72" x="105.615234"/>
       <use xlink:href="#ArialMT-72" x="138.916016"/>
       <use xlink:href="#ArialMT-65" x="172.216797"/>
       <use xlink:href="#ArialMT-6e" x="227.832031"/>
       <use xlink:href="#ArialMT-74" x="283.447266"/>
       <use xlink:href="#ArialMT-5f" x="311.230469"/>
       <use xlink:href="#ArialMT-69" x="366.845703"/>
       <use xlink:href="#ArialMT-6e" x="389.0625"/>
       <use xlink:href="#ArialMT-6a" x="444.677734"/>
       <use xlink:href="#ArialMT-65" x="466.894531"/>
       <use xlink:href="#ArialMT-63" x="522.509766"/>
       <use xlink:href="#ArialMT-74" x="572.509766"/>
       <use xlink:href="#ArialMT-69" x="600.292969"/>
       <use xlink:href="#ArialMT-6f" x="622.509766"/>
       <use xlink:href="#ArialMT-6e" x="678.125"/>
       <use xlink:href="#ArialMT-2d" x="733.740234"/>
       <use xlink:href="#ArialMT-53" x="767.041016"/>
       <use xlink:href="#ArialMT-50" x="833.740234"/>
       <use xlink:href="#ArialMT-4e" x="900.439453"/>
      </g>
     </g>
    </g>
    <g id="xtick_4">
     <g id="line2d_4">
      <g>
       <use xlink:href="#m29663da4d9" x="309.898089" y="252" style="stroke: #000000; stroke-width: 0.8"/>
      </g>
     </g>
     <g id="text_4">
      <!-- current_injection-all -->
      <g transform="translate(263.709874 365.191529)rotate(-45)scale(0.16 -0.16)">
       <defs>
        <path id="ArialMT-61" d="M 2588 409 
Q 2275 144 1986 34 
Q 1697 -75 1366 -75 
Q 819 -75 525 192 
Q 231 459 231 875 
Q 231 1119 342 1320 
Q 453 1522 633 1644 
Q 813 1766 1038 1828 
Q 1203 1872 1538 1913 
Q 2219 1994 2541 2106 
Q 2544 2222 2544 2253 
Q 2544 2597 2384 2738 
Q 2169 2928 1744 2928 
Q 1347 2928 1158 2789 
Q 969 2650 878 2297 
L 328 2372 
Q 403 2725 575 2942 
Q 747 3159 1072 3276 
Q 1397 3394 1825 3394 
Q 2250 3394 2515 3294 
Q 2781 3194 2906 3042 
Q 3031 2891 3081 2659 
Q 3109 2516 3109 2141 
L 3109 1391 
Q 3109 606 3145 398 
Q 3181 191 3288 0 
L 2700 0 
Q 2613 175 2588 409 
z
M 2541 1666 
Q 2234 1541 1622 1453 
Q 1275 1403 1131 1340 
Q 988 1278 909 1158 
Q 831 1038 831 891 
Q 831 666 1001 516 
Q 1172 366 1500 366 
Q 1825 366 2078 508 
Q 2331 650 2450 897 
Q 2541 1088 2541 1459 
L 2541 1666 
z
" transform="scale(0.015625)"/>
        <path id="ArialMT-6c" d="M 409 0 
L 409 4581 
L 972 4581 
L 972 0 
L 409 0 
z
" transform="scale(0.015625)"/>
       </defs>
       <use xlink:href="#ArialMT-63"/>
       <use xlink:href="#ArialMT-75" x="50"/>
       <use xlink:href="#ArialMT-72" x="105.615234"/>
       <use xlink:href="#ArialMT-72" x="138.916016"/>
       <use xlink:href="#ArialMT-65" x="172.216797"/>
       <use xlink:href="#ArialMT-6e" x="227.832031"/>
       <use xlink:href="#ArialMT-74" x="283.447266"/>
       <use xlink:href="#ArialMT-5f" x="311.230469"/>
       <use xlink:href="#ArialMT-69" x="366.845703"/>
       <use xlink:href="#ArialMT-6e" x="389.0625"/>
       <use xlink:href="#ArialMT-6a" x="444.677734"/>
       <use xlink:href="#ArialMT-65" x="466.894531"/>
       <use xlink:href="#ArialMT-63" x="522.509766"/>
       <use xlink:href="#ArialMT-74" x="572.509766"/>
       <use xlink:href="#ArialMT-69" x="600.292969"/>
       <use xlink:href="#ArialMT-6f" x="622.509766"/>
       <use xlink:href="#ArialMT-6e" x="678.125"/>
       <use xlink:href="#ArialMT-2d" x="733.740234"/>
       <use xlink:href="#ArialMT-61" x="767.041016"/>
       <use xlink:href="#ArialMT-6c" x="822.65625"/>
       <use xlink:href="#ArialMT-6c" x="844.873047"/>
      </g>
     </g>
    </g>
   </g>
   <g id="matplotlib.axis_2">
    <g id="ytick_1">
     <g id="line2d_5">
      <defs>
       <path id="m4e207b3b86" d="M 0 0 
L -3.5 0 
" style="stroke: #000000; stroke-width: 0.8"/>
      </defs>
      <g>
       <use xlink:href="#m4e207b3b86" x="54" y="252" style="stroke: #000000; stroke-width: 0.8"/>
      </g>
     </g>
     <g id="text_5">
      <!-- 0 -->
      <g transform="translate(38.0925 257.318906)scale(0.14 -0.14)">
       <defs>
        <path id="DejaVuSans-30" d="M 2034 4250 
Q 1547 4250 1301 3770 
Q 1056 3291 1056 2328 
Q 1056 1369 1301 889 
Q 1547 409 2034 409 
Q 2525 409 2770 889 
Q 3016 1369 3016 2328 
Q 3016 3291 2770 3770 
Q 2525 4250 2034 4250 
z
M 2034 4750 
Q 2819 4750 3233 4129 
Q 3647 3509 3647 2328 
Q 3647 1150 3233 529 
Q 2819 -91 2034 -91 
Q 1250 -91 836 529 
Q 422 1150 422 2328 
Q 422 3509 836 4129 
Q 1250 4750 2034 4750 
z
" transform="scale(0.015625)"/>
       </defs>
       <use xlink:href="#DejaVuSans-30"/>
      </g>
     </g>
    </g>
    <g id="ytick_2">
     <g id="line2d_6">
      <g>
       <use xlink:href="#m4e207b3b86" x="54" y="227.84" style="stroke: #000000; stroke-width: 0.8"/>
      </g>
     </g>
     <g id="text_6">
      <!-- 5 -->
      <g transform="translate(38.0925 233.158906)scale(0.14 -0.14)">
       <defs>
        <path id="DejaVuSans-35" d="M 691 4666 
L 3169 4666 
L 3169 4134 
L 1269 4134 
L 1269 2991 
Q 1406 3038 1543 3061 
Q 1681 3084 1819 3084 
Q 2600 3084 3056 2656 
Q 3513 2228 3513 1497 
Q 3513 744 3044 326 
Q 2575 -91 1722 -91 
Q 1428 -91 1123 -41 
Q 819 9 494 109 
L 494 744 
Q 775 591 1075 516 
Q 1375 441 1709 441 
Q 2250 441 2565 725 
Q 2881 1009 2881 1497 
Q 2881 1984 2565 2268 
Q 2250 2553 1709 2553 
Q 1456 2553 1204 2497 
Q 953 2441 691 2322 
L 691 4666 
z
" transform="scale(0.015625)"/>
       </defs>
       <use xlink:href="#DejaVuSans-35"/>
      </g>
     </g>
    </g>
    <g id="ytick_3">
     <g id="line2d_7">
      <g>
       <use xlink:href="#m4e207b3b86" x="54" y="203.68" style="stroke: #000000; stroke-width: 0.8"/>
      </g>
     </g>
     <g id="text_7">
      <!-- 10 -->
      <g transform="translate(29.185 208.998906)scale(0.14 -0.14)">
       <defs>
        <path id="DejaVuSans-31" d="M 794 531 
L 1825 531 
L 1825 4091 
L 703 3866 
L 703 4441 
L 1819 4666 
L 2450 4666 
L 2450 531 
L 3481 531 
L 3481 0 
L 794 0 
L 794 531 
z
" transform="scale(0.015625)"/>
       </defs>
       <use xlink:href="#DejaVuSans-31"/>
       <use xlink:href="#DejaVuSans-30" x="63.623047"/>
      </g>
     </g>
    </g>
    <g id="ytick_4">
     <g id="line2d_8">
      <g>
       <use xlink:href="#m4e207b3b86" x="54" y="179.52" style="stroke: #000000; stroke-width: 0.8"/>
      </g>
     </g>
     <g id="text_8">
      <!-- 15 -->
      <g transform="translate(29.185 184.838906)scale(0.14 -0.14)">
       <use xlink:href="#DejaVuSans-31"/>
       <use xlink:href="#DejaVuSans-35" x="63.623047"/>
      </g>
     </g>
    </g>
    <g id="ytick_5">
     <g id="line2d_9">
      <g>
       <use xlink:href="#m4e207b3b86" x="54" y="155.36" style="stroke: #000000; stroke-width: 0.8"/>
      </g>
     </g>
     <g id="text_9">
      <!-- 20 -->
      <g transform="translate(29.185 160.678906)scale(0.14 -0.14)">
       <defs>
        <path id="DejaVuSans-32" d="M 1228 531 
L 3431 531 
L 3431 0 
L 469 0 
L 469 531 
Q 828 903 1448 1529 
Q 2069 2156 2228 2338 
Q 2531 2678 2651 2914 
Q 2772 3150 2772 3378 
Q 2772 3750 2511 3984 
Q 2250 4219 1831 4219 
Q 1534 4219 1204 4116 
Q 875 4013 500 3803 
L 500 4441 
Q 881 4594 1212 4672 
Q 1544 4750 1819 4750 
Q 2544 4750 2975 4387 
Q 3406 4025 3406 3419 
Q 3406 3131 3298 2873 
Q 3191 2616 2906 2266 
Q 2828 2175 2409 1742 
Q 1991 1309 1228 531 
z
" transform="scale(0.015625)"/>
       </defs>
       <use xlink:href="#DejaVuSans-32"/>
       <use xlink:href="#DejaVuSans-30" x="63.623047"/>
      </g>
     </g>
    </g>
    <g id="ytick_6">
     <g id="line2d_10">
      <g>
       <use xlink:href="#m4e207b3b86" x="54" y="131.2" style="stroke: #000000; stroke-width: 0.8"/>
      </g>
     </g>
     <g id="text_10">
      <!-- 25 -->
      <g transform="translate(29.185 136.518906)scale(0.14 -0.14)">
       <use xlink:href="#DejaVuSans-32"/>
       <use xlink:href="#DejaVuSans-35" x="63.623047"/>
      </g>
     </g>
    </g>
    <g id="ytick_7">
     <g id="line2d_11">
      <g>
       <use xlink:href="#m4e207b3b86" x="54" y="107.04" style="stroke: #000000; stroke-width: 0.8"/>
      </g>
     </g>
     <g id="text_11">
      <!-- 30 -->
      <g transform="translate(29.185 112.358906)scale(0.14 -0.14)">
       <defs>
        <path id="DejaVuSans-33" d="M 2597 2516 
Q 3050 2419 3304 2112 
Q 3559 1806 3559 1356 
Q 3559 666 3084 287 
Q 2609 -91 1734 -91 
Q 1441 -91 1130 -33 
Q 819 25 488 141 
L 488 750 
Q 750 597 1062 519 
Q 1375 441 1716 441 
Q 2309 441 2620 675 
Q 2931 909 2931 1356 
Q 2931 1769 2642 2001 
Q 2353 2234 1838 2234 
L 1294 2234 
L 1294 2753 
L 1863 2753 
Q 2328 2753 2575 2939 
Q 2822 3125 2822 3475 
Q 2822 3834 2567 4026 
Q 2313 4219 1838 4219 
Q 1578 4219 1281 4162 
Q 984 4106 628 3988 
L 628 4550 
Q 988 4650 1302 4700 
Q 1616 4750 1894 4750 
Q 2613 4750 3031 4423 
Q 3450 4097 3450 3541 
Q 3450 3153 3228 2886 
Q 3006 2619 2597 2516 
z
" transform="scale(0.015625)"/>
       </defs>
       <use xlink:href="#DejaVuSans-33"/>
       <use xlink:href="#DejaVuSans-30" x="63.623047"/>
      </g>
     </g>
    </g>
    <g id="ytick_8">
     <g id="line2d_12">
      <g>
       <use xlink:href="#m4e207b3b86" x="54" y="82.88" style="stroke: #000000; stroke-width: 0.8"/>
      </g>
     </g>
     <g id="text_12">
      <!-- 35 -->
      <g transform="translate(29.185 88.198906)scale(0.14 -0.14)">
       <use xlink:href="#DejaVuSans-33"/>
       <use xlink:href="#DejaVuSans-35" x="63.623047"/>
      </g>
     </g>
    </g>
    <g id="ytick_9">
     <g id="line2d_13">
      <g>
       <use xlink:href="#m4e207b3b86" x="54" y="58.72" style="stroke: #000000; stroke-width: 0.8"/>
      </g>
     </g>
     <g id="text_13">
      <!-- 40 -->
      <g transform="translate(29.185 64.038906)scale(0.14 -0.14)">
       <defs>
        <path id="DejaVuSans-34" d="M 2419 4116 
L 825 1625 
L 2419 1625 
L 2419 4116 
z
M 2253 4666 
L 3047 4666 
L 3047 1625 
L 3713 1625 
L 3713 1100 
L 3047 1100 
L 3047 0 
L 2419 0 
L 2419 1100 
L 313 1100 
L 313 1709 
L 2253 4666 
z
" transform="scale(0.015625)"/>
       </defs>
       <use xlink:href="#DejaVuSans-34"/>
       <use xlink:href="#DejaVuSans-30" x="63.623047"/>
      </g>
     </g>
    </g>
    <g id="ytick_10">
     <g id="line2d_14">
      <g>
       <use xlink:href="#m4e207b3b86" x="54" y="34.56" style="stroke: #000000; stroke-width: 0.8"/>
      </g>
     </g>
     <g id="text_14">
      <!-- 45 -->
      <g transform="translate(29.185 39.878906)scale(0.14 -0.14)">
       <use xlink:href="#DejaVuSans-34"/>
       <use xlink:href="#DejaVuSans-35" x="63.623047"/>
      </g>
     </g>
    </g>
    <g id="text_15">
     <!-- Frequency (Hz) -->
     <g transform="translate(21.8175 198.40125)rotate(-90)scale(0.16 -0.16)">
      <defs>
       <path id="ArialMT-71" d="M 2538 -1272 
L 2538 353 
Q 2406 169 2170 47 
Q 1934 -75 1669 -75 
Q 1078 -75 651 397 
Q 225 869 225 1691 
Q 225 2191 398 2587 
Q 572 2984 901 3189 
Q 1231 3394 1625 3394 
Q 2241 3394 2594 2875 
L 2594 3319 
L 3100 3319 
L 3100 -1272 
L 2538 -1272 
z
M 803 1669 
Q 803 1028 1072 708 
Q 1341 388 1716 388 
Q 2075 388 2334 692 
Q 2594 997 2594 1619 
Q 2594 2281 2320 2615 
Q 2047 2950 1678 2950 
Q 1313 2950 1058 2639 
Q 803 2328 803 1669 
z
" transform="scale(0.015625)"/>
       <path id="ArialMT-79" d="M 397 -1278 
L 334 -750 
Q 519 -800 656 -800 
Q 844 -800 956 -737 
Q 1069 -675 1141 -563 
Q 1194 -478 1313 -144 
Q 1328 -97 1363 -6 
L 103 3319 
L 709 3319 
L 1400 1397 
Q 1534 1031 1641 628 
Q 1738 1016 1872 1384 
L 2581 3319 
L 3144 3319 
L 1881 -56 
Q 1678 -603 1566 -809 
Q 1416 -1088 1222 -1217 
Q 1028 -1347 759 -1347 
Q 597 -1347 397 -1278 
z
" transform="scale(0.015625)"/>
       <path id="ArialMT-20" transform="scale(0.015625)"/>
       <path id="ArialMT-28" d="M 1497 -1347 
Q 1031 -759 709 28 
Q 388 816 388 1659 
Q 388 2403 628 3084 
Q 909 3875 1497 4659 
L 1900 4659 
Q 1522 4009 1400 3731 
Q 1209 3300 1100 2831 
Q 966 2247 966 1656 
Q 966 153 1900 -1347 
L 1497 -1347 
z
" transform="scale(0.015625)"/>
       <path id="ArialMT-48" d="M 513 0 
L 513 4581 
L 1119 4581 
L 1119 2700 
L 3500 2700 
L 3500 4581 
L 4106 4581 
L 4106 0 
L 3500 0 
L 3500 2159 
L 1119 2159 
L 1119 0 
L 513 0 
z
" transform="scale(0.015625)"/>
       <path id="ArialMT-7a" d="M 125 0 
L 125 456 
L 2238 2881 
Q 1878 2863 1603 2863 
L 250 2863 
L 250 3319 
L 2963 3319 
L 2963 2947 
L 1166 841 
L 819 456 
Q 1197 484 1528 484 
L 3063 484 
L 3063 0 
L 125 0 
z
" transform="scale(0.015625)"/>
       <path id="ArialMT-29" d="M 791 -1347 
L 388 -1347 
Q 1322 153 1322 1656 
Q 1322 2244 1188 2822 
Q 1081 3291 891 3722 
Q 769 4003 388 4659 
L 791 4659 
Q 1378 3875 1659 3084 
Q 1900 2403 1900 1659 
Q 1900 816 1576 28 
Q 1253 -759 791 -1347 
z
" transform="scale(0.015625)"/>
      </defs>
      <use xlink:href="#ArialMT-46"/>
      <use xlink:href="#ArialMT-72" x="61.083984"/>
      <use xlink:href="#ArialMT-65" x="94.384766"/>
      <use xlink:href="#ArialMT-71" x="150"/>
      <use xlink:href="#ArialMT-75" x="205.615234"/>
      <use xlink:href="#ArialMT-65" x="261.230469"/>
      <use xlink:href="#ArialMT-6e" x="316.845703"/>
      <use xlink:href="#ArialMT-63" x="372.460938"/>
      <use xlink:href="#ArialMT-79" x="422.460938"/>
      <use xlink:href="#ArialMT-20" x="472.460938"/>
      <use xlink:href="#ArialMT-28" x="500.244141"/>
      <use xlink:href="#ArialMT-48" x="533.544922"/>
      <use xlink:href="#ArialMT-7a" x="605.761719"/>
      <use xlink:href="#ArialMT-29" x="655.761719"/>
     </g>
    </g>
   </g>
   <g id="LineCollection_1">
    <path d="M 85.987261 161.52574 
L 107.312102 161.52574 
" clip-path="url(#p8813a41dec)" style="fill: none; stroke: #000000; stroke-width: 1.6"/>
    <path d="M 171.286624 157.871303 
L 192.611465 157.871303 
" clip-path="url(#p8813a41dec)" style="fill: none; stroke: #000000; stroke-width: 1.6"/>
    <path d="M 256.585987 134.973191 
L 277.910828 134.973191 
" clip-path="url(#p8813a41dec)" style="fill: none; stroke: #000000; stroke-width: 1.6"/>
    <path d="M 341.88535 131.636347 
L 363.210191 131.636347 
" clip-path="url(#p8813a41dec)" style="fill: none; stroke: #000000; stroke-width: 1.6"/>
   </g>
   <g id="LineCollection_2">
    <path d="M 85.987261 51.472 
L 107.312102 51.472 
" clip-path="url(#p8813a41dec)" style="fill: none; stroke: #000000; stroke-width: 1.6"/>
    <path d="M 171.286624 51.472 
L 192.611465 51.472 
" clip-path="url(#p8813a41dec)" style="fill: none; stroke: #000000; stroke-width: 1.6"/>
    <path d="M 256.585987 53.888 
L 277.910828 53.888 
" clip-path="url(#p8813a41dec)" style="fill: none; stroke: #000000; stroke-width: 1.6"/>
    <path d="M 341.88535 53.888 
L 363.210191 53.888 
" clip-path="url(#p8813a41dec)" style="fill: none; stroke: #000000; stroke-width: 1.6"/>
   </g>
   <g id="LineCollection_3">
    <path d="M 85.987261 252 
L 107.312102 252 
" clip-path="url(#p8813a41dec)" style="fill: none; stroke: #000000; stroke-width: 1.6"/>
    <path d="M 171.286624 252 
L 192.611465 252 
" clip-path="url(#p8813a41dec)" style="fill: none; stroke: #000000; stroke-width: 1.6"/>
    <path d="M 256.585987 252 
L 277.910828 252 
" clip-path="url(#p8813a41dec)" style="fill: none; stroke: #000000; stroke-width: 1.6"/>
    <path d="M 341.88535 252 
L 363.210191 252 
" clip-path="url(#p8813a41dec)" style="fill: none; stroke: #000000; stroke-width: 1.6"/>
   </g>
   <g id="LineCollection_4">
    <path d="M 96.649682 252 
L 96.649682 51.472 
" clip-path="url(#p8813a41dec)" style="fill: none; stroke: #000000; stroke-width: 1.6"/>
    <path d="M 181.949045 252 
L 181.949045 51.472 
" clip-path="url(#p8813a41dec)" style="fill: none; stroke: #000000; stroke-width: 1.6"/>
    <path d="M 267.248408 252 
L 267.248408 53.888 
" clip-path="url(#p8813a41dec)" style="fill: none; stroke: #000000; stroke-width: 1.6"/>
    <path d="M 352.547771 252 
L 352.547771 53.888 
" clip-path="url(#p8813a41dec)" style="fill: none; stroke: #000000; stroke-width: 1.6"/>
   </g>
   <g id="patch_3">
    <path d="M 54 252 
L 54 34.56 
" style="fill: none; stroke: #000000; stroke-width: 0.8; stroke-linejoin: miter; stroke-linecap: square"/>
   </g>
   <g id="patch_4">
    <path d="M 388.8 252 
L 388.8 34.56 
" style="fill: none; stroke: #000000; stroke-width: 0.8; stroke-linejoin: miter; stroke-linecap: square"/>
   </g>
   <g id="patch_5">
    <path d="M 54 252 
L 388.8 252 
" style="fill: none; stroke: #000000; stroke-width: 0.8; stroke-linejoin: miter; stroke-linecap: square"/>
   </g>
   <g id="patch_6">
    <path d="M 54 34.56 
L 388.8 34.56 
" style="fill: none; stroke: #000000; stroke-width: 0.8; stroke-linejoin: miter; stroke-linecap: square"/>
   </g>
  </g>
 </g>
 <defs>
  <clipPath id="p8813a41dec">
   <rect x="54" y="34.56" width="334.8" height="217.44"/>
  </clipPath>
 </defs>
</svg>
