<?xml version="1.0" encoding="utf-8" standalone="no"?>
<!DOCTYPE svg PUBLIC "-//W3C//DTD SVG 1.1//EN"
  "http://www.w3.org/Graphics/SVG/1.1/DTD/svg11.dtd">
<svg xmlns:xlink="http://www.w3.org/1999/xlink" width="432pt" height="288pt" viewBox="0 0 432 288" xmlns="http://www.w3.org/2000/svg" version="1.1">
 <metadata>
  <rdf:RDF xmlns:dc="http://purl.org/dc/elements/1.1/" xmlns:cc="http://creativecommons.org/ns#" xmlns:rdf="http://www.w3.org/1999/02/22-rdf-syntax-ns#">
   <cc:Work>
    <dc:type rdf:resource="http://purl.org/dc/dcmitype/StillImage"/>
    <dc:date>2022-10-30T20:13:12.128862</dc:date>
    <dc:format>image/svg+xml</dc:format>
    <dc:creator>
     <cc:Agent>
      <dc:title>Matplotlib v3.5.2, https://matplotlib.org/</dc:title>
     </cc:Agent>
    </dc:creator>
   </cc:Work>
  </rdf:RDF>
 </metadata>
 <defs>
  <style type="text/css">*{stroke-linejoin: round; stroke-linecap: butt}</style>
 </defs>
 <g id="figure_1">
  <g id="patch_1">
   <path d="M 0 288 
L 432 288 
L 432 0 
L 0 0 
L 0 288 
z
" style="fill: none"/>
  </g>
  <g id="axes_1">
   <g id="patch_2">
    <path d="M 54 252 
L 388.8 252 
L 388.8 34.56 
L 54 34.56 
z
" style="fill: #ffffff"/>
   </g>
   <g id="PolyCollection_1">
    <defs>
     <path id="m89e32364e5" d="M 104.764986 -36 
L 88.534377 -36 
L 88.305466 -37.976727 
L 88.398497 -39.953455 
L 88.726101 -41.930182 
L 89.16349 -43.906909 
L 89.581044 -45.883636 
L 89.873903 -47.860364 
L 89.980272 -49.837091 
L 89.885571 -51.813818 
L 89.614799 -53.790545 
L 89.218276 -55.767273 
L 88.756112 -57.744 
L 88.285174 -59.720727 
L 87.850445 -61.697455 
L 87.481081 -63.674182 
L 87.190529 -65.650909 
L 86.979431 -67.627636 
L 86.839813 -69.604364 
L 86.759139 -71.581091 
L 86.72331 -73.557818 
L 86.718404 -75.534545 
L 86.73154 -77.511273 
L 86.751419 -79.488 
L 86.768882 -81.464727 
L 86.777429 -83.441455 
L 86.773414 -85.418182 
L 86.755703 -87.394909 
L 86.724914 -89.371636 
L 86.682662 -91.348364 
L 86.631199 -93.325091 
L 86.57362 -95.301818 
L 86.514348 -97.278545 
L 86.459364 -99.255273 
L 86.415673 -101.232 
L 86.389849 -103.208727 
L 86.385951 -105.185455 
L 86.403509 -107.162182 
L 86.436335 -109.138909 
L 86.472714 -111.115636 
L 86.49701 -113.092364 
L 86.492229 -115.069091 
L 86.442773 -117.045818 
L 86.336616 -119.022545 
L 86.166459 -120.999273 
L 85.929851 -122.976 
L 85.628562 -124.952727 
L 85.267579 -126.929455 
L 84.854005 -128.906182 
L 84.396025 -130.882909 
L 83.902024 -132.859636 
L 83.37999 -134.836364 
L 82.837305 -136.813091 
L 82.280951 -138.789818 
L 81.717949 -140.766545 
L 81.155732 -142.743273 
L 80.602047 -144.72 
L 80.064193 -146.696727 
L 79.547678 -148.673455 
L 79.05476 -150.650182 
L 78.583621 -152.626909 
L 78.128848 -154.603636 
L 77.683559 -156.580364 
L 77.242842 -158.557091 
L 76.807551 -160.533818 
L 76.387182 -162.510545 
L 76.00068 -164.487273 
L 75.674713 -166.464 
L 75.439724 -168.440727 
L 75.324841 -170.417455 
L 75.352975 -172.394182 
L 75.537291 -174.370909 
L 75.879724 -176.347636 
L 76.371626 -178.324364 
L 76.996096 -180.301091 
L 77.731286 -182.277818 
L 78.553865 -184.254545 
L 79.441954 -186.231273 
L 80.377105 -188.208 
L 81.345134 -190.184727 
L 82.335929 -192.161455 
L 83.34242 -194.138182 
L 84.359028 -196.114909 
L 85.379875 -198.091636 
L 86.397122 -200.068364 
L 87.399835 -202.045091 
L 88.373789 -204.021818 
L 89.30247 -205.998545 
L 90.169199 -207.975273 
L 90.959938 -209.952 
L 91.665999 -211.928727 
L 92.285833 -213.905455 
L 92.825313 -215.882182 
L 93.296348 -217.858909 
L 93.714194 -219.835636 
L 94.094153 -221.812364 
L 94.448541 -223.789091 
L 94.784629 -225.765818 
L 95.104018 -227.742545 
L 95.403457 -229.719273 
L 95.676767 -231.696 
L 97.622596 -231.696 
L 97.622596 -231.696 
L 97.895906 -229.719273 
L 98.195346 -227.742545 
L 98.514734 -225.765818 
L 98.850822 -223.789091 
L 99.20521 -221.812364 
L 99.585169 -219.835636 
L 100.003015 -217.858909 
L 100.474051 -215.882182 
L 101.01353 -213.905455 
L 101.633364 -211.928727 
L 102.339425 -209.952 
L 103.130164 -207.975273 
L 103.996893 -205.998545 
L 104.925574 -204.021818 
L 105.899528 -202.045091 
L 106.902241 -200.068364 
L 107.919488 -198.091636 
L 108.940335 -196.114909 
L 109.956943 -194.138182 
L 110.963435 -192.161455 
L 111.954229 -190.184727 
L 112.922258 -188.208 
L 113.857409 -186.231273 
L 114.745498 -184.254545 
L 115.568077 -182.277818 
L 116.303267 -180.301091 
L 116.927737 -178.324364 
L 117.419639 -176.347636 
L 117.762072 -174.370909 
L 117.946388 -172.394182 
L 117.974522 -170.417455 
L 117.859639 -168.440727 
L 117.62465 -166.464 
L 117.298683 -164.487273 
L 116.912181 -162.510545 
L 116.491812 -160.533818 
L 116.056521 -158.557091 
L 115.615804 -156.580364 
L 115.170515 -154.603636 
L 114.715742 -152.626909 
L 114.244603 -150.650182 
L 113.751686 -148.673455 
L 113.23517 -146.696727 
L 112.697316 -144.72 
L 112.143631 -142.743273 
L 111.581414 -140.766545 
L 111.018413 -138.789818 
L 110.462058 -136.813091 
L 109.919374 -134.836364 
L 109.397339 -132.859636 
L 108.903338 -130.882909 
L 108.445358 -128.906182 
L 108.031784 -126.929455 
L 107.670801 -124.952727 
L 107.369512 -122.976 
L 107.132904 -120.999273 
L 106.962747 -119.022545 
L 106.85659 -117.045818 
L 106.807134 -115.069091 
L 106.802353 -113.092364 
L 106.826649 -111.115636 
L 106.863028 -109.138909 
L 106.895854 -107.162182 
L 106.913412 -105.185455 
L 106.909514 -103.208727 
L 106.88369 -101.232 
L 106.839999 -99.255273 
L 106.785015 -97.278545 
L 106.725743 -95.301818 
L 106.668164 -93.325091 
L 106.616701 -91.348364 
L 106.574449 -89.371636 
L 106.54366 -87.394909 
L 106.525949 -85.418182 
L 106.521934 -83.441455 
L 106.530481 -81.464727 
L 106.547944 -79.488 
L 106.567823 -77.511273 
L 106.580959 -75.534545 
L 106.576054 -73.557818 
L 106.540224 -71.581091 
L 106.45955 -69.604364 
L 106.319933 -67.627636 
L 106.108834 -65.650909 
L 105.818282 -63.674182 
L 105.448919 -61.697455 
L 105.014189 -59.720727 
L 104.543251 -57.744 
L 104.081087 -55.767273 
L 103.684564 -53.790545 
L 103.413792 -51.813818 
L 103.319091 -49.837091 
L 103.42546 -47.860364 
L 103.718319 -45.883636 
L 104.135873 -43.906909 
L 104.573262 -41.930182 
L 104.900866 -39.953455 
L 104.993897 -37.976727 
L 104.764986 -36 
z
" style="stroke: #000000; stroke-opacity: 0.8"/>
    </defs>
    <g clip-path="url(#p4569dac799)">
     <use xlink:href="#m89e32364e5" x="0" y="288" style="fill: #add8e6; fill-opacity: 0.8; stroke: #000000; stroke-opacity: 0.8"/>
    </g>
   </g>
   <g id="PolyCollection_2">
    <defs>
     <path id="m3fece5fa9b" d="M 187.648649 -36 
L 176.249441 -36 
L 176.120767 -37.976727 
L 176.223366 -39.953455 
L 176.486601 -41.930182 
L 176.810899 -43.906909 
L 177.092786 -45.883636 
L 177.248163 -47.860364 
L 177.227368 -49.837091 
L 177.019558 -51.813818 
L 176.647813 -53.790545 
L 176.158575 -55.767273 
L 175.609322 -57.744 
L 175.057343 -59.720727 
L 174.551189 -61.697455 
L 174.125349 -63.674182 
L 173.798122 -65.650909 
L 173.572302 -67.627636 
L 173.43805 -69.604364 
L 173.377083 -71.581091 
L 173.367213 -73.557818 
L 173.38636 -75.534545 
L 173.415441 -77.511273 
L 173.439928 -79.488 
L 173.450187 -81.464727 
L 173.440939 -83.441455 
L 173.410238 -85.418182 
L 173.358297 -87.394909 
L 173.28643 -89.371636 
L 173.196271 -91.348364 
L 173.089395 -93.325091 
L 172.96738 -95.301818 
L 172.832301 -97.278545 
L 172.68754 -99.255273 
L 172.538634 -101.232 
L 172.393846 -103.208727 
L 172.264051 -105.185455 
L 172.161674 -107.162182 
L 172.098662 -109.138909 
L 172.083843 -111.115636 
L 172.120355 -113.092364 
L 172.203948 -115.069091 
L 172.322771 -117.045818 
L 172.458755 -119.022545 
L 172.590103 -120.999273 
L 172.694066 -122.976 
L 172.749158 -124.952727 
L 172.736419 -126.929455 
L 172.639898 -128.906182 
L 172.446942 -130.882909 
L 172.148842 -132.859636 
L 171.742054 -134.836364 
L 171.229673 -136.813091 
L 170.622497 -138.789818 
L 169.939067 -140.766545 
L 169.204395 -142.743273 
L 168.447553 -144.72 
L 167.698568 -146.696727 
L 166.985083 -148.673455 
L 166.329113 -150.650182 
L 165.744145 -152.626909 
L 165.232986 -154.603636 
L 164.786969 -156.580364 
L 164.387269 -158.557091 
L 164.008681 -160.533818 
L 163.625504 -162.510545 
L 163.218219 -164.487273 
L 162.779152 -166.464 
L 162.315431 -168.440727 
L 161.848401 -170.417455 
L 161.409882 -172.394182 
L 161.036595 -174.370909 
L 160.764473 -176.347636 
L 160.624204 -178.324364 
L 160.638551 -180.301091 
L 160.821223 -182.277818 
L 161.176704 -184.254545 
L 161.700552 -186.231273 
L 162.380095 -188.208 
L 163.195783 -190.184727 
L 164.123475 -192.161455 
L 165.13761 -194.138182 
L 166.214659 -196.114909 
L 167.335862 -198.091636 
L 168.488173 -200.068364 
L 169.662803 -202.045091 
L 170.851607 -204.021818 
L 172.042542 -205.998545 
L 173.216086 -207.975273 
L 174.344425 -209.952 
L 175.394386 -211.928727 
L 176.333635 -213.905455 
L 177.138295 -215.882182 
L 177.799406 -217.858909 
L 178.325854 -219.835636 
L 178.742571 -221.812364 
L 179.084425 -223.789091 
L 179.387677 -225.765818 
L 179.681668 -227.742545 
L 179.983188 -229.719273 
L 180.294927 -231.696 
L 183.603162 -231.696 
L 183.603162 -231.696 
L 183.914901 -229.719273 
L 184.216421 -227.742545 
L 184.510412 -225.765818 
L 184.813664 -223.789091 
L 185.155518 -221.812364 
L 185.572235 -219.835636 
L 186.098683 -217.858909 
L 186.759794 -215.882182 
L 187.564454 -213.905455 
L 188.503703 -211.928727 
L 189.553665 -209.952 
L 190.682003 -207.975273 
L 191.855547 -205.998545 
L 193.046483 -204.021818 
L 194.235286 -202.045091 
L 195.409917 -200.068364 
L 196.562228 -198.091636 
L 197.68343 -196.114909 
L 198.760479 -194.138182 
L 199.774614 -192.161455 
L 200.702306 -190.184727 
L 201.517994 -188.208 
L 202.197537 -186.231273 
L 202.721385 -184.254545 
L 203.076866 -182.277818 
L 203.259538 -180.301091 
L 203.273885 -178.324364 
L 203.133617 -176.347636 
L 202.861494 -174.370909 
L 202.488207 -172.394182 
L 202.049688 -170.417455 
L 201.582658 -168.440727 
L 201.118937 -166.464 
L 200.67987 -164.487273 
L 200.272585 -162.510545 
L 199.889408 -160.533818 
L 199.510821 -158.557091 
L 199.11112 -156.580364 
L 198.665103 -154.603636 
L 198.153944 -152.626909 
L 197.568976 -150.650182 
L 196.913006 -148.673455 
L 196.199521 -146.696727 
L 195.450537 -144.72 
L 194.693694 -142.743273 
L 193.959022 -140.766545 
L 193.275592 -138.789818 
L 192.668416 -136.813091 
L 192.156035 -134.836364 
L 191.749247 -132.859636 
L 191.451147 -130.882909 
L 191.258191 -128.906182 
L 191.16167 -126.929455 
L 191.148931 -124.952727 
L 191.204023 -122.976 
L 191.307987 -120.999273 
L 191.439335 -119.022545 
L 191.575318 -117.045818 
L 191.694142 -115.069091 
L 191.777734 -113.092364 
L 191.814246 -111.115636 
L 191.799427 -109.138909 
L 191.736415 -107.162182 
L 191.634038 -105.185455 
L 191.504243 -103.208727 
L 191.359455 -101.232 
L 191.210549 -99.255273 
L 191.065788 -97.278545 
L 190.93071 -95.301818 
L 190.808694 -93.325091 
L 190.701818 -91.348364 
L 190.61166 -89.371636 
L 190.539792 -87.394909 
L 190.487851 -85.418182 
L 190.45715 -83.441455 
L 190.447902 -81.464727 
L 190.458161 -79.488 
L 190.482648 -77.511273 
L 190.511729 -75.534545 
L 190.530876 -73.557818 
L 190.521006 -71.581091 
L 190.460039 -69.604364 
L 190.325787 -67.627636 
L 190.099967 -65.650909 
L 189.77274 -63.674182 
L 189.3469 -61.697455 
L 188.840746 -59.720727 
L 188.288767 -57.744 
L 187.739514 -55.767273 
L 187.250276 -53.790545 
L 186.878531 -51.813818 
L 186.670722 -49.837091 
L 186.649926 -47.860364 
L 186.805303 -45.883636 
L 187.08719 -43.906909 
L 187.411488 -41.930182 
L 187.674724 -39.953455 
L 187.777322 -37.976727 
L 187.648649 -36 
z
" style="stroke: #000000; stroke-opacity: 0.8"/>
    </defs>
    <g clip-path="url(#p4569dac799)">
     <use xlink:href="#m3fece5fa9b" x="0" y="288" style="fill: #008000; fill-opacity: 0.8; stroke: #000000; stroke-opacity: 0.8"/>
    </g>
   </g>
   <g id="PolyCollection_3">
    <defs>
     <path id="m3142e68993" d="M 267.364419 -48.08 
L 267.132396 -48.08 
L 267.104245 -49.934707 
L 267.068545 -51.789414 
L 267.019084 -53.644121 
L 266.946312 -55.498828 
L 266.837484 -57.353535 
L 266.677822 -59.208242 
L 266.452942 -61.062949 
L 266.152408 -62.917657 
L 265.773726 -64.772364 
L 265.325489 -66.627071 
L 264.828203 -68.481778 
L 264.3118 -70.336485 
L 263.809921 -72.191192 
L 263.352457 -74.045899 
L 262.958746 -75.900606 
L 262.633768 -77.755313 
L 262.368601 -79.61002 
L 262.144717 -81.464727 
L 261.940269 -83.319434 
L 261.735987 -85.174141 
L 261.518886 -87.028848 
L 261.283175 -88.883556 
L 261.029005 -90.738263 
L 260.760338 -92.59297 
L 260.483222 -94.447677 
L 260.205112 -96.302384 
L 259.935139 -98.157091 
L 259.684518 -100.011798 
L 259.466008 -101.866505 
L 259.291726 -103.721212 
L 259.169569 -105.575919 
L 259.099666 -107.430626 
L 259.072914 -109.285333 
L 259.073125 -111.14004 
L 259.082638 -112.994747 
L 259.089386 -114.849455 
L 259.09237 -116.704162 
L 259.103067 -118.558869 
L 259.142163 -120.413576 
L 259.233023 -122.268283 
L 259.394482 -124.12299 
L 259.635394 -125.977697 
L 259.952323 -127.832404 
L 260.330498 -129.687111 
L 260.747268 -131.541818 
L 261.176733 -133.396525 
L 261.594037 -135.251232 
L 261.977907 -137.105939 
L 262.310704 -138.960646 
L 262.576375 -140.815354 
L 262.757867 -142.670061 
L 262.836064 -144.524768 
L 262.791712 -146.379475 
L 262.610281 -148.234182 
L 262.288154 -150.088889 
L 261.837646 -151.943596 
L 261.288526 -153.798303 
L 260.684836 -155.65301 
L 260.07734 -157.507717 
L 259.51339 -159.362424 
L 259.0269 -161.217131 
L 258.631065 -163.071838 
L 258.315457 -164.926545 
L 258.047749 -166.781253 
L 257.779212 -168.63596 
L 257.452895 -170.490667 
L 257.013668 -172.345374 
L 256.419204 -174.200081 
L 255.65004 -176.054788 
L 254.715623 -177.909495 
L 253.653184 -179.764202 
L 252.518484 -181.618909 
L 251.371321 -183.473616 
L 250.261942 -185.328323 
L 249.224654 -187.18303 
L 248.281233 -189.037737 
L 247.451123 -190.892444 
L 246.761409 -192.747152 
L 246.249866 -194.601859 
L 245.95884 -196.456566 
L 245.923567 -198.311273 
L 246.161829 -200.16598 
L 246.670704 -202.020687 
L 247.43144 -203.875394 
L 248.418484 -205.730101 
L 249.60655 -207.584808 
L 250.971516 -209.439515 
L 252.485402 -211.294222 
L 254.109619 -213.148929 
L 255.791783 -215.003636 
L 257.469119 -216.858343 
L 259.077597 -218.713051 
L 260.56279 -220.567758 
L 261.887836 -222.422465 
L 263.035763 -224.277172 
L 264.006387 -226.131879 
L 264.810271 -227.986586 
L 265.462827 -229.841293 
L 265.980564 -231.696 
L 268.516251 -231.696 
L 268.516251 -231.696 
L 269.033989 -229.841293 
L 269.686545 -227.986586 
L 270.490428 -226.131879 
L 271.461052 -224.277172 
L 272.60898 -222.422465 
L 273.934025 -220.567758 
L 275.419218 -218.713051 
L 277.027696 -216.858343 
L 278.705032 -215.003636 
L 280.387196 -213.148929 
L 282.011413 -211.294222 
L 283.525299 -209.439515 
L 284.890265 -207.584808 
L 286.078331 -205.730101 
L 287.065376 -203.875394 
L 287.826111 -202.020687 
L 288.334986 -200.16598 
L 288.573248 -198.311273 
L 288.537975 -196.456566 
L 288.246949 -194.601859 
L 287.735406 -192.747152 
L 287.045693 -190.892444 
L 286.215582 -189.037737 
L 285.272161 -187.18303 
L 284.234873 -185.328323 
L 283.125494 -183.473616 
L 281.978331 -181.618909 
L 280.843632 -179.764202 
L 279.781192 -177.909495 
L 278.846775 -176.054788 
L 278.077611 -174.200081 
L 277.483148 -172.345374 
L 277.043921 -170.490667 
L 276.717603 -168.63596 
L 276.449066 -166.781253 
L 276.181358 -164.926545 
L 275.86575 -163.071838 
L 275.469915 -161.217131 
L 274.983426 -159.362424 
L 274.419475 -157.507717 
L 273.811979 -155.65301 
L 273.208289 -153.798303 
L 272.659169 -151.943596 
L 272.208661 -150.088889 
L 271.886535 -148.234182 
L 271.705103 -146.379475 
L 271.660751 -144.524768 
L 271.738948 -142.670061 
L 271.92044 -140.815354 
L 272.186111 -138.960646 
L 272.518908 -137.105939 
L 272.902778 -135.251232 
L 273.320082 -133.396525 
L 273.749548 -131.541818 
L 274.166317 -129.687111 
L 274.544492 -127.832404 
L 274.861421 -125.977697 
L 275.102334 -124.12299 
L 275.263792 -122.268283 
L 275.354652 -120.413576 
L 275.393749 -118.558869 
L 275.404446 -116.704162 
L 275.407429 -114.849455 
L 275.414177 -112.994747 
L 275.42369 -111.14004 
L 275.423901 -109.285333 
L 275.39715 -107.430626 
L 275.327246 -105.575919 
L 275.205089 -103.721212 
L 275.030808 -101.866505 
L 274.812297 -100.011798 
L 274.561676 -98.157091 
L 274.291704 -96.302384 
L 274.013593 -94.447677 
L 273.736477 -92.59297 
L 273.467811 -90.738263 
L 273.21364 -88.883556 
L 272.97793 -87.028848 
L 272.760828 -85.174141 
L 272.556546 -83.319434 
L 272.352098 -81.464727 
L 272.128215 -79.61002 
L 271.863047 -77.755313 
L 271.538069 -75.900606 
L 271.144358 -74.045899 
L 270.686895 -72.191192 
L 270.185015 -70.336485 
L 269.668612 -68.481778 
L 269.171326 -66.627071 
L 268.723089 -64.772364 
L 268.344407 -62.917657 
L 268.043873 -61.062949 
L 267.818993 -59.208242 
L 267.659331 -57.353535 
L 267.550503 -55.498828 
L 267.477732 -53.644121 
L 267.428271 -51.789414 
L 267.39257 -49.934707 
L 267.364419 -48.08 
z
" style="stroke: #000000; stroke-opacity: 0.8"/>
    </defs>
    <g clip-path="url(#p4569dac799)">
     <use xlink:href="#m3142e68993" x="0" y="288" style="fill: #7f2aff; fill-opacity: 0.8; stroke: #000000; stroke-opacity: 0.8"/>
    </g>
   </g>
   <g id="PolyCollection_4">
    <defs>
     <path id="m06746611fc" d="M 355.206037 -74.656 
L 349.889504 -74.656 
L 349.533584 -76.242263 
L 349.234731 -77.828525 
L 349.000121 -79.414788 
L 348.825222 -81.001051 
L 348.695681 -82.587313 
L 348.591325 -84.173576 
L 348.490902 -85.759838 
L 348.376126 -87.346101 
L 348.234091 -88.932364 
L 348.057954 -90.518626 
L 347.846445 -92.104889 
L 347.603008 -93.691152 
L 347.335058 -95.277414 
L 347.05333 -96.863677 
L 346.77095 -98.449939 
L 346.501916 -100.036202 
L 346.259167 -101.622465 
L 346.052766 -103.208727 
L 345.88881 -104.79499 
L 345.769185 -106.381253 
L 345.691764 -107.967515 
L 345.650399 -109.553778 
L 345.634447 -111.14004 
L 345.62829 -112.726303 
L 345.611943 -114.312566 
L 345.563725 -115.898828 
L 345.465132 -117.485091 
L 345.306788 -119.071354 
L 345.093422 -120.657616 
L 344.845765 -122.243879 
L 344.598175 -123.830141 
L 344.39235 -125.416404 
L 344.26886 -127.002667 
L 344.258831 -128.588929 
L 344.37792 -130.175192 
L 344.623763 -131.761455 
L 344.977137 -133.347717 
L 345.406294 -134.93398 
L 345.873424 -136.520242 
L 346.341866 -138.106505 
L 346.78241 -139.692768 
L 347.177032 -141.27903 
L 347.518973 -142.865293 
L 347.809172 -144.451556 
L 348.050407 -146.037818 
L 348.241413 -147.624081 
L 348.373278 -149.210343 
L 348.42954 -150.796606 
L 348.390064 -152.382869 
L 348.237499 -153.969131 
L 347.964351 -155.555394 
L 347.578498 -157.141657 
L 347.105256 -158.727919 
L 346.584864 -160.314182 
L 346.065432 -161.900444 
L 345.592902 -163.486707 
L 345.200789 -165.07297 
L 344.902872 -166.659232 
L 344.69106 -168.245495 
L 344.538665 -169.831758 
L 344.407255 -171.41802 
L 344.254272 -173.004283 
L 344.039171 -174.590545 
L 343.727572 -176.176808 
L 343.29432 -177.763071 
L 342.72655 -179.349333 
L 342.02655 -180.935596 
L 341.212708 -182.521859 
L 340.316399 -184.108121 
L 339.374254 -185.694384 
L 338.418041 -187.280646 
L 337.466589 -188.866909 
L 336.52417 -190.453172 
L 335.586986 -192.039434 
L 334.655302 -193.625697 
L 333.745495 -195.21196 
L 332.895888 -196.798222 
L 332.162934 -198.384485 
L 331.608848 -199.970747 
L 331.285753 -201.55701 
L 331.22293 -203.143273 
L 331.422212 -204.729535 
L 331.862838 -206.315798 
L 332.512958 -207.902061 
L 333.342334 -209.488323 
L 334.330637 -211.074586 
L 335.468095 -212.660848 
L 336.748895 -214.247111 
L 338.161064 -215.833374 
L 339.677942 -217.419636 
L 341.255401 -219.005899 
L 342.836114 -220.592162 
L 344.359076 -222.178424 
L 345.770522 -223.764687 
L 347.03236 -225.350949 
L 348.125733 -226.937212 
L 349.049553 -228.523475 
L 349.81559 -230.109737 
L 350.442445 -231.696 
L 354.653097 -231.696 
L 354.653097 -231.696 
L 355.279951 -230.109737 
L 356.045988 -228.523475 
L 356.969808 -226.937212 
L 358.063182 -225.350949 
L 359.325019 -223.764687 
L 360.736465 -222.178424 
L 362.259427 -220.592162 
L 363.840141 -219.005899 
L 365.417599 -217.419636 
L 366.934478 -215.833374 
L 368.346647 -214.247111 
L 369.627447 -212.660848 
L 370.764904 -211.074586 
L 371.753207 -209.488323 
L 372.582583 -207.902061 
L 373.232703 -206.315798 
L 373.673329 -204.729535 
L 373.872611 -203.143273 
L 373.809789 -201.55701 
L 373.486694 -199.970747 
L 372.932607 -198.384485 
L 372.199653 -196.798222 
L 371.350046 -195.21196 
L 370.44024 -193.625697 
L 369.508555 -192.039434 
L 368.571372 -190.453172 
L 367.628952 -188.866909 
L 366.6775 -187.280646 
L 365.721287 -185.694384 
L 364.779143 -184.108121 
L 363.882833 -182.521859 
L 363.068992 -180.935596 
L 362.368992 -179.349333 
L 361.801221 -177.763071 
L 361.36797 -176.176808 
L 361.056371 -174.590545 
L 360.84127 -173.004283 
L 360.688286 -171.41802 
L 360.556877 -169.831758 
L 360.404482 -168.245495 
L 360.192669 -166.659232 
L 359.894753 -165.07297 
L 359.50264 -163.486707 
L 359.03011 -161.900444 
L 358.510678 -160.314182 
L 357.990285 -158.727919 
L 357.517044 -157.141657 
L 357.131191 -155.555394 
L 356.858042 -153.969131 
L 356.705477 -152.382869 
L 356.666001 -150.796606 
L 356.722264 -149.210343 
L 356.854129 -147.624081 
L 357.045135 -146.037818 
L 357.28637 -144.451556 
L 357.576568 -142.865293 
L 357.918509 -141.27903 
L 358.313131 -139.692768 
L 358.753675 -138.106505 
L 359.222117 -136.520242 
L 359.689247 -134.93398 
L 360.118404 -133.347717 
L 360.471778 -131.761455 
L 360.717621 -130.175192 
L 360.836711 -128.588929 
L 360.826682 -127.002667 
L 360.703191 -125.416404 
L 360.497367 -123.830141 
L 360.249776 -122.243879 
L 360.002119 -120.657616 
L 359.788754 -119.071354 
L 359.630409 -117.485091 
L 359.531816 -115.898828 
L 359.483599 -114.312566 
L 359.467252 -112.726303 
L 359.461095 -111.14004 
L 359.445142 -109.553778 
L 359.403778 -107.967515 
L 359.326356 -106.381253 
L 359.206731 -104.79499 
L 359.042775 -103.208727 
L 358.836375 -101.622465 
L 358.593625 -100.036202 
L 358.324592 -98.449939 
L 358.042211 -96.863677 
L 357.760484 -95.277414 
L 357.492534 -93.691152 
L 357.249097 -92.104889 
L 357.037588 -90.518626 
L 356.86145 -88.932364 
L 356.719416 -87.346101 
L 356.60464 -85.759838 
L 356.504217 -84.173576 
L 356.39986 -82.587313 
L 356.270319 -81.001051 
L 356.095421 -79.414788 
L 355.86081 -77.828525 
L 355.561958 -76.242263 
L 355.206037 -74.656 
z
" style="stroke: #000000; stroke-opacity: 0.8"/>
    </defs>
    <g clip-path="url(#p4569dac799)">
     <use xlink:href="#m06746611fc" x="0" y="288" style="fill: #a6611a; fill-opacity: 0.8; stroke: #000000; stroke-opacity: 0.8"/>
    </g>
   </g>
   <g id="matplotlib.axis_1">
    <g id="xtick_1">
     <g id="line2d_1">
      <defs>
       <path id="m1cfb20710f" d="M 0 0 
L 0 3.5 
" style="stroke: #000000; stroke-width: 0.8"/>
      </defs>
      <g>
       <use xlink:href="#m1cfb20710f" x="54" y="252" style="stroke: #000000; stroke-width: 0.8"/>
      </g>
     </g>
     <g id="text_1">
      <!-- current_injection -->
      <g transform="translate(15.354847 350.105405)rotate(-45)scale(0.16 -0.16)">
       <defs>
        <path id="ArialMT-63" d="M 2588 1216 
L 3141 1144 
Q 3050 572 2676 248 
Q 2303 -75 1759 -75 
Q 1078 -75 664 370 
Q 250 816 250 1647 
Q 250 2184 428 2587 
Q 606 2991 970 3192 
Q 1334 3394 1763 3394 
Q 2303 3394 2647 3120 
Q 2991 2847 3088 2344 
L 2541 2259 
Q 2463 2594 2264 2762 
Q 2066 2931 1784 2931 
Q 1359 2931 1093 2626 
Q 828 2322 828 1663 
Q 828 994 1084 691 
Q 1341 388 1753 388 
Q 2084 388 2306 591 
Q 2528 794 2588 1216 
z
" transform="scale(0.015625)"/>
        <path id="ArialMT-75" d="M 2597 0 
L 2597 488 
Q 2209 -75 1544 -75 
Q 1250 -75 995 37 
Q 741 150 617 320 
Q 494 491 444 738 
Q 409 903 409 1263 
L 409 3319 
L 972 3319 
L 972 1478 
Q 972 1038 1006 884 
Q 1059 663 1231 536 
Q 1403 409 1656 409 
Q 1909 409 2131 539 
Q 2353 669 2445 892 
Q 2538 1116 2538 1541 
L 2538 3319 
L 3100 3319 
L 3100 0 
L 2597 0 
z
" transform="scale(0.015625)"/>
        <path id="ArialMT-72" d="M 416 0 
L 416 3319 
L 922 3319 
L 922 2816 
Q 1116 3169 1280 3281 
Q 1444 3394 1641 3394 
Q 1925 3394 2219 3213 
L 2025 2691 
Q 1819 2813 1613 2813 
Q 1428 2813 1281 2702 
Q 1134 2591 1072 2394 
Q 978 2094 978 1738 
L 978 0 
L 416 0 
z
" transform="scale(0.015625)"/>
        <path id="ArialMT-65" d="M 2694 1069 
L 3275 997 
Q 3138 488 2766 206 
Q 2394 -75 1816 -75 
Q 1088 -75 661 373 
Q 234 822 234 1631 
Q 234 2469 665 2931 
Q 1097 3394 1784 3394 
Q 2450 3394 2872 2941 
Q 3294 2488 3294 1666 
Q 3294 1616 3291 1516 
L 816 1516 
Q 847 969 1125 678 
Q 1403 388 1819 388 
Q 2128 388 2347 550 
Q 2566 713 2694 1069 
z
M 847 1978 
L 2700 1978 
Q 2663 2397 2488 2606 
Q 2219 2931 1791 2931 
Q 1403 2931 1139 2672 
Q 875 2413 847 1978 
z
" transform="scale(0.015625)"/>
        <path id="ArialMT-6e" d="M 422 0 
L 422 3319 
L 928 3319 
L 928 2847 
Q 1294 3394 1984 3394 
Q 2284 3394 2536 3286 
Q 2788 3178 2913 3003 
Q 3038 2828 3088 2588 
Q 3119 2431 3119 2041 
L 3119 0 
L 2556 0 
L 2556 2019 
Q 2556 2363 2490 2533 
Q 2425 2703 2258 2804 
Q 2091 2906 1866 2906 
Q 1506 2906 1245 2678 
Q 984 2450 984 1813 
L 984 0 
L 422 0 
z
" transform="scale(0.015625)"/>
        <path id="ArialMT-74" d="M 1650 503 
L 1731 6 
Q 1494 -44 1306 -44 
Q 1000 -44 831 53 
Q 663 150 594 308 
Q 525 466 525 972 
L 525 2881 
L 113 2881 
L 113 3319 
L 525 3319 
L 525 4141 
L 1084 4478 
L 1084 3319 
L 1650 3319 
L 1650 2881 
L 1084 2881 
L 1084 941 
Q 1084 700 1114 631 
Q 1144 563 1211 522 
Q 1278 481 1403 481 
Q 1497 481 1650 503 
z
" transform="scale(0.015625)"/>
        <path id="ArialMT-5f" d="M -97 -1272 
L -97 -866 
L 3631 -866 
L 3631 -1272 
L -97 -1272 
z
" transform="scale(0.015625)"/>
        <path id="ArialMT-69" d="M 425 3934 
L 425 4581 
L 988 4581 
L 988 3934 
L 425 3934 
z
M 425 0 
L 425 3319 
L 988 3319 
L 988 0 
L 425 0 
z
" transform="scale(0.015625)"/>
        <path id="ArialMT-6a" d="M 419 3928 
L 419 4581 
L 981 4581 
L 981 3928 
L 419 3928 
z
M -294 -1288 
L -188 -809 
Q -19 -853 78 -853 
Q 250 -853 334 -739 
Q 419 -625 419 -169 
L 419 3319 
L 981 3319 
L 981 -181 
Q 981 -794 822 -1034 
Q 619 -1347 147 -1347 
Q -81 -1347 -294 -1288 
z
" transform="scale(0.015625)"/>
        <path id="ArialMT-6f" d="M 213 1659 
Q 213 2581 725 3025 
Q 1153 3394 1769 3394 
Q 2453 3394 2887 2945 
Q 3322 2497 3322 1706 
Q 3322 1066 3130 698 
Q 2938 331 2570 128 
Q 2203 -75 1769 -75 
Q 1072 -75 642 372 
Q 213 819 213 1659 
z
M 791 1659 
Q 791 1022 1069 705 
Q 1347 388 1769 388 
Q 2188 388 2466 706 
Q 2744 1025 2744 1678 
Q 2744 2294 2464 2611 
Q 2184 2928 1769 2928 
Q 1347 2928 1069 2612 
Q 791 2297 791 1659 
z
" transform="scale(0.015625)"/>
       </defs>
       <use xlink:href="#ArialMT-63"/>
       <use xlink:href="#ArialMT-75" x="50"/>
       <use xlink:href="#ArialMT-72" x="105.615234"/>
       <use xlink:href="#ArialMT-72" x="138.916016"/>
       <use xlink:href="#ArialMT-65" x="172.216797"/>
       <use xlink:href="#ArialMT-6e" x="227.832031"/>
       <use xlink:href="#ArialMT-74" x="283.447266"/>
       <use xlink:href="#ArialMT-5f" x="311.230469"/>
       <use xlink:href="#ArialMT-69" x="366.845703"/>
       <use xlink:href="#ArialMT-6e" x="389.0625"/>
       <use xlink:href="#ArialMT-6a" x="444.677734"/>
       <use xlink:href="#ArialMT-65" x="466.894531"/>
       <use xlink:href="#ArialMT-63" x="522.509766"/>
       <use xlink:href="#ArialMT-74" x="572.509766"/>
       <use xlink:href="#ArialMT-69" x="600.292969"/>
       <use xlink:href="#ArialMT-6f" x="622.509766"/>
       <use xlink:href="#ArialMT-6e" x="678.125"/>
      </g>
     </g>
    </g>
    <g id="xtick_2">
     <g id="line2d_2">
      <g>
       <use xlink:href="#m1cfb20710f" x="139.299363" y="252" style="stroke: #000000; stroke-width: 0.8"/>
      </g>
     </g>
     <g id="text_2">
      <!-- current_injection-FS -->
      <g transform="translate(91.611198 368.467201)rotate(-45)scale(0.16 -0.16)">
       <defs>
        <path id="ArialMT-2d" d="M 203 1375 
L 203 1941 
L 1931 1941 
L 1931 1375 
L 203 1375 
z
" transform="scale(0.015625)"/>
        <path id="ArialMT-46" d="M 525 0 
L 525 4581 
L 3616 4581 
L 3616 4041 
L 1131 4041 
L 1131 2622 
L 3281 2622 
L 3281 2081 
L 1131 2081 
L 1131 0 
L 525 0 
z
" transform="scale(0.015625)"/>
        <path id="ArialMT-53" d="M 288 1472 
L 859 1522 
Q 900 1178 1048 958 
Q 1197 738 1509 602 
Q 1822 466 2213 466 
Q 2559 466 2825 569 
Q 3091 672 3220 851 
Q 3350 1031 3350 1244 
Q 3350 1459 3225 1620 
Q 3100 1781 2813 1891 
Q 2628 1963 1997 2114 
Q 1366 2266 1113 2400 
Q 784 2572 623 2826 
Q 463 3081 463 3397 
Q 463 3744 659 4045 
Q 856 4347 1234 4503 
Q 1613 4659 2075 4659 
Q 2584 4659 2973 4495 
Q 3363 4331 3572 4012 
Q 3781 3694 3797 3291 
L 3216 3247 
Q 3169 3681 2898 3903 
Q 2628 4125 2100 4125 
Q 1550 4125 1298 3923 
Q 1047 3722 1047 3438 
Q 1047 3191 1225 3031 
Q 1400 2872 2139 2705 
Q 2878 2538 3153 2413 
Q 3553 2228 3743 1945 
Q 3934 1663 3934 1294 
Q 3934 928 3725 604 
Q 3516 281 3123 101 
Q 2731 -78 2241 -78 
Q 1619 -78 1198 103 
Q 778 284 539 648 
Q 300 1013 288 1472 
z
" transform="scale(0.015625)"/>
       </defs>
       <use xlink:href="#ArialMT-63"/>
       <use xlink:href="#ArialMT-75" x="50"/>
       <use xlink:href="#ArialMT-72" x="105.615234"/>
       <use xlink:href="#ArialMT-72" x="138.916016"/>
       <use xlink:href="#ArialMT-65" x="172.216797"/>
       <use xlink:href="#ArialMT-6e" x="227.832031"/>
       <use xlink:href="#ArialMT-74" x="283.447266"/>
       <use xlink:href="#ArialMT-5f" x="311.230469"/>
       <use xlink:href="#ArialMT-69" x="366.845703"/>
       <use xlink:href="#ArialMT-6e" x="389.0625"/>
       <use xlink:href="#ArialMT-6a" x="444.677734"/>
       <use xlink:href="#ArialMT-65" x="466.894531"/>
       <use xlink:href="#ArialMT-63" x="522.509766"/>
       <use xlink:href="#ArialMT-74" x="572.509766"/>
       <use xlink:href="#ArialMT-69" x="600.292969"/>
       <use xlink:href="#ArialMT-6f" x="622.509766"/>
       <use xlink:href="#ArialMT-6e" x="678.125"/>
       <use xlink:href="#ArialMT-2d" x="733.740234"/>
       <use xlink:href="#ArialMT-46" x="767.041016"/>
       <use xlink:href="#ArialMT-53" x="828.125"/>
      </g>
     </g>
    </g>
    <g id="xtick_3">
     <g id="line2d_3">
      <g>
       <use xlink:href="#m1cfb20710f" x="224.598726" y="252" style="stroke: #000000; stroke-width: 0.8"/>
      </g>
     </g>
     <g id="text_3">
      <!-- current_injection-SPN -->
      <g transform="translate(172.507053 377.274216)rotate(-45)scale(0.16 -0.16)">
       <defs>
        <path id="ArialMT-50" d="M 494 0 
L 494 4581 
L 2222 4581 
Q 2678 4581 2919 4538 
Q 3256 4481 3484 4323 
Q 3713 4166 3852 3881 
Q 3991 3597 3991 3256 
Q 3991 2672 3619 2267 
Q 3247 1863 2275 1863 
L 1100 1863 
L 1100 0 
L 494 0 
z
M 1100 2403 
L 2284 2403 
Q 2872 2403 3119 2622 
Q 3366 2841 3366 3238 
Q 3366 3525 3220 3729 
Q 3075 3934 2838 4000 
Q 2684 4041 2272 4041 
L 1100 4041 
L 1100 2403 
z
" transform="scale(0.015625)"/>
        <path id="ArialMT-4e" d="M 488 0 
L 488 4581 
L 1109 4581 
L 3516 984 
L 3516 4581 
L 4097 4581 
L 4097 0 
L 3475 0 
L 1069 3600 
L 1069 0 
L 488 0 
z
" transform="scale(0.015625)"/>
       </defs>
       <use xlink:href="#ArialMT-63"/>
       <use xlink:href="#ArialMT-75" x="50"/>
       <use xlink:href="#ArialMT-72" x="105.615234"/>
       <use xlink:href="#ArialMT-72" x="138.916016"/>
       <use xlink:href="#ArialMT-65" x="172.216797"/>
       <use xlink:href="#ArialMT-6e" x="227.832031"/>
       <use xlink:href="#ArialMT-74" x="283.447266"/>
       <use xlink:href="#ArialMT-5f" x="311.230469"/>
       <use xlink:href="#ArialMT-69" x="366.845703"/>
       <use xlink:href="#ArialMT-6e" x="389.0625"/>
       <use xlink:href="#ArialMT-6a" x="444.677734"/>
       <use xlink:href="#ArialMT-65" x="466.894531"/>
       <use xlink:href="#ArialMT-63" x="522.509766"/>
       <use xlink:href="#ArialMT-74" x="572.509766"/>
       <use xlink:href="#ArialMT-69" x="600.292969"/>
       <use xlink:href="#ArialMT-6f" x="622.509766"/>
       <use xlink:href="#ArialMT-6e" x="678.125"/>
       <use xlink:href="#ArialMT-2d" x="733.740234"/>
       <use xlink:href="#ArialMT-53" x="767.041016"/>
       <use xlink:href="#ArialMT-50" x="833.740234"/>
       <use xlink:href="#ArialMT-4e" x="900.439453"/>
      </g>
     </g>
    </g>
    <g id="xtick_4">
     <g id="line2d_4">
      <g>
       <use xlink:href="#m1cfb20710f" x="309.898089" y="252" style="stroke: #000000; stroke-width: 0.8"/>
      </g>
     </g>
     <g id="text_4">
      <!-- current_injection-all -->
      <g transform="translate(263.709874 365.191529)rotate(-45)scale(0.16 -0.16)">
       <defs>
        <path id="ArialMT-61" d="M 2588 409 
Q 2275 144 1986 34 
Q 1697 -75 1366 -75 
Q 819 -75 525 192 
Q 231 459 231 875 
Q 231 1119 342 1320 
Q 453 1522 633 1644 
Q 813 1766 1038 1828 
Q 1203 1872 1538 1913 
Q 2219 1994 2541 2106 
Q 2544 2222 2544 2253 
Q 2544 2597 2384 2738 
Q 2169 2928 1744 2928 
Q 1347 2928 1158 2789 
Q 969 2650 878 2297 
L 328 2372 
Q 403 2725 575 2942 
Q 747 3159 1072 3276 
Q 1397 3394 1825 3394 
Q 2250 3394 2515 3294 
Q 2781 3194 2906 3042 
Q 3031 2891 3081 2659 
Q 3109 2516 3109 2141 
L 3109 1391 
Q 3109 606 3145 398 
Q 3181 191 3288 0 
L 2700 0 
Q 2613 175 2588 409 
z
M 2541 1666 
Q 2234 1541 1622 1453 
Q 1275 1403 1131 1340 
Q 988 1278 909 1158 
Q 831 1038 831 891 
Q 831 666 1001 516 
Q 1172 366 1500 366 
Q 1825 366 2078 508 
Q 2331 650 2450 897 
Q 2541 1088 2541 1459 
L 2541 1666 
z
" transform="scale(0.015625)"/>
        <path id="ArialMT-6c" d="M 409 0 
L 409 4581 
L 972 4581 
L 972 0 
L 409 0 
z
" transform="scale(0.015625)"/>
       </defs>
       <use xlink:href="#ArialMT-63"/>
       <use xlink:href="#ArialMT-75" x="50"/>
       <use xlink:href="#ArialMT-72" x="105.615234"/>
       <use xlink:href="#ArialMT-72" x="138.916016"/>
       <use xlink:href="#ArialMT-65" x="172.216797"/>
       <use xlink:href="#ArialMT-6e" x="227.832031"/>
       <use xlink:href="#ArialMT-74" x="283.447266"/>
       <use xlink:href="#ArialMT-5f" x="311.230469"/>
       <use xlink:href="#ArialMT-69" x="366.845703"/>
       <use xlink:href="#ArialMT-6e" x="389.0625"/>
       <use xlink:href="#ArialMT-6a" x="444.677734"/>
       <use xlink:href="#ArialMT-65" x="466.894531"/>
       <use xlink:href="#ArialMT-63" x="522.509766"/>
       <use xlink:href="#ArialMT-74" x="572.509766"/>
       <use xlink:href="#ArialMT-69" x="600.292969"/>
       <use xlink:href="#ArialMT-6f" x="622.509766"/>
       <use xlink:href="#ArialMT-6e" x="678.125"/>
       <use xlink:href="#ArialMT-2d" x="733.740234"/>
       <use xlink:href="#ArialMT-61" x="767.041016"/>
       <use xlink:href="#ArialMT-6c" x="822.65625"/>
       <use xlink:href="#ArialMT-6c" x="844.873047"/>
      </g>
     </g>
    </g>
   </g>
   <g id="matplotlib.axis_2">
    <g id="ytick_1">
     <g id="line2d_5">
      <defs>
       <path id="m081881c40b" d="M 0 0 
L -3.5 0 
" style="stroke: #000000; stroke-width: 0.8"/>
      </defs>
      <g>
       <use xlink:href="#m081881c40b" x="54" y="252" style="stroke: #000000; stroke-width: 0.8"/>
      </g>
     </g>
     <g id="text_5">
      <!-- 0 -->
      <g transform="translate(38.0925 257.318906)scale(0.14 -0.14)">
       <defs>
        <path id="DejaVuSans-30" d="M 2034 4250 
Q 1547 4250 1301 3770 
Q 1056 3291 1056 2328 
Q 1056 1369 1301 889 
Q 1547 409 2034 409 
Q 2525 409 2770 889 
Q 3016 1369 3016 2328 
Q 3016 3291 2770 3770 
Q 2525 4250 2034 4250 
z
M 2034 4750 
Q 2819 4750 3233 4129 
Q 3647 3509 3647 2328 
Q 3647 1150 3233 529 
Q 2819 -91 2034 -91 
Q 1250 -91 836 529 
Q 422 1150 422 2328 
Q 422 3509 836 4129 
Q 1250 4750 2034 4750 
z
" transform="scale(0.015625)"/>
       </defs>
       <use xlink:href="#DejaVuSans-30"/>
      </g>
     </g>
    </g>
    <g id="ytick_2">
     <g id="line2d_6">
      <g>
       <use xlink:href="#m081881c40b" x="54" y="227.84" style="stroke: #000000; stroke-width: 0.8"/>
      </g>
     </g>
     <g id="text_6">
      <!-- 5 -->
      <g transform="translate(38.0925 233.158906)scale(0.14 -0.14)">
       <defs>
        <path id="DejaVuSans-35" d="M 691 4666 
L 3169 4666 
L 3169 4134 
L 1269 4134 
L 1269 2991 
Q 1406 3038 1543 3061 
Q 1681 3084 1819 3084 
Q 2600 3084 3056 2656 
Q 3513 2228 3513 1497 
Q 3513 744 3044 326 
Q 2575 -91 1722 -91 
Q 1428 -91 1123 -41 
Q 819 9 494 109 
L 494 744 
Q 775 591 1075 516 
Q 1375 441 1709 441 
Q 2250 441 2565 725 
Q 2881 1009 2881 1497 
Q 2881 1984 2565 2268 
Q 2250 2553 1709 2553 
Q 1456 2553 1204 2497 
Q 953 2441 691 2322 
L 691 4666 
z
" transform="scale(0.015625)"/>
       </defs>
       <use xlink:href="#DejaVuSans-35"/>
      </g>
     </g>
    </g>
    <g id="ytick_3">
     <g id="line2d_7">
      <g>
       <use xlink:href="#m081881c40b" x="54" y="203.68" style="stroke: #000000; stroke-width: 0.8"/>
      </g>
     </g>
     <g id="text_7">
      <!-- 10 -->
      <g transform="translate(29.185 208.998906)scale(0.14 -0.14)">
       <defs>
        <path id="DejaVuSans-31" d="M 794 531 
L 1825 531 
L 1825 4091 
L 703 3866 
L 703 4441 
L 1819 4666 
L 2450 4666 
L 2450 531 
L 3481 531 
L 3481 0 
L 794 0 
L 794 531 
z
" transform="scale(0.015625)"/>
       </defs>
       <use xlink:href="#DejaVuSans-31"/>
       <use xlink:href="#DejaVuSans-30" x="63.623047"/>
      </g>
     </g>
    </g>
    <g id="ytick_4">
     <g id="line2d_8">
      <g>
       <use xlink:href="#m081881c40b" x="54" y="179.52" style="stroke: #000000; stroke-width: 0.8"/>
      </g>
     </g>
     <g id="text_8">
      <!-- 15 -->
      <g transform="translate(29.185 184.838906)scale(0.14 -0.14)">
       <use xlink:href="#DejaVuSans-31"/>
       <use xlink:href="#DejaVuSans-35" x="63.623047"/>
      </g>
     </g>
    </g>
    <g id="ytick_5">
     <g id="line2d_9">
      <g>
       <use xlink:href="#m081881c40b" x="54" y="155.36" style="stroke: #000000; stroke-width: 0.8"/>
      </g>
     </g>
     <g id="text_9">
      <!-- 20 -->
      <g transform="translate(29.185 160.678906)scale(0.14 -0.14)">
       <defs>
        <path id="DejaVuSans-32" d="M 1228 531 
L 3431 531 
L 3431 0 
L 469 0 
L 469 531 
Q 828 903 1448 1529 
Q 2069 2156 2228 2338 
Q 2531 2678 2651 2914 
Q 2772 3150 2772 3378 
Q 2772 3750 2511 3984 
Q 2250 4219 1831 4219 
Q 1534 4219 1204 4116 
Q 875 4013 500 3803 
L 500 4441 
Q 881 4594 1212 4672 
Q 1544 4750 1819 4750 
Q 2544 4750 2975 4387 
Q 3406 4025 3406 3419 
Q 3406 3131 3298 2873 
Q 3191 2616 2906 2266 
Q 2828 2175 2409 1742 
Q 1991 1309 1228 531 
z
" transform="scale(0.015625)"/>
       </defs>
       <use xlink:href="#DejaVuSans-32"/>
       <use xlink:href="#DejaVuSans-30" x="63.623047"/>
      </g>
     </g>
    </g>
    <g id="ytick_6">
     <g id="line2d_10">
      <g>
       <use xlink:href="#m081881c40b" x="54" y="131.2" style="stroke: #000000; stroke-width: 0.8"/>
      </g>
     </g>
     <g id="text_10">
      <!-- 25 -->
      <g transform="translate(29.185 136.518906)scale(0.14 -0.14)">
       <use xlink:href="#DejaVuSans-32"/>
       <use xlink:href="#DejaVuSans-35" x="63.623047"/>
      </g>
     </g>
    </g>
    <g id="ytick_7">
     <g id="line2d_11">
      <g>
       <use xlink:href="#m081881c40b" x="54" y="107.04" style="stroke: #000000; stroke-width: 0.8"/>
      </g>
     </g>
     <g id="text_11">
      <!-- 30 -->
      <g transform="translate(29.185 112.358906)scale(0.14 -0.14)">
       <defs>
        <path id="DejaVuSans-33" d="M 2597 2516 
Q 3050 2419 3304 2112 
Q 3559 1806 3559 1356 
Q 3559 666 3084 287 
Q 2609 -91 1734 -91 
Q 1441 -91 1130 -33 
Q 819 25 488 141 
L 488 750 
Q 750 597 1062 519 
Q 1375 441 1716 441 
Q 2309 441 2620 675 
Q 2931 909 2931 1356 
Q 2931 1769 2642 2001 
Q 2353 2234 1838 2234 
L 1294 2234 
L 1294 2753 
L 1863 2753 
Q 2328 2753 2575 2939 
Q 2822 3125 2822 3475 
Q 2822 3834 2567 4026 
Q 2313 4219 1838 4219 
Q 1578 4219 1281 4162 
Q 984 4106 628 3988 
L 628 4550 
Q 988 4650 1302 4700 
Q 1616 4750 1894 4750 
Q 2613 4750 3031 4423 
Q 3450 4097 3450 3541 
Q 3450 3153 3228 2886 
Q 3006 2619 2597 2516 
z
" transform="scale(0.015625)"/>
       </defs>
       <use xlink:href="#DejaVuSans-33"/>
       <use xlink:href="#DejaVuSans-30" x="63.623047"/>
      </g>
     </g>
    </g>
    <g id="ytick_8">
     <g id="line2d_12">
      <g>
       <use xlink:href="#m081881c40b" x="54" y="82.88" style="stroke: #000000; stroke-width: 0.8"/>
      </g>
     </g>
     <g id="text_12">
      <!-- 35 -->
      <g transform="translate(29.185 88.198906)scale(0.14 -0.14)">
       <use xlink:href="#DejaVuSans-33"/>
       <use xlink:href="#DejaVuSans-35" x="63.623047"/>
      </g>
     </g>
    </g>
    <g id="ytick_9">
     <g id="line2d_13">
      <g>
       <use xlink:href="#m081881c40b" x="54" y="58.72" style="stroke: #000000; stroke-width: 0.8"/>
      </g>
     </g>
     <g id="text_13">
      <!-- 40 -->
      <g transform="translate(29.185 64.038906)scale(0.14 -0.14)">
       <defs>
        <path id="DejaVuSans-34" d="M 2419 4116 
L 825 1625 
L 2419 1625 
L 2419 4116 
z
M 2253 4666 
L 3047 4666 
L 3047 1625 
L 3713 1625 
L 3713 1100 
L 3047 1100 
L 3047 0 
L 2419 0 
L 2419 1100 
L 313 1100 
L 313 1709 
L 2253 4666 
z
" transform="scale(0.015625)"/>
       </defs>
       <use xlink:href="#DejaVuSans-34"/>
       <use xlink:href="#DejaVuSans-30" x="63.623047"/>
      </g>
     </g>
    </g>
    <g id="ytick_10">
     <g id="line2d_14">
      <g>
       <use xlink:href="#m081881c40b" x="54" y="34.56" style="stroke: #000000; stroke-width: 0.8"/>
      </g>
     </g>
     <g id="text_14">
      <!-- 45 -->
      <g transform="translate(29.185 39.878906)scale(0.14 -0.14)">
       <use xlink:href="#DejaVuSans-34"/>
       <use xlink:href="#DejaVuSans-35" x="63.623047"/>
      </g>
     </g>
    </g>
    <g id="text_15">
     <!-- Frequency (Hz) -->
     <g transform="translate(21.8175 198.40125)rotate(-90)scale(0.16 -0.16)">
      <defs>
       <path id="ArialMT-71" d="M 2538 -1272 
L 2538 353 
Q 2406 169 2170 47 
Q 1934 -75 1669 -75 
Q 1078 -75 651 397 
Q 225 869 225 1691 
Q 225 2191 398 2587 
Q 572 2984 901 3189 
Q 1231 3394 1625 3394 
Q 2241 3394 2594 2875 
L 2594 3319 
L 3100 3319 
L 3100 -1272 
L 2538 -1272 
z
M 803 1669 
Q 803 1028 1072 708 
Q 1341 388 1716 388 
Q 2075 388 2334 692 
Q 2594 997 2594 1619 
Q 2594 2281 2320 2615 
Q 2047 2950 1678 2950 
Q 1313 2950 1058 2639 
Q 803 2328 803 1669 
z
" transform="scale(0.015625)"/>
       <path id="ArialMT-79" d="M 397 -1278 
L 334 -750 
Q 519 -800 656 -800 
Q 844 -800 956 -737 
Q 1069 -675 1141 -563 
Q 1194 -478 1313 -144 
Q 1328 -97 1363 -6 
L 103 3319 
L 709 3319 
L 1400 1397 
Q 1534 1031 1641 628 
Q 1738 1016 1872 1384 
L 2581 3319 
L 3144 3319 
L 1881 -56 
Q 1678 -603 1566 -809 
Q 1416 -1088 1222 -1217 
Q 1028 -1347 759 -1347 
Q 597 -1347 397 -1278 
z
" transform="scale(0.015625)"/>
       <path id="ArialMT-20" transform="scale(0.015625)"/>
       <path id="ArialMT-28" d="M 1497 -1347 
Q 1031 -759 709 28 
Q 388 816 388 1659 
Q 388 2403 628 3084 
Q 909 3875 1497 4659 
L 1900 4659 
Q 1522 4009 1400 3731 
Q 1209 3300 1100 2831 
Q 966 2247 966 1656 
Q 966 153 1900 -1347 
L 1497 -1347 
z
" transform="scale(0.015625)"/>
       <path id="ArialMT-48" d="M 513 0 
L 513 4581 
L 1119 4581 
L 1119 2700 
L 3500 2700 
L 3500 4581 
L 4106 4581 
L 4106 0 
L 3500 0 
L 3500 2159 
L 1119 2159 
L 1119 0 
L 513 0 
z
" transform="scale(0.015625)"/>
       <path id="ArialMT-7a" d="M 125 0 
L 125 456 
L 2238 2881 
Q 1878 2863 1603 2863 
L 250 2863 
L 250 3319 
L 2963 3319 
L 2963 2947 
L 1166 841 
L 819 456 
Q 1197 484 1528 484 
L 3063 484 
L 3063 0 
L 125 0 
z
" transform="scale(0.015625)"/>
       <path id="ArialMT-29" d="M 791 -1347 
L 388 -1347 
Q 1322 153 1322 1656 
Q 1322 2244 1188 2822 
Q 1081 3291 891 3722 
Q 769 4003 388 4659 
L 791 4659 
Q 1378 3875 1659 3084 
Q 1900 2403 1900 1659 
Q 1900 816 1576 28 
Q 1253 -759 791 -1347 
z
" transform="scale(0.015625)"/>
      </defs>
      <use xlink:href="#ArialMT-46"/>
      <use xlink:href="#ArialMT-72" x="61.083984"/>
      <use xlink:href="#ArialMT-65" x="94.384766"/>
      <use xlink:href="#ArialMT-71" x="150"/>
      <use xlink:href="#ArialMT-75" x="205.615234"/>
      <use xlink:href="#ArialMT-65" x="261.230469"/>
      <use xlink:href="#ArialMT-6e" x="316.845703"/>
      <use xlink:href="#ArialMT-63" x="372.460938"/>
      <use xlink:href="#ArialMT-79" x="422.460938"/>
      <use xlink:href="#ArialMT-20" x="472.460938"/>
      <use xlink:href="#ArialMT-28" x="500.244141"/>
      <use xlink:href="#ArialMT-48" x="533.544922"/>
      <use xlink:href="#ArialMT-7a" x="605.761719"/>
      <use xlink:href="#ArialMT-29" x="655.761719"/>
     </g>
    </g>
   </g>
   <g id="LineCollection_1">
    <path d="M 85.987261 154.483314 
L 107.312102 154.483314 
" clip-path="url(#p4569dac799)" style="fill: none; stroke: #000000; stroke-width: 1.6"/>
    <path d="M 171.286624 147.080135 
L 192.611465 147.080135 
" clip-path="url(#p4569dac799)" style="fill: none; stroke: #000000; stroke-width: 1.6"/>
    <path d="M 256.585987 125.030268 
L 277.910828 125.030268 
" clip-path="url(#p4569dac799)" style="fill: none; stroke: #000000; stroke-width: 1.6"/>
    <path d="M 341.88535 119.241499 
L 363.210191 119.241499 
" clip-path="url(#p4569dac799)" style="fill: none; stroke: #000000; stroke-width: 1.6"/>
   </g>
   <g id="LineCollection_2">
    <path d="M 85.987261 56.304 
L 107.312102 56.304 
" clip-path="url(#p4569dac799)" style="fill: none; stroke: #000000; stroke-width: 1.6"/>
    <path d="M 171.286624 56.304 
L 192.611465 56.304 
" clip-path="url(#p4569dac799)" style="fill: none; stroke: #000000; stroke-width: 1.6"/>
    <path d="M 256.585987 56.304 
L 277.910828 56.304 
" clip-path="url(#p4569dac799)" style="fill: none; stroke: #000000; stroke-width: 1.6"/>
    <path d="M 341.88535 56.304 
L 363.210191 56.304 
" clip-path="url(#p4569dac799)" style="fill: none; stroke: #000000; stroke-width: 1.6"/>
   </g>
   <g id="LineCollection_3">
    <path d="M 85.987261 252 
L 107.312102 252 
" clip-path="url(#p4569dac799)" style="fill: none; stroke: #000000; stroke-width: 1.6"/>
    <path d="M 171.286624 252 
L 192.611465 252 
" clip-path="url(#p4569dac799)" style="fill: none; stroke: #000000; stroke-width: 1.6"/>
    <path d="M 256.585987 239.92 
L 277.910828 239.92 
" clip-path="url(#p4569dac799)" style="fill: none; stroke: #000000; stroke-width: 1.6"/>
    <path d="M 341.88535 213.344 
L 363.210191 213.344 
" clip-path="url(#p4569dac799)" style="fill: none; stroke: #000000; stroke-width: 1.6"/>
   </g>
   <g id="LineCollection_4">
    <path d="M 96.649682 252 
L 96.649682 56.304 
" clip-path="url(#p4569dac799)" style="fill: none; stroke: #000000; stroke-width: 1.6"/>
    <path d="M 181.949045 252 
L 181.949045 56.304 
" clip-path="url(#p4569dac799)" style="fill: none; stroke: #000000; stroke-width: 1.6"/>
    <path d="M 267.248408 239.92 
L 267.248408 56.304 
" clip-path="url(#p4569dac799)" style="fill: none; stroke: #000000; stroke-width: 1.6"/>
    <path d="M 352.547771 213.344 
L 352.547771 56.304 
" clip-path="url(#p4569dac799)" style="fill: none; stroke: #000000; stroke-width: 1.6"/>
   </g>
   <g id="patch_3">
    <path d="M 54 252 
L 54 34.56 
" style="fill: none; stroke: #000000; stroke-width: 0.8; stroke-linejoin: miter; stroke-linecap: square"/>
   </g>
   <g id="patch_4">
    <path d="M 388.8 252 
L 388.8 34.56 
" style="fill: none; stroke: #000000; stroke-width: 0.8; stroke-linejoin: miter; stroke-linecap: square"/>
   </g>
   <g id="patch_5">
    <path d="M 54 252 
L 388.8 252 
" style="fill: none; stroke: #000000; stroke-width: 0.8; stroke-linejoin: miter; stroke-linecap: square"/>
   </g>
   <g id="patch_6">
    <path d="M 54 34.56 
L 388.8 34.56 
" style="fill: none; stroke: #000000; stroke-width: 0.8; stroke-linejoin: miter; stroke-linecap: square"/>
   </g>
  </g>
 </g>
 <defs>
  <clipPath id="p4569dac799">
   <rect x="54" y="34.56" width="334.8" height="217.44"/>
  </clipPath>
 </defs>
</svg>
