<?xml version="1.0" encoding="utf-8" standalone="no"?>
<!DOCTYPE svg PUBLIC "-//W3C//DTD SVG 1.1//EN"
  "http://www.w3.org/Graphics/SVG/1.1/DTD/svg11.dtd">
<svg xmlns:xlink="http://www.w3.org/1999/xlink" width="432pt" height="288pt" viewBox="0 0 432 288" xmlns="http://www.w3.org/2000/svg" version="1.1">
 <metadata>
  <rdf:RDF xmlns:dc="http://purl.org/dc/elements/1.1/" xmlns:cc="http://creativecommons.org/ns#" xmlns:rdf="http://www.w3.org/1999/02/22-rdf-syntax-ns#">
   <cc:Work>
    <dc:type rdf:resource="http://purl.org/dc/dcmitype/StillImage"/>
    <dc:date>2022-10-30T20:24:19.193252</dc:date>
    <dc:format>image/svg+xml</dc:format>
    <dc:creator>
     <cc:Agent>
      <dc:title>Matplotlib v3.5.2, https://matplotlib.org/</dc:title>
     </cc:Agent>
    </dc:creator>
   </cc:Work>
  </rdf:RDF>
 </metadata>
 <defs>
  <style type="text/css">*{stroke-linejoin: round; stroke-linecap: butt}</style>
 </defs>
 <g id="figure_1">
  <g id="patch_1">
   <path d="M 0 288 
L 432 288 
L 432 0 
L 0 0 
L 0 288 
z
" style="fill: none"/>
  </g>
  <g id="axes_1">
   <g id="patch_2">
    <path d="M 54 252 
L 388.8 252 
L 388.8 34.56 
L 54 34.56 
z
" style="fill: #ffffff"/>
   </g>
   <g id="PolyCollection_1">
    <defs>
     <path id="md98dbc65bb" d="M 132.73245 -36 
L 91.719724 -36 
L 91.775698 -38.025535 
L 92.869729 -40.051071 
L 94.750575 -42.076606 
L 97.063954 -44.102141 
L 99.448142 -46.127677 
L 101.615658 -48.153212 
L 103.397415 -50.178747 
L 104.744251 -52.204283 
L 105.697067 -54.229818 
L 106.344316 -56.255354 
L 106.783577 -58.280889 
L 107.096503 -60.306424 
L 107.338536 -62.33196 
L 107.539673 -64.357495 
L 107.711025 -66.38303 
L 107.852754 -68.408566 
L 107.960743 -70.434101 
L 108.030909 -72.459636 
L 108.061129 -74.485172 
L 108.051265 -76.510707 
L 108.002006 -78.536242 
L 107.913348 -80.561778 
L 107.783389 -82.587313 
L 107.607915 -84.612848 
L 107.380868 -86.638384 
L 107.095455 -88.663919 
L 106.745471 -90.689455 
L 106.326426 -92.71499 
L 105.836214 -94.740525 
L 105.275337 -96.766061 
L 104.646806 -98.791596 
L 103.955861 -100.817131 
L 103.209522 -102.842667 
L 102.415875 -104.868202 
L 101.582954 -106.893737 
L 100.717252 -108.919273 
L 99.822071 -110.944808 
L 98.896166 -112.970343 
L 97.933141 -114.995879 
L 96.922046 -117.021414 
L 95.849382 -119.046949 
L 94.702521 -121.072485 
L 93.474189 -123.09802 
L 92.167274 -125.123556 
L 90.798819 -127.149091 
L 89.401859 -129.174626 
L 88.024071 -131.200162 
L 86.722952 -133.225697 
L 85.558362 -135.251232 
L 84.584105 -137.276768 
L 83.840522 -139.302303 
L 83.349576 -141.327838 
L 83.113043 -143.353374 
L 83.113635 -145.378909 
L 83.318512 -147.404444 
L 83.684652 -149.42998 
L 84.165533 -151.455515 
L 84.718296 -153.481051 
L 85.310094 -155.506586 
L 85.922157 -157.532121 
L 86.550509 -159.557657 
L 87.203391 -161.583192 
L 87.896538 -163.608727 
L 88.648017 -165.634263 
L 89.474023 -167.659798 
L 90.386137 -169.685333 
L 91.389727 -171.710869 
L 92.482932 -173.736404 
L 93.655996 -175.761939 
L 94.891324 -177.787475 
L 96.164831 -179.81301 
L 97.448875 -181.838545 
L 98.716324 -183.864081 
L 99.944642 -185.889616 
L 101.118616 -187.915152 
L 102.230832 -189.940687 
L 103.279842 -191.966222 
L 104.266885 -193.991758 
L 105.192523 -196.017293 
L 106.054371 -198.042828 
L 106.846508 -200.068364 
L 107.560368 -202.093899 
L 108.186446 -204.119434 
L 108.716113 -206.14497 
L 109.143169 -208.170505 
L 109.465136 -210.19604 
L 109.684505 -212.221576 
L 109.809973 -214.247111 
L 109.857406 -216.272646 
L 109.849928 -218.298182 
L 109.816513 -220.323717 
L 109.788813 -222.349253 
L 109.796542 -224.374788 
L 109.862417 -226.400323 
L 109.99802 -228.425859 
L 110.201859 -230.451394 
L 110.460295 -232.476929 
L 110.751118 -234.502465 
L 111.048716 -236.528 
L 113.403458 -236.528 
L 113.403458 -236.528 
L 113.701056 -234.502465 
L 113.991879 -232.476929 
L 114.250315 -230.451394 
L 114.454154 -228.425859 
L 114.589757 -226.400323 
L 114.655632 -224.374788 
L 114.663361 -222.349253 
L 114.635661 -220.323717 
L 114.602246 -218.298182 
L 114.594768 -216.272646 
L 114.642201 -214.247111 
L 114.767669 -212.221576 
L 114.987038 -210.19604 
L 115.309005 -208.170505 
L 115.736061 -206.14497 
L 116.265728 -204.119434 
L 116.891806 -202.093899 
L 117.605666 -200.068364 
L 118.397803 -198.042828 
L 119.259651 -196.017293 
L 120.185289 -193.991758 
L 121.172332 -191.966222 
L 122.221342 -189.940687 
L 123.333558 -187.915152 
L 124.507532 -185.889616 
L 125.73585 -183.864081 
L 127.003299 -181.838545 
L 128.287343 -179.81301 
L 129.56085 -177.787475 
L 130.796178 -175.761939 
L 131.969242 -173.736404 
L 133.062447 -171.710869 
L 134.066037 -169.685333 
L 134.97815 -167.659798 
L 135.804157 -165.634263 
L 136.555636 -163.608727 
L 137.248783 -161.583192 
L 137.901665 -159.557657 
L 138.530017 -157.532121 
L 139.142079 -155.506586 
L 139.733878 -153.481051 
L 140.286641 -151.455515 
L 140.767522 -149.42998 
L 141.133662 -147.404444 
L 141.338539 -145.378909 
L 141.33913 -143.353374 
L 141.102598 -141.327838 
L 140.611652 -139.302303 
L 139.868069 -137.276768 
L 138.893812 -135.251232 
L 137.729221 -133.225697 
L 136.428103 -131.200162 
L 135.050315 -129.174626 
L 133.653355 -127.149091 
L 132.2849 -125.123556 
L 130.977985 -123.09802 
L 129.749652 -121.072485 
L 128.602792 -119.046949 
L 127.530128 -117.021414 
L 126.519033 -114.995879 
L 125.556008 -112.970343 
L 124.630103 -110.944808 
L 123.734922 -108.919273 
L 122.86922 -106.893737 
L 122.036299 -104.868202 
L 121.242652 -102.842667 
L 120.496313 -100.817131 
L 119.805368 -98.791596 
L 119.176837 -96.766061 
L 118.61596 -94.740525 
L 118.125748 -92.71499 
L 117.706703 -90.689455 
L 117.356719 -88.663919 
L 117.071306 -86.638384 
L 116.844259 -84.612848 
L 116.668785 -82.587313 
L 116.538826 -80.561778 
L 116.450167 -78.536242 
L 116.400909 -76.510707 
L 116.391045 -74.485172 
L 116.421265 -72.459636 
L 116.491431 -70.434101 
L 116.59942 -68.408566 
L 116.741149 -66.38303 
L 116.912501 -64.357495 
L 117.113638 -62.33196 
L 117.355671 -60.306424 
L 117.668597 -58.280889 
L 118.107858 -56.255354 
L 118.755107 -54.229818 
L 119.707923 -52.204283 
L 121.054759 -50.178747 
L 122.836516 -48.153212 
L 125.004032 -46.127677 
L 127.38822 -44.102141 
L 129.701599 -42.076606 
L 131.582445 -40.051071 
L 132.676476 -38.025535 
L 132.73245 -36 
z
" style="stroke: #000000; stroke-opacity: 0.8"/>
    </defs>
    <g clip-path="url(#p6dd6beb619)">
     <use xlink:href="#md98dbc65bb" x="0" y="288" style="fill: #800080; fill-opacity: 0.8; stroke: #000000; stroke-opacity: 0.8"/>
    </g>
   </g>
   <g id="PolyCollection_2">
    <defs>
     <path id="mbbaf71d346" d="M 230.447269 -36 
L 226.909253 -36 
L 226.766936 -38.025535 
L 226.704844 -40.051071 
L 226.695361 -42.076606 
L 226.699166 -44.102141 
L 226.677913 -46.127677 
L 226.60166 -48.153212 
L 226.449733 -50.178747 
L 226.208405 -52.204283 
L 225.870114 -54.229818 
L 225.436684 -56.255354 
L 224.925187 -58.280889 
L 224.372084 -60.306424 
L 223.831061 -62.33196 
L 223.362875 -64.357495 
L 223.020071 -66.38303 
L 222.832861 -68.408566 
L 222.802281 -70.434101 
L 222.903082 -72.459636 
L 223.094159 -74.485172 
L 223.331574 -76.510707 
L 223.579349 -78.536242 
L 223.815083 -80.561778 
L 224.029479 -82.587313 
L 224.220894 -84.612848 
L 224.387986 -86.638384 
L 224.524688 -88.663919 
L 224.620477 -90.689455 
L 224.665321 -92.71499 
L 224.655088 -94.740525 
L 224.592727 -96.766061 
L 224.483831 -98.791596 
L 224.329864 -100.817131 
L 224.124711 -102.842667 
L 223.858444 -104.868202 
L 223.527296 -106.893737 
L 223.144097 -108.919273 
L 222.742167 -110.944808 
L 222.368946 -112.970343 
L 222.071595 -114.995879 
L 221.881338 -117.021414 
L 221.803576 -119.046949 
L 221.816813 -121.072485 
L 221.878528 -123.09802 
L 221.933581 -125.123556 
L 221.921643 -127.149091 
L 221.782948 -129.174626 
L 221.463848 -131.200162 
L 220.923926 -133.225697 
L 220.14452 -135.251232 
L 219.135589 -137.276768 
L 217.935346 -139.302303 
L 216.59765 -141.327838 
L 215.167642 -143.353374 
L 213.655541 -145.378909 
L 212.025846 -147.404444 
L 210.21686 -149.42998 
L 208.190304 -151.455515 
L 205.989782 -153.481051 
L 203.773902 -155.506586 
L 201.796552 -157.532121 
L 200.332446 -159.557657 
L 199.576758 -161.583192 
L 199.565217 -163.608727 
L 200.154255 -165.634263 
L 201.073178 -167.659798 
L 202.026631 -169.685333 
L 202.803182 -171.710869 
L 203.344872 -173.736404 
L 203.751618 -175.761939 
L 204.223335 -177.787475 
L 204.968128 -179.81301 
L 206.116435 -181.838545 
L 207.674704 -183.864081 
L 209.532238 -185.889616 
L 211.511412 -187.915152 
L 213.435214 -189.940687 
L 215.182974 -191.966222 
L 216.714396 -193.991758 
L 218.058214 -196.017293 
L 219.277467 -198.042828 
L 220.431703 -200.068364 
L 221.553582 -202.093899 
L 222.64568 -204.119434 
L 223.690615 -206.14497 
L 224.662524 -208.170505 
L 225.53233 -210.19604 
L 226.267918 -212.221576 
L 226.835194 -214.247111 
L 227.204221 -216.272646 
L 227.359306 -218.298182 
L 227.308466 -220.323717 
L 227.088095 -222.349253 
L 226.761154 -224.374788 
L 226.409136 -226.400323 
L 226.118712 -228.425859 
L 225.964675 -230.451394 
L 225.99262 -232.476929 
L 226.207022 -234.502465 
L 226.570474 -236.528 
L 230.786048 -236.528 
L 230.786048 -236.528 
L 231.1495 -234.502465 
L 231.363901 -232.476929 
L 231.391847 -230.451394 
L 231.23781 -228.425859 
L 230.947386 -226.400323 
L 230.595367 -224.374788 
L 230.268427 -222.349253 
L 230.048055 -220.323717 
L 229.997216 -218.298182 
L 230.152301 -216.272646 
L 230.521327 -214.247111 
L 231.088603 -212.221576 
L 231.824191 -210.19604 
L 232.693998 -208.170505 
L 233.665907 -206.14497 
L 234.710842 -204.119434 
L 235.802939 -202.093899 
L 236.924819 -200.068364 
L 238.079054 -198.042828 
L 239.298308 -196.017293 
L 240.642126 -193.991758 
L 242.173548 -191.966222 
L 243.921307 -189.940687 
L 245.84511 -187.915152 
L 247.824284 -185.889616 
L 249.681818 -183.864081 
L 251.240087 -181.838545 
L 252.388394 -179.81301 
L 253.133187 -177.787475 
L 253.604904 -175.761939 
L 254.01165 -173.736404 
L 254.55334 -171.710869 
L 255.329891 -169.685333 
L 256.283344 -167.659798 
L 257.202267 -165.634263 
L 257.791304 -163.608727 
L 257.779764 -161.583192 
L 257.024076 -159.557657 
L 255.559969 -157.532121 
L 253.58262 -155.506586 
L 251.366739 -153.481051 
L 249.166217 -151.455515 
L 247.139662 -149.42998 
L 245.330676 -147.404444 
L 243.700981 -145.378909 
L 242.18888 -143.353374 
L 240.758872 -141.327838 
L 239.421175 -139.302303 
L 238.220933 -137.276768 
L 237.212001 -135.251232 
L 236.432595 -133.225697 
L 235.892673 -131.200162 
L 235.573574 -129.174626 
L 235.434878 -127.149091 
L 235.422941 -125.123556 
L 235.477994 -123.09802 
L 235.539709 -121.072485 
L 235.552946 -119.046949 
L 235.475184 -117.021414 
L 235.284927 -114.995879 
L 234.987575 -112.970343 
L 234.614355 -110.944808 
L 234.212424 -108.919273 
L 233.829226 -106.893737 
L 233.498078 -104.868202 
L 233.231811 -102.842667 
L 233.026657 -100.817131 
L 232.87269 -98.791596 
L 232.763795 -96.766061 
L 232.701434 -94.740525 
L 232.691201 -92.71499 
L 232.736044 -90.689455 
L 232.831834 -88.663919 
L 232.968536 -86.638384 
L 233.135628 -84.612848 
L 233.327043 -82.587313 
L 233.541438 -80.561778 
L 233.777173 -78.536242 
L 234.024948 -76.510707 
L 234.262363 -74.485172 
L 234.45344 -72.459636 
L 234.55424 -70.434101 
L 234.52366 -68.408566 
L 234.336451 -66.38303 
L 233.993646 -64.357495 
L 233.52546 -62.33196 
L 232.984438 -60.306424 
L 232.431334 -58.280889 
L 231.919838 -56.255354 
L 231.486408 -54.229818 
L 231.148117 -52.204283 
L 230.906789 -50.178747 
L 230.754862 -48.153212 
L 230.678609 -46.127677 
L 230.657356 -44.102141 
L 230.661161 -42.076606 
L 230.651677 -40.051071 
L 230.589586 -38.025535 
L 230.447269 -36 
z
" style="stroke: #000000; stroke-opacity: 0.8"/>
    </defs>
    <g clip-path="url(#p6dd6beb619)">
     <use xlink:href="#mbbaf71d346" x="0" y="288" style="fill: #a61b1a; fill-opacity: 0.8; stroke: #000000; stroke-opacity: 0.8"/>
    </g>
   </g>
   <g id="PolyCollection_3">
    <defs>
     <path id="mb14cc348fd" d="M 346.303198 -36 
L 343.957672 -36 
L 343.856357 -38.001131 
L 343.839114 -40.002263 
L 343.900164 -42.003394 
L 344.014921 -44.004525 
L 344.1451 -46.005657 
L 344.244963 -48.006788 
L 344.267041 -50.007919 
L 344.167258 -52.009051 
L 343.910453 -54.010182 
L 343.477084 -56.011313 
L 342.870603 -58.012444 
L 342.123067 -60.013576 
L 341.295207 -62.014707 
L 340.468015 -64.015838 
L 339.726325 -66.01697 
L 339.139377 -68.018101 
L 338.745969 -70.019232 
L 338.550149 -72.020364 
L 338.528175 -74.021495 
L 338.641889 -76.022626 
L 338.851596 -78.023758 
L 339.1236 -80.024889 
L 339.43163 -82.02602 
L 339.754239 -84.027152 
L 340.070791 -86.028283 
L 340.358097 -88.029414 
L 340.589257 -90.030545 
L 340.735839 -92.031677 
L 340.773314 -94.032808 
L 340.68755 -96.033939 
L 340.478805 -98.035071 
L 340.160623 -100.036202 
L 339.754551 -102.037333 
L 339.285183 -104.038465 
L 338.780385 -106.039596 
L 338.277378 -108.040727 
L 337.82905 -110.041859 
L 337.501621 -112.04299 
L 337.358329 -114.044121 
L 337.433211 -116.045253 
L 337.708252 -118.046384 
L 338.108789 -120.047515 
L 338.523314 -122.048646 
L 338.839462 -124.049778 
L 338.977952 -126.050909 
L 338.907925 -128.05204 
L 338.639236 -130.053172 
L 338.200765 -132.054303 
L 337.619314 -134.055434 
L 336.908952 -136.056566 
L 336.071057 -138.057697 
L 335.098559 -140.058828 
L 333.977665 -142.05996 
L 332.685082 -144.061091 
L 331.184891 -146.062222 
L 329.433367 -148.063354 
L 327.399543 -150.064485 
L 325.101561 -152.065616 
L 322.645172 -154.066747 
L 320.239202 -156.067879 
L 318.165274 -158.06901 
L 316.700054 -160.070141 
L 316.017391 -162.071273 
L 316.115326 -164.072404 
L 316.805381 -166.073535 
L 317.772664 -168.074667 
L 318.682886 -170.075798 
L 319.294069 -172.076929 
L 319.532411 -174.078061 
L 319.507737 -176.079192 
L 319.465351 -178.080323 
L 319.692115 -180.081455 
L 320.411185 -182.082586 
L 321.705702 -184.083717 
L 323.500683 -186.084848 
L 325.606223 -188.08598 
L 327.797045 -190.087111 
L 329.889465 -192.088242 
L 331.784401 -194.089374 
L 333.466978 -196.090505 
L 334.975335 -198.091636 
L 336.361711 -200.092768 
L 337.664958 -202.093899 
L 338.900899 -204.09503 
L 340.065049 -206.096162 
L 341.1384 -208.097293 
L 342.09124 -210.098424 
L 342.886277 -212.099556 
L 343.484371 -214.100687 
L 343.853593 -216.101818 
L 343.979226 -218.102949 
L 343.872013 -220.104081 
L 343.573263 -222.105212 
L 343.155614 -224.106343 
L 342.71687 -226.107475 
L 342.364193 -228.108606 
L 342.189591 -230.109737 
L 342.244022 -232.110869 
L 342.52163 -234.112 
L 347.739239 -234.112 
L 347.739239 -234.112 
L 348.016848 -232.110869 
L 348.071279 -230.109737 
L 347.896676 -228.108606 
L 347.544 -226.107475 
L 347.105256 -224.106343 
L 346.687606 -222.105212 
L 346.388856 -220.104081 
L 346.281643 -218.102949 
L 346.407276 -216.101818 
L 346.776498 -214.100687 
L 347.374592 -212.099556 
L 348.169629 -210.098424 
L 349.122469 -208.097293 
L 350.195821 -206.096162 
L 351.359971 -204.09503 
L 352.595911 -202.093899 
L 353.899159 -200.092768 
L 355.285535 -198.091636 
L 356.793892 -196.090505 
L 358.476469 -194.089374 
L 360.371405 -192.088242 
L 362.463824 -190.087111 
L 364.654646 -188.08598 
L 366.760187 -186.084848 
L 368.555167 -184.083717 
L 369.849685 -182.082586 
L 370.568754 -180.081455 
L 370.795518 -178.080323 
L 370.753133 -176.079192 
L 370.728459 -174.078061 
L 370.966801 -172.076929 
L 371.577984 -170.075798 
L 372.488205 -168.074667 
L 373.455489 -166.073535 
L 374.145544 -164.072404 
L 374.243478 -162.071273 
L 373.560815 -160.070141 
L 372.095596 -158.06901 
L 370.021668 -156.067879 
L 367.615698 -154.066747 
L 365.159309 -152.065616 
L 362.861327 -150.064485 
L 360.827502 -148.063354 
L 359.075979 -146.062222 
L 357.575788 -144.061091 
L 356.283205 -142.05996 
L 355.16231 -140.058828 
L 354.189813 -138.057697 
L 353.351917 -136.056566 
L 352.641556 -134.055434 
L 352.060105 -132.054303 
L 351.621633 -130.053172 
L 351.352945 -128.05204 
L 351.282918 -126.050909 
L 351.421408 -124.049778 
L 351.737556 -122.048646 
L 352.15208 -120.047515 
L 352.552617 -118.046384 
L 352.827658 -116.045253 
L 352.902541 -114.044121 
L 352.759249 -112.04299 
L 352.43182 -110.041859 
L 351.983492 -108.040727 
L 351.480485 -106.039596 
L 350.975687 -104.038465 
L 350.506318 -102.037333 
L 350.100246 -100.036202 
L 349.782064 -98.035071 
L 349.573319 -96.033939 
L 349.487556 -94.032808 
L 349.52503 -92.031677 
L 349.671613 -90.030545 
L 349.902773 -88.029414 
L 350.190079 -86.028283 
L 350.50663 -84.027152 
L 350.829239 -82.02602 
L 351.13727 -80.024889 
L 351.409273 -78.023758 
L 351.618981 -76.022626 
L 351.732695 -74.021495 
L 351.71072 -72.020364 
L 351.514901 -70.019232 
L 351.121492 -68.018101 
L 350.534545 -66.01697 
L 349.792854 -64.015838 
L 348.965662 -62.014707 
L 348.137802 -60.013576 
L 347.390266 -58.012444 
L 346.783785 -56.011313 
L 346.350416 -54.010182 
L 346.093612 -52.009051 
L 345.993829 -50.007919 
L 346.015906 -48.006788 
L 346.11577 -46.005657 
L 346.245948 -44.004525 
L 346.360705 -42.003394 
L 346.421755 -40.002263 
L 346.404512 -38.001131 
L 346.303198 -36 
z
" style="stroke: #000000; stroke-opacity: 0.8"/>
    </defs>
    <g clip-path="url(#p6dd6beb619)">
     <use xlink:href="#mb14cc348fd" x="0" y="288" style="fill: #7f2aff; fill-opacity: 0.8; stroke: #000000; stroke-opacity: 0.8"/>
    </g>
   </g>
   <g id="matplotlib.axis_1">
    <g id="xtick_1">
     <g id="line2d_1">
      <defs>
       <path id="m01180bb778" d="M 0 0 
L 0 3.5 
" style="stroke: #000000; stroke-width: 0.8"/>
      </defs>
      <g>
       <use xlink:href="#m01180bb778" x="54" y="252" style="stroke: #000000; stroke-width: 0.8"/>
      </g>
     </g>
     <g id="text_1">
      <!-- current_injection -->
      <g transform="translate(15.354847 350.105405)rotate(-45)scale(0.16 -0.16)">
       <defs>
        <path id="ArialMT-63" d="M 2588 1216 
L 3141 1144 
Q 3050 572 2676 248 
Q 2303 -75 1759 -75 
Q 1078 -75 664 370 
Q 250 816 250 1647 
Q 250 2184 428 2587 
Q 606 2991 970 3192 
Q 1334 3394 1763 3394 
Q 2303 3394 2647 3120 
Q 2991 2847 3088 2344 
L 2541 2259 
Q 2463 2594 2264 2762 
Q 2066 2931 1784 2931 
Q 1359 2931 1093 2626 
Q 828 2322 828 1663 
Q 828 994 1084 691 
Q 1341 388 1753 388 
Q 2084 388 2306 591 
Q 2528 794 2588 1216 
z
" transform="scale(0.015625)"/>
        <path id="ArialMT-75" d="M 2597 0 
L 2597 488 
Q 2209 -75 1544 -75 
Q 1250 -75 995 37 
Q 741 150 617 320 
Q 494 491 444 738 
Q 409 903 409 1263 
L 409 3319 
L 972 3319 
L 972 1478 
Q 972 1038 1006 884 
Q 1059 663 1231 536 
Q 1403 409 1656 409 
Q 1909 409 2131 539 
Q 2353 669 2445 892 
Q 2538 1116 2538 1541 
L 2538 3319 
L 3100 3319 
L 3100 0 
L 2597 0 
z
" transform="scale(0.015625)"/>
        <path id="ArialMT-72" d="M 416 0 
L 416 3319 
L 922 3319 
L 922 2816 
Q 1116 3169 1280 3281 
Q 1444 3394 1641 3394 
Q 1925 3394 2219 3213 
L 2025 2691 
Q 1819 2813 1613 2813 
Q 1428 2813 1281 2702 
Q 1134 2591 1072 2394 
Q 978 2094 978 1738 
L 978 0 
L 416 0 
z
" transform="scale(0.015625)"/>
        <path id="ArialMT-65" d="M 2694 1069 
L 3275 997 
Q 3138 488 2766 206 
Q 2394 -75 1816 -75 
Q 1088 -75 661 373 
Q 234 822 234 1631 
Q 234 2469 665 2931 
Q 1097 3394 1784 3394 
Q 2450 3394 2872 2941 
Q 3294 2488 3294 1666 
Q 3294 1616 3291 1516 
L 816 1516 
Q 847 969 1125 678 
Q 1403 388 1819 388 
Q 2128 388 2347 550 
Q 2566 713 2694 1069 
z
M 847 1978 
L 2700 1978 
Q 2663 2397 2488 2606 
Q 2219 2931 1791 2931 
Q 1403 2931 1139 2672 
Q 875 2413 847 1978 
z
" transform="scale(0.015625)"/>
        <path id="ArialMT-6e" d="M 422 0 
L 422 3319 
L 928 3319 
L 928 2847 
Q 1294 3394 1984 3394 
Q 2284 3394 2536 3286 
Q 2788 3178 2913 3003 
Q 3038 2828 3088 2588 
Q 3119 2431 3119 2041 
L 3119 0 
L 2556 0 
L 2556 2019 
Q 2556 2363 2490 2533 
Q 2425 2703 2258 2804 
Q 2091 2906 1866 2906 
Q 1506 2906 1245 2678 
Q 984 2450 984 1813 
L 984 0 
L 422 0 
z
" transform="scale(0.015625)"/>
        <path id="ArialMT-74" d="M 1650 503 
L 1731 6 
Q 1494 -44 1306 -44 
Q 1000 -44 831 53 
Q 663 150 594 308 
Q 525 466 525 972 
L 525 2881 
L 113 2881 
L 113 3319 
L 525 3319 
L 525 4141 
L 1084 4478 
L 1084 3319 
L 1650 3319 
L 1650 2881 
L 1084 2881 
L 1084 941 
Q 1084 700 1114 631 
Q 1144 563 1211 522 
Q 1278 481 1403 481 
Q 1497 481 1650 503 
z
" transform="scale(0.015625)"/>
        <path id="ArialMT-5f" d="M -97 -1272 
L -97 -866 
L 3631 -866 
L 3631 -1272 
L -97 -1272 
z
" transform="scale(0.015625)"/>
        <path id="ArialMT-69" d="M 425 3934 
L 425 4581 
L 988 4581 
L 988 3934 
L 425 3934 
z
M 425 0 
L 425 3319 
L 988 3319 
L 988 0 
L 425 0 
z
" transform="scale(0.015625)"/>
        <path id="ArialMT-6a" d="M 419 3928 
L 419 4581 
L 981 4581 
L 981 3928 
L 419 3928 
z
M -294 -1288 
L -188 -809 
Q -19 -853 78 -853 
Q 250 -853 334 -739 
Q 419 -625 419 -169 
L 419 3319 
L 981 3319 
L 981 -181 
Q 981 -794 822 -1034 
Q 619 -1347 147 -1347 
Q -81 -1347 -294 -1288 
z
" transform="scale(0.015625)"/>
        <path id="ArialMT-6f" d="M 213 1659 
Q 213 2581 725 3025 
Q 1153 3394 1769 3394 
Q 2453 3394 2887 2945 
Q 3322 2497 3322 1706 
Q 3322 1066 3130 698 
Q 2938 331 2570 128 
Q 2203 -75 1769 -75 
Q 1072 -75 642 372 
Q 213 819 213 1659 
z
M 791 1659 
Q 791 1022 1069 705 
Q 1347 388 1769 388 
Q 2188 388 2466 706 
Q 2744 1025 2744 1678 
Q 2744 2294 2464 2611 
Q 2184 2928 1769 2928 
Q 1347 2928 1069 2612 
Q 791 2297 791 1659 
z
" transform="scale(0.015625)"/>
       </defs>
       <use xlink:href="#ArialMT-63"/>
       <use xlink:href="#ArialMT-75" x="50"/>
       <use xlink:href="#ArialMT-72" x="105.615234"/>
       <use xlink:href="#ArialMT-72" x="138.916016"/>
       <use xlink:href="#ArialMT-65" x="172.216797"/>
       <use xlink:href="#ArialMT-6e" x="227.832031"/>
       <use xlink:href="#ArialMT-74" x="283.447266"/>
       <use xlink:href="#ArialMT-5f" x="311.230469"/>
       <use xlink:href="#ArialMT-69" x="366.845703"/>
       <use xlink:href="#ArialMT-6e" x="389.0625"/>
       <use xlink:href="#ArialMT-6a" x="444.677734"/>
       <use xlink:href="#ArialMT-65" x="466.894531"/>
       <use xlink:href="#ArialMT-63" x="522.509766"/>
       <use xlink:href="#ArialMT-74" x="572.509766"/>
       <use xlink:href="#ArialMT-69" x="600.292969"/>
       <use xlink:href="#ArialMT-6f" x="622.509766"/>
       <use xlink:href="#ArialMT-6e" x="678.125"/>
      </g>
     </g>
    </g>
    <g id="xtick_2">
     <g id="line2d_2">
      <g>
       <use xlink:href="#m01180bb778" x="170.452174" y="252" style="stroke: #000000; stroke-width: 0.8"/>
      </g>
     </g>
     <g id="text_2">
      <!-- current_injection-iSPN -->
      <g transform="translate(117.103619 379.78798)rotate(-45)scale(0.16 -0.16)">
       <defs>
        <path id="ArialMT-2d" d="M 203 1375 
L 203 1941 
L 1931 1941 
L 1931 1375 
L 203 1375 
z
" transform="scale(0.015625)"/>
        <path id="ArialMT-53" d="M 288 1472 
L 859 1522 
Q 900 1178 1048 958 
Q 1197 738 1509 602 
Q 1822 466 2213 466 
Q 2559 466 2825 569 
Q 3091 672 3220 851 
Q 3350 1031 3350 1244 
Q 3350 1459 3225 1620 
Q 3100 1781 2813 1891 
Q 2628 1963 1997 2114 
Q 1366 2266 1113 2400 
Q 784 2572 623 2826 
Q 463 3081 463 3397 
Q 463 3744 659 4045 
Q 856 4347 1234 4503 
Q 1613 4659 2075 4659 
Q 2584 4659 2973 4495 
Q 3363 4331 3572 4012 
Q 3781 3694 3797 3291 
L 3216 3247 
Q 3169 3681 2898 3903 
Q 2628 4125 2100 4125 
Q 1550 4125 1298 3923 
Q 1047 3722 1047 3438 
Q 1047 3191 1225 3031 
Q 1400 2872 2139 2705 
Q 2878 2538 3153 2413 
Q 3553 2228 3743 1945 
Q 3934 1663 3934 1294 
Q 3934 928 3725 604 
Q 3516 281 3123 101 
Q 2731 -78 2241 -78 
Q 1619 -78 1198 103 
Q 778 284 539 648 
Q 300 1013 288 1472 
z
" transform="scale(0.015625)"/>
        <path id="ArialMT-50" d="M 494 0 
L 494 4581 
L 2222 4581 
Q 2678 4581 2919 4538 
Q 3256 4481 3484 4323 
Q 3713 4166 3852 3881 
Q 3991 3597 3991 3256 
Q 3991 2672 3619 2267 
Q 3247 1863 2275 1863 
L 1100 1863 
L 1100 0 
L 494 0 
z
M 1100 2403 
L 2284 2403 
Q 2872 2403 3119 2622 
Q 3366 2841 3366 3238 
Q 3366 3525 3220 3729 
Q 3075 3934 2838 4000 
Q 2684 4041 2272 4041 
L 1100 4041 
L 1100 2403 
z
" transform="scale(0.015625)"/>
        <path id="ArialMT-4e" d="M 488 0 
L 488 4581 
L 1109 4581 
L 3516 984 
L 3516 4581 
L 4097 4581 
L 4097 0 
L 3475 0 
L 1069 3600 
L 1069 0 
L 488 0 
z
" transform="scale(0.015625)"/>
       </defs>
       <use xlink:href="#ArialMT-63"/>
       <use xlink:href="#ArialMT-75" x="50"/>
       <use xlink:href="#ArialMT-72" x="105.615234"/>
       <use xlink:href="#ArialMT-72" x="138.916016"/>
       <use xlink:href="#ArialMT-65" x="172.216797"/>
       <use xlink:href="#ArialMT-6e" x="227.832031"/>
       <use xlink:href="#ArialMT-74" x="283.447266"/>
       <use xlink:href="#ArialMT-5f" x="311.230469"/>
       <use xlink:href="#ArialMT-69" x="366.845703"/>
       <use xlink:href="#ArialMT-6e" x="389.0625"/>
       <use xlink:href="#ArialMT-6a" x="444.677734"/>
       <use xlink:href="#ArialMT-65" x="466.894531"/>
       <use xlink:href="#ArialMT-63" x="522.509766"/>
       <use xlink:href="#ArialMT-74" x="572.509766"/>
       <use xlink:href="#ArialMT-69" x="600.292969"/>
       <use xlink:href="#ArialMT-6f" x="622.509766"/>
       <use xlink:href="#ArialMT-6e" x="678.125"/>
       <use xlink:href="#ArialMT-2d" x="733.740234"/>
       <use xlink:href="#ArialMT-69" x="767.041016"/>
       <use xlink:href="#ArialMT-53" x="789.257812"/>
       <use xlink:href="#ArialMT-50" x="855.957031"/>
       <use xlink:href="#ArialMT-4e" x="922.65625"/>
      </g>
     </g>
    </g>
    <g id="xtick_3">
     <g id="line2d_3">
      <g>
       <use xlink:href="#m01180bb778" x="286.904348" y="252" style="stroke: #000000; stroke-width: 0.8"/>
      </g>
     </g>
     <g id="text_3">
      <!-- current_injection-SPN -->
      <g transform="translate(234.812675 377.274216)rotate(-45)scale(0.16 -0.16)">
       <use xlink:href="#ArialMT-63"/>
       <use xlink:href="#ArialMT-75" x="50"/>
       <use xlink:href="#ArialMT-72" x="105.615234"/>
       <use xlink:href="#ArialMT-72" x="138.916016"/>
       <use xlink:href="#ArialMT-65" x="172.216797"/>
       <use xlink:href="#ArialMT-6e" x="227.832031"/>
       <use xlink:href="#ArialMT-74" x="283.447266"/>
       <use xlink:href="#ArialMT-5f" x="311.230469"/>
       <use xlink:href="#ArialMT-69" x="366.845703"/>
       <use xlink:href="#ArialMT-6e" x="389.0625"/>
       <use xlink:href="#ArialMT-6a" x="444.677734"/>
       <use xlink:href="#ArialMT-65" x="466.894531"/>
       <use xlink:href="#ArialMT-63" x="522.509766"/>
       <use xlink:href="#ArialMT-74" x="572.509766"/>
       <use xlink:href="#ArialMT-69" x="600.292969"/>
       <use xlink:href="#ArialMT-6f" x="622.509766"/>
       <use xlink:href="#ArialMT-6e" x="678.125"/>
       <use xlink:href="#ArialMT-2d" x="733.740234"/>
       <use xlink:href="#ArialMT-53" x="767.041016"/>
       <use xlink:href="#ArialMT-50" x="833.740234"/>
       <use xlink:href="#ArialMT-4e" x="900.439453"/>
      </g>
     </g>
    </g>
   </g>
   <g id="matplotlib.axis_2">
    <g id="ytick_1">
     <g id="line2d_4">
      <defs>
       <path id="m5198accfc6" d="M 0 0 
L -3.5 0 
" style="stroke: #000000; stroke-width: 0.8"/>
      </defs>
      <g>
       <use xlink:href="#m5198accfc6" x="54" y="252" style="stroke: #000000; stroke-width: 0.8"/>
      </g>
     </g>
     <g id="text_4">
      <!-- 0 -->
      <g transform="translate(38.0925 257.318906)scale(0.14 -0.14)">
       <defs>
        <path id="DejaVuSans-30" d="M 2034 4250 
Q 1547 4250 1301 3770 
Q 1056 3291 1056 2328 
Q 1056 1369 1301 889 
Q 1547 409 2034 409 
Q 2525 409 2770 889 
Q 3016 1369 3016 2328 
Q 3016 3291 2770 3770 
Q 2525 4250 2034 4250 
z
M 2034 4750 
Q 2819 4750 3233 4129 
Q 3647 3509 3647 2328 
Q 3647 1150 3233 529 
Q 2819 -91 2034 -91 
Q 1250 -91 836 529 
Q 422 1150 422 2328 
Q 422 3509 836 4129 
Q 1250 4750 2034 4750 
z
" transform="scale(0.015625)"/>
       </defs>
       <use xlink:href="#DejaVuSans-30"/>
      </g>
     </g>
    </g>
    <g id="ytick_2">
     <g id="line2d_5">
      <g>
       <use xlink:href="#m5198accfc6" x="54" y="227.84" style="stroke: #000000; stroke-width: 0.8"/>
      </g>
     </g>
     <g id="text_5">
      <!-- 5 -->
      <g transform="translate(38.0925 233.158906)scale(0.14 -0.14)">
       <defs>
        <path id="DejaVuSans-35" d="M 691 4666 
L 3169 4666 
L 3169 4134 
L 1269 4134 
L 1269 2991 
Q 1406 3038 1543 3061 
Q 1681 3084 1819 3084 
Q 2600 3084 3056 2656 
Q 3513 2228 3513 1497 
Q 3513 744 3044 326 
Q 2575 -91 1722 -91 
Q 1428 -91 1123 -41 
Q 819 9 494 109 
L 494 744 
Q 775 591 1075 516 
Q 1375 441 1709 441 
Q 2250 441 2565 725 
Q 2881 1009 2881 1497 
Q 2881 1984 2565 2268 
Q 2250 2553 1709 2553 
Q 1456 2553 1204 2497 
Q 953 2441 691 2322 
L 691 4666 
z
" transform="scale(0.015625)"/>
       </defs>
       <use xlink:href="#DejaVuSans-35"/>
      </g>
     </g>
    </g>
    <g id="ytick_3">
     <g id="line2d_6">
      <g>
       <use xlink:href="#m5198accfc6" x="54" y="203.68" style="stroke: #000000; stroke-width: 0.8"/>
      </g>
     </g>
     <g id="text_6">
      <!-- 10 -->
      <g transform="translate(29.185 208.998906)scale(0.14 -0.14)">
       <defs>
        <path id="DejaVuSans-31" d="M 794 531 
L 1825 531 
L 1825 4091 
L 703 3866 
L 703 4441 
L 1819 4666 
L 2450 4666 
L 2450 531 
L 3481 531 
L 3481 0 
L 794 0 
L 794 531 
z
" transform="scale(0.015625)"/>
       </defs>
       <use xlink:href="#DejaVuSans-31"/>
       <use xlink:href="#DejaVuSans-30" x="63.623047"/>
      </g>
     </g>
    </g>
    <g id="ytick_4">
     <g id="line2d_7">
      <g>
       <use xlink:href="#m5198accfc6" x="54" y="179.52" style="stroke: #000000; stroke-width: 0.8"/>
      </g>
     </g>
     <g id="text_7">
      <!-- 15 -->
      <g transform="translate(29.185 184.838906)scale(0.14 -0.14)">
       <use xlink:href="#DejaVuSans-31"/>
       <use xlink:href="#DejaVuSans-35" x="63.623047"/>
      </g>
     </g>
    </g>
    <g id="ytick_5">
     <g id="line2d_8">
      <g>
       <use xlink:href="#m5198accfc6" x="54" y="155.36" style="stroke: #000000; stroke-width: 0.8"/>
      </g>
     </g>
     <g id="text_8">
      <!-- 20 -->
      <g transform="translate(29.185 160.678906)scale(0.14 -0.14)">
       <defs>
        <path id="DejaVuSans-32" d="M 1228 531 
L 3431 531 
L 3431 0 
L 469 0 
L 469 531 
Q 828 903 1448 1529 
Q 2069 2156 2228 2338 
Q 2531 2678 2651 2914 
Q 2772 3150 2772 3378 
Q 2772 3750 2511 3984 
Q 2250 4219 1831 4219 
Q 1534 4219 1204 4116 
Q 875 4013 500 3803 
L 500 4441 
Q 881 4594 1212 4672 
Q 1544 4750 1819 4750 
Q 2544 4750 2975 4387 
Q 3406 4025 3406 3419 
Q 3406 3131 3298 2873 
Q 3191 2616 2906 2266 
Q 2828 2175 2409 1742 
Q 1991 1309 1228 531 
z
" transform="scale(0.015625)"/>
       </defs>
       <use xlink:href="#DejaVuSans-32"/>
       <use xlink:href="#DejaVuSans-30" x="63.623047"/>
      </g>
     </g>
    </g>
    <g id="ytick_6">
     <g id="line2d_9">
      <g>
       <use xlink:href="#m5198accfc6" x="54" y="131.2" style="stroke: #000000; stroke-width: 0.8"/>
      </g>
     </g>
     <g id="text_9">
      <!-- 25 -->
      <g transform="translate(29.185 136.518906)scale(0.14 -0.14)">
       <use xlink:href="#DejaVuSans-32"/>
       <use xlink:href="#DejaVuSans-35" x="63.623047"/>
      </g>
     </g>
    </g>
    <g id="ytick_7">
     <g id="line2d_10">
      <g>
       <use xlink:href="#m5198accfc6" x="54" y="107.04" style="stroke: #000000; stroke-width: 0.8"/>
      </g>
     </g>
     <g id="text_10">
      <!-- 30 -->
      <g transform="translate(29.185 112.358906)scale(0.14 -0.14)">
       <defs>
        <path id="DejaVuSans-33" d="M 2597 2516 
Q 3050 2419 3304 2112 
Q 3559 1806 3559 1356 
Q 3559 666 3084 287 
Q 2609 -91 1734 -91 
Q 1441 -91 1130 -33 
Q 819 25 488 141 
L 488 750 
Q 750 597 1062 519 
Q 1375 441 1716 441 
Q 2309 441 2620 675 
Q 2931 909 2931 1356 
Q 2931 1769 2642 2001 
Q 2353 2234 1838 2234 
L 1294 2234 
L 1294 2753 
L 1863 2753 
Q 2328 2753 2575 2939 
Q 2822 3125 2822 3475 
Q 2822 3834 2567 4026 
Q 2313 4219 1838 4219 
Q 1578 4219 1281 4162 
Q 984 4106 628 3988 
L 628 4550 
Q 988 4650 1302 4700 
Q 1616 4750 1894 4750 
Q 2613 4750 3031 4423 
Q 3450 4097 3450 3541 
Q 3450 3153 3228 2886 
Q 3006 2619 2597 2516 
z
" transform="scale(0.015625)"/>
       </defs>
       <use xlink:href="#DejaVuSans-33"/>
       <use xlink:href="#DejaVuSans-30" x="63.623047"/>
      </g>
     </g>
    </g>
    <g id="ytick_8">
     <g id="line2d_11">
      <g>
       <use xlink:href="#m5198accfc6" x="54" y="82.88" style="stroke: #000000; stroke-width: 0.8"/>
      </g>
     </g>
     <g id="text_11">
      <!-- 35 -->
      <g transform="translate(29.185 88.198906)scale(0.14 -0.14)">
       <use xlink:href="#DejaVuSans-33"/>
       <use xlink:href="#DejaVuSans-35" x="63.623047"/>
      </g>
     </g>
    </g>
    <g id="ytick_9">
     <g id="line2d_12">
      <g>
       <use xlink:href="#m5198accfc6" x="54" y="58.72" style="stroke: #000000; stroke-width: 0.8"/>
      </g>
     </g>
     <g id="text_12">
      <!-- 40 -->
      <g transform="translate(29.185 64.038906)scale(0.14 -0.14)">
       <defs>
        <path id="DejaVuSans-34" d="M 2419 4116 
L 825 1625 
L 2419 1625 
L 2419 4116 
z
M 2253 4666 
L 3047 4666 
L 3047 1625 
L 3713 1625 
L 3713 1100 
L 3047 1100 
L 3047 0 
L 2419 0 
L 2419 1100 
L 313 1100 
L 313 1709 
L 2253 4666 
z
" transform="scale(0.015625)"/>
       </defs>
       <use xlink:href="#DejaVuSans-34"/>
       <use xlink:href="#DejaVuSans-30" x="63.623047"/>
      </g>
     </g>
    </g>
    <g id="ytick_10">
     <g id="line2d_13">
      <g>
       <use xlink:href="#m5198accfc6" x="54" y="34.56" style="stroke: #000000; stroke-width: 0.8"/>
      </g>
     </g>
     <g id="text_13">
      <!-- 45 -->
      <g transform="translate(29.185 39.878906)scale(0.14 -0.14)">
       <use xlink:href="#DejaVuSans-34"/>
       <use xlink:href="#DejaVuSans-35" x="63.623047"/>
      </g>
     </g>
    </g>
    <g id="text_14">
     <!-- Frequency (Hz) -->
     <g transform="translate(21.8175 198.40125)rotate(-90)scale(0.16 -0.16)">
      <defs>
       <path id="ArialMT-46" d="M 525 0 
L 525 4581 
L 3616 4581 
L 3616 4041 
L 1131 4041 
L 1131 2622 
L 3281 2622 
L 3281 2081 
L 1131 2081 
L 1131 0 
L 525 0 
z
" transform="scale(0.015625)"/>
       <path id="ArialMT-71" d="M 2538 -1272 
L 2538 353 
Q 2406 169 2170 47 
Q 1934 -75 1669 -75 
Q 1078 -75 651 397 
Q 225 869 225 1691 
Q 225 2191 398 2587 
Q 572 2984 901 3189 
Q 1231 3394 1625 3394 
Q 2241 3394 2594 2875 
L 2594 3319 
L 3100 3319 
L 3100 -1272 
L 2538 -1272 
z
M 803 1669 
Q 803 1028 1072 708 
Q 1341 388 1716 388 
Q 2075 388 2334 692 
Q 2594 997 2594 1619 
Q 2594 2281 2320 2615 
Q 2047 2950 1678 2950 
Q 1313 2950 1058 2639 
Q 803 2328 803 1669 
z
" transform="scale(0.015625)"/>
       <path id="ArialMT-79" d="M 397 -1278 
L 334 -750 
Q 519 -800 656 -800 
Q 844 -800 956 -737 
Q 1069 -675 1141 -563 
Q 1194 -478 1313 -144 
Q 1328 -97 1363 -6 
L 103 3319 
L 709 3319 
L 1400 1397 
Q 1534 1031 1641 628 
Q 1738 1016 1872 1384 
L 2581 3319 
L 3144 3319 
L 1881 -56 
Q 1678 -603 1566 -809 
Q 1416 -1088 1222 -1217 
Q 1028 -1347 759 -1347 
Q 597 -1347 397 -1278 
z
" transform="scale(0.015625)"/>
       <path id="ArialMT-20" transform="scale(0.015625)"/>
       <path id="ArialMT-28" d="M 1497 -1347 
Q 1031 -759 709 28 
Q 388 816 388 1659 
Q 388 2403 628 3084 
Q 909 3875 1497 4659 
L 1900 4659 
Q 1522 4009 1400 3731 
Q 1209 3300 1100 2831 
Q 966 2247 966 1656 
Q 966 153 1900 -1347 
L 1497 -1347 
z
" transform="scale(0.015625)"/>
       <path id="ArialMT-48" d="M 513 0 
L 513 4581 
L 1119 4581 
L 1119 2700 
L 3500 2700 
L 3500 4581 
L 4106 4581 
L 4106 0 
L 3500 0 
L 3500 2159 
L 1119 2159 
L 1119 0 
L 513 0 
z
" transform="scale(0.015625)"/>
       <path id="ArialMT-7a" d="M 125 0 
L 125 456 
L 2238 2881 
Q 1878 2863 1603 2863 
L 250 2863 
L 250 3319 
L 2963 3319 
L 2963 2947 
L 1166 841 
L 819 456 
Q 1197 484 1528 484 
L 3063 484 
L 3063 0 
L 125 0 
z
" transform="scale(0.015625)"/>
       <path id="ArialMT-29" d="M 791 -1347 
L 388 -1347 
Q 1322 153 1322 1656 
Q 1322 2244 1188 2822 
Q 1081 3291 891 3722 
Q 769 4003 388 4659 
L 791 4659 
Q 1378 3875 1659 3084 
Q 1900 2403 1900 1659 
Q 1900 816 1576 28 
Q 1253 -759 791 -1347 
z
" transform="scale(0.015625)"/>
      </defs>
      <use xlink:href="#ArialMT-46"/>
      <use xlink:href="#ArialMT-72" x="61.083984"/>
      <use xlink:href="#ArialMT-65" x="94.384766"/>
      <use xlink:href="#ArialMT-71" x="150"/>
      <use xlink:href="#ArialMT-75" x="205.615234"/>
      <use xlink:href="#ArialMT-65" x="261.230469"/>
      <use xlink:href="#ArialMT-6e" x="316.845703"/>
      <use xlink:href="#ArialMT-63" x="372.460938"/>
      <use xlink:href="#ArialMT-79" x="422.460938"/>
      <use xlink:href="#ArialMT-20" x="472.460938"/>
      <use xlink:href="#ArialMT-28" x="500.244141"/>
      <use xlink:href="#ArialMT-48" x="533.544922"/>
      <use xlink:href="#ArialMT-7a" x="605.761719"/>
      <use xlink:href="#ArialMT-29" x="655.761719"/>
     </g>
    </g>
   </g>
   <g id="LineCollection_1">
    <path d="M 97.669565 161.52574 
L 126.782609 161.52574 
" clip-path="url(#p6dd6beb619)" style="fill: none; stroke: #000000; stroke-width: 1.6"/>
    <path d="M 214.121739 136.546435 
L 243.234783 136.546435 
" clip-path="url(#p6dd6beb619)" style="fill: none; stroke: #000000; stroke-width: 1.6"/>
    <path d="M 330.573913 134.973191 
L 359.686957 134.973191 
" clip-path="url(#p6dd6beb619)" style="fill: none; stroke: #000000; stroke-width: 1.6"/>
   </g>
   <g id="LineCollection_2">
    <path d="M 97.669565 51.472 
L 126.782609 51.472 
" clip-path="url(#p6dd6beb619)" style="fill: none; stroke: #000000; stroke-width: 1.6"/>
    <path d="M 214.121739 51.472 
L 243.234783 51.472 
" clip-path="url(#p6dd6beb619)" style="fill: none; stroke: #000000; stroke-width: 1.6"/>
    <path d="M 330.573913 53.888 
L 359.686957 53.888 
" clip-path="url(#p6dd6beb619)" style="fill: none; stroke: #000000; stroke-width: 1.6"/>
   </g>
   <g id="LineCollection_3">
    <path d="M 97.669565 252 
L 126.782609 252 
" clip-path="url(#p6dd6beb619)" style="fill: none; stroke: #000000; stroke-width: 1.6"/>
    <path d="M 214.121739 252 
L 243.234783 252 
" clip-path="url(#p6dd6beb619)" style="fill: none; stroke: #000000; stroke-width: 1.6"/>
    <path d="M 330.573913 252 
L 359.686957 252 
" clip-path="url(#p6dd6beb619)" style="fill: none; stroke: #000000; stroke-width: 1.6"/>
   </g>
   <g id="LineCollection_4">
    <path d="M 112.226087 252 
L 112.226087 51.472 
" clip-path="url(#p6dd6beb619)" style="fill: none; stroke: #000000; stroke-width: 1.6"/>
    <path d="M 228.678261 252 
L 228.678261 51.472 
" clip-path="url(#p6dd6beb619)" style="fill: none; stroke: #000000; stroke-width: 1.6"/>
    <path d="M 345.130435 252 
L 345.130435 53.888 
" clip-path="url(#p6dd6beb619)" style="fill: none; stroke: #000000; stroke-width: 1.6"/>
   </g>
   <g id="patch_3">
    <path d="M 54 252 
L 54 34.56 
" style="fill: none; stroke: #000000; stroke-width: 0.8; stroke-linejoin: miter; stroke-linecap: square"/>
   </g>
   <g id="patch_4">
    <path d="M 388.8 252 
L 388.8 34.56 
" style="fill: none; stroke: #000000; stroke-width: 0.8; stroke-linejoin: miter; stroke-linecap: square"/>
   </g>
   <g id="patch_5">
    <path d="M 54 252 
L 388.8 252 
" style="fill: none; stroke: #000000; stroke-width: 0.8; stroke-linejoin: miter; stroke-linecap: square"/>
   </g>
   <g id="patch_6">
    <path d="M 54 34.56 
L 388.8 34.56 
" style="fill: none; stroke: #000000; stroke-width: 0.8; stroke-linejoin: miter; stroke-linecap: square"/>
   </g>
  </g>
 </g>
 <defs>
  <clipPath id="p6dd6beb619">
   <rect x="54" y="34.56" width="334.8" height="217.44"/>
  </clipPath>
 </defs>
</svg>
