<?xml version="1.0" encoding="utf-8" standalone="no"?>
<!DOCTYPE svg PUBLIC "-//W3C//DTD SVG 1.1//EN"
  "http://www.w3.org/Graphics/SVG/1.1/DTD/svg11.dtd">
<svg xmlns:xlink="http://www.w3.org/1999/xlink" width="432pt" height="288pt" viewBox="0 0 432 288" xmlns="http://www.w3.org/2000/svg" version="1.1">
 <metadata>
  <rdf:RDF xmlns:dc="http://purl.org/dc/elements/1.1/" xmlns:cc="http://creativecommons.org/ns#" xmlns:rdf="http://www.w3.org/1999/02/22-rdf-syntax-ns#">
   <cc:Work>
    <dc:type rdf:resource="http://purl.org/dc/dcmitype/StillImage"/>
    <dc:date>2022-10-30T20:08:10.548585</dc:date>
    <dc:format>image/svg+xml</dc:format>
    <dc:creator>
     <cc:Agent>
      <dc:title>Matplotlib v3.5.2, https://matplotlib.org/</dc:title>
     </cc:Agent>
    </dc:creator>
   </cc:Work>
  </rdf:RDF>
 </metadata>
 <defs>
  <style type="text/css">*{stroke-linejoin: round; stroke-linecap: butt}</style>
 </defs>
 <g id="figure_1">
  <g id="patch_1">
   <path d="M 0 288 
L 432 288 
L 432 0 
L 0 0 
L 0 288 
z
" style="fill: none"/>
  </g>
  <g id="axes_1">
   <g id="patch_2">
    <path d="M 54 252 
L 388.8 252 
L 388.8 34.56 
L 54 34.56 
z
" style="fill: #ffffff"/>
   </g>
   <g id="PolyCollection_1">
    <defs>
     <path id="mcec85dd419" d="M 123.305242 -36 
L 101.146932 -36 
L 100.834419 -37.976727 
L 100.961427 -39.953455 
L 101.408677 -41.930182 
L 102.005809 -43.906909 
L 102.57586 -45.883636 
L 102.975677 -47.860364 
L 103.120893 -49.837091 
L 102.991606 -51.813818 
L 102.621942 -53.790545 
L 102.080603 -55.767273 
L 101.449648 -57.744 
L 100.806716 -59.720727 
L 100.213216 -61.697455 
L 99.708954 -63.674182 
L 99.312287 -65.650909 
L 99.024092 -67.627636 
L 98.833484 -69.604364 
L 98.723347 -71.581091 
L 98.674431 -73.557818 
L 98.667734 -75.534545 
L 98.685668 -77.511273 
L 98.712807 -79.488 
L 98.736647 -81.464727 
L 98.748316 -83.441455 
L 98.742835 -85.418182 
L 98.718655 -87.394909 
L 98.676622 -89.371636 
L 98.618939 -91.348364 
L 98.54868 -93.325091 
L 98.470073 -95.301818 
L 98.389153 -97.278545 
L 98.314088 -99.255273 
L 98.254441 -101.232 
L 98.219185 -103.208727 
L 98.213864 -105.185455 
L 98.237833 -107.162182 
L 98.282648 -109.138909 
L 98.332315 -111.115636 
L 98.365484 -113.092364 
L 98.358957 -115.069091 
L 98.291438 -117.045818 
L 98.14651 -119.022545 
L 97.914209 -120.999273 
L 97.591188 -122.976 
L 97.179864 -124.952727 
L 96.687043 -126.929455 
L 96.122425 -128.906182 
L 95.497182 -130.882909 
L 94.822763 -132.859636 
L 94.110073 -134.836364 
L 93.36919 -136.813091 
L 92.609646 -138.789818 
L 91.841027 -140.766545 
L 91.073478 -142.743273 
L 90.317577 -144.72 
L 89.58329 -146.696727 
L 88.878134 -148.673455 
L 88.205194 -150.650182 
L 87.561986 -152.626909 
L 86.941122 -154.603636 
L 86.333207 -156.580364 
L 85.731532 -158.557091 
L 85.137266 -160.533818 
L 84.56337 -162.510545 
L 84.035711 -164.487273 
L 83.590695 -166.464 
L 83.269884 -168.440727 
L 83.113043 -170.417455 
L 83.151453 -172.394182 
L 83.403084 -174.370909 
L 83.87058 -176.347636 
L 84.542133 -178.324364 
L 85.39467 -180.301091 
L 86.398364 -182.277818 
L 87.521363 -184.254545 
L 88.733799 -186.231273 
L 90.010482 -188.208 
L 91.332053 -190.184727 
L 92.684702 -192.161455 
L 94.058782 -194.138182 
L 95.446673 -196.114909 
L 96.840351 -198.091636 
L 98.229115 -200.068364 
L 99.598035 -202.045091 
L 100.927695 -204.021818 
L 102.195546 -205.998545 
L 103.37882 -207.975273 
L 104.458351 -209.952 
L 105.422277 -211.928727 
L 106.268485 -213.905455 
L 107.004992 -215.882182 
L 107.648058 -217.858909 
L 108.218508 -219.835636 
L 108.737235 -221.812364 
L 109.221051 -223.789091 
L 109.679884 -225.765818 
L 110.11592 -227.742545 
L 110.52472 -229.719273 
L 110.897847 -231.696 
L 113.554327 -231.696 
L 113.554327 -231.696 
L 113.927454 -229.719273 
L 114.336254 -227.742545 
L 114.77229 -225.765818 
L 115.231123 -223.789091 
L 115.714939 -221.812364 
L 116.233666 -219.835636 
L 116.804116 -217.858909 
L 117.447182 -215.882182 
L 118.183689 -213.905455 
L 119.029897 -211.928727 
L 119.993823 -209.952 
L 121.073354 -207.975273 
L 122.256628 -205.998545 
L 123.524479 -204.021818 
L 124.854139 -202.045091 
L 126.223059 -200.068364 
L 127.611823 -198.091636 
L 129.005501 -196.114909 
L 130.393392 -194.138182 
L 131.767472 -192.161455 
L 133.120121 -190.184727 
L 134.441692 -188.208 
L 135.718375 -186.231273 
L 136.930811 -184.254545 
L 138.053809 -182.277818 
L 139.057504 -180.301091 
L 139.910041 -178.324364 
L 140.581594 -176.347636 
L 141.04909 -174.370909 
L 141.300721 -172.394182 
L 141.33913 -170.417455 
L 141.18229 -168.440727 
L 140.861479 -166.464 
L 140.416463 -164.487273 
L 139.888804 -162.510545 
L 139.314908 -160.533818 
L 138.720642 -158.557091 
L 138.118967 -156.580364 
L 137.511051 -154.603636 
L 136.890187 -152.626909 
L 136.24698 -150.650182 
L 135.57404 -148.673455 
L 134.868884 -146.696727 
L 134.134597 -144.72 
L 133.378696 -142.743273 
L 132.611147 -140.766545 
L 131.842528 -138.789818 
L 131.082984 -136.813091 
L 130.342101 -134.836364 
L 129.629411 -132.859636 
L 128.954992 -130.882909 
L 128.329749 -128.906182 
L 127.765131 -126.929455 
L 127.27231 -124.952727 
L 126.860986 -122.976 
L 126.537965 -120.999273 
L 126.305663 -119.022545 
L 126.160736 -117.045818 
L 126.093217 -115.069091 
L 126.08669 -113.092364 
L 126.119859 -111.115636 
L 126.169526 -109.138909 
L 126.21434 -107.162182 
L 126.23831 -105.185455 
L 126.232989 -103.208727 
L 126.197733 -101.232 
L 126.138086 -99.255273 
L 126.06302 -97.278545 
L 125.982101 -95.301818 
L 125.903494 -93.325091 
L 125.833235 -91.348364 
L 125.775552 -89.371636 
L 125.733519 -87.394909 
L 125.709339 -85.418182 
L 125.703858 -83.441455 
L 125.715527 -81.464727 
L 125.739367 -79.488 
L 125.766506 -77.511273 
L 125.78444 -75.534545 
L 125.777743 -73.557818 
L 125.728827 -71.581091 
L 125.61869 -69.604364 
L 125.428082 -67.627636 
L 125.139887 -65.650909 
L 124.74322 -63.674182 
L 124.238958 -61.697455 
L 123.645458 -59.720727 
L 123.002525 -57.744 
L 122.371571 -55.767273 
L 121.830232 -53.790545 
L 121.460568 -51.813818 
L 121.331281 -49.837091 
L 121.476497 -47.860364 
L 121.876314 -45.883636 
L 122.446365 -43.906909 
L 123.043497 -41.930182 
L 123.490747 -39.953455 
L 123.617755 -37.976727 
L 123.305242 -36 
z
" style="stroke: #000000; stroke-opacity: 0.8"/>
    </defs>
    <g clip-path="url(#p9fa960aae7)">
     <use xlink:href="#mcec85dd419" x="0" y="288" style="fill: #add8e6; fill-opacity: 0.8; stroke: #000000; stroke-opacity: 0.8"/>
    </g>
   </g>
   <g id="PolyCollection_2">
    <defs>
     <path id="m4d42e3346d" d="M 230.173695 -36 
L 227.182827 -36 
L 227.026255 -37.952323 
L 226.913165 -39.904646 
L 226.830762 -41.85697 
L 226.754424 -43.809293 
L 226.652443 -45.761616 
L 226.491376 -47.713939 
L 226.240504 -49.666263 
L 225.874981 -51.618586 
L 225.378289 -53.570909 
L 224.744791 -55.523232 
L 223.982556 -57.475556 
L 223.115542 -59.427879 
L 222.183536 -61.380202 
L 221.238474 -63.332525 
L 220.336958 -65.284848 
L 219.53045 -67.237172 
L 218.855889 -69.189495 
L 218.329744 -71.141818 
L 217.947433 -73.094141 
L 217.688289 -75.046465 
L 217.524273 -76.998788 
L 217.429399 -78.951111 
L 217.386588 -80.903434 
L 217.38961 -82.855758 
L 217.439625 -84.808081 
L 217.537976 -86.760404 
L 217.678572 -88.712727 
L 217.843537 -90.665051 
L 218.004503 -92.617374 
L 218.129437 -94.569697 
L 218.192303 -96.52202 
L 218.181447 -98.474343 
L 218.10313 -100.426667 
L 217.978758 -102.37899 
L 217.837077 -104.331313 
L 217.704558 -106.283636 
L 217.597661 -108.23596 
L 217.519543 -110.188283 
L 217.461873 -112.140606 
L 217.410475 -114.092929 
L 217.352394 -116.045253 
L 217.281872 -117.997576 
L 217.203405 -119.949899 
L 217.131154 -121.902222 
L 217.085024 -123.854545 
L 217.084466 -125.806869 
L 217.141547 -127.759192 
L 217.255108 -129.711515 
L 217.407736 -131.663838 
L 217.56674 -133.616162 
L 217.689243 -135.568485 
L 217.730179 -137.520808 
L 217.651022 -139.473131 
L 217.4268 -141.425455 
L 217.049575 -143.377778 
L 216.527729 -145.330101 
L 215.881683 -147.282424 
L 215.137737 -149.234747 
L 214.322145 -151.187071 
L 213.457287 -153.139394 
L 212.560672 -155.091717 
L 211.646106 -157.04404 
L 210.725279 -158.996364 
L 209.808106 -160.948687 
L 208.901345 -162.90101 
L 208.006623 -164.853333 
L 207.119779 -166.805657 
L 206.232863 -168.75798 
L 205.338486 -170.710303 
L 204.434818 -172.662626 
L 203.529185 -174.614949 
L 202.639249 -176.567273 
L 201.792075 -178.519596 
L 201.022279 -180.471919 
L 200.370178 -182.424242 
L 199.879988 -184.376566 
L 199.597328 -186.328889 
L 199.565217 -188.281212 
L 199.818613 -190.233535 
L 200.37871 -192.185859 
L 201.248959 -194.138182 
L 202.414523 -196.090505 
L 203.845496 -198.042828 
L 205.502494 -199.995152 
L 207.34191 -201.947475 
L 209.318344 -203.899798 
L 211.383317 -205.852121 
L 213.481866 -207.804444 
L 215.550388 -209.756768 
L 217.519069 -211.709091 
L 219.320107 -213.661414 
L 220.899734 -215.613737 
L 222.229564 -217.566061 
L 223.31242 -219.518384 
L 224.179833 -221.470707 
L 224.881779 -223.42303 
L 225.472303 -225.375354 
L 225.996019 -227.327677 
L 226.479775 -229.28 
L 230.876747 -229.28 
L 230.876747 -229.28 
L 231.360502 -227.327677 
L 231.884218 -225.375354 
L 232.474742 -223.42303 
L 233.176689 -221.470707 
L 234.044102 -219.518384 
L 235.126958 -217.566061 
L 236.456788 -215.613737 
L 238.036415 -213.661414 
L 239.837453 -211.709091 
L 241.806134 -209.756768 
L 243.874656 -207.804444 
L 245.973205 -205.852121 
L 248.038178 -203.899798 
L 250.014612 -201.947475 
L 251.854028 -199.995152 
L 253.511025 -198.042828 
L 254.941999 -196.090505 
L 256.107562 -194.138182 
L 256.977812 -192.185859 
L 257.537908 -190.233535 
L 257.791304 -188.281212 
L 257.759194 -186.328889 
L 257.476534 -184.376566 
L 256.986344 -182.424242 
L 256.334242 -180.471919 
L 255.564447 -178.519596 
L 254.717273 -176.567273 
L 253.827336 -174.614949 
L 252.921704 -172.662626 
L 252.018035 -170.710303 
L 251.123659 -168.75798 
L 250.236742 -166.805657 
L 249.349899 -164.853333 
L 248.455177 -162.90101 
L 247.548416 -160.948687 
L 246.631243 -158.996364 
L 245.710416 -157.04404 
L 244.79585 -155.091717 
L 243.899235 -153.139394 
L 243.034377 -151.187071 
L 242.218785 -149.234747 
L 241.474838 -147.282424 
L 240.828793 -145.330101 
L 240.306947 -143.377778 
L 239.929722 -141.425455 
L 239.7055 -139.473131 
L 239.626343 -137.520808 
L 239.667279 -135.568485 
L 239.789782 -133.616162 
L 239.948786 -131.663838 
L 240.101414 -129.711515 
L 240.214974 -127.759192 
L 240.272056 -125.806869 
L 240.271497 -123.854545 
L 240.225368 -121.902222 
L 240.153117 -119.949899 
L 240.074649 -117.997576 
L 240.004128 -116.045253 
L 239.946047 -114.092929 
L 239.894649 -112.140606 
L 239.836979 -110.188283 
L 239.758861 -108.23596 
L 239.651963 -106.283636 
L 239.519445 -104.331313 
L 239.377764 -102.37899 
L 239.253392 -100.426667 
L 239.175075 -98.474343 
L 239.164219 -96.52202 
L 239.227085 -94.569697 
L 239.352019 -92.617374 
L 239.512984 -90.665051 
L 239.677949 -88.712727 
L 239.818546 -86.760404 
L 239.916896 -84.808081 
L 239.966912 -82.855758 
L 239.969934 -80.903434 
L 239.927123 -78.951111 
L 239.832249 -76.998788 
L 239.668232 -75.046465 
L 239.409088 -73.094141 
L 239.026778 -71.141818 
L 238.500632 -69.189495 
L 237.826072 -67.237172 
L 237.019563 -65.284848 
L 236.118048 -63.332525 
L 235.172986 -61.380202 
L 234.24098 -59.427879 
L 233.373966 -57.475556 
L 232.611731 -55.523232 
L 231.978233 -53.570909 
L 231.481541 -51.618586 
L 231.116018 -49.666263 
L 230.865146 -47.713939 
L 230.704079 -45.761616 
L 230.602097 -43.809293 
L 230.525759 -41.85697 
L 230.443356 -39.904646 
L 230.330267 -37.952323 
L 230.173695 -36 
z
" style="stroke: #000000; stroke-opacity: 0.8"/>
    </defs>
    <g clip-path="url(#p9fa960aae7)">
     <use xlink:href="#m4d42e3346d" x="0" y="288" style="fill: #a61b1a; fill-opacity: 0.8; stroke: #000000; stroke-opacity: 0.8"/>
    </g>
   </g>
   <g id="PolyCollection_3">
    <defs>
     <path id="m1aa05577de" d="M 345.288816 -48.08 
L 344.972053 -48.08 
L 344.933622 -49.934707 
L 344.884883 -51.789414 
L 344.817358 -53.644121 
L 344.718009 -55.498828 
L 344.569435 -57.353535 
L 344.351462 -59.208242 
L 344.044451 -61.062949 
L 343.634157 -62.917657 
L 343.117174 -64.772364 
L 342.505233 -66.627071 
L 341.82633 -68.481778 
L 341.121327 -70.336485 
L 340.436153 -72.191192 
L 339.811615 -74.045899 
L 339.274115 -75.900606 
L 338.830449 -77.755313 
L 338.468437 -79.61002 
L 338.162788 -81.464727 
L 337.883672 -83.319434 
L 337.604782 -85.174141 
L 337.308392 -87.028848 
L 336.986596 -88.883556 
L 336.639598 -90.738263 
L 336.27281 -92.59297 
L 335.894486 -94.447677 
L 335.514805 -96.302384 
L 335.146233 -98.157091 
L 334.804081 -100.011798 
L 334.505767 -101.866505 
L 334.267835 -103.721212 
L 334.101064 -105.575919 
L 334.005631 -107.430626 
L 333.969109 -109.285333 
L 333.969397 -111.14004 
L 333.982384 -112.994747 
L 333.991597 -114.849455 
L 333.99567 -116.704162 
L 334.010274 -118.558869 
L 334.063649 -120.413576 
L 334.187693 -122.268283 
L 334.408119 -124.12299 
L 334.737016 -125.977697 
L 335.169693 -127.832404 
L 335.685984 -129.687111 
L 336.254965 -131.541818 
L 336.841279 -133.396525 
L 337.41099 -135.251232 
L 337.935056 -137.105939 
L 338.389396 -138.960646 
L 338.752095 -140.815354 
L 338.99987 -142.670061 
L 339.106627 -144.524768 
L 339.046077 -146.379475 
L 338.798383 -148.234182 
L 338.35861 -150.088889 
L 337.743569 -151.943596 
L 336.993901 -153.798303 
L 336.169733 -155.65301 
L 335.340369 -157.507717 
L 334.570454 -159.362424 
L 333.90629 -161.217131 
L 333.365889 -163.071838 
L 332.935016 -164.926545 
L 332.569536 -166.781253 
L 332.202924 -168.63596 
L 331.75743 -170.490667 
L 331.15779 -172.345374 
L 330.346217 -174.200081 
L 329.296142 -176.054788 
L 328.020459 -177.909495 
L 326.569999 -179.764202 
L 325.020887 -181.618909 
L 323.45476 -183.473616 
L 321.940217 -185.328323 
L 320.524093 -187.18303 
L 319.236119 -189.037737 
L 318.102837 -190.892444 
L 317.161228 -192.747152 
L 316.462861 -194.601859 
L 316.065547 -196.456566 
L 316.017391 -198.311273 
L 316.342671 -200.16598 
L 317.037396 -202.020687 
L 318.075966 -203.875394 
L 319.423496 -205.730101 
L 321.045464 -207.584808 
L 322.908939 -209.439515 
L 324.975723 -211.294222 
L 327.193133 -213.148929 
L 329.489651 -215.003636 
L 331.77958 -216.858343 
L 333.975502 -218.713051 
L 336.003113 -220.567758 
L 337.812088 -222.422465 
L 339.379259 -224.277172 
L 340.704372 -226.131879 
L 341.801848 -227.986586 
L 342.692728 -229.841293 
L 343.399553 -231.696 
L 346.861316 -231.696 
L 346.861316 -231.696 
L 347.568141 -229.841293 
L 348.459022 -227.986586 
L 349.556498 -226.131879 
L 350.88161 -224.277172 
L 352.448781 -222.422465 
L 354.257756 -220.567758 
L 356.285367 -218.713051 
L 358.48129 -216.858343 
L 360.771218 -215.003636 
L 363.067737 -213.148929 
L 365.285147 -211.294222 
L 367.35193 -209.439515 
L 369.215405 -207.584808 
L 370.837373 -205.730101 
L 372.184904 -203.875394 
L 373.223474 -202.020687 
L 373.918198 -200.16598 
L 374.243478 -198.311273 
L 374.195323 -196.456566 
L 373.798009 -194.601859 
L 373.099641 -192.747152 
L 372.158033 -190.892444 
L 371.024751 -189.037737 
L 369.736776 -187.18303 
L 368.320653 -185.328323 
L 366.806109 -183.473616 
L 365.239983 -181.618909 
L 363.690871 -179.764202 
L 362.24041 -177.909495 
L 360.964727 -176.054788 
L 359.914652 -174.200081 
L 359.10308 -172.345374 
L 358.50344 -170.490667 
L 358.057946 -168.63596 
L 357.691333 -166.781253 
L 357.325854 -164.926545 
L 356.89498 -163.071838 
L 356.354579 -161.217131 
L 355.690416 -159.362424 
L 354.920501 -157.507717 
L 354.091137 -155.65301 
L 353.266969 -153.798303 
L 352.5173 -151.943596 
L 351.902259 -150.088889 
L 351.462486 -148.234182 
L 351.214793 -146.379475 
L 351.154243 -144.524768 
L 351.260999 -142.670061 
L 351.508775 -140.815354 
L 351.871474 -138.960646 
L 352.325814 -137.105939 
L 352.849879 -135.251232 
L 353.41959 -133.396525 
L 354.005904 -131.541818 
L 354.574885 -129.687111 
L 355.091176 -127.832404 
L 355.523853 -125.977697 
L 355.852751 -124.12299 
L 356.073177 -122.268283 
L 356.197221 -120.413576 
L 356.250596 -118.558869 
L 356.2652 -116.704162 
L 356.269273 -114.849455 
L 356.278485 -112.994747 
L 356.291473 -111.14004 
L 356.291761 -109.285333 
L 356.255239 -107.430626 
L 356.159805 -105.575919 
L 355.993035 -103.721212 
L 355.755102 -101.866505 
L 355.456789 -100.011798 
L 355.114636 -98.157091 
L 354.746065 -96.302384 
L 354.366383 -94.447677 
L 353.98806 -92.59297 
L 353.621272 -90.738263 
L 353.274274 -88.883556 
L 352.952478 -87.028848 
L 352.656088 -85.174141 
L 352.377198 -83.319434 
L 352.098082 -81.464727 
L 351.792432 -79.61002 
L 351.430421 -77.755313 
L 350.986755 -75.900606 
L 350.449254 -74.045899 
L 349.824717 -72.191192 
L 349.139542 -70.336485 
L 348.43454 -68.481778 
L 347.755637 -66.627071 
L 347.143695 -64.772364 
L 346.626712 -62.917657 
L 346.216419 -61.062949 
L 345.909408 -59.208242 
L 345.691435 -57.353535 
L 345.542861 -55.498828 
L 345.443512 -53.644121 
L 345.375987 -51.789414 
L 345.327248 -49.934707 
L 345.288816 -48.08 
z
" style="stroke: #000000; stroke-opacity: 0.8"/>
    </defs>
    <g clip-path="url(#p9fa960aae7)">
     <use xlink:href="#m1aa05577de" x="0" y="288" style="fill: #7f2aff; fill-opacity: 0.8; stroke: #000000; stroke-opacity: 0.8"/>
    </g>
   </g>
   <g id="matplotlib.axis_1">
    <g id="xtick_1">
     <g id="line2d_1">
      <defs>
       <path id="m999a0e721e" d="M 0 0 
L 0 3.5 
" style="stroke: #000000; stroke-width: 0.8"/>
      </defs>
      <g>
       <use xlink:href="#m999a0e721e" x="54" y="252" style="stroke: #000000; stroke-width: 0.8"/>
      </g>
     </g>
     <g id="text_1">
      <!-- current_injection -->
      <g transform="translate(15.354847 350.105405)rotate(-45)scale(0.16 -0.16)">
       <defs>
        <path id="ArialMT-63" d="M 2588 1216 
L 3141 1144 
Q 3050 572 2676 248 
Q 2303 -75 1759 -75 
Q 1078 -75 664 370 
Q 250 816 250 1647 
Q 250 2184 428 2587 
Q 606 2991 970 3192 
Q 1334 3394 1763 3394 
Q 2303 3394 2647 3120 
Q 2991 2847 3088 2344 
L 2541 2259 
Q 2463 2594 2264 2762 
Q 2066 2931 1784 2931 
Q 1359 2931 1093 2626 
Q 828 2322 828 1663 
Q 828 994 1084 691 
Q 1341 388 1753 388 
Q 2084 388 2306 591 
Q 2528 794 2588 1216 
z
" transform="scale(0.015625)"/>
        <path id="ArialMT-75" d="M 2597 0 
L 2597 488 
Q 2209 -75 1544 -75 
Q 1250 -75 995 37 
Q 741 150 617 320 
Q 494 491 444 738 
Q 409 903 409 1263 
L 409 3319 
L 972 3319 
L 972 1478 
Q 972 1038 1006 884 
Q 1059 663 1231 536 
Q 1403 409 1656 409 
Q 1909 409 2131 539 
Q 2353 669 2445 892 
Q 2538 1116 2538 1541 
L 2538 3319 
L 3100 3319 
L 3100 0 
L 2597 0 
z
" transform="scale(0.015625)"/>
        <path id="ArialMT-72" d="M 416 0 
L 416 3319 
L 922 3319 
L 922 2816 
Q 1116 3169 1280 3281 
Q 1444 3394 1641 3394 
Q 1925 3394 2219 3213 
L 2025 2691 
Q 1819 2813 1613 2813 
Q 1428 2813 1281 2702 
Q 1134 2591 1072 2394 
Q 978 2094 978 1738 
L 978 0 
L 416 0 
z
" transform="scale(0.015625)"/>
        <path id="ArialMT-65" d="M 2694 1069 
L 3275 997 
Q 3138 488 2766 206 
Q 2394 -75 1816 -75 
Q 1088 -75 661 373 
Q 234 822 234 1631 
Q 234 2469 665 2931 
Q 1097 3394 1784 3394 
Q 2450 3394 2872 2941 
Q 3294 2488 3294 1666 
Q 3294 1616 3291 1516 
L 816 1516 
Q 847 969 1125 678 
Q 1403 388 1819 388 
Q 2128 388 2347 550 
Q 2566 713 2694 1069 
z
M 847 1978 
L 2700 1978 
Q 2663 2397 2488 2606 
Q 2219 2931 1791 2931 
Q 1403 2931 1139 2672 
Q 875 2413 847 1978 
z
" transform="scale(0.015625)"/>
        <path id="ArialMT-6e" d="M 422 0 
L 422 3319 
L 928 3319 
L 928 2847 
Q 1294 3394 1984 3394 
Q 2284 3394 2536 3286 
Q 2788 3178 2913 3003 
Q 3038 2828 3088 2588 
Q 3119 2431 3119 2041 
L 3119 0 
L 2556 0 
L 2556 2019 
Q 2556 2363 2490 2533 
Q 2425 2703 2258 2804 
Q 2091 2906 1866 2906 
Q 1506 2906 1245 2678 
Q 984 2450 984 1813 
L 984 0 
L 422 0 
z
" transform="scale(0.015625)"/>
        <path id="ArialMT-74" d="M 1650 503 
L 1731 6 
Q 1494 -44 1306 -44 
Q 1000 -44 831 53 
Q 663 150 594 308 
Q 525 466 525 972 
L 525 2881 
L 113 2881 
L 113 3319 
L 525 3319 
L 525 4141 
L 1084 4478 
L 1084 3319 
L 1650 3319 
L 1650 2881 
L 1084 2881 
L 1084 941 
Q 1084 700 1114 631 
Q 1144 563 1211 522 
Q 1278 481 1403 481 
Q 1497 481 1650 503 
z
" transform="scale(0.015625)"/>
        <path id="ArialMT-5f" d="M -97 -1272 
L -97 -866 
L 3631 -866 
L 3631 -1272 
L -97 -1272 
z
" transform="scale(0.015625)"/>
        <path id="ArialMT-69" d="M 425 3934 
L 425 4581 
L 988 4581 
L 988 3934 
L 425 3934 
z
M 425 0 
L 425 3319 
L 988 3319 
L 988 0 
L 425 0 
z
" transform="scale(0.015625)"/>
        <path id="ArialMT-6a" d="M 419 3928 
L 419 4581 
L 981 4581 
L 981 3928 
L 419 3928 
z
M -294 -1288 
L -188 -809 
Q -19 -853 78 -853 
Q 250 -853 334 -739 
Q 419 -625 419 -169 
L 419 3319 
L 981 3319 
L 981 -181 
Q 981 -794 822 -1034 
Q 619 -1347 147 -1347 
Q -81 -1347 -294 -1288 
z
" transform="scale(0.015625)"/>
        <path id="ArialMT-6f" d="M 213 1659 
Q 213 2581 725 3025 
Q 1153 3394 1769 3394 
Q 2453 3394 2887 2945 
Q 3322 2497 3322 1706 
Q 3322 1066 3130 698 
Q 2938 331 2570 128 
Q 2203 -75 1769 -75 
Q 1072 -75 642 372 
Q 213 819 213 1659 
z
M 791 1659 
Q 791 1022 1069 705 
Q 1347 388 1769 388 
Q 2188 388 2466 706 
Q 2744 1025 2744 1678 
Q 2744 2294 2464 2611 
Q 2184 2928 1769 2928 
Q 1347 2928 1069 2612 
Q 791 2297 791 1659 
z
" transform="scale(0.015625)"/>
       </defs>
       <use xlink:href="#ArialMT-63"/>
       <use xlink:href="#ArialMT-75" x="50"/>
       <use xlink:href="#ArialMT-72" x="105.615234"/>
       <use xlink:href="#ArialMT-72" x="138.916016"/>
       <use xlink:href="#ArialMT-65" x="172.216797"/>
       <use xlink:href="#ArialMT-6e" x="227.832031"/>
       <use xlink:href="#ArialMT-74" x="283.447266"/>
       <use xlink:href="#ArialMT-5f" x="311.230469"/>
       <use xlink:href="#ArialMT-69" x="366.845703"/>
       <use xlink:href="#ArialMT-6e" x="389.0625"/>
       <use xlink:href="#ArialMT-6a" x="444.677734"/>
       <use xlink:href="#ArialMT-65" x="466.894531"/>
       <use xlink:href="#ArialMT-63" x="522.509766"/>
       <use xlink:href="#ArialMT-74" x="572.509766"/>
       <use xlink:href="#ArialMT-69" x="600.292969"/>
       <use xlink:href="#ArialMT-6f" x="622.509766"/>
       <use xlink:href="#ArialMT-6e" x="678.125"/>
      </g>
     </g>
    </g>
    <g id="xtick_2">
     <g id="line2d_2">
      <g>
       <use xlink:href="#m999a0e721e" x="170.452174" y="252" style="stroke: #000000; stroke-width: 0.8"/>
      </g>
     </g>
     <g id="text_2">
      <!-- current_injection-iSPN -->
      <g transform="translate(117.103619 379.78798)rotate(-45)scale(0.16 -0.16)">
       <defs>
        <path id="ArialMT-2d" d="M 203 1375 
L 203 1941 
L 1931 1941 
L 1931 1375 
L 203 1375 
z
" transform="scale(0.015625)"/>
        <path id="ArialMT-53" d="M 288 1472 
L 859 1522 
Q 900 1178 1048 958 
Q 1197 738 1509 602 
Q 1822 466 2213 466 
Q 2559 466 2825 569 
Q 3091 672 3220 851 
Q 3350 1031 3350 1244 
Q 3350 1459 3225 1620 
Q 3100 1781 2813 1891 
Q 2628 1963 1997 2114 
Q 1366 2266 1113 2400 
Q 784 2572 623 2826 
Q 463 3081 463 3397 
Q 463 3744 659 4045 
Q 856 4347 1234 4503 
Q 1613 4659 2075 4659 
Q 2584 4659 2973 4495 
Q 3363 4331 3572 4012 
Q 3781 3694 3797 3291 
L 3216 3247 
Q 3169 3681 2898 3903 
Q 2628 4125 2100 4125 
Q 1550 4125 1298 3923 
Q 1047 3722 1047 3438 
Q 1047 3191 1225 3031 
Q 1400 2872 2139 2705 
Q 2878 2538 3153 2413 
Q 3553 2228 3743 1945 
Q 3934 1663 3934 1294 
Q 3934 928 3725 604 
Q 3516 281 3123 101 
Q 2731 -78 2241 -78 
Q 1619 -78 1198 103 
Q 778 284 539 648 
Q 300 1013 288 1472 
z
" transform="scale(0.015625)"/>
        <path id="ArialMT-50" d="M 494 0 
L 494 4581 
L 2222 4581 
Q 2678 4581 2919 4538 
Q 3256 4481 3484 4323 
Q 3713 4166 3852 3881 
Q 3991 3597 3991 3256 
Q 3991 2672 3619 2267 
Q 3247 1863 2275 1863 
L 1100 1863 
L 1100 0 
L 494 0 
z
M 1100 2403 
L 2284 2403 
Q 2872 2403 3119 2622 
Q 3366 2841 3366 3238 
Q 3366 3525 3220 3729 
Q 3075 3934 2838 4000 
Q 2684 4041 2272 4041 
L 1100 4041 
L 1100 2403 
z
" transform="scale(0.015625)"/>
        <path id="ArialMT-4e" d="M 488 0 
L 488 4581 
L 1109 4581 
L 3516 984 
L 3516 4581 
L 4097 4581 
L 4097 0 
L 3475 0 
L 1069 3600 
L 1069 0 
L 488 0 
z
" transform="scale(0.015625)"/>
       </defs>
       <use xlink:href="#ArialMT-63"/>
       <use xlink:href="#ArialMT-75" x="50"/>
       <use xlink:href="#ArialMT-72" x="105.615234"/>
       <use xlink:href="#ArialMT-72" x="138.916016"/>
       <use xlink:href="#ArialMT-65" x="172.216797"/>
       <use xlink:href="#ArialMT-6e" x="227.832031"/>
       <use xlink:href="#ArialMT-74" x="283.447266"/>
       <use xlink:href="#ArialMT-5f" x="311.230469"/>
       <use xlink:href="#ArialMT-69" x="366.845703"/>
       <use xlink:href="#ArialMT-6e" x="389.0625"/>
       <use xlink:href="#ArialMT-6a" x="444.677734"/>
       <use xlink:href="#ArialMT-65" x="466.894531"/>
       <use xlink:href="#ArialMT-63" x="522.509766"/>
       <use xlink:href="#ArialMT-74" x="572.509766"/>
       <use xlink:href="#ArialMT-69" x="600.292969"/>
       <use xlink:href="#ArialMT-6f" x="622.509766"/>
       <use xlink:href="#ArialMT-6e" x="678.125"/>
       <use xlink:href="#ArialMT-2d" x="733.740234"/>
       <use xlink:href="#ArialMT-69" x="767.041016"/>
       <use xlink:href="#ArialMT-53" x="789.257812"/>
       <use xlink:href="#ArialMT-50" x="855.957031"/>
       <use xlink:href="#ArialMT-4e" x="922.65625"/>
      </g>
     </g>
    </g>
    <g id="xtick_3">
     <g id="line2d_3">
      <g>
       <use xlink:href="#m999a0e721e" x="286.904348" y="252" style="stroke: #000000; stroke-width: 0.8"/>
      </g>
     </g>
     <g id="text_3">
      <!-- current_injection-SPN -->
      <g transform="translate(234.812675 377.274216)rotate(-45)scale(0.16 -0.16)">
       <use xlink:href="#ArialMT-63"/>
       <use xlink:href="#ArialMT-75" x="50"/>
       <use xlink:href="#ArialMT-72" x="105.615234"/>
       <use xlink:href="#ArialMT-72" x="138.916016"/>
       <use xlink:href="#ArialMT-65" x="172.216797"/>
       <use xlink:href="#ArialMT-6e" x="227.832031"/>
       <use xlink:href="#ArialMT-74" x="283.447266"/>
       <use xlink:href="#ArialMT-5f" x="311.230469"/>
       <use xlink:href="#ArialMT-69" x="366.845703"/>
       <use xlink:href="#ArialMT-6e" x="389.0625"/>
       <use xlink:href="#ArialMT-6a" x="444.677734"/>
       <use xlink:href="#ArialMT-65" x="466.894531"/>
       <use xlink:href="#ArialMT-63" x="522.509766"/>
       <use xlink:href="#ArialMT-74" x="572.509766"/>
       <use xlink:href="#ArialMT-69" x="600.292969"/>
       <use xlink:href="#ArialMT-6f" x="622.509766"/>
       <use xlink:href="#ArialMT-6e" x="678.125"/>
       <use xlink:href="#ArialMT-2d" x="733.740234"/>
       <use xlink:href="#ArialMT-53" x="767.041016"/>
       <use xlink:href="#ArialMT-50" x="833.740234"/>
       <use xlink:href="#ArialMT-4e" x="900.439453"/>
      </g>
     </g>
    </g>
   </g>
   <g id="matplotlib.axis_2">
    <g id="ytick_1">
     <g id="line2d_4">
      <defs>
       <path id="mf306f110f1" d="M 0 0 
L -3.5 0 
" style="stroke: #000000; stroke-width: 0.8"/>
      </defs>
      <g>
       <use xlink:href="#mf306f110f1" x="54" y="252" style="stroke: #000000; stroke-width: 0.8"/>
      </g>
     </g>
     <g id="text_4">
      <!-- 0 -->
      <g transform="translate(38.0925 257.318906)scale(0.14 -0.14)">
       <defs>
        <path id="DejaVuSans-30" d="M 2034 4250 
Q 1547 4250 1301 3770 
Q 1056 3291 1056 2328 
Q 1056 1369 1301 889 
Q 1547 409 2034 409 
Q 2525 409 2770 889 
Q 3016 1369 3016 2328 
Q 3016 3291 2770 3770 
Q 2525 4250 2034 4250 
z
M 2034 4750 
Q 2819 4750 3233 4129 
Q 3647 3509 3647 2328 
Q 3647 1150 3233 529 
Q 2819 -91 2034 -91 
Q 1250 -91 836 529 
Q 422 1150 422 2328 
Q 422 3509 836 4129 
Q 1250 4750 2034 4750 
z
" transform="scale(0.015625)"/>
       </defs>
       <use xlink:href="#DejaVuSans-30"/>
      </g>
     </g>
    </g>
    <g id="ytick_2">
     <g id="line2d_5">
      <g>
       <use xlink:href="#mf306f110f1" x="54" y="227.84" style="stroke: #000000; stroke-width: 0.8"/>
      </g>
     </g>
     <g id="text_5">
      <!-- 5 -->
      <g transform="translate(38.0925 233.158906)scale(0.14 -0.14)">
       <defs>
        <path id="DejaVuSans-35" d="M 691 4666 
L 3169 4666 
L 3169 4134 
L 1269 4134 
L 1269 2991 
Q 1406 3038 1543 3061 
Q 1681 3084 1819 3084 
Q 2600 3084 3056 2656 
Q 3513 2228 3513 1497 
Q 3513 744 3044 326 
Q 2575 -91 1722 -91 
Q 1428 -91 1123 -41 
Q 819 9 494 109 
L 494 744 
Q 775 591 1075 516 
Q 1375 441 1709 441 
Q 2250 441 2565 725 
Q 2881 1009 2881 1497 
Q 2881 1984 2565 2268 
Q 2250 2553 1709 2553 
Q 1456 2553 1204 2497 
Q 953 2441 691 2322 
L 691 4666 
z
" transform="scale(0.015625)"/>
       </defs>
       <use xlink:href="#DejaVuSans-35"/>
      </g>
     </g>
    </g>
    <g id="ytick_3">
     <g id="line2d_6">
      <g>
       <use xlink:href="#mf306f110f1" x="54" y="203.68" style="stroke: #000000; stroke-width: 0.8"/>
      </g>
     </g>
     <g id="text_6">
      <!-- 10 -->
      <g transform="translate(29.185 208.998906)scale(0.14 -0.14)">
       <defs>
        <path id="DejaVuSans-31" d="M 794 531 
L 1825 531 
L 1825 4091 
L 703 3866 
L 703 4441 
L 1819 4666 
L 2450 4666 
L 2450 531 
L 3481 531 
L 3481 0 
L 794 0 
L 794 531 
z
" transform="scale(0.015625)"/>
       </defs>
       <use xlink:href="#DejaVuSans-31"/>
       <use xlink:href="#DejaVuSans-30" x="63.623047"/>
      </g>
     </g>
    </g>
    <g id="ytick_4">
     <g id="line2d_7">
      <g>
       <use xlink:href="#mf306f110f1" x="54" y="179.52" style="stroke: #000000; stroke-width: 0.8"/>
      </g>
     </g>
     <g id="text_7">
      <!-- 15 -->
      <g transform="translate(29.185 184.838906)scale(0.14 -0.14)">
       <use xlink:href="#DejaVuSans-31"/>
       <use xlink:href="#DejaVuSans-35" x="63.623047"/>
      </g>
     </g>
    </g>
    <g id="ytick_5">
     <g id="line2d_8">
      <g>
       <use xlink:href="#mf306f110f1" x="54" y="155.36" style="stroke: #000000; stroke-width: 0.8"/>
      </g>
     </g>
     <g id="text_8">
      <!-- 20 -->
      <g transform="translate(29.185 160.678906)scale(0.14 -0.14)">
       <defs>
        <path id="DejaVuSans-32" d="M 1228 531 
L 3431 531 
L 3431 0 
L 469 0 
L 469 531 
Q 828 903 1448 1529 
Q 2069 2156 2228 2338 
Q 2531 2678 2651 2914 
Q 2772 3150 2772 3378 
Q 2772 3750 2511 3984 
Q 2250 4219 1831 4219 
Q 1534 4219 1204 4116 
Q 875 4013 500 3803 
L 500 4441 
Q 881 4594 1212 4672 
Q 1544 4750 1819 4750 
Q 2544 4750 2975 4387 
Q 3406 4025 3406 3419 
Q 3406 3131 3298 2873 
Q 3191 2616 2906 2266 
Q 2828 2175 2409 1742 
Q 1991 1309 1228 531 
z
" transform="scale(0.015625)"/>
       </defs>
       <use xlink:href="#DejaVuSans-32"/>
       <use xlink:href="#DejaVuSans-30" x="63.623047"/>
      </g>
     </g>
    </g>
    <g id="ytick_6">
     <g id="line2d_9">
      <g>
       <use xlink:href="#mf306f110f1" x="54" y="131.2" style="stroke: #000000; stroke-width: 0.8"/>
      </g>
     </g>
     <g id="text_9">
      <!-- 25 -->
      <g transform="translate(29.185 136.518906)scale(0.14 -0.14)">
       <use xlink:href="#DejaVuSans-32"/>
       <use xlink:href="#DejaVuSans-35" x="63.623047"/>
      </g>
     </g>
    </g>
    <g id="ytick_7">
     <g id="line2d_10">
      <g>
       <use xlink:href="#mf306f110f1" x="54" y="107.04" style="stroke: #000000; stroke-width: 0.8"/>
      </g>
     </g>
     <g id="text_10">
      <!-- 30 -->
      <g transform="translate(29.185 112.358906)scale(0.14 -0.14)">
       <defs>
        <path id="DejaVuSans-33" d="M 2597 2516 
Q 3050 2419 3304 2112 
Q 3559 1806 3559 1356 
Q 3559 666 3084 287 
Q 2609 -91 1734 -91 
Q 1441 -91 1130 -33 
Q 819 25 488 141 
L 488 750 
Q 750 597 1062 519 
Q 1375 441 1716 441 
Q 2309 441 2620 675 
Q 2931 909 2931 1356 
Q 2931 1769 2642 2001 
Q 2353 2234 1838 2234 
L 1294 2234 
L 1294 2753 
L 1863 2753 
Q 2328 2753 2575 2939 
Q 2822 3125 2822 3475 
Q 2822 3834 2567 4026 
Q 2313 4219 1838 4219 
Q 1578 4219 1281 4162 
Q 984 4106 628 3988 
L 628 4550 
Q 988 4650 1302 4700 
Q 1616 4750 1894 4750 
Q 2613 4750 3031 4423 
Q 3450 4097 3450 3541 
Q 3450 3153 3228 2886 
Q 3006 2619 2597 2516 
z
" transform="scale(0.015625)"/>
       </defs>
       <use xlink:href="#DejaVuSans-33"/>
       <use xlink:href="#DejaVuSans-30" x="63.623047"/>
      </g>
     </g>
    </g>
    <g id="ytick_8">
     <g id="line2d_11">
      <g>
       <use xlink:href="#mf306f110f1" x="54" y="82.88" style="stroke: #000000; stroke-width: 0.8"/>
      </g>
     </g>
     <g id="text_11">
      <!-- 35 -->
      <g transform="translate(29.185 88.198906)scale(0.14 -0.14)">
       <use xlink:href="#DejaVuSans-33"/>
       <use xlink:href="#DejaVuSans-35" x="63.623047"/>
      </g>
     </g>
    </g>
    <g id="ytick_9">
     <g id="line2d_12">
      <g>
       <use xlink:href="#mf306f110f1" x="54" y="58.72" style="stroke: #000000; stroke-width: 0.8"/>
      </g>
     </g>
     <g id="text_12">
      <!-- 40 -->
      <g transform="translate(29.185 64.038906)scale(0.14 -0.14)">
       <defs>
        <path id="DejaVuSans-34" d="M 2419 4116 
L 825 1625 
L 2419 1625 
L 2419 4116 
z
M 2253 4666 
L 3047 4666 
L 3047 1625 
L 3713 1625 
L 3713 1100 
L 3047 1100 
L 3047 0 
L 2419 0 
L 2419 1100 
L 313 1100 
L 313 1709 
L 2253 4666 
z
" transform="scale(0.015625)"/>
       </defs>
       <use xlink:href="#DejaVuSans-34"/>
       <use xlink:href="#DejaVuSans-30" x="63.623047"/>
      </g>
     </g>
    </g>
    <g id="ytick_10">
     <g id="line2d_13">
      <g>
       <use xlink:href="#mf306f110f1" x="54" y="34.56" style="stroke: #000000; stroke-width: 0.8"/>
      </g>
     </g>
     <g id="text_13">
      <!-- 45 -->
      <g transform="translate(29.185 39.878906)scale(0.14 -0.14)">
       <use xlink:href="#DejaVuSans-34"/>
       <use xlink:href="#DejaVuSans-35" x="63.623047"/>
      </g>
     </g>
    </g>
    <g id="text_14">
     <!-- Frequency (Hz) -->
     <g transform="translate(21.8175 198.40125)rotate(-90)scale(0.16 -0.16)">
      <defs>
       <path id="ArialMT-46" d="M 525 0 
L 525 4581 
L 3616 4581 
L 3616 4041 
L 1131 4041 
L 1131 2622 
L 3281 2622 
L 3281 2081 
L 1131 2081 
L 1131 0 
L 525 0 
z
" transform="scale(0.015625)"/>
       <path id="ArialMT-71" d="M 2538 -1272 
L 2538 353 
Q 2406 169 2170 47 
Q 1934 -75 1669 -75 
Q 1078 -75 651 397 
Q 225 869 225 1691 
Q 225 2191 398 2587 
Q 572 2984 901 3189 
Q 1231 3394 1625 3394 
Q 2241 3394 2594 2875 
L 2594 3319 
L 3100 3319 
L 3100 -1272 
L 2538 -1272 
z
M 803 1669 
Q 803 1028 1072 708 
Q 1341 388 1716 388 
Q 2075 388 2334 692 
Q 2594 997 2594 1619 
Q 2594 2281 2320 2615 
Q 2047 2950 1678 2950 
Q 1313 2950 1058 2639 
Q 803 2328 803 1669 
z
" transform="scale(0.015625)"/>
       <path id="ArialMT-79" d="M 397 -1278 
L 334 -750 
Q 519 -800 656 -800 
Q 844 -800 956 -737 
Q 1069 -675 1141 -563 
Q 1194 -478 1313 -144 
Q 1328 -97 1363 -6 
L 103 3319 
L 709 3319 
L 1400 1397 
Q 1534 1031 1641 628 
Q 1738 1016 1872 1384 
L 2581 3319 
L 3144 3319 
L 1881 -56 
Q 1678 -603 1566 -809 
Q 1416 -1088 1222 -1217 
Q 1028 -1347 759 -1347 
Q 597 -1347 397 -1278 
z
" transform="scale(0.015625)"/>
       <path id="ArialMT-20" transform="scale(0.015625)"/>
       <path id="ArialMT-28" d="M 1497 -1347 
Q 1031 -759 709 28 
Q 388 816 388 1659 
Q 388 2403 628 3084 
Q 909 3875 1497 4659 
L 1900 4659 
Q 1522 4009 1400 3731 
Q 1209 3300 1100 2831 
Q 966 2247 966 1656 
Q 966 153 1900 -1347 
L 1497 -1347 
z
" transform="scale(0.015625)"/>
       <path id="ArialMT-48" d="M 513 0 
L 513 4581 
L 1119 4581 
L 1119 2700 
L 3500 2700 
L 3500 4581 
L 4106 4581 
L 4106 0 
L 3500 0 
L 3500 2159 
L 1119 2159 
L 1119 0 
L 513 0 
z
" transform="scale(0.015625)"/>
       <path id="ArialMT-7a" d="M 125 0 
L 125 456 
L 2238 2881 
Q 1878 2863 1603 2863 
L 250 2863 
L 250 3319 
L 2963 3319 
L 2963 2947 
L 1166 841 
L 819 456 
Q 1197 484 1528 484 
L 3063 484 
L 3063 0 
L 125 0 
z
" transform="scale(0.015625)"/>
       <path id="ArialMT-29" d="M 791 -1347 
L 388 -1347 
Q 1322 153 1322 1656 
Q 1322 2244 1188 2822 
Q 1081 3291 891 3722 
Q 769 4003 388 4659 
L 791 4659 
Q 1378 3875 1659 3084 
Q 1900 2403 1900 1659 
Q 1900 816 1576 28 
Q 1253 -759 791 -1347 
z
" transform="scale(0.015625)"/>
      </defs>
      <use xlink:href="#ArialMT-46"/>
      <use xlink:href="#ArialMT-72" x="61.083984"/>
      <use xlink:href="#ArialMT-65" x="94.384766"/>
      <use xlink:href="#ArialMT-71" x="150"/>
      <use xlink:href="#ArialMT-75" x="205.615234"/>
      <use xlink:href="#ArialMT-65" x="261.230469"/>
      <use xlink:href="#ArialMT-6e" x="316.845703"/>
      <use xlink:href="#ArialMT-63" x="372.460938"/>
      <use xlink:href="#ArialMT-79" x="422.460938"/>
      <use xlink:href="#ArialMT-20" x="472.460938"/>
      <use xlink:href="#ArialMT-28" x="500.244141"/>
      <use xlink:href="#ArialMT-48" x="533.544922"/>
      <use xlink:href="#ArialMT-7a" x="605.761719"/>
      <use xlink:href="#ArialMT-29" x="655.761719"/>
     </g>
    </g>
   </g>
   <g id="LineCollection_1">
    <path d="M 97.669565 154.483314 
L 126.782609 154.483314 
" clip-path="url(#p9fa960aae7)" style="fill: none; stroke: #000000; stroke-width: 1.6"/>
    <path d="M 214.121739 137.495222 
L 243.234783 137.495222 
" clip-path="url(#p9fa960aae7)" style="fill: none; stroke: #000000; stroke-width: 1.6"/>
    <path d="M 330.573913 125.030268 
L 359.686957 125.030268 
" clip-path="url(#p9fa960aae7)" style="fill: none; stroke: #000000; stroke-width: 1.6"/>
   </g>
   <g id="LineCollection_2">
    <path d="M 97.669565 56.304 
L 126.782609 56.304 
" clip-path="url(#p9fa960aae7)" style="fill: none; stroke: #000000; stroke-width: 1.6"/>
    <path d="M 214.121739 58.72 
L 243.234783 58.72 
" clip-path="url(#p9fa960aae7)" style="fill: none; stroke: #000000; stroke-width: 1.6"/>
    <path d="M 330.573913 56.304 
L 359.686957 56.304 
" clip-path="url(#p9fa960aae7)" style="fill: none; stroke: #000000; stroke-width: 1.6"/>
   </g>
   <g id="LineCollection_3">
    <path d="M 97.669565 252 
L 126.782609 252 
" clip-path="url(#p9fa960aae7)" style="fill: none; stroke: #000000; stroke-width: 1.6"/>
    <path d="M 214.121739 252 
L 243.234783 252 
" clip-path="url(#p9fa960aae7)" style="fill: none; stroke: #000000; stroke-width: 1.6"/>
    <path d="M 330.573913 239.92 
L 359.686957 239.92 
" clip-path="url(#p9fa960aae7)" style="fill: none; stroke: #000000; stroke-width: 1.6"/>
   </g>
   <g id="LineCollection_4">
    <path d="M 112.226087 252 
L 112.226087 56.304 
" clip-path="url(#p9fa960aae7)" style="fill: none; stroke: #000000; stroke-width: 1.6"/>
    <path d="M 228.678261 252 
L 228.678261 58.72 
" clip-path="url(#p9fa960aae7)" style="fill: none; stroke: #000000; stroke-width: 1.6"/>
    <path d="M 345.130435 239.92 
L 345.130435 56.304 
" clip-path="url(#p9fa960aae7)" style="fill: none; stroke: #000000; stroke-width: 1.6"/>
   </g>
   <g id="patch_3">
    <path d="M 54 252 
L 54 34.56 
" style="fill: none; stroke: #000000; stroke-width: 0.8; stroke-linejoin: miter; stroke-linecap: square"/>
   </g>
   <g id="patch_4">
    <path d="M 388.8 252 
L 388.8 34.56 
" style="fill: none; stroke: #000000; stroke-width: 0.8; stroke-linejoin: miter; stroke-linecap: square"/>
   </g>
   <g id="patch_5">
    <path d="M 54 252 
L 388.8 252 
" style="fill: none; stroke: #000000; stroke-width: 0.8; stroke-linejoin: miter; stroke-linecap: square"/>
   </g>
   <g id="patch_6">
    <path d="M 54 34.56 
L 388.8 34.56 
" style="fill: none; stroke: #000000; stroke-width: 0.8; stroke-linejoin: miter; stroke-linecap: square"/>
   </g>
  </g>
 </g>
 <defs>
  <clipPath id="p9fa960aae7">
   <rect x="54" y="34.56" width="334.8" height="217.44"/>
  </clipPath>
 </defs>
</svg>
