<?xml version="1.0" encoding="utf-8" standalone="no"?>
<!DOCTYPE svg PUBLIC "-//W3C//DTD SVG 1.1//EN"
  "http://www.w3.org/Graphics/SVG/1.1/DTD/svg11.dtd">
<svg xmlns:xlink="http://www.w3.org/1999/xlink" width="432pt" height="288pt" viewBox="0 0 432 288" xmlns="http://www.w3.org/2000/svg" version="1.1">
 <metadata>
  <rdf:RDF xmlns:dc="http://purl.org/dc/elements/1.1/" xmlns:cc="http://creativecommons.org/ns#" xmlns:rdf="http://www.w3.org/1999/02/22-rdf-syntax-ns#">
   <cc:Work>
    <dc:type rdf:resource="http://purl.org/dc/dcmitype/StillImage"/>
    <dc:date>2022-10-30T19:48:06.310642</dc:date>
    <dc:format>image/svg+xml</dc:format>
    <dc:creator>
     <cc:Agent>
      <dc:title>Matplotlib v3.5.2, https://matplotlib.org/</dc:title>
     </cc:Agent>
    </dc:creator>
   </cc:Work>
  </rdf:RDF>
 </metadata>
 <defs>
  <style type="text/css">*{stroke-linejoin: round; stroke-linecap: butt}</style>
 </defs>
 <g id="figure_1">
  <g id="patch_1">
   <path d="M 0 288 
L 432 288 
L 432 0 
L 0 0 
L 0 288 
z
" style="fill: none"/>
  </g>
  <g id="axes_1">
   <g id="patch_2">
    <path d="M 54 252 
L 388.8 252 
L 388.8 34.56 
L 54 34.56 
z
" style="fill: #ffffff"/>
   </g>
   <g id="PolyCollection_1">
    <defs>
     <path id="mf853e8901b" d="M 126.5338 -36 
L 97.918374 -36 
L 97.585385 -37.854707 
L 97.835826 -39.709414 
L 98.481811 -41.564121 
L 99.276831 -43.418828 
L 99.985625 -45.273535 
L 100.441092 -47.128242 
L 100.572037 -48.982949 
L 100.398571 -50.837657 
L 100.003363 -52.692364 
L 99.493097 -54.547071 
L 98.964527 -56.401778 
L 98.484619 -58.256485 
L 98.086659 -60.111192 
L 97.777589 -61.965899 
L 97.549071 -63.820606 
L 97.386659 -65.675313 
L 97.275371 -67.53002 
L 97.202592 -69.384727 
L 97.159326 -71.239434 
L 97.139821 -73.094141 
L 97.139561 -74.948848 
L 97.152812 -76.803556 
L 97.171552 -78.658263 
L 97.186582 -80.51297 
L 97.189884 -82.367677 
L 97.176554 -84.222384 
L 97.14555 -86.077091 
L 97.099555 -87.931798 
L 97.044209 -89.786505 
L 96.986196 -91.641212 
L 96.92974 -93.495919 
L 96.872486 -95.350626 
L 96.803018 -97.205333 
L 96.701851 -99.06004 
L 96.545619 -100.914747 
L 96.312453 -102.769455 
L 95.986453 -104.624162 
L 95.560349 -106.478869 
L 95.036267 -108.333576 
L 94.424643 -110.188283 
L 93.741534 -112.04299 
L 93.005417 -113.897697 
L 92.23514 -115.752404 
L 91.449671 -117.607111 
L 90.6683 -119.461818 
L 89.909145 -121.316525 
L 89.185564 -123.171232 
L 88.502738 -125.025939 
L 87.857386 -126.880646 
L 87.241184 -128.735354 
L 86.645593 -130.590061 
L 86.065378 -132.444768 
L 85.500257 -134.299475 
L 84.95593 -136.154182 
L 84.445082 -138.008889 
L 83.987054 -139.863596 
L 83.60484 -141.718303 
L 83.320485 -143.57301 
L 83.15193 -145.427717 
L 83.113043 -147.282424 
L 83.214989 -149.137131 
L 83.465366 -150.991838 
L 83.864093 -152.846545 
L 84.399192 -154.701253 
L 85.046921 -156.55596 
L 85.777393 -158.410667 
L 86.56247 -160.265374 
L 87.381599 -162.120081 
L 88.223853 -163.974788 
L 89.087466 -165.829495 
L 89.978377 -167.684202 
L 90.90766 -169.538909 
L 91.887139 -171.393616 
L 92.924129 -173.248323 
L 94.017985 -175.10303 
L 95.160387 -176.957737 
L 96.338372 -178.812444 
L 97.537088 -180.667152 
L 98.740245 -182.521859 
L 99.929104 -184.376566 
L 101.082541 -186.231273 
L 102.179603 -188.08598 
L 103.203531 -189.940687 
L 104.14491 -191.795394 
L 105.002456 -193.650101 
L 105.781642 -195.504808 
L 106.492278 -197.359515 
L 107.145896 -199.214222 
L 107.753286 -201.068929 
L 108.322499 -202.923636 
L 108.857811 -204.778343 
L 109.359994 -206.633051 
L 109.827537 -208.487758 
L 110.257954 -210.342465 
L 110.648473 -212.197172 
L 110.99614 -214.051879 
L 111.297912 -215.906586 
L 111.551297 -217.761293 
L 111.755461 -219.616 
L 112.696713 -219.616 
L 112.696713 -219.616 
L 112.900877 -217.761293 
L 113.154261 -215.906586 
L 113.456034 -214.051879 
L 113.8037 -212.197172 
L 114.19422 -210.342465 
L 114.624637 -208.487758 
L 115.092179 -206.633051 
L 115.594363 -204.778343 
L 116.129675 -202.923636 
L 116.698888 -201.068929 
L 117.306278 -199.214222 
L 117.959895 -197.359515 
L 118.670532 -195.504808 
L 119.449718 -193.650101 
L 120.307264 -191.795394 
L 121.248643 -189.940687 
L 122.272571 -188.08598 
L 123.369633 -186.231273 
L 124.52307 -184.376566 
L 125.711929 -182.521859 
L 126.915086 -180.667152 
L 128.113802 -178.812444 
L 129.291787 -176.957737 
L 130.434189 -175.10303 
L 131.528045 -173.248323 
L 132.565035 -171.393616 
L 133.544514 -169.538909 
L 134.473797 -167.684202 
L 135.364708 -165.829495 
L 136.228321 -163.974788 
L 137.070575 -162.120081 
L 137.889703 -160.265374 
L 138.674781 -158.410667 
L 139.405253 -156.55596 
L 140.052982 -154.701253 
L 140.588081 -152.846545 
L 140.986808 -150.991838 
L 141.237185 -149.137131 
L 141.33913 -147.282424 
L 141.300244 -145.427717 
L 141.131689 -143.57301 
L 140.847334 -141.718303 
L 140.46512 -139.863596 
L 140.007092 -138.008889 
L 139.496244 -136.154182 
L 138.951917 -134.299475 
L 138.386796 -132.444768 
L 137.806581 -130.590061 
L 137.21099 -128.735354 
L 136.594788 -126.880646 
L 135.949436 -125.025939 
L 135.26661 -123.171232 
L 134.543029 -121.316525 
L 133.783874 -119.461818 
L 133.002502 -117.607111 
L 132.217034 -115.752404 
L 131.446757 -113.897697 
L 130.71064 -112.04299 
L 130.027531 -110.188283 
L 129.415907 -108.333576 
L 128.891825 -106.478869 
L 128.465721 -104.624162 
L 128.139721 -102.769455 
L 127.906554 -100.914747 
L 127.750323 -99.06004 
L 127.649156 -97.205333 
L 127.579688 -95.350626 
L 127.522433 -93.495919 
L 127.465978 -91.641212 
L 127.407965 -89.786505 
L 127.352619 -87.931798 
L 127.306624 -86.077091 
L 127.27562 -84.222384 
L 127.26229 -82.367677 
L 127.265592 -80.51297 
L 127.280622 -78.658263 
L 127.299362 -76.803556 
L 127.312613 -74.948848 
L 127.312353 -73.094141 
L 127.292848 -71.239434 
L 127.249582 -69.384727 
L 127.176803 -67.53002 
L 127.065515 -65.675313 
L 126.903103 -63.820606 
L 126.674585 -61.965899 
L 126.365515 -60.111192 
L 125.967555 -58.256485 
L 125.487647 -56.401778 
L 124.959077 -54.547071 
L 124.448811 -52.692364 
L 124.053603 -50.837657 
L 123.880137 -48.982949 
L 124.011082 -47.128242 
L 124.466549 -45.273535 
L 125.175343 -43.418828 
L 125.970363 -41.564121 
L 126.616347 -39.709414 
L 126.866789 -37.854707 
L 126.5338 -36 
z
" style="stroke: #000000; stroke-opacity: 0.8"/>
    </defs>
    <g clip-path="url(#p98ef17a399)">
     <use xlink:href="#mf853e8901b" x="0" y="288" style="fill: #add8e6; fill-opacity: 0.8; stroke: #000000; stroke-opacity: 0.8"/>
    </g>
   </g>
   <g id="PolyCollection_2">
    <defs>
     <path id="m86d8e7db93" d="M 230.647679 -36 
L 226.708843 -36 
L 226.405891 -37.854707 
L 226.101155 -39.709414 
L 225.776856 -41.564121 
L 225.411576 -43.418828 
L 224.985731 -45.273535 
L 224.486436 -47.128242 
L 223.911016 -48.982949 
L 223.267869 -50.837657 
L 222.573526 -52.692364 
L 221.846903 -54.547071 
L 221.104426 -56.401778 
L 220.359633 -58.256485 
L 219.626929 -60.111192 
L 218.924838 -61.965899 
L 218.274347 -63.820606 
L 217.693206 -65.675313 
L 217.191902 -67.53002 
L 216.775599 -69.384727 
L 216.449631 -71.239434 
L 216.221619 -73.094141 
L 216.096456 -74.948848 
L 216.068328 -76.803556 
L 216.117675 -78.658263 
L 216.216497 -80.51297 
L 216.337536 -82.367677 
L 216.460262 -84.222384 
L 216.571292 -86.077091 
L 216.662578 -87.931798 
L 216.730884 -89.786505 
L 216.777683 -91.641212 
L 216.806283 -93.495919 
L 216.816044 -95.350626 
L 216.798022 -97.205333 
L 216.736319 -99.06004 
L 216.614656 -100.914747 
L 216.423941 -102.769455 
L 216.167719 -104.624162 
L 215.865582 -106.478869 
L 215.554674 -108.333576 
L 215.286141 -110.188283 
L 215.112745 -112.04299 
L 215.069509 -113.897697 
L 215.156944 -115.752404 
L 215.337455 -117.607111 
L 215.547367 -119.461818 
L 215.716706 -121.316525 
L 215.785687 -123.171232 
L 215.712341 -125.025939 
L 215.472813 -126.880646 
L 215.058212 -128.735354 
L 214.470162 -130.590061 
L 213.716303 -132.444768 
L 212.808139 -134.299475 
L 211.763134 -136.154182 
L 210.60865 -138.008889 
L 209.381842 -139.863596 
L 208.122822 -141.718303 
L 206.866434 -143.57301 
L 205.641265 -145.427717 
L 204.477173 -147.282424 
L 203.411655 -149.137131 
L 202.484204 -150.991838 
L 201.719864 -152.846545 
L 201.116151 -154.701253 
L 200.646214 -156.55596 
L 200.276193 -158.410667 
L 199.982454 -160.265374 
L 199.757993 -162.120081 
L 199.611037 -163.974788 
L 199.565217 -165.829495 
L 199.662389 -167.684202 
L 199.958093 -169.538909 
L 200.502229 -171.393616 
L 201.313166 -173.248323 
L 202.364509 -175.10303 
L 203.595879 -176.957737 
L 204.939419 -178.812444 
L 206.342361 -180.667152 
L 207.773601 -182.521859 
L 209.218448 -184.376566 
L 210.672879 -186.231273 
L 212.14159 -188.08598 
L 213.634389 -189.940687 
L 215.155783 -191.795394 
L 216.691842 -193.650101 
L 218.204956 -195.504808 
L 219.642548 -197.359515 
L 220.954994 -199.214222 
L 222.111557 -201.068929 
L 223.106346 -202.923636 
L 223.954367 -204.778343 
L 224.682815 -206.633051 
L 225.322196 -208.487758 
L 225.898884 -210.342465 
L 226.429488 -212.197172 
L 226.918087 -214.051879 
L 227.357739 -215.906586 
L 227.736125 -217.761293 
L 228.0428 -219.616 
L 229.313722 -219.616 
L 229.313722 -219.616 
L 229.620396 -217.761293 
L 229.998783 -215.906586 
L 230.438435 -214.051879 
L 230.927033 -212.197172 
L 231.457638 -210.342465 
L 232.034326 -208.487758 
L 232.673706 -206.633051 
L 233.402155 -204.778343 
L 234.250176 -202.923636 
L 235.244965 -201.068929 
L 236.401528 -199.214222 
L 237.713974 -197.359515 
L 239.151566 -195.504808 
L 240.66468 -193.650101 
L 242.200739 -191.795394 
L 243.722132 -189.940687 
L 245.214932 -188.08598 
L 246.683642 -186.231273 
L 248.138074 -184.376566 
L 249.58292 -182.521859 
L 251.01416 -180.667152 
L 252.417103 -178.812444 
L 253.760643 -176.957737 
L 254.992013 -175.10303 
L 256.043356 -173.248323 
L 256.854293 -171.393616 
L 257.398428 -169.538909 
L 257.694133 -167.684202 
L 257.791304 -165.829495 
L 257.745485 -163.974788 
L 257.598529 -162.120081 
L 257.374068 -160.265374 
L 257.080328 -158.410667 
L 256.710307 -156.55596 
L 256.240371 -154.701253 
L 255.636658 -152.846545 
L 254.872318 -150.991838 
L 253.944867 -149.137131 
L 252.879349 -147.282424 
L 251.715257 -145.427717 
L 250.490088 -143.57301 
L 249.2337 -141.718303 
L 247.97468 -139.863596 
L 246.747872 -138.008889 
L 245.593388 -136.154182 
L 244.548382 -134.299475 
L 243.640218 -132.444768 
L 242.88636 -130.590061 
L 242.29831 -128.735354 
L 241.883708 -126.880646 
L 241.64418 -125.025939 
L 241.570835 -123.171232 
L 241.639816 -121.316525 
L 241.809154 -119.461818 
L 242.019067 -117.607111 
L 242.199578 -115.752404 
L 242.287012 -113.897697 
L 242.243776 -112.04299 
L 242.07038 -110.188283 
L 241.801848 -108.333576 
L 241.49094 -106.478869 
L 241.188803 -104.624162 
L 240.93258 -102.769455 
L 240.741866 -100.914747 
L 240.620203 -99.06004 
L 240.5585 -97.205333 
L 240.540478 -95.350626 
L 240.550239 -93.495919 
L 240.578839 -91.641212 
L 240.625638 -89.786505 
L 240.693943 -87.931798 
L 240.78523 -86.077091 
L 240.896259 -84.222384 
L 241.018986 -82.367677 
L 241.140025 -80.51297 
L 241.238847 -78.658263 
L 241.288193 -76.803556 
L 241.260066 -74.948848 
L 241.134903 -73.094141 
L 240.90689 -71.239434 
L 240.580923 -69.384727 
L 240.16462 -67.53002 
L 239.663316 -65.675313 
L 239.082175 -63.820606 
L 238.431684 -61.965899 
L 237.729593 -60.111192 
L 236.996889 -58.256485 
L 236.252096 -56.401778 
L 235.509619 -54.547071 
L 234.782995 -52.692364 
L 234.088653 -50.837657 
L 233.445506 -48.982949 
L 232.870086 -47.128242 
L 232.37079 -45.273535 
L 231.944945 -43.418828 
L 231.579665 -41.564121 
L 231.255367 -39.709414 
L 230.95063 -37.854707 
L 230.647679 -36 
z
" style="stroke: #000000; stroke-opacity: 0.8"/>
    </defs>
    <g clip-path="url(#p98ef17a399)">
     <use xlink:href="#m86d8e7db93" x="0" y="288" style="fill: #a61b1a; fill-opacity: 0.8; stroke: #000000; stroke-opacity: 0.8"/>
    </g>
   </g>
   <g id="PolyCollection_3">
    <defs>
     <path id="mabd48a27b9" d="M 345.344347 -45.664 
L 344.916523 -45.664 
L 344.803964 -47.421091 
L 344.65282 -49.178182 
L 344.457076 -50.935273 
L 344.209956 -52.692364 
L 343.90388 -54.449455 
L 343.532199 -56.206545 
L 343.092457 -57.963636 
L 342.589089 -59.720727 
L 342.032957 -61.477818 
L 341.437169 -63.234909 
L 340.812081 -64.992 
L 340.163961 -66.749091 
L 339.499071 -68.506182 
L 338.829568 -70.263273 
L 338.174771 -72.020364 
L 337.554724 -73.777455 
L 336.980265 -75.534545 
L 336.447984 -77.291636 
L 335.944623 -79.048727 
L 335.45701 -80.805818 
L 334.979084 -82.562909 
L 334.511902 -84.32 
L 334.060957 -86.077091 
L 333.637793 -87.834182 
L 333.266178 -89.591273 
L 332.98424 -91.348364 
L 332.833983 -93.105455 
L 332.840369 -94.862545 
L 332.993502 -96.619636 
L 333.247412 -98.376727 
L 333.536704 -100.133818 
L 333.799554 -101.890909 
L 333.993835 -103.648 
L 334.10231 -105.405091 
L 334.131727 -107.162182 
L 334.110594 -108.919273 
L 334.084123 -110.676364 
L 334.102283 -112.433455 
L 334.202698 -114.190545 
L 334.397817 -115.947636 
L 334.67533 -117.704727 
L 335.01088 -119.461818 
L 335.382165 -121.218909 
L 335.773582 -122.976 
L 336.17037 -124.733091 
L 336.550677 -126.490182 
L 336.884126 -128.247273 
L 337.137644 -130.004364 
L 337.282624 -131.761455 
L 337.29801 -133.518545 
L 337.169265 -135.275636 
L 336.886453 -137.032727 
L 336.443277 -138.789818 
L 335.83664 -140.546909 
L 335.067172 -142.304 
L 334.143223 -144.061091 
L 333.088963 -145.818182 
L 331.950783 -147.575273 
L 330.792315 -149.332364 
L 329.67447 -151.089455 
L 328.629963 -152.846545 
L 327.64949 -154.603636 
L 326.689402 -156.360727 
L 325.69416 -158.117818 
L 324.617331 -159.874909 
L 323.431895 -161.632 
L 322.135374 -163.389091 
L 320.759347 -165.146182 
L 319.380473 -166.903273 
L 318.116214 -168.660364 
L 317.0932 -170.417455 
L 316.399991 -172.174545 
L 316.055601 -173.931636 
L 316.017391 -175.688727 
L 316.220637 -177.445818 
L 316.616808 -179.202909 
L 317.183322 -180.96 
L 317.907588 -182.717091 
L 318.77133 -184.474182 
L 319.754679 -186.231273 
L 320.853093 -187.988364 
L 322.083848 -189.745455 
L 323.469893 -191.502545 
L 325.013984 -193.259636 
L 326.687373 -195.016727 
L 328.443158 -196.773818 
L 330.240337 -198.530909 
L 332.05555 -200.288 
L 333.873078 -202.045091 
L 335.664968 -203.802182 
L 337.38124 -205.559273 
L 338.959511 -207.316364 
L 340.346231 -209.073455 
L 341.51374 -210.830545 
L 342.463253 -212.587636 
L 343.215584 -214.344727 
L 343.798575 -216.101818 
L 344.238893 -217.858909 
L 344.560011 -219.616 
L 345.700858 -219.616 
L 345.700858 -219.616 
L 346.021977 -217.858909 
L 346.462295 -216.101818 
L 347.045286 -214.344727 
L 347.797616 -212.587636 
L 348.747129 -210.830545 
L 349.914639 -209.073455 
L 351.301359 -207.316364 
L 352.87963 -205.559273 
L 354.595901 -203.802182 
L 356.387792 -202.045091 
L 358.20532 -200.288 
L 360.020533 -198.530909 
L 361.817712 -196.773818 
L 363.573496 -195.016727 
L 365.246886 -193.259636 
L 366.790976 -191.502545 
L 368.177021 -189.745455 
L 369.407777 -187.988364 
L 370.506191 -186.231273 
L 371.489539 -184.474182 
L 372.353281 -182.717091 
L 373.077547 -180.96 
L 373.644061 -179.202909 
L 374.040233 -177.445818 
L 374.243478 -175.688727 
L 374.205269 -173.931636 
L 373.860878 -172.174545 
L 373.167669 -170.417455 
L 372.144655 -168.660364 
L 370.880396 -166.903273 
L 369.501522 -165.146182 
L 368.125496 -163.389091 
L 366.828975 -161.632 
L 365.643539 -159.874909 
L 364.566709 -158.117818 
L 363.571468 -156.360727 
L 362.611379 -154.603636 
L 361.630907 -152.846545 
L 360.5864 -151.089455 
L 359.468554 -149.332364 
L 358.310087 -147.575273 
L 357.171906 -145.818182 
L 356.117647 -144.061091 
L 355.193697 -142.304 
L 354.42423 -140.546909 
L 353.817593 -138.789818 
L 353.374416 -137.032727 
L 353.091605 -135.275636 
L 352.96286 -133.518545 
L 352.978246 -131.761455 
L 353.123226 -130.004364 
L 353.376744 -128.247273 
L 353.710192 -126.490182 
L 354.0905 -124.733091 
L 354.487287 -122.976 
L 354.878704 -121.218909 
L 355.24999 -119.461818 
L 355.585539 -117.704727 
L 355.863053 -115.947636 
L 356.058172 -114.190545 
L 356.158587 -112.433455 
L 356.176746 -110.676364 
L 356.150276 -108.919273 
L 356.129142 -107.162182 
L 356.158559 -105.405091 
L 356.267035 -103.648 
L 356.461316 -101.890909 
L 356.724165 -100.133818 
L 357.013457 -98.376727 
L 357.267367 -96.619636 
L 357.4205 -94.862545 
L 357.426887 -93.105455 
L 357.27663 -91.348364 
L 356.994691 -89.591273 
L 356.623076 -87.834182 
L 356.199913 -86.077091 
L 355.748968 -84.32 
L 355.281786 -82.562909 
L 354.80386 -80.805818 
L 354.316247 -79.048727 
L 353.812885 -77.291636 
L 353.280604 -75.534545 
L 352.706146 -73.777455 
L 352.086099 -72.020364 
L 351.431302 -70.263273 
L 350.761798 -68.506182 
L 350.096909 -66.749091 
L 349.448789 -64.992 
L 348.8237 -63.234909 
L 348.227912 -61.477818 
L 347.67178 -59.720727 
L 347.168413 -57.963636 
L 346.728671 -56.206545 
L 346.35699 -54.449455 
L 346.050913 -52.692364 
L 345.803793 -50.935273 
L 345.60805 -49.178182 
L 345.456905 -47.421091 
L 345.344347 -45.664 
z
" style="stroke: #000000; stroke-opacity: 0.8"/>
    </defs>
    <g clip-path="url(#p98ef17a399)">
     <use xlink:href="#mabd48a27b9" x="0" y="288" style="fill: #7f2aff; fill-opacity: 0.8; stroke: #000000; stroke-opacity: 0.8"/>
    </g>
   </g>
   <g id="matplotlib.axis_1">
    <g id="xtick_1">
     <g id="line2d_1">
      <defs>
       <path id="m214141d1ed" d="M 0 0 
L 0 3.5 
" style="stroke: #000000; stroke-width: 0.8"/>
      </defs>
      <g>
       <use xlink:href="#m214141d1ed" x="54" y="252" style="stroke: #000000; stroke-width: 0.8"/>
      </g>
     </g>
     <g id="text_1">
      <!-- current_injection -->
      <g transform="translate(15.354847 350.105405)rotate(-45)scale(0.16 -0.16)">
       <defs>
        <path id="ArialMT-63" d="M 2588 1216 
L 3141 1144 
Q 3050 572 2676 248 
Q 2303 -75 1759 -75 
Q 1078 -75 664 370 
Q 250 816 250 1647 
Q 250 2184 428 2587 
Q 606 2991 970 3192 
Q 1334 3394 1763 3394 
Q 2303 3394 2647 3120 
Q 2991 2847 3088 2344 
L 2541 2259 
Q 2463 2594 2264 2762 
Q 2066 2931 1784 2931 
Q 1359 2931 1093 2626 
Q 828 2322 828 1663 
Q 828 994 1084 691 
Q 1341 388 1753 388 
Q 2084 388 2306 591 
Q 2528 794 2588 1216 
z
" transform="scale(0.015625)"/>
        <path id="ArialMT-75" d="M 2597 0 
L 2597 488 
Q 2209 -75 1544 -75 
Q 1250 -75 995 37 
Q 741 150 617 320 
Q 494 491 444 738 
Q 409 903 409 1263 
L 409 3319 
L 972 3319 
L 972 1478 
Q 972 1038 1006 884 
Q 1059 663 1231 536 
Q 1403 409 1656 409 
Q 1909 409 2131 539 
Q 2353 669 2445 892 
Q 2538 1116 2538 1541 
L 2538 3319 
L 3100 3319 
L 3100 0 
L 2597 0 
z
" transform="scale(0.015625)"/>
        <path id="ArialMT-72" d="M 416 0 
L 416 3319 
L 922 3319 
L 922 2816 
Q 1116 3169 1280 3281 
Q 1444 3394 1641 3394 
Q 1925 3394 2219 3213 
L 2025 2691 
Q 1819 2813 1613 2813 
Q 1428 2813 1281 2702 
Q 1134 2591 1072 2394 
Q 978 2094 978 1738 
L 978 0 
L 416 0 
z
" transform="scale(0.015625)"/>
        <path id="ArialMT-65" d="M 2694 1069 
L 3275 997 
Q 3138 488 2766 206 
Q 2394 -75 1816 -75 
Q 1088 -75 661 373 
Q 234 822 234 1631 
Q 234 2469 665 2931 
Q 1097 3394 1784 3394 
Q 2450 3394 2872 2941 
Q 3294 2488 3294 1666 
Q 3294 1616 3291 1516 
L 816 1516 
Q 847 969 1125 678 
Q 1403 388 1819 388 
Q 2128 388 2347 550 
Q 2566 713 2694 1069 
z
M 847 1978 
L 2700 1978 
Q 2663 2397 2488 2606 
Q 2219 2931 1791 2931 
Q 1403 2931 1139 2672 
Q 875 2413 847 1978 
z
" transform="scale(0.015625)"/>
        <path id="ArialMT-6e" d="M 422 0 
L 422 3319 
L 928 3319 
L 928 2847 
Q 1294 3394 1984 3394 
Q 2284 3394 2536 3286 
Q 2788 3178 2913 3003 
Q 3038 2828 3088 2588 
Q 3119 2431 3119 2041 
L 3119 0 
L 2556 0 
L 2556 2019 
Q 2556 2363 2490 2533 
Q 2425 2703 2258 2804 
Q 2091 2906 1866 2906 
Q 1506 2906 1245 2678 
Q 984 2450 984 1813 
L 984 0 
L 422 0 
z
" transform="scale(0.015625)"/>
        <path id="ArialMT-74" d="M 1650 503 
L 1731 6 
Q 1494 -44 1306 -44 
Q 1000 -44 831 53 
Q 663 150 594 308 
Q 525 466 525 972 
L 525 2881 
L 113 2881 
L 113 3319 
L 525 3319 
L 525 4141 
L 1084 4478 
L 1084 3319 
L 1650 3319 
L 1650 2881 
L 1084 2881 
L 1084 941 
Q 1084 700 1114 631 
Q 1144 563 1211 522 
Q 1278 481 1403 481 
Q 1497 481 1650 503 
z
" transform="scale(0.015625)"/>
        <path id="ArialMT-5f" d="M -97 -1272 
L -97 -866 
L 3631 -866 
L 3631 -1272 
L -97 -1272 
z
" transform="scale(0.015625)"/>
        <path id="ArialMT-69" d="M 425 3934 
L 425 4581 
L 988 4581 
L 988 3934 
L 425 3934 
z
M 425 0 
L 425 3319 
L 988 3319 
L 988 0 
L 425 0 
z
" transform="scale(0.015625)"/>
        <path id="ArialMT-6a" d="M 419 3928 
L 419 4581 
L 981 4581 
L 981 3928 
L 419 3928 
z
M -294 -1288 
L -188 -809 
Q -19 -853 78 -853 
Q 250 -853 334 -739 
Q 419 -625 419 -169 
L 419 3319 
L 981 3319 
L 981 -181 
Q 981 -794 822 -1034 
Q 619 -1347 147 -1347 
Q -81 -1347 -294 -1288 
z
" transform="scale(0.015625)"/>
        <path id="ArialMT-6f" d="M 213 1659 
Q 213 2581 725 3025 
Q 1153 3394 1769 3394 
Q 2453 3394 2887 2945 
Q 3322 2497 3322 1706 
Q 3322 1066 3130 698 
Q 2938 331 2570 128 
Q 2203 -75 1769 -75 
Q 1072 -75 642 372 
Q 213 819 213 1659 
z
M 791 1659 
Q 791 1022 1069 705 
Q 1347 388 1769 388 
Q 2188 388 2466 706 
Q 2744 1025 2744 1678 
Q 2744 2294 2464 2611 
Q 2184 2928 1769 2928 
Q 1347 2928 1069 2612 
Q 791 2297 791 1659 
z
" transform="scale(0.015625)"/>
       </defs>
       <use xlink:href="#ArialMT-63"/>
       <use xlink:href="#ArialMT-75" x="50"/>
       <use xlink:href="#ArialMT-72" x="105.615234"/>
       <use xlink:href="#ArialMT-72" x="138.916016"/>
       <use xlink:href="#ArialMT-65" x="172.216797"/>
       <use xlink:href="#ArialMT-6e" x="227.832031"/>
       <use xlink:href="#ArialMT-74" x="283.447266"/>
       <use xlink:href="#ArialMT-5f" x="311.230469"/>
       <use xlink:href="#ArialMT-69" x="366.845703"/>
       <use xlink:href="#ArialMT-6e" x="389.0625"/>
       <use xlink:href="#ArialMT-6a" x="444.677734"/>
       <use xlink:href="#ArialMT-65" x="466.894531"/>
       <use xlink:href="#ArialMT-63" x="522.509766"/>
       <use xlink:href="#ArialMT-74" x="572.509766"/>
       <use xlink:href="#ArialMT-69" x="600.292969"/>
       <use xlink:href="#ArialMT-6f" x="622.509766"/>
       <use xlink:href="#ArialMT-6e" x="678.125"/>
      </g>
     </g>
    </g>
    <g id="xtick_2">
     <g id="line2d_2">
      <g>
       <use xlink:href="#m214141d1ed" x="170.452174" y="252" style="stroke: #000000; stroke-width: 0.8"/>
      </g>
     </g>
     <g id="text_2">
      <!-- current_injection-iSPN -->
      <g transform="translate(117.103619 379.78798)rotate(-45)scale(0.16 -0.16)">
       <defs>
        <path id="ArialMT-2d" d="M 203 1375 
L 203 1941 
L 1931 1941 
L 1931 1375 
L 203 1375 
z
" transform="scale(0.015625)"/>
        <path id="ArialMT-53" d="M 288 1472 
L 859 1522 
Q 900 1178 1048 958 
Q 1197 738 1509 602 
Q 1822 466 2213 466 
Q 2559 466 2825 569 
Q 3091 672 3220 851 
Q 3350 1031 3350 1244 
Q 3350 1459 3225 1620 
Q 3100 1781 2813 1891 
Q 2628 1963 1997 2114 
Q 1366 2266 1113 2400 
Q 784 2572 623 2826 
Q 463 3081 463 3397 
Q 463 3744 659 4045 
Q 856 4347 1234 4503 
Q 1613 4659 2075 4659 
Q 2584 4659 2973 4495 
Q 3363 4331 3572 4012 
Q 3781 3694 3797 3291 
L 3216 3247 
Q 3169 3681 2898 3903 
Q 2628 4125 2100 4125 
Q 1550 4125 1298 3923 
Q 1047 3722 1047 3438 
Q 1047 3191 1225 3031 
Q 1400 2872 2139 2705 
Q 2878 2538 3153 2413 
Q 3553 2228 3743 1945 
Q 3934 1663 3934 1294 
Q 3934 928 3725 604 
Q 3516 281 3123 101 
Q 2731 -78 2241 -78 
Q 1619 -78 1198 103 
Q 778 284 539 648 
Q 300 1013 288 1472 
z
" transform="scale(0.015625)"/>
        <path id="ArialMT-50" d="M 494 0 
L 494 4581 
L 2222 4581 
Q 2678 4581 2919 4538 
Q 3256 4481 3484 4323 
Q 3713 4166 3852 3881 
Q 3991 3597 3991 3256 
Q 3991 2672 3619 2267 
Q 3247 1863 2275 1863 
L 1100 1863 
L 1100 0 
L 494 0 
z
M 1100 2403 
L 2284 2403 
Q 2872 2403 3119 2622 
Q 3366 2841 3366 3238 
Q 3366 3525 3220 3729 
Q 3075 3934 2838 4000 
Q 2684 4041 2272 4041 
L 1100 4041 
L 1100 2403 
z
" transform="scale(0.015625)"/>
        <path id="ArialMT-4e" d="M 488 0 
L 488 4581 
L 1109 4581 
L 3516 984 
L 3516 4581 
L 4097 4581 
L 4097 0 
L 3475 0 
L 1069 3600 
L 1069 0 
L 488 0 
z
" transform="scale(0.015625)"/>
       </defs>
       <use xlink:href="#ArialMT-63"/>
       <use xlink:href="#ArialMT-75" x="50"/>
       <use xlink:href="#ArialMT-72" x="105.615234"/>
       <use xlink:href="#ArialMT-72" x="138.916016"/>
       <use xlink:href="#ArialMT-65" x="172.216797"/>
       <use xlink:href="#ArialMT-6e" x="227.832031"/>
       <use xlink:href="#ArialMT-74" x="283.447266"/>
       <use xlink:href="#ArialMT-5f" x="311.230469"/>
       <use xlink:href="#ArialMT-69" x="366.845703"/>
       <use xlink:href="#ArialMT-6e" x="389.0625"/>
       <use xlink:href="#ArialMT-6a" x="444.677734"/>
       <use xlink:href="#ArialMT-65" x="466.894531"/>
       <use xlink:href="#ArialMT-63" x="522.509766"/>
       <use xlink:href="#ArialMT-74" x="572.509766"/>
       <use xlink:href="#ArialMT-69" x="600.292969"/>
       <use xlink:href="#ArialMT-6f" x="622.509766"/>
       <use xlink:href="#ArialMT-6e" x="678.125"/>
       <use xlink:href="#ArialMT-2d" x="733.740234"/>
       <use xlink:href="#ArialMT-69" x="767.041016"/>
       <use xlink:href="#ArialMT-53" x="789.257812"/>
       <use xlink:href="#ArialMT-50" x="855.957031"/>
       <use xlink:href="#ArialMT-4e" x="922.65625"/>
      </g>
     </g>
    </g>
    <g id="xtick_3">
     <g id="line2d_3">
      <g>
       <use xlink:href="#m214141d1ed" x="286.904348" y="252" style="stroke: #000000; stroke-width: 0.8"/>
      </g>
     </g>
     <g id="text_3">
      <!-- current_injection-SPN -->
      <g transform="translate(234.812675 377.274216)rotate(-45)scale(0.16 -0.16)">
       <use xlink:href="#ArialMT-63"/>
       <use xlink:href="#ArialMT-75" x="50"/>
       <use xlink:href="#ArialMT-72" x="105.615234"/>
       <use xlink:href="#ArialMT-72" x="138.916016"/>
       <use xlink:href="#ArialMT-65" x="172.216797"/>
       <use xlink:href="#ArialMT-6e" x="227.832031"/>
       <use xlink:href="#ArialMT-74" x="283.447266"/>
       <use xlink:href="#ArialMT-5f" x="311.230469"/>
       <use xlink:href="#ArialMT-69" x="366.845703"/>
       <use xlink:href="#ArialMT-6e" x="389.0625"/>
       <use xlink:href="#ArialMT-6a" x="444.677734"/>
       <use xlink:href="#ArialMT-65" x="466.894531"/>
       <use xlink:href="#ArialMT-63" x="522.509766"/>
       <use xlink:href="#ArialMT-74" x="572.509766"/>
       <use xlink:href="#ArialMT-69" x="600.292969"/>
       <use xlink:href="#ArialMT-6f" x="622.509766"/>
       <use xlink:href="#ArialMT-6e" x="678.125"/>
       <use xlink:href="#ArialMT-2d" x="733.740234"/>
       <use xlink:href="#ArialMT-53" x="767.041016"/>
       <use xlink:href="#ArialMT-50" x="833.740234"/>
       <use xlink:href="#ArialMT-4e" x="900.439453"/>
      </g>
     </g>
    </g>
   </g>
   <g id="matplotlib.axis_2">
    <g id="ytick_1">
     <g id="line2d_4">
      <defs>
       <path id="m91443ab8f0" d="M 0 0 
L -3.5 0 
" style="stroke: #000000; stroke-width: 0.8"/>
      </defs>
      <g>
       <use xlink:href="#m91443ab8f0" x="54" y="252" style="stroke: #000000; stroke-width: 0.8"/>
      </g>
     </g>
     <g id="text_4">
      <!-- 0 -->
      <g transform="translate(38.0925 257.318906)scale(0.14 -0.14)">
       <defs>
        <path id="DejaVuSans-30" d="M 2034 4250 
Q 1547 4250 1301 3770 
Q 1056 3291 1056 2328 
Q 1056 1369 1301 889 
Q 1547 409 2034 409 
Q 2525 409 2770 889 
Q 3016 1369 3016 2328 
Q 3016 3291 2770 3770 
Q 2525 4250 2034 4250 
z
M 2034 4750 
Q 2819 4750 3233 4129 
Q 3647 3509 3647 2328 
Q 3647 1150 3233 529 
Q 2819 -91 2034 -91 
Q 1250 -91 836 529 
Q 422 1150 422 2328 
Q 422 3509 836 4129 
Q 1250 4750 2034 4750 
z
" transform="scale(0.015625)"/>
       </defs>
       <use xlink:href="#DejaVuSans-30"/>
      </g>
     </g>
    </g>
    <g id="ytick_2">
     <g id="line2d_5">
      <g>
       <use xlink:href="#m91443ab8f0" x="54" y="227.84" style="stroke: #000000; stroke-width: 0.8"/>
      </g>
     </g>
     <g id="text_5">
      <!-- 5 -->
      <g transform="translate(38.0925 233.158906)scale(0.14 -0.14)">
       <defs>
        <path id="DejaVuSans-35" d="M 691 4666 
L 3169 4666 
L 3169 4134 
L 1269 4134 
L 1269 2991 
Q 1406 3038 1543 3061 
Q 1681 3084 1819 3084 
Q 2600 3084 3056 2656 
Q 3513 2228 3513 1497 
Q 3513 744 3044 326 
Q 2575 -91 1722 -91 
Q 1428 -91 1123 -41 
Q 819 9 494 109 
L 494 744 
Q 775 591 1075 516 
Q 1375 441 1709 441 
Q 2250 441 2565 725 
Q 2881 1009 2881 1497 
Q 2881 1984 2565 2268 
Q 2250 2553 1709 2553 
Q 1456 2553 1204 2497 
Q 953 2441 691 2322 
L 691 4666 
z
" transform="scale(0.015625)"/>
       </defs>
       <use xlink:href="#DejaVuSans-35"/>
      </g>
     </g>
    </g>
    <g id="ytick_3">
     <g id="line2d_6">
      <g>
       <use xlink:href="#m91443ab8f0" x="54" y="203.68" style="stroke: #000000; stroke-width: 0.8"/>
      </g>
     </g>
     <g id="text_6">
      <!-- 10 -->
      <g transform="translate(29.185 208.998906)scale(0.14 -0.14)">
       <defs>
        <path id="DejaVuSans-31" d="M 794 531 
L 1825 531 
L 1825 4091 
L 703 3866 
L 703 4441 
L 1819 4666 
L 2450 4666 
L 2450 531 
L 3481 531 
L 3481 0 
L 794 0 
L 794 531 
z
" transform="scale(0.015625)"/>
       </defs>
       <use xlink:href="#DejaVuSans-31"/>
       <use xlink:href="#DejaVuSans-30" x="63.623047"/>
      </g>
     </g>
    </g>
    <g id="ytick_4">
     <g id="line2d_7">
      <g>
       <use xlink:href="#m91443ab8f0" x="54" y="179.52" style="stroke: #000000; stroke-width: 0.8"/>
      </g>
     </g>
     <g id="text_7">
      <!-- 15 -->
      <g transform="translate(29.185 184.838906)scale(0.14 -0.14)">
       <use xlink:href="#DejaVuSans-31"/>
       <use xlink:href="#DejaVuSans-35" x="63.623047"/>
      </g>
     </g>
    </g>
    <g id="ytick_5">
     <g id="line2d_8">
      <g>
       <use xlink:href="#m91443ab8f0" x="54" y="155.36" style="stroke: #000000; stroke-width: 0.8"/>
      </g>
     </g>
     <g id="text_8">
      <!-- 20 -->
      <g transform="translate(29.185 160.678906)scale(0.14 -0.14)">
       <defs>
        <path id="DejaVuSans-32" d="M 1228 531 
L 3431 531 
L 3431 0 
L 469 0 
L 469 531 
Q 828 903 1448 1529 
Q 2069 2156 2228 2338 
Q 2531 2678 2651 2914 
Q 2772 3150 2772 3378 
Q 2772 3750 2511 3984 
Q 2250 4219 1831 4219 
Q 1534 4219 1204 4116 
Q 875 4013 500 3803 
L 500 4441 
Q 881 4594 1212 4672 
Q 1544 4750 1819 4750 
Q 2544 4750 2975 4387 
Q 3406 4025 3406 3419 
Q 3406 3131 3298 2873 
Q 3191 2616 2906 2266 
Q 2828 2175 2409 1742 
Q 1991 1309 1228 531 
z
" transform="scale(0.015625)"/>
       </defs>
       <use xlink:href="#DejaVuSans-32"/>
       <use xlink:href="#DejaVuSans-30" x="63.623047"/>
      </g>
     </g>
    </g>
    <g id="ytick_6">
     <g id="line2d_9">
      <g>
       <use xlink:href="#m91443ab8f0" x="54" y="131.2" style="stroke: #000000; stroke-width: 0.8"/>
      </g>
     </g>
     <g id="text_9">
      <!-- 25 -->
      <g transform="translate(29.185 136.518906)scale(0.14 -0.14)">
       <use xlink:href="#DejaVuSans-32"/>
       <use xlink:href="#DejaVuSans-35" x="63.623047"/>
      </g>
     </g>
    </g>
    <g id="ytick_7">
     <g id="line2d_10">
      <g>
       <use xlink:href="#m91443ab8f0" x="54" y="107.04" style="stroke: #000000; stroke-width: 0.8"/>
      </g>
     </g>
     <g id="text_10">
      <!-- 30 -->
      <g transform="translate(29.185 112.358906)scale(0.14 -0.14)">
       <defs>
        <path id="DejaVuSans-33" d="M 2597 2516 
Q 3050 2419 3304 2112 
Q 3559 1806 3559 1356 
Q 3559 666 3084 287 
Q 2609 -91 1734 -91 
Q 1441 -91 1130 -33 
Q 819 25 488 141 
L 488 750 
Q 750 597 1062 519 
Q 1375 441 1716 441 
Q 2309 441 2620 675 
Q 2931 909 2931 1356 
Q 2931 1769 2642 2001 
Q 2353 2234 1838 2234 
L 1294 2234 
L 1294 2753 
L 1863 2753 
Q 2328 2753 2575 2939 
Q 2822 3125 2822 3475 
Q 2822 3834 2567 4026 
Q 2313 4219 1838 4219 
Q 1578 4219 1281 4162 
Q 984 4106 628 3988 
L 628 4550 
Q 988 4650 1302 4700 
Q 1616 4750 1894 4750 
Q 2613 4750 3031 4423 
Q 3450 4097 3450 3541 
Q 3450 3153 3228 2886 
Q 3006 2619 2597 2516 
z
" transform="scale(0.015625)"/>
       </defs>
       <use xlink:href="#DejaVuSans-33"/>
       <use xlink:href="#DejaVuSans-30" x="63.623047"/>
      </g>
     </g>
    </g>
    <g id="ytick_8">
     <g id="line2d_11">
      <g>
       <use xlink:href="#m91443ab8f0" x="54" y="82.88" style="stroke: #000000; stroke-width: 0.8"/>
      </g>
     </g>
     <g id="text_11">
      <!-- 35 -->
      <g transform="translate(29.185 88.198906)scale(0.14 -0.14)">
       <use xlink:href="#DejaVuSans-33"/>
       <use xlink:href="#DejaVuSans-35" x="63.623047"/>
      </g>
     </g>
    </g>
    <g id="ytick_9">
     <g id="line2d_12">
      <g>
       <use xlink:href="#m91443ab8f0" x="54" y="58.72" style="stroke: #000000; stroke-width: 0.8"/>
      </g>
     </g>
     <g id="text_12">
      <!-- 40 -->
      <g transform="translate(29.185 64.038906)scale(0.14 -0.14)">
       <defs>
        <path id="DejaVuSans-34" d="M 2419 4116 
L 825 1625 
L 2419 1625 
L 2419 4116 
z
M 2253 4666 
L 3047 4666 
L 3047 1625 
L 3713 1625 
L 3713 1100 
L 3047 1100 
L 3047 0 
L 2419 0 
L 2419 1100 
L 313 1100 
L 313 1709 
L 2253 4666 
z
" transform="scale(0.015625)"/>
       </defs>
       <use xlink:href="#DejaVuSans-34"/>
       <use xlink:href="#DejaVuSans-30" x="63.623047"/>
      </g>
     </g>
    </g>
    <g id="ytick_10">
     <g id="line2d_13">
      <g>
       <use xlink:href="#m91443ab8f0" x="54" y="34.56" style="stroke: #000000; stroke-width: 0.8"/>
      </g>
     </g>
     <g id="text_13">
      <!-- 45 -->
      <g transform="translate(29.185 39.878906)scale(0.14 -0.14)">
       <use xlink:href="#DejaVuSans-34"/>
       <use xlink:href="#DejaVuSans-35" x="63.623047"/>
      </g>
     </g>
    </g>
    <g id="text_14">
     <!-- Frequency (Hz) -->
     <g transform="translate(21.8175 198.40125)rotate(-90)scale(0.16 -0.16)">
      <defs>
       <path id="ArialMT-46" d="M 525 0 
L 525 4581 
L 3616 4581 
L 3616 4041 
L 1131 4041 
L 1131 2622 
L 3281 2622 
L 3281 2081 
L 1131 2081 
L 1131 0 
L 525 0 
z
" transform="scale(0.015625)"/>
       <path id="ArialMT-71" d="M 2538 -1272 
L 2538 353 
Q 2406 169 2170 47 
Q 1934 -75 1669 -75 
Q 1078 -75 651 397 
Q 225 869 225 1691 
Q 225 2191 398 2587 
Q 572 2984 901 3189 
Q 1231 3394 1625 3394 
Q 2241 3394 2594 2875 
L 2594 3319 
L 3100 3319 
L 3100 -1272 
L 2538 -1272 
z
M 803 1669 
Q 803 1028 1072 708 
Q 1341 388 1716 388 
Q 2075 388 2334 692 
Q 2594 997 2594 1619 
Q 2594 2281 2320 2615 
Q 2047 2950 1678 2950 
Q 1313 2950 1058 2639 
Q 803 2328 803 1669 
z
" transform="scale(0.015625)"/>
       <path id="ArialMT-79" d="M 397 -1278 
L 334 -750 
Q 519 -800 656 -800 
Q 844 -800 956 -737 
Q 1069 -675 1141 -563 
Q 1194 -478 1313 -144 
Q 1328 -97 1363 -6 
L 103 3319 
L 709 3319 
L 1400 1397 
Q 1534 1031 1641 628 
Q 1738 1016 1872 1384 
L 2581 3319 
L 3144 3319 
L 1881 -56 
Q 1678 -603 1566 -809 
Q 1416 -1088 1222 -1217 
Q 1028 -1347 759 -1347 
Q 597 -1347 397 -1278 
z
" transform="scale(0.015625)"/>
       <path id="ArialMT-20" transform="scale(0.015625)"/>
       <path id="ArialMT-28" d="M 1497 -1347 
Q 1031 -759 709 28 
Q 388 816 388 1659 
Q 388 2403 628 3084 
Q 909 3875 1497 4659 
L 1900 4659 
Q 1522 4009 1400 3731 
Q 1209 3300 1100 2831 
Q 966 2247 966 1656 
Q 966 153 1900 -1347 
L 1497 -1347 
z
" transform="scale(0.015625)"/>
       <path id="ArialMT-48" d="M 513 0 
L 513 4581 
L 1119 4581 
L 1119 2700 
L 3500 2700 
L 3500 4581 
L 4106 4581 
L 4106 0 
L 3500 0 
L 3500 2159 
L 1119 2159 
L 1119 0 
L 513 0 
z
" transform="scale(0.015625)"/>
       <path id="ArialMT-7a" d="M 125 0 
L 125 456 
L 2238 2881 
Q 1878 2863 1603 2863 
L 250 2863 
L 250 3319 
L 2963 3319 
L 2963 2947 
L 1166 841 
L 819 456 
Q 1197 484 1528 484 
L 3063 484 
L 3063 0 
L 125 0 
z
" transform="scale(0.015625)"/>
       <path id="ArialMT-29" d="M 791 -1347 
L 388 -1347 
Q 1322 153 1322 1656 
Q 1322 2244 1188 2822 
Q 1081 3291 891 3722 
Q 769 4003 388 4659 
L 791 4659 
Q 1378 3875 1659 3084 
Q 1900 2403 1900 1659 
Q 1900 816 1576 28 
Q 1253 -759 791 -1347 
z
" transform="scale(0.015625)"/>
      </defs>
      <use xlink:href="#ArialMT-46"/>
      <use xlink:href="#ArialMT-72" x="61.083984"/>
      <use xlink:href="#ArialMT-65" x="94.384766"/>
      <use xlink:href="#ArialMT-71" x="150"/>
      <use xlink:href="#ArialMT-75" x="205.615234"/>
      <use xlink:href="#ArialMT-65" x="261.230469"/>
      <use xlink:href="#ArialMT-6e" x="316.845703"/>
      <use xlink:href="#ArialMT-63" x="372.460938"/>
      <use xlink:href="#ArialMT-79" x="422.460938"/>
      <use xlink:href="#ArialMT-20" x="472.460938"/>
      <use xlink:href="#ArialMT-28" x="500.244141"/>
      <use xlink:href="#ArialMT-48" x="533.544922"/>
      <use xlink:href="#ArialMT-7a" x="605.761719"/>
      <use xlink:href="#ArialMT-29" x="655.761719"/>
     </g>
    </g>
   </g>
   <g id="LineCollection_1">
    <path d="M 97.669565 168.423964 
L 126.782609 168.423964 
" clip-path="url(#p98ef17a399)" style="fill: none; stroke: #000000; stroke-width: 1.6"/>
    <path d="M 214.121739 151.861241 
L 243.234783 151.861241 
" clip-path="url(#p98ef17a399)" style="fill: none; stroke: #000000; stroke-width: 1.6"/>
    <path d="M 330.573913 139.255329 
L 359.686957 139.255329 
" clip-path="url(#p98ef17a399)" style="fill: none; stroke: #000000; stroke-width: 1.6"/>
   </g>
   <g id="LineCollection_2">
    <path d="M 97.669565 68.384 
L 126.782609 68.384 
" clip-path="url(#p98ef17a399)" style="fill: none; stroke: #000000; stroke-width: 1.6"/>
    <path d="M 214.121739 68.384 
L 243.234783 68.384 
" clip-path="url(#p98ef17a399)" style="fill: none; stroke: #000000; stroke-width: 1.6"/>
    <path d="M 330.573913 68.384 
L 359.686957 68.384 
" clip-path="url(#p98ef17a399)" style="fill: none; stroke: #000000; stroke-width: 1.6"/>
   </g>
   <g id="LineCollection_3">
    <path d="M 97.669565 252 
L 126.782609 252 
" clip-path="url(#p98ef17a399)" style="fill: none; stroke: #000000; stroke-width: 1.6"/>
    <path d="M 214.121739 252 
L 243.234783 252 
" clip-path="url(#p98ef17a399)" style="fill: none; stroke: #000000; stroke-width: 1.6"/>
    <path d="M 330.573913 242.336 
L 359.686957 242.336 
" clip-path="url(#p98ef17a399)" style="fill: none; stroke: #000000; stroke-width: 1.6"/>
   </g>
   <g id="LineCollection_4">
    <path d="M 112.226087 252 
L 112.226087 68.384 
" clip-path="url(#p98ef17a399)" style="fill: none; stroke: #000000; stroke-width: 1.6"/>
    <path d="M 228.678261 252 
L 228.678261 68.384 
" clip-path="url(#p98ef17a399)" style="fill: none; stroke: #000000; stroke-width: 1.6"/>
    <path d="M 345.130435 242.336 
L 345.130435 68.384 
" clip-path="url(#p98ef17a399)" style="fill: none; stroke: #000000; stroke-width: 1.6"/>
   </g>
   <g id="patch_3">
    <path d="M 54 252 
L 54 34.56 
" style="fill: none; stroke: #000000; stroke-width: 0.8; stroke-linejoin: miter; stroke-linecap: square"/>
   </g>
   <g id="patch_4">
    <path d="M 388.8 252 
L 388.8 34.56 
" style="fill: none; stroke: #000000; stroke-width: 0.8; stroke-linejoin: miter; stroke-linecap: square"/>
   </g>
   <g id="patch_5">
    <path d="M 54 252 
L 388.8 252 
" style="fill: none; stroke: #000000; stroke-width: 0.8; stroke-linejoin: miter; stroke-linecap: square"/>
   </g>
   <g id="patch_6">
    <path d="M 54 34.56 
L 388.8 34.56 
" style="fill: none; stroke: #000000; stroke-width: 0.8; stroke-linejoin: miter; stroke-linecap: square"/>
   </g>
  </g>
 </g>
 <defs>
  <clipPath id="p98ef17a399">
   <rect x="54" y="34.56" width="334.8" height="217.44"/>
  </clipPath>
 </defs>
</svg>
