<?xml version="1.0" encoding="utf-8" standalone="no"?>
<!DOCTYPE svg PUBLIC "-//W3C//DTD SVG 1.1//EN"
  "http://www.w3.org/Graphics/SVG/1.1/DTD/svg11.dtd">
<svg xmlns:xlink="http://www.w3.org/1999/xlink" width="432pt" height="288pt" viewBox="0 0 432 288" xmlns="http://www.w3.org/2000/svg" version="1.1">
 <metadata>
  <rdf:RDF xmlns:dc="http://purl.org/dc/elements/1.1/" xmlns:cc="http://creativecommons.org/ns#" xmlns:rdf="http://www.w3.org/1999/02/22-rdf-syntax-ns#">
   <cc:Work>
    <dc:type rdf:resource="http://purl.org/dc/dcmitype/StillImage"/>
    <dc:date>2022-10-30T19:40:01.034835</dc:date>
    <dc:format>image/svg+xml</dc:format>
    <dc:creator>
     <cc:Agent>
      <dc:title>Matplotlib v3.5.2, https://matplotlib.org/</dc:title>
     </cc:Agent>
    </dc:creator>
   </cc:Work>
  </rdf:RDF>
 </metadata>
 <defs>
  <style type="text/css">*{stroke-linejoin: round; stroke-linecap: butt}</style>
 </defs>
 <g id="figure_1">
  <g id="patch_1">
   <path d="M 0 288 
L 432 288 
L 432 0 
L 0 0 
L 0 288 
z
" style="fill: none"/>
  </g>
  <g id="axes_1">
   <g id="patch_2">
    <path d="M 54 252 
L 388.8 252 
L 388.8 34.56 
L 54 34.56 
z
" style="fill: #ffffff"/>
   </g>
   <g id="PolyCollection_1">
    <defs>
     <path id="m5b87eb62f1" d="M 107.129854 -36 
L 86.16951 -36 
L 85.9256 -37.854707 
L 86.109045 -39.709414 
L 86.582218 -41.564121 
L 87.164558 -43.418828 
L 87.683738 -45.273535 
L 88.01736 -47.128242 
L 88.113276 -48.982949 
L 87.986214 -50.837657 
L 87.696731 -52.692364 
L 87.322969 -54.547071 
L 86.9358 -56.401778 
L 86.584275 -58.256485 
L 86.292776 -60.111192 
L 86.066387 -61.965899 
L 85.899001 -63.820606 
L 85.780037 -65.675313 
L 85.69852 -67.53002 
L 85.64521 -69.384727 
L 85.613519 -71.239434 
L 85.599232 -73.094141 
L 85.599041 -74.948848 
L 85.608748 -76.803556 
L 85.622474 -78.658263 
L 85.633484 -80.51297 
L 85.635902 -82.367677 
L 85.626138 -84.222384 
L 85.603428 -86.077091 
L 85.569737 -87.931798 
L 85.529198 -89.786505 
L 85.486704 -91.641212 
L 85.445351 -93.495919 
L 85.403413 -95.350626 
L 85.352529 -97.205333 
L 85.278426 -99.06004 
L 85.163989 -100.914747 
L 84.993198 -102.769455 
L 84.754408 -104.624162 
L 84.442294 -106.478869 
L 84.058412 -108.333576 
L 83.610407 -110.188283 
L 83.110041 -112.04299 
L 82.570847 -113.897697 
L 82.006631 -115.752404 
L 81.431288 -117.607111 
L 80.858946 -119.461818 
L 80.302877 -121.316525 
L 79.772865 -123.171232 
L 79.272706 -125.025939 
L 78.799996 -126.880646 
L 78.348638 -128.735354 
L 77.912377 -130.590061 
L 77.487379 -132.444768 
L 77.073437 -134.299475 
L 76.674726 -136.154182 
L 76.300538 -138.008889 
L 75.96504 -139.863596 
L 75.685074 -141.718303 
L 75.476788 -143.57301 
L 75.353324 -145.427717 
L 75.324841 -147.282424 
L 75.399514 -149.137131 
L 75.582912 -150.991838 
L 75.874973 -152.846545 
L 76.266924 -154.701253 
L 76.741375 -156.55596 
L 77.276434 -158.410667 
L 77.851491 -160.265374 
L 78.45149 -162.120081 
L 79.068427 -163.974788 
L 79.70101 -165.829495 
L 80.353588 -167.684202 
L 81.034273 -169.538909 
L 81.751726 -171.393616 
L 82.511305 -173.248323 
L 83.312537 -175.10303 
L 84.149328 -176.957737 
L 85.012183 -178.812444 
L 85.890224 -180.667152 
L 86.771517 -182.521859 
L 87.642337 -184.376566 
L 88.487211 -186.231273 
L 89.290792 -188.08598 
L 90.040803 -189.940687 
L 90.730348 -191.795394 
L 91.358487 -193.650101 
L 91.929228 -195.504808 
L 92.449758 -197.359515 
L 92.928523 -199.214222 
L 93.373426 -201.068929 
L 93.790365 -202.923636 
L 94.182473 -204.778343 
L 94.550314 -206.633051 
L 94.892782 -208.487758 
L 95.208055 -210.342465 
L 95.494105 -212.197172 
L 95.748765 -214.051879 
L 95.969808 -215.906586 
L 96.155409 -217.761293 
L 96.304955 -219.616 
L 96.994408 -219.616 
L 96.994408 -219.616 
L 97.143954 -217.761293 
L 97.329555 -215.906586 
L 97.550598 -214.051879 
L 97.805258 -212.197172 
L 98.091308 -210.342465 
L 98.406581 -208.487758 
L 98.749049 -206.633051 
L 99.11689 -204.778343 
L 99.508998 -202.923636 
L 99.925937 -201.068929 
L 100.37084 -199.214222 
L 100.849605 -197.359515 
L 101.370135 -195.504808 
L 101.940876 -193.650101 
L 102.569015 -191.795394 
L 103.25856 -189.940687 
L 104.008571 -188.08598 
L 104.812152 -186.231273 
L 105.657026 -184.376566 
L 106.527846 -182.521859 
L 107.409139 -180.667152 
L 108.28718 -178.812444 
L 109.150035 -176.957737 
L 109.986826 -175.10303 
L 110.788058 -173.248323 
L 111.547637 -171.393616 
L 112.26509 -169.538909 
L 112.945775 -167.684202 
L 113.598353 -165.829495 
L 114.230936 -163.974788 
L 114.847873 -162.120081 
L 115.447872 -160.265374 
L 116.022929 -158.410667 
L 116.557988 -156.55596 
L 117.032439 -154.701253 
L 117.424391 -152.846545 
L 117.716451 -150.991838 
L 117.899849 -149.137131 
L 117.974522 -147.282424 
L 117.946039 -145.427717 
L 117.822575 -143.57301 
L 117.614289 -141.718303 
L 117.334323 -139.863596 
L 116.998825 -138.008889 
L 116.624637 -136.154182 
L 116.225926 -134.299475 
L 115.811984 -132.444768 
L 115.386986 -130.590061 
L 114.950725 -128.735354 
L 114.499367 -126.880646 
L 114.026657 -125.025939 
L 113.526498 -123.171232 
L 112.996486 -121.316525 
L 112.440417 -119.461818 
L 111.868075 -117.607111 
L 111.292732 -115.752404 
L 110.728516 -113.897697 
L 110.189322 -112.04299 
L 109.688956 -110.188283 
L 109.240951 -108.333576 
L 108.857069 -106.478869 
L 108.544955 -104.624162 
L 108.306165 -102.769455 
L 108.135374 -100.914747 
L 108.020937 -99.06004 
L 107.946834 -97.205333 
L 107.89595 -95.350626 
L 107.854012 -93.495919 
L 107.812659 -91.641212 
L 107.770166 -89.786505 
L 107.729626 -87.931798 
L 107.695935 -86.077091 
L 107.673225 -84.222384 
L 107.663461 -82.367677 
L 107.665879 -80.51297 
L 107.676889 -78.658263 
L 107.690615 -76.803556 
L 107.700322 -74.948848 
L 107.700131 -73.094141 
L 107.685844 -71.239434 
L 107.654153 -69.384727 
L 107.600843 -67.53002 
L 107.519326 -65.675313 
L 107.400362 -63.820606 
L 107.232976 -61.965899 
L 107.006587 -60.111192 
L 106.715088 -58.256485 
L 106.363563 -56.401778 
L 105.976394 -54.547071 
L 105.602632 -52.692364 
L 105.313149 -50.837657 
L 105.186087 -48.982949 
L 105.282003 -47.128242 
L 105.615625 -45.273535 
L 106.134805 -43.418828 
L 106.717145 -41.564121 
L 107.190318 -39.709414 
L 107.373763 -37.854707 
L 107.129854 -36 
z
" style="stroke: #000000; stroke-opacity: 0.8"/>
    </defs>
    <g clip-path="url(#p53bfac8ab7)">
     <use xlink:href="#m5b87eb62f1" x="0" y="288" style="fill: #add8e6; fill-opacity: 0.8; stroke: #000000; stroke-opacity: 0.8"/>
    </g>
   </g>
   <g id="PolyCollection_2">
    <defs>
     <path id="m2268f3a652" d="M 189.198133 -36 
L 174.699956 -36 
L 174.516678 -37.854707 
L 174.606167 -39.709414 
L 174.873234 -41.564121 
L 175.194186 -43.418828 
L 175.450897 -45.273535 
L 175.559346 -47.128242 
L 175.484323 -48.982949 
L 175.238067 -50.837657 
L 174.866367 -52.692364 
L 174.429178 -54.547071 
L 173.983123 -56.401778 
L 173.570802 -58.256485 
L 173.217934 -60.111192 
L 172.93595 -61.965899 
L 172.726455 -63.820606 
L 172.584969 -65.675313 
L 172.503351 -67.53002 
L 172.471484 -69.384727 
L 172.478674 -71.239434 
L 172.514547 -73.094141 
L 172.569083 -74.948848 
L 172.632076 -76.803556 
L 172.69281 -78.658263 
L 172.740541 -80.51297 
L 172.765615 -82.367677 
L 172.76061 -84.222384 
L 172.721075 -86.077091 
L 172.645886 -87.931798 
L 172.537384 -89.786505 
L 172.401286 -91.641212 
L 172.246295 -93.495919 
L 172.083556 -95.350626 
L 171.926102 -97.205333 
L 171.78806 -99.06004 
L 171.682949 -100.914747 
L 171.620655 -102.769455 
L 171.603778 -104.624162 
L 171.625069 -106.478869 
L 171.667468 -108.333576 
L 171.706874 -110.188283 
L 171.716301 -112.04299 
L 171.669639 -113.897697 
L 171.54411 -115.752404 
L 171.321595 -117.607111 
L 170.989588 -119.461818 
L 170.542361 -121.316525 
L 169.982461 -123.171232 
L 169.322114 -125.025939 
L 168.583528 -126.880646 
L 167.796933 -128.735354 
L 166.995855 -130.590061 
L 166.210801 -132.444768 
L 165.463928 -134.299475 
L 164.767057 -136.154182 
L 164.123438 -138.008889 
L 163.53149 -139.863596 
L 162.988228 -141.718303 
L 162.491399 -143.57301 
L 162.04079 -145.427717 
L 161.639268 -147.282424 
L 161.293141 -149.137131 
L 161.011046 -150.991838 
L 160.801595 -152.846545 
L 160.671314 -154.701253 
L 160.624204 -156.55596 
L 160.662558 -158.410667 
L 160.787352 -160.265374 
L 160.99718 -162.120081 
L 161.286669 -163.974788 
L 161.646395 -165.829495 
L 162.065215 -167.684202 
L 162.533906 -169.538909 
L 163.048079 -171.393616 
L 163.609299 -173.248323 
L 164.224644 -175.10303 
L 164.905194 -176.957737 
L 165.663198 -178.812444 
L 166.50763 -180.667152 
L 167.439112 -182.521859 
L 168.446576 -184.376566 
L 169.507777 -186.231273 
L 170.593616 -188.08598 
L 171.673877 -189.940687 
L 172.72161 -191.795394 
L 173.714969 -193.650101 
L 174.637374 -195.504808 
L 175.477545 -197.359515 
L 176.230166 -199.214222 
L 176.896735 -201.068929 
L 177.485624 -202.923636 
L 178.010753 -204.778343 
L 178.488915 -206.633051 
L 178.936255 -208.487758 
L 179.364682 -210.342465 
L 179.779184 -212.197172 
L 180.176998 -214.051879 
L 180.549118 -215.906586 
L 180.883746 -217.761293 
L 181.1704 -219.616 
L 182.727689 -219.616 
L 182.727689 -219.616 
L 183.014343 -217.761293 
L 183.348971 -215.906586 
L 183.721091 -214.051879 
L 184.118905 -212.197172 
L 184.533407 -210.342465 
L 184.961834 -208.487758 
L 185.409174 -206.633051 
L 185.887336 -204.778343 
L 186.412465 -202.923636 
L 187.001354 -201.068929 
L 187.667924 -199.214222 
L 188.420544 -197.359515 
L 189.260715 -195.504808 
L 190.183121 -193.650101 
L 191.17648 -191.795394 
L 192.224212 -189.940687 
L 193.304473 -188.08598 
L 194.390312 -186.231273 
L 195.451514 -184.376566 
L 196.458977 -182.521859 
L 197.390459 -180.667152 
L 198.234892 -178.812444 
L 198.992895 -176.957737 
L 199.673445 -175.10303 
L 200.28879 -173.248323 
L 200.85001 -171.393616 
L 201.364183 -169.538909 
L 201.832874 -167.684202 
L 202.251694 -165.829495 
L 202.61142 -163.974788 
L 202.900909 -162.120081 
L 203.110737 -160.265374 
L 203.235531 -158.410667 
L 203.273885 -156.55596 
L 203.226776 -154.701253 
L 203.096495 -152.846545 
L 202.887043 -150.991838 
L 202.604948 -149.137131 
L 202.258822 -147.282424 
L 201.857299 -145.427717 
L 201.40669 -143.57301 
L 200.909861 -141.718303 
L 200.366599 -139.863596 
L 199.774651 -138.008889 
L 199.131032 -136.154182 
L 198.434162 -134.299475 
L 197.687289 -132.444768 
L 196.902235 -130.590061 
L 196.101156 -128.735354 
L 195.314561 -126.880646 
L 194.575975 -125.025939 
L 193.915628 -123.171232 
L 193.355729 -121.316525 
L 192.908501 -119.461818 
L 192.576494 -117.607111 
L 192.353979 -115.752404 
L 192.22845 -113.897697 
L 192.181789 -112.04299 
L 192.191215 -110.188283 
L 192.230622 -108.333576 
L 192.27302 -106.478869 
L 192.294312 -104.624162 
L 192.277435 -102.769455 
L 192.21514 -100.914747 
L 192.110029 -99.06004 
L 191.971988 -97.205333 
L 191.814533 -95.350626 
L 191.651794 -93.495919 
L 191.496803 -91.641212 
L 191.360705 -89.786505 
L 191.252204 -87.931798 
L 191.177014 -86.077091 
L 191.137479 -84.222384 
L 191.132474 -82.367677 
L 191.157548 -80.51297 
L 191.205279 -78.658263 
L 191.266013 -76.803556 
L 191.329006 -74.948848 
L 191.383542 -73.094141 
L 191.419415 -71.239434 
L 191.426605 -69.384727 
L 191.394738 -67.53002 
L 191.31312 -65.675313 
L 191.171635 -63.820606 
L 190.962139 -61.965899 
L 190.680155 -60.111192 
L 190.327287 -58.256485 
L 189.914966 -56.401778 
L 189.468911 -54.547071 
L 189.031722 -52.692364 
L 188.660022 -50.837657 
L 188.413766 -48.982949 
L 188.338743 -47.128242 
L 188.447192 -45.273535 
L 188.703903 -43.418828 
L 189.024855 -41.564121 
L 189.291922 -39.709414 
L 189.381411 -37.854707 
L 189.198133 -36 
z
" style="stroke: #000000; stroke-opacity: 0.8"/>
    </defs>
    <g clip-path="url(#p53bfac8ab7)">
     <use xlink:href="#m2268f3a652" x="0" y="288" style="fill: #008000; fill-opacity: 0.8; stroke: #000000; stroke-opacity: 0.8"/>
    </g>
   </g>
   <g id="PolyCollection_3">
    <defs>
     <path id="m855adacb74" d="M 267.405095 -45.664 
L 267.09172 -45.664 
L 267.009273 -47.421091 
L 266.898562 -49.178182 
L 266.755183 -50.935273 
L 266.574172 -52.692364 
L 266.349976 -54.449455 
L 266.077725 -56.206545 
L 265.755621 -57.963636 
L 265.386912 -59.720727 
L 264.979555 -61.477818 
L 264.543149 -63.234909 
L 264.085282 -64.992 
L 263.610545 -66.749091 
L 263.123524 -68.506182 
L 262.633123 -70.263273 
L 262.153495 -72.020364 
L 261.69932 -73.777455 
L 261.278538 -75.534545 
L 260.888651 -77.291636 
L 260.519947 -79.048727 
L 260.162778 -80.805818 
L 259.812705 -82.562909 
L 259.470501 -84.32 
L 259.140191 -86.077091 
L 258.830231 -87.834182 
L 258.558029 -89.591273 
L 258.351513 -91.348364 
L 258.241452 -93.105455 
L 258.24613 -94.862545 
L 258.358298 -96.619636 
L 258.544283 -98.376727 
L 258.756185 -100.133818 
L 258.948718 -101.890909 
L 259.091026 -103.648 
L 259.170482 -105.405091 
L 259.192029 -107.162182 
L 259.176549 -108.919273 
L 259.15716 -110.676364 
L 259.170462 -112.433455 
L 259.244014 -114.190545 
L 259.386936 -115.947636 
L 259.59021 -117.704727 
L 259.835995 -119.461818 
L 260.107955 -121.218909 
L 260.394662 -122.976 
L 260.685303 -124.733091 
L 260.963872 -126.490182 
L 261.208118 -128.247273 
L 261.393816 -130.004364 
L 261.500011 -131.761455 
L 261.511281 -133.518545 
L 261.416977 -135.275636 
L 261.209823 -137.032727 
L 260.885203 -138.789818 
L 260.440851 -140.546909 
L 259.877228 -142.304 
L 259.20045 -144.061091 
L 258.428222 -145.818182 
L 257.594522 -147.575273 
L 256.745964 -149.332364 
L 255.927159 -151.089455 
L 255.162075 -152.846545 
L 254.443894 -154.603636 
L 253.740645 -156.360727 
L 253.011646 -158.117818 
L 252.222886 -159.874909 
L 251.354573 -161.632 
L 250.404892 -163.389091 
L 249.396974 -165.146182 
L 248.386971 -166.903273 
L 247.460921 -168.660364 
L 246.71158 -170.417455 
L 246.203815 -172.174545 
L 245.951555 -173.931636 
L 245.923567 -175.688727 
L 246.072441 -177.445818 
L 246.36263 -179.202909 
L 246.777593 -180.96 
L 247.308106 -182.717091 
L 247.940783 -184.474182 
L 248.66107 -186.231273 
L 249.465641 -187.988364 
L 250.36715 -189.745455 
L 251.382406 -191.502545 
L 252.513428 -193.259636 
L 253.739159 -195.016727 
L 255.025243 -196.773818 
L 256.341648 -198.530909 
L 257.671263 -200.288 
L 259.002573 -202.045091 
L 260.315104 -203.802182 
L 261.572246 -205.559273 
L 262.728304 -207.316364 
L 263.744054 -209.073455 
L 264.599237 -210.830545 
L 265.29474 -212.587636 
L 265.84581 -214.344727 
L 266.272841 -216.101818 
L 266.595367 -217.858909 
L 266.830582 -219.616 
L 267.666234 -219.616 
L 267.666234 -219.616 
L 267.901448 -217.858909 
L 268.223974 -216.101818 
L 268.651005 -214.344727 
L 269.202076 -212.587636 
L 269.897579 -210.830545 
L 270.752761 -209.073455 
L 271.768511 -207.316364 
L 272.92457 -205.559273 
L 274.181711 -203.802182 
L 275.494242 -202.045091 
L 276.825553 -200.288 
L 278.155167 -198.530909 
L 279.471572 -196.773818 
L 280.757656 -195.016727 
L 281.983388 -193.259636 
L 283.114409 -191.502545 
L 284.129665 -189.745455 
L 285.031174 -187.988364 
L 285.835745 -186.231273 
L 286.556032 -184.474182 
L 287.188709 -182.717091 
L 287.719223 -180.96 
L 288.134185 -179.202909 
L 288.424374 -177.445818 
L 288.573248 -175.688727 
L 288.545261 -173.931636 
L 288.293 -172.174545 
L 287.785235 -170.417455 
L 287.035894 -168.660364 
L 286.109844 -166.903273 
L 285.099841 -165.146182 
L 284.091924 -163.389091 
L 283.142243 -161.632 
L 282.27393 -159.874909 
L 281.485169 -158.117818 
L 280.756171 -156.360727 
L 280.052921 -154.603636 
L 279.334741 -152.846545 
L 278.569656 -151.089455 
L 277.750852 -149.332364 
L 276.902293 -147.575273 
L 276.068594 -145.818182 
L 275.296365 -144.061091 
L 274.619587 -142.304 
L 274.055965 -140.546909 
L 273.611613 -138.789818 
L 273.286993 -137.032727 
L 273.079838 -135.275636 
L 272.985534 -133.518545 
L 272.996804 -131.761455 
L 273.103 -130.004364 
L 273.288698 -128.247273 
L 273.532943 -126.490182 
L 273.811513 -124.733091 
L 274.102153 -122.976 
L 274.38886 -121.218909 
L 274.660821 -119.461818 
L 274.906605 -117.704727 
L 275.109879 -115.947636 
L 275.252801 -114.190545 
L 275.326353 -112.433455 
L 275.339655 -110.676364 
L 275.320266 -108.919273 
L 275.304786 -107.162182 
L 275.326333 -105.405091 
L 275.40579 -103.648 
L 275.548097 -101.890909 
L 275.74063 -100.133818 
L 275.952532 -98.376727 
L 276.138517 -96.619636 
L 276.250685 -94.862545 
L 276.255363 -93.105455 
L 276.145302 -91.348364 
L 275.938786 -89.591273 
L 275.666584 -87.834182 
L 275.356624 -86.077091 
L 275.026314 -84.32 
L 274.684111 -82.562909 
L 274.334037 -80.805818 
L 273.976869 -79.048727 
L 273.608164 -77.291636 
L 273.218277 -75.534545 
L 272.797495 -73.777455 
L 272.343321 -72.020364 
L 271.863692 -70.263273 
L 271.373292 -68.506182 
L 270.886271 -66.749091 
L 270.411533 -64.992 
L 269.953666 -63.234909 
L 269.517261 -61.477818 
L 269.109903 -59.720727 
L 268.741194 -57.963636 
L 268.41909 -56.206545 
L 268.14684 -54.449455 
L 267.922644 -52.692364 
L 267.741632 -50.935273 
L 267.598253 -49.178182 
L 267.487542 -47.421091 
L 267.405095 -45.664 
z
" style="stroke: #000000; stroke-opacity: 0.8"/>
    </defs>
    <g clip-path="url(#p53bfac8ab7)">
     <use xlink:href="#m855adacb74" x="0" y="288" style="fill: #7f2aff; fill-opacity: 0.8; stroke: #000000; stroke-opacity: 0.8"/>
    </g>
   </g>
   <g id="PolyCollection_4">
    <defs>
     <path id="m2d14cc4c77" d="M 356.543374 -74.656 
L 348.552167 -74.656 
L 348.327471 -76.022626 
L 348.18532 -77.389253 
L 348.104979 -78.755879 
L 348.058292 -80.122505 
L 348.015626 -81.489131 
L 347.95092 -82.855758 
L 347.845085 -84.222384 
L 347.687826 -85.58901 
L 347.478297 -86.955636 
L 347.224775 -88.322263 
L 346.943165 -89.688889 
L 346.654037 -91.055515 
L 346.378438 -92.422141 
L 346.133506 -93.788768 
L 345.929424 -95.155394 
L 345.768927 -96.52202 
L 345.649431 -97.888646 
L 345.566509 -99.255273 
L 345.516775 -100.621899 
L 345.49861 -101.988525 
L 345.510541 -103.355152 
L 345.548462 -104.721778 
L 345.603542 -106.088404 
L 345.662124 -107.45503 
L 345.707752 -108.821657 
L 345.724329 -110.188283 
L 345.699128 -111.554909 
L 345.624962 -112.921535 
L 345.501597 -114.288162 
L 345.336863 -115.654788 
L 345.147523 -117.021414 
L 344.959121 -118.38804 
L 344.803636 -119.754667 
L 344.714332 -121.121293 
L 344.718532 -122.487919 
L 344.83051 -123.854545 
L 345.04716 -125.221172 
L 345.348229 -126.587798 
L 345.701086 -127.954424 
L 346.068107 -129.321051 
L 346.413992 -130.687677 
L 346.710801 -132.054303 
L 346.939886 -133.420929 
L 347.091294 -134.787556 
L 347.161854 -136.154182 
L 347.153017 -137.520808 
L 347.068974 -138.887434 
L 346.915173 -140.254061 
L 346.69739 -141.620687 
L 346.42166 -142.987313 
L 346.095264 -144.353939 
L 345.728446 -145.720566 
L 345.335807 -147.087192 
L 344.936106 -148.453818 
L 344.549804 -149.820444 
L 344.194923 -151.187071 
L 343.883017 -152.553697 
L 343.617248 -153.920323 
L 343.39357 -155.286949 
L 343.20426 -156.653576 
L 343.041658 -158.020202 
L 342.89988 -159.386828 
L 342.773504 -160.753455 
L 342.654143 -162.120081 
L 342.527036 -163.486707 
L 342.369689 -164.853333 
L 342.153343 -166.21996 
L 341.846583 -167.586586 
L 341.419777 -168.953212 
L 340.849424 -170.319838 
L 340.122377 -171.686465 
L 339.240142 -173.053091 
L 338.222718 -174.419717 
L 337.11018 -175.786343 
L 335.959801 -177.15297 
L 334.837788 -178.519596 
L 333.807481 -179.886222 
L 332.918488 -181.252848 
L 332.201716 -182.619475 
L 331.672758 -183.986101 
L 331.341627 -185.352727 
L 331.22293 -186.719354 
L 331.339856 -188.08598 
L 331.718456 -189.452606 
L 332.374124 -190.819232 
L 333.29679 -192.185859 
L 334.442435 -193.552485 
L 335.73562 -194.919111 
L 337.08247 -196.285737 
L 338.389098 -197.652364 
L 339.578868 -199.01899 
L 340.603643 -200.385616 
L 341.447581 -201.752242 
L 342.124924 -203.118869 
L 342.6742 -204.485495 
L 343.150546 -205.852121 
L 343.616604 -207.218747 
L 344.132063 -208.585374 
L 344.742711 -209.952 
L 360.35283 -209.952 
L 360.35283 -209.952 
L 360.963478 -208.585374 
L 361.478938 -207.218747 
L 361.944995 -205.852121 
L 362.421341 -204.485495 
L 362.970617 -203.118869 
L 363.64796 -201.752242 
L 364.491899 -200.385616 
L 365.516673 -199.01899 
L 366.706443 -197.652364 
L 368.013072 -196.285737 
L 369.359922 -194.919111 
L 370.653106 -193.552485 
L 371.798752 -192.185859 
L 372.721417 -190.819232 
L 373.377085 -189.452606 
L 373.755685 -188.08598 
L 373.872611 -186.719354 
L 373.753915 -185.352727 
L 373.422783 -183.986101 
L 372.893826 -182.619475 
L 372.177053 -181.252848 
L 371.28806 -179.886222 
L 370.257753 -178.519596 
L 369.13574 -177.15297 
L 367.985361 -175.786343 
L 366.872823 -174.419717 
L 365.855399 -173.053091 
L 364.973165 -171.686465 
L 364.246117 -170.319838 
L 363.675764 -168.953212 
L 363.248958 -167.586586 
L 362.942199 -166.21996 
L 362.725853 -164.853333 
L 362.568506 -163.486707 
L 362.441399 -162.120081 
L 362.322038 -160.753455 
L 362.195661 -159.386828 
L 362.053883 -158.020202 
L 361.891282 -156.653576 
L 361.701971 -155.286949 
L 361.478293 -153.920323 
L 361.212525 -152.553697 
L 360.900618 -151.187071 
L 360.545737 -149.820444 
L 360.159435 -148.453818 
L 359.759735 -147.087192 
L 359.367095 -145.720566 
L 359.000277 -144.353939 
L 358.673882 -142.987313 
L 358.398151 -141.620687 
L 358.180368 -140.254061 
L 358.026567 -138.887434 
L 357.942524 -137.520808 
L 357.933688 -136.154182 
L 358.004247 -134.787556 
L 358.155656 -133.420929 
L 358.384741 -132.054303 
L 358.681549 -130.687677 
L 359.027435 -129.321051 
L 359.394455 -127.954424 
L 359.747312 -126.587798 
L 360.048382 -125.221172 
L 360.265031 -123.854545 
L 360.37701 -122.487919 
L 360.38121 -121.121293 
L 360.291905 -119.754667 
L 360.136421 -118.38804 
L 359.948018 -117.021414 
L 359.758679 -115.654788 
L 359.593945 -114.288162 
L 359.470579 -112.921535 
L 359.396414 -111.554909 
L 359.371213 -110.188283 
L 359.387789 -108.821657 
L 359.433418 -107.45503 
L 359.491999 -106.088404 
L 359.547079 -104.721778 
L 359.585001 -103.355152 
L 359.596931 -101.988525 
L 359.578766 -100.621899 
L 359.529032 -99.255273 
L 359.446111 -97.888646 
L 359.326614 -96.52202 
L 359.166118 -95.155394 
L 358.962036 -93.788768 
L 358.717103 -92.422141 
L 358.441505 -91.055515 
L 358.152377 -89.688889 
L 357.870766 -88.322263 
L 357.617244 -86.955636 
L 357.407715 -85.58901 
L 357.250457 -84.222384 
L 357.144621 -82.855758 
L 357.079915 -81.489131 
L 357.03725 -80.122505 
L 356.990562 -78.755879 
L 356.910221 -77.389253 
L 356.768071 -76.022626 
L 356.543374 -74.656 
z
" style="stroke: #000000; stroke-opacity: 0.8"/>
    </defs>
    <g clip-path="url(#p53bfac8ab7)">
     <use xlink:href="#m2d14cc4c77" x="0" y="288" style="fill: #a6611a; fill-opacity: 0.8; stroke: #000000; stroke-opacity: 0.8"/>
    </g>
   </g>
   <g id="matplotlib.axis_1">
    <g id="xtick_1">
     <g id="line2d_1">
      <defs>
       <path id="m5d13f789c8" d="M 0 0 
L 0 3.5 
" style="stroke: #000000; stroke-width: 0.8"/>
      </defs>
      <g>
       <use xlink:href="#m5d13f789c8" x="54" y="252" style="stroke: #000000; stroke-width: 0.8"/>
      </g>
     </g>
     <g id="text_1">
      <!-- current_injection -->
      <g transform="translate(15.354847 350.105405)rotate(-45)scale(0.16 -0.16)">
       <defs>
        <path id="ArialMT-63" d="M 2588 1216 
L 3141 1144 
Q 3050 572 2676 248 
Q 2303 -75 1759 -75 
Q 1078 -75 664 370 
Q 250 816 250 1647 
Q 250 2184 428 2587 
Q 606 2991 970 3192 
Q 1334 3394 1763 3394 
Q 2303 3394 2647 3120 
Q 2991 2847 3088 2344 
L 2541 2259 
Q 2463 2594 2264 2762 
Q 2066 2931 1784 2931 
Q 1359 2931 1093 2626 
Q 828 2322 828 1663 
Q 828 994 1084 691 
Q 1341 388 1753 388 
Q 2084 388 2306 591 
Q 2528 794 2588 1216 
z
" transform="scale(0.015625)"/>
        <path id="ArialMT-75" d="M 2597 0 
L 2597 488 
Q 2209 -75 1544 -75 
Q 1250 -75 995 37 
Q 741 150 617 320 
Q 494 491 444 738 
Q 409 903 409 1263 
L 409 3319 
L 972 3319 
L 972 1478 
Q 972 1038 1006 884 
Q 1059 663 1231 536 
Q 1403 409 1656 409 
Q 1909 409 2131 539 
Q 2353 669 2445 892 
Q 2538 1116 2538 1541 
L 2538 3319 
L 3100 3319 
L 3100 0 
L 2597 0 
z
" transform="scale(0.015625)"/>
        <path id="ArialMT-72" d="M 416 0 
L 416 3319 
L 922 3319 
L 922 2816 
Q 1116 3169 1280 3281 
Q 1444 3394 1641 3394 
Q 1925 3394 2219 3213 
L 2025 2691 
Q 1819 2813 1613 2813 
Q 1428 2813 1281 2702 
Q 1134 2591 1072 2394 
Q 978 2094 978 1738 
L 978 0 
L 416 0 
z
" transform="scale(0.015625)"/>
        <path id="ArialMT-65" d="M 2694 1069 
L 3275 997 
Q 3138 488 2766 206 
Q 2394 -75 1816 -75 
Q 1088 -75 661 373 
Q 234 822 234 1631 
Q 234 2469 665 2931 
Q 1097 3394 1784 3394 
Q 2450 3394 2872 2941 
Q 3294 2488 3294 1666 
Q 3294 1616 3291 1516 
L 816 1516 
Q 847 969 1125 678 
Q 1403 388 1819 388 
Q 2128 388 2347 550 
Q 2566 713 2694 1069 
z
M 847 1978 
L 2700 1978 
Q 2663 2397 2488 2606 
Q 2219 2931 1791 2931 
Q 1403 2931 1139 2672 
Q 875 2413 847 1978 
z
" transform="scale(0.015625)"/>
        <path id="ArialMT-6e" d="M 422 0 
L 422 3319 
L 928 3319 
L 928 2847 
Q 1294 3394 1984 3394 
Q 2284 3394 2536 3286 
Q 2788 3178 2913 3003 
Q 3038 2828 3088 2588 
Q 3119 2431 3119 2041 
L 3119 0 
L 2556 0 
L 2556 2019 
Q 2556 2363 2490 2533 
Q 2425 2703 2258 2804 
Q 2091 2906 1866 2906 
Q 1506 2906 1245 2678 
Q 984 2450 984 1813 
L 984 0 
L 422 0 
z
" transform="scale(0.015625)"/>
        <path id="ArialMT-74" d="M 1650 503 
L 1731 6 
Q 1494 -44 1306 -44 
Q 1000 -44 831 53 
Q 663 150 594 308 
Q 525 466 525 972 
L 525 2881 
L 113 2881 
L 113 3319 
L 525 3319 
L 525 4141 
L 1084 4478 
L 1084 3319 
L 1650 3319 
L 1650 2881 
L 1084 2881 
L 1084 941 
Q 1084 700 1114 631 
Q 1144 563 1211 522 
Q 1278 481 1403 481 
Q 1497 481 1650 503 
z
" transform="scale(0.015625)"/>
        <path id="ArialMT-5f" d="M -97 -1272 
L -97 -866 
L 3631 -866 
L 3631 -1272 
L -97 -1272 
z
" transform="scale(0.015625)"/>
        <path id="ArialMT-69" d="M 425 3934 
L 425 4581 
L 988 4581 
L 988 3934 
L 425 3934 
z
M 425 0 
L 425 3319 
L 988 3319 
L 988 0 
L 425 0 
z
" transform="scale(0.015625)"/>
        <path id="ArialMT-6a" d="M 419 3928 
L 419 4581 
L 981 4581 
L 981 3928 
L 419 3928 
z
M -294 -1288 
L -188 -809 
Q -19 -853 78 -853 
Q 250 -853 334 -739 
Q 419 -625 419 -169 
L 419 3319 
L 981 3319 
L 981 -181 
Q 981 -794 822 -1034 
Q 619 -1347 147 -1347 
Q -81 -1347 -294 -1288 
z
" transform="scale(0.015625)"/>
        <path id="ArialMT-6f" d="M 213 1659 
Q 213 2581 725 3025 
Q 1153 3394 1769 3394 
Q 2453 3394 2887 2945 
Q 3322 2497 3322 1706 
Q 3322 1066 3130 698 
Q 2938 331 2570 128 
Q 2203 -75 1769 -75 
Q 1072 -75 642 372 
Q 213 819 213 1659 
z
M 791 1659 
Q 791 1022 1069 705 
Q 1347 388 1769 388 
Q 2188 388 2466 706 
Q 2744 1025 2744 1678 
Q 2744 2294 2464 2611 
Q 2184 2928 1769 2928 
Q 1347 2928 1069 2612 
Q 791 2297 791 1659 
z
" transform="scale(0.015625)"/>
       </defs>
       <use xlink:href="#ArialMT-63"/>
       <use xlink:href="#ArialMT-75" x="50"/>
       <use xlink:href="#ArialMT-72" x="105.615234"/>
       <use xlink:href="#ArialMT-72" x="138.916016"/>
       <use xlink:href="#ArialMT-65" x="172.216797"/>
       <use xlink:href="#ArialMT-6e" x="227.832031"/>
       <use xlink:href="#ArialMT-74" x="283.447266"/>
       <use xlink:href="#ArialMT-5f" x="311.230469"/>
       <use xlink:href="#ArialMT-69" x="366.845703"/>
       <use xlink:href="#ArialMT-6e" x="389.0625"/>
       <use xlink:href="#ArialMT-6a" x="444.677734"/>
       <use xlink:href="#ArialMT-65" x="466.894531"/>
       <use xlink:href="#ArialMT-63" x="522.509766"/>
       <use xlink:href="#ArialMT-74" x="572.509766"/>
       <use xlink:href="#ArialMT-69" x="600.292969"/>
       <use xlink:href="#ArialMT-6f" x="622.509766"/>
       <use xlink:href="#ArialMT-6e" x="678.125"/>
      </g>
     </g>
    </g>
    <g id="xtick_2">
     <g id="line2d_2">
      <g>
       <use xlink:href="#m5d13f789c8" x="139.299363" y="252" style="stroke: #000000; stroke-width: 0.8"/>
      </g>
     </g>
     <g id="text_2">
      <!-- current_injection-FS -->
      <g transform="translate(91.611198 368.467201)rotate(-45)scale(0.16 -0.16)">
       <defs>
        <path id="ArialMT-2d" d="M 203 1375 
L 203 1941 
L 1931 1941 
L 1931 1375 
L 203 1375 
z
" transform="scale(0.015625)"/>
        <path id="ArialMT-46" d="M 525 0 
L 525 4581 
L 3616 4581 
L 3616 4041 
L 1131 4041 
L 1131 2622 
L 3281 2622 
L 3281 2081 
L 1131 2081 
L 1131 0 
L 525 0 
z
" transform="scale(0.015625)"/>
        <path id="ArialMT-53" d="M 288 1472 
L 859 1522 
Q 900 1178 1048 958 
Q 1197 738 1509 602 
Q 1822 466 2213 466 
Q 2559 466 2825 569 
Q 3091 672 3220 851 
Q 3350 1031 3350 1244 
Q 3350 1459 3225 1620 
Q 3100 1781 2813 1891 
Q 2628 1963 1997 2114 
Q 1366 2266 1113 2400 
Q 784 2572 623 2826 
Q 463 3081 463 3397 
Q 463 3744 659 4045 
Q 856 4347 1234 4503 
Q 1613 4659 2075 4659 
Q 2584 4659 2973 4495 
Q 3363 4331 3572 4012 
Q 3781 3694 3797 3291 
L 3216 3247 
Q 3169 3681 2898 3903 
Q 2628 4125 2100 4125 
Q 1550 4125 1298 3923 
Q 1047 3722 1047 3438 
Q 1047 3191 1225 3031 
Q 1400 2872 2139 2705 
Q 2878 2538 3153 2413 
Q 3553 2228 3743 1945 
Q 3934 1663 3934 1294 
Q 3934 928 3725 604 
Q 3516 281 3123 101 
Q 2731 -78 2241 -78 
Q 1619 -78 1198 103 
Q 778 284 539 648 
Q 300 1013 288 1472 
z
" transform="scale(0.015625)"/>
       </defs>
       <use xlink:href="#ArialMT-63"/>
       <use xlink:href="#ArialMT-75" x="50"/>
       <use xlink:href="#ArialMT-72" x="105.615234"/>
       <use xlink:href="#ArialMT-72" x="138.916016"/>
       <use xlink:href="#ArialMT-65" x="172.216797"/>
       <use xlink:href="#ArialMT-6e" x="227.832031"/>
       <use xlink:href="#ArialMT-74" x="283.447266"/>
       <use xlink:href="#ArialMT-5f" x="311.230469"/>
       <use xlink:href="#ArialMT-69" x="366.845703"/>
       <use xlink:href="#ArialMT-6e" x="389.0625"/>
       <use xlink:href="#ArialMT-6a" x="444.677734"/>
       <use xlink:href="#ArialMT-65" x="466.894531"/>
       <use xlink:href="#ArialMT-63" x="522.509766"/>
       <use xlink:href="#ArialMT-74" x="572.509766"/>
       <use xlink:href="#ArialMT-69" x="600.292969"/>
       <use xlink:href="#ArialMT-6f" x="622.509766"/>
       <use xlink:href="#ArialMT-6e" x="678.125"/>
       <use xlink:href="#ArialMT-2d" x="733.740234"/>
       <use xlink:href="#ArialMT-46" x="767.041016"/>
       <use xlink:href="#ArialMT-53" x="828.125"/>
      </g>
     </g>
    </g>
    <g id="xtick_3">
     <g id="line2d_3">
      <g>
       <use xlink:href="#m5d13f789c8" x="224.598726" y="252" style="stroke: #000000; stroke-width: 0.8"/>
      </g>
     </g>
     <g id="text_3">
      <!-- current_injection-SPN -->
      <g transform="translate(172.507053 377.274216)rotate(-45)scale(0.16 -0.16)">
       <defs>
        <path id="ArialMT-50" d="M 494 0 
L 494 4581 
L 2222 4581 
Q 2678 4581 2919 4538 
Q 3256 4481 3484 4323 
Q 3713 4166 3852 3881 
Q 3991 3597 3991 3256 
Q 3991 2672 3619 2267 
Q 3247 1863 2275 1863 
L 1100 1863 
L 1100 0 
L 494 0 
z
M 1100 2403 
L 2284 2403 
Q 2872 2403 3119 2622 
Q 3366 2841 3366 3238 
Q 3366 3525 3220 3729 
Q 3075 3934 2838 4000 
Q 2684 4041 2272 4041 
L 1100 4041 
L 1100 2403 
z
" transform="scale(0.015625)"/>
        <path id="ArialMT-4e" d="M 488 0 
L 488 4581 
L 1109 4581 
L 3516 984 
L 3516 4581 
L 4097 4581 
L 4097 0 
L 3475 0 
L 1069 3600 
L 1069 0 
L 488 0 
z
" transform="scale(0.015625)"/>
       </defs>
       <use xlink:href="#ArialMT-63"/>
       <use xlink:href="#ArialMT-75" x="50"/>
       <use xlink:href="#ArialMT-72" x="105.615234"/>
       <use xlink:href="#ArialMT-72" x="138.916016"/>
       <use xlink:href="#ArialMT-65" x="172.216797"/>
       <use xlink:href="#ArialMT-6e" x="227.832031"/>
       <use xlink:href="#ArialMT-74" x="283.447266"/>
       <use xlink:href="#ArialMT-5f" x="311.230469"/>
       <use xlink:href="#ArialMT-69" x="366.845703"/>
       <use xlink:href="#ArialMT-6e" x="389.0625"/>
       <use xlink:href="#ArialMT-6a" x="444.677734"/>
       <use xlink:href="#ArialMT-65" x="466.894531"/>
       <use xlink:href="#ArialMT-63" x="522.509766"/>
       <use xlink:href="#ArialMT-74" x="572.509766"/>
       <use xlink:href="#ArialMT-69" x="600.292969"/>
       <use xlink:href="#ArialMT-6f" x="622.509766"/>
       <use xlink:href="#ArialMT-6e" x="678.125"/>
       <use xlink:href="#ArialMT-2d" x="733.740234"/>
       <use xlink:href="#ArialMT-53" x="767.041016"/>
       <use xlink:href="#ArialMT-50" x="833.740234"/>
       <use xlink:href="#ArialMT-4e" x="900.439453"/>
      </g>
     </g>
    </g>
    <g id="xtick_4">
     <g id="line2d_4">
      <g>
       <use xlink:href="#m5d13f789c8" x="309.898089" y="252" style="stroke: #000000; stroke-width: 0.8"/>
      </g>
     </g>
     <g id="text_4">
      <!-- current_injection-all -->
      <g transform="translate(263.709874 365.191529)rotate(-45)scale(0.16 -0.16)">
       <defs>
        <path id="ArialMT-61" d="M 2588 409 
Q 2275 144 1986 34 
Q 1697 -75 1366 -75 
Q 819 -75 525 192 
Q 231 459 231 875 
Q 231 1119 342 1320 
Q 453 1522 633 1644 
Q 813 1766 1038 1828 
Q 1203 1872 1538 1913 
Q 2219 1994 2541 2106 
Q 2544 2222 2544 2253 
Q 2544 2597 2384 2738 
Q 2169 2928 1744 2928 
Q 1347 2928 1158 2789 
Q 969 2650 878 2297 
L 328 2372 
Q 403 2725 575 2942 
Q 747 3159 1072 3276 
Q 1397 3394 1825 3394 
Q 2250 3394 2515 3294 
Q 2781 3194 2906 3042 
Q 3031 2891 3081 2659 
Q 3109 2516 3109 2141 
L 3109 1391 
Q 3109 606 3145 398 
Q 3181 191 3288 0 
L 2700 0 
Q 2613 175 2588 409 
z
M 2541 1666 
Q 2234 1541 1622 1453 
Q 1275 1403 1131 1340 
Q 988 1278 909 1158 
Q 831 1038 831 891 
Q 831 666 1001 516 
Q 1172 366 1500 366 
Q 1825 366 2078 508 
Q 2331 650 2450 897 
Q 2541 1088 2541 1459 
L 2541 1666 
z
" transform="scale(0.015625)"/>
        <path id="ArialMT-6c" d="M 409 0 
L 409 4581 
L 972 4581 
L 972 0 
L 409 0 
z
" transform="scale(0.015625)"/>
       </defs>
       <use xlink:href="#ArialMT-63"/>
       <use xlink:href="#ArialMT-75" x="50"/>
       <use xlink:href="#ArialMT-72" x="105.615234"/>
       <use xlink:href="#ArialMT-72" x="138.916016"/>
       <use xlink:href="#ArialMT-65" x="172.216797"/>
       <use xlink:href="#ArialMT-6e" x="227.832031"/>
       <use xlink:href="#ArialMT-74" x="283.447266"/>
       <use xlink:href="#ArialMT-5f" x="311.230469"/>
       <use xlink:href="#ArialMT-69" x="366.845703"/>
       <use xlink:href="#ArialMT-6e" x="389.0625"/>
       <use xlink:href="#ArialMT-6a" x="444.677734"/>
       <use xlink:href="#ArialMT-65" x="466.894531"/>
       <use xlink:href="#ArialMT-63" x="522.509766"/>
       <use xlink:href="#ArialMT-74" x="572.509766"/>
       <use xlink:href="#ArialMT-69" x="600.292969"/>
       <use xlink:href="#ArialMT-6f" x="622.509766"/>
       <use xlink:href="#ArialMT-6e" x="678.125"/>
       <use xlink:href="#ArialMT-2d" x="733.740234"/>
       <use xlink:href="#ArialMT-61" x="767.041016"/>
       <use xlink:href="#ArialMT-6c" x="822.65625"/>
       <use xlink:href="#ArialMT-6c" x="844.873047"/>
      </g>
     </g>
    </g>
   </g>
   <g id="matplotlib.axis_2">
    <g id="ytick_1">
     <g id="line2d_5">
      <defs>
       <path id="m71243d032c" d="M 0 0 
L -3.5 0 
" style="stroke: #000000; stroke-width: 0.8"/>
      </defs>
      <g>
       <use xlink:href="#m71243d032c" x="54" y="252" style="stroke: #000000; stroke-width: 0.8"/>
      </g>
     </g>
     <g id="text_5">
      <!-- 0 -->
      <g transform="translate(38.0925 257.318906)scale(0.14 -0.14)">
       <defs>
        <path id="DejaVuSans-30" d="M 2034 4250 
Q 1547 4250 1301 3770 
Q 1056 3291 1056 2328 
Q 1056 1369 1301 889 
Q 1547 409 2034 409 
Q 2525 409 2770 889 
Q 3016 1369 3016 2328 
Q 3016 3291 2770 3770 
Q 2525 4250 2034 4250 
z
M 2034 4750 
Q 2819 4750 3233 4129 
Q 3647 3509 3647 2328 
Q 3647 1150 3233 529 
Q 2819 -91 2034 -91 
Q 1250 -91 836 529 
Q 422 1150 422 2328 
Q 422 3509 836 4129 
Q 1250 4750 2034 4750 
z
" transform="scale(0.015625)"/>
       </defs>
       <use xlink:href="#DejaVuSans-30"/>
      </g>
     </g>
    </g>
    <g id="ytick_2">
     <g id="line2d_6">
      <g>
       <use xlink:href="#m71243d032c" x="54" y="227.84" style="stroke: #000000; stroke-width: 0.8"/>
      </g>
     </g>
     <g id="text_6">
      <!-- 5 -->
      <g transform="translate(38.0925 233.158906)scale(0.14 -0.14)">
       <defs>
        <path id="DejaVuSans-35" d="M 691 4666 
L 3169 4666 
L 3169 4134 
L 1269 4134 
L 1269 2991 
Q 1406 3038 1543 3061 
Q 1681 3084 1819 3084 
Q 2600 3084 3056 2656 
Q 3513 2228 3513 1497 
Q 3513 744 3044 326 
Q 2575 -91 1722 -91 
Q 1428 -91 1123 -41 
Q 819 9 494 109 
L 494 744 
Q 775 591 1075 516 
Q 1375 441 1709 441 
Q 2250 441 2565 725 
Q 2881 1009 2881 1497 
Q 2881 1984 2565 2268 
Q 2250 2553 1709 2553 
Q 1456 2553 1204 2497 
Q 953 2441 691 2322 
L 691 4666 
z
" transform="scale(0.015625)"/>
       </defs>
       <use xlink:href="#DejaVuSans-35"/>
      </g>
     </g>
    </g>
    <g id="ytick_3">
     <g id="line2d_7">
      <g>
       <use xlink:href="#m71243d032c" x="54" y="203.68" style="stroke: #000000; stroke-width: 0.8"/>
      </g>
     </g>
     <g id="text_7">
      <!-- 10 -->
      <g transform="translate(29.185 208.998906)scale(0.14 -0.14)">
       <defs>
        <path id="DejaVuSans-31" d="M 794 531 
L 1825 531 
L 1825 4091 
L 703 3866 
L 703 4441 
L 1819 4666 
L 2450 4666 
L 2450 531 
L 3481 531 
L 3481 0 
L 794 0 
L 794 531 
z
" transform="scale(0.015625)"/>
       </defs>
       <use xlink:href="#DejaVuSans-31"/>
       <use xlink:href="#DejaVuSans-30" x="63.623047"/>
      </g>
     </g>
    </g>
    <g id="ytick_4">
     <g id="line2d_8">
      <g>
       <use xlink:href="#m71243d032c" x="54" y="179.52" style="stroke: #000000; stroke-width: 0.8"/>
      </g>
     </g>
     <g id="text_8">
      <!-- 15 -->
      <g transform="translate(29.185 184.838906)scale(0.14 -0.14)">
       <use xlink:href="#DejaVuSans-31"/>
       <use xlink:href="#DejaVuSans-35" x="63.623047"/>
      </g>
     </g>
    </g>
    <g id="ytick_5">
     <g id="line2d_9">
      <g>
       <use xlink:href="#m71243d032c" x="54" y="155.36" style="stroke: #000000; stroke-width: 0.8"/>
      </g>
     </g>
     <g id="text_9">
      <!-- 20 -->
      <g transform="translate(29.185 160.678906)scale(0.14 -0.14)">
       <defs>
        <path id="DejaVuSans-32" d="M 1228 531 
L 3431 531 
L 3431 0 
L 469 0 
L 469 531 
Q 828 903 1448 1529 
Q 2069 2156 2228 2338 
Q 2531 2678 2651 2914 
Q 2772 3150 2772 3378 
Q 2772 3750 2511 3984 
Q 2250 4219 1831 4219 
Q 1534 4219 1204 4116 
Q 875 4013 500 3803 
L 500 4441 
Q 881 4594 1212 4672 
Q 1544 4750 1819 4750 
Q 2544 4750 2975 4387 
Q 3406 4025 3406 3419 
Q 3406 3131 3298 2873 
Q 3191 2616 2906 2266 
Q 2828 2175 2409 1742 
Q 1991 1309 1228 531 
z
" transform="scale(0.015625)"/>
       </defs>
       <use xlink:href="#DejaVuSans-32"/>
       <use xlink:href="#DejaVuSans-30" x="63.623047"/>
      </g>
     </g>
    </g>
    <g id="ytick_6">
     <g id="line2d_10">
      <g>
       <use xlink:href="#m71243d032c" x="54" y="131.2" style="stroke: #000000; stroke-width: 0.8"/>
      </g>
     </g>
     <g id="text_10">
      <!-- 25 -->
      <g transform="translate(29.185 136.518906)scale(0.14 -0.14)">
       <use xlink:href="#DejaVuSans-32"/>
       <use xlink:href="#DejaVuSans-35" x="63.623047"/>
      </g>
     </g>
    </g>
    <g id="ytick_7">
     <g id="line2d_11">
      <g>
       <use xlink:href="#m71243d032c" x="54" y="107.04" style="stroke: #000000; stroke-width: 0.8"/>
      </g>
     </g>
     <g id="text_11">
      <!-- 30 -->
      <g transform="translate(29.185 112.358906)scale(0.14 -0.14)">
       <defs>
        <path id="DejaVuSans-33" d="M 2597 2516 
Q 3050 2419 3304 2112 
Q 3559 1806 3559 1356 
Q 3559 666 3084 287 
Q 2609 -91 1734 -91 
Q 1441 -91 1130 -33 
Q 819 25 488 141 
L 488 750 
Q 750 597 1062 519 
Q 1375 441 1716 441 
Q 2309 441 2620 675 
Q 2931 909 2931 1356 
Q 2931 1769 2642 2001 
Q 2353 2234 1838 2234 
L 1294 2234 
L 1294 2753 
L 1863 2753 
Q 2328 2753 2575 2939 
Q 2822 3125 2822 3475 
Q 2822 3834 2567 4026 
Q 2313 4219 1838 4219 
Q 1578 4219 1281 4162 
Q 984 4106 628 3988 
L 628 4550 
Q 988 4650 1302 4700 
Q 1616 4750 1894 4750 
Q 2613 4750 3031 4423 
Q 3450 4097 3450 3541 
Q 3450 3153 3228 2886 
Q 3006 2619 2597 2516 
z
" transform="scale(0.015625)"/>
       </defs>
       <use xlink:href="#DejaVuSans-33"/>
       <use xlink:href="#DejaVuSans-30" x="63.623047"/>
      </g>
     </g>
    </g>
    <g id="ytick_8">
     <g id="line2d_12">
      <g>
       <use xlink:href="#m71243d032c" x="54" y="82.88" style="stroke: #000000; stroke-width: 0.8"/>
      </g>
     </g>
     <g id="text_12">
      <!-- 35 -->
      <g transform="translate(29.185 88.198906)scale(0.14 -0.14)">
       <use xlink:href="#DejaVuSans-33"/>
       <use xlink:href="#DejaVuSans-35" x="63.623047"/>
      </g>
     </g>
    </g>
    <g id="ytick_9">
     <g id="line2d_13">
      <g>
       <use xlink:href="#m71243d032c" x="54" y="58.72" style="stroke: #000000; stroke-width: 0.8"/>
      </g>
     </g>
     <g id="text_13">
      <!-- 40 -->
      <g transform="translate(29.185 64.038906)scale(0.14 -0.14)">
       <defs>
        <path id="DejaVuSans-34" d="M 2419 4116 
L 825 1625 
L 2419 1625 
L 2419 4116 
z
M 2253 4666 
L 3047 4666 
L 3047 1625 
L 3713 1625 
L 3713 1100 
L 3047 1100 
L 3047 0 
L 2419 0 
L 2419 1100 
L 313 1100 
L 313 1709 
L 2253 4666 
z
" transform="scale(0.015625)"/>
       </defs>
       <use xlink:href="#DejaVuSans-34"/>
       <use xlink:href="#DejaVuSans-30" x="63.623047"/>
      </g>
     </g>
    </g>
    <g id="ytick_10">
     <g id="line2d_14">
      <g>
       <use xlink:href="#m71243d032c" x="54" y="34.56" style="stroke: #000000; stroke-width: 0.8"/>
      </g>
     </g>
     <g id="text_14">
      <!-- 45 -->
      <g transform="translate(29.185 39.878906)scale(0.14 -0.14)">
       <use xlink:href="#DejaVuSans-34"/>
       <use xlink:href="#DejaVuSans-35" x="63.623047"/>
      </g>
     </g>
    </g>
    <g id="text_15">
     <!-- Frequency (Hz) -->
     <g transform="translate(21.8175 198.40125)rotate(-90)scale(0.16 -0.16)">
      <defs>
       <path id="ArialMT-71" d="M 2538 -1272 
L 2538 353 
Q 2406 169 2170 47 
Q 1934 -75 1669 -75 
Q 1078 -75 651 397 
Q 225 869 225 1691 
Q 225 2191 398 2587 
Q 572 2984 901 3189 
Q 1231 3394 1625 3394 
Q 2241 3394 2594 2875 
L 2594 3319 
L 3100 3319 
L 3100 -1272 
L 2538 -1272 
z
M 803 1669 
Q 803 1028 1072 708 
Q 1341 388 1716 388 
Q 2075 388 2334 692 
Q 2594 997 2594 1619 
Q 2594 2281 2320 2615 
Q 2047 2950 1678 2950 
Q 1313 2950 1058 2639 
Q 803 2328 803 1669 
z
" transform="scale(0.015625)"/>
       <path id="ArialMT-79" d="M 397 -1278 
L 334 -750 
Q 519 -800 656 -800 
Q 844 -800 956 -737 
Q 1069 -675 1141 -563 
Q 1194 -478 1313 -144 
Q 1328 -97 1363 -6 
L 103 3319 
L 709 3319 
L 1400 1397 
Q 1534 1031 1641 628 
Q 1738 1016 1872 1384 
L 2581 3319 
L 3144 3319 
L 1881 -56 
Q 1678 -603 1566 -809 
Q 1416 -1088 1222 -1217 
Q 1028 -1347 759 -1347 
Q 597 -1347 397 -1278 
z
" transform="scale(0.015625)"/>
       <path id="ArialMT-20" transform="scale(0.015625)"/>
       <path id="ArialMT-28" d="M 1497 -1347 
Q 1031 -759 709 28 
Q 388 816 388 1659 
Q 388 2403 628 3084 
Q 909 3875 1497 4659 
L 1900 4659 
Q 1522 4009 1400 3731 
Q 1209 3300 1100 2831 
Q 966 2247 966 1656 
Q 966 153 1900 -1347 
L 1497 -1347 
z
" transform="scale(0.015625)"/>
       <path id="ArialMT-48" d="M 513 0 
L 513 4581 
L 1119 4581 
L 1119 2700 
L 3500 2700 
L 3500 4581 
L 4106 4581 
L 4106 0 
L 3500 0 
L 3500 2159 
L 1119 2159 
L 1119 0 
L 513 0 
z
" transform="scale(0.015625)"/>
       <path id="ArialMT-7a" d="M 125 0 
L 125 456 
L 2238 2881 
Q 1878 2863 1603 2863 
L 250 2863 
L 250 3319 
L 2963 3319 
L 2963 2947 
L 1166 841 
L 819 456 
Q 1197 484 1528 484 
L 3063 484 
L 3063 0 
L 125 0 
z
" transform="scale(0.015625)"/>
       <path id="ArialMT-29" d="M 791 -1347 
L 388 -1347 
Q 1322 153 1322 1656 
Q 1322 2244 1188 2822 
Q 1081 3291 891 3722 
Q 769 4003 388 4659 
L 791 4659 
Q 1378 3875 1659 3084 
Q 1900 2403 1900 1659 
Q 1900 816 1576 28 
Q 1253 -759 791 -1347 
z
" transform="scale(0.015625)"/>
      </defs>
      <use xlink:href="#ArialMT-46"/>
      <use xlink:href="#ArialMT-72" x="61.083984"/>
      <use xlink:href="#ArialMT-65" x="94.384766"/>
      <use xlink:href="#ArialMT-71" x="150"/>
      <use xlink:href="#ArialMT-75" x="205.615234"/>
      <use xlink:href="#ArialMT-65" x="261.230469"/>
      <use xlink:href="#ArialMT-6e" x="316.845703"/>
      <use xlink:href="#ArialMT-63" x="372.460938"/>
      <use xlink:href="#ArialMT-79" x="422.460938"/>
      <use xlink:href="#ArialMT-20" x="472.460938"/>
      <use xlink:href="#ArialMT-28" x="500.244141"/>
      <use xlink:href="#ArialMT-48" x="533.544922"/>
      <use xlink:href="#ArialMT-7a" x="605.761719"/>
      <use xlink:href="#ArialMT-29" x="655.761719"/>
     </g>
    </g>
   </g>
   <g id="LineCollection_1">
    <path d="M 85.987261 168.423964 
L 107.312102 168.423964 
" clip-path="url(#p53bfac8ab7)" style="fill: none; stroke: #000000; stroke-width: 1.6"/>
    <path d="M 171.286624 159.344753 
L 192.611465 159.344753 
" clip-path="url(#p53bfac8ab7)" style="fill: none; stroke: #000000; stroke-width: 1.6"/>
    <path d="M 256.585987 139.255329 
L 277.910828 139.255329 
" clip-path="url(#p53bfac8ab7)" style="fill: none; stroke: #000000; stroke-width: 1.6"/>
    <path d="M 341.88535 130.762905 
L 363.210191 130.762905 
" clip-path="url(#p53bfac8ab7)" style="fill: none; stroke: #000000; stroke-width: 1.6"/>
   </g>
   <g id="LineCollection_2">
    <path d="M 85.987261 68.384 
L 107.312102 68.384 
" clip-path="url(#p53bfac8ab7)" style="fill: none; stroke: #000000; stroke-width: 1.6"/>
    <path d="M 171.286624 68.384 
L 192.611465 68.384 
" clip-path="url(#p53bfac8ab7)" style="fill: none; stroke: #000000; stroke-width: 1.6"/>
    <path d="M 256.585987 68.384 
L 277.910828 68.384 
" clip-path="url(#p53bfac8ab7)" style="fill: none; stroke: #000000; stroke-width: 1.6"/>
    <path d="M 341.88535 78.048 
L 363.210191 78.048 
" clip-path="url(#p53bfac8ab7)" style="fill: none; stroke: #000000; stroke-width: 1.6"/>
   </g>
   <g id="LineCollection_3">
    <path d="M 85.987261 252 
L 107.312102 252 
" clip-path="url(#p53bfac8ab7)" style="fill: none; stroke: #000000; stroke-width: 1.6"/>
    <path d="M 171.286624 252 
L 192.611465 252 
" clip-path="url(#p53bfac8ab7)" style="fill: none; stroke: #000000; stroke-width: 1.6"/>
    <path d="M 256.585987 242.336 
L 277.910828 242.336 
" clip-path="url(#p53bfac8ab7)" style="fill: none; stroke: #000000; stroke-width: 1.6"/>
    <path d="M 341.88535 213.344 
L 363.210191 213.344 
" clip-path="url(#p53bfac8ab7)" style="fill: none; stroke: #000000; stroke-width: 1.6"/>
   </g>
   <g id="LineCollection_4">
    <path d="M 96.649682 252 
L 96.649682 68.384 
" clip-path="url(#p53bfac8ab7)" style="fill: none; stroke: #000000; stroke-width: 1.6"/>
    <path d="M 181.949045 252 
L 181.949045 68.384 
" clip-path="url(#p53bfac8ab7)" style="fill: none; stroke: #000000; stroke-width: 1.6"/>
    <path d="M 267.248408 242.336 
L 267.248408 68.384 
" clip-path="url(#p53bfac8ab7)" style="fill: none; stroke: #000000; stroke-width: 1.6"/>
    <path d="M 352.547771 213.344 
L 352.547771 78.048 
" clip-path="url(#p53bfac8ab7)" style="fill: none; stroke: #000000; stroke-width: 1.6"/>
   </g>
   <g id="patch_3">
    <path d="M 54 252 
L 54 34.56 
" style="fill: none; stroke: #000000; stroke-width: 0.8; stroke-linejoin: miter; stroke-linecap: square"/>
   </g>
   <g id="patch_4">
    <path d="M 388.8 252 
L 388.8 34.56 
" style="fill: none; stroke: #000000; stroke-width: 0.8; stroke-linejoin: miter; stroke-linecap: square"/>
   </g>
   <g id="patch_5">
    <path d="M 54 252 
L 388.8 252 
" style="fill: none; stroke: #000000; stroke-width: 0.8; stroke-linejoin: miter; stroke-linecap: square"/>
   </g>
   <g id="patch_6">
    <path d="M 54 34.56 
L 388.8 34.56 
" style="fill: none; stroke: #000000; stroke-width: 0.8; stroke-linejoin: miter; stroke-linecap: square"/>
   </g>
  </g>
 </g>
 <defs>
  <clipPath id="p53bfac8ab7">
   <rect x="54" y="34.56" width="334.8" height="217.44"/>
  </clipPath>
 </defs>
</svg>
