<?xml version="1.0" encoding="utf-8" standalone="no"?>
<!DOCTYPE svg PUBLIC "-//W3C//DTD SVG 1.1//EN"
  "http://www.w3.org/Graphics/SVG/1.1/DTD/svg11.dtd">
<svg xmlns:xlink="http://www.w3.org/1999/xlink" width="432pt" height="288pt" viewBox="0 0 432 288" xmlns="http://www.w3.org/2000/svg" version="1.1">
 <metadata>
  <rdf:RDF xmlns:dc="http://purl.org/dc/elements/1.1/" xmlns:cc="http://creativecommons.org/ns#" xmlns:rdf="http://www.w3.org/1999/02/22-rdf-syntax-ns#">
   <cc:Work>
    <dc:type rdf:resource="http://purl.org/dc/dcmitype/StillImage"/>
    <dc:date>2022-10-30T19:49:37.486370</dc:date>
    <dc:format>image/svg+xml</dc:format>
    <dc:creator>
     <cc:Agent>
      <dc:title>Matplotlib v3.5.2, https://matplotlib.org/</dc:title>
     </cc:Agent>
    </dc:creator>
   </cc:Work>
  </rdf:RDF>
 </metadata>
 <defs>
  <style type="text/css">*{stroke-linejoin: round; stroke-linecap: butt}</style>
 </defs>
 <g id="figure_1">
  <g id="patch_1">
   <path d="M 0 288 
L 432 288 
L 432 0 
L 0 0 
L 0 288 
z
" style="fill: none"/>
  </g>
  <g id="axes_1">
   <g id="patch_2">
    <path d="M 54 252 
L 388.8 252 
L 388.8 34.56 
L 54 34.56 
z
" style="fill: #ffffff"/>
   </g>
   <g id="PolyCollection_1">
    <defs>
     <path id="mdf692bd2a6" d="M 140.041579 -36 
L 84.410595 -36 
L 84.651362 -37.952323 
L 86.292192 -39.904646 
L 88.98497 -41.85697 
L 92.249757 -43.809293 
L 95.599805 -45.761616 
L 98.646311 -47.713939 
L 101.154273 -49.666263 
L 103.044547 -51.618586 
L 104.357048 -53.570909 
L 105.198459 -55.523232 
L 105.694753 -57.475556 
L 105.959488 -59.427879 
L 106.079276 -61.380202 
L 106.111958 -63.332525 
L 106.091399 -65.284848 
L 106.034152 -67.237172 
L 105.945406 -69.189495 
L 105.82337 -71.141818 
L 105.662142 -73.094141 
L 105.453467 -75.046465 
L 105.187894 -76.998788 
L 104.85584 -78.951111 
L 104.448871 -80.903434 
L 103.961239 -82.855758 
L 103.39142 -84.808081 
L 102.743141 -86.760404 
L 102.025329 -88.712727 
L 101.250655 -90.665051 
L 100.432906 -92.617374 
L 99.584032 -94.569697 
L 98.711964 -96.52202 
L 97.819781 -98.474343 
L 96.906127 -100.426667 
L 95.966278 -102.37899 
L 94.993493 -104.331313 
L 93.98071 -106.283636 
L 92.922806 -108.23596 
L 91.819385 -110.188283 
L 90.677639 -112.140606 
L 89.51464 -114.092929 
L 88.358236 -116.045253 
L 87.245575 -117.997576 
L 86.218533 -119.949899 
L 85.316488 -121.902222 
L 84.568512 -123.854545 
L 83.987993 -125.806869 
L 83.571765 -127.759192 
L 83.303524 -129.711515 
L 83.159366 -131.663838 
L 83.113043 -133.616162 
L 83.139725 -135.568485 
L 83.218247 -137.520808 
L 83.332218 -139.473131 
L 83.470177 -141.425455 
L 83.625121 -143.377778 
L 83.794054 -145.330101 
L 83.978218 -147.282424 
L 84.184046 -149.234747 
L 84.424228 -151.187071 
L 84.718103 -153.139394 
L 85.090887 -155.091717 
L 85.571395 -157.04404 
L 86.187972 -158.996364 
L 86.962851 -160.948687 
L 87.906325 -162.90101 
L 89.012999 -164.853333 
L 90.261958 -166.805657 
L 91.620744 -168.75798 
L 93.051171 -170.710303 
L 94.514571 -172.662626 
L 95.975269 -174.614949 
L 97.402603 -176.567273 
L 98.772284 -178.519596 
L 100.067419 -180.471919 
L 101.278848 -182.424242 
L 102.404363 -184.376566 
L 103.446815 -186.328889 
L 104.411484 -188.281212 
L 105.303277 -190.233535 
L 106.124321 -192.185859 
L 106.872568 -194.138182 
L 107.541891 -196.090505 
L 108.123693 -198.042828 
L 108.609493 -199.995152 
L 108.993559 -201.947475 
L 109.274898 -203.899798 
L 109.458398 -205.852121 
L 109.555399 -207.804444 
L 109.583952 -209.756768 
L 109.568602 -211.709091 
L 109.53908 -213.661414 
L 109.527231 -215.613737 
L 109.562158 -217.566061 
L 109.664566 -219.518384 
L 109.842179 -221.470707 
L 110.088085 -223.42303 
L 110.382915 -225.375354 
L 110.700181 -227.327677 
L 111.012823 -229.28 
L 113.439351 -229.28 
L 113.439351 -229.28 
L 113.751993 -227.327677 
L 114.069259 -225.375354 
L 114.364089 -223.42303 
L 114.609995 -221.470707 
L 114.787607 -219.518384 
L 114.890016 -217.566061 
L 114.924943 -215.613737 
L 114.913094 -213.661414 
L 114.883572 -211.709091 
L 114.868222 -209.756768 
L 114.896775 -207.804444 
L 114.993776 -205.852121 
L 115.177276 -203.899798 
L 115.458615 -201.947475 
L 115.842681 -199.995152 
L 116.328481 -198.042828 
L 116.910283 -196.090505 
L 117.579606 -194.138182 
L 118.327853 -192.185859 
L 119.148896 -190.233535 
L 120.04069 -188.281212 
L 121.005359 -186.328889 
L 122.047811 -184.376566 
L 123.173326 -182.424242 
L 124.384754 -180.471919 
L 125.67989 -178.519596 
L 127.049571 -176.567273 
L 128.476905 -174.614949 
L 129.937603 -172.662626 
L 131.401003 -170.710303 
L 132.83143 -168.75798 
L 134.190216 -166.805657 
L 135.439175 -164.853333 
L 136.545849 -162.90101 
L 137.489323 -160.948687 
L 138.264202 -158.996364 
L 138.880778 -157.04404 
L 139.361287 -155.091717 
L 139.734071 -153.139394 
L 140.027945 -151.187071 
L 140.268128 -149.234747 
L 140.473956 -147.282424 
L 140.65812 -145.330101 
L 140.827053 -143.377778 
L 140.981997 -141.425455 
L 141.119956 -139.473131 
L 141.233927 -137.520808 
L 141.312449 -135.568485 
L 141.33913 -133.616162 
L 141.292808 -131.663838 
L 141.14865 -129.711515 
L 140.880409 -127.759192 
L 140.464181 -125.806869 
L 139.883662 -123.854545 
L 139.135686 -121.902222 
L 138.233641 -119.949899 
L 137.206599 -117.997576 
L 136.093937 -116.045253 
L 134.937534 -114.092929 
L 133.774535 -112.140606 
L 132.632788 -110.188283 
L 131.529367 -108.23596 
L 130.471464 -106.283636 
L 129.458681 -104.331313 
L 128.485896 -102.37899 
L 127.546047 -100.426667 
L 126.632393 -98.474343 
L 125.74021 -96.52202 
L 124.868142 -94.569697 
L 124.019268 -92.617374 
L 123.201518 -90.665051 
L 122.426845 -88.712727 
L 121.709033 -86.760404 
L 121.060753 -84.808081 
L 120.490935 -82.855758 
L 120.003303 -80.903434 
L 119.596334 -78.951111 
L 119.26428 -76.998788 
L 118.998707 -75.046465 
L 118.790032 -73.094141 
L 118.628804 -71.141818 
L 118.506768 -69.189495 
L 118.418022 -67.237172 
L 118.360774 -65.284848 
L 118.340216 -63.332525 
L 118.372898 -61.380202 
L 118.492686 -59.427879 
L 118.757421 -57.475556 
L 119.253715 -55.523232 
L 120.095126 -53.570909 
L 121.407627 -51.618586 
L 123.297901 -49.666263 
L 125.805863 -47.713939 
L 128.852369 -45.761616 
L 132.202417 -43.809293 
L 135.467204 -41.85697 
L 138.159982 -39.904646 
L 139.800812 -37.952323 
L 140.041579 -36 
z
" style="stroke: #000000; stroke-opacity: 0.8"/>
    </defs>
    <g clip-path="url(#pa8ef38670b)">
     <use xlink:href="#mdf692bd2a6" x="0" y="288" style="fill: #800080; fill-opacity: 0.8; stroke: #000000; stroke-opacity: 0.8"/>
    </g>
   </g>
   <g id="PolyCollection_2">
    <defs>
     <path id="mf1656da1c1" d="M 232.203689 -36 
L 225.152833 -36 
L 224.984986 -37.952323 
L 224.972794 -39.904646 
L 225.055796 -41.85697 
L 225.158732 -43.809293 
L 225.215254 -45.761616 
L 225.182457 -47.713939 
L 225.04393 -49.666263 
L 224.804372 -51.618586 
L 224.480697 -53.570909 
L 224.094592 -55.523232 
L 223.67005 -57.475556 
L 223.23574 -59.427879 
L 222.827365 -61.380202 
L 222.484067 -63.332525 
L 222.238203 -65.284848 
L 222.105224 -67.237172 
L 222.081787 -69.189495 
L 222.15319 -71.141818 
L 222.302772 -73.094141 
L 222.515246 -75.046465 
L 222.773363 -76.998788 
L 223.054268 -78.951111 
L 223.330897 -80.903434 
L 223.577298 -82.855758 
L 223.772822 -84.808081 
L 223.902397 -86.760404 
L 223.95462 -88.712727 
L 223.920722 -90.665051 
L 223.795536 -92.617374 
L 223.579899 -94.569697 
L 223.283742 -96.52202 
L 222.928535 -98.474343 
L 222.546291 -100.426667 
L 222.173029 -102.37899 
L 221.838963 -104.331313 
L 221.561845 -106.283636 
L 221.347821 -108.23596 
L 221.196497 -110.188283 
L 221.101836 -112.140606 
L 221.044624 -114.092929 
L 220.981941 -116.045253 
L 220.844206 -117.997576 
L 220.546212 -119.949899 
L 220.010021 -121.902222 
L 219.191839 -123.854545 
L 218.103153 -125.806869 
L 216.81575 -127.759192 
L 215.442423 -129.711515 
L 214.095131 -131.663838 
L 212.837848 -133.616162 
L 211.659307 -135.568485 
L 210.480888 -137.520808 
L 209.194114 -139.473131 
L 207.709592 -141.425455 
L 206.00266 -143.377778 
L 204.14774 -145.330101 
L 202.329028 -147.282424 
L 200.80779 -149.234747 
L 199.838894 -151.187071 
L 199.565217 -153.139394 
L 199.947395 -155.091717 
L 200.773783 -157.04404 
L 201.745664 -158.996364 
L 202.588578 -160.948687 
L 203.13739 -162.90101 
L 203.371784 -164.853333 
L 203.405161 -166.805657 
L 203.436616 -168.75798 
L 203.677208 -170.710303 
L 204.273807 -172.662626 
L 205.264887 -174.614949 
L 206.590071 -176.567273 
L 208.140498 -178.519596 
L 209.811249 -180.471919 
L 211.52522 -182.424242 
L 213.22904 -184.376566 
L 214.882554 -186.328889 
L 216.457036 -188.281212 
L 217.93863 -190.233535 
L 219.326483 -192.185859 
L 220.624014 -194.138182 
L 221.831377 -196.090505 
L 222.94488 -198.042828 
L 223.959944 -199.995152 
L 224.870506 -201.947475 
L 225.663743 -203.899798 
L 226.316414 -205.852121 
L 226.799454 -207.804444 
L 227.090763 -209.756768 
L 227.189322 -211.709091 
L 227.122326 -213.661414 
L 226.941124 -215.613737 
L 226.708011 -217.566061 
L 226.480594 -219.518384 
L 226.30136 -221.470707 
L 226.196324 -223.42303 
L 226.18037 -225.375354 
L 226.26251 -227.327677 
L 226.445538 -229.28 
L 230.910984 -229.28 
L 230.910984 -229.28 
L 231.094012 -227.327677 
L 231.176152 -225.375354 
L 231.160198 -223.42303 
L 231.055162 -221.470707 
L 230.875928 -219.518384 
L 230.64851 -217.566061 
L 230.415397 -215.613737 
L 230.234196 -213.661414 
L 230.167199 -211.709091 
L 230.265759 -209.756768 
L 230.557068 -207.804444 
L 231.040107 -205.852121 
L 231.692779 -203.899798 
L 232.486016 -201.947475 
L 233.396577 -199.995152 
L 234.411641 -198.042828 
L 235.525145 -196.090505 
L 236.732507 -194.138182 
L 238.030039 -192.185859 
L 239.417892 -190.233535 
L 240.899486 -188.281212 
L 242.473968 -186.328889 
L 244.127482 -184.376566 
L 245.831302 -182.424242 
L 247.545273 -180.471919 
L 249.216024 -178.519596 
L 250.766451 -176.567273 
L 252.091635 -174.614949 
L 253.082715 -172.662626 
L 253.679314 -170.710303 
L 253.919906 -168.75798 
L 253.951361 -166.805657 
L 253.984738 -164.853333 
L 254.219132 -162.90101 
L 254.767944 -160.948687 
L 255.610857 -158.996364 
L 256.582739 -157.04404 
L 257.409127 -155.091717 
L 257.791304 -153.139394 
L 257.517627 -151.187071 
L 256.548732 -149.234747 
L 255.027494 -147.282424 
L 253.208782 -145.330101 
L 251.353861 -143.377778 
L 249.64693 -141.425455 
L 248.162408 -139.473131 
L 246.875633 -137.520808 
L 245.697214 -135.568485 
L 244.518674 -133.616162 
L 243.261391 -131.663838 
L 241.914098 -129.711515 
L 240.540772 -127.759192 
L 239.253369 -125.806869 
L 238.164683 -123.854545 
L 237.346501 -121.902222 
L 236.81031 -119.949899 
L 236.512316 -117.997576 
L 236.37458 -116.045253 
L 236.311898 -114.092929 
L 236.254686 -112.140606 
L 236.160024 -110.188283 
L 236.008701 -108.23596 
L 235.794677 -106.283636 
L 235.517558 -104.331313 
L 235.183493 -102.37899 
L 234.810231 -100.426667 
L 234.427987 -98.474343 
L 234.072779 -96.52202 
L 233.776623 -94.569697 
L 233.560986 -92.617374 
L 233.4358 -90.665051 
L 233.401902 -88.712727 
L 233.454124 -86.760404 
L 233.583699 -84.808081 
L 233.779224 -82.855758 
L 234.025625 -80.903434 
L 234.302253 -78.951111 
L 234.583159 -76.998788 
L 234.841276 -75.046465 
L 235.05375 -73.094141 
L 235.203332 -71.141818 
L 235.274735 -69.189495 
L 235.251297 -67.237172 
L 235.118319 -65.284848 
L 234.872455 -63.332525 
L 234.529156 -61.380202 
L 234.120782 -59.427879 
L 233.686472 -57.475556 
L 233.26193 -55.523232 
L 232.875825 -53.570909 
L 232.55215 -51.618586 
L 232.312592 -49.666263 
L 232.174065 -47.713939 
L 232.141267 -45.761616 
L 232.197789 -43.809293 
L 232.300725 -41.85697 
L 232.383728 -39.904646 
L 232.371536 -37.952323 
L 232.203689 -36 
z
" style="stroke: #000000; stroke-opacity: 0.8"/>
    </defs>
    <g clip-path="url(#pa8ef38670b)">
     <use xlink:href="#mf1656da1c1" x="0" y="288" style="fill: #a61b1a; fill-opacity: 0.8; stroke: #000000; stroke-opacity: 0.8"/>
    </g>
   </g>
   <g id="PolyCollection_3">
    <defs>
     <path id="m2793749d6f" d="M 346.945926 -36 
L 343.314943 -36 
L 343.233533 -37.952323 
L 343.226546 -39.904646 
L 343.244919 -41.85697 
L 343.230228 -43.809293 
L 343.133187 -45.761616 
L 342.926472 -47.713939 
L 342.608649 -49.666263 
L 342.19902 -51.618586 
L 341.726058 -53.570909 
L 341.215475 -55.523232 
L 340.6852 -57.475556 
L 340.14983 -59.427879 
L 339.628486 -61.380202 
L 339.146511 -63.332525 
L 338.728508 -65.284848 
L 338.391018 -67.237172 
L 338.144423 -69.189495 
L 338.002155 -71.141818 
L 337.984229 -73.094141 
L 338.106004 -75.046465 
L 338.359195 -76.998788 
L 338.702469 -78.951111 
L 339.071321 -80.903434 
L 339.399979 -82.855758 
L 339.639918 -84.808081 
L 339.766377 -86.760404 
L 339.775363 -88.712727 
L 339.677187 -90.665051 
L 339.48956 -92.617374 
L 339.231784 -94.569697 
L 338.923167 -96.52202 
L 338.587141 -98.474343 
L 338.255908 -100.426667 
L 337.967169 -102.37899 
L 337.75182 -104.331313 
L 337.622749 -106.283636 
L 337.575615 -108.23596 
L 337.599646 -110.188283 
L 337.684567 -112.140606 
L 337.813604 -114.092929 
L 337.948361 -116.045253 
L 338.021332 -117.997576 
L 337.945819 -119.949899 
L 337.639773 -121.902222 
L 337.05321 -123.854545 
L 336.189616 -125.806869 
L 335.112391 -127.759192 
L 333.927091 -129.711515 
L 332.738513 -131.663838 
L 331.599767 -133.616162 
L 330.482397 -135.568485 
L 329.285797 -137.520808 
L 327.878887 -139.473131 
L 326.153743 -141.425455 
L 324.079484 -143.377778 
L 321.752641 -145.330101 
L 319.425088 -147.282424 
L 317.469866 -149.234747 
L 316.262361 -151.187071 
L 316.017391 -153.139394 
L 316.676746 -155.091717 
L 317.923289 -157.04404 
L 319.3133 -158.996364 
L 320.44462 -160.948687 
L 321.076748 -162.90101 
L 321.172799 -164.853333 
L 320.877488 -166.805657 
L 320.45053 -168.75798 
L 320.170211 -170.710303 
L 320.23754 -172.662626 
L 320.727863 -174.614949 
L 321.614947 -176.567273 
L 322.837853 -178.519596 
L 324.348777 -180.471919 
L 326.108036 -182.424242 
L 328.050446 -184.376566 
L 330.072187 -186.328889 
L 332.057028 -188.281212 
L 333.916253 -190.233535 
L 335.607046 -192.185859 
L 337.121789 -194.138182 
L 338.467864 -196.090505 
L 339.656638 -198.042828 
L 340.701347 -199.995152 
L 341.61317 -201.947475 
L 342.392006 -203.899798 
L 343.020012 -205.852121 
L 343.467041 -207.804444 
L 343.707824 -209.756768 
L 343.741425 -211.709091 
L 343.601806 -213.661414 
L 343.353467 -215.613737 
L 343.073969 -217.566061 
L 342.831812 -219.518384 
L 342.670797 -221.470707 
L 342.608102 -223.42303 
L 342.644169 -225.375354 
L 342.774545 -227.327677 
L 342.993894 -229.28 
L 347.266976 -229.28 
L 347.266976 -229.28 
L 347.486324 -227.327677 
L 347.616701 -225.375354 
L 347.652767 -223.42303 
L 347.590072 -221.470707 
L 347.429058 -219.518384 
L 347.1869 -217.566061 
L 346.907402 -215.613737 
L 346.659064 -213.661414 
L 346.519444 -211.709091 
L 346.553045 -209.756768 
L 346.793828 -207.804444 
L 347.240858 -205.852121 
L 347.868863 -203.899798 
L 348.6477 -201.947475 
L 349.559523 -199.995152 
L 350.604232 -198.042828 
L 351.793006 -196.090505 
L 353.139081 -194.138182 
L 354.653823 -192.185859 
L 356.344617 -190.233535 
L 358.203841 -188.281212 
L 360.188682 -186.328889 
L 362.210424 -184.376566 
L 364.152834 -182.424242 
L 365.912092 -180.471919 
L 367.423017 -178.519596 
L 368.645923 -176.567273 
L 369.533007 -174.614949 
L 370.02333 -172.662626 
L 370.090658 -170.710303 
L 369.810339 -168.75798 
L 369.383381 -166.805657 
L 369.088071 -164.853333 
L 369.184121 -162.90101 
L 369.816249 -160.948687 
L 370.947569 -158.996364 
L 372.33758 -157.04404 
L 373.584123 -155.091717 
L 374.243478 -153.139394 
L 373.998509 -151.187071 
L 372.791004 -149.234747 
L 370.835782 -147.282424 
L 368.508229 -145.330101 
L 366.181386 -143.377778 
L 364.107127 -141.425455 
L 362.381982 -139.473131 
L 360.975072 -137.520808 
L 359.778473 -135.568485 
L 358.661103 -133.616162 
L 357.522356 -131.663838 
L 356.333779 -129.711515 
L 355.148479 -127.759192 
L 354.071253 -125.806869 
L 353.20766 -123.854545 
L 352.621096 -121.902222 
L 352.315051 -119.949899 
L 352.239538 -117.997576 
L 352.312509 -116.045253 
L 352.447265 -114.092929 
L 352.576302 -112.140606 
L 352.661224 -110.188283 
L 352.685254 -108.23596 
L 352.63812 -106.283636 
L 352.50905 -104.331313 
L 352.2937 -102.37899 
L 352.004961 -100.426667 
L 351.673729 -98.474343 
L 351.337703 -96.52202 
L 351.029086 -94.569697 
L 350.77131 -92.617374 
L 350.583683 -90.665051 
L 350.485507 -88.712727 
L 350.494492 -86.760404 
L 350.620951 -84.808081 
L 350.86089 -82.855758 
L 351.189549 -80.903434 
L 351.558401 -78.951111 
L 351.901674 -76.998788 
L 352.154866 -75.046465 
L 352.276641 -73.094141 
L 352.258715 -71.141818 
L 352.116446 -69.189495 
L 351.869851 -67.237172 
L 351.532362 -65.284848 
L 351.114359 -63.332525 
L 350.632384 -61.380202 
L 350.111039 -59.427879 
L 349.575669 -57.475556 
L 349.045395 -55.523232 
L 348.534811 -53.570909 
L 348.06185 -51.618586 
L 347.65222 -49.666263 
L 347.334397 -47.713939 
L 347.127683 -45.761616 
L 347.030641 -43.809293 
L 347.015951 -41.85697 
L 347.034324 -39.904646 
L 347.027336 -37.952323 
L 346.945926 -36 
z
" style="stroke: #000000; stroke-opacity: 0.8"/>
    </defs>
    <g clip-path="url(#pa8ef38670b)">
     <use xlink:href="#m2793749d6f" x="0" y="288" style="fill: #7f2aff; fill-opacity: 0.8; stroke: #000000; stroke-opacity: 0.8"/>
    </g>
   </g>
   <g id="matplotlib.axis_1">
    <g id="xtick_1">
     <g id="line2d_1">
      <defs>
       <path id="ma011e7ee56" d="M 0 0 
L 0 3.5 
" style="stroke: #000000; stroke-width: 0.8"/>
      </defs>
      <g>
       <use xlink:href="#ma011e7ee56" x="54" y="252" style="stroke: #000000; stroke-width: 0.8"/>
      </g>
     </g>
     <g id="text_1">
      <!-- current_injection -->
      <g transform="translate(15.354847 350.105405)rotate(-45)scale(0.16 -0.16)">
       <defs>
        <path id="ArialMT-63" d="M 2588 1216 
L 3141 1144 
Q 3050 572 2676 248 
Q 2303 -75 1759 -75 
Q 1078 -75 664 370 
Q 250 816 250 1647 
Q 250 2184 428 2587 
Q 606 2991 970 3192 
Q 1334 3394 1763 3394 
Q 2303 3394 2647 3120 
Q 2991 2847 3088 2344 
L 2541 2259 
Q 2463 2594 2264 2762 
Q 2066 2931 1784 2931 
Q 1359 2931 1093 2626 
Q 828 2322 828 1663 
Q 828 994 1084 691 
Q 1341 388 1753 388 
Q 2084 388 2306 591 
Q 2528 794 2588 1216 
z
" transform="scale(0.015625)"/>
        <path id="ArialMT-75" d="M 2597 0 
L 2597 488 
Q 2209 -75 1544 -75 
Q 1250 -75 995 37 
Q 741 150 617 320 
Q 494 491 444 738 
Q 409 903 409 1263 
L 409 3319 
L 972 3319 
L 972 1478 
Q 972 1038 1006 884 
Q 1059 663 1231 536 
Q 1403 409 1656 409 
Q 1909 409 2131 539 
Q 2353 669 2445 892 
Q 2538 1116 2538 1541 
L 2538 3319 
L 3100 3319 
L 3100 0 
L 2597 0 
z
" transform="scale(0.015625)"/>
        <path id="ArialMT-72" d="M 416 0 
L 416 3319 
L 922 3319 
L 922 2816 
Q 1116 3169 1280 3281 
Q 1444 3394 1641 3394 
Q 1925 3394 2219 3213 
L 2025 2691 
Q 1819 2813 1613 2813 
Q 1428 2813 1281 2702 
Q 1134 2591 1072 2394 
Q 978 2094 978 1738 
L 978 0 
L 416 0 
z
" transform="scale(0.015625)"/>
        <path id="ArialMT-65" d="M 2694 1069 
L 3275 997 
Q 3138 488 2766 206 
Q 2394 -75 1816 -75 
Q 1088 -75 661 373 
Q 234 822 234 1631 
Q 234 2469 665 2931 
Q 1097 3394 1784 3394 
Q 2450 3394 2872 2941 
Q 3294 2488 3294 1666 
Q 3294 1616 3291 1516 
L 816 1516 
Q 847 969 1125 678 
Q 1403 388 1819 388 
Q 2128 388 2347 550 
Q 2566 713 2694 1069 
z
M 847 1978 
L 2700 1978 
Q 2663 2397 2488 2606 
Q 2219 2931 1791 2931 
Q 1403 2931 1139 2672 
Q 875 2413 847 1978 
z
" transform="scale(0.015625)"/>
        <path id="ArialMT-6e" d="M 422 0 
L 422 3319 
L 928 3319 
L 928 2847 
Q 1294 3394 1984 3394 
Q 2284 3394 2536 3286 
Q 2788 3178 2913 3003 
Q 3038 2828 3088 2588 
Q 3119 2431 3119 2041 
L 3119 0 
L 2556 0 
L 2556 2019 
Q 2556 2363 2490 2533 
Q 2425 2703 2258 2804 
Q 2091 2906 1866 2906 
Q 1506 2906 1245 2678 
Q 984 2450 984 1813 
L 984 0 
L 422 0 
z
" transform="scale(0.015625)"/>
        <path id="ArialMT-74" d="M 1650 503 
L 1731 6 
Q 1494 -44 1306 -44 
Q 1000 -44 831 53 
Q 663 150 594 308 
Q 525 466 525 972 
L 525 2881 
L 113 2881 
L 113 3319 
L 525 3319 
L 525 4141 
L 1084 4478 
L 1084 3319 
L 1650 3319 
L 1650 2881 
L 1084 2881 
L 1084 941 
Q 1084 700 1114 631 
Q 1144 563 1211 522 
Q 1278 481 1403 481 
Q 1497 481 1650 503 
z
" transform="scale(0.015625)"/>
        <path id="ArialMT-5f" d="M -97 -1272 
L -97 -866 
L 3631 -866 
L 3631 -1272 
L -97 -1272 
z
" transform="scale(0.015625)"/>
        <path id="ArialMT-69" d="M 425 3934 
L 425 4581 
L 988 4581 
L 988 3934 
L 425 3934 
z
M 425 0 
L 425 3319 
L 988 3319 
L 988 0 
L 425 0 
z
" transform="scale(0.015625)"/>
        <path id="ArialMT-6a" d="M 419 3928 
L 419 4581 
L 981 4581 
L 981 3928 
L 419 3928 
z
M -294 -1288 
L -188 -809 
Q -19 -853 78 -853 
Q 250 -853 334 -739 
Q 419 -625 419 -169 
L 419 3319 
L 981 3319 
L 981 -181 
Q 981 -794 822 -1034 
Q 619 -1347 147 -1347 
Q -81 -1347 -294 -1288 
z
" transform="scale(0.015625)"/>
        <path id="ArialMT-6f" d="M 213 1659 
Q 213 2581 725 3025 
Q 1153 3394 1769 3394 
Q 2453 3394 2887 2945 
Q 3322 2497 3322 1706 
Q 3322 1066 3130 698 
Q 2938 331 2570 128 
Q 2203 -75 1769 -75 
Q 1072 -75 642 372 
Q 213 819 213 1659 
z
M 791 1659 
Q 791 1022 1069 705 
Q 1347 388 1769 388 
Q 2188 388 2466 706 
Q 2744 1025 2744 1678 
Q 2744 2294 2464 2611 
Q 2184 2928 1769 2928 
Q 1347 2928 1069 2612 
Q 791 2297 791 1659 
z
" transform="scale(0.015625)"/>
       </defs>
       <use xlink:href="#ArialMT-63"/>
       <use xlink:href="#ArialMT-75" x="50"/>
       <use xlink:href="#ArialMT-72" x="105.615234"/>
       <use xlink:href="#ArialMT-72" x="138.916016"/>
       <use xlink:href="#ArialMT-65" x="172.216797"/>
       <use xlink:href="#ArialMT-6e" x="227.832031"/>
       <use xlink:href="#ArialMT-74" x="283.447266"/>
       <use xlink:href="#ArialMT-5f" x="311.230469"/>
       <use xlink:href="#ArialMT-69" x="366.845703"/>
       <use xlink:href="#ArialMT-6e" x="389.0625"/>
       <use xlink:href="#ArialMT-6a" x="444.677734"/>
       <use xlink:href="#ArialMT-65" x="466.894531"/>
       <use xlink:href="#ArialMT-63" x="522.509766"/>
       <use xlink:href="#ArialMT-74" x="572.509766"/>
       <use xlink:href="#ArialMT-69" x="600.292969"/>
       <use xlink:href="#ArialMT-6f" x="622.509766"/>
       <use xlink:href="#ArialMT-6e" x="678.125"/>
      </g>
     </g>
    </g>
    <g id="xtick_2">
     <g id="line2d_2">
      <g>
       <use xlink:href="#ma011e7ee56" x="170.452174" y="252" style="stroke: #000000; stroke-width: 0.8"/>
      </g>
     </g>
     <g id="text_2">
      <!-- current_injection-iSPN -->
      <g transform="translate(117.103619 379.78798)rotate(-45)scale(0.16 -0.16)">
       <defs>
        <path id="ArialMT-2d" d="M 203 1375 
L 203 1941 
L 1931 1941 
L 1931 1375 
L 203 1375 
z
" transform="scale(0.015625)"/>
        <path id="ArialMT-53" d="M 288 1472 
L 859 1522 
Q 900 1178 1048 958 
Q 1197 738 1509 602 
Q 1822 466 2213 466 
Q 2559 466 2825 569 
Q 3091 672 3220 851 
Q 3350 1031 3350 1244 
Q 3350 1459 3225 1620 
Q 3100 1781 2813 1891 
Q 2628 1963 1997 2114 
Q 1366 2266 1113 2400 
Q 784 2572 623 2826 
Q 463 3081 463 3397 
Q 463 3744 659 4045 
Q 856 4347 1234 4503 
Q 1613 4659 2075 4659 
Q 2584 4659 2973 4495 
Q 3363 4331 3572 4012 
Q 3781 3694 3797 3291 
L 3216 3247 
Q 3169 3681 2898 3903 
Q 2628 4125 2100 4125 
Q 1550 4125 1298 3923 
Q 1047 3722 1047 3438 
Q 1047 3191 1225 3031 
Q 1400 2872 2139 2705 
Q 2878 2538 3153 2413 
Q 3553 2228 3743 1945 
Q 3934 1663 3934 1294 
Q 3934 928 3725 604 
Q 3516 281 3123 101 
Q 2731 -78 2241 -78 
Q 1619 -78 1198 103 
Q 778 284 539 648 
Q 300 1013 288 1472 
z
" transform="scale(0.015625)"/>
        <path id="ArialMT-50" d="M 494 0 
L 494 4581 
L 2222 4581 
Q 2678 4581 2919 4538 
Q 3256 4481 3484 4323 
Q 3713 4166 3852 3881 
Q 3991 3597 3991 3256 
Q 3991 2672 3619 2267 
Q 3247 1863 2275 1863 
L 1100 1863 
L 1100 0 
L 494 0 
z
M 1100 2403 
L 2284 2403 
Q 2872 2403 3119 2622 
Q 3366 2841 3366 3238 
Q 3366 3525 3220 3729 
Q 3075 3934 2838 4000 
Q 2684 4041 2272 4041 
L 1100 4041 
L 1100 2403 
z
" transform="scale(0.015625)"/>
        <path id="ArialMT-4e" d="M 488 0 
L 488 4581 
L 1109 4581 
L 3516 984 
L 3516 4581 
L 4097 4581 
L 4097 0 
L 3475 0 
L 1069 3600 
L 1069 0 
L 488 0 
z
" transform="scale(0.015625)"/>
       </defs>
       <use xlink:href="#ArialMT-63"/>
       <use xlink:href="#ArialMT-75" x="50"/>
       <use xlink:href="#ArialMT-72" x="105.615234"/>
       <use xlink:href="#ArialMT-72" x="138.916016"/>
       <use xlink:href="#ArialMT-65" x="172.216797"/>
       <use xlink:href="#ArialMT-6e" x="227.832031"/>
       <use xlink:href="#ArialMT-74" x="283.447266"/>
       <use xlink:href="#ArialMT-5f" x="311.230469"/>
       <use xlink:href="#ArialMT-69" x="366.845703"/>
       <use xlink:href="#ArialMT-6e" x="389.0625"/>
       <use xlink:href="#ArialMT-6a" x="444.677734"/>
       <use xlink:href="#ArialMT-65" x="466.894531"/>
       <use xlink:href="#ArialMT-63" x="522.509766"/>
       <use xlink:href="#ArialMT-74" x="572.509766"/>
       <use xlink:href="#ArialMT-69" x="600.292969"/>
       <use xlink:href="#ArialMT-6f" x="622.509766"/>
       <use xlink:href="#ArialMT-6e" x="678.125"/>
       <use xlink:href="#ArialMT-2d" x="733.740234"/>
       <use xlink:href="#ArialMT-69" x="767.041016"/>
       <use xlink:href="#ArialMT-53" x="789.257812"/>
       <use xlink:href="#ArialMT-50" x="855.957031"/>
       <use xlink:href="#ArialMT-4e" x="922.65625"/>
      </g>
     </g>
    </g>
    <g id="xtick_3">
     <g id="line2d_3">
      <g>
       <use xlink:href="#ma011e7ee56" x="286.904348" y="252" style="stroke: #000000; stroke-width: 0.8"/>
      </g>
     </g>
     <g id="text_3">
      <!-- current_injection-SPN -->
      <g transform="translate(234.812675 377.274216)rotate(-45)scale(0.16 -0.16)">
       <use xlink:href="#ArialMT-63"/>
       <use xlink:href="#ArialMT-75" x="50"/>
       <use xlink:href="#ArialMT-72" x="105.615234"/>
       <use xlink:href="#ArialMT-72" x="138.916016"/>
       <use xlink:href="#ArialMT-65" x="172.216797"/>
       <use xlink:href="#ArialMT-6e" x="227.832031"/>
       <use xlink:href="#ArialMT-74" x="283.447266"/>
       <use xlink:href="#ArialMT-5f" x="311.230469"/>
       <use xlink:href="#ArialMT-69" x="366.845703"/>
       <use xlink:href="#ArialMT-6e" x="389.0625"/>
       <use xlink:href="#ArialMT-6a" x="444.677734"/>
       <use xlink:href="#ArialMT-65" x="466.894531"/>
       <use xlink:href="#ArialMT-63" x="522.509766"/>
       <use xlink:href="#ArialMT-74" x="572.509766"/>
       <use xlink:href="#ArialMT-69" x="600.292969"/>
       <use xlink:href="#ArialMT-6f" x="622.509766"/>
       <use xlink:href="#ArialMT-6e" x="678.125"/>
       <use xlink:href="#ArialMT-2d" x="733.740234"/>
       <use xlink:href="#ArialMT-53" x="767.041016"/>
       <use xlink:href="#ArialMT-50" x="833.740234"/>
       <use xlink:href="#ArialMT-4e" x="900.439453"/>
      </g>
     </g>
    </g>
   </g>
   <g id="matplotlib.axis_2">
    <g id="ytick_1">
     <g id="line2d_4">
      <defs>
       <path id="mec29fe5988" d="M 0 0 
L -3.5 0 
" style="stroke: #000000; stroke-width: 0.8"/>
      </defs>
      <g>
       <use xlink:href="#mec29fe5988" x="54" y="252" style="stroke: #000000; stroke-width: 0.8"/>
      </g>
     </g>
     <g id="text_4">
      <!-- 0 -->
      <g transform="translate(38.0925 257.318906)scale(0.14 -0.14)">
       <defs>
        <path id="DejaVuSans-30" d="M 2034 4250 
Q 1547 4250 1301 3770 
Q 1056 3291 1056 2328 
Q 1056 1369 1301 889 
Q 1547 409 2034 409 
Q 2525 409 2770 889 
Q 3016 1369 3016 2328 
Q 3016 3291 2770 3770 
Q 2525 4250 2034 4250 
z
M 2034 4750 
Q 2819 4750 3233 4129 
Q 3647 3509 3647 2328 
Q 3647 1150 3233 529 
Q 2819 -91 2034 -91 
Q 1250 -91 836 529 
Q 422 1150 422 2328 
Q 422 3509 836 4129 
Q 1250 4750 2034 4750 
z
" transform="scale(0.015625)"/>
       </defs>
       <use xlink:href="#DejaVuSans-30"/>
      </g>
     </g>
    </g>
    <g id="ytick_2">
     <g id="line2d_5">
      <g>
       <use xlink:href="#mec29fe5988" x="54" y="227.84" style="stroke: #000000; stroke-width: 0.8"/>
      </g>
     </g>
     <g id="text_5">
      <!-- 5 -->
      <g transform="translate(38.0925 233.158906)scale(0.14 -0.14)">
       <defs>
        <path id="DejaVuSans-35" d="M 691 4666 
L 3169 4666 
L 3169 4134 
L 1269 4134 
L 1269 2991 
Q 1406 3038 1543 3061 
Q 1681 3084 1819 3084 
Q 2600 3084 3056 2656 
Q 3513 2228 3513 1497 
Q 3513 744 3044 326 
Q 2575 -91 1722 -91 
Q 1428 -91 1123 -41 
Q 819 9 494 109 
L 494 744 
Q 775 591 1075 516 
Q 1375 441 1709 441 
Q 2250 441 2565 725 
Q 2881 1009 2881 1497 
Q 2881 1984 2565 2268 
Q 2250 2553 1709 2553 
Q 1456 2553 1204 2497 
Q 953 2441 691 2322 
L 691 4666 
z
" transform="scale(0.015625)"/>
       </defs>
       <use xlink:href="#DejaVuSans-35"/>
      </g>
     </g>
    </g>
    <g id="ytick_3">
     <g id="line2d_6">
      <g>
       <use xlink:href="#mec29fe5988" x="54" y="203.68" style="stroke: #000000; stroke-width: 0.8"/>
      </g>
     </g>
     <g id="text_6">
      <!-- 10 -->
      <g transform="translate(29.185 208.998906)scale(0.14 -0.14)">
       <defs>
        <path id="DejaVuSans-31" d="M 794 531 
L 1825 531 
L 1825 4091 
L 703 3866 
L 703 4441 
L 1819 4666 
L 2450 4666 
L 2450 531 
L 3481 531 
L 3481 0 
L 794 0 
L 794 531 
z
" transform="scale(0.015625)"/>
       </defs>
       <use xlink:href="#DejaVuSans-31"/>
       <use xlink:href="#DejaVuSans-30" x="63.623047"/>
      </g>
     </g>
    </g>
    <g id="ytick_4">
     <g id="line2d_7">
      <g>
       <use xlink:href="#mec29fe5988" x="54" y="179.52" style="stroke: #000000; stroke-width: 0.8"/>
      </g>
     </g>
     <g id="text_7">
      <!-- 15 -->
      <g transform="translate(29.185 184.838906)scale(0.14 -0.14)">
       <use xlink:href="#DejaVuSans-31"/>
       <use xlink:href="#DejaVuSans-35" x="63.623047"/>
      </g>
     </g>
    </g>
    <g id="ytick_5">
     <g id="line2d_8">
      <g>
       <use xlink:href="#mec29fe5988" x="54" y="155.36" style="stroke: #000000; stroke-width: 0.8"/>
      </g>
     </g>
     <g id="text_8">
      <!-- 20 -->
      <g transform="translate(29.185 160.678906)scale(0.14 -0.14)">
       <defs>
        <path id="DejaVuSans-32" d="M 1228 531 
L 3431 531 
L 3431 0 
L 469 0 
L 469 531 
Q 828 903 1448 1529 
Q 2069 2156 2228 2338 
Q 2531 2678 2651 2914 
Q 2772 3150 2772 3378 
Q 2772 3750 2511 3984 
Q 2250 4219 1831 4219 
Q 1534 4219 1204 4116 
Q 875 4013 500 3803 
L 500 4441 
Q 881 4594 1212 4672 
Q 1544 4750 1819 4750 
Q 2544 4750 2975 4387 
Q 3406 4025 3406 3419 
Q 3406 3131 3298 2873 
Q 3191 2616 2906 2266 
Q 2828 2175 2409 1742 
Q 1991 1309 1228 531 
z
" transform="scale(0.015625)"/>
       </defs>
       <use xlink:href="#DejaVuSans-32"/>
       <use xlink:href="#DejaVuSans-30" x="63.623047"/>
      </g>
     </g>
    </g>
    <g id="ytick_6">
     <g id="line2d_9">
      <g>
       <use xlink:href="#mec29fe5988" x="54" y="131.2" style="stroke: #000000; stroke-width: 0.8"/>
      </g>
     </g>
     <g id="text_9">
      <!-- 25 -->
      <g transform="translate(29.185 136.518906)scale(0.14 -0.14)">
       <use xlink:href="#DejaVuSans-32"/>
       <use xlink:href="#DejaVuSans-35" x="63.623047"/>
      </g>
     </g>
    </g>
    <g id="ytick_7">
     <g id="line2d_10">
      <g>
       <use xlink:href="#mec29fe5988" x="54" y="107.04" style="stroke: #000000; stroke-width: 0.8"/>
      </g>
     </g>
     <g id="text_10">
      <!-- 30 -->
      <g transform="translate(29.185 112.358906)scale(0.14 -0.14)">
       <defs>
        <path id="DejaVuSans-33" d="M 2597 2516 
Q 3050 2419 3304 2112 
Q 3559 1806 3559 1356 
Q 3559 666 3084 287 
Q 2609 -91 1734 -91 
Q 1441 -91 1130 -33 
Q 819 25 488 141 
L 488 750 
Q 750 597 1062 519 
Q 1375 441 1716 441 
Q 2309 441 2620 675 
Q 2931 909 2931 1356 
Q 2931 1769 2642 2001 
Q 2353 2234 1838 2234 
L 1294 2234 
L 1294 2753 
L 1863 2753 
Q 2328 2753 2575 2939 
Q 2822 3125 2822 3475 
Q 2822 3834 2567 4026 
Q 2313 4219 1838 4219 
Q 1578 4219 1281 4162 
Q 984 4106 628 3988 
L 628 4550 
Q 988 4650 1302 4700 
Q 1616 4750 1894 4750 
Q 2613 4750 3031 4423 
Q 3450 4097 3450 3541 
Q 3450 3153 3228 2886 
Q 3006 2619 2597 2516 
z
" transform="scale(0.015625)"/>
       </defs>
       <use xlink:href="#DejaVuSans-33"/>
       <use xlink:href="#DejaVuSans-30" x="63.623047"/>
      </g>
     </g>
    </g>
    <g id="ytick_8">
     <g id="line2d_11">
      <g>
       <use xlink:href="#mec29fe5988" x="54" y="82.88" style="stroke: #000000; stroke-width: 0.8"/>
      </g>
     </g>
     <g id="text_11">
      <!-- 35 -->
      <g transform="translate(29.185 88.198906)scale(0.14 -0.14)">
       <use xlink:href="#DejaVuSans-33"/>
       <use xlink:href="#DejaVuSans-35" x="63.623047"/>
      </g>
     </g>
    </g>
    <g id="ytick_9">
     <g id="line2d_12">
      <g>
       <use xlink:href="#mec29fe5988" x="54" y="58.72" style="stroke: #000000; stroke-width: 0.8"/>
      </g>
     </g>
     <g id="text_12">
      <!-- 40 -->
      <g transform="translate(29.185 64.038906)scale(0.14 -0.14)">
       <defs>
        <path id="DejaVuSans-34" d="M 2419 4116 
L 825 1625 
L 2419 1625 
L 2419 4116 
z
M 2253 4666 
L 3047 4666 
L 3047 1625 
L 3713 1625 
L 3713 1100 
L 3047 1100 
L 3047 0 
L 2419 0 
L 2419 1100 
L 313 1100 
L 313 1709 
L 2253 4666 
z
" transform="scale(0.015625)"/>
       </defs>
       <use xlink:href="#DejaVuSans-34"/>
       <use xlink:href="#DejaVuSans-30" x="63.623047"/>
      </g>
     </g>
    </g>
    <g id="ytick_10">
     <g id="line2d_13">
      <g>
       <use xlink:href="#mec29fe5988" x="54" y="34.56" style="stroke: #000000; stroke-width: 0.8"/>
      </g>
     </g>
     <g id="text_13">
      <!-- 45 -->
      <g transform="translate(29.185 39.878906)scale(0.14 -0.14)">
       <use xlink:href="#DejaVuSans-34"/>
       <use xlink:href="#DejaVuSans-35" x="63.623047"/>
      </g>
     </g>
    </g>
    <g id="text_14">
     <!-- Frequency (Hz) -->
     <g transform="translate(21.8175 198.40125)rotate(-90)scale(0.16 -0.16)">
      <defs>
       <path id="ArialMT-46" d="M 525 0 
L 525 4581 
L 3616 4581 
L 3616 4041 
L 1131 4041 
L 1131 2622 
L 3281 2622 
L 3281 2081 
L 1131 2081 
L 1131 0 
L 525 0 
z
" transform="scale(0.015625)"/>
       <path id="ArialMT-71" d="M 2538 -1272 
L 2538 353 
Q 2406 169 2170 47 
Q 1934 -75 1669 -75 
Q 1078 -75 651 397 
Q 225 869 225 1691 
Q 225 2191 398 2587 
Q 572 2984 901 3189 
Q 1231 3394 1625 3394 
Q 2241 3394 2594 2875 
L 2594 3319 
L 3100 3319 
L 3100 -1272 
L 2538 -1272 
z
M 803 1669 
Q 803 1028 1072 708 
Q 1341 388 1716 388 
Q 2075 388 2334 692 
Q 2594 997 2594 1619 
Q 2594 2281 2320 2615 
Q 2047 2950 1678 2950 
Q 1313 2950 1058 2639 
Q 803 2328 803 1669 
z
" transform="scale(0.015625)"/>
       <path id="ArialMT-79" d="M 397 -1278 
L 334 -750 
Q 519 -800 656 -800 
Q 844 -800 956 -737 
Q 1069 -675 1141 -563 
Q 1194 -478 1313 -144 
Q 1328 -97 1363 -6 
L 103 3319 
L 709 3319 
L 1400 1397 
Q 1534 1031 1641 628 
Q 1738 1016 1872 1384 
L 2581 3319 
L 3144 3319 
L 1881 -56 
Q 1678 -603 1566 -809 
Q 1416 -1088 1222 -1217 
Q 1028 -1347 759 -1347 
Q 597 -1347 397 -1278 
z
" transform="scale(0.015625)"/>
       <path id="ArialMT-20" transform="scale(0.015625)"/>
       <path id="ArialMT-28" d="M 1497 -1347 
Q 1031 -759 709 28 
Q 388 816 388 1659 
Q 388 2403 628 3084 
Q 909 3875 1497 4659 
L 1900 4659 
Q 1522 4009 1400 3731 
Q 1209 3300 1100 2831 
Q 966 2247 966 1656 
Q 966 153 1900 -1347 
L 1497 -1347 
z
" transform="scale(0.015625)"/>
       <path id="ArialMT-48" d="M 513 0 
L 513 4581 
L 1119 4581 
L 1119 2700 
L 3500 2700 
L 3500 4581 
L 4106 4581 
L 4106 0 
L 3500 0 
L 3500 2159 
L 1119 2159 
L 1119 0 
L 513 0 
z
" transform="scale(0.015625)"/>
       <path id="ArialMT-7a" d="M 125 0 
L 125 456 
L 2238 2881 
Q 1878 2863 1603 2863 
L 250 2863 
L 250 3319 
L 2963 3319 
L 2963 2947 
L 1166 841 
L 819 456 
Q 1197 484 1528 484 
L 3063 484 
L 3063 0 
L 125 0 
z
" transform="scale(0.015625)"/>
       <path id="ArialMT-29" d="M 791 -1347 
L 388 -1347 
Q 1322 153 1322 1656 
Q 1322 2244 1188 2822 
Q 1081 3291 891 3722 
Q 769 4003 388 4659 
L 791 4659 
Q 1378 3875 1659 3084 
Q 1900 2403 1900 1659 
Q 1900 816 1576 28 
Q 1253 -759 791 -1347 
z
" transform="scale(0.015625)"/>
      </defs>
      <use xlink:href="#ArialMT-46"/>
      <use xlink:href="#ArialMT-72" x="61.083984"/>
      <use xlink:href="#ArialMT-65" x="94.384766"/>
      <use xlink:href="#ArialMT-71" x="150"/>
      <use xlink:href="#ArialMT-75" x="205.615234"/>
      <use xlink:href="#ArialMT-65" x="261.230469"/>
      <use xlink:href="#ArialMT-6e" x="316.845703"/>
      <use xlink:href="#ArialMT-63" x="372.460938"/>
      <use xlink:href="#ArialMT-79" x="422.460938"/>
      <use xlink:href="#ArialMT-20" x="472.460938"/>
      <use xlink:href="#ArialMT-28" x="500.244141"/>
      <use xlink:href="#ArialMT-48" x="533.544922"/>
      <use xlink:href="#ArialMT-7a" x="605.761719"/>
      <use xlink:href="#ArialMT-29" x="655.761719"/>
     </g>
    </g>
   </g>
   <g id="LineCollection_1">
    <path d="M 97.669565 170.86591 
L 126.782609 170.86591 
" clip-path="url(#pa8ef38670b)" style="fill: none; stroke: #000000; stroke-width: 1.6"/>
    <path d="M 214.121739 145.525353 
L 243.234783 145.525353 
" clip-path="url(#pa8ef38670b)" style="fill: none; stroke: #000000; stroke-width: 1.6"/>
    <path d="M 330.573913 143.659215 
L 359.686957 143.659215 
" clip-path="url(#pa8ef38670b)" style="fill: none; stroke: #000000; stroke-width: 1.6"/>
   </g>
   <g id="LineCollection_2">
    <path d="M 97.669565 58.72 
L 126.782609 58.72 
" clip-path="url(#pa8ef38670b)" style="fill: none; stroke: #000000; stroke-width: 1.6"/>
    <path d="M 214.121739 58.72 
L 243.234783 58.72 
" clip-path="url(#pa8ef38670b)" style="fill: none; stroke: #000000; stroke-width: 1.6"/>
    <path d="M 330.573913 58.72 
L 359.686957 58.72 
" clip-path="url(#pa8ef38670b)" style="fill: none; stroke: #000000; stroke-width: 1.6"/>
   </g>
   <g id="LineCollection_3">
    <path d="M 97.669565 252 
L 126.782609 252 
" clip-path="url(#pa8ef38670b)" style="fill: none; stroke: #000000; stroke-width: 1.6"/>
    <path d="M 214.121739 252 
L 243.234783 252 
" clip-path="url(#pa8ef38670b)" style="fill: none; stroke: #000000; stroke-width: 1.6"/>
    <path d="M 330.573913 252 
L 359.686957 252 
" clip-path="url(#pa8ef38670b)" style="fill: none; stroke: #000000; stroke-width: 1.6"/>
   </g>
   <g id="LineCollection_4">
    <path d="M 112.226087 252 
L 112.226087 58.72 
" clip-path="url(#pa8ef38670b)" style="fill: none; stroke: #000000; stroke-width: 1.6"/>
    <path d="M 228.678261 252 
L 228.678261 58.72 
" clip-path="url(#pa8ef38670b)" style="fill: none; stroke: #000000; stroke-width: 1.6"/>
    <path d="M 345.130435 252 
L 345.130435 58.72 
" clip-path="url(#pa8ef38670b)" style="fill: none; stroke: #000000; stroke-width: 1.6"/>
   </g>
   <g id="patch_3">
    <path d="M 54 252 
L 54 34.56 
" style="fill: none; stroke: #000000; stroke-width: 0.8; stroke-linejoin: miter; stroke-linecap: square"/>
   </g>
   <g id="patch_4">
    <path d="M 388.8 252 
L 388.8 34.56 
" style="fill: none; stroke: #000000; stroke-width: 0.8; stroke-linejoin: miter; stroke-linecap: square"/>
   </g>
   <g id="patch_5">
    <path d="M 54 252 
L 388.8 252 
" style="fill: none; stroke: #000000; stroke-width: 0.8; stroke-linejoin: miter; stroke-linecap: square"/>
   </g>
   <g id="patch_6">
    <path d="M 54 34.56 
L 388.8 34.56 
" style="fill: none; stroke: #000000; stroke-width: 0.8; stroke-linejoin: miter; stroke-linecap: square"/>
   </g>
  </g>
 </g>
 <defs>
  <clipPath id="pa8ef38670b">
   <rect x="54" y="34.56" width="334.8" height="217.44"/>
  </clipPath>
 </defs>
</svg>
