<?xml version="1.0" encoding="utf-8" standalone="no"?>
<!DOCTYPE svg PUBLIC "-//W3C//DTD SVG 1.1//EN"
  "http://www.w3.org/Graphics/SVG/1.1/DTD/svg11.dtd">
<svg xmlns:xlink="http://www.w3.org/1999/xlink" width="432pt" height="288pt" viewBox="0 0 432 288" xmlns="http://www.w3.org/2000/svg" version="1.1">
 <metadata>
  <rdf:RDF xmlns:dc="http://purl.org/dc/elements/1.1/" xmlns:cc="http://creativecommons.org/ns#" xmlns:rdf="http://www.w3.org/1999/02/22-rdf-syntax-ns#">
   <cc:Work>
    <dc:type rdf:resource="http://purl.org/dc/dcmitype/StillImage"/>
    <dc:date>2022-10-30T19:40:34.293711</dc:date>
    <dc:format>image/svg+xml</dc:format>
    <dc:creator>
     <cc:Agent>
      <dc:title>Matplotlib v3.5.2, https://matplotlib.org/</dc:title>
     </cc:Agent>
    </dc:creator>
   </cc:Work>
  </rdf:RDF>
 </metadata>
 <defs>
  <style type="text/css">*{stroke-linejoin: round; stroke-linecap: butt}</style>
 </defs>
 <g id="figure_1">
  <g id="patch_1">
   <path d="M 0 288 
L 432 288 
L 432 0 
L 0 0 
L 0 288 
z
" style="fill: none"/>
  </g>
  <g id="axes_1">
   <g id="patch_2">
    <path d="M 54 252 
L 388.8 252 
L 388.8 34.56 
L 54 34.56 
z
" style="fill: #ffffff"/>
   </g>
   <g id="PolyCollection_1">
    <defs>
     <path id="m7e238ce23b" d="M 117.024087 -36 
L 76.275276 -36 
L 76.451635 -37.952323 
L 77.653516 -39.904646 
L 79.625933 -41.85697 
L 82.017338 -43.809293 
L 84.471195 -45.761616 
L 86.702712 -47.713939 
L 88.539754 -49.666263 
L 89.92435 -51.618586 
L 90.885736 -53.570909 
L 91.502056 -55.523232 
L 91.865584 -57.475556 
L 92.059498 -59.427879 
L 92.14724 -61.380202 
L 92.17118 -63.332525 
L 92.156121 -65.284848 
L 92.114188 -67.237172 
L 92.049182 -69.189495 
L 91.959793 -71.141818 
L 91.841697 -73.094141 
L 91.688845 -75.046465 
L 91.494317 -76.998788 
L 91.251093 -78.951111 
L 90.952995 -80.903434 
L 90.595812 -82.855758 
L 90.178429 -84.808081 
L 89.703575 -86.760404 
L 89.177789 -88.712727 
L 88.610353 -90.665051 
L 88.011364 -92.617374 
L 87.389578 -94.569697 
L 86.750802 -96.52202 
L 86.097292 -98.474343 
L 85.428054 -100.426667 
L 84.73963 -102.37899 
L 84.027081 -104.331313 
L 83.285233 -106.283636 
L 82.510336 -108.23596 
L 81.702098 -110.188283 
L 80.865787 -112.140606 
L 80.013908 -114.092929 
L 79.166861 -116.045253 
L 78.351854 -117.997576 
L 77.599562 -119.949899 
L 76.938829 -121.902222 
L 76.390948 -123.854545 
L 75.965727 -125.806869 
L 75.660847 -127.759192 
L 75.464365 -129.711515 
L 75.358771 -131.663838 
L 75.324841 -133.616162 
L 75.344384 -135.568485 
L 75.401901 -137.520808 
L 75.485382 -139.473131 
L 75.586435 -141.425455 
L 75.699929 -143.377778 
L 75.82367 -145.330101 
L 75.958567 -147.282424 
L 76.109333 -149.234747 
L 76.285263 -151.187071 
L 76.500521 -153.139394 
L 76.77358 -155.091717 
L 77.125544 -157.04404 
L 77.577177 -158.996364 
L 78.144764 -160.948687 
L 78.835843 -162.90101 
L 79.646465 -164.853333 
L 80.561307 -166.805657 
L 81.556596 -168.75798 
L 82.604361 -170.710303 
L 83.676278 -172.662626 
L 84.746216 -174.614949 
L 85.791716 -176.567273 
L 86.794985 -178.519596 
L 87.743651 -180.471919 
L 88.631003 -182.424242 
L 89.455425 -184.376566 
L 90.219005 -186.328889 
L 90.92561 -188.281212 
L 91.578834 -190.233535 
L 92.180235 -192.185859 
L 92.728314 -194.138182 
L 93.218582 -196.090505 
L 93.644743 -198.042828 
L 94.000584 -199.995152 
L 94.281907 -201.947475 
L 94.487983 -203.899798 
L 94.622393 -205.852121 
L 94.693445 -207.804444 
L 94.714359 -209.756768 
L 94.703116 -211.709091 
L 94.681492 -213.661414 
L 94.672813 -215.613737 
L 94.698396 -217.566061 
L 94.773409 -219.518384 
L 94.903507 -221.470707 
L 95.083629 -223.42303 
L 95.299588 -225.375354 
L 95.53198 -227.327677 
L 95.760985 -229.28 
L 97.538378 -229.28 
L 97.538378 -229.28 
L 97.767383 -227.327677 
L 97.999775 -225.375354 
L 98.215734 -223.42303 
L 98.395856 -221.470707 
L 98.525955 -219.518384 
L 98.600967 -217.566061 
L 98.62655 -215.613737 
L 98.617871 -213.661414 
L 98.596247 -211.709091 
L 98.585004 -209.756768 
L 98.605918 -207.804444 
L 98.67697 -205.852121 
L 98.81138 -203.899798 
L 99.017457 -201.947475 
L 99.298779 -199.995152 
L 99.65462 -198.042828 
L 100.080781 -196.090505 
L 100.571049 -194.138182 
L 101.119128 -192.185859 
L 101.720529 -190.233535 
L 102.373753 -188.281212 
L 103.080358 -186.328889 
L 103.843938 -184.376566 
L 104.66836 -182.424242 
L 105.555712 -180.471919 
L 106.504378 -178.519596 
L 107.507647 -176.567273 
L 108.553147 -174.614949 
L 109.623085 -172.662626 
L 110.695002 -170.710303 
L 111.742767 -168.75798 
L 112.738056 -166.805657 
L 113.652899 -164.853333 
L 114.46352 -162.90101 
L 115.154599 -160.948687 
L 115.722186 -158.996364 
L 116.173819 -157.04404 
L 116.525783 -155.091717 
L 116.798842 -153.139394 
L 117.0141 -151.187071 
L 117.19003 -149.234747 
L 117.340796 -147.282424 
L 117.475693 -145.330101 
L 117.599434 -143.377778 
L 117.712928 -141.425455 
L 117.813981 -139.473131 
L 117.897462 -137.520808 
L 117.954979 -135.568485 
L 117.974522 -133.616162 
L 117.940592 -131.663838 
L 117.834998 -129.711515 
L 117.638516 -127.759192 
L 117.333636 -125.806869 
L 116.908415 -123.854545 
L 116.360534 -121.902222 
L 115.699801 -119.949899 
L 114.947509 -117.997576 
L 114.132502 -116.045253 
L 113.285455 -114.092929 
L 112.433577 -112.140606 
L 111.597265 -110.188283 
L 110.789027 -108.23596 
L 110.01413 -106.283636 
L 109.272282 -104.331313 
L 108.559733 -102.37899 
L 107.871309 -100.426667 
L 107.202071 -98.474343 
L 106.548562 -96.52202 
L 105.909785 -94.569697 
L 105.287999 -92.617374 
L 104.68901 -90.665051 
L 104.121574 -88.712727 
L 103.595788 -86.760404 
L 103.120934 -84.808081 
L 102.703551 -82.855758 
L 102.346368 -80.903434 
L 102.04827 -78.951111 
L 101.805046 -76.998788 
L 101.610518 -75.046465 
L 101.457666 -73.094141 
L 101.33957 -71.141818 
L 101.250181 -69.189495 
L 101.185175 -67.237172 
L 101.143242 -65.284848 
L 101.128183 -63.332525 
L 101.152123 -61.380202 
L 101.239866 -59.427879 
L 101.433779 -57.475556 
L 101.797307 -55.523232 
L 102.413627 -53.570909 
L 103.375013 -51.618586 
L 104.759609 -49.666263 
L 106.596651 -47.713939 
L 108.828168 -45.761616 
L 111.282025 -43.809293 
L 113.67343 -41.85697 
L 115.645847 -39.904646 
L 116.847728 -37.952323 
L 117.024087 -36 
z
" style="stroke: #000000; stroke-opacity: 0.8"/>
    </defs>
    <g clip-path="url(#pba5f94b7cb)">
     <use xlink:href="#m7e238ce23b" x="0" y="288" style="fill: #800080; fill-opacity: 0.8; stroke: #000000; stroke-opacity: 0.8"/>
    </g>
   </g>
   <g id="PolyCollection_2">
    <defs>
     <path id="mcdea56b9de" d="M 200.536831 -36 
L 163.361258 -36 
L 163.545427 -37.952323 
L 164.636883 -39.904646 
L 166.418248 -41.85697 
L 168.587267 -43.809293 
L 170.832625 -45.761616 
L 172.899355 -47.713939 
L 174.626166 -49.666263 
L 175.950387 -51.618586 
L 176.8881 -53.570909 
L 177.502879 -55.523232 
L 177.875618 -57.475556 
L 178.082983 -59.427879 
L 178.186336 -61.380202 
L 178.229057 -63.332525 
L 178.238746 -65.284848 
L 178.231196 -67.237172 
L 178.214161 -69.189495 
L 178.190096 -71.141818 
L 178.157758 -73.094141 
L 178.112931 -75.046465 
L 178.048719 -76.998788 
L 177.95579 -78.951111 
L 177.822874 -80.903434 
L 177.637557 -82.855758 
L 177.387336 -84.808081 
L 177.060851 -86.760404 
L 176.649292 -88.712727 
L 176.148017 -90.665051 
L 175.55828 -92.617374 
L 174.88872 -94.569697 
L 174.155903 -96.52202 
L 173.383161 -98.474343 
L 172.597356 -100.426667 
L 171.824073 -102.37899 
L 171.082597 -104.331313 
L 170.382361 -106.283636 
L 169.721991 -108.23596 
L 169.090974 -110.188283 
L 168.473068 -112.140606 
L 167.850246 -114.092929 
L 167.206327 -116.045253 
L 166.529913 -117.997576 
L 165.816623 -119.949899 
L 165.070653 -121.902222 
L 164.305564 -123.854545 
L 163.543974 -125.806869 
L 162.815664 -127.759192 
L 162.153835 -129.711515 
L 161.5899 -131.663838 
L 161.148092 -133.616162 
L 160.84151 -135.568485 
L 160.670636 -137.520808 
L 160.624204 -139.473131 
L 160.681444 -141.425455 
L 160.814794 -143.377778 
L 160.99293 -145.330101 
L 161.184514 -147.282424 
L 161.362845 -149.234747 
L 161.510849 -151.187071 
L 161.625161 -153.139394 
L 161.71795 -155.091717 
L 161.815615 -157.04404 
L 161.954394 -158.996364 
L 162.173888 -160.948687 
L 162.510227 -162.90101 
L 162.990551 -164.853333 
L 163.629636 -166.805657 
L 164.428395 -168.75798 
L 165.373474 -170.710303 
L 166.437676 -172.662626 
L 167.581855 -174.614949 
L 168.759225 -176.567273 
L 169.922183 -178.519596 
L 171.030246 -180.471919 
L 172.056682 -182.424242 
L 172.991612 -184.376566 
L 173.840641 -186.328889 
L 174.619679 -188.281212 
L 175.34784 -190.233535 
L 176.040699 -192.185859 
L 176.705788 -194.138182 
L 177.341231 -196.090505 
L 177.937226 -198.042828 
L 178.479265 -199.995152 
L 178.951759 -201.947475 
L 179.341203 -203.899798 
L 179.638664 -205.852121 
L 179.841769 -207.804444 
L 179.95625 -209.756768 
L 179.996661 -211.709091 
L 179.985631 -213.661414 
L 179.951178 -215.613737 
L 179.922318 -217.566061 
L 179.924004 -219.518384 
L 179.972899 -221.470707 
L 180.075264 -223.42303 
L 180.227423 -225.375354 
L 180.418299 -227.327677 
L 180.632888 -229.28 
L 183.265202 -229.28 
L 183.265202 -229.28 
L 183.47979 -227.327677 
L 183.670667 -225.375354 
L 183.822825 -223.42303 
L 183.92519 -221.470707 
L 183.974086 -219.518384 
L 183.975771 -217.566061 
L 183.946911 -215.613737 
L 183.912459 -213.661414 
L 183.901428 -211.709091 
L 183.941839 -209.756768 
L 184.05632 -207.804444 
L 184.259426 -205.852121 
L 184.556886 -203.899798 
L 184.94633 -201.947475 
L 185.418824 -199.995152 
L 185.960863 -198.042828 
L 186.556858 -196.090505 
L 187.192301 -194.138182 
L 187.85739 -192.185859 
L 188.550249 -190.233535 
L 189.27841 -188.281212 
L 190.057448 -186.328889 
L 190.906477 -184.376566 
L 191.841407 -182.424242 
L 192.867843 -180.471919 
L 193.975906 -178.519596 
L 195.138864 -176.567273 
L 196.316234 -174.614949 
L 197.460413 -172.662626 
L 198.524615 -170.710303 
L 199.469694 -168.75798 
L 200.268453 -166.805657 
L 200.907539 -164.853333 
L 201.387862 -162.90101 
L 201.724201 -160.948687 
L 201.943695 -158.996364 
L 202.082474 -157.04404 
L 202.180139 -155.091717 
L 202.272928 -153.139394 
L 202.38724 -151.187071 
L 202.535244 -149.234747 
L 202.713575 -147.282424 
L 202.90516 -145.330101 
L 203.083296 -143.377778 
L 203.216645 -141.425455 
L 203.273885 -139.473131 
L 203.227454 -137.520808 
L 203.056579 -135.568485 
L 202.749997 -133.616162 
L 202.30819 -131.663838 
L 201.744254 -129.711515 
L 201.082425 -127.759192 
L 200.354116 -125.806869 
L 199.592525 -123.854545 
L 198.827436 -121.902222 
L 198.081466 -119.949899 
L 197.368176 -117.997576 
L 196.691762 -116.045253 
L 196.047843 -114.092929 
L 195.425021 -112.140606 
L 194.807115 -110.188283 
L 194.176098 -108.23596 
L 193.515728 -106.283636 
L 192.815493 -104.331313 
L 192.074016 -102.37899 
L 191.300733 -100.426667 
L 190.514928 -98.474343 
L 189.742186 -96.52202 
L 189.009369 -94.569697 
L 188.339809 -92.617374 
L 187.750072 -90.665051 
L 187.248797 -88.712727 
L 186.837238 -86.760404 
L 186.510753 -84.808081 
L 186.260533 -82.855758 
L 186.075216 -80.903434 
L 185.942299 -78.951111 
L 185.84937 -76.998788 
L 185.785158 -75.046465 
L 185.740332 -73.094141 
L 185.707993 -71.141818 
L 185.683928 -69.189495 
L 185.666893 -67.237172 
L 185.659343 -65.284848 
L 185.669033 -63.332525 
L 185.711753 -61.380202 
L 185.815106 -59.427879 
L 186.022471 -57.475556 
L 186.39521 -55.523232 
L 187.009989 -53.570909 
L 187.947703 -51.618586 
L 189.271923 -49.666263 
L 190.998734 -47.713939 
L 193.065464 -45.761616 
L 195.310822 -43.809293 
L 197.479841 -41.85697 
L 199.261206 -39.904646 
L 200.352662 -37.952323 
L 200.536831 -36 
z
" style="stroke: #000000; stroke-opacity: 0.8"/>
    </defs>
    <g clip-path="url(#pba5f94b7cb)">
     <use xlink:href="#mcdea56b9de" x="0" y="288" style="fill: #008000; fill-opacity: 0.8; stroke: #000000; stroke-opacity: 0.8"/>
    </g>
   </g>
   <g id="PolyCollection_3">
    <defs>
     <path id="m3d7c55de73" d="M 268.578226 -36 
L 265.918589 -36 
L 265.858957 -37.952323 
L 265.853839 -39.904646 
L 265.867297 -41.85697 
L 265.856537 -43.809293 
L 265.785455 -45.761616 
L 265.63404 -47.713939 
L 265.40124 -49.666263 
L 265.101193 -51.618586 
L 264.754756 -53.570909 
L 264.380762 -55.523232 
L 263.992344 -57.475556 
L 263.600194 -59.427879 
L 263.218318 -61.380202 
L 262.865279 -63.332525 
L 262.559098 -65.284848 
L 262.311892 -67.237172 
L 262.131265 -69.189495 
L 262.027056 -71.141818 
L 262.013926 -73.094141 
L 262.103124 -75.046465 
L 262.288582 -76.998788 
L 262.540025 -78.951111 
L 262.810203 -80.903434 
L 263.05094 -82.855758 
L 263.226692 -84.808081 
L 263.319321 -86.760404 
L 263.325903 -88.712727 
L 263.25399 -90.665051 
L 263.116557 -92.617374 
L 262.92774 -94.569697 
L 262.701683 -96.52202 
L 262.455549 -98.474343 
L 262.212926 -100.426667 
L 262.00143 -102.37899 
L 261.84369 -104.331313 
L 261.749147 -106.283636 
L 261.714623 -108.23596 
L 261.732225 -110.188283 
L 261.794428 -112.140606 
L 261.888946 -114.092929 
L 261.987653 -116.045253 
L 262.041103 -117.997576 
L 261.985791 -119.949899 
L 261.761617 -121.902222 
L 261.331969 -123.854545 
L 260.699401 -125.806869 
L 259.91035 -127.759192 
L 259.042137 -129.711515 
L 258.171522 -131.663838 
L 257.337409 -133.616162 
L 256.518953 -135.568485 
L 255.642463 -137.520808 
L 254.611924 -139.473131 
L 253.348283 -141.425455 
L 251.828921 -143.377778 
L 250.124546 -145.330101 
L 248.41965 -147.282424 
L 246.987481 -149.234747 
L 246.103003 -151.187071 
L 245.923567 -153.139394 
L 246.406534 -155.091717 
L 247.319607 -157.04404 
L 248.337768 -158.996364 
L 249.166442 -160.948687 
L 249.629465 -162.90101 
L 249.699821 -164.853333 
L 249.483511 -166.805657 
L 249.170771 -168.75798 
L 248.965442 -170.710303 
L 249.014758 -172.662626 
L 249.373912 -174.614949 
L 250.023687 -176.567273 
L 250.919446 -178.519596 
L 252.026174 -180.471919 
L 253.314803 -182.424242 
L 254.737588 -184.376566 
L 256.218481 -186.328889 
L 257.672345 -188.281212 
L 259.034198 -190.233535 
L 260.272677 -192.185859 
L 261.382202 -194.138182 
L 262.368181 -196.090505 
L 263.238939 -198.042828 
L 264.004171 -199.995152 
L 264.672067 -201.947475 
L 265.242552 -203.899798 
L 265.702556 -205.852121 
L 266.029999 -207.804444 
L 266.206368 -209.756768 
L 266.23098 -211.709091 
L 266.128711 -213.661414 
L 265.946807 -215.613737 
L 265.742079 -217.566061 
L 265.564703 -219.518384 
L 265.446762 -221.470707 
L 265.400839 -223.42303 
L 265.427257 -225.375354 
L 265.522756 -227.327677 
L 265.683425 -229.28 
L 268.81339 -229.28 
L 268.81339 -229.28 
L 268.974059 -227.327677 
L 269.069558 -225.375354 
L 269.095976 -223.42303 
L 269.050053 -221.470707 
L 268.932113 -219.518384 
L 268.754736 -217.566061 
L 268.550008 -215.613737 
L 268.368104 -213.661414 
L 268.265835 -211.709091 
L 268.290447 -209.756768 
L 268.466817 -207.804444 
L 268.794259 -205.852121 
L 269.254263 -203.899798 
L 269.824748 -201.947475 
L 270.492644 -199.995152 
L 271.257877 -198.042828 
L 272.128635 -196.090505 
L 273.114613 -194.138182 
L 274.224138 -192.185859 
L 275.462617 -190.233535 
L 276.82447 -188.281212 
L 278.278334 -186.328889 
L 279.759228 -184.376566 
L 281.182012 -182.424242 
L 282.470641 -180.471919 
L 283.577369 -178.519596 
L 284.473128 -176.567273 
L 285.122903 -174.614949 
L 285.482057 -172.662626 
L 285.531374 -170.710303 
L 285.326045 -168.75798 
L 285.013305 -166.805657 
L 284.796995 -164.853333 
L 284.86735 -162.90101 
L 285.330374 -160.948687 
L 286.159048 -158.996364 
L 287.177209 -157.04404 
L 288.090281 -155.091717 
L 288.573248 -153.139394 
L 288.393812 -151.187071 
L 287.509334 -149.234747 
L 286.077165 -147.282424 
L 284.37227 -145.330101 
L 282.667894 -143.377778 
L 281.148532 -141.425455 
L 279.884892 -139.473131 
L 278.854352 -137.520808 
L 277.977862 -135.568485 
L 277.159407 -133.616162 
L 276.325293 -131.663838 
L 275.454679 -129.711515 
L 274.586465 -127.759192 
L 273.797415 -125.806869 
L 273.164847 -123.854545 
L 272.735198 -121.902222 
L 272.511024 -119.949899 
L 272.455712 -117.997576 
L 272.509162 -116.045253 
L 272.607869 -114.092929 
L 272.702387 -112.140606 
L 272.764591 -110.188283 
L 272.782193 -108.23596 
L 272.747668 -106.283636 
L 272.653126 -104.331313 
L 272.495386 -102.37899 
L 272.283889 -100.426667 
L 272.041266 -98.474343 
L 271.795133 -96.52202 
L 271.569075 -94.569697 
L 271.380259 -92.617374 
L 271.242825 -90.665051 
L 271.170913 -88.712727 
L 271.177494 -86.760404 
L 271.270123 -84.808081 
L 271.445875 -82.855758 
L 271.686612 -80.903434 
L 271.95679 -78.951111 
L 272.208233 -76.998788 
L 272.393691 -75.046465 
L 272.48289 -73.094141 
L 272.469759 -71.141818 
L 272.36555 -69.189495 
L 272.184923 -67.237172 
L 271.937717 -65.284848 
L 271.631536 -63.332525 
L 271.278498 -61.380202 
L 270.896621 -59.427879 
L 270.504471 -57.475556 
L 270.116053 -55.523232 
L 269.742059 -53.570909 
L 269.395623 -51.618586 
L 269.095575 -49.666263 
L 268.862775 -47.713939 
L 268.71136 -45.761616 
L 268.640279 -43.809293 
L 268.629518 -41.85697 
L 268.642976 -39.904646 
L 268.637858 -37.952323 
L 268.578226 -36 
z
" style="stroke: #000000; stroke-opacity: 0.8"/>
    </defs>
    <g clip-path="url(#pba5f94b7cb)">
     <use xlink:href="#m3d7c55de73" x="0" y="288" style="fill: #7f2aff; fill-opacity: 0.8; stroke: #000000; stroke-opacity: 0.8"/>
    </g>
   </g>
   <g id="PolyCollection_4">
    <defs>
     <path id="medec547448" d="M 353.790101 -36 
L 351.30544 -36 
L 351.364847 -37.952323 
L 351.526319 -39.904646 
L 351.74632 -41.85697 
L 351.971565 -43.809293 
L 352.154964 -45.761616 
L 352.262081 -47.713939 
L 352.267019 -49.666263 
L 352.144277 -51.618586 
L 351.866005 -53.570909 
L 351.410757 -55.523232 
L 350.781423 -57.475556 
L 350.020915 -59.427879 
L 349.211286 -61.380202 
L 348.45053 -63.332525 
L 347.818129 -65.284848 
L 347.351694 -67.237172 
L 347.050122 -69.189495 
L 346.8968 -71.141818 
L 346.879834 -73.094141 
L 346.992033 -75.046465 
L 347.215596 -76.998788 
L 347.51137 -78.951111 
L 347.825456 -80.903434 
L 348.10707 -82.855758 
L 348.32263 -84.808081 
L 348.458725 -86.760404 
L 348.518061 -88.712727 
L 348.51417 -90.665051 
L 348.465124 -92.617374 
L 348.384992 -94.569697 
L 348.27654 -96.52202 
L 348.130952 -98.474343 
L 347.934811 -100.426667 
L 347.678408 -102.37899 
L 347.361552 -104.331313 
L 346.999452 -106.283636 
L 346.630463 -108.23596 
L 346.31787 -110.188283 
L 346.133683 -112.140606 
L 346.124811 -114.092929 
L 346.281172 -116.045253 
L 346.529431 -117.997576 
L 346.75827 -119.949899 
L 346.858979 -121.902222 
L 346.75966 -123.854545 
L 346.442256 -125.806869 
L 345.941959 -127.759192 
L 345.329756 -129.711515 
L 344.679977 -131.663838 
L 344.034152 -133.616162 
L 343.380858 -135.568485 
L 342.663163 -137.520808 
L 341.805156 -139.473131 
L 340.73981 -141.425455 
L 339.432091 -143.377778 
L 337.903479 -145.330101 
L 336.253458 -147.282424 
L 334.652368 -149.234747 
L 333.286398 -151.187071 
L 332.278683 -153.139394 
L 331.645061 -155.091717 
L 331.319997 -157.04404 
L 331.22293 -158.996364 
L 331.299691 -160.948687 
L 331.509101 -162.90101 
L 331.788456 -164.853333 
L 332.048282 -166.805657 
L 332.204002 -168.75798 
L 332.210936 -170.710303 
L 332.078992 -172.662626 
L 331.878693 -174.614949 
L 331.752106 -176.567273 
L 331.906953 -178.519596 
L 332.557842 -180.471919 
L 333.822333 -182.424242 
L 335.638769 -184.376566 
L 337.774208 -186.328889 
L 339.923621 -188.281212 
L 341.833006 -190.233535 
L 343.374072 -192.185859 
L 344.549151 -194.138182 
L 345.452396 -196.090505 
L 346.21948 -198.042828 
L 346.97929 -199.995152 
L 347.811663 -201.947475 
L 348.721878 -203.899798 
L 349.64545 -205.852121 
L 350.483012 -207.804444 
L 351.145811 -209.756768 
L 351.586856 -211.709091 
L 351.805302 -213.661414 
L 351.830031 -215.613737 
L 351.69862 -217.566061 
L 351.446116 -219.518384 
L 351.108497 -221.470707 
L 350.73468 -223.42303 
L 350.39392 -225.375354 
L 350.167083 -227.327677 
L 350.121269 -229.28 
L 354.974273 -229.28 
L 354.974273 -229.28 
L 354.928459 -227.327677 
L 354.701621 -225.375354 
L 354.360861 -223.42303 
L 353.987044 -221.470707 
L 353.649425 -219.518384 
L 353.396922 -217.566061 
L 353.265511 -215.613737 
L 353.290239 -213.661414 
L 353.508686 -211.709091 
L 353.94973 -209.756768 
L 354.61253 -207.804444 
L 355.450091 -205.852121 
L 356.373664 -203.899798 
L 357.283878 -201.947475 
L 358.116251 -199.995152 
L 358.876061 -198.042828 
L 359.643146 -196.090505 
L 360.546391 -194.138182 
L 361.721469 -192.185859 
L 363.262535 -190.233535 
L 365.17192 -188.281212 
L 367.321333 -186.328889 
L 369.456772 -184.376566 
L 371.273209 -182.424242 
L 372.537699 -180.471919 
L 373.188589 -178.519596 
L 373.343436 -176.567273 
L 373.216848 -174.614949 
L 373.016549 -172.662626 
L 372.884606 -170.710303 
L 372.891539 -168.75798 
L 373.047259 -166.805657 
L 373.307085 -164.853333 
L 373.58644 -162.90101 
L 373.79585 -160.948687 
L 373.872611 -158.996364 
L 373.775545 -157.04404 
L 373.45048 -155.091717 
L 372.816858 -153.139394 
L 371.809143 -151.187071 
L 370.443174 -149.234747 
L 368.842083 -147.282424 
L 367.192063 -145.330101 
L 365.663451 -143.377778 
L 364.355731 -141.425455 
L 363.290385 -139.473131 
L 362.432379 -137.520808 
L 361.714684 -135.568485 
L 361.06139 -133.616162 
L 360.415565 -131.663838 
L 359.765786 -129.711515 
L 359.153583 -127.759192 
L 358.653285 -125.806869 
L 358.335882 -123.854545 
L 358.236563 -121.902222 
L 358.337271 -119.949899 
L 358.56611 -117.997576 
L 358.81437 -116.045253 
L 358.97073 -114.092929 
L 358.961859 -112.140606 
L 358.777671 -110.188283 
L 358.465078 -108.23596 
L 358.096089 -106.283636 
L 357.733989 -104.331313 
L 357.417133 -102.37899 
L 357.160731 -100.426667 
L 356.964589 -98.474343 
L 356.819002 -96.52202 
L 356.710549 -94.569697 
L 356.630417 -92.617374 
L 356.581371 -90.665051 
L 356.57748 -88.712727 
L 356.636816 -86.760404 
L 356.772911 -84.808081 
L 356.988471 -82.855758 
L 357.270086 -80.903434 
L 357.584171 -78.951111 
L 357.879946 -76.998788 
L 358.103508 -75.046465 
L 358.215707 -73.094141 
L 358.198741 -71.141818 
L 358.045419 -69.189495 
L 357.743848 -67.237172 
L 357.277413 -65.284848 
L 356.645011 -63.332525 
L 355.884255 -61.380202 
L 355.074626 -59.427879 
L 354.314119 -57.475556 
L 353.684784 -55.523232 
L 353.229536 -53.570909 
L 352.951264 -51.618586 
L 352.828522 -49.666263 
L 352.833461 -47.713939 
L 352.940578 -45.761616 
L 353.123977 -43.809293 
L 353.349221 -41.85697 
L 353.569222 -39.904646 
L 353.730694 -37.952323 
L 353.790101 -36 
z
" style="stroke: #000000; stroke-opacity: 0.8"/>
    </defs>
    <g clip-path="url(#pba5f94b7cb)">
     <use xlink:href="#medec547448" x="0" y="288" style="fill: #a6611a; fill-opacity: 0.8; stroke: #000000; stroke-opacity: 0.8"/>
    </g>
   </g>
   <g id="matplotlib.axis_1">
    <g id="xtick_1">
     <g id="line2d_1">
      <defs>
       <path id="ma1dfbe5f10" d="M 0 0 
L 0 3.5 
" style="stroke: #000000; stroke-width: 0.8"/>
      </defs>
      <g>
       <use xlink:href="#ma1dfbe5f10" x="54" y="252" style="stroke: #000000; stroke-width: 0.8"/>
      </g>
     </g>
     <g id="text_1">
      <!-- current_injection -->
      <g transform="translate(15.354847 350.105405)rotate(-45)scale(0.16 -0.16)">
       <defs>
        <path id="ArialMT-63" d="M 2588 1216 
L 3141 1144 
Q 3050 572 2676 248 
Q 2303 -75 1759 -75 
Q 1078 -75 664 370 
Q 250 816 250 1647 
Q 250 2184 428 2587 
Q 606 2991 970 3192 
Q 1334 3394 1763 3394 
Q 2303 3394 2647 3120 
Q 2991 2847 3088 2344 
L 2541 2259 
Q 2463 2594 2264 2762 
Q 2066 2931 1784 2931 
Q 1359 2931 1093 2626 
Q 828 2322 828 1663 
Q 828 994 1084 691 
Q 1341 388 1753 388 
Q 2084 388 2306 591 
Q 2528 794 2588 1216 
z
" transform="scale(0.015625)"/>
        <path id="ArialMT-75" d="M 2597 0 
L 2597 488 
Q 2209 -75 1544 -75 
Q 1250 -75 995 37 
Q 741 150 617 320 
Q 494 491 444 738 
Q 409 903 409 1263 
L 409 3319 
L 972 3319 
L 972 1478 
Q 972 1038 1006 884 
Q 1059 663 1231 536 
Q 1403 409 1656 409 
Q 1909 409 2131 539 
Q 2353 669 2445 892 
Q 2538 1116 2538 1541 
L 2538 3319 
L 3100 3319 
L 3100 0 
L 2597 0 
z
" transform="scale(0.015625)"/>
        <path id="ArialMT-72" d="M 416 0 
L 416 3319 
L 922 3319 
L 922 2816 
Q 1116 3169 1280 3281 
Q 1444 3394 1641 3394 
Q 1925 3394 2219 3213 
L 2025 2691 
Q 1819 2813 1613 2813 
Q 1428 2813 1281 2702 
Q 1134 2591 1072 2394 
Q 978 2094 978 1738 
L 978 0 
L 416 0 
z
" transform="scale(0.015625)"/>
        <path id="ArialMT-65" d="M 2694 1069 
L 3275 997 
Q 3138 488 2766 206 
Q 2394 -75 1816 -75 
Q 1088 -75 661 373 
Q 234 822 234 1631 
Q 234 2469 665 2931 
Q 1097 3394 1784 3394 
Q 2450 3394 2872 2941 
Q 3294 2488 3294 1666 
Q 3294 1616 3291 1516 
L 816 1516 
Q 847 969 1125 678 
Q 1403 388 1819 388 
Q 2128 388 2347 550 
Q 2566 713 2694 1069 
z
M 847 1978 
L 2700 1978 
Q 2663 2397 2488 2606 
Q 2219 2931 1791 2931 
Q 1403 2931 1139 2672 
Q 875 2413 847 1978 
z
" transform="scale(0.015625)"/>
        <path id="ArialMT-6e" d="M 422 0 
L 422 3319 
L 928 3319 
L 928 2847 
Q 1294 3394 1984 3394 
Q 2284 3394 2536 3286 
Q 2788 3178 2913 3003 
Q 3038 2828 3088 2588 
Q 3119 2431 3119 2041 
L 3119 0 
L 2556 0 
L 2556 2019 
Q 2556 2363 2490 2533 
Q 2425 2703 2258 2804 
Q 2091 2906 1866 2906 
Q 1506 2906 1245 2678 
Q 984 2450 984 1813 
L 984 0 
L 422 0 
z
" transform="scale(0.015625)"/>
        <path id="ArialMT-74" d="M 1650 503 
L 1731 6 
Q 1494 -44 1306 -44 
Q 1000 -44 831 53 
Q 663 150 594 308 
Q 525 466 525 972 
L 525 2881 
L 113 2881 
L 113 3319 
L 525 3319 
L 525 4141 
L 1084 4478 
L 1084 3319 
L 1650 3319 
L 1650 2881 
L 1084 2881 
L 1084 941 
Q 1084 700 1114 631 
Q 1144 563 1211 522 
Q 1278 481 1403 481 
Q 1497 481 1650 503 
z
" transform="scale(0.015625)"/>
        <path id="ArialMT-5f" d="M -97 -1272 
L -97 -866 
L 3631 -866 
L 3631 -1272 
L -97 -1272 
z
" transform="scale(0.015625)"/>
        <path id="ArialMT-69" d="M 425 3934 
L 425 4581 
L 988 4581 
L 988 3934 
L 425 3934 
z
M 425 0 
L 425 3319 
L 988 3319 
L 988 0 
L 425 0 
z
" transform="scale(0.015625)"/>
        <path id="ArialMT-6a" d="M 419 3928 
L 419 4581 
L 981 4581 
L 981 3928 
L 419 3928 
z
M -294 -1288 
L -188 -809 
Q -19 -853 78 -853 
Q 250 -853 334 -739 
Q 419 -625 419 -169 
L 419 3319 
L 981 3319 
L 981 -181 
Q 981 -794 822 -1034 
Q 619 -1347 147 -1347 
Q -81 -1347 -294 -1288 
z
" transform="scale(0.015625)"/>
        <path id="ArialMT-6f" d="M 213 1659 
Q 213 2581 725 3025 
Q 1153 3394 1769 3394 
Q 2453 3394 2887 2945 
Q 3322 2497 3322 1706 
Q 3322 1066 3130 698 
Q 2938 331 2570 128 
Q 2203 -75 1769 -75 
Q 1072 -75 642 372 
Q 213 819 213 1659 
z
M 791 1659 
Q 791 1022 1069 705 
Q 1347 388 1769 388 
Q 2188 388 2466 706 
Q 2744 1025 2744 1678 
Q 2744 2294 2464 2611 
Q 2184 2928 1769 2928 
Q 1347 2928 1069 2612 
Q 791 2297 791 1659 
z
" transform="scale(0.015625)"/>
       </defs>
       <use xlink:href="#ArialMT-63"/>
       <use xlink:href="#ArialMT-75" x="50"/>
       <use xlink:href="#ArialMT-72" x="105.615234"/>
       <use xlink:href="#ArialMT-72" x="138.916016"/>
       <use xlink:href="#ArialMT-65" x="172.216797"/>
       <use xlink:href="#ArialMT-6e" x="227.832031"/>
       <use xlink:href="#ArialMT-74" x="283.447266"/>
       <use xlink:href="#ArialMT-5f" x="311.230469"/>
       <use xlink:href="#ArialMT-69" x="366.845703"/>
       <use xlink:href="#ArialMT-6e" x="389.0625"/>
       <use xlink:href="#ArialMT-6a" x="444.677734"/>
       <use xlink:href="#ArialMT-65" x="466.894531"/>
       <use xlink:href="#ArialMT-63" x="522.509766"/>
       <use xlink:href="#ArialMT-74" x="572.509766"/>
       <use xlink:href="#ArialMT-69" x="600.292969"/>
       <use xlink:href="#ArialMT-6f" x="622.509766"/>
       <use xlink:href="#ArialMT-6e" x="678.125"/>
      </g>
     </g>
    </g>
    <g id="xtick_2">
     <g id="line2d_2">
      <g>
       <use xlink:href="#ma1dfbe5f10" x="139.299363" y="252" style="stroke: #000000; stroke-width: 0.8"/>
      </g>
     </g>
     <g id="text_2">
      <!-- current_injection-FS -->
      <g transform="translate(91.611198 368.467201)rotate(-45)scale(0.16 -0.16)">
       <defs>
        <path id="ArialMT-2d" d="M 203 1375 
L 203 1941 
L 1931 1941 
L 1931 1375 
L 203 1375 
z
" transform="scale(0.015625)"/>
        <path id="ArialMT-46" d="M 525 0 
L 525 4581 
L 3616 4581 
L 3616 4041 
L 1131 4041 
L 1131 2622 
L 3281 2622 
L 3281 2081 
L 1131 2081 
L 1131 0 
L 525 0 
z
" transform="scale(0.015625)"/>
        <path id="ArialMT-53" d="M 288 1472 
L 859 1522 
Q 900 1178 1048 958 
Q 1197 738 1509 602 
Q 1822 466 2213 466 
Q 2559 466 2825 569 
Q 3091 672 3220 851 
Q 3350 1031 3350 1244 
Q 3350 1459 3225 1620 
Q 3100 1781 2813 1891 
Q 2628 1963 1997 2114 
Q 1366 2266 1113 2400 
Q 784 2572 623 2826 
Q 463 3081 463 3397 
Q 463 3744 659 4045 
Q 856 4347 1234 4503 
Q 1613 4659 2075 4659 
Q 2584 4659 2973 4495 
Q 3363 4331 3572 4012 
Q 3781 3694 3797 3291 
L 3216 3247 
Q 3169 3681 2898 3903 
Q 2628 4125 2100 4125 
Q 1550 4125 1298 3923 
Q 1047 3722 1047 3438 
Q 1047 3191 1225 3031 
Q 1400 2872 2139 2705 
Q 2878 2538 3153 2413 
Q 3553 2228 3743 1945 
Q 3934 1663 3934 1294 
Q 3934 928 3725 604 
Q 3516 281 3123 101 
Q 2731 -78 2241 -78 
Q 1619 -78 1198 103 
Q 778 284 539 648 
Q 300 1013 288 1472 
z
" transform="scale(0.015625)"/>
       </defs>
       <use xlink:href="#ArialMT-63"/>
       <use xlink:href="#ArialMT-75" x="50"/>
       <use xlink:href="#ArialMT-72" x="105.615234"/>
       <use xlink:href="#ArialMT-72" x="138.916016"/>
       <use xlink:href="#ArialMT-65" x="172.216797"/>
       <use xlink:href="#ArialMT-6e" x="227.832031"/>
       <use xlink:href="#ArialMT-74" x="283.447266"/>
       <use xlink:href="#ArialMT-5f" x="311.230469"/>
       <use xlink:href="#ArialMT-69" x="366.845703"/>
       <use xlink:href="#ArialMT-6e" x="389.0625"/>
       <use xlink:href="#ArialMT-6a" x="444.677734"/>
       <use xlink:href="#ArialMT-65" x="466.894531"/>
       <use xlink:href="#ArialMT-63" x="522.509766"/>
       <use xlink:href="#ArialMT-74" x="572.509766"/>
       <use xlink:href="#ArialMT-69" x="600.292969"/>
       <use xlink:href="#ArialMT-6f" x="622.509766"/>
       <use xlink:href="#ArialMT-6e" x="678.125"/>
       <use xlink:href="#ArialMT-2d" x="733.740234"/>
       <use xlink:href="#ArialMT-46" x="767.041016"/>
       <use xlink:href="#ArialMT-53" x="828.125"/>
      </g>
     </g>
    </g>
    <g id="xtick_3">
     <g id="line2d_3">
      <g>
       <use xlink:href="#ma1dfbe5f10" x="224.598726" y="252" style="stroke: #000000; stroke-width: 0.8"/>
      </g>
     </g>
     <g id="text_3">
      <!-- current_injection-SPN -->
      <g transform="translate(172.507053 377.274216)rotate(-45)scale(0.16 -0.16)">
       <defs>
        <path id="ArialMT-50" d="M 494 0 
L 494 4581 
L 2222 4581 
Q 2678 4581 2919 4538 
Q 3256 4481 3484 4323 
Q 3713 4166 3852 3881 
Q 3991 3597 3991 3256 
Q 3991 2672 3619 2267 
Q 3247 1863 2275 1863 
L 1100 1863 
L 1100 0 
L 494 0 
z
M 1100 2403 
L 2284 2403 
Q 2872 2403 3119 2622 
Q 3366 2841 3366 3238 
Q 3366 3525 3220 3729 
Q 3075 3934 2838 4000 
Q 2684 4041 2272 4041 
L 1100 4041 
L 1100 2403 
z
" transform="scale(0.015625)"/>
        <path id="ArialMT-4e" d="M 488 0 
L 488 4581 
L 1109 4581 
L 3516 984 
L 3516 4581 
L 4097 4581 
L 4097 0 
L 3475 0 
L 1069 3600 
L 1069 0 
L 488 0 
z
" transform="scale(0.015625)"/>
       </defs>
       <use xlink:href="#ArialMT-63"/>
       <use xlink:href="#ArialMT-75" x="50"/>
       <use xlink:href="#ArialMT-72" x="105.615234"/>
       <use xlink:href="#ArialMT-72" x="138.916016"/>
       <use xlink:href="#ArialMT-65" x="172.216797"/>
       <use xlink:href="#ArialMT-6e" x="227.832031"/>
       <use xlink:href="#ArialMT-74" x="283.447266"/>
       <use xlink:href="#ArialMT-5f" x="311.230469"/>
       <use xlink:href="#ArialMT-69" x="366.845703"/>
       <use xlink:href="#ArialMT-6e" x="389.0625"/>
       <use xlink:href="#ArialMT-6a" x="444.677734"/>
       <use xlink:href="#ArialMT-65" x="466.894531"/>
       <use xlink:href="#ArialMT-63" x="522.509766"/>
       <use xlink:href="#ArialMT-74" x="572.509766"/>
       <use xlink:href="#ArialMT-69" x="600.292969"/>
       <use xlink:href="#ArialMT-6f" x="622.509766"/>
       <use xlink:href="#ArialMT-6e" x="678.125"/>
       <use xlink:href="#ArialMT-2d" x="733.740234"/>
       <use xlink:href="#ArialMT-53" x="767.041016"/>
       <use xlink:href="#ArialMT-50" x="833.740234"/>
       <use xlink:href="#ArialMT-4e" x="900.439453"/>
      </g>
     </g>
    </g>
    <g id="xtick_4">
     <g id="line2d_4">
      <g>
       <use xlink:href="#ma1dfbe5f10" x="309.898089" y="252" style="stroke: #000000; stroke-width: 0.8"/>
      </g>
     </g>
     <g id="text_4">
      <!-- current_injection-all -->
      <g transform="translate(263.709874 365.191529)rotate(-45)scale(0.16 -0.16)">
       <defs>
        <path id="ArialMT-61" d="M 2588 409 
Q 2275 144 1986 34 
Q 1697 -75 1366 -75 
Q 819 -75 525 192 
Q 231 459 231 875 
Q 231 1119 342 1320 
Q 453 1522 633 1644 
Q 813 1766 1038 1828 
Q 1203 1872 1538 1913 
Q 2219 1994 2541 2106 
Q 2544 2222 2544 2253 
Q 2544 2597 2384 2738 
Q 2169 2928 1744 2928 
Q 1347 2928 1158 2789 
Q 969 2650 878 2297 
L 328 2372 
Q 403 2725 575 2942 
Q 747 3159 1072 3276 
Q 1397 3394 1825 3394 
Q 2250 3394 2515 3294 
Q 2781 3194 2906 3042 
Q 3031 2891 3081 2659 
Q 3109 2516 3109 2141 
L 3109 1391 
Q 3109 606 3145 398 
Q 3181 191 3288 0 
L 2700 0 
Q 2613 175 2588 409 
z
M 2541 1666 
Q 2234 1541 1622 1453 
Q 1275 1403 1131 1340 
Q 988 1278 909 1158 
Q 831 1038 831 891 
Q 831 666 1001 516 
Q 1172 366 1500 366 
Q 1825 366 2078 508 
Q 2331 650 2450 897 
Q 2541 1088 2541 1459 
L 2541 1666 
z
" transform="scale(0.015625)"/>
        <path id="ArialMT-6c" d="M 409 0 
L 409 4581 
L 972 4581 
L 972 0 
L 409 0 
z
" transform="scale(0.015625)"/>
       </defs>
       <use xlink:href="#ArialMT-63"/>
       <use xlink:href="#ArialMT-75" x="50"/>
       <use xlink:href="#ArialMT-72" x="105.615234"/>
       <use xlink:href="#ArialMT-72" x="138.916016"/>
       <use xlink:href="#ArialMT-65" x="172.216797"/>
       <use xlink:href="#ArialMT-6e" x="227.832031"/>
       <use xlink:href="#ArialMT-74" x="283.447266"/>
       <use xlink:href="#ArialMT-5f" x="311.230469"/>
       <use xlink:href="#ArialMT-69" x="366.845703"/>
       <use xlink:href="#ArialMT-6e" x="389.0625"/>
       <use xlink:href="#ArialMT-6a" x="444.677734"/>
       <use xlink:href="#ArialMT-65" x="466.894531"/>
       <use xlink:href="#ArialMT-63" x="522.509766"/>
       <use xlink:href="#ArialMT-74" x="572.509766"/>
       <use xlink:href="#ArialMT-69" x="600.292969"/>
       <use xlink:href="#ArialMT-6f" x="622.509766"/>
       <use xlink:href="#ArialMT-6e" x="678.125"/>
       <use xlink:href="#ArialMT-2d" x="733.740234"/>
       <use xlink:href="#ArialMT-61" x="767.041016"/>
       <use xlink:href="#ArialMT-6c" x="822.65625"/>
       <use xlink:href="#ArialMT-6c" x="844.873047"/>
      </g>
     </g>
    </g>
   </g>
   <g id="matplotlib.axis_2">
    <g id="ytick_1">
     <g id="line2d_5">
      <defs>
       <path id="m60440874b1" d="M 0 0 
L -3.5 0 
" style="stroke: #000000; stroke-width: 0.8"/>
      </defs>
      <g>
       <use xlink:href="#m60440874b1" x="54" y="252" style="stroke: #000000; stroke-width: 0.8"/>
      </g>
     </g>
     <g id="text_5">
      <!-- 0 -->
      <g transform="translate(38.0925 257.318906)scale(0.14 -0.14)">
       <defs>
        <path id="DejaVuSans-30" d="M 2034 4250 
Q 1547 4250 1301 3770 
Q 1056 3291 1056 2328 
Q 1056 1369 1301 889 
Q 1547 409 2034 409 
Q 2525 409 2770 889 
Q 3016 1369 3016 2328 
Q 3016 3291 2770 3770 
Q 2525 4250 2034 4250 
z
M 2034 4750 
Q 2819 4750 3233 4129 
Q 3647 3509 3647 2328 
Q 3647 1150 3233 529 
Q 2819 -91 2034 -91 
Q 1250 -91 836 529 
Q 422 1150 422 2328 
Q 422 3509 836 4129 
Q 1250 4750 2034 4750 
z
" transform="scale(0.015625)"/>
       </defs>
       <use xlink:href="#DejaVuSans-30"/>
      </g>
     </g>
    </g>
    <g id="ytick_2">
     <g id="line2d_6">
      <g>
       <use xlink:href="#m60440874b1" x="54" y="227.84" style="stroke: #000000; stroke-width: 0.8"/>
      </g>
     </g>
     <g id="text_6">
      <!-- 5 -->
      <g transform="translate(38.0925 233.158906)scale(0.14 -0.14)">
       <defs>
        <path id="DejaVuSans-35" d="M 691 4666 
L 3169 4666 
L 3169 4134 
L 1269 4134 
L 1269 2991 
Q 1406 3038 1543 3061 
Q 1681 3084 1819 3084 
Q 2600 3084 3056 2656 
Q 3513 2228 3513 1497 
Q 3513 744 3044 326 
Q 2575 -91 1722 -91 
Q 1428 -91 1123 -41 
Q 819 9 494 109 
L 494 744 
Q 775 591 1075 516 
Q 1375 441 1709 441 
Q 2250 441 2565 725 
Q 2881 1009 2881 1497 
Q 2881 1984 2565 2268 
Q 2250 2553 1709 2553 
Q 1456 2553 1204 2497 
Q 953 2441 691 2322 
L 691 4666 
z
" transform="scale(0.015625)"/>
       </defs>
       <use xlink:href="#DejaVuSans-35"/>
      </g>
     </g>
    </g>
    <g id="ytick_3">
     <g id="line2d_7">
      <g>
       <use xlink:href="#m60440874b1" x="54" y="203.68" style="stroke: #000000; stroke-width: 0.8"/>
      </g>
     </g>
     <g id="text_7">
      <!-- 10 -->
      <g transform="translate(29.185 208.998906)scale(0.14 -0.14)">
       <defs>
        <path id="DejaVuSans-31" d="M 794 531 
L 1825 531 
L 1825 4091 
L 703 3866 
L 703 4441 
L 1819 4666 
L 2450 4666 
L 2450 531 
L 3481 531 
L 3481 0 
L 794 0 
L 794 531 
z
" transform="scale(0.015625)"/>
       </defs>
       <use xlink:href="#DejaVuSans-31"/>
       <use xlink:href="#DejaVuSans-30" x="63.623047"/>
      </g>
     </g>
    </g>
    <g id="ytick_4">
     <g id="line2d_8">
      <g>
       <use xlink:href="#m60440874b1" x="54" y="179.52" style="stroke: #000000; stroke-width: 0.8"/>
      </g>
     </g>
     <g id="text_8">
      <!-- 15 -->
      <g transform="translate(29.185 184.838906)scale(0.14 -0.14)">
       <use xlink:href="#DejaVuSans-31"/>
       <use xlink:href="#DejaVuSans-35" x="63.623047"/>
      </g>
     </g>
    </g>
    <g id="ytick_5">
     <g id="line2d_9">
      <g>
       <use xlink:href="#m60440874b1" x="54" y="155.36" style="stroke: #000000; stroke-width: 0.8"/>
      </g>
     </g>
     <g id="text_9">
      <!-- 20 -->
      <g transform="translate(29.185 160.678906)scale(0.14 -0.14)">
       <defs>
        <path id="DejaVuSans-32" d="M 1228 531 
L 3431 531 
L 3431 0 
L 469 0 
L 469 531 
Q 828 903 1448 1529 
Q 2069 2156 2228 2338 
Q 2531 2678 2651 2914 
Q 2772 3150 2772 3378 
Q 2772 3750 2511 3984 
Q 2250 4219 1831 4219 
Q 1534 4219 1204 4116 
Q 875 4013 500 3803 
L 500 4441 
Q 881 4594 1212 4672 
Q 1544 4750 1819 4750 
Q 2544 4750 2975 4387 
Q 3406 4025 3406 3419 
Q 3406 3131 3298 2873 
Q 3191 2616 2906 2266 
Q 2828 2175 2409 1742 
Q 1991 1309 1228 531 
z
" transform="scale(0.015625)"/>
       </defs>
       <use xlink:href="#DejaVuSans-32"/>
       <use xlink:href="#DejaVuSans-30" x="63.623047"/>
      </g>
     </g>
    </g>
    <g id="ytick_6">
     <g id="line2d_10">
      <g>
       <use xlink:href="#m60440874b1" x="54" y="131.2" style="stroke: #000000; stroke-width: 0.8"/>
      </g>
     </g>
     <g id="text_10">
      <!-- 25 -->
      <g transform="translate(29.185 136.518906)scale(0.14 -0.14)">
       <use xlink:href="#DejaVuSans-32"/>
       <use xlink:href="#DejaVuSans-35" x="63.623047"/>
      </g>
     </g>
    </g>
    <g id="ytick_7">
     <g id="line2d_11">
      <g>
       <use xlink:href="#m60440874b1" x="54" y="107.04" style="stroke: #000000; stroke-width: 0.8"/>
      </g>
     </g>
     <g id="text_11">
      <!-- 30 -->
      <g transform="translate(29.185 112.358906)scale(0.14 -0.14)">
       <defs>
        <path id="DejaVuSans-33" d="M 2597 2516 
Q 3050 2419 3304 2112 
Q 3559 1806 3559 1356 
Q 3559 666 3084 287 
Q 2609 -91 1734 -91 
Q 1441 -91 1130 -33 
Q 819 25 488 141 
L 488 750 
Q 750 597 1062 519 
Q 1375 441 1716 441 
Q 2309 441 2620 675 
Q 2931 909 2931 1356 
Q 2931 1769 2642 2001 
Q 2353 2234 1838 2234 
L 1294 2234 
L 1294 2753 
L 1863 2753 
Q 2328 2753 2575 2939 
Q 2822 3125 2822 3475 
Q 2822 3834 2567 4026 
Q 2313 4219 1838 4219 
Q 1578 4219 1281 4162 
Q 984 4106 628 3988 
L 628 4550 
Q 988 4650 1302 4700 
Q 1616 4750 1894 4750 
Q 2613 4750 3031 4423 
Q 3450 4097 3450 3541 
Q 3450 3153 3228 2886 
Q 3006 2619 2597 2516 
z
" transform="scale(0.015625)"/>
       </defs>
       <use xlink:href="#DejaVuSans-33"/>
       <use xlink:href="#DejaVuSans-30" x="63.623047"/>
      </g>
     </g>
    </g>
    <g id="ytick_8">
     <g id="line2d_12">
      <g>
       <use xlink:href="#m60440874b1" x="54" y="82.88" style="stroke: #000000; stroke-width: 0.8"/>
      </g>
     </g>
     <g id="text_12">
      <!-- 35 -->
      <g transform="translate(29.185 88.198906)scale(0.14 -0.14)">
       <use xlink:href="#DejaVuSans-33"/>
       <use xlink:href="#DejaVuSans-35" x="63.623047"/>
      </g>
     </g>
    </g>
    <g id="ytick_9">
     <g id="line2d_13">
      <g>
       <use xlink:href="#m60440874b1" x="54" y="58.72" style="stroke: #000000; stroke-width: 0.8"/>
      </g>
     </g>
     <g id="text_13">
      <!-- 40 -->
      <g transform="translate(29.185 64.038906)scale(0.14 -0.14)">
       <defs>
        <path id="DejaVuSans-34" d="M 2419 4116 
L 825 1625 
L 2419 1625 
L 2419 4116 
z
M 2253 4666 
L 3047 4666 
L 3047 1625 
L 3713 1625 
L 3713 1100 
L 3047 1100 
L 3047 0 
L 2419 0 
L 2419 1100 
L 313 1100 
L 313 1709 
L 2253 4666 
z
" transform="scale(0.015625)"/>
       </defs>
       <use xlink:href="#DejaVuSans-34"/>
       <use xlink:href="#DejaVuSans-30" x="63.623047"/>
      </g>
     </g>
    </g>
    <g id="ytick_10">
     <g id="line2d_14">
      <g>
       <use xlink:href="#m60440874b1" x="54" y="34.56" style="stroke: #000000; stroke-width: 0.8"/>
      </g>
     </g>
     <g id="text_14">
      <!-- 45 -->
      <g transform="translate(29.185 39.878906)scale(0.14 -0.14)">
       <use xlink:href="#DejaVuSans-34"/>
       <use xlink:href="#DejaVuSans-35" x="63.623047"/>
      </g>
     </g>
    </g>
    <g id="text_15">
     <!-- Frequency (Hz) -->
     <g transform="translate(21.8175 198.40125)rotate(-90)scale(0.16 -0.16)">
      <defs>
       <path id="ArialMT-71" d="M 2538 -1272 
L 2538 353 
Q 2406 169 2170 47 
Q 1934 -75 1669 -75 
Q 1078 -75 651 397 
Q 225 869 225 1691 
Q 225 2191 398 2587 
Q 572 2984 901 3189 
Q 1231 3394 1625 3394 
Q 2241 3394 2594 2875 
L 2594 3319 
L 3100 3319 
L 3100 -1272 
L 2538 -1272 
z
M 803 1669 
Q 803 1028 1072 708 
Q 1341 388 1716 388 
Q 2075 388 2334 692 
Q 2594 997 2594 1619 
Q 2594 2281 2320 2615 
Q 2047 2950 1678 2950 
Q 1313 2950 1058 2639 
Q 803 2328 803 1669 
z
" transform="scale(0.015625)"/>
       <path id="ArialMT-79" d="M 397 -1278 
L 334 -750 
Q 519 -800 656 -800 
Q 844 -800 956 -737 
Q 1069 -675 1141 -563 
Q 1194 -478 1313 -144 
Q 1328 -97 1363 -6 
L 103 3319 
L 709 3319 
L 1400 1397 
Q 1534 1031 1641 628 
Q 1738 1016 1872 1384 
L 2581 3319 
L 3144 3319 
L 1881 -56 
Q 1678 -603 1566 -809 
Q 1416 -1088 1222 -1217 
Q 1028 -1347 759 -1347 
Q 597 -1347 397 -1278 
z
" transform="scale(0.015625)"/>
       <path id="ArialMT-20" transform="scale(0.015625)"/>
       <path id="ArialMT-28" d="M 1497 -1347 
Q 1031 -759 709 28 
Q 388 816 388 1659 
Q 388 2403 628 3084 
Q 909 3875 1497 4659 
L 1900 4659 
Q 1522 4009 1400 3731 
Q 1209 3300 1100 2831 
Q 966 2247 966 1656 
Q 966 153 1900 -1347 
L 1497 -1347 
z
" transform="scale(0.015625)"/>
       <path id="ArialMT-48" d="M 513 0 
L 513 4581 
L 1119 4581 
L 1119 2700 
L 3500 2700 
L 3500 4581 
L 4106 4581 
L 4106 0 
L 3500 0 
L 3500 2159 
L 1119 2159 
L 1119 0 
L 513 0 
z
" transform="scale(0.015625)"/>
       <path id="ArialMT-7a" d="M 125 0 
L 125 456 
L 2238 2881 
Q 1878 2863 1603 2863 
L 250 2863 
L 250 3319 
L 2963 3319 
L 2963 2947 
L 1166 841 
L 819 456 
Q 1197 484 1528 484 
L 3063 484 
L 3063 0 
L 125 0 
z
" transform="scale(0.015625)"/>
       <path id="ArialMT-29" d="M 791 -1347 
L 388 -1347 
Q 1322 153 1322 1656 
Q 1322 2244 1188 2822 
Q 1081 3291 891 3722 
Q 769 4003 388 4659 
L 791 4659 
Q 1378 3875 1659 3084 
Q 1900 2403 1900 1659 
Q 1900 816 1576 28 
Q 1253 -759 791 -1347 
z
" transform="scale(0.015625)"/>
      </defs>
      <use xlink:href="#ArialMT-46"/>
      <use xlink:href="#ArialMT-72" x="61.083984"/>
      <use xlink:href="#ArialMT-65" x="94.384766"/>
      <use xlink:href="#ArialMT-71" x="150"/>
      <use xlink:href="#ArialMT-75" x="205.615234"/>
      <use xlink:href="#ArialMT-65" x="261.230469"/>
      <use xlink:href="#ArialMT-6e" x="316.845703"/>
      <use xlink:href="#ArialMT-63" x="372.460938"/>
      <use xlink:href="#ArialMT-79" x="422.460938"/>
      <use xlink:href="#ArialMT-20" x="472.460938"/>
      <use xlink:href="#ArialMT-28" x="500.244141"/>
      <use xlink:href="#ArialMT-48" x="533.544922"/>
      <use xlink:href="#ArialMT-7a" x="605.761719"/>
      <use xlink:href="#ArialMT-29" x="655.761719"/>
     </g>
    </g>
   </g>
   <g id="LineCollection_1">
    <path d="M 85.987261 170.86591 
L 107.312102 170.86591 
" clip-path="url(#pba5f94b7cb)" style="fill: none; stroke: #000000; stroke-width: 1.6"/>
    <path d="M 171.286624 165.990999 
L 192.611465 165.990999 
" clip-path="url(#pba5f94b7cb)" style="fill: none; stroke: #000000; stroke-width: 1.6"/>
    <path d="M 256.585987 143.659215 
L 277.910828 143.659215 
" clip-path="url(#pba5f94b7cb)" style="fill: none; stroke: #000000; stroke-width: 1.6"/>
    <path d="M 341.88535 138.522845 
L 363.210191 138.522845 
" clip-path="url(#pba5f94b7cb)" style="fill: none; stroke: #000000; stroke-width: 1.6"/>
   </g>
   <g id="LineCollection_2">
    <path d="M 85.987261 58.72 
L 107.312102 58.72 
" clip-path="url(#pba5f94b7cb)" style="fill: none; stroke: #000000; stroke-width: 1.6"/>
    <path d="M 171.286624 58.72 
L 192.611465 58.72 
" clip-path="url(#pba5f94b7cb)" style="fill: none; stroke: #000000; stroke-width: 1.6"/>
    <path d="M 256.585987 58.72 
L 277.910828 58.72 
" clip-path="url(#pba5f94b7cb)" style="fill: none; stroke: #000000; stroke-width: 1.6"/>
    <path d="M 341.88535 58.72 
L 363.210191 58.72 
" clip-path="url(#pba5f94b7cb)" style="fill: none; stroke: #000000; stroke-width: 1.6"/>
   </g>
   <g id="LineCollection_3">
    <path d="M 85.987261 252 
L 107.312102 252 
" clip-path="url(#pba5f94b7cb)" style="fill: none; stroke: #000000; stroke-width: 1.6"/>
    <path d="M 171.286624 252 
L 192.611465 252 
" clip-path="url(#pba5f94b7cb)" style="fill: none; stroke: #000000; stroke-width: 1.6"/>
    <path d="M 256.585987 252 
L 277.910828 252 
" clip-path="url(#pba5f94b7cb)" style="fill: none; stroke: #000000; stroke-width: 1.6"/>
    <path d="M 341.88535 252 
L 363.210191 252 
" clip-path="url(#pba5f94b7cb)" style="fill: none; stroke: #000000; stroke-width: 1.6"/>
   </g>
   <g id="LineCollection_4">
    <path d="M 96.649682 252 
L 96.649682 58.72 
" clip-path="url(#pba5f94b7cb)" style="fill: none; stroke: #000000; stroke-width: 1.6"/>
    <path d="M 181.949045 252 
L 181.949045 58.72 
" clip-path="url(#pba5f94b7cb)" style="fill: none; stroke: #000000; stroke-width: 1.6"/>
    <path d="M 267.248408 252 
L 267.248408 58.72 
" clip-path="url(#pba5f94b7cb)" style="fill: none; stroke: #000000; stroke-width: 1.6"/>
    <path d="M 352.547771 252 
L 352.547771 58.72 
" clip-path="url(#pba5f94b7cb)" style="fill: none; stroke: #000000; stroke-width: 1.6"/>
   </g>
   <g id="patch_3">
    <path d="M 54 252 
L 54 34.56 
" style="fill: none; stroke: #000000; stroke-width: 0.8; stroke-linejoin: miter; stroke-linecap: square"/>
   </g>
   <g id="patch_4">
    <path d="M 388.8 252 
L 388.8 34.56 
" style="fill: none; stroke: #000000; stroke-width: 0.8; stroke-linejoin: miter; stroke-linecap: square"/>
   </g>
   <g id="patch_5">
    <path d="M 54 252 
L 388.8 252 
" style="fill: none; stroke: #000000; stroke-width: 0.8; stroke-linejoin: miter; stroke-linecap: square"/>
   </g>
   <g id="patch_6">
    <path d="M 54 34.56 
L 388.8 34.56 
" style="fill: none; stroke: #000000; stroke-width: 0.8; stroke-linejoin: miter; stroke-linecap: square"/>
   </g>
  </g>
 </g>
 <defs>
  <clipPath id="pba5f94b7cb">
   <rect x="54" y="34.56" width="334.8" height="217.44"/>
  </clipPath>
 </defs>
</svg>
