<?xml version="1.0" encoding="utf-8" standalone="no"?>
<!DOCTYPE svg PUBLIC "-//W3C//DTD SVG 1.1//EN"
  "http://www.w3.org/Graphics/SVG/1.1/DTD/svg11.dtd">
<svg xmlns:xlink="http://www.w3.org/1999/xlink" width="576pt" height="576pt" viewBox="0 0 576 576" xmlns="http://www.w3.org/2000/svg" version="1.1">
 <metadata>
  <rdf:RDF xmlns:dc="http://purl.org/dc/elements/1.1/" xmlns:cc="http://creativecommons.org/ns#" xmlns:rdf="http://www.w3.org/1999/02/22-rdf-syntax-ns#">
   <cc:Work>
    <dc:type rdf:resource="http://purl.org/dc/dcmitype/StillImage"/>
    <dc:date>2022-10-30T19:57:10.307074</dc:date>
    <dc:format>image/svg+xml</dc:format>
    <dc:creator>
     <cc:Agent>
      <dc:title>Matplotlib v3.5.2, https://matplotlib.org/</dc:title>
     </cc:Agent>
    </dc:creator>
   </cc:Work>
  </rdf:RDF>
 </metadata>
 <defs>
  <style type="text/css">*{stroke-linejoin: round; stroke-linecap: butt}</style>
 </defs>
 <g id="figure_1">
  <g id="patch_1">
   <path d="M 0 576 
L 576 576 
L 576 0 
L 0 0 
L 0 576 
z
" style="fill: none"/>
  </g>
  <g id="axes_1">
   <g id="patch_2">
    <path d="M 72 504 
L 518.4 504 
L 518.4 69.12 
L 72 69.12 
z
" style="fill: #ffffff"/>
   </g>
   <g id="matplotlib.axis_1">
    <g id="xtick_1">
     <g id="line2d_1">
      <defs>
       <path id="m0830d04d7c" d="M 0 0 
L 0 3.5 
" style="stroke: #000000; stroke-width: 0.8"/>
      </defs>
      <g>
       <use xlink:href="#m0830d04d7c" x="92.290909" y="504" style="stroke: #000000; stroke-width: 0.8"/>
      </g>
     </g>
     <g id="text_1">
      <!-- 0 -->
      <g transform="translate(85.292159 527.716563)scale(0.22 -0.22)">
       <defs>
        <path id="DejaVuSans-30" d="M 2034 4250 
Q 1547 4250 1301 3770 
Q 1056 3291 1056 2328 
Q 1056 1369 1301 889 
Q 1547 409 2034 409 
Q 2525 409 2770 889 
Q 3016 1369 3016 2328 
Q 3016 3291 2770 3770 
Q 2525 4250 2034 4250 
z
M 2034 4750 
Q 2819 4750 3233 4129 
Q 3647 3509 3647 2328 
Q 3647 1150 3233 529 
Q 2819 -91 2034 -91 
Q 1250 -91 836 529 
Q 422 1150 422 2328 
Q 422 3509 836 4129 
Q 1250 4750 2034 4750 
z
" transform="scale(0.015625)"/>
       </defs>
       <use xlink:href="#DejaVuSans-30"/>
      </g>
     </g>
    </g>
    <g id="xtick_2">
     <g id="line2d_2">
      <g>
       <use xlink:href="#m0830d04d7c" x="227.563636" y="504" style="stroke: #000000; stroke-width: 0.8"/>
      </g>
     </g>
     <g id="text_2">
      <!-- 1000 -->
      <g transform="translate(199.568636 527.716563)scale(0.22 -0.22)">
       <defs>
        <path id="DejaVuSans-31" d="M 794 531 
L 1825 531 
L 1825 4091 
L 703 3866 
L 703 4441 
L 1819 4666 
L 2450 4666 
L 2450 531 
L 3481 531 
L 3481 0 
L 794 0 
L 794 531 
z
" transform="scale(0.015625)"/>
       </defs>
       <use xlink:href="#DejaVuSans-31"/>
       <use xlink:href="#DejaVuSans-30" x="63.623047"/>
       <use xlink:href="#DejaVuSans-30" x="127.246094"/>
       <use xlink:href="#DejaVuSans-30" x="190.869141"/>
      </g>
     </g>
    </g>
    <g id="xtick_3">
     <g id="line2d_3">
      <g>
       <use xlink:href="#m0830d04d7c" x="362.836364" y="504" style="stroke: #000000; stroke-width: 0.8"/>
      </g>
     </g>
     <g id="text_3">
      <!-- 2000 -->
      <g transform="translate(334.841364 527.716563)scale(0.22 -0.22)">
       <defs>
        <path id="DejaVuSans-32" d="M 1228 531 
L 3431 531 
L 3431 0 
L 469 0 
L 469 531 
Q 828 903 1448 1529 
Q 2069 2156 2228 2338 
Q 2531 2678 2651 2914 
Q 2772 3150 2772 3378 
Q 2772 3750 2511 3984 
Q 2250 4219 1831 4219 
Q 1534 4219 1204 4116 
Q 875 4013 500 3803 
L 500 4441 
Q 881 4594 1212 4672 
Q 1544 4750 1819 4750 
Q 2544 4750 2975 4387 
Q 3406 4025 3406 3419 
Q 3406 3131 3298 2873 
Q 3191 2616 2906 2266 
Q 2828 2175 2409 1742 
Q 1991 1309 1228 531 
z
" transform="scale(0.015625)"/>
       </defs>
       <use xlink:href="#DejaVuSans-32"/>
       <use xlink:href="#DejaVuSans-30" x="63.623047"/>
       <use xlink:href="#DejaVuSans-30" x="127.246094"/>
       <use xlink:href="#DejaVuSans-30" x="190.869141"/>
      </g>
     </g>
    </g>
    <g id="xtick_4">
     <g id="line2d_4">
      <g>
       <use xlink:href="#m0830d04d7c" x="498.109091" y="504" style="stroke: #000000; stroke-width: 0.8"/>
      </g>
     </g>
     <g id="text_4">
      <!-- 3000 -->
      <g transform="translate(470.114091 527.716563)scale(0.22 -0.22)">
       <defs>
        <path id="DejaVuSans-33" d="M 2597 2516 
Q 3050 2419 3304 2112 
Q 3559 1806 3559 1356 
Q 3559 666 3084 287 
Q 2609 -91 1734 -91 
Q 1441 -91 1130 -33 
Q 819 25 488 141 
L 488 750 
Q 750 597 1062 519 
Q 1375 441 1716 441 
Q 2309 441 2620 675 
Q 2931 909 2931 1356 
Q 2931 1769 2642 2001 
Q 2353 2234 1838 2234 
L 1294 2234 
L 1294 2753 
L 1863 2753 
Q 2328 2753 2575 2939 
Q 2822 3125 2822 3475 
Q 2822 3834 2567 4026 
Q 2313 4219 1838 4219 
Q 1578 4219 1281 4162 
Q 984 4106 628 3988 
L 628 4550 
Q 988 4650 1302 4700 
Q 1616 4750 1894 4750 
Q 2613 4750 3031 4423 
Q 3450 4097 3450 3541 
Q 3450 3153 3228 2886 
Q 3006 2619 2597 2516 
z
" transform="scale(0.015625)"/>
       </defs>
       <use xlink:href="#DejaVuSans-33"/>
       <use xlink:href="#DejaVuSans-30" x="63.623047"/>
       <use xlink:href="#DejaVuSans-30" x="127.246094"/>
       <use xlink:href="#DejaVuSans-30" x="190.869141"/>
      </g>
     </g>
    </g>
    <g id="text_5">
     <!-- Time(ms) -->
     <g transform="translate(249.182187 552.307188)scale(0.22 -0.22)">
      <defs>
       <path id="ArialMT-54" d="M 1659 0 
L 1659 4041 
L 150 4041 
L 150 4581 
L 3781 4581 
L 3781 4041 
L 2266 4041 
L 2266 0 
L 1659 0 
z
" transform="scale(0.015625)"/>
       <path id="ArialMT-69" d="M 425 3934 
L 425 4581 
L 988 4581 
L 988 3934 
L 425 3934 
z
M 425 0 
L 425 3319 
L 988 3319 
L 988 0 
L 425 0 
z
" transform="scale(0.015625)"/>
       <path id="ArialMT-6d" d="M 422 0 
L 422 3319 
L 925 3319 
L 925 2853 
Q 1081 3097 1340 3245 
Q 1600 3394 1931 3394 
Q 2300 3394 2536 3241 
Q 2772 3088 2869 2813 
Q 3263 3394 3894 3394 
Q 4388 3394 4653 3120 
Q 4919 2847 4919 2278 
L 4919 0 
L 4359 0 
L 4359 2091 
Q 4359 2428 4304 2576 
Q 4250 2725 4106 2815 
Q 3963 2906 3769 2906 
Q 3419 2906 3187 2673 
Q 2956 2441 2956 1928 
L 2956 0 
L 2394 0 
L 2394 2156 
Q 2394 2531 2256 2718 
Q 2119 2906 1806 2906 
Q 1569 2906 1367 2781 
Q 1166 2656 1075 2415 
Q 984 2175 984 1722 
L 984 0 
L 422 0 
z
" transform="scale(0.015625)"/>
       <path id="ArialMT-65" d="M 2694 1069 
L 3275 997 
Q 3138 488 2766 206 
Q 2394 -75 1816 -75 
Q 1088 -75 661 373 
Q 234 822 234 1631 
Q 234 2469 665 2931 
Q 1097 3394 1784 3394 
Q 2450 3394 2872 2941 
Q 3294 2488 3294 1666 
Q 3294 1616 3291 1516 
L 816 1516 
Q 847 969 1125 678 
Q 1403 388 1819 388 
Q 2128 388 2347 550 
Q 2566 713 2694 1069 
z
M 847 1978 
L 2700 1978 
Q 2663 2397 2488 2606 
Q 2219 2931 1791 2931 
Q 1403 2931 1139 2672 
Q 875 2413 847 1978 
z
" transform="scale(0.015625)"/>
       <path id="ArialMT-28" d="M 1497 -1347 
Q 1031 -759 709 28 
Q 388 816 388 1659 
Q 388 2403 628 3084 
Q 909 3875 1497 4659 
L 1900 4659 
Q 1522 4009 1400 3731 
Q 1209 3300 1100 2831 
Q 966 2247 966 1656 
Q 966 153 1900 -1347 
L 1497 -1347 
z
" transform="scale(0.015625)"/>
       <path id="ArialMT-73" d="M 197 991 
L 753 1078 
Q 800 744 1014 566 
Q 1228 388 1613 388 
Q 2000 388 2187 545 
Q 2375 703 2375 916 
Q 2375 1106 2209 1216 
Q 2094 1291 1634 1406 
Q 1016 1563 777 1677 
Q 538 1791 414 1992 
Q 291 2194 291 2438 
Q 291 2659 392 2848 
Q 494 3038 669 3163 
Q 800 3259 1026 3326 
Q 1253 3394 1513 3394 
Q 1903 3394 2198 3281 
Q 2494 3169 2634 2976 
Q 2775 2784 2828 2463 
L 2278 2388 
Q 2241 2644 2061 2787 
Q 1881 2931 1553 2931 
Q 1166 2931 1000 2803 
Q 834 2675 834 2503 
Q 834 2394 903 2306 
Q 972 2216 1119 2156 
Q 1203 2125 1616 2013 
Q 2213 1853 2448 1751 
Q 2684 1650 2818 1456 
Q 2953 1263 2953 975 
Q 2953 694 2789 445 
Q 2625 197 2315 61 
Q 2006 -75 1616 -75 
Q 969 -75 630 194 
Q 291 463 197 991 
z
" transform="scale(0.015625)"/>
       <path id="ArialMT-29" d="M 791 -1347 
L 388 -1347 
Q 1322 153 1322 1656 
Q 1322 2244 1188 2822 
Q 1081 3291 891 3722 
Q 769 4003 388 4659 
L 791 4659 
Q 1378 3875 1659 3084 
Q 1900 2403 1900 1659 
Q 1900 816 1576 28 
Q 1253 -759 791 -1347 
z
" transform="scale(0.015625)"/>
      </defs>
      <use xlink:href="#ArialMT-54"/>
      <use xlink:href="#ArialMT-69" x="57.333984"/>
      <use xlink:href="#ArialMT-6d" x="79.550781"/>
      <use xlink:href="#ArialMT-65" x="162.851562"/>
      <use xlink:href="#ArialMT-28" x="218.466797"/>
      <use xlink:href="#ArialMT-6d" x="251.767578"/>
      <use xlink:href="#ArialMT-73" x="335.068359"/>
      <use xlink:href="#ArialMT-29" x="385.068359"/>
     </g>
    </g>
   </g>
   <g id="matplotlib.axis_2">
    <g id="ytick_1">
     <g id="line2d_5">
      <defs>
       <path id="m90d2303f1b" d="M 0 0 
L -3.5 0 
" style="stroke: #000000; stroke-width: 0.8"/>
      </defs>
      <g>
       <use xlink:href="#m90d2303f1b" x="72" y="476.82" style="stroke: #000000; stroke-width: 0.8"/>
      </g>
     </g>
     <g id="text_6">
      <!-- −100 -->
      <g transform="translate(4.572187 485.178281)scale(0.22 -0.22)">
       <defs>
        <path id="DejaVuSans-2212" d="M 678 2272 
L 4684 2272 
L 4684 1741 
L 678 1741 
L 678 2272 
z
" transform="scale(0.015625)"/>
       </defs>
       <use xlink:href="#DejaVuSans-2212"/>
       <use xlink:href="#DejaVuSans-31" x="83.789062"/>
       <use xlink:href="#DejaVuSans-30" x="147.412109"/>
       <use xlink:href="#DejaVuSans-30" x="211.035156"/>
      </g>
     </g>
    </g>
    <g id="ytick_2">
     <g id="line2d_6">
      <g>
       <use xlink:href="#m90d2303f1b" x="72" y="422.46" style="stroke: #000000; stroke-width: 0.8"/>
      </g>
     </g>
     <g id="text_7">
      <!-- −80 -->
      <g transform="translate(18.569688 430.818281)scale(0.22 -0.22)">
       <defs>
        <path id="DejaVuSans-38" d="M 2034 2216 
Q 1584 2216 1326 1975 
Q 1069 1734 1069 1313 
Q 1069 891 1326 650 
Q 1584 409 2034 409 
Q 2484 409 2743 651 
Q 3003 894 3003 1313 
Q 3003 1734 2745 1975 
Q 2488 2216 2034 2216 
z
M 1403 2484 
Q 997 2584 770 2862 
Q 544 3141 544 3541 
Q 544 4100 942 4425 
Q 1341 4750 2034 4750 
Q 2731 4750 3128 4425 
Q 3525 4100 3525 3541 
Q 3525 3141 3298 2862 
Q 3072 2584 2669 2484 
Q 3125 2378 3379 2068 
Q 3634 1759 3634 1313 
Q 3634 634 3220 271 
Q 2806 -91 2034 -91 
Q 1263 -91 848 271 
Q 434 634 434 1313 
Q 434 1759 690 2068 
Q 947 2378 1403 2484 
z
M 1172 3481 
Q 1172 3119 1398 2916 
Q 1625 2713 2034 2713 
Q 2441 2713 2670 2916 
Q 2900 3119 2900 3481 
Q 2900 3844 2670 4047 
Q 2441 4250 2034 4250 
Q 1625 4250 1398 4047 
Q 1172 3844 1172 3481 
z
" transform="scale(0.015625)"/>
       </defs>
       <use xlink:href="#DejaVuSans-2212"/>
       <use xlink:href="#DejaVuSans-38" x="83.789062"/>
       <use xlink:href="#DejaVuSans-30" x="147.412109"/>
      </g>
     </g>
    </g>
    <g id="ytick_3">
     <g id="line2d_7">
      <g>
       <use xlink:href="#m90d2303f1b" x="72" y="368.1" style="stroke: #000000; stroke-width: 0.8"/>
      </g>
     </g>
     <g id="text_8">
      <!-- −60 -->
      <g transform="translate(18.569688 376.458281)scale(0.22 -0.22)">
       <defs>
        <path id="DejaVuSans-36" d="M 2113 2584 
Q 1688 2584 1439 2293 
Q 1191 2003 1191 1497 
Q 1191 994 1439 701 
Q 1688 409 2113 409 
Q 2538 409 2786 701 
Q 3034 994 3034 1497 
Q 3034 2003 2786 2293 
Q 2538 2584 2113 2584 
z
M 3366 4563 
L 3366 3988 
Q 3128 4100 2886 4159 
Q 2644 4219 2406 4219 
Q 1781 4219 1451 3797 
Q 1122 3375 1075 2522 
Q 1259 2794 1537 2939 
Q 1816 3084 2150 3084 
Q 2853 3084 3261 2657 
Q 3669 2231 3669 1497 
Q 3669 778 3244 343 
Q 2819 -91 2113 -91 
Q 1303 -91 875 529 
Q 447 1150 447 2328 
Q 447 3434 972 4092 
Q 1497 4750 2381 4750 
Q 2619 4750 2861 4703 
Q 3103 4656 3366 4563 
z
" transform="scale(0.015625)"/>
       </defs>
       <use xlink:href="#DejaVuSans-2212"/>
       <use xlink:href="#DejaVuSans-36" x="83.789062"/>
       <use xlink:href="#DejaVuSans-30" x="147.412109"/>
      </g>
     </g>
    </g>
    <g id="ytick_4">
     <g id="line2d_8">
      <g>
       <use xlink:href="#m90d2303f1b" x="72" y="313.74" style="stroke: #000000; stroke-width: 0.8"/>
      </g>
     </g>
     <g id="text_9">
      <!-- −40 -->
      <g transform="translate(18.569688 322.098281)scale(0.22 -0.22)">
       <defs>
        <path id="DejaVuSans-34" d="M 2419 4116 
L 825 1625 
L 2419 1625 
L 2419 4116 
z
M 2253 4666 
L 3047 4666 
L 3047 1625 
L 3713 1625 
L 3713 1100 
L 3047 1100 
L 3047 0 
L 2419 0 
L 2419 1100 
L 313 1100 
L 313 1709 
L 2253 4666 
z
" transform="scale(0.015625)"/>
       </defs>
       <use xlink:href="#DejaVuSans-2212"/>
       <use xlink:href="#DejaVuSans-34" x="83.789062"/>
       <use xlink:href="#DejaVuSans-30" x="147.412109"/>
      </g>
     </g>
    </g>
    <g id="ytick_5">
     <g id="line2d_9">
      <g>
       <use xlink:href="#m90d2303f1b" x="72" y="259.38" style="stroke: #000000; stroke-width: 0.8"/>
      </g>
     </g>
     <g id="text_10">
      <!-- −20 -->
      <g transform="translate(18.569688 267.738281)scale(0.22 -0.22)">
       <use xlink:href="#DejaVuSans-2212"/>
       <use xlink:href="#DejaVuSans-32" x="83.789062"/>
       <use xlink:href="#DejaVuSans-30" x="147.412109"/>
      </g>
     </g>
    </g>
    <g id="ytick_6">
     <g id="line2d_10">
      <g>
       <use xlink:href="#m90d2303f1b" x="72" y="205.02" style="stroke: #000000; stroke-width: 0.8"/>
      </g>
     </g>
     <g id="text_11">
      <!-- 0 -->
      <g transform="translate(51.0025 213.378281)scale(0.22 -0.22)">
       <use xlink:href="#DejaVuSans-30"/>
      </g>
     </g>
    </g>
    <g id="ytick_7">
     <g id="line2d_11">
      <g>
       <use xlink:href="#m90d2303f1b" x="72" y="150.66" style="stroke: #000000; stroke-width: 0.8"/>
      </g>
     </g>
     <g id="text_12">
      <!-- 20 -->
      <g transform="translate(37.005 159.018281)scale(0.22 -0.22)">
       <use xlink:href="#DejaVuSans-32"/>
       <use xlink:href="#DejaVuSans-30" x="63.623047"/>
      </g>
     </g>
    </g>
    <g id="ytick_8">
     <g id="line2d_12">
      <g>
       <use xlink:href="#m90d2303f1b" x="72" y="96.3" style="stroke: #000000; stroke-width: 0.8"/>
      </g>
     </g>
     <g id="text_13">
      <!-- 40 -->
      <g transform="translate(37.005 104.658281)scale(0.22 -0.22)">
       <use xlink:href="#DejaVuSans-34"/>
       <use xlink:href="#DejaVuSans-30" x="63.623047"/>
      </g>
     </g>
    </g>
    <g id="text_14">
     <!-- Membrane potential (mV) -->
     <g transform="translate(-4.058125 410.655469)rotate(-90)scale(0.22 -0.22)">
      <defs>
       <path id="ArialMT-4d" d="M 475 0 
L 475 4581 
L 1388 4581 
L 2472 1338 
Q 2622 884 2691 659 
Q 2769 909 2934 1394 
L 4031 4581 
L 4847 4581 
L 4847 0 
L 4263 0 
L 4263 3834 
L 2931 0 
L 2384 0 
L 1059 3900 
L 1059 0 
L 475 0 
z
" transform="scale(0.015625)"/>
       <path id="ArialMT-62" d="M 941 0 
L 419 0 
L 419 4581 
L 981 4581 
L 981 2947 
Q 1338 3394 1891 3394 
Q 2197 3394 2470 3270 
Q 2744 3147 2920 2923 
Q 3097 2700 3197 2384 
Q 3297 2069 3297 1709 
Q 3297 856 2875 390 
Q 2453 -75 1863 -75 
Q 1275 -75 941 416 
L 941 0 
z
M 934 1684 
Q 934 1088 1097 822 
Q 1363 388 1816 388 
Q 2184 388 2453 708 
Q 2722 1028 2722 1663 
Q 2722 2313 2464 2622 
Q 2206 2931 1841 2931 
Q 1472 2931 1203 2611 
Q 934 2291 934 1684 
z
" transform="scale(0.015625)"/>
       <path id="ArialMT-72" d="M 416 0 
L 416 3319 
L 922 3319 
L 922 2816 
Q 1116 3169 1280 3281 
Q 1444 3394 1641 3394 
Q 1925 3394 2219 3213 
L 2025 2691 
Q 1819 2813 1613 2813 
Q 1428 2813 1281 2702 
Q 1134 2591 1072 2394 
Q 978 2094 978 1738 
L 978 0 
L 416 0 
z
" transform="scale(0.015625)"/>
       <path id="ArialMT-61" d="M 2588 409 
Q 2275 144 1986 34 
Q 1697 -75 1366 -75 
Q 819 -75 525 192 
Q 231 459 231 875 
Q 231 1119 342 1320 
Q 453 1522 633 1644 
Q 813 1766 1038 1828 
Q 1203 1872 1538 1913 
Q 2219 1994 2541 2106 
Q 2544 2222 2544 2253 
Q 2544 2597 2384 2738 
Q 2169 2928 1744 2928 
Q 1347 2928 1158 2789 
Q 969 2650 878 2297 
L 328 2372 
Q 403 2725 575 2942 
Q 747 3159 1072 3276 
Q 1397 3394 1825 3394 
Q 2250 3394 2515 3294 
Q 2781 3194 2906 3042 
Q 3031 2891 3081 2659 
Q 3109 2516 3109 2141 
L 3109 1391 
Q 3109 606 3145 398 
Q 3181 191 3288 0 
L 2700 0 
Q 2613 175 2588 409 
z
M 2541 1666 
Q 2234 1541 1622 1453 
Q 1275 1403 1131 1340 
Q 988 1278 909 1158 
Q 831 1038 831 891 
Q 831 666 1001 516 
Q 1172 366 1500 366 
Q 1825 366 2078 508 
Q 2331 650 2450 897 
Q 2541 1088 2541 1459 
L 2541 1666 
z
" transform="scale(0.015625)"/>
       <path id="ArialMT-6e" d="M 422 0 
L 422 3319 
L 928 3319 
L 928 2847 
Q 1294 3394 1984 3394 
Q 2284 3394 2536 3286 
Q 2788 3178 2913 3003 
Q 3038 2828 3088 2588 
Q 3119 2431 3119 2041 
L 3119 0 
L 2556 0 
L 2556 2019 
Q 2556 2363 2490 2533 
Q 2425 2703 2258 2804 
Q 2091 2906 1866 2906 
Q 1506 2906 1245 2678 
Q 984 2450 984 1813 
L 984 0 
L 422 0 
z
" transform="scale(0.015625)"/>
       <path id="ArialMT-20" transform="scale(0.015625)"/>
       <path id="ArialMT-70" d="M 422 -1272 
L 422 3319 
L 934 3319 
L 934 2888 
Q 1116 3141 1344 3267 
Q 1572 3394 1897 3394 
Q 2322 3394 2647 3175 
Q 2972 2956 3137 2557 
Q 3303 2159 3303 1684 
Q 3303 1175 3120 767 
Q 2938 359 2589 142 
Q 2241 -75 1856 -75 
Q 1575 -75 1351 44 
Q 1128 163 984 344 
L 984 -1272 
L 422 -1272 
z
M 931 1641 
Q 931 1000 1190 694 
Q 1450 388 1819 388 
Q 2194 388 2461 705 
Q 2728 1022 2728 1688 
Q 2728 2322 2467 2637 
Q 2206 2953 1844 2953 
Q 1484 2953 1207 2617 
Q 931 2281 931 1641 
z
" transform="scale(0.015625)"/>
       <path id="ArialMT-6f" d="M 213 1659 
Q 213 2581 725 3025 
Q 1153 3394 1769 3394 
Q 2453 3394 2887 2945 
Q 3322 2497 3322 1706 
Q 3322 1066 3130 698 
Q 2938 331 2570 128 
Q 2203 -75 1769 -75 
Q 1072 -75 642 372 
Q 213 819 213 1659 
z
M 791 1659 
Q 791 1022 1069 705 
Q 1347 388 1769 388 
Q 2188 388 2466 706 
Q 2744 1025 2744 1678 
Q 2744 2294 2464 2611 
Q 2184 2928 1769 2928 
Q 1347 2928 1069 2612 
Q 791 2297 791 1659 
z
" transform="scale(0.015625)"/>
       <path id="ArialMT-74" d="M 1650 503 
L 1731 6 
Q 1494 -44 1306 -44 
Q 1000 -44 831 53 
Q 663 150 594 308 
Q 525 466 525 972 
L 525 2881 
L 113 2881 
L 113 3319 
L 525 3319 
L 525 4141 
L 1084 4478 
L 1084 3319 
L 1650 3319 
L 1650 2881 
L 1084 2881 
L 1084 941 
Q 1084 700 1114 631 
Q 1144 563 1211 522 
Q 1278 481 1403 481 
Q 1497 481 1650 503 
z
" transform="scale(0.015625)"/>
       <path id="ArialMT-6c" d="M 409 0 
L 409 4581 
L 972 4581 
L 972 0 
L 409 0 
z
" transform="scale(0.015625)"/>
       <path id="ArialMT-56" d="M 1803 0 
L 28 4581 
L 684 4581 
L 1875 1253 
Q 2019 853 2116 503 
Q 2222 878 2363 1253 
L 3600 4581 
L 4219 4581 
L 2425 0 
L 1803 0 
z
" transform="scale(0.015625)"/>
      </defs>
      <use xlink:href="#ArialMT-4d"/>
      <use xlink:href="#ArialMT-65" x="83.300781"/>
      <use xlink:href="#ArialMT-6d" x="138.916016"/>
      <use xlink:href="#ArialMT-62" x="222.216797"/>
      <use xlink:href="#ArialMT-72" x="277.832031"/>
      <use xlink:href="#ArialMT-61" x="311.132812"/>
      <use xlink:href="#ArialMT-6e" x="366.748047"/>
      <use xlink:href="#ArialMT-65" x="422.363281"/>
      <use xlink:href="#ArialMT-20" x="477.978516"/>
      <use xlink:href="#ArialMT-70" x="505.761719"/>
      <use xlink:href="#ArialMT-6f" x="561.376953"/>
      <use xlink:href="#ArialMT-74" x="616.992188"/>
      <use xlink:href="#ArialMT-65" x="644.775391"/>
      <use xlink:href="#ArialMT-6e" x="700.390625"/>
      <use xlink:href="#ArialMT-74" x="756.005859"/>
      <use xlink:href="#ArialMT-69" x="783.789062"/>
      <use xlink:href="#ArialMT-61" x="806.005859"/>
      <use xlink:href="#ArialMT-6c" x="861.621094"/>
      <use xlink:href="#ArialMT-20" x="883.837891"/>
      <use xlink:href="#ArialMT-28" x="911.621094"/>
      <use xlink:href="#ArialMT-6d" x="944.921875"/>
      <use xlink:href="#ArialMT-56" x="1028.222656"/>
      <use xlink:href="#ArialMT-29" x="1094.921875"/>
     </g>
    </g>
   </g>
   <g id="line2d_13">
    <path d="M 92.290909 430.614 
L 92.358545 430.757437 
L 92.899636 433.718059 
L 93.373091 435.031862 
L 93.914182 435.906866 
L 94.522909 436.469956 
L 95.266909 436.829204 
L 96.281455 437.039639 
L 98.107636 437.141703 
L 104.871273 437.162582 
L 159.927273 437.162653 
L 160.130182 417.68705 
L 160.468364 405.478503 
L 160.941818 396.183402 
L 161.618182 387.573218 
L 162.835636 375.456537 
L 163.985455 363.409174 
L 164.526545 355.382045 
L 164.864727 347.551908 
L 165.135273 336.359878 
L 165.270545 323.477168 
L 165.338182 304.712649 
L 165.405818 132.692447 
L 165.473455 171.211749 
L 165.676364 362.009151 
L 165.879273 403.564227 
L 165.946909 404.4441 
L 166.082182 401.018408 
L 166.690909 381.027615 
L 167.232 371.484474 
L 167.976 362.64323 
L 169.261091 348.252782 
L 169.599273 341.96804 
L 169.802182 335.083634 
L 169.937455 325.164223 
L 170.005091 313.360337 
L 170.140364 135.568104 
L 170.208 237.769415 
L 170.410909 367.084371 
L 170.613818 400.712202 
L 170.681455 401.719982 
L 170.816727 399.210079 
L 171.628364 375.937863 
L 172.169455 367.697989 
L 173.116364 357.282354 
L 174.469091 343.282491 
L 174.739636 337.273819 
L 174.942545 326.9211 
L 175.077818 296.849798 
L 175.145455 134.743478 
L 175.213091 187.53663 
L 175.416 352.598272 
L 175.618909 397.008348 
L 175.754182 400.317625 
L 175.889455 397.62788 
L 176.701091 375.916368 
L 177.309818 366.512022 
L 179.000727 344.250083 
L 179.271273 335.150144 
L 179.406545 324.067919 
L 179.474182 309.461418 
L 179.609455 149.432432 
L 179.812364 346.498834 
L 180.015273 397.418911 
L 180.150545 401.790211 
L 180.285818 399.168588 
L 181.097455 376.504449 
L 181.706182 367.1781 
L 183.532364 343.680922 
L 183.802909 335.03557 
L 183.938182 324.185152 
L 184.005818 310.005056 
L 184.141091 147.436892 
L 184.344 344.853333 
L 184.546909 396.229568 
L 184.682182 401.393603 
L 184.817455 399.394713 
L 185.899636 371.790532 
L 186.576 362.673961 
L 187.387636 354.361798 
L 187.522909 354.508546 
L 187.725818 354.763137 
L 187.861091 354.68288 
L 188.064 354.139408 
L 188.334545 352.494128 
L 188.672727 348.708474 
L 188.943273 343.633279 
L 189.146182 336.59619 
L 189.281455 326.254659 
L 189.349091 313.61884 
L 189.484364 133.795072 
L 189.687273 338.800817 
L 189.890182 394.126595 
L 190.025455 400.968353 
L 190.093091 400.837512 
L 190.296 395.868172 
L 190.972364 377.071651 
L 191.513455 368.127762 
L 193.272 343.649541 
L 193.474909 337.080992 
L 193.610182 328.262697 
L 193.677818 318.850088 
L 193.745455 290.147267 
L 193.813091 121.510057 
L 193.880727 200.739293 
L 194.083636 359.806815 
L 194.286545 399.457492 
L 194.354182 401.545666 
L 194.421818 401.503194 
L 194.624727 396.464726 
L 195.301091 377.707454 
L 195.842182 369.764508 
L 197.938909 343.445454 
L 198.141818 336.946927 
L 198.277091 328.110896 
L 198.344727 318.668753 
L 198.412364 289.774108 
L 198.48 121.913145 
L 198.547636 201.17548 
L 198.750545 359.062655 
L 198.953455 398.93497 
L 199.021091 400.984502 
L 199.088727 400.871861 
L 199.291636 395.644895 
L 199.900364 378.717966 
L 200.441455 369.746777 
L 201.320727 359.289797 
L 202.132364 351.833614 
L 202.673455 348.812708 
L 203.011636 345.421047 
L 203.282182 340.371147 
L 203.485091 332.657491 
L 203.620364 319.349166 
L 203.688 296.873036 
L 203.755636 129.420849 
L 203.823273 185.816196 
L 204.026182 352.041988 
L 204.229091 396.34478 
L 204.364364 400.293937 
L 204.499636 398.125003 
L 205.514182 372.793652 
L 206.122909 364.320593 
L 207.205091 350.948259 
L 207.543273 343.799105 
L 207.746182 335.725431 
L 207.881455 322.840286 
L 207.949091 302.823859 
L 208.016727 127.225877 
L 208.084364 170.440556 
L 208.287273 354.008077 
L 208.490182 398.964628 
L 208.625455 402.083463 
L 208.760727 399.364738 
L 209.64 375.768906 
L 210.248727 366.367467 
L 211.804364 345.508201 
L 212.074909 337.38804 
L 212.210182 328.447683 
L 212.277818 318.926686 
L 212.345455 289.557387 
L 212.413091 120.93789 
L 212.480727 201.591696 
L 212.683636 360.692947 
L 212.886545 399.730089 
L 212.954182 401.652202 
L 213.021818 401.506765 
L 213.224727 396.364163 
L 213.901091 377.711288 
L 214.442182 368.939012 
L 215.389091 358.220903 
L 215.930182 353.619377 
L 216.336 350.540016 
L 216.741818 345.874627 
L 217.012364 340.265194 
L 217.215273 331.30754 
L 217.350545 312.55515 
L 217.485818 137.640378 
L 217.688727 339.283733 
L 217.891636 394.168584 
L 218.026909 400.830282 
L 218.094545 400.616764 
L 218.297455 395.48365 
L 218.973818 377.199198 
L 219.582545 367.434018 
L 221.273455 344.348122 
L 221.476364 337.545724 
L 221.611636 328.438663 
L 221.679273 318.60662 
L 221.746909 286.713566 
L 221.814545 120.806585 
L 221.882182 205.257734 
L 222.085091 361.459927 
L 222.288 400.014162 
L 222.355636 401.900596 
L 222.423273 401.724619 
L 222.626182 396.454425 
L 223.302545 377.657289 
L 223.911273 367.620877 
L 224.722909 358.380029 
L 225.399273 350.03441 
L 225.805091 342.49528 
L 226.008 335.401905 
L 226.143273 324.85304 
L 226.210909 311.512468 
L 226.346182 142.288116 
L 226.549091 343.302113 
L 226.752 396.16614 
L 226.887273 401.660843 
L 227.022545 399.596255 
L 228.037091 373.216876 
L 228.645818 364.545956 
L 229.322182 357.78893 
L 229.863273 353.352708 
L 230.269091 347.785277 
L 230.539636 341.342895 
L 230.742545 331.15432 
L 230.877818 307.072583 
L 231.013091 157.170617 
L 231.216 349.046263 
L 231.418909 397.467042 
L 231.554182 401.684465 
L 231.689455 399.311073 
L 232.636364 374.522314 
L 233.312727 364.783751 
L 234.665455 346.777621 
L 234.936 339.408166 
L 235.138909 325.943314 
L 235.206545 312.990873 
L 235.341818 137.482752 
L 235.544727 343.030643 
L 235.747636 396.476862 
L 235.882909 401.997362 
L 235.950545 401.473158 
L 236.221091 393.721195 
L 236.829818 377.462763 
L 237.438545 367.288454 
L 239.129455 343.142831 
L 239.332364 335.7021 
L 239.467636 324.439247 
L 239.535273 309.451962 
L 239.670545 150.036674 
L 239.873455 347.417805 
L 240.076364 397.364983 
L 240.211636 401.864312 
L 240.346909 399.60544 
L 241.293818 374.663472 
L 241.970182 364.639569 
L 242.443636 359.952227 
L 243.255273 352.505813 
L 243.661091 347.094676 
L 243.931636 340.753039 
L 244.134545 330.341448 
L 244.269818 303.631903 
L 244.337455 136.603078 
L 244.405091 167.937545 
L 244.608 351.71234 
L 244.810909 397.910998 
L 244.946182 401.444273 
L 245.081455 398.912098 
L 245.960727 375.706857 
L 246.569455 366.492644 
L 248.260364 343.715757 
L 248.530909 334.346671 
L 248.666182 322.062827 
L 248.733818 303.633743 
L 248.801455 142.753965 
L 248.869091 169.046645 
L 249.072 352.01163 
L 249.274909 398.233888 
L 249.410182 401.640559 
L 249.545455 398.946812 
L 250.424727 375.448029 
L 251.101091 365.339761 
L 252.589091 345.367629 
L 252.859636 336.435937 
L 252.994909 325.614538 
L 253.062545 311.818087 
L 253.197818 141.585155 
L 253.400727 344.723318 
L 253.603636 396.703439 
L 253.738909 401.841501 
L 253.874182 399.817267 
L 254.888727 373.802789 
L 255.497455 365.475894 
L 256.985455 346.8017 
L 257.323636 339.03477 
L 257.526545 328.189906 
L 257.594182 319.70868 
L 257.661818 296.997587 
L 257.729455 127.629617 
L 257.797091 187.879772 
L 258 356.105625 
L 258.202909 398.597497 
L 258.338182 401.171981 
L 258.541091 396.168639 
L 259.217455 377.483244 
L 259.758545 368.62436 
L 260.570182 359.257089 
L 261.449455 348.524174 
L 261.787636 341.265071 
L 261.990545 332.091763 
L 262.125818 313.736905 
L 262.261091 134.504893 
L 262.464 340.962061 
L 262.666909 396.040433 
L 262.802182 401.757864 
L 262.869818 401.20362 
L 263.140364 393.379698 
L 263.749091 377.18945 
L 264.357818 367.258177 
L 265.845818 346.532527 
L 266.116364 337.167957 
L 266.251636 326.048463 
L 266.319273 311.747165 
L 266.454545 142.193589 
L 266.657455 346.766353 
L 266.860364 397.948896 
L 266.995636 402.150397 
L 267.130909 399.501903 
L 267.942545 376.849289 
L 268.551273 367.590456 
L 269.092364 361.929696 
L 269.430545 361.365125 
L 269.701091 360.719095 
L 270.039273 359.129724 
L 270.580364 355.174834 
L 271.053818 349.895501 
L 271.392 343.715905 
L 271.594909 336.458577 
L 271.730182 325.530016 
L 271.797818 311.473854 
L 271.933091 141.631412 
L 272.136 343.184625 
L 272.338909 395.670763 
L 272.474182 401.343832 
L 272.541818 400.933803 
L 272.812364 393.464701 
L 273.421091 377.416673 
L 274.029818 367.455664 
L 275.653091 344.483223 
L 275.856 337.393709 
L 275.991273 327.540168 
L 276.058909 316.183376 
L 276.126545 267.995584 
L 276.194182 126.913687 
L 276.464727 365.9953 
L 276.667636 400.707572 
L 276.735273 402.086418 
L 276.802909 401.644696 
L 277.073455 393.956824 
L 277.682182 377.723106 
L 278.290909 367.800707 
L 279.237818 356.84149 
L 279.914182 351.641294 
L 280.32 347.569816 
L 280.658182 341.590191 
L 280.861091 334.195922 
L 280.996364 322.323134 
L 281.064 305.154061 
L 281.131636 157.199895 
L 281.199273 163.005335 
L 281.402182 348.343169 
L 281.605091 396.62884 
L 281.740364 400.351357 
L 281.875636 397.697573 
L 282.687273 376.380249 
L 283.228364 368.883774 
L 284.310545 357.862594 
L 285.054545 349.686952 
L 285.392727 343.584979 
L 285.595636 336.800401 
L 285.730909 327.224204 
L 285.798545 316.40124 
L 285.866182 275.184587 
L 285.933818 125.86092 
L 286.001455 219.776595 
L 286.204364 363.665474 
L 286.407273 400.022117 
L 286.474909 401.622207 
L 286.542545 401.298748 
L 286.813091 393.793821 
L 287.421818 377.379721 
L 288.030545 367.326446 
L 289.653818 344.267034 
L 289.856727 337.390149 
L 289.992 328.005178 
L 290.059636 317.619425 
L 290.127273 280.783204 
L 290.194909 122.913241 
L 290.262545 213.668335 
L 290.465455 363.343218 
L 290.668364 400.35001 
L 290.736 402.034481 
L 290.803636 401.73263 
L 291.006545 396.169275 
L 291.615273 378.668726 
L 292.156364 369.612001 
L 293.103273 358.160635 
L 293.712 349.812923 
L 294.050182 342.376087 
L 294.253091 333.987311 
L 294.388364 319.907887 
L 294.456 294.48134 
L 294.523636 121.340792 
L 294.591273 192.590072 
L 294.794182 358.790284 
L 294.997091 399.723684 
L 295.064727 401.860327 
L 295.132364 401.773179 
L 295.335273 396.378529 
L 295.944 378.927862 
L 296.485091 369.767131 
L 297.296727 360.737611 
L 298.446545 349.379421 
L 298.784727 343.639173 
L 299.055273 335.066367 
L 299.190545 324.787558 
L 299.258182 312.091384 
L 299.393455 139.704606 
L 299.596364 341.137388 
L 299.799273 395.301904 
L 299.934545 401.204115 
L 300.002182 400.722317 
L 300.272727 392.914414 
L 300.813818 378.057214 
L 301.354909 368.973161 
L 303.316364 341.700948 
L 303.519273 333.597266 
L 303.654545 319.56069 
L 303.722182 294.296432 
L 303.789818 122.837237 
L 303.857455 192.96545 
L 304.060364 356.991689 
L 304.263273 398.197695 
L 304.398545 401.030371 
L 304.533818 398.504545 
L 305.480727 374.217546 
L 306.157091 364.345274 
L 307.306909 349.069413 
L 307.645091 340.545745 
L 307.848 328.378957 
L 307.915636 318.145865 
L 307.983273 282.735045 
L 308.050909 121.537817 
L 308.118545 210.746363 
L 308.321455 363.248483 
L 308.524364 400.401012 
L 308.592 402.052157 
L 308.659636 401.735804 
L 308.930182 394.098996 
L 309.538909 377.81923 
L 310.08 368.903376 
L 311.838545 345.058889 
L 312.109091 335.371204 
L 312.244364 322.66686 
L 312.312 303.168387 
L 312.379636 131.265762 
L 312.447273 170.094028 
L 312.650182 354.08772 
L 312.853091 399.297901 
L 312.988364 402.227696 
L 313.191273 396.992074 
L 313.8 379.192415 
L 314.341091 369.698127 
L 314.949818 362.986017 
L 316.167273 350.005561 
L 316.505455 344.132967 
L 316.708364 337.828738 
L 316.843636 329.603097 
L 316.978909 299.942001 
L 317.046545 126.317274 
L 317.114182 178.605378 
L 317.317091 354.510427 
L 317.52 398.639836 
L 317.655273 401.742752 
L 317.790545 399.024911 
L 318.669818 375.258785 
L 319.278545 365.887002 
L 320.766545 346.384833 
L 321.037091 338.710553 
L 321.24 324.224362 
L 321.307636 308.902638 
L 321.442909 151.901066 
L 321.645818 348.314855 
L 321.848727 397.794321 
L 321.984 401.903746 
L 322.119273 399.457156 
L 323.066182 374.561394 
L 323.742545 364.654805 
L 324.96 348.45259 
L 325.230545 341.99731 
L 325.433455 332.251557 
L 325.568727 311.201084 
L 325.704 144.052099 
L 325.906909 346.609579 
L 326.109818 397.446761 
L 326.245091 401.818189 
L 326.380364 399.475608 
L 327.327273 374.924756 
L 328.003636 365.140065 
L 329.018182 353.848215 
L 329.491636 347.621726 
L 329.829818 339.983353 
L 330.032727 329.097543 
L 330.100364 320.533895 
L 330.168 297.448782 
L 330.235636 123.666553 
L 330.303273 185.21427 
L 330.506182 356.098572 
L 330.709091 399.059354 
L 330.844364 401.748479 
L 331.047273 396.717638 
L 331.723636 377.793611 
L 332.332364 367.943275 
L 334.158545 342.909645 
L 334.361455 335.657287 
L 334.496727 324.944645 
L 334.564364 311.287721 
L 334.699636 143.260892 
L 334.902545 344.622957 
L 335.105455 396.8955 
L 335.240727 401.967207 
L 335.376 399.820956 
L 336.390545 373.334 
L 337.066909 363.815282 
L 337.608 358.627075 
L 338.352 352.020012 
L 338.757818 346.800568 
L 339.028364 341.27124 
L 339.231273 333.084998 
L 339.366545 318.742194 
L 339.434182 291.761588 
L 339.501818 123.019017 
L 339.569455 197.553003 
L 339.772364 357.640783 
L 339.975273 398.696805 
L 340.110545 401.209057 
L 340.313455 396.272728 
L 340.989818 377.58388 
L 341.598545 367.452648 
L 343.154182 344.995297 
L 343.424727 336.182699 
L 343.56 326.282558 
L 343.627636 314.720593 
L 343.762909 131.570905 
L 343.830545 232.473395 
L 344.033455 366.693339 
L 344.236364 400.490664 
L 344.304 401.761539 
L 344.371636 401.261401 
L 344.642182 393.553061 
L 345.250909 377.444423 
L 345.859636 367.521094 
L 347.347636 346.860857 
L 347.618182 338.327583 
L 347.753455 329.323518 
L 347.821091 319.845636 
L 347.888727 290.918047 
L 347.956364 118.478041 
L 348.024 198.058568 
L 348.226909 361.103046 
L 348.429818 400.414292 
L 348.497455 402.288099 
L 348.565091 402.009442 
L 348.835636 393.903246 
L 349.376727 378.839837 
L 349.917818 369.928848 
L 351.811636 343.863822 
L 352.014545 337.476965 
L 352.149818 329.065692 
L 352.217455 320.393491 
L 352.285091 296.731274 
L 352.352727 122.889144 
L 352.420364 187.523483 
L 352.623273 357.286207 
L 352.826182 399.45391 
L 352.961455 401.852536 
L 353.164364 396.607884 
L 353.840727 377.502709 
L 354.381818 368.648821 
L 355.464 355.824436 
L 356.072727 348.038491 
L 356.410909 340.500386 
L 356.613818 330.218543 
L 356.749091 304.263925 
L 356.816727 142.31142 
L 356.884364 166.669157 
L 357.087273 351.328087 
L 357.290182 397.753903 
L 357.425455 401.560307 
L 357.560727 399.198682 
L 358.575273 373.056636 
L 359.251636 363.406405 
L 359.928 356.295832 
L 360.469091 350.711205 
L 360.874909 344.29382 
L 361.145455 335.679054 
L 361.280727 325.29057 
L 361.348364 312.441935 
L 361.483636 138.70867 
L 361.686545 341.825862 
L 361.889455 395.71582 
L 362.024727 401.525168 
L 362.092364 401.063623 
L 362.362909 393.301321 
L 362.971636 377.029385 
L 363.580364 367.264135 
L 365.406545 341.701728 
L 365.609455 333.599093 
L 365.744727 319.427934 
L 365.812364 293.233274 
L 365.88 121.935207 
L 365.947636 194.833927 
L 366.150545 357.976469 
L 366.353455 399.02712 
L 366.488727 401.525538 
L 366.691636 396.671438 
L 367.368 378.177616 
L 367.976727 368.192294 
L 369.6 345.550478 
L 369.870545 335.054584 
L 370.005818 320.266037 
L 370.073455 291.62599 
L 370.141091 117.353728 
L 370.208727 195.784627 
L 370.411636 360.572409 
L 370.614545 400.246377 
L 370.682182 402.16785 
L 370.749818 401.963578 
L 370.952727 396.472051 
L 371.561455 378.931062 
L 372.102545 369.756975 
L 372.846545 361.136948 
L 373.793455 350.770023 
L 374.199273 344.072591 
L 374.402182 337.917201 
L 374.537455 329.738984 
L 374.672727 300.080017 
L 374.740364 125.965801 
L 374.808 178.183645 
L 375.010909 354.106806 
L 375.213818 398.201744 
L 375.349091 401.471172 
L 375.484364 398.936949 
L 376.431273 374.479063 
L 377.04 365.481063 
L 378.325091 348.099886 
L 378.663273 340.051902 
L 378.866182 328.705939 
L 378.933818 319.547542 
L 379.001455 292.720481 
L 379.069091 120.969684 
L 379.136727 196.001415 
L 379.339636 359.061561 
L 379.542545 399.354625 
L 379.677818 401.578202 
L 379.880727 396.663867 
L 380.557091 378.038522 
L 381.098182 369.080259 
L 381.842182 360.411858 
L 383.059636 349.231556 
L 383.397818 342.60054 
L 383.600727 334.621321 
L 383.736 321.314491 
L 383.803636 299.296462 
L 383.871273 123.948068 
L 383.938909 179.540355 
L 384.141818 354.315887 
L 384.344727 398.397135 
L 384.48 401.682377 
L 384.615273 399.073546 
L 385.494545 375.463551 
L 386.170909 365.139965 
L 387.591273 345.37559 
L 387.861818 336.519007 
L 387.997091 326.132064 
L 388.064727 313.497179 
L 388.2 135.755344 
L 388.402909 342.904375 
L 388.605818 397.071398 
L 388.741091 402.238673 
L 388.876364 399.896144 
L 389.755636 375.665313 
L 390.364364 366.734392 
L 392.190545 344.388126 
L 392.461091 335.449282 
L 392.596364 324.281017 
L 392.664 309.540738 
L 392.799273 149.362521 
L 393.002182 346.671014 
L 393.205091 396.872409 
L 393.340364 401.443562 
L 393.475636 399.280899 
L 394.490182 373.734536 
L 395.166545 364.073956 
L 396.789818 345.005704 
L 397.060364 338.891267 
L 397.263273 328.303596 
L 397.398545 297.859427 
L 397.466182 128.885333 
L 397.533818 184.823 
L 397.736727 354.152448 
L 397.939636 397.927687 
L 398.074909 401.16686 
L 398.210182 398.531417 
L 399.089455 374.927407 
L 399.698182 365.675793 
L 401.456727 342.886316 
L 401.659636 336.083351 
L 401.794909 326.432827 
L 401.862545 315.232077 
L 401.930182 269.297598 
L 401.997818 129.487118 
L 402.268364 364.153166 
L 402.471273 399.817816 
L 402.538909 401.464312 
L 402.606545 401.18708 
L 402.809455 395.832556 
L 403.418182 378.626164 
L 403.959273 369.303394 
L 404.973818 357.045067 
L 405.514909 349.510619 
L 405.853091 341.652812 
L 406.056 331.692078 
L 406.191273 310.065977 
L 406.326545 147.840911 
L 406.529455 347.336881 
L 406.732364 397.631058 
L 406.867636 402.050855 
L 407.002909 399.748723 
L 407.949818 374.591543 
L 408.558545 365.53338 
L 410.046545 345.929401 
L 410.317091 337.561084 
L 410.452364 328.506158 
L 410.52 318.817193 
L 410.587636 288.105853 
L 410.655273 120.64118 
L 410.722909 203.561252 
L 410.925818 361.176024 
L 411.128727 399.939324 
L 411.196364 401.843404 
L 411.264 401.676254 
L 411.466909 396.445639 
L 412.143273 377.753218 
L 412.752 367.71829 
L 414.510545 343.255127 
L 414.781091 336.665179 
L 414.984 325.010717 
L 415.051636 314.670269 
L 415.119273 278.374852 
L 415.186909 132.211701 
L 415.254545 223.520838 
L 415.457455 360.01335 
L 415.660364 397.373832 
L 415.795636 399.847177 
L 415.930909 397.337757 
L 416.877818 373.74655 
L 417.554182 364.100909 
L 418.771636 347.743123 
L 419.042182 341.187088 
L 419.245091 331.061877 
L 419.380364 307.075972 
L 419.515636 157.940464 
L 419.718545 349.558406 
L 419.921455 397.389321 
L 420.056727 401.602513 
L 420.192 399.331469 
L 421.138909 374.501976 
L 421.815273 364.608019 
L 423.032727 348.175508 
L 423.303273 341.490374 
L 423.506182 331.495903 
L 423.641455 309.22837 
L 423.776727 151.034061 
L 423.979636 348.689948 
L 424.182545 397.998854 
L 424.317818 402.027619 
L 424.453091 399.551238 
L 425.4 374.397046 
L 425.941091 366.785675 
L 427.293818 350.360067 
L 427.632 342.944352 
L 427.834909 334.543562 
L 427.970182 320.489346 
L 428.037818 295.297974 
L 428.105455 119.783558 
L 428.173091 189.925722 
L 428.376 358.590705 
L 428.578909 399.778727 
L 428.646545 401.950739 
L 428.714182 401.894402 
L 428.917091 396.593811 
L 429.593455 377.478279 
L 430.134545 368.382552 
L 430.472727 364.041467 
L 430.743273 388.181064 
L 431.081455 398.486418 
L 431.487273 404.038123 
L 432.501818 413.572484 
L 433.651636 422.64674 
L 434.530909 427.908559 
L 435.274909 431.132279 
L 435.951273 433.20411 
L 436.627636 434.632411 
L 437.304 435.589601 
L 438.048 436.269013 
L 438.927273 436.749589 
L 440.009455 437.063752 
L 441.565091 437.251942 
L 444.202909 437.310453 
L 497.906182 437.162416 
L 498.109091 437.162416 
L 498.109091 437.162416 
" clip-path="url(#p696e2bfecb)" style="fill: none; stroke: #000000; stroke-width: 1.5; stroke-linecap: square"/>
   </g>
   <g id="line2d_14">
    <path d="M 497.973818 408.87 
" clip-path="url(#p696e2bfecb)" style="fill: none; stroke: #000000; stroke-width: 1.5; stroke-linecap: square"/>
   </g>
   <g id="line2d_15">
    <path d="M 430.472727 368.1 
L 430.472727 365.382 
L 430.472727 362.664 
L 430.472727 359.946 
L 430.472727 357.228 
L 430.472727 354.51 
L 430.472727 351.792 
L 430.472727 349.074 
L 430.472727 346.356 
L 430.472727 343.638 
L 430.472727 340.92 
L 430.472727 338.202 
L 430.472727 335.484 
L 430.472727 332.766 
L 430.472727 330.048 
L 430.472727 327.33 
L 430.472727 324.612 
L 430.472727 321.894 
L 430.472727 319.176 
L 430.472727 316.458 
" clip-path="url(#p696e2bfecb)" style="fill: none; stroke: #000000; stroke-width: 1.5; stroke-linecap: square"/>
   </g>
   <g id="patch_3">
    <path d="M 72 504 
L 72 69.12 
" style="fill: none; stroke: #000000; stroke-width: 0.8; stroke-linejoin: miter; stroke-linecap: square"/>
   </g>
   <g id="patch_4">
    <path d="M 518.4 504 
L 518.4 69.12 
" style="fill: none; stroke: #000000; stroke-width: 0.8; stroke-linejoin: miter; stroke-linecap: square"/>
   </g>
   <g id="patch_5">
    <path d="M 72 504 
L 518.4 504 
" style="fill: none; stroke: #000000; stroke-width: 0.8; stroke-linejoin: miter; stroke-linecap: square"/>
   </g>
   <g id="patch_6">
    <path d="M 72 69.12 
L 518.4 69.12 
" style="fill: none; stroke: #000000; stroke-width: 0.8; stroke-linejoin: miter; stroke-linecap: square"/>
   </g>
   <g id="text_15">
    <!-- 500 ms -->
    <g transform="translate(497.973818 406.152)scale(0.22 -0.22)">
     <defs>
      <path id="ArialMT-35" d="M 266 1200 
L 856 1250 
Q 922 819 1161 601 
Q 1400 384 1738 384 
Q 2144 384 2425 690 
Q 2706 997 2706 1503 
Q 2706 1984 2436 2262 
Q 2166 2541 1728 2541 
Q 1456 2541 1237 2417 
Q 1019 2294 894 2097 
L 366 2166 
L 809 4519 
L 3088 4519 
L 3088 3981 
L 1259 3981 
L 1013 2750 
Q 1425 3038 1878 3038 
Q 2478 3038 2890 2622 
Q 3303 2206 3303 1553 
Q 3303 931 2941 478 
Q 2500 -78 1738 -78 
Q 1113 -78 717 272 
Q 322 622 266 1200 
z
" transform="scale(0.015625)"/>
      <path id="ArialMT-30" d="M 266 2259 
Q 266 3072 433 3567 
Q 600 4063 929 4331 
Q 1259 4600 1759 4600 
Q 2128 4600 2406 4451 
Q 2684 4303 2865 4023 
Q 3047 3744 3150 3342 
Q 3253 2941 3253 2259 
Q 3253 1453 3087 958 
Q 2922 463 2592 192 
Q 2263 -78 1759 -78 
Q 1097 -78 719 397 
Q 266 969 266 2259 
z
M 844 2259 
Q 844 1131 1108 757 
Q 1372 384 1759 384 
Q 2147 384 2411 759 
Q 2675 1134 2675 2259 
Q 2675 3391 2411 3762 
Q 2147 4134 1753 4134 
Q 1366 4134 1134 3806 
Q 844 3388 844 2259 
z
" transform="scale(0.015625)"/>
     </defs>
     <use xlink:href="#ArialMT-35"/>
     <use xlink:href="#ArialMT-30" x="55.615234"/>
     <use xlink:href="#ArialMT-30" x="111.230469"/>
     <use xlink:href="#ArialMT-20" x="166.845703"/>
     <use xlink:href="#ArialMT-6d" x="194.628906"/>
     <use xlink:href="#ArialMT-73" x="277.929688"/>
    </g>
   </g>
   <g id="text_16">
    <!-- 20 mV -->
    <g transform="translate(504.737455 321.894)scale(0.22 -0.22)">
     <defs>
      <path id="ArialMT-32" d="M 3222 541 
L 3222 0 
L 194 0 
Q 188 203 259 391 
Q 375 700 629 1000 
Q 884 1300 1366 1694 
Q 2113 2306 2375 2664 
Q 2638 3022 2638 3341 
Q 2638 3675 2398 3904 
Q 2159 4134 1775 4134 
Q 1369 4134 1125 3890 
Q 881 3647 878 3216 
L 300 3275 
Q 359 3922 746 4261 
Q 1134 4600 1788 4600 
Q 2447 4600 2831 4234 
Q 3216 3869 3216 3328 
Q 3216 3053 3103 2787 
Q 2991 2522 2730 2228 
Q 2469 1934 1863 1422 
Q 1356 997 1212 845 
Q 1069 694 975 541 
L 3222 541 
z
" transform="scale(0.015625)"/>
     </defs>
     <use xlink:href="#ArialMT-32"/>
     <use xlink:href="#ArialMT-30" x="55.615234"/>
     <use xlink:href="#ArialMT-20" x="111.230469"/>
     <use xlink:href="#ArialMT-6d" x="139.013672"/>
     <use xlink:href="#ArialMT-56" x="222.314453"/>
    </g>
   </g>
   <g id="text_17">
    <!--  Plotting iSPN, trace number 302  -->
    <g transform="translate(131.96 63.12)scale(0.22 -0.22)">
     <defs>
      <path id="ArialMT-50" d="M 494 0 
L 494 4581 
L 2222 4581 
Q 2678 4581 2919 4538 
Q 3256 4481 3484 4323 
Q 3713 4166 3852 3881 
Q 3991 3597 3991 3256 
Q 3991 2672 3619 2267 
Q 3247 1863 2275 1863 
L 1100 1863 
L 1100 0 
L 494 0 
z
M 1100 2403 
L 2284 2403 
Q 2872 2403 3119 2622 
Q 3366 2841 3366 3238 
Q 3366 3525 3220 3729 
Q 3075 3934 2838 4000 
Q 2684 4041 2272 4041 
L 1100 4041 
L 1100 2403 
z
" transform="scale(0.015625)"/>
      <path id="ArialMT-67" d="M 319 -275 
L 866 -356 
Q 900 -609 1056 -725 
Q 1266 -881 1628 -881 
Q 2019 -881 2231 -725 
Q 2444 -569 2519 -288 
Q 2563 -116 2559 434 
Q 2191 0 1641 0 
Q 956 0 581 494 
Q 206 988 206 1678 
Q 206 2153 378 2554 
Q 550 2956 876 3175 
Q 1203 3394 1644 3394 
Q 2231 3394 2613 2919 
L 2613 3319 
L 3131 3319 
L 3131 450 
Q 3131 -325 2973 -648 
Q 2816 -972 2473 -1159 
Q 2131 -1347 1631 -1347 
Q 1038 -1347 672 -1080 
Q 306 -813 319 -275 
z
M 784 1719 
Q 784 1066 1043 766 
Q 1303 466 1694 466 
Q 2081 466 2343 764 
Q 2606 1063 2606 1700 
Q 2606 2309 2336 2618 
Q 2066 2928 1684 2928 
Q 1309 2928 1046 2623 
Q 784 2319 784 1719 
z
" transform="scale(0.015625)"/>
      <path id="ArialMT-53" d="M 288 1472 
L 859 1522 
Q 900 1178 1048 958 
Q 1197 738 1509 602 
Q 1822 466 2213 466 
Q 2559 466 2825 569 
Q 3091 672 3220 851 
Q 3350 1031 3350 1244 
Q 3350 1459 3225 1620 
Q 3100 1781 2813 1891 
Q 2628 1963 1997 2114 
Q 1366 2266 1113 2400 
Q 784 2572 623 2826 
Q 463 3081 463 3397 
Q 463 3744 659 4045 
Q 856 4347 1234 4503 
Q 1613 4659 2075 4659 
Q 2584 4659 2973 4495 
Q 3363 4331 3572 4012 
Q 3781 3694 3797 3291 
L 3216 3247 
Q 3169 3681 2898 3903 
Q 2628 4125 2100 4125 
Q 1550 4125 1298 3923 
Q 1047 3722 1047 3438 
Q 1047 3191 1225 3031 
Q 1400 2872 2139 2705 
Q 2878 2538 3153 2413 
Q 3553 2228 3743 1945 
Q 3934 1663 3934 1294 
Q 3934 928 3725 604 
Q 3516 281 3123 101 
Q 2731 -78 2241 -78 
Q 1619 -78 1198 103 
Q 778 284 539 648 
Q 300 1013 288 1472 
z
" transform="scale(0.015625)"/>
      <path id="ArialMT-4e" d="M 488 0 
L 488 4581 
L 1109 4581 
L 3516 984 
L 3516 4581 
L 4097 4581 
L 4097 0 
L 3475 0 
L 1069 3600 
L 1069 0 
L 488 0 
z
" transform="scale(0.015625)"/>
      <path id="ArialMT-2c" d="M 569 0 
L 569 641 
L 1209 641 
L 1209 0 
Q 1209 -353 1084 -570 
Q 959 -788 688 -906 
L 531 -666 
Q 709 -588 793 -436 
Q 878 -284 888 0 
L 569 0 
z
" transform="scale(0.015625)"/>
      <path id="ArialMT-63" d="M 2588 1216 
L 3141 1144 
Q 3050 572 2676 248 
Q 2303 -75 1759 -75 
Q 1078 -75 664 370 
Q 250 816 250 1647 
Q 250 2184 428 2587 
Q 606 2991 970 3192 
Q 1334 3394 1763 3394 
Q 2303 3394 2647 3120 
Q 2991 2847 3088 2344 
L 2541 2259 
Q 2463 2594 2264 2762 
Q 2066 2931 1784 2931 
Q 1359 2931 1093 2626 
Q 828 2322 828 1663 
Q 828 994 1084 691 
Q 1341 388 1753 388 
Q 2084 388 2306 591 
Q 2528 794 2588 1216 
z
" transform="scale(0.015625)"/>
      <path id="ArialMT-75" d="M 2597 0 
L 2597 488 
Q 2209 -75 1544 -75 
Q 1250 -75 995 37 
Q 741 150 617 320 
Q 494 491 444 738 
Q 409 903 409 1263 
L 409 3319 
L 972 3319 
L 972 1478 
Q 972 1038 1006 884 
Q 1059 663 1231 536 
Q 1403 409 1656 409 
Q 1909 409 2131 539 
Q 2353 669 2445 892 
Q 2538 1116 2538 1541 
L 2538 3319 
L 3100 3319 
L 3100 0 
L 2597 0 
z
" transform="scale(0.015625)"/>
      <path id="ArialMT-33" d="M 269 1209 
L 831 1284 
Q 928 806 1161 595 
Q 1394 384 1728 384 
Q 2125 384 2398 659 
Q 2672 934 2672 1341 
Q 2672 1728 2419 1979 
Q 2166 2231 1775 2231 
Q 1616 2231 1378 2169 
L 1441 2663 
Q 1497 2656 1531 2656 
Q 1891 2656 2178 2843 
Q 2466 3031 2466 3422 
Q 2466 3731 2256 3934 
Q 2047 4138 1716 4138 
Q 1388 4138 1169 3931 
Q 950 3725 888 3313 
L 325 3413 
Q 428 3978 793 4289 
Q 1159 4600 1703 4600 
Q 2078 4600 2393 4439 
Q 2709 4278 2876 4000 
Q 3044 3722 3044 3409 
Q 3044 3113 2884 2869 
Q 2725 2625 2413 2481 
Q 2819 2388 3044 2092 
Q 3269 1797 3269 1353 
Q 3269 753 2831 336 
Q 2394 -81 1725 -81 
Q 1122 -81 723 278 
Q 325 638 269 1209 
z
" transform="scale(0.015625)"/>
     </defs>
     <use xlink:href="#ArialMT-20"/>
     <use xlink:href="#ArialMT-50" x="27.783203"/>
     <use xlink:href="#ArialMT-6c" x="94.482422"/>
     <use xlink:href="#ArialMT-6f" x="116.699219"/>
     <use xlink:href="#ArialMT-74" x="172.314453"/>
     <use xlink:href="#ArialMT-74" x="200.097656"/>
     <use xlink:href="#ArialMT-69" x="227.880859"/>
     <use xlink:href="#ArialMT-6e" x="250.097656"/>
     <use xlink:href="#ArialMT-67" x="305.712891"/>
     <use xlink:href="#ArialMT-20" x="361.328125"/>
     <use xlink:href="#ArialMT-69" x="389.111328"/>
     <use xlink:href="#ArialMT-53" x="411.328125"/>
     <use xlink:href="#ArialMT-50" x="478.027344"/>
     <use xlink:href="#ArialMT-4e" x="544.726562"/>
     <use xlink:href="#ArialMT-2c" x="616.943359"/>
     <use xlink:href="#ArialMT-20" x="644.726562"/>
     <use xlink:href="#ArialMT-74" x="672.509766"/>
     <use xlink:href="#ArialMT-72" x="700.292969"/>
     <use xlink:href="#ArialMT-61" x="733.59375"/>
     <use xlink:href="#ArialMT-63" x="789.208984"/>
     <use xlink:href="#ArialMT-65" x="839.208984"/>
     <use xlink:href="#ArialMT-20" x="894.824219"/>
     <use xlink:href="#ArialMT-6e" x="922.607422"/>
     <use xlink:href="#ArialMT-75" x="978.222656"/>
     <use xlink:href="#ArialMT-6d" x="1033.837891"/>
     <use xlink:href="#ArialMT-62" x="1117.138672"/>
     <use xlink:href="#ArialMT-65" x="1172.753906"/>
     <use xlink:href="#ArialMT-72" x="1228.369141"/>
     <use xlink:href="#ArialMT-20" x="1261.669922"/>
     <use xlink:href="#ArialMT-33" x="1289.453125"/>
     <use xlink:href="#ArialMT-30" x="1345.068359"/>
     <use xlink:href="#ArialMT-32" x="1400.683594"/>
     <use xlink:href="#ArialMT-20" x="1456.298828"/>
    </g>
   </g>
  </g>
 </g>
 <defs>
  <clipPath id="p696e2bfecb">
   <rect x="72" y="69.12" width="446.4" height="434.88"/>
  </clipPath>
 </defs>
</svg>
