<?xml version="1.0" encoding="utf-8" standalone="no"?>
<!DOCTYPE svg PUBLIC "-//W3C//DTD SVG 1.1//EN"
  "http://www.w3.org/Graphics/SVG/1.1/DTD/svg11.dtd">
<svg xmlns:xlink="http://www.w3.org/1999/xlink" width="576pt" height="576pt" viewBox="0 0 576 576" xmlns="http://www.w3.org/2000/svg" version="1.1">
 <metadata>
  <rdf:RDF xmlns:dc="http://purl.org/dc/elements/1.1/" xmlns:cc="http://creativecommons.org/ns#" xmlns:rdf="http://www.w3.org/1999/02/22-rdf-syntax-ns#">
   <cc:Work>
    <dc:type rdf:resource="http://purl.org/dc/dcmitype/StillImage"/>
    <dc:date>2022-10-30T19:57:02.243877</dc:date>
    <dc:format>image/svg+xml</dc:format>
    <dc:creator>
     <cc:Agent>
      <dc:title>Matplotlib v3.5.2, https://matplotlib.org/</dc:title>
     </cc:Agent>
    </dc:creator>
   </cc:Work>
  </rdf:RDF>
 </metadata>
 <defs>
  <style type="text/css">*{stroke-linejoin: round; stroke-linecap: butt}</style>
 </defs>
 <g id="figure_1">
  <g id="patch_1">
   <path d="M 0 576 
L 576 576 
L 576 0 
L 0 0 
L 0 576 
z
" style="fill: none"/>
  </g>
  <g id="axes_1">
   <g id="patch_2">
    <path d="M 72 504 
L 518.4 504 
L 518.4 69.12 
L 72 69.12 
z
" style="fill: #ffffff"/>
   </g>
   <g id="matplotlib.axis_1">
    <g id="xtick_1">
     <g id="line2d_1">
      <defs>
       <path id="m54186846f7" d="M 0 0 
L 0 3.5 
" style="stroke: #000000; stroke-width: 0.8"/>
      </defs>
      <g>
       <use xlink:href="#m54186846f7" x="92.290909" y="504" style="stroke: #000000; stroke-width: 0.8"/>
      </g>
     </g>
     <g id="text_1">
      <!-- 0 -->
      <g transform="translate(85.292159 527.716563)scale(0.22 -0.22)">
       <defs>
        <path id="DejaVuSans-30" d="M 2034 4250 
Q 1547 4250 1301 3770 
Q 1056 3291 1056 2328 
Q 1056 1369 1301 889 
Q 1547 409 2034 409 
Q 2525 409 2770 889 
Q 3016 1369 3016 2328 
Q 3016 3291 2770 3770 
Q 2525 4250 2034 4250 
z
M 2034 4750 
Q 2819 4750 3233 4129 
Q 3647 3509 3647 2328 
Q 3647 1150 3233 529 
Q 2819 -91 2034 -91 
Q 1250 -91 836 529 
Q 422 1150 422 2328 
Q 422 3509 836 4129 
Q 1250 4750 2034 4750 
z
" transform="scale(0.015625)"/>
       </defs>
       <use xlink:href="#DejaVuSans-30"/>
      </g>
     </g>
    </g>
    <g id="xtick_2">
     <g id="line2d_2">
      <g>
       <use xlink:href="#m54186846f7" x="227.563636" y="504" style="stroke: #000000; stroke-width: 0.8"/>
      </g>
     </g>
     <g id="text_2">
      <!-- 1000 -->
      <g transform="translate(199.568636 527.716563)scale(0.22 -0.22)">
       <defs>
        <path id="DejaVuSans-31" d="M 794 531 
L 1825 531 
L 1825 4091 
L 703 3866 
L 703 4441 
L 1819 4666 
L 2450 4666 
L 2450 531 
L 3481 531 
L 3481 0 
L 794 0 
L 794 531 
z
" transform="scale(0.015625)"/>
       </defs>
       <use xlink:href="#DejaVuSans-31"/>
       <use xlink:href="#DejaVuSans-30" x="63.623047"/>
       <use xlink:href="#DejaVuSans-30" x="127.246094"/>
       <use xlink:href="#DejaVuSans-30" x="190.869141"/>
      </g>
     </g>
    </g>
    <g id="xtick_3">
     <g id="line2d_3">
      <g>
       <use xlink:href="#m54186846f7" x="362.836364" y="504" style="stroke: #000000; stroke-width: 0.8"/>
      </g>
     </g>
     <g id="text_3">
      <!-- 2000 -->
      <g transform="translate(334.841364 527.716563)scale(0.22 -0.22)">
       <defs>
        <path id="DejaVuSans-32" d="M 1228 531 
L 3431 531 
L 3431 0 
L 469 0 
L 469 531 
Q 828 903 1448 1529 
Q 2069 2156 2228 2338 
Q 2531 2678 2651 2914 
Q 2772 3150 2772 3378 
Q 2772 3750 2511 3984 
Q 2250 4219 1831 4219 
Q 1534 4219 1204 4116 
Q 875 4013 500 3803 
L 500 4441 
Q 881 4594 1212 4672 
Q 1544 4750 1819 4750 
Q 2544 4750 2975 4387 
Q 3406 4025 3406 3419 
Q 3406 3131 3298 2873 
Q 3191 2616 2906 2266 
Q 2828 2175 2409 1742 
Q 1991 1309 1228 531 
z
" transform="scale(0.015625)"/>
       </defs>
       <use xlink:href="#DejaVuSans-32"/>
       <use xlink:href="#DejaVuSans-30" x="63.623047"/>
       <use xlink:href="#DejaVuSans-30" x="127.246094"/>
       <use xlink:href="#DejaVuSans-30" x="190.869141"/>
      </g>
     </g>
    </g>
    <g id="xtick_4">
     <g id="line2d_4">
      <g>
       <use xlink:href="#m54186846f7" x="498.109091" y="504" style="stroke: #000000; stroke-width: 0.8"/>
      </g>
     </g>
     <g id="text_4">
      <!-- 3000 -->
      <g transform="translate(470.114091 527.716563)scale(0.22 -0.22)">
       <defs>
        <path id="DejaVuSans-33" d="M 2597 2516 
Q 3050 2419 3304 2112 
Q 3559 1806 3559 1356 
Q 3559 666 3084 287 
Q 2609 -91 1734 -91 
Q 1441 -91 1130 -33 
Q 819 25 488 141 
L 488 750 
Q 750 597 1062 519 
Q 1375 441 1716 441 
Q 2309 441 2620 675 
Q 2931 909 2931 1356 
Q 2931 1769 2642 2001 
Q 2353 2234 1838 2234 
L 1294 2234 
L 1294 2753 
L 1863 2753 
Q 2328 2753 2575 2939 
Q 2822 3125 2822 3475 
Q 2822 3834 2567 4026 
Q 2313 4219 1838 4219 
Q 1578 4219 1281 4162 
Q 984 4106 628 3988 
L 628 4550 
Q 988 4650 1302 4700 
Q 1616 4750 1894 4750 
Q 2613 4750 3031 4423 
Q 3450 4097 3450 3541 
Q 3450 3153 3228 2886 
Q 3006 2619 2597 2516 
z
" transform="scale(0.015625)"/>
       </defs>
       <use xlink:href="#DejaVuSans-33"/>
       <use xlink:href="#DejaVuSans-30" x="63.623047"/>
       <use xlink:href="#DejaVuSans-30" x="127.246094"/>
       <use xlink:href="#DejaVuSans-30" x="190.869141"/>
      </g>
     </g>
    </g>
    <g id="text_5">
     <!-- Time(ms) -->
     <g transform="translate(249.182187 552.307188)scale(0.22 -0.22)">
      <defs>
       <path id="ArialMT-54" d="M 1659 0 
L 1659 4041 
L 150 4041 
L 150 4581 
L 3781 4581 
L 3781 4041 
L 2266 4041 
L 2266 0 
L 1659 0 
z
" transform="scale(0.015625)"/>
       <path id="ArialMT-69" d="M 425 3934 
L 425 4581 
L 988 4581 
L 988 3934 
L 425 3934 
z
M 425 0 
L 425 3319 
L 988 3319 
L 988 0 
L 425 0 
z
" transform="scale(0.015625)"/>
       <path id="ArialMT-6d" d="M 422 0 
L 422 3319 
L 925 3319 
L 925 2853 
Q 1081 3097 1340 3245 
Q 1600 3394 1931 3394 
Q 2300 3394 2536 3241 
Q 2772 3088 2869 2813 
Q 3263 3394 3894 3394 
Q 4388 3394 4653 3120 
Q 4919 2847 4919 2278 
L 4919 0 
L 4359 0 
L 4359 2091 
Q 4359 2428 4304 2576 
Q 4250 2725 4106 2815 
Q 3963 2906 3769 2906 
Q 3419 2906 3187 2673 
Q 2956 2441 2956 1928 
L 2956 0 
L 2394 0 
L 2394 2156 
Q 2394 2531 2256 2718 
Q 2119 2906 1806 2906 
Q 1569 2906 1367 2781 
Q 1166 2656 1075 2415 
Q 984 2175 984 1722 
L 984 0 
L 422 0 
z
" transform="scale(0.015625)"/>
       <path id="ArialMT-65" d="M 2694 1069 
L 3275 997 
Q 3138 488 2766 206 
Q 2394 -75 1816 -75 
Q 1088 -75 661 373 
Q 234 822 234 1631 
Q 234 2469 665 2931 
Q 1097 3394 1784 3394 
Q 2450 3394 2872 2941 
Q 3294 2488 3294 1666 
Q 3294 1616 3291 1516 
L 816 1516 
Q 847 969 1125 678 
Q 1403 388 1819 388 
Q 2128 388 2347 550 
Q 2566 713 2694 1069 
z
M 847 1978 
L 2700 1978 
Q 2663 2397 2488 2606 
Q 2219 2931 1791 2931 
Q 1403 2931 1139 2672 
Q 875 2413 847 1978 
z
" transform="scale(0.015625)"/>
       <path id="ArialMT-28" d="M 1497 -1347 
Q 1031 -759 709 28 
Q 388 816 388 1659 
Q 388 2403 628 3084 
Q 909 3875 1497 4659 
L 1900 4659 
Q 1522 4009 1400 3731 
Q 1209 3300 1100 2831 
Q 966 2247 966 1656 
Q 966 153 1900 -1347 
L 1497 -1347 
z
" transform="scale(0.015625)"/>
       <path id="ArialMT-73" d="M 197 991 
L 753 1078 
Q 800 744 1014 566 
Q 1228 388 1613 388 
Q 2000 388 2187 545 
Q 2375 703 2375 916 
Q 2375 1106 2209 1216 
Q 2094 1291 1634 1406 
Q 1016 1563 777 1677 
Q 538 1791 414 1992 
Q 291 2194 291 2438 
Q 291 2659 392 2848 
Q 494 3038 669 3163 
Q 800 3259 1026 3326 
Q 1253 3394 1513 3394 
Q 1903 3394 2198 3281 
Q 2494 3169 2634 2976 
Q 2775 2784 2828 2463 
L 2278 2388 
Q 2241 2644 2061 2787 
Q 1881 2931 1553 2931 
Q 1166 2931 1000 2803 
Q 834 2675 834 2503 
Q 834 2394 903 2306 
Q 972 2216 1119 2156 
Q 1203 2125 1616 2013 
Q 2213 1853 2448 1751 
Q 2684 1650 2818 1456 
Q 2953 1263 2953 975 
Q 2953 694 2789 445 
Q 2625 197 2315 61 
Q 2006 -75 1616 -75 
Q 969 -75 630 194 
Q 291 463 197 991 
z
" transform="scale(0.015625)"/>
       <path id="ArialMT-29" d="M 791 -1347 
L 388 -1347 
Q 1322 153 1322 1656 
Q 1322 2244 1188 2822 
Q 1081 3291 891 3722 
Q 769 4003 388 4659 
L 791 4659 
Q 1378 3875 1659 3084 
Q 1900 2403 1900 1659 
Q 1900 816 1576 28 
Q 1253 -759 791 -1347 
z
" transform="scale(0.015625)"/>
      </defs>
      <use xlink:href="#ArialMT-54"/>
      <use xlink:href="#ArialMT-69" x="57.333984"/>
      <use xlink:href="#ArialMT-6d" x="79.550781"/>
      <use xlink:href="#ArialMT-65" x="162.851562"/>
      <use xlink:href="#ArialMT-28" x="218.466797"/>
      <use xlink:href="#ArialMT-6d" x="251.767578"/>
      <use xlink:href="#ArialMT-73" x="335.068359"/>
      <use xlink:href="#ArialMT-29" x="385.068359"/>
     </g>
    </g>
   </g>
   <g id="matplotlib.axis_2">
    <g id="ytick_1">
     <g id="line2d_5">
      <defs>
       <path id="m9d9e3cc1a9" d="M 0 0 
L -3.5 0 
" style="stroke: #000000; stroke-width: 0.8"/>
      </defs>
      <g>
       <use xlink:href="#m9d9e3cc1a9" x="72" y="476.82" style="stroke: #000000; stroke-width: 0.8"/>
      </g>
     </g>
     <g id="text_6">
      <!-- −100 -->
      <g transform="translate(4.572187 485.178281)scale(0.22 -0.22)">
       <defs>
        <path id="DejaVuSans-2212" d="M 678 2272 
L 4684 2272 
L 4684 1741 
L 678 1741 
L 678 2272 
z
" transform="scale(0.015625)"/>
       </defs>
       <use xlink:href="#DejaVuSans-2212"/>
       <use xlink:href="#DejaVuSans-31" x="83.789062"/>
       <use xlink:href="#DejaVuSans-30" x="147.412109"/>
       <use xlink:href="#DejaVuSans-30" x="211.035156"/>
      </g>
     </g>
    </g>
    <g id="ytick_2">
     <g id="line2d_6">
      <g>
       <use xlink:href="#m9d9e3cc1a9" x="72" y="422.46" style="stroke: #000000; stroke-width: 0.8"/>
      </g>
     </g>
     <g id="text_7">
      <!-- −80 -->
      <g transform="translate(18.569688 430.818281)scale(0.22 -0.22)">
       <defs>
        <path id="DejaVuSans-38" d="M 2034 2216 
Q 1584 2216 1326 1975 
Q 1069 1734 1069 1313 
Q 1069 891 1326 650 
Q 1584 409 2034 409 
Q 2484 409 2743 651 
Q 3003 894 3003 1313 
Q 3003 1734 2745 1975 
Q 2488 2216 2034 2216 
z
M 1403 2484 
Q 997 2584 770 2862 
Q 544 3141 544 3541 
Q 544 4100 942 4425 
Q 1341 4750 2034 4750 
Q 2731 4750 3128 4425 
Q 3525 4100 3525 3541 
Q 3525 3141 3298 2862 
Q 3072 2584 2669 2484 
Q 3125 2378 3379 2068 
Q 3634 1759 3634 1313 
Q 3634 634 3220 271 
Q 2806 -91 2034 -91 
Q 1263 -91 848 271 
Q 434 634 434 1313 
Q 434 1759 690 2068 
Q 947 2378 1403 2484 
z
M 1172 3481 
Q 1172 3119 1398 2916 
Q 1625 2713 2034 2713 
Q 2441 2713 2670 2916 
Q 2900 3119 2900 3481 
Q 2900 3844 2670 4047 
Q 2441 4250 2034 4250 
Q 1625 4250 1398 4047 
Q 1172 3844 1172 3481 
z
" transform="scale(0.015625)"/>
       </defs>
       <use xlink:href="#DejaVuSans-2212"/>
       <use xlink:href="#DejaVuSans-38" x="83.789062"/>
       <use xlink:href="#DejaVuSans-30" x="147.412109"/>
      </g>
     </g>
    </g>
    <g id="ytick_3">
     <g id="line2d_7">
      <g>
       <use xlink:href="#m9d9e3cc1a9" x="72" y="368.1" style="stroke: #000000; stroke-width: 0.8"/>
      </g>
     </g>
     <g id="text_8">
      <!-- −60 -->
      <g transform="translate(18.569688 376.458281)scale(0.22 -0.22)">
       <defs>
        <path id="DejaVuSans-36" d="M 2113 2584 
Q 1688 2584 1439 2293 
Q 1191 2003 1191 1497 
Q 1191 994 1439 701 
Q 1688 409 2113 409 
Q 2538 409 2786 701 
Q 3034 994 3034 1497 
Q 3034 2003 2786 2293 
Q 2538 2584 2113 2584 
z
M 3366 4563 
L 3366 3988 
Q 3128 4100 2886 4159 
Q 2644 4219 2406 4219 
Q 1781 4219 1451 3797 
Q 1122 3375 1075 2522 
Q 1259 2794 1537 2939 
Q 1816 3084 2150 3084 
Q 2853 3084 3261 2657 
Q 3669 2231 3669 1497 
Q 3669 778 3244 343 
Q 2819 -91 2113 -91 
Q 1303 -91 875 529 
Q 447 1150 447 2328 
Q 447 3434 972 4092 
Q 1497 4750 2381 4750 
Q 2619 4750 2861 4703 
Q 3103 4656 3366 4563 
z
" transform="scale(0.015625)"/>
       </defs>
       <use xlink:href="#DejaVuSans-2212"/>
       <use xlink:href="#DejaVuSans-36" x="83.789062"/>
       <use xlink:href="#DejaVuSans-30" x="147.412109"/>
      </g>
     </g>
    </g>
    <g id="ytick_4">
     <g id="line2d_8">
      <g>
       <use xlink:href="#m9d9e3cc1a9" x="72" y="313.74" style="stroke: #000000; stroke-width: 0.8"/>
      </g>
     </g>
     <g id="text_9">
      <!-- −40 -->
      <g transform="translate(18.569688 322.098281)scale(0.22 -0.22)">
       <defs>
        <path id="DejaVuSans-34" d="M 2419 4116 
L 825 1625 
L 2419 1625 
L 2419 4116 
z
M 2253 4666 
L 3047 4666 
L 3047 1625 
L 3713 1625 
L 3713 1100 
L 3047 1100 
L 3047 0 
L 2419 0 
L 2419 1100 
L 313 1100 
L 313 1709 
L 2253 4666 
z
" transform="scale(0.015625)"/>
       </defs>
       <use xlink:href="#DejaVuSans-2212"/>
       <use xlink:href="#DejaVuSans-34" x="83.789062"/>
       <use xlink:href="#DejaVuSans-30" x="147.412109"/>
      </g>
     </g>
    </g>
    <g id="ytick_5">
     <g id="line2d_9">
      <g>
       <use xlink:href="#m9d9e3cc1a9" x="72" y="259.38" style="stroke: #000000; stroke-width: 0.8"/>
      </g>
     </g>
     <g id="text_10">
      <!-- −20 -->
      <g transform="translate(18.569688 267.738281)scale(0.22 -0.22)">
       <use xlink:href="#DejaVuSans-2212"/>
       <use xlink:href="#DejaVuSans-32" x="83.789062"/>
       <use xlink:href="#DejaVuSans-30" x="147.412109"/>
      </g>
     </g>
    </g>
    <g id="ytick_6">
     <g id="line2d_10">
      <g>
       <use xlink:href="#m9d9e3cc1a9" x="72" y="205.02" style="stroke: #000000; stroke-width: 0.8"/>
      </g>
     </g>
     <g id="text_11">
      <!-- 0 -->
      <g transform="translate(51.0025 213.378281)scale(0.22 -0.22)">
       <use xlink:href="#DejaVuSans-30"/>
      </g>
     </g>
    </g>
    <g id="ytick_7">
     <g id="line2d_11">
      <g>
       <use xlink:href="#m9d9e3cc1a9" x="72" y="150.66" style="stroke: #000000; stroke-width: 0.8"/>
      </g>
     </g>
     <g id="text_12">
      <!-- 20 -->
      <g transform="translate(37.005 159.018281)scale(0.22 -0.22)">
       <use xlink:href="#DejaVuSans-32"/>
       <use xlink:href="#DejaVuSans-30" x="63.623047"/>
      </g>
     </g>
    </g>
    <g id="ytick_8">
     <g id="line2d_12">
      <g>
       <use xlink:href="#m9d9e3cc1a9" x="72" y="96.3" style="stroke: #000000; stroke-width: 0.8"/>
      </g>
     </g>
     <g id="text_13">
      <!-- 40 -->
      <g transform="translate(37.005 104.658281)scale(0.22 -0.22)">
       <use xlink:href="#DejaVuSans-34"/>
       <use xlink:href="#DejaVuSans-30" x="63.623047"/>
      </g>
     </g>
    </g>
    <g id="text_14">
     <!-- Membrane potential (mV) -->
     <g transform="translate(-4.058125 410.655469)rotate(-90)scale(0.22 -0.22)">
      <defs>
       <path id="ArialMT-4d" d="M 475 0 
L 475 4581 
L 1388 4581 
L 2472 1338 
Q 2622 884 2691 659 
Q 2769 909 2934 1394 
L 4031 4581 
L 4847 4581 
L 4847 0 
L 4263 0 
L 4263 3834 
L 2931 0 
L 2384 0 
L 1059 3900 
L 1059 0 
L 475 0 
z
" transform="scale(0.015625)"/>
       <path id="ArialMT-62" d="M 941 0 
L 419 0 
L 419 4581 
L 981 4581 
L 981 2947 
Q 1338 3394 1891 3394 
Q 2197 3394 2470 3270 
Q 2744 3147 2920 2923 
Q 3097 2700 3197 2384 
Q 3297 2069 3297 1709 
Q 3297 856 2875 390 
Q 2453 -75 1863 -75 
Q 1275 -75 941 416 
L 941 0 
z
M 934 1684 
Q 934 1088 1097 822 
Q 1363 388 1816 388 
Q 2184 388 2453 708 
Q 2722 1028 2722 1663 
Q 2722 2313 2464 2622 
Q 2206 2931 1841 2931 
Q 1472 2931 1203 2611 
Q 934 2291 934 1684 
z
" transform="scale(0.015625)"/>
       <path id="ArialMT-72" d="M 416 0 
L 416 3319 
L 922 3319 
L 922 2816 
Q 1116 3169 1280 3281 
Q 1444 3394 1641 3394 
Q 1925 3394 2219 3213 
L 2025 2691 
Q 1819 2813 1613 2813 
Q 1428 2813 1281 2702 
Q 1134 2591 1072 2394 
Q 978 2094 978 1738 
L 978 0 
L 416 0 
z
" transform="scale(0.015625)"/>
       <path id="ArialMT-61" d="M 2588 409 
Q 2275 144 1986 34 
Q 1697 -75 1366 -75 
Q 819 -75 525 192 
Q 231 459 231 875 
Q 231 1119 342 1320 
Q 453 1522 633 1644 
Q 813 1766 1038 1828 
Q 1203 1872 1538 1913 
Q 2219 1994 2541 2106 
Q 2544 2222 2544 2253 
Q 2544 2597 2384 2738 
Q 2169 2928 1744 2928 
Q 1347 2928 1158 2789 
Q 969 2650 878 2297 
L 328 2372 
Q 403 2725 575 2942 
Q 747 3159 1072 3276 
Q 1397 3394 1825 3394 
Q 2250 3394 2515 3294 
Q 2781 3194 2906 3042 
Q 3031 2891 3081 2659 
Q 3109 2516 3109 2141 
L 3109 1391 
Q 3109 606 3145 398 
Q 3181 191 3288 0 
L 2700 0 
Q 2613 175 2588 409 
z
M 2541 1666 
Q 2234 1541 1622 1453 
Q 1275 1403 1131 1340 
Q 988 1278 909 1158 
Q 831 1038 831 891 
Q 831 666 1001 516 
Q 1172 366 1500 366 
Q 1825 366 2078 508 
Q 2331 650 2450 897 
Q 2541 1088 2541 1459 
L 2541 1666 
z
" transform="scale(0.015625)"/>
       <path id="ArialMT-6e" d="M 422 0 
L 422 3319 
L 928 3319 
L 928 2847 
Q 1294 3394 1984 3394 
Q 2284 3394 2536 3286 
Q 2788 3178 2913 3003 
Q 3038 2828 3088 2588 
Q 3119 2431 3119 2041 
L 3119 0 
L 2556 0 
L 2556 2019 
Q 2556 2363 2490 2533 
Q 2425 2703 2258 2804 
Q 2091 2906 1866 2906 
Q 1506 2906 1245 2678 
Q 984 2450 984 1813 
L 984 0 
L 422 0 
z
" transform="scale(0.015625)"/>
       <path id="ArialMT-20" transform="scale(0.015625)"/>
       <path id="ArialMT-70" d="M 422 -1272 
L 422 3319 
L 934 3319 
L 934 2888 
Q 1116 3141 1344 3267 
Q 1572 3394 1897 3394 
Q 2322 3394 2647 3175 
Q 2972 2956 3137 2557 
Q 3303 2159 3303 1684 
Q 3303 1175 3120 767 
Q 2938 359 2589 142 
Q 2241 -75 1856 -75 
Q 1575 -75 1351 44 
Q 1128 163 984 344 
L 984 -1272 
L 422 -1272 
z
M 931 1641 
Q 931 1000 1190 694 
Q 1450 388 1819 388 
Q 2194 388 2461 705 
Q 2728 1022 2728 1688 
Q 2728 2322 2467 2637 
Q 2206 2953 1844 2953 
Q 1484 2953 1207 2617 
Q 931 2281 931 1641 
z
" transform="scale(0.015625)"/>
       <path id="ArialMT-6f" d="M 213 1659 
Q 213 2581 725 3025 
Q 1153 3394 1769 3394 
Q 2453 3394 2887 2945 
Q 3322 2497 3322 1706 
Q 3322 1066 3130 698 
Q 2938 331 2570 128 
Q 2203 -75 1769 -75 
Q 1072 -75 642 372 
Q 213 819 213 1659 
z
M 791 1659 
Q 791 1022 1069 705 
Q 1347 388 1769 388 
Q 2188 388 2466 706 
Q 2744 1025 2744 1678 
Q 2744 2294 2464 2611 
Q 2184 2928 1769 2928 
Q 1347 2928 1069 2612 
Q 791 2297 791 1659 
z
" transform="scale(0.015625)"/>
       <path id="ArialMT-74" d="M 1650 503 
L 1731 6 
Q 1494 -44 1306 -44 
Q 1000 -44 831 53 
Q 663 150 594 308 
Q 525 466 525 972 
L 525 2881 
L 113 2881 
L 113 3319 
L 525 3319 
L 525 4141 
L 1084 4478 
L 1084 3319 
L 1650 3319 
L 1650 2881 
L 1084 2881 
L 1084 941 
Q 1084 700 1114 631 
Q 1144 563 1211 522 
Q 1278 481 1403 481 
Q 1497 481 1650 503 
z
" transform="scale(0.015625)"/>
       <path id="ArialMT-6c" d="M 409 0 
L 409 4581 
L 972 4581 
L 972 0 
L 409 0 
z
" transform="scale(0.015625)"/>
       <path id="ArialMT-56" d="M 1803 0 
L 28 4581 
L 684 4581 
L 1875 1253 
Q 2019 853 2116 503 
Q 2222 878 2363 1253 
L 3600 4581 
L 4219 4581 
L 2425 0 
L 1803 0 
z
" transform="scale(0.015625)"/>
      </defs>
      <use xlink:href="#ArialMT-4d"/>
      <use xlink:href="#ArialMT-65" x="83.300781"/>
      <use xlink:href="#ArialMT-6d" x="138.916016"/>
      <use xlink:href="#ArialMT-62" x="222.216797"/>
      <use xlink:href="#ArialMT-72" x="277.832031"/>
      <use xlink:href="#ArialMT-61" x="311.132812"/>
      <use xlink:href="#ArialMT-6e" x="366.748047"/>
      <use xlink:href="#ArialMT-65" x="422.363281"/>
      <use xlink:href="#ArialMT-20" x="477.978516"/>
      <use xlink:href="#ArialMT-70" x="505.761719"/>
      <use xlink:href="#ArialMT-6f" x="561.376953"/>
      <use xlink:href="#ArialMT-74" x="616.992188"/>
      <use xlink:href="#ArialMT-65" x="644.775391"/>
      <use xlink:href="#ArialMT-6e" x="700.390625"/>
      <use xlink:href="#ArialMT-74" x="756.005859"/>
      <use xlink:href="#ArialMT-69" x="783.789062"/>
      <use xlink:href="#ArialMT-61" x="806.005859"/>
      <use xlink:href="#ArialMT-6c" x="861.621094"/>
      <use xlink:href="#ArialMT-20" x="883.837891"/>
      <use xlink:href="#ArialMT-28" x="911.621094"/>
      <use xlink:href="#ArialMT-6d" x="944.921875"/>
      <use xlink:href="#ArialMT-56" x="1028.222656"/>
      <use xlink:href="#ArialMT-29" x="1094.921875"/>
     </g>
    </g>
   </g>
   <g id="line2d_13">
    <path d="M 92.290909 438.768 
L 92.696727 441.005717 
L 93.305455 443.575518 
L 93.914182 445.213174 
L 94.522909 446.257777 
L 95.199273 446.975831 
L 95.943273 447.437032 
L 96.890182 447.746529 
L 98.242909 447.933425 
L 100.813091 448.022039 
L 112.378909 448.03717 
L 159.927273 448.037453 
L 160.130182 426.160115 
L 160.536 408.835822 
L 161.077091 395.371327 
L 161.685818 385.720437 
L 162.497455 376.617983 
L 164.661818 354.399627 
L 165.608727 342.629595 
L 165.744 342.444461 
L 165.879273 342.716172 
L 166.352727 344.110957 
L 166.488 344.032823 
L 166.623273 343.550598 
L 166.826182 341.814572 
L 167.029091 338.249942 
L 167.232 330.822699 
L 167.367273 318.295281 
L 167.434909 299.894605 
L 167.502545 168.641805 
L 167.570182 204.228456 
L 167.773091 347.760706 
L 167.976 369.671032 
L 168.178909 374.804458 
L 168.381818 375.605336 
L 168.517091 375.122626 
L 168.855273 372.512811 
L 169.937455 363.54563 
L 170.681455 359.441056 
L 171.087273 358.195508 
L 172.034182 356.263641 
L 172.507636 354.062749 
L 172.981091 350.894494 
L 173.589818 344.981608 
L 173.928 339.72795 
L 174.130909 333.943497 
L 174.333818 319.581681 
L 174.401455 305.114641 
L 174.536727 180.075708 
L 174.739636 344.331414 
L 174.942545 369.68837 
L 175.145455 375.326564 
L 175.280727 376.059293 
L 175.348364 376.013274 
L 175.551273 374.959837 
L 176.227636 368.746334 
L 176.904 363.658832 
L 177.580364 360.504545 
L 179.677091 350.940546 
L 180.285818 345.072036 
L 180.826909 336.928407 
L 181.097455 329.116884 
L 181.232727 320.089407 
L 181.300364 310.081924 
L 181.368 280.098205 
L 181.435636 160.670942 
L 181.638545 332.07297 
L 181.841455 362.192951 
L 182.044364 370.178591 
L 182.247273 372.208125 
L 182.314909 372.331823 
L 182.382545 372.282289 
L 182.585455 371.441263 
L 183.058909 367.795481 
L 184.208727 358.92559 
L 184.952727 354.573357 
L 185.358545 352.982761 
L 185.899636 353.295286 
L 186.102545 353.0055 
L 186.373091 352.190584 
L 186.778909 350.05435 
L 187.184727 346.89642 
L 187.522909 342.365565 
L 187.793455 335.297306 
L 187.928727 327.944404 
L 188.064 306.614311 
L 188.199273 173.946863 
L 188.402182 343.811603 
L 188.605091 367.697589 
L 188.808 373.043913 
L 189.010909 374.389803 
L 189.078545 374.42555 
L 189.213818 374.123132 
L 189.484364 372.608313 
L 190.837091 363.616297 
L 191.513455 360.291891 
L 192.730909 354.19419 
L 193.339636 352.624091 
L 193.610182 351.621931 
L 193.948364 349.109919 
L 194.218909 346.303258 
L 194.354182 348.123849 
L 194.895273 358.059822 
L 195.233455 360.366326 
L 195.436364 360.791814 
L 195.571636 360.714174 
L 195.774545 360.156218 
L 196.112727 358.448683 
L 196.586182 354.777228 
L 197.194909 348.284866 
L 197.533091 341.941691 
L 197.938909 328.55666 
L 198.209455 317.358517 
L 198.277091 318.368897 
L 198.547636 334.854072 
L 198.885818 349.901582 
L 199.156364 354.576959 
L 199.426909 356.061661 
L 199.562182 356.07303 
L 199.765091 355.513663 
L 200.170909 353.359968 
L 200.509091 351.62966 
L 200.914909 350.884369 
L 200.982545 351.055237 
L 201.658909 355.994422 
L 201.794182 355.937819 
L 201.997091 355.339054 
L 202.335273 353.376069 
L 202.808727 349.161002 
L 203.620364 339.012051 
L 203.823273 333.254451 
L 203.958545 325.599296 
L 204.093818 301.225806 
L 204.161455 187.495453 
L 204.229091 194.739309 
L 204.432 343.649811 
L 204.634909 367.135254 
L 204.837818 373.000323 
L 205.040727 374.152594 
L 205.176 373.886792 
L 205.446545 372.287886 
L 207.272727 359.459921 
L 208.287273 352.789451 
L 209.234182 344.166818 
L 209.572364 338.198358 
L 210.248727 320.245885 
L 210.384 322.227906 
L 211.060364 336.803363 
L 211.263273 337.74487 
L 211.398545 337.405423 
L 211.601455 335.700584 
L 211.804364 331.552792 
L 212.007273 320.641197 
L 212.074909 311.515928 
L 212.142545 286.541863 
L 212.210182 159.800163 
L 212.277818 229.005085 
L 212.480727 334.326857 
L 212.751273 362.811953 
L 213.021818 370.987834 
L 213.224727 372.373763 
L 213.292364 372.401489 
L 213.427636 372.06218 
L 213.698182 370.465103 
L 214.915636 362.156698 
L 215.930182 358.163406 
L 218.500364 340.592833 
L 218.770909 335.429951 
L 218.973818 326.035263 
L 219.109091 304.770203 
L 219.244364 178.73906 
L 219.447273 340.876891 
L 219.650182 366.261934 
L 219.853091 372.662219 
L 220.056 374.01933 
L 220.123636 373.987334 
L 220.258909 373.513836 
L 220.597091 371.114688 
L 221.341091 365.82797 
L 221.544 365.447462 
L 221.814545 364.985377 
L 222.152727 363.740723 
L 223.573091 356.486562 
L 224.114182 353.016717 
L 224.722909 347.287887 
L 225.196364 340.84507 
L 225.466909 334.089423 
L 225.669818 321.159677 
L 225.737455 309.220113 
L 225.872727 161.059597 
L 226.075636 340.821753 
L 226.278545 368.078785 
L 226.481455 374.017118 
L 226.684364 374.846438 
L 226.819636 374.35192 
L 227.157818 371.748943 
L 228.037091 364.687028 
L 229.186909 357.312571 
L 230.336727 352.036656 
L 231.554182 346.17137 
L 231.892364 342.697179 
L 232.162909 337.663925 
L 232.365818 330.083233 
L 232.501091 317.265057 
L 232.568727 297.707094 
L 232.636364 161.692888 
L 232.704 209.341007 
L 232.906909 346.528929 
L 233.109818 368.404412 
L 233.312727 373.69513 
L 233.515636 374.791396 
L 233.650909 374.531695 
L 233.921455 372.967943 
L 235.409455 362.712227 
L 236.221091 356.974577 
L 236.965091 352.030387 
L 237.573818 349.062144 
L 238.114909 345.341933 
L 238.453091 341.232817 
L 238.723636 335.151012 
L 238.926545 324.694021 
L 239.061818 297.011713 
L 239.129455 164.914402 
L 239.197091 212.512336 
L 239.4 346.797832 
L 239.602909 368.678795 
L 239.805818 373.466972 
L 239.941091 374.129214 
L 240.008727 374.114519 
L 240.211636 373.366142 
L 240.617455 370.526765 
L 241.970182 360.582626 
L 243.255273 352.067366 
L 244.405091 343.27411 
L 244.810909 341.191271 
L 244.878545 341.311077 
L 245.419636 343.36223 
L 245.487273 343.33985 
L 245.622545 342.989369 
L 245.825455 341.671311 
L 246.096 337.816322 
L 246.298909 331.64052 
L 246.434182 322.344148 
L 246.501818 311.790834 
L 246.569455 276.419864 
L 246.637091 147.364246 
L 246.84 331.428031 
L 247.042909 360.59117 
L 247.313455 370.01985 
L 247.516364 371.862403 
L 247.651636 372.067732 
L 247.786909 371.768534 
L 248.057455 370.279023 
L 249.342545 361.896183 
L 250.56 355.16065 
L 251.371636 349.280016 
L 251.709818 345.167797 
L 252.048 338.181722 
L 252.250909 329.60317 
L 252.386182 314.209945 
L 252.453818 284.211185 
L 252.521455 143.619342 
L 252.724364 338.329049 
L 252.927273 368.938692 
L 253.130182 374.904564 
L 253.265455 375.613447 
L 253.333091 375.572795 
L 253.536 374.60596 
L 254.212364 368.842154 
L 254.888727 364.0487 
L 255.362182 362.067839 
L 255.632727 361.930791 
L 255.835636 361.538369 
L 256.173818 360.259995 
L 256.647273 357.726076 
L 257.256 353.127719 
L 258.811636 339.135132 
L 259.082182 332.555263 
L 259.217455 325.429485 
L 259.352727 305.143119 
L 259.488 177.249829 
L 259.690909 340.492347 
L 259.893818 366.170379 
L 260.096727 372.10121 
L 260.299636 373.060969 
L 260.434909 372.675458 
L 260.773091 370.341675 
L 261.922909 361.382401 
L 263.343273 350.496365 
L 264.357818 340.448455 
L 264.560727 335.106649 
L 264.763636 321.973341 
L 264.831273 309.654236 
L 264.966545 159.585067 
L 265.169455 341.421933 
L 265.372364 367.220978 
L 265.575273 372.537373 
L 265.778182 373.853985 
L 265.913455 373.82026 
L 266.116364 373.014859 
L 266.589818 369.630535 
L 267.333818 364.54459 
L 268.280727 359.63243 
L 269.430545 353.772242 
L 269.904 350.462987 
L 270.377455 345.196604 
L 270.715636 339.224289 
L 270.986182 329.573576 
L 271.121455 317.11394 
L 271.189091 299.050645 
L 271.256727 177.564241 
L 271.324364 207.01464 
L 271.527273 346.885424 
L 271.730182 367.91988 
L 271.933091 372.39434 
L 272.136 373.047672 
L 272.271273 372.649863 
L 272.609455 370.580621 
L 273.962182 361.106422 
L 274.570909 359.26897 
L 275.247273 355.994423 
L 275.923636 351.496745 
L 276.532364 345.850216 
L 276.938182 340.370536 
L 277.208727 333.514134 
L 277.344 326.484225 
L 277.479273 306.601187 
L 277.614545 172.420085 
L 277.817455 341.792862 
L 278.020364 367.082068 
L 278.223273 372.717866 
L 278.426182 373.690586 
L 278.561455 373.357671 
L 278.832 371.638732 
L 280.658182 358.845977 
L 282.010909 352.540208 
L 282.349091 352.22977 
L 282.619636 351.322274 
L 283.093091 348.489643 
L 283.769455 342.638458 
L 284.242909 336.610279 
L 284.445818 330.668058 
L 284.581091 321.689396 
L 284.648727 311.623197 
L 284.716364 280.592798 
L 284.784 152.118752 
L 284.986909 331.387812 
L 285.189818 360.374714 
L 285.460364 369.649877 
L 285.663273 371.383708 
L 285.798545 371.48529 
L 285.933818 371.080107 
L 286.272 368.969973 
L 288.774545 349.156469 
L 289.653818 340.481417 
L 289.924364 333.685074 
L 290.059636 326.504405 
L 290.194909 306.88731 
L 290.330182 170.328544 
L 290.533091 341.167743 
L 290.736 366.849687 
L 290.938909 372.522336 
L 291.141818 373.543531 
L 291.277091 373.246451 
L 291.547636 371.615419 
L 293.035636 360.814235 
L 293.982545 355.896299 
L 294.997091 349.924887 
L 295.538182 344.548907 
L 295.876364 338.519116 
L 296.079273 330.903571 
L 296.214545 318.355877 
L 296.282182 299.938979 
L 296.349818 167.685348 
L 296.417455 203.752273 
L 296.620364 347.946217 
L 296.823273 368.949023 
L 297.026182 373.22192 
L 297.229091 373.862547 
L 297.364364 373.502439 
L 297.634909 371.852592 
L 299.325818 359.656876 
L 300.475636 354.313537 
L 300.610909 354.591102 
L 301.219636 356.653248 
L 301.287273 356.629663 
L 301.490182 356.216035 
L 301.828364 354.673 
L 302.437091 350.356013 
L 302.910545 345.55896 
L 303.248727 339.695964 
L 303.451636 333.145489 
L 303.586909 324.019679 
L 303.654545 314.269005 
L 303.722182 285.163674 
L 303.789818 143.412534 
L 303.992727 336.526349 
L 304.195636 367.248006 
L 304.398545 373.3206 
L 304.601455 374.183464 
L 304.736727 373.79224 
L 305.074909 371.442153 
L 306.427636 360.740776 
L 307.915636 352.754284 
L 308.727273 345.874947 
L 309.065455 340.994458 
L 309.336 334.268502 
L 309.538909 322.383806 
L 309.606545 312.260578 
L 309.674182 280.646896 
L 309.741818 150.228971 
L 309.944727 336.22337 
L 310.147636 365.77369 
L 310.350545 372.511374 
L 310.553455 373.878903 
L 310.621091 373.84174 
L 310.824 372.944721 
L 311.365091 368.507536 
L 311.703273 366.24838 
L 312.447273 363.69269 
L 313.258909 359.718904 
L 315.220364 347.998193 
L 315.626182 343.047854 
L 315.896727 337.494045 
L 316.099636 329.029001 
L 316.234909 314.032415 
L 316.302545 285.830759 
L 316.370182 145.652744 
L 316.573091 336.055671 
L 316.776 367.069397 
L 316.978909 373.460418 
L 317.181818 374.36581 
L 317.317091 373.975124 
L 317.587636 372.210137 
L 319.684364 355.903699 
L 320.969455 348.105353 
L 321.510545 342.837737 
L 321.984 336.330709 
L 322.457455 329.728074 
L 322.660364 325.012313 
L 322.795636 317.136549 
L 322.930909 286.327412 
L 322.998545 192.915862 
L 323.066182 237.945004 
L 323.269091 328.467926 
L 323.539636 350.865173 
L 323.877818 360.744227 
L 324.148364 363.322574 
L 324.283636 363.613558 
L 324.418909 363.463967 
L 324.689455 362.437964 
L 325.771636 356.515929 
L 326.515636 352.442387 
L 326.921455 351.125898 
L 327.327273 348.86742 
L 327.733091 345.333006 
L 328.071273 339.969836 
L 328.274182 333.70845 
L 328.409455 325.259404 
L 328.544727 293.926795 
L 328.612364 146.142922 
L 328.68 221.439374 
L 328.882909 348.735677 
L 329.085818 369.305981 
L 329.288727 373.862416 
L 329.491636 374.52703 
L 329.626909 374.086105 
L 329.965091 371.663334 
L 330.979636 363.746635 
L 331.520727 360.689705 
L 332.129455 359.698606 
L 332.535273 358.144592 
L 333.549818 352.844748 
L 334.226182 346.730876 
L 334.564364 341.992482 
L 334.834909 334.907347 
L 335.037818 321.046956 
L 335.105455 307.621746 
L 335.240727 169.746454 
L 335.443636 343.935461 
L 335.646545 368.430014 
L 335.849455 373.145512 
L 336.052364 373.850174 
L 336.187636 373.510854 
L 336.458182 371.877376 
L 338.013818 360.610794 
L 339.028364 356.342062 
L 339.434182 355.328594 
L 339.975273 352.758291 
L 340.448727 349.343564 
L 340.989818 345.32373 
L 341.328 345.479669 
L 341.463273 345.155978 
L 341.666182 343.888784 
L 341.936727 340.379401 
L 342.139636 335.089813 
L 342.342545 321.719432 
L 342.410182 308.798802 
L 342.545455 161.461113 
L 342.748364 339.166928 
L 342.951273 364.543854 
L 343.221818 371.551877 
L 343.424727 372.48402 
L 343.56 372.284573 
L 343.830545 370.919327 
L 345.724364 359.123761 
L 346.603636 355.165019 
L 347.077091 351.649942 
L 347.482909 347.03962 
L 347.821091 340.90903 
L 348.091636 330.941717 
L 348.226909 317.894131 
L 348.294545 298.088591 
L 348.362182 156.77403 
L 348.429818 212.595427 
L 348.632727 351.002436 
L 348.835636 371.193758 
L 349.038545 374.852496 
L 349.173818 375.138202 
L 349.309091 374.708796 
L 349.647273 372.20785 
L 350.864727 362.172782 
L 351.338182 359.930797 
L 351.608727 359.901063 
L 352.014545 359.706167 
L 352.217455 359.481252 
L 352.488 358.745701 
L 353.096727 356.383368 
L 353.637818 353.343595 
L 354.246545 348.462771 
L 354.652364 343.639584 
L 354.990545 336.526014 
L 355.193455 327.002606 
L 355.328727 307.06562 
L 355.464 171.180902 
L 355.666909 343.118394 
L 355.869818 368.072613 
L 356.072727 372.768566 
L 356.208 373.309627 
L 356.275636 373.269026 
L 356.478545 372.509819 
L 356.884364 369.850698 
L 359.184 353.077352 
L 359.995636 349.216355 
L 360.604364 347.579755 
L 360.874909 346.362032 
L 360.942545 346.396817 
L 361.416 347.172755 
L 361.551273 346.891801 
L 361.754182 345.846127 
L 362.024727 342.92339 
L 362.295273 336.855383 
L 362.498182 325.591744 
L 362.565818 316.461288 
L 362.633455 291.139128 
L 362.701091 138.429257 
L 362.768727 226.319924 
L 362.971636 347.849091 
L 363.174545 367.304319 
L 363.445091 372.880785 
L 363.648 373.565481 
L 363.783273 373.339554 
L 364.053818 371.9163 
L 365.677091 361.125211 
L 367.300364 353.497368 
L 368.382545 349.255373 
L 368.788364 345.11773 
L 369.058909 340.530928 
L 369.329455 331.356614 
L 369.464727 319.467983 
L 369.532364 303.048943 
L 369.6 189.078446 
L 369.667636 190.724983 
L 369.870545 347.047523 
L 370.073455 369.813807 
L 370.276364 374.443822 
L 370.411636 375.07343 
L 370.479273 375.039258 
L 370.682182 374.122587 
L 371.290909 369.049061 
L 372.305455 361.110844 
L 373.252364 355.549884 
L 373.658182 353.852012 
L 374.402182 351.146954 
L 374.740364 348.952995 
L 375.146182 344.664928 
L 375.484364 338.027931 
L 375.687273 329.359634 
L 375.822545 313.357206 
L 375.890182 279.685484 
L 375.957818 144.703639 
L 376.160727 338.171582 
L 376.363636 367.58873 
L 376.566545 373.484504 
L 376.769455 374.341408 
L 376.904727 373.942777 
L 377.242909 371.530004 
L 378.528 361.296756 
L 379.204364 357.778519 
L 379.474909 357.530941 
L 379.745455 357.111007 
L 380.083636 355.987993 
L 380.692364 353.984999 
L 380.962909 353.325943 
L 381.301091 351.616903 
L 381.706909 348.371584 
L 382.112727 343.158175 
L 382.383273 337.089035 
L 382.586182 327.320561 
L 382.721455 305.708018 
L 382.856727 178.3315 
L 383.059636 344.684454 
L 383.262545 368.896035 
L 383.465455 373.980572 
L 383.600727 374.656731 
L 383.668364 374.629859 
L 383.803636 374.126535 
L 384.141818 371.531961 
L 385.359273 361.616905 
L 386.644364 353.205842 
L 387.050182 350.735214 
L 388.335273 340.099443 
L 388.538182 335.599409 
L 388.741091 325.459906 
L 388.876364 299.609577 
L 388.944 175.060447 
L 389.011636 202.96676 
L 389.214545 345.878605 
L 389.417455 367.631201 
L 389.620364 372.51091 
L 389.823273 373.499567 
L 389.890909 373.467165 
L 390.026182 373.054207 
L 390.364364 370.818243 
L 391.717091 360.702479 
L 393.340364 350.369084 
L 393.881455 346.885883 
L 394.287273 344.270826 
L 394.625455 340.165433 
L 394.896 333.957388 
L 395.098909 322.909709 
L 395.166545 313.834282 
L 395.234182 289.019228 
L 395.301818 152.490144 
L 395.369455 235.835188 
L 395.572364 346.347877 
L 395.775273 366.230445 
L 395.978182 371.405677 
L 396.181091 372.44073 
L 396.316364 372.178262 
L 396.586909 370.578669 
L 398.277818 356.622362 
L 399.089455 350.750554 
L 399.157091 350.576435 
L 399.224727 350.61472 
L 399.495273 351.518687 
L 399.833455 352.3806 
L 400.036364 352.637378 
L 400.171636 352.581546 
L 400.374545 352.180055 
L 400.645091 351.033862 
L 401.389091 346.325739 
L 401.794909 341.980322 
L 402.065455 337.408806 
L 402.268364 330.580197 
L 402.403636 319.943195 
L 402.471273 306.539539 
L 402.606545 170.338458 
L 402.809455 339.445337 
L 403.012364 365.076363 
L 403.215273 370.998521 
L 403.418182 372.247472 
L 403.485818 372.236738 
L 403.621091 371.84777 
L 403.959273 369.72572 
L 405.109091 361.894101 
L 407.070545 353.416295 
L 407.611636 349.320384 
L 408.017455 344.197082 
L 408.355636 336.535427 
L 408.558545 325.972709 
L 408.693818 303.949078 
L 408.829091 185.82787 
L 409.032 345.124814 
L 409.234909 368.207226 
L 409.437818 372.736629 
L 409.573091 373.321859 
L 409.640727 373.295134 
L 409.776 372.843331 
L 410.114182 370.495354 
L 411.399273 360.448694 
L 412.549091 355.484433 
L 413.293091 350.215298 
L 413.766545 345.619446 
L 414.172364 339.703739 
L 414.442909 332.376389 
L 414.578182 324.386815 
L 414.713455 296.941958 
L 414.781091 168.225467 
L 414.848727 213.59425 
L 415.051636 346.795726 
L 415.254545 368.680261 
L 415.457455 373.565399 
L 415.592727 374.181866 
L 415.660364 374.135532 
L 415.863273 373.20517 
L 416.404364 368.676769 
L 417.283636 362.020998 
L 417.892364 358.478453 
L 418.095273 358.724429 
L 418.298182 358.822829 
L 418.501091 358.485598 
L 418.839273 357.223356 
L 419.380364 353.98087 
L 420.868364 343.423278 
L 421.138909 338.944124 
L 421.341818 332.438535 
L 421.477091 322.916528 
L 421.544727 312.109081 
L 421.612364 274.515848 
L 421.68 148.355882 
L 421.882909 337.279782 
L 422.085818 365.453412 
L 422.288727 371.866842 
L 422.491636 373.331717 
L 422.559273 373.361143 
L 422.694545 373.010427 
L 422.965091 371.305713 
L 424.453091 360.256238 
L 424.994182 357.452252 
L 425.738182 353.717119 
L 426.144 351.617691 
L 426.279273 351.679875 
L 426.685091 352.020417 
L 426.888 351.725534 
L 427.158545 350.709218 
L 427.564364 348.181981 
L 428.037818 343.371357 
L 428.376 337.518878 
L 428.578909 330.723385 
L 428.714182 320.882855 
L 428.781818 309.369387 
L 428.917091 158.240294 
L 429.12 336.629548 
L 429.322909 364.299022 
L 429.525818 370.970539 
L 429.728727 372.442716 
L 429.796364 372.444374 
L 429.931636 372.029325 
L 430.269818 369.675567 
L 430.472727 367.876403 
L 430.675636 389.567458 
L 431.013818 402.425238 
L 431.487273 411.048476 
L 432.231273 419.803928 
L 433.178182 428.454305 
L 434.125091 435.159774 
L 434.936727 439.474829 
L 435.748364 442.627668 
L 436.492364 444.679706 
L 437.236364 446.111468 
L 437.980364 447.082294 
L 438.792 447.76782 
L 439.671273 448.212265 
L 440.753455 448.491011 
L 442.173818 448.602711 
L 444.338182 448.519408 
L 450.831273 448.167449 
L 458.88 448.05132 
L 482.755636 448.030334 
L 498.109091 448.031598 
L 498.109091 448.031598 
" clip-path="url(#p9dbf2b67c0)" style="fill: none; stroke: #000000; stroke-width: 1.5; stroke-linecap: square"/>
   </g>
   <g id="line2d_14">
    <path d="M 497.973818 408.87 
" clip-path="url(#p9dbf2b67c0)" style="fill: none; stroke: #000000; stroke-width: 1.5; stroke-linecap: square"/>
   </g>
   <g id="line2d_15">
    <path d="M 430.472727 368.1 
L 430.472727 365.382 
L 430.472727 362.664 
L 430.472727 359.946 
L 430.472727 357.228 
L 430.472727 354.51 
L 430.472727 351.792 
L 430.472727 349.074 
L 430.472727 346.356 
L 430.472727 343.638 
L 430.472727 340.92 
L 430.472727 338.202 
L 430.472727 335.484 
L 430.472727 332.766 
L 430.472727 330.048 
L 430.472727 327.33 
L 430.472727 324.612 
L 430.472727 321.894 
L 430.472727 319.176 
L 430.472727 316.458 
" clip-path="url(#p9dbf2b67c0)" style="fill: none; stroke: #000000; stroke-width: 1.5; stroke-linecap: square"/>
   </g>
   <g id="patch_3">
    <path d="M 72 504 
L 72 69.12 
" style="fill: none; stroke: #000000; stroke-width: 0.8; stroke-linejoin: miter; stroke-linecap: square"/>
   </g>
   <g id="patch_4">
    <path d="M 518.4 504 
L 518.4 69.12 
" style="fill: none; stroke: #000000; stroke-width: 0.8; stroke-linejoin: miter; stroke-linecap: square"/>
   </g>
   <g id="patch_5">
    <path d="M 72 504 
L 518.4 504 
" style="fill: none; stroke: #000000; stroke-width: 0.8; stroke-linejoin: miter; stroke-linecap: square"/>
   </g>
   <g id="patch_6">
    <path d="M 72 69.12 
L 518.4 69.12 
" style="fill: none; stroke: #000000; stroke-width: 0.8; stroke-linejoin: miter; stroke-linecap: square"/>
   </g>
   <g id="text_15">
    <!-- 500 ms -->
    <g transform="translate(497.973818 406.152)scale(0.22 -0.22)">
     <defs>
      <path id="ArialMT-35" d="M 266 1200 
L 856 1250 
Q 922 819 1161 601 
Q 1400 384 1738 384 
Q 2144 384 2425 690 
Q 2706 997 2706 1503 
Q 2706 1984 2436 2262 
Q 2166 2541 1728 2541 
Q 1456 2541 1237 2417 
Q 1019 2294 894 2097 
L 366 2166 
L 809 4519 
L 3088 4519 
L 3088 3981 
L 1259 3981 
L 1013 2750 
Q 1425 3038 1878 3038 
Q 2478 3038 2890 2622 
Q 3303 2206 3303 1553 
Q 3303 931 2941 478 
Q 2500 -78 1738 -78 
Q 1113 -78 717 272 
Q 322 622 266 1200 
z
" transform="scale(0.015625)"/>
      <path id="ArialMT-30" d="M 266 2259 
Q 266 3072 433 3567 
Q 600 4063 929 4331 
Q 1259 4600 1759 4600 
Q 2128 4600 2406 4451 
Q 2684 4303 2865 4023 
Q 3047 3744 3150 3342 
Q 3253 2941 3253 2259 
Q 3253 1453 3087 958 
Q 2922 463 2592 192 
Q 2263 -78 1759 -78 
Q 1097 -78 719 397 
Q 266 969 266 2259 
z
M 844 2259 
Q 844 1131 1108 757 
Q 1372 384 1759 384 
Q 2147 384 2411 759 
Q 2675 1134 2675 2259 
Q 2675 3391 2411 3762 
Q 2147 4134 1753 4134 
Q 1366 4134 1134 3806 
Q 844 3388 844 2259 
z
" transform="scale(0.015625)"/>
     </defs>
     <use xlink:href="#ArialMT-35"/>
     <use xlink:href="#ArialMT-30" x="55.615234"/>
     <use xlink:href="#ArialMT-30" x="111.230469"/>
     <use xlink:href="#ArialMT-20" x="166.845703"/>
     <use xlink:href="#ArialMT-6d" x="194.628906"/>
     <use xlink:href="#ArialMT-73" x="277.929688"/>
    </g>
   </g>
   <g id="text_16">
    <!-- 20 mV -->
    <g transform="translate(504.737455 321.894)scale(0.22 -0.22)">
     <defs>
      <path id="ArialMT-32" d="M 3222 541 
L 3222 0 
L 194 0 
Q 188 203 259 391 
Q 375 700 629 1000 
Q 884 1300 1366 1694 
Q 2113 2306 2375 2664 
Q 2638 3022 2638 3341 
Q 2638 3675 2398 3904 
Q 2159 4134 1775 4134 
Q 1369 4134 1125 3890 
Q 881 3647 878 3216 
L 300 3275 
Q 359 3922 746 4261 
Q 1134 4600 1788 4600 
Q 2447 4600 2831 4234 
Q 3216 3869 3216 3328 
Q 3216 3053 3103 2787 
Q 2991 2522 2730 2228 
Q 2469 1934 1863 1422 
Q 1356 997 1212 845 
Q 1069 694 975 541 
L 3222 541 
z
" transform="scale(0.015625)"/>
     </defs>
     <use xlink:href="#ArialMT-32"/>
     <use xlink:href="#ArialMT-30" x="55.615234"/>
     <use xlink:href="#ArialMT-20" x="111.230469"/>
     <use xlink:href="#ArialMT-6d" x="139.013672"/>
     <use xlink:href="#ArialMT-56" x="222.314453"/>
    </g>
   </g>
   <g id="text_17">
    <!--  Plotting dSPN, trace number 16257  -->
    <g transform="translate(116.052969 63.12)scale(0.22 -0.22)">
     <defs>
      <path id="ArialMT-50" d="M 494 0 
L 494 4581 
L 2222 4581 
Q 2678 4581 2919 4538 
Q 3256 4481 3484 4323 
Q 3713 4166 3852 3881 
Q 3991 3597 3991 3256 
Q 3991 2672 3619 2267 
Q 3247 1863 2275 1863 
L 1100 1863 
L 1100 0 
L 494 0 
z
M 1100 2403 
L 2284 2403 
Q 2872 2403 3119 2622 
Q 3366 2841 3366 3238 
Q 3366 3525 3220 3729 
Q 3075 3934 2838 4000 
Q 2684 4041 2272 4041 
L 1100 4041 
L 1100 2403 
z
" transform="scale(0.015625)"/>
      <path id="ArialMT-67" d="M 319 -275 
L 866 -356 
Q 900 -609 1056 -725 
Q 1266 -881 1628 -881 
Q 2019 -881 2231 -725 
Q 2444 -569 2519 -288 
Q 2563 -116 2559 434 
Q 2191 0 1641 0 
Q 956 0 581 494 
Q 206 988 206 1678 
Q 206 2153 378 2554 
Q 550 2956 876 3175 
Q 1203 3394 1644 3394 
Q 2231 3394 2613 2919 
L 2613 3319 
L 3131 3319 
L 3131 450 
Q 3131 -325 2973 -648 
Q 2816 -972 2473 -1159 
Q 2131 -1347 1631 -1347 
Q 1038 -1347 672 -1080 
Q 306 -813 319 -275 
z
M 784 1719 
Q 784 1066 1043 766 
Q 1303 466 1694 466 
Q 2081 466 2343 764 
Q 2606 1063 2606 1700 
Q 2606 2309 2336 2618 
Q 2066 2928 1684 2928 
Q 1309 2928 1046 2623 
Q 784 2319 784 1719 
z
" transform="scale(0.015625)"/>
      <path id="ArialMT-64" d="M 2575 0 
L 2575 419 
Q 2259 -75 1647 -75 
Q 1250 -75 917 144 
Q 584 363 401 755 
Q 219 1147 219 1656 
Q 219 2153 384 2558 
Q 550 2963 881 3178 
Q 1213 3394 1622 3394 
Q 1922 3394 2156 3267 
Q 2391 3141 2538 2938 
L 2538 4581 
L 3097 4581 
L 3097 0 
L 2575 0 
z
M 797 1656 
Q 797 1019 1065 703 
Q 1334 388 1700 388 
Q 2069 388 2326 689 
Q 2584 991 2584 1609 
Q 2584 2291 2321 2609 
Q 2059 2928 1675 2928 
Q 1300 2928 1048 2622 
Q 797 2316 797 1656 
z
" transform="scale(0.015625)"/>
      <path id="ArialMT-53" d="M 288 1472 
L 859 1522 
Q 900 1178 1048 958 
Q 1197 738 1509 602 
Q 1822 466 2213 466 
Q 2559 466 2825 569 
Q 3091 672 3220 851 
Q 3350 1031 3350 1244 
Q 3350 1459 3225 1620 
Q 3100 1781 2813 1891 
Q 2628 1963 1997 2114 
Q 1366 2266 1113 2400 
Q 784 2572 623 2826 
Q 463 3081 463 3397 
Q 463 3744 659 4045 
Q 856 4347 1234 4503 
Q 1613 4659 2075 4659 
Q 2584 4659 2973 4495 
Q 3363 4331 3572 4012 
Q 3781 3694 3797 3291 
L 3216 3247 
Q 3169 3681 2898 3903 
Q 2628 4125 2100 4125 
Q 1550 4125 1298 3923 
Q 1047 3722 1047 3438 
Q 1047 3191 1225 3031 
Q 1400 2872 2139 2705 
Q 2878 2538 3153 2413 
Q 3553 2228 3743 1945 
Q 3934 1663 3934 1294 
Q 3934 928 3725 604 
Q 3516 281 3123 101 
Q 2731 -78 2241 -78 
Q 1619 -78 1198 103 
Q 778 284 539 648 
Q 300 1013 288 1472 
z
" transform="scale(0.015625)"/>
      <path id="ArialMT-4e" d="M 488 0 
L 488 4581 
L 1109 4581 
L 3516 984 
L 3516 4581 
L 4097 4581 
L 4097 0 
L 3475 0 
L 1069 3600 
L 1069 0 
L 488 0 
z
" transform="scale(0.015625)"/>
      <path id="ArialMT-2c" d="M 569 0 
L 569 641 
L 1209 641 
L 1209 0 
Q 1209 -353 1084 -570 
Q 959 -788 688 -906 
L 531 -666 
Q 709 -588 793 -436 
Q 878 -284 888 0 
L 569 0 
z
" transform="scale(0.015625)"/>
      <path id="ArialMT-63" d="M 2588 1216 
L 3141 1144 
Q 3050 572 2676 248 
Q 2303 -75 1759 -75 
Q 1078 -75 664 370 
Q 250 816 250 1647 
Q 250 2184 428 2587 
Q 606 2991 970 3192 
Q 1334 3394 1763 3394 
Q 2303 3394 2647 3120 
Q 2991 2847 3088 2344 
L 2541 2259 
Q 2463 2594 2264 2762 
Q 2066 2931 1784 2931 
Q 1359 2931 1093 2626 
Q 828 2322 828 1663 
Q 828 994 1084 691 
Q 1341 388 1753 388 
Q 2084 388 2306 591 
Q 2528 794 2588 1216 
z
" transform="scale(0.015625)"/>
      <path id="ArialMT-75" d="M 2597 0 
L 2597 488 
Q 2209 -75 1544 -75 
Q 1250 -75 995 37 
Q 741 150 617 320 
Q 494 491 444 738 
Q 409 903 409 1263 
L 409 3319 
L 972 3319 
L 972 1478 
Q 972 1038 1006 884 
Q 1059 663 1231 536 
Q 1403 409 1656 409 
Q 1909 409 2131 539 
Q 2353 669 2445 892 
Q 2538 1116 2538 1541 
L 2538 3319 
L 3100 3319 
L 3100 0 
L 2597 0 
z
" transform="scale(0.015625)"/>
      <path id="ArialMT-31" d="M 2384 0 
L 1822 0 
L 1822 3584 
Q 1619 3391 1289 3197 
Q 959 3003 697 2906 
L 697 3450 
Q 1169 3672 1522 3987 
Q 1875 4303 2022 4600 
L 2384 4600 
L 2384 0 
z
" transform="scale(0.015625)"/>
      <path id="ArialMT-36" d="M 3184 3459 
L 2625 3416 
Q 2550 3747 2413 3897 
Q 2184 4138 1850 4138 
Q 1581 4138 1378 3988 
Q 1113 3794 959 3422 
Q 806 3050 800 2363 
Q 1003 2672 1297 2822 
Q 1591 2972 1913 2972 
Q 2475 2972 2870 2558 
Q 3266 2144 3266 1488 
Q 3266 1056 3080 686 
Q 2894 316 2569 119 
Q 2244 -78 1831 -78 
Q 1128 -78 684 439 
Q 241 956 241 2144 
Q 241 3472 731 4075 
Q 1159 4600 1884 4600 
Q 2425 4600 2770 4297 
Q 3116 3994 3184 3459 
z
M 888 1484 
Q 888 1194 1011 928 
Q 1134 663 1356 523 
Q 1578 384 1822 384 
Q 2178 384 2434 671 
Q 2691 959 2691 1453 
Q 2691 1928 2437 2201 
Q 2184 2475 1800 2475 
Q 1419 2475 1153 2201 
Q 888 1928 888 1484 
z
" transform="scale(0.015625)"/>
      <path id="ArialMT-37" d="M 303 3981 
L 303 4522 
L 3269 4522 
L 3269 4084 
Q 2831 3619 2401 2847 
Q 1972 2075 1738 1259 
Q 1569 684 1522 0 
L 944 0 
Q 953 541 1156 1306 
Q 1359 2072 1739 2783 
Q 2119 3494 2547 3981 
L 303 3981 
z
" transform="scale(0.015625)"/>
     </defs>
     <use xlink:href="#ArialMT-20"/>
     <use xlink:href="#ArialMT-50" x="27.783203"/>
     <use xlink:href="#ArialMT-6c" x="94.482422"/>
     <use xlink:href="#ArialMT-6f" x="116.699219"/>
     <use xlink:href="#ArialMT-74" x="172.314453"/>
     <use xlink:href="#ArialMT-74" x="200.097656"/>
     <use xlink:href="#ArialMT-69" x="227.880859"/>
     <use xlink:href="#ArialMT-6e" x="250.097656"/>
     <use xlink:href="#ArialMT-67" x="305.712891"/>
     <use xlink:href="#ArialMT-20" x="361.328125"/>
     <use xlink:href="#ArialMT-64" x="389.111328"/>
     <use xlink:href="#ArialMT-53" x="444.726562"/>
     <use xlink:href="#ArialMT-50" x="511.425781"/>
     <use xlink:href="#ArialMT-4e" x="578.125"/>
     <use xlink:href="#ArialMT-2c" x="650.341797"/>
     <use xlink:href="#ArialMT-20" x="678.125"/>
     <use xlink:href="#ArialMT-74" x="705.908203"/>
     <use xlink:href="#ArialMT-72" x="733.691406"/>
     <use xlink:href="#ArialMT-61" x="766.992188"/>
     <use xlink:href="#ArialMT-63" x="822.607422"/>
     <use xlink:href="#ArialMT-65" x="872.607422"/>
     <use xlink:href="#ArialMT-20" x="928.222656"/>
     <use xlink:href="#ArialMT-6e" x="956.005859"/>
     <use xlink:href="#ArialMT-75" x="1011.621094"/>
     <use xlink:href="#ArialMT-6d" x="1067.236328"/>
     <use xlink:href="#ArialMT-62" x="1150.537109"/>
     <use xlink:href="#ArialMT-65" x="1206.152344"/>
     <use xlink:href="#ArialMT-72" x="1261.767578"/>
     <use xlink:href="#ArialMT-20" x="1295.068359"/>
     <use xlink:href="#ArialMT-31" x="1322.851562"/>
     <use xlink:href="#ArialMT-36" x="1378.466797"/>
     <use xlink:href="#ArialMT-32" x="1434.082031"/>
     <use xlink:href="#ArialMT-35" x="1489.697266"/>
     <use xlink:href="#ArialMT-37" x="1545.3125"/>
     <use xlink:href="#ArialMT-20" x="1600.927734"/>
    </g>
   </g>
  </g>
 </g>
 <defs>
  <clipPath id="p9dbf2b67c0">
   <rect x="72" y="69.12" width="446.4" height="434.88"/>
  </clipPath>
 </defs>
</svg>
