<?xml version="1.0" encoding="utf-8" standalone="no"?>
<!DOCTYPE svg PUBLIC "-//W3C//DTD SVG 1.1//EN"
  "http://www.w3.org/Graphics/SVG/1.1/DTD/svg11.dtd">
<svg xmlns:xlink="http://www.w3.org/1999/xlink" width="576pt" height="576pt" viewBox="0 0 576 576" xmlns="http://www.w3.org/2000/svg" version="1.1">
 <metadata>
  <rdf:RDF xmlns:dc="http://purl.org/dc/elements/1.1/" xmlns:cc="http://creativecommons.org/ns#" xmlns:rdf="http://www.w3.org/1999/02/22-rdf-syntax-ns#">
   <cc:Work>
    <dc:type rdf:resource="http://purl.org/dc/dcmitype/StillImage"/>
    <dc:date>2022-10-30T19:57:03.524811</dc:date>
    <dc:format>image/svg+xml</dc:format>
    <dc:creator>
     <cc:Agent>
      <dc:title>Matplotlib v3.5.2, https://matplotlib.org/</dc:title>
     </cc:Agent>
    </dc:creator>
   </cc:Work>
  </rdf:RDF>
 </metadata>
 <defs>
  <style type="text/css">*{stroke-linejoin: round; stroke-linecap: butt}</style>
 </defs>
 <g id="figure_1">
  <g id="patch_1">
   <path d="M 0 576 
L 576 576 
L 576 0 
L 0 0 
L 0 576 
z
" style="fill: none"/>
  </g>
  <g id="axes_1">
   <g id="patch_2">
    <path d="M 72 504 
L 518.4 504 
L 518.4 69.12 
L 72 69.12 
z
" style="fill: #ffffff"/>
   </g>
   <g id="matplotlib.axis_1">
    <g id="xtick_1">
     <g id="line2d_1">
      <defs>
       <path id="maac56e9c2f" d="M 0 0 
L 0 3.5 
" style="stroke: #000000; stroke-width: 0.8"/>
      </defs>
      <g>
       <use xlink:href="#maac56e9c2f" x="92.290909" y="504" style="stroke: #000000; stroke-width: 0.8"/>
      </g>
     </g>
     <g id="text_1">
      <!-- 0 -->
      <g transform="translate(85.292159 527.716563)scale(0.22 -0.22)">
       <defs>
        <path id="DejaVuSans-30" d="M 2034 4250 
Q 1547 4250 1301 3770 
Q 1056 3291 1056 2328 
Q 1056 1369 1301 889 
Q 1547 409 2034 409 
Q 2525 409 2770 889 
Q 3016 1369 3016 2328 
Q 3016 3291 2770 3770 
Q 2525 4250 2034 4250 
z
M 2034 4750 
Q 2819 4750 3233 4129 
Q 3647 3509 3647 2328 
Q 3647 1150 3233 529 
Q 2819 -91 2034 -91 
Q 1250 -91 836 529 
Q 422 1150 422 2328 
Q 422 3509 836 4129 
Q 1250 4750 2034 4750 
z
" transform="scale(0.015625)"/>
       </defs>
       <use xlink:href="#DejaVuSans-30"/>
      </g>
     </g>
    </g>
    <g id="xtick_2">
     <g id="line2d_2">
      <g>
       <use xlink:href="#maac56e9c2f" x="227.563636" y="504" style="stroke: #000000; stroke-width: 0.8"/>
      </g>
     </g>
     <g id="text_2">
      <!-- 1000 -->
      <g transform="translate(199.568636 527.716563)scale(0.22 -0.22)">
       <defs>
        <path id="DejaVuSans-31" d="M 794 531 
L 1825 531 
L 1825 4091 
L 703 3866 
L 703 4441 
L 1819 4666 
L 2450 4666 
L 2450 531 
L 3481 531 
L 3481 0 
L 794 0 
L 794 531 
z
" transform="scale(0.015625)"/>
       </defs>
       <use xlink:href="#DejaVuSans-31"/>
       <use xlink:href="#DejaVuSans-30" x="63.623047"/>
       <use xlink:href="#DejaVuSans-30" x="127.246094"/>
       <use xlink:href="#DejaVuSans-30" x="190.869141"/>
      </g>
     </g>
    </g>
    <g id="xtick_3">
     <g id="line2d_3">
      <g>
       <use xlink:href="#maac56e9c2f" x="362.836364" y="504" style="stroke: #000000; stroke-width: 0.8"/>
      </g>
     </g>
     <g id="text_3">
      <!-- 2000 -->
      <g transform="translate(334.841364 527.716563)scale(0.22 -0.22)">
       <defs>
        <path id="DejaVuSans-32" d="M 1228 531 
L 3431 531 
L 3431 0 
L 469 0 
L 469 531 
Q 828 903 1448 1529 
Q 2069 2156 2228 2338 
Q 2531 2678 2651 2914 
Q 2772 3150 2772 3378 
Q 2772 3750 2511 3984 
Q 2250 4219 1831 4219 
Q 1534 4219 1204 4116 
Q 875 4013 500 3803 
L 500 4441 
Q 881 4594 1212 4672 
Q 1544 4750 1819 4750 
Q 2544 4750 2975 4387 
Q 3406 4025 3406 3419 
Q 3406 3131 3298 2873 
Q 3191 2616 2906 2266 
Q 2828 2175 2409 1742 
Q 1991 1309 1228 531 
z
" transform="scale(0.015625)"/>
       </defs>
       <use xlink:href="#DejaVuSans-32"/>
       <use xlink:href="#DejaVuSans-30" x="63.623047"/>
       <use xlink:href="#DejaVuSans-30" x="127.246094"/>
       <use xlink:href="#DejaVuSans-30" x="190.869141"/>
      </g>
     </g>
    </g>
    <g id="xtick_4">
     <g id="line2d_4">
      <g>
       <use xlink:href="#maac56e9c2f" x="498.109091" y="504" style="stroke: #000000; stroke-width: 0.8"/>
      </g>
     </g>
     <g id="text_4">
      <!-- 3000 -->
      <g transform="translate(470.114091 527.716563)scale(0.22 -0.22)">
       <defs>
        <path id="DejaVuSans-33" d="M 2597 2516 
Q 3050 2419 3304 2112 
Q 3559 1806 3559 1356 
Q 3559 666 3084 287 
Q 2609 -91 1734 -91 
Q 1441 -91 1130 -33 
Q 819 25 488 141 
L 488 750 
Q 750 597 1062 519 
Q 1375 441 1716 441 
Q 2309 441 2620 675 
Q 2931 909 2931 1356 
Q 2931 1769 2642 2001 
Q 2353 2234 1838 2234 
L 1294 2234 
L 1294 2753 
L 1863 2753 
Q 2328 2753 2575 2939 
Q 2822 3125 2822 3475 
Q 2822 3834 2567 4026 
Q 2313 4219 1838 4219 
Q 1578 4219 1281 4162 
Q 984 4106 628 3988 
L 628 4550 
Q 988 4650 1302 4700 
Q 1616 4750 1894 4750 
Q 2613 4750 3031 4423 
Q 3450 4097 3450 3541 
Q 3450 3153 3228 2886 
Q 3006 2619 2597 2516 
z
" transform="scale(0.015625)"/>
       </defs>
       <use xlink:href="#DejaVuSans-33"/>
       <use xlink:href="#DejaVuSans-30" x="63.623047"/>
       <use xlink:href="#DejaVuSans-30" x="127.246094"/>
       <use xlink:href="#DejaVuSans-30" x="190.869141"/>
      </g>
     </g>
    </g>
    <g id="text_5">
     <!-- Time(ms) -->
     <g transform="translate(249.182187 552.307188)scale(0.22 -0.22)">
      <defs>
       <path id="ArialMT-54" d="M 1659 0 
L 1659 4041 
L 150 4041 
L 150 4581 
L 3781 4581 
L 3781 4041 
L 2266 4041 
L 2266 0 
L 1659 0 
z
" transform="scale(0.015625)"/>
       <path id="ArialMT-69" d="M 425 3934 
L 425 4581 
L 988 4581 
L 988 3934 
L 425 3934 
z
M 425 0 
L 425 3319 
L 988 3319 
L 988 0 
L 425 0 
z
" transform="scale(0.015625)"/>
       <path id="ArialMT-6d" d="M 422 0 
L 422 3319 
L 925 3319 
L 925 2853 
Q 1081 3097 1340 3245 
Q 1600 3394 1931 3394 
Q 2300 3394 2536 3241 
Q 2772 3088 2869 2813 
Q 3263 3394 3894 3394 
Q 4388 3394 4653 3120 
Q 4919 2847 4919 2278 
L 4919 0 
L 4359 0 
L 4359 2091 
Q 4359 2428 4304 2576 
Q 4250 2725 4106 2815 
Q 3963 2906 3769 2906 
Q 3419 2906 3187 2673 
Q 2956 2441 2956 1928 
L 2956 0 
L 2394 0 
L 2394 2156 
Q 2394 2531 2256 2718 
Q 2119 2906 1806 2906 
Q 1569 2906 1367 2781 
Q 1166 2656 1075 2415 
Q 984 2175 984 1722 
L 984 0 
L 422 0 
z
" transform="scale(0.015625)"/>
       <path id="ArialMT-65" d="M 2694 1069 
L 3275 997 
Q 3138 488 2766 206 
Q 2394 -75 1816 -75 
Q 1088 -75 661 373 
Q 234 822 234 1631 
Q 234 2469 665 2931 
Q 1097 3394 1784 3394 
Q 2450 3394 2872 2941 
Q 3294 2488 3294 1666 
Q 3294 1616 3291 1516 
L 816 1516 
Q 847 969 1125 678 
Q 1403 388 1819 388 
Q 2128 388 2347 550 
Q 2566 713 2694 1069 
z
M 847 1978 
L 2700 1978 
Q 2663 2397 2488 2606 
Q 2219 2931 1791 2931 
Q 1403 2931 1139 2672 
Q 875 2413 847 1978 
z
" transform="scale(0.015625)"/>
       <path id="ArialMT-28" d="M 1497 -1347 
Q 1031 -759 709 28 
Q 388 816 388 1659 
Q 388 2403 628 3084 
Q 909 3875 1497 4659 
L 1900 4659 
Q 1522 4009 1400 3731 
Q 1209 3300 1100 2831 
Q 966 2247 966 1656 
Q 966 153 1900 -1347 
L 1497 -1347 
z
" transform="scale(0.015625)"/>
       <path id="ArialMT-73" d="M 197 991 
L 753 1078 
Q 800 744 1014 566 
Q 1228 388 1613 388 
Q 2000 388 2187 545 
Q 2375 703 2375 916 
Q 2375 1106 2209 1216 
Q 2094 1291 1634 1406 
Q 1016 1563 777 1677 
Q 538 1791 414 1992 
Q 291 2194 291 2438 
Q 291 2659 392 2848 
Q 494 3038 669 3163 
Q 800 3259 1026 3326 
Q 1253 3394 1513 3394 
Q 1903 3394 2198 3281 
Q 2494 3169 2634 2976 
Q 2775 2784 2828 2463 
L 2278 2388 
Q 2241 2644 2061 2787 
Q 1881 2931 1553 2931 
Q 1166 2931 1000 2803 
Q 834 2675 834 2503 
Q 834 2394 903 2306 
Q 972 2216 1119 2156 
Q 1203 2125 1616 2013 
Q 2213 1853 2448 1751 
Q 2684 1650 2818 1456 
Q 2953 1263 2953 975 
Q 2953 694 2789 445 
Q 2625 197 2315 61 
Q 2006 -75 1616 -75 
Q 969 -75 630 194 
Q 291 463 197 991 
z
" transform="scale(0.015625)"/>
       <path id="ArialMT-29" d="M 791 -1347 
L 388 -1347 
Q 1322 153 1322 1656 
Q 1322 2244 1188 2822 
Q 1081 3291 891 3722 
Q 769 4003 388 4659 
L 791 4659 
Q 1378 3875 1659 3084 
Q 1900 2403 1900 1659 
Q 1900 816 1576 28 
Q 1253 -759 791 -1347 
z
" transform="scale(0.015625)"/>
      </defs>
      <use xlink:href="#ArialMT-54"/>
      <use xlink:href="#ArialMT-69" x="57.333984"/>
      <use xlink:href="#ArialMT-6d" x="79.550781"/>
      <use xlink:href="#ArialMT-65" x="162.851562"/>
      <use xlink:href="#ArialMT-28" x="218.466797"/>
      <use xlink:href="#ArialMT-6d" x="251.767578"/>
      <use xlink:href="#ArialMT-73" x="335.068359"/>
      <use xlink:href="#ArialMT-29" x="385.068359"/>
     </g>
    </g>
   </g>
   <g id="matplotlib.axis_2">
    <g id="ytick_1">
     <g id="line2d_5">
      <defs>
       <path id="m76ad1ee662" d="M 0 0 
L -3.5 0 
" style="stroke: #000000; stroke-width: 0.8"/>
      </defs>
      <g>
       <use xlink:href="#m76ad1ee662" x="72" y="476.82" style="stroke: #000000; stroke-width: 0.8"/>
      </g>
     </g>
     <g id="text_6">
      <!-- −100 -->
      <g transform="translate(4.572187 485.178281)scale(0.22 -0.22)">
       <defs>
        <path id="DejaVuSans-2212" d="M 678 2272 
L 4684 2272 
L 4684 1741 
L 678 1741 
L 678 2272 
z
" transform="scale(0.015625)"/>
       </defs>
       <use xlink:href="#DejaVuSans-2212"/>
       <use xlink:href="#DejaVuSans-31" x="83.789062"/>
       <use xlink:href="#DejaVuSans-30" x="147.412109"/>
       <use xlink:href="#DejaVuSans-30" x="211.035156"/>
      </g>
     </g>
    </g>
    <g id="ytick_2">
     <g id="line2d_6">
      <g>
       <use xlink:href="#m76ad1ee662" x="72" y="422.46" style="stroke: #000000; stroke-width: 0.8"/>
      </g>
     </g>
     <g id="text_7">
      <!-- −80 -->
      <g transform="translate(18.569688 430.818281)scale(0.22 -0.22)">
       <defs>
        <path id="DejaVuSans-38" d="M 2034 2216 
Q 1584 2216 1326 1975 
Q 1069 1734 1069 1313 
Q 1069 891 1326 650 
Q 1584 409 2034 409 
Q 2484 409 2743 651 
Q 3003 894 3003 1313 
Q 3003 1734 2745 1975 
Q 2488 2216 2034 2216 
z
M 1403 2484 
Q 997 2584 770 2862 
Q 544 3141 544 3541 
Q 544 4100 942 4425 
Q 1341 4750 2034 4750 
Q 2731 4750 3128 4425 
Q 3525 4100 3525 3541 
Q 3525 3141 3298 2862 
Q 3072 2584 2669 2484 
Q 3125 2378 3379 2068 
Q 3634 1759 3634 1313 
Q 3634 634 3220 271 
Q 2806 -91 2034 -91 
Q 1263 -91 848 271 
Q 434 634 434 1313 
Q 434 1759 690 2068 
Q 947 2378 1403 2484 
z
M 1172 3481 
Q 1172 3119 1398 2916 
Q 1625 2713 2034 2713 
Q 2441 2713 2670 2916 
Q 2900 3119 2900 3481 
Q 2900 3844 2670 4047 
Q 2441 4250 2034 4250 
Q 1625 4250 1398 4047 
Q 1172 3844 1172 3481 
z
" transform="scale(0.015625)"/>
       </defs>
       <use xlink:href="#DejaVuSans-2212"/>
       <use xlink:href="#DejaVuSans-38" x="83.789062"/>
       <use xlink:href="#DejaVuSans-30" x="147.412109"/>
      </g>
     </g>
    </g>
    <g id="ytick_3">
     <g id="line2d_7">
      <g>
       <use xlink:href="#m76ad1ee662" x="72" y="368.1" style="stroke: #000000; stroke-width: 0.8"/>
      </g>
     </g>
     <g id="text_8">
      <!-- −60 -->
      <g transform="translate(18.569688 376.458281)scale(0.22 -0.22)">
       <defs>
        <path id="DejaVuSans-36" d="M 2113 2584 
Q 1688 2584 1439 2293 
Q 1191 2003 1191 1497 
Q 1191 994 1439 701 
Q 1688 409 2113 409 
Q 2538 409 2786 701 
Q 3034 994 3034 1497 
Q 3034 2003 2786 2293 
Q 2538 2584 2113 2584 
z
M 3366 4563 
L 3366 3988 
Q 3128 4100 2886 4159 
Q 2644 4219 2406 4219 
Q 1781 4219 1451 3797 
Q 1122 3375 1075 2522 
Q 1259 2794 1537 2939 
Q 1816 3084 2150 3084 
Q 2853 3084 3261 2657 
Q 3669 2231 3669 1497 
Q 3669 778 3244 343 
Q 2819 -91 2113 -91 
Q 1303 -91 875 529 
Q 447 1150 447 2328 
Q 447 3434 972 4092 
Q 1497 4750 2381 4750 
Q 2619 4750 2861 4703 
Q 3103 4656 3366 4563 
z
" transform="scale(0.015625)"/>
       </defs>
       <use xlink:href="#DejaVuSans-2212"/>
       <use xlink:href="#DejaVuSans-36" x="83.789062"/>
       <use xlink:href="#DejaVuSans-30" x="147.412109"/>
      </g>
     </g>
    </g>
    <g id="ytick_4">
     <g id="line2d_8">
      <g>
       <use xlink:href="#m76ad1ee662" x="72" y="313.74" style="stroke: #000000; stroke-width: 0.8"/>
      </g>
     </g>
     <g id="text_9">
      <!-- −40 -->
      <g transform="translate(18.569688 322.098281)scale(0.22 -0.22)">
       <defs>
        <path id="DejaVuSans-34" d="M 2419 4116 
L 825 1625 
L 2419 1625 
L 2419 4116 
z
M 2253 4666 
L 3047 4666 
L 3047 1625 
L 3713 1625 
L 3713 1100 
L 3047 1100 
L 3047 0 
L 2419 0 
L 2419 1100 
L 313 1100 
L 313 1709 
L 2253 4666 
z
" transform="scale(0.015625)"/>
       </defs>
       <use xlink:href="#DejaVuSans-2212"/>
       <use xlink:href="#DejaVuSans-34" x="83.789062"/>
       <use xlink:href="#DejaVuSans-30" x="147.412109"/>
      </g>
     </g>
    </g>
    <g id="ytick_5">
     <g id="line2d_9">
      <g>
       <use xlink:href="#m76ad1ee662" x="72" y="259.38" style="stroke: #000000; stroke-width: 0.8"/>
      </g>
     </g>
     <g id="text_10">
      <!-- −20 -->
      <g transform="translate(18.569688 267.738281)scale(0.22 -0.22)">
       <use xlink:href="#DejaVuSans-2212"/>
       <use xlink:href="#DejaVuSans-32" x="83.789062"/>
       <use xlink:href="#DejaVuSans-30" x="147.412109"/>
      </g>
     </g>
    </g>
    <g id="ytick_6">
     <g id="line2d_10">
      <g>
       <use xlink:href="#m76ad1ee662" x="72" y="205.02" style="stroke: #000000; stroke-width: 0.8"/>
      </g>
     </g>
     <g id="text_11">
      <!-- 0 -->
      <g transform="translate(51.0025 213.378281)scale(0.22 -0.22)">
       <use xlink:href="#DejaVuSans-30"/>
      </g>
     </g>
    </g>
    <g id="ytick_7">
     <g id="line2d_11">
      <g>
       <use xlink:href="#m76ad1ee662" x="72" y="150.66" style="stroke: #000000; stroke-width: 0.8"/>
      </g>
     </g>
     <g id="text_12">
      <!-- 20 -->
      <g transform="translate(37.005 159.018281)scale(0.22 -0.22)">
       <use xlink:href="#DejaVuSans-32"/>
       <use xlink:href="#DejaVuSans-30" x="63.623047"/>
      </g>
     </g>
    </g>
    <g id="ytick_8">
     <g id="line2d_12">
      <g>
       <use xlink:href="#m76ad1ee662" x="72" y="96.3" style="stroke: #000000; stroke-width: 0.8"/>
      </g>
     </g>
     <g id="text_13">
      <!-- 40 -->
      <g transform="translate(37.005 104.658281)scale(0.22 -0.22)">
       <use xlink:href="#DejaVuSans-34"/>
       <use xlink:href="#DejaVuSans-30" x="63.623047"/>
      </g>
     </g>
    </g>
    <g id="text_14">
     <!-- Membrane potential (mV) -->
     <g transform="translate(-4.058125 410.655469)rotate(-90)scale(0.22 -0.22)">
      <defs>
       <path id="ArialMT-4d" d="M 475 0 
L 475 4581 
L 1388 4581 
L 2472 1338 
Q 2622 884 2691 659 
Q 2769 909 2934 1394 
L 4031 4581 
L 4847 4581 
L 4847 0 
L 4263 0 
L 4263 3834 
L 2931 0 
L 2384 0 
L 1059 3900 
L 1059 0 
L 475 0 
z
" transform="scale(0.015625)"/>
       <path id="ArialMT-62" d="M 941 0 
L 419 0 
L 419 4581 
L 981 4581 
L 981 2947 
Q 1338 3394 1891 3394 
Q 2197 3394 2470 3270 
Q 2744 3147 2920 2923 
Q 3097 2700 3197 2384 
Q 3297 2069 3297 1709 
Q 3297 856 2875 390 
Q 2453 -75 1863 -75 
Q 1275 -75 941 416 
L 941 0 
z
M 934 1684 
Q 934 1088 1097 822 
Q 1363 388 1816 388 
Q 2184 388 2453 708 
Q 2722 1028 2722 1663 
Q 2722 2313 2464 2622 
Q 2206 2931 1841 2931 
Q 1472 2931 1203 2611 
Q 934 2291 934 1684 
z
" transform="scale(0.015625)"/>
       <path id="ArialMT-72" d="M 416 0 
L 416 3319 
L 922 3319 
L 922 2816 
Q 1116 3169 1280 3281 
Q 1444 3394 1641 3394 
Q 1925 3394 2219 3213 
L 2025 2691 
Q 1819 2813 1613 2813 
Q 1428 2813 1281 2702 
Q 1134 2591 1072 2394 
Q 978 2094 978 1738 
L 978 0 
L 416 0 
z
" transform="scale(0.015625)"/>
       <path id="ArialMT-61" d="M 2588 409 
Q 2275 144 1986 34 
Q 1697 -75 1366 -75 
Q 819 -75 525 192 
Q 231 459 231 875 
Q 231 1119 342 1320 
Q 453 1522 633 1644 
Q 813 1766 1038 1828 
Q 1203 1872 1538 1913 
Q 2219 1994 2541 2106 
Q 2544 2222 2544 2253 
Q 2544 2597 2384 2738 
Q 2169 2928 1744 2928 
Q 1347 2928 1158 2789 
Q 969 2650 878 2297 
L 328 2372 
Q 403 2725 575 2942 
Q 747 3159 1072 3276 
Q 1397 3394 1825 3394 
Q 2250 3394 2515 3294 
Q 2781 3194 2906 3042 
Q 3031 2891 3081 2659 
Q 3109 2516 3109 2141 
L 3109 1391 
Q 3109 606 3145 398 
Q 3181 191 3288 0 
L 2700 0 
Q 2613 175 2588 409 
z
M 2541 1666 
Q 2234 1541 1622 1453 
Q 1275 1403 1131 1340 
Q 988 1278 909 1158 
Q 831 1038 831 891 
Q 831 666 1001 516 
Q 1172 366 1500 366 
Q 1825 366 2078 508 
Q 2331 650 2450 897 
Q 2541 1088 2541 1459 
L 2541 1666 
z
" transform="scale(0.015625)"/>
       <path id="ArialMT-6e" d="M 422 0 
L 422 3319 
L 928 3319 
L 928 2847 
Q 1294 3394 1984 3394 
Q 2284 3394 2536 3286 
Q 2788 3178 2913 3003 
Q 3038 2828 3088 2588 
Q 3119 2431 3119 2041 
L 3119 0 
L 2556 0 
L 2556 2019 
Q 2556 2363 2490 2533 
Q 2425 2703 2258 2804 
Q 2091 2906 1866 2906 
Q 1506 2906 1245 2678 
Q 984 2450 984 1813 
L 984 0 
L 422 0 
z
" transform="scale(0.015625)"/>
       <path id="ArialMT-20" transform="scale(0.015625)"/>
       <path id="ArialMT-70" d="M 422 -1272 
L 422 3319 
L 934 3319 
L 934 2888 
Q 1116 3141 1344 3267 
Q 1572 3394 1897 3394 
Q 2322 3394 2647 3175 
Q 2972 2956 3137 2557 
Q 3303 2159 3303 1684 
Q 3303 1175 3120 767 
Q 2938 359 2589 142 
Q 2241 -75 1856 -75 
Q 1575 -75 1351 44 
Q 1128 163 984 344 
L 984 -1272 
L 422 -1272 
z
M 931 1641 
Q 931 1000 1190 694 
Q 1450 388 1819 388 
Q 2194 388 2461 705 
Q 2728 1022 2728 1688 
Q 2728 2322 2467 2637 
Q 2206 2953 1844 2953 
Q 1484 2953 1207 2617 
Q 931 2281 931 1641 
z
" transform="scale(0.015625)"/>
       <path id="ArialMT-6f" d="M 213 1659 
Q 213 2581 725 3025 
Q 1153 3394 1769 3394 
Q 2453 3394 2887 2945 
Q 3322 2497 3322 1706 
Q 3322 1066 3130 698 
Q 2938 331 2570 128 
Q 2203 -75 1769 -75 
Q 1072 -75 642 372 
Q 213 819 213 1659 
z
M 791 1659 
Q 791 1022 1069 705 
Q 1347 388 1769 388 
Q 2188 388 2466 706 
Q 2744 1025 2744 1678 
Q 2744 2294 2464 2611 
Q 2184 2928 1769 2928 
Q 1347 2928 1069 2612 
Q 791 2297 791 1659 
z
" transform="scale(0.015625)"/>
       <path id="ArialMT-74" d="M 1650 503 
L 1731 6 
Q 1494 -44 1306 -44 
Q 1000 -44 831 53 
Q 663 150 594 308 
Q 525 466 525 972 
L 525 2881 
L 113 2881 
L 113 3319 
L 525 3319 
L 525 4141 
L 1084 4478 
L 1084 3319 
L 1650 3319 
L 1650 2881 
L 1084 2881 
L 1084 941 
Q 1084 700 1114 631 
Q 1144 563 1211 522 
Q 1278 481 1403 481 
Q 1497 481 1650 503 
z
" transform="scale(0.015625)"/>
       <path id="ArialMT-6c" d="M 409 0 
L 409 4581 
L 972 4581 
L 972 0 
L 409 0 
z
" transform="scale(0.015625)"/>
       <path id="ArialMT-56" d="M 1803 0 
L 28 4581 
L 684 4581 
L 1875 1253 
Q 2019 853 2116 503 
Q 2222 878 2363 1253 
L 3600 4581 
L 4219 4581 
L 2425 0 
L 1803 0 
z
" transform="scale(0.015625)"/>
      </defs>
      <use xlink:href="#ArialMT-4d"/>
      <use xlink:href="#ArialMT-65" x="83.300781"/>
      <use xlink:href="#ArialMT-6d" x="138.916016"/>
      <use xlink:href="#ArialMT-62" x="222.216797"/>
      <use xlink:href="#ArialMT-72" x="277.832031"/>
      <use xlink:href="#ArialMT-61" x="311.132812"/>
      <use xlink:href="#ArialMT-6e" x="366.748047"/>
      <use xlink:href="#ArialMT-65" x="422.363281"/>
      <use xlink:href="#ArialMT-20" x="477.978516"/>
      <use xlink:href="#ArialMT-70" x="505.761719"/>
      <use xlink:href="#ArialMT-6f" x="561.376953"/>
      <use xlink:href="#ArialMT-74" x="616.992188"/>
      <use xlink:href="#ArialMT-65" x="644.775391"/>
      <use xlink:href="#ArialMT-6e" x="700.390625"/>
      <use xlink:href="#ArialMT-74" x="756.005859"/>
      <use xlink:href="#ArialMT-69" x="783.789062"/>
      <use xlink:href="#ArialMT-61" x="806.005859"/>
      <use xlink:href="#ArialMT-6c" x="861.621094"/>
      <use xlink:href="#ArialMT-20" x="883.837891"/>
      <use xlink:href="#ArialMT-28" x="911.621094"/>
      <use xlink:href="#ArialMT-6d" x="944.921875"/>
      <use xlink:href="#ArialMT-56" x="1028.222656"/>
      <use xlink:href="#ArialMT-29" x="1094.921875"/>
     </g>
    </g>
   </g>
   <g id="line2d_13">
    <path d="M 92.290909 438.768 
L 92.426182 453.919692 
L 92.696727 455.811398 
L 93.102545 456.892806 
L 93.508364 457.384985 
L 94.049455 457.664254 
L 94.861091 457.792104 
L 97.160727 457.830546 
L 159.927273 457.832178 
L 160.130182 430.382401 
L 160.536 417.854628 
L 161.144727 406.419864 
L 161.888727 396.691619 
L 162.903273 386.391167 
L 164.458909 373.092829 
L 165.338182 366.975828 
L 166.961455 357.428858 
L 167.705455 350.118669 
L 168.72 338.405357 
L 169.058182 332.046483 
L 169.261091 323.994394 
L 169.396364 308.898514 
L 169.531636 176.916241 
L 169.734545 349.287781 
L 169.937455 367.663631 
L 170.005091 368.26016 
L 170.072727 368.189108 
L 170.275636 366.402251 
L 171.087273 358.050641 
L 171.831273 353.469606 
L 172.913455 346.408642 
L 173.589818 339.599395 
L 174.130909 331.130359 
L 174.401455 324.903927 
L 174.604364 314.296428 
L 174.672 304.981755 
L 174.739636 275.067411 
L 174.807273 187.297895 
L 175.010182 334.470366 
L 175.213091 356.408782 
L 175.416 359.38492 
L 175.483636 359.291049 
L 175.686545 357.819514 
L 176.633455 348.810193 
L 178.053818 338.706452 
L 178.459636 332.550458 
L 178.662545 326.579257 
L 178.797818 317.893354 
L 178.865455 307.446639 
L 179.000727 178.675321 
L 179.203636 344.287879 
L 179.406545 365.028963 
L 179.609455 366.94824 
L 179.744727 366.196992 
L 180.285818 360.429603 
L 180.894545 355.198866 
L 181.368 352.690597 
L 182.179636 348.887315 
L 183.397091 341.41618 
L 183.802909 336.926628 
L 184.141091 330.158313 
L 184.344 321.239265 
L 184.479273 299.345256 
L 184.546909 182.591635 
L 184.614545 225.133483 
L 184.817455 350.400557 
L 185.020364 365.789709 
L 185.155636 366.750955 
L 185.290909 366.089514 
L 186.508364 356.134338 
L 187.049455 353.719801 
L 187.658182 349.602812 
L 188.402182 344.767483 
L 188.875636 341.414532 
L 189.281455 337.183381 
L 189.552 331.446123 
L 189.754909 322.080554 
L 189.890182 298.020668 
L 189.957818 162.515712 
L 190.025455 233.975784 
L 190.228364 353.299434 
L 190.431273 367.235073 
L 190.566545 368.004119 
L 190.701818 367.315692 
L 191.175273 362.217165 
L 191.716364 357.426312 
L 192.392727 354.344908 
L 192.730909 353.003322 
L 193.069091 352.589854 
L 193.339636 351.602578 
L 193.745455 349.740302 
L 194.218909 345.923317 
L 195.368727 336.001912 
L 195.842182 328.6414 
L 196.045091 319.62729 
L 196.112727 312.133524 
L 196.180364 291.678429 
L 196.248 163.312257 
L 196.450909 335.183295 
L 196.653818 360.735148 
L 196.856727 363.721169 
L 196.924364 363.647901 
L 197.127273 362.306948 
L 198.344727 351.725277 
L 199.156364 346.129486 
L 200.103273 336.857039 
L 200.509091 331.46069 
L 200.712 326.339568 
L 200.847273 319.617331 
L 200.982545 296.684136 
L 201.050182 183.158387 
L 201.117818 233.847257 
L 201.320727 346.958552 
L 201.523636 362.84669 
L 201.726545 364.60115 
L 201.861818 363.968099 
L 202.605818 357.439651 
L 203.079273 354.110106 
L 203.755636 349.29986 
L 204.364364 345.447897 
L 204.905455 343.286263 
L 205.311273 340.05087 
L 205.649455 335.595181 
L 205.92 328.470495 
L 206.055273 320.768789 
L 206.122909 312.637247 
L 206.190545 287.977008 
L 206.258182 154.617454 
L 206.461091 341.081898 
L 206.664 365.568895 
L 206.866909 367.509491 
L 207.002182 366.704703 
L 207.543273 360.655835 
L 208.219636 354.144076 
L 209.64 343.664514 
L 209.978182 343.53238 
L 210.181091 342.882272 
L 210.451636 341.231026 
L 210.925091 336.400106 
L 211.263273 330.929765 
L 211.466182 324.053327 
L 211.601455 311.918222 
L 211.669091 290.061315 
L 211.736727 160.587938 
L 211.939636 337.151069 
L 212.142545 363.199162 
L 212.345455 365.883141 
L 212.480727 365.253168 
L 212.886545 360.832996 
L 213.698182 352.508302 
L 214.374545 347.689029 
L 214.577455 347.355883 
L 214.780364 347.117154 
L 215.118545 346.162969 
L 215.389091 344.523133 
L 215.727273 340.946905 
L 216.065455 334.729737 
L 216.336 325.149564 
L 216.471273 311.280294 
L 216.538909 279.607011 
L 216.606545 160.505529 
L 216.809455 344.716352 
L 217.012364 366.883911 
L 217.147636 368.43111 
L 217.215273 368.361157 
L 217.418182 366.91672 
L 218.703273 355.082114 
L 219.514909 350.153871 
L 220.461818 345.868013 
L 221.002909 340.792268 
L 221.814545 330.412128 
L 222.017455 320.108354 
L 222.085091 311.059058 
L 222.152727 278.549703 
L 222.220364 161.312434 
L 222.423273 343.371198 
L 222.626182 365.50019 
L 222.761455 367.273794 
L 222.829091 367.265976 
L 223.032 365.900497 
L 224.317091 354.185511 
L 225.805091 344.206578 
L 226.278545 339.41711 
L 226.616727 333.740912 
L 226.819636 327.613743 
L 226.954909 319.283137 
L 227.022545 309.852946 
L 227.090182 274.0401 
L 227.157818 167.684174 
L 227.360727 344.628908 
L 227.563636 365.551764 
L 227.698909 367.129852 
L 227.766545 367.088631 
L 227.969455 365.652991 
L 229.186909 354.134007 
L 230.133818 348.333578 
L 231.013091 341.967927 
L 231.757091 333.577926 
L 231.96 328.428022 
L 232.095273 321.586398 
L 232.230545 298.374223 
L 232.298182 170.201325 
L 232.365818 230.724516 
L 232.568727 351.541243 
L 232.771636 366.511011 
L 232.906909 367.455957 
L 233.042182 366.712691 
L 233.583273 360.433778 
L 234.259636 354.024672 
L 235.815273 341.261666 
L 236.221091 335.335483 
L 236.491636 327.677786 
L 236.626909 318.943713 
L 236.694545 308.876445 
L 236.829818 173.990913 
L 237.032727 346.637721 
L 237.235636 366.436204 
L 237.370909 367.709693 
L 237.506182 367.112809 
L 237.912 362.811364 
L 238.656 355.577097 
L 239.264727 351.434711 
L 240.211636 346.323562 
L 240.685091 341.365214 
L 241.023273 335.902885 
L 241.293818 327.648222 
L 241.429091 318.285672 
L 241.496727 306.931271 
L 241.632 187.583809 
L 241.834909 349.739831 
L 242.037818 367.321847 
L 242.173091 368.105226 
L 242.308364 367.278314 
L 243.864 353.29747 
L 245.690182 342.24086 
L 246.096 337.460446 
L 246.366545 331.844104 
L 246.569455 322.649321 
L 246.704727 298.658155 
L 246.772364 160.155657 
L 246.84 232.211747 
L 247.042909 354.053806 
L 247.245818 367.937407 
L 247.381091 368.564855 
L 247.516364 367.732946 
L 248.057455 361.47976 
L 248.733818 355.116894 
L 249.680727 348.373454 
L 250.762909 340.999461 
L 251.168727 336.307521 
L 251.439273 330.847294 
L 251.642182 322.364771 
L 251.777455 304.522742 
L 251.912727 197.792646 
L 252.115636 347.945204 
L 252.318545 365.289524 
L 252.453818 366.339262 
L 252.589091 365.676469 
L 252.994909 361.219024 
L 253.738909 353.607977 
L 255.091636 343.792451 
L 255.429818 341.240488 
L 255.700364 337.72981 
L 255.970909 331.725479 
L 256.173818 322.971877 
L 256.309091 304.340196 
L 256.444364 201.306084 
L 256.647273 349.810368 
L 256.850182 366.471159 
L 256.985455 367.404456 
L 257.120727 366.694571 
L 257.594182 361.574911 
L 258.270545 355.160817 
L 258.879273 351.307084 
L 259.420364 348.461976 
L 260.029091 344.207551 
L 260.367273 340.695705 
L 260.705455 334.389425 
L 260.908364 326.499561 
L 261.043636 312.127506 
L 261.111273 276.142521 
L 261.178909 159.431552 
L 261.381818 347.713168 
L 261.584727 369.062492 
L 261.72 370.230832 
L 261.855273 369.541479 
L 262.261091 365.076633 
L 262.937455 358.162115 
L 263.613818 353.743672 
L 265.034182 344.553174 
L 265.575273 339.169525 
L 266.048727 330.947848 
L 266.251636 322.98933 
L 266.386909 306.510586 
L 266.522182 186.703571 
L 266.725091 346.458824 
L 266.928 364.701688 
L 267.063273 365.901578 
L 267.198545 365.346061 
L 267.604364 361.266527 
L 268.280727 354.945617 
L 269.971636 341.586808 
L 270.445091 334.358802 
L 270.715636 327.779187 
L 270.850909 321.085605 
L 270.986182 299.518537 
L 271.053818 187.223978 
L 271.121455 224.884372 
L 271.324364 349.188902 
L 271.527273 364.075141 
L 271.662545 365.089021 
L 271.797818 364.470289 
L 272.203636 360.04886 
L 273.150545 350.671331 
L 273.826909 345.372327 
L 274.773818 340.566409 
L 275.179636 335.982175 
L 275.450182 330.481056 
L 275.653091 321.399094 
L 275.788364 296.574731 
L 275.856 162.095304 
L 275.923636 237.638468 
L 276.126545 351.471337 
L 276.329455 365.633141 
L 276.464727 366.543754 
L 276.6 365.910835 
L 277.005818 361.612672 
L 277.682182 355.052801 
L 279.508364 340.742127 
L 279.846545 336.477679 
L 280.117091 329.913682 
L 280.32 317.324022 
L 280.387636 304.580953 
L 280.522909 200.813273 
L 280.725818 350.121513 
L 280.928727 366.548584 
L 281.064 367.457443 
L 281.199273 366.774003 
L 281.605091 362.304773 
L 282.349091 354.835204 
L 282.957818 350.721964 
L 283.701818 345.596802 
L 284.648727 336.307878 
L 284.986909 330.705311 
L 285.189818 323.516304 
L 285.325091 310.783931 
L 285.392727 286.209302 
L 285.460364 162.902025 
L 285.663273 338.511982 
L 285.866182 362.760591 
L 286.069091 365.106248 
L 286.204364 364.348907 
L 288.774545 339.849659 
L 289.180364 332.330482 
L 289.383273 325.203582 
L 289.518545 313.719063 
L 289.586182 295.11466 
L 289.653818 162.042939 
L 289.721455 245.837594 
L 289.924364 352.750205 
L 290.127273 365.691231 
L 290.262545 366.25777 
L 290.397818 365.415269 
L 290.938909 359.162064 
L 291.547636 353.260283 
L 292.156364 349.218629 
L 292.900364 344.744053 
L 293.306182 341.058619 
L 293.712 334.952002 
L 293.982545 327.671243 
L 294.117818 319.470251 
L 294.185455 310.187084 
L 294.253091 275.714858 
L 294.320727 165.696117 
L 294.523636 344.006089 
L 294.726545 365.44222 
L 294.861818 367.036372 
L 294.929455 366.946894 
L 295.132364 365.360191 
L 296.349818 353.177699 
L 297.770182 343.408558 
L 298.243636 338.592153 
L 298.514182 333.70584 
L 298.717091 326.731809 
L 298.852364 315.692309 
L 298.92 298.581296 
L 298.987636 160.161599 
L 299.055273 232.552382 
L 299.258182 353.665382 
L 299.461091 367.239503 
L 299.596364 367.929502 
L 299.731636 367.203157 
L 300.272727 361.48131 
L 300.949091 355.694348 
L 302.437091 344.02733 
L 302.910545 338.344614 
L 303.181091 332.562271 
L 303.384 324.168877 
L 303.519273 307.432703 
L 303.654545 185.392936 
L 303.857455 349.128162 
L 304.060364 366.804268 
L 304.195636 367.715515 
L 304.330909 366.987862 
L 304.804364 361.741257 
L 305.345455 356.868897 
L 306.089455 352.504892 
L 307.306909 345.036421 
L 307.848 338.986075 
L 308.186182 332.407146 
L 308.389091 323.878307 
L 308.524364 305.46906 
L 308.659636 197.628345 
L 308.862545 351.049475 
L 309.065455 367.390534 
L 309.200727 368.049244 
L 309.403636 366.553053 
L 310.688727 353.860767 
L 311.838545 346.089396 
L 312.379636 341.153552 
L 312.785455 334.936332 
L 313.056 326.808595 
L 313.191273 316.995706 
L 313.258909 303.964422 
L 313.394182 204.638096 
L 313.597091 349.734075 
L 313.8 365.504479 
L 313.935273 366.476892 
L 314.070545 365.860954 
L 314.476364 361.783815 
L 315.288 354.138413 
L 315.964364 350.104946 
L 317.384727 341.096846 
L 317.722909 336.493642 
L 317.993455 330.482874 
L 318.196364 320.920933 
L 318.264 313.493108 
L 318.331636 293.608604 
L 318.399273 158.128282 
L 318.602182 338.017428 
L 318.805091 364.145803 
L 318.940364 366.243287 
L 319.008 366.236615 
L 319.210909 364.687419 
L 320.698909 349.325487 
L 321.578182 341.614845 
L 322.119273 336.211717 
L 322.389818 331.074335 
L 322.592727 322.908292 
L 322.728 305.876607 
L 322.863273 189.771444 
L 323.066182 346.72642 
L 323.269091 365.015596 
L 323.404364 366.228327 
L 323.539636 365.618969 
L 323.945455 361.110104 
L 324.757091 352.758328 
L 325.771636 342.947831 
L 326.245091 336.20538 
L 326.515636 328.969157 
L 326.650909 321.536047 
L 326.718545 314.023918 
L 326.786182 293.685888 
L 326.853818 154.875622 
L 327.056727 339.695413 
L 327.259636 364.959356 
L 327.462545 366.934882 
L 327.597818 366.204525 
L 328.071273 361.296528 
L 328.747636 354.946767 
L 329.424 350.905845 
L 329.965091 347.855365 
L 330.506182 342.791346 
L 330.912 339.60865 
L 331.250182 337.415702 
L 331.520727 334.063042 
L 331.723636 329.063959 
L 331.858909 322.461702 
L 331.994182 301.294643 
L 332.061818 182.839035 
L 332.129455 216.895755 
L 332.332364 350.52959 
L 332.535273 365.968966 
L 332.670545 366.828097 
L 332.805818 366.086126 
L 333.279273 360.753469 
L 334.023273 353.275541 
L 334.767273 348.264497 
L 335.646545 342.7695 
L 336.052364 337.245837 
L 336.322909 331.042478 
L 336.525818 321.077009 
L 336.593455 313.382658 
L 336.661091 291.937487 
L 336.728727 155.019094 
L 336.931636 340.325924 
L 337.134545 366.010391 
L 337.269818 367.85742 
L 337.337455 367.750778 
L 337.540364 366.031267 
L 338.690182 354.042403 
L 339.772364 346.452113 
L 340.516364 341.701633 
L 340.854545 337.689703 
L 341.125091 332.031818 
L 341.328 322.964881 
L 341.463273 300.561552 
L 341.530909 168.453977 
L 341.598545 223.27653 
L 341.801455 353.152846 
L 342.004364 367.495083 
L 342.072 368.053668 
L 342.139636 368.029484 
L 342.342545 366.426648 
L 343.424727 355.211835 
L 343.898182 352.944998 
L 344.304 350.915906 
L 344.709818 347.594134 
L 345.318545 340.652053 
L 345.724364 333.490469 
L 345.994909 324.614409 
L 346.130182 313.21396 
L 346.197818 295.127812 
L 346.265455 167.684155 
L 346.333091 246.050045 
L 346.536 351.514365 
L 346.738909 364.360944 
L 346.874182 365.045492 
L 347.009455 364.308605 
L 347.415273 359.754053 
L 348.159273 352.001174 
L 348.632727 349.004934 
L 349.106182 345.81599 
L 349.512 341.545472 
L 349.917818 335.048212 
L 350.188364 327.137239 
L 350.323636 318.247045 
L 350.391273 307.968806 
L 350.526545 177.911646 
L 350.729455 346.355932 
L 350.932364 365.751529 
L 351.067636 366.92799 
L 351.202909 366.265105 
L 351.608727 361.578408 
L 352.285091 354.404699 
L 353.029091 349.453131 
L 354.043636 342.145034 
L 354.381818 337.105912 
L 354.652364 329.912855 
L 354.787636 322.932191 
L 354.922909 300.660702 
L 354.990545 170.171532 
L 355.058182 223.50681 
L 355.261091 353.8783 
L 355.464 367.9769 
L 355.531636 368.462997 
L 355.599273 368.395316 
L 355.802182 366.730455 
L 356.749091 357.021876 
L 358.575273 342.482798 
L 359.048727 336.232386 
L 359.319273 330.343414 
L 359.522182 320.766338 
L 359.657455 293.994869 
L 359.725091 160.597417 
L 359.928 337.88098 
L 360.130909 363.631609 
L 360.333818 365.744196 
L 360.469091 364.936995 
L 361.010182 358.874855 
L 361.686545 352.379798 
L 362.701091 345.649664 
L 363.850909 338.501389 
L 364.121455 332.939873 
L 364.324364 323.434438 
L 364.459636 297.438189 
L 364.527273 148.334112 
L 364.594909 236.618362 
L 364.797818 355.735296 
L 365.000727 369.27333 
L 365.068364 369.770287 
L 365.136 369.705109 
L 365.338909 368.00314 
L 366.353455 357.258259 
L 367.097455 352.278881 
L 368.112 345.783948 
L 368.788364 339.151646 
L 369.058909 334.212518 
L 369.261818 327.082656 
L 369.397091 315.840749 
L 369.464727 298.195254 
L 369.532364 156.246227 
L 369.6 235.591265 
L 369.802909 355.054565 
L 370.005818 368.013836 
L 370.073455 368.491914 
L 370.141091 368.447768 
L 370.344 366.886309 
L 371.696727 353.077346 
L 373.455273 337.595843 
L 373.725818 331.828786 
L 373.928727 323.773989 
L 374.064 309.139115 
L 374.131636 272.339191 
L 374.199273 171.040962 
L 374.402182 344.129518 
L 374.605091 363.996686 
L 374.740364 365.430842 
L 374.808 365.353855 
L 375.010909 363.838133 
L 376.296 351.415081 
L 377.04 346.47113 
L 377.445818 344.178519 
L 377.784 340.728775 
L 378.189818 334.113487 
L 378.460364 325.780354 
L 378.595636 315.645297 
L 378.663273 301.675811 
L 378.730909 198.12599 
L 378.798545 214.503999 
L 379.001455 349.75989 
L 379.204364 365.456741 
L 379.339636 366.255738 
L 379.474909 365.403225 
L 380.016 358.86463 
L 380.489455 354.524802 
L 381.571636 347.004048 
L 382.045091 341.790226 
L 382.383273 335.234152 
L 382.586182 327.612522 
L 382.721455 315.287004 
L 382.789091 293.076131 
L 382.856727 146.458765 
L 383.059636 343.94475 
L 383.262545 369.232931 
L 383.397818 370.638598 
L 383.533091 369.918248 
L 384.074182 363.635369 
L 384.615273 358.584399 
L 386.373818 346.286381 
L 387.050182 342.010019 
L 387.388364 338.124156 
L 387.658909 332.908488 
L 387.861818 325.115994 
L 387.997091 310.50986 
L 388.064727 272.76564 
L 388.132364 166.054428 
L 388.335273 345.89316 
L 388.538182 366.219808 
L 388.673455 367.455022 
L 388.808727 366.835251 
L 389.214545 362.366952 
L 389.890909 355.754893 
L 391.581818 342.590706 
L 392.190545 333.352717 
L 392.461091 326.533188 
L 392.596364 320.048348 
L 392.731636 300.213347 
L 392.799273 213.727779 
L 392.866909 218.046234 
L 393.069818 345.682425 
L 393.272727 361.242082 
L 393.408 362.460158 
L 393.475636 362.353854 
L 393.678545 360.857943 
L 395.504727 340.8796 
L 396.113455 331.006048 
L 396.384 322.959578 
L 396.519273 312.277759 
L 396.586909 296.274609 
L 396.654545 189.363986 
L 396.722182 235.273185 
L 396.925091 345.809325 
L 397.128 360.82365 
L 397.263273 362.134549 
L 397.330909 362.038723 
L 397.533818 360.470228 
L 399.292364 342.650928 
L 399.833455 337.152648 
L 400.171636 331.028044 
L 400.374545 323.265425 
L 400.509818 307.694593 
L 400.645091 177.804038 
L 400.848 343.831328 
L 401.050909 363.707087 
L 401.186182 365.301185 
L 401.253818 365.238589 
L 401.456727 363.711378 
L 402.674182 351.908325 
L 403.824 344.212995 
L 404.297455 339.419463 
L 404.703273 333.37475 
L 404.906182 327.420637 
L 405.041455 319.169644 
L 405.109091 309.753716 
L 405.176727 273.906095 
L 405.244364 167.475572 
L 405.447273 343.367578 
L 405.650182 364.613367 
L 405.785455 366.336378 
L 405.853091 366.304953 
L 406.056 364.807883 
L 407.544 349.639907 
L 408.490909 343.221329 
L 409.167273 339.193006 
L 409.437818 335.127548 
L 409.708364 327.07959 
L 409.843636 317.016264 
L 409.911273 303.054 
L 409.978909 190.600333 
L 410.046545 209.121762 
L 410.249455 351.083267 
L 410.452364 367.253213 
L 410.587636 368.076769 
L 410.722909 367.233092 
L 411.331636 359.993851 
L 411.940364 354.578442 
L 413.157818 344.65529 
L 413.563636 339.907207 
L 413.901818 333.006962 
L 414.104727 324.530609 
L 414.24 307.398807 
L 414.375273 186.966587 
L 414.578182 350.242216 
L 414.781091 367.715191 
L 414.916364 368.642687 
L 415.051636 367.907764 
L 415.592727 361.748537 
L 416.201455 356.19494 
L 416.810182 352.512225 
L 417.554182 348.770284 
L 417.892364 347.236942 
L 418.298182 343.94352 
L 418.636364 339.374183 
L 418.974545 331.54303 
L 419.177455 320.209909 
L 419.245091 310.330461 
L 419.380364 168.620056 
L 419.583273 348.297872 
L 419.786182 367.973829 
L 419.921455 368.827957 
L 420.056727 367.93591 
L 421.544727 353.557562 
L 422.424 347.723205 
L 423.168 341.449127 
L 423.709091 335.18778 
L 423.979636 328.525541 
L 424.114909 321.624803 
L 424.250182 299.386619 
L 424.317818 178.16997 
L 424.385455 226.642037 
L 424.588364 350.919389 
L 424.791273 365.229921 
L 424.926545 365.926601 
L 425.061818 365.14682 
L 425.535273 359.707756 
L 426.211636 352.805776 
L 427.361455 342.383543 
L 427.834909 335.210962 
L 428.105455 328.092078 
L 428.240727 320.177237 
L 428.308364 311.537775 
L 428.376 283.149686 
L 428.443636 159.439675 
L 428.646545 342.733843 
L 428.849455 364.948535 
L 428.984727 366.528972 
L 429.052364 366.45625 
L 429.255273 365.022778 
L 430.472727 353.569508 
L 430.675636 395.942629 
L 431.013818 412.437034 
L 431.690182 431.934347 
L 432.298909 443.68837 
L 432.772364 449.08769 
L 433.245818 452.252549 
L 433.786909 454.348691 
L 434.328 455.610902 
L 434.936727 456.516427 
L 435.680727 457.214635 
L 436.492364 457.67552 
L 437.506909 457.991486 
L 438.859636 458.167433 
L 441.091636 458.201422 
L 445.149818 458.016141 
L 449.546182 457.863729 
L 461.720727 457.823682 
L 498.109091 457.825373 
L 498.109091 457.825373 
" clip-path="url(#pda00ffd117)" style="fill: none; stroke: #000000; stroke-width: 1.5; stroke-linecap: square"/>
   </g>
   <g id="line2d_14">
    <path d="M 497.973818 408.87 
" clip-path="url(#pda00ffd117)" style="fill: none; stroke: #000000; stroke-width: 1.5; stroke-linecap: square"/>
   </g>
   <g id="line2d_15">
    <path d="M 430.472727 368.1 
L 430.472727 365.382 
L 430.472727 362.664 
L 430.472727 359.946 
L 430.472727 357.228 
L 430.472727 354.51 
L 430.472727 351.792 
L 430.472727 349.074 
L 430.472727 346.356 
L 430.472727 343.638 
L 430.472727 340.92 
L 430.472727 338.202 
L 430.472727 335.484 
L 430.472727 332.766 
L 430.472727 330.048 
L 430.472727 327.33 
L 430.472727 324.612 
L 430.472727 321.894 
L 430.472727 319.176 
L 430.472727 316.458 
" clip-path="url(#pda00ffd117)" style="fill: none; stroke: #000000; stroke-width: 1.5; stroke-linecap: square"/>
   </g>
   <g id="patch_3">
    <path d="M 72 504 
L 72 69.12 
" style="fill: none; stroke: #000000; stroke-width: 0.8; stroke-linejoin: miter; stroke-linecap: square"/>
   </g>
   <g id="patch_4">
    <path d="M 518.4 504 
L 518.4 69.12 
" style="fill: none; stroke: #000000; stroke-width: 0.8; stroke-linejoin: miter; stroke-linecap: square"/>
   </g>
   <g id="patch_5">
    <path d="M 72 504 
L 518.4 504 
" style="fill: none; stroke: #000000; stroke-width: 0.8; stroke-linejoin: miter; stroke-linecap: square"/>
   </g>
   <g id="patch_6">
    <path d="M 72 69.12 
L 518.4 69.12 
" style="fill: none; stroke: #000000; stroke-width: 0.8; stroke-linejoin: miter; stroke-linecap: square"/>
   </g>
   <g id="text_15">
    <!-- 500 ms -->
    <g transform="translate(497.973818 406.152)scale(0.22 -0.22)">
     <defs>
      <path id="ArialMT-35" d="M 266 1200 
L 856 1250 
Q 922 819 1161 601 
Q 1400 384 1738 384 
Q 2144 384 2425 690 
Q 2706 997 2706 1503 
Q 2706 1984 2436 2262 
Q 2166 2541 1728 2541 
Q 1456 2541 1237 2417 
Q 1019 2294 894 2097 
L 366 2166 
L 809 4519 
L 3088 4519 
L 3088 3981 
L 1259 3981 
L 1013 2750 
Q 1425 3038 1878 3038 
Q 2478 3038 2890 2622 
Q 3303 2206 3303 1553 
Q 3303 931 2941 478 
Q 2500 -78 1738 -78 
Q 1113 -78 717 272 
Q 322 622 266 1200 
z
" transform="scale(0.015625)"/>
      <path id="ArialMT-30" d="M 266 2259 
Q 266 3072 433 3567 
Q 600 4063 929 4331 
Q 1259 4600 1759 4600 
Q 2128 4600 2406 4451 
Q 2684 4303 2865 4023 
Q 3047 3744 3150 3342 
Q 3253 2941 3253 2259 
Q 3253 1453 3087 958 
Q 2922 463 2592 192 
Q 2263 -78 1759 -78 
Q 1097 -78 719 397 
Q 266 969 266 2259 
z
M 844 2259 
Q 844 1131 1108 757 
Q 1372 384 1759 384 
Q 2147 384 2411 759 
Q 2675 1134 2675 2259 
Q 2675 3391 2411 3762 
Q 2147 4134 1753 4134 
Q 1366 4134 1134 3806 
Q 844 3388 844 2259 
z
" transform="scale(0.015625)"/>
     </defs>
     <use xlink:href="#ArialMT-35"/>
     <use xlink:href="#ArialMT-30" x="55.615234"/>
     <use xlink:href="#ArialMT-30" x="111.230469"/>
     <use xlink:href="#ArialMT-20" x="166.845703"/>
     <use xlink:href="#ArialMT-6d" x="194.628906"/>
     <use xlink:href="#ArialMT-73" x="277.929688"/>
    </g>
   </g>
   <g id="text_16">
    <!-- 20 mV -->
    <g transform="translate(504.737455 321.894)scale(0.22 -0.22)">
     <defs>
      <path id="ArialMT-32" d="M 3222 541 
L 3222 0 
L 194 0 
Q 188 203 259 391 
Q 375 700 629 1000 
Q 884 1300 1366 1694 
Q 2113 2306 2375 2664 
Q 2638 3022 2638 3341 
Q 2638 3675 2398 3904 
Q 2159 4134 1775 4134 
Q 1369 4134 1125 3890 
Q 881 3647 878 3216 
L 300 3275 
Q 359 3922 746 4261 
Q 1134 4600 1788 4600 
Q 2447 4600 2831 4234 
Q 3216 3869 3216 3328 
Q 3216 3053 3103 2787 
Q 2991 2522 2730 2228 
Q 2469 1934 1863 1422 
Q 1356 997 1212 845 
Q 1069 694 975 541 
L 3222 541 
z
" transform="scale(0.015625)"/>
     </defs>
     <use xlink:href="#ArialMT-32"/>
     <use xlink:href="#ArialMT-30" x="55.615234"/>
     <use xlink:href="#ArialMT-20" x="111.230469"/>
     <use xlink:href="#ArialMT-6d" x="139.013672"/>
     <use xlink:href="#ArialMT-56" x="222.314453"/>
    </g>
   </g>
   <g id="text_17">
    <!--  Plotting dSPN, trace number 6191  -->
    <g transform="translate(122.17 63.12)scale(0.22 -0.22)">
     <defs>
      <path id="ArialMT-50" d="M 494 0 
L 494 4581 
L 2222 4581 
Q 2678 4581 2919 4538 
Q 3256 4481 3484 4323 
Q 3713 4166 3852 3881 
Q 3991 3597 3991 3256 
Q 3991 2672 3619 2267 
Q 3247 1863 2275 1863 
L 1100 1863 
L 1100 0 
L 494 0 
z
M 1100 2403 
L 2284 2403 
Q 2872 2403 3119 2622 
Q 3366 2841 3366 3238 
Q 3366 3525 3220 3729 
Q 3075 3934 2838 4000 
Q 2684 4041 2272 4041 
L 1100 4041 
L 1100 2403 
z
" transform="scale(0.015625)"/>
      <path id="ArialMT-67" d="M 319 -275 
L 866 -356 
Q 900 -609 1056 -725 
Q 1266 -881 1628 -881 
Q 2019 -881 2231 -725 
Q 2444 -569 2519 -288 
Q 2563 -116 2559 434 
Q 2191 0 1641 0 
Q 956 0 581 494 
Q 206 988 206 1678 
Q 206 2153 378 2554 
Q 550 2956 876 3175 
Q 1203 3394 1644 3394 
Q 2231 3394 2613 2919 
L 2613 3319 
L 3131 3319 
L 3131 450 
Q 3131 -325 2973 -648 
Q 2816 -972 2473 -1159 
Q 2131 -1347 1631 -1347 
Q 1038 -1347 672 -1080 
Q 306 -813 319 -275 
z
M 784 1719 
Q 784 1066 1043 766 
Q 1303 466 1694 466 
Q 2081 466 2343 764 
Q 2606 1063 2606 1700 
Q 2606 2309 2336 2618 
Q 2066 2928 1684 2928 
Q 1309 2928 1046 2623 
Q 784 2319 784 1719 
z
" transform="scale(0.015625)"/>
      <path id="ArialMT-64" d="M 2575 0 
L 2575 419 
Q 2259 -75 1647 -75 
Q 1250 -75 917 144 
Q 584 363 401 755 
Q 219 1147 219 1656 
Q 219 2153 384 2558 
Q 550 2963 881 3178 
Q 1213 3394 1622 3394 
Q 1922 3394 2156 3267 
Q 2391 3141 2538 2938 
L 2538 4581 
L 3097 4581 
L 3097 0 
L 2575 0 
z
M 797 1656 
Q 797 1019 1065 703 
Q 1334 388 1700 388 
Q 2069 388 2326 689 
Q 2584 991 2584 1609 
Q 2584 2291 2321 2609 
Q 2059 2928 1675 2928 
Q 1300 2928 1048 2622 
Q 797 2316 797 1656 
z
" transform="scale(0.015625)"/>
      <path id="ArialMT-53" d="M 288 1472 
L 859 1522 
Q 900 1178 1048 958 
Q 1197 738 1509 602 
Q 1822 466 2213 466 
Q 2559 466 2825 569 
Q 3091 672 3220 851 
Q 3350 1031 3350 1244 
Q 3350 1459 3225 1620 
Q 3100 1781 2813 1891 
Q 2628 1963 1997 2114 
Q 1366 2266 1113 2400 
Q 784 2572 623 2826 
Q 463 3081 463 3397 
Q 463 3744 659 4045 
Q 856 4347 1234 4503 
Q 1613 4659 2075 4659 
Q 2584 4659 2973 4495 
Q 3363 4331 3572 4012 
Q 3781 3694 3797 3291 
L 3216 3247 
Q 3169 3681 2898 3903 
Q 2628 4125 2100 4125 
Q 1550 4125 1298 3923 
Q 1047 3722 1047 3438 
Q 1047 3191 1225 3031 
Q 1400 2872 2139 2705 
Q 2878 2538 3153 2413 
Q 3553 2228 3743 1945 
Q 3934 1663 3934 1294 
Q 3934 928 3725 604 
Q 3516 281 3123 101 
Q 2731 -78 2241 -78 
Q 1619 -78 1198 103 
Q 778 284 539 648 
Q 300 1013 288 1472 
z
" transform="scale(0.015625)"/>
      <path id="ArialMT-4e" d="M 488 0 
L 488 4581 
L 1109 4581 
L 3516 984 
L 3516 4581 
L 4097 4581 
L 4097 0 
L 3475 0 
L 1069 3600 
L 1069 0 
L 488 0 
z
" transform="scale(0.015625)"/>
      <path id="ArialMT-2c" d="M 569 0 
L 569 641 
L 1209 641 
L 1209 0 
Q 1209 -353 1084 -570 
Q 959 -788 688 -906 
L 531 -666 
Q 709 -588 793 -436 
Q 878 -284 888 0 
L 569 0 
z
" transform="scale(0.015625)"/>
      <path id="ArialMT-63" d="M 2588 1216 
L 3141 1144 
Q 3050 572 2676 248 
Q 2303 -75 1759 -75 
Q 1078 -75 664 370 
Q 250 816 250 1647 
Q 250 2184 428 2587 
Q 606 2991 970 3192 
Q 1334 3394 1763 3394 
Q 2303 3394 2647 3120 
Q 2991 2847 3088 2344 
L 2541 2259 
Q 2463 2594 2264 2762 
Q 2066 2931 1784 2931 
Q 1359 2931 1093 2626 
Q 828 2322 828 1663 
Q 828 994 1084 691 
Q 1341 388 1753 388 
Q 2084 388 2306 591 
Q 2528 794 2588 1216 
z
" transform="scale(0.015625)"/>
      <path id="ArialMT-75" d="M 2597 0 
L 2597 488 
Q 2209 -75 1544 -75 
Q 1250 -75 995 37 
Q 741 150 617 320 
Q 494 491 444 738 
Q 409 903 409 1263 
L 409 3319 
L 972 3319 
L 972 1478 
Q 972 1038 1006 884 
Q 1059 663 1231 536 
Q 1403 409 1656 409 
Q 1909 409 2131 539 
Q 2353 669 2445 892 
Q 2538 1116 2538 1541 
L 2538 3319 
L 3100 3319 
L 3100 0 
L 2597 0 
z
" transform="scale(0.015625)"/>
      <path id="ArialMT-36" d="M 3184 3459 
L 2625 3416 
Q 2550 3747 2413 3897 
Q 2184 4138 1850 4138 
Q 1581 4138 1378 3988 
Q 1113 3794 959 3422 
Q 806 3050 800 2363 
Q 1003 2672 1297 2822 
Q 1591 2972 1913 2972 
Q 2475 2972 2870 2558 
Q 3266 2144 3266 1488 
Q 3266 1056 3080 686 
Q 2894 316 2569 119 
Q 2244 -78 1831 -78 
Q 1128 -78 684 439 
Q 241 956 241 2144 
Q 241 3472 731 4075 
Q 1159 4600 1884 4600 
Q 2425 4600 2770 4297 
Q 3116 3994 3184 3459 
z
M 888 1484 
Q 888 1194 1011 928 
Q 1134 663 1356 523 
Q 1578 384 1822 384 
Q 2178 384 2434 671 
Q 2691 959 2691 1453 
Q 2691 1928 2437 2201 
Q 2184 2475 1800 2475 
Q 1419 2475 1153 2201 
Q 888 1928 888 1484 
z
" transform="scale(0.015625)"/>
      <path id="ArialMT-31" d="M 2384 0 
L 1822 0 
L 1822 3584 
Q 1619 3391 1289 3197 
Q 959 3003 697 2906 
L 697 3450 
Q 1169 3672 1522 3987 
Q 1875 4303 2022 4600 
L 2384 4600 
L 2384 0 
z
" transform="scale(0.015625)"/>
      <path id="ArialMT-39" d="M 350 1059 
L 891 1109 
Q 959 728 1153 556 
Q 1347 384 1650 384 
Q 1909 384 2104 503 
Q 2300 622 2425 820 
Q 2550 1019 2634 1356 
Q 2719 1694 2719 2044 
Q 2719 2081 2716 2156 
Q 2547 1888 2255 1720 
Q 1963 1553 1622 1553 
Q 1053 1553 659 1965 
Q 266 2378 266 3053 
Q 266 3750 677 4175 
Q 1088 4600 1706 4600 
Q 2153 4600 2523 4359 
Q 2894 4119 3086 3673 
Q 3278 3228 3278 2384 
Q 3278 1506 3087 986 
Q 2897 466 2520 194 
Q 2144 -78 1638 -78 
Q 1100 -78 759 220 
Q 419 519 350 1059 
z
M 2653 3081 
Q 2653 3566 2395 3850 
Q 2138 4134 1775 4134 
Q 1400 4134 1122 3828 
Q 844 3522 844 3034 
Q 844 2597 1108 2323 
Q 1372 2050 1759 2050 
Q 2150 2050 2401 2323 
Q 2653 2597 2653 3081 
z
" transform="scale(0.015625)"/>
     </defs>
     <use xlink:href="#ArialMT-20"/>
     <use xlink:href="#ArialMT-50" x="27.783203"/>
     <use xlink:href="#ArialMT-6c" x="94.482422"/>
     <use xlink:href="#ArialMT-6f" x="116.699219"/>
     <use xlink:href="#ArialMT-74" x="172.314453"/>
     <use xlink:href="#ArialMT-74" x="200.097656"/>
     <use xlink:href="#ArialMT-69" x="227.880859"/>
     <use xlink:href="#ArialMT-6e" x="250.097656"/>
     <use xlink:href="#ArialMT-67" x="305.712891"/>
     <use xlink:href="#ArialMT-20" x="361.328125"/>
     <use xlink:href="#ArialMT-64" x="389.111328"/>
     <use xlink:href="#ArialMT-53" x="444.726562"/>
     <use xlink:href="#ArialMT-50" x="511.425781"/>
     <use xlink:href="#ArialMT-4e" x="578.125"/>
     <use xlink:href="#ArialMT-2c" x="650.341797"/>
     <use xlink:href="#ArialMT-20" x="678.125"/>
     <use xlink:href="#ArialMT-74" x="705.908203"/>
     <use xlink:href="#ArialMT-72" x="733.691406"/>
     <use xlink:href="#ArialMT-61" x="766.992188"/>
     <use xlink:href="#ArialMT-63" x="822.607422"/>
     <use xlink:href="#ArialMT-65" x="872.607422"/>
     <use xlink:href="#ArialMT-20" x="928.222656"/>
     <use xlink:href="#ArialMT-6e" x="956.005859"/>
     <use xlink:href="#ArialMT-75" x="1011.621094"/>
     <use xlink:href="#ArialMT-6d" x="1067.236328"/>
     <use xlink:href="#ArialMT-62" x="1150.537109"/>
     <use xlink:href="#ArialMT-65" x="1206.152344"/>
     <use xlink:href="#ArialMT-72" x="1261.767578"/>
     <use xlink:href="#ArialMT-20" x="1295.068359"/>
     <use xlink:href="#ArialMT-36" x="1322.851562"/>
     <use xlink:href="#ArialMT-31" x="1378.466797"/>
     <use xlink:href="#ArialMT-39" x="1434.082031"/>
     <use xlink:href="#ArialMT-31" x="1489.697266"/>
     <use xlink:href="#ArialMT-20" x="1545.3125"/>
    </g>
   </g>
  </g>
 </g>
 <defs>
  <clipPath id="pda00ffd117">
   <rect x="72" y="69.12" width="446.4" height="434.88"/>
  </clipPath>
 </defs>
</svg>
