<?xml version="1.0" encoding="utf-8" standalone="no"?>
<!DOCTYPE svg PUBLIC "-//W3C//DTD SVG 1.1//EN"
  "http://www.w3.org/Graphics/SVG/1.1/DTD/svg11.dtd">
<svg xmlns:xlink="http://www.w3.org/1999/xlink" width="576pt" height="576pt" viewBox="0 0 576 576" xmlns="http://www.w3.org/2000/svg" version="1.1">
 <metadata>
  <rdf:RDF xmlns:dc="http://purl.org/dc/elements/1.1/" xmlns:cc="http://creativecommons.org/ns#" xmlns:rdf="http://www.w3.org/1999/02/22-rdf-syntax-ns#">
   <cc:Work>
    <dc:type rdf:resource="http://purl.org/dc/dcmitype/StillImage"/>
    <dc:date>2022-10-30T19:57:09.652097</dc:date>
    <dc:format>image/svg+xml</dc:format>
    <dc:creator>
     <cc:Agent>
      <dc:title>Matplotlib v3.5.2, https://matplotlib.org/</dc:title>
     </cc:Agent>
    </dc:creator>
   </cc:Work>
  </rdf:RDF>
 </metadata>
 <defs>
  <style type="text/css">*{stroke-linejoin: round; stroke-linecap: butt}</style>
 </defs>
 <g id="figure_1">
  <g id="patch_1">
   <path d="M 0 576 
L 576 576 
L 576 0 
L 0 0 
L 0 576 
z
" style="fill: none"/>
  </g>
  <g id="axes_1">
   <g id="patch_2">
    <path d="M 72 504 
L 518.4 504 
L 518.4 69.12 
L 72 69.12 
z
" style="fill: #ffffff"/>
   </g>
   <g id="matplotlib.axis_1">
    <g id="xtick_1">
     <g id="line2d_1">
      <defs>
       <path id="mffe6c0c463" d="M 0 0 
L 0 3.5 
" style="stroke: #000000; stroke-width: 0.8"/>
      </defs>
      <g>
       <use xlink:href="#mffe6c0c463" x="92.290909" y="504" style="stroke: #000000; stroke-width: 0.8"/>
      </g>
     </g>
     <g id="text_1">
      <!-- 0 -->
      <g transform="translate(85.292159 527.716563)scale(0.22 -0.22)">
       <defs>
        <path id="DejaVuSans-30" d="M 2034 4250 
Q 1547 4250 1301 3770 
Q 1056 3291 1056 2328 
Q 1056 1369 1301 889 
Q 1547 409 2034 409 
Q 2525 409 2770 889 
Q 3016 1369 3016 2328 
Q 3016 3291 2770 3770 
Q 2525 4250 2034 4250 
z
M 2034 4750 
Q 2819 4750 3233 4129 
Q 3647 3509 3647 2328 
Q 3647 1150 3233 529 
Q 2819 -91 2034 -91 
Q 1250 -91 836 529 
Q 422 1150 422 2328 
Q 422 3509 836 4129 
Q 1250 4750 2034 4750 
z
" transform="scale(0.015625)"/>
       </defs>
       <use xlink:href="#DejaVuSans-30"/>
      </g>
     </g>
    </g>
    <g id="xtick_2">
     <g id="line2d_2">
      <g>
       <use xlink:href="#mffe6c0c463" x="227.563636" y="504" style="stroke: #000000; stroke-width: 0.8"/>
      </g>
     </g>
     <g id="text_2">
      <!-- 1000 -->
      <g transform="translate(199.568636 527.716563)scale(0.22 -0.22)">
       <defs>
        <path id="DejaVuSans-31" d="M 794 531 
L 1825 531 
L 1825 4091 
L 703 3866 
L 703 4441 
L 1819 4666 
L 2450 4666 
L 2450 531 
L 3481 531 
L 3481 0 
L 794 0 
L 794 531 
z
" transform="scale(0.015625)"/>
       </defs>
       <use xlink:href="#DejaVuSans-31"/>
       <use xlink:href="#DejaVuSans-30" x="63.623047"/>
       <use xlink:href="#DejaVuSans-30" x="127.246094"/>
       <use xlink:href="#DejaVuSans-30" x="190.869141"/>
      </g>
     </g>
    </g>
    <g id="xtick_3">
     <g id="line2d_3">
      <g>
       <use xlink:href="#mffe6c0c463" x="362.836364" y="504" style="stroke: #000000; stroke-width: 0.8"/>
      </g>
     </g>
     <g id="text_3">
      <!-- 2000 -->
      <g transform="translate(334.841364 527.716563)scale(0.22 -0.22)">
       <defs>
        <path id="DejaVuSans-32" d="M 1228 531 
L 3431 531 
L 3431 0 
L 469 0 
L 469 531 
Q 828 903 1448 1529 
Q 2069 2156 2228 2338 
Q 2531 2678 2651 2914 
Q 2772 3150 2772 3378 
Q 2772 3750 2511 3984 
Q 2250 4219 1831 4219 
Q 1534 4219 1204 4116 
Q 875 4013 500 3803 
L 500 4441 
Q 881 4594 1212 4672 
Q 1544 4750 1819 4750 
Q 2544 4750 2975 4387 
Q 3406 4025 3406 3419 
Q 3406 3131 3298 2873 
Q 3191 2616 2906 2266 
Q 2828 2175 2409 1742 
Q 1991 1309 1228 531 
z
" transform="scale(0.015625)"/>
       </defs>
       <use xlink:href="#DejaVuSans-32"/>
       <use xlink:href="#DejaVuSans-30" x="63.623047"/>
       <use xlink:href="#DejaVuSans-30" x="127.246094"/>
       <use xlink:href="#DejaVuSans-30" x="190.869141"/>
      </g>
     </g>
    </g>
    <g id="xtick_4">
     <g id="line2d_4">
      <g>
       <use xlink:href="#mffe6c0c463" x="498.109091" y="504" style="stroke: #000000; stroke-width: 0.8"/>
      </g>
     </g>
     <g id="text_4">
      <!-- 3000 -->
      <g transform="translate(470.114091 527.716563)scale(0.22 -0.22)">
       <defs>
        <path id="DejaVuSans-33" d="M 2597 2516 
Q 3050 2419 3304 2112 
Q 3559 1806 3559 1356 
Q 3559 666 3084 287 
Q 2609 -91 1734 -91 
Q 1441 -91 1130 -33 
Q 819 25 488 141 
L 488 750 
Q 750 597 1062 519 
Q 1375 441 1716 441 
Q 2309 441 2620 675 
Q 2931 909 2931 1356 
Q 2931 1769 2642 2001 
Q 2353 2234 1838 2234 
L 1294 2234 
L 1294 2753 
L 1863 2753 
Q 2328 2753 2575 2939 
Q 2822 3125 2822 3475 
Q 2822 3834 2567 4026 
Q 2313 4219 1838 4219 
Q 1578 4219 1281 4162 
Q 984 4106 628 3988 
L 628 4550 
Q 988 4650 1302 4700 
Q 1616 4750 1894 4750 
Q 2613 4750 3031 4423 
Q 3450 4097 3450 3541 
Q 3450 3153 3228 2886 
Q 3006 2619 2597 2516 
z
" transform="scale(0.015625)"/>
       </defs>
       <use xlink:href="#DejaVuSans-33"/>
       <use xlink:href="#DejaVuSans-30" x="63.623047"/>
       <use xlink:href="#DejaVuSans-30" x="127.246094"/>
       <use xlink:href="#DejaVuSans-30" x="190.869141"/>
      </g>
     </g>
    </g>
    <g id="text_5">
     <!-- Time(ms) -->
     <g transform="translate(249.182187 552.307188)scale(0.22 -0.22)">
      <defs>
       <path id="ArialMT-54" d="M 1659 0 
L 1659 4041 
L 150 4041 
L 150 4581 
L 3781 4581 
L 3781 4041 
L 2266 4041 
L 2266 0 
L 1659 0 
z
" transform="scale(0.015625)"/>
       <path id="ArialMT-69" d="M 425 3934 
L 425 4581 
L 988 4581 
L 988 3934 
L 425 3934 
z
M 425 0 
L 425 3319 
L 988 3319 
L 988 0 
L 425 0 
z
" transform="scale(0.015625)"/>
       <path id="ArialMT-6d" d="M 422 0 
L 422 3319 
L 925 3319 
L 925 2853 
Q 1081 3097 1340 3245 
Q 1600 3394 1931 3394 
Q 2300 3394 2536 3241 
Q 2772 3088 2869 2813 
Q 3263 3394 3894 3394 
Q 4388 3394 4653 3120 
Q 4919 2847 4919 2278 
L 4919 0 
L 4359 0 
L 4359 2091 
Q 4359 2428 4304 2576 
Q 4250 2725 4106 2815 
Q 3963 2906 3769 2906 
Q 3419 2906 3187 2673 
Q 2956 2441 2956 1928 
L 2956 0 
L 2394 0 
L 2394 2156 
Q 2394 2531 2256 2718 
Q 2119 2906 1806 2906 
Q 1569 2906 1367 2781 
Q 1166 2656 1075 2415 
Q 984 2175 984 1722 
L 984 0 
L 422 0 
z
" transform="scale(0.015625)"/>
       <path id="ArialMT-65" d="M 2694 1069 
L 3275 997 
Q 3138 488 2766 206 
Q 2394 -75 1816 -75 
Q 1088 -75 661 373 
Q 234 822 234 1631 
Q 234 2469 665 2931 
Q 1097 3394 1784 3394 
Q 2450 3394 2872 2941 
Q 3294 2488 3294 1666 
Q 3294 1616 3291 1516 
L 816 1516 
Q 847 969 1125 678 
Q 1403 388 1819 388 
Q 2128 388 2347 550 
Q 2566 713 2694 1069 
z
M 847 1978 
L 2700 1978 
Q 2663 2397 2488 2606 
Q 2219 2931 1791 2931 
Q 1403 2931 1139 2672 
Q 875 2413 847 1978 
z
" transform="scale(0.015625)"/>
       <path id="ArialMT-28" d="M 1497 -1347 
Q 1031 -759 709 28 
Q 388 816 388 1659 
Q 388 2403 628 3084 
Q 909 3875 1497 4659 
L 1900 4659 
Q 1522 4009 1400 3731 
Q 1209 3300 1100 2831 
Q 966 2247 966 1656 
Q 966 153 1900 -1347 
L 1497 -1347 
z
" transform="scale(0.015625)"/>
       <path id="ArialMT-73" d="M 197 991 
L 753 1078 
Q 800 744 1014 566 
Q 1228 388 1613 388 
Q 2000 388 2187 545 
Q 2375 703 2375 916 
Q 2375 1106 2209 1216 
Q 2094 1291 1634 1406 
Q 1016 1563 777 1677 
Q 538 1791 414 1992 
Q 291 2194 291 2438 
Q 291 2659 392 2848 
Q 494 3038 669 3163 
Q 800 3259 1026 3326 
Q 1253 3394 1513 3394 
Q 1903 3394 2198 3281 
Q 2494 3169 2634 2976 
Q 2775 2784 2828 2463 
L 2278 2388 
Q 2241 2644 2061 2787 
Q 1881 2931 1553 2931 
Q 1166 2931 1000 2803 
Q 834 2675 834 2503 
Q 834 2394 903 2306 
Q 972 2216 1119 2156 
Q 1203 2125 1616 2013 
Q 2213 1853 2448 1751 
Q 2684 1650 2818 1456 
Q 2953 1263 2953 975 
Q 2953 694 2789 445 
Q 2625 197 2315 61 
Q 2006 -75 1616 -75 
Q 969 -75 630 194 
Q 291 463 197 991 
z
" transform="scale(0.015625)"/>
       <path id="ArialMT-29" d="M 791 -1347 
L 388 -1347 
Q 1322 153 1322 1656 
Q 1322 2244 1188 2822 
Q 1081 3291 891 3722 
Q 769 4003 388 4659 
L 791 4659 
Q 1378 3875 1659 3084 
Q 1900 2403 1900 1659 
Q 1900 816 1576 28 
Q 1253 -759 791 -1347 
z
" transform="scale(0.015625)"/>
      </defs>
      <use xlink:href="#ArialMT-54"/>
      <use xlink:href="#ArialMT-69" x="57.333984"/>
      <use xlink:href="#ArialMT-6d" x="79.550781"/>
      <use xlink:href="#ArialMT-65" x="162.851562"/>
      <use xlink:href="#ArialMT-28" x="218.466797"/>
      <use xlink:href="#ArialMT-6d" x="251.767578"/>
      <use xlink:href="#ArialMT-73" x="335.068359"/>
      <use xlink:href="#ArialMT-29" x="385.068359"/>
     </g>
    </g>
   </g>
   <g id="matplotlib.axis_2">
    <g id="ytick_1">
     <g id="line2d_5">
      <defs>
       <path id="mefe9b0cb3b" d="M 0 0 
L -3.5 0 
" style="stroke: #000000; stroke-width: 0.8"/>
      </defs>
      <g>
       <use xlink:href="#mefe9b0cb3b" x="72" y="476.82" style="stroke: #000000; stroke-width: 0.8"/>
      </g>
     </g>
     <g id="text_6">
      <!-- −100 -->
      <g transform="translate(4.572187 485.178281)scale(0.22 -0.22)">
       <defs>
        <path id="DejaVuSans-2212" d="M 678 2272 
L 4684 2272 
L 4684 1741 
L 678 1741 
L 678 2272 
z
" transform="scale(0.015625)"/>
       </defs>
       <use xlink:href="#DejaVuSans-2212"/>
       <use xlink:href="#DejaVuSans-31" x="83.789062"/>
       <use xlink:href="#DejaVuSans-30" x="147.412109"/>
       <use xlink:href="#DejaVuSans-30" x="211.035156"/>
      </g>
     </g>
    </g>
    <g id="ytick_2">
     <g id="line2d_6">
      <g>
       <use xlink:href="#mefe9b0cb3b" x="72" y="422.46" style="stroke: #000000; stroke-width: 0.8"/>
      </g>
     </g>
     <g id="text_7">
      <!-- −80 -->
      <g transform="translate(18.569688 430.818281)scale(0.22 -0.22)">
       <defs>
        <path id="DejaVuSans-38" d="M 2034 2216 
Q 1584 2216 1326 1975 
Q 1069 1734 1069 1313 
Q 1069 891 1326 650 
Q 1584 409 2034 409 
Q 2484 409 2743 651 
Q 3003 894 3003 1313 
Q 3003 1734 2745 1975 
Q 2488 2216 2034 2216 
z
M 1403 2484 
Q 997 2584 770 2862 
Q 544 3141 544 3541 
Q 544 4100 942 4425 
Q 1341 4750 2034 4750 
Q 2731 4750 3128 4425 
Q 3525 4100 3525 3541 
Q 3525 3141 3298 2862 
Q 3072 2584 2669 2484 
Q 3125 2378 3379 2068 
Q 3634 1759 3634 1313 
Q 3634 634 3220 271 
Q 2806 -91 2034 -91 
Q 1263 -91 848 271 
Q 434 634 434 1313 
Q 434 1759 690 2068 
Q 947 2378 1403 2484 
z
M 1172 3481 
Q 1172 3119 1398 2916 
Q 1625 2713 2034 2713 
Q 2441 2713 2670 2916 
Q 2900 3119 2900 3481 
Q 2900 3844 2670 4047 
Q 2441 4250 2034 4250 
Q 1625 4250 1398 4047 
Q 1172 3844 1172 3481 
z
" transform="scale(0.015625)"/>
       </defs>
       <use xlink:href="#DejaVuSans-2212"/>
       <use xlink:href="#DejaVuSans-38" x="83.789062"/>
       <use xlink:href="#DejaVuSans-30" x="147.412109"/>
      </g>
     </g>
    </g>
    <g id="ytick_3">
     <g id="line2d_7">
      <g>
       <use xlink:href="#mefe9b0cb3b" x="72" y="368.1" style="stroke: #000000; stroke-width: 0.8"/>
      </g>
     </g>
     <g id="text_8">
      <!-- −60 -->
      <g transform="translate(18.569688 376.458281)scale(0.22 -0.22)">
       <defs>
        <path id="DejaVuSans-36" d="M 2113 2584 
Q 1688 2584 1439 2293 
Q 1191 2003 1191 1497 
Q 1191 994 1439 701 
Q 1688 409 2113 409 
Q 2538 409 2786 701 
Q 3034 994 3034 1497 
Q 3034 2003 2786 2293 
Q 2538 2584 2113 2584 
z
M 3366 4563 
L 3366 3988 
Q 3128 4100 2886 4159 
Q 2644 4219 2406 4219 
Q 1781 4219 1451 3797 
Q 1122 3375 1075 2522 
Q 1259 2794 1537 2939 
Q 1816 3084 2150 3084 
Q 2853 3084 3261 2657 
Q 3669 2231 3669 1497 
Q 3669 778 3244 343 
Q 2819 -91 2113 -91 
Q 1303 -91 875 529 
Q 447 1150 447 2328 
Q 447 3434 972 4092 
Q 1497 4750 2381 4750 
Q 2619 4750 2861 4703 
Q 3103 4656 3366 4563 
z
" transform="scale(0.015625)"/>
       </defs>
       <use xlink:href="#DejaVuSans-2212"/>
       <use xlink:href="#DejaVuSans-36" x="83.789062"/>
       <use xlink:href="#DejaVuSans-30" x="147.412109"/>
      </g>
     </g>
    </g>
    <g id="ytick_4">
     <g id="line2d_8">
      <g>
       <use xlink:href="#mefe9b0cb3b" x="72" y="313.74" style="stroke: #000000; stroke-width: 0.8"/>
      </g>
     </g>
     <g id="text_9">
      <!-- −40 -->
      <g transform="translate(18.569688 322.098281)scale(0.22 -0.22)">
       <defs>
        <path id="DejaVuSans-34" d="M 2419 4116 
L 825 1625 
L 2419 1625 
L 2419 4116 
z
M 2253 4666 
L 3047 4666 
L 3047 1625 
L 3713 1625 
L 3713 1100 
L 3047 1100 
L 3047 0 
L 2419 0 
L 2419 1100 
L 313 1100 
L 313 1709 
L 2253 4666 
z
" transform="scale(0.015625)"/>
       </defs>
       <use xlink:href="#DejaVuSans-2212"/>
       <use xlink:href="#DejaVuSans-34" x="83.789062"/>
       <use xlink:href="#DejaVuSans-30" x="147.412109"/>
      </g>
     </g>
    </g>
    <g id="ytick_5">
     <g id="line2d_9">
      <g>
       <use xlink:href="#mefe9b0cb3b" x="72" y="259.38" style="stroke: #000000; stroke-width: 0.8"/>
      </g>
     </g>
     <g id="text_10">
      <!-- −20 -->
      <g transform="translate(18.569688 267.738281)scale(0.22 -0.22)">
       <use xlink:href="#DejaVuSans-2212"/>
       <use xlink:href="#DejaVuSans-32" x="83.789062"/>
       <use xlink:href="#DejaVuSans-30" x="147.412109"/>
      </g>
     </g>
    </g>
    <g id="ytick_6">
     <g id="line2d_10">
      <g>
       <use xlink:href="#mefe9b0cb3b" x="72" y="205.02" style="stroke: #000000; stroke-width: 0.8"/>
      </g>
     </g>
     <g id="text_11">
      <!-- 0 -->
      <g transform="translate(51.0025 213.378281)scale(0.22 -0.22)">
       <use xlink:href="#DejaVuSans-30"/>
      </g>
     </g>
    </g>
    <g id="ytick_7">
     <g id="line2d_11">
      <g>
       <use xlink:href="#mefe9b0cb3b" x="72" y="150.66" style="stroke: #000000; stroke-width: 0.8"/>
      </g>
     </g>
     <g id="text_12">
      <!-- 20 -->
      <g transform="translate(37.005 159.018281)scale(0.22 -0.22)">
       <use xlink:href="#DejaVuSans-32"/>
       <use xlink:href="#DejaVuSans-30" x="63.623047"/>
      </g>
     </g>
    </g>
    <g id="ytick_8">
     <g id="line2d_12">
      <g>
       <use xlink:href="#mefe9b0cb3b" x="72" y="96.3" style="stroke: #000000; stroke-width: 0.8"/>
      </g>
     </g>
     <g id="text_13">
      <!-- 40 -->
      <g transform="translate(37.005 104.658281)scale(0.22 -0.22)">
       <use xlink:href="#DejaVuSans-34"/>
       <use xlink:href="#DejaVuSans-30" x="63.623047"/>
      </g>
     </g>
    </g>
    <g id="text_14">
     <!-- Membrane potential (mV) -->
     <g transform="translate(-4.058125 410.655469)rotate(-90)scale(0.22 -0.22)">
      <defs>
       <path id="ArialMT-4d" d="M 475 0 
L 475 4581 
L 1388 4581 
L 2472 1338 
Q 2622 884 2691 659 
Q 2769 909 2934 1394 
L 4031 4581 
L 4847 4581 
L 4847 0 
L 4263 0 
L 4263 3834 
L 2931 0 
L 2384 0 
L 1059 3900 
L 1059 0 
L 475 0 
z
" transform="scale(0.015625)"/>
       <path id="ArialMT-62" d="M 941 0 
L 419 0 
L 419 4581 
L 981 4581 
L 981 2947 
Q 1338 3394 1891 3394 
Q 2197 3394 2470 3270 
Q 2744 3147 2920 2923 
Q 3097 2700 3197 2384 
Q 3297 2069 3297 1709 
Q 3297 856 2875 390 
Q 2453 -75 1863 -75 
Q 1275 -75 941 416 
L 941 0 
z
M 934 1684 
Q 934 1088 1097 822 
Q 1363 388 1816 388 
Q 2184 388 2453 708 
Q 2722 1028 2722 1663 
Q 2722 2313 2464 2622 
Q 2206 2931 1841 2931 
Q 1472 2931 1203 2611 
Q 934 2291 934 1684 
z
" transform="scale(0.015625)"/>
       <path id="ArialMT-72" d="M 416 0 
L 416 3319 
L 922 3319 
L 922 2816 
Q 1116 3169 1280 3281 
Q 1444 3394 1641 3394 
Q 1925 3394 2219 3213 
L 2025 2691 
Q 1819 2813 1613 2813 
Q 1428 2813 1281 2702 
Q 1134 2591 1072 2394 
Q 978 2094 978 1738 
L 978 0 
L 416 0 
z
" transform="scale(0.015625)"/>
       <path id="ArialMT-61" d="M 2588 409 
Q 2275 144 1986 34 
Q 1697 -75 1366 -75 
Q 819 -75 525 192 
Q 231 459 231 875 
Q 231 1119 342 1320 
Q 453 1522 633 1644 
Q 813 1766 1038 1828 
Q 1203 1872 1538 1913 
Q 2219 1994 2541 2106 
Q 2544 2222 2544 2253 
Q 2544 2597 2384 2738 
Q 2169 2928 1744 2928 
Q 1347 2928 1158 2789 
Q 969 2650 878 2297 
L 328 2372 
Q 403 2725 575 2942 
Q 747 3159 1072 3276 
Q 1397 3394 1825 3394 
Q 2250 3394 2515 3294 
Q 2781 3194 2906 3042 
Q 3031 2891 3081 2659 
Q 3109 2516 3109 2141 
L 3109 1391 
Q 3109 606 3145 398 
Q 3181 191 3288 0 
L 2700 0 
Q 2613 175 2588 409 
z
M 2541 1666 
Q 2234 1541 1622 1453 
Q 1275 1403 1131 1340 
Q 988 1278 909 1158 
Q 831 1038 831 891 
Q 831 666 1001 516 
Q 1172 366 1500 366 
Q 1825 366 2078 508 
Q 2331 650 2450 897 
Q 2541 1088 2541 1459 
L 2541 1666 
z
" transform="scale(0.015625)"/>
       <path id="ArialMT-6e" d="M 422 0 
L 422 3319 
L 928 3319 
L 928 2847 
Q 1294 3394 1984 3394 
Q 2284 3394 2536 3286 
Q 2788 3178 2913 3003 
Q 3038 2828 3088 2588 
Q 3119 2431 3119 2041 
L 3119 0 
L 2556 0 
L 2556 2019 
Q 2556 2363 2490 2533 
Q 2425 2703 2258 2804 
Q 2091 2906 1866 2906 
Q 1506 2906 1245 2678 
Q 984 2450 984 1813 
L 984 0 
L 422 0 
z
" transform="scale(0.015625)"/>
       <path id="ArialMT-20" transform="scale(0.015625)"/>
       <path id="ArialMT-70" d="M 422 -1272 
L 422 3319 
L 934 3319 
L 934 2888 
Q 1116 3141 1344 3267 
Q 1572 3394 1897 3394 
Q 2322 3394 2647 3175 
Q 2972 2956 3137 2557 
Q 3303 2159 3303 1684 
Q 3303 1175 3120 767 
Q 2938 359 2589 142 
Q 2241 -75 1856 -75 
Q 1575 -75 1351 44 
Q 1128 163 984 344 
L 984 -1272 
L 422 -1272 
z
M 931 1641 
Q 931 1000 1190 694 
Q 1450 388 1819 388 
Q 2194 388 2461 705 
Q 2728 1022 2728 1688 
Q 2728 2322 2467 2637 
Q 2206 2953 1844 2953 
Q 1484 2953 1207 2617 
Q 931 2281 931 1641 
z
" transform="scale(0.015625)"/>
       <path id="ArialMT-6f" d="M 213 1659 
Q 213 2581 725 3025 
Q 1153 3394 1769 3394 
Q 2453 3394 2887 2945 
Q 3322 2497 3322 1706 
Q 3322 1066 3130 698 
Q 2938 331 2570 128 
Q 2203 -75 1769 -75 
Q 1072 -75 642 372 
Q 213 819 213 1659 
z
M 791 1659 
Q 791 1022 1069 705 
Q 1347 388 1769 388 
Q 2188 388 2466 706 
Q 2744 1025 2744 1678 
Q 2744 2294 2464 2611 
Q 2184 2928 1769 2928 
Q 1347 2928 1069 2612 
Q 791 2297 791 1659 
z
" transform="scale(0.015625)"/>
       <path id="ArialMT-74" d="M 1650 503 
L 1731 6 
Q 1494 -44 1306 -44 
Q 1000 -44 831 53 
Q 663 150 594 308 
Q 525 466 525 972 
L 525 2881 
L 113 2881 
L 113 3319 
L 525 3319 
L 525 4141 
L 1084 4478 
L 1084 3319 
L 1650 3319 
L 1650 2881 
L 1084 2881 
L 1084 941 
Q 1084 700 1114 631 
Q 1144 563 1211 522 
Q 1278 481 1403 481 
Q 1497 481 1650 503 
z
" transform="scale(0.015625)"/>
       <path id="ArialMT-6c" d="M 409 0 
L 409 4581 
L 972 4581 
L 972 0 
L 409 0 
z
" transform="scale(0.015625)"/>
       <path id="ArialMT-56" d="M 1803 0 
L 28 4581 
L 684 4581 
L 1875 1253 
Q 2019 853 2116 503 
Q 2222 878 2363 1253 
L 3600 4581 
L 4219 4581 
L 2425 0 
L 1803 0 
z
" transform="scale(0.015625)"/>
      </defs>
      <use xlink:href="#ArialMT-4d"/>
      <use xlink:href="#ArialMT-65" x="83.300781"/>
      <use xlink:href="#ArialMT-6d" x="138.916016"/>
      <use xlink:href="#ArialMT-62" x="222.216797"/>
      <use xlink:href="#ArialMT-72" x="277.832031"/>
      <use xlink:href="#ArialMT-61" x="311.132812"/>
      <use xlink:href="#ArialMT-6e" x="366.748047"/>
      <use xlink:href="#ArialMT-65" x="422.363281"/>
      <use xlink:href="#ArialMT-20" x="477.978516"/>
      <use xlink:href="#ArialMT-70" x="505.761719"/>
      <use xlink:href="#ArialMT-6f" x="561.376953"/>
      <use xlink:href="#ArialMT-74" x="616.992188"/>
      <use xlink:href="#ArialMT-65" x="644.775391"/>
      <use xlink:href="#ArialMT-6e" x="700.390625"/>
      <use xlink:href="#ArialMT-74" x="756.005859"/>
      <use xlink:href="#ArialMT-69" x="783.789062"/>
      <use xlink:href="#ArialMT-61" x="806.005859"/>
      <use xlink:href="#ArialMT-6c" x="861.621094"/>
      <use xlink:href="#ArialMT-20" x="883.837891"/>
      <use xlink:href="#ArialMT-28" x="911.621094"/>
      <use xlink:href="#ArialMT-6d" x="944.921875"/>
      <use xlink:href="#ArialMT-56" x="1028.222656"/>
      <use xlink:href="#ArialMT-29" x="1094.921875"/>
     </g>
    </g>
   </g>
   <g id="line2d_13">
    <path d="M 92.290909 430.614 
L 92.358545 431.044201 
L 92.426182 431.012393 
L 93.102545 430.689726 
L 94.117091 430.518538 
L 96.281455 430.422781 
L 104.668364 430.403204 
L 159.927273 430.403176 
L 160.130182 412.782207 
L 160.536 401.502646 
L 161.144727 391.381149 
L 162.024 380.761961 
L 163.917818 359.012383 
L 164.391273 350.808109 
L 164.729455 341.307483 
L 164.932364 330.222553 
L 165.067636 308.343251 
L 165.202909 154.092837 
L 165.405818 342.763152 
L 165.608727 397.097791 
L 165.811636 403.463943 
L 165.946909 401.478355 
L 167.029091 379.06855 
L 167.705455 371.253293 
L 168.517091 364.317 
L 169.666909 355.049471 
L 170.140364 349.531559 
L 170.546182 342.463175 
L 170.884364 333.396914 
L 171.087273 321.464254 
L 171.154909 312.0504 
L 171.222545 286.44004 
L 171.290182 151.578708 
L 171.357818 207.369667 
L 171.560727 342.979592 
L 171.831273 395.704937 
L 171.966545 399.230649 
L 172.034182 399.09611 
L 172.237091 395.700858 
L 173.116364 378.212948 
L 173.792727 369.917262 
L 174.942545 359.255599 
L 175.889455 349.813205 
L 176.498182 341.941935 
L 176.768727 336.292243 
L 176.971636 327.680816 
L 177.106909 312.378844 
L 177.174545 284.332081 
L 177.242182 145.938136 
L 177.309818 210.337461 
L 177.512727 346.067713 
L 177.715636 391.034773 
L 177.918545 398.833409 
L 177.986182 398.695586 
L 178.189091 395.702214 
L 179.271273 375.865366 
L 179.947636 368.095382 
L 180.962182 359.497468 
L 181.773818 351.79476 
L 182.314909 344.295595 
L 182.585455 337.918646 
L 182.788364 328.382401 
L 182.923636 310.330071 
L 183.058909 146.870157 
L 183.126545 230.691716 
L 183.329455 356.979693 
L 183.532364 396.369387 
L 183.735273 400.993178 
L 183.870545 399.205723 
L 185.155636 374.97203 
L 185.696727 369.607523 
L 186.373091 365.996239 
L 187.387636 358.589125 
L 188.334545 349.545846 
L 188.740364 343.267324 
L 189.078545 334.309501 
L 189.281455 321.148677 
L 189.349091 309.694879 
L 189.416727 268.491483 
L 189.484364 148.490015 
L 189.754909 353.459605 
L 189.957818 394.710553 
L 190.160727 400.39479 
L 190.296 398.787046 
L 191.716364 372.941521 
L 192.325091 366.829438 
L 193.001455 361.723268 
L 193.677818 355.000761 
L 193.880727 353.620134 
L 194.083636 353.627153 
L 194.218909 353.587957 
L 194.421818 353.120193 
L 194.692364 351.551021 
L 195.098182 347.485149 
L 195.504 341.436909 
L 195.774545 333.332442 
L 195.909818 324.683152 
L 196.045091 295.762854 
L 196.112727 158.107696 
L 196.180364 187.892306 
L 196.383273 344.823092 
L 196.586182 392.830773 
L 196.789091 399.733709 
L 196.924364 398.299673 
L 198.209455 375.592855 
L 198.953455 369.545547 
L 200.373818 358.315199 
L 201.050182 353.193152 
L 201.726545 348.337399 
L 202.064727 343.984869 
L 202.402909 336.369046 
L 202.605818 327.441021 
L 202.741091 311.412462 
L 202.808727 279.807598 
L 202.876364 145.816178 
L 202.944 216.939262 
L 203.146909 347.156146 
L 203.349818 390.663287 
L 203.552727 398.565911 
L 203.620364 398.466212 
L 203.823273 395.515045 
L 204.905455 375.85955 
L 205.514182 369.329868 
L 206.325818 364.302973 
L 206.934545 359.622423 
L 207.678545 351.926964 
L 208.084364 347.552133 
L 208.219636 347.971677 
L 208.828364 350.906088 
L 209.031273 351.045746 
L 209.234182 350.591635 
L 209.504727 349.144643 
L 209.775273 346.474724 
L 210.045818 341.953136 
L 210.316364 333.191019 
L 210.451636 323.541862 
L 210.519273 313.416261 
L 210.586909 283.073591 
L 210.654545 140.003766 
L 210.722182 210.582632 
L 210.925091 351.739131 
L 211.128 394.300479 
L 211.330909 399.904781 
L 211.466182 398.517429 
L 212.074909 385.763752 
L 212.683636 375.788875 
L 213.427636 367.292668 
L 214.442182 359.129208 
L 215.321455 353.201524 
L 215.794909 353.646851 
L 215.997818 353.088268 
L 216.268364 351.383405 
L 216.674182 347.157936 
L 217.08 340.276706 
L 217.350545 331.343432 
L 217.485818 321.047241 
L 217.553455 309.3112 
L 217.621091 265.564569 
L 217.688727 149.400877 
L 217.959273 354.581937 
L 218.162182 394.650595 
L 218.365091 399.887838 
L 218.500364 398.298066 
L 219.920727 372.824543 
L 220.8 364.095768 
L 222.085091 351.292489 
L 222.626182 343.199676 
L 222.896727 336.239265 
L 223.099636 325.452939 
L 223.234909 300.792671 
L 223.370182 174.901498 
L 223.573091 339.274504 
L 223.843636 396.076273 
L 223.978909 399.730845 
L 224.046545 399.674177 
L 224.249455 396.521396 
L 225.196364 378.146169 
L 225.872727 370.380392 
L 227.496 357.071064 
L 228.172364 351.383891 
L 228.578182 346.223327 
L 228.916364 338.755003 
L 229.119273 329.738116 
L 229.254545 315.044018 
L 229.322182 290.638606 
L 229.389818 142.496132 
L 229.457455 198.739571 
L 229.660364 349.09108 
L 229.863273 394.349549 
L 230.066182 400.707457 
L 230.201455 399.273967 
L 231.689455 372.688184 
L 232.365818 366.113107 
L 233.921455 355.185619 
L 234.733091 348.934978 
L 235.138909 344.627312 
L 235.477091 337.984134 
L 235.68 329.886925 
L 235.815273 316.748637 
L 235.882909 297.297226 
L 235.950545 162.469645 
L 236.018182 183.789489 
L 236.221091 341.823284 
L 236.424 391.256862 
L 236.626909 399.925286 
L 236.694545 399.816255 
L 236.897455 396.674569 
L 237.912 377.089065 
L 238.656 368.296401 
L 239.738182 358.382437 
L 240.346909 351.7301 
L 241.158545 339.897274 
L 241.361455 333.608482 
L 241.496727 325.451635 
L 241.632 299.763979 
L 241.699636 176.873277 
L 241.767273 177.648367 
L 241.970182 339.77561 
L 242.240727 395.82792 
L 242.443636 399.667782 
L 242.646545 396.774197 
L 243.728727 376.570354 
L 244.472727 367.985483 
L 244.878545 365.029503 
L 245.487273 361.010425 
L 246.163636 354.850596 
L 246.907636 346.747302 
L 247.245818 340.142285 
L 247.448727 332.877745 
L 247.584 322.989118 
L 247.651636 312.256087 
L 247.719273 277.034309 
L 247.786909 142.020846 
L 247.854545 219.117856 
L 248.057455 354.868722 
L 248.260364 396.330781 
L 248.463273 401.020967 
L 248.666182 397.677087 
L 249.545455 379.69109 
L 250.221818 370.96042 
L 252.656727 343.614405 
L 252.994909 336.834176 
L 253.197818 329.040616 
L 253.333091 317.544534 
L 253.400727 302.920386 
L 253.536 167.780717 
L 253.738909 330.735027 
L 254.009455 392.574383 
L 254.212364 398.531477 
L 254.347636 397.305441 
L 254.956364 384.942881 
L 255.632727 374.401114 
L 256.444364 365.42728 
L 257.323636 358.438731 
L 258.067636 351.387125 
L 258.608727 345.110243 
L 258.946909 338.591866 
L 259.149818 331.533508 
L 259.285091 321.598626 
L 259.352727 310.487514 
L 259.420364 272.374856 
L 259.488 146.590401 
L 259.555636 225.337638 
L 259.758545 351.679849 
L 259.961455 393.228616 
L 260.164364 399.74017 
L 260.232 399.439758 
L 260.434909 396.137292 
L 261.449455 376.77374 
L 262.193455 368.075032 
L 263.140364 359.704036 
L 263.884364 352.964291 
L 264.493091 347.724944 
L 264.966545 342.827228 
L 265.237091 337.739766 
L 265.44 330.337326 
L 265.575273 319.027048 
L 265.642909 304.809463 
L 265.778182 162.747732 
L 265.981091 332.259771 
L 266.251636 393.94561 
L 266.454545 399.327115 
L 266.589818 397.972871 
L 268.077818 372.262429 
L 269.227636 360.617234 
L 270.039273 351.537208 
L 270.512727 343.58348 
L 270.783273 335.514288 
L 270.986182 321.093996 
L 271.053818 307.721571 
L 271.189091 154.874771 
L 271.392 334.980156 
L 271.662545 396.604875 
L 271.797818 400.428671 
L 271.865455 400.385061 
L 272.068364 397.128486 
L 272.947636 379.638479 
L 273.624 371.29233 
L 275.517818 352.166312 
L 276.261818 345.352014 
L 276.6 340.064256 
L 276.870545 332.166534 
L 277.005818 323.79423 
L 277.141091 296.510068 
L 277.208727 171.059896 
L 277.276364 185.741479 
L 277.479273 339.271863 
L 277.749818 395.455309 
L 277.952727 399.527859 
L 278.155636 396.395975 
L 279.102545 377.696756 
L 279.778909 369.75502 
L 282.146182 345.720297 
L 282.484364 337.573918 
L 282.687273 326.859565 
L 282.822545 303.180749 
L 282.957818 168.536283 
L 283.160727 340.44617 
L 283.363636 392.558987 
L 283.566545 400.988238 
L 283.634182 400.762453 
L 283.837091 397.361026 
L 284.784 378.568053 
L 285.460364 370.332779 
L 286.272 363.184328 
L 287.286545 355.776785 
L 287.827636 349.386721 
L 288.233455 341.465966 
L 288.504 332.711515 
L 288.639273 324.171438 
L 288.774545 296.734856 
L 288.842182 167.190139 
L 288.909818 185.480747 
L 289.112727 341.618816 
L 289.315636 391.283045 
L 289.518545 399.729656 
L 289.586182 399.513056 
L 289.789091 396.119478 
L 290.668364 378.819772 
L 291.412364 369.666967 
L 292.156364 362.957391 
L 293.170909 354.860543 
L 294.253091 342.893081 
L 294.523636 337.146929 
L 294.726545 328.919098 
L 294.861818 315.370775 
L 294.929455 294.660638 
L 294.997091 158.732039 
L 295.064727 190.232048 
L 295.267636 342.417584 
L 295.538182 397.11475 
L 295.673455 400.259165 
L 295.741091 399.971407 
L 295.944 396.357895 
L 296.823273 378.619263 
L 297.499636 370.101044 
L 298.243636 363.282593 
L 298.987636 356.212 
L 299.596364 348.185453 
L 300.002182 340.151153 
L 300.272727 331.918115 
L 300.475636 317.652339 
L 300.543273 303.946241 
L 300.678545 164.481185 
L 300.881455 329.161975 
L 301.152 392.86603 
L 301.354909 398.566328 
L 301.490182 397.125956 
L 302.978182 371.715747 
L 303.925091 361.897324 
L 306.021818 341.840437 
L 306.292364 335.261501 
L 306.495273 324.097197 
L 306.630545 296.234865 
L 306.698182 165.457463 
L 306.765818 186.488242 
L 306.968727 340.766001 
L 307.239273 395.631234 
L 307.442182 399.368116 
L 307.645091 396.405745 
L 308.727273 376.047047 
L 309.471273 367.489972 
L 311.703273 346.804827 
L 312.041455 340.359854 
L 312.244364 333.310668 
L 312.379636 324.125413 
L 312.447273 314.773468 
L 312.514909 289.427897 
L 312.582545 141.685552 
L 312.650182 200.956412 
L 312.853091 349.629507 
L 313.056 395.051442 
L 313.258909 401.276336 
L 313.394182 399.633986 
L 314.746909 374.265122 
L 315.423273 367.399424 
L 317.52 348.019865 
L 317.858182 342.082059 
L 318.128727 333.427115 
L 318.264 324.206811 
L 318.331636 314.816532 
L 318.399273 289.28563 
L 318.466909 141.018683 
L 318.534545 201.012787 
L 318.737455 350.009931 
L 318.940364 395.608194 
L 319.143273 401.583059 
L 319.278545 399.69167 
L 320.360727 377.779742 
L 321.037091 369.918395 
L 321.713455 364.254817 
L 322.525091 357.47573 
L 323.066182 351.405873 
L 323.539636 343.122721 
L 323.810182 334.667284 
L 323.945455 326.230088 
L 324.080727 299.316298 
L 324.148364 161.706866 
L 324.216 179.075723 
L 324.418909 344.668533 
L 324.621818 393.563949 
L 324.824727 400.755952 
L 324.96 399.551157 
L 325.501091 388.116007 
L 326.109818 377.660796 
L 326.853818 368.808228 
L 327.800727 360.652986 
L 328.477091 355.444029 
L 329.491636 344.687819 
L 329.829818 337.585377 
L 330.032727 328.614391 
L 330.168 312.772174 
L 330.235636 282.126024 
L 330.303273 142.151416 
L 330.370909 212.835015 
L 330.573818 349.519584 
L 330.776727 392.517791 
L 330.979636 399.484266 
L 331.047273 399.307654 
L 331.250182 396.28883 
L 332.332364 376.209791 
L 333.008727 368.623428 
L 333.820364 361.652807 
L 334.970182 353.851173 
L 335.511273 347.48941 
L 335.984727 340.298456 
L 336.255273 332.877941 
L 336.458182 318.802363 
L 336.525818 305.288939 
L 336.661091 160.909956 
L 336.864 330.191035 
L 337.134545 394.361539 
L 337.337455 399.455967 
L 337.472727 397.680861 
L 338.690182 375.125102 
L 339.434182 367.055906 
L 340.178182 360.962289 
L 340.786909 355.57413 
L 341.530909 346.806647 
L 341.869091 340.379007 
L 342.072 333.411114 
L 342.207273 324.310965 
L 342.274909 315.017412 
L 342.342545 289.919732 
L 342.410182 141.340853 
L 342.477818 199.746243 
L 342.680727 348.538195 
L 342.883636 393.716618 
L 343.086545 400.649902 
L 343.154182 400.334074 
L 343.357091 396.781933 
L 344.236364 379.071143 
L 344.912727 370.801002 
L 345.859636 362.098139 
L 346.941818 352.55072 
L 347.482909 344.904821 
L 347.821091 337.228052 
L 348.024 328.550941 
L 348.159273 313.912514 
L 348.226909 288.866339 
L 348.294545 145.710236 
L 348.362182 202.330234 
L 348.565091 346.547797 
L 348.768 393.057725 
L 348.970909 400.382276 
L 349.106182 399.047104 
L 350.594182 372.497344 
L 351.405818 364.628349 
L 352.420364 355.330991 
L 352.961455 348.268074 
L 353.434909 339.094182 
L 353.637818 332.199528 
L 353.773091 322.989103 
L 353.840727 313.403352 
L 353.908364 286.620162 
L 353.976 144.153581 
L 354.043636 206.39474 
L 354.246545 346.946943 
L 354.449455 391.722157 
L 354.652364 399.437801 
L 354.72 399.259852 
L 354.922909 396.032168 
L 355.869818 377.992199 
L 356.546182 369.962314 
L 358.845818 346.581717 
L 359.184 339.178771 
L 359.386909 330.258018 
L 359.522182 315.371404 
L 359.589818 289.43375 
L 359.657455 138.428267 
L 359.725091 199.990749 
L 359.928 350.204722 
L 360.130909 394.637856 
L 360.333818 400.643991 
L 360.469091 399.199589 
L 361.957091 373.047201 
L 362.701091 366.22266 
L 363.783273 357.743102 
L 364.459636 350.001451 
L 364.797818 343.932859 
L 365.068364 335.433726 
L 365.271273 319.441369 
L 365.338909 302.38985 
L 365.474182 170.824825 
L 365.677091 343.24354 
L 365.88 393.997132 
L 366.082909 401.21842 
L 366.218182 399.952023 
L 366.691636 389.470113 
L 367.300364 378.493046 
L 367.976727 370.603855 
L 368.856 363.407471 
L 369.667636 356.638739 
L 370.276364 349.351806 
L 370.749818 341.254558 
L 371.020364 332.155603 
L 371.155636 321.9676 
L 371.223273 310.528404 
L 371.290909 269.050727 
L 371.358545 146.349573 
L 371.629091 354.51691 
L 371.832 394.128086 
L 372.034909 399.540643 
L 372.170182 398.23513 
L 372.778909 385.780001 
L 373.387636 376.128976 
L 374.199273 367.174381 
L 375.619636 351.952583 
L 376.160727 342.389653 
L 376.431273 334.711158 
L 376.634182 320.955987 
L 376.701818 308.42509 
L 376.837091 152.385711 
L 377.107636 357.453095 
L 377.310545 395.609684 
L 377.513455 400.347261 
L 377.648727 398.71483 
L 379.069091 373.285024 
L 379.813091 366.059835 
L 381.301091 352.226066 
L 381.842182 345.064723 
L 382.180364 338.316553 
L 382.383273 330.819614 
L 382.518545 319.959655 
L 382.586182 306.890783 
L 382.721455 156.578385 
L 382.924364 330.8038 
L 383.194909 394.5184 
L 383.397818 399.906697 
L 383.533091 398.501365 
L 385.088727 371.708339 
L 387.388364 345.65715 
L 387.726545 337.738838 
L 387.929455 327.697318 
L 388.064727 307.170083 
L 388.2 156.532007 
L 388.402909 335.005725 
L 388.673455 396.174268 
L 388.876364 400.242794 
L 389.011636 398.679737 
L 390.567273 372.282561 
L 391.581818 362.73646 
L 393.069818 349.682301 
L 393.408 344.240266 
L 393.678545 336.955041 
L 393.881455 325.140725 
L 394.016727 292.212024 
L 394.084364 140.477669 
L 394.152 194.855016 
L 394.354909 348.766049 
L 394.557818 394.258012 
L 394.760727 400.716632 
L 394.896 399.474743 
L 395.369455 389.276557 
L 395.978182 378.329646 
L 396.654545 370.327516 
L 398.683636 348.575918 
L 399.089455 340.752009 
L 399.36 330.364513 
L 399.495273 316.702605 
L 399.562909 295.690379 
L 399.630545 150.240756 
L 399.698182 187.883081 
L 399.901091 346.694437 
L 400.104 394.713068 
L 400.306909 401.490171 
L 400.442182 399.924002 
L 401.794909 374.610558 
L 402.538909 367.123441 
L 404.432727 349.779351 
L 404.838545 343.298787 
L 405.109091 335.237735 
L 405.244364 327.095886 
L 405.379636 302.653462 
L 405.514909 170.065879 
L 405.717818 341.511641 
L 405.920727 392.947155 
L 406.123636 401.158883 
L 406.191273 400.909344 
L 406.394182 397.332694 
L 407.205818 380.418676 
L 407.882182 371.834976 
L 408.896727 362.206431 
L 410.993455 343.06342 
L 411.264 336.714549 
L 411.466909 326.228932 
L 411.602182 302.273984 
L 411.737455 170.75194 
L 411.940364 338.599524 
L 412.210909 395.957833 
L 412.346182 399.65973 
L 412.413818 399.635244 
L 412.616727 396.595258 
L 413.631273 377.489089 
L 414.307636 369.495646 
L 415.930909 354.407069 
L 416.607273 347.350231 
L 417.080727 340.009803 
L 417.554182 329.461267 
L 417.689455 322.680506 
L 417.824727 303.864961 
L 417.96 164.730115 
L 418.162909 315.703659 
L 418.433455 380.806847 
L 418.636364 393.593518 
L 418.771636 394.704555 
L 418.906909 393.473035 
L 419.448 383.570119 
L 420.124364 373.225663 
L 420.936 364.368838 
L 422.694545 346.914594 
L 423.100364 339.714661 
L 423.370909 330.017026 
L 423.506182 318.410689 
L 423.573818 303.530735 
L 423.709091 166.608844 
L 423.912 333.917291 
L 424.182545 394.680025 
L 424.385455 399.556106 
L 424.520727 397.979855 
L 425.941091 372.907483 
L 426.752727 364.626286 
L 428.173091 353.091476 
L 428.849455 347.642474 
L 429.187636 342.312988 
L 429.458182 333.989853 
L 429.593455 325.042227 
L 429.728727 292.682024 
L 429.796364 142.122764 
L 429.864 193.921532 
L 430.066909 347.973521 
L 430.269818 394.170548 
L 430.608 411.960982 
L 430.743273 412.862582 
L 431.149091 412.77796 
L 431.352 413.434518 
L 431.757818 415.724507 
L 433.042909 423.322491 
L 433.786909 426.266389 
L 434.463273 428.099622 
L 435.139636 429.334195 
L 435.816 430.145866 
L 436.56 430.71073 
L 437.439273 431.098897 
L 438.589091 431.347428 
L 440.28 431.461188 
L 443.391273 431.409355 
L 446.502545 431.170054 
L 452.386909 430.537983 
L 457.594909 430.438782 
L 475.180364 430.403293 
L 498.109091 430.402916 
L 498.109091 430.402916 
" clip-path="url(#p19f8e38c8f)" style="fill: none; stroke: #000000; stroke-width: 1.5; stroke-linecap: square"/>
   </g>
   <g id="line2d_14">
    <path d="M 497.973818 408.87 
" clip-path="url(#p19f8e38c8f)" style="fill: none; stroke: #000000; stroke-width: 1.5; stroke-linecap: square"/>
   </g>
   <g id="line2d_15">
    <path d="M 430.472727 368.1 
L 430.472727 365.382 
L 430.472727 362.664 
L 430.472727 359.946 
L 430.472727 357.228 
L 430.472727 354.51 
L 430.472727 351.792 
L 430.472727 349.074 
L 430.472727 346.356 
L 430.472727 343.638 
L 430.472727 340.92 
L 430.472727 338.202 
L 430.472727 335.484 
L 430.472727 332.766 
L 430.472727 330.048 
L 430.472727 327.33 
L 430.472727 324.612 
L 430.472727 321.894 
L 430.472727 319.176 
L 430.472727 316.458 
" clip-path="url(#p19f8e38c8f)" style="fill: none; stroke: #000000; stroke-width: 1.5; stroke-linecap: square"/>
   </g>
   <g id="patch_3">
    <path d="M 72 504 
L 72 69.12 
" style="fill: none; stroke: #000000; stroke-width: 0.8; stroke-linejoin: miter; stroke-linecap: square"/>
   </g>
   <g id="patch_4">
    <path d="M 518.4 504 
L 518.4 69.12 
" style="fill: none; stroke: #000000; stroke-width: 0.8; stroke-linejoin: miter; stroke-linecap: square"/>
   </g>
   <g id="patch_5">
    <path d="M 72 504 
L 518.4 504 
" style="fill: none; stroke: #000000; stroke-width: 0.8; stroke-linejoin: miter; stroke-linecap: square"/>
   </g>
   <g id="patch_6">
    <path d="M 72 69.12 
L 518.4 69.12 
" style="fill: none; stroke: #000000; stroke-width: 0.8; stroke-linejoin: miter; stroke-linecap: square"/>
   </g>
   <g id="text_15">
    <!-- 500 ms -->
    <g transform="translate(497.973818 406.152)scale(0.22 -0.22)">
     <defs>
      <path id="ArialMT-35" d="M 266 1200 
L 856 1250 
Q 922 819 1161 601 
Q 1400 384 1738 384 
Q 2144 384 2425 690 
Q 2706 997 2706 1503 
Q 2706 1984 2436 2262 
Q 2166 2541 1728 2541 
Q 1456 2541 1237 2417 
Q 1019 2294 894 2097 
L 366 2166 
L 809 4519 
L 3088 4519 
L 3088 3981 
L 1259 3981 
L 1013 2750 
Q 1425 3038 1878 3038 
Q 2478 3038 2890 2622 
Q 3303 2206 3303 1553 
Q 3303 931 2941 478 
Q 2500 -78 1738 -78 
Q 1113 -78 717 272 
Q 322 622 266 1200 
z
" transform="scale(0.015625)"/>
      <path id="ArialMT-30" d="M 266 2259 
Q 266 3072 433 3567 
Q 600 4063 929 4331 
Q 1259 4600 1759 4600 
Q 2128 4600 2406 4451 
Q 2684 4303 2865 4023 
Q 3047 3744 3150 3342 
Q 3253 2941 3253 2259 
Q 3253 1453 3087 958 
Q 2922 463 2592 192 
Q 2263 -78 1759 -78 
Q 1097 -78 719 397 
Q 266 969 266 2259 
z
M 844 2259 
Q 844 1131 1108 757 
Q 1372 384 1759 384 
Q 2147 384 2411 759 
Q 2675 1134 2675 2259 
Q 2675 3391 2411 3762 
Q 2147 4134 1753 4134 
Q 1366 4134 1134 3806 
Q 844 3388 844 2259 
z
" transform="scale(0.015625)"/>
     </defs>
     <use xlink:href="#ArialMT-35"/>
     <use xlink:href="#ArialMT-30" x="55.615234"/>
     <use xlink:href="#ArialMT-30" x="111.230469"/>
     <use xlink:href="#ArialMT-20" x="166.845703"/>
     <use xlink:href="#ArialMT-6d" x="194.628906"/>
     <use xlink:href="#ArialMT-73" x="277.929688"/>
    </g>
   </g>
   <g id="text_16">
    <!-- 20 mV -->
    <g transform="translate(504.737455 321.894)scale(0.22 -0.22)">
     <defs>
      <path id="ArialMT-32" d="M 3222 541 
L 3222 0 
L 194 0 
Q 188 203 259 391 
Q 375 700 629 1000 
Q 884 1300 1366 1694 
Q 2113 2306 2375 2664 
Q 2638 3022 2638 3341 
Q 2638 3675 2398 3904 
Q 2159 4134 1775 4134 
Q 1369 4134 1125 3890 
Q 881 3647 878 3216 
L 300 3275 
Q 359 3922 746 4261 
Q 1134 4600 1788 4600 
Q 2447 4600 2831 4234 
Q 3216 3869 3216 3328 
Q 3216 3053 3103 2787 
Q 2991 2522 2730 2228 
Q 2469 1934 1863 1422 
Q 1356 997 1212 845 
Q 1069 694 975 541 
L 3222 541 
z
" transform="scale(0.015625)"/>
     </defs>
     <use xlink:href="#ArialMT-32"/>
     <use xlink:href="#ArialMT-30" x="55.615234"/>
     <use xlink:href="#ArialMT-20" x="111.230469"/>
     <use xlink:href="#ArialMT-6d" x="139.013672"/>
     <use xlink:href="#ArialMT-56" x="222.314453"/>
    </g>
   </g>
   <g id="text_17">
    <!--  Plotting iSPN, trace number 11019  -->
    <g transform="translate(120.537187 63.12)scale(0.22 -0.22)">
     <defs>
      <path id="ArialMT-50" d="M 494 0 
L 494 4581 
L 2222 4581 
Q 2678 4581 2919 4538 
Q 3256 4481 3484 4323 
Q 3713 4166 3852 3881 
Q 3991 3597 3991 3256 
Q 3991 2672 3619 2267 
Q 3247 1863 2275 1863 
L 1100 1863 
L 1100 0 
L 494 0 
z
M 1100 2403 
L 2284 2403 
Q 2872 2403 3119 2622 
Q 3366 2841 3366 3238 
Q 3366 3525 3220 3729 
Q 3075 3934 2838 4000 
Q 2684 4041 2272 4041 
L 1100 4041 
L 1100 2403 
z
" transform="scale(0.015625)"/>
      <path id="ArialMT-67" d="M 319 -275 
L 866 -356 
Q 900 -609 1056 -725 
Q 1266 -881 1628 -881 
Q 2019 -881 2231 -725 
Q 2444 -569 2519 -288 
Q 2563 -116 2559 434 
Q 2191 0 1641 0 
Q 956 0 581 494 
Q 206 988 206 1678 
Q 206 2153 378 2554 
Q 550 2956 876 3175 
Q 1203 3394 1644 3394 
Q 2231 3394 2613 2919 
L 2613 3319 
L 3131 3319 
L 3131 450 
Q 3131 -325 2973 -648 
Q 2816 -972 2473 -1159 
Q 2131 -1347 1631 -1347 
Q 1038 -1347 672 -1080 
Q 306 -813 319 -275 
z
M 784 1719 
Q 784 1066 1043 766 
Q 1303 466 1694 466 
Q 2081 466 2343 764 
Q 2606 1063 2606 1700 
Q 2606 2309 2336 2618 
Q 2066 2928 1684 2928 
Q 1309 2928 1046 2623 
Q 784 2319 784 1719 
z
" transform="scale(0.015625)"/>
      <path id="ArialMT-53" d="M 288 1472 
L 859 1522 
Q 900 1178 1048 958 
Q 1197 738 1509 602 
Q 1822 466 2213 466 
Q 2559 466 2825 569 
Q 3091 672 3220 851 
Q 3350 1031 3350 1244 
Q 3350 1459 3225 1620 
Q 3100 1781 2813 1891 
Q 2628 1963 1997 2114 
Q 1366 2266 1113 2400 
Q 784 2572 623 2826 
Q 463 3081 463 3397 
Q 463 3744 659 4045 
Q 856 4347 1234 4503 
Q 1613 4659 2075 4659 
Q 2584 4659 2973 4495 
Q 3363 4331 3572 4012 
Q 3781 3694 3797 3291 
L 3216 3247 
Q 3169 3681 2898 3903 
Q 2628 4125 2100 4125 
Q 1550 4125 1298 3923 
Q 1047 3722 1047 3438 
Q 1047 3191 1225 3031 
Q 1400 2872 2139 2705 
Q 2878 2538 3153 2413 
Q 3553 2228 3743 1945 
Q 3934 1663 3934 1294 
Q 3934 928 3725 604 
Q 3516 281 3123 101 
Q 2731 -78 2241 -78 
Q 1619 -78 1198 103 
Q 778 284 539 648 
Q 300 1013 288 1472 
z
" transform="scale(0.015625)"/>
      <path id="ArialMT-4e" d="M 488 0 
L 488 4581 
L 1109 4581 
L 3516 984 
L 3516 4581 
L 4097 4581 
L 4097 0 
L 3475 0 
L 1069 3600 
L 1069 0 
L 488 0 
z
" transform="scale(0.015625)"/>
      <path id="ArialMT-2c" d="M 569 0 
L 569 641 
L 1209 641 
L 1209 0 
Q 1209 -353 1084 -570 
Q 959 -788 688 -906 
L 531 -666 
Q 709 -588 793 -436 
Q 878 -284 888 0 
L 569 0 
z
" transform="scale(0.015625)"/>
      <path id="ArialMT-63" d="M 2588 1216 
L 3141 1144 
Q 3050 572 2676 248 
Q 2303 -75 1759 -75 
Q 1078 -75 664 370 
Q 250 816 250 1647 
Q 250 2184 428 2587 
Q 606 2991 970 3192 
Q 1334 3394 1763 3394 
Q 2303 3394 2647 3120 
Q 2991 2847 3088 2344 
L 2541 2259 
Q 2463 2594 2264 2762 
Q 2066 2931 1784 2931 
Q 1359 2931 1093 2626 
Q 828 2322 828 1663 
Q 828 994 1084 691 
Q 1341 388 1753 388 
Q 2084 388 2306 591 
Q 2528 794 2588 1216 
z
" transform="scale(0.015625)"/>
      <path id="ArialMT-75" d="M 2597 0 
L 2597 488 
Q 2209 -75 1544 -75 
Q 1250 -75 995 37 
Q 741 150 617 320 
Q 494 491 444 738 
Q 409 903 409 1263 
L 409 3319 
L 972 3319 
L 972 1478 
Q 972 1038 1006 884 
Q 1059 663 1231 536 
Q 1403 409 1656 409 
Q 1909 409 2131 539 
Q 2353 669 2445 892 
Q 2538 1116 2538 1541 
L 2538 3319 
L 3100 3319 
L 3100 0 
L 2597 0 
z
" transform="scale(0.015625)"/>
      <path id="ArialMT-31" d="M 2384 0 
L 1822 0 
L 1822 3584 
Q 1619 3391 1289 3197 
Q 959 3003 697 2906 
L 697 3450 
Q 1169 3672 1522 3987 
Q 1875 4303 2022 4600 
L 2384 4600 
L 2384 0 
z
" transform="scale(0.015625)"/>
      <path id="ArialMT-39" d="M 350 1059 
L 891 1109 
Q 959 728 1153 556 
Q 1347 384 1650 384 
Q 1909 384 2104 503 
Q 2300 622 2425 820 
Q 2550 1019 2634 1356 
Q 2719 1694 2719 2044 
Q 2719 2081 2716 2156 
Q 2547 1888 2255 1720 
Q 1963 1553 1622 1553 
Q 1053 1553 659 1965 
Q 266 2378 266 3053 
Q 266 3750 677 4175 
Q 1088 4600 1706 4600 
Q 2153 4600 2523 4359 
Q 2894 4119 3086 3673 
Q 3278 3228 3278 2384 
Q 3278 1506 3087 986 
Q 2897 466 2520 194 
Q 2144 -78 1638 -78 
Q 1100 -78 759 220 
Q 419 519 350 1059 
z
M 2653 3081 
Q 2653 3566 2395 3850 
Q 2138 4134 1775 4134 
Q 1400 4134 1122 3828 
Q 844 3522 844 3034 
Q 844 2597 1108 2323 
Q 1372 2050 1759 2050 
Q 2150 2050 2401 2323 
Q 2653 2597 2653 3081 
z
" transform="scale(0.015625)"/>
     </defs>
     <use xlink:href="#ArialMT-20"/>
     <use xlink:href="#ArialMT-50" x="27.783203"/>
     <use xlink:href="#ArialMT-6c" x="94.482422"/>
     <use xlink:href="#ArialMT-6f" x="116.699219"/>
     <use xlink:href="#ArialMT-74" x="172.314453"/>
     <use xlink:href="#ArialMT-74" x="200.097656"/>
     <use xlink:href="#ArialMT-69" x="227.880859"/>
     <use xlink:href="#ArialMT-6e" x="250.097656"/>
     <use xlink:href="#ArialMT-67" x="305.712891"/>
     <use xlink:href="#ArialMT-20" x="361.328125"/>
     <use xlink:href="#ArialMT-69" x="389.111328"/>
     <use xlink:href="#ArialMT-53" x="411.328125"/>
     <use xlink:href="#ArialMT-50" x="478.027344"/>
     <use xlink:href="#ArialMT-4e" x="544.726562"/>
     <use xlink:href="#ArialMT-2c" x="616.943359"/>
     <use xlink:href="#ArialMT-20" x="644.726562"/>
     <use xlink:href="#ArialMT-74" x="672.509766"/>
     <use xlink:href="#ArialMT-72" x="700.292969"/>
     <use xlink:href="#ArialMT-61" x="733.59375"/>
     <use xlink:href="#ArialMT-63" x="789.208984"/>
     <use xlink:href="#ArialMT-65" x="839.208984"/>
     <use xlink:href="#ArialMT-20" x="894.824219"/>
     <use xlink:href="#ArialMT-6e" x="922.607422"/>
     <use xlink:href="#ArialMT-75" x="978.222656"/>
     <use xlink:href="#ArialMT-6d" x="1033.837891"/>
     <use xlink:href="#ArialMT-62" x="1117.138672"/>
     <use xlink:href="#ArialMT-65" x="1172.753906"/>
     <use xlink:href="#ArialMT-72" x="1228.369141"/>
     <use xlink:href="#ArialMT-20" x="1261.669922"/>
     <use xlink:href="#ArialMT-31" x="1289.453125"/>
     <use xlink:href="#ArialMT-31" x="1337.693359"/>
     <use xlink:href="#ArialMT-30" x="1393.308594"/>
     <use xlink:href="#ArialMT-31" x="1448.923828"/>
     <use xlink:href="#ArialMT-39" x="1504.539062"/>
     <use xlink:href="#ArialMT-20" x="1560.154297"/>
    </g>
   </g>
  </g>
 </g>
 <defs>
  <clipPath id="p19f8e38c8f">
   <rect x="72" y="69.12" width="446.4" height="434.88"/>
  </clipPath>
 </defs>
</svg>
