<?xml version="1.0" encoding="utf-8" standalone="no"?>
<!DOCTYPE svg PUBLIC "-//W3C//DTD SVG 1.1//EN"
  "http://www.w3.org/Graphics/SVG/1.1/DTD/svg11.dtd">
<svg xmlns:xlink="http://www.w3.org/1999/xlink" width="576pt" height="576pt" viewBox="0 0 576 576" xmlns="http://www.w3.org/2000/svg" version="1.1">
 <metadata>
  <rdf:RDF xmlns:dc="http://purl.org/dc/elements/1.1/" xmlns:cc="http://creativecommons.org/ns#" xmlns:rdf="http://www.w3.org/1999/02/22-rdf-syntax-ns#">
   <cc:Work>
    <dc:type rdf:resource="http://purl.org/dc/dcmitype/StillImage"/>
    <dc:date>2022-10-30T19:57:02.810892</dc:date>
    <dc:format>image/svg+xml</dc:format>
    <dc:creator>
     <cc:Agent>
      <dc:title>Matplotlib v3.5.2, https://matplotlib.org/</dc:title>
     </cc:Agent>
    </dc:creator>
   </cc:Work>
  </rdf:RDF>
 </metadata>
 <defs>
  <style type="text/css">*{stroke-linejoin: round; stroke-linecap: butt}</style>
 </defs>
 <g id="figure_1">
  <g id="patch_1">
   <path d="M 0 576 
L 576 576 
L 576 0 
L 0 0 
L 0 576 
z
" style="fill: none"/>
  </g>
  <g id="axes_1">
   <g id="patch_2">
    <path d="M 72 504 
L 518.4 504 
L 518.4 69.12 
L 72 69.12 
z
" style="fill: #ffffff"/>
   </g>
   <g id="matplotlib.axis_1">
    <g id="xtick_1">
     <g id="line2d_1">
      <defs>
       <path id="m6050747583" d="M 0 0 
L 0 3.5 
" style="stroke: #000000; stroke-width: 0.8"/>
      </defs>
      <g>
       <use xlink:href="#m6050747583" x="92.290909" y="504" style="stroke: #000000; stroke-width: 0.8"/>
      </g>
     </g>
     <g id="text_1">
      <!-- 0 -->
      <g transform="translate(85.292159 527.716563)scale(0.22 -0.22)">
       <defs>
        <path id="DejaVuSans-30" d="M 2034 4250 
Q 1547 4250 1301 3770 
Q 1056 3291 1056 2328 
Q 1056 1369 1301 889 
Q 1547 409 2034 409 
Q 2525 409 2770 889 
Q 3016 1369 3016 2328 
Q 3016 3291 2770 3770 
Q 2525 4250 2034 4250 
z
M 2034 4750 
Q 2819 4750 3233 4129 
Q 3647 3509 3647 2328 
Q 3647 1150 3233 529 
Q 2819 -91 2034 -91 
Q 1250 -91 836 529 
Q 422 1150 422 2328 
Q 422 3509 836 4129 
Q 1250 4750 2034 4750 
z
" transform="scale(0.015625)"/>
       </defs>
       <use xlink:href="#DejaVuSans-30"/>
      </g>
     </g>
    </g>
    <g id="xtick_2">
     <g id="line2d_2">
      <g>
       <use xlink:href="#m6050747583" x="227.563636" y="504" style="stroke: #000000; stroke-width: 0.8"/>
      </g>
     </g>
     <g id="text_2">
      <!-- 1000 -->
      <g transform="translate(199.568636 527.716563)scale(0.22 -0.22)">
       <defs>
        <path id="DejaVuSans-31" d="M 794 531 
L 1825 531 
L 1825 4091 
L 703 3866 
L 703 4441 
L 1819 4666 
L 2450 4666 
L 2450 531 
L 3481 531 
L 3481 0 
L 794 0 
L 794 531 
z
" transform="scale(0.015625)"/>
       </defs>
       <use xlink:href="#DejaVuSans-31"/>
       <use xlink:href="#DejaVuSans-30" x="63.623047"/>
       <use xlink:href="#DejaVuSans-30" x="127.246094"/>
       <use xlink:href="#DejaVuSans-30" x="190.869141"/>
      </g>
     </g>
    </g>
    <g id="xtick_3">
     <g id="line2d_3">
      <g>
       <use xlink:href="#m6050747583" x="362.836364" y="504" style="stroke: #000000; stroke-width: 0.8"/>
      </g>
     </g>
     <g id="text_3">
      <!-- 2000 -->
      <g transform="translate(334.841364 527.716563)scale(0.22 -0.22)">
       <defs>
        <path id="DejaVuSans-32" d="M 1228 531 
L 3431 531 
L 3431 0 
L 469 0 
L 469 531 
Q 828 903 1448 1529 
Q 2069 2156 2228 2338 
Q 2531 2678 2651 2914 
Q 2772 3150 2772 3378 
Q 2772 3750 2511 3984 
Q 2250 4219 1831 4219 
Q 1534 4219 1204 4116 
Q 875 4013 500 3803 
L 500 4441 
Q 881 4594 1212 4672 
Q 1544 4750 1819 4750 
Q 2544 4750 2975 4387 
Q 3406 4025 3406 3419 
Q 3406 3131 3298 2873 
Q 3191 2616 2906 2266 
Q 2828 2175 2409 1742 
Q 1991 1309 1228 531 
z
" transform="scale(0.015625)"/>
       </defs>
       <use xlink:href="#DejaVuSans-32"/>
       <use xlink:href="#DejaVuSans-30" x="63.623047"/>
       <use xlink:href="#DejaVuSans-30" x="127.246094"/>
       <use xlink:href="#DejaVuSans-30" x="190.869141"/>
      </g>
     </g>
    </g>
    <g id="xtick_4">
     <g id="line2d_4">
      <g>
       <use xlink:href="#m6050747583" x="498.109091" y="504" style="stroke: #000000; stroke-width: 0.8"/>
      </g>
     </g>
     <g id="text_4">
      <!-- 3000 -->
      <g transform="translate(470.114091 527.716563)scale(0.22 -0.22)">
       <defs>
        <path id="DejaVuSans-33" d="M 2597 2516 
Q 3050 2419 3304 2112 
Q 3559 1806 3559 1356 
Q 3559 666 3084 287 
Q 2609 -91 1734 -91 
Q 1441 -91 1130 -33 
Q 819 25 488 141 
L 488 750 
Q 750 597 1062 519 
Q 1375 441 1716 441 
Q 2309 441 2620 675 
Q 2931 909 2931 1356 
Q 2931 1769 2642 2001 
Q 2353 2234 1838 2234 
L 1294 2234 
L 1294 2753 
L 1863 2753 
Q 2328 2753 2575 2939 
Q 2822 3125 2822 3475 
Q 2822 3834 2567 4026 
Q 2313 4219 1838 4219 
Q 1578 4219 1281 4162 
Q 984 4106 628 3988 
L 628 4550 
Q 988 4650 1302 4700 
Q 1616 4750 1894 4750 
Q 2613 4750 3031 4423 
Q 3450 4097 3450 3541 
Q 3450 3153 3228 2886 
Q 3006 2619 2597 2516 
z
" transform="scale(0.015625)"/>
       </defs>
       <use xlink:href="#DejaVuSans-33"/>
       <use xlink:href="#DejaVuSans-30" x="63.623047"/>
       <use xlink:href="#DejaVuSans-30" x="127.246094"/>
       <use xlink:href="#DejaVuSans-30" x="190.869141"/>
      </g>
     </g>
    </g>
    <g id="text_5">
     <!-- Time(ms) -->
     <g transform="translate(249.182187 552.307188)scale(0.22 -0.22)">
      <defs>
       <path id="ArialMT-54" d="M 1659 0 
L 1659 4041 
L 150 4041 
L 150 4581 
L 3781 4581 
L 3781 4041 
L 2266 4041 
L 2266 0 
L 1659 0 
z
" transform="scale(0.015625)"/>
       <path id="ArialMT-69" d="M 425 3934 
L 425 4581 
L 988 4581 
L 988 3934 
L 425 3934 
z
M 425 0 
L 425 3319 
L 988 3319 
L 988 0 
L 425 0 
z
" transform="scale(0.015625)"/>
       <path id="ArialMT-6d" d="M 422 0 
L 422 3319 
L 925 3319 
L 925 2853 
Q 1081 3097 1340 3245 
Q 1600 3394 1931 3394 
Q 2300 3394 2536 3241 
Q 2772 3088 2869 2813 
Q 3263 3394 3894 3394 
Q 4388 3394 4653 3120 
Q 4919 2847 4919 2278 
L 4919 0 
L 4359 0 
L 4359 2091 
Q 4359 2428 4304 2576 
Q 4250 2725 4106 2815 
Q 3963 2906 3769 2906 
Q 3419 2906 3187 2673 
Q 2956 2441 2956 1928 
L 2956 0 
L 2394 0 
L 2394 2156 
Q 2394 2531 2256 2718 
Q 2119 2906 1806 2906 
Q 1569 2906 1367 2781 
Q 1166 2656 1075 2415 
Q 984 2175 984 1722 
L 984 0 
L 422 0 
z
" transform="scale(0.015625)"/>
       <path id="ArialMT-65" d="M 2694 1069 
L 3275 997 
Q 3138 488 2766 206 
Q 2394 -75 1816 -75 
Q 1088 -75 661 373 
Q 234 822 234 1631 
Q 234 2469 665 2931 
Q 1097 3394 1784 3394 
Q 2450 3394 2872 2941 
Q 3294 2488 3294 1666 
Q 3294 1616 3291 1516 
L 816 1516 
Q 847 969 1125 678 
Q 1403 388 1819 388 
Q 2128 388 2347 550 
Q 2566 713 2694 1069 
z
M 847 1978 
L 2700 1978 
Q 2663 2397 2488 2606 
Q 2219 2931 1791 2931 
Q 1403 2931 1139 2672 
Q 875 2413 847 1978 
z
" transform="scale(0.015625)"/>
       <path id="ArialMT-28" d="M 1497 -1347 
Q 1031 -759 709 28 
Q 388 816 388 1659 
Q 388 2403 628 3084 
Q 909 3875 1497 4659 
L 1900 4659 
Q 1522 4009 1400 3731 
Q 1209 3300 1100 2831 
Q 966 2247 966 1656 
Q 966 153 1900 -1347 
L 1497 -1347 
z
" transform="scale(0.015625)"/>
       <path id="ArialMT-73" d="M 197 991 
L 753 1078 
Q 800 744 1014 566 
Q 1228 388 1613 388 
Q 2000 388 2187 545 
Q 2375 703 2375 916 
Q 2375 1106 2209 1216 
Q 2094 1291 1634 1406 
Q 1016 1563 777 1677 
Q 538 1791 414 1992 
Q 291 2194 291 2438 
Q 291 2659 392 2848 
Q 494 3038 669 3163 
Q 800 3259 1026 3326 
Q 1253 3394 1513 3394 
Q 1903 3394 2198 3281 
Q 2494 3169 2634 2976 
Q 2775 2784 2828 2463 
L 2278 2388 
Q 2241 2644 2061 2787 
Q 1881 2931 1553 2931 
Q 1166 2931 1000 2803 
Q 834 2675 834 2503 
Q 834 2394 903 2306 
Q 972 2216 1119 2156 
Q 1203 2125 1616 2013 
Q 2213 1853 2448 1751 
Q 2684 1650 2818 1456 
Q 2953 1263 2953 975 
Q 2953 694 2789 445 
Q 2625 197 2315 61 
Q 2006 -75 1616 -75 
Q 969 -75 630 194 
Q 291 463 197 991 
z
" transform="scale(0.015625)"/>
       <path id="ArialMT-29" d="M 791 -1347 
L 388 -1347 
Q 1322 153 1322 1656 
Q 1322 2244 1188 2822 
Q 1081 3291 891 3722 
Q 769 4003 388 4659 
L 791 4659 
Q 1378 3875 1659 3084 
Q 1900 2403 1900 1659 
Q 1900 816 1576 28 
Q 1253 -759 791 -1347 
z
" transform="scale(0.015625)"/>
      </defs>
      <use xlink:href="#ArialMT-54"/>
      <use xlink:href="#ArialMT-69" x="57.333984"/>
      <use xlink:href="#ArialMT-6d" x="79.550781"/>
      <use xlink:href="#ArialMT-65" x="162.851562"/>
      <use xlink:href="#ArialMT-28" x="218.466797"/>
      <use xlink:href="#ArialMT-6d" x="251.767578"/>
      <use xlink:href="#ArialMT-73" x="335.068359"/>
      <use xlink:href="#ArialMT-29" x="385.068359"/>
     </g>
    </g>
   </g>
   <g id="matplotlib.axis_2">
    <g id="ytick_1">
     <g id="line2d_5">
      <defs>
       <path id="mbc4f3dd256" d="M 0 0 
L -3.5 0 
" style="stroke: #000000; stroke-width: 0.8"/>
      </defs>
      <g>
       <use xlink:href="#mbc4f3dd256" x="72" y="476.82" style="stroke: #000000; stroke-width: 0.8"/>
      </g>
     </g>
     <g id="text_6">
      <!-- −100 -->
      <g transform="translate(4.572187 485.178281)scale(0.22 -0.22)">
       <defs>
        <path id="DejaVuSans-2212" d="M 678 2272 
L 4684 2272 
L 4684 1741 
L 678 1741 
L 678 2272 
z
" transform="scale(0.015625)"/>
       </defs>
       <use xlink:href="#DejaVuSans-2212"/>
       <use xlink:href="#DejaVuSans-31" x="83.789062"/>
       <use xlink:href="#DejaVuSans-30" x="147.412109"/>
       <use xlink:href="#DejaVuSans-30" x="211.035156"/>
      </g>
     </g>
    </g>
    <g id="ytick_2">
     <g id="line2d_6">
      <g>
       <use xlink:href="#mbc4f3dd256" x="72" y="422.46" style="stroke: #000000; stroke-width: 0.8"/>
      </g>
     </g>
     <g id="text_7">
      <!-- −80 -->
      <g transform="translate(18.569688 430.818281)scale(0.22 -0.22)">
       <defs>
        <path id="DejaVuSans-38" d="M 2034 2216 
Q 1584 2216 1326 1975 
Q 1069 1734 1069 1313 
Q 1069 891 1326 650 
Q 1584 409 2034 409 
Q 2484 409 2743 651 
Q 3003 894 3003 1313 
Q 3003 1734 2745 1975 
Q 2488 2216 2034 2216 
z
M 1403 2484 
Q 997 2584 770 2862 
Q 544 3141 544 3541 
Q 544 4100 942 4425 
Q 1341 4750 2034 4750 
Q 2731 4750 3128 4425 
Q 3525 4100 3525 3541 
Q 3525 3141 3298 2862 
Q 3072 2584 2669 2484 
Q 3125 2378 3379 2068 
Q 3634 1759 3634 1313 
Q 3634 634 3220 271 
Q 2806 -91 2034 -91 
Q 1263 -91 848 271 
Q 434 634 434 1313 
Q 434 1759 690 2068 
Q 947 2378 1403 2484 
z
M 1172 3481 
Q 1172 3119 1398 2916 
Q 1625 2713 2034 2713 
Q 2441 2713 2670 2916 
Q 2900 3119 2900 3481 
Q 2900 3844 2670 4047 
Q 2441 4250 2034 4250 
Q 1625 4250 1398 4047 
Q 1172 3844 1172 3481 
z
" transform="scale(0.015625)"/>
       </defs>
       <use xlink:href="#DejaVuSans-2212"/>
       <use xlink:href="#DejaVuSans-38" x="83.789062"/>
       <use xlink:href="#DejaVuSans-30" x="147.412109"/>
      </g>
     </g>
    </g>
    <g id="ytick_3">
     <g id="line2d_7">
      <g>
       <use xlink:href="#mbc4f3dd256" x="72" y="368.1" style="stroke: #000000; stroke-width: 0.8"/>
      </g>
     </g>
     <g id="text_8">
      <!-- −60 -->
      <g transform="translate(18.569688 376.458281)scale(0.22 -0.22)">
       <defs>
        <path id="DejaVuSans-36" d="M 2113 2584 
Q 1688 2584 1439 2293 
Q 1191 2003 1191 1497 
Q 1191 994 1439 701 
Q 1688 409 2113 409 
Q 2538 409 2786 701 
Q 3034 994 3034 1497 
Q 3034 2003 2786 2293 
Q 2538 2584 2113 2584 
z
M 3366 4563 
L 3366 3988 
Q 3128 4100 2886 4159 
Q 2644 4219 2406 4219 
Q 1781 4219 1451 3797 
Q 1122 3375 1075 2522 
Q 1259 2794 1537 2939 
Q 1816 3084 2150 3084 
Q 2853 3084 3261 2657 
Q 3669 2231 3669 1497 
Q 3669 778 3244 343 
Q 2819 -91 2113 -91 
Q 1303 -91 875 529 
Q 447 1150 447 2328 
Q 447 3434 972 4092 
Q 1497 4750 2381 4750 
Q 2619 4750 2861 4703 
Q 3103 4656 3366 4563 
z
" transform="scale(0.015625)"/>
       </defs>
       <use xlink:href="#DejaVuSans-2212"/>
       <use xlink:href="#DejaVuSans-36" x="83.789062"/>
       <use xlink:href="#DejaVuSans-30" x="147.412109"/>
      </g>
     </g>
    </g>
    <g id="ytick_4">
     <g id="line2d_8">
      <g>
       <use xlink:href="#mbc4f3dd256" x="72" y="313.74" style="stroke: #000000; stroke-width: 0.8"/>
      </g>
     </g>
     <g id="text_9">
      <!-- −40 -->
      <g transform="translate(18.569688 322.098281)scale(0.22 -0.22)">
       <defs>
        <path id="DejaVuSans-34" d="M 2419 4116 
L 825 1625 
L 2419 1625 
L 2419 4116 
z
M 2253 4666 
L 3047 4666 
L 3047 1625 
L 3713 1625 
L 3713 1100 
L 3047 1100 
L 3047 0 
L 2419 0 
L 2419 1100 
L 313 1100 
L 313 1709 
L 2253 4666 
z
" transform="scale(0.015625)"/>
       </defs>
       <use xlink:href="#DejaVuSans-2212"/>
       <use xlink:href="#DejaVuSans-34" x="83.789062"/>
       <use xlink:href="#DejaVuSans-30" x="147.412109"/>
      </g>
     </g>
    </g>
    <g id="ytick_5">
     <g id="line2d_9">
      <g>
       <use xlink:href="#mbc4f3dd256" x="72" y="259.38" style="stroke: #000000; stroke-width: 0.8"/>
      </g>
     </g>
     <g id="text_10">
      <!-- −20 -->
      <g transform="translate(18.569688 267.738281)scale(0.22 -0.22)">
       <use xlink:href="#DejaVuSans-2212"/>
       <use xlink:href="#DejaVuSans-32" x="83.789062"/>
       <use xlink:href="#DejaVuSans-30" x="147.412109"/>
      </g>
     </g>
    </g>
    <g id="ytick_6">
     <g id="line2d_10">
      <g>
       <use xlink:href="#mbc4f3dd256" x="72" y="205.02" style="stroke: #000000; stroke-width: 0.8"/>
      </g>
     </g>
     <g id="text_11">
      <!-- 0 -->
      <g transform="translate(51.0025 213.378281)scale(0.22 -0.22)">
       <use xlink:href="#DejaVuSans-30"/>
      </g>
     </g>
    </g>
    <g id="ytick_7">
     <g id="line2d_11">
      <g>
       <use xlink:href="#mbc4f3dd256" x="72" y="150.66" style="stroke: #000000; stroke-width: 0.8"/>
      </g>
     </g>
     <g id="text_12">
      <!-- 20 -->
      <g transform="translate(37.005 159.018281)scale(0.22 -0.22)">
       <use xlink:href="#DejaVuSans-32"/>
       <use xlink:href="#DejaVuSans-30" x="63.623047"/>
      </g>
     </g>
    </g>
    <g id="ytick_8">
     <g id="line2d_12">
      <g>
       <use xlink:href="#mbc4f3dd256" x="72" y="96.3" style="stroke: #000000; stroke-width: 0.8"/>
      </g>
     </g>
     <g id="text_13">
      <!-- 40 -->
      <g transform="translate(37.005 104.658281)scale(0.22 -0.22)">
       <use xlink:href="#DejaVuSans-34"/>
       <use xlink:href="#DejaVuSans-30" x="63.623047"/>
      </g>
     </g>
    </g>
    <g id="text_14">
     <!-- Membrane potential (mV) -->
     <g transform="translate(-4.058125 410.655469)rotate(-90)scale(0.22 -0.22)">
      <defs>
       <path id="ArialMT-4d" d="M 475 0 
L 475 4581 
L 1388 4581 
L 2472 1338 
Q 2622 884 2691 659 
Q 2769 909 2934 1394 
L 4031 4581 
L 4847 4581 
L 4847 0 
L 4263 0 
L 4263 3834 
L 2931 0 
L 2384 0 
L 1059 3900 
L 1059 0 
L 475 0 
z
" transform="scale(0.015625)"/>
       <path id="ArialMT-62" d="M 941 0 
L 419 0 
L 419 4581 
L 981 4581 
L 981 2947 
Q 1338 3394 1891 3394 
Q 2197 3394 2470 3270 
Q 2744 3147 2920 2923 
Q 3097 2700 3197 2384 
Q 3297 2069 3297 1709 
Q 3297 856 2875 390 
Q 2453 -75 1863 -75 
Q 1275 -75 941 416 
L 941 0 
z
M 934 1684 
Q 934 1088 1097 822 
Q 1363 388 1816 388 
Q 2184 388 2453 708 
Q 2722 1028 2722 1663 
Q 2722 2313 2464 2622 
Q 2206 2931 1841 2931 
Q 1472 2931 1203 2611 
Q 934 2291 934 1684 
z
" transform="scale(0.015625)"/>
       <path id="ArialMT-72" d="M 416 0 
L 416 3319 
L 922 3319 
L 922 2816 
Q 1116 3169 1280 3281 
Q 1444 3394 1641 3394 
Q 1925 3394 2219 3213 
L 2025 2691 
Q 1819 2813 1613 2813 
Q 1428 2813 1281 2702 
Q 1134 2591 1072 2394 
Q 978 2094 978 1738 
L 978 0 
L 416 0 
z
" transform="scale(0.015625)"/>
       <path id="ArialMT-61" d="M 2588 409 
Q 2275 144 1986 34 
Q 1697 -75 1366 -75 
Q 819 -75 525 192 
Q 231 459 231 875 
Q 231 1119 342 1320 
Q 453 1522 633 1644 
Q 813 1766 1038 1828 
Q 1203 1872 1538 1913 
Q 2219 1994 2541 2106 
Q 2544 2222 2544 2253 
Q 2544 2597 2384 2738 
Q 2169 2928 1744 2928 
Q 1347 2928 1158 2789 
Q 969 2650 878 2297 
L 328 2372 
Q 403 2725 575 2942 
Q 747 3159 1072 3276 
Q 1397 3394 1825 3394 
Q 2250 3394 2515 3294 
Q 2781 3194 2906 3042 
Q 3031 2891 3081 2659 
Q 3109 2516 3109 2141 
L 3109 1391 
Q 3109 606 3145 398 
Q 3181 191 3288 0 
L 2700 0 
Q 2613 175 2588 409 
z
M 2541 1666 
Q 2234 1541 1622 1453 
Q 1275 1403 1131 1340 
Q 988 1278 909 1158 
Q 831 1038 831 891 
Q 831 666 1001 516 
Q 1172 366 1500 366 
Q 1825 366 2078 508 
Q 2331 650 2450 897 
Q 2541 1088 2541 1459 
L 2541 1666 
z
" transform="scale(0.015625)"/>
       <path id="ArialMT-6e" d="M 422 0 
L 422 3319 
L 928 3319 
L 928 2847 
Q 1294 3394 1984 3394 
Q 2284 3394 2536 3286 
Q 2788 3178 2913 3003 
Q 3038 2828 3088 2588 
Q 3119 2431 3119 2041 
L 3119 0 
L 2556 0 
L 2556 2019 
Q 2556 2363 2490 2533 
Q 2425 2703 2258 2804 
Q 2091 2906 1866 2906 
Q 1506 2906 1245 2678 
Q 984 2450 984 1813 
L 984 0 
L 422 0 
z
" transform="scale(0.015625)"/>
       <path id="ArialMT-20" transform="scale(0.015625)"/>
       <path id="ArialMT-70" d="M 422 -1272 
L 422 3319 
L 934 3319 
L 934 2888 
Q 1116 3141 1344 3267 
Q 1572 3394 1897 3394 
Q 2322 3394 2647 3175 
Q 2972 2956 3137 2557 
Q 3303 2159 3303 1684 
Q 3303 1175 3120 767 
Q 2938 359 2589 142 
Q 2241 -75 1856 -75 
Q 1575 -75 1351 44 
Q 1128 163 984 344 
L 984 -1272 
L 422 -1272 
z
M 931 1641 
Q 931 1000 1190 694 
Q 1450 388 1819 388 
Q 2194 388 2461 705 
Q 2728 1022 2728 1688 
Q 2728 2322 2467 2637 
Q 2206 2953 1844 2953 
Q 1484 2953 1207 2617 
Q 931 2281 931 1641 
z
" transform="scale(0.015625)"/>
       <path id="ArialMT-6f" d="M 213 1659 
Q 213 2581 725 3025 
Q 1153 3394 1769 3394 
Q 2453 3394 2887 2945 
Q 3322 2497 3322 1706 
Q 3322 1066 3130 698 
Q 2938 331 2570 128 
Q 2203 -75 1769 -75 
Q 1072 -75 642 372 
Q 213 819 213 1659 
z
M 791 1659 
Q 791 1022 1069 705 
Q 1347 388 1769 388 
Q 2188 388 2466 706 
Q 2744 1025 2744 1678 
Q 2744 2294 2464 2611 
Q 2184 2928 1769 2928 
Q 1347 2928 1069 2612 
Q 791 2297 791 1659 
z
" transform="scale(0.015625)"/>
       <path id="ArialMT-74" d="M 1650 503 
L 1731 6 
Q 1494 -44 1306 -44 
Q 1000 -44 831 53 
Q 663 150 594 308 
Q 525 466 525 972 
L 525 2881 
L 113 2881 
L 113 3319 
L 525 3319 
L 525 4141 
L 1084 4478 
L 1084 3319 
L 1650 3319 
L 1650 2881 
L 1084 2881 
L 1084 941 
Q 1084 700 1114 631 
Q 1144 563 1211 522 
Q 1278 481 1403 481 
Q 1497 481 1650 503 
z
" transform="scale(0.015625)"/>
       <path id="ArialMT-6c" d="M 409 0 
L 409 4581 
L 972 4581 
L 972 0 
L 409 0 
z
" transform="scale(0.015625)"/>
       <path id="ArialMT-56" d="M 1803 0 
L 28 4581 
L 684 4581 
L 1875 1253 
Q 2019 853 2116 503 
Q 2222 878 2363 1253 
L 3600 4581 
L 4219 4581 
L 2425 0 
L 1803 0 
z
" transform="scale(0.015625)"/>
      </defs>
      <use xlink:href="#ArialMT-4d"/>
      <use xlink:href="#ArialMT-65" x="83.300781"/>
      <use xlink:href="#ArialMT-6d" x="138.916016"/>
      <use xlink:href="#ArialMT-62" x="222.216797"/>
      <use xlink:href="#ArialMT-72" x="277.832031"/>
      <use xlink:href="#ArialMT-61" x="311.132812"/>
      <use xlink:href="#ArialMT-6e" x="366.748047"/>
      <use xlink:href="#ArialMT-65" x="422.363281"/>
      <use xlink:href="#ArialMT-20" x="477.978516"/>
      <use xlink:href="#ArialMT-70" x="505.761719"/>
      <use xlink:href="#ArialMT-6f" x="561.376953"/>
      <use xlink:href="#ArialMT-74" x="616.992188"/>
      <use xlink:href="#ArialMT-65" x="644.775391"/>
      <use xlink:href="#ArialMT-6e" x="700.390625"/>
      <use xlink:href="#ArialMT-74" x="756.005859"/>
      <use xlink:href="#ArialMT-69" x="783.789062"/>
      <use xlink:href="#ArialMT-61" x="806.005859"/>
      <use xlink:href="#ArialMT-6c" x="861.621094"/>
      <use xlink:href="#ArialMT-20" x="883.837891"/>
      <use xlink:href="#ArialMT-28" x="911.621094"/>
      <use xlink:href="#ArialMT-6d" x="944.921875"/>
      <use xlink:href="#ArialMT-56" x="1028.222656"/>
      <use xlink:href="#ArialMT-29" x="1094.921875"/>
     </g>
    </g>
   </g>
   <g id="line2d_13">
    <path d="M 92.290909 441.486 
L 92.629091 453.588258 
L 93.034909 461.670933 
L 93.440727 466.03494 
L 93.846545 468.246348 
L 94.252364 469.315733 
L 94.658182 469.820452 
L 95.199273 470.10228 
L 96.010909 470.226882 
L 98.378182 470.262273 
L 159.927273 470.263412 
L 160.130182 444.427644 
L 160.536 426.401732 
L 161.009455 414.470135 
L 161.618182 404.369546 
L 162.429818 394.506991 
L 163.714909 381.835449 
L 165.202909 366.906805 
L 166.690909 349.425087 
L 167.029091 340.417689 
L 167.232 328.557013 
L 167.367273 298.497132 
L 167.434909 135.46345 
L 167.502545 205.213879 
L 167.705455 362.002036 
L 167.908364 388.512937 
L 167.976 389.745157 
L 168.043636 389.685768 
L 168.246545 386.261432 
L 169.261091 364.755545 
L 170.613818 341.722689 
L 170.884364 330.319267 
L 171.019636 314.312315 
L 171.087273 282.030464 
L 171.154909 138.335637 
L 171.357818 338.616709 
L 171.560727 380.006497 
L 171.763636 385.744945 
L 171.898909 384.308555 
L 173.860364 346.740637 
L 174.130909 338.644464 
L 174.333818 325.739276 
L 174.401455 315.332404 
L 174.469091 281.327781 
L 174.536727 133.726906 
L 174.739636 339.646035 
L 174.942545 381.14962 
L 175.145455 386.801264 
L 175.280727 385.323068 
L 177.715636 337.893438 
L 177.918545 326.693483 
L 178.053818 300.178364 
L 178.121455 161.616307 
L 178.189091 192.337217 
L 178.392 350.685008 
L 178.594909 381.334268 
L 178.730182 384.804273 
L 178.797818 384.759609 
L 179.000727 381.86918 
L 180.082909 361.994048 
L 181.097455 347.703483 
L 181.435636 339.404031 
L 181.638545 329.073814 
L 181.773818 307.875922 
L 181.909091 161.819774 
L 182.112 345.9104 
L 182.314909 381.133061 
L 182.517818 385.571313 
L 182.653091 383.99796 
L 184.546909 347.184719 
L 184.817455 337.653528 
L 184.952727 328.206943 
L 185.020364 318.822141 
L 185.088 292.699735 
L 185.155636 126.005001 
L 185.223273 212.88316 
L 185.426182 359.980817 
L 185.629091 386.867273 
L 185.764364 388.537487 
L 185.899636 386.803646 
L 187.455273 357.44557 
L 187.996364 352.112304 
L 188.131636 351.683025 
L 188.402182 351.852159 
L 188.537455 351.530199 
L 188.740364 350.164605 
L 189.010909 346.44412 
L 189.281455 339.358405 
L 189.484364 328.846125 
L 189.619636 307.505471 
L 189.754909 161.679763 
L 189.957818 343.587962 
L 190.160727 379.141522 
L 190.363636 384.386984 
L 190.498909 383.19081 
L 192.933818 343.322903 
L 193.339636 337.766995 
L 193.542545 331.266207 
L 193.677818 321.26235 
L 193.745455 309.665639 
L 193.813091 266.501014 
L 193.880727 151.928938 
L 194.083636 333.605762 
L 194.354182 376.714339 
L 194.557091 380.580578 
L 194.692364 379.528886 
L 195.098182 372.189203 
L 196.045091 355.517101 
L 196.721455 343.625488 
L 196.992 333.196816 
L 197.127273 320.383895 
L 197.194909 302.893546 
L 197.262545 165.382294 
L 197.330182 180.941844 
L 197.533091 350.377621 
L 197.736 382.556621 
L 197.871273 385.846453 
L 197.938909 385.658751 
L 198.141818 382.423801 
L 199.156364 362.976093 
L 199.697455 356.702755 
L 199.832727 356.763103 
L 199.968 356.851659 
L 200.103273 356.678481 
L 200.306182 355.810703 
L 200.576727 353.557068 
L 200.914909 348.95143 
L 201.253091 341.723173 
L 201.523636 330.307662 
L 201.658909 313.832851 
L 201.726545 278.379802 
L 201.794182 137.902432 
L 201.997091 335.808342 
L 202.2 377.094323 
L 202.402909 384.118315 
L 202.470545 383.961864 
L 202.673455 381.063869 
L 204.026182 356.544613 
L 204.567273 345.853337 
L 204.837818 337.606747 
L 205.040727 324.139995 
L 205.108364 312.678922 
L 205.176 268.346151 
L 205.243636 142.173384 
L 205.446545 341.177346 
L 205.649455 380.212237 
L 205.852364 385.715869 
L 205.987636 384.435173 
L 206.461091 374.675405 
L 207.272727 359.678625 
L 208.287273 341.769101 
L 208.490182 333.492473 
L 208.625455 321.338567 
L 208.693091 305.305242 
L 208.828364 173.202424 
L 209.031273 349.491864 
L 209.234182 382.409498 
L 209.369455 386.087614 
L 209.437091 386.052368 
L 209.64 382.923908 
L 210.586909 365.559393 
L 211.736727 346.754189 
L 212.074909 336.535641 
L 212.277818 320.505773 
L 212.345455 303.295202 
L 212.413091 169.874644 
L 212.480727 182.095461 
L 212.683636 352.537988 
L 212.886545 383.42376 
L 213.021818 386.200932 
L 213.089455 385.905731 
L 213.36 381.264162 
L 214.239273 364.831541 
L 215.253818 347.814333 
L 215.659636 336.797225 
L 215.862545 326.100772 
L 215.997818 304.894276 
L 216.133091 172.895317 
L 216.336 343.578721 
L 216.538909 377.333106 
L 216.741818 382.381371 
L 216.877091 381.286779 
L 217.282909 373.695375 
L 218.162182 358.268631 
L 218.703273 347.989956 
L 218.973818 339.12801 
L 219.176727 324.431436 
L 219.244364 311.209816 
L 219.379636 149.271302 
L 219.582545 347.453023 
L 219.785455 384.099089 
L 219.920727 387.923097 
L 219.988364 387.82482 
L 220.191273 384.612765 
L 221.273455 363.102725 
L 222.220364 347.791698 
L 222.490909 339.936434 
L 222.693818 327.741358 
L 222.829091 295.020107 
L 222.896727 130.898172 
L 222.964364 208.394872 
L 223.167273 358.146519 
L 223.370182 385.75468 
L 223.505455 387.748284 
L 223.640727 386.245782 
L 225.264 357.872016 
L 225.805091 351.895754 
L 226.210909 345.085023 
L 226.481455 336.680194 
L 226.616727 328.213259 
L 226.752 301.764942 
L 226.819636 155.660085 
L 226.887273 186.346187 
L 227.090182 351.70436 
L 227.293091 382.676613 
L 227.428364 385.881995 
L 227.496 385.643669 
L 227.698909 382.226812 
L 228.442909 368.228835 
L 229.863273 347.503837 
L 230.133818 339.379392 
L 230.336727 326.565485 
L 230.404364 316.443332 
L 230.472 284.98209 
L 230.539636 130.481329 
L 230.607273 229.402008 
L 230.810182 360.51969 
L 231.013091 385.769997 
L 231.148364 387.395726 
L 231.283636 385.738211 
L 232.704 359.913489 
L 233.853818 345.048638 
L 234.192 336.800872 
L 234.394909 324.716409 
L 234.462545 314.915806 
L 234.530182 285.837103 
L 234.597818 137.403249 
L 234.665455 228.769834 
L 234.868364 354.273249 
L 235.071273 381.121543 
L 235.206545 384.019282 
L 235.274182 383.876878 
L 235.477091 381.016138 
L 236.762182 358.263506 
L 237.370909 347.352104 
L 237.641455 339.12604 
L 237.844364 326.366912 
L 237.912 316.406878 
L 237.979636 286.086894 
L 238.047273 130.919541 
L 238.114909 227.459745 
L 238.317818 359.369604 
L 238.520727 385.049466 
L 238.656 387.015943 
L 238.791273 385.553574 
L 240.279273 359.283839 
L 241.023273 349.677999 
L 241.361455 342.54276 
L 241.632 331.501784 
L 241.767273 316.359191 
L 241.834909 288.654018 
L 241.902545 133.368086 
L 241.970182 223.1201 
L 242.173091 356.953187 
L 242.376 383.539554 
L 242.511273 385.840598 
L 242.646545 384.597694 
L 243.187636 373.410856 
L 243.931636 360.339791 
L 244.946182 343.873662 
L 245.216727 333.360457 
L 245.352 320.110658 
L 245.419636 300.633249 
L 245.487273 145.666334 
L 245.554909 190.372709 
L 245.757818 353.205947 
L 245.960727 383.572469 
L 246.096 386.639722 
L 246.163636 386.472614 
L 246.366545 383.416638 
L 247.516364 361.662773 
L 248.395636 350.213132 
L 248.733818 342.071368 
L 248.936727 332.869871 
L 249.072 318.851784 
L 249.139636 296.660514 
L 249.207273 135.197888 
L 249.274909 203.471152 
L 249.477818 356.510882 
L 249.680727 384.783202 
L 249.816 386.995816 
L 249.951273 385.625454 
L 250.56 372.641088 
L 251.304 359.864177 
L 252.048 346.847595 
L 252.386182 336.478309 
L 252.589091 322.743178 
L 252.656727 310.698192 
L 252.792 150.014538 
L 252.994909 342.539635 
L 253.197818 380.076693 
L 253.400727 385.17712 
L 253.536 383.807218 
L 254.077091 372.757815 
L 255.091636 354.186433 
L 255.632727 342.938522 
L 255.903273 332.565396 
L 256.038545 320.581253 
L 256.106182 305.037595 
L 256.241455 173.970335 
L 256.444364 348.524394 
L 256.647273 381.65097 
L 256.782545 385.347861 
L 256.850182 385.29641 
L 257.053091 382.29372 
L 258.270545 359.404438 
L 259.352727 340.731781 
L 259.555636 330.887877 
L 259.690909 313.395986 
L 259.758545 270.458221 
L 259.826182 139.612156 
L 260.029091 340.984413 
L 260.232 380.653239 
L 260.434909 386.043299 
L 260.570182 384.681151 
L 261.111273 373.494165 
L 261.855273 360.538655 
L 262.599273 347.666846 
L 262.937455 338.345114 
L 263.140364 327.009218 
L 263.275636 299.430949 
L 263.343273 152.715717 
L 263.410909 195.308223 
L 263.613818 352.466421 
L 263.816727 382.507717 
L 263.952 385.545876 
L 264.019636 385.351308 
L 264.222545 382.23699 
L 265.44 359.594917 
L 266.116364 347.325099 
L 266.386909 339.070972 
L 266.589818 325.620667 
L 266.657455 314.384064 
L 266.725091 272.048035 
L 266.792727 136.545335 
L 266.995636 342.74081 
L 267.198545 382.667456 
L 267.401455 387.513409 
L 267.536727 385.890021 
L 269.633455 348.0593 
L 270.445091 338.809144 
L 270.648 332.134696 
L 270.783273 322.455251 
L 270.850909 311.668631 
L 270.918545 275.35772 
L 270.986182 145.67771 
L 271.189091 333.037269 
L 271.459636 377.944078 
L 271.662545 381.641896 
L 271.797818 380.445587 
L 272.271273 371.715029 
L 273.826909 340.523748 
L 274.029818 328.518537 
L 274.165091 297.286336 
L 274.232727 130.205113 
L 274.300364 199.726159 
L 274.503273 356.312706 
L 274.706182 385.213887 
L 274.841455 387.645895 
L 274.976727 386.359428 
L 275.450182 376.145737 
L 276.261818 360.831326 
L 277.141091 344.757271 
L 277.411636 335.485776 
L 277.546909 325.89099 
L 277.614545 315.972264 
L 277.682182 286.101813 
L 277.749818 133.270185 
L 277.817455 229.666496 
L 278.020364 359.691023 
L 278.223273 385.096697 
L 278.358545 386.810923 
L 278.493818 385.220996 
L 280.32 352.685391 
L 280.725818 344.551495 
L 281.064 332.790148 
L 281.199273 322.377451 
L 281.266909 310.615236 
L 281.402182 150.108398 
L 281.605091 340.482986 
L 281.808 378.22868 
L 282.010909 384.13344 
L 282.078545 383.865986 
L 282.281455 380.844408 
L 283.431273 359.995507 
L 284.175273 347.717788 
L 284.513455 337.414372 
L 284.716364 322.690034 
L 284.784 308.947262 
L 284.919273 157.944795 
L 285.122182 346.557696 
L 285.325091 381.984696 
L 285.528 386.154513 
L 285.663273 384.500252 
L 287.286545 355.851346 
L 287.76 347.244993 
L 288.030545 338.790463 
L 288.233455 324.707612 
L 288.301091 312.487447 
L 288.436364 143.867072 
L 288.639273 345.180816 
L 288.842182 383.056911 
L 289.045091 387.375016 
L 289.180364 385.721721 
L 291.006545 353.559146 
L 291.412364 345.401996 
L 291.682909 336.253293 
L 291.885818 320.545626 
L 291.953455 305.54811 
L 292.088727 172.281398 
L 292.291636 348.437667 
L 292.494545 381.462834 
L 292.629818 385.15233 
L 292.697455 385.123453 
L 292.900364 382.2211 
L 294.185455 358.282041 
L 294.997091 343.634912 
L 295.267636 334.45188 
L 295.402909 324.467959 
L 295.470545 313.609919 
L 295.538182 275.706062 
L 295.605818 139.087294 
L 295.808727 339.203968 
L 296.011636 379.300278 
L 296.214545 385.355285 
L 296.349818 384.21435 
L 296.823273 374.695214 
L 297.567273 361.396642 
L 298.446545 346.627852 
L 298.784727 336.385443 
L 298.987636 320.210294 
L 299.055273 302.575837 
L 299.122909 165.365281 
L 299.190545 184.077781 
L 299.393455 351.899419 
L 299.596364 383.259452 
L 299.731636 386.294164 
L 299.799273 386.039508 
L 300.002182 382.724513 
L 300.949091 364.347006 
L 302.098909 346.307136 
L 302.369455 337.471766 
L 302.572364 321.987608 
L 302.64 306.910408 
L 302.775273 167.052514 
L 302.978182 349.682249 
L 303.181091 383.35707 
L 303.316364 386.788124 
L 303.384 386.637061 
L 303.586909 383.475189 
L 304.669091 362.648584 
L 305.751273 345.129088 
L 306.021818 335.980035 
L 306.157091 326.913869 
L 306.292364 295.01026 
L 306.36 135.835682 
L 306.427636 208.550393 
L 306.630545 355.720174 
L 306.833455 383.805323 
L 306.968727 386.32497 
L 307.104 385.133585 
L 307.577455 375.289403 
L 308.253818 363.218814 
L 309.268364 347.130661 
L 309.606545 336.137887 
L 309.741818 327.063674 
L 309.877091 295.15785 
L 309.944727 135.093758 
L 310.012364 208.081482 
L 310.215273 356.201422 
L 310.418182 384.303099 
L 310.553455 386.704157 
L 310.688727 385.407479 
L 311.229818 373.836926 
L 311.973818 360.629409 
L 312.650182 348.246589 
L 312.988364 337.501548 
L 313.191273 322.353758 
L 313.258909 307.872018 
L 313.394182 163.574764 
L 313.597091 349.186635 
L 313.8 383.276579 
L 313.935273 386.792946 
L 314.002909 386.646071 
L 314.205818 383.465172 
L 315.355636 361.378109 
L 315.829091 355.14859 
L 316.302545 350.618901 
L 316.640727 344.980186 
L 316.911273 336.689964 
L 317.046545 328.349703 
L 317.181818 302.87609 
L 317.249455 163.663414 
L 317.317091 181.832706 
L 317.52 350.260166 
L 317.722909 382.335209 
L 317.858182 385.873849 
L 317.925818 385.784426 
L 318.128727 382.717373 
L 319.413818 358.151991 
L 320.022545 346.642189 
L 320.293091 337.244279 
L 320.428364 328.005388 
L 320.563636 295.153344 
L 320.631273 129.510426 
L 320.698909 207.315832 
L 320.901818 358.323142 
L 321.104727 385.991757 
L 321.24 388.010106 
L 321.375273 386.504197 
L 323.810182 338.793468 
L 324.013091 327.953002 
L 324.148364 305.668977 
L 324.283636 171.503492 
L 324.486545 347.459182 
L 324.689455 380.802868 
L 324.892364 384.984624 
L 325.027636 383.53487 
L 325.636364 371.325733 
L 327.124364 341.066435 
L 327.327273 330.587829 
L 327.462545 310.559583 
L 327.597818 152.245418 
L 327.800727 347.72073 
L 328.003636 383.609418 
L 328.138909 387.362993 
L 328.206545 387.272183 
L 328.409455 384.178956 
L 329.559273 362.154437 
L 330.506182 345.937113 
L 330.776727 337.983627 
L 330.979636 325.058259 
L 331.047273 314.524383 
L 331.114909 279.64512 
L 331.182545 136.592891 
L 331.385455 339.5523 
L 331.588364 380.354932 
L 331.791273 386.09756 
L 331.926545 384.780101 
L 332.467636 373.490843 
L 333.076364 363.269673 
L 334.158545 347.487828 
L 334.429091 340.146132 
L 334.632 328.95839 
L 334.767273 303.325739 
L 334.834909 158.8954 
L 334.902545 181.27948 
L 335.105455 352.666178 
L 335.308364 384.180914 
L 335.443636 387.173633 
L 335.511273 386.916964 
L 335.714182 383.569116 
L 336.796364 362.219716 
L 338.149091 340.65501 
L 338.352 333.448455 
L 338.487273 323.448114 
L 338.554909 312.480493 
L 338.622545 274.127433 
L 338.690182 143.006575 
L 338.893091 337.397688 
L 339.096 377.103911 
L 339.298909 383.904657 
L 339.366545 383.740988 
L 339.569455 380.828855 
L 340.854545 357.63874 
L 341.530909 344.968536 
L 341.801455 335.06209 
L 341.936727 324.524816 
L 342.004364 312.836834 
L 342.139636 141.769193 
L 342.342545 342.637556 
L 342.545455 381.540802 
L 342.748364 386.549179 
L 342.883636 385.043514 
L 344.980364 345.114526 
L 345.250909 336.274364 
L 345.453818 320.473118 
L 345.521455 303.879514 
L 345.656727 179.228238 
L 345.859636 350.507972 
L 346.062545 382.588437 
L 346.197818 385.919053 
L 346.265455 385.693337 
L 346.468364 382.33642 
L 347.415273 364.5721 
L 348.700364 343.562008 
L 348.970909 331.698076 
L 349.106182 315.385808 
L 349.173818 281.508185 
L 349.241455 133.459673 
L 349.444364 339.525375 
L 349.647273 381.152411 
L 349.850182 386.649431 
L 349.985455 385.20982 
L 350.729455 369.884413 
L 351.811636 351.623775 
L 352.285091 342.02741 
L 352.555636 331.527542 
L 352.690909 317.700761 
L 352.758545 295.877011 
L 352.826182 142.555548 
L 352.893818 206.267108 
L 353.096727 353.677453 
L 353.299636 382.406131 
L 353.434909 385.308929 
L 353.502545 385.105438 
L 353.705455 381.996552 
L 354.855273 360.653481 
L 355.666909 348.357609 
L 356.005091 338.983239 
L 356.208 326.386108 
L 356.275636 316.50064 
L 356.343273 286.840822 
L 356.410909 131.173561 
L 356.478545 226.309295 
L 356.681455 359.130967 
L 356.884364 384.94746 
L 357.019636 386.854467 
L 357.154909 385.38539 
L 359.454545 341.901105 
L 359.657455 332.758832 
L 359.792727 318.750044 
L 359.860364 296.840614 
L 359.928 136.760222 
L 359.995636 203.57464 
L 360.198545 356.223309 
L 360.401455 384.498988 
L 360.536727 386.862272 
L 360.672 385.620304 
L 361.145455 375.673609 
L 361.821818 363.418338 
L 362.971636 345.131818 
L 363.242182 336.830501 
L 363.445091 321.858259 
L 363.512727 307.255224 
L 363.648 165.115895 
L 363.850909 347.625777 
L 364.053818 381.919523 
L 364.256727 385.863561 
L 364.459636 382.957184 
L 365.677091 359.725021 
L 366.556364 345.367084 
L 366.826909 337.368943 
L 367.029818 323.227636 
L 367.097455 310.32987 
L 367.232727 151.87952 
L 367.435636 344.454776 
L 367.638545 380.989947 
L 367.841455 385.690245 
L 367.976727 384.269097 
L 370.411636 339.982238 
L 370.614545 329.723064 
L 370.749818 309.480259 
L 370.885091 155.86291 
L 371.088 346.164732 
L 371.290909 381.999212 
L 371.493818 386.223443 
L 371.629091 384.597318 
L 373.658182 345.458097 
L 373.928727 335.903866 
L 374.064 326.069052 
L 374.131636 315.707679 
L 374.199273 282.107185 
L 374.266909 132.668576 
L 374.469818 340.400361 
L 374.672727 382.121153 
L 374.875636 387.276472 
L 375.010909 385.677688 
L 376.837091 353.156409 
L 377.378182 344.803392 
L 377.716364 335.160581 
L 377.919273 321.554358 
L 377.986909 309.482071 
L 378.122182 153.88427 
L 378.325091 339.022299 
L 378.528 376.024161 
L 378.730909 382.522106 
L 378.798545 382.446671 
L 379.001455 379.921352 
L 381.030545 342.43125 
L 381.301091 331.761038 
L 381.436364 318.185121 
L 381.504 297.221543 
L 381.571636 144.381049 
L 381.639273 200.947145 
L 381.842182 351.945771 
L 382.045091 381.526549 
L 382.180364 384.893436 
L 382.248 384.860854 
L 382.450909 382.072098 
L 383.871273 356.212307 
L 384.48 345.523093 
L 384.750545 336.300197 
L 384.885818 326.808243 
L 384.953455 317.182125 
L 385.021091 289.368001 
L 385.088727 130.052719 
L 385.156364 220.701614 
L 385.359273 358.181174 
L 385.562182 384.733512 
L 385.697455 386.92482 
L 385.832727 385.613791 
L 386.306182 375.540694 
L 387.050182 361.491861 
L 388.132364 344.366868 
L 388.402909 336.494439 
L 388.605818 323.116835 
L 388.673455 311.516254 
L 388.741091 266.265569 
L 388.808727 146.422082 
L 389.011636 339.999255 
L 389.214545 378.271939 
L 389.417455 384.338309 
L 389.485091 384.093963 
L 389.688 381.128133 
L 390.973091 358.010528 
L 391.581818 347.855215 
L 391.92 337.974494 
L 392.122909 322.986874 
L 392.190545 308.494942 
L 392.325818 160.449978 
L 392.528727 348.339063 
L 392.731636 383.270332 
L 392.866909 387.019657 
L 392.934545 386.902608 
L 393.137455 383.625142 
L 394.084364 364.959942 
L 395.098909 348.122396 
L 395.369455 340.245807 
L 395.572364 328.312264 
L 395.707636 297.432211 
L 395.775273 132.456792 
L 395.842909 201.383618 
L 396.045818 357.400787 
L 396.248727 385.802033 
L 396.384 387.995527 
L 396.519273 386.576872 
L 399.021818 338.844096 
L 399.224727 329.16463 
L 399.36 311.544464 
L 399.427636 267.722901 
L 399.495273 146.701279 
L 399.698182 340.596165 
L 399.901091 379.051548 
L 400.104 384.729347 
L 400.239273 383.53221 
L 400.712727 374.097045 
L 401.524364 359.778766 
L 402.403636 345.488642 
L 402.674182 337.531983 
L 402.877091 323.334777 
L 402.944727 310.342383 
L 403.08 151.856001 
L 403.282909 344.708364 
L 403.485818 381.344965 
L 403.688727 386.029835 
L 403.824 384.59224 
L 404.432727 372.015532 
L 405.244364 358.149429 
L 405.920727 346.336883 
L 406.258909 335.924723 
L 406.461818 319.853546 
L 406.529455 302.462938 
L 406.597091 170.030215 
L 406.664727 184.319527 
L 406.867636 350.499961 
L 407.070545 382.012117 
L 407.205818 385.50274 
L 407.273455 385.439958 
L 407.476364 382.462022 
L 408.626182 360.80433 
L 409.302545 352.509229 
L 409.708364 346.940907 
L 409.978909 340.780752 
L 410.181818 332.114738 
L 410.317091 318.474027 
L 410.384727 297.470741 
L 410.452364 142.913803 
L 410.52 199.800513 
L 410.722909 352.187058 
L 410.925818 381.90392 
L 411.061091 385.165127 
L 411.128727 385.081641 
L 411.331636 382.163149 
L 412.752 355.575952 
L 413.225455 346.357256 
L 413.496 337.113966 
L 413.631273 327.909738 
L 413.766545 295.30472 
L 413.834182 130.38033 
L 413.901818 206.836916 
L 414.104727 358.056215 
L 414.307636 385.860036 
L 414.442909 387.762592 
L 414.578182 386.146508 
L 417.013091 337.71551 
L 417.216 323.303755 
L 417.283636 309.908901 
L 417.418909 154.620808 
L 417.621818 346.39299 
L 417.824727 382.230037 
L 418.027636 386.562412 
L 418.162909 385.022992 
L 420.800727 335.517042 
L 421.003636 326.061107 
L 421.138909 308.917671 
L 421.206545 273.107272 
L 421.274182 157.283474 
L 421.477091 333.504813 
L 421.68 372.092279 
L 421.882909 379.639442 
L 421.950545 379.698089 
L 422.085818 378.430744 
L 422.626909 368.774618 
L 423.776727 345.646724 
L 424.047273 333.832084 
L 424.182545 318.682921 
L 424.250182 291.44084 
L 424.317818 124.623006 
L 424.385455 213.236675 
L 424.588364 359.18779 
L 424.791273 386.171472 
L 424.926545 388.105393 
L 425.061818 386.612915 
L 425.738182 371.951903 
L 426.617455 356.303353 
L 427.158545 345.615366 
L 427.429091 335.90216 
L 427.564364 326.26216 
L 427.632 316.398118 
L 427.699636 286.887105 
L 427.767273 131.893206 
L 427.834909 228.059558 
L 428.037818 360.087585 
L 428.240727 385.485879 
L 428.376 387.218007 
L 428.511273 385.644953 
L 430.472727 350.552845 
L 430.743273 387.851693 
L 431.081455 406.08374 
L 431.690182 424.98078 
L 432.637091 447.790526 
L 433.245818 457.36251 
L 433.786909 462.415027 
L 434.328 465.346028 
L 434.869091 467.08779 
L 435.477818 468.285549 
L 436.154182 469.102211 
L 436.898182 469.650772 
L 437.845091 470.050737 
L 439.062545 470.302433 
L 440.888727 470.429675 
L 444.608727 470.416044 
L 458.812364 470.273443 
L 498.109091 470.263386 
L 498.109091 470.263386 
" clip-path="url(#p5aadf92096)" style="fill: none; stroke: #000000; stroke-width: 1.5; stroke-linecap: square"/>
   </g>
   <g id="line2d_14">
    <path d="M 497.973818 408.87 
" clip-path="url(#p5aadf92096)" style="fill: none; stroke: #000000; stroke-width: 1.5; stroke-linecap: square"/>
   </g>
   <g id="line2d_15">
    <path d="M 430.472727 368.1 
L 430.472727 365.382 
L 430.472727 362.664 
L 430.472727 359.946 
L 430.472727 357.228 
L 430.472727 354.51 
L 430.472727 351.792 
L 430.472727 349.074 
L 430.472727 346.356 
L 430.472727 343.638 
L 430.472727 340.92 
L 430.472727 338.202 
L 430.472727 335.484 
L 430.472727 332.766 
L 430.472727 330.048 
L 430.472727 327.33 
L 430.472727 324.612 
L 430.472727 321.894 
L 430.472727 319.176 
L 430.472727 316.458 
" clip-path="url(#p5aadf92096)" style="fill: none; stroke: #000000; stroke-width: 1.5; stroke-linecap: square"/>
   </g>
   <g id="patch_3">
    <path d="M 72 504 
L 72 69.12 
" style="fill: none; stroke: #000000; stroke-width: 0.8; stroke-linejoin: miter; stroke-linecap: square"/>
   </g>
   <g id="patch_4">
    <path d="M 518.4 504 
L 518.4 69.12 
" style="fill: none; stroke: #000000; stroke-width: 0.8; stroke-linejoin: miter; stroke-linecap: square"/>
   </g>
   <g id="patch_5">
    <path d="M 72 504 
L 518.4 504 
" style="fill: none; stroke: #000000; stroke-width: 0.8; stroke-linejoin: miter; stroke-linecap: square"/>
   </g>
   <g id="patch_6">
    <path d="M 72 69.12 
L 518.4 69.12 
" style="fill: none; stroke: #000000; stroke-width: 0.8; stroke-linejoin: miter; stroke-linecap: square"/>
   </g>
   <g id="text_15">
    <!-- 500 ms -->
    <g transform="translate(497.973818 406.152)scale(0.22 -0.22)">
     <defs>
      <path id="ArialMT-35" d="M 266 1200 
L 856 1250 
Q 922 819 1161 601 
Q 1400 384 1738 384 
Q 2144 384 2425 690 
Q 2706 997 2706 1503 
Q 2706 1984 2436 2262 
Q 2166 2541 1728 2541 
Q 1456 2541 1237 2417 
Q 1019 2294 894 2097 
L 366 2166 
L 809 4519 
L 3088 4519 
L 3088 3981 
L 1259 3981 
L 1013 2750 
Q 1425 3038 1878 3038 
Q 2478 3038 2890 2622 
Q 3303 2206 3303 1553 
Q 3303 931 2941 478 
Q 2500 -78 1738 -78 
Q 1113 -78 717 272 
Q 322 622 266 1200 
z
" transform="scale(0.015625)"/>
      <path id="ArialMT-30" d="M 266 2259 
Q 266 3072 433 3567 
Q 600 4063 929 4331 
Q 1259 4600 1759 4600 
Q 2128 4600 2406 4451 
Q 2684 4303 2865 4023 
Q 3047 3744 3150 3342 
Q 3253 2941 3253 2259 
Q 3253 1453 3087 958 
Q 2922 463 2592 192 
Q 2263 -78 1759 -78 
Q 1097 -78 719 397 
Q 266 969 266 2259 
z
M 844 2259 
Q 844 1131 1108 757 
Q 1372 384 1759 384 
Q 2147 384 2411 759 
Q 2675 1134 2675 2259 
Q 2675 3391 2411 3762 
Q 2147 4134 1753 4134 
Q 1366 4134 1134 3806 
Q 844 3388 844 2259 
z
" transform="scale(0.015625)"/>
     </defs>
     <use xlink:href="#ArialMT-35"/>
     <use xlink:href="#ArialMT-30" x="55.615234"/>
     <use xlink:href="#ArialMT-30" x="111.230469"/>
     <use xlink:href="#ArialMT-20" x="166.845703"/>
     <use xlink:href="#ArialMT-6d" x="194.628906"/>
     <use xlink:href="#ArialMT-73" x="277.929688"/>
    </g>
   </g>
   <g id="text_16">
    <!-- 20 mV -->
    <g transform="translate(504.737455 321.894)scale(0.22 -0.22)">
     <defs>
      <path id="ArialMT-32" d="M 3222 541 
L 3222 0 
L 194 0 
Q 188 203 259 391 
Q 375 700 629 1000 
Q 884 1300 1366 1694 
Q 2113 2306 2375 2664 
Q 2638 3022 2638 3341 
Q 2638 3675 2398 3904 
Q 2159 4134 1775 4134 
Q 1369 4134 1125 3890 
Q 881 3647 878 3216 
L 300 3275 
Q 359 3922 746 4261 
Q 1134 4600 1788 4600 
Q 2447 4600 2831 4234 
Q 3216 3869 3216 3328 
Q 3216 3053 3103 2787 
Q 2991 2522 2730 2228 
Q 2469 1934 1863 1422 
Q 1356 997 1212 845 
Q 1069 694 975 541 
L 3222 541 
z
" transform="scale(0.015625)"/>
     </defs>
     <use xlink:href="#ArialMT-32"/>
     <use xlink:href="#ArialMT-30" x="55.615234"/>
     <use xlink:href="#ArialMT-20" x="111.230469"/>
     <use xlink:href="#ArialMT-6d" x="139.013672"/>
     <use xlink:href="#ArialMT-56" x="222.314453"/>
    </g>
   </g>
   <g id="text_17">
    <!--  Plotting dSPN, trace number 5386  -->
    <g transform="translate(122.17 63.12)scale(0.22 -0.22)">
     <defs>
      <path id="ArialMT-50" d="M 494 0 
L 494 4581 
L 2222 4581 
Q 2678 4581 2919 4538 
Q 3256 4481 3484 4323 
Q 3713 4166 3852 3881 
Q 3991 3597 3991 3256 
Q 3991 2672 3619 2267 
Q 3247 1863 2275 1863 
L 1100 1863 
L 1100 0 
L 494 0 
z
M 1100 2403 
L 2284 2403 
Q 2872 2403 3119 2622 
Q 3366 2841 3366 3238 
Q 3366 3525 3220 3729 
Q 3075 3934 2838 4000 
Q 2684 4041 2272 4041 
L 1100 4041 
L 1100 2403 
z
" transform="scale(0.015625)"/>
      <path id="ArialMT-67" d="M 319 -275 
L 866 -356 
Q 900 -609 1056 -725 
Q 1266 -881 1628 -881 
Q 2019 -881 2231 -725 
Q 2444 -569 2519 -288 
Q 2563 -116 2559 434 
Q 2191 0 1641 0 
Q 956 0 581 494 
Q 206 988 206 1678 
Q 206 2153 378 2554 
Q 550 2956 876 3175 
Q 1203 3394 1644 3394 
Q 2231 3394 2613 2919 
L 2613 3319 
L 3131 3319 
L 3131 450 
Q 3131 -325 2973 -648 
Q 2816 -972 2473 -1159 
Q 2131 -1347 1631 -1347 
Q 1038 -1347 672 -1080 
Q 306 -813 319 -275 
z
M 784 1719 
Q 784 1066 1043 766 
Q 1303 466 1694 466 
Q 2081 466 2343 764 
Q 2606 1063 2606 1700 
Q 2606 2309 2336 2618 
Q 2066 2928 1684 2928 
Q 1309 2928 1046 2623 
Q 784 2319 784 1719 
z
" transform="scale(0.015625)"/>
      <path id="ArialMT-64" d="M 2575 0 
L 2575 419 
Q 2259 -75 1647 -75 
Q 1250 -75 917 144 
Q 584 363 401 755 
Q 219 1147 219 1656 
Q 219 2153 384 2558 
Q 550 2963 881 3178 
Q 1213 3394 1622 3394 
Q 1922 3394 2156 3267 
Q 2391 3141 2538 2938 
L 2538 4581 
L 3097 4581 
L 3097 0 
L 2575 0 
z
M 797 1656 
Q 797 1019 1065 703 
Q 1334 388 1700 388 
Q 2069 388 2326 689 
Q 2584 991 2584 1609 
Q 2584 2291 2321 2609 
Q 2059 2928 1675 2928 
Q 1300 2928 1048 2622 
Q 797 2316 797 1656 
z
" transform="scale(0.015625)"/>
      <path id="ArialMT-53" d="M 288 1472 
L 859 1522 
Q 900 1178 1048 958 
Q 1197 738 1509 602 
Q 1822 466 2213 466 
Q 2559 466 2825 569 
Q 3091 672 3220 851 
Q 3350 1031 3350 1244 
Q 3350 1459 3225 1620 
Q 3100 1781 2813 1891 
Q 2628 1963 1997 2114 
Q 1366 2266 1113 2400 
Q 784 2572 623 2826 
Q 463 3081 463 3397 
Q 463 3744 659 4045 
Q 856 4347 1234 4503 
Q 1613 4659 2075 4659 
Q 2584 4659 2973 4495 
Q 3363 4331 3572 4012 
Q 3781 3694 3797 3291 
L 3216 3247 
Q 3169 3681 2898 3903 
Q 2628 4125 2100 4125 
Q 1550 4125 1298 3923 
Q 1047 3722 1047 3438 
Q 1047 3191 1225 3031 
Q 1400 2872 2139 2705 
Q 2878 2538 3153 2413 
Q 3553 2228 3743 1945 
Q 3934 1663 3934 1294 
Q 3934 928 3725 604 
Q 3516 281 3123 101 
Q 2731 -78 2241 -78 
Q 1619 -78 1198 103 
Q 778 284 539 648 
Q 300 1013 288 1472 
z
" transform="scale(0.015625)"/>
      <path id="ArialMT-4e" d="M 488 0 
L 488 4581 
L 1109 4581 
L 3516 984 
L 3516 4581 
L 4097 4581 
L 4097 0 
L 3475 0 
L 1069 3600 
L 1069 0 
L 488 0 
z
" transform="scale(0.015625)"/>
      <path id="ArialMT-2c" d="M 569 0 
L 569 641 
L 1209 641 
L 1209 0 
Q 1209 -353 1084 -570 
Q 959 -788 688 -906 
L 531 -666 
Q 709 -588 793 -436 
Q 878 -284 888 0 
L 569 0 
z
" transform="scale(0.015625)"/>
      <path id="ArialMT-63" d="M 2588 1216 
L 3141 1144 
Q 3050 572 2676 248 
Q 2303 -75 1759 -75 
Q 1078 -75 664 370 
Q 250 816 250 1647 
Q 250 2184 428 2587 
Q 606 2991 970 3192 
Q 1334 3394 1763 3394 
Q 2303 3394 2647 3120 
Q 2991 2847 3088 2344 
L 2541 2259 
Q 2463 2594 2264 2762 
Q 2066 2931 1784 2931 
Q 1359 2931 1093 2626 
Q 828 2322 828 1663 
Q 828 994 1084 691 
Q 1341 388 1753 388 
Q 2084 388 2306 591 
Q 2528 794 2588 1216 
z
" transform="scale(0.015625)"/>
      <path id="ArialMT-75" d="M 2597 0 
L 2597 488 
Q 2209 -75 1544 -75 
Q 1250 -75 995 37 
Q 741 150 617 320 
Q 494 491 444 738 
Q 409 903 409 1263 
L 409 3319 
L 972 3319 
L 972 1478 
Q 972 1038 1006 884 
Q 1059 663 1231 536 
Q 1403 409 1656 409 
Q 1909 409 2131 539 
Q 2353 669 2445 892 
Q 2538 1116 2538 1541 
L 2538 3319 
L 3100 3319 
L 3100 0 
L 2597 0 
z
" transform="scale(0.015625)"/>
      <path id="ArialMT-33" d="M 269 1209 
L 831 1284 
Q 928 806 1161 595 
Q 1394 384 1728 384 
Q 2125 384 2398 659 
Q 2672 934 2672 1341 
Q 2672 1728 2419 1979 
Q 2166 2231 1775 2231 
Q 1616 2231 1378 2169 
L 1441 2663 
Q 1497 2656 1531 2656 
Q 1891 2656 2178 2843 
Q 2466 3031 2466 3422 
Q 2466 3731 2256 3934 
Q 2047 4138 1716 4138 
Q 1388 4138 1169 3931 
Q 950 3725 888 3313 
L 325 3413 
Q 428 3978 793 4289 
Q 1159 4600 1703 4600 
Q 2078 4600 2393 4439 
Q 2709 4278 2876 4000 
Q 3044 3722 3044 3409 
Q 3044 3113 2884 2869 
Q 2725 2625 2413 2481 
Q 2819 2388 3044 2092 
Q 3269 1797 3269 1353 
Q 3269 753 2831 336 
Q 2394 -81 1725 -81 
Q 1122 -81 723 278 
Q 325 638 269 1209 
z
" transform="scale(0.015625)"/>
      <path id="ArialMT-38" d="M 1131 2484 
Q 781 2613 612 2850 
Q 444 3088 444 3419 
Q 444 3919 803 4259 
Q 1163 4600 1759 4600 
Q 2359 4600 2725 4251 
Q 3091 3903 3091 3403 
Q 3091 3084 2923 2848 
Q 2756 2613 2416 2484 
Q 2838 2347 3058 2040 
Q 3278 1734 3278 1309 
Q 3278 722 2862 322 
Q 2447 -78 1769 -78 
Q 1091 -78 675 323 
Q 259 725 259 1325 
Q 259 1772 486 2073 
Q 713 2375 1131 2484 
z
M 1019 3438 
Q 1019 3113 1228 2906 
Q 1438 2700 1772 2700 
Q 2097 2700 2305 2904 
Q 2513 3109 2513 3406 
Q 2513 3716 2298 3927 
Q 2084 4138 1766 4138 
Q 1444 4138 1231 3931 
Q 1019 3725 1019 3438 
z
M 838 1322 
Q 838 1081 952 856 
Q 1066 631 1291 507 
Q 1516 384 1775 384 
Q 2178 384 2440 643 
Q 2703 903 2703 1303 
Q 2703 1709 2433 1975 
Q 2163 2241 1756 2241 
Q 1359 2241 1098 1978 
Q 838 1716 838 1322 
z
" transform="scale(0.015625)"/>
      <path id="ArialMT-36" d="M 3184 3459 
L 2625 3416 
Q 2550 3747 2413 3897 
Q 2184 4138 1850 4138 
Q 1581 4138 1378 3988 
Q 1113 3794 959 3422 
Q 806 3050 800 2363 
Q 1003 2672 1297 2822 
Q 1591 2972 1913 2972 
Q 2475 2972 2870 2558 
Q 3266 2144 3266 1488 
Q 3266 1056 3080 686 
Q 2894 316 2569 119 
Q 2244 -78 1831 -78 
Q 1128 -78 684 439 
Q 241 956 241 2144 
Q 241 3472 731 4075 
Q 1159 4600 1884 4600 
Q 2425 4600 2770 4297 
Q 3116 3994 3184 3459 
z
M 888 1484 
Q 888 1194 1011 928 
Q 1134 663 1356 523 
Q 1578 384 1822 384 
Q 2178 384 2434 671 
Q 2691 959 2691 1453 
Q 2691 1928 2437 2201 
Q 2184 2475 1800 2475 
Q 1419 2475 1153 2201 
Q 888 1928 888 1484 
z
" transform="scale(0.015625)"/>
     </defs>
     <use xlink:href="#ArialMT-20"/>
     <use xlink:href="#ArialMT-50" x="27.783203"/>
     <use xlink:href="#ArialMT-6c" x="94.482422"/>
     <use xlink:href="#ArialMT-6f" x="116.699219"/>
     <use xlink:href="#ArialMT-74" x="172.314453"/>
     <use xlink:href="#ArialMT-74" x="200.097656"/>
     <use xlink:href="#ArialMT-69" x="227.880859"/>
     <use xlink:href="#ArialMT-6e" x="250.097656"/>
     <use xlink:href="#ArialMT-67" x="305.712891"/>
     <use xlink:href="#ArialMT-20" x="361.328125"/>
     <use xlink:href="#ArialMT-64" x="389.111328"/>
     <use xlink:href="#ArialMT-53" x="444.726562"/>
     <use xlink:href="#ArialMT-50" x="511.425781"/>
     <use xlink:href="#ArialMT-4e" x="578.125"/>
     <use xlink:href="#ArialMT-2c" x="650.341797"/>
     <use xlink:href="#ArialMT-20" x="678.125"/>
     <use xlink:href="#ArialMT-74" x="705.908203"/>
     <use xlink:href="#ArialMT-72" x="733.691406"/>
     <use xlink:href="#ArialMT-61" x="766.992188"/>
     <use xlink:href="#ArialMT-63" x="822.607422"/>
     <use xlink:href="#ArialMT-65" x="872.607422"/>
     <use xlink:href="#ArialMT-20" x="928.222656"/>
     <use xlink:href="#ArialMT-6e" x="956.005859"/>
     <use xlink:href="#ArialMT-75" x="1011.621094"/>
     <use xlink:href="#ArialMT-6d" x="1067.236328"/>
     <use xlink:href="#ArialMT-62" x="1150.537109"/>
     <use xlink:href="#ArialMT-65" x="1206.152344"/>
     <use xlink:href="#ArialMT-72" x="1261.767578"/>
     <use xlink:href="#ArialMT-20" x="1295.068359"/>
     <use xlink:href="#ArialMT-35" x="1322.851562"/>
     <use xlink:href="#ArialMT-33" x="1378.466797"/>
     <use xlink:href="#ArialMT-38" x="1434.082031"/>
     <use xlink:href="#ArialMT-36" x="1489.697266"/>
     <use xlink:href="#ArialMT-20" x="1545.3125"/>
    </g>
   </g>
  </g>
 </g>
 <defs>
  <clipPath id="p5aadf92096">
   <rect x="72" y="69.12" width="446.4" height="434.88"/>
  </clipPath>
 </defs>
</svg>
