<?xml version="1.0" encoding="utf-8" standalone="no"?>
<!DOCTYPE svg PUBLIC "-//W3C//DTD SVG 1.1//EN"
  "http://www.w3.org/Graphics/SVG/1.1/DTD/svg11.dtd">
<svg xmlns:xlink="http://www.w3.org/1999/xlink" width="576pt" height="576pt" viewBox="0 0 576 576" xmlns="http://www.w3.org/2000/svg" version="1.1">
 <metadata>
  <rdf:RDF xmlns:dc="http://purl.org/dc/elements/1.1/" xmlns:cc="http://creativecommons.org/ns#" xmlns:rdf="http://www.w3.org/1999/02/22-rdf-syntax-ns#">
   <cc:Work>
    <dc:type rdf:resource="http://purl.org/dc/dcmitype/StillImage"/>
    <dc:date>2022-10-30T19:57:10.833390</dc:date>
    <dc:format>image/svg+xml</dc:format>
    <dc:creator>
     <cc:Agent>
      <dc:title>Matplotlib v3.5.2, https://matplotlib.org/</dc:title>
     </cc:Agent>
    </dc:creator>
   </cc:Work>
  </rdf:RDF>
 </metadata>
 <defs>
  <style type="text/css">*{stroke-linejoin: round; stroke-linecap: butt}</style>
 </defs>
 <g id="figure_1">
  <g id="patch_1">
   <path d="M 0 576 
L 576 576 
L 576 0 
L 0 0 
L 0 576 
z
" style="fill: none"/>
  </g>
  <g id="axes_1">
   <g id="patch_2">
    <path d="M 72 504 
L 518.4 504 
L 518.4 69.12 
L 72 69.12 
z
" style="fill: #ffffff"/>
   </g>
   <g id="matplotlib.axis_1">
    <g id="xtick_1">
     <g id="line2d_1">
      <defs>
       <path id="m0ee526c468" d="M 0 0 
L 0 3.5 
" style="stroke: #000000; stroke-width: 0.8"/>
      </defs>
      <g>
       <use xlink:href="#m0ee526c468" x="92.290909" y="504" style="stroke: #000000; stroke-width: 0.8"/>
      </g>
     </g>
     <g id="text_1">
      <!-- 0 -->
      <g transform="translate(85.292159 527.716563)scale(0.22 -0.22)">
       <defs>
        <path id="DejaVuSans-30" d="M 2034 4250 
Q 1547 4250 1301 3770 
Q 1056 3291 1056 2328 
Q 1056 1369 1301 889 
Q 1547 409 2034 409 
Q 2525 409 2770 889 
Q 3016 1369 3016 2328 
Q 3016 3291 2770 3770 
Q 2525 4250 2034 4250 
z
M 2034 4750 
Q 2819 4750 3233 4129 
Q 3647 3509 3647 2328 
Q 3647 1150 3233 529 
Q 2819 -91 2034 -91 
Q 1250 -91 836 529 
Q 422 1150 422 2328 
Q 422 3509 836 4129 
Q 1250 4750 2034 4750 
z
" transform="scale(0.015625)"/>
       </defs>
       <use xlink:href="#DejaVuSans-30"/>
      </g>
     </g>
    </g>
    <g id="xtick_2">
     <g id="line2d_2">
      <g>
       <use xlink:href="#m0ee526c468" x="227.563636" y="504" style="stroke: #000000; stroke-width: 0.8"/>
      </g>
     </g>
     <g id="text_2">
      <!-- 1000 -->
      <g transform="translate(199.568636 527.716563)scale(0.22 -0.22)">
       <defs>
        <path id="DejaVuSans-31" d="M 794 531 
L 1825 531 
L 1825 4091 
L 703 3866 
L 703 4441 
L 1819 4666 
L 2450 4666 
L 2450 531 
L 3481 531 
L 3481 0 
L 794 0 
L 794 531 
z
" transform="scale(0.015625)"/>
       </defs>
       <use xlink:href="#DejaVuSans-31"/>
       <use xlink:href="#DejaVuSans-30" x="63.623047"/>
       <use xlink:href="#DejaVuSans-30" x="127.246094"/>
       <use xlink:href="#DejaVuSans-30" x="190.869141"/>
      </g>
     </g>
    </g>
    <g id="xtick_3">
     <g id="line2d_3">
      <g>
       <use xlink:href="#m0ee526c468" x="362.836364" y="504" style="stroke: #000000; stroke-width: 0.8"/>
      </g>
     </g>
     <g id="text_3">
      <!-- 2000 -->
      <g transform="translate(334.841364 527.716563)scale(0.22 -0.22)">
       <defs>
        <path id="DejaVuSans-32" d="M 1228 531 
L 3431 531 
L 3431 0 
L 469 0 
L 469 531 
Q 828 903 1448 1529 
Q 2069 2156 2228 2338 
Q 2531 2678 2651 2914 
Q 2772 3150 2772 3378 
Q 2772 3750 2511 3984 
Q 2250 4219 1831 4219 
Q 1534 4219 1204 4116 
Q 875 4013 500 3803 
L 500 4441 
Q 881 4594 1212 4672 
Q 1544 4750 1819 4750 
Q 2544 4750 2975 4387 
Q 3406 4025 3406 3419 
Q 3406 3131 3298 2873 
Q 3191 2616 2906 2266 
Q 2828 2175 2409 1742 
Q 1991 1309 1228 531 
z
" transform="scale(0.015625)"/>
       </defs>
       <use xlink:href="#DejaVuSans-32"/>
       <use xlink:href="#DejaVuSans-30" x="63.623047"/>
       <use xlink:href="#DejaVuSans-30" x="127.246094"/>
       <use xlink:href="#DejaVuSans-30" x="190.869141"/>
      </g>
     </g>
    </g>
    <g id="xtick_4">
     <g id="line2d_4">
      <g>
       <use xlink:href="#m0ee526c468" x="498.109091" y="504" style="stroke: #000000; stroke-width: 0.8"/>
      </g>
     </g>
     <g id="text_4">
      <!-- 3000 -->
      <g transform="translate(470.114091 527.716563)scale(0.22 -0.22)">
       <defs>
        <path id="DejaVuSans-33" d="M 2597 2516 
Q 3050 2419 3304 2112 
Q 3559 1806 3559 1356 
Q 3559 666 3084 287 
Q 2609 -91 1734 -91 
Q 1441 -91 1130 -33 
Q 819 25 488 141 
L 488 750 
Q 750 597 1062 519 
Q 1375 441 1716 441 
Q 2309 441 2620 675 
Q 2931 909 2931 1356 
Q 2931 1769 2642 2001 
Q 2353 2234 1838 2234 
L 1294 2234 
L 1294 2753 
L 1863 2753 
Q 2328 2753 2575 2939 
Q 2822 3125 2822 3475 
Q 2822 3834 2567 4026 
Q 2313 4219 1838 4219 
Q 1578 4219 1281 4162 
Q 984 4106 628 3988 
L 628 4550 
Q 988 4650 1302 4700 
Q 1616 4750 1894 4750 
Q 2613 4750 3031 4423 
Q 3450 4097 3450 3541 
Q 3450 3153 3228 2886 
Q 3006 2619 2597 2516 
z
" transform="scale(0.015625)"/>
       </defs>
       <use xlink:href="#DejaVuSans-33"/>
       <use xlink:href="#DejaVuSans-30" x="63.623047"/>
       <use xlink:href="#DejaVuSans-30" x="127.246094"/>
       <use xlink:href="#DejaVuSans-30" x="190.869141"/>
      </g>
     </g>
    </g>
    <g id="text_5">
     <!-- Time(ms) -->
     <g transform="translate(249.182187 552.307188)scale(0.22 -0.22)">
      <defs>
       <path id="ArialMT-54" d="M 1659 0 
L 1659 4041 
L 150 4041 
L 150 4581 
L 3781 4581 
L 3781 4041 
L 2266 4041 
L 2266 0 
L 1659 0 
z
" transform="scale(0.015625)"/>
       <path id="ArialMT-69" d="M 425 3934 
L 425 4581 
L 988 4581 
L 988 3934 
L 425 3934 
z
M 425 0 
L 425 3319 
L 988 3319 
L 988 0 
L 425 0 
z
" transform="scale(0.015625)"/>
       <path id="ArialMT-6d" d="M 422 0 
L 422 3319 
L 925 3319 
L 925 2853 
Q 1081 3097 1340 3245 
Q 1600 3394 1931 3394 
Q 2300 3394 2536 3241 
Q 2772 3088 2869 2813 
Q 3263 3394 3894 3394 
Q 4388 3394 4653 3120 
Q 4919 2847 4919 2278 
L 4919 0 
L 4359 0 
L 4359 2091 
Q 4359 2428 4304 2576 
Q 4250 2725 4106 2815 
Q 3963 2906 3769 2906 
Q 3419 2906 3187 2673 
Q 2956 2441 2956 1928 
L 2956 0 
L 2394 0 
L 2394 2156 
Q 2394 2531 2256 2718 
Q 2119 2906 1806 2906 
Q 1569 2906 1367 2781 
Q 1166 2656 1075 2415 
Q 984 2175 984 1722 
L 984 0 
L 422 0 
z
" transform="scale(0.015625)"/>
       <path id="ArialMT-65" d="M 2694 1069 
L 3275 997 
Q 3138 488 2766 206 
Q 2394 -75 1816 -75 
Q 1088 -75 661 373 
Q 234 822 234 1631 
Q 234 2469 665 2931 
Q 1097 3394 1784 3394 
Q 2450 3394 2872 2941 
Q 3294 2488 3294 1666 
Q 3294 1616 3291 1516 
L 816 1516 
Q 847 969 1125 678 
Q 1403 388 1819 388 
Q 2128 388 2347 550 
Q 2566 713 2694 1069 
z
M 847 1978 
L 2700 1978 
Q 2663 2397 2488 2606 
Q 2219 2931 1791 2931 
Q 1403 2931 1139 2672 
Q 875 2413 847 1978 
z
" transform="scale(0.015625)"/>
       <path id="ArialMT-28" d="M 1497 -1347 
Q 1031 -759 709 28 
Q 388 816 388 1659 
Q 388 2403 628 3084 
Q 909 3875 1497 4659 
L 1900 4659 
Q 1522 4009 1400 3731 
Q 1209 3300 1100 2831 
Q 966 2247 966 1656 
Q 966 153 1900 -1347 
L 1497 -1347 
z
" transform="scale(0.015625)"/>
       <path id="ArialMT-73" d="M 197 991 
L 753 1078 
Q 800 744 1014 566 
Q 1228 388 1613 388 
Q 2000 388 2187 545 
Q 2375 703 2375 916 
Q 2375 1106 2209 1216 
Q 2094 1291 1634 1406 
Q 1016 1563 777 1677 
Q 538 1791 414 1992 
Q 291 2194 291 2438 
Q 291 2659 392 2848 
Q 494 3038 669 3163 
Q 800 3259 1026 3326 
Q 1253 3394 1513 3394 
Q 1903 3394 2198 3281 
Q 2494 3169 2634 2976 
Q 2775 2784 2828 2463 
L 2278 2388 
Q 2241 2644 2061 2787 
Q 1881 2931 1553 2931 
Q 1166 2931 1000 2803 
Q 834 2675 834 2503 
Q 834 2394 903 2306 
Q 972 2216 1119 2156 
Q 1203 2125 1616 2013 
Q 2213 1853 2448 1751 
Q 2684 1650 2818 1456 
Q 2953 1263 2953 975 
Q 2953 694 2789 445 
Q 2625 197 2315 61 
Q 2006 -75 1616 -75 
Q 969 -75 630 194 
Q 291 463 197 991 
z
" transform="scale(0.015625)"/>
       <path id="ArialMT-29" d="M 791 -1347 
L 388 -1347 
Q 1322 153 1322 1656 
Q 1322 2244 1188 2822 
Q 1081 3291 891 3722 
Q 769 4003 388 4659 
L 791 4659 
Q 1378 3875 1659 3084 
Q 1900 2403 1900 1659 
Q 1900 816 1576 28 
Q 1253 -759 791 -1347 
z
" transform="scale(0.015625)"/>
      </defs>
      <use xlink:href="#ArialMT-54"/>
      <use xlink:href="#ArialMT-69" x="57.333984"/>
      <use xlink:href="#ArialMT-6d" x="79.550781"/>
      <use xlink:href="#ArialMT-65" x="162.851562"/>
      <use xlink:href="#ArialMT-28" x="218.466797"/>
      <use xlink:href="#ArialMT-6d" x="251.767578"/>
      <use xlink:href="#ArialMT-73" x="335.068359"/>
      <use xlink:href="#ArialMT-29" x="385.068359"/>
     </g>
    </g>
   </g>
   <g id="matplotlib.axis_2">
    <g id="ytick_1">
     <g id="line2d_5">
      <defs>
       <path id="m31cc6291b0" d="M 0 0 
L -3.5 0 
" style="stroke: #000000; stroke-width: 0.8"/>
      </defs>
      <g>
       <use xlink:href="#m31cc6291b0" x="72" y="476.82" style="stroke: #000000; stroke-width: 0.8"/>
      </g>
     </g>
     <g id="text_6">
      <!-- −100 -->
      <g transform="translate(4.572187 485.178281)scale(0.22 -0.22)">
       <defs>
        <path id="DejaVuSans-2212" d="M 678 2272 
L 4684 2272 
L 4684 1741 
L 678 1741 
L 678 2272 
z
" transform="scale(0.015625)"/>
       </defs>
       <use xlink:href="#DejaVuSans-2212"/>
       <use xlink:href="#DejaVuSans-31" x="83.789062"/>
       <use xlink:href="#DejaVuSans-30" x="147.412109"/>
       <use xlink:href="#DejaVuSans-30" x="211.035156"/>
      </g>
     </g>
    </g>
    <g id="ytick_2">
     <g id="line2d_6">
      <g>
       <use xlink:href="#m31cc6291b0" x="72" y="422.46" style="stroke: #000000; stroke-width: 0.8"/>
      </g>
     </g>
     <g id="text_7">
      <!-- −80 -->
      <g transform="translate(18.569688 430.818281)scale(0.22 -0.22)">
       <defs>
        <path id="DejaVuSans-38" d="M 2034 2216 
Q 1584 2216 1326 1975 
Q 1069 1734 1069 1313 
Q 1069 891 1326 650 
Q 1584 409 2034 409 
Q 2484 409 2743 651 
Q 3003 894 3003 1313 
Q 3003 1734 2745 1975 
Q 2488 2216 2034 2216 
z
M 1403 2484 
Q 997 2584 770 2862 
Q 544 3141 544 3541 
Q 544 4100 942 4425 
Q 1341 4750 2034 4750 
Q 2731 4750 3128 4425 
Q 3525 4100 3525 3541 
Q 3525 3141 3298 2862 
Q 3072 2584 2669 2484 
Q 3125 2378 3379 2068 
Q 3634 1759 3634 1313 
Q 3634 634 3220 271 
Q 2806 -91 2034 -91 
Q 1263 -91 848 271 
Q 434 634 434 1313 
Q 434 1759 690 2068 
Q 947 2378 1403 2484 
z
M 1172 3481 
Q 1172 3119 1398 2916 
Q 1625 2713 2034 2713 
Q 2441 2713 2670 2916 
Q 2900 3119 2900 3481 
Q 2900 3844 2670 4047 
Q 2441 4250 2034 4250 
Q 1625 4250 1398 4047 
Q 1172 3844 1172 3481 
z
" transform="scale(0.015625)"/>
       </defs>
       <use xlink:href="#DejaVuSans-2212"/>
       <use xlink:href="#DejaVuSans-38" x="83.789062"/>
       <use xlink:href="#DejaVuSans-30" x="147.412109"/>
      </g>
     </g>
    </g>
    <g id="ytick_3">
     <g id="line2d_7">
      <g>
       <use xlink:href="#m31cc6291b0" x="72" y="368.1" style="stroke: #000000; stroke-width: 0.8"/>
      </g>
     </g>
     <g id="text_8">
      <!-- −60 -->
      <g transform="translate(18.569688 376.458281)scale(0.22 -0.22)">
       <defs>
        <path id="DejaVuSans-36" d="M 2113 2584 
Q 1688 2584 1439 2293 
Q 1191 2003 1191 1497 
Q 1191 994 1439 701 
Q 1688 409 2113 409 
Q 2538 409 2786 701 
Q 3034 994 3034 1497 
Q 3034 2003 2786 2293 
Q 2538 2584 2113 2584 
z
M 3366 4563 
L 3366 3988 
Q 3128 4100 2886 4159 
Q 2644 4219 2406 4219 
Q 1781 4219 1451 3797 
Q 1122 3375 1075 2522 
Q 1259 2794 1537 2939 
Q 1816 3084 2150 3084 
Q 2853 3084 3261 2657 
Q 3669 2231 3669 1497 
Q 3669 778 3244 343 
Q 2819 -91 2113 -91 
Q 1303 -91 875 529 
Q 447 1150 447 2328 
Q 447 3434 972 4092 
Q 1497 4750 2381 4750 
Q 2619 4750 2861 4703 
Q 3103 4656 3366 4563 
z
" transform="scale(0.015625)"/>
       </defs>
       <use xlink:href="#DejaVuSans-2212"/>
       <use xlink:href="#DejaVuSans-36" x="83.789062"/>
       <use xlink:href="#DejaVuSans-30" x="147.412109"/>
      </g>
     </g>
    </g>
    <g id="ytick_4">
     <g id="line2d_8">
      <g>
       <use xlink:href="#m31cc6291b0" x="72" y="313.74" style="stroke: #000000; stroke-width: 0.8"/>
      </g>
     </g>
     <g id="text_9">
      <!-- −40 -->
      <g transform="translate(18.569688 322.098281)scale(0.22 -0.22)">
       <defs>
        <path id="DejaVuSans-34" d="M 2419 4116 
L 825 1625 
L 2419 1625 
L 2419 4116 
z
M 2253 4666 
L 3047 4666 
L 3047 1625 
L 3713 1625 
L 3713 1100 
L 3047 1100 
L 3047 0 
L 2419 0 
L 2419 1100 
L 313 1100 
L 313 1709 
L 2253 4666 
z
" transform="scale(0.015625)"/>
       </defs>
       <use xlink:href="#DejaVuSans-2212"/>
       <use xlink:href="#DejaVuSans-34" x="83.789062"/>
       <use xlink:href="#DejaVuSans-30" x="147.412109"/>
      </g>
     </g>
    </g>
    <g id="ytick_5">
     <g id="line2d_9">
      <g>
       <use xlink:href="#m31cc6291b0" x="72" y="259.38" style="stroke: #000000; stroke-width: 0.8"/>
      </g>
     </g>
     <g id="text_10">
      <!-- −20 -->
      <g transform="translate(18.569688 267.738281)scale(0.22 -0.22)">
       <use xlink:href="#DejaVuSans-2212"/>
       <use xlink:href="#DejaVuSans-32" x="83.789062"/>
       <use xlink:href="#DejaVuSans-30" x="147.412109"/>
      </g>
     </g>
    </g>
    <g id="ytick_6">
     <g id="line2d_10">
      <g>
       <use xlink:href="#m31cc6291b0" x="72" y="205.02" style="stroke: #000000; stroke-width: 0.8"/>
      </g>
     </g>
     <g id="text_11">
      <!-- 0 -->
      <g transform="translate(51.0025 213.378281)scale(0.22 -0.22)">
       <use xlink:href="#DejaVuSans-30"/>
      </g>
     </g>
    </g>
    <g id="ytick_7">
     <g id="line2d_11">
      <g>
       <use xlink:href="#m31cc6291b0" x="72" y="150.66" style="stroke: #000000; stroke-width: 0.8"/>
      </g>
     </g>
     <g id="text_12">
      <!-- 20 -->
      <g transform="translate(37.005 159.018281)scale(0.22 -0.22)">
       <use xlink:href="#DejaVuSans-32"/>
       <use xlink:href="#DejaVuSans-30" x="63.623047"/>
      </g>
     </g>
    </g>
    <g id="ytick_8">
     <g id="line2d_12">
      <g>
       <use xlink:href="#m31cc6291b0" x="72" y="96.3" style="stroke: #000000; stroke-width: 0.8"/>
      </g>
     </g>
     <g id="text_13">
      <!-- 40 -->
      <g transform="translate(37.005 104.658281)scale(0.22 -0.22)">
       <use xlink:href="#DejaVuSans-34"/>
       <use xlink:href="#DejaVuSans-30" x="63.623047"/>
      </g>
     </g>
    </g>
    <g id="text_14">
     <!-- Membrane potential (mV) -->
     <g transform="translate(-4.058125 410.655469)rotate(-90)scale(0.22 -0.22)">
      <defs>
       <path id="ArialMT-4d" d="M 475 0 
L 475 4581 
L 1388 4581 
L 2472 1338 
Q 2622 884 2691 659 
Q 2769 909 2934 1394 
L 4031 4581 
L 4847 4581 
L 4847 0 
L 4263 0 
L 4263 3834 
L 2931 0 
L 2384 0 
L 1059 3900 
L 1059 0 
L 475 0 
z
" transform="scale(0.015625)"/>
       <path id="ArialMT-62" d="M 941 0 
L 419 0 
L 419 4581 
L 981 4581 
L 981 2947 
Q 1338 3394 1891 3394 
Q 2197 3394 2470 3270 
Q 2744 3147 2920 2923 
Q 3097 2700 3197 2384 
Q 3297 2069 3297 1709 
Q 3297 856 2875 390 
Q 2453 -75 1863 -75 
Q 1275 -75 941 416 
L 941 0 
z
M 934 1684 
Q 934 1088 1097 822 
Q 1363 388 1816 388 
Q 2184 388 2453 708 
Q 2722 1028 2722 1663 
Q 2722 2313 2464 2622 
Q 2206 2931 1841 2931 
Q 1472 2931 1203 2611 
Q 934 2291 934 1684 
z
" transform="scale(0.015625)"/>
       <path id="ArialMT-72" d="M 416 0 
L 416 3319 
L 922 3319 
L 922 2816 
Q 1116 3169 1280 3281 
Q 1444 3394 1641 3394 
Q 1925 3394 2219 3213 
L 2025 2691 
Q 1819 2813 1613 2813 
Q 1428 2813 1281 2702 
Q 1134 2591 1072 2394 
Q 978 2094 978 1738 
L 978 0 
L 416 0 
z
" transform="scale(0.015625)"/>
       <path id="ArialMT-61" d="M 2588 409 
Q 2275 144 1986 34 
Q 1697 -75 1366 -75 
Q 819 -75 525 192 
Q 231 459 231 875 
Q 231 1119 342 1320 
Q 453 1522 633 1644 
Q 813 1766 1038 1828 
Q 1203 1872 1538 1913 
Q 2219 1994 2541 2106 
Q 2544 2222 2544 2253 
Q 2544 2597 2384 2738 
Q 2169 2928 1744 2928 
Q 1347 2928 1158 2789 
Q 969 2650 878 2297 
L 328 2372 
Q 403 2725 575 2942 
Q 747 3159 1072 3276 
Q 1397 3394 1825 3394 
Q 2250 3394 2515 3294 
Q 2781 3194 2906 3042 
Q 3031 2891 3081 2659 
Q 3109 2516 3109 2141 
L 3109 1391 
Q 3109 606 3145 398 
Q 3181 191 3288 0 
L 2700 0 
Q 2613 175 2588 409 
z
M 2541 1666 
Q 2234 1541 1622 1453 
Q 1275 1403 1131 1340 
Q 988 1278 909 1158 
Q 831 1038 831 891 
Q 831 666 1001 516 
Q 1172 366 1500 366 
Q 1825 366 2078 508 
Q 2331 650 2450 897 
Q 2541 1088 2541 1459 
L 2541 1666 
z
" transform="scale(0.015625)"/>
       <path id="ArialMT-6e" d="M 422 0 
L 422 3319 
L 928 3319 
L 928 2847 
Q 1294 3394 1984 3394 
Q 2284 3394 2536 3286 
Q 2788 3178 2913 3003 
Q 3038 2828 3088 2588 
Q 3119 2431 3119 2041 
L 3119 0 
L 2556 0 
L 2556 2019 
Q 2556 2363 2490 2533 
Q 2425 2703 2258 2804 
Q 2091 2906 1866 2906 
Q 1506 2906 1245 2678 
Q 984 2450 984 1813 
L 984 0 
L 422 0 
z
" transform="scale(0.015625)"/>
       <path id="ArialMT-20" transform="scale(0.015625)"/>
       <path id="ArialMT-70" d="M 422 -1272 
L 422 3319 
L 934 3319 
L 934 2888 
Q 1116 3141 1344 3267 
Q 1572 3394 1897 3394 
Q 2322 3394 2647 3175 
Q 2972 2956 3137 2557 
Q 3303 2159 3303 1684 
Q 3303 1175 3120 767 
Q 2938 359 2589 142 
Q 2241 -75 1856 -75 
Q 1575 -75 1351 44 
Q 1128 163 984 344 
L 984 -1272 
L 422 -1272 
z
M 931 1641 
Q 931 1000 1190 694 
Q 1450 388 1819 388 
Q 2194 388 2461 705 
Q 2728 1022 2728 1688 
Q 2728 2322 2467 2637 
Q 2206 2953 1844 2953 
Q 1484 2953 1207 2617 
Q 931 2281 931 1641 
z
" transform="scale(0.015625)"/>
       <path id="ArialMT-6f" d="M 213 1659 
Q 213 2581 725 3025 
Q 1153 3394 1769 3394 
Q 2453 3394 2887 2945 
Q 3322 2497 3322 1706 
Q 3322 1066 3130 698 
Q 2938 331 2570 128 
Q 2203 -75 1769 -75 
Q 1072 -75 642 372 
Q 213 819 213 1659 
z
M 791 1659 
Q 791 1022 1069 705 
Q 1347 388 1769 388 
Q 2188 388 2466 706 
Q 2744 1025 2744 1678 
Q 2744 2294 2464 2611 
Q 2184 2928 1769 2928 
Q 1347 2928 1069 2612 
Q 791 2297 791 1659 
z
" transform="scale(0.015625)"/>
       <path id="ArialMT-74" d="M 1650 503 
L 1731 6 
Q 1494 -44 1306 -44 
Q 1000 -44 831 53 
Q 663 150 594 308 
Q 525 466 525 972 
L 525 2881 
L 113 2881 
L 113 3319 
L 525 3319 
L 525 4141 
L 1084 4478 
L 1084 3319 
L 1650 3319 
L 1650 2881 
L 1084 2881 
L 1084 941 
Q 1084 700 1114 631 
Q 1144 563 1211 522 
Q 1278 481 1403 481 
Q 1497 481 1650 503 
z
" transform="scale(0.015625)"/>
       <path id="ArialMT-6c" d="M 409 0 
L 409 4581 
L 972 4581 
L 972 0 
L 409 0 
z
" transform="scale(0.015625)"/>
       <path id="ArialMT-56" d="M 1803 0 
L 28 4581 
L 684 4581 
L 1875 1253 
Q 2019 853 2116 503 
Q 2222 878 2363 1253 
L 3600 4581 
L 4219 4581 
L 2425 0 
L 1803 0 
z
" transform="scale(0.015625)"/>
      </defs>
      <use xlink:href="#ArialMT-4d"/>
      <use xlink:href="#ArialMT-65" x="83.300781"/>
      <use xlink:href="#ArialMT-6d" x="138.916016"/>
      <use xlink:href="#ArialMT-62" x="222.216797"/>
      <use xlink:href="#ArialMT-72" x="277.832031"/>
      <use xlink:href="#ArialMT-61" x="311.132812"/>
      <use xlink:href="#ArialMT-6e" x="366.748047"/>
      <use xlink:href="#ArialMT-65" x="422.363281"/>
      <use xlink:href="#ArialMT-20" x="477.978516"/>
      <use xlink:href="#ArialMT-70" x="505.761719"/>
      <use xlink:href="#ArialMT-6f" x="561.376953"/>
      <use xlink:href="#ArialMT-74" x="616.992188"/>
      <use xlink:href="#ArialMT-65" x="644.775391"/>
      <use xlink:href="#ArialMT-6e" x="700.390625"/>
      <use xlink:href="#ArialMT-74" x="756.005859"/>
      <use xlink:href="#ArialMT-69" x="783.789062"/>
      <use xlink:href="#ArialMT-61" x="806.005859"/>
      <use xlink:href="#ArialMT-6c" x="861.621094"/>
      <use xlink:href="#ArialMT-20" x="883.837891"/>
      <use xlink:href="#ArialMT-28" x="911.621094"/>
      <use xlink:href="#ArialMT-6d" x="944.921875"/>
      <use xlink:href="#ArialMT-56" x="1028.222656"/>
      <use xlink:href="#ArialMT-29" x="1094.921875"/>
     </g>
    </g>
   </g>
   <g id="line2d_13">
    <path d="M 92.290909 430.614 
L 92.493818 432.494771 
L 92.899636 433.198022 
L 93.508364 433.784107 
L 94.252364 434.184173 
L 95.266909 434.44653 
L 96.822545 434.586628 
L 100.610182 434.634938 
L 159.927273 434.636914 
L 160.130182 416.999838 
L 160.536 405.879245 
L 161.144727 395.464217 
L 162.091636 383.551624 
L 163.917818 361.593388 
L 164.458909 351.726766 
L 164.864727 341.317996 
L 165.135273 327.874294 
L 165.270545 307.54219 
L 165.405818 151.447355 
L 165.676364 357.897961 
L 165.879273 399.31911 
L 166.014545 402.703672 
L 166.149818 400.551848 
L 166.961455 382.077045 
L 167.570182 374.261698 
L 168.381818 366.680097 
L 169.531636 357.666391 
L 170.546182 347.963907 
L 170.952 342.219617 
L 171.222545 336.259074 
L 171.425455 327.003025 
L 171.560727 308.601761 
L 171.696 147.940355 
L 171.763636 227.036322 
L 171.966545 344.940231 
L 172.237091 396.403168 
L 172.372364 399.569713 
L 172.44 399.258303 
L 172.710545 394.042554 
L 173.386909 380.490226 
L 173.995636 372.595968 
L 174.739636 366.197814 
L 176.227636 353.602499 
L 176.633455 348.120953 
L 176.971636 340.953769 
L 177.174545 333.241469 
L 177.309818 322.212526 
L 177.377455 308.920585 
L 177.512727 147.377925 
L 177.783273 350.493672 
L 177.986182 393.516601 
L 178.189091 400.736899 
L 178.324364 399.445535 
L 179.812364 373.060723 
L 180.759273 363.903398 
L 182.788364 345.576231 
L 183.058909 339.765725 
L 183.261818 331.541488 
L 183.397091 319.048113 
L 183.464727 301.766845 
L 183.6 166.768761 
L 183.802909 331.343053 
L 184.073455 394.53482 
L 184.276364 400.402918 
L 184.411636 398.822206 
L 185.696727 375.028016 
L 186.508364 366.43224 
L 187.861091 353.478502 
L 188.808 340.693812 
L 189.078545 331.32744 
L 189.213818 319.697445 
L 189.281455 304.642622 
L 189.416727 159.413861 
L 189.619636 328.050753 
L 189.890182 392.191426 
L 190.093091 398.59002 
L 190.160727 398.317967 
L 190.363636 395.133796 
L 191.310545 377.744373 
L 192.054545 369.179758 
L 192.528 365.46347 
L 192.595636 365.392028 
L 192.866182 365.771583 
L 193.001455 365.682249 
L 193.204364 365.121654 
L 193.542545 363.377087 
L 194.218909 358.529812 
L 194.895273 351.76653 
L 195.301091 345.436463 
L 195.571636 337.75183 
L 195.774545 325.849282 
L 195.909818 306.527774 
L 196.045091 153.887541 
L 196.112727 234.557753 
L 196.315636 342.041182 
L 196.586182 390.603582 
L 196.789091 396.111077 
L 196.856727 395.93637 
L 197.059636 393.191149 
L 198.074182 376.133303 
L 198.818182 367.836603 
L 199.765091 359.565404 
L 200.373818 355.063779 
L 201.456 344.572833 
L 201.726545 338.305843 
L 201.929455 328.59411 
L 202.064727 309.881684 
L 202.2 144.568334 
L 202.267636 225.059056 
L 202.470545 347.60244 
L 202.741091 396.688576 
L 202.876364 399.687969 
L 202.944 399.438261 
L 203.146909 395.952245 
L 203.958545 379.852205 
L 204.567273 372.416563 
L 205.243636 366.507944 
L 206.596364 356.940569 
L 207.272727 349.064065 
L 207.678545 341.261404 
L 207.881455 334.107975 
L 208.016727 324.620878 
L 208.084364 314.650263 
L 208.152 284.988357 
L 208.219636 134.616602 
L 208.287273 198.932627 
L 208.490182 341.894545 
L 208.760727 395.71174 
L 208.896 399.357973 
L 208.963636 399.189871 
L 209.166545 396.025404 
L 210.113455 378.80175 
L 210.789818 371.049404 
L 212.954182 348.449411 
L 213.36 339.655449 
L 213.630545 328.191688 
L 213.765818 311.779097 
L 213.833455 278.114153 
L 213.901091 141.005679 
L 213.968727 210.855488 
L 214.171636 342.118362 
L 214.442182 395.293936 
L 214.577455 399.221368 
L 214.645091 399.182529 
L 214.848 395.941734 
L 215.727273 379.07676 
L 216.268364 372.948667 
L 217.282909 364.190983 
L 218.162182 357.156837 
L 218.770909 350.185899 
L 219.176727 343.408408 
L 219.447273 334.53997 
L 219.582545 324.75565 
L 219.650182 314.433654 
L 219.717818 282.217946 
L 219.785455 133.898001 
L 219.853091 201.858827 
L 220.056 343.89589 
L 220.326545 396.721653 
L 220.461818 400.253121 
L 220.529455 400.158867 
L 220.732364 396.890707 
L 221.611636 379.544184 
L 222.152727 373.114554 
L 224.384727 352.606592 
L 224.858182 345.392922 
L 225.128727 338.366473 
L 225.331636 327.24482 
L 225.466909 300.261008 
L 225.534545 156.250133 
L 225.602182 170.127691 
L 225.805091 333.944929 
L 226.075636 395.070966 
L 226.278545 400.469376 
L 226.413818 399.011216 
L 227.901818 373.214635 
L 228.848727 364.621036 
L 230.066182 354.502793 
L 231.216 345.298267 
L 231.621818 339.709738 
L 231.892364 332.413775 
L 232.095273 318.222731 
L 232.162909 304.867701 
L 232.298182 157.658333 
L 232.501091 320.275299 
L 232.771636 389.892394 
L 232.974545 398.40817 
L 233.109818 396.920259 
L 234.192 376.663795 
L 234.800727 370.148562 
L 236.559273 354.365207 
L 237.168 346.287894 
L 237.506182 338.295632 
L 237.709091 328.7185 
L 237.844364 311.871236 
L 237.912 275.227869 
L 237.979636 139.805093 
L 238.047273 212.536268 
L 238.250182 344.840506 
L 238.520727 397.563613 
L 238.656 400.619594 
L 238.723636 400.262112 
L 238.926545 396.335919 
L 239.670545 380.699365 
L 240.279273 372.820776 
L 241.293818 362.956134 
L 242.376 352.280161 
L 242.849455 345.433946 
L 243.12 339.050511 
L 243.322909 329.469481 
L 243.458182 311.234812 
L 243.593455 141.021137 
L 243.661091 219.771316 
L 243.864 347.89413 
L 244.066909 392.786252 
L 244.269818 400.414225 
L 244.337455 400.088328 
L 244.608 394.91373 
L 245.284364 381.329237 
L 245.960727 372.525549 
L 246.84 364.024122 
L 248.666182 351.085589 
L 249.072 346.44786 
L 249.410182 339.616735 
L 249.613091 332.451721 
L 249.748364 322.67691 
L 249.816 311.902335 
L 249.883636 276.103223 
L 249.951273 140.0256 
L 250.018909 211.763651 
L 250.221818 342.600571 
L 250.492364 395.587885 
L 250.627636 399.446018 
L 250.695273 399.425051 
L 250.898182 396.302927 
L 251.845091 377.962027 
L 252.386182 371.812909 
L 254.482909 352.861036 
L 254.956364 345.986494 
L 255.226909 339.042857 
L 255.429818 328.706797 
L 255.565091 308.044837 
L 255.700364 149.883288 
L 255.970909 353.176136 
L 256.173818 394.7996 
L 256.376727 400.999212 
L 256.512 399.456352 
L 257.797091 375.329662 
L 258.608727 367.183964 
L 259.217455 362.626901 
L 259.826182 358.168682 
L 260.367273 352.274744 
L 260.773091 345.331539 
L 261.043636 337.426668 
L 261.246545 323.895239 
L 261.314182 312.202223 
L 261.381818 266.78241 
L 261.449455 138.4615 
L 261.517091 215.849444 
L 261.72 347.713946 
L 261.922909 392.238681 
L 262.125818 400.165635 
L 262.193455 399.998874 
L 262.396364 396.720077 
L 263.343273 378.391905 
L 264.019636 370.620644 
L 264.763636 364.428694 
L 266.048727 354.390033 
L 266.522182 348.057824 
L 266.860364 340.499095 
L 267.063273 331.951187 
L 267.198545 318.312572 
L 267.266182 297.366057 
L 267.333818 142.779985 
L 267.401455 176.521995 
L 267.604364 336.728626 
L 267.874909 395.512745 
L 268.077818 400.155834 
L 268.213091 398.56641 
L 269.565818 374.468801 
L 270.174545 369.152888 
L 272.474182 351.714957 
L 272.677091 351.754248 
L 272.812364 351.601312 
L 273.015273 350.909575 
L 273.285818 348.940625 
L 273.624 344.972959 
L 273.894545 339.713429 
L 274.097455 332.509615 
L 274.232727 322.259581 
L 274.300364 310.537315 
L 274.368 265.748159 
L 274.435636 142.820501 
L 274.503273 220.515772 
L 274.706182 346.277742 
L 274.976727 396.915194 
L 275.112 400.027568 
L 275.179636 399.743081 
L 275.382545 396.101789 
L 276.194182 379.60613 
L 276.870545 371.095166 
L 278.088 359.679441 
L 278.899636 351.977479 
L 279.440727 343.916008 
L 279.778909 335.845151 
L 279.981818 324.513361 
L 280.117091 293.134979 
L 280.184727 145.844862 
L 280.252364 186.814323 
L 280.455273 335.000668 
L 280.725818 393.557319 
L 280.928727 399.140458 
L 281.064 397.755857 
L 282.484364 373.207606 
L 283.093091 367.758923 
L 284.310545 357.647997 
L 285.189818 347.98511 
L 285.595636 340.408643 
L 285.866182 330.782027 
L 286.001455 321.792687 
L 286.136727 291.205506 
L 286.204364 161.11204 
L 286.272 192.076919 
L 286.474909 329.205486 
L 286.745455 388.307834 
L 286.948364 395.870063 
L 287.016 395.885817 
L 287.151273 394.438964 
L 288.706909 370.48458 
L 289.856727 359.936247 
L 290.871273 350.307653 
L 291.277091 342.837237 
L 291.547636 333.082554 
L 291.682909 321.592298 
L 291.750545 307.260447 
L 291.885818 152.090443 
L 292.088727 327.161663 
L 292.359273 393.305743 
L 292.562182 400.232225 
L 292.629818 399.985802 
L 292.832727 396.627074 
L 293.712 379.463688 
L 294.320727 371.892022 
L 294.929455 366.859637 
L 296.079273 357.649166 
L 296.958545 348.80856 
L 297.499636 340.762767 
L 297.770182 332.792913 
L 297.905455 324.085454 
L 298.040727 292.697582 
L 298.108364 147.862413 
L 298.176 187.944881 
L 298.378909 335.193097 
L 298.649455 394.036147 
L 298.852364 399.187024 
L 298.987636 397.624608 
L 300.340364 373.787641 
L 301.354909 363.35182 
L 302.437091 351.647998 
L 302.707636 349.250988 
L 303.113455 346.100166 
L 303.519273 340.618602 
L 303.789818 333.569307 
L 303.992727 320.050368 
L 304.060364 307.360806 
L 304.195636 151.305348 
L 304.263273 232.154566 
L 304.466182 342.98546 
L 304.736727 393.400125 
L 304.939636 398.370994 
L 305.074909 397.033754 
L 306.562909 372.246629 
L 307.239273 366.828975 
L 308.186182 359.236908 
L 308.862545 352.314982 
L 309.336 344.943656 
L 309.674182 335.603235 
L 309.877091 321.275677 
L 309.944727 307.804494 
L 310.08 150.392323 
L 310.350545 350.726762 
L 310.553455 393.506861 
L 310.756364 400.513849 
L 310.891636 399.116948 
L 312.244364 374.490688 
L 312.988364 367.212527 
L 314.002909 359.692077 
L 315.085091 352.00759 
L 315.558545 346.190077 
L 315.896727 338.868154 
L 316.099636 329.614231 
L 316.234909 313.035744 
L 316.302545 277.813271 
L 316.370182 136.935961 
L 316.437818 208.099655 
L 316.640727 344.164713 
L 316.911273 397.17075 
L 317.046545 400.760174 
L 317.114182 400.606076 
L 317.317091 397.059515 
L 318.128727 379.996595 
L 318.737455 372.679931 
L 321.442909 344.770537 
L 321.781091 337.386928 
L 321.984 327.474468 
L 322.119273 306.84911 
L 322.254545 153.103417 
L 322.457455 324.095201 
L 322.728 390.746711 
L 322.930909 398.911394 
L 322.998545 398.888531 
L 323.201455 395.989416 
L 324.216 377.167444 
L 324.892364 369.456072 
L 326.853818 349.402647 
L 327.259636 341.534856 
L 327.530182 332.5892 
L 327.665455 322.913403 
L 327.733091 312.523884 
L 327.800727 279.887247 
L 327.868364 139.271039 
L 327.936 207.83156 
L 328.138909 341.828355 
L 328.409455 396.128607 
L 328.544727 399.87459 
L 328.612364 399.721404 
L 328.815273 396.176275 
L 329.626909 379.708918 
L 330.235636 372.462415 
L 332.264727 353.26641 
L 332.805818 350.38366 
L 333.144 347.622628 
L 333.414545 343.772203 
L 333.685091 336.329388 
L 333.888 322.401404 
L 333.955636 309.868424 
L 334.090909 144.708139 
L 334.158545 226.244878 
L 334.361455 349.119085 
L 334.564364 392.644256 
L 334.767273 400.086136 
L 334.834909 399.765782 
L 335.037818 396.168876 
L 335.849455 380.007653 
L 336.525818 371.503572 
L 337.608 361.349234 
L 338.284364 354.088974 
L 338.960727 345.091739 
L 339.231273 339.091974 
L 339.434182 330.432571 
L 339.569455 315.862967 
L 339.637091 291.073072 
L 339.704727 137.489964 
L 339.772364 189.822734 
L 339.975273 338.077301 
L 340.245818 394.701722 
L 340.448727 399.586068 
L 340.584 398.037713 
L 341.936727 374.303746 
L 342.748364 366.296404 
L 344.304 351.683393 
L 344.777455 344.33101 
L 345.115636 335.87023 
L 345.318545 323.762305 
L 345.386182 314.073702 
L 345.453818 286.428019 
L 345.521455 138.630802 
L 345.589091 199.220743 
L 345.792 342.439963 
L 346.062545 396.887843 
L 346.197818 400.038779 
L 346.265455 399.731088 
L 346.468364 396.085818 
L 347.28 380.036522 
L 347.956364 371.462963 
L 348.903273 362.566568 
L 350.053091 351.463834 
L 350.526545 344.328795 
L 350.797091 337.732108 
L 351 328.653699 
L 351.135273 312.828224 
L 351.202909 281.792501 
L 351.270545 139.227024 
L 351.338182 205.306991 
L 351.541091 340.398182 
L 351.811636 394.87581 
L 352.014545 399.017453 
L 352.149818 397.27671 
L 353.367273 375.471889 
L 354.111273 367.575557 
L 356.140364 348.31729 
L 356.546182 341.247186 
L 356.816727 332.089404 
L 356.952 321.17919 
L 357.019636 307.976139 
L 357.154909 149.918915 
L 357.425455 348.698649 
L 357.696 396.372906 
L 357.831273 399.575925 
L 357.898909 399.456984 
L 358.101818 396.194595 
L 358.981091 379.136341 
L 359.657455 370.921907 
L 361.686545 352.944408 
L 362.16 345.403242 
L 362.498182 336.656542 
L 362.701091 326.801132 
L 362.836364 307.11116 
L 362.971636 152.301378 
L 363.174545 321.418019 
L 363.445091 389.096471 
L 363.648 398.30224 
L 363.715636 398.444988 
L 363.850909 396.9796 
L 365.338909 372.158412 
L 366.150545 364.695632 
L 366.894545 357.66328 
L 367.503273 349.681971 
L 367.909091 341.396564 
L 368.112 334.054855 
L 368.247273 324.374661 
L 368.314909 314.166072 
L 368.382545 282.85388 
L 368.450182 135.021653 
L 368.517818 202.064199 
L 368.720727 344.657069 
L 368.991273 398.364709 
L 369.126545 401.391374 
L 369.194182 401.030612 
L 369.464727 395.540538 
L 370.141091 381.366499 
L 370.749818 373.178255 
L 371.764364 363.044176 
L 373.117091 348.86375 
L 373.522909 341.693159 
L 373.793455 333.626582 
L 373.996364 318.499955 
L 374.064 303.043559 
L 374.199273 163.62737 
L 374.402182 328.4211 
L 374.672727 393.526202 
L 374.875636 399.265096 
L 375.010909 397.523309 
L 376.093091 377.19734 
L 376.837091 368.888979 
L 378.730909 349.403327 
L 379.069091 343.127394 
L 379.339636 333.986099 
L 379.474909 324.044112 
L 379.542545 313.321301 
L 379.610182 277.807957 
L 379.677818 136.082787 
L 379.745455 207.617101 
L 379.948364 345.813467 
L 380.151273 393.196727 
L 380.354182 400.93403 
L 380.489455 399.529618 
L 381.774545 375.494075 
L 382.586182 367.211994 
L 384.344727 350.170742 
L 384.682909 343.511193 
L 384.953455 334.066371 
L 385.088727 323.499717 
L 385.156364 311.460644 
L 385.291636 140.449781 
L 385.359273 219.675477 
L 385.562182 348.382944 
L 385.765091 392.026683 
L 385.968 399.642604 
L 386.035636 399.515899 
L 386.238545 396.53125 
L 387.253091 377.635384 
L 387.794182 371.689128 
L 389.823273 354.503445 
L 390.296727 347.993029 
L 390.634909 340.502937 
L 390.837818 332.382984 
L 390.973091 320.570254 
L 391.040727 305.517456 
L 391.176 156.962392 
L 391.378909 329.135105 
L 391.649455 394.570855 
L 391.852364 400.726802 
L 391.987636 399.26458 
L 393.340364 374.386628 
L 393.949091 368.466619 
L 395.64 352.941005 
L 396.181091 346.289305 
L 396.519273 339.197113 
L 396.722182 330.713753 
L 396.857455 317.080044 
L 396.925091 296.085108 
L 396.992727 148.062435 
L 397.060364 180.280797 
L 397.263273 336.227311 
L 397.533818 395.451984 
L 397.736727 399.842856 
L 397.939636 396.674823 
L 398.818909 379.567434 
L 399.562909 370.197629 
L 401.456727 349.462116 
L 402.200727 339.394388 
L 402.538909 338.265447 
L 402.741818 336.224346 
L 402.944727 331.755324 
L 403.147636 319.872152 
L 403.215273 309.326021 
L 403.282909 276.624348 
L 403.350545 149.859532 
L 403.418182 214.367436 
L 403.621091 330.572373 
L 403.891636 386.884015 
L 404.094545 395.370746 
L 404.162182 395.584741 
L 404.297455 394.367135 
L 404.838545 384.150165 
L 405.447273 374.875422 
L 406.191273 366.880306 
L 407.746909 351.538097 
L 408.152727 345.294336 
L 408.423273 338.174501 
L 408.626182 326.945787 
L 408.761455 299.753267 
L 408.829091 156.189665 
L 408.896727 171.569915 
L 409.099636 335.493569 
L 409.370182 396.706934 
L 409.505455 401.083647 
L 409.573091 401.032658 
L 409.776 397.555475 
L 410.587636 380.705104 
L 411.196364 372.774857 
L 412.278545 362.455877 
L 413.022545 354.804032 
L 413.563636 347.45766 
L 413.969455 342.250559 
L 414.24 338.763576 
L 414.442909 333.51876 
L 414.645818 320.126764 
L 414.713455 307.628182 
L 414.848727 150.831931 
L 414.916364 230.614796 
L 415.119273 341.159347 
L 415.389818 391.465122 
L 415.592727 397.030697 
L 415.660364 396.819486 
L 415.863273 393.891652 
L 416.810182 376.997078 
L 417.486545 369.639322 
L 419.650909 349.123344 
L 419.989091 343.287143 
L 420.259636 334.713789 
L 420.394909 325.705736 
L 420.530182 292.716249 
L 420.597818 136.743091 
L 420.665455 186.149952 
L 420.868364 338.31989 
L 421.138909 395.678556 
L 421.341818 400.271657 
L 421.477091 398.581543 
L 422.762182 375.062178 
L 423.506182 367.272685 
L 424.317818 360.846474 
L 425.197091 355.239714 
L 425.805818 351.306216 
L 426.144 347.841151 
L 426.482182 342.073646 
L 426.752727 332.988847 
L 426.888 322.428689 
L 426.955636 310.198843 
L 427.090909 143.723643 
L 427.158545 223.927086 
L 427.361455 348.551075 
L 427.564364 392.698171 
L 427.767273 399.955645 
L 427.902545 398.710487 
L 429.458182 372.175113 
L 430.269818 364.422443 
L 430.472727 362.700685 
L 430.675636 383.522262 
L 431.013818 395.059223 
L 431.487273 402.948341 
L 432.298909 411.96546 
L 433.245818 420.20701 
L 434.057455 425.49874 
L 434.801455 428.986736 
L 435.477818 431.216214 
L 436.154182 432.759358 
L 436.830545 433.803387 
L 437.574545 434.552693 
L 438.386182 435.055368 
L 439.400727 435.400686 
L 440.685818 435.585497 
L 442.444364 435.599988 
L 444.473455 435.396909 
L 449.208 434.804275 
L 453.130909 434.690737 
L 465.373091 434.639393 
L 498.109091 434.636732 
L 498.109091 434.636732 
" clip-path="url(#pe1c2c625be)" style="fill: none; stroke: #000000; stroke-width: 1.5; stroke-linecap: square"/>
   </g>
   <g id="line2d_14">
    <path d="M 497.973818 408.87 
" clip-path="url(#pe1c2c625be)" style="fill: none; stroke: #000000; stroke-width: 1.5; stroke-linecap: square"/>
   </g>
   <g id="line2d_15">
    <path d="M 430.472727 368.1 
L 430.472727 365.382 
L 430.472727 362.664 
L 430.472727 359.946 
L 430.472727 357.228 
L 430.472727 354.51 
L 430.472727 351.792 
L 430.472727 349.074 
L 430.472727 346.356 
L 430.472727 343.638 
L 430.472727 340.92 
L 430.472727 338.202 
L 430.472727 335.484 
L 430.472727 332.766 
L 430.472727 330.048 
L 430.472727 327.33 
L 430.472727 324.612 
L 430.472727 321.894 
L 430.472727 319.176 
L 430.472727 316.458 
" clip-path="url(#pe1c2c625be)" style="fill: none; stroke: #000000; stroke-width: 1.5; stroke-linecap: square"/>
   </g>
   <g id="patch_3">
    <path d="M 72 504 
L 72 69.12 
" style="fill: none; stroke: #000000; stroke-width: 0.8; stroke-linejoin: miter; stroke-linecap: square"/>
   </g>
   <g id="patch_4">
    <path d="M 518.4 504 
L 518.4 69.12 
" style="fill: none; stroke: #000000; stroke-width: 0.8; stroke-linejoin: miter; stroke-linecap: square"/>
   </g>
   <g id="patch_5">
    <path d="M 72 504 
L 518.4 504 
" style="fill: none; stroke: #000000; stroke-width: 0.8; stroke-linejoin: miter; stroke-linecap: square"/>
   </g>
   <g id="patch_6">
    <path d="M 72 69.12 
L 518.4 69.12 
" style="fill: none; stroke: #000000; stroke-width: 0.8; stroke-linejoin: miter; stroke-linecap: square"/>
   </g>
   <g id="text_15">
    <!-- 500 ms -->
    <g transform="translate(497.973818 406.152)scale(0.22 -0.22)">
     <defs>
      <path id="ArialMT-35" d="M 266 1200 
L 856 1250 
Q 922 819 1161 601 
Q 1400 384 1738 384 
Q 2144 384 2425 690 
Q 2706 997 2706 1503 
Q 2706 1984 2436 2262 
Q 2166 2541 1728 2541 
Q 1456 2541 1237 2417 
Q 1019 2294 894 2097 
L 366 2166 
L 809 4519 
L 3088 4519 
L 3088 3981 
L 1259 3981 
L 1013 2750 
Q 1425 3038 1878 3038 
Q 2478 3038 2890 2622 
Q 3303 2206 3303 1553 
Q 3303 931 2941 478 
Q 2500 -78 1738 -78 
Q 1113 -78 717 272 
Q 322 622 266 1200 
z
" transform="scale(0.015625)"/>
      <path id="ArialMT-30" d="M 266 2259 
Q 266 3072 433 3567 
Q 600 4063 929 4331 
Q 1259 4600 1759 4600 
Q 2128 4600 2406 4451 
Q 2684 4303 2865 4023 
Q 3047 3744 3150 3342 
Q 3253 2941 3253 2259 
Q 3253 1453 3087 958 
Q 2922 463 2592 192 
Q 2263 -78 1759 -78 
Q 1097 -78 719 397 
Q 266 969 266 2259 
z
M 844 2259 
Q 844 1131 1108 757 
Q 1372 384 1759 384 
Q 2147 384 2411 759 
Q 2675 1134 2675 2259 
Q 2675 3391 2411 3762 
Q 2147 4134 1753 4134 
Q 1366 4134 1134 3806 
Q 844 3388 844 2259 
z
" transform="scale(0.015625)"/>
     </defs>
     <use xlink:href="#ArialMT-35"/>
     <use xlink:href="#ArialMT-30" x="55.615234"/>
     <use xlink:href="#ArialMT-30" x="111.230469"/>
     <use xlink:href="#ArialMT-20" x="166.845703"/>
     <use xlink:href="#ArialMT-6d" x="194.628906"/>
     <use xlink:href="#ArialMT-73" x="277.929688"/>
    </g>
   </g>
   <g id="text_16">
    <!-- 20 mV -->
    <g transform="translate(504.737455 321.894)scale(0.22 -0.22)">
     <defs>
      <path id="ArialMT-32" d="M 3222 541 
L 3222 0 
L 194 0 
Q 188 203 259 391 
Q 375 700 629 1000 
Q 884 1300 1366 1694 
Q 2113 2306 2375 2664 
Q 2638 3022 2638 3341 
Q 2638 3675 2398 3904 
Q 2159 4134 1775 4134 
Q 1369 4134 1125 3890 
Q 881 3647 878 3216 
L 300 3275 
Q 359 3922 746 4261 
Q 1134 4600 1788 4600 
Q 2447 4600 2831 4234 
Q 3216 3869 3216 3328 
Q 3216 3053 3103 2787 
Q 2991 2522 2730 2228 
Q 2469 1934 1863 1422 
Q 1356 997 1212 845 
Q 1069 694 975 541 
L 3222 541 
z
" transform="scale(0.015625)"/>
     </defs>
     <use xlink:href="#ArialMT-32"/>
     <use xlink:href="#ArialMT-30" x="55.615234"/>
     <use xlink:href="#ArialMT-20" x="111.230469"/>
     <use xlink:href="#ArialMT-6d" x="139.013672"/>
     <use xlink:href="#ArialMT-56" x="222.314453"/>
    </g>
   </g>
   <g id="text_17">
    <!--  Plotting iSPN, trace number 7895  -->
    <g transform="translate(125.842969 63.12)scale(0.22 -0.22)">
     <defs>
      <path id="ArialMT-50" d="M 494 0 
L 494 4581 
L 2222 4581 
Q 2678 4581 2919 4538 
Q 3256 4481 3484 4323 
Q 3713 4166 3852 3881 
Q 3991 3597 3991 3256 
Q 3991 2672 3619 2267 
Q 3247 1863 2275 1863 
L 1100 1863 
L 1100 0 
L 494 0 
z
M 1100 2403 
L 2284 2403 
Q 2872 2403 3119 2622 
Q 3366 2841 3366 3238 
Q 3366 3525 3220 3729 
Q 3075 3934 2838 4000 
Q 2684 4041 2272 4041 
L 1100 4041 
L 1100 2403 
z
" transform="scale(0.015625)"/>
      <path id="ArialMT-67" d="M 319 -275 
L 866 -356 
Q 900 -609 1056 -725 
Q 1266 -881 1628 -881 
Q 2019 -881 2231 -725 
Q 2444 -569 2519 -288 
Q 2563 -116 2559 434 
Q 2191 0 1641 0 
Q 956 0 581 494 
Q 206 988 206 1678 
Q 206 2153 378 2554 
Q 550 2956 876 3175 
Q 1203 3394 1644 3394 
Q 2231 3394 2613 2919 
L 2613 3319 
L 3131 3319 
L 3131 450 
Q 3131 -325 2973 -648 
Q 2816 -972 2473 -1159 
Q 2131 -1347 1631 -1347 
Q 1038 -1347 672 -1080 
Q 306 -813 319 -275 
z
M 784 1719 
Q 784 1066 1043 766 
Q 1303 466 1694 466 
Q 2081 466 2343 764 
Q 2606 1063 2606 1700 
Q 2606 2309 2336 2618 
Q 2066 2928 1684 2928 
Q 1309 2928 1046 2623 
Q 784 2319 784 1719 
z
" transform="scale(0.015625)"/>
      <path id="ArialMT-53" d="M 288 1472 
L 859 1522 
Q 900 1178 1048 958 
Q 1197 738 1509 602 
Q 1822 466 2213 466 
Q 2559 466 2825 569 
Q 3091 672 3220 851 
Q 3350 1031 3350 1244 
Q 3350 1459 3225 1620 
Q 3100 1781 2813 1891 
Q 2628 1963 1997 2114 
Q 1366 2266 1113 2400 
Q 784 2572 623 2826 
Q 463 3081 463 3397 
Q 463 3744 659 4045 
Q 856 4347 1234 4503 
Q 1613 4659 2075 4659 
Q 2584 4659 2973 4495 
Q 3363 4331 3572 4012 
Q 3781 3694 3797 3291 
L 3216 3247 
Q 3169 3681 2898 3903 
Q 2628 4125 2100 4125 
Q 1550 4125 1298 3923 
Q 1047 3722 1047 3438 
Q 1047 3191 1225 3031 
Q 1400 2872 2139 2705 
Q 2878 2538 3153 2413 
Q 3553 2228 3743 1945 
Q 3934 1663 3934 1294 
Q 3934 928 3725 604 
Q 3516 281 3123 101 
Q 2731 -78 2241 -78 
Q 1619 -78 1198 103 
Q 778 284 539 648 
Q 300 1013 288 1472 
z
" transform="scale(0.015625)"/>
      <path id="ArialMT-4e" d="M 488 0 
L 488 4581 
L 1109 4581 
L 3516 984 
L 3516 4581 
L 4097 4581 
L 4097 0 
L 3475 0 
L 1069 3600 
L 1069 0 
L 488 0 
z
" transform="scale(0.015625)"/>
      <path id="ArialMT-2c" d="M 569 0 
L 569 641 
L 1209 641 
L 1209 0 
Q 1209 -353 1084 -570 
Q 959 -788 688 -906 
L 531 -666 
Q 709 -588 793 -436 
Q 878 -284 888 0 
L 569 0 
z
" transform="scale(0.015625)"/>
      <path id="ArialMT-63" d="M 2588 1216 
L 3141 1144 
Q 3050 572 2676 248 
Q 2303 -75 1759 -75 
Q 1078 -75 664 370 
Q 250 816 250 1647 
Q 250 2184 428 2587 
Q 606 2991 970 3192 
Q 1334 3394 1763 3394 
Q 2303 3394 2647 3120 
Q 2991 2847 3088 2344 
L 2541 2259 
Q 2463 2594 2264 2762 
Q 2066 2931 1784 2931 
Q 1359 2931 1093 2626 
Q 828 2322 828 1663 
Q 828 994 1084 691 
Q 1341 388 1753 388 
Q 2084 388 2306 591 
Q 2528 794 2588 1216 
z
" transform="scale(0.015625)"/>
      <path id="ArialMT-75" d="M 2597 0 
L 2597 488 
Q 2209 -75 1544 -75 
Q 1250 -75 995 37 
Q 741 150 617 320 
Q 494 491 444 738 
Q 409 903 409 1263 
L 409 3319 
L 972 3319 
L 972 1478 
Q 972 1038 1006 884 
Q 1059 663 1231 536 
Q 1403 409 1656 409 
Q 1909 409 2131 539 
Q 2353 669 2445 892 
Q 2538 1116 2538 1541 
L 2538 3319 
L 3100 3319 
L 3100 0 
L 2597 0 
z
" transform="scale(0.015625)"/>
      <path id="ArialMT-37" d="M 303 3981 
L 303 4522 
L 3269 4522 
L 3269 4084 
Q 2831 3619 2401 2847 
Q 1972 2075 1738 1259 
Q 1569 684 1522 0 
L 944 0 
Q 953 541 1156 1306 
Q 1359 2072 1739 2783 
Q 2119 3494 2547 3981 
L 303 3981 
z
" transform="scale(0.015625)"/>
      <path id="ArialMT-38" d="M 1131 2484 
Q 781 2613 612 2850 
Q 444 3088 444 3419 
Q 444 3919 803 4259 
Q 1163 4600 1759 4600 
Q 2359 4600 2725 4251 
Q 3091 3903 3091 3403 
Q 3091 3084 2923 2848 
Q 2756 2613 2416 2484 
Q 2838 2347 3058 2040 
Q 3278 1734 3278 1309 
Q 3278 722 2862 322 
Q 2447 -78 1769 -78 
Q 1091 -78 675 323 
Q 259 725 259 1325 
Q 259 1772 486 2073 
Q 713 2375 1131 2484 
z
M 1019 3438 
Q 1019 3113 1228 2906 
Q 1438 2700 1772 2700 
Q 2097 2700 2305 2904 
Q 2513 3109 2513 3406 
Q 2513 3716 2298 3927 
Q 2084 4138 1766 4138 
Q 1444 4138 1231 3931 
Q 1019 3725 1019 3438 
z
M 838 1322 
Q 838 1081 952 856 
Q 1066 631 1291 507 
Q 1516 384 1775 384 
Q 2178 384 2440 643 
Q 2703 903 2703 1303 
Q 2703 1709 2433 1975 
Q 2163 2241 1756 2241 
Q 1359 2241 1098 1978 
Q 838 1716 838 1322 
z
" transform="scale(0.015625)"/>
      <path id="ArialMT-39" d="M 350 1059 
L 891 1109 
Q 959 728 1153 556 
Q 1347 384 1650 384 
Q 1909 384 2104 503 
Q 2300 622 2425 820 
Q 2550 1019 2634 1356 
Q 2719 1694 2719 2044 
Q 2719 2081 2716 2156 
Q 2547 1888 2255 1720 
Q 1963 1553 1622 1553 
Q 1053 1553 659 1965 
Q 266 2378 266 3053 
Q 266 3750 677 4175 
Q 1088 4600 1706 4600 
Q 2153 4600 2523 4359 
Q 2894 4119 3086 3673 
Q 3278 3228 3278 2384 
Q 3278 1506 3087 986 
Q 2897 466 2520 194 
Q 2144 -78 1638 -78 
Q 1100 -78 759 220 
Q 419 519 350 1059 
z
M 2653 3081 
Q 2653 3566 2395 3850 
Q 2138 4134 1775 4134 
Q 1400 4134 1122 3828 
Q 844 3522 844 3034 
Q 844 2597 1108 2323 
Q 1372 2050 1759 2050 
Q 2150 2050 2401 2323 
Q 2653 2597 2653 3081 
z
" transform="scale(0.015625)"/>
     </defs>
     <use xlink:href="#ArialMT-20"/>
     <use xlink:href="#ArialMT-50" x="27.783203"/>
     <use xlink:href="#ArialMT-6c" x="94.482422"/>
     <use xlink:href="#ArialMT-6f" x="116.699219"/>
     <use xlink:href="#ArialMT-74" x="172.314453"/>
     <use xlink:href="#ArialMT-74" x="200.097656"/>
     <use xlink:href="#ArialMT-69" x="227.880859"/>
     <use xlink:href="#ArialMT-6e" x="250.097656"/>
     <use xlink:href="#ArialMT-67" x="305.712891"/>
     <use xlink:href="#ArialMT-20" x="361.328125"/>
     <use xlink:href="#ArialMT-69" x="389.111328"/>
     <use xlink:href="#ArialMT-53" x="411.328125"/>
     <use xlink:href="#ArialMT-50" x="478.027344"/>
     <use xlink:href="#ArialMT-4e" x="544.726562"/>
     <use xlink:href="#ArialMT-2c" x="616.943359"/>
     <use xlink:href="#ArialMT-20" x="644.726562"/>
     <use xlink:href="#ArialMT-74" x="672.509766"/>
     <use xlink:href="#ArialMT-72" x="700.292969"/>
     <use xlink:href="#ArialMT-61" x="733.59375"/>
     <use xlink:href="#ArialMT-63" x="789.208984"/>
     <use xlink:href="#ArialMT-65" x="839.208984"/>
     <use xlink:href="#ArialMT-20" x="894.824219"/>
     <use xlink:href="#ArialMT-6e" x="922.607422"/>
     <use xlink:href="#ArialMT-75" x="978.222656"/>
     <use xlink:href="#ArialMT-6d" x="1033.837891"/>
     <use xlink:href="#ArialMT-62" x="1117.138672"/>
     <use xlink:href="#ArialMT-65" x="1172.753906"/>
     <use xlink:href="#ArialMT-72" x="1228.369141"/>
     <use xlink:href="#ArialMT-20" x="1261.669922"/>
     <use xlink:href="#ArialMT-37" x="1289.453125"/>
     <use xlink:href="#ArialMT-38" x="1345.068359"/>
     <use xlink:href="#ArialMT-39" x="1400.683594"/>
     <use xlink:href="#ArialMT-35" x="1456.298828"/>
     <use xlink:href="#ArialMT-20" x="1511.914062"/>
    </g>
   </g>
  </g>
 </g>
 <defs>
  <clipPath id="pe1c2c625be">
   <rect x="72" y="69.12" width="446.4" height="434.88"/>
  </clipPath>
 </defs>
</svg>
