<?xml version="1.0" encoding="utf-8" standalone="no"?>
<!DOCTYPE svg PUBLIC "-//W3C//DTD SVG 1.1//EN"
  "http://www.w3.org/Graphics/SVG/1.1/DTD/svg11.dtd">
<svg xmlns:xlink="http://www.w3.org/1999/xlink" width="576pt" height="576pt" viewBox="0 0 576 576" xmlns="http://www.w3.org/2000/svg" version="1.1">
 <metadata>
  <rdf:RDF xmlns:dc="http://purl.org/dc/elements/1.1/" xmlns:cc="http://creativecommons.org/ns#" xmlns:rdf="http://www.w3.org/1999/02/22-rdf-syntax-ns#">
   <cc:Work>
    <dc:type rdf:resource="http://purl.org/dc/dcmitype/StillImage"/>
    <dc:date>2022-10-30T19:57:16.750017</dc:date>
    <dc:format>image/svg+xml</dc:format>
    <dc:creator>
     <cc:Agent>
      <dc:title>Matplotlib v3.5.2, https://matplotlib.org/</dc:title>
     </cc:Agent>
    </dc:creator>
   </cc:Work>
  </rdf:RDF>
 </metadata>
 <defs>
  <style type="text/css">*{stroke-linejoin: round; stroke-linecap: butt}</style>
 </defs>
 <g id="figure_1">
  <g id="patch_1">
   <path d="M 0 576 
L 576 576 
L 576 0 
L 0 0 
L 0 576 
z
" style="fill: none"/>
  </g>
  <g id="axes_1">
   <g id="patch_2">
    <path d="M 72 504 
L 518.4 504 
L 518.4 69.12 
L 72 69.12 
z
" style="fill: #ffffff"/>
   </g>
   <g id="matplotlib.axis_1">
    <g id="xtick_1">
     <g id="line2d_1">
      <defs>
       <path id="ma0e5a56222" d="M 0 0 
L 0 3.5 
" style="stroke: #000000; stroke-width: 0.8"/>
      </defs>
      <g>
       <use xlink:href="#ma0e5a56222" x="92.290909" y="504" style="stroke: #000000; stroke-width: 0.8"/>
      </g>
     </g>
     <g id="text_1">
      <!-- 0 -->
      <g transform="translate(85.292159 527.716563)scale(0.22 -0.22)">
       <defs>
        <path id="DejaVuSans-30" d="M 2034 4250 
Q 1547 4250 1301 3770 
Q 1056 3291 1056 2328 
Q 1056 1369 1301 889 
Q 1547 409 2034 409 
Q 2525 409 2770 889 
Q 3016 1369 3016 2328 
Q 3016 3291 2770 3770 
Q 2525 4250 2034 4250 
z
M 2034 4750 
Q 2819 4750 3233 4129 
Q 3647 3509 3647 2328 
Q 3647 1150 3233 529 
Q 2819 -91 2034 -91 
Q 1250 -91 836 529 
Q 422 1150 422 2328 
Q 422 3509 836 4129 
Q 1250 4750 2034 4750 
z
" transform="scale(0.015625)"/>
       </defs>
       <use xlink:href="#DejaVuSans-30"/>
      </g>
     </g>
    </g>
    <g id="xtick_2">
     <g id="line2d_2">
      <g>
       <use xlink:href="#ma0e5a56222" x="227.563636" y="504" style="stroke: #000000; stroke-width: 0.8"/>
      </g>
     </g>
     <g id="text_2">
      <!-- 1000 -->
      <g transform="translate(199.568636 527.716563)scale(0.22 -0.22)">
       <defs>
        <path id="DejaVuSans-31" d="M 794 531 
L 1825 531 
L 1825 4091 
L 703 3866 
L 703 4441 
L 1819 4666 
L 2450 4666 
L 2450 531 
L 3481 531 
L 3481 0 
L 794 0 
L 794 531 
z
" transform="scale(0.015625)"/>
       </defs>
       <use xlink:href="#DejaVuSans-31"/>
       <use xlink:href="#DejaVuSans-30" x="63.623047"/>
       <use xlink:href="#DejaVuSans-30" x="127.246094"/>
       <use xlink:href="#DejaVuSans-30" x="190.869141"/>
      </g>
     </g>
    </g>
    <g id="xtick_3">
     <g id="line2d_3">
      <g>
       <use xlink:href="#ma0e5a56222" x="362.836364" y="504" style="stroke: #000000; stroke-width: 0.8"/>
      </g>
     </g>
     <g id="text_3">
      <!-- 2000 -->
      <g transform="translate(334.841364 527.716563)scale(0.22 -0.22)">
       <defs>
        <path id="DejaVuSans-32" d="M 1228 531 
L 3431 531 
L 3431 0 
L 469 0 
L 469 531 
Q 828 903 1448 1529 
Q 2069 2156 2228 2338 
Q 2531 2678 2651 2914 
Q 2772 3150 2772 3378 
Q 2772 3750 2511 3984 
Q 2250 4219 1831 4219 
Q 1534 4219 1204 4116 
Q 875 4013 500 3803 
L 500 4441 
Q 881 4594 1212 4672 
Q 1544 4750 1819 4750 
Q 2544 4750 2975 4387 
Q 3406 4025 3406 3419 
Q 3406 3131 3298 2873 
Q 3191 2616 2906 2266 
Q 2828 2175 2409 1742 
Q 1991 1309 1228 531 
z
" transform="scale(0.015625)"/>
       </defs>
       <use xlink:href="#DejaVuSans-32"/>
       <use xlink:href="#DejaVuSans-30" x="63.623047"/>
       <use xlink:href="#DejaVuSans-30" x="127.246094"/>
       <use xlink:href="#DejaVuSans-30" x="190.869141"/>
      </g>
     </g>
    </g>
    <g id="xtick_4">
     <g id="line2d_4">
      <g>
       <use xlink:href="#ma0e5a56222" x="498.109091" y="504" style="stroke: #000000; stroke-width: 0.8"/>
      </g>
     </g>
     <g id="text_4">
      <!-- 3000 -->
      <g transform="translate(470.114091 527.716563)scale(0.22 -0.22)">
       <defs>
        <path id="DejaVuSans-33" d="M 2597 2516 
Q 3050 2419 3304 2112 
Q 3559 1806 3559 1356 
Q 3559 666 3084 287 
Q 2609 -91 1734 -91 
Q 1441 -91 1130 -33 
Q 819 25 488 141 
L 488 750 
Q 750 597 1062 519 
Q 1375 441 1716 441 
Q 2309 441 2620 675 
Q 2931 909 2931 1356 
Q 2931 1769 2642 2001 
Q 2353 2234 1838 2234 
L 1294 2234 
L 1294 2753 
L 1863 2753 
Q 2328 2753 2575 2939 
Q 2822 3125 2822 3475 
Q 2822 3834 2567 4026 
Q 2313 4219 1838 4219 
Q 1578 4219 1281 4162 
Q 984 4106 628 3988 
L 628 4550 
Q 988 4650 1302 4700 
Q 1616 4750 1894 4750 
Q 2613 4750 3031 4423 
Q 3450 4097 3450 3541 
Q 3450 3153 3228 2886 
Q 3006 2619 2597 2516 
z
" transform="scale(0.015625)"/>
       </defs>
       <use xlink:href="#DejaVuSans-33"/>
       <use xlink:href="#DejaVuSans-30" x="63.623047"/>
       <use xlink:href="#DejaVuSans-30" x="127.246094"/>
       <use xlink:href="#DejaVuSans-30" x="190.869141"/>
      </g>
     </g>
    </g>
    <g id="text_5">
     <!-- Time(ms) -->
     <g transform="translate(249.182187 552.307188)scale(0.22 -0.22)">
      <defs>
       <path id="ArialMT-54" d="M 1659 0 
L 1659 4041 
L 150 4041 
L 150 4581 
L 3781 4581 
L 3781 4041 
L 2266 4041 
L 2266 0 
L 1659 0 
z
" transform="scale(0.015625)"/>
       <path id="ArialMT-69" d="M 425 3934 
L 425 4581 
L 988 4581 
L 988 3934 
L 425 3934 
z
M 425 0 
L 425 3319 
L 988 3319 
L 988 0 
L 425 0 
z
" transform="scale(0.015625)"/>
       <path id="ArialMT-6d" d="M 422 0 
L 422 3319 
L 925 3319 
L 925 2853 
Q 1081 3097 1340 3245 
Q 1600 3394 1931 3394 
Q 2300 3394 2536 3241 
Q 2772 3088 2869 2813 
Q 3263 3394 3894 3394 
Q 4388 3394 4653 3120 
Q 4919 2847 4919 2278 
L 4919 0 
L 4359 0 
L 4359 2091 
Q 4359 2428 4304 2576 
Q 4250 2725 4106 2815 
Q 3963 2906 3769 2906 
Q 3419 2906 3187 2673 
Q 2956 2441 2956 1928 
L 2956 0 
L 2394 0 
L 2394 2156 
Q 2394 2531 2256 2718 
Q 2119 2906 1806 2906 
Q 1569 2906 1367 2781 
Q 1166 2656 1075 2415 
Q 984 2175 984 1722 
L 984 0 
L 422 0 
z
" transform="scale(0.015625)"/>
       <path id="ArialMT-65" d="M 2694 1069 
L 3275 997 
Q 3138 488 2766 206 
Q 2394 -75 1816 -75 
Q 1088 -75 661 373 
Q 234 822 234 1631 
Q 234 2469 665 2931 
Q 1097 3394 1784 3394 
Q 2450 3394 2872 2941 
Q 3294 2488 3294 1666 
Q 3294 1616 3291 1516 
L 816 1516 
Q 847 969 1125 678 
Q 1403 388 1819 388 
Q 2128 388 2347 550 
Q 2566 713 2694 1069 
z
M 847 1978 
L 2700 1978 
Q 2663 2397 2488 2606 
Q 2219 2931 1791 2931 
Q 1403 2931 1139 2672 
Q 875 2413 847 1978 
z
" transform="scale(0.015625)"/>
       <path id="ArialMT-28" d="M 1497 -1347 
Q 1031 -759 709 28 
Q 388 816 388 1659 
Q 388 2403 628 3084 
Q 909 3875 1497 4659 
L 1900 4659 
Q 1522 4009 1400 3731 
Q 1209 3300 1100 2831 
Q 966 2247 966 1656 
Q 966 153 1900 -1347 
L 1497 -1347 
z
" transform="scale(0.015625)"/>
       <path id="ArialMT-73" d="M 197 991 
L 753 1078 
Q 800 744 1014 566 
Q 1228 388 1613 388 
Q 2000 388 2187 545 
Q 2375 703 2375 916 
Q 2375 1106 2209 1216 
Q 2094 1291 1634 1406 
Q 1016 1563 777 1677 
Q 538 1791 414 1992 
Q 291 2194 291 2438 
Q 291 2659 392 2848 
Q 494 3038 669 3163 
Q 800 3259 1026 3326 
Q 1253 3394 1513 3394 
Q 1903 3394 2198 3281 
Q 2494 3169 2634 2976 
Q 2775 2784 2828 2463 
L 2278 2388 
Q 2241 2644 2061 2787 
Q 1881 2931 1553 2931 
Q 1166 2931 1000 2803 
Q 834 2675 834 2503 
Q 834 2394 903 2306 
Q 972 2216 1119 2156 
Q 1203 2125 1616 2013 
Q 2213 1853 2448 1751 
Q 2684 1650 2818 1456 
Q 2953 1263 2953 975 
Q 2953 694 2789 445 
Q 2625 197 2315 61 
Q 2006 -75 1616 -75 
Q 969 -75 630 194 
Q 291 463 197 991 
z
" transform="scale(0.015625)"/>
       <path id="ArialMT-29" d="M 791 -1347 
L 388 -1347 
Q 1322 153 1322 1656 
Q 1322 2244 1188 2822 
Q 1081 3291 891 3722 
Q 769 4003 388 4659 
L 791 4659 
Q 1378 3875 1659 3084 
Q 1900 2403 1900 1659 
Q 1900 816 1576 28 
Q 1253 -759 791 -1347 
z
" transform="scale(0.015625)"/>
      </defs>
      <use xlink:href="#ArialMT-54"/>
      <use xlink:href="#ArialMT-69" x="57.333984"/>
      <use xlink:href="#ArialMT-6d" x="79.550781"/>
      <use xlink:href="#ArialMT-65" x="162.851562"/>
      <use xlink:href="#ArialMT-28" x="218.466797"/>
      <use xlink:href="#ArialMT-6d" x="251.767578"/>
      <use xlink:href="#ArialMT-73" x="335.068359"/>
      <use xlink:href="#ArialMT-29" x="385.068359"/>
     </g>
    </g>
   </g>
   <g id="matplotlib.axis_2">
    <g id="ytick_1">
     <g id="line2d_5">
      <defs>
       <path id="m7073af0c8e" d="M 0 0 
L -3.5 0 
" style="stroke: #000000; stroke-width: 0.8"/>
      </defs>
      <g>
       <use xlink:href="#m7073af0c8e" x="72" y="476.82" style="stroke: #000000; stroke-width: 0.8"/>
      </g>
     </g>
     <g id="text_6">
      <!-- −100 -->
      <g transform="translate(4.572187 485.178281)scale(0.22 -0.22)">
       <defs>
        <path id="DejaVuSans-2212" d="M 678 2272 
L 4684 2272 
L 4684 1741 
L 678 1741 
L 678 2272 
z
" transform="scale(0.015625)"/>
       </defs>
       <use xlink:href="#DejaVuSans-2212"/>
       <use xlink:href="#DejaVuSans-31" x="83.789062"/>
       <use xlink:href="#DejaVuSans-30" x="147.412109"/>
       <use xlink:href="#DejaVuSans-30" x="211.035156"/>
      </g>
     </g>
    </g>
    <g id="ytick_2">
     <g id="line2d_6">
      <g>
       <use xlink:href="#m7073af0c8e" x="72" y="422.46" style="stroke: #000000; stroke-width: 0.8"/>
      </g>
     </g>
     <g id="text_7">
      <!-- −80 -->
      <g transform="translate(18.569688 430.818281)scale(0.22 -0.22)">
       <defs>
        <path id="DejaVuSans-38" d="M 2034 2216 
Q 1584 2216 1326 1975 
Q 1069 1734 1069 1313 
Q 1069 891 1326 650 
Q 1584 409 2034 409 
Q 2484 409 2743 651 
Q 3003 894 3003 1313 
Q 3003 1734 2745 1975 
Q 2488 2216 2034 2216 
z
M 1403 2484 
Q 997 2584 770 2862 
Q 544 3141 544 3541 
Q 544 4100 942 4425 
Q 1341 4750 2034 4750 
Q 2731 4750 3128 4425 
Q 3525 4100 3525 3541 
Q 3525 3141 3298 2862 
Q 3072 2584 2669 2484 
Q 3125 2378 3379 2068 
Q 3634 1759 3634 1313 
Q 3634 634 3220 271 
Q 2806 -91 2034 -91 
Q 1263 -91 848 271 
Q 434 634 434 1313 
Q 434 1759 690 2068 
Q 947 2378 1403 2484 
z
M 1172 3481 
Q 1172 3119 1398 2916 
Q 1625 2713 2034 2713 
Q 2441 2713 2670 2916 
Q 2900 3119 2900 3481 
Q 2900 3844 2670 4047 
Q 2441 4250 2034 4250 
Q 1625 4250 1398 4047 
Q 1172 3844 1172 3481 
z
" transform="scale(0.015625)"/>
       </defs>
       <use xlink:href="#DejaVuSans-2212"/>
       <use xlink:href="#DejaVuSans-38" x="83.789062"/>
       <use xlink:href="#DejaVuSans-30" x="147.412109"/>
      </g>
     </g>
    </g>
    <g id="ytick_3">
     <g id="line2d_7">
      <g>
       <use xlink:href="#m7073af0c8e" x="72" y="368.1" style="stroke: #000000; stroke-width: 0.8"/>
      </g>
     </g>
     <g id="text_8">
      <!-- −60 -->
      <g transform="translate(18.569688 376.458281)scale(0.22 -0.22)">
       <defs>
        <path id="DejaVuSans-36" d="M 2113 2584 
Q 1688 2584 1439 2293 
Q 1191 2003 1191 1497 
Q 1191 994 1439 701 
Q 1688 409 2113 409 
Q 2538 409 2786 701 
Q 3034 994 3034 1497 
Q 3034 2003 2786 2293 
Q 2538 2584 2113 2584 
z
M 3366 4563 
L 3366 3988 
Q 3128 4100 2886 4159 
Q 2644 4219 2406 4219 
Q 1781 4219 1451 3797 
Q 1122 3375 1075 2522 
Q 1259 2794 1537 2939 
Q 1816 3084 2150 3084 
Q 2853 3084 3261 2657 
Q 3669 2231 3669 1497 
Q 3669 778 3244 343 
Q 2819 -91 2113 -91 
Q 1303 -91 875 529 
Q 447 1150 447 2328 
Q 447 3434 972 4092 
Q 1497 4750 2381 4750 
Q 2619 4750 2861 4703 
Q 3103 4656 3366 4563 
z
" transform="scale(0.015625)"/>
       </defs>
       <use xlink:href="#DejaVuSans-2212"/>
       <use xlink:href="#DejaVuSans-36" x="83.789062"/>
       <use xlink:href="#DejaVuSans-30" x="147.412109"/>
      </g>
     </g>
    </g>
    <g id="ytick_4">
     <g id="line2d_8">
      <g>
       <use xlink:href="#m7073af0c8e" x="72" y="313.74" style="stroke: #000000; stroke-width: 0.8"/>
      </g>
     </g>
     <g id="text_9">
      <!-- −40 -->
      <g transform="translate(18.569688 322.098281)scale(0.22 -0.22)">
       <defs>
        <path id="DejaVuSans-34" d="M 2419 4116 
L 825 1625 
L 2419 1625 
L 2419 4116 
z
M 2253 4666 
L 3047 4666 
L 3047 1625 
L 3713 1625 
L 3713 1100 
L 3047 1100 
L 3047 0 
L 2419 0 
L 2419 1100 
L 313 1100 
L 313 1709 
L 2253 4666 
z
" transform="scale(0.015625)"/>
       </defs>
       <use xlink:href="#DejaVuSans-2212"/>
       <use xlink:href="#DejaVuSans-34" x="83.789062"/>
       <use xlink:href="#DejaVuSans-30" x="147.412109"/>
      </g>
     </g>
    </g>
    <g id="ytick_5">
     <g id="line2d_9">
      <g>
       <use xlink:href="#m7073af0c8e" x="72" y="259.38" style="stroke: #000000; stroke-width: 0.8"/>
      </g>
     </g>
     <g id="text_10">
      <!-- −20 -->
      <g transform="translate(18.569688 267.738281)scale(0.22 -0.22)">
       <use xlink:href="#DejaVuSans-2212"/>
       <use xlink:href="#DejaVuSans-32" x="83.789062"/>
       <use xlink:href="#DejaVuSans-30" x="147.412109"/>
      </g>
     </g>
    </g>
    <g id="ytick_6">
     <g id="line2d_10">
      <g>
       <use xlink:href="#m7073af0c8e" x="72" y="205.02" style="stroke: #000000; stroke-width: 0.8"/>
      </g>
     </g>
     <g id="text_11">
      <!-- 0 -->
      <g transform="translate(51.0025 213.378281)scale(0.22 -0.22)">
       <use xlink:href="#DejaVuSans-30"/>
      </g>
     </g>
    </g>
    <g id="ytick_7">
     <g id="line2d_11">
      <g>
       <use xlink:href="#m7073af0c8e" x="72" y="150.66" style="stroke: #000000; stroke-width: 0.8"/>
      </g>
     </g>
     <g id="text_12">
      <!-- 20 -->
      <g transform="translate(37.005 159.018281)scale(0.22 -0.22)">
       <use xlink:href="#DejaVuSans-32"/>
       <use xlink:href="#DejaVuSans-30" x="63.623047"/>
      </g>
     </g>
    </g>
    <g id="ytick_8">
     <g id="line2d_12">
      <g>
       <use xlink:href="#m7073af0c8e" x="72" y="96.3" style="stroke: #000000; stroke-width: 0.8"/>
      </g>
     </g>
     <g id="text_13">
      <!-- 40 -->
      <g transform="translate(37.005 104.658281)scale(0.22 -0.22)">
       <use xlink:href="#DejaVuSans-34"/>
       <use xlink:href="#DejaVuSans-30" x="63.623047"/>
      </g>
     </g>
    </g>
    <g id="text_14">
     <!-- Membrane potential (mV) -->
     <g transform="translate(-4.058125 410.655469)rotate(-90)scale(0.22 -0.22)">
      <defs>
       <path id="ArialMT-4d" d="M 475 0 
L 475 4581 
L 1388 4581 
L 2472 1338 
Q 2622 884 2691 659 
Q 2769 909 2934 1394 
L 4031 4581 
L 4847 4581 
L 4847 0 
L 4263 0 
L 4263 3834 
L 2931 0 
L 2384 0 
L 1059 3900 
L 1059 0 
L 475 0 
z
" transform="scale(0.015625)"/>
       <path id="ArialMT-62" d="M 941 0 
L 419 0 
L 419 4581 
L 981 4581 
L 981 2947 
Q 1338 3394 1891 3394 
Q 2197 3394 2470 3270 
Q 2744 3147 2920 2923 
Q 3097 2700 3197 2384 
Q 3297 2069 3297 1709 
Q 3297 856 2875 390 
Q 2453 -75 1863 -75 
Q 1275 -75 941 416 
L 941 0 
z
M 934 1684 
Q 934 1088 1097 822 
Q 1363 388 1816 388 
Q 2184 388 2453 708 
Q 2722 1028 2722 1663 
Q 2722 2313 2464 2622 
Q 2206 2931 1841 2931 
Q 1472 2931 1203 2611 
Q 934 2291 934 1684 
z
" transform="scale(0.015625)"/>
       <path id="ArialMT-72" d="M 416 0 
L 416 3319 
L 922 3319 
L 922 2816 
Q 1116 3169 1280 3281 
Q 1444 3394 1641 3394 
Q 1925 3394 2219 3213 
L 2025 2691 
Q 1819 2813 1613 2813 
Q 1428 2813 1281 2702 
Q 1134 2591 1072 2394 
Q 978 2094 978 1738 
L 978 0 
L 416 0 
z
" transform="scale(0.015625)"/>
       <path id="ArialMT-61" d="M 2588 409 
Q 2275 144 1986 34 
Q 1697 -75 1366 -75 
Q 819 -75 525 192 
Q 231 459 231 875 
Q 231 1119 342 1320 
Q 453 1522 633 1644 
Q 813 1766 1038 1828 
Q 1203 1872 1538 1913 
Q 2219 1994 2541 2106 
Q 2544 2222 2544 2253 
Q 2544 2597 2384 2738 
Q 2169 2928 1744 2928 
Q 1347 2928 1158 2789 
Q 969 2650 878 2297 
L 328 2372 
Q 403 2725 575 2942 
Q 747 3159 1072 3276 
Q 1397 3394 1825 3394 
Q 2250 3394 2515 3294 
Q 2781 3194 2906 3042 
Q 3031 2891 3081 2659 
Q 3109 2516 3109 2141 
L 3109 1391 
Q 3109 606 3145 398 
Q 3181 191 3288 0 
L 2700 0 
Q 2613 175 2588 409 
z
M 2541 1666 
Q 2234 1541 1622 1453 
Q 1275 1403 1131 1340 
Q 988 1278 909 1158 
Q 831 1038 831 891 
Q 831 666 1001 516 
Q 1172 366 1500 366 
Q 1825 366 2078 508 
Q 2331 650 2450 897 
Q 2541 1088 2541 1459 
L 2541 1666 
z
" transform="scale(0.015625)"/>
       <path id="ArialMT-6e" d="M 422 0 
L 422 3319 
L 928 3319 
L 928 2847 
Q 1294 3394 1984 3394 
Q 2284 3394 2536 3286 
Q 2788 3178 2913 3003 
Q 3038 2828 3088 2588 
Q 3119 2431 3119 2041 
L 3119 0 
L 2556 0 
L 2556 2019 
Q 2556 2363 2490 2533 
Q 2425 2703 2258 2804 
Q 2091 2906 1866 2906 
Q 1506 2906 1245 2678 
Q 984 2450 984 1813 
L 984 0 
L 422 0 
z
" transform="scale(0.015625)"/>
       <path id="ArialMT-20" transform="scale(0.015625)"/>
       <path id="ArialMT-70" d="M 422 -1272 
L 422 3319 
L 934 3319 
L 934 2888 
Q 1116 3141 1344 3267 
Q 1572 3394 1897 3394 
Q 2322 3394 2647 3175 
Q 2972 2956 3137 2557 
Q 3303 2159 3303 1684 
Q 3303 1175 3120 767 
Q 2938 359 2589 142 
Q 2241 -75 1856 -75 
Q 1575 -75 1351 44 
Q 1128 163 984 344 
L 984 -1272 
L 422 -1272 
z
M 931 1641 
Q 931 1000 1190 694 
Q 1450 388 1819 388 
Q 2194 388 2461 705 
Q 2728 1022 2728 1688 
Q 2728 2322 2467 2637 
Q 2206 2953 1844 2953 
Q 1484 2953 1207 2617 
Q 931 2281 931 1641 
z
" transform="scale(0.015625)"/>
       <path id="ArialMT-6f" d="M 213 1659 
Q 213 2581 725 3025 
Q 1153 3394 1769 3394 
Q 2453 3394 2887 2945 
Q 3322 2497 3322 1706 
Q 3322 1066 3130 698 
Q 2938 331 2570 128 
Q 2203 -75 1769 -75 
Q 1072 -75 642 372 
Q 213 819 213 1659 
z
M 791 1659 
Q 791 1022 1069 705 
Q 1347 388 1769 388 
Q 2188 388 2466 706 
Q 2744 1025 2744 1678 
Q 2744 2294 2464 2611 
Q 2184 2928 1769 2928 
Q 1347 2928 1069 2612 
Q 791 2297 791 1659 
z
" transform="scale(0.015625)"/>
       <path id="ArialMT-74" d="M 1650 503 
L 1731 6 
Q 1494 -44 1306 -44 
Q 1000 -44 831 53 
Q 663 150 594 308 
Q 525 466 525 972 
L 525 2881 
L 113 2881 
L 113 3319 
L 525 3319 
L 525 4141 
L 1084 4478 
L 1084 3319 
L 1650 3319 
L 1650 2881 
L 1084 2881 
L 1084 941 
Q 1084 700 1114 631 
Q 1144 563 1211 522 
Q 1278 481 1403 481 
Q 1497 481 1650 503 
z
" transform="scale(0.015625)"/>
       <path id="ArialMT-6c" d="M 409 0 
L 409 4581 
L 972 4581 
L 972 0 
L 409 0 
z
" transform="scale(0.015625)"/>
       <path id="ArialMT-56" d="M 1803 0 
L 28 4581 
L 684 4581 
L 1875 1253 
Q 2019 853 2116 503 
Q 2222 878 2363 1253 
L 3600 4581 
L 4219 4581 
L 2425 0 
L 1803 0 
z
" transform="scale(0.015625)"/>
      </defs>
      <use xlink:href="#ArialMT-4d"/>
      <use xlink:href="#ArialMT-65" x="83.300781"/>
      <use xlink:href="#ArialMT-6d" x="138.916016"/>
      <use xlink:href="#ArialMT-62" x="222.216797"/>
      <use xlink:href="#ArialMT-72" x="277.832031"/>
      <use xlink:href="#ArialMT-61" x="311.132812"/>
      <use xlink:href="#ArialMT-6e" x="366.748047"/>
      <use xlink:href="#ArialMT-65" x="422.363281"/>
      <use xlink:href="#ArialMT-20" x="477.978516"/>
      <use xlink:href="#ArialMT-70" x="505.761719"/>
      <use xlink:href="#ArialMT-6f" x="561.376953"/>
      <use xlink:href="#ArialMT-74" x="616.992188"/>
      <use xlink:href="#ArialMT-65" x="644.775391"/>
      <use xlink:href="#ArialMT-6e" x="700.390625"/>
      <use xlink:href="#ArialMT-74" x="756.005859"/>
      <use xlink:href="#ArialMT-69" x="783.789062"/>
      <use xlink:href="#ArialMT-61" x="806.005859"/>
      <use xlink:href="#ArialMT-6c" x="861.621094"/>
      <use xlink:href="#ArialMT-20" x="883.837891"/>
      <use xlink:href="#ArialMT-28" x="911.621094"/>
      <use xlink:href="#ArialMT-6d" x="944.921875"/>
      <use xlink:href="#ArialMT-56" x="1028.222656"/>
      <use xlink:href="#ArialMT-29" x="1094.921875"/>
     </g>
    </g>
   </g>
   <g id="line2d_13">
    <path d="M 92.290909 460.512 
L 92.493818 467.780853 
L 92.899636 471.662833 
L 93.373091 474.15334 
L 93.846545 475.533859 
L 94.32 476.305601 
L 94.861091 476.782396 
L 95.537455 477.069365 
L 96.552 477.228975 
L 98.784 477.290649 
L 121.036364 477.294805 
L 159.927273 477.294811 
L 160.130182 459.863081 
L 160.536 448.397991 
L 161.077091 439.01426 
L 161.685818 432.070709 
L 162.429818 426.188074 
L 163.241455 421.54016 
L 164.188364 417.451863 
L 165.202909 414.043851 
L 166.352727 410.955439 
L 167.637818 408.147019 
L 169.058182 405.577149 
L 170.681455 403.110435 
L 172.507636 400.746593 
L 174.672 398.32264 
L 177.377455 395.64926 
L 186.034909 387.370433 
L 187.725818 385.302704 
L 188.740364 383.685284 
L 189.213818 382.578389 
L 189.484364 381.544962 
L 189.957818 381.314552 
L 190.634182 380.44508 
L 191.445818 379.057826 
L 192.392727 376.97923 
L 193.069091 375.027357 
L 194.76 368.422531 
L 195.301091 365.76306 
L 195.909818 361.29775 
L 196.315636 356.74238 
L 196.653818 350.07125 
L 196.856727 342.125176 
L 196.992 329.60825 
L 197.059636 309.144702 
L 197.127273 136.198948 
L 197.330182 374.019606 
L 197.533091 387.979337 
L 197.600727 388.199482 
L 197.668364 388.13498 
L 197.871273 387.18797 
L 198.885818 381.238745 
L 199.562182 379.107577 
L 200.306182 376.604627 
L 200.576727 374.913373 
L 200.982545 374.473312 
L 201.388364 373.796036 
L 203.214545 368.906697 
L 203.823273 366.298248 
L 204.432 362.462633 
L 205.040727 357.543643 
L 205.378909 352.653034 
L 205.649455 345.075259 
L 205.784727 337.172124 
L 205.92 309.408995 
L 205.987636 135.79076 
L 206.190545 373.786829 
L 206.393455 388.296361 
L 206.461091 388.525136 
L 206.528727 388.439894 
L 206.731636 387.371496 
L 207.813818 380.415787 
L 208.152 379.042613 
L 208.693091 377.945229 
L 209.301818 376.653465 
L 209.437091 376.017317 
L 209.64 375.214219 
L 209.978182 374.923192 
L 212.007273 370.59723 
L 212.616 368.556465 
L 213.157091 365.9139 
L 213.698182 362.109073 
L 214.104 357.65262 
L 214.442182 351.056253 
L 214.645091 344.044939 
L 214.780364 334.517718 
L 214.848 323.73861 
L 214.983273 203.516308 
L 215.186182 379.631081 
L 215.389091 387.93139 
L 215.456727 387.962224 
L 215.659636 386.886619 
L 216.403636 382.341979 
L 216.944727 380.45539 
L 218.162182 377.287156 
L 218.432727 377.145456 
L 218.906182 376.565583 
L 219.514909 375.429142 
L 219.920727 374.246607 
L 220.394182 373.038829 
L 220.935273 371.996377 
L 221.476364 370.416602 
L 222.017455 368.001488 
L 222.220364 366.461009 
L 222.490909 364.407955 
L 222.761455 362.662642 
L 223.234909 358.008162 
L 223.640727 351.788812 
L 223.911273 343.232352 
L 224.046545 333.247043 
L 224.114182 321.152678 
L 224.181818 214.715305 
L 224.249455 229.359933 
L 224.452364 380.738665 
L 224.655273 388.114943 
L 224.722909 388.179042 
L 224.858182 387.772049 
L 225.399273 384.373145 
L 225.940364 381.814432 
L 226.481455 380.26669 
L 228.375273 375.839036 
L 229.186909 372.567992 
L 229.389818 371.704285 
L 229.930909 371.484058 
L 230.336727 370.716682 
L 230.810182 369.325056 
L 231.351273 366.975043 
L 231.892364 363.680059 
L 232.298182 359.604136 
L 232.704 353.658139 
L 232.974545 346.363429 
L 233.177455 333.011579 
L 233.245091 320.104669 
L 233.312727 180.138376 
L 233.380364 241.902288 
L 233.583273 381.360609 
L 233.786182 387.96429 
L 233.853818 387.966685 
L 233.989091 387.462314 
L 234.462545 384.102433 
L 235.003636 380.618453 
L 235.477091 379.154338 
L 236.288727 377.152219 
L 236.491636 376.157433 
L 236.897455 375.768929 
L 237.506182 374.833733 
L 238.182545 373.902648 
L 238.926545 372.510519 
L 239.535273 370.919826 
L 240.144 368.75182 
L 240.685091 366.022099 
L 241.158545 362.470004 
L 241.496727 358.376586 
L 241.902545 348.28089 
L 242.105455 338.754895 
L 242.240727 319.156218 
L 242.308364 169.466613 
L 242.376 249.628995 
L 242.578909 381.546043 
L 242.781818 388.015967 
L 242.849455 388.067077 
L 242.984727 387.681183 
L 243.458182 384.842752 
L 244.066909 381.71812 
L 244.472727 380.673095 
L 245.013818 379.899036 
L 246.569455 377.920255 
L 247.584 376.010856 
L 248.260364 374.233854 
L 248.666182 372.582581 
L 248.936727 371.129485 
L 249.207273 370.184084 
L 250.357091 365.398293 
L 250.830545 361.932194 
L 251.304 355.870257 
L 251.574545 350.174819 
L 251.777455 342.166924 
L 251.912727 329.476587 
L 251.980364 308.300118 
L 252.048 138.043098 
L 252.250909 374.080252 
L 252.453818 386.986969 
L 252.521455 387.195841 
L 252.589091 387.151336 
L 252.792 386.297418 
L 253.806545 380.649508 
L 254.415273 379.052625 
L 255.429818 376.634755 
L 255.835636 375.775807 
L 256.850182 374.122583 
L 257.458909 372.552214 
L 258.135273 370.076769 
L 258.608727 367.801469 
L 259.961455 356.834556 
L 260.299636 350.161369 
L 260.502545 341.879588 
L 260.637818 328.531754 
L 260.705455 304.149934 
L 260.773091 147.747096 
L 260.976 375.688103 
L 261.178909 388.026032 
L 261.246545 388.202521 
L 261.314182 388.119129 
L 261.517091 387.161378 
L 262.599273 380.740484 
L 263.072727 379.661843 
L 264.493091 377.165656 
L 264.831273 375.949542 
L 265.101818 375.862902 
L 265.44 375.3964 
L 266.048727 374.108057 
L 266.522182 372.561255 
L 267.469091 368.957336 
L 268.213091 364.373996 
L 268.754182 360.806874 
L 269.16 356.471426 
L 269.498182 349.904857 
L 269.701091 341.93655 
L 269.836364 329.163641 
L 269.904 307.423819 
L 269.971636 140.043489 
L 270.174545 374.449826 
L 270.377455 387.489086 
L 270.580364 386.966163 
L 270.850909 385.675836 
L 271.662545 381.257315 
L 272.406545 378.640548 
L 273.962182 375.112825 
L 274.706182 373.222229 
L 275.314909 371.887078 
L 275.720727 370.452164 
L 275.991273 368.945978 
L 276.464727 367.745487 
L 276.938182 365.747647 
L 277.411636 362.862344 
L 277.817455 359.168149 
L 278.155636 354.338359 
L 278.426182 347.617834 
L 278.629091 336.438712 
L 278.696727 327.729189 
L 278.764364 300.555853 
L 278.832 156.03762 
L 279.034909 377.045119 
L 279.237818 389.349364 
L 279.305455 389.449766 
L 279.440727 388.664628 
L 280.32 381.901628 
L 280.793455 379.765771 
L 281.266909 377.912024 
L 281.469818 377.415 
L 281.672727 377.268718 
L 282.010909 376.75035 
L 283.228364 375.599324 
L 283.904727 374.563341 
L 284.648727 372.998134 
L 285.325091 371.020881 
L 285.933818 368.583742 
L 286.474909 365.540529 
L 286.948364 361.418713 
L 287.286545 356.758372 
L 287.624727 349.069465 
L 287.827636 339.675266 
L 287.962909 320.490306 
L 288.030545 177.089817 
L 288.098182 241.186208 
L 288.301091 381.775061 
L 288.504 388.375824 
L 288.571636 388.401584 
L 288.706909 387.970627 
L 289.992 381.898282 
L 290.736 380.300138 
L 291.141818 379.277563 
L 291.48 378.639397 
L 292.629818 376.941123 
L 293.306182 375.481455 
L 293.644364 374.404447 
L 294.591273 370.104419 
L 295.132364 369.212238 
L 295.538182 367.565916 
L 296.282182 363.868837 
L 296.755636 360.221259 
L 297.161455 355.146745 
L 297.432 349.114953 
L 297.634909 340.027734 
L 297.770182 322.624984 
L 297.905455 216.592204 
L 298.108364 380.139449 
L 298.311273 387.337806 
L 298.378909 387.439077 
L 298.446545 387.350739 
L 298.649455 386.330608 
L 299.258182 382.318812 
L 299.799273 380.207849 
L 300.543273 378.091314 
L 302.098909 376.00824 
L 302.64 374.727428 
L 303.181091 372.998922 
L 303.992727 369.097484 
L 304.195636 368.279308 
L 304.533818 367.44655 
L 304.939636 365.771761 
L 305.413091 362.862147 
L 305.818909 359.074894 
L 306.157091 353.803793 
L 306.427636 345.758171 
L 306.630545 330.57732 
L 306.698182 312.836383 
L 306.765818 130.036305 
L 306.968727 372.390527 
L 307.171636 387.894831 
L 307.239273 388.15306 
L 307.306909 388.105633 
L 307.509818 387.165403 
L 308.389091 381.79571 
L 308.930182 380.225895 
L 310.012364 377.47857 
L 310.215273 376.366444 
L 310.418182 375.84618 
L 310.621091 375.614384 
L 311.500364 373.237573 
L 311.906182 372.187732 
L 312.785455 370.474768 
L 313.326545 368.783646 
L 313.867636 366.337414 
L 314.341091 363.174747 
L 314.746909 359.108077 
L 315.085091 352.744103 
L 315.355636 345.299585 
L 315.490909 337.632939 
L 315.626182 312.151226 
L 315.693818 131.19585 
L 315.896727 372.262077 
L 316.099636 387.437032 
L 316.167273 387.677473 
L 316.234909 387.615887 
L 316.437818 386.654466 
L 317.52 379.976888 
L 318.196364 377.915697 
L 318.805091 377.187257 
L 319.481455 376.266312 
L 320.022545 375.140296 
L 320.157818 374.584629 
L 320.360727 373.630947 
L 320.834182 373.111447 
L 321.375273 371.903169 
L 322.525091 368.375131 
L 322.998545 365.94766 
L 323.404364 362.67859 
L 323.945455 355.345659 
L 324.283636 347.491841 
L 324.486545 336.580743 
L 324.554182 328.211298 
L 324.621818 303.74024 
L 324.689455 149.043998 
L 324.892364 375.430616 
L 325.027636 386.801205 
L 325.162909 387.330091 
L 325.298182 387.057909 
L 325.568727 385.654022 
L 326.109818 382.25418 
L 326.650909 380.381194 
L 327.327273 378.980365 
L 328.747636 376.043095 
L 329.288727 374.412886 
L 330.641455 368.668096 
L 330.979636 366.659722 
L 331.317818 365.609168 
L 331.723636 363.427413 
L 332.129455 360.125726 
L 332.467636 355.757176 
L 332.805818 347.762454 
L 333.008727 337.045917 
L 333.076364 329.041053 
L 333.144 307.268583 
L 333.211636 140.617924 
L 333.414545 374.490777 
L 333.617455 387.771672 
L 333.685091 387.95238 
L 333.752727 387.85254 
L 333.955636 386.801011 
L 335.105455 379.382161 
L 335.984727 375.899863 
L 336.187636 375.22478 
L 336.593455 375.212033 
L 336.999273 374.806281 
L 337.608 373.844408 
L 338.216727 372.461814 
L 338.825455 370.462684 
L 339.231273 368.534845 
L 340.245818 361.600527 
L 340.651636 356.353271 
L 340.989818 349.144849 
L 341.192727 340.314298 
L 341.328 324.166398 
L 341.463273 198.337627 
L 341.666182 379.129604 
L 341.801455 386.643723 
L 341.936727 386.933205 
L 342.072 386.635824 
L 342.410182 384.879852 
L 343.018909 382.01373 
L 343.56 380.596604 
L 344.506909 378.912627 
L 345.521455 377.04306 
L 346.130182 375.268458 
L 346.941818 372.877898 
L 347.28 371.504513 
L 347.550545 369.636995 
L 348.024 368.483403 
L 348.362182 366.681257 
L 349.309091 360.908178 
L 349.714909 356.647058 
L 350.053091 350.747821 
L 350.323636 341.979371 
L 350.458909 331.061242 
L 350.526545 315.997255 
L 350.594182 137.753889 
L 350.797091 369.740963 
L 351 388.230889 
L 351.067636 388.5492 
L 351.135273 388.470233 
L 351.338182 387.266096 
L 352.285091 380.452505 
L 352.826182 378.597579 
L 353.164364 377.367882 
L 353.367273 376.28171 
L 353.840727 375.502611 
L 354.381818 374.07865 
L 354.72 373.374281 
L 355.464 372.112106 
L 356.005091 370.631339 
L 356.681455 368.042776 
L 357.222545 365.05999 
L 357.696 361.224517 
L 358.101818 355.488949 
L 358.372364 347.914479 
L 358.575273 337.82588 
L 358.710545 315.400922 
L 358.778182 134.266459 
L 358.981091 370.337174 
L 359.184 387.506038 
L 359.251636 387.816145 
L 359.319273 387.793025 
L 359.522182 386.897069 
L 360.672 380.11504 
L 361.280727 378.755993 
L 363.242182 374.534094 
L 363.445091 373.742717 
L 363.715636 372.248834 
L 364.933091 369.225549 
L 365.474182 367.074815 
L 365.88 364.663102 
L 366.624 357.443087 
L 366.962182 351.697696 
L 367.232727 342.158209 
L 367.368 329.831325 
L 367.435636 310.174725 
L 367.503273 134.083676 
L 367.706182 373.400865 
L 367.909091 387.685218 
L 367.976727 387.872812 
L 368.044364 387.76282 
L 368.247273 386.631157 
L 369.126545 380.349871 
L 370.141091 377.304043 
L 371.696727 374.396212 
L 372.170182 372.795896 
L 373.590545 369.049001 
L 374.064 367.197949 
L 374.537455 364.407117 
L 374.875636 361.328679 
L 375.552 349.354306 
L 375.754909 341.196532 
L 375.890182 327.551871 
L 375.957818 300.731814 
L 376.025455 155.994481 
L 376.228364 376.062752 
L 376.431273 387.663537 
L 376.498909 387.780713 
L 376.634182 387.325336 
L 377.107636 383.620911 
L 377.716364 379.863631 
L 378.189818 378.619423 
L 379.204364 376.335277 
L 380.218909 373.350243 
L 380.421818 373.212026 
L 380.962909 372.316345 
L 381.504 371.034909 
L 382.045091 369.205413 
L 382.653818 366.302197 
L 383.127273 362.914764 
L 383.465455 358.738908 
L 383.871273 351.275142 
L 384.141818 341.171537 
L 384.277091 327.227354 
L 384.344727 298.497064 
L 384.412364 160.822333 
L 384.615273 376.567838 
L 384.818182 387.79168 
L 384.885818 387.987223 
L 384.953455 387.879248 
L 385.156364 386.508678 
L 385.832727 381.361435 
L 386.373818 379.727703 
L 387.117818 378.346007 
L 388.335273 376.069088 
L 388.944 374.554302 
L 389.823273 371.540216 
L 390.432 369.346102 
L 390.702545 367.787526 
L 391.040727 364.995855 
L 391.581818 361.699067 
L 391.987636 357.850031 
L 392.258182 353.532198 
L 392.528727 345.773367 
L 392.731636 331.201756 
L 392.799273 315.113306 
L 392.866909 130.666816 
L 393.069818 370.825435 
L 393.272727 387.693003 
L 393.340364 387.98266 
L 393.408 387.946078 
L 393.610909 387.025682 
L 394.625455 381.105697 
L 395.437091 378.198304 
L 396.451636 376.005373 
L 397.263273 373.6329 
L 397.466182 373.586153 
L 397.804364 373.154399 
L 398.277818 372.12585 
L 398.751273 370.587362 
L 400.171636 362.882668 
L 400.577455 358.202356 
L 400.983273 351.062042 
L 401.186182 344.332715 
L 401.321455 335.332123 
L 401.389091 325.632908 
L 401.456727 287.24059 
L 401.524364 180.355359 
L 401.727273 378.074386 
L 401.930182 387.665993 
L 401.997818 387.669825 
L 402.200727 386.593305 
L 402.877091 381.992821 
L 403.350545 380.460278 
L 403.959273 379.254474 
L 405.582545 376.403526 
L 406.123636 374.927042 
L 406.461818 373.358353 
L 406.8 371.758803 
L 407.949818 367.963255 
L 408.693818 363.156794 
L 409.505455 355.502753 
L 409.776 351.238556 
L 410.046545 342.482822 
L 410.181818 331.648037 
L 410.249455 317.051856 
L 410.317091 141.036835 
L 410.52 369.05899 
L 410.722909 387.941463 
L 410.790545 388.297854 
L 410.858182 388.274145 
L 411.061091 387.285534 
L 412.008 381.336818 
L 412.819636 378.381452 
L 413.157818 376.764262 
L 413.631273 374.674561 
L 414.037091 373.745559 
L 414.24 372.853215 
L 414.916364 372.447567 
L 415.457455 371.370155 
L 416.066182 369.651532 
L 416.674909 367.187111 
L 417.216 364.011879 
L 417.689455 359.774353 
L 418.027636 354.759956 
L 418.298182 347.442126 
L 418.501091 335.187804 
L 418.568727 324.90731 
L 418.704 191.810565 
L 418.906909 379.094706 
L 419.109818 387.889222 
L 419.177455 387.93416 
L 419.312727 387.417338 
L 420.530182 379.391287 
L 420.800727 378.8269 
L 421.206545 377.765096 
L 423.370909 373.870516 
L 423.776727 372.503316 
L 425.4 365.673447 
L 425.805818 362.045806 
L 426.144 357.547369 
L 426.617455 348.86321 
L 426.820364 340.582156 
L 426.955636 326.046466 
L 427.023273 292.191268 
L 427.090909 172.950737 
L 427.293818 377.259702 
L 427.496727 387.598467 
L 427.564364 387.704257 
L 427.699636 387.242553 
L 428.714182 381.06621 
L 429.525818 378.318666 
L 430.066909 376.886377 
L 430.472727 376.122006 
L 430.675636 397.184863 
L 431.284364 423.54316 
L 432.096 450.679452 
L 432.637091 462.600794 
L 433.110545 468.878269 
L 433.584 472.531197 
L 434.057455 474.615155 
L 434.530909 475.799378 
L 435.072 476.540693 
L 435.680727 476.961591 
L 436.424727 477.191155 
L 437.642182 477.307419 
L 441.024 477.31886 
L 466.184727 477.294685 
L 498.109091 477.294724 
L 498.109091 477.294724 
" clip-path="url(#pe3bee43a89)" style="fill: none; stroke: #000000; stroke-width: 1.5; stroke-linecap: square"/>
   </g>
   <g id="line2d_14">
    <path d="M 497.973818 408.87 
" clip-path="url(#pe3bee43a89)" style="fill: none; stroke: #000000; stroke-width: 1.5; stroke-linecap: square"/>
   </g>
   <g id="line2d_15">
    <path d="M 430.472727 368.1 
L 430.472727 365.382 
L 430.472727 362.664 
L 430.472727 359.946 
L 430.472727 357.228 
L 430.472727 354.51 
L 430.472727 351.792 
L 430.472727 349.074 
L 430.472727 346.356 
L 430.472727 343.638 
L 430.472727 340.92 
L 430.472727 338.202 
L 430.472727 335.484 
L 430.472727 332.766 
L 430.472727 330.048 
L 430.472727 327.33 
L 430.472727 324.612 
L 430.472727 321.894 
L 430.472727 319.176 
L 430.472727 316.458 
" clip-path="url(#pe3bee43a89)" style="fill: none; stroke: #000000; stroke-width: 1.5; stroke-linecap: square"/>
   </g>
   <g id="patch_3">
    <path d="M 72 504 
L 72 69.12 
" style="fill: none; stroke: #000000; stroke-width: 0.8; stroke-linejoin: miter; stroke-linecap: square"/>
   </g>
   <g id="patch_4">
    <path d="M 518.4 504 
L 518.4 69.12 
" style="fill: none; stroke: #000000; stroke-width: 0.8; stroke-linejoin: miter; stroke-linecap: square"/>
   </g>
   <g id="patch_5">
    <path d="M 72 504 
L 518.4 504 
" style="fill: none; stroke: #000000; stroke-width: 0.8; stroke-linejoin: miter; stroke-linecap: square"/>
   </g>
   <g id="patch_6">
    <path d="M 72 69.12 
L 518.4 69.12 
" style="fill: none; stroke: #000000; stroke-width: 0.8; stroke-linejoin: miter; stroke-linecap: square"/>
   </g>
   <g id="text_15">
    <!-- 500 ms -->
    <g transform="translate(497.973818 406.152)scale(0.22 -0.22)">
     <defs>
      <path id="ArialMT-35" d="M 266 1200 
L 856 1250 
Q 922 819 1161 601 
Q 1400 384 1738 384 
Q 2144 384 2425 690 
Q 2706 997 2706 1503 
Q 2706 1984 2436 2262 
Q 2166 2541 1728 2541 
Q 1456 2541 1237 2417 
Q 1019 2294 894 2097 
L 366 2166 
L 809 4519 
L 3088 4519 
L 3088 3981 
L 1259 3981 
L 1013 2750 
Q 1425 3038 1878 3038 
Q 2478 3038 2890 2622 
Q 3303 2206 3303 1553 
Q 3303 931 2941 478 
Q 2500 -78 1738 -78 
Q 1113 -78 717 272 
Q 322 622 266 1200 
z
" transform="scale(0.015625)"/>
      <path id="ArialMT-30" d="M 266 2259 
Q 266 3072 433 3567 
Q 600 4063 929 4331 
Q 1259 4600 1759 4600 
Q 2128 4600 2406 4451 
Q 2684 4303 2865 4023 
Q 3047 3744 3150 3342 
Q 3253 2941 3253 2259 
Q 3253 1453 3087 958 
Q 2922 463 2592 192 
Q 2263 -78 1759 -78 
Q 1097 -78 719 397 
Q 266 969 266 2259 
z
M 844 2259 
Q 844 1131 1108 757 
Q 1372 384 1759 384 
Q 2147 384 2411 759 
Q 2675 1134 2675 2259 
Q 2675 3391 2411 3762 
Q 2147 4134 1753 4134 
Q 1366 4134 1134 3806 
Q 844 3388 844 2259 
z
" transform="scale(0.015625)"/>
     </defs>
     <use xlink:href="#ArialMT-35"/>
     <use xlink:href="#ArialMT-30" x="55.615234"/>
     <use xlink:href="#ArialMT-30" x="111.230469"/>
     <use xlink:href="#ArialMT-20" x="166.845703"/>
     <use xlink:href="#ArialMT-6d" x="194.628906"/>
     <use xlink:href="#ArialMT-73" x="277.929688"/>
    </g>
   </g>
   <g id="text_16">
    <!-- 20 mV -->
    <g transform="translate(504.737455 321.894)scale(0.22 -0.22)">
     <defs>
      <path id="ArialMT-32" d="M 3222 541 
L 3222 0 
L 194 0 
Q 188 203 259 391 
Q 375 700 629 1000 
Q 884 1300 1366 1694 
Q 2113 2306 2375 2664 
Q 2638 3022 2638 3341 
Q 2638 3675 2398 3904 
Q 2159 4134 1775 4134 
Q 1369 4134 1125 3890 
Q 881 3647 878 3216 
L 300 3275 
Q 359 3922 746 4261 
Q 1134 4600 1788 4600 
Q 2447 4600 2831 4234 
Q 3216 3869 3216 3328 
Q 3216 3053 3103 2787 
Q 2991 2522 2730 2228 
Q 2469 1934 1863 1422 
Q 1356 997 1212 845 
Q 1069 694 975 541 
L 3222 541 
z
" transform="scale(0.015625)"/>
     </defs>
     <use xlink:href="#ArialMT-32"/>
     <use xlink:href="#ArialMT-30" x="55.615234"/>
     <use xlink:href="#ArialMT-20" x="111.230469"/>
     <use xlink:href="#ArialMT-6d" x="139.013672"/>
     <use xlink:href="#ArialMT-56" x="222.314453"/>
    </g>
   </g>
   <g id="text_17">
    <!--  Plotting FS, trace number 18602  -->
    <g transform="translate(130.732812 63.12)scale(0.22 -0.22)">
     <defs>
      <path id="ArialMT-50" d="M 494 0 
L 494 4581 
L 2222 4581 
Q 2678 4581 2919 4538 
Q 3256 4481 3484 4323 
Q 3713 4166 3852 3881 
Q 3991 3597 3991 3256 
Q 3991 2672 3619 2267 
Q 3247 1863 2275 1863 
L 1100 1863 
L 1100 0 
L 494 0 
z
M 1100 2403 
L 2284 2403 
Q 2872 2403 3119 2622 
Q 3366 2841 3366 3238 
Q 3366 3525 3220 3729 
Q 3075 3934 2838 4000 
Q 2684 4041 2272 4041 
L 1100 4041 
L 1100 2403 
z
" transform="scale(0.015625)"/>
      <path id="ArialMT-67" d="M 319 -275 
L 866 -356 
Q 900 -609 1056 -725 
Q 1266 -881 1628 -881 
Q 2019 -881 2231 -725 
Q 2444 -569 2519 -288 
Q 2563 -116 2559 434 
Q 2191 0 1641 0 
Q 956 0 581 494 
Q 206 988 206 1678 
Q 206 2153 378 2554 
Q 550 2956 876 3175 
Q 1203 3394 1644 3394 
Q 2231 3394 2613 2919 
L 2613 3319 
L 3131 3319 
L 3131 450 
Q 3131 -325 2973 -648 
Q 2816 -972 2473 -1159 
Q 2131 -1347 1631 -1347 
Q 1038 -1347 672 -1080 
Q 306 -813 319 -275 
z
M 784 1719 
Q 784 1066 1043 766 
Q 1303 466 1694 466 
Q 2081 466 2343 764 
Q 2606 1063 2606 1700 
Q 2606 2309 2336 2618 
Q 2066 2928 1684 2928 
Q 1309 2928 1046 2623 
Q 784 2319 784 1719 
z
" transform="scale(0.015625)"/>
      <path id="ArialMT-46" d="M 525 0 
L 525 4581 
L 3616 4581 
L 3616 4041 
L 1131 4041 
L 1131 2622 
L 3281 2622 
L 3281 2081 
L 1131 2081 
L 1131 0 
L 525 0 
z
" transform="scale(0.015625)"/>
      <path id="ArialMT-53" d="M 288 1472 
L 859 1522 
Q 900 1178 1048 958 
Q 1197 738 1509 602 
Q 1822 466 2213 466 
Q 2559 466 2825 569 
Q 3091 672 3220 851 
Q 3350 1031 3350 1244 
Q 3350 1459 3225 1620 
Q 3100 1781 2813 1891 
Q 2628 1963 1997 2114 
Q 1366 2266 1113 2400 
Q 784 2572 623 2826 
Q 463 3081 463 3397 
Q 463 3744 659 4045 
Q 856 4347 1234 4503 
Q 1613 4659 2075 4659 
Q 2584 4659 2973 4495 
Q 3363 4331 3572 4012 
Q 3781 3694 3797 3291 
L 3216 3247 
Q 3169 3681 2898 3903 
Q 2628 4125 2100 4125 
Q 1550 4125 1298 3923 
Q 1047 3722 1047 3438 
Q 1047 3191 1225 3031 
Q 1400 2872 2139 2705 
Q 2878 2538 3153 2413 
Q 3553 2228 3743 1945 
Q 3934 1663 3934 1294 
Q 3934 928 3725 604 
Q 3516 281 3123 101 
Q 2731 -78 2241 -78 
Q 1619 -78 1198 103 
Q 778 284 539 648 
Q 300 1013 288 1472 
z
" transform="scale(0.015625)"/>
      <path id="ArialMT-2c" d="M 569 0 
L 569 641 
L 1209 641 
L 1209 0 
Q 1209 -353 1084 -570 
Q 959 -788 688 -906 
L 531 -666 
Q 709 -588 793 -436 
Q 878 -284 888 0 
L 569 0 
z
" transform="scale(0.015625)"/>
      <path id="ArialMT-63" d="M 2588 1216 
L 3141 1144 
Q 3050 572 2676 248 
Q 2303 -75 1759 -75 
Q 1078 -75 664 370 
Q 250 816 250 1647 
Q 250 2184 428 2587 
Q 606 2991 970 3192 
Q 1334 3394 1763 3394 
Q 2303 3394 2647 3120 
Q 2991 2847 3088 2344 
L 2541 2259 
Q 2463 2594 2264 2762 
Q 2066 2931 1784 2931 
Q 1359 2931 1093 2626 
Q 828 2322 828 1663 
Q 828 994 1084 691 
Q 1341 388 1753 388 
Q 2084 388 2306 591 
Q 2528 794 2588 1216 
z
" transform="scale(0.015625)"/>
      <path id="ArialMT-75" d="M 2597 0 
L 2597 488 
Q 2209 -75 1544 -75 
Q 1250 -75 995 37 
Q 741 150 617 320 
Q 494 491 444 738 
Q 409 903 409 1263 
L 409 3319 
L 972 3319 
L 972 1478 
Q 972 1038 1006 884 
Q 1059 663 1231 536 
Q 1403 409 1656 409 
Q 1909 409 2131 539 
Q 2353 669 2445 892 
Q 2538 1116 2538 1541 
L 2538 3319 
L 3100 3319 
L 3100 0 
L 2597 0 
z
" transform="scale(0.015625)"/>
      <path id="ArialMT-31" d="M 2384 0 
L 1822 0 
L 1822 3584 
Q 1619 3391 1289 3197 
Q 959 3003 697 2906 
L 697 3450 
Q 1169 3672 1522 3987 
Q 1875 4303 2022 4600 
L 2384 4600 
L 2384 0 
z
" transform="scale(0.015625)"/>
      <path id="ArialMT-38" d="M 1131 2484 
Q 781 2613 612 2850 
Q 444 3088 444 3419 
Q 444 3919 803 4259 
Q 1163 4600 1759 4600 
Q 2359 4600 2725 4251 
Q 3091 3903 3091 3403 
Q 3091 3084 2923 2848 
Q 2756 2613 2416 2484 
Q 2838 2347 3058 2040 
Q 3278 1734 3278 1309 
Q 3278 722 2862 322 
Q 2447 -78 1769 -78 
Q 1091 -78 675 323 
Q 259 725 259 1325 
Q 259 1772 486 2073 
Q 713 2375 1131 2484 
z
M 1019 3438 
Q 1019 3113 1228 2906 
Q 1438 2700 1772 2700 
Q 2097 2700 2305 2904 
Q 2513 3109 2513 3406 
Q 2513 3716 2298 3927 
Q 2084 4138 1766 4138 
Q 1444 4138 1231 3931 
Q 1019 3725 1019 3438 
z
M 838 1322 
Q 838 1081 952 856 
Q 1066 631 1291 507 
Q 1516 384 1775 384 
Q 2178 384 2440 643 
Q 2703 903 2703 1303 
Q 2703 1709 2433 1975 
Q 2163 2241 1756 2241 
Q 1359 2241 1098 1978 
Q 838 1716 838 1322 
z
" transform="scale(0.015625)"/>
      <path id="ArialMT-36" d="M 3184 3459 
L 2625 3416 
Q 2550 3747 2413 3897 
Q 2184 4138 1850 4138 
Q 1581 4138 1378 3988 
Q 1113 3794 959 3422 
Q 806 3050 800 2363 
Q 1003 2672 1297 2822 
Q 1591 2972 1913 2972 
Q 2475 2972 2870 2558 
Q 3266 2144 3266 1488 
Q 3266 1056 3080 686 
Q 2894 316 2569 119 
Q 2244 -78 1831 -78 
Q 1128 -78 684 439 
Q 241 956 241 2144 
Q 241 3472 731 4075 
Q 1159 4600 1884 4600 
Q 2425 4600 2770 4297 
Q 3116 3994 3184 3459 
z
M 888 1484 
Q 888 1194 1011 928 
Q 1134 663 1356 523 
Q 1578 384 1822 384 
Q 2178 384 2434 671 
Q 2691 959 2691 1453 
Q 2691 1928 2437 2201 
Q 2184 2475 1800 2475 
Q 1419 2475 1153 2201 
Q 888 1928 888 1484 
z
" transform="scale(0.015625)"/>
     </defs>
     <use xlink:href="#ArialMT-20"/>
     <use xlink:href="#ArialMT-50" x="27.783203"/>
     <use xlink:href="#ArialMT-6c" x="94.482422"/>
     <use xlink:href="#ArialMT-6f" x="116.699219"/>
     <use xlink:href="#ArialMT-74" x="172.314453"/>
     <use xlink:href="#ArialMT-74" x="200.097656"/>
     <use xlink:href="#ArialMT-69" x="227.880859"/>
     <use xlink:href="#ArialMT-6e" x="250.097656"/>
     <use xlink:href="#ArialMT-67" x="305.712891"/>
     <use xlink:href="#ArialMT-20" x="361.328125"/>
     <use xlink:href="#ArialMT-46" x="389.111328"/>
     <use xlink:href="#ArialMT-53" x="450.195312"/>
     <use xlink:href="#ArialMT-2c" x="516.894531"/>
     <use xlink:href="#ArialMT-20" x="544.677734"/>
     <use xlink:href="#ArialMT-74" x="572.460938"/>
     <use xlink:href="#ArialMT-72" x="600.244141"/>
     <use xlink:href="#ArialMT-61" x="633.544922"/>
     <use xlink:href="#ArialMT-63" x="689.160156"/>
     <use xlink:href="#ArialMT-65" x="739.160156"/>
     <use xlink:href="#ArialMT-20" x="794.775391"/>
     <use xlink:href="#ArialMT-6e" x="822.558594"/>
     <use xlink:href="#ArialMT-75" x="878.173828"/>
     <use xlink:href="#ArialMT-6d" x="933.789062"/>
     <use xlink:href="#ArialMT-62" x="1017.089844"/>
     <use xlink:href="#ArialMT-65" x="1072.705078"/>
     <use xlink:href="#ArialMT-72" x="1128.320312"/>
     <use xlink:href="#ArialMT-20" x="1161.621094"/>
     <use xlink:href="#ArialMT-31" x="1189.404297"/>
     <use xlink:href="#ArialMT-38" x="1245.019531"/>
     <use xlink:href="#ArialMT-36" x="1300.634766"/>
     <use xlink:href="#ArialMT-30" x="1356.25"/>
     <use xlink:href="#ArialMT-32" x="1411.865234"/>
     <use xlink:href="#ArialMT-20" x="1467.480469"/>
    </g>
   </g>
  </g>
 </g>
 <defs>
  <clipPath id="pe3bee43a89">
   <rect x="72" y="69.12" width="446.4" height="434.88"/>
  </clipPath>
 </defs>
</svg>
