<?xml version="1.0" encoding="utf-8" standalone="no"?>
<!DOCTYPE svg PUBLIC "-//W3C//DTD SVG 1.1//EN"
  "http://www.w3.org/Graphics/SVG/1.1/DTD/svg11.dtd">
<svg xmlns:xlink="http://www.w3.org/1999/xlink" width="576pt" height="576pt" viewBox="0 0 576 576" xmlns="http://www.w3.org/2000/svg" version="1.1">
 <metadata>
  <rdf:RDF xmlns:dc="http://purl.org/dc/elements/1.1/" xmlns:cc="http://creativecommons.org/ns#" xmlns:rdf="http://www.w3.org/1999/02/22-rdf-syntax-ns#">
   <cc:Work>
    <dc:type rdf:resource="http://purl.org/dc/dcmitype/StillImage"/>
    <dc:date>2022-10-30T19:57:10.635425</dc:date>
    <dc:format>image/svg+xml</dc:format>
    <dc:creator>
     <cc:Agent>
      <dc:title>Matplotlib v3.5.2, https://matplotlib.org/</dc:title>
     </cc:Agent>
    </dc:creator>
   </cc:Work>
  </rdf:RDF>
 </metadata>
 <defs>
  <style type="text/css">*{stroke-linejoin: round; stroke-linecap: butt}</style>
 </defs>
 <g id="figure_1">
  <g id="patch_1">
   <path d="M 0 576 
L 576 576 
L 576 0 
L 0 0 
L 0 576 
z
" style="fill: none"/>
  </g>
  <g id="axes_1">
   <g id="patch_2">
    <path d="M 72 504 
L 518.4 504 
L 518.4 69.12 
L 72 69.12 
z
" style="fill: #ffffff"/>
   </g>
   <g id="matplotlib.axis_1">
    <g id="xtick_1">
     <g id="line2d_1">
      <defs>
       <path id="mccc81a8ca5" d="M 0 0 
L 0 3.5 
" style="stroke: #000000; stroke-width: 0.8"/>
      </defs>
      <g>
       <use xlink:href="#mccc81a8ca5" x="92.290909" y="504" style="stroke: #000000; stroke-width: 0.8"/>
      </g>
     </g>
     <g id="text_1">
      <!-- 0 -->
      <g transform="translate(85.292159 527.716563)scale(0.22 -0.22)">
       <defs>
        <path id="DejaVuSans-30" d="M 2034 4250 
Q 1547 4250 1301 3770 
Q 1056 3291 1056 2328 
Q 1056 1369 1301 889 
Q 1547 409 2034 409 
Q 2525 409 2770 889 
Q 3016 1369 3016 2328 
Q 3016 3291 2770 3770 
Q 2525 4250 2034 4250 
z
M 2034 4750 
Q 2819 4750 3233 4129 
Q 3647 3509 3647 2328 
Q 3647 1150 3233 529 
Q 2819 -91 2034 -91 
Q 1250 -91 836 529 
Q 422 1150 422 2328 
Q 422 3509 836 4129 
Q 1250 4750 2034 4750 
z
" transform="scale(0.015625)"/>
       </defs>
       <use xlink:href="#DejaVuSans-30"/>
      </g>
     </g>
    </g>
    <g id="xtick_2">
     <g id="line2d_2">
      <g>
       <use xlink:href="#mccc81a8ca5" x="227.563636" y="504" style="stroke: #000000; stroke-width: 0.8"/>
      </g>
     </g>
     <g id="text_2">
      <!-- 1000 -->
      <g transform="translate(199.568636 527.716563)scale(0.22 -0.22)">
       <defs>
        <path id="DejaVuSans-31" d="M 794 531 
L 1825 531 
L 1825 4091 
L 703 3866 
L 703 4441 
L 1819 4666 
L 2450 4666 
L 2450 531 
L 3481 531 
L 3481 0 
L 794 0 
L 794 531 
z
" transform="scale(0.015625)"/>
       </defs>
       <use xlink:href="#DejaVuSans-31"/>
       <use xlink:href="#DejaVuSans-30" x="63.623047"/>
       <use xlink:href="#DejaVuSans-30" x="127.246094"/>
       <use xlink:href="#DejaVuSans-30" x="190.869141"/>
      </g>
     </g>
    </g>
    <g id="xtick_3">
     <g id="line2d_3">
      <g>
       <use xlink:href="#mccc81a8ca5" x="362.836364" y="504" style="stroke: #000000; stroke-width: 0.8"/>
      </g>
     </g>
     <g id="text_3">
      <!-- 2000 -->
      <g transform="translate(334.841364 527.716563)scale(0.22 -0.22)">
       <defs>
        <path id="DejaVuSans-32" d="M 1228 531 
L 3431 531 
L 3431 0 
L 469 0 
L 469 531 
Q 828 903 1448 1529 
Q 2069 2156 2228 2338 
Q 2531 2678 2651 2914 
Q 2772 3150 2772 3378 
Q 2772 3750 2511 3984 
Q 2250 4219 1831 4219 
Q 1534 4219 1204 4116 
Q 875 4013 500 3803 
L 500 4441 
Q 881 4594 1212 4672 
Q 1544 4750 1819 4750 
Q 2544 4750 2975 4387 
Q 3406 4025 3406 3419 
Q 3406 3131 3298 2873 
Q 3191 2616 2906 2266 
Q 2828 2175 2409 1742 
Q 1991 1309 1228 531 
z
" transform="scale(0.015625)"/>
       </defs>
       <use xlink:href="#DejaVuSans-32"/>
       <use xlink:href="#DejaVuSans-30" x="63.623047"/>
       <use xlink:href="#DejaVuSans-30" x="127.246094"/>
       <use xlink:href="#DejaVuSans-30" x="190.869141"/>
      </g>
     </g>
    </g>
    <g id="xtick_4">
     <g id="line2d_4">
      <g>
       <use xlink:href="#mccc81a8ca5" x="498.109091" y="504" style="stroke: #000000; stroke-width: 0.8"/>
      </g>
     </g>
     <g id="text_4">
      <!-- 3000 -->
      <g transform="translate(470.114091 527.716563)scale(0.22 -0.22)">
       <defs>
        <path id="DejaVuSans-33" d="M 2597 2516 
Q 3050 2419 3304 2112 
Q 3559 1806 3559 1356 
Q 3559 666 3084 287 
Q 2609 -91 1734 -91 
Q 1441 -91 1130 -33 
Q 819 25 488 141 
L 488 750 
Q 750 597 1062 519 
Q 1375 441 1716 441 
Q 2309 441 2620 675 
Q 2931 909 2931 1356 
Q 2931 1769 2642 2001 
Q 2353 2234 1838 2234 
L 1294 2234 
L 1294 2753 
L 1863 2753 
Q 2328 2753 2575 2939 
Q 2822 3125 2822 3475 
Q 2822 3834 2567 4026 
Q 2313 4219 1838 4219 
Q 1578 4219 1281 4162 
Q 984 4106 628 3988 
L 628 4550 
Q 988 4650 1302 4700 
Q 1616 4750 1894 4750 
Q 2613 4750 3031 4423 
Q 3450 4097 3450 3541 
Q 3450 3153 3228 2886 
Q 3006 2619 2597 2516 
z
" transform="scale(0.015625)"/>
       </defs>
       <use xlink:href="#DejaVuSans-33"/>
       <use xlink:href="#DejaVuSans-30" x="63.623047"/>
       <use xlink:href="#DejaVuSans-30" x="127.246094"/>
       <use xlink:href="#DejaVuSans-30" x="190.869141"/>
      </g>
     </g>
    </g>
    <g id="text_5">
     <!-- Time(ms) -->
     <g transform="translate(249.182187 552.307188)scale(0.22 -0.22)">
      <defs>
       <path id="ArialMT-54" d="M 1659 0 
L 1659 4041 
L 150 4041 
L 150 4581 
L 3781 4581 
L 3781 4041 
L 2266 4041 
L 2266 0 
L 1659 0 
z
" transform="scale(0.015625)"/>
       <path id="ArialMT-69" d="M 425 3934 
L 425 4581 
L 988 4581 
L 988 3934 
L 425 3934 
z
M 425 0 
L 425 3319 
L 988 3319 
L 988 0 
L 425 0 
z
" transform="scale(0.015625)"/>
       <path id="ArialMT-6d" d="M 422 0 
L 422 3319 
L 925 3319 
L 925 2853 
Q 1081 3097 1340 3245 
Q 1600 3394 1931 3394 
Q 2300 3394 2536 3241 
Q 2772 3088 2869 2813 
Q 3263 3394 3894 3394 
Q 4388 3394 4653 3120 
Q 4919 2847 4919 2278 
L 4919 0 
L 4359 0 
L 4359 2091 
Q 4359 2428 4304 2576 
Q 4250 2725 4106 2815 
Q 3963 2906 3769 2906 
Q 3419 2906 3187 2673 
Q 2956 2441 2956 1928 
L 2956 0 
L 2394 0 
L 2394 2156 
Q 2394 2531 2256 2718 
Q 2119 2906 1806 2906 
Q 1569 2906 1367 2781 
Q 1166 2656 1075 2415 
Q 984 2175 984 1722 
L 984 0 
L 422 0 
z
" transform="scale(0.015625)"/>
       <path id="ArialMT-65" d="M 2694 1069 
L 3275 997 
Q 3138 488 2766 206 
Q 2394 -75 1816 -75 
Q 1088 -75 661 373 
Q 234 822 234 1631 
Q 234 2469 665 2931 
Q 1097 3394 1784 3394 
Q 2450 3394 2872 2941 
Q 3294 2488 3294 1666 
Q 3294 1616 3291 1516 
L 816 1516 
Q 847 969 1125 678 
Q 1403 388 1819 388 
Q 2128 388 2347 550 
Q 2566 713 2694 1069 
z
M 847 1978 
L 2700 1978 
Q 2663 2397 2488 2606 
Q 2219 2931 1791 2931 
Q 1403 2931 1139 2672 
Q 875 2413 847 1978 
z
" transform="scale(0.015625)"/>
       <path id="ArialMT-28" d="M 1497 -1347 
Q 1031 -759 709 28 
Q 388 816 388 1659 
Q 388 2403 628 3084 
Q 909 3875 1497 4659 
L 1900 4659 
Q 1522 4009 1400 3731 
Q 1209 3300 1100 2831 
Q 966 2247 966 1656 
Q 966 153 1900 -1347 
L 1497 -1347 
z
" transform="scale(0.015625)"/>
       <path id="ArialMT-73" d="M 197 991 
L 753 1078 
Q 800 744 1014 566 
Q 1228 388 1613 388 
Q 2000 388 2187 545 
Q 2375 703 2375 916 
Q 2375 1106 2209 1216 
Q 2094 1291 1634 1406 
Q 1016 1563 777 1677 
Q 538 1791 414 1992 
Q 291 2194 291 2438 
Q 291 2659 392 2848 
Q 494 3038 669 3163 
Q 800 3259 1026 3326 
Q 1253 3394 1513 3394 
Q 1903 3394 2198 3281 
Q 2494 3169 2634 2976 
Q 2775 2784 2828 2463 
L 2278 2388 
Q 2241 2644 2061 2787 
Q 1881 2931 1553 2931 
Q 1166 2931 1000 2803 
Q 834 2675 834 2503 
Q 834 2394 903 2306 
Q 972 2216 1119 2156 
Q 1203 2125 1616 2013 
Q 2213 1853 2448 1751 
Q 2684 1650 2818 1456 
Q 2953 1263 2953 975 
Q 2953 694 2789 445 
Q 2625 197 2315 61 
Q 2006 -75 1616 -75 
Q 969 -75 630 194 
Q 291 463 197 991 
z
" transform="scale(0.015625)"/>
       <path id="ArialMT-29" d="M 791 -1347 
L 388 -1347 
Q 1322 153 1322 1656 
Q 1322 2244 1188 2822 
Q 1081 3291 891 3722 
Q 769 4003 388 4659 
L 791 4659 
Q 1378 3875 1659 3084 
Q 1900 2403 1900 1659 
Q 1900 816 1576 28 
Q 1253 -759 791 -1347 
z
" transform="scale(0.015625)"/>
      </defs>
      <use xlink:href="#ArialMT-54"/>
      <use xlink:href="#ArialMT-69" x="57.333984"/>
      <use xlink:href="#ArialMT-6d" x="79.550781"/>
      <use xlink:href="#ArialMT-65" x="162.851562"/>
      <use xlink:href="#ArialMT-28" x="218.466797"/>
      <use xlink:href="#ArialMT-6d" x="251.767578"/>
      <use xlink:href="#ArialMT-73" x="335.068359"/>
      <use xlink:href="#ArialMT-29" x="385.068359"/>
     </g>
    </g>
   </g>
   <g id="matplotlib.axis_2">
    <g id="ytick_1">
     <g id="line2d_5">
      <defs>
       <path id="m43d10b78c8" d="M 0 0 
L -3.5 0 
" style="stroke: #000000; stroke-width: 0.8"/>
      </defs>
      <g>
       <use xlink:href="#m43d10b78c8" x="72" y="476.82" style="stroke: #000000; stroke-width: 0.8"/>
      </g>
     </g>
     <g id="text_6">
      <!-- −100 -->
      <g transform="translate(4.572187 485.178281)scale(0.22 -0.22)">
       <defs>
        <path id="DejaVuSans-2212" d="M 678 2272 
L 4684 2272 
L 4684 1741 
L 678 1741 
L 678 2272 
z
" transform="scale(0.015625)"/>
       </defs>
       <use xlink:href="#DejaVuSans-2212"/>
       <use xlink:href="#DejaVuSans-31" x="83.789062"/>
       <use xlink:href="#DejaVuSans-30" x="147.412109"/>
       <use xlink:href="#DejaVuSans-30" x="211.035156"/>
      </g>
     </g>
    </g>
    <g id="ytick_2">
     <g id="line2d_6">
      <g>
       <use xlink:href="#m43d10b78c8" x="72" y="422.46" style="stroke: #000000; stroke-width: 0.8"/>
      </g>
     </g>
     <g id="text_7">
      <!-- −80 -->
      <g transform="translate(18.569688 430.818281)scale(0.22 -0.22)">
       <defs>
        <path id="DejaVuSans-38" d="M 2034 2216 
Q 1584 2216 1326 1975 
Q 1069 1734 1069 1313 
Q 1069 891 1326 650 
Q 1584 409 2034 409 
Q 2484 409 2743 651 
Q 3003 894 3003 1313 
Q 3003 1734 2745 1975 
Q 2488 2216 2034 2216 
z
M 1403 2484 
Q 997 2584 770 2862 
Q 544 3141 544 3541 
Q 544 4100 942 4425 
Q 1341 4750 2034 4750 
Q 2731 4750 3128 4425 
Q 3525 4100 3525 3541 
Q 3525 3141 3298 2862 
Q 3072 2584 2669 2484 
Q 3125 2378 3379 2068 
Q 3634 1759 3634 1313 
Q 3634 634 3220 271 
Q 2806 -91 2034 -91 
Q 1263 -91 848 271 
Q 434 634 434 1313 
Q 434 1759 690 2068 
Q 947 2378 1403 2484 
z
M 1172 3481 
Q 1172 3119 1398 2916 
Q 1625 2713 2034 2713 
Q 2441 2713 2670 2916 
Q 2900 3119 2900 3481 
Q 2900 3844 2670 4047 
Q 2441 4250 2034 4250 
Q 1625 4250 1398 4047 
Q 1172 3844 1172 3481 
z
" transform="scale(0.015625)"/>
       </defs>
       <use xlink:href="#DejaVuSans-2212"/>
       <use xlink:href="#DejaVuSans-38" x="83.789062"/>
       <use xlink:href="#DejaVuSans-30" x="147.412109"/>
      </g>
     </g>
    </g>
    <g id="ytick_3">
     <g id="line2d_7">
      <g>
       <use xlink:href="#m43d10b78c8" x="72" y="368.1" style="stroke: #000000; stroke-width: 0.8"/>
      </g>
     </g>
     <g id="text_8">
      <!-- −60 -->
      <g transform="translate(18.569688 376.458281)scale(0.22 -0.22)">
       <defs>
        <path id="DejaVuSans-36" d="M 2113 2584 
Q 1688 2584 1439 2293 
Q 1191 2003 1191 1497 
Q 1191 994 1439 701 
Q 1688 409 2113 409 
Q 2538 409 2786 701 
Q 3034 994 3034 1497 
Q 3034 2003 2786 2293 
Q 2538 2584 2113 2584 
z
M 3366 4563 
L 3366 3988 
Q 3128 4100 2886 4159 
Q 2644 4219 2406 4219 
Q 1781 4219 1451 3797 
Q 1122 3375 1075 2522 
Q 1259 2794 1537 2939 
Q 1816 3084 2150 3084 
Q 2853 3084 3261 2657 
Q 3669 2231 3669 1497 
Q 3669 778 3244 343 
Q 2819 -91 2113 -91 
Q 1303 -91 875 529 
Q 447 1150 447 2328 
Q 447 3434 972 4092 
Q 1497 4750 2381 4750 
Q 2619 4750 2861 4703 
Q 3103 4656 3366 4563 
z
" transform="scale(0.015625)"/>
       </defs>
       <use xlink:href="#DejaVuSans-2212"/>
       <use xlink:href="#DejaVuSans-36" x="83.789062"/>
       <use xlink:href="#DejaVuSans-30" x="147.412109"/>
      </g>
     </g>
    </g>
    <g id="ytick_4">
     <g id="line2d_8">
      <g>
       <use xlink:href="#m43d10b78c8" x="72" y="313.74" style="stroke: #000000; stroke-width: 0.8"/>
      </g>
     </g>
     <g id="text_9">
      <!-- −40 -->
      <g transform="translate(18.569688 322.098281)scale(0.22 -0.22)">
       <defs>
        <path id="DejaVuSans-34" d="M 2419 4116 
L 825 1625 
L 2419 1625 
L 2419 4116 
z
M 2253 4666 
L 3047 4666 
L 3047 1625 
L 3713 1625 
L 3713 1100 
L 3047 1100 
L 3047 0 
L 2419 0 
L 2419 1100 
L 313 1100 
L 313 1709 
L 2253 4666 
z
" transform="scale(0.015625)"/>
       </defs>
       <use xlink:href="#DejaVuSans-2212"/>
       <use xlink:href="#DejaVuSans-34" x="83.789062"/>
       <use xlink:href="#DejaVuSans-30" x="147.412109"/>
      </g>
     </g>
    </g>
    <g id="ytick_5">
     <g id="line2d_9">
      <g>
       <use xlink:href="#m43d10b78c8" x="72" y="259.38" style="stroke: #000000; stroke-width: 0.8"/>
      </g>
     </g>
     <g id="text_10">
      <!-- −20 -->
      <g transform="translate(18.569688 267.738281)scale(0.22 -0.22)">
       <use xlink:href="#DejaVuSans-2212"/>
       <use xlink:href="#DejaVuSans-32" x="83.789062"/>
       <use xlink:href="#DejaVuSans-30" x="147.412109"/>
      </g>
     </g>
    </g>
    <g id="ytick_6">
     <g id="line2d_10">
      <g>
       <use xlink:href="#m43d10b78c8" x="72" y="205.02" style="stroke: #000000; stroke-width: 0.8"/>
      </g>
     </g>
     <g id="text_11">
      <!-- 0 -->
      <g transform="translate(51.0025 213.378281)scale(0.22 -0.22)">
       <use xlink:href="#DejaVuSans-30"/>
      </g>
     </g>
    </g>
    <g id="ytick_7">
     <g id="line2d_11">
      <g>
       <use xlink:href="#m43d10b78c8" x="72" y="150.66" style="stroke: #000000; stroke-width: 0.8"/>
      </g>
     </g>
     <g id="text_12">
      <!-- 20 -->
      <g transform="translate(37.005 159.018281)scale(0.22 -0.22)">
       <use xlink:href="#DejaVuSans-32"/>
       <use xlink:href="#DejaVuSans-30" x="63.623047"/>
      </g>
     </g>
    </g>
    <g id="ytick_8">
     <g id="line2d_12">
      <g>
       <use xlink:href="#m43d10b78c8" x="72" y="96.3" style="stroke: #000000; stroke-width: 0.8"/>
      </g>
     </g>
     <g id="text_13">
      <!-- 40 -->
      <g transform="translate(37.005 104.658281)scale(0.22 -0.22)">
       <use xlink:href="#DejaVuSans-34"/>
       <use xlink:href="#DejaVuSans-30" x="63.623047"/>
      </g>
     </g>
    </g>
    <g id="text_14">
     <!-- Membrane potential (mV) -->
     <g transform="translate(-4.058125 410.655469)rotate(-90)scale(0.22 -0.22)">
      <defs>
       <path id="ArialMT-4d" d="M 475 0 
L 475 4581 
L 1388 4581 
L 2472 1338 
Q 2622 884 2691 659 
Q 2769 909 2934 1394 
L 4031 4581 
L 4847 4581 
L 4847 0 
L 4263 0 
L 4263 3834 
L 2931 0 
L 2384 0 
L 1059 3900 
L 1059 0 
L 475 0 
z
" transform="scale(0.015625)"/>
       <path id="ArialMT-62" d="M 941 0 
L 419 0 
L 419 4581 
L 981 4581 
L 981 2947 
Q 1338 3394 1891 3394 
Q 2197 3394 2470 3270 
Q 2744 3147 2920 2923 
Q 3097 2700 3197 2384 
Q 3297 2069 3297 1709 
Q 3297 856 2875 390 
Q 2453 -75 1863 -75 
Q 1275 -75 941 416 
L 941 0 
z
M 934 1684 
Q 934 1088 1097 822 
Q 1363 388 1816 388 
Q 2184 388 2453 708 
Q 2722 1028 2722 1663 
Q 2722 2313 2464 2622 
Q 2206 2931 1841 2931 
Q 1472 2931 1203 2611 
Q 934 2291 934 1684 
z
" transform="scale(0.015625)"/>
       <path id="ArialMT-72" d="M 416 0 
L 416 3319 
L 922 3319 
L 922 2816 
Q 1116 3169 1280 3281 
Q 1444 3394 1641 3394 
Q 1925 3394 2219 3213 
L 2025 2691 
Q 1819 2813 1613 2813 
Q 1428 2813 1281 2702 
Q 1134 2591 1072 2394 
Q 978 2094 978 1738 
L 978 0 
L 416 0 
z
" transform="scale(0.015625)"/>
       <path id="ArialMT-61" d="M 2588 409 
Q 2275 144 1986 34 
Q 1697 -75 1366 -75 
Q 819 -75 525 192 
Q 231 459 231 875 
Q 231 1119 342 1320 
Q 453 1522 633 1644 
Q 813 1766 1038 1828 
Q 1203 1872 1538 1913 
Q 2219 1994 2541 2106 
Q 2544 2222 2544 2253 
Q 2544 2597 2384 2738 
Q 2169 2928 1744 2928 
Q 1347 2928 1158 2789 
Q 969 2650 878 2297 
L 328 2372 
Q 403 2725 575 2942 
Q 747 3159 1072 3276 
Q 1397 3394 1825 3394 
Q 2250 3394 2515 3294 
Q 2781 3194 2906 3042 
Q 3031 2891 3081 2659 
Q 3109 2516 3109 2141 
L 3109 1391 
Q 3109 606 3145 398 
Q 3181 191 3288 0 
L 2700 0 
Q 2613 175 2588 409 
z
M 2541 1666 
Q 2234 1541 1622 1453 
Q 1275 1403 1131 1340 
Q 988 1278 909 1158 
Q 831 1038 831 891 
Q 831 666 1001 516 
Q 1172 366 1500 366 
Q 1825 366 2078 508 
Q 2331 650 2450 897 
Q 2541 1088 2541 1459 
L 2541 1666 
z
" transform="scale(0.015625)"/>
       <path id="ArialMT-6e" d="M 422 0 
L 422 3319 
L 928 3319 
L 928 2847 
Q 1294 3394 1984 3394 
Q 2284 3394 2536 3286 
Q 2788 3178 2913 3003 
Q 3038 2828 3088 2588 
Q 3119 2431 3119 2041 
L 3119 0 
L 2556 0 
L 2556 2019 
Q 2556 2363 2490 2533 
Q 2425 2703 2258 2804 
Q 2091 2906 1866 2906 
Q 1506 2906 1245 2678 
Q 984 2450 984 1813 
L 984 0 
L 422 0 
z
" transform="scale(0.015625)"/>
       <path id="ArialMT-20" transform="scale(0.015625)"/>
       <path id="ArialMT-70" d="M 422 -1272 
L 422 3319 
L 934 3319 
L 934 2888 
Q 1116 3141 1344 3267 
Q 1572 3394 1897 3394 
Q 2322 3394 2647 3175 
Q 2972 2956 3137 2557 
Q 3303 2159 3303 1684 
Q 3303 1175 3120 767 
Q 2938 359 2589 142 
Q 2241 -75 1856 -75 
Q 1575 -75 1351 44 
Q 1128 163 984 344 
L 984 -1272 
L 422 -1272 
z
M 931 1641 
Q 931 1000 1190 694 
Q 1450 388 1819 388 
Q 2194 388 2461 705 
Q 2728 1022 2728 1688 
Q 2728 2322 2467 2637 
Q 2206 2953 1844 2953 
Q 1484 2953 1207 2617 
Q 931 2281 931 1641 
z
" transform="scale(0.015625)"/>
       <path id="ArialMT-6f" d="M 213 1659 
Q 213 2581 725 3025 
Q 1153 3394 1769 3394 
Q 2453 3394 2887 2945 
Q 3322 2497 3322 1706 
Q 3322 1066 3130 698 
Q 2938 331 2570 128 
Q 2203 -75 1769 -75 
Q 1072 -75 642 372 
Q 213 819 213 1659 
z
M 791 1659 
Q 791 1022 1069 705 
Q 1347 388 1769 388 
Q 2188 388 2466 706 
Q 2744 1025 2744 1678 
Q 2744 2294 2464 2611 
Q 2184 2928 1769 2928 
Q 1347 2928 1069 2612 
Q 791 2297 791 1659 
z
" transform="scale(0.015625)"/>
       <path id="ArialMT-74" d="M 1650 503 
L 1731 6 
Q 1494 -44 1306 -44 
Q 1000 -44 831 53 
Q 663 150 594 308 
Q 525 466 525 972 
L 525 2881 
L 113 2881 
L 113 3319 
L 525 3319 
L 525 4141 
L 1084 4478 
L 1084 3319 
L 1650 3319 
L 1650 2881 
L 1084 2881 
L 1084 941 
Q 1084 700 1114 631 
Q 1144 563 1211 522 
Q 1278 481 1403 481 
Q 1497 481 1650 503 
z
" transform="scale(0.015625)"/>
       <path id="ArialMT-6c" d="M 409 0 
L 409 4581 
L 972 4581 
L 972 0 
L 409 0 
z
" transform="scale(0.015625)"/>
       <path id="ArialMT-56" d="M 1803 0 
L 28 4581 
L 684 4581 
L 1875 1253 
Q 2019 853 2116 503 
Q 2222 878 2363 1253 
L 3600 4581 
L 4219 4581 
L 2425 0 
L 1803 0 
z
" transform="scale(0.015625)"/>
      </defs>
      <use xlink:href="#ArialMT-4d"/>
      <use xlink:href="#ArialMT-65" x="83.300781"/>
      <use xlink:href="#ArialMT-6d" x="138.916016"/>
      <use xlink:href="#ArialMT-62" x="222.216797"/>
      <use xlink:href="#ArialMT-72" x="277.832031"/>
      <use xlink:href="#ArialMT-61" x="311.132812"/>
      <use xlink:href="#ArialMT-6e" x="366.748047"/>
      <use xlink:href="#ArialMT-65" x="422.363281"/>
      <use xlink:href="#ArialMT-20" x="477.978516"/>
      <use xlink:href="#ArialMT-70" x="505.761719"/>
      <use xlink:href="#ArialMT-6f" x="561.376953"/>
      <use xlink:href="#ArialMT-74" x="616.992188"/>
      <use xlink:href="#ArialMT-65" x="644.775391"/>
      <use xlink:href="#ArialMT-6e" x="700.390625"/>
      <use xlink:href="#ArialMT-74" x="756.005859"/>
      <use xlink:href="#ArialMT-69" x="783.789062"/>
      <use xlink:href="#ArialMT-61" x="806.005859"/>
      <use xlink:href="#ArialMT-6c" x="861.621094"/>
      <use xlink:href="#ArialMT-20" x="883.837891"/>
      <use xlink:href="#ArialMT-28" x="911.621094"/>
      <use xlink:href="#ArialMT-6d" x="944.921875"/>
      <use xlink:href="#ArialMT-56" x="1028.222656"/>
      <use xlink:href="#ArialMT-29" x="1094.921875"/>
     </g>
    </g>
   </g>
   <g id="line2d_13">
    <path d="M 92.290909 430.614 
L 92.426182 432.514995 
L 92.629091 432.517113 
L 93.305455 432.379975 
L 95.469818 432.385698 
L 117.451636 432.391834 
L 159.927273 432.391755 
L 160.130182 414.175845 
L 160.536 402.326482 
L 161.144727 391.77729 
L 162.091636 379.864985 
L 163.647273 360.795338 
L 164.188364 350.89826 
L 164.526545 339.983405 
L 164.729455 324.40083 
L 164.797091 310.476515 
L 164.932364 137.100791 
L 165.202909 323.945458 
L 165.473455 379.025858 
L 165.744 394.128208 
L 165.879273 394.957123 
L 166.014545 393.704588 
L 166.623273 382.494296 
L 167.367273 371.416294 
L 168.246545 361.647737 
L 169.193455 351.097793 
L 169.666909 342.24605 
L 169.937455 332.344386 
L 170.072727 321.376994 
L 170.140364 309.270885 
L 170.208 265.443438 
L 170.275636 142.851157 
L 170.343273 209.705305 
L 170.546182 317.999524 
L 170.884364 385.734609 
L 171.087273 394.643422 
L 171.154909 394.963551 
L 171.290182 393.77832 
L 171.763636 384.361304 
L 172.44 372.868254 
L 173.454545 359.986295 
L 174.266182 348.991466 
L 174.739636 339.086785 
L 175.010182 329.227915 
L 175.145455 317.645681 
L 175.213091 303.584723 
L 175.348364 156.899007 
L 175.551273 298.654498 
L 176.024727 385.31046 
L 176.227636 391.987987 
L 176.295273 392.16881 
L 176.430545 391.051292 
L 176.904 382.503979 
L 177.648 370.55715 
L 179.136 349.231078 
L 179.474182 341.144563 
L 179.677091 332.657866 
L 179.812364 321.083527 
L 179.88 307.567499 
L 180.015273 145.615363 
L 180.082909 218.289664 
L 180.285818 320.843542 
L 180.624 385.411187 
L 180.826909 394.299533 
L 180.894545 394.783931 
L 180.962182 394.584105 
L 181.165091 391.751411 
L 182.314909 371.436454 
L 182.653091 368.041829 
L 183.329455 362.597333 
L 184.005818 355.112142 
L 184.614545 346.024321 
L 184.885091 339.132328 
L 185.088 329.159439 
L 185.223273 311.618193 
L 185.290909 275.027291 
L 185.358545 138.271187 
L 185.426182 200.041298 
L 185.629091 316.398404 
L 185.967273 384.003617 
L 186.170182 393.983613 
L 186.237818 394.620816 
L 186.305455 394.522442 
L 186.508364 391.826344 
L 187.793455 369.426686 
L 189.146182 348.901284 
L 189.484364 339.1287 
L 189.687273 327.294223 
L 189.822545 301.169416 
L 189.957818 160.12279 
L 190.160727 310.115473 
L 190.498909 384.473983 
L 190.701818 395.051447 
L 190.769455 395.647691 
L 190.837091 395.47058 
L 191.04 392.531418 
L 192.122182 373.055629 
L 194.354182 340.309435 
L 194.624727 332.085116 
L 194.76 323.148727 
L 194.895273 294.799718 
L 195.030545 176.226059 
L 195.233455 304.095818 
L 195.639273 381.689849 
L 195.842182 390.659389 
L 195.909818 391.251823 
L 195.977455 391.200667 
L 196.180364 388.951827 
L 197.871273 363.292813 
L 198.682909 351.934467 
L 199.224 340.755654 
L 199.426909 332.742315 
L 199.562182 321.702905 
L 199.629818 309.352116 
L 199.765091 142.062194 
L 199.832727 210.132879 
L 200.035636 318.043906 
L 200.373818 383.952892 
L 200.576727 393.510201 
L 200.644364 394.122789 
L 200.712 394.030797 
L 200.914909 391.440492 
L 202.2 369.699996 
L 203.485091 352.962618 
L 204.432 335.047987 
L 204.634909 322.253935 
L 204.702545 312.069763 
L 204.770182 283.78939 
L 204.837818 146.449623 
L 204.905455 193.11137 
L 205.108364 309.227265 
L 205.514182 383.434859 
L 205.717091 392.076846 
L 205.784727 392.647033 
L 205.852364 392.560013 
L 206.055273 390.106011 
L 207.610909 364.82502 
L 208.557818 350.161095 
L 208.896 341.451737 
L 209.098909 332.102739 
L 209.234182 318.073575 
L 209.301818 297.77624 
L 209.369455 154.504586 
L 209.437091 166.863707 
L 209.64 310.699754 
L 209.978182 382.495515 
L 210.181091 393.721381 
L 210.316364 394.789338 
L 210.451636 393.597676 
L 210.925091 384.752518 
L 211.601455 373.57936 
L 212.751273 359.741932 
L 213.495273 349.647311 
L 213.901091 340.785328 
L 214.104 332.088524 
L 214.239273 319.206063 
L 214.306909 302.326878 
L 214.442182 157.954824 
L 214.645091 306.53044 
L 214.983273 379.344493 
L 215.186182 392.761439 
L 215.321455 394.527023 
L 215.389091 394.295558 
L 215.592 391.485735 
L 216.809455 370.604346 
L 218.838545 342.620167 
L 219.109091 333.258636 
L 219.244364 323.084621 
L 219.312 312.649756 
L 219.379636 282.697558 
L 219.447273 140.553093 
L 219.514909 193.298948 
L 219.717818 315.829384 
L 220.056 385.40317 
L 220.258909 394.499015 
L 220.326545 394.882239 
L 220.461818 393.771117 
L 220.935273 384.431049 
L 221.679273 371.947322 
L 223.573091 344.677285 
L 223.843636 335.281031 
L 223.978909 325.840743 
L 224.114182 293.960874 
L 224.181818 144.873144 
L 224.249455 174.46862 
L 224.452364 312.330381 
L 224.790545 383.209015 
L 224.993455 394.107873 
L 225.128727 394.910329 
L 225.264 393.491604 
L 225.940364 380.527094 
L 226.684364 369.316465 
L 228.307636 347.007982 
L 228.645818 336.984659 
L 228.848727 322.954318 
L 228.916364 311.299247 
L 228.984 271.133067 
L 229.051636 137.809351 
L 229.119273 202.620367 
L 229.322182 317.746791 
L 229.660364 383.171723 
L 229.863273 392.994773 
L 229.998545 393.931963 
L 230.133818 392.815833 
L 230.539636 385.569624 
L 231.351273 371.919428 
L 233.245091 343.719656 
L 233.515636 334.004688 
L 233.650909 324.409826 
L 233.786182 290.265995 
L 233.853818 144.080923 
L 233.921455 181.828528 
L 234.124364 312.217165 
L 234.462545 382.608469 
L 234.665455 393.715957 
L 234.800727 394.513792 
L 234.936 393.049367 
L 236.694545 364.919978 
L 237.641455 351.546569 
L 238.047273 343.775657 
L 238.317818 334.445497 
L 238.453091 324.664679 
L 238.520727 314.793118 
L 238.588364 288.14825 
L 238.656 138.744197 
L 238.723636 184.188134 
L 238.926545 313.010298 
L 239.264727 381.866445 
L 239.467636 393.272556 
L 239.602909 394.470729 
L 239.738182 393.323614 
L 240.211636 384.378477 
L 240.955636 371.967368 
L 242.443636 349.177646 
L 242.781818 339.085014 
L 242.984727 326.354539 
L 243.12 293.891929 
L 243.187636 140.068291 
L 243.255273 173.607329 
L 243.458182 313.317394 
L 243.796364 384.559038 
L 243.999273 395.143721 
L 244.066909 395.821771 
L 244.134545 395.713988 
L 244.337455 392.86174 
L 245.419636 373.195835 
L 247.313455 346.419265 
L 247.584 338.2512 
L 247.786909 325.11888 
L 247.854545 315.028024 
L 247.922182 286.90215 
L 247.989818 134.596698 
L 248.057455 184.694219 
L 248.260364 315.525427 
L 248.598545 384.979844 
L 248.801455 394.677859 
L 248.869091 395.272154 
L 248.936727 395.128912 
L 249.139636 392.300791 
L 250.289455 372.013208 
L 251.304 359.462203 
L 252.048 349.294587 
L 252.386182 341.434422 
L 252.589091 332.804128 
L 252.724364 320.326 
L 252.792 304.605048 
L 252.927273 152.330022 
L 253.130182 305.92528 
L 253.468364 380.097082 
L 253.671273 393.038478 
L 253.806545 394.670948 
L 253.874182 394.419237 
L 254.077091 391.615807 
L 255.294545 370.679524 
L 257.120727 345.229275 
L 257.391273 336.052449 
L 257.594182 319.073001 
L 257.661818 301.166143 
L 257.797091 160.131653 
L 258 308.212932 
L 258.338182 380.738062 
L 258.541091 393.229739 
L 258.676364 394.745489 
L 258.811636 393.753347 
L 259.217455 386.271595 
L 260.029091 372.37814 
L 261.787636 346.181378 
L 262.058182 337.900908 
L 262.261091 324.943878 
L 262.328727 315.165134 
L 262.396364 289.004809 
L 262.464 138.131409 
L 262.531636 182.70802 
L 262.734545 314.498449 
L 263.072727 384.517982 
L 263.275636 394.623621 
L 263.343273 395.233914 
L 263.410909 395.093197 
L 263.613818 392.26074 
L 264.763636 371.794661 
L 266.319273 348.871951 
L 266.657455 339.71589 
L 266.860364 328.892307 
L 266.995636 308.586909 
L 267.130909 142.850375 
L 267.198545 215.529807 
L 267.401455 323.617895 
L 267.739636 388.256553 
L 267.942545 395.407232 
L 268.010182 395.498537 
L 268.145455 394.113823 
L 269.498182 372.931056 
L 270.986182 359.778321 
L 271.594909 352.048931 
L 272.000727 343.728656 
L 272.271273 333.221866 
L 272.406545 321.266394 
L 272.474182 306.937021 
L 272.609455 146.945631 
L 272.812364 304.507469 
L 273.150545 379.312133 
L 273.353455 392.338181 
L 273.488727 394.101215 
L 273.556364 393.925085 
L 273.759273 391.336918 
L 275.044364 370.066595 
L 276.397091 354.594841 
L 276.870545 348.493568 
L 277.208727 340.988399 
L 277.411636 332.626958 
L 277.546909 320.817295 
L 277.614545 306.734616 
L 277.749818 147.579634 
L 277.952727 303.291821 
L 278.358545 386.001246 
L 278.561455 394.296726 
L 278.629091 394.659782 
L 278.764364 393.666568 
L 279.170182 386.105942 
L 279.914182 373.202734 
L 281.469818 352.608364 
L 281.537455 352.477578 
L 281.605091 352.520177 
L 281.808 352.722018 
L 281.943273 352.516072 
L 282.552 350.094424 
L 282.890182 347.295945 
L 283.228364 341.910577 
L 283.498909 332.896172 
L 283.634182 322.862861 
L 283.701818 312.416915 
L 283.769455 282.574921 
L 283.837091 142.122412 
L 283.904727 193.700599 
L 284.107636 311.892616 
L 284.445818 379.390914 
L 284.648727 391.396155 
L 284.784 392.878529 
L 284.919273 391.97592 
L 285.257455 386.157823 
L 286.136727 371.25505 
L 287.76 347.50996 
L 288.098182 336.725624 
L 288.301091 321.051617 
L 288.368727 306.361891 
L 288.504 148.08291 
L 288.706909 305.537809 
L 289.045091 381.918058 
L 289.248 394.225899 
L 289.383273 395.309627 
L 289.518545 393.986381 
L 290.059636 383.347265 
L 290.803636 371.256501 
L 292.562182 346.13564 
L 292.832727 337.374242 
L 293.035636 321.924491 
L 293.103273 307.698198 
L 293.238545 144.621873 
L 293.509091 323.457914 
L 293.847273 385.908412 
L 294.050182 394.277442 
L 294.117818 394.803193 
L 294.185455 394.683793 
L 294.388364 392.140123 
L 295.808727 368.305211 
L 297.432 345.841861 
L 297.770182 335.709399 
L 297.973091 322.508553 
L 298.108364 286.726527 
L 298.176 149.498864 
L 298.243636 189.926439 
L 298.446545 312.841807 
L 298.784727 383.473213 
L 298.987636 393.400935 
L 299.055273 393.855391 
L 299.122909 393.578286 
L 299.325818 390.557881 
L 300.340364 372.869933 
L 302.234182 346.780077 
L 302.504727 338.249644 
L 302.707636 323.837475 
L 302.775273 311.656283 
L 302.842909 265.417906 
L 302.910545 135.465201 
L 302.978182 203.373401 
L 303.181091 321.257129 
L 303.519273 386.206766 
L 303.722182 394.6056 
L 303.789818 395.068173 
L 303.857455 394.873699 
L 304.060364 392.078062 
L 305.277818 370.940688 
L 306.901091 346.930544 
L 307.306909 336.813719 
L 307.509818 326.031689 
L 307.645091 303.895379 
L 307.780364 155.176793 
L 307.983273 302.684433 
L 308.389091 384.778079 
L 308.592 393.683339 
L 308.659636 394.108735 
L 308.727273 393.850122 
L 308.930182 390.923389 
L 310.08 370.823242 
L 311.703273 347.289482 
L 312.041455 337.753249 
L 312.244364 324.54084 
L 312.312 314.198326 
L 312.379636 284.398303 
L 312.447273 135.167254 
L 312.514909 188.5087 
L 312.717818 315.457724 
L 313.056 383.882856 
L 313.258909 394.044858 
L 313.326545 394.774716 
L 313.394182 394.745078 
L 313.529455 393.272782 
L 315.355636 364.18622 
L 316.437818 349.599363 
L 316.776 341.833586 
L 316.978909 333.576548 
L 317.114182 322.380491 
L 317.181818 309.76184 
L 317.317091 140.324709 
L 317.384727 210.006213 
L 317.587636 320.077369 
L 317.925818 385.535715 
L 318.128727 394.524211 
L 318.196364 395.025699 
L 318.264 394.846322 
L 318.466909 392.090114 
L 319.752 369.761123 
L 321.037091 350.873491 
L 321.510545 339.673945 
L 321.781091 326.748704 
L 321.916364 306.200827 
L 322.051636 149.62993 
L 322.119273 221.895711 
L 322.322182 319.626967 
L 322.660364 385.835714 
L 322.863273 394.262495 
L 322.930909 394.504053 
L 323.066182 393.206571 
L 324.892364 364.225918 
L 325.906909 350.285853 
L 326.380364 342.264288 
L 326.650909 333.449197 
L 326.786182 324.163769 
L 326.921455 291.923647 
L 326.989091 151.685767 
L 327.056727 179.74497 
L 327.259636 309.948931 
L 327.597818 380.778339 
L 327.800727 393.107831 
L 327.936 394.203511 
L 328.071273 392.857284 
L 328.68 381.109579 
L 329.424 369.670595 
L 331.047273 346.931943 
L 331.385455 338.268634 
L 331.588364 326.771246 
L 331.723636 301.095743 
L 331.858909 160.841355 
L 332.061818 308.115363 
L 332.4 381.239736 
L 332.602909 393.298876 
L 332.738182 394.567848 
L 332.873455 393.449042 
L 333.279273 385.887447 
L 334.023273 373.070425 
L 335.781818 346.429335 
L 336.052364 337.328522 
L 336.255273 321.382551 
L 336.322909 306.190066 
L 336.458182 148.143618 
L 336.661091 305.991147 
L 336.999273 380.724014 
L 337.202182 393.525145 
L 337.337455 395.145717 
L 337.405091 394.900256 
L 337.608 392.107645 
L 338.893091 370.103419 
L 340.989818 341.800621 
L 341.260364 331.053382 
L 341.395636 317.668763 
L 341.463273 299.275663 
L 341.598545 165.104102 
L 341.801455 307.212022 
L 342.207273 385.912117 
L 342.410182 393.988704 
L 342.477818 394.351445 
L 342.613091 393.36051 
L 343.018909 385.823999 
L 343.762909 372.946853 
L 344.912727 358.254598 
L 345.724364 346.612362 
L 346.062545 337.737544 
L 346.265455 326.037832 
L 346.400727 299.077883 
L 346.536 165.331498 
L 346.738909 308.26375 
L 347.077091 381.091161 
L 347.28 393.36394 
L 347.415273 394.602114 
L 347.550545 393.422989 
L 347.956364 385.718335 
L 348.700364 372.845477 
L 349.850182 357.985677 
L 350.594182 348.028508 
L 350.932364 339.697106 
L 351.135273 330.019444 
L 351.270545 314.142896 
L 351.338182 286.453169 
L 351.405818 138.848378 
L 351.473455 187.079463 
L 351.676364 314.68859 
L 352.014545 384.866248 
L 352.217455 394.754375 
L 352.285091 395.241617 
L 352.352727 394.988147 
L 352.555636 391.930625 
L 353.570182 373.320502 
L 354.584727 360.598994 
L 355.328727 350.6177 
L 355.666909 343.301746 
L 355.937455 332.522827 
L 356.072727 319.804576 
L 356.140364 303.42556 
L 356.275636 155.135473 
L 356.478545 306.99065 
L 356.816727 381.398654 
L 357.019636 393.772729 
L 357.154909 395.098089 
L 357.290182 393.910386 
L 357.763636 384.62783 
L 358.507636 372.268598 
L 360.333818 345.603878 
L 360.672 335.271852 
L 360.874909 319.645271 
L 360.942545 304.741788 
L 361.077818 152.704711 
L 361.280727 304.0686 
L 361.686545 385.996873 
L 361.889455 394.358752 
L 361.957091 394.681301 
L 362.092364 393.576927 
L 362.565818 384.519012 
L 363.309818 372.105543 
L 364.459636 357.752121 
L 365.136 348.845786 
L 365.474182 341.853281 
L 365.744727 331.364583 
L 365.88 318.665863 
L 365.947636 302.429747 
L 366.082909 158.200109 
L 366.285818 305.4944 
L 366.691636 386.209754 
L 366.894545 394.14056 
L 366.962182 394.438674 
L 367.097455 393.362817 
L 367.503273 385.773167 
L 368.247273 372.862683 
L 370.005818 346.534124 
L 370.344 335.357572 
L 370.479273 326.121877 
L 370.614545 296.61895 
L 370.682182 154.506544 
L 370.749818 169.807694 
L 370.952727 311.365223 
L 371.290909 383.320469 
L 371.493818 394.069004 
L 371.629091 394.847933 
L 371.764364 393.43298 
L 373.793455 361.747611 
L 374.605091 351.249648 
L 375.078545 341.470724 
L 375.349091 330.608264 
L 375.484364 317.29974 
L 375.552 299.022282 
L 375.687273 165.941634 
L 375.890182 306.278042 
L 376.296 383.970889 
L 376.498909 392.767293 
L 376.566545 393.370462 
L 376.634182 393.30313 
L 376.837091 390.82783 
L 378.122182 369.470067 
L 379.610182 349.367421 
L 379.948364 340.93881 
L 380.151273 331.234664 
L 380.286545 315.46749 
L 380.354182 288.311407 
L 380.421818 134.726733 
L 380.489455 182.495452 
L 380.692364 314.939787 
L 381.030545 383.766017 
L 381.233455 393.957834 
L 381.368727 394.772698 
L 381.504 393.458118 
L 381.977455 384.377166 
L 382.721455 372.121876 
L 383.803636 358.902154 
L 384.412364 350.387096 
L 384.818182 342.587954 
L 385.088727 332.68243 
L 385.224 321.352445 
L 385.291636 308.307284 
L 385.426909 144.148467 
L 385.494545 215.212501 
L 385.697455 320.476517 
L 386.035636 386.077159 
L 386.238545 394.566281 
L 386.306182 394.911791 
L 386.441455 393.824505 
L 386.847273 386.056579 
L 387.591273 373.149703 
L 388.538182 360.991233 
L 389.349818 351.399407 
L 389.755636 344.259333 
L 390.026182 335.569985 
L 390.229091 319.446686 
L 390.296727 303.561788 
L 390.432 155.219304 
L 390.634909 305.480273 
L 391.040727 385.403155 
L 391.243636 393.658368 
L 391.311273 394.113117 
L 391.378909 393.927538 
L 391.581818 391.238179 
L 392.866909 369.647009 
L 394.287273 350.954185 
L 394.625455 343.251162 
L 394.896 330.866208 
L 395.031273 313.383074 
L 395.098909 276.824763 
L 395.166545 132.750745 
L 395.234182 194.698114 
L 395.437091 318.675826 
L 395.775273 385.234594 
L 395.978182 394.186436 
L 396.045818 394.754906 
L 396.113455 394.657089 
L 396.316364 392.119503 
L 397.669091 369.281241 
L 399.224727 347.366649 
L 399.562909 338.623806 
L 399.765818 327.784208 
L 399.901091 307.03257 
L 400.036364 147.064793 
L 400.104 220.288653 
L 400.306909 321.108347 
L 400.645091 385.728713 
L 400.848 394.328317 
L 400.915636 394.70644 
L 401.050909 393.68511 
L 401.456727 385.969292 
L 402.133091 374.269388 
L 402.944727 364.262959 
L 403.891636 353.168165 
L 404.297455 345.331303 
L 404.568 336.222386 
L 404.770909 319.404916 
L 404.838545 302.067847 
L 404.973818 158.125852 
L 405.176727 308.384234 
L 405.514909 382.944453 
L 405.717818 394.706885 
L 405.853091 395.583418 
L 405.988364 394.095547 
L 407.746909 365.374849 
L 408.829091 352.735505 
L 409.234909 345.101555 
L 409.505455 336.266207 
L 409.708364 319.798871 
L 409.776 303.038647 
L 409.911273 155.90325 
L 410.114182 307.165856 
L 410.452364 381.445216 
L 410.655273 394.023561 
L 410.790545 395.292611 
L 410.925818 394.041072 
L 411.399273 384.68657 
L 412.075636 373.27923 
L 413.157818 359.684934 
L 413.901818 349.290311 
L 414.24 341.294803 
L 414.442909 332.388941 
L 414.578182 319.397417 
L 414.645818 302.286071 
L 414.781091 157.70301 
L 414.984 307.567618 
L 415.322182 381.053217 
L 415.525091 393.411205 
L 415.660364 394.782201 
L 415.795636 393.703271 
L 416.201455 386.136661 
L 416.945455 373.466034 
L 418.162909 358.172587 
L 418.771636 348.887013 
L 419.109818 340.453299 
L 419.312727 330.695755 
L 419.448 314.593776 
L 419.515636 286.034882 
L 419.583273 135.48584 
L 419.650909 186.595813 
L 419.853818 317.286541 
L 420.192 387.680999 
L 420.394909 395.877012 
L 420.462545 396.004142 
L 420.597818 394.528946 
L 422.288727 366.370435 
L 423.438545 351.221574 
L 423.844364 341.702697 
L 424.047273 332.473946 
L 424.182545 318.589844 
L 424.250182 298.837049 
L 424.317818 157.318229 
L 424.385455 164.613708 
L 424.588364 310.32064 
L 424.926545 381.605812 
L 425.129455 393.360906 
L 425.264727 394.69431 
L 425.4 393.63554 
L 425.805818 386.142193 
L 426.549818 373.50714 
L 428.376 346.868589 
L 428.646545 338.702253 
L 428.849455 326.533189 
L 428.984727 298.02026 
L 429.052364 158.782037 
L 429.12 166.849357 
L 429.322909 310.617345 
L 429.661091 383.451213 
L 429.864 394.49479 
L 429.931636 395.24746 
L 429.999273 395.206224 
L 430.202182 392.536912 
L 430.472727 387.104263 
L 430.675636 402.436331 
L 431.013818 407.587202 
L 431.960727 415.835959 
L 432.84 422.149194 
L 433.584 425.981667 
L 434.260364 428.404617 
L 434.936727 430.052623 
L 435.613091 431.144756 
L 436.357091 431.911769 
L 437.168727 432.416169 
L 438.183273 432.759134 
L 439.536 432.957297 
L 441.700364 433.021816 
L 446.299636 432.892356 
L 458.406545 432.422639 
L 477.48 432.389455 
L 498.109091 432.389689 
L 498.109091 432.389689 
" clip-path="url(#p8c653f69b0)" style="fill: none; stroke: #000000; stroke-width: 1.5; stroke-linecap: square"/>
   </g>
   <g id="line2d_14">
    <path d="M 497.973818 408.87 
" clip-path="url(#p8c653f69b0)" style="fill: none; stroke: #000000; stroke-width: 1.5; stroke-linecap: square"/>
   </g>
   <g id="line2d_15">
    <path d="M 430.472727 368.1 
L 430.472727 365.382 
L 430.472727 362.664 
L 430.472727 359.946 
L 430.472727 357.228 
L 430.472727 354.51 
L 430.472727 351.792 
L 430.472727 349.074 
L 430.472727 346.356 
L 430.472727 343.638 
L 430.472727 340.92 
L 430.472727 338.202 
L 430.472727 335.484 
L 430.472727 332.766 
L 430.472727 330.048 
L 430.472727 327.33 
L 430.472727 324.612 
L 430.472727 321.894 
L 430.472727 319.176 
L 430.472727 316.458 
" clip-path="url(#p8c653f69b0)" style="fill: none; stroke: #000000; stroke-width: 1.5; stroke-linecap: square"/>
   </g>
   <g id="patch_3">
    <path d="M 72 504 
L 72 69.12 
" style="fill: none; stroke: #000000; stroke-width: 0.8; stroke-linejoin: miter; stroke-linecap: square"/>
   </g>
   <g id="patch_4">
    <path d="M 518.4 504 
L 518.4 69.12 
" style="fill: none; stroke: #000000; stroke-width: 0.8; stroke-linejoin: miter; stroke-linecap: square"/>
   </g>
   <g id="patch_5">
    <path d="M 72 504 
L 518.4 504 
" style="fill: none; stroke: #000000; stroke-width: 0.8; stroke-linejoin: miter; stroke-linecap: square"/>
   </g>
   <g id="patch_6">
    <path d="M 72 69.12 
L 518.4 69.12 
" style="fill: none; stroke: #000000; stroke-width: 0.8; stroke-linejoin: miter; stroke-linecap: square"/>
   </g>
   <g id="text_15">
    <!-- 500 ms -->
    <g transform="translate(497.973818 406.152)scale(0.22 -0.22)">
     <defs>
      <path id="ArialMT-35" d="M 266 1200 
L 856 1250 
Q 922 819 1161 601 
Q 1400 384 1738 384 
Q 2144 384 2425 690 
Q 2706 997 2706 1503 
Q 2706 1984 2436 2262 
Q 2166 2541 1728 2541 
Q 1456 2541 1237 2417 
Q 1019 2294 894 2097 
L 366 2166 
L 809 4519 
L 3088 4519 
L 3088 3981 
L 1259 3981 
L 1013 2750 
Q 1425 3038 1878 3038 
Q 2478 3038 2890 2622 
Q 3303 2206 3303 1553 
Q 3303 931 2941 478 
Q 2500 -78 1738 -78 
Q 1113 -78 717 272 
Q 322 622 266 1200 
z
" transform="scale(0.015625)"/>
      <path id="ArialMT-30" d="M 266 2259 
Q 266 3072 433 3567 
Q 600 4063 929 4331 
Q 1259 4600 1759 4600 
Q 2128 4600 2406 4451 
Q 2684 4303 2865 4023 
Q 3047 3744 3150 3342 
Q 3253 2941 3253 2259 
Q 3253 1453 3087 958 
Q 2922 463 2592 192 
Q 2263 -78 1759 -78 
Q 1097 -78 719 397 
Q 266 969 266 2259 
z
M 844 2259 
Q 844 1131 1108 757 
Q 1372 384 1759 384 
Q 2147 384 2411 759 
Q 2675 1134 2675 2259 
Q 2675 3391 2411 3762 
Q 2147 4134 1753 4134 
Q 1366 4134 1134 3806 
Q 844 3388 844 2259 
z
" transform="scale(0.015625)"/>
     </defs>
     <use xlink:href="#ArialMT-35"/>
     <use xlink:href="#ArialMT-30" x="55.615234"/>
     <use xlink:href="#ArialMT-30" x="111.230469"/>
     <use xlink:href="#ArialMT-20" x="166.845703"/>
     <use xlink:href="#ArialMT-6d" x="194.628906"/>
     <use xlink:href="#ArialMT-73" x="277.929688"/>
    </g>
   </g>
   <g id="text_16">
    <!-- 20 mV -->
    <g transform="translate(504.737455 321.894)scale(0.22 -0.22)">
     <defs>
      <path id="ArialMT-32" d="M 3222 541 
L 3222 0 
L 194 0 
Q 188 203 259 391 
Q 375 700 629 1000 
Q 884 1300 1366 1694 
Q 2113 2306 2375 2664 
Q 2638 3022 2638 3341 
Q 2638 3675 2398 3904 
Q 2159 4134 1775 4134 
Q 1369 4134 1125 3890 
Q 881 3647 878 3216 
L 300 3275 
Q 359 3922 746 4261 
Q 1134 4600 1788 4600 
Q 2447 4600 2831 4234 
Q 3216 3869 3216 3328 
Q 3216 3053 3103 2787 
Q 2991 2522 2730 2228 
Q 2469 1934 1863 1422 
Q 1356 997 1212 845 
Q 1069 694 975 541 
L 3222 541 
z
" transform="scale(0.015625)"/>
     </defs>
     <use xlink:href="#ArialMT-32"/>
     <use xlink:href="#ArialMT-30" x="55.615234"/>
     <use xlink:href="#ArialMT-20" x="111.230469"/>
     <use xlink:href="#ArialMT-6d" x="139.013672"/>
     <use xlink:href="#ArialMT-56" x="222.314453"/>
    </g>
   </g>
   <g id="text_17">
    <!--  Plotting iSPN, trace number 1344  -->
    <g transform="translate(125.842969 63.12)scale(0.22 -0.22)">
     <defs>
      <path id="ArialMT-50" d="M 494 0 
L 494 4581 
L 2222 4581 
Q 2678 4581 2919 4538 
Q 3256 4481 3484 4323 
Q 3713 4166 3852 3881 
Q 3991 3597 3991 3256 
Q 3991 2672 3619 2267 
Q 3247 1863 2275 1863 
L 1100 1863 
L 1100 0 
L 494 0 
z
M 1100 2403 
L 2284 2403 
Q 2872 2403 3119 2622 
Q 3366 2841 3366 3238 
Q 3366 3525 3220 3729 
Q 3075 3934 2838 4000 
Q 2684 4041 2272 4041 
L 1100 4041 
L 1100 2403 
z
" transform="scale(0.015625)"/>
      <path id="ArialMT-67" d="M 319 -275 
L 866 -356 
Q 900 -609 1056 -725 
Q 1266 -881 1628 -881 
Q 2019 -881 2231 -725 
Q 2444 -569 2519 -288 
Q 2563 -116 2559 434 
Q 2191 0 1641 0 
Q 956 0 581 494 
Q 206 988 206 1678 
Q 206 2153 378 2554 
Q 550 2956 876 3175 
Q 1203 3394 1644 3394 
Q 2231 3394 2613 2919 
L 2613 3319 
L 3131 3319 
L 3131 450 
Q 3131 -325 2973 -648 
Q 2816 -972 2473 -1159 
Q 2131 -1347 1631 -1347 
Q 1038 -1347 672 -1080 
Q 306 -813 319 -275 
z
M 784 1719 
Q 784 1066 1043 766 
Q 1303 466 1694 466 
Q 2081 466 2343 764 
Q 2606 1063 2606 1700 
Q 2606 2309 2336 2618 
Q 2066 2928 1684 2928 
Q 1309 2928 1046 2623 
Q 784 2319 784 1719 
z
" transform="scale(0.015625)"/>
      <path id="ArialMT-53" d="M 288 1472 
L 859 1522 
Q 900 1178 1048 958 
Q 1197 738 1509 602 
Q 1822 466 2213 466 
Q 2559 466 2825 569 
Q 3091 672 3220 851 
Q 3350 1031 3350 1244 
Q 3350 1459 3225 1620 
Q 3100 1781 2813 1891 
Q 2628 1963 1997 2114 
Q 1366 2266 1113 2400 
Q 784 2572 623 2826 
Q 463 3081 463 3397 
Q 463 3744 659 4045 
Q 856 4347 1234 4503 
Q 1613 4659 2075 4659 
Q 2584 4659 2973 4495 
Q 3363 4331 3572 4012 
Q 3781 3694 3797 3291 
L 3216 3247 
Q 3169 3681 2898 3903 
Q 2628 4125 2100 4125 
Q 1550 4125 1298 3923 
Q 1047 3722 1047 3438 
Q 1047 3191 1225 3031 
Q 1400 2872 2139 2705 
Q 2878 2538 3153 2413 
Q 3553 2228 3743 1945 
Q 3934 1663 3934 1294 
Q 3934 928 3725 604 
Q 3516 281 3123 101 
Q 2731 -78 2241 -78 
Q 1619 -78 1198 103 
Q 778 284 539 648 
Q 300 1013 288 1472 
z
" transform="scale(0.015625)"/>
      <path id="ArialMT-4e" d="M 488 0 
L 488 4581 
L 1109 4581 
L 3516 984 
L 3516 4581 
L 4097 4581 
L 4097 0 
L 3475 0 
L 1069 3600 
L 1069 0 
L 488 0 
z
" transform="scale(0.015625)"/>
      <path id="ArialMT-2c" d="M 569 0 
L 569 641 
L 1209 641 
L 1209 0 
Q 1209 -353 1084 -570 
Q 959 -788 688 -906 
L 531 -666 
Q 709 -588 793 -436 
Q 878 -284 888 0 
L 569 0 
z
" transform="scale(0.015625)"/>
      <path id="ArialMT-63" d="M 2588 1216 
L 3141 1144 
Q 3050 572 2676 248 
Q 2303 -75 1759 -75 
Q 1078 -75 664 370 
Q 250 816 250 1647 
Q 250 2184 428 2587 
Q 606 2991 970 3192 
Q 1334 3394 1763 3394 
Q 2303 3394 2647 3120 
Q 2991 2847 3088 2344 
L 2541 2259 
Q 2463 2594 2264 2762 
Q 2066 2931 1784 2931 
Q 1359 2931 1093 2626 
Q 828 2322 828 1663 
Q 828 994 1084 691 
Q 1341 388 1753 388 
Q 2084 388 2306 591 
Q 2528 794 2588 1216 
z
" transform="scale(0.015625)"/>
      <path id="ArialMT-75" d="M 2597 0 
L 2597 488 
Q 2209 -75 1544 -75 
Q 1250 -75 995 37 
Q 741 150 617 320 
Q 494 491 444 738 
Q 409 903 409 1263 
L 409 3319 
L 972 3319 
L 972 1478 
Q 972 1038 1006 884 
Q 1059 663 1231 536 
Q 1403 409 1656 409 
Q 1909 409 2131 539 
Q 2353 669 2445 892 
Q 2538 1116 2538 1541 
L 2538 3319 
L 3100 3319 
L 3100 0 
L 2597 0 
z
" transform="scale(0.015625)"/>
      <path id="ArialMT-31" d="M 2384 0 
L 1822 0 
L 1822 3584 
Q 1619 3391 1289 3197 
Q 959 3003 697 2906 
L 697 3450 
Q 1169 3672 1522 3987 
Q 1875 4303 2022 4600 
L 2384 4600 
L 2384 0 
z
" transform="scale(0.015625)"/>
      <path id="ArialMT-33" d="M 269 1209 
L 831 1284 
Q 928 806 1161 595 
Q 1394 384 1728 384 
Q 2125 384 2398 659 
Q 2672 934 2672 1341 
Q 2672 1728 2419 1979 
Q 2166 2231 1775 2231 
Q 1616 2231 1378 2169 
L 1441 2663 
Q 1497 2656 1531 2656 
Q 1891 2656 2178 2843 
Q 2466 3031 2466 3422 
Q 2466 3731 2256 3934 
Q 2047 4138 1716 4138 
Q 1388 4138 1169 3931 
Q 950 3725 888 3313 
L 325 3413 
Q 428 3978 793 4289 
Q 1159 4600 1703 4600 
Q 2078 4600 2393 4439 
Q 2709 4278 2876 4000 
Q 3044 3722 3044 3409 
Q 3044 3113 2884 2869 
Q 2725 2625 2413 2481 
Q 2819 2388 3044 2092 
Q 3269 1797 3269 1353 
Q 3269 753 2831 336 
Q 2394 -81 1725 -81 
Q 1122 -81 723 278 
Q 325 638 269 1209 
z
" transform="scale(0.015625)"/>
      <path id="ArialMT-34" d="M 2069 0 
L 2069 1097 
L 81 1097 
L 81 1613 
L 2172 4581 
L 2631 4581 
L 2631 1613 
L 3250 1613 
L 3250 1097 
L 2631 1097 
L 2631 0 
L 2069 0 
z
M 2069 1613 
L 2069 3678 
L 634 1613 
L 2069 1613 
z
" transform="scale(0.015625)"/>
     </defs>
     <use xlink:href="#ArialMT-20"/>
     <use xlink:href="#ArialMT-50" x="27.783203"/>
     <use xlink:href="#ArialMT-6c" x="94.482422"/>
     <use xlink:href="#ArialMT-6f" x="116.699219"/>
     <use xlink:href="#ArialMT-74" x="172.314453"/>
     <use xlink:href="#ArialMT-74" x="200.097656"/>
     <use xlink:href="#ArialMT-69" x="227.880859"/>
     <use xlink:href="#ArialMT-6e" x="250.097656"/>
     <use xlink:href="#ArialMT-67" x="305.712891"/>
     <use xlink:href="#ArialMT-20" x="361.328125"/>
     <use xlink:href="#ArialMT-69" x="389.111328"/>
     <use xlink:href="#ArialMT-53" x="411.328125"/>
     <use xlink:href="#ArialMT-50" x="478.027344"/>
     <use xlink:href="#ArialMT-4e" x="544.726562"/>
     <use xlink:href="#ArialMT-2c" x="616.943359"/>
     <use xlink:href="#ArialMT-20" x="644.726562"/>
     <use xlink:href="#ArialMT-74" x="672.509766"/>
     <use xlink:href="#ArialMT-72" x="700.292969"/>
     <use xlink:href="#ArialMT-61" x="733.59375"/>
     <use xlink:href="#ArialMT-63" x="789.208984"/>
     <use xlink:href="#ArialMT-65" x="839.208984"/>
     <use xlink:href="#ArialMT-20" x="894.824219"/>
     <use xlink:href="#ArialMT-6e" x="922.607422"/>
     <use xlink:href="#ArialMT-75" x="978.222656"/>
     <use xlink:href="#ArialMT-6d" x="1033.837891"/>
     <use xlink:href="#ArialMT-62" x="1117.138672"/>
     <use xlink:href="#ArialMT-65" x="1172.753906"/>
     <use xlink:href="#ArialMT-72" x="1228.369141"/>
     <use xlink:href="#ArialMT-20" x="1261.669922"/>
     <use xlink:href="#ArialMT-31" x="1289.453125"/>
     <use xlink:href="#ArialMT-33" x="1345.068359"/>
     <use xlink:href="#ArialMT-34" x="1400.683594"/>
     <use xlink:href="#ArialMT-34" x="1456.298828"/>
     <use xlink:href="#ArialMT-20" x="1511.914062"/>
    </g>
   </g>
  </g>
 </g>
 <defs>
  <clipPath id="p8c653f69b0">
   <rect x="72" y="69.12" width="446.4" height="434.88"/>
  </clipPath>
 </defs>
</svg>
