<?xml version="1.0" encoding="utf-8" standalone="no"?>
<!DOCTYPE svg PUBLIC "-//W3C//DTD SVG 1.1//EN"
  "http://www.w3.org/Graphics/SVG/1.1/DTD/svg11.dtd">
<svg xmlns:xlink="http://www.w3.org/1999/xlink" width="576pt" height="576pt" viewBox="0 0 576 576" xmlns="http://www.w3.org/2000/svg" version="1.1">
 <metadata>
  <rdf:RDF xmlns:dc="http://purl.org/dc/elements/1.1/" xmlns:cc="http://creativecommons.org/ns#" xmlns:rdf="http://www.w3.org/1999/02/22-rdf-syntax-ns#">
   <cc:Work>
    <dc:type rdf:resource="http://purl.org/dc/dcmitype/StillImage"/>
    <dc:date>2022-10-30T19:57:16.648407</dc:date>
    <dc:format>image/svg+xml</dc:format>
    <dc:creator>
     <cc:Agent>
      <dc:title>Matplotlib v3.5.2, https://matplotlib.org/</dc:title>
     </cc:Agent>
    </dc:creator>
   </cc:Work>
  </rdf:RDF>
 </metadata>
 <defs>
  <style type="text/css">*{stroke-linejoin: round; stroke-linecap: butt}</style>
 </defs>
 <g id="figure_1">
  <g id="patch_1">
   <path d="M 0 576 
L 576 576 
L 576 0 
L 0 0 
L 0 576 
z
" style="fill: none"/>
  </g>
  <g id="axes_1">
   <g id="patch_2">
    <path d="M 72 504 
L 518.4 504 
L 518.4 69.12 
L 72 69.12 
z
" style="fill: #ffffff"/>
   </g>
   <g id="matplotlib.axis_1">
    <g id="xtick_1">
     <g id="line2d_1">
      <defs>
       <path id="m20d6c291f2" d="M 0 0 
L 0 3.5 
" style="stroke: #000000; stroke-width: 0.8"/>
      </defs>
      <g>
       <use xlink:href="#m20d6c291f2" x="92.290909" y="504" style="stroke: #000000; stroke-width: 0.8"/>
      </g>
     </g>
     <g id="text_1">
      <!-- 0 -->
      <g transform="translate(85.292159 527.716563)scale(0.22 -0.22)">
       <defs>
        <path id="DejaVuSans-30" d="M 2034 4250 
Q 1547 4250 1301 3770 
Q 1056 3291 1056 2328 
Q 1056 1369 1301 889 
Q 1547 409 2034 409 
Q 2525 409 2770 889 
Q 3016 1369 3016 2328 
Q 3016 3291 2770 3770 
Q 2525 4250 2034 4250 
z
M 2034 4750 
Q 2819 4750 3233 4129 
Q 3647 3509 3647 2328 
Q 3647 1150 3233 529 
Q 2819 -91 2034 -91 
Q 1250 -91 836 529 
Q 422 1150 422 2328 
Q 422 3509 836 4129 
Q 1250 4750 2034 4750 
z
" transform="scale(0.015625)"/>
       </defs>
       <use xlink:href="#DejaVuSans-30"/>
      </g>
     </g>
    </g>
    <g id="xtick_2">
     <g id="line2d_2">
      <g>
       <use xlink:href="#m20d6c291f2" x="227.563636" y="504" style="stroke: #000000; stroke-width: 0.8"/>
      </g>
     </g>
     <g id="text_2">
      <!-- 1000 -->
      <g transform="translate(199.568636 527.716563)scale(0.22 -0.22)">
       <defs>
        <path id="DejaVuSans-31" d="M 794 531 
L 1825 531 
L 1825 4091 
L 703 3866 
L 703 4441 
L 1819 4666 
L 2450 4666 
L 2450 531 
L 3481 531 
L 3481 0 
L 794 0 
L 794 531 
z
" transform="scale(0.015625)"/>
       </defs>
       <use xlink:href="#DejaVuSans-31"/>
       <use xlink:href="#DejaVuSans-30" x="63.623047"/>
       <use xlink:href="#DejaVuSans-30" x="127.246094"/>
       <use xlink:href="#DejaVuSans-30" x="190.869141"/>
      </g>
     </g>
    </g>
    <g id="xtick_3">
     <g id="line2d_3">
      <g>
       <use xlink:href="#m20d6c291f2" x="362.836364" y="504" style="stroke: #000000; stroke-width: 0.8"/>
      </g>
     </g>
     <g id="text_3">
      <!-- 2000 -->
      <g transform="translate(334.841364 527.716563)scale(0.22 -0.22)">
       <defs>
        <path id="DejaVuSans-32" d="M 1228 531 
L 3431 531 
L 3431 0 
L 469 0 
L 469 531 
Q 828 903 1448 1529 
Q 2069 2156 2228 2338 
Q 2531 2678 2651 2914 
Q 2772 3150 2772 3378 
Q 2772 3750 2511 3984 
Q 2250 4219 1831 4219 
Q 1534 4219 1204 4116 
Q 875 4013 500 3803 
L 500 4441 
Q 881 4594 1212 4672 
Q 1544 4750 1819 4750 
Q 2544 4750 2975 4387 
Q 3406 4025 3406 3419 
Q 3406 3131 3298 2873 
Q 3191 2616 2906 2266 
Q 2828 2175 2409 1742 
Q 1991 1309 1228 531 
z
" transform="scale(0.015625)"/>
       </defs>
       <use xlink:href="#DejaVuSans-32"/>
       <use xlink:href="#DejaVuSans-30" x="63.623047"/>
       <use xlink:href="#DejaVuSans-30" x="127.246094"/>
       <use xlink:href="#DejaVuSans-30" x="190.869141"/>
      </g>
     </g>
    </g>
    <g id="xtick_4">
     <g id="line2d_4">
      <g>
       <use xlink:href="#m20d6c291f2" x="498.109091" y="504" style="stroke: #000000; stroke-width: 0.8"/>
      </g>
     </g>
     <g id="text_4">
      <!-- 3000 -->
      <g transform="translate(470.114091 527.716563)scale(0.22 -0.22)">
       <defs>
        <path id="DejaVuSans-33" d="M 2597 2516 
Q 3050 2419 3304 2112 
Q 3559 1806 3559 1356 
Q 3559 666 3084 287 
Q 2609 -91 1734 -91 
Q 1441 -91 1130 -33 
Q 819 25 488 141 
L 488 750 
Q 750 597 1062 519 
Q 1375 441 1716 441 
Q 2309 441 2620 675 
Q 2931 909 2931 1356 
Q 2931 1769 2642 2001 
Q 2353 2234 1838 2234 
L 1294 2234 
L 1294 2753 
L 1863 2753 
Q 2328 2753 2575 2939 
Q 2822 3125 2822 3475 
Q 2822 3834 2567 4026 
Q 2313 4219 1838 4219 
Q 1578 4219 1281 4162 
Q 984 4106 628 3988 
L 628 4550 
Q 988 4650 1302 4700 
Q 1616 4750 1894 4750 
Q 2613 4750 3031 4423 
Q 3450 4097 3450 3541 
Q 3450 3153 3228 2886 
Q 3006 2619 2597 2516 
z
" transform="scale(0.015625)"/>
       </defs>
       <use xlink:href="#DejaVuSans-33"/>
       <use xlink:href="#DejaVuSans-30" x="63.623047"/>
       <use xlink:href="#DejaVuSans-30" x="127.246094"/>
       <use xlink:href="#DejaVuSans-30" x="190.869141"/>
      </g>
     </g>
    </g>
    <g id="text_5">
     <!-- Time(ms) -->
     <g transform="translate(249.182187 552.307188)scale(0.22 -0.22)">
      <defs>
       <path id="ArialMT-54" d="M 1659 0 
L 1659 4041 
L 150 4041 
L 150 4581 
L 3781 4581 
L 3781 4041 
L 2266 4041 
L 2266 0 
L 1659 0 
z
" transform="scale(0.015625)"/>
       <path id="ArialMT-69" d="M 425 3934 
L 425 4581 
L 988 4581 
L 988 3934 
L 425 3934 
z
M 425 0 
L 425 3319 
L 988 3319 
L 988 0 
L 425 0 
z
" transform="scale(0.015625)"/>
       <path id="ArialMT-6d" d="M 422 0 
L 422 3319 
L 925 3319 
L 925 2853 
Q 1081 3097 1340 3245 
Q 1600 3394 1931 3394 
Q 2300 3394 2536 3241 
Q 2772 3088 2869 2813 
Q 3263 3394 3894 3394 
Q 4388 3394 4653 3120 
Q 4919 2847 4919 2278 
L 4919 0 
L 4359 0 
L 4359 2091 
Q 4359 2428 4304 2576 
Q 4250 2725 4106 2815 
Q 3963 2906 3769 2906 
Q 3419 2906 3187 2673 
Q 2956 2441 2956 1928 
L 2956 0 
L 2394 0 
L 2394 2156 
Q 2394 2531 2256 2718 
Q 2119 2906 1806 2906 
Q 1569 2906 1367 2781 
Q 1166 2656 1075 2415 
Q 984 2175 984 1722 
L 984 0 
L 422 0 
z
" transform="scale(0.015625)"/>
       <path id="ArialMT-65" d="M 2694 1069 
L 3275 997 
Q 3138 488 2766 206 
Q 2394 -75 1816 -75 
Q 1088 -75 661 373 
Q 234 822 234 1631 
Q 234 2469 665 2931 
Q 1097 3394 1784 3394 
Q 2450 3394 2872 2941 
Q 3294 2488 3294 1666 
Q 3294 1616 3291 1516 
L 816 1516 
Q 847 969 1125 678 
Q 1403 388 1819 388 
Q 2128 388 2347 550 
Q 2566 713 2694 1069 
z
M 847 1978 
L 2700 1978 
Q 2663 2397 2488 2606 
Q 2219 2931 1791 2931 
Q 1403 2931 1139 2672 
Q 875 2413 847 1978 
z
" transform="scale(0.015625)"/>
       <path id="ArialMT-28" d="M 1497 -1347 
Q 1031 -759 709 28 
Q 388 816 388 1659 
Q 388 2403 628 3084 
Q 909 3875 1497 4659 
L 1900 4659 
Q 1522 4009 1400 3731 
Q 1209 3300 1100 2831 
Q 966 2247 966 1656 
Q 966 153 1900 -1347 
L 1497 -1347 
z
" transform="scale(0.015625)"/>
       <path id="ArialMT-73" d="M 197 991 
L 753 1078 
Q 800 744 1014 566 
Q 1228 388 1613 388 
Q 2000 388 2187 545 
Q 2375 703 2375 916 
Q 2375 1106 2209 1216 
Q 2094 1291 1634 1406 
Q 1016 1563 777 1677 
Q 538 1791 414 1992 
Q 291 2194 291 2438 
Q 291 2659 392 2848 
Q 494 3038 669 3163 
Q 800 3259 1026 3326 
Q 1253 3394 1513 3394 
Q 1903 3394 2198 3281 
Q 2494 3169 2634 2976 
Q 2775 2784 2828 2463 
L 2278 2388 
Q 2241 2644 2061 2787 
Q 1881 2931 1553 2931 
Q 1166 2931 1000 2803 
Q 834 2675 834 2503 
Q 834 2394 903 2306 
Q 972 2216 1119 2156 
Q 1203 2125 1616 2013 
Q 2213 1853 2448 1751 
Q 2684 1650 2818 1456 
Q 2953 1263 2953 975 
Q 2953 694 2789 445 
Q 2625 197 2315 61 
Q 2006 -75 1616 -75 
Q 969 -75 630 194 
Q 291 463 197 991 
z
" transform="scale(0.015625)"/>
       <path id="ArialMT-29" d="M 791 -1347 
L 388 -1347 
Q 1322 153 1322 1656 
Q 1322 2244 1188 2822 
Q 1081 3291 891 3722 
Q 769 4003 388 4659 
L 791 4659 
Q 1378 3875 1659 3084 
Q 1900 2403 1900 1659 
Q 1900 816 1576 28 
Q 1253 -759 791 -1347 
z
" transform="scale(0.015625)"/>
      </defs>
      <use xlink:href="#ArialMT-54"/>
      <use xlink:href="#ArialMT-69" x="57.333984"/>
      <use xlink:href="#ArialMT-6d" x="79.550781"/>
      <use xlink:href="#ArialMT-65" x="162.851562"/>
      <use xlink:href="#ArialMT-28" x="218.466797"/>
      <use xlink:href="#ArialMT-6d" x="251.767578"/>
      <use xlink:href="#ArialMT-73" x="335.068359"/>
      <use xlink:href="#ArialMT-29" x="385.068359"/>
     </g>
    </g>
   </g>
   <g id="matplotlib.axis_2">
    <g id="ytick_1">
     <g id="line2d_5">
      <defs>
       <path id="m70dfbeae6d" d="M 0 0 
L -3.5 0 
" style="stroke: #000000; stroke-width: 0.8"/>
      </defs>
      <g>
       <use xlink:href="#m70dfbeae6d" x="72" y="476.82" style="stroke: #000000; stroke-width: 0.8"/>
      </g>
     </g>
     <g id="text_6">
      <!-- −100 -->
      <g transform="translate(4.572187 485.178281)scale(0.22 -0.22)">
       <defs>
        <path id="DejaVuSans-2212" d="M 678 2272 
L 4684 2272 
L 4684 1741 
L 678 1741 
L 678 2272 
z
" transform="scale(0.015625)"/>
       </defs>
       <use xlink:href="#DejaVuSans-2212"/>
       <use xlink:href="#DejaVuSans-31" x="83.789062"/>
       <use xlink:href="#DejaVuSans-30" x="147.412109"/>
       <use xlink:href="#DejaVuSans-30" x="211.035156"/>
      </g>
     </g>
    </g>
    <g id="ytick_2">
     <g id="line2d_6">
      <g>
       <use xlink:href="#m70dfbeae6d" x="72" y="422.46" style="stroke: #000000; stroke-width: 0.8"/>
      </g>
     </g>
     <g id="text_7">
      <!-- −80 -->
      <g transform="translate(18.569688 430.818281)scale(0.22 -0.22)">
       <defs>
        <path id="DejaVuSans-38" d="M 2034 2216 
Q 1584 2216 1326 1975 
Q 1069 1734 1069 1313 
Q 1069 891 1326 650 
Q 1584 409 2034 409 
Q 2484 409 2743 651 
Q 3003 894 3003 1313 
Q 3003 1734 2745 1975 
Q 2488 2216 2034 2216 
z
M 1403 2484 
Q 997 2584 770 2862 
Q 544 3141 544 3541 
Q 544 4100 942 4425 
Q 1341 4750 2034 4750 
Q 2731 4750 3128 4425 
Q 3525 4100 3525 3541 
Q 3525 3141 3298 2862 
Q 3072 2584 2669 2484 
Q 3125 2378 3379 2068 
Q 3634 1759 3634 1313 
Q 3634 634 3220 271 
Q 2806 -91 2034 -91 
Q 1263 -91 848 271 
Q 434 634 434 1313 
Q 434 1759 690 2068 
Q 947 2378 1403 2484 
z
M 1172 3481 
Q 1172 3119 1398 2916 
Q 1625 2713 2034 2713 
Q 2441 2713 2670 2916 
Q 2900 3119 2900 3481 
Q 2900 3844 2670 4047 
Q 2441 4250 2034 4250 
Q 1625 4250 1398 4047 
Q 1172 3844 1172 3481 
z
" transform="scale(0.015625)"/>
       </defs>
       <use xlink:href="#DejaVuSans-2212"/>
       <use xlink:href="#DejaVuSans-38" x="83.789062"/>
       <use xlink:href="#DejaVuSans-30" x="147.412109"/>
      </g>
     </g>
    </g>
    <g id="ytick_3">
     <g id="line2d_7">
      <g>
       <use xlink:href="#m70dfbeae6d" x="72" y="368.1" style="stroke: #000000; stroke-width: 0.8"/>
      </g>
     </g>
     <g id="text_8">
      <!-- −60 -->
      <g transform="translate(18.569688 376.458281)scale(0.22 -0.22)">
       <defs>
        <path id="DejaVuSans-36" d="M 2113 2584 
Q 1688 2584 1439 2293 
Q 1191 2003 1191 1497 
Q 1191 994 1439 701 
Q 1688 409 2113 409 
Q 2538 409 2786 701 
Q 3034 994 3034 1497 
Q 3034 2003 2786 2293 
Q 2538 2584 2113 2584 
z
M 3366 4563 
L 3366 3988 
Q 3128 4100 2886 4159 
Q 2644 4219 2406 4219 
Q 1781 4219 1451 3797 
Q 1122 3375 1075 2522 
Q 1259 2794 1537 2939 
Q 1816 3084 2150 3084 
Q 2853 3084 3261 2657 
Q 3669 2231 3669 1497 
Q 3669 778 3244 343 
Q 2819 -91 2113 -91 
Q 1303 -91 875 529 
Q 447 1150 447 2328 
Q 447 3434 972 4092 
Q 1497 4750 2381 4750 
Q 2619 4750 2861 4703 
Q 3103 4656 3366 4563 
z
" transform="scale(0.015625)"/>
       </defs>
       <use xlink:href="#DejaVuSans-2212"/>
       <use xlink:href="#DejaVuSans-36" x="83.789062"/>
       <use xlink:href="#DejaVuSans-30" x="147.412109"/>
      </g>
     </g>
    </g>
    <g id="ytick_4">
     <g id="line2d_8">
      <g>
       <use xlink:href="#m70dfbeae6d" x="72" y="313.74" style="stroke: #000000; stroke-width: 0.8"/>
      </g>
     </g>
     <g id="text_9">
      <!-- −40 -->
      <g transform="translate(18.569688 322.098281)scale(0.22 -0.22)">
       <defs>
        <path id="DejaVuSans-34" d="M 2419 4116 
L 825 1625 
L 2419 1625 
L 2419 4116 
z
M 2253 4666 
L 3047 4666 
L 3047 1625 
L 3713 1625 
L 3713 1100 
L 3047 1100 
L 3047 0 
L 2419 0 
L 2419 1100 
L 313 1100 
L 313 1709 
L 2253 4666 
z
" transform="scale(0.015625)"/>
       </defs>
       <use xlink:href="#DejaVuSans-2212"/>
       <use xlink:href="#DejaVuSans-34" x="83.789062"/>
       <use xlink:href="#DejaVuSans-30" x="147.412109"/>
      </g>
     </g>
    </g>
    <g id="ytick_5">
     <g id="line2d_9">
      <g>
       <use xlink:href="#m70dfbeae6d" x="72" y="259.38" style="stroke: #000000; stroke-width: 0.8"/>
      </g>
     </g>
     <g id="text_10">
      <!-- −20 -->
      <g transform="translate(18.569688 267.738281)scale(0.22 -0.22)">
       <use xlink:href="#DejaVuSans-2212"/>
       <use xlink:href="#DejaVuSans-32" x="83.789062"/>
       <use xlink:href="#DejaVuSans-30" x="147.412109"/>
      </g>
     </g>
    </g>
    <g id="ytick_6">
     <g id="line2d_10">
      <g>
       <use xlink:href="#m70dfbeae6d" x="72" y="205.02" style="stroke: #000000; stroke-width: 0.8"/>
      </g>
     </g>
     <g id="text_11">
      <!-- 0 -->
      <g transform="translate(51.0025 213.378281)scale(0.22 -0.22)">
       <use xlink:href="#DejaVuSans-30"/>
      </g>
     </g>
    </g>
    <g id="ytick_7">
     <g id="line2d_11">
      <g>
       <use xlink:href="#m70dfbeae6d" x="72" y="150.66" style="stroke: #000000; stroke-width: 0.8"/>
      </g>
     </g>
     <g id="text_12">
      <!-- 20 -->
      <g transform="translate(37.005 159.018281)scale(0.22 -0.22)">
       <use xlink:href="#DejaVuSans-32"/>
       <use xlink:href="#DejaVuSans-30" x="63.623047"/>
      </g>
     </g>
    </g>
    <g id="ytick_8">
     <g id="line2d_12">
      <g>
       <use xlink:href="#m70dfbeae6d" x="72" y="96.3" style="stroke: #000000; stroke-width: 0.8"/>
      </g>
     </g>
     <g id="text_13">
      <!-- 40 -->
      <g transform="translate(37.005 104.658281)scale(0.22 -0.22)">
       <use xlink:href="#DejaVuSans-34"/>
       <use xlink:href="#DejaVuSans-30" x="63.623047"/>
      </g>
     </g>
    </g>
    <g id="text_14">
     <!-- Membrane potential (mV) -->
     <g transform="translate(-4.058125 410.655469)rotate(-90)scale(0.22 -0.22)">
      <defs>
       <path id="ArialMT-4d" d="M 475 0 
L 475 4581 
L 1388 4581 
L 2472 1338 
Q 2622 884 2691 659 
Q 2769 909 2934 1394 
L 4031 4581 
L 4847 4581 
L 4847 0 
L 4263 0 
L 4263 3834 
L 2931 0 
L 2384 0 
L 1059 3900 
L 1059 0 
L 475 0 
z
" transform="scale(0.015625)"/>
       <path id="ArialMT-62" d="M 941 0 
L 419 0 
L 419 4581 
L 981 4581 
L 981 2947 
Q 1338 3394 1891 3394 
Q 2197 3394 2470 3270 
Q 2744 3147 2920 2923 
Q 3097 2700 3197 2384 
Q 3297 2069 3297 1709 
Q 3297 856 2875 390 
Q 2453 -75 1863 -75 
Q 1275 -75 941 416 
L 941 0 
z
M 934 1684 
Q 934 1088 1097 822 
Q 1363 388 1816 388 
Q 2184 388 2453 708 
Q 2722 1028 2722 1663 
Q 2722 2313 2464 2622 
Q 2206 2931 1841 2931 
Q 1472 2931 1203 2611 
Q 934 2291 934 1684 
z
" transform="scale(0.015625)"/>
       <path id="ArialMT-72" d="M 416 0 
L 416 3319 
L 922 3319 
L 922 2816 
Q 1116 3169 1280 3281 
Q 1444 3394 1641 3394 
Q 1925 3394 2219 3213 
L 2025 2691 
Q 1819 2813 1613 2813 
Q 1428 2813 1281 2702 
Q 1134 2591 1072 2394 
Q 978 2094 978 1738 
L 978 0 
L 416 0 
z
" transform="scale(0.015625)"/>
       <path id="ArialMT-61" d="M 2588 409 
Q 2275 144 1986 34 
Q 1697 -75 1366 -75 
Q 819 -75 525 192 
Q 231 459 231 875 
Q 231 1119 342 1320 
Q 453 1522 633 1644 
Q 813 1766 1038 1828 
Q 1203 1872 1538 1913 
Q 2219 1994 2541 2106 
Q 2544 2222 2544 2253 
Q 2544 2597 2384 2738 
Q 2169 2928 1744 2928 
Q 1347 2928 1158 2789 
Q 969 2650 878 2297 
L 328 2372 
Q 403 2725 575 2942 
Q 747 3159 1072 3276 
Q 1397 3394 1825 3394 
Q 2250 3394 2515 3294 
Q 2781 3194 2906 3042 
Q 3031 2891 3081 2659 
Q 3109 2516 3109 2141 
L 3109 1391 
Q 3109 606 3145 398 
Q 3181 191 3288 0 
L 2700 0 
Q 2613 175 2588 409 
z
M 2541 1666 
Q 2234 1541 1622 1453 
Q 1275 1403 1131 1340 
Q 988 1278 909 1158 
Q 831 1038 831 891 
Q 831 666 1001 516 
Q 1172 366 1500 366 
Q 1825 366 2078 508 
Q 2331 650 2450 897 
Q 2541 1088 2541 1459 
L 2541 1666 
z
" transform="scale(0.015625)"/>
       <path id="ArialMT-6e" d="M 422 0 
L 422 3319 
L 928 3319 
L 928 2847 
Q 1294 3394 1984 3394 
Q 2284 3394 2536 3286 
Q 2788 3178 2913 3003 
Q 3038 2828 3088 2588 
Q 3119 2431 3119 2041 
L 3119 0 
L 2556 0 
L 2556 2019 
Q 2556 2363 2490 2533 
Q 2425 2703 2258 2804 
Q 2091 2906 1866 2906 
Q 1506 2906 1245 2678 
Q 984 2450 984 1813 
L 984 0 
L 422 0 
z
" transform="scale(0.015625)"/>
       <path id="ArialMT-20" transform="scale(0.015625)"/>
       <path id="ArialMT-70" d="M 422 -1272 
L 422 3319 
L 934 3319 
L 934 2888 
Q 1116 3141 1344 3267 
Q 1572 3394 1897 3394 
Q 2322 3394 2647 3175 
Q 2972 2956 3137 2557 
Q 3303 2159 3303 1684 
Q 3303 1175 3120 767 
Q 2938 359 2589 142 
Q 2241 -75 1856 -75 
Q 1575 -75 1351 44 
Q 1128 163 984 344 
L 984 -1272 
L 422 -1272 
z
M 931 1641 
Q 931 1000 1190 694 
Q 1450 388 1819 388 
Q 2194 388 2461 705 
Q 2728 1022 2728 1688 
Q 2728 2322 2467 2637 
Q 2206 2953 1844 2953 
Q 1484 2953 1207 2617 
Q 931 2281 931 1641 
z
" transform="scale(0.015625)"/>
       <path id="ArialMT-6f" d="M 213 1659 
Q 213 2581 725 3025 
Q 1153 3394 1769 3394 
Q 2453 3394 2887 2945 
Q 3322 2497 3322 1706 
Q 3322 1066 3130 698 
Q 2938 331 2570 128 
Q 2203 -75 1769 -75 
Q 1072 -75 642 372 
Q 213 819 213 1659 
z
M 791 1659 
Q 791 1022 1069 705 
Q 1347 388 1769 388 
Q 2188 388 2466 706 
Q 2744 1025 2744 1678 
Q 2744 2294 2464 2611 
Q 2184 2928 1769 2928 
Q 1347 2928 1069 2612 
Q 791 2297 791 1659 
z
" transform="scale(0.015625)"/>
       <path id="ArialMT-74" d="M 1650 503 
L 1731 6 
Q 1494 -44 1306 -44 
Q 1000 -44 831 53 
Q 663 150 594 308 
Q 525 466 525 972 
L 525 2881 
L 113 2881 
L 113 3319 
L 525 3319 
L 525 4141 
L 1084 4478 
L 1084 3319 
L 1650 3319 
L 1650 2881 
L 1084 2881 
L 1084 941 
Q 1084 700 1114 631 
Q 1144 563 1211 522 
Q 1278 481 1403 481 
Q 1497 481 1650 503 
z
" transform="scale(0.015625)"/>
       <path id="ArialMT-6c" d="M 409 0 
L 409 4581 
L 972 4581 
L 972 0 
L 409 0 
z
" transform="scale(0.015625)"/>
       <path id="ArialMT-56" d="M 1803 0 
L 28 4581 
L 684 4581 
L 1875 1253 
Q 2019 853 2116 503 
Q 2222 878 2363 1253 
L 3600 4581 
L 4219 4581 
L 2425 0 
L 1803 0 
z
" transform="scale(0.015625)"/>
      </defs>
      <use xlink:href="#ArialMT-4d"/>
      <use xlink:href="#ArialMT-65" x="83.300781"/>
      <use xlink:href="#ArialMT-6d" x="138.916016"/>
      <use xlink:href="#ArialMT-62" x="222.216797"/>
      <use xlink:href="#ArialMT-72" x="277.832031"/>
      <use xlink:href="#ArialMT-61" x="311.132812"/>
      <use xlink:href="#ArialMT-6e" x="366.748047"/>
      <use xlink:href="#ArialMT-65" x="422.363281"/>
      <use xlink:href="#ArialMT-20" x="477.978516"/>
      <use xlink:href="#ArialMT-70" x="505.761719"/>
      <use xlink:href="#ArialMT-6f" x="561.376953"/>
      <use xlink:href="#ArialMT-74" x="616.992188"/>
      <use xlink:href="#ArialMT-65" x="644.775391"/>
      <use xlink:href="#ArialMT-6e" x="700.390625"/>
      <use xlink:href="#ArialMT-74" x="756.005859"/>
      <use xlink:href="#ArialMT-69" x="783.789062"/>
      <use xlink:href="#ArialMT-61" x="806.005859"/>
      <use xlink:href="#ArialMT-6c" x="861.621094"/>
      <use xlink:href="#ArialMT-20" x="883.837891"/>
      <use xlink:href="#ArialMT-28" x="911.621094"/>
      <use xlink:href="#ArialMT-6d" x="944.921875"/>
      <use xlink:href="#ArialMT-56" x="1028.222656"/>
      <use xlink:href="#ArialMT-29" x="1094.921875"/>
     </g>
    </g>
   </g>
   <g id="line2d_13">
    <path d="M 92.290909 460.512 
L 92.493818 466.999015 
L 92.832 469.013706 
L 93.373091 470.72886 
L 93.981818 471.916939 
L 94.590545 472.612774 
L 95.266909 473.03827 
L 96.146182 473.301221 
L 97.498909 473.439552 
L 100.880727 473.484181 
L 159.927273 473.485286 
L 160.130182 453.399443 
L 160.468364 443.874685 
L 161.009455 434.711265 
L 161.685818 426.814847 
L 162.429818 420.539385 
L 163.309091 414.998001 
L 164.256 410.411321 
L 165.338182 406.273596 
L 166.488 402.723505 
L 167.773091 399.448203 
L 169.261091 396.275195 
L 170.952 393.210498 
L 172.981091 390.018561 
L 175.686545 386.209762 
L 180.421091 379.587003 
L 182.112 376.779147 
L 183.329455 374.338826 
L 184.749818 370.762471 
L 185.561455 368.087063 
L 186.237818 365.129569 
L 186.778909 361.804343 
L 187.252364 357.188387 
L 187.658182 352.45362 
L 187.928727 346.923729 
L 188.131636 338.743585 
L 188.266909 324.249344 
L 188.334545 289.495294 
L 188.402182 179.728748 
L 188.605091 382.469348 
L 188.740364 391.916624 
L 188.943273 386.465232 
L 189.349091 378.188404 
L 189.754909 374.612125 
L 190.160727 372.454547 
L 191.242909 368.971131 
L 192.054545 365.316284 
L 193.272 355.783731 
L 193.610182 351.029318 
L 193.880727 343.947169 
L 194.083636 331.068385 
L 194.151273 319.555315 
L 194.286545 228.005292 
L 194.489455 384.979503 
L 194.624727 391.044007 
L 194.962909 382.179969 
L 195.504 372.132879 
L 195.774545 370.615787 
L 196.248 369.341291 
L 196.721455 367.811246 
L 197.059636 366.04094 
L 198.344727 356.886609 
L 198.682909 352.984985 
L 199.291636 341.33917 
L 199.426909 333.921463 
L 199.494545 326.329793 
L 199.562182 305.909979 
L 199.629818 146.253559 
L 199.832727 376.834332 
L 199.968 390.910565 
L 200.035636 390.604552 
L 200.982545 372.37403 
L 201.997091 364.119698 
L 202.267636 361.85816 
L 202.741091 355.997564 
L 203.011636 355.136714 
L 203.282182 354.453991 
L 203.552727 352.760702 
L 203.823273 349.591747 
L 204.093818 343.425078 
L 204.296727 331.67708 
L 204.364364 320.91802 
L 204.499636 213.248164 
L 204.702545 383.717437 
L 204.837818 391.37497 
L 204.973091 388.929906 
L 205.514182 377.161908 
L 205.92 373.0537 
L 206.461091 370.042512 
L 206.934545 368.713092 
L 207.408 367.273923 
L 208.354909 363.957553 
L 208.625455 363.019202 
L 208.963636 360.984314 
L 209.437091 356.539612 
L 209.707636 352.493312 
L 209.910545 346.006269 
L 210.113455 332.793242 
L 210.181091 321.785834 
L 210.316364 213.460268 
L 210.519273 386.340754 
L 210.654545 393.219453 
L 210.857455 388.367539 
L 211.330909 377.577832 
L 211.804364 372.505213 
L 212.548364 366.516845 
L 212.954182 363.945895 
L 213.292364 361.471637 
L 213.833455 355.704035 
L 214.171636 353.579912 
L 214.442182 350.326101 
L 214.712727 344.318675 
L 214.915636 335.926805 
L 215.050909 319.925815 
L 215.186182 212.029491 
L 215.389091 383.511262 
L 215.524364 391.130074 
L 215.659636 388.591766 
L 216.133091 378.109572 
L 216.538909 373.529515 
L 217.891636 362.91415 
L 218.094545 362.193562 
L 218.838545 357.673958 
L 219.244364 353.533523 
L 219.582545 347.816193 
L 219.785455 341.115902 
L 219.920727 331.520132 
L 219.988364 320.008042 
L 220.123636 226.630677 
L 220.326545 385.261905 
L 220.461818 391.291022 
L 221.408727 374.509571 
L 221.949818 371.292846 
L 222.761455 366.705096 
L 223.099636 364.812113 
L 223.708364 362.007791 
L 224.114182 358.947171 
L 224.384727 355.587024 
L 224.925818 340.48562 
L 225.061091 330.872716 
L 225.128727 319.501189 
L 225.264 228.0229 
L 225.466909 385.115859 
L 225.602182 391.886928 
L 225.805091 387.50805 
L 226.278545 377.877916 
L 226.684364 373.561721 
L 227.157818 370.81552 
L 227.631273 368.065305 
L 228.037091 364.876096 
L 228.104727 364.891523 
L 228.375273 365.059735 
L 228.578182 364.877676 
L 228.916364 364.065527 
L 229.389818 362.193442 
L 230.201455 357.606742 
L 230.539636 354.954317 
L 230.877818 350.06378 
L 231.148364 342.263357 
L 231.283636 333.673302 
L 231.351273 324.420201 
L 231.418909 290.75968 
L 231.486545 177.395006 
L 231.689455 381.49848 
L 231.824727 391.250232 
L 231.96 388.950592 
L 232.433455 378.462524 
L 232.839273 374.231759 
L 233.583273 369.179697 
L 233.921455 366.939339 
L 234.327273 365.157822 
L 235.138909 362.346626 
L 235.68 359.100645 
L 236.085818 355.387829 
L 236.424 350.196578 
L 236.694545 341.983239 
L 236.829818 332.622825 
L 236.897455 321.781435 
L 237.032727 211.331496 
L 237.235636 383.990282 
L 237.370909 390.32089 
L 238.182545 376.282755 
L 238.723636 373.188186 
L 238.994182 372.129414 
L 240.820364 367.083887 
L 241.564364 363.776524 
L 242.105455 360.267408 
L 242.781818 354.208528 
L 243.12 349.07223 
L 243.322909 343.201555 
L 243.458182 335.679345 
L 243.593455 310.799034 
L 243.661091 136.8396 
L 243.864 375.868443 
L 243.999273 391.252012 
L 244.066909 390.715511 
L 244.675636 374.233705 
L 244.946182 372.314746 
L 245.757818 369.587753 
L 246.298909 368.218693 
L 246.907636 366.038321 
L 247.245818 364.238182 
L 248.530909 355.209716 
L 249.004364 348.686181 
L 249.207273 342.930875 
L 249.342545 335.565308 
L 249.477818 311.621762 
L 249.545455 137.557067 
L 249.748364 375.392647 
L 249.883636 391.651154 
L 249.951273 391.414777 
L 250.898182 373.384438 
L 251.642182 367.131675 
L 252.183273 366.099307 
L 252.386182 364.957658 
L 253.130182 359.293684 
L 253.738909 350.429268 
L 254.009455 342.25355 
L 254.144727 333.615618 
L 254.212364 324.553062 
L 254.28 293.233917 
L 254.347636 173.851154 
L 254.550545 381.69912 
L 254.685818 391.491359 
L 254.821091 388.800032 
L 255.429818 373.8507 
L 255.903273 368.578354 
L 257.053091 357.352781 
L 257.323636 351.717817 
L 257.797091 334.554667 
L 257.932364 317.966229 
L 258.067636 229.107996 
L 258.270545 383.556355 
L 258.405818 390.004275 
L 258.608727 385.113405 
L 259.082182 374.759421 
L 259.555636 370.018996 
L 261.517091 353.501631 
L 261.787636 348.926963 
L 261.990545 342.715672 
L 262.125818 334.661558 
L 262.193455 326.579349 
L 262.261091 303.660446 
L 262.328727 150.313102 
L 262.531636 379.078243 
L 262.666909 391.440415 
L 262.802182 389.080635 
L 263.410909 373.755608 
L 264.087273 363.682844 
L 264.493091 361.878641 
L 264.898909 359.632992 
L 265.169455 356.668877 
L 265.710545 348.300212 
L 265.913455 342.002147 
L 266.048727 333.629598 
L 266.116364 324.840179 
L 266.184 296.009337 
L 266.251636 168.214984 
L 266.454545 380.780216 
L 266.589818 391.248834 
L 266.725091 388.64468 
L 267.266182 374.980998 
L 267.739636 369.230305 
L 268.821818 358.305745 
L 269.701091 343.97738 
L 269.904 332.528299 
L 269.971636 322.647088 
L 270.106909 194.597658 
L 270.309818 382.584604 
L 270.445091 390.960905 
L 270.580364 388.2493 
L 271.121455 375.66078 
L 271.594909 369.884877 
L 273.150545 357.511136 
L 273.488727 352.554658 
L 273.826909 343.708186 
L 274.029818 330.652213 
L 274.097455 317.824249 
L 274.165091 190.353574 
L 274.232727 250.076674 
L 274.435636 386.073134 
L 274.570909 390.647672 
L 275.585455 372.829928 
L 276.397091 366.685969 
L 277.073455 361.186083 
L 277.952727 351.209687 
L 278.223273 344.660656 
L 278.426182 335.116184 
L 278.561455 313.174321 
L 278.629091 147.369431 
L 278.832 372.782515 
L 278.967273 390.336496 
L 279.034909 390.245139 
L 280.455273 361.577377 
L 281.605091 350.198285 
L 281.875636 343.669833 
L 282.078545 331.712694 
L 282.146182 320.801192 
L 282.281455 216.107147 
L 282.484364 384.109239 
L 282.619636 391.127798 
L 282.822545 386.19898 
L 283.296 374.912518 
L 283.701818 369.828149 
L 284.242909 365.362471 
L 284.851636 360.307586 
L 285.392727 354.410151 
L 285.663273 348.4898 
L 285.933818 335.557468 
L 286.069091 315.244325 
L 286.136727 165.638572 
L 286.339636 372.110936 
L 286.474909 391.52658 
L 286.542545 391.726547 
L 286.813091 384.898015 
L 287.218909 376.440471 
L 287.624727 372.353623 
L 289.315636 359.388495 
L 289.653818 354.250502 
L 289.992 346.754579 
L 290.194909 337.592886 
L 290.330182 320.189844 
L 290.465455 227.196877 
L 290.668364 385.756863 
L 290.803636 391.503215 
L 291.074182 384.211775 
L 291.48 375.471783 
L 292.021091 368.626014 
L 292.900364 361.037819 
L 293.306182 358.641527 
L 293.779636 354.325166 
L 294.050182 349.882647 
L 294.320727 342.209254 
L 294.456 334.401722 
L 294.523636 326.635514 
L 294.591273 305.580443 
L 294.658909 146.471102 
L 294.861818 377.978686 
L 294.997091 391.468873 
L 295.064727 390.99494 
L 296.011636 371.891449 
L 296.417455 368.099769 
L 297.229091 361.122846 
L 298.108364 350.535071 
L 298.311273 345.943947 
L 298.514182 337.47238 
L 298.649455 321.792319 
L 298.784727 203.658458 
L 298.987636 382.657537 
L 299.122909 390.337154 
L 299.325818 385.764242 
L 299.799273 375.328537 
L 300.272727 369.794171 
L 301.219636 362.078569 
L 301.760727 356.863013 
L 302.098909 351.690005 
L 302.369455 343.665165 
L 302.572364 330.510101 
L 302.64 318.294208 
L 302.707636 213.454179 
L 302.775273 242.411551 
L 302.978182 385.966811 
L 303.113455 391.455877 
L 303.384 384.312683 
L 303.789818 375.524997 
L 304.195636 371.131184 
L 305.007273 363.402459 
L 305.277818 360.941387 
L 306.157091 355.967753 
L 306.427636 352.125581 
L 306.765818 341.111139 
L 306.901091 331.470295 
L 306.968727 320.203218 
L 307.104 223.57881 
L 307.306909 384.998665 
L 307.442182 391.422811 
L 307.645091 386.476531 
L 308.118545 376.023829 
L 308.659636 369.4762 
L 309.403636 363.734802 
L 309.877091 359.609212 
L 310.621091 350.385339 
L 310.891636 343.143076 
L 311.094545 328.998329 
L 311.162182 313.570918 
L 311.229818 143.633247 
L 311.432727 373.36641 
L 311.568 389.562541 
L 311.635636 389.15783 
L 312.447273 373.399759 
L 313.191273 366.672561 
L 313.732364 362.381173 
L 314.205818 358.50868 
L 314.611636 353.163853 
L 314.882182 346.542973 
L 315.085091 336.219629 
L 315.220364 311.668233 
L 315.288 135.480987 
L 315.490909 376.12535 
L 315.626182 391.521164 
L 315.693818 391.101231 
L 316.573091 372.503124 
L 316.978909 368.630575 
L 318.196364 359.733614 
L 318.399273 356.00856 
L 319.143273 336.865353 
L 319.278545 321.802446 
L 319.413818 197.747128 
L 319.616727 382.472213 
L 319.752 390.816478 
L 319.887273 388.097371 
L 320.360727 376.952045 
L 320.834182 371.230935 
L 321.645818 365.090035 
L 322.322182 360.324496 
L 322.930909 354.001589 
L 323.201455 348.47372 
L 323.404364 339.817088 
L 323.539636 325.93468 
L 323.607273 300.285533 
L 323.674909 158.703062 
L 323.877818 381.733583 
L 324.013091 392.512967 
L 324.148364 389.750497 
L 324.689455 376.244488 
L 325.162909 369.035934 
L 326.448 360.547018 
L 327.192 351.719474 
L 327.462545 344.726069 
L 327.665455 332.111951 
L 327.733091 320.929486 
L 327.868364 219.134657 
L 328.071273 385.117888 
L 328.206545 391.671445 
L 328.409455 386.681549 
L 328.882909 375.698943 
L 329.356364 370.061566 
L 330.032727 362.591506 
L 330.573818 357.027309 
L 330.844364 355.657508 
L 331.182545 352.650116 
L 331.520727 347.623314 
L 331.723636 341.556293 
L 331.858909 333.024756 
L 331.926545 323.547196 
L 331.994182 286.191817 
L 332.061818 185.189508 
L 332.264727 382.243063 
L 332.4 391.423315 
L 332.535273 388.76937 
L 333.076364 375.434932 
L 333.482182 369.999008 
L 333.888 366.562737 
L 334.834909 359.795293 
L 335.240727 355.244729 
L 335.578909 348.729041 
L 335.781818 341.761754 
L 335.917091 332.122561 
L 335.984727 320.926067 
L 336.12 218.970173 
L 336.322909 384.890687 
L 336.458182 391.040584 
L 336.728727 383.804165 
L 337.269818 371.757513 
L 337.743273 368.07829 
L 338.622545 362.227652 
L 339.096 357.490964 
L 339.434182 352.389615 
L 339.772364 343.033815 
L 339.975273 329.755875 
L 340.042909 316.33088 
L 340.110545 173.347088 
L 340.178182 261.629956 
L 340.381091 386.144779 
L 340.516364 390.845353 
L 340.786909 383.896449 
L 341.192727 375.503072 
L 341.666182 370.262052 
L 342.545455 361.456712 
L 342.816 358.512671 
L 343.695273 353.851426 
L 343.965818 349.982679 
L 344.236364 342.706587 
L 344.371636 335.13892 
L 344.506909 309.387625 
L 344.574545 139.028832 
L 344.777455 376.152395 
L 344.912727 390.985317 
L 344.980364 390.536448 
L 345.792 372.881319 
L 346.603636 364.664595 
L 347.550545 354.461539 
L 347.956364 346.757053 
L 348.159273 338.611126 
L 348.294545 324.021061 
L 348.362182 288.830371 
L 348.429818 181.442602 
L 348.632727 381.558946 
L 348.768 390.86576 
L 348.903273 388.458793 
L 349.444364 376.342741 
L 349.850182 371.927795 
L 351.338182 362.066361 
L 351.744 359.302377 
L 352.149818 354.649692 
L 352.488 348.199055 
L 352.690909 340.660735 
L 352.826182 329.255802 
L 352.893818 312.719601 
L 352.961455 136.059009 
L 353.164364 374.896297 
L 353.299636 391.112685 
L 353.367273 390.800563 
L 354.449455 368.196188 
L 354.787636 366.476559 
L 355.193455 364.631178 
L 355.666909 361.239251 
L 356.072727 356.702898 
L 356.410909 350.327599 
L 356.613818 343.325612 
L 356.749091 333.448188 
L 356.816727 322.631843 
L 356.952 206.45856 
L 357.154909 385.680612 
L 357.290182 392.69729 
L 357.493091 387.642548 
L 357.966545 376.43484 
L 358.372364 371.974378 
L 359.725091 360.57508 
L 360.739636 340.065754 
L 360.874909 331.24087 
L 360.942545 320.936025 
L 361.077818 207.593284 
L 361.280727 383.115082 
L 361.416 391.18085 
L 361.551273 388.584347 
L 362.092364 376.485071 
L 362.565818 371.655061 
L 363.918545 360.200493 
L 364.527273 352.152043 
L 364.797818 345.135018 
L 365.000727 331.928912 
L 365.068364 319.82203 
L 365.136 217.489365 
L 365.203636 234.413714 
L 365.406545 386.289886 
L 365.541818 391.822612 
L 365.812364 384.323468 
L 366.285818 373.622311 
L 367.029818 363.342751 
L 367.368 361.047864 
L 367.841455 359.024405 
L 368.179636 356.184015 
L 368.653091 350.061877 
L 368.923636 343.13914 
L 369.058909 335.503827 
L 369.194182 309.831384 
L 369.261818 137.925609 
L 369.464727 376.247601 
L 369.6 391.211391 
L 369.667636 390.796112 
L 370.682182 369.538422 
L 371.223273 365.141331 
L 371.899636 359.280283 
L 372.373091 352.881116 
L 372.643636 346.282966 
L 372.846545 333.137361 
L 372.914182 322.674316 
L 373.049455 200.015835 
L 373.252364 385.910384 
L 373.387636 393.494726 
L 373.590545 388.499627 
L 374.064 377.570552 
L 374.469818 372.795701 
L 375.078545 368.651335 
L 375.687273 365.498878 
L 376.296 360.96445 
L 376.769455 355.713985 
L 377.107636 350.126133 
L 377.310545 344.065329 
L 377.513455 329.591446 
L 377.581091 313.806208 
L 377.648727 138.237109 
L 377.851636 374.616193 
L 377.986909 391.564114 
L 378.054545 391.224115 
L 378.866182 373.19373 
L 379.339636 369.709177 
L 380.151273 364.015175 
L 380.489455 360.495079 
L 381.030545 353.005531 
L 381.368727 345.848443 
L 381.571636 337.192828 
L 381.706909 320.562025 
L 381.842182 218.046887 
L 382.045091 384.601933 
L 382.180364 391.56128 
L 382.383273 386.733482 
L 382.856727 376.136694 
L 383.330182 370.424137 
L 384.412364 359.122145 
L 384.615273 355.721555 
L 385.088727 347.829334 
L 385.359273 340.694091 
L 385.494545 332.355504 
L 385.562182 323.152049 
L 385.629818 289.441799 
L 385.697455 182.028083 
L 385.900364 380.819198 
L 386.035636 390.384831 
L 386.170909 387.819918 
L 386.712 374.560748 
L 387.253091 367.699186 
L 387.794182 362.985107 
L 388.267636 360.4301 
L 388.673455 356.190433 
L 389.011636 350.840766 
L 389.282182 341.72321 
L 389.417455 332.723186 
L 389.485091 323.005878 
L 389.620364 190.87881 
L 389.823273 382.387398 
L 389.958545 390.541386 
L 390.161455 385.94985 
L 390.634909 375.87309 
L 391.040727 371.10399 
L 391.784727 366.393493 
L 392.258182 362.663628 
L 393.205091 351.51855 
L 393.475636 343.933869 
L 393.678545 330.836496 
L 393.746182 318.378833 
L 393.813818 203.685984 
L 393.881455 244.356079 
L 394.084364 385.900336 
L 394.219636 391.176236 
L 394.490182 384.18437 
L 394.963636 374.513839 
L 395.842909 363.757121 
L 396.857455 355.707187 
L 397.263273 349.044756 
L 397.533818 338.791423 
L 397.669091 325.806497 
L 397.736727 302.16456 
L 397.804364 154.82684 
L 398.007273 379.50008 
L 398.142545 391.492767 
L 398.277818 389.268258 
L 398.818909 376.466258 
L 399.292364 370.614327 
L 400.577455 358.536589 
L 400.848 352.416358 
L 401.321455 339.512693 
L 401.456727 330.635533 
L 401.524364 320.628747 
L 401.659636 204.891443 
L 401.862545 381.915391 
L 401.997818 390.047934 
L 402.133091 387.52372 
L 402.674182 375.402198 
L 403.147636 370.052766 
L 404.838545 353.771139 
L 405.176727 347.021811 
L 405.379636 338.664616 
L 405.514909 323.974939 
L 405.582545 287.858721 
L 405.650182 182.78395 
L 405.853091 382.260749 
L 405.988364 391.17909 
L 406.123636 388.237872 
L 406.664727 373.540678 
L 407.070545 369.153118 
L 408.761455 357.031606 
L 409.370182 349.556767 
L 409.640727 342.555404 
L 409.776 335.03001 
L 409.911273 308.806521 
L 409.978909 139.916691 
L 410.181818 375.943134 
L 410.317091 390.427878 
L 410.384727 390.019983 
L 411.399273 368.938233 
L 412.143273 360.948451 
L 412.549091 358.532862 
L 412.954909 354.350677 
L 413.293091 347.999012 
L 413.496 340.142598 
L 413.631273 326.408834 
L 413.698909 299.096884 
L 413.766545 159.930327 
L 413.969455 381.223633 
L 414.104727 392.159683 
L 414.24 389.667404 
L 414.781091 376.660356 
L 415.254545 371.131945 
L 416.607273 357.679925 
L 416.877818 351.967768 
L 417.418909 334.802837 
L 417.554182 319.938646 
L 417.689455 204.838168 
L 417.892364 380.723577 
L 418.027636 389.445565 
L 418.162909 387.143044 
L 418.704 375.11918 
L 419.177455 369.687699 
L 420.124364 360.432182 
L 420.936 347.985462 
L 421.206545 339.037976 
L 421.341818 327.442347 
L 421.409455 309.923783 
L 421.477091 141.096461 
L 421.68 375.022918 
L 421.815273 390.013077 
L 421.950545 387.293541 
L 422.356364 377.111334 
L 422.762182 372.036387 
L 423.303273 367.927857 
L 424.520727 358.529374 
L 424.858909 354.192945 
L 425.264727 345.384396 
L 425.467636 336.969603 
L 425.602909 321.057905 
L 425.738182 209.507782 
L 425.941091 383.383719 
L 426.076364 390.833787 
L 426.279273 385.875053 
L 426.820364 372.734359 
L 427.429091 363.857531 
L 427.632 362.650915 
L 428.037818 361.987527 
L 428.376 360.333714 
L 428.714182 357.514159 
L 429.052364 352.945135 
L 429.390545 344.632389 
L 429.593455 333.818966 
L 429.661091 325.353547 
L 429.728727 299.351756 
L 429.796364 161.201926 
L 429.999273 379.733774 
L 430.134545 390.354832 
L 430.269818 387.604772 
L 430.472727 381.635575 
L 430.675636 400.174282 
L 431.352 420.494628 
L 432.434182 448.650499 
L 433.042909 459.024463 
L 433.584 464.866279 
L 434.125091 468.474988 
L 434.666182 470.642299 
L 435.207273 471.918614 
L 435.748364 472.658824 
L 436.357091 473.120149 
L 437.101091 473.396383 
L 438.183273 473.542734 
L 440.482909 473.570312 
L 458.88 473.485601 
L 498.109091 473.485114 
L 498.109091 473.485114 
" clip-path="url(#p8f43a5c43a)" style="fill: none; stroke: #000000; stroke-width: 1.5; stroke-linecap: square"/>
   </g>
   <g id="line2d_14">
    <path d="M 497.973818 408.87 
" clip-path="url(#p8f43a5c43a)" style="fill: none; stroke: #000000; stroke-width: 1.5; stroke-linecap: square"/>
   </g>
   <g id="line2d_15">
    <path d="M 430.472727 368.1 
L 430.472727 365.382 
L 430.472727 362.664 
L 430.472727 359.946 
L 430.472727 357.228 
L 430.472727 354.51 
L 430.472727 351.792 
L 430.472727 349.074 
L 430.472727 346.356 
L 430.472727 343.638 
L 430.472727 340.92 
L 430.472727 338.202 
L 430.472727 335.484 
L 430.472727 332.766 
L 430.472727 330.048 
L 430.472727 327.33 
L 430.472727 324.612 
L 430.472727 321.894 
L 430.472727 319.176 
L 430.472727 316.458 
" clip-path="url(#p8f43a5c43a)" style="fill: none; stroke: #000000; stroke-width: 1.5; stroke-linecap: square"/>
   </g>
   <g id="patch_3">
    <path d="M 72 504 
L 72 69.12 
" style="fill: none; stroke: #000000; stroke-width: 0.8; stroke-linejoin: miter; stroke-linecap: square"/>
   </g>
   <g id="patch_4">
    <path d="M 518.4 504 
L 518.4 69.12 
" style="fill: none; stroke: #000000; stroke-width: 0.8; stroke-linejoin: miter; stroke-linecap: square"/>
   </g>
   <g id="patch_5">
    <path d="M 72 504 
L 518.4 504 
" style="fill: none; stroke: #000000; stroke-width: 0.8; stroke-linejoin: miter; stroke-linecap: square"/>
   </g>
   <g id="patch_6">
    <path d="M 72 69.12 
L 518.4 69.12 
" style="fill: none; stroke: #000000; stroke-width: 0.8; stroke-linejoin: miter; stroke-linecap: square"/>
   </g>
   <g id="text_15">
    <!-- 500 ms -->
    <g transform="translate(497.973818 406.152)scale(0.22 -0.22)">
     <defs>
      <path id="ArialMT-35" d="M 266 1200 
L 856 1250 
Q 922 819 1161 601 
Q 1400 384 1738 384 
Q 2144 384 2425 690 
Q 2706 997 2706 1503 
Q 2706 1984 2436 2262 
Q 2166 2541 1728 2541 
Q 1456 2541 1237 2417 
Q 1019 2294 894 2097 
L 366 2166 
L 809 4519 
L 3088 4519 
L 3088 3981 
L 1259 3981 
L 1013 2750 
Q 1425 3038 1878 3038 
Q 2478 3038 2890 2622 
Q 3303 2206 3303 1553 
Q 3303 931 2941 478 
Q 2500 -78 1738 -78 
Q 1113 -78 717 272 
Q 322 622 266 1200 
z
" transform="scale(0.015625)"/>
      <path id="ArialMT-30" d="M 266 2259 
Q 266 3072 433 3567 
Q 600 4063 929 4331 
Q 1259 4600 1759 4600 
Q 2128 4600 2406 4451 
Q 2684 4303 2865 4023 
Q 3047 3744 3150 3342 
Q 3253 2941 3253 2259 
Q 3253 1453 3087 958 
Q 2922 463 2592 192 
Q 2263 -78 1759 -78 
Q 1097 -78 719 397 
Q 266 969 266 2259 
z
M 844 2259 
Q 844 1131 1108 757 
Q 1372 384 1759 384 
Q 2147 384 2411 759 
Q 2675 1134 2675 2259 
Q 2675 3391 2411 3762 
Q 2147 4134 1753 4134 
Q 1366 4134 1134 3806 
Q 844 3388 844 2259 
z
" transform="scale(0.015625)"/>
     </defs>
     <use xlink:href="#ArialMT-35"/>
     <use xlink:href="#ArialMT-30" x="55.615234"/>
     <use xlink:href="#ArialMT-30" x="111.230469"/>
     <use xlink:href="#ArialMT-20" x="166.845703"/>
     <use xlink:href="#ArialMT-6d" x="194.628906"/>
     <use xlink:href="#ArialMT-73" x="277.929688"/>
    </g>
   </g>
   <g id="text_16">
    <!-- 20 mV -->
    <g transform="translate(504.737455 321.894)scale(0.22 -0.22)">
     <defs>
      <path id="ArialMT-32" d="M 3222 541 
L 3222 0 
L 194 0 
Q 188 203 259 391 
Q 375 700 629 1000 
Q 884 1300 1366 1694 
Q 2113 2306 2375 2664 
Q 2638 3022 2638 3341 
Q 2638 3675 2398 3904 
Q 2159 4134 1775 4134 
Q 1369 4134 1125 3890 
Q 881 3647 878 3216 
L 300 3275 
Q 359 3922 746 4261 
Q 1134 4600 1788 4600 
Q 2447 4600 2831 4234 
Q 3216 3869 3216 3328 
Q 3216 3053 3103 2787 
Q 2991 2522 2730 2228 
Q 2469 1934 1863 1422 
Q 1356 997 1212 845 
Q 1069 694 975 541 
L 3222 541 
z
" transform="scale(0.015625)"/>
     </defs>
     <use xlink:href="#ArialMT-32"/>
     <use xlink:href="#ArialMT-30" x="55.615234"/>
     <use xlink:href="#ArialMT-20" x="111.230469"/>
     <use xlink:href="#ArialMT-6d" x="139.013672"/>
     <use xlink:href="#ArialMT-56" x="222.314453"/>
    </g>
   </g>
   <g id="text_17">
    <!--  Plotting FS, trace number 14887  -->
    <g transform="translate(130.732812 63.12)scale(0.22 -0.22)">
     <defs>
      <path id="ArialMT-50" d="M 494 0 
L 494 4581 
L 2222 4581 
Q 2678 4581 2919 4538 
Q 3256 4481 3484 4323 
Q 3713 4166 3852 3881 
Q 3991 3597 3991 3256 
Q 3991 2672 3619 2267 
Q 3247 1863 2275 1863 
L 1100 1863 
L 1100 0 
L 494 0 
z
M 1100 2403 
L 2284 2403 
Q 2872 2403 3119 2622 
Q 3366 2841 3366 3238 
Q 3366 3525 3220 3729 
Q 3075 3934 2838 4000 
Q 2684 4041 2272 4041 
L 1100 4041 
L 1100 2403 
z
" transform="scale(0.015625)"/>
      <path id="ArialMT-67" d="M 319 -275 
L 866 -356 
Q 900 -609 1056 -725 
Q 1266 -881 1628 -881 
Q 2019 -881 2231 -725 
Q 2444 -569 2519 -288 
Q 2563 -116 2559 434 
Q 2191 0 1641 0 
Q 956 0 581 494 
Q 206 988 206 1678 
Q 206 2153 378 2554 
Q 550 2956 876 3175 
Q 1203 3394 1644 3394 
Q 2231 3394 2613 2919 
L 2613 3319 
L 3131 3319 
L 3131 450 
Q 3131 -325 2973 -648 
Q 2816 -972 2473 -1159 
Q 2131 -1347 1631 -1347 
Q 1038 -1347 672 -1080 
Q 306 -813 319 -275 
z
M 784 1719 
Q 784 1066 1043 766 
Q 1303 466 1694 466 
Q 2081 466 2343 764 
Q 2606 1063 2606 1700 
Q 2606 2309 2336 2618 
Q 2066 2928 1684 2928 
Q 1309 2928 1046 2623 
Q 784 2319 784 1719 
z
" transform="scale(0.015625)"/>
      <path id="ArialMT-46" d="M 525 0 
L 525 4581 
L 3616 4581 
L 3616 4041 
L 1131 4041 
L 1131 2622 
L 3281 2622 
L 3281 2081 
L 1131 2081 
L 1131 0 
L 525 0 
z
" transform="scale(0.015625)"/>
      <path id="ArialMT-53" d="M 288 1472 
L 859 1522 
Q 900 1178 1048 958 
Q 1197 738 1509 602 
Q 1822 466 2213 466 
Q 2559 466 2825 569 
Q 3091 672 3220 851 
Q 3350 1031 3350 1244 
Q 3350 1459 3225 1620 
Q 3100 1781 2813 1891 
Q 2628 1963 1997 2114 
Q 1366 2266 1113 2400 
Q 784 2572 623 2826 
Q 463 3081 463 3397 
Q 463 3744 659 4045 
Q 856 4347 1234 4503 
Q 1613 4659 2075 4659 
Q 2584 4659 2973 4495 
Q 3363 4331 3572 4012 
Q 3781 3694 3797 3291 
L 3216 3247 
Q 3169 3681 2898 3903 
Q 2628 4125 2100 4125 
Q 1550 4125 1298 3923 
Q 1047 3722 1047 3438 
Q 1047 3191 1225 3031 
Q 1400 2872 2139 2705 
Q 2878 2538 3153 2413 
Q 3553 2228 3743 1945 
Q 3934 1663 3934 1294 
Q 3934 928 3725 604 
Q 3516 281 3123 101 
Q 2731 -78 2241 -78 
Q 1619 -78 1198 103 
Q 778 284 539 648 
Q 300 1013 288 1472 
z
" transform="scale(0.015625)"/>
      <path id="ArialMT-2c" d="M 569 0 
L 569 641 
L 1209 641 
L 1209 0 
Q 1209 -353 1084 -570 
Q 959 -788 688 -906 
L 531 -666 
Q 709 -588 793 -436 
Q 878 -284 888 0 
L 569 0 
z
" transform="scale(0.015625)"/>
      <path id="ArialMT-63" d="M 2588 1216 
L 3141 1144 
Q 3050 572 2676 248 
Q 2303 -75 1759 -75 
Q 1078 -75 664 370 
Q 250 816 250 1647 
Q 250 2184 428 2587 
Q 606 2991 970 3192 
Q 1334 3394 1763 3394 
Q 2303 3394 2647 3120 
Q 2991 2847 3088 2344 
L 2541 2259 
Q 2463 2594 2264 2762 
Q 2066 2931 1784 2931 
Q 1359 2931 1093 2626 
Q 828 2322 828 1663 
Q 828 994 1084 691 
Q 1341 388 1753 388 
Q 2084 388 2306 591 
Q 2528 794 2588 1216 
z
" transform="scale(0.015625)"/>
      <path id="ArialMT-75" d="M 2597 0 
L 2597 488 
Q 2209 -75 1544 -75 
Q 1250 -75 995 37 
Q 741 150 617 320 
Q 494 491 444 738 
Q 409 903 409 1263 
L 409 3319 
L 972 3319 
L 972 1478 
Q 972 1038 1006 884 
Q 1059 663 1231 536 
Q 1403 409 1656 409 
Q 1909 409 2131 539 
Q 2353 669 2445 892 
Q 2538 1116 2538 1541 
L 2538 3319 
L 3100 3319 
L 3100 0 
L 2597 0 
z
" transform="scale(0.015625)"/>
      <path id="ArialMT-31" d="M 2384 0 
L 1822 0 
L 1822 3584 
Q 1619 3391 1289 3197 
Q 959 3003 697 2906 
L 697 3450 
Q 1169 3672 1522 3987 
Q 1875 4303 2022 4600 
L 2384 4600 
L 2384 0 
z
" transform="scale(0.015625)"/>
      <path id="ArialMT-34" d="M 2069 0 
L 2069 1097 
L 81 1097 
L 81 1613 
L 2172 4581 
L 2631 4581 
L 2631 1613 
L 3250 1613 
L 3250 1097 
L 2631 1097 
L 2631 0 
L 2069 0 
z
M 2069 1613 
L 2069 3678 
L 634 1613 
L 2069 1613 
z
" transform="scale(0.015625)"/>
      <path id="ArialMT-38" d="M 1131 2484 
Q 781 2613 612 2850 
Q 444 3088 444 3419 
Q 444 3919 803 4259 
Q 1163 4600 1759 4600 
Q 2359 4600 2725 4251 
Q 3091 3903 3091 3403 
Q 3091 3084 2923 2848 
Q 2756 2613 2416 2484 
Q 2838 2347 3058 2040 
Q 3278 1734 3278 1309 
Q 3278 722 2862 322 
Q 2447 -78 1769 -78 
Q 1091 -78 675 323 
Q 259 725 259 1325 
Q 259 1772 486 2073 
Q 713 2375 1131 2484 
z
M 1019 3438 
Q 1019 3113 1228 2906 
Q 1438 2700 1772 2700 
Q 2097 2700 2305 2904 
Q 2513 3109 2513 3406 
Q 2513 3716 2298 3927 
Q 2084 4138 1766 4138 
Q 1444 4138 1231 3931 
Q 1019 3725 1019 3438 
z
M 838 1322 
Q 838 1081 952 856 
Q 1066 631 1291 507 
Q 1516 384 1775 384 
Q 2178 384 2440 643 
Q 2703 903 2703 1303 
Q 2703 1709 2433 1975 
Q 2163 2241 1756 2241 
Q 1359 2241 1098 1978 
Q 838 1716 838 1322 
z
" transform="scale(0.015625)"/>
      <path id="ArialMT-37" d="M 303 3981 
L 303 4522 
L 3269 4522 
L 3269 4084 
Q 2831 3619 2401 2847 
Q 1972 2075 1738 1259 
Q 1569 684 1522 0 
L 944 0 
Q 953 541 1156 1306 
Q 1359 2072 1739 2783 
Q 2119 3494 2547 3981 
L 303 3981 
z
" transform="scale(0.015625)"/>
     </defs>
     <use xlink:href="#ArialMT-20"/>
     <use xlink:href="#ArialMT-50" x="27.783203"/>
     <use xlink:href="#ArialMT-6c" x="94.482422"/>
     <use xlink:href="#ArialMT-6f" x="116.699219"/>
     <use xlink:href="#ArialMT-74" x="172.314453"/>
     <use xlink:href="#ArialMT-74" x="200.097656"/>
     <use xlink:href="#ArialMT-69" x="227.880859"/>
     <use xlink:href="#ArialMT-6e" x="250.097656"/>
     <use xlink:href="#ArialMT-67" x="305.712891"/>
     <use xlink:href="#ArialMT-20" x="361.328125"/>
     <use xlink:href="#ArialMT-46" x="389.111328"/>
     <use xlink:href="#ArialMT-53" x="450.195312"/>
     <use xlink:href="#ArialMT-2c" x="516.894531"/>
     <use xlink:href="#ArialMT-20" x="544.677734"/>
     <use xlink:href="#ArialMT-74" x="572.460938"/>
     <use xlink:href="#ArialMT-72" x="600.244141"/>
     <use xlink:href="#ArialMT-61" x="633.544922"/>
     <use xlink:href="#ArialMT-63" x="689.160156"/>
     <use xlink:href="#ArialMT-65" x="739.160156"/>
     <use xlink:href="#ArialMT-20" x="794.775391"/>
     <use xlink:href="#ArialMT-6e" x="822.558594"/>
     <use xlink:href="#ArialMT-75" x="878.173828"/>
     <use xlink:href="#ArialMT-6d" x="933.789062"/>
     <use xlink:href="#ArialMT-62" x="1017.089844"/>
     <use xlink:href="#ArialMT-65" x="1072.705078"/>
     <use xlink:href="#ArialMT-72" x="1128.320312"/>
     <use xlink:href="#ArialMT-20" x="1161.621094"/>
     <use xlink:href="#ArialMT-31" x="1189.404297"/>
     <use xlink:href="#ArialMT-34" x="1245.019531"/>
     <use xlink:href="#ArialMT-38" x="1300.634766"/>
     <use xlink:href="#ArialMT-38" x="1356.25"/>
     <use xlink:href="#ArialMT-37" x="1411.865234"/>
     <use xlink:href="#ArialMT-20" x="1467.480469"/>
    </g>
   </g>
  </g>
 </g>
 <defs>
  <clipPath id="p8f43a5c43a">
   <rect x="72" y="69.12" width="446.4" height="434.88"/>
  </clipPath>
 </defs>
</svg>
