<?xml version="1.0" encoding="utf-8" standalone="no"?>
<!DOCTYPE svg PUBLIC "-//W3C//DTD SVG 1.1//EN"
  "http://www.w3.org/Graphics/SVG/1.1/DTD/svg11.dtd">
<svg xmlns:xlink="http://www.w3.org/1999/xlink" width="576pt" height="576pt" viewBox="0 0 576 576" xmlns="http://www.w3.org/2000/svg" version="1.1">
 <metadata>
  <rdf:RDF xmlns:dc="http://purl.org/dc/elements/1.1/" xmlns:cc="http://creativecommons.org/ns#" xmlns:rdf="http://www.w3.org/1999/02/22-rdf-syntax-ns#">
   <cc:Work>
    <dc:type rdf:resource="http://purl.org/dc/dcmitype/StillImage"/>
    <dc:date>2022-10-30T19:57:10.085785</dc:date>
    <dc:format>image/svg+xml</dc:format>
    <dc:creator>
     <cc:Agent>
      <dc:title>Matplotlib v3.5.2, https://matplotlib.org/</dc:title>
     </cc:Agent>
    </dc:creator>
   </cc:Work>
  </rdf:RDF>
 </metadata>
 <defs>
  <style type="text/css">*{stroke-linejoin: round; stroke-linecap: butt}</style>
 </defs>
 <g id="figure_1">
  <g id="patch_1">
   <path d="M 0 576 
L 576 576 
L 576 0 
L 0 0 
L 0 576 
z
" style="fill: none"/>
  </g>
  <g id="axes_1">
   <g id="patch_2">
    <path d="M 72 504 
L 518.4 504 
L 518.4 69.12 
L 72 69.12 
z
" style="fill: #ffffff"/>
   </g>
   <g id="matplotlib.axis_1">
    <g id="xtick_1">
     <g id="line2d_1">
      <defs>
       <path id="m0985d7779d" d="M 0 0 
L 0 3.5 
" style="stroke: #000000; stroke-width: 0.8"/>
      </defs>
      <g>
       <use xlink:href="#m0985d7779d" x="92.290909" y="504" style="stroke: #000000; stroke-width: 0.8"/>
      </g>
     </g>
     <g id="text_1">
      <!-- 0 -->
      <g transform="translate(85.292159 527.716563)scale(0.22 -0.22)">
       <defs>
        <path id="DejaVuSans-30" d="M 2034 4250 
Q 1547 4250 1301 3770 
Q 1056 3291 1056 2328 
Q 1056 1369 1301 889 
Q 1547 409 2034 409 
Q 2525 409 2770 889 
Q 3016 1369 3016 2328 
Q 3016 3291 2770 3770 
Q 2525 4250 2034 4250 
z
M 2034 4750 
Q 2819 4750 3233 4129 
Q 3647 3509 3647 2328 
Q 3647 1150 3233 529 
Q 2819 -91 2034 -91 
Q 1250 -91 836 529 
Q 422 1150 422 2328 
Q 422 3509 836 4129 
Q 1250 4750 2034 4750 
z
" transform="scale(0.015625)"/>
       </defs>
       <use xlink:href="#DejaVuSans-30"/>
      </g>
     </g>
    </g>
    <g id="xtick_2">
     <g id="line2d_2">
      <g>
       <use xlink:href="#m0985d7779d" x="227.563636" y="504" style="stroke: #000000; stroke-width: 0.8"/>
      </g>
     </g>
     <g id="text_2">
      <!-- 1000 -->
      <g transform="translate(199.568636 527.716563)scale(0.22 -0.22)">
       <defs>
        <path id="DejaVuSans-31" d="M 794 531 
L 1825 531 
L 1825 4091 
L 703 3866 
L 703 4441 
L 1819 4666 
L 2450 4666 
L 2450 531 
L 3481 531 
L 3481 0 
L 794 0 
L 794 531 
z
" transform="scale(0.015625)"/>
       </defs>
       <use xlink:href="#DejaVuSans-31"/>
       <use xlink:href="#DejaVuSans-30" x="63.623047"/>
       <use xlink:href="#DejaVuSans-30" x="127.246094"/>
       <use xlink:href="#DejaVuSans-30" x="190.869141"/>
      </g>
     </g>
    </g>
    <g id="xtick_3">
     <g id="line2d_3">
      <g>
       <use xlink:href="#m0985d7779d" x="362.836364" y="504" style="stroke: #000000; stroke-width: 0.8"/>
      </g>
     </g>
     <g id="text_3">
      <!-- 2000 -->
      <g transform="translate(334.841364 527.716563)scale(0.22 -0.22)">
       <defs>
        <path id="DejaVuSans-32" d="M 1228 531 
L 3431 531 
L 3431 0 
L 469 0 
L 469 531 
Q 828 903 1448 1529 
Q 2069 2156 2228 2338 
Q 2531 2678 2651 2914 
Q 2772 3150 2772 3378 
Q 2772 3750 2511 3984 
Q 2250 4219 1831 4219 
Q 1534 4219 1204 4116 
Q 875 4013 500 3803 
L 500 4441 
Q 881 4594 1212 4672 
Q 1544 4750 1819 4750 
Q 2544 4750 2975 4387 
Q 3406 4025 3406 3419 
Q 3406 3131 3298 2873 
Q 3191 2616 2906 2266 
Q 2828 2175 2409 1742 
Q 1991 1309 1228 531 
z
" transform="scale(0.015625)"/>
       </defs>
       <use xlink:href="#DejaVuSans-32"/>
       <use xlink:href="#DejaVuSans-30" x="63.623047"/>
       <use xlink:href="#DejaVuSans-30" x="127.246094"/>
       <use xlink:href="#DejaVuSans-30" x="190.869141"/>
      </g>
     </g>
    </g>
    <g id="xtick_4">
     <g id="line2d_4">
      <g>
       <use xlink:href="#m0985d7779d" x="498.109091" y="504" style="stroke: #000000; stroke-width: 0.8"/>
      </g>
     </g>
     <g id="text_4">
      <!-- 3000 -->
      <g transform="translate(470.114091 527.716563)scale(0.22 -0.22)">
       <defs>
        <path id="DejaVuSans-33" d="M 2597 2516 
Q 3050 2419 3304 2112 
Q 3559 1806 3559 1356 
Q 3559 666 3084 287 
Q 2609 -91 1734 -91 
Q 1441 -91 1130 -33 
Q 819 25 488 141 
L 488 750 
Q 750 597 1062 519 
Q 1375 441 1716 441 
Q 2309 441 2620 675 
Q 2931 909 2931 1356 
Q 2931 1769 2642 2001 
Q 2353 2234 1838 2234 
L 1294 2234 
L 1294 2753 
L 1863 2753 
Q 2328 2753 2575 2939 
Q 2822 3125 2822 3475 
Q 2822 3834 2567 4026 
Q 2313 4219 1838 4219 
Q 1578 4219 1281 4162 
Q 984 4106 628 3988 
L 628 4550 
Q 988 4650 1302 4700 
Q 1616 4750 1894 4750 
Q 2613 4750 3031 4423 
Q 3450 4097 3450 3541 
Q 3450 3153 3228 2886 
Q 3006 2619 2597 2516 
z
" transform="scale(0.015625)"/>
       </defs>
       <use xlink:href="#DejaVuSans-33"/>
       <use xlink:href="#DejaVuSans-30" x="63.623047"/>
       <use xlink:href="#DejaVuSans-30" x="127.246094"/>
       <use xlink:href="#DejaVuSans-30" x="190.869141"/>
      </g>
     </g>
    </g>
    <g id="text_5">
     <!-- Time(ms) -->
     <g transform="translate(249.182187 552.307188)scale(0.22 -0.22)">
      <defs>
       <path id="ArialMT-54" d="M 1659 0 
L 1659 4041 
L 150 4041 
L 150 4581 
L 3781 4581 
L 3781 4041 
L 2266 4041 
L 2266 0 
L 1659 0 
z
" transform="scale(0.015625)"/>
       <path id="ArialMT-69" d="M 425 3934 
L 425 4581 
L 988 4581 
L 988 3934 
L 425 3934 
z
M 425 0 
L 425 3319 
L 988 3319 
L 988 0 
L 425 0 
z
" transform="scale(0.015625)"/>
       <path id="ArialMT-6d" d="M 422 0 
L 422 3319 
L 925 3319 
L 925 2853 
Q 1081 3097 1340 3245 
Q 1600 3394 1931 3394 
Q 2300 3394 2536 3241 
Q 2772 3088 2869 2813 
Q 3263 3394 3894 3394 
Q 4388 3394 4653 3120 
Q 4919 2847 4919 2278 
L 4919 0 
L 4359 0 
L 4359 2091 
Q 4359 2428 4304 2576 
Q 4250 2725 4106 2815 
Q 3963 2906 3769 2906 
Q 3419 2906 3187 2673 
Q 2956 2441 2956 1928 
L 2956 0 
L 2394 0 
L 2394 2156 
Q 2394 2531 2256 2718 
Q 2119 2906 1806 2906 
Q 1569 2906 1367 2781 
Q 1166 2656 1075 2415 
Q 984 2175 984 1722 
L 984 0 
L 422 0 
z
" transform="scale(0.015625)"/>
       <path id="ArialMT-65" d="M 2694 1069 
L 3275 997 
Q 3138 488 2766 206 
Q 2394 -75 1816 -75 
Q 1088 -75 661 373 
Q 234 822 234 1631 
Q 234 2469 665 2931 
Q 1097 3394 1784 3394 
Q 2450 3394 2872 2941 
Q 3294 2488 3294 1666 
Q 3294 1616 3291 1516 
L 816 1516 
Q 847 969 1125 678 
Q 1403 388 1819 388 
Q 2128 388 2347 550 
Q 2566 713 2694 1069 
z
M 847 1978 
L 2700 1978 
Q 2663 2397 2488 2606 
Q 2219 2931 1791 2931 
Q 1403 2931 1139 2672 
Q 875 2413 847 1978 
z
" transform="scale(0.015625)"/>
       <path id="ArialMT-28" d="M 1497 -1347 
Q 1031 -759 709 28 
Q 388 816 388 1659 
Q 388 2403 628 3084 
Q 909 3875 1497 4659 
L 1900 4659 
Q 1522 4009 1400 3731 
Q 1209 3300 1100 2831 
Q 966 2247 966 1656 
Q 966 153 1900 -1347 
L 1497 -1347 
z
" transform="scale(0.015625)"/>
       <path id="ArialMT-73" d="M 197 991 
L 753 1078 
Q 800 744 1014 566 
Q 1228 388 1613 388 
Q 2000 388 2187 545 
Q 2375 703 2375 916 
Q 2375 1106 2209 1216 
Q 2094 1291 1634 1406 
Q 1016 1563 777 1677 
Q 538 1791 414 1992 
Q 291 2194 291 2438 
Q 291 2659 392 2848 
Q 494 3038 669 3163 
Q 800 3259 1026 3326 
Q 1253 3394 1513 3394 
Q 1903 3394 2198 3281 
Q 2494 3169 2634 2976 
Q 2775 2784 2828 2463 
L 2278 2388 
Q 2241 2644 2061 2787 
Q 1881 2931 1553 2931 
Q 1166 2931 1000 2803 
Q 834 2675 834 2503 
Q 834 2394 903 2306 
Q 972 2216 1119 2156 
Q 1203 2125 1616 2013 
Q 2213 1853 2448 1751 
Q 2684 1650 2818 1456 
Q 2953 1263 2953 975 
Q 2953 694 2789 445 
Q 2625 197 2315 61 
Q 2006 -75 1616 -75 
Q 969 -75 630 194 
Q 291 463 197 991 
z
" transform="scale(0.015625)"/>
       <path id="ArialMT-29" d="M 791 -1347 
L 388 -1347 
Q 1322 153 1322 1656 
Q 1322 2244 1188 2822 
Q 1081 3291 891 3722 
Q 769 4003 388 4659 
L 791 4659 
Q 1378 3875 1659 3084 
Q 1900 2403 1900 1659 
Q 1900 816 1576 28 
Q 1253 -759 791 -1347 
z
" transform="scale(0.015625)"/>
      </defs>
      <use xlink:href="#ArialMT-54"/>
      <use xlink:href="#ArialMT-69" x="57.333984"/>
      <use xlink:href="#ArialMT-6d" x="79.550781"/>
      <use xlink:href="#ArialMT-65" x="162.851562"/>
      <use xlink:href="#ArialMT-28" x="218.466797"/>
      <use xlink:href="#ArialMT-6d" x="251.767578"/>
      <use xlink:href="#ArialMT-73" x="335.068359"/>
      <use xlink:href="#ArialMT-29" x="385.068359"/>
     </g>
    </g>
   </g>
   <g id="matplotlib.axis_2">
    <g id="ytick_1">
     <g id="line2d_5">
      <defs>
       <path id="ma80c8c3491" d="M 0 0 
L -3.5 0 
" style="stroke: #000000; stroke-width: 0.8"/>
      </defs>
      <g>
       <use xlink:href="#ma80c8c3491" x="72" y="476.82" style="stroke: #000000; stroke-width: 0.8"/>
      </g>
     </g>
     <g id="text_6">
      <!-- −100 -->
      <g transform="translate(4.572187 485.178281)scale(0.22 -0.22)">
       <defs>
        <path id="DejaVuSans-2212" d="M 678 2272 
L 4684 2272 
L 4684 1741 
L 678 1741 
L 678 2272 
z
" transform="scale(0.015625)"/>
       </defs>
       <use xlink:href="#DejaVuSans-2212"/>
       <use xlink:href="#DejaVuSans-31" x="83.789062"/>
       <use xlink:href="#DejaVuSans-30" x="147.412109"/>
       <use xlink:href="#DejaVuSans-30" x="211.035156"/>
      </g>
     </g>
    </g>
    <g id="ytick_2">
     <g id="line2d_6">
      <g>
       <use xlink:href="#ma80c8c3491" x="72" y="422.46" style="stroke: #000000; stroke-width: 0.8"/>
      </g>
     </g>
     <g id="text_7">
      <!-- −80 -->
      <g transform="translate(18.569688 430.818281)scale(0.22 -0.22)">
       <defs>
        <path id="DejaVuSans-38" d="M 2034 2216 
Q 1584 2216 1326 1975 
Q 1069 1734 1069 1313 
Q 1069 891 1326 650 
Q 1584 409 2034 409 
Q 2484 409 2743 651 
Q 3003 894 3003 1313 
Q 3003 1734 2745 1975 
Q 2488 2216 2034 2216 
z
M 1403 2484 
Q 997 2584 770 2862 
Q 544 3141 544 3541 
Q 544 4100 942 4425 
Q 1341 4750 2034 4750 
Q 2731 4750 3128 4425 
Q 3525 4100 3525 3541 
Q 3525 3141 3298 2862 
Q 3072 2584 2669 2484 
Q 3125 2378 3379 2068 
Q 3634 1759 3634 1313 
Q 3634 634 3220 271 
Q 2806 -91 2034 -91 
Q 1263 -91 848 271 
Q 434 634 434 1313 
Q 434 1759 690 2068 
Q 947 2378 1403 2484 
z
M 1172 3481 
Q 1172 3119 1398 2916 
Q 1625 2713 2034 2713 
Q 2441 2713 2670 2916 
Q 2900 3119 2900 3481 
Q 2900 3844 2670 4047 
Q 2441 4250 2034 4250 
Q 1625 4250 1398 4047 
Q 1172 3844 1172 3481 
z
" transform="scale(0.015625)"/>
       </defs>
       <use xlink:href="#DejaVuSans-2212"/>
       <use xlink:href="#DejaVuSans-38" x="83.789062"/>
       <use xlink:href="#DejaVuSans-30" x="147.412109"/>
      </g>
     </g>
    </g>
    <g id="ytick_3">
     <g id="line2d_7">
      <g>
       <use xlink:href="#ma80c8c3491" x="72" y="368.1" style="stroke: #000000; stroke-width: 0.8"/>
      </g>
     </g>
     <g id="text_8">
      <!-- −60 -->
      <g transform="translate(18.569688 376.458281)scale(0.22 -0.22)">
       <defs>
        <path id="DejaVuSans-36" d="M 2113 2584 
Q 1688 2584 1439 2293 
Q 1191 2003 1191 1497 
Q 1191 994 1439 701 
Q 1688 409 2113 409 
Q 2538 409 2786 701 
Q 3034 994 3034 1497 
Q 3034 2003 2786 2293 
Q 2538 2584 2113 2584 
z
M 3366 4563 
L 3366 3988 
Q 3128 4100 2886 4159 
Q 2644 4219 2406 4219 
Q 1781 4219 1451 3797 
Q 1122 3375 1075 2522 
Q 1259 2794 1537 2939 
Q 1816 3084 2150 3084 
Q 2853 3084 3261 2657 
Q 3669 2231 3669 1497 
Q 3669 778 3244 343 
Q 2819 -91 2113 -91 
Q 1303 -91 875 529 
Q 447 1150 447 2328 
Q 447 3434 972 4092 
Q 1497 4750 2381 4750 
Q 2619 4750 2861 4703 
Q 3103 4656 3366 4563 
z
" transform="scale(0.015625)"/>
       </defs>
       <use xlink:href="#DejaVuSans-2212"/>
       <use xlink:href="#DejaVuSans-36" x="83.789062"/>
       <use xlink:href="#DejaVuSans-30" x="147.412109"/>
      </g>
     </g>
    </g>
    <g id="ytick_4">
     <g id="line2d_8">
      <g>
       <use xlink:href="#ma80c8c3491" x="72" y="313.74" style="stroke: #000000; stroke-width: 0.8"/>
      </g>
     </g>
     <g id="text_9">
      <!-- −40 -->
      <g transform="translate(18.569688 322.098281)scale(0.22 -0.22)">
       <defs>
        <path id="DejaVuSans-34" d="M 2419 4116 
L 825 1625 
L 2419 1625 
L 2419 4116 
z
M 2253 4666 
L 3047 4666 
L 3047 1625 
L 3713 1625 
L 3713 1100 
L 3047 1100 
L 3047 0 
L 2419 0 
L 2419 1100 
L 313 1100 
L 313 1709 
L 2253 4666 
z
" transform="scale(0.015625)"/>
       </defs>
       <use xlink:href="#DejaVuSans-2212"/>
       <use xlink:href="#DejaVuSans-34" x="83.789062"/>
       <use xlink:href="#DejaVuSans-30" x="147.412109"/>
      </g>
     </g>
    </g>
    <g id="ytick_5">
     <g id="line2d_9">
      <g>
       <use xlink:href="#ma80c8c3491" x="72" y="259.38" style="stroke: #000000; stroke-width: 0.8"/>
      </g>
     </g>
     <g id="text_10">
      <!-- −20 -->
      <g transform="translate(18.569688 267.738281)scale(0.22 -0.22)">
       <use xlink:href="#DejaVuSans-2212"/>
       <use xlink:href="#DejaVuSans-32" x="83.789062"/>
       <use xlink:href="#DejaVuSans-30" x="147.412109"/>
      </g>
     </g>
    </g>
    <g id="ytick_6">
     <g id="line2d_10">
      <g>
       <use xlink:href="#ma80c8c3491" x="72" y="205.02" style="stroke: #000000; stroke-width: 0.8"/>
      </g>
     </g>
     <g id="text_11">
      <!-- 0 -->
      <g transform="translate(51.0025 213.378281)scale(0.22 -0.22)">
       <use xlink:href="#DejaVuSans-30"/>
      </g>
     </g>
    </g>
    <g id="ytick_7">
     <g id="line2d_11">
      <g>
       <use xlink:href="#ma80c8c3491" x="72" y="150.66" style="stroke: #000000; stroke-width: 0.8"/>
      </g>
     </g>
     <g id="text_12">
      <!-- 20 -->
      <g transform="translate(37.005 159.018281)scale(0.22 -0.22)">
       <use xlink:href="#DejaVuSans-32"/>
       <use xlink:href="#DejaVuSans-30" x="63.623047"/>
      </g>
     </g>
    </g>
    <g id="ytick_8">
     <g id="line2d_12">
      <g>
       <use xlink:href="#ma80c8c3491" x="72" y="96.3" style="stroke: #000000; stroke-width: 0.8"/>
      </g>
     </g>
     <g id="text_13">
      <!-- 40 -->
      <g transform="translate(37.005 104.658281)scale(0.22 -0.22)">
       <use xlink:href="#DejaVuSans-34"/>
       <use xlink:href="#DejaVuSans-30" x="63.623047"/>
      </g>
     </g>
    </g>
    <g id="text_14">
     <!-- Membrane potential (mV) -->
     <g transform="translate(-4.058125 410.655469)rotate(-90)scale(0.22 -0.22)">
      <defs>
       <path id="ArialMT-4d" d="M 475 0 
L 475 4581 
L 1388 4581 
L 2472 1338 
Q 2622 884 2691 659 
Q 2769 909 2934 1394 
L 4031 4581 
L 4847 4581 
L 4847 0 
L 4263 0 
L 4263 3834 
L 2931 0 
L 2384 0 
L 1059 3900 
L 1059 0 
L 475 0 
z
" transform="scale(0.015625)"/>
       <path id="ArialMT-62" d="M 941 0 
L 419 0 
L 419 4581 
L 981 4581 
L 981 2947 
Q 1338 3394 1891 3394 
Q 2197 3394 2470 3270 
Q 2744 3147 2920 2923 
Q 3097 2700 3197 2384 
Q 3297 2069 3297 1709 
Q 3297 856 2875 390 
Q 2453 -75 1863 -75 
Q 1275 -75 941 416 
L 941 0 
z
M 934 1684 
Q 934 1088 1097 822 
Q 1363 388 1816 388 
Q 2184 388 2453 708 
Q 2722 1028 2722 1663 
Q 2722 2313 2464 2622 
Q 2206 2931 1841 2931 
Q 1472 2931 1203 2611 
Q 934 2291 934 1684 
z
" transform="scale(0.015625)"/>
       <path id="ArialMT-72" d="M 416 0 
L 416 3319 
L 922 3319 
L 922 2816 
Q 1116 3169 1280 3281 
Q 1444 3394 1641 3394 
Q 1925 3394 2219 3213 
L 2025 2691 
Q 1819 2813 1613 2813 
Q 1428 2813 1281 2702 
Q 1134 2591 1072 2394 
Q 978 2094 978 1738 
L 978 0 
L 416 0 
z
" transform="scale(0.015625)"/>
       <path id="ArialMT-61" d="M 2588 409 
Q 2275 144 1986 34 
Q 1697 -75 1366 -75 
Q 819 -75 525 192 
Q 231 459 231 875 
Q 231 1119 342 1320 
Q 453 1522 633 1644 
Q 813 1766 1038 1828 
Q 1203 1872 1538 1913 
Q 2219 1994 2541 2106 
Q 2544 2222 2544 2253 
Q 2544 2597 2384 2738 
Q 2169 2928 1744 2928 
Q 1347 2928 1158 2789 
Q 969 2650 878 2297 
L 328 2372 
Q 403 2725 575 2942 
Q 747 3159 1072 3276 
Q 1397 3394 1825 3394 
Q 2250 3394 2515 3294 
Q 2781 3194 2906 3042 
Q 3031 2891 3081 2659 
Q 3109 2516 3109 2141 
L 3109 1391 
Q 3109 606 3145 398 
Q 3181 191 3288 0 
L 2700 0 
Q 2613 175 2588 409 
z
M 2541 1666 
Q 2234 1541 1622 1453 
Q 1275 1403 1131 1340 
Q 988 1278 909 1158 
Q 831 1038 831 891 
Q 831 666 1001 516 
Q 1172 366 1500 366 
Q 1825 366 2078 508 
Q 2331 650 2450 897 
Q 2541 1088 2541 1459 
L 2541 1666 
z
" transform="scale(0.015625)"/>
       <path id="ArialMT-6e" d="M 422 0 
L 422 3319 
L 928 3319 
L 928 2847 
Q 1294 3394 1984 3394 
Q 2284 3394 2536 3286 
Q 2788 3178 2913 3003 
Q 3038 2828 3088 2588 
Q 3119 2431 3119 2041 
L 3119 0 
L 2556 0 
L 2556 2019 
Q 2556 2363 2490 2533 
Q 2425 2703 2258 2804 
Q 2091 2906 1866 2906 
Q 1506 2906 1245 2678 
Q 984 2450 984 1813 
L 984 0 
L 422 0 
z
" transform="scale(0.015625)"/>
       <path id="ArialMT-20" transform="scale(0.015625)"/>
       <path id="ArialMT-70" d="M 422 -1272 
L 422 3319 
L 934 3319 
L 934 2888 
Q 1116 3141 1344 3267 
Q 1572 3394 1897 3394 
Q 2322 3394 2647 3175 
Q 2972 2956 3137 2557 
Q 3303 2159 3303 1684 
Q 3303 1175 3120 767 
Q 2938 359 2589 142 
Q 2241 -75 1856 -75 
Q 1575 -75 1351 44 
Q 1128 163 984 344 
L 984 -1272 
L 422 -1272 
z
M 931 1641 
Q 931 1000 1190 694 
Q 1450 388 1819 388 
Q 2194 388 2461 705 
Q 2728 1022 2728 1688 
Q 2728 2322 2467 2637 
Q 2206 2953 1844 2953 
Q 1484 2953 1207 2617 
Q 931 2281 931 1641 
z
" transform="scale(0.015625)"/>
       <path id="ArialMT-6f" d="M 213 1659 
Q 213 2581 725 3025 
Q 1153 3394 1769 3394 
Q 2453 3394 2887 2945 
Q 3322 2497 3322 1706 
Q 3322 1066 3130 698 
Q 2938 331 2570 128 
Q 2203 -75 1769 -75 
Q 1072 -75 642 372 
Q 213 819 213 1659 
z
M 791 1659 
Q 791 1022 1069 705 
Q 1347 388 1769 388 
Q 2188 388 2466 706 
Q 2744 1025 2744 1678 
Q 2744 2294 2464 2611 
Q 2184 2928 1769 2928 
Q 1347 2928 1069 2612 
Q 791 2297 791 1659 
z
" transform="scale(0.015625)"/>
       <path id="ArialMT-74" d="M 1650 503 
L 1731 6 
Q 1494 -44 1306 -44 
Q 1000 -44 831 53 
Q 663 150 594 308 
Q 525 466 525 972 
L 525 2881 
L 113 2881 
L 113 3319 
L 525 3319 
L 525 4141 
L 1084 4478 
L 1084 3319 
L 1650 3319 
L 1650 2881 
L 1084 2881 
L 1084 941 
Q 1084 700 1114 631 
Q 1144 563 1211 522 
Q 1278 481 1403 481 
Q 1497 481 1650 503 
z
" transform="scale(0.015625)"/>
       <path id="ArialMT-6c" d="M 409 0 
L 409 4581 
L 972 4581 
L 972 0 
L 409 0 
z
" transform="scale(0.015625)"/>
       <path id="ArialMT-56" d="M 1803 0 
L 28 4581 
L 684 4581 
L 1875 1253 
Q 2019 853 2116 503 
Q 2222 878 2363 1253 
L 3600 4581 
L 4219 4581 
L 2425 0 
L 1803 0 
z
" transform="scale(0.015625)"/>
      </defs>
      <use xlink:href="#ArialMT-4d"/>
      <use xlink:href="#ArialMT-65" x="83.300781"/>
      <use xlink:href="#ArialMT-6d" x="138.916016"/>
      <use xlink:href="#ArialMT-62" x="222.216797"/>
      <use xlink:href="#ArialMT-72" x="277.832031"/>
      <use xlink:href="#ArialMT-61" x="311.132812"/>
      <use xlink:href="#ArialMT-6e" x="366.748047"/>
      <use xlink:href="#ArialMT-65" x="422.363281"/>
      <use xlink:href="#ArialMT-20" x="477.978516"/>
      <use xlink:href="#ArialMT-70" x="505.761719"/>
      <use xlink:href="#ArialMT-6f" x="561.376953"/>
      <use xlink:href="#ArialMT-74" x="616.992188"/>
      <use xlink:href="#ArialMT-65" x="644.775391"/>
      <use xlink:href="#ArialMT-6e" x="700.390625"/>
      <use xlink:href="#ArialMT-74" x="756.005859"/>
      <use xlink:href="#ArialMT-69" x="783.789062"/>
      <use xlink:href="#ArialMT-61" x="806.005859"/>
      <use xlink:href="#ArialMT-6c" x="861.621094"/>
      <use xlink:href="#ArialMT-20" x="883.837891"/>
      <use xlink:href="#ArialMT-28" x="911.621094"/>
      <use xlink:href="#ArialMT-6d" x="944.921875"/>
      <use xlink:href="#ArialMT-56" x="1028.222656"/>
      <use xlink:href="#ArialMT-29" x="1094.921875"/>
     </g>
    </g>
   </g>
   <g id="line2d_13">
    <path d="M 92.290909 430.614 
L 92.426182 430.06913 
L 92.696727 430.30433 
L 93.305455 430.744366 
L 94.117091 431.029396 
L 95.402182 431.214941 
L 97.904727 431.295344 
L 111.770182 431.305974 
L 159.927273 431.305983 
L 160.130182 413.256611 
L 160.468364 403.276036 
L 160.941818 396.265313 
L 161.550545 390.568936 
L 162.429818 384.429763 
L 163.714909 377.163535 
L 166.082182 365.248968 
L 167.570182 359.839007 
L 168.111273 358.31903 
L 168.381818 358.016991 
L 168.855273 357.693747 
L 169.193455 357.21274 
L 169.599273 356.138899 
L 170.208 354.572023 
L 170.613818 353.860536 
L 170.884364 353.748057 
L 171.222545 353.959887 
L 171.831273 354.588916 
L 172.034182 354.433256 
L 172.237091 353.923302 
L 172.575273 352.250268 
L 172.913455 349.569029 
L 173.251636 344.758116 
L 173.522182 336.614154 
L 173.657455 325.599297 
L 173.725091 308.542365 
L 173.792727 126.456024 
L 173.860364 154.509274 
L 174.063273 359.175868 
L 174.266182 406.991353 
L 174.333818 407.655743 
L 174.536727 400.466531 
L 175.010182 383.855891 
L 175.416 376.259359 
L 175.889455 371.344325 
L 176.430545 367.967415 
L 177.174545 364.682931 
L 177.715636 363.003294 
L 178.594909 360.757818 
L 179.88 356.83664 
L 180.488727 355.068336 
L 180.759273 354.955745 
L 181.097455 354.83726 
L 181.368 354.468498 
L 181.706182 353.579718 
L 182.179636 351.532818 
L 182.517818 349.086374 
L 182.856 344.945012 
L 183.058909 340.303487 
L 183.194182 334.273064 
L 183.329455 316.65555 
L 183.464727 126.095137 
L 183.667636 348.445971 
L 183.870545 405.134227 
L 183.938182 407.440992 
L 184.005818 406.687185 
L 185.020364 377.710488 
L 185.493818 372.196021 
L 186.034909 368.458185 
L 186.914182 364.262837 
L 187.793455 360.76425 
L 188.537455 358.934957 
L 189.416727 357.756357 
L 189.822545 356.49647 
L 190.228364 354.874082 
L 190.296 354.911607 
L 190.498909 355.576322 
L 190.904727 356.947086 
L 191.310545 357.7054 
L 191.716364 358.643367 
L 191.851636 358.599437 
L 192.122182 358.062822 
L 192.460364 356.748817 
L 192.933818 353.742643 
L 193.339636 349.795405 
L 193.880727 343.423634 
L 193.948364 343.388056 
L 194.083636 343.706053 
L 194.354182 345.437045 
L 195.368727 353.294834 
L 195.571636 353.543586 
L 195.706909 353.453806 
L 195.909818 352.967198 
L 196.248 351.384277 
L 197.059636 346.383993 
L 197.194909 348.174889 
L 197.803636 360.696249 
L 198.006545 361.535432 
L 198.141818 361.493876 
L 198.344727 360.959737 
L 198.750545 359.041254 
L 199.765091 354.160885 
L 200.576727 352.203106 
L 201.117818 352.582919 
L 201.320727 352.366546 
L 201.456 352.096865 
L 201.523636 352.18002 
L 201.726545 353.553833 
L 202.132364 356.1375 
L 202.335273 356.463877 
L 202.470545 356.363556 
L 202.741091 355.68042 
L 203.079273 354.076928 
L 203.485091 350.818001 
L 203.823273 346.263353 
L 204.093818 339.397748 
L 204.229091 331.452037 
L 204.296727 322.615102 
L 204.364364 293.649316 
L 204.432 108.269666 
L 204.499636 188.79508 
L 204.702545 367.270339 
L 204.905455 406.976969 
L 204.973091 407.04543 
L 205.243636 397.476598 
L 205.717091 383.036768 
L 206.190545 375.237523 
L 206.596364 372.156446 
L 207.475636 367.535664 
L 209.031273 360.685427 
L 209.369455 359.873652 
L 209.978182 358.545333 
L 210.992727 356.07955 
L 211.330909 356.015254 
L 211.804364 355.964717 
L 212.074909 355.394496 
L 212.413091 353.962359 
L 212.886545 350.615846 
L 213.224727 348.561599 
L 213.36 348.629653 
L 213.562909 349.311279 
L 214.306909 352.517625 
L 214.509818 352.680127 
L 214.645091 352.519418 
L 214.915636 351.620112 
L 215.321455 349.309587 
L 215.659636 346.015865 
L 215.930182 341.425153 
L 216.133091 334.658196 
L 216.268364 322.223471 
L 216.336 298.416189 
L 216.403636 111.41307 
L 216.471273 182.198281 
L 216.674182 363.917294 
L 216.877091 406.117984 
L 216.944727 406.564756 
L 217.147636 399.904417 
L 217.621091 384.336985 
L 218.094545 376.115295 
L 218.568 371.612647 
L 219.244364 367.491149 
L 219.988364 364.250236 
L 220.529455 362.732872 
L 220.867636 362.282484 
L 221.205818 361.39354 
L 221.746909 359.227456 
L 223.843636 349.314387 
L 224.249455 345.938319 
L 224.52 342.105308 
L 224.722909 336.157606 
L 224.858182 326.086201 
L 224.925818 311.517178 
L 225.061091 144.859027 
L 225.264 355.063793 
L 225.466909 405.658031 
L 225.534545 407.080664 
L 225.669818 403.806287 
L 226.278545 384.119154 
L 226.752 376.188281 
L 227.225455 371.562214 
L 227.698909 368.767003 
L 228.510545 365.310638 
L 230.742545 358.576828 
L 231.621818 356.663405 
L 232.027636 355.201583 
L 232.771636 352.371902 
L 233.177455 351.133007 
L 233.583273 349.068247 
L 234.124364 345.071187 
L 234.462545 341.131439 
L 234.665455 335.895409 
L 234.800727 327.326036 
L 234.868364 316.272938 
L 235.003636 126.380093 
L 235.071273 231.662521 
L 235.274182 373.563347 
L 235.477091 406.192415 
L 235.544727 405.916402 
L 235.815273 396.705963 
L 236.288727 383.065848 
L 236.762182 375.463787 
L 237.303273 370.485444 
L 237.912 366.87183 
L 238.656 363.959896 
L 239.129455 362.791308 
L 239.602909 362.13611 
L 239.941091 361.199926 
L 240.752727 358.033825 
L 241.632 353.696162 
L 242.578909 348.417651 
L 243.322909 344.717546 
L 243.593455 341.937909 
L 243.796364 337.601666 
L 243.931636 331.275603 
L 244.066909 308.734238 
L 244.134545 145.389249 
L 244.202182 153.698655 
L 244.405091 355.899335 
L 244.608 405.102645 
L 244.675636 406.605281 
L 244.810909 403.452325 
L 245.419636 383.633379 
L 245.893091 375.748478 
L 246.434182 370.526203 
L 247.042909 366.715962 
L 247.922182 362.771517 
L 248.936727 358.911545 
L 250.424727 354.635816 
L 251.574545 353.062619 
L 251.845091 353.057763 
L 252.048 352.779114 
L 252.318545 351.98543 
L 252.656727 350.254892 
L 253.130182 346.353235 
L 253.468364 341.46084 
L 253.671273 335.129159 
L 253.806545 323.622825 
L 253.874182 303.97895 
L 253.941818 116.437302 
L 254.009455 168.771543 
L 254.212364 360.780824 
L 254.415273 405.624815 
L 254.482909 406.473362 
L 254.618182 402.953346 
L 255.226909 383.587717 
L 255.700364 375.718237 
L 256.173818 371.104967 
L 256.782545 367.342235 
L 257.526545 364.050263 
L 258.202909 361.945932 
L 258.811636 360.070423 
L 260.029091 356.719892 
L 260.705455 354.989166 
L 261.314182 352.533605 
L 262.193455 349.40775 
L 262.802182 348.689094 
L 263.005091 348.802255 
L 263.343273 349.265773 
L 264.290182 352.355732 
L 264.425455 352.278068 
L 264.696 351.725063 
L 265.169455 349.992218 
L 265.507636 347.712489 
L 265.845818 343.866867 
L 266.048727 339.592172 
L 266.184 334.013678 
L 266.319273 318.345966 
L 266.386909 270.957137 
L 266.454545 119.059408 
L 266.725091 371.089943 
L 266.928 406.338608 
L 266.995636 406.250843 
L 267.266182 397.057127 
L 267.739636 383.251595 
L 268.213091 375.484531 
L 268.754182 370.200679 
L 269.362909 366.496424 
L 269.971636 364.335276 
L 270.850909 362.359454 
L 271.594909 359.630212 
L 272.541818 356.439396 
L 272.947636 355.660214 
L 273.488727 354.968179 
L 274.165091 353.508337 
L 275.517818 349.035371 
L 275.788364 347.155363 
L 276.058909 343.79309 
L 276.261818 339.21186 
L 276.397091 333.105333 
L 276.532364 314.232348 
L 276.667636 134.160679 
L 276.870545 350.348931 
L 277.073455 404.607135 
L 277.141091 406.77296 
L 277.208727 406.086689 
L 278.290909 377.345019 
L 278.832 371.726183 
L 279.440727 367.729581 
L 280.184727 364.411553 
L 281.469818 360.048555 
L 282.687273 356.614273 
L 283.296 354.834913 
L 283.566545 355.046392 
L 283.837091 355.180458 
L 284.04 355.068491 
L 284.378182 354.462053 
L 284.716364 353.423342 
L 285.122182 351.279412 
L 286.136727 345.23762 
L 286.407273 343.590685 
L 286.677818 340.219064 
L 286.880727 333.870679 
L 287.016 321.029594 
L 287.083636 294.917099 
L 287.151273 113.102013 
L 287.218909 190.571758 
L 287.421818 365.47223 
L 287.624727 406.187965 
L 287.692364 406.448457 
L 287.895273 399.805537 
L 288.368727 384.59736 
L 288.842182 376.278878 
L 289.315636 371.636421 
L 289.924364 367.889953 
L 290.871273 363.590192 
L 291.750545 360.501887 
L 293.441455 354.731644 
L 294.050182 352.646035 
L 294.523636 351.21059 
L 294.929455 349.888201 
L 295.335273 348.877697 
L 295.605818 347.493795 
L 296.011636 343.795975 
L 296.282182 338.749771 
L 296.417455 333.163295 
L 296.552727 316.922393 
L 296.688 124.07756 
L 296.755636 227.906517 
L 296.958545 373.96455 
L 297.161455 406.670269 
L 297.229091 406.134507 
L 298.378909 375.932862 
L 298.92 370.647344 
L 299.528727 366.790778 
L 300.205091 363.816536 
L 300.475636 363.21966 
L 300.881455 362.66009 
L 301.219636 361.750067 
L 302.098909 358.381814 
L 303.113455 354.689396 
L 303.654545 353.250653 
L 304.330909 352.66491 
L 304.669091 351.680561 
L 305.277818 349.122975 
L 305.683636 346.214949 
L 306.021818 341.780082 
L 306.224727 336.373991 
L 306.36 328.053683 
L 306.427636 317.929231 
L 306.495273 274.721826 
L 306.562909 120.650804 
L 306.630545 219.550858 
L 306.833455 372.439675 
L 307.036364 406.519523 
L 307.104 406.106759 
L 308.253818 376.286065 
L 308.794909 370.960495 
L 309.471273 366.617285 
L 310.282909 362.964541 
L 311.026909 360.210468 
L 311.838545 358.348578 
L 312.650182 356.088567 
L 312.988364 355.894073 
L 313.529455 355.458931 
L 314.205818 354.551752 
L 314.611636 353.629777 
L 315.085091 351.635631 
L 315.490909 349.086633 
L 315.829091 345.487775 
L 316.099636 340.050813 
L 316.302545 329.251032 
L 316.370182 319.055874 
L 316.437818 275.365201 
L 316.505455 117.59975 
L 316.573091 215.336768 
L 316.776 372.221371 
L 316.978909 406.892111 
L 317.046545 406.585379 
L 317.384727 394.481904 
L 317.858182 381.785773 
L 318.331636 374.658745 
L 318.805091 370.310038 
L 319.413818 367.196703 
L 320.834182 361.50012 
L 321.578182 359.084342 
L 323.742545 352.621519 
L 324.283636 349.248287 
L 324.824727 346.028292 
L 325.162909 343.329426 
L 325.433455 339.670497 
L 325.636364 333.677735 
L 325.771636 322.30346 
L 325.839273 302.597339 
L 325.906909 120.714149 
L 325.974545 174.086302 
L 326.177455 361.503739 
L 326.380364 405.509053 
L 326.448 406.186948 
L 326.650909 399.973321 
L 327.192 383.383583 
L 327.665455 375.626799 
L 328.206545 370.500592 
L 328.882909 366.453559 
L 329.762182 362.713707 
L 330.506182 360.283525 
L 331.047273 359.734905 
L 331.385455 358.765112 
L 332.129455 355.376087 
L 333.211636 350.300876 
L 333.482182 350.220775 
L 333.685091 350.119911 
L 333.888 350.051908 
L 334.293818 350.571055 
L 334.834909 351.285915 
L 335.037818 351.17898 
L 335.308364 350.531155 
L 335.578909 349.348659 
L 335.917091 346.714874 
L 336.187636 342.690166 
L 336.390545 336.824524 
L 336.525818 327.808687 
L 336.593455 316.216236 
L 336.728727 126.422657 
L 336.931636 346.591514 
L 337.134545 404.278908 
L 337.202182 406.886736 
L 337.269818 406.280924 
L 338.352 376.67622 
L 338.893091 371.038172 
L 339.501818 367.139669 
L 340.042909 365.144895 
L 341.057455 361.929192 
L 341.869091 359.503822 
L 342.410182 358.015956 
L 342.883636 356.701865 
L 344.304 351.49621 
L 345.115636 347.554664 
L 345.994909 341.800181 
L 346.197818 337.802816 
L 346.333091 332.102975 
L 346.468364 314.185491 
L 346.603636 133.587596 
L 346.806545 348.486378 
L 347.009455 404.061998 
L 347.077091 406.517897 
L 347.144727 405.941839 
L 348.294545 375.843504 
L 348.768 371.257886 
L 349.376727 367.485671 
L 350.323636 363.240042 
L 351.067636 360.888632 
L 351.541091 360.400485 
L 352.014545 359.286165 
L 352.690909 357.072032 
L 353.367273 353.757536 
L 353.840727 350.342992 
L 354.178909 346.42557 
L 354.449455 341.216565 
L 354.652364 333.301195 
L 354.787636 315.834877 
L 354.922909 129.63826 
L 355.125818 350.566344 
L 355.328727 405.444607 
L 355.396364 407.251207 
L 355.464 406.217177 
L 356.343273 380.31609 
L 356.816727 373.951052 
L 357.290182 370.177144 
L 358.034182 366.264726 
L 358.778182 363.484354 
L 360.266182 358.899563 
L 361.280727 355.987617 
L 361.483636 355.785267 
L 361.686545 355.982212 
L 361.957091 356.130618 
L 362.16 355.888198 
L 362.430545 355.132223 
L 363.309818 352.093375 
L 363.580364 352.025539 
L 364.324364 352.101884 
L 365.203636 351.236397 
L 365.474182 350.429278 
L 365.812364 348.834116 
L 366.082909 346.54457 
L 366.353455 342.056174 
L 366.556364 334.045376 
L 366.691636 315.542047 
L 366.826909 129.071134 
L 367.029818 348.570047 
L 367.232727 404.559599 
L 367.300364 406.864379 
L 367.368 406.16096 
L 368.450182 376.801066 
L 368.923636 371.799309 
L 369.532364 367.77237 
L 369.938182 366.123012 
L 372.778909 356.238837 
L 373.928727 352.133158 
L 374.672727 350.402378 
L 374.808 350.601264 
L 375.754909 353.096874 
L 375.957818 353.03313 
L 376.160727 352.660542 
L 376.498909 351.432162 
L 376.837091 349.229074 
L 377.175273 345.051366 
L 377.378182 340.165771 
L 377.513455 333.598202 
L 377.648727 311.996564 
L 377.784 141.705529 
L 377.986909 353.58115 
L 378.189818 405.180444 
L 378.257455 406.921023 
L 378.325091 406.029568 
L 379.339636 378.002101 
L 379.813091 372.36153 
L 380.286545 369.204558 
L 381.098182 365.522976 
L 381.706909 363.461565 
L 382.789091 359.893679 
L 385.359273 351.030653 
L 385.765091 349.839623 
L 386.103273 348.083284 
L 386.509091 344.627698 
L 386.779636 339.724622 
L 386.982545 329.514906 
L 387.050182 320.111853 
L 387.117818 285.407305 
L 387.185455 114.292326 
L 387.253091 204.61492 
L 387.456 369.688164 
L 387.658909 406.747328 
L 387.726545 406.600613 
L 387.997091 397.003728 
L 388.470545 382.864643 
L 388.944 375.215741 
L 389.417455 370.810399 
L 389.958545 367.627023 
L 391.717091 360.783056 
L 392.393455 358.478296 
L 393.137455 356.548575 
L 394.828364 350.111967 
L 395.504727 347.439887 
L 395.910545 346.672027 
L 396.181091 345.717945 
L 396.451636 343.979539 
L 396.722182 340.774894 
L 396.925091 335.548127 
L 397.060364 326.886719 
L 397.128 315.629015 
L 397.263273 127.791335 
L 397.466182 345.519092 
L 397.669091 403.828331 
L 397.736727 406.659726 
L 397.804364 406.193517 
L 398.210182 391.665365 
L 398.683636 380.163941 
L 399.157091 373.809181 
L 399.698182 369.394713 
L 400.306909 366.226028 
L 400.712727 364.853838 
L 401.524364 362.49381 
L 402.606545 359.251729 
L 404.365091 355.162152 
L 405.650182 351.20208 
L 405.853091 351.009259 
L 406.461818 350.979011 
L 406.664727 350.496449 
L 406.935273 349.288472 
L 407.273455 346.784688 
L 407.544 343.451047 
L 407.746909 338.668974 
L 407.882182 331.841283 
L 408.017455 306.192561 
L 408.085091 118.795115 
L 408.152727 160.871051 
L 408.355636 358.590573 
L 408.558545 405.577364 
L 408.626182 406.734388 
L 408.761455 403.422057 
L 409.370182 383.612325 
L 409.843636 375.614837 
L 410.384727 370.444346 
L 410.858182 367.716645 
L 412.143273 362.816676 
L 413.631273 356.900647 
L 414.442909 352.252855 
L 415.051636 347.75866 
L 415.930909 339.801302 
L 416.133818 335.996194 
L 416.269091 330.705883 
L 416.404364 314.506953 
L 416.539636 132.191568 
L 416.742545 346.754216 
L 416.945455 403.304217 
L 417.013091 405.972339 
L 417.080727 405.478043 
L 418.230545 375.83294 
L 418.771636 370.533409 
L 419.312727 367.094311 
L 420.056727 363.926534 
L 421.544727 358.476149 
L 423.168 355.791648 
L 423.573818 354.960184 
L 423.912 354.25722 
L 424.317818 352.8262 
L 424.791273 350.059369 
L 425.129455 346.640055 
L 425.4 342.146547 
L 425.602909 335.284527 
L 425.738182 322.299187 
L 425.805818 296.084815 
L 425.873455 110.076631 
L 425.941091 187.41235 
L 426.144 366.48911 
L 426.346909 406.504497 
L 426.414545 406.631766 
L 426.685091 397.326981 
L 427.158545 383.31268 
L 427.632 375.620654 
L 428.173091 370.627974 
L 428.781818 367.163685 
L 429.728727 363.139115 
L 430.472727 361.209488 
L 430.743273 386.33879 
L 431.013818 394.628465 
L 431.419636 399.721332 
L 432.366545 407.35256 
L 433.651636 416.304956 
L 434.598545 421.466296 
L 435.410182 424.783002 
L 436.154182 426.988697 
L 436.898182 428.53391 
L 437.642182 429.576264 
L 438.386182 430.259437 
L 439.265455 430.757071 
L 440.347636 431.087837 
L 441.835636 431.279442 
L 444.473455 431.350188 
L 465.237818 431.304914 
L 498.109091 431.304817 
L 498.109091 431.304817 
" clip-path="url(#p48c3ea5299)" style="fill: none; stroke: #000000; stroke-width: 1.5; stroke-linecap: square"/>
   </g>
   <g id="line2d_14">
    <path d="M 497.973818 408.87 
" clip-path="url(#p48c3ea5299)" style="fill: none; stroke: #000000; stroke-width: 1.5; stroke-linecap: square"/>
   </g>
   <g id="line2d_15">
    <path d="M 430.472727 368.1 
L 430.472727 365.382 
L 430.472727 362.664 
L 430.472727 359.946 
L 430.472727 357.228 
L 430.472727 354.51 
L 430.472727 351.792 
L 430.472727 349.074 
L 430.472727 346.356 
L 430.472727 343.638 
L 430.472727 340.92 
L 430.472727 338.202 
L 430.472727 335.484 
L 430.472727 332.766 
L 430.472727 330.048 
L 430.472727 327.33 
L 430.472727 324.612 
L 430.472727 321.894 
L 430.472727 319.176 
L 430.472727 316.458 
" clip-path="url(#p48c3ea5299)" style="fill: none; stroke: #000000; stroke-width: 1.5; stroke-linecap: square"/>
   </g>
   <g id="patch_3">
    <path d="M 72 504 
L 72 69.12 
" style="fill: none; stroke: #000000; stroke-width: 0.8; stroke-linejoin: miter; stroke-linecap: square"/>
   </g>
   <g id="patch_4">
    <path d="M 518.4 504 
L 518.4 69.12 
" style="fill: none; stroke: #000000; stroke-width: 0.8; stroke-linejoin: miter; stroke-linecap: square"/>
   </g>
   <g id="patch_5">
    <path d="M 72 504 
L 518.4 504 
" style="fill: none; stroke: #000000; stroke-width: 0.8; stroke-linejoin: miter; stroke-linecap: square"/>
   </g>
   <g id="patch_6">
    <path d="M 72 69.12 
L 518.4 69.12 
" style="fill: none; stroke: #000000; stroke-width: 0.8; stroke-linejoin: miter; stroke-linecap: square"/>
   </g>
   <g id="text_15">
    <!-- 500 ms -->
    <g transform="translate(497.973818 406.152)scale(0.22 -0.22)">
     <defs>
      <path id="ArialMT-35" d="M 266 1200 
L 856 1250 
Q 922 819 1161 601 
Q 1400 384 1738 384 
Q 2144 384 2425 690 
Q 2706 997 2706 1503 
Q 2706 1984 2436 2262 
Q 2166 2541 1728 2541 
Q 1456 2541 1237 2417 
Q 1019 2294 894 2097 
L 366 2166 
L 809 4519 
L 3088 4519 
L 3088 3981 
L 1259 3981 
L 1013 2750 
Q 1425 3038 1878 3038 
Q 2478 3038 2890 2622 
Q 3303 2206 3303 1553 
Q 3303 931 2941 478 
Q 2500 -78 1738 -78 
Q 1113 -78 717 272 
Q 322 622 266 1200 
z
" transform="scale(0.015625)"/>
      <path id="ArialMT-30" d="M 266 2259 
Q 266 3072 433 3567 
Q 600 4063 929 4331 
Q 1259 4600 1759 4600 
Q 2128 4600 2406 4451 
Q 2684 4303 2865 4023 
Q 3047 3744 3150 3342 
Q 3253 2941 3253 2259 
Q 3253 1453 3087 958 
Q 2922 463 2592 192 
Q 2263 -78 1759 -78 
Q 1097 -78 719 397 
Q 266 969 266 2259 
z
M 844 2259 
Q 844 1131 1108 757 
Q 1372 384 1759 384 
Q 2147 384 2411 759 
Q 2675 1134 2675 2259 
Q 2675 3391 2411 3762 
Q 2147 4134 1753 4134 
Q 1366 4134 1134 3806 
Q 844 3388 844 2259 
z
" transform="scale(0.015625)"/>
     </defs>
     <use xlink:href="#ArialMT-35"/>
     <use xlink:href="#ArialMT-30" x="55.615234"/>
     <use xlink:href="#ArialMT-30" x="111.230469"/>
     <use xlink:href="#ArialMT-20" x="166.845703"/>
     <use xlink:href="#ArialMT-6d" x="194.628906"/>
     <use xlink:href="#ArialMT-73" x="277.929688"/>
    </g>
   </g>
   <g id="text_16">
    <!-- 20 mV -->
    <g transform="translate(504.737455 321.894)scale(0.22 -0.22)">
     <defs>
      <path id="ArialMT-32" d="M 3222 541 
L 3222 0 
L 194 0 
Q 188 203 259 391 
Q 375 700 629 1000 
Q 884 1300 1366 1694 
Q 2113 2306 2375 2664 
Q 2638 3022 2638 3341 
Q 2638 3675 2398 3904 
Q 2159 4134 1775 4134 
Q 1369 4134 1125 3890 
Q 881 3647 878 3216 
L 300 3275 
Q 359 3922 746 4261 
Q 1134 4600 1788 4600 
Q 2447 4600 2831 4234 
Q 3216 3869 3216 3328 
Q 3216 3053 3103 2787 
Q 2991 2522 2730 2228 
Q 2469 1934 1863 1422 
Q 1356 997 1212 845 
Q 1069 694 975 541 
L 3222 541 
z
" transform="scale(0.015625)"/>
     </defs>
     <use xlink:href="#ArialMT-32"/>
     <use xlink:href="#ArialMT-30" x="55.615234"/>
     <use xlink:href="#ArialMT-20" x="111.230469"/>
     <use xlink:href="#ArialMT-6d" x="139.013672"/>
     <use xlink:href="#ArialMT-56" x="222.314453"/>
    </g>
   </g>
   <g id="text_17">
    <!--  Plotting iSPN, trace number 13723  -->
    <g transform="translate(119.725937 63.12)scale(0.22 -0.22)">
     <defs>
      <path id="ArialMT-50" d="M 494 0 
L 494 4581 
L 2222 4581 
Q 2678 4581 2919 4538 
Q 3256 4481 3484 4323 
Q 3713 4166 3852 3881 
Q 3991 3597 3991 3256 
Q 3991 2672 3619 2267 
Q 3247 1863 2275 1863 
L 1100 1863 
L 1100 0 
L 494 0 
z
M 1100 2403 
L 2284 2403 
Q 2872 2403 3119 2622 
Q 3366 2841 3366 3238 
Q 3366 3525 3220 3729 
Q 3075 3934 2838 4000 
Q 2684 4041 2272 4041 
L 1100 4041 
L 1100 2403 
z
" transform="scale(0.015625)"/>
      <path id="ArialMT-67" d="M 319 -275 
L 866 -356 
Q 900 -609 1056 -725 
Q 1266 -881 1628 -881 
Q 2019 -881 2231 -725 
Q 2444 -569 2519 -288 
Q 2563 -116 2559 434 
Q 2191 0 1641 0 
Q 956 0 581 494 
Q 206 988 206 1678 
Q 206 2153 378 2554 
Q 550 2956 876 3175 
Q 1203 3394 1644 3394 
Q 2231 3394 2613 2919 
L 2613 3319 
L 3131 3319 
L 3131 450 
Q 3131 -325 2973 -648 
Q 2816 -972 2473 -1159 
Q 2131 -1347 1631 -1347 
Q 1038 -1347 672 -1080 
Q 306 -813 319 -275 
z
M 784 1719 
Q 784 1066 1043 766 
Q 1303 466 1694 466 
Q 2081 466 2343 764 
Q 2606 1063 2606 1700 
Q 2606 2309 2336 2618 
Q 2066 2928 1684 2928 
Q 1309 2928 1046 2623 
Q 784 2319 784 1719 
z
" transform="scale(0.015625)"/>
      <path id="ArialMT-53" d="M 288 1472 
L 859 1522 
Q 900 1178 1048 958 
Q 1197 738 1509 602 
Q 1822 466 2213 466 
Q 2559 466 2825 569 
Q 3091 672 3220 851 
Q 3350 1031 3350 1244 
Q 3350 1459 3225 1620 
Q 3100 1781 2813 1891 
Q 2628 1963 1997 2114 
Q 1366 2266 1113 2400 
Q 784 2572 623 2826 
Q 463 3081 463 3397 
Q 463 3744 659 4045 
Q 856 4347 1234 4503 
Q 1613 4659 2075 4659 
Q 2584 4659 2973 4495 
Q 3363 4331 3572 4012 
Q 3781 3694 3797 3291 
L 3216 3247 
Q 3169 3681 2898 3903 
Q 2628 4125 2100 4125 
Q 1550 4125 1298 3923 
Q 1047 3722 1047 3438 
Q 1047 3191 1225 3031 
Q 1400 2872 2139 2705 
Q 2878 2538 3153 2413 
Q 3553 2228 3743 1945 
Q 3934 1663 3934 1294 
Q 3934 928 3725 604 
Q 3516 281 3123 101 
Q 2731 -78 2241 -78 
Q 1619 -78 1198 103 
Q 778 284 539 648 
Q 300 1013 288 1472 
z
" transform="scale(0.015625)"/>
      <path id="ArialMT-4e" d="M 488 0 
L 488 4581 
L 1109 4581 
L 3516 984 
L 3516 4581 
L 4097 4581 
L 4097 0 
L 3475 0 
L 1069 3600 
L 1069 0 
L 488 0 
z
" transform="scale(0.015625)"/>
      <path id="ArialMT-2c" d="M 569 0 
L 569 641 
L 1209 641 
L 1209 0 
Q 1209 -353 1084 -570 
Q 959 -788 688 -906 
L 531 -666 
Q 709 -588 793 -436 
Q 878 -284 888 0 
L 569 0 
z
" transform="scale(0.015625)"/>
      <path id="ArialMT-63" d="M 2588 1216 
L 3141 1144 
Q 3050 572 2676 248 
Q 2303 -75 1759 -75 
Q 1078 -75 664 370 
Q 250 816 250 1647 
Q 250 2184 428 2587 
Q 606 2991 970 3192 
Q 1334 3394 1763 3394 
Q 2303 3394 2647 3120 
Q 2991 2847 3088 2344 
L 2541 2259 
Q 2463 2594 2264 2762 
Q 2066 2931 1784 2931 
Q 1359 2931 1093 2626 
Q 828 2322 828 1663 
Q 828 994 1084 691 
Q 1341 388 1753 388 
Q 2084 388 2306 591 
Q 2528 794 2588 1216 
z
" transform="scale(0.015625)"/>
      <path id="ArialMT-75" d="M 2597 0 
L 2597 488 
Q 2209 -75 1544 -75 
Q 1250 -75 995 37 
Q 741 150 617 320 
Q 494 491 444 738 
Q 409 903 409 1263 
L 409 3319 
L 972 3319 
L 972 1478 
Q 972 1038 1006 884 
Q 1059 663 1231 536 
Q 1403 409 1656 409 
Q 1909 409 2131 539 
Q 2353 669 2445 892 
Q 2538 1116 2538 1541 
L 2538 3319 
L 3100 3319 
L 3100 0 
L 2597 0 
z
" transform="scale(0.015625)"/>
      <path id="ArialMT-31" d="M 2384 0 
L 1822 0 
L 1822 3584 
Q 1619 3391 1289 3197 
Q 959 3003 697 2906 
L 697 3450 
Q 1169 3672 1522 3987 
Q 1875 4303 2022 4600 
L 2384 4600 
L 2384 0 
z
" transform="scale(0.015625)"/>
      <path id="ArialMT-33" d="M 269 1209 
L 831 1284 
Q 928 806 1161 595 
Q 1394 384 1728 384 
Q 2125 384 2398 659 
Q 2672 934 2672 1341 
Q 2672 1728 2419 1979 
Q 2166 2231 1775 2231 
Q 1616 2231 1378 2169 
L 1441 2663 
Q 1497 2656 1531 2656 
Q 1891 2656 2178 2843 
Q 2466 3031 2466 3422 
Q 2466 3731 2256 3934 
Q 2047 4138 1716 4138 
Q 1388 4138 1169 3931 
Q 950 3725 888 3313 
L 325 3413 
Q 428 3978 793 4289 
Q 1159 4600 1703 4600 
Q 2078 4600 2393 4439 
Q 2709 4278 2876 4000 
Q 3044 3722 3044 3409 
Q 3044 3113 2884 2869 
Q 2725 2625 2413 2481 
Q 2819 2388 3044 2092 
Q 3269 1797 3269 1353 
Q 3269 753 2831 336 
Q 2394 -81 1725 -81 
Q 1122 -81 723 278 
Q 325 638 269 1209 
z
" transform="scale(0.015625)"/>
      <path id="ArialMT-37" d="M 303 3981 
L 303 4522 
L 3269 4522 
L 3269 4084 
Q 2831 3619 2401 2847 
Q 1972 2075 1738 1259 
Q 1569 684 1522 0 
L 944 0 
Q 953 541 1156 1306 
Q 1359 2072 1739 2783 
Q 2119 3494 2547 3981 
L 303 3981 
z
" transform="scale(0.015625)"/>
     </defs>
     <use xlink:href="#ArialMT-20"/>
     <use xlink:href="#ArialMT-50" x="27.783203"/>
     <use xlink:href="#ArialMT-6c" x="94.482422"/>
     <use xlink:href="#ArialMT-6f" x="116.699219"/>
     <use xlink:href="#ArialMT-74" x="172.314453"/>
     <use xlink:href="#ArialMT-74" x="200.097656"/>
     <use xlink:href="#ArialMT-69" x="227.880859"/>
     <use xlink:href="#ArialMT-6e" x="250.097656"/>
     <use xlink:href="#ArialMT-67" x="305.712891"/>
     <use xlink:href="#ArialMT-20" x="361.328125"/>
     <use xlink:href="#ArialMT-69" x="389.111328"/>
     <use xlink:href="#ArialMT-53" x="411.328125"/>
     <use xlink:href="#ArialMT-50" x="478.027344"/>
     <use xlink:href="#ArialMT-4e" x="544.726562"/>
     <use xlink:href="#ArialMT-2c" x="616.943359"/>
     <use xlink:href="#ArialMT-20" x="644.726562"/>
     <use xlink:href="#ArialMT-74" x="672.509766"/>
     <use xlink:href="#ArialMT-72" x="700.292969"/>
     <use xlink:href="#ArialMT-61" x="733.59375"/>
     <use xlink:href="#ArialMT-63" x="789.208984"/>
     <use xlink:href="#ArialMT-65" x="839.208984"/>
     <use xlink:href="#ArialMT-20" x="894.824219"/>
     <use xlink:href="#ArialMT-6e" x="922.607422"/>
     <use xlink:href="#ArialMT-75" x="978.222656"/>
     <use xlink:href="#ArialMT-6d" x="1033.837891"/>
     <use xlink:href="#ArialMT-62" x="1117.138672"/>
     <use xlink:href="#ArialMT-65" x="1172.753906"/>
     <use xlink:href="#ArialMT-72" x="1228.369141"/>
     <use xlink:href="#ArialMT-20" x="1261.669922"/>
     <use xlink:href="#ArialMT-31" x="1289.453125"/>
     <use xlink:href="#ArialMT-33" x="1345.068359"/>
     <use xlink:href="#ArialMT-37" x="1400.683594"/>
     <use xlink:href="#ArialMT-32" x="1456.298828"/>
     <use xlink:href="#ArialMT-33" x="1511.914062"/>
     <use xlink:href="#ArialMT-20" x="1567.529297"/>
    </g>
   </g>
  </g>
 </g>
 <defs>
  <clipPath id="p48c3ea5299">
   <rect x="72" y="69.12" width="446.4" height="434.88"/>
  </clipPath>
 </defs>
</svg>
