<?xml version="1.0" encoding="utf-8" standalone="no"?>
<!DOCTYPE svg PUBLIC "-//W3C//DTD SVG 1.1//EN"
  "http://www.w3.org/Graphics/SVG/1.1/DTD/svg11.dtd">
<svg xmlns:xlink="http://www.w3.org/1999/xlink" width="576pt" height="576pt" viewBox="0 0 576 576" xmlns="http://www.w3.org/2000/svg" version="1.1">
 <metadata>
  <rdf:RDF xmlns:dc="http://purl.org/dc/elements/1.1/" xmlns:cc="http://creativecommons.org/ns#" xmlns:rdf="http://www.w3.org/1999/02/22-rdf-syntax-ns#">
   <cc:Work>
    <dc:type rdf:resource="http://purl.org/dc/dcmitype/StillImage"/>
    <dc:date>2022-10-30T19:57:16.242239</dc:date>
    <dc:format>image/svg+xml</dc:format>
    <dc:creator>
     <cc:Agent>
      <dc:title>Matplotlib v3.5.2, https://matplotlib.org/</dc:title>
     </cc:Agent>
    </dc:creator>
   </cc:Work>
  </rdf:RDF>
 </metadata>
 <defs>
  <style type="text/css">*{stroke-linejoin: round; stroke-linecap: butt}</style>
 </defs>
 <g id="figure_1">
  <g id="patch_1">
   <path d="M 0 576 
L 576 576 
L 576 0 
L 0 0 
L 0 576 
z
" style="fill: none"/>
  </g>
  <g id="axes_1">
   <g id="patch_2">
    <path d="M 72 504 
L 518.4 504 
L 518.4 69.12 
L 72 69.12 
z
" style="fill: #ffffff"/>
   </g>
   <g id="matplotlib.axis_1">
    <g id="xtick_1">
     <g id="line2d_1">
      <defs>
       <path id="m50693499c5" d="M 0 0 
L 0 3.5 
" style="stroke: #000000; stroke-width: 0.8"/>
      </defs>
      <g>
       <use xlink:href="#m50693499c5" x="92.290909" y="504" style="stroke: #000000; stroke-width: 0.8"/>
      </g>
     </g>
     <g id="text_1">
      <!-- 0 -->
      <g transform="translate(85.292159 527.716563)scale(0.22 -0.22)">
       <defs>
        <path id="DejaVuSans-30" d="M 2034 4250 
Q 1547 4250 1301 3770 
Q 1056 3291 1056 2328 
Q 1056 1369 1301 889 
Q 1547 409 2034 409 
Q 2525 409 2770 889 
Q 3016 1369 3016 2328 
Q 3016 3291 2770 3770 
Q 2525 4250 2034 4250 
z
M 2034 4750 
Q 2819 4750 3233 4129 
Q 3647 3509 3647 2328 
Q 3647 1150 3233 529 
Q 2819 -91 2034 -91 
Q 1250 -91 836 529 
Q 422 1150 422 2328 
Q 422 3509 836 4129 
Q 1250 4750 2034 4750 
z
" transform="scale(0.015625)"/>
       </defs>
       <use xlink:href="#DejaVuSans-30"/>
      </g>
     </g>
    </g>
    <g id="xtick_2">
     <g id="line2d_2">
      <g>
       <use xlink:href="#m50693499c5" x="227.563636" y="504" style="stroke: #000000; stroke-width: 0.8"/>
      </g>
     </g>
     <g id="text_2">
      <!-- 1000 -->
      <g transform="translate(199.568636 527.716563)scale(0.22 -0.22)">
       <defs>
        <path id="DejaVuSans-31" d="M 794 531 
L 1825 531 
L 1825 4091 
L 703 3866 
L 703 4441 
L 1819 4666 
L 2450 4666 
L 2450 531 
L 3481 531 
L 3481 0 
L 794 0 
L 794 531 
z
" transform="scale(0.015625)"/>
       </defs>
       <use xlink:href="#DejaVuSans-31"/>
       <use xlink:href="#DejaVuSans-30" x="63.623047"/>
       <use xlink:href="#DejaVuSans-30" x="127.246094"/>
       <use xlink:href="#DejaVuSans-30" x="190.869141"/>
      </g>
     </g>
    </g>
    <g id="xtick_3">
     <g id="line2d_3">
      <g>
       <use xlink:href="#m50693499c5" x="362.836364" y="504" style="stroke: #000000; stroke-width: 0.8"/>
      </g>
     </g>
     <g id="text_3">
      <!-- 2000 -->
      <g transform="translate(334.841364 527.716563)scale(0.22 -0.22)">
       <defs>
        <path id="DejaVuSans-32" d="M 1228 531 
L 3431 531 
L 3431 0 
L 469 0 
L 469 531 
Q 828 903 1448 1529 
Q 2069 2156 2228 2338 
Q 2531 2678 2651 2914 
Q 2772 3150 2772 3378 
Q 2772 3750 2511 3984 
Q 2250 4219 1831 4219 
Q 1534 4219 1204 4116 
Q 875 4013 500 3803 
L 500 4441 
Q 881 4594 1212 4672 
Q 1544 4750 1819 4750 
Q 2544 4750 2975 4387 
Q 3406 4025 3406 3419 
Q 3406 3131 3298 2873 
Q 3191 2616 2906 2266 
Q 2828 2175 2409 1742 
Q 1991 1309 1228 531 
z
" transform="scale(0.015625)"/>
       </defs>
       <use xlink:href="#DejaVuSans-32"/>
       <use xlink:href="#DejaVuSans-30" x="63.623047"/>
       <use xlink:href="#DejaVuSans-30" x="127.246094"/>
       <use xlink:href="#DejaVuSans-30" x="190.869141"/>
      </g>
     </g>
    </g>
    <g id="xtick_4">
     <g id="line2d_4">
      <g>
       <use xlink:href="#m50693499c5" x="498.109091" y="504" style="stroke: #000000; stroke-width: 0.8"/>
      </g>
     </g>
     <g id="text_4">
      <!-- 3000 -->
      <g transform="translate(470.114091 527.716563)scale(0.22 -0.22)">
       <defs>
        <path id="DejaVuSans-33" d="M 2597 2516 
Q 3050 2419 3304 2112 
Q 3559 1806 3559 1356 
Q 3559 666 3084 287 
Q 2609 -91 1734 -91 
Q 1441 -91 1130 -33 
Q 819 25 488 141 
L 488 750 
Q 750 597 1062 519 
Q 1375 441 1716 441 
Q 2309 441 2620 675 
Q 2931 909 2931 1356 
Q 2931 1769 2642 2001 
Q 2353 2234 1838 2234 
L 1294 2234 
L 1294 2753 
L 1863 2753 
Q 2328 2753 2575 2939 
Q 2822 3125 2822 3475 
Q 2822 3834 2567 4026 
Q 2313 4219 1838 4219 
Q 1578 4219 1281 4162 
Q 984 4106 628 3988 
L 628 4550 
Q 988 4650 1302 4700 
Q 1616 4750 1894 4750 
Q 2613 4750 3031 4423 
Q 3450 4097 3450 3541 
Q 3450 3153 3228 2886 
Q 3006 2619 2597 2516 
z
" transform="scale(0.015625)"/>
       </defs>
       <use xlink:href="#DejaVuSans-33"/>
       <use xlink:href="#DejaVuSans-30" x="63.623047"/>
       <use xlink:href="#DejaVuSans-30" x="127.246094"/>
       <use xlink:href="#DejaVuSans-30" x="190.869141"/>
      </g>
     </g>
    </g>
    <g id="text_5">
     <!-- Time(ms) -->
     <g transform="translate(249.182187 552.307188)scale(0.22 -0.22)">
      <defs>
       <path id="ArialMT-54" d="M 1659 0 
L 1659 4041 
L 150 4041 
L 150 4581 
L 3781 4581 
L 3781 4041 
L 2266 4041 
L 2266 0 
L 1659 0 
z
" transform="scale(0.015625)"/>
       <path id="ArialMT-69" d="M 425 3934 
L 425 4581 
L 988 4581 
L 988 3934 
L 425 3934 
z
M 425 0 
L 425 3319 
L 988 3319 
L 988 0 
L 425 0 
z
" transform="scale(0.015625)"/>
       <path id="ArialMT-6d" d="M 422 0 
L 422 3319 
L 925 3319 
L 925 2853 
Q 1081 3097 1340 3245 
Q 1600 3394 1931 3394 
Q 2300 3394 2536 3241 
Q 2772 3088 2869 2813 
Q 3263 3394 3894 3394 
Q 4388 3394 4653 3120 
Q 4919 2847 4919 2278 
L 4919 0 
L 4359 0 
L 4359 2091 
Q 4359 2428 4304 2576 
Q 4250 2725 4106 2815 
Q 3963 2906 3769 2906 
Q 3419 2906 3187 2673 
Q 2956 2441 2956 1928 
L 2956 0 
L 2394 0 
L 2394 2156 
Q 2394 2531 2256 2718 
Q 2119 2906 1806 2906 
Q 1569 2906 1367 2781 
Q 1166 2656 1075 2415 
Q 984 2175 984 1722 
L 984 0 
L 422 0 
z
" transform="scale(0.015625)"/>
       <path id="ArialMT-65" d="M 2694 1069 
L 3275 997 
Q 3138 488 2766 206 
Q 2394 -75 1816 -75 
Q 1088 -75 661 373 
Q 234 822 234 1631 
Q 234 2469 665 2931 
Q 1097 3394 1784 3394 
Q 2450 3394 2872 2941 
Q 3294 2488 3294 1666 
Q 3294 1616 3291 1516 
L 816 1516 
Q 847 969 1125 678 
Q 1403 388 1819 388 
Q 2128 388 2347 550 
Q 2566 713 2694 1069 
z
M 847 1978 
L 2700 1978 
Q 2663 2397 2488 2606 
Q 2219 2931 1791 2931 
Q 1403 2931 1139 2672 
Q 875 2413 847 1978 
z
" transform="scale(0.015625)"/>
       <path id="ArialMT-28" d="M 1497 -1347 
Q 1031 -759 709 28 
Q 388 816 388 1659 
Q 388 2403 628 3084 
Q 909 3875 1497 4659 
L 1900 4659 
Q 1522 4009 1400 3731 
Q 1209 3300 1100 2831 
Q 966 2247 966 1656 
Q 966 153 1900 -1347 
L 1497 -1347 
z
" transform="scale(0.015625)"/>
       <path id="ArialMT-73" d="M 197 991 
L 753 1078 
Q 800 744 1014 566 
Q 1228 388 1613 388 
Q 2000 388 2187 545 
Q 2375 703 2375 916 
Q 2375 1106 2209 1216 
Q 2094 1291 1634 1406 
Q 1016 1563 777 1677 
Q 538 1791 414 1992 
Q 291 2194 291 2438 
Q 291 2659 392 2848 
Q 494 3038 669 3163 
Q 800 3259 1026 3326 
Q 1253 3394 1513 3394 
Q 1903 3394 2198 3281 
Q 2494 3169 2634 2976 
Q 2775 2784 2828 2463 
L 2278 2388 
Q 2241 2644 2061 2787 
Q 1881 2931 1553 2931 
Q 1166 2931 1000 2803 
Q 834 2675 834 2503 
Q 834 2394 903 2306 
Q 972 2216 1119 2156 
Q 1203 2125 1616 2013 
Q 2213 1853 2448 1751 
Q 2684 1650 2818 1456 
Q 2953 1263 2953 975 
Q 2953 694 2789 445 
Q 2625 197 2315 61 
Q 2006 -75 1616 -75 
Q 969 -75 630 194 
Q 291 463 197 991 
z
" transform="scale(0.015625)"/>
       <path id="ArialMT-29" d="M 791 -1347 
L 388 -1347 
Q 1322 153 1322 1656 
Q 1322 2244 1188 2822 
Q 1081 3291 891 3722 
Q 769 4003 388 4659 
L 791 4659 
Q 1378 3875 1659 3084 
Q 1900 2403 1900 1659 
Q 1900 816 1576 28 
Q 1253 -759 791 -1347 
z
" transform="scale(0.015625)"/>
      </defs>
      <use xlink:href="#ArialMT-54"/>
      <use xlink:href="#ArialMT-69" x="57.333984"/>
      <use xlink:href="#ArialMT-6d" x="79.550781"/>
      <use xlink:href="#ArialMT-65" x="162.851562"/>
      <use xlink:href="#ArialMT-28" x="218.466797"/>
      <use xlink:href="#ArialMT-6d" x="251.767578"/>
      <use xlink:href="#ArialMT-73" x="335.068359"/>
      <use xlink:href="#ArialMT-29" x="385.068359"/>
     </g>
    </g>
   </g>
   <g id="matplotlib.axis_2">
    <g id="ytick_1">
     <g id="line2d_5">
      <defs>
       <path id="mda3e35e699" d="M 0 0 
L -3.5 0 
" style="stroke: #000000; stroke-width: 0.8"/>
      </defs>
      <g>
       <use xlink:href="#mda3e35e699" x="72" y="476.82" style="stroke: #000000; stroke-width: 0.8"/>
      </g>
     </g>
     <g id="text_6">
      <!-- −100 -->
      <g transform="translate(4.572187 485.178281)scale(0.22 -0.22)">
       <defs>
        <path id="DejaVuSans-2212" d="M 678 2272 
L 4684 2272 
L 4684 1741 
L 678 1741 
L 678 2272 
z
" transform="scale(0.015625)"/>
       </defs>
       <use xlink:href="#DejaVuSans-2212"/>
       <use xlink:href="#DejaVuSans-31" x="83.789062"/>
       <use xlink:href="#DejaVuSans-30" x="147.412109"/>
       <use xlink:href="#DejaVuSans-30" x="211.035156"/>
      </g>
     </g>
    </g>
    <g id="ytick_2">
     <g id="line2d_6">
      <g>
       <use xlink:href="#mda3e35e699" x="72" y="422.46" style="stroke: #000000; stroke-width: 0.8"/>
      </g>
     </g>
     <g id="text_7">
      <!-- −80 -->
      <g transform="translate(18.569688 430.818281)scale(0.22 -0.22)">
       <defs>
        <path id="DejaVuSans-38" d="M 2034 2216 
Q 1584 2216 1326 1975 
Q 1069 1734 1069 1313 
Q 1069 891 1326 650 
Q 1584 409 2034 409 
Q 2484 409 2743 651 
Q 3003 894 3003 1313 
Q 3003 1734 2745 1975 
Q 2488 2216 2034 2216 
z
M 1403 2484 
Q 997 2584 770 2862 
Q 544 3141 544 3541 
Q 544 4100 942 4425 
Q 1341 4750 2034 4750 
Q 2731 4750 3128 4425 
Q 3525 4100 3525 3541 
Q 3525 3141 3298 2862 
Q 3072 2584 2669 2484 
Q 3125 2378 3379 2068 
Q 3634 1759 3634 1313 
Q 3634 634 3220 271 
Q 2806 -91 2034 -91 
Q 1263 -91 848 271 
Q 434 634 434 1313 
Q 434 1759 690 2068 
Q 947 2378 1403 2484 
z
M 1172 3481 
Q 1172 3119 1398 2916 
Q 1625 2713 2034 2713 
Q 2441 2713 2670 2916 
Q 2900 3119 2900 3481 
Q 2900 3844 2670 4047 
Q 2441 4250 2034 4250 
Q 1625 4250 1398 4047 
Q 1172 3844 1172 3481 
z
" transform="scale(0.015625)"/>
       </defs>
       <use xlink:href="#DejaVuSans-2212"/>
       <use xlink:href="#DejaVuSans-38" x="83.789062"/>
       <use xlink:href="#DejaVuSans-30" x="147.412109"/>
      </g>
     </g>
    </g>
    <g id="ytick_3">
     <g id="line2d_7">
      <g>
       <use xlink:href="#mda3e35e699" x="72" y="368.1" style="stroke: #000000; stroke-width: 0.8"/>
      </g>
     </g>
     <g id="text_8">
      <!-- −60 -->
      <g transform="translate(18.569688 376.458281)scale(0.22 -0.22)">
       <defs>
        <path id="DejaVuSans-36" d="M 2113 2584 
Q 1688 2584 1439 2293 
Q 1191 2003 1191 1497 
Q 1191 994 1439 701 
Q 1688 409 2113 409 
Q 2538 409 2786 701 
Q 3034 994 3034 1497 
Q 3034 2003 2786 2293 
Q 2538 2584 2113 2584 
z
M 3366 4563 
L 3366 3988 
Q 3128 4100 2886 4159 
Q 2644 4219 2406 4219 
Q 1781 4219 1451 3797 
Q 1122 3375 1075 2522 
Q 1259 2794 1537 2939 
Q 1816 3084 2150 3084 
Q 2853 3084 3261 2657 
Q 3669 2231 3669 1497 
Q 3669 778 3244 343 
Q 2819 -91 2113 -91 
Q 1303 -91 875 529 
Q 447 1150 447 2328 
Q 447 3434 972 4092 
Q 1497 4750 2381 4750 
Q 2619 4750 2861 4703 
Q 3103 4656 3366 4563 
z
" transform="scale(0.015625)"/>
       </defs>
       <use xlink:href="#DejaVuSans-2212"/>
       <use xlink:href="#DejaVuSans-36" x="83.789062"/>
       <use xlink:href="#DejaVuSans-30" x="147.412109"/>
      </g>
     </g>
    </g>
    <g id="ytick_4">
     <g id="line2d_8">
      <g>
       <use xlink:href="#mda3e35e699" x="72" y="313.74" style="stroke: #000000; stroke-width: 0.8"/>
      </g>
     </g>
     <g id="text_9">
      <!-- −40 -->
      <g transform="translate(18.569688 322.098281)scale(0.22 -0.22)">
       <defs>
        <path id="DejaVuSans-34" d="M 2419 4116 
L 825 1625 
L 2419 1625 
L 2419 4116 
z
M 2253 4666 
L 3047 4666 
L 3047 1625 
L 3713 1625 
L 3713 1100 
L 3047 1100 
L 3047 0 
L 2419 0 
L 2419 1100 
L 313 1100 
L 313 1709 
L 2253 4666 
z
" transform="scale(0.015625)"/>
       </defs>
       <use xlink:href="#DejaVuSans-2212"/>
       <use xlink:href="#DejaVuSans-34" x="83.789062"/>
       <use xlink:href="#DejaVuSans-30" x="147.412109"/>
      </g>
     </g>
    </g>
    <g id="ytick_5">
     <g id="line2d_9">
      <g>
       <use xlink:href="#mda3e35e699" x="72" y="259.38" style="stroke: #000000; stroke-width: 0.8"/>
      </g>
     </g>
     <g id="text_10">
      <!-- −20 -->
      <g transform="translate(18.569688 267.738281)scale(0.22 -0.22)">
       <use xlink:href="#DejaVuSans-2212"/>
       <use xlink:href="#DejaVuSans-32" x="83.789062"/>
       <use xlink:href="#DejaVuSans-30" x="147.412109"/>
      </g>
     </g>
    </g>
    <g id="ytick_6">
     <g id="line2d_10">
      <g>
       <use xlink:href="#mda3e35e699" x="72" y="205.02" style="stroke: #000000; stroke-width: 0.8"/>
      </g>
     </g>
     <g id="text_11">
      <!-- 0 -->
      <g transform="translate(51.0025 213.378281)scale(0.22 -0.22)">
       <use xlink:href="#DejaVuSans-30"/>
      </g>
     </g>
    </g>
    <g id="ytick_7">
     <g id="line2d_11">
      <g>
       <use xlink:href="#mda3e35e699" x="72" y="150.66" style="stroke: #000000; stroke-width: 0.8"/>
      </g>
     </g>
     <g id="text_12">
      <!-- 20 -->
      <g transform="translate(37.005 159.018281)scale(0.22 -0.22)">
       <use xlink:href="#DejaVuSans-32"/>
       <use xlink:href="#DejaVuSans-30" x="63.623047"/>
      </g>
     </g>
    </g>
    <g id="ytick_8">
     <g id="line2d_12">
      <g>
       <use xlink:href="#mda3e35e699" x="72" y="96.3" style="stroke: #000000; stroke-width: 0.8"/>
      </g>
     </g>
     <g id="text_13">
      <!-- 40 -->
      <g transform="translate(37.005 104.658281)scale(0.22 -0.22)">
       <use xlink:href="#DejaVuSans-34"/>
       <use xlink:href="#DejaVuSans-30" x="63.623047"/>
      </g>
     </g>
    </g>
    <g id="text_14">
     <!-- Membrane potential (mV) -->
     <g transform="translate(-4.058125 410.655469)rotate(-90)scale(0.22 -0.22)">
      <defs>
       <path id="ArialMT-4d" d="M 475 0 
L 475 4581 
L 1388 4581 
L 2472 1338 
Q 2622 884 2691 659 
Q 2769 909 2934 1394 
L 4031 4581 
L 4847 4581 
L 4847 0 
L 4263 0 
L 4263 3834 
L 2931 0 
L 2384 0 
L 1059 3900 
L 1059 0 
L 475 0 
z
" transform="scale(0.015625)"/>
       <path id="ArialMT-62" d="M 941 0 
L 419 0 
L 419 4581 
L 981 4581 
L 981 2947 
Q 1338 3394 1891 3394 
Q 2197 3394 2470 3270 
Q 2744 3147 2920 2923 
Q 3097 2700 3197 2384 
Q 3297 2069 3297 1709 
Q 3297 856 2875 390 
Q 2453 -75 1863 -75 
Q 1275 -75 941 416 
L 941 0 
z
M 934 1684 
Q 934 1088 1097 822 
Q 1363 388 1816 388 
Q 2184 388 2453 708 
Q 2722 1028 2722 1663 
Q 2722 2313 2464 2622 
Q 2206 2931 1841 2931 
Q 1472 2931 1203 2611 
Q 934 2291 934 1684 
z
" transform="scale(0.015625)"/>
       <path id="ArialMT-72" d="M 416 0 
L 416 3319 
L 922 3319 
L 922 2816 
Q 1116 3169 1280 3281 
Q 1444 3394 1641 3394 
Q 1925 3394 2219 3213 
L 2025 2691 
Q 1819 2813 1613 2813 
Q 1428 2813 1281 2702 
Q 1134 2591 1072 2394 
Q 978 2094 978 1738 
L 978 0 
L 416 0 
z
" transform="scale(0.015625)"/>
       <path id="ArialMT-61" d="M 2588 409 
Q 2275 144 1986 34 
Q 1697 -75 1366 -75 
Q 819 -75 525 192 
Q 231 459 231 875 
Q 231 1119 342 1320 
Q 453 1522 633 1644 
Q 813 1766 1038 1828 
Q 1203 1872 1538 1913 
Q 2219 1994 2541 2106 
Q 2544 2222 2544 2253 
Q 2544 2597 2384 2738 
Q 2169 2928 1744 2928 
Q 1347 2928 1158 2789 
Q 969 2650 878 2297 
L 328 2372 
Q 403 2725 575 2942 
Q 747 3159 1072 3276 
Q 1397 3394 1825 3394 
Q 2250 3394 2515 3294 
Q 2781 3194 2906 3042 
Q 3031 2891 3081 2659 
Q 3109 2516 3109 2141 
L 3109 1391 
Q 3109 606 3145 398 
Q 3181 191 3288 0 
L 2700 0 
Q 2613 175 2588 409 
z
M 2541 1666 
Q 2234 1541 1622 1453 
Q 1275 1403 1131 1340 
Q 988 1278 909 1158 
Q 831 1038 831 891 
Q 831 666 1001 516 
Q 1172 366 1500 366 
Q 1825 366 2078 508 
Q 2331 650 2450 897 
Q 2541 1088 2541 1459 
L 2541 1666 
z
" transform="scale(0.015625)"/>
       <path id="ArialMT-6e" d="M 422 0 
L 422 3319 
L 928 3319 
L 928 2847 
Q 1294 3394 1984 3394 
Q 2284 3394 2536 3286 
Q 2788 3178 2913 3003 
Q 3038 2828 3088 2588 
Q 3119 2431 3119 2041 
L 3119 0 
L 2556 0 
L 2556 2019 
Q 2556 2363 2490 2533 
Q 2425 2703 2258 2804 
Q 2091 2906 1866 2906 
Q 1506 2906 1245 2678 
Q 984 2450 984 1813 
L 984 0 
L 422 0 
z
" transform="scale(0.015625)"/>
       <path id="ArialMT-20" transform="scale(0.015625)"/>
       <path id="ArialMT-70" d="M 422 -1272 
L 422 3319 
L 934 3319 
L 934 2888 
Q 1116 3141 1344 3267 
Q 1572 3394 1897 3394 
Q 2322 3394 2647 3175 
Q 2972 2956 3137 2557 
Q 3303 2159 3303 1684 
Q 3303 1175 3120 767 
Q 2938 359 2589 142 
Q 2241 -75 1856 -75 
Q 1575 -75 1351 44 
Q 1128 163 984 344 
L 984 -1272 
L 422 -1272 
z
M 931 1641 
Q 931 1000 1190 694 
Q 1450 388 1819 388 
Q 2194 388 2461 705 
Q 2728 1022 2728 1688 
Q 2728 2322 2467 2637 
Q 2206 2953 1844 2953 
Q 1484 2953 1207 2617 
Q 931 2281 931 1641 
z
" transform="scale(0.015625)"/>
       <path id="ArialMT-6f" d="M 213 1659 
Q 213 2581 725 3025 
Q 1153 3394 1769 3394 
Q 2453 3394 2887 2945 
Q 3322 2497 3322 1706 
Q 3322 1066 3130 698 
Q 2938 331 2570 128 
Q 2203 -75 1769 -75 
Q 1072 -75 642 372 
Q 213 819 213 1659 
z
M 791 1659 
Q 791 1022 1069 705 
Q 1347 388 1769 388 
Q 2188 388 2466 706 
Q 2744 1025 2744 1678 
Q 2744 2294 2464 2611 
Q 2184 2928 1769 2928 
Q 1347 2928 1069 2612 
Q 791 2297 791 1659 
z
" transform="scale(0.015625)"/>
       <path id="ArialMT-74" d="M 1650 503 
L 1731 6 
Q 1494 -44 1306 -44 
Q 1000 -44 831 53 
Q 663 150 594 308 
Q 525 466 525 972 
L 525 2881 
L 113 2881 
L 113 3319 
L 525 3319 
L 525 4141 
L 1084 4478 
L 1084 3319 
L 1650 3319 
L 1650 2881 
L 1084 2881 
L 1084 941 
Q 1084 700 1114 631 
Q 1144 563 1211 522 
Q 1278 481 1403 481 
Q 1497 481 1650 503 
z
" transform="scale(0.015625)"/>
       <path id="ArialMT-6c" d="M 409 0 
L 409 4581 
L 972 4581 
L 972 0 
L 409 0 
z
" transform="scale(0.015625)"/>
       <path id="ArialMT-56" d="M 1803 0 
L 28 4581 
L 684 4581 
L 1875 1253 
Q 2019 853 2116 503 
Q 2222 878 2363 1253 
L 3600 4581 
L 4219 4581 
L 2425 0 
L 1803 0 
z
" transform="scale(0.015625)"/>
      </defs>
      <use xlink:href="#ArialMT-4d"/>
      <use xlink:href="#ArialMT-65" x="83.300781"/>
      <use xlink:href="#ArialMT-6d" x="138.916016"/>
      <use xlink:href="#ArialMT-62" x="222.216797"/>
      <use xlink:href="#ArialMT-72" x="277.832031"/>
      <use xlink:href="#ArialMT-61" x="311.132812"/>
      <use xlink:href="#ArialMT-6e" x="366.748047"/>
      <use xlink:href="#ArialMT-65" x="422.363281"/>
      <use xlink:href="#ArialMT-20" x="477.978516"/>
      <use xlink:href="#ArialMT-70" x="505.761719"/>
      <use xlink:href="#ArialMT-6f" x="561.376953"/>
      <use xlink:href="#ArialMT-74" x="616.992188"/>
      <use xlink:href="#ArialMT-65" x="644.775391"/>
      <use xlink:href="#ArialMT-6e" x="700.390625"/>
      <use xlink:href="#ArialMT-74" x="756.005859"/>
      <use xlink:href="#ArialMT-69" x="783.789062"/>
      <use xlink:href="#ArialMT-61" x="806.005859"/>
      <use xlink:href="#ArialMT-6c" x="861.621094"/>
      <use xlink:href="#ArialMT-20" x="883.837891"/>
      <use xlink:href="#ArialMT-28" x="911.621094"/>
      <use xlink:href="#ArialMT-6d" x="944.921875"/>
      <use xlink:href="#ArialMT-56" x="1028.222656"/>
      <use xlink:href="#ArialMT-29" x="1094.921875"/>
     </g>
    </g>
   </g>
   <g id="line2d_13">
    <path d="M 92.290909 436.05 
L 92.561455 443.114372 
L 92.967273 447.25257 
L 93.440727 449.944706 
L 93.914182 451.480277 
L 94.387636 452.347413 
L 94.928727 452.877213 
L 95.537455 453.165867 
L 96.484364 453.336914 
L 98.445818 453.402619 
L 114.949091 453.407959 
L 159.927273 453.40804 
L 160.197818 434.616733 
L 160.603636 423.587414 
L 161.077091 416.26483 
L 161.685818 410.197485 
L 162.362182 405.55126 
L 163.173818 401.534148 
L 164.053091 398.316372 
L 165 395.675721 
L 166.014545 393.467452 
L 167.164364 391.484321 
L 168.449455 389.708116 
L 169.937455 388.038523 
L 171.696 386.412901 
L 173.995636 384.614205 
L 177.174545 382.369999 
L 180.826909 379.758856 
L 182.585455 378.21297 
L 183.802909 376.860199 
L 184.682182 375.575152 
L 185.493818 373.937361 
L 185.967273 372.540314 
L 186.237818 371.268508 
L 186.373091 369.232531 
L 186.576 366.863029 
L 186.643636 366.763805 
L 186.711273 366.840043 
L 186.981818 367.844903 
L 187.522909 369.741436 
L 187.996364 370.586799 
L 188.402182 370.912062 
L 188.875636 371.021285 
L 189.484364 370.903819 
L 190.160727 370.515784 
L 190.701818 369.94829 
L 191.784 368.616436 
L 192.528 367.298777 
L 193.204364 365.613853 
L 193.745455 363.652427 
L 194.421818 360.093495 
L 194.76 357.569047 
L 195.098182 353.017189 
L 195.301091 347.754753 
L 195.504 334.874025 
L 195.571636 322.368224 
L 195.706909 163.01954 
L 195.909818 337.786457 
L 196.180364 373.128781 
L 196.383273 378.055063 
L 196.518545 377.528192 
L 196.653818 377.882555 
L 197.059636 379.300668 
L 197.262545 379.502309 
L 197.397818 379.414359 
L 197.668364 378.49178 
L 197.871273 378.544678 
L 198.48 378.937918 
L 198.953455 378.957449 
L 201.253091 378.109107 
L 202.267636 377.443587 
L 203.417455 376.358308 
L 204.432 375.129568 
L 205.378909 373.674338 
L 206.122909 372.108752 
L 206.799273 370.1698 
L 207.272727 368.125561 
L 207.678545 365.150742 
L 207.813818 362.361842 
L 208.219636 353.84272 
L 208.625455 347.180135 
L 208.828364 338.153044 
L 208.963636 314.579508 
L 209.031273 127.420495 
L 209.098909 201.641337 
L 209.301818 340.704506 
L 209.572364 373.844404 
L 209.842909 381.30795 
L 210.045818 382.502968 
L 210.181091 382.631789 
L 210.384 382.436388 
L 211.736727 380.389818 
L 213.089455 379.082278 
L 214.509818 377.797852 
L 215.321455 376.751277 
L 216.877091 374.138662 
L 217.756364 371.630453 
L 218.229818 369.648555 
L 218.500364 367.793954 
L 218.635636 365.175158 
L 218.906182 359.954407 
L 219.109091 359.306653 
L 219.312 359.40641 
L 219.582545 359.539837 
L 219.785455 359.374242 
L 220.056 358.673665 
L 220.326545 357.286911 
L 220.597091 354.872389 
L 220.867636 350.411711 
L 221.070545 343.358386 
L 221.205818 331.56559 
L 221.273455 313.6941 
L 221.341091 116.490994 
L 221.408727 206.076698 
L 221.611636 341.821192 
L 221.882182 374.026962 
L 222.152727 381.018577 
L 222.355636 382.008317 
L 222.490909 382.02701 
L 222.761455 381.553883 
L 223.776 379.463028 
L 224.790545 378.252692 
L 225.534545 377.193787 
L 226.616727 375.440035 
L 227.360727 374.00865 
L 227.901818 372.538019 
L 228.375273 370.572179 
L 228.645818 368.461303 
L 229.186909 361.368215 
L 229.389818 361.838531 
L 229.930909 363.198864 
L 230.201455 363.431057 
L 230.472 363.376058 
L 230.742545 363.05913 
L 231.080727 362.310272 
L 231.486545 360.810566 
L 231.892364 358.294491 
L 232.230545 354.607651 
L 232.501091 348.843415 
L 232.704 338.538657 
L 232.839273 309.200642 
L 232.906909 113.045329 
L 232.974545 222.315422 
L 233.177455 343.872261 
L 233.448 374.410442 
L 233.718545 380.839512 
L 233.921455 381.654616 
L 234.056727 381.59615 
L 234.327273 381.005047 
L 236.153455 376.413087 
L 237.032727 374.34882 
L 237.235636 373.550214 
L 237.506182 371.864822 
L 238.250182 369.699089 
L 238.385455 367.576541 
L 238.588364 365.267452 
L 238.656 365.164258 
L 238.723636 365.23457 
L 238.994182 366.226696 
L 239.535273 368.121348 
L 239.873455 368.715984 
L 240.279273 368.917197 
L 240.820364 368.928413 
L 241.361455 368.702779 
L 242.511273 367.966111 
L 243.052364 367.113709 
L 243.593455 365.847025 
L 244.134545 363.977224 
L 244.608 361.457068 
L 245.013818 357.921601 
L 245.352 352.537062 
L 245.554909 346.110658 
L 245.690182 336.972207 
L 245.757818 326.762848 
L 245.825455 287.243746 
L 245.893091 134.939619 
L 246.096 333.533158 
L 246.366545 370.419505 
L 246.637091 377.836471 
L 246.84 378.710556 
L 246.975273 378.362768 
L 247.313455 374.927687 
L 247.381091 375.010494 
L 247.719273 376.300458 
L 248.192727 377.670746 
L 248.598545 378.182231 
L 249.004364 378.344831 
L 249.613091 378.296764 
L 250.154182 378.092986 
L 251.642182 376.781341 
L 252.589091 375.983081 
L 253.603636 374.786138 
L 254.415273 373.506084 
L 255.091636 372.039775 
L 255.700364 370.135552 
L 256.173818 368.020204 
L 256.850182 362.259576 
L 257.594182 347.071098 
L 257.797091 337.032422 
L 257.864727 328.760073 
L 257.932364 305.40481 
L 258 117.959217 
L 258.067636 233.824296 
L 258.270545 343.956901 
L 258.541091 374.083604 
L 258.811636 380.816992 
L 259.014545 381.889236 
L 259.149818 381.994701 
L 259.352727 381.801557 
L 259.826182 380.856391 
L 260.434909 379.532873 
L 261.111273 378.648477 
L 263.072727 376.385907 
L 263.613818 375.391731 
L 264.087273 374.155019 
L 264.628364 372.095942 
L 265.237091 371.550264 
L 265.710545 370.702874 
L 266.184 369.322208 
L 266.522182 367.709737 
L 266.657455 366.446286 
L 266.928 361.629348 
L 267.130909 360.805266 
L 267.333818 360.734686 
L 267.604364 360.700996 
L 267.807273 360.463707 
L 268.077818 359.74368 
L 268.416 358.003997 
L 268.754182 354.719476 
L 269.024727 349.583562 
L 269.227636 340.948604 
L 269.362909 322.909138 
L 269.498182 158.591588 
L 269.701091 336.233404 
L 269.971636 372.183428 
L 270.242182 380.142152 
L 270.445091 381.297745 
L 270.580364 381.34621 
L 270.783273 381.002049 
L 272.812364 375.635039 
L 273.082909 374.307128 
L 273.353455 374.104528 
L 273.826909 373.886649 
L 274.232727 373.417236 
L 274.773818 372.384275 
L 275.247273 370.9589 
L 275.517818 369.491393 
L 275.923636 364.684762 
L 276.058909 364.87551 
L 276.938182 367.071541 
L 277.276364 367.250222 
L 277.546909 367.165354 
L 277.885091 366.758163 
L 278.493818 365.619184 
L 279.237818 363.601545 
L 279.643636 362.076064 
L 280.049455 359.490545 
L 280.387636 355.60022 
L 280.590545 350.850266 
L 280.793455 341.468739 
L 280.928727 323.196823 
L 281.064 158.835191 
L 281.266909 337.932027 
L 281.537455 373.843005 
L 281.740364 380.257759 
L 281.943273 381.758044 
L 282.078545 381.80113 
L 282.281455 381.347421 
L 284.310545 374.811565 
L 284.445818 373.762761 
L 284.716364 370.200296 
L 284.784 370.198751 
L 284.986909 370.933652 
L 285.528 373.131113 
L 285.933818 373.883761 
L 286.339636 374.063932 
L 286.813091 374.017891 
L 287.286545 373.710226 
L 287.692364 373.172942 
L 287.895273 372.58282 
L 288.165818 371.342202 
L 288.368727 371.248811 
L 289.180364 371.367298 
L 289.789091 371.084572 
L 290.330182 370.606327 
L 290.938909 369.77311 
L 291.547636 368.550442 
L 292.088727 366.978526 
L 292.629818 364.803031 
L 293.103273 361.940293 
L 293.441455 358.680242 
L 293.712 354.374744 
L 293.914909 348.514897 
L 294.050182 340.149043 
L 294.117818 330.589251 
L 294.185455 302.249725 
L 294.253091 117.16223 
L 294.456 332.374938 
L 294.726545 374.03247 
L 294.997091 383.031149 
L 295.2 384.35182 
L 295.335273 384.424471 
L 295.538182 384.064245 
L 296.417455 381.463201 
L 296.620364 380.486648 
L 296.823273 379.538448 
L 297.026182 379.35397 
L 298.176 379.088178 
L 299.122909 378.476538 
L 300.746182 376.533769 
L 301.693091 375.296928 
L 302.369455 374.041884 
L 303.248727 371.916269 
L 303.789818 369.918319 
L 304.195636 367.567696 
L 304.330909 365.456467 
L 304.601455 361.13624 
L 304.872 360.064695 
L 305.074909 359.396292 
L 305.345455 356.912452 
L 305.751273 352.571018 
L 306.021818 346.411469 
L 306.157091 339.557037 
L 306.292364 318.484692 
L 306.36 160.227528 
L 306.427636 183.431143 
L 306.630545 338.744393 
L 306.901091 372.678006 
L 307.171636 380.207349 
L 307.374545 381.296666 
L 307.509818 381.360119 
L 307.712727 381.104174 
L 308.321455 379.782262 
L 308.930182 378.559877 
L 309.741818 377.534524 
L 311.229818 375.832085 
L 312.041455 374.483792 
L 312.717818 372.917415 
L 313.258909 371.071923 
L 313.597091 369.231068 
L 313.732364 367.52896 
L 314.002909 363.03972 
L 314.408727 361.032078 
L 314.611636 361.108226 
L 314.882182 361.210651 
L 315.085091 361.080489 
L 315.355636 360.60493 
L 315.626182 359.689715 
L 315.964364 357.714966 
L 316.302545 354.218142 
L 316.573091 349.463548 
L 316.776 342.015746 
L 316.911273 328.538333 
L 316.978909 303.048282 
L 317.046545 119.496638 
L 317.249455 329.76904 
L 317.52 371.574174 
L 317.790545 380.750973 
L 317.993455 381.937975 
L 318.128727 381.930778 
L 318.399273 381.324859 
L 319.278545 379.170109 
L 320.225455 377.598919 
L 321.916364 374.741887 
L 322.525091 373.167865 
L 322.998545 371.298622 
L 323.201455 370.012877 
L 323.742545 364.239887 
L 323.945455 363.658891 
L 324.080727 363.83575 
L 325.095273 366.218498 
L 325.433455 366.558826 
L 325.771636 366.571965 
L 326.109818 366.329144 
L 326.515636 365.742826 
L 326.989091 364.686011 
L 327.462545 363.125556 
L 327.868364 361.108524 
L 328.274182 357.967197 
L 328.612364 353.250781 
L 328.882909 345.269469 
L 329.018182 335.577542 
L 329.085818 324.022998 
L 329.221091 152.39785 
L 329.424 335.709419 
L 329.694545 371.76954 
L 329.965091 379.527413 
L 330.168 380.51486 
L 330.303273 380.452957 
L 330.573818 379.730228 
L 331.723636 375.434099 
L 331.994182 374.01814 
L 332.264727 370.764799 
L 332.467636 367.67308 
L 332.535273 367.560808 
L 332.670545 367.9916 
L 333.617455 372.721465 
L 334.090909 373.677441 
L 334.496727 374.030937 
L 335.037818 374.185993 
L 335.714182 374.148361 
L 336.458182 373.871661 
L 336.931636 373.495985 
L 339.028364 371.342944 
L 339.704727 370.165776 
L 340.381091 368.500224 
L 340.922182 366.569533 
L 341.395636 364.060037 
L 341.733818 361.265969 
L 342.004364 356.838605 
L 342.342545 348.153307 
L 342.477818 340.530095 
L 342.613091 311.282284 
L 342.680727 109.070354 
L 342.748364 216.208505 
L 342.951273 345.640971 
L 343.221818 376.913372 
L 343.492364 383.447783 
L 343.695273 384.369393 
L 343.830545 384.316285 
L 344.101091 383.584271 
L 344.777455 381.739146 
L 345.453818 380.577662 
L 346.265455 379.799693 
L 347.753455 378.402613 
L 348.903273 376.9253 
L 349.647273 375.519642 
L 350.053091 374.404197 
L 350.458909 372.508602 
L 351.676364 370.913653 
L 352.149818 369.585814 
L 352.555636 367.74902 
L 352.758545 365.700393 
L 353.029091 360.855763 
L 353.232 359.938134 
L 353.908364 358.543702 
L 354.178909 356.980466 
L 354.449455 354.199702 
L 354.72 348.785815 
L 354.922909 339.058216 
L 355.058182 313.767782 
L 355.125818 116.159804 
L 355.193455 205.838314 
L 355.396364 341.432787 
L 355.666909 373.156722 
L 355.937455 380.012027 
L 356.140364 380.940991 
L 356.275636 380.924546 
L 356.546182 380.364988 
L 357.425455 377.764697 
L 357.831273 375.91573 
L 358.101818 375.779317 
L 358.710545 375.566458 
L 359.251636 375.120798 
L 359.928 374.248274 
L 360.536727 373.119104 
L 361.145455 371.487736 
L 361.618909 369.766938 
L 361.821818 368.368595 
L 362.092364 363.957071 
L 362.227636 363.592209 
L 362.362909 363.759623 
L 363.039273 365.224691 
L 363.309818 365.343577 
L 363.580364 365.190843 
L 363.918545 364.650837 
L 364.324364 363.468152 
L 364.730182 361.525544 
L 365.068364 358.873294 
L 365.271273 355.950074 
L 365.609455 346.993347 
L 365.744727 339.564105 
L 365.88 315.876064 
L 365.947636 123.31072 
L 366.015273 197.990857 
L 366.218182 341.602402 
L 366.488727 373.718748 
L 366.759273 380.366402 
L 366.962182 381.17453 
L 367.097455 381.091992 
L 367.435636 380.265736 
L 368.450182 377.744965 
L 369.735273 374.69933 
L 370.344 372.653484 
L 370.546909 371.530466 
L 370.952727 366.968317 
L 371.088 367.250001 
L 371.629091 368.864121 
L 371.764364 368.970751 
L 371.899636 368.531773 
L 372.102545 368.189434 
L 372.305455 368.396791 
L 372.914182 369.150183 
L 373.32 369.272811 
L 373.725818 369.165946 
L 374.266909 368.768383 
L 374.875636 368.002402 
L 375.484364 366.826938 
L 376.025455 365.262995 
L 376.498909 363.16622 
L 376.972364 359.98675 
L 377.310545 356.298811 
L 377.581091 351.11042 
L 377.784 343.146804 
L 377.919273 329.142516 
L 377.986909 302.135845 
L 378.054545 119.444182 
L 378.257455 330.361849 
L 378.528 369.868371 
L 378.730909 377.197086 
L 378.933818 378.687603 
L 379.001455 378.613123 
L 379.136727 377.672775 
L 379.407273 373.366762 
L 379.474909 373.309535 
L 379.610182 373.745557 
L 380.218909 376.387067 
L 380.624727 377.122671 
L 381.030545 377.389066 
L 381.571636 377.421293 
L 382.383273 377.195511 
L 383.397818 376.660567 
L 385.156364 375.614548 
L 386.035636 374.711177 
L 386.779636 373.621343 
L 387.658909 371.775272 
L 388.335273 369.932249 
L 388.876364 367.781952 
L 389.282182 365.260506 
L 389.485091 363.164735 
L 390.026182 348.410318 
L 390.229091 339.15512 
L 390.364364 318.04296 
L 390.432 158.454969 
L 390.499636 186.956858 
L 390.702545 340.126738 
L 390.973091 373.716924 
L 391.243636 381.145729 
L 391.446545 382.321109 
L 391.581818 382.446068 
L 391.784727 382.260943 
L 393.205091 380.231388 
L 394.896 378.729982 
L 395.910545 377.749411 
L 398.751273 372.964585 
L 399.495273 370.585317 
L 399.901091 368.614853 
L 400.104 366.887011 
L 400.442182 361.048118 
L 401.524364 353.808146 
L 401.794909 349.256768 
L 401.997818 341.398929 
L 402.133091 326.050427 
L 402.200727 287.791364 
L 402.268364 135.509145 
L 402.471273 332.312007 
L 402.741818 370.823852 
L 403.012364 379.725206 
L 403.215273 381.16348 
L 403.350545 381.339672 
L 403.485818 381.252386 
L 403.891636 380.511726 
L 404.703273 379.122345 
L 405.514909 377.802446 
L 406.529455 376.264628 
L 407.611636 374.776223 
L 408.220364 373.53584 
L 408.829091 371.779981 
L 409.370182 369.463604 
L 409.640727 367.465717 
L 410.114182 359.54964 
L 410.317091 359.033799 
L 410.790545 358.71167 
L 411.061091 357.910289 
L 411.331636 356.303249 
L 411.602182 353.355434 
L 411.872727 347.350404 
L 412.075636 335.220003 
L 412.143273 323.852536 
L 412.278545 151.452155 
L 412.481455 334.889641 
L 412.752 371.571744 
L 413.022545 379.88494 
L 413.225455 381.177482 
L 413.360727 381.299258 
L 413.563636 381.060575 
L 414.375273 379.27624 
L 414.984 378.097936 
L 415.998545 376.771037 
L 417.148364 375.104779 
L 417.824727 373.693872 
L 418.433455 371.913614 
L 418.839273 370.102395 
L 419.042182 368.193008 
L 419.245091 365.788329 
L 419.515636 361.122818 
L 419.718545 360.687333 
L 419.989091 361.121536 
L 420.327273 361.492559 
L 420.530182 361.424342 
L 420.800727 360.963978 
L 421.138909 359.894047 
L 421.477091 358.059977 
L 421.815273 354.838409 
L 422.085818 349.927222 
L 422.288727 341.919548 
L 422.424 326.754973 
L 422.491636 290.801633 
L 422.559273 132.282827 
L 422.762182 332.234405 
L 423.032727 370.880256 
L 423.303273 379.67761 
L 423.506182 381.042914 
L 423.641455 381.17175 
L 423.844364 380.916421 
L 425.4 378.003168 
L 427.429091 374.295058 
L 428.037818 372.603199 
L 428.376 371.144298 
L 428.849455 367.890212 
L 428.984727 366.838745 
L 429.255273 362.509759 
L 429.390545 362.169599 
L 429.525818 362.344907 
L 430.269818 363.941499 
L 430.472727 364.036482 
L 430.810909 392.634508 
L 431.284364 412.220453 
L 431.893091 427.985133 
L 432.501818 438.867282 
L 433.042909 445.203072 
L 433.584 449.018208 
L 434.057455 450.940221 
L 434.530909 452.046747 
L 435.072 452.73362 
L 435.680727 453.114945 
L 436.492364 453.327054 
L 437.912727 453.421422 
L 443.458909 453.41575 
L 489.925091 453.407157 
L 498.109091 453.407256 
L 498.109091 453.407256 
" clip-path="url(#p3f4e771148)" style="fill: none; stroke: #000000; stroke-width: 1.5; stroke-linecap: square"/>
   </g>
   <g id="line2d_14">
    <path d="M 497.973818 408.87 
" clip-path="url(#p3f4e771148)" style="fill: none; stroke: #000000; stroke-width: 1.5; stroke-linecap: square"/>
   </g>
   <g id="line2d_15">
    <path d="M 430.472727 368.1 
L 430.472727 365.382 
L 430.472727 362.664 
L 430.472727 359.946 
L 430.472727 357.228 
L 430.472727 354.51 
L 430.472727 351.792 
L 430.472727 349.074 
L 430.472727 346.356 
L 430.472727 343.638 
L 430.472727 340.92 
L 430.472727 338.202 
L 430.472727 335.484 
L 430.472727 332.766 
L 430.472727 330.048 
L 430.472727 327.33 
L 430.472727 324.612 
L 430.472727 321.894 
L 430.472727 319.176 
L 430.472727 316.458 
" clip-path="url(#p3f4e771148)" style="fill: none; stroke: #000000; stroke-width: 1.5; stroke-linecap: square"/>
   </g>
   <g id="patch_3">
    <path d="M 72 504 
L 72 69.12 
" style="fill: none; stroke: #000000; stroke-width: 0.8; stroke-linejoin: miter; stroke-linecap: square"/>
   </g>
   <g id="patch_4">
    <path d="M 518.4 504 
L 518.4 69.12 
" style="fill: none; stroke: #000000; stroke-width: 0.8; stroke-linejoin: miter; stroke-linecap: square"/>
   </g>
   <g id="patch_5">
    <path d="M 72 504 
L 518.4 504 
" style="fill: none; stroke: #000000; stroke-width: 0.8; stroke-linejoin: miter; stroke-linecap: square"/>
   </g>
   <g id="patch_6">
    <path d="M 72 69.12 
L 518.4 69.12 
" style="fill: none; stroke: #000000; stroke-width: 0.8; stroke-linejoin: miter; stroke-linecap: square"/>
   </g>
   <g id="text_15">
    <!-- 500 ms -->
    <g transform="translate(497.973818 406.152)scale(0.22 -0.22)">
     <defs>
      <path id="ArialMT-35" d="M 266 1200 
L 856 1250 
Q 922 819 1161 601 
Q 1400 384 1738 384 
Q 2144 384 2425 690 
Q 2706 997 2706 1503 
Q 2706 1984 2436 2262 
Q 2166 2541 1728 2541 
Q 1456 2541 1237 2417 
Q 1019 2294 894 2097 
L 366 2166 
L 809 4519 
L 3088 4519 
L 3088 3981 
L 1259 3981 
L 1013 2750 
Q 1425 3038 1878 3038 
Q 2478 3038 2890 2622 
Q 3303 2206 3303 1553 
Q 3303 931 2941 478 
Q 2500 -78 1738 -78 
Q 1113 -78 717 272 
Q 322 622 266 1200 
z
" transform="scale(0.015625)"/>
      <path id="ArialMT-30" d="M 266 2259 
Q 266 3072 433 3567 
Q 600 4063 929 4331 
Q 1259 4600 1759 4600 
Q 2128 4600 2406 4451 
Q 2684 4303 2865 4023 
Q 3047 3744 3150 3342 
Q 3253 2941 3253 2259 
Q 3253 1453 3087 958 
Q 2922 463 2592 192 
Q 2263 -78 1759 -78 
Q 1097 -78 719 397 
Q 266 969 266 2259 
z
M 844 2259 
Q 844 1131 1108 757 
Q 1372 384 1759 384 
Q 2147 384 2411 759 
Q 2675 1134 2675 2259 
Q 2675 3391 2411 3762 
Q 2147 4134 1753 4134 
Q 1366 4134 1134 3806 
Q 844 3388 844 2259 
z
" transform="scale(0.015625)"/>
     </defs>
     <use xlink:href="#ArialMT-35"/>
     <use xlink:href="#ArialMT-30" x="55.615234"/>
     <use xlink:href="#ArialMT-30" x="111.230469"/>
     <use xlink:href="#ArialMT-20" x="166.845703"/>
     <use xlink:href="#ArialMT-6d" x="194.628906"/>
     <use xlink:href="#ArialMT-73" x="277.929688"/>
    </g>
   </g>
   <g id="text_16">
    <!-- 20 mV -->
    <g transform="translate(504.737455 321.894)scale(0.22 -0.22)">
     <defs>
      <path id="ArialMT-32" d="M 3222 541 
L 3222 0 
L 194 0 
Q 188 203 259 391 
Q 375 700 629 1000 
Q 884 1300 1366 1694 
Q 2113 2306 2375 2664 
Q 2638 3022 2638 3341 
Q 2638 3675 2398 3904 
Q 2159 4134 1775 4134 
Q 1369 4134 1125 3890 
Q 881 3647 878 3216 
L 300 3275 
Q 359 3922 746 4261 
Q 1134 4600 1788 4600 
Q 2447 4600 2831 4234 
Q 3216 3869 3216 3328 
Q 3216 3053 3103 2787 
Q 2991 2522 2730 2228 
Q 2469 1934 1863 1422 
Q 1356 997 1212 845 
Q 1069 694 975 541 
L 3222 541 
z
" transform="scale(0.015625)"/>
     </defs>
     <use xlink:href="#ArialMT-32"/>
     <use xlink:href="#ArialMT-30" x="55.615234"/>
     <use xlink:href="#ArialMT-20" x="111.230469"/>
     <use xlink:href="#ArialMT-6d" x="139.013672"/>
     <use xlink:href="#ArialMT-56" x="222.314453"/>
    </g>
   </g>
   <g id="text_17">
    <!--  Plotting FS, trace number 7449  -->
    <g transform="translate(136.849844 63.12)scale(0.22 -0.22)">
     <defs>
      <path id="ArialMT-50" d="M 494 0 
L 494 4581 
L 2222 4581 
Q 2678 4581 2919 4538 
Q 3256 4481 3484 4323 
Q 3713 4166 3852 3881 
Q 3991 3597 3991 3256 
Q 3991 2672 3619 2267 
Q 3247 1863 2275 1863 
L 1100 1863 
L 1100 0 
L 494 0 
z
M 1100 2403 
L 2284 2403 
Q 2872 2403 3119 2622 
Q 3366 2841 3366 3238 
Q 3366 3525 3220 3729 
Q 3075 3934 2838 4000 
Q 2684 4041 2272 4041 
L 1100 4041 
L 1100 2403 
z
" transform="scale(0.015625)"/>
      <path id="ArialMT-67" d="M 319 -275 
L 866 -356 
Q 900 -609 1056 -725 
Q 1266 -881 1628 -881 
Q 2019 -881 2231 -725 
Q 2444 -569 2519 -288 
Q 2563 -116 2559 434 
Q 2191 0 1641 0 
Q 956 0 581 494 
Q 206 988 206 1678 
Q 206 2153 378 2554 
Q 550 2956 876 3175 
Q 1203 3394 1644 3394 
Q 2231 3394 2613 2919 
L 2613 3319 
L 3131 3319 
L 3131 450 
Q 3131 -325 2973 -648 
Q 2816 -972 2473 -1159 
Q 2131 -1347 1631 -1347 
Q 1038 -1347 672 -1080 
Q 306 -813 319 -275 
z
M 784 1719 
Q 784 1066 1043 766 
Q 1303 466 1694 466 
Q 2081 466 2343 764 
Q 2606 1063 2606 1700 
Q 2606 2309 2336 2618 
Q 2066 2928 1684 2928 
Q 1309 2928 1046 2623 
Q 784 2319 784 1719 
z
" transform="scale(0.015625)"/>
      <path id="ArialMT-46" d="M 525 0 
L 525 4581 
L 3616 4581 
L 3616 4041 
L 1131 4041 
L 1131 2622 
L 3281 2622 
L 3281 2081 
L 1131 2081 
L 1131 0 
L 525 0 
z
" transform="scale(0.015625)"/>
      <path id="ArialMT-53" d="M 288 1472 
L 859 1522 
Q 900 1178 1048 958 
Q 1197 738 1509 602 
Q 1822 466 2213 466 
Q 2559 466 2825 569 
Q 3091 672 3220 851 
Q 3350 1031 3350 1244 
Q 3350 1459 3225 1620 
Q 3100 1781 2813 1891 
Q 2628 1963 1997 2114 
Q 1366 2266 1113 2400 
Q 784 2572 623 2826 
Q 463 3081 463 3397 
Q 463 3744 659 4045 
Q 856 4347 1234 4503 
Q 1613 4659 2075 4659 
Q 2584 4659 2973 4495 
Q 3363 4331 3572 4012 
Q 3781 3694 3797 3291 
L 3216 3247 
Q 3169 3681 2898 3903 
Q 2628 4125 2100 4125 
Q 1550 4125 1298 3923 
Q 1047 3722 1047 3438 
Q 1047 3191 1225 3031 
Q 1400 2872 2139 2705 
Q 2878 2538 3153 2413 
Q 3553 2228 3743 1945 
Q 3934 1663 3934 1294 
Q 3934 928 3725 604 
Q 3516 281 3123 101 
Q 2731 -78 2241 -78 
Q 1619 -78 1198 103 
Q 778 284 539 648 
Q 300 1013 288 1472 
z
" transform="scale(0.015625)"/>
      <path id="ArialMT-2c" d="M 569 0 
L 569 641 
L 1209 641 
L 1209 0 
Q 1209 -353 1084 -570 
Q 959 -788 688 -906 
L 531 -666 
Q 709 -588 793 -436 
Q 878 -284 888 0 
L 569 0 
z
" transform="scale(0.015625)"/>
      <path id="ArialMT-63" d="M 2588 1216 
L 3141 1144 
Q 3050 572 2676 248 
Q 2303 -75 1759 -75 
Q 1078 -75 664 370 
Q 250 816 250 1647 
Q 250 2184 428 2587 
Q 606 2991 970 3192 
Q 1334 3394 1763 3394 
Q 2303 3394 2647 3120 
Q 2991 2847 3088 2344 
L 2541 2259 
Q 2463 2594 2264 2762 
Q 2066 2931 1784 2931 
Q 1359 2931 1093 2626 
Q 828 2322 828 1663 
Q 828 994 1084 691 
Q 1341 388 1753 388 
Q 2084 388 2306 591 
Q 2528 794 2588 1216 
z
" transform="scale(0.015625)"/>
      <path id="ArialMT-75" d="M 2597 0 
L 2597 488 
Q 2209 -75 1544 -75 
Q 1250 -75 995 37 
Q 741 150 617 320 
Q 494 491 444 738 
Q 409 903 409 1263 
L 409 3319 
L 972 3319 
L 972 1478 
Q 972 1038 1006 884 
Q 1059 663 1231 536 
Q 1403 409 1656 409 
Q 1909 409 2131 539 
Q 2353 669 2445 892 
Q 2538 1116 2538 1541 
L 2538 3319 
L 3100 3319 
L 3100 0 
L 2597 0 
z
" transform="scale(0.015625)"/>
      <path id="ArialMT-37" d="M 303 3981 
L 303 4522 
L 3269 4522 
L 3269 4084 
Q 2831 3619 2401 2847 
Q 1972 2075 1738 1259 
Q 1569 684 1522 0 
L 944 0 
Q 953 541 1156 1306 
Q 1359 2072 1739 2783 
Q 2119 3494 2547 3981 
L 303 3981 
z
" transform="scale(0.015625)"/>
      <path id="ArialMT-34" d="M 2069 0 
L 2069 1097 
L 81 1097 
L 81 1613 
L 2172 4581 
L 2631 4581 
L 2631 1613 
L 3250 1613 
L 3250 1097 
L 2631 1097 
L 2631 0 
L 2069 0 
z
M 2069 1613 
L 2069 3678 
L 634 1613 
L 2069 1613 
z
" transform="scale(0.015625)"/>
      <path id="ArialMT-39" d="M 350 1059 
L 891 1109 
Q 959 728 1153 556 
Q 1347 384 1650 384 
Q 1909 384 2104 503 
Q 2300 622 2425 820 
Q 2550 1019 2634 1356 
Q 2719 1694 2719 2044 
Q 2719 2081 2716 2156 
Q 2547 1888 2255 1720 
Q 1963 1553 1622 1553 
Q 1053 1553 659 1965 
Q 266 2378 266 3053 
Q 266 3750 677 4175 
Q 1088 4600 1706 4600 
Q 2153 4600 2523 4359 
Q 2894 4119 3086 3673 
Q 3278 3228 3278 2384 
Q 3278 1506 3087 986 
Q 2897 466 2520 194 
Q 2144 -78 1638 -78 
Q 1100 -78 759 220 
Q 419 519 350 1059 
z
M 2653 3081 
Q 2653 3566 2395 3850 
Q 2138 4134 1775 4134 
Q 1400 4134 1122 3828 
Q 844 3522 844 3034 
Q 844 2597 1108 2323 
Q 1372 2050 1759 2050 
Q 2150 2050 2401 2323 
Q 2653 2597 2653 3081 
z
" transform="scale(0.015625)"/>
     </defs>
     <use xlink:href="#ArialMT-20"/>
     <use xlink:href="#ArialMT-50" x="27.783203"/>
     <use xlink:href="#ArialMT-6c" x="94.482422"/>
     <use xlink:href="#ArialMT-6f" x="116.699219"/>
     <use xlink:href="#ArialMT-74" x="172.314453"/>
     <use xlink:href="#ArialMT-74" x="200.097656"/>
     <use xlink:href="#ArialMT-69" x="227.880859"/>
     <use xlink:href="#ArialMT-6e" x="250.097656"/>
     <use xlink:href="#ArialMT-67" x="305.712891"/>
     <use xlink:href="#ArialMT-20" x="361.328125"/>
     <use xlink:href="#ArialMT-46" x="389.111328"/>
     <use xlink:href="#ArialMT-53" x="450.195312"/>
     <use xlink:href="#ArialMT-2c" x="516.894531"/>
     <use xlink:href="#ArialMT-20" x="544.677734"/>
     <use xlink:href="#ArialMT-74" x="572.460938"/>
     <use xlink:href="#ArialMT-72" x="600.244141"/>
     <use xlink:href="#ArialMT-61" x="633.544922"/>
     <use xlink:href="#ArialMT-63" x="689.160156"/>
     <use xlink:href="#ArialMT-65" x="739.160156"/>
     <use xlink:href="#ArialMT-20" x="794.775391"/>
     <use xlink:href="#ArialMT-6e" x="822.558594"/>
     <use xlink:href="#ArialMT-75" x="878.173828"/>
     <use xlink:href="#ArialMT-6d" x="933.789062"/>
     <use xlink:href="#ArialMT-62" x="1017.089844"/>
     <use xlink:href="#ArialMT-65" x="1072.705078"/>
     <use xlink:href="#ArialMT-72" x="1128.320312"/>
     <use xlink:href="#ArialMT-20" x="1161.621094"/>
     <use xlink:href="#ArialMT-37" x="1189.404297"/>
     <use xlink:href="#ArialMT-34" x="1245.019531"/>
     <use xlink:href="#ArialMT-34" x="1300.634766"/>
     <use xlink:href="#ArialMT-39" x="1356.25"/>
     <use xlink:href="#ArialMT-20" x="1411.865234"/>
    </g>
   </g>
  </g>
 </g>
 <defs>
  <clipPath id="p3f4e771148">
   <rect x="72" y="69.12" width="446.4" height="434.88"/>
  </clipPath>
 </defs>
</svg>
