<?xml version="1.0" encoding="utf-8" standalone="no"?>
<!DOCTYPE svg PUBLIC "-//W3C//DTD SVG 1.1//EN"
  "http://www.w3.org/Graphics/SVG/1.1/DTD/svg11.dtd">
<svg xmlns:xlink="http://www.w3.org/1999/xlink" width="576pt" height="576pt" viewBox="0 0 576 576" xmlns="http://www.w3.org/2000/svg" version="1.1">
 <metadata>
  <rdf:RDF xmlns:dc="http://purl.org/dc/elements/1.1/" xmlns:cc="http://creativecommons.org/ns#" xmlns:rdf="http://www.w3.org/1999/02/22-rdf-syntax-ns#">
   <cc:Work>
    <dc:type rdf:resource="http://purl.org/dc/dcmitype/StillImage"/>
    <dc:date>2022-10-30T19:57:02.709959</dc:date>
    <dc:format>image/svg+xml</dc:format>
    <dc:creator>
     <cc:Agent>
      <dc:title>Matplotlib v3.5.2, https://matplotlib.org/</dc:title>
     </cc:Agent>
    </dc:creator>
   </cc:Work>
  </rdf:RDF>
 </metadata>
 <defs>
  <style type="text/css">*{stroke-linejoin: round; stroke-linecap: butt}</style>
 </defs>
 <g id="figure_1">
  <g id="patch_1">
   <path d="M 0 576 
L 576 576 
L 576 0 
L 0 0 
L 0 576 
z
" style="fill: none"/>
  </g>
  <g id="axes_1">
   <g id="patch_2">
    <path d="M 72 504 
L 518.4 504 
L 518.4 69.12 
L 72 69.12 
z
" style="fill: #ffffff"/>
   </g>
   <g id="matplotlib.axis_1">
    <g id="xtick_1">
     <g id="line2d_1">
      <defs>
       <path id="mcd67289284" d="M 0 0 
L 0 3.5 
" style="stroke: #000000; stroke-width: 0.8"/>
      </defs>
      <g>
       <use xlink:href="#mcd67289284" x="92.290909" y="504" style="stroke: #000000; stroke-width: 0.8"/>
      </g>
     </g>
     <g id="text_1">
      <!-- 0 -->
      <g transform="translate(85.292159 527.716563)scale(0.22 -0.22)">
       <defs>
        <path id="DejaVuSans-30" d="M 2034 4250 
Q 1547 4250 1301 3770 
Q 1056 3291 1056 2328 
Q 1056 1369 1301 889 
Q 1547 409 2034 409 
Q 2525 409 2770 889 
Q 3016 1369 3016 2328 
Q 3016 3291 2770 3770 
Q 2525 4250 2034 4250 
z
M 2034 4750 
Q 2819 4750 3233 4129 
Q 3647 3509 3647 2328 
Q 3647 1150 3233 529 
Q 2819 -91 2034 -91 
Q 1250 -91 836 529 
Q 422 1150 422 2328 
Q 422 3509 836 4129 
Q 1250 4750 2034 4750 
z
" transform="scale(0.015625)"/>
       </defs>
       <use xlink:href="#DejaVuSans-30"/>
      </g>
     </g>
    </g>
    <g id="xtick_2">
     <g id="line2d_2">
      <g>
       <use xlink:href="#mcd67289284" x="227.563636" y="504" style="stroke: #000000; stroke-width: 0.8"/>
      </g>
     </g>
     <g id="text_2">
      <!-- 1000 -->
      <g transform="translate(199.568636 527.716563)scale(0.22 -0.22)">
       <defs>
        <path id="DejaVuSans-31" d="M 794 531 
L 1825 531 
L 1825 4091 
L 703 3866 
L 703 4441 
L 1819 4666 
L 2450 4666 
L 2450 531 
L 3481 531 
L 3481 0 
L 794 0 
L 794 531 
z
" transform="scale(0.015625)"/>
       </defs>
       <use xlink:href="#DejaVuSans-31"/>
       <use xlink:href="#DejaVuSans-30" x="63.623047"/>
       <use xlink:href="#DejaVuSans-30" x="127.246094"/>
       <use xlink:href="#DejaVuSans-30" x="190.869141"/>
      </g>
     </g>
    </g>
    <g id="xtick_3">
     <g id="line2d_3">
      <g>
       <use xlink:href="#mcd67289284" x="362.836364" y="504" style="stroke: #000000; stroke-width: 0.8"/>
      </g>
     </g>
     <g id="text_3">
      <!-- 2000 -->
      <g transform="translate(334.841364 527.716563)scale(0.22 -0.22)">
       <defs>
        <path id="DejaVuSans-32" d="M 1228 531 
L 3431 531 
L 3431 0 
L 469 0 
L 469 531 
Q 828 903 1448 1529 
Q 2069 2156 2228 2338 
Q 2531 2678 2651 2914 
Q 2772 3150 2772 3378 
Q 2772 3750 2511 3984 
Q 2250 4219 1831 4219 
Q 1534 4219 1204 4116 
Q 875 4013 500 3803 
L 500 4441 
Q 881 4594 1212 4672 
Q 1544 4750 1819 4750 
Q 2544 4750 2975 4387 
Q 3406 4025 3406 3419 
Q 3406 3131 3298 2873 
Q 3191 2616 2906 2266 
Q 2828 2175 2409 1742 
Q 1991 1309 1228 531 
z
" transform="scale(0.015625)"/>
       </defs>
       <use xlink:href="#DejaVuSans-32"/>
       <use xlink:href="#DejaVuSans-30" x="63.623047"/>
       <use xlink:href="#DejaVuSans-30" x="127.246094"/>
       <use xlink:href="#DejaVuSans-30" x="190.869141"/>
      </g>
     </g>
    </g>
    <g id="xtick_4">
     <g id="line2d_4">
      <g>
       <use xlink:href="#mcd67289284" x="498.109091" y="504" style="stroke: #000000; stroke-width: 0.8"/>
      </g>
     </g>
     <g id="text_4">
      <!-- 3000 -->
      <g transform="translate(470.114091 527.716563)scale(0.22 -0.22)">
       <defs>
        <path id="DejaVuSans-33" d="M 2597 2516 
Q 3050 2419 3304 2112 
Q 3559 1806 3559 1356 
Q 3559 666 3084 287 
Q 2609 -91 1734 -91 
Q 1441 -91 1130 -33 
Q 819 25 488 141 
L 488 750 
Q 750 597 1062 519 
Q 1375 441 1716 441 
Q 2309 441 2620 675 
Q 2931 909 2931 1356 
Q 2931 1769 2642 2001 
Q 2353 2234 1838 2234 
L 1294 2234 
L 1294 2753 
L 1863 2753 
Q 2328 2753 2575 2939 
Q 2822 3125 2822 3475 
Q 2822 3834 2567 4026 
Q 2313 4219 1838 4219 
Q 1578 4219 1281 4162 
Q 984 4106 628 3988 
L 628 4550 
Q 988 4650 1302 4700 
Q 1616 4750 1894 4750 
Q 2613 4750 3031 4423 
Q 3450 4097 3450 3541 
Q 3450 3153 3228 2886 
Q 3006 2619 2597 2516 
z
" transform="scale(0.015625)"/>
       </defs>
       <use xlink:href="#DejaVuSans-33"/>
       <use xlink:href="#DejaVuSans-30" x="63.623047"/>
       <use xlink:href="#DejaVuSans-30" x="127.246094"/>
       <use xlink:href="#DejaVuSans-30" x="190.869141"/>
      </g>
     </g>
    </g>
    <g id="text_5">
     <!-- Time(ms) -->
     <g transform="translate(249.182187 552.307188)scale(0.22 -0.22)">
      <defs>
       <path id="ArialMT-54" d="M 1659 0 
L 1659 4041 
L 150 4041 
L 150 4581 
L 3781 4581 
L 3781 4041 
L 2266 4041 
L 2266 0 
L 1659 0 
z
" transform="scale(0.015625)"/>
       <path id="ArialMT-69" d="M 425 3934 
L 425 4581 
L 988 4581 
L 988 3934 
L 425 3934 
z
M 425 0 
L 425 3319 
L 988 3319 
L 988 0 
L 425 0 
z
" transform="scale(0.015625)"/>
       <path id="ArialMT-6d" d="M 422 0 
L 422 3319 
L 925 3319 
L 925 2853 
Q 1081 3097 1340 3245 
Q 1600 3394 1931 3394 
Q 2300 3394 2536 3241 
Q 2772 3088 2869 2813 
Q 3263 3394 3894 3394 
Q 4388 3394 4653 3120 
Q 4919 2847 4919 2278 
L 4919 0 
L 4359 0 
L 4359 2091 
Q 4359 2428 4304 2576 
Q 4250 2725 4106 2815 
Q 3963 2906 3769 2906 
Q 3419 2906 3187 2673 
Q 2956 2441 2956 1928 
L 2956 0 
L 2394 0 
L 2394 2156 
Q 2394 2531 2256 2718 
Q 2119 2906 1806 2906 
Q 1569 2906 1367 2781 
Q 1166 2656 1075 2415 
Q 984 2175 984 1722 
L 984 0 
L 422 0 
z
" transform="scale(0.015625)"/>
       <path id="ArialMT-65" d="M 2694 1069 
L 3275 997 
Q 3138 488 2766 206 
Q 2394 -75 1816 -75 
Q 1088 -75 661 373 
Q 234 822 234 1631 
Q 234 2469 665 2931 
Q 1097 3394 1784 3394 
Q 2450 3394 2872 2941 
Q 3294 2488 3294 1666 
Q 3294 1616 3291 1516 
L 816 1516 
Q 847 969 1125 678 
Q 1403 388 1819 388 
Q 2128 388 2347 550 
Q 2566 713 2694 1069 
z
M 847 1978 
L 2700 1978 
Q 2663 2397 2488 2606 
Q 2219 2931 1791 2931 
Q 1403 2931 1139 2672 
Q 875 2413 847 1978 
z
" transform="scale(0.015625)"/>
       <path id="ArialMT-28" d="M 1497 -1347 
Q 1031 -759 709 28 
Q 388 816 388 1659 
Q 388 2403 628 3084 
Q 909 3875 1497 4659 
L 1900 4659 
Q 1522 4009 1400 3731 
Q 1209 3300 1100 2831 
Q 966 2247 966 1656 
Q 966 153 1900 -1347 
L 1497 -1347 
z
" transform="scale(0.015625)"/>
       <path id="ArialMT-73" d="M 197 991 
L 753 1078 
Q 800 744 1014 566 
Q 1228 388 1613 388 
Q 2000 388 2187 545 
Q 2375 703 2375 916 
Q 2375 1106 2209 1216 
Q 2094 1291 1634 1406 
Q 1016 1563 777 1677 
Q 538 1791 414 1992 
Q 291 2194 291 2438 
Q 291 2659 392 2848 
Q 494 3038 669 3163 
Q 800 3259 1026 3326 
Q 1253 3394 1513 3394 
Q 1903 3394 2198 3281 
Q 2494 3169 2634 2976 
Q 2775 2784 2828 2463 
L 2278 2388 
Q 2241 2644 2061 2787 
Q 1881 2931 1553 2931 
Q 1166 2931 1000 2803 
Q 834 2675 834 2503 
Q 834 2394 903 2306 
Q 972 2216 1119 2156 
Q 1203 2125 1616 2013 
Q 2213 1853 2448 1751 
Q 2684 1650 2818 1456 
Q 2953 1263 2953 975 
Q 2953 694 2789 445 
Q 2625 197 2315 61 
Q 2006 -75 1616 -75 
Q 969 -75 630 194 
Q 291 463 197 991 
z
" transform="scale(0.015625)"/>
       <path id="ArialMT-29" d="M 791 -1347 
L 388 -1347 
Q 1322 153 1322 1656 
Q 1322 2244 1188 2822 
Q 1081 3291 891 3722 
Q 769 4003 388 4659 
L 791 4659 
Q 1378 3875 1659 3084 
Q 1900 2403 1900 1659 
Q 1900 816 1576 28 
Q 1253 -759 791 -1347 
z
" transform="scale(0.015625)"/>
      </defs>
      <use xlink:href="#ArialMT-54"/>
      <use xlink:href="#ArialMT-69" x="57.333984"/>
      <use xlink:href="#ArialMT-6d" x="79.550781"/>
      <use xlink:href="#ArialMT-65" x="162.851562"/>
      <use xlink:href="#ArialMT-28" x="218.466797"/>
      <use xlink:href="#ArialMT-6d" x="251.767578"/>
      <use xlink:href="#ArialMT-73" x="335.068359"/>
      <use xlink:href="#ArialMT-29" x="385.068359"/>
     </g>
    </g>
   </g>
   <g id="matplotlib.axis_2">
    <g id="ytick_1">
     <g id="line2d_5">
      <defs>
       <path id="ma25cd59662" d="M 0 0 
L -3.5 0 
" style="stroke: #000000; stroke-width: 0.8"/>
      </defs>
      <g>
       <use xlink:href="#ma25cd59662" x="72" y="476.82" style="stroke: #000000; stroke-width: 0.8"/>
      </g>
     </g>
     <g id="text_6">
      <!-- −100 -->
      <g transform="translate(4.572187 485.178281)scale(0.22 -0.22)">
       <defs>
        <path id="DejaVuSans-2212" d="M 678 2272 
L 4684 2272 
L 4684 1741 
L 678 1741 
L 678 2272 
z
" transform="scale(0.015625)"/>
       </defs>
       <use xlink:href="#DejaVuSans-2212"/>
       <use xlink:href="#DejaVuSans-31" x="83.789062"/>
       <use xlink:href="#DejaVuSans-30" x="147.412109"/>
       <use xlink:href="#DejaVuSans-30" x="211.035156"/>
      </g>
     </g>
    </g>
    <g id="ytick_2">
     <g id="line2d_6">
      <g>
       <use xlink:href="#ma25cd59662" x="72" y="422.46" style="stroke: #000000; stroke-width: 0.8"/>
      </g>
     </g>
     <g id="text_7">
      <!-- −80 -->
      <g transform="translate(18.569688 430.818281)scale(0.22 -0.22)">
       <defs>
        <path id="DejaVuSans-38" d="M 2034 2216 
Q 1584 2216 1326 1975 
Q 1069 1734 1069 1313 
Q 1069 891 1326 650 
Q 1584 409 2034 409 
Q 2484 409 2743 651 
Q 3003 894 3003 1313 
Q 3003 1734 2745 1975 
Q 2488 2216 2034 2216 
z
M 1403 2484 
Q 997 2584 770 2862 
Q 544 3141 544 3541 
Q 544 4100 942 4425 
Q 1341 4750 2034 4750 
Q 2731 4750 3128 4425 
Q 3525 4100 3525 3541 
Q 3525 3141 3298 2862 
Q 3072 2584 2669 2484 
Q 3125 2378 3379 2068 
Q 3634 1759 3634 1313 
Q 3634 634 3220 271 
Q 2806 -91 2034 -91 
Q 1263 -91 848 271 
Q 434 634 434 1313 
Q 434 1759 690 2068 
Q 947 2378 1403 2484 
z
M 1172 3481 
Q 1172 3119 1398 2916 
Q 1625 2713 2034 2713 
Q 2441 2713 2670 2916 
Q 2900 3119 2900 3481 
Q 2900 3844 2670 4047 
Q 2441 4250 2034 4250 
Q 1625 4250 1398 4047 
Q 1172 3844 1172 3481 
z
" transform="scale(0.015625)"/>
       </defs>
       <use xlink:href="#DejaVuSans-2212"/>
       <use xlink:href="#DejaVuSans-38" x="83.789062"/>
       <use xlink:href="#DejaVuSans-30" x="147.412109"/>
      </g>
     </g>
    </g>
    <g id="ytick_3">
     <g id="line2d_7">
      <g>
       <use xlink:href="#ma25cd59662" x="72" y="368.1" style="stroke: #000000; stroke-width: 0.8"/>
      </g>
     </g>
     <g id="text_8">
      <!-- −60 -->
      <g transform="translate(18.569688 376.458281)scale(0.22 -0.22)">
       <defs>
        <path id="DejaVuSans-36" d="M 2113 2584 
Q 1688 2584 1439 2293 
Q 1191 2003 1191 1497 
Q 1191 994 1439 701 
Q 1688 409 2113 409 
Q 2538 409 2786 701 
Q 3034 994 3034 1497 
Q 3034 2003 2786 2293 
Q 2538 2584 2113 2584 
z
M 3366 4563 
L 3366 3988 
Q 3128 4100 2886 4159 
Q 2644 4219 2406 4219 
Q 1781 4219 1451 3797 
Q 1122 3375 1075 2522 
Q 1259 2794 1537 2939 
Q 1816 3084 2150 3084 
Q 2853 3084 3261 2657 
Q 3669 2231 3669 1497 
Q 3669 778 3244 343 
Q 2819 -91 2113 -91 
Q 1303 -91 875 529 
Q 447 1150 447 2328 
Q 447 3434 972 4092 
Q 1497 4750 2381 4750 
Q 2619 4750 2861 4703 
Q 3103 4656 3366 4563 
z
" transform="scale(0.015625)"/>
       </defs>
       <use xlink:href="#DejaVuSans-2212"/>
       <use xlink:href="#DejaVuSans-36" x="83.789062"/>
       <use xlink:href="#DejaVuSans-30" x="147.412109"/>
      </g>
     </g>
    </g>
    <g id="ytick_4">
     <g id="line2d_8">
      <g>
       <use xlink:href="#ma25cd59662" x="72" y="313.74" style="stroke: #000000; stroke-width: 0.8"/>
      </g>
     </g>
     <g id="text_9">
      <!-- −40 -->
      <g transform="translate(18.569688 322.098281)scale(0.22 -0.22)">
       <defs>
        <path id="DejaVuSans-34" d="M 2419 4116 
L 825 1625 
L 2419 1625 
L 2419 4116 
z
M 2253 4666 
L 3047 4666 
L 3047 1625 
L 3713 1625 
L 3713 1100 
L 3047 1100 
L 3047 0 
L 2419 0 
L 2419 1100 
L 313 1100 
L 313 1709 
L 2253 4666 
z
" transform="scale(0.015625)"/>
       </defs>
       <use xlink:href="#DejaVuSans-2212"/>
       <use xlink:href="#DejaVuSans-34" x="83.789062"/>
       <use xlink:href="#DejaVuSans-30" x="147.412109"/>
      </g>
     </g>
    </g>
    <g id="ytick_5">
     <g id="line2d_9">
      <g>
       <use xlink:href="#ma25cd59662" x="72" y="259.38" style="stroke: #000000; stroke-width: 0.8"/>
      </g>
     </g>
     <g id="text_10">
      <!-- −20 -->
      <g transform="translate(18.569688 267.738281)scale(0.22 -0.22)">
       <use xlink:href="#DejaVuSans-2212"/>
       <use xlink:href="#DejaVuSans-32" x="83.789062"/>
       <use xlink:href="#DejaVuSans-30" x="147.412109"/>
      </g>
     </g>
    </g>
    <g id="ytick_6">
     <g id="line2d_10">
      <g>
       <use xlink:href="#ma25cd59662" x="72" y="205.02" style="stroke: #000000; stroke-width: 0.8"/>
      </g>
     </g>
     <g id="text_11">
      <!-- 0 -->
      <g transform="translate(51.0025 213.378281)scale(0.22 -0.22)">
       <use xlink:href="#DejaVuSans-30"/>
      </g>
     </g>
    </g>
    <g id="ytick_7">
     <g id="line2d_11">
      <g>
       <use xlink:href="#ma25cd59662" x="72" y="150.66" style="stroke: #000000; stroke-width: 0.8"/>
      </g>
     </g>
     <g id="text_12">
      <!-- 20 -->
      <g transform="translate(37.005 159.018281)scale(0.22 -0.22)">
       <use xlink:href="#DejaVuSans-32"/>
       <use xlink:href="#DejaVuSans-30" x="63.623047"/>
      </g>
     </g>
    </g>
    <g id="ytick_8">
     <g id="line2d_12">
      <g>
       <use xlink:href="#ma25cd59662" x="72" y="96.3" style="stroke: #000000; stroke-width: 0.8"/>
      </g>
     </g>
     <g id="text_13">
      <!-- 40 -->
      <g transform="translate(37.005 104.658281)scale(0.22 -0.22)">
       <use xlink:href="#DejaVuSans-34"/>
       <use xlink:href="#DejaVuSans-30" x="63.623047"/>
      </g>
     </g>
    </g>
    <g id="text_14">
     <!-- Membrane potential (mV) -->
     <g transform="translate(-4.058125 410.655469)rotate(-90)scale(0.22 -0.22)">
      <defs>
       <path id="ArialMT-4d" d="M 475 0 
L 475 4581 
L 1388 4581 
L 2472 1338 
Q 2622 884 2691 659 
Q 2769 909 2934 1394 
L 4031 4581 
L 4847 4581 
L 4847 0 
L 4263 0 
L 4263 3834 
L 2931 0 
L 2384 0 
L 1059 3900 
L 1059 0 
L 475 0 
z
" transform="scale(0.015625)"/>
       <path id="ArialMT-62" d="M 941 0 
L 419 0 
L 419 4581 
L 981 4581 
L 981 2947 
Q 1338 3394 1891 3394 
Q 2197 3394 2470 3270 
Q 2744 3147 2920 2923 
Q 3097 2700 3197 2384 
Q 3297 2069 3297 1709 
Q 3297 856 2875 390 
Q 2453 -75 1863 -75 
Q 1275 -75 941 416 
L 941 0 
z
M 934 1684 
Q 934 1088 1097 822 
Q 1363 388 1816 388 
Q 2184 388 2453 708 
Q 2722 1028 2722 1663 
Q 2722 2313 2464 2622 
Q 2206 2931 1841 2931 
Q 1472 2931 1203 2611 
Q 934 2291 934 1684 
z
" transform="scale(0.015625)"/>
       <path id="ArialMT-72" d="M 416 0 
L 416 3319 
L 922 3319 
L 922 2816 
Q 1116 3169 1280 3281 
Q 1444 3394 1641 3394 
Q 1925 3394 2219 3213 
L 2025 2691 
Q 1819 2813 1613 2813 
Q 1428 2813 1281 2702 
Q 1134 2591 1072 2394 
Q 978 2094 978 1738 
L 978 0 
L 416 0 
z
" transform="scale(0.015625)"/>
       <path id="ArialMT-61" d="M 2588 409 
Q 2275 144 1986 34 
Q 1697 -75 1366 -75 
Q 819 -75 525 192 
Q 231 459 231 875 
Q 231 1119 342 1320 
Q 453 1522 633 1644 
Q 813 1766 1038 1828 
Q 1203 1872 1538 1913 
Q 2219 1994 2541 2106 
Q 2544 2222 2544 2253 
Q 2544 2597 2384 2738 
Q 2169 2928 1744 2928 
Q 1347 2928 1158 2789 
Q 969 2650 878 2297 
L 328 2372 
Q 403 2725 575 2942 
Q 747 3159 1072 3276 
Q 1397 3394 1825 3394 
Q 2250 3394 2515 3294 
Q 2781 3194 2906 3042 
Q 3031 2891 3081 2659 
Q 3109 2516 3109 2141 
L 3109 1391 
Q 3109 606 3145 398 
Q 3181 191 3288 0 
L 2700 0 
Q 2613 175 2588 409 
z
M 2541 1666 
Q 2234 1541 1622 1453 
Q 1275 1403 1131 1340 
Q 988 1278 909 1158 
Q 831 1038 831 891 
Q 831 666 1001 516 
Q 1172 366 1500 366 
Q 1825 366 2078 508 
Q 2331 650 2450 897 
Q 2541 1088 2541 1459 
L 2541 1666 
z
" transform="scale(0.015625)"/>
       <path id="ArialMT-6e" d="M 422 0 
L 422 3319 
L 928 3319 
L 928 2847 
Q 1294 3394 1984 3394 
Q 2284 3394 2536 3286 
Q 2788 3178 2913 3003 
Q 3038 2828 3088 2588 
Q 3119 2431 3119 2041 
L 3119 0 
L 2556 0 
L 2556 2019 
Q 2556 2363 2490 2533 
Q 2425 2703 2258 2804 
Q 2091 2906 1866 2906 
Q 1506 2906 1245 2678 
Q 984 2450 984 1813 
L 984 0 
L 422 0 
z
" transform="scale(0.015625)"/>
       <path id="ArialMT-20" transform="scale(0.015625)"/>
       <path id="ArialMT-70" d="M 422 -1272 
L 422 3319 
L 934 3319 
L 934 2888 
Q 1116 3141 1344 3267 
Q 1572 3394 1897 3394 
Q 2322 3394 2647 3175 
Q 2972 2956 3137 2557 
Q 3303 2159 3303 1684 
Q 3303 1175 3120 767 
Q 2938 359 2589 142 
Q 2241 -75 1856 -75 
Q 1575 -75 1351 44 
Q 1128 163 984 344 
L 984 -1272 
L 422 -1272 
z
M 931 1641 
Q 931 1000 1190 694 
Q 1450 388 1819 388 
Q 2194 388 2461 705 
Q 2728 1022 2728 1688 
Q 2728 2322 2467 2637 
Q 2206 2953 1844 2953 
Q 1484 2953 1207 2617 
Q 931 2281 931 1641 
z
" transform="scale(0.015625)"/>
       <path id="ArialMT-6f" d="M 213 1659 
Q 213 2581 725 3025 
Q 1153 3394 1769 3394 
Q 2453 3394 2887 2945 
Q 3322 2497 3322 1706 
Q 3322 1066 3130 698 
Q 2938 331 2570 128 
Q 2203 -75 1769 -75 
Q 1072 -75 642 372 
Q 213 819 213 1659 
z
M 791 1659 
Q 791 1022 1069 705 
Q 1347 388 1769 388 
Q 2188 388 2466 706 
Q 2744 1025 2744 1678 
Q 2744 2294 2464 2611 
Q 2184 2928 1769 2928 
Q 1347 2928 1069 2612 
Q 791 2297 791 1659 
z
" transform="scale(0.015625)"/>
       <path id="ArialMT-74" d="M 1650 503 
L 1731 6 
Q 1494 -44 1306 -44 
Q 1000 -44 831 53 
Q 663 150 594 308 
Q 525 466 525 972 
L 525 2881 
L 113 2881 
L 113 3319 
L 525 3319 
L 525 4141 
L 1084 4478 
L 1084 3319 
L 1650 3319 
L 1650 2881 
L 1084 2881 
L 1084 941 
Q 1084 700 1114 631 
Q 1144 563 1211 522 
Q 1278 481 1403 481 
Q 1497 481 1650 503 
z
" transform="scale(0.015625)"/>
       <path id="ArialMT-6c" d="M 409 0 
L 409 4581 
L 972 4581 
L 972 0 
L 409 0 
z
" transform="scale(0.015625)"/>
       <path id="ArialMT-56" d="M 1803 0 
L 28 4581 
L 684 4581 
L 1875 1253 
Q 2019 853 2116 503 
Q 2222 878 2363 1253 
L 3600 4581 
L 4219 4581 
L 2425 0 
L 1803 0 
z
" transform="scale(0.015625)"/>
      </defs>
      <use xlink:href="#ArialMT-4d"/>
      <use xlink:href="#ArialMT-65" x="83.300781"/>
      <use xlink:href="#ArialMT-6d" x="138.916016"/>
      <use xlink:href="#ArialMT-62" x="222.216797"/>
      <use xlink:href="#ArialMT-72" x="277.832031"/>
      <use xlink:href="#ArialMT-61" x="311.132812"/>
      <use xlink:href="#ArialMT-6e" x="366.748047"/>
      <use xlink:href="#ArialMT-65" x="422.363281"/>
      <use xlink:href="#ArialMT-20" x="477.978516"/>
      <use xlink:href="#ArialMT-70" x="505.761719"/>
      <use xlink:href="#ArialMT-6f" x="561.376953"/>
      <use xlink:href="#ArialMT-74" x="616.992188"/>
      <use xlink:href="#ArialMT-65" x="644.775391"/>
      <use xlink:href="#ArialMT-6e" x="700.390625"/>
      <use xlink:href="#ArialMT-74" x="756.005859"/>
      <use xlink:href="#ArialMT-69" x="783.789062"/>
      <use xlink:href="#ArialMT-61" x="806.005859"/>
      <use xlink:href="#ArialMT-6c" x="861.621094"/>
      <use xlink:href="#ArialMT-20" x="883.837891"/>
      <use xlink:href="#ArialMT-28" x="911.621094"/>
      <use xlink:href="#ArialMT-6d" x="944.921875"/>
      <use xlink:href="#ArialMT-56" x="1028.222656"/>
      <use xlink:href="#ArialMT-29" x="1094.921875"/>
     </g>
    </g>
   </g>
   <g id="line2d_13">
    <path d="M 92.290909 438.768 
L 92.696727 441.027207 
L 93.305455 443.751011 
L 93.914182 445.572857 
L 94.590545 446.893571 
L 95.266909 447.726018 
L 96.010909 448.286016 
L 96.890182 448.661725 
L 98.107636 448.913181 
L 100.069091 449.051114 
L 104.938909 449.095897 
L 159.927273 449.0981 
L 160.130182 427.157664 
L 160.536 410.246077 
L 161.077091 397.10723 
L 161.685818 387.349308 
L 162.497455 378.001788 
L 166.488 336.856435 
L 166.690909 330.834264 
L 166.826182 322.269159 
L 166.961455 291.181515 
L 167.029091 168.858428 
L 167.096727 227.220024 
L 167.299636 343.818812 
L 167.502545 364.296258 
L 167.773091 370.704805 
L 167.976 371.870151 
L 168.111273 371.974744 
L 168.246545 371.724756 
L 168.517091 370.558295 
L 169.193455 366.153764 
L 171.154909 353.411795 
L 172.169455 349.629159 
L 173.116364 346.143322 
L 173.454545 342.925434 
L 173.792727 336.909181 
L 173.995636 329.540134 
L 174.130909 317.854959 
L 174.198545 302.389675 
L 174.333818 179.312616 
L 174.536727 336.063096 
L 174.807273 367.745472 
L 175.077818 374.574609 
L 175.280727 375.531008 
L 175.416 375.357565 
L 175.686545 374.057553 
L 176.362909 368.992844 
L 177.580364 360.28454 
L 178.324364 356.556739 
L 180.015273 348.963717 
L 180.421091 345.235552 
L 180.759273 340.649204 
L 181.029818 333.729703 
L 181.165091 326.44224 
L 181.300364 305.818078 
L 181.435636 167.07499 
L 181.638545 336.357205 
L 181.841455 364.159581 
L 182.112 373.297874 
L 182.314909 374.940494 
L 182.450182 375.094379 
L 182.585455 374.803812 
L 182.923636 373.062084 
L 185.696727 356.40063 
L 186.846545 350.567685 
L 187.32 346.689218 
L 187.725818 341.488298 
L 187.996364 335.234511 
L 188.199273 324.584886 
L 188.334545 297.815084 
L 188.402182 179.348844 
L 188.469818 199.959082 
L 188.672727 341.166508 
L 188.875636 365.1127 
L 189.146182 372.889489 
L 189.349091 374.434591 
L 189.484364 374.597164 
L 189.619636 374.335043 
L 189.890182 373.009642 
L 191.378182 364.073529 
L 191.986909 360.703428 
L 192.189818 360.583823 
L 192.663273 361.026605 
L 192.866182 360.836455 
L 194.016 358.234223 
L 194.421818 355.86303 
L 195.301091 348.577864 
L 195.706909 343.566518 
L 196.045091 336.978616 
L 196.248 329.615162 
L 196.383273 318.218848 
L 196.450909 303.536622 
L 196.586182 177.160808 
L 196.789091 337.448139 
L 196.992 363.823555 
L 197.262545 372.146574 
L 197.533091 374.181253 
L 197.668364 374.196046 
L 197.871273 373.557556 
L 198.277091 371.130538 
L 199.900364 360.612442 
L 200.712 356.616007 
L 201.456 351.969817 
L 202.064727 346.815124 
L 202.335273 344.703983 
L 202.605818 344.122484 
L 202.944 343.841794 
L 203.079273 343.602874 
L 203.146909 343.6411 
L 203.417455 344.264505 
L 203.688 344.740853 
L 203.823273 344.671006 
L 204.026182 343.981005 
L 204.296727 341.729919 
L 204.567273 337.475056 
L 204.770182 331.296514 
L 204.905455 322.326672 
L 204.973091 312.568053 
L 205.040727 284.792759 
L 205.108364 148.387163 
L 205.176 229.575449 
L 205.378909 339.536277 
L 205.649455 367.105886 
L 205.92 374.078499 
L 206.122909 375.314611 
L 206.258182 375.276785 
L 206.461091 374.519007 
L 206.934545 371.325874 
L 209.437091 353.119655 
L 210.451636 346.470649 
L 210.789818 342.106026 
L 211.060364 335.320726 
L 211.263273 322.459923 
L 211.330909 311.190155 
L 211.398545 272.492798 
L 211.466182 147.436465 
L 211.669091 334.54994 
L 211.872 364.857237 
L 212.142545 373.639785 
L 212.345455 375.277982 
L 212.480727 375.440897 
L 212.616 375.166571 
L 212.886545 373.821148 
L 214.239273 365.693161 
L 215.592 358.17224 
L 217.485818 346.706022 
L 217.891636 341.905643 
L 218.094545 339.455076 
L 218.162182 339.668248 
L 218.365091 342.45796 
L 218.838545 349.134426 
L 219.041455 350.046473 
L 219.176727 350.126054 
L 219.312 349.876077 
L 219.514909 348.941345 
L 219.853091 345.926874 
L 220.191273 340.934051 
L 220.461818 334.134284 
L 220.664727 322.45413 
L 220.732364 313.055817 
L 220.8 287.58138 
L 220.867636 152.281894 
L 220.935273 225.063703 
L 221.138182 340.149942 
L 221.408727 367.509534 
L 221.679273 373.660249 
L 221.882182 374.63724 
L 221.949818 374.63966 
L 222.085091 374.329891 
L 222.355636 372.923792 
L 226.413818 346.27668 
L 226.819636 340.894063 
L 227.090182 333.974084 
L 227.293091 320.109212 
L 227.360727 306.739418 
L 227.496 164.071242 
L 227.698909 336.510659 
L 227.901818 363.804784 
L 228.172364 372.383249 
L 228.375273 374.079124 
L 228.510545 374.298385 
L 228.645818 374.077164 
L 228.916364 372.829494 
L 229.660364 367.694958 
L 231.013091 358.521195 
L 231.892364 353.055703 
L 232.365818 350.936718 
L 232.839273 348.760204 
L 233.718545 342.968154 
L 233.989091 339.560316 
L 234.192 334.872895 
L 234.394909 324.072327 
L 234.530182 294.711444 
L 234.597818 164.307693 
L 234.665455 207.98362 
L 234.868364 340.161901 
L 235.138909 367.531359 
L 235.409455 373.425146 
L 235.612364 374.390413 
L 235.747636 374.290385 
L 235.950545 373.501256 
L 236.424 370.360145 
L 238.047273 359.061095 
L 240.008727 346.180746 
L 240.346909 342.402856 
L 240.617455 337.260409 
L 240.820364 329.642452 
L 240.955636 317.219823 
L 241.023273 300.116094 
L 241.158545 190.873437 
L 241.361455 340.011879 
L 241.564364 365.282795 
L 241.834909 373.058044 
L 242.037818 374.270201 
L 242.173091 374.324749 
L 242.308364 374.148528 
L 242.511273 373.402381 
L 242.984727 370.428816 
L 244.134545 362.913307 
L 245.622545 353.413783 
L 246.231273 347.666656 
L 246.704727 341.617049 
L 246.975273 334.626595 
L 247.178182 320.858899 
L 247.245818 307.820703 
L 247.381091 160.721842 
L 247.584 337.580092 
L 247.786909 364.607742 
L 248.057455 372.535063 
L 248.260364 374.048154 
L 248.395636 374.242197 
L 248.530909 374.017511 
L 248.801455 372.799491 
L 249.477818 368.096805 
L 250.424727 361.712987 
L 251.574545 355.155175 
L 252.250909 349.792387 
L 253.130182 340.968461 
L 253.400727 334.926026 
L 253.603636 324.16118 
L 253.738909 296.088918 
L 253.806545 172.030977 
L 253.874182 205.92202 
L 254.077091 341.612408 
L 254.28 365.217542 
L 254.550545 372.664499 
L 254.753455 373.900577 
L 254.888727 373.925163 
L 255.091636 373.275259 
L 255.497455 370.769159 
L 257.053091 358.933838 
L 258.270545 350.327648 
L 258.946909 347.254853 
L 259.420364 347.116858 
L 259.623273 346.486569 
L 259.893818 344.54089 
L 260.164364 340.671679 
L 260.434909 332.62591 
L 260.570182 323.164945 
L 260.637818 312.77228 
L 260.705455 280.653301 
L 260.773091 142.616084 
L 260.976 329.770296 
L 261.246545 367.023578 
L 261.517091 374.799428 
L 261.72 376.025714 
L 261.787636 376.044535 
L 261.922909 375.727604 
L 262.261091 373.815884 
L 264.493091 358.812506 
L 265.507636 354.045027 
L 266.048727 350.214473 
L 266.522182 345.387013 
L 266.860364 339.804808 
L 267.130909 330.721008 
L 267.266182 319.364133 
L 267.333818 304.910293 
L 267.469091 172.391904 
L 267.672 338.671806 
L 267.874909 365.351652 
L 268.145455 373.384986 
L 268.348364 374.574845 
L 268.483636 374.526173 
L 268.686545 373.836302 
L 269.092364 371.259942 
L 270.512727 361.421353 
L 272.474182 350.04546 
L 272.812364 348.455362 
L 273.285818 345.052879 
L 273.624 340.897093 
L 273.894545 335.212553 
L 274.097455 325.884609 
L 274.232727 306.423588 
L 274.368 163.592271 
L 274.570909 333.808829 
L 274.841455 367.279844 
L 275.112 373.669953 
L 275.314909 374.477442 
L 275.450182 374.245129 
L 275.720727 372.84807 
L 278.629091 353.910661 
L 278.832 353.242207 
L 279.034909 353.187508 
L 279.440727 353.405747 
L 279.643636 353.175675 
L 279.914182 352.30294 
L 280.32 349.848903 
L 280.725818 346.244256 
L 281.199273 340.028483 
L 281.469818 332.944036 
L 281.605091 325.285507 
L 281.740364 302.044176 
L 281.875636 181.988572 
L 282.078545 337.030525 
L 282.349091 366.459995 
L 282.619636 372.603622 
L 282.822545 373.670884 
L 282.957818 373.623913 
L 283.160727 372.901908 
L 283.566545 370.29234 
L 285.595636 356.093438 
L 286.272 352.302564 
L 287.016 348.168331 
L 287.354182 345.129582 
L 287.692364 339.890649 
L 287.962909 331.185985 
L 288.098182 320.569839 
L 288.165818 307.867249 
L 288.301091 158.901164 
L 288.504 335.79268 
L 288.706909 365.063778 
L 288.909818 372.723396 
L 289.112727 374.822971 
L 289.248 375.061574 
L 289.383273 374.7975 
L 289.653818 373.407943 
L 290.397818 367.65512 
L 291.344727 361.030266 
L 292.832727 352.32672 
L 293.103273 352.019899 
L 293.441455 351.932564 
L 293.644364 351.529647 
L 293.982545 350.296889 
L 294.388364 347.949043 
L 294.726545 344.717578 
L 294.997091 340.309113 
L 295.2 334.451555 
L 295.335273 326.936652 
L 295.470545 305.421315 
L 295.605818 168.870513 
L 295.808727 337.935863 
L 296.011636 365.732662 
L 296.282182 374.365259 
L 296.485091 375.585338 
L 296.552727 375.600156 
L 296.688 375.288185 
L 296.958545 373.84803 
L 297.702545 367.996426 
L 298.717091 360.656486 
L 300.543273 350.326928 
L 300.949091 348.367423 
L 301.287273 345.287507 
L 301.625455 339.525916 
L 301.828364 332.971754 
L 301.963636 324.0073 
L 302.031273 314.68106 
L 302.098909 289.634252 
L 302.166545 147.323135 
L 302.234182 224.717604 
L 302.437091 345.049233 
L 302.64 366.827745 
L 302.910545 373.751415 
L 303.113455 374.833604 
L 303.181091 374.843739 
L 303.316364 374.533685 
L 303.654545 372.695245 
L 304.601455 365.343497 
L 305.751273 357.423466 
L 306.36 353.018168 
L 306.968727 346.608343 
L 307.374545 340.855044 
L 307.645091 333.622475 
L 307.848 320.124853 
L 307.915636 307.605838 
L 308.050909 161.096177 
L 308.253818 336.574544 
L 308.456727 365.748416 
L 308.659636 373.015477 
L 308.862545 374.738738 
L 308.930182 374.831335 
L 308.997818 374.781447 
L 309.200727 374.061416 
L 309.606545 371.343345 
L 310.959273 361.607361 
L 311.770909 357.283341 
L 312.447273 353.518453 
L 313.326545 346.542607 
L 313.732364 341.931792 
L 314.002909 336.875847 
L 314.205818 329.198437 
L 314.341091 316.247257 
L 314.408727 297.128011 
L 314.476364 176.676413 
L 314.544 202.069115 
L 314.746909 340.607631 
L 314.949818 364.223839 
L 315.220364 371.831893 
L 315.423273 373.207346 
L 315.558545 373.307793 
L 315.693818 373.026201 
L 315.964364 371.751887 
L 316.843636 365.683715 
L 317.993455 358.520956 
L 318.872727 354.526326 
L 319.346182 352.577214 
L 319.819636 349.500781 
L 320.225455 345.471471 
L 320.563636 340.069121 
L 320.834182 332.954705 
L 321.037091 319.320042 
L 321.104727 306.288136 
L 321.24 165.024307 
L 321.442909 334.194 
L 321.645818 361.89746 
L 321.916364 370.972058 
L 322.119273 372.659326 
L 322.254545 372.898672 
L 322.389818 372.711795 
L 322.660364 371.540904 
L 323.269091 367.265621 
L 324.892364 355.839901 
L 325.568727 352.27842 
L 326.042182 350.288076 
L 326.853818 345.312378 
L 327.192 341.188781 
L 327.462545 334.920644 
L 327.665455 323.586621 
L 327.800727 291.049844 
L 327.868364 153.856787 
L 327.936 219.731109 
L 328.138909 342.470817 
L 328.341818 365.089685 
L 328.612364 372.518781 
L 328.815273 373.777643 
L 328.950545 373.816584 
L 329.153455 373.185082 
L 329.559273 370.625374 
L 332.670545 346.239037 
L 333.008727 341.240419 
L 333.279273 333.481895 
L 333.414545 325.017229 
L 333.549818 295.842317 
L 333.617455 161.079756 
L 333.685091 208.348821 
L 333.888 344.820644 
L 334.090909 368.028148 
L 334.361455 374.985337 
L 334.564364 375.849551 
L 334.699636 375.596714 
L 334.970182 374.133354 
L 335.714182 368.142151 
L 336.931636 358.852282 
L 337.810909 353.390077 
L 338.081455 353.040846 
L 338.284364 352.79992 
L 338.690182 351.74369 
L 339.096 350.07709 
L 339.501818 347.495996 
L 339.84 343.862272 
L 340.110545 338.895046 
L 340.313455 332.184689 
L 340.448727 322.597748 
L 340.516364 311.982865 
L 340.584 278.47267 
L 340.651636 145.534887 
L 340.854545 330.783939 
L 341.057455 361.856659 
L 341.328 371.753488 
L 341.598545 373.92561 
L 341.733818 373.961102 
L 341.936727 373.332962 
L 342.342545 370.903148 
L 344.642182 354.728161 
L 346.265455 340.843824 
L 346.536 335.034815 
L 346.738909 325.798497 
L 346.874182 307.205098 
L 347.009455 161.346435 
L 347.212364 332.518605 
L 347.482909 364.95908 
L 347.753455 371.560097 
L 347.956364 372.756743 
L 348.091636 372.781591 
L 348.294545 372.134087 
L 348.700364 369.643418 
L 351.879273 346.854581 
L 352.690909 338.244604 
L 352.961455 332.57317 
L 353.164364 322.27641 
L 353.299636 294.9901 
L 353.367273 187.001914 
L 353.434909 206.418295 
L 353.637818 335.21194 
L 353.908364 362.676918 
L 354.178909 369.55764 
L 354.381818 371.012943 
L 354.517091 371.187927 
L 354.652364 370.993524 
L 354.922909 369.891352 
L 355.869818 364.053672 
L 358.575273 346.237613 
L 358.981091 340.848748 
L 359.251636 334.153033 
L 359.454545 322.319381 
L 359.522182 312.537499 
L 359.589818 284.982993 
L 359.657455 150.939607 
L 359.725091 236.309296 
L 359.928 344.355234 
L 360.130909 365.229438 
L 360.401455 371.623435 
L 360.604364 372.612118 
L 360.739636 372.582533 
L 360.942545 371.941991 
L 361.348364 369.510988 
L 363.783273 353.354935 
L 364.527273 348.70611 
L 364.933091 344.5434 
L 365.271273 338.406204 
L 365.474182 331.504384 
L 365.609455 323.058138 
L 365.744727 296.380474 
L 365.812364 188.211675 
L 365.88 204.584645 
L 366.082909 339.602443 
L 366.285818 363.768279 
L 366.556364 371.496609 
L 366.759273 372.674946 
L 366.894545 372.676188 
L 367.097455 372.007228 
L 367.570909 369.079423 
L 369.667636 355.32653 
L 371.020364 347.447933 
L 371.493818 343.514922 
L 371.832 338.882588 
L 372.102545 330.920015 
L 372.237818 321.554056 
L 372.305455 311.199503 
L 372.373091 279.873074 
L 372.440727 150.657831 
L 372.643636 328.679731 
L 372.914182 365.040893 
L 373.184727 372.306593 
L 373.387636 373.501872 
L 373.522909 373.481741 
L 373.725818 372.780546 
L 374.131636 370.195038 
L 375.552 360.305265 
L 376.904727 351.154896 
L 377.378182 346.440309 
L 377.784 339.923618 
L 377.986909 333.677604 
L 378.122182 325.384939 
L 378.257455 297.947496 
L 378.325091 170.465054 
L 378.392727 201.243851 
L 378.595636 343.956372 
L 378.798545 367.368222 
L 379.001455 373.151056 
L 379.204364 374.644159 
L 379.339636 374.684793 
L 379.542545 373.981964 
L 379.948364 371.267659 
L 382.112727 356.711049 
L 383.871273 344.475366 
L 384.209455 339.97929 
L 384.412364 334.954708 
L 384.615273 323.337798 
L 384.682909 313.773591 
L 384.750545 287.346029 
L 384.818182 147.872 
L 384.885818 230.20014 
L 385.088727 344.679315 
L 385.291636 366.627158 
L 385.562182 373.684149 
L 385.765091 374.6228 
L 385.900364 374.430618 
L 386.170909 373.066399 
L 386.914909 367.321407 
L 387.997091 359.700613 
L 388.808727 355.258378 
L 389.417455 351.413811 
L 390.432 342.419219 
L 390.702545 338.662654 
L 390.905455 333.577879 
L 391.108364 321.452297 
L 391.176 311.128838 
L 391.243636 280.332879 
L 391.311273 151.831592 
L 391.514182 329.428408 
L 391.784727 366.052714 
L 392.055273 372.589165 
L 392.258182 373.410119 
L 392.393455 373.237531 
L 392.664 372.057944 
L 393.475636 366.977605 
L 396.248727 347.182232 
L 397.060364 338.03792 
L 397.263273 332.953055 
L 397.466182 320.5952 
L 397.533818 309.721411 
L 397.601455 275.107611 
L 397.669091 154.369855 
L 397.872 329.213988 
L 398.142545 363.822161 
L 398.413091 370.932572 
L 398.616 372.239822 
L 398.751273 372.300133 
L 398.954182 371.696155 
L 399.36 369.262461 
L 402.403636 347.550247 
L 402.809455 342.456662 
L 403.08 336.702058 
L 403.282909 327.746947 
L 403.418182 310.721993 
L 403.485818 273.815266 
L 403.553455 149.809337 
L 403.756364 333.15345 
L 403.959273 363.163977 
L 404.229818 372.028072 
L 404.432727 373.63828 
L 404.568 373.816743 
L 404.703273 373.557846 
L 404.973818 372.231283 
L 405.717818 366.697234 
L 408.220364 347.148059 
L 408.693818 341.49937 
L 409.573091 329.395533 
L 409.708364 322.72414 
L 409.843636 303.160894 
L 409.978909 175.324206 
L 410.181818 326.184008 
L 410.452364 357.662554 
L 410.722909 366.782244 
L 410.993455 369.550095 
L 411.128727 369.852356 
L 411.196364 369.827541 
L 411.399273 369.389328 
L 411.737455 367.864429 
L 412.481455 363.075481 
L 414.645818 347.289614 
L 414.984 342.134243 
L 415.254545 334.625471 
L 415.457455 319.981276 
L 415.525091 305.396723 
L 415.660364 171.019328 
L 415.863273 339.929474 
L 416.066182 366.589006 
L 416.269091 373.279552 
L 416.472 374.99865 
L 416.607273 375.063983 
L 416.810182 374.34307 
L 417.216 371.533259 
L 418.365818 363.08969 
L 421.071273 345.289823 
L 421.544727 340.076854 
L 421.815273 334.395212 
L 422.018182 324.216425 
L 422.153455 299.166318 
L 422.288727 193.192853 
L 422.491636 338.645552 
L 422.762182 367.802962 
L 423.032727 373.170078 
L 423.235636 373.696628 
L 423.370909 373.405671 
L 423.641455 372.04957 
L 424.385455 366.522261 
L 425.670545 357.13404 
L 426.346909 353.609164 
L 426.820364 350.809443 
L 427.834909 342.575505 
L 428.173091 336.811079 
L 428.376 329.359042 
L 428.511273 317.122758 
L 428.578909 300.200731 
L 428.714182 189.46554 
L 428.917091 338.171803 
L 429.187636 367.590222 
L 429.458182 373.560357 
L 429.661091 374.264936 
L 429.796364 373.989834 
L 430.066909 372.536957 
L 430.472727 369.442775 
L 430.675636 391.140735 
L 431.013818 403.285643 
L 431.419636 410.10602 
L 432.096 417.497028 
L 433.110545 426.169881 
L 434.192727 433.602757 
L 435.139636 438.648852 
L 436.018909 442.180557 
L 436.830545 444.573747 
L 437.642182 446.28427 
L 438.453818 447.465882 
L 439.265455 448.25763 
L 440.144727 448.806173 
L 441.159273 449.174583 
L 442.444364 449.396561 
L 444.270545 449.469339 
L 447.922909 449.334574 
L 454.821818 449.149218 
L 467.064 449.088451 
L 498.109091 449.089421 
L 498.109091 449.089421 
" clip-path="url(#p946fddca40)" style="fill: none; stroke: #000000; stroke-width: 1.5; stroke-linecap: square"/>
   </g>
   <g id="line2d_14">
    <path d="M 497.973818 408.87 
" clip-path="url(#p946fddca40)" style="fill: none; stroke: #000000; stroke-width: 1.5; stroke-linecap: square"/>
   </g>
   <g id="line2d_15">
    <path d="M 430.472727 368.1 
L 430.472727 365.382 
L 430.472727 362.664 
L 430.472727 359.946 
L 430.472727 357.228 
L 430.472727 354.51 
L 430.472727 351.792 
L 430.472727 349.074 
L 430.472727 346.356 
L 430.472727 343.638 
L 430.472727 340.92 
L 430.472727 338.202 
L 430.472727 335.484 
L 430.472727 332.766 
L 430.472727 330.048 
L 430.472727 327.33 
L 430.472727 324.612 
L 430.472727 321.894 
L 430.472727 319.176 
L 430.472727 316.458 
" clip-path="url(#p946fddca40)" style="fill: none; stroke: #000000; stroke-width: 1.5; stroke-linecap: square"/>
   </g>
   <g id="patch_3">
    <path d="M 72 504 
L 72 69.12 
" style="fill: none; stroke: #000000; stroke-width: 0.8; stroke-linejoin: miter; stroke-linecap: square"/>
   </g>
   <g id="patch_4">
    <path d="M 518.4 504 
L 518.4 69.12 
" style="fill: none; stroke: #000000; stroke-width: 0.8; stroke-linejoin: miter; stroke-linecap: square"/>
   </g>
   <g id="patch_5">
    <path d="M 72 504 
L 518.4 504 
" style="fill: none; stroke: #000000; stroke-width: 0.8; stroke-linejoin: miter; stroke-linecap: square"/>
   </g>
   <g id="patch_6">
    <path d="M 72 69.12 
L 518.4 69.12 
" style="fill: none; stroke: #000000; stroke-width: 0.8; stroke-linejoin: miter; stroke-linecap: square"/>
   </g>
   <g id="text_15">
    <!-- 500 ms -->
    <g transform="translate(497.973818 406.152)scale(0.22 -0.22)">
     <defs>
      <path id="ArialMT-35" d="M 266 1200 
L 856 1250 
Q 922 819 1161 601 
Q 1400 384 1738 384 
Q 2144 384 2425 690 
Q 2706 997 2706 1503 
Q 2706 1984 2436 2262 
Q 2166 2541 1728 2541 
Q 1456 2541 1237 2417 
Q 1019 2294 894 2097 
L 366 2166 
L 809 4519 
L 3088 4519 
L 3088 3981 
L 1259 3981 
L 1013 2750 
Q 1425 3038 1878 3038 
Q 2478 3038 2890 2622 
Q 3303 2206 3303 1553 
Q 3303 931 2941 478 
Q 2500 -78 1738 -78 
Q 1113 -78 717 272 
Q 322 622 266 1200 
z
" transform="scale(0.015625)"/>
      <path id="ArialMT-30" d="M 266 2259 
Q 266 3072 433 3567 
Q 600 4063 929 4331 
Q 1259 4600 1759 4600 
Q 2128 4600 2406 4451 
Q 2684 4303 2865 4023 
Q 3047 3744 3150 3342 
Q 3253 2941 3253 2259 
Q 3253 1453 3087 958 
Q 2922 463 2592 192 
Q 2263 -78 1759 -78 
Q 1097 -78 719 397 
Q 266 969 266 2259 
z
M 844 2259 
Q 844 1131 1108 757 
Q 1372 384 1759 384 
Q 2147 384 2411 759 
Q 2675 1134 2675 2259 
Q 2675 3391 2411 3762 
Q 2147 4134 1753 4134 
Q 1366 4134 1134 3806 
Q 844 3388 844 2259 
z
" transform="scale(0.015625)"/>
     </defs>
     <use xlink:href="#ArialMT-35"/>
     <use xlink:href="#ArialMT-30" x="55.615234"/>
     <use xlink:href="#ArialMT-30" x="111.230469"/>
     <use xlink:href="#ArialMT-20" x="166.845703"/>
     <use xlink:href="#ArialMT-6d" x="194.628906"/>
     <use xlink:href="#ArialMT-73" x="277.929688"/>
    </g>
   </g>
   <g id="text_16">
    <!-- 20 mV -->
    <g transform="translate(504.737455 321.894)scale(0.22 -0.22)">
     <defs>
      <path id="ArialMT-32" d="M 3222 541 
L 3222 0 
L 194 0 
Q 188 203 259 391 
Q 375 700 629 1000 
Q 884 1300 1366 1694 
Q 2113 2306 2375 2664 
Q 2638 3022 2638 3341 
Q 2638 3675 2398 3904 
Q 2159 4134 1775 4134 
Q 1369 4134 1125 3890 
Q 881 3647 878 3216 
L 300 3275 
Q 359 3922 746 4261 
Q 1134 4600 1788 4600 
Q 2447 4600 2831 4234 
Q 3216 3869 3216 3328 
Q 3216 3053 3103 2787 
Q 2991 2522 2730 2228 
Q 2469 1934 1863 1422 
Q 1356 997 1212 845 
Q 1069 694 975 541 
L 3222 541 
z
" transform="scale(0.015625)"/>
     </defs>
     <use xlink:href="#ArialMT-32"/>
     <use xlink:href="#ArialMT-30" x="55.615234"/>
     <use xlink:href="#ArialMT-20" x="111.230469"/>
     <use xlink:href="#ArialMT-6d" x="139.013672"/>
     <use xlink:href="#ArialMT-56" x="222.314453"/>
    </g>
   </g>
   <g id="text_17">
    <!--  Plotting dSPN, trace number 8200  -->
    <g transform="translate(122.17 63.12)scale(0.22 -0.22)">
     <defs>
      <path id="ArialMT-50" d="M 494 0 
L 494 4581 
L 2222 4581 
Q 2678 4581 2919 4538 
Q 3256 4481 3484 4323 
Q 3713 4166 3852 3881 
Q 3991 3597 3991 3256 
Q 3991 2672 3619 2267 
Q 3247 1863 2275 1863 
L 1100 1863 
L 1100 0 
L 494 0 
z
M 1100 2403 
L 2284 2403 
Q 2872 2403 3119 2622 
Q 3366 2841 3366 3238 
Q 3366 3525 3220 3729 
Q 3075 3934 2838 4000 
Q 2684 4041 2272 4041 
L 1100 4041 
L 1100 2403 
z
" transform="scale(0.015625)"/>
      <path id="ArialMT-67" d="M 319 -275 
L 866 -356 
Q 900 -609 1056 -725 
Q 1266 -881 1628 -881 
Q 2019 -881 2231 -725 
Q 2444 -569 2519 -288 
Q 2563 -116 2559 434 
Q 2191 0 1641 0 
Q 956 0 581 494 
Q 206 988 206 1678 
Q 206 2153 378 2554 
Q 550 2956 876 3175 
Q 1203 3394 1644 3394 
Q 2231 3394 2613 2919 
L 2613 3319 
L 3131 3319 
L 3131 450 
Q 3131 -325 2973 -648 
Q 2816 -972 2473 -1159 
Q 2131 -1347 1631 -1347 
Q 1038 -1347 672 -1080 
Q 306 -813 319 -275 
z
M 784 1719 
Q 784 1066 1043 766 
Q 1303 466 1694 466 
Q 2081 466 2343 764 
Q 2606 1063 2606 1700 
Q 2606 2309 2336 2618 
Q 2066 2928 1684 2928 
Q 1309 2928 1046 2623 
Q 784 2319 784 1719 
z
" transform="scale(0.015625)"/>
      <path id="ArialMT-64" d="M 2575 0 
L 2575 419 
Q 2259 -75 1647 -75 
Q 1250 -75 917 144 
Q 584 363 401 755 
Q 219 1147 219 1656 
Q 219 2153 384 2558 
Q 550 2963 881 3178 
Q 1213 3394 1622 3394 
Q 1922 3394 2156 3267 
Q 2391 3141 2538 2938 
L 2538 4581 
L 3097 4581 
L 3097 0 
L 2575 0 
z
M 797 1656 
Q 797 1019 1065 703 
Q 1334 388 1700 388 
Q 2069 388 2326 689 
Q 2584 991 2584 1609 
Q 2584 2291 2321 2609 
Q 2059 2928 1675 2928 
Q 1300 2928 1048 2622 
Q 797 2316 797 1656 
z
" transform="scale(0.015625)"/>
      <path id="ArialMT-53" d="M 288 1472 
L 859 1522 
Q 900 1178 1048 958 
Q 1197 738 1509 602 
Q 1822 466 2213 466 
Q 2559 466 2825 569 
Q 3091 672 3220 851 
Q 3350 1031 3350 1244 
Q 3350 1459 3225 1620 
Q 3100 1781 2813 1891 
Q 2628 1963 1997 2114 
Q 1366 2266 1113 2400 
Q 784 2572 623 2826 
Q 463 3081 463 3397 
Q 463 3744 659 4045 
Q 856 4347 1234 4503 
Q 1613 4659 2075 4659 
Q 2584 4659 2973 4495 
Q 3363 4331 3572 4012 
Q 3781 3694 3797 3291 
L 3216 3247 
Q 3169 3681 2898 3903 
Q 2628 4125 2100 4125 
Q 1550 4125 1298 3923 
Q 1047 3722 1047 3438 
Q 1047 3191 1225 3031 
Q 1400 2872 2139 2705 
Q 2878 2538 3153 2413 
Q 3553 2228 3743 1945 
Q 3934 1663 3934 1294 
Q 3934 928 3725 604 
Q 3516 281 3123 101 
Q 2731 -78 2241 -78 
Q 1619 -78 1198 103 
Q 778 284 539 648 
Q 300 1013 288 1472 
z
" transform="scale(0.015625)"/>
      <path id="ArialMT-4e" d="M 488 0 
L 488 4581 
L 1109 4581 
L 3516 984 
L 3516 4581 
L 4097 4581 
L 4097 0 
L 3475 0 
L 1069 3600 
L 1069 0 
L 488 0 
z
" transform="scale(0.015625)"/>
      <path id="ArialMT-2c" d="M 569 0 
L 569 641 
L 1209 641 
L 1209 0 
Q 1209 -353 1084 -570 
Q 959 -788 688 -906 
L 531 -666 
Q 709 -588 793 -436 
Q 878 -284 888 0 
L 569 0 
z
" transform="scale(0.015625)"/>
      <path id="ArialMT-63" d="M 2588 1216 
L 3141 1144 
Q 3050 572 2676 248 
Q 2303 -75 1759 -75 
Q 1078 -75 664 370 
Q 250 816 250 1647 
Q 250 2184 428 2587 
Q 606 2991 970 3192 
Q 1334 3394 1763 3394 
Q 2303 3394 2647 3120 
Q 2991 2847 3088 2344 
L 2541 2259 
Q 2463 2594 2264 2762 
Q 2066 2931 1784 2931 
Q 1359 2931 1093 2626 
Q 828 2322 828 1663 
Q 828 994 1084 691 
Q 1341 388 1753 388 
Q 2084 388 2306 591 
Q 2528 794 2588 1216 
z
" transform="scale(0.015625)"/>
      <path id="ArialMT-75" d="M 2597 0 
L 2597 488 
Q 2209 -75 1544 -75 
Q 1250 -75 995 37 
Q 741 150 617 320 
Q 494 491 444 738 
Q 409 903 409 1263 
L 409 3319 
L 972 3319 
L 972 1478 
Q 972 1038 1006 884 
Q 1059 663 1231 536 
Q 1403 409 1656 409 
Q 1909 409 2131 539 
Q 2353 669 2445 892 
Q 2538 1116 2538 1541 
L 2538 3319 
L 3100 3319 
L 3100 0 
L 2597 0 
z
" transform="scale(0.015625)"/>
      <path id="ArialMT-38" d="M 1131 2484 
Q 781 2613 612 2850 
Q 444 3088 444 3419 
Q 444 3919 803 4259 
Q 1163 4600 1759 4600 
Q 2359 4600 2725 4251 
Q 3091 3903 3091 3403 
Q 3091 3084 2923 2848 
Q 2756 2613 2416 2484 
Q 2838 2347 3058 2040 
Q 3278 1734 3278 1309 
Q 3278 722 2862 322 
Q 2447 -78 1769 -78 
Q 1091 -78 675 323 
Q 259 725 259 1325 
Q 259 1772 486 2073 
Q 713 2375 1131 2484 
z
M 1019 3438 
Q 1019 3113 1228 2906 
Q 1438 2700 1772 2700 
Q 2097 2700 2305 2904 
Q 2513 3109 2513 3406 
Q 2513 3716 2298 3927 
Q 2084 4138 1766 4138 
Q 1444 4138 1231 3931 
Q 1019 3725 1019 3438 
z
M 838 1322 
Q 838 1081 952 856 
Q 1066 631 1291 507 
Q 1516 384 1775 384 
Q 2178 384 2440 643 
Q 2703 903 2703 1303 
Q 2703 1709 2433 1975 
Q 2163 2241 1756 2241 
Q 1359 2241 1098 1978 
Q 838 1716 838 1322 
z
" transform="scale(0.015625)"/>
     </defs>
     <use xlink:href="#ArialMT-20"/>
     <use xlink:href="#ArialMT-50" x="27.783203"/>
     <use xlink:href="#ArialMT-6c" x="94.482422"/>
     <use xlink:href="#ArialMT-6f" x="116.699219"/>
     <use xlink:href="#ArialMT-74" x="172.314453"/>
     <use xlink:href="#ArialMT-74" x="200.097656"/>
     <use xlink:href="#ArialMT-69" x="227.880859"/>
     <use xlink:href="#ArialMT-6e" x="250.097656"/>
     <use xlink:href="#ArialMT-67" x="305.712891"/>
     <use xlink:href="#ArialMT-20" x="361.328125"/>
     <use xlink:href="#ArialMT-64" x="389.111328"/>
     <use xlink:href="#ArialMT-53" x="444.726562"/>
     <use xlink:href="#ArialMT-50" x="511.425781"/>
     <use xlink:href="#ArialMT-4e" x="578.125"/>
     <use xlink:href="#ArialMT-2c" x="650.341797"/>
     <use xlink:href="#ArialMT-20" x="678.125"/>
     <use xlink:href="#ArialMT-74" x="705.908203"/>
     <use xlink:href="#ArialMT-72" x="733.691406"/>
     <use xlink:href="#ArialMT-61" x="766.992188"/>
     <use xlink:href="#ArialMT-63" x="822.607422"/>
     <use xlink:href="#ArialMT-65" x="872.607422"/>
     <use xlink:href="#ArialMT-20" x="928.222656"/>
     <use xlink:href="#ArialMT-6e" x="956.005859"/>
     <use xlink:href="#ArialMT-75" x="1011.621094"/>
     <use xlink:href="#ArialMT-6d" x="1067.236328"/>
     <use xlink:href="#ArialMT-62" x="1150.537109"/>
     <use xlink:href="#ArialMT-65" x="1206.152344"/>
     <use xlink:href="#ArialMT-72" x="1261.767578"/>
     <use xlink:href="#ArialMT-20" x="1295.068359"/>
     <use xlink:href="#ArialMT-38" x="1322.851562"/>
     <use xlink:href="#ArialMT-32" x="1378.466797"/>
     <use xlink:href="#ArialMT-30" x="1434.082031"/>
     <use xlink:href="#ArialMT-30" x="1489.697266"/>
     <use xlink:href="#ArialMT-20" x="1545.3125"/>
    </g>
   </g>
  </g>
 </g>
 <defs>
  <clipPath id="p946fddca40">
   <rect x="72" y="69.12" width="446.4" height="434.88"/>
  </clipPath>
 </defs>
</svg>
