<?xml version="1.0" encoding="utf-8" standalone="no"?>
<!DOCTYPE svg PUBLIC "-//W3C//DTD SVG 1.1//EN"
  "http://www.w3.org/Graphics/SVG/1.1/DTD/svg11.dtd">
<svg xmlns:xlink="http://www.w3.org/1999/xlink" width="576pt" height="576pt" viewBox="0 0 576 576" xmlns="http://www.w3.org/2000/svg" version="1.1">
 <metadata>
  <rdf:RDF xmlns:dc="http://purl.org/dc/elements/1.1/" xmlns:cc="http://creativecommons.org/ns#" xmlns:rdf="http://www.w3.org/1999/02/22-rdf-syntax-ns#">
   <cc:Work>
    <dc:type rdf:resource="http://purl.org/dc/dcmitype/StillImage"/>
    <dc:date>2022-10-30T19:57:09.463895</dc:date>
    <dc:format>image/svg+xml</dc:format>
    <dc:creator>
     <cc:Agent>
      <dc:title>Matplotlib v3.5.2, https://matplotlib.org/</dc:title>
     </cc:Agent>
    </dc:creator>
   </cc:Work>
  </rdf:RDF>
 </metadata>
 <defs>
  <style type="text/css">*{stroke-linejoin: round; stroke-linecap: butt}</style>
 </defs>
 <g id="figure_1">
  <g id="patch_1">
   <path d="M 0 576 
L 576 576 
L 576 0 
L 0 0 
L 0 576 
z
" style="fill: none"/>
  </g>
  <g id="axes_1">
   <g id="patch_2">
    <path d="M 72 504 
L 518.4 504 
L 518.4 69.12 
L 72 69.12 
z
" style="fill: #ffffff"/>
   </g>
   <g id="matplotlib.axis_1">
    <g id="xtick_1">
     <g id="line2d_1">
      <defs>
       <path id="m359fb088b2" d="M 0 0 
L 0 3.5 
" style="stroke: #000000; stroke-width: 0.8"/>
      </defs>
      <g>
       <use xlink:href="#m359fb088b2" x="92.290909" y="504" style="stroke: #000000; stroke-width: 0.8"/>
      </g>
     </g>
     <g id="text_1">
      <!-- 0 -->
      <g transform="translate(85.292159 527.716563)scale(0.22 -0.22)">
       <defs>
        <path id="DejaVuSans-30" d="M 2034 4250 
Q 1547 4250 1301 3770 
Q 1056 3291 1056 2328 
Q 1056 1369 1301 889 
Q 1547 409 2034 409 
Q 2525 409 2770 889 
Q 3016 1369 3016 2328 
Q 3016 3291 2770 3770 
Q 2525 4250 2034 4250 
z
M 2034 4750 
Q 2819 4750 3233 4129 
Q 3647 3509 3647 2328 
Q 3647 1150 3233 529 
Q 2819 -91 2034 -91 
Q 1250 -91 836 529 
Q 422 1150 422 2328 
Q 422 3509 836 4129 
Q 1250 4750 2034 4750 
z
" transform="scale(0.015625)"/>
       </defs>
       <use xlink:href="#DejaVuSans-30"/>
      </g>
     </g>
    </g>
    <g id="xtick_2">
     <g id="line2d_2">
      <g>
       <use xlink:href="#m359fb088b2" x="227.563636" y="504" style="stroke: #000000; stroke-width: 0.8"/>
      </g>
     </g>
     <g id="text_2">
      <!-- 1000 -->
      <g transform="translate(199.568636 527.716563)scale(0.22 -0.22)">
       <defs>
        <path id="DejaVuSans-31" d="M 794 531 
L 1825 531 
L 1825 4091 
L 703 3866 
L 703 4441 
L 1819 4666 
L 2450 4666 
L 2450 531 
L 3481 531 
L 3481 0 
L 794 0 
L 794 531 
z
" transform="scale(0.015625)"/>
       </defs>
       <use xlink:href="#DejaVuSans-31"/>
       <use xlink:href="#DejaVuSans-30" x="63.623047"/>
       <use xlink:href="#DejaVuSans-30" x="127.246094"/>
       <use xlink:href="#DejaVuSans-30" x="190.869141"/>
      </g>
     </g>
    </g>
    <g id="xtick_3">
     <g id="line2d_3">
      <g>
       <use xlink:href="#m359fb088b2" x="362.836364" y="504" style="stroke: #000000; stroke-width: 0.8"/>
      </g>
     </g>
     <g id="text_3">
      <!-- 2000 -->
      <g transform="translate(334.841364 527.716563)scale(0.22 -0.22)">
       <defs>
        <path id="DejaVuSans-32" d="M 1228 531 
L 3431 531 
L 3431 0 
L 469 0 
L 469 531 
Q 828 903 1448 1529 
Q 2069 2156 2228 2338 
Q 2531 2678 2651 2914 
Q 2772 3150 2772 3378 
Q 2772 3750 2511 3984 
Q 2250 4219 1831 4219 
Q 1534 4219 1204 4116 
Q 875 4013 500 3803 
L 500 4441 
Q 881 4594 1212 4672 
Q 1544 4750 1819 4750 
Q 2544 4750 2975 4387 
Q 3406 4025 3406 3419 
Q 3406 3131 3298 2873 
Q 3191 2616 2906 2266 
Q 2828 2175 2409 1742 
Q 1991 1309 1228 531 
z
" transform="scale(0.015625)"/>
       </defs>
       <use xlink:href="#DejaVuSans-32"/>
       <use xlink:href="#DejaVuSans-30" x="63.623047"/>
       <use xlink:href="#DejaVuSans-30" x="127.246094"/>
       <use xlink:href="#DejaVuSans-30" x="190.869141"/>
      </g>
     </g>
    </g>
    <g id="xtick_4">
     <g id="line2d_4">
      <g>
       <use xlink:href="#m359fb088b2" x="498.109091" y="504" style="stroke: #000000; stroke-width: 0.8"/>
      </g>
     </g>
     <g id="text_4">
      <!-- 3000 -->
      <g transform="translate(470.114091 527.716563)scale(0.22 -0.22)">
       <defs>
        <path id="DejaVuSans-33" d="M 2597 2516 
Q 3050 2419 3304 2112 
Q 3559 1806 3559 1356 
Q 3559 666 3084 287 
Q 2609 -91 1734 -91 
Q 1441 -91 1130 -33 
Q 819 25 488 141 
L 488 750 
Q 750 597 1062 519 
Q 1375 441 1716 441 
Q 2309 441 2620 675 
Q 2931 909 2931 1356 
Q 2931 1769 2642 2001 
Q 2353 2234 1838 2234 
L 1294 2234 
L 1294 2753 
L 1863 2753 
Q 2328 2753 2575 2939 
Q 2822 3125 2822 3475 
Q 2822 3834 2567 4026 
Q 2313 4219 1838 4219 
Q 1578 4219 1281 4162 
Q 984 4106 628 3988 
L 628 4550 
Q 988 4650 1302 4700 
Q 1616 4750 1894 4750 
Q 2613 4750 3031 4423 
Q 3450 4097 3450 3541 
Q 3450 3153 3228 2886 
Q 3006 2619 2597 2516 
z
" transform="scale(0.015625)"/>
       </defs>
       <use xlink:href="#DejaVuSans-33"/>
       <use xlink:href="#DejaVuSans-30" x="63.623047"/>
       <use xlink:href="#DejaVuSans-30" x="127.246094"/>
       <use xlink:href="#DejaVuSans-30" x="190.869141"/>
      </g>
     </g>
    </g>
    <g id="text_5">
     <!-- Time(ms) -->
     <g transform="translate(249.182187 552.307188)scale(0.22 -0.22)">
      <defs>
       <path id="ArialMT-54" d="M 1659 0 
L 1659 4041 
L 150 4041 
L 150 4581 
L 3781 4581 
L 3781 4041 
L 2266 4041 
L 2266 0 
L 1659 0 
z
" transform="scale(0.015625)"/>
       <path id="ArialMT-69" d="M 425 3934 
L 425 4581 
L 988 4581 
L 988 3934 
L 425 3934 
z
M 425 0 
L 425 3319 
L 988 3319 
L 988 0 
L 425 0 
z
" transform="scale(0.015625)"/>
       <path id="ArialMT-6d" d="M 422 0 
L 422 3319 
L 925 3319 
L 925 2853 
Q 1081 3097 1340 3245 
Q 1600 3394 1931 3394 
Q 2300 3394 2536 3241 
Q 2772 3088 2869 2813 
Q 3263 3394 3894 3394 
Q 4388 3394 4653 3120 
Q 4919 2847 4919 2278 
L 4919 0 
L 4359 0 
L 4359 2091 
Q 4359 2428 4304 2576 
Q 4250 2725 4106 2815 
Q 3963 2906 3769 2906 
Q 3419 2906 3187 2673 
Q 2956 2441 2956 1928 
L 2956 0 
L 2394 0 
L 2394 2156 
Q 2394 2531 2256 2718 
Q 2119 2906 1806 2906 
Q 1569 2906 1367 2781 
Q 1166 2656 1075 2415 
Q 984 2175 984 1722 
L 984 0 
L 422 0 
z
" transform="scale(0.015625)"/>
       <path id="ArialMT-65" d="M 2694 1069 
L 3275 997 
Q 3138 488 2766 206 
Q 2394 -75 1816 -75 
Q 1088 -75 661 373 
Q 234 822 234 1631 
Q 234 2469 665 2931 
Q 1097 3394 1784 3394 
Q 2450 3394 2872 2941 
Q 3294 2488 3294 1666 
Q 3294 1616 3291 1516 
L 816 1516 
Q 847 969 1125 678 
Q 1403 388 1819 388 
Q 2128 388 2347 550 
Q 2566 713 2694 1069 
z
M 847 1978 
L 2700 1978 
Q 2663 2397 2488 2606 
Q 2219 2931 1791 2931 
Q 1403 2931 1139 2672 
Q 875 2413 847 1978 
z
" transform="scale(0.015625)"/>
       <path id="ArialMT-28" d="M 1497 -1347 
Q 1031 -759 709 28 
Q 388 816 388 1659 
Q 388 2403 628 3084 
Q 909 3875 1497 4659 
L 1900 4659 
Q 1522 4009 1400 3731 
Q 1209 3300 1100 2831 
Q 966 2247 966 1656 
Q 966 153 1900 -1347 
L 1497 -1347 
z
" transform="scale(0.015625)"/>
       <path id="ArialMT-73" d="M 197 991 
L 753 1078 
Q 800 744 1014 566 
Q 1228 388 1613 388 
Q 2000 388 2187 545 
Q 2375 703 2375 916 
Q 2375 1106 2209 1216 
Q 2094 1291 1634 1406 
Q 1016 1563 777 1677 
Q 538 1791 414 1992 
Q 291 2194 291 2438 
Q 291 2659 392 2848 
Q 494 3038 669 3163 
Q 800 3259 1026 3326 
Q 1253 3394 1513 3394 
Q 1903 3394 2198 3281 
Q 2494 3169 2634 2976 
Q 2775 2784 2828 2463 
L 2278 2388 
Q 2241 2644 2061 2787 
Q 1881 2931 1553 2931 
Q 1166 2931 1000 2803 
Q 834 2675 834 2503 
Q 834 2394 903 2306 
Q 972 2216 1119 2156 
Q 1203 2125 1616 2013 
Q 2213 1853 2448 1751 
Q 2684 1650 2818 1456 
Q 2953 1263 2953 975 
Q 2953 694 2789 445 
Q 2625 197 2315 61 
Q 2006 -75 1616 -75 
Q 969 -75 630 194 
Q 291 463 197 991 
z
" transform="scale(0.015625)"/>
       <path id="ArialMT-29" d="M 791 -1347 
L 388 -1347 
Q 1322 153 1322 1656 
Q 1322 2244 1188 2822 
Q 1081 3291 891 3722 
Q 769 4003 388 4659 
L 791 4659 
Q 1378 3875 1659 3084 
Q 1900 2403 1900 1659 
Q 1900 816 1576 28 
Q 1253 -759 791 -1347 
z
" transform="scale(0.015625)"/>
      </defs>
      <use xlink:href="#ArialMT-54"/>
      <use xlink:href="#ArialMT-69" x="57.333984"/>
      <use xlink:href="#ArialMT-6d" x="79.550781"/>
      <use xlink:href="#ArialMT-65" x="162.851562"/>
      <use xlink:href="#ArialMT-28" x="218.466797"/>
      <use xlink:href="#ArialMT-6d" x="251.767578"/>
      <use xlink:href="#ArialMT-73" x="335.068359"/>
      <use xlink:href="#ArialMT-29" x="385.068359"/>
     </g>
    </g>
   </g>
   <g id="matplotlib.axis_2">
    <g id="ytick_1">
     <g id="line2d_5">
      <defs>
       <path id="m161bc34a0f" d="M 0 0 
L -3.5 0 
" style="stroke: #000000; stroke-width: 0.8"/>
      </defs>
      <g>
       <use xlink:href="#m161bc34a0f" x="72" y="476.82" style="stroke: #000000; stroke-width: 0.8"/>
      </g>
     </g>
     <g id="text_6">
      <!-- −100 -->
      <g transform="translate(4.572187 485.178281)scale(0.22 -0.22)">
       <defs>
        <path id="DejaVuSans-2212" d="M 678 2272 
L 4684 2272 
L 4684 1741 
L 678 1741 
L 678 2272 
z
" transform="scale(0.015625)"/>
       </defs>
       <use xlink:href="#DejaVuSans-2212"/>
       <use xlink:href="#DejaVuSans-31" x="83.789062"/>
       <use xlink:href="#DejaVuSans-30" x="147.412109"/>
       <use xlink:href="#DejaVuSans-30" x="211.035156"/>
      </g>
     </g>
    </g>
    <g id="ytick_2">
     <g id="line2d_6">
      <g>
       <use xlink:href="#m161bc34a0f" x="72" y="422.46" style="stroke: #000000; stroke-width: 0.8"/>
      </g>
     </g>
     <g id="text_7">
      <!-- −80 -->
      <g transform="translate(18.569688 430.818281)scale(0.22 -0.22)">
       <defs>
        <path id="DejaVuSans-38" d="M 2034 2216 
Q 1584 2216 1326 1975 
Q 1069 1734 1069 1313 
Q 1069 891 1326 650 
Q 1584 409 2034 409 
Q 2484 409 2743 651 
Q 3003 894 3003 1313 
Q 3003 1734 2745 1975 
Q 2488 2216 2034 2216 
z
M 1403 2484 
Q 997 2584 770 2862 
Q 544 3141 544 3541 
Q 544 4100 942 4425 
Q 1341 4750 2034 4750 
Q 2731 4750 3128 4425 
Q 3525 4100 3525 3541 
Q 3525 3141 3298 2862 
Q 3072 2584 2669 2484 
Q 3125 2378 3379 2068 
Q 3634 1759 3634 1313 
Q 3634 634 3220 271 
Q 2806 -91 2034 -91 
Q 1263 -91 848 271 
Q 434 634 434 1313 
Q 434 1759 690 2068 
Q 947 2378 1403 2484 
z
M 1172 3481 
Q 1172 3119 1398 2916 
Q 1625 2713 2034 2713 
Q 2441 2713 2670 2916 
Q 2900 3119 2900 3481 
Q 2900 3844 2670 4047 
Q 2441 4250 2034 4250 
Q 1625 4250 1398 4047 
Q 1172 3844 1172 3481 
z
" transform="scale(0.015625)"/>
       </defs>
       <use xlink:href="#DejaVuSans-2212"/>
       <use xlink:href="#DejaVuSans-38" x="83.789062"/>
       <use xlink:href="#DejaVuSans-30" x="147.412109"/>
      </g>
     </g>
    </g>
    <g id="ytick_3">
     <g id="line2d_7">
      <g>
       <use xlink:href="#m161bc34a0f" x="72" y="368.1" style="stroke: #000000; stroke-width: 0.8"/>
      </g>
     </g>
     <g id="text_8">
      <!-- −60 -->
      <g transform="translate(18.569688 376.458281)scale(0.22 -0.22)">
       <defs>
        <path id="DejaVuSans-36" d="M 2113 2584 
Q 1688 2584 1439 2293 
Q 1191 2003 1191 1497 
Q 1191 994 1439 701 
Q 1688 409 2113 409 
Q 2538 409 2786 701 
Q 3034 994 3034 1497 
Q 3034 2003 2786 2293 
Q 2538 2584 2113 2584 
z
M 3366 4563 
L 3366 3988 
Q 3128 4100 2886 4159 
Q 2644 4219 2406 4219 
Q 1781 4219 1451 3797 
Q 1122 3375 1075 2522 
Q 1259 2794 1537 2939 
Q 1816 3084 2150 3084 
Q 2853 3084 3261 2657 
Q 3669 2231 3669 1497 
Q 3669 778 3244 343 
Q 2819 -91 2113 -91 
Q 1303 -91 875 529 
Q 447 1150 447 2328 
Q 447 3434 972 4092 
Q 1497 4750 2381 4750 
Q 2619 4750 2861 4703 
Q 3103 4656 3366 4563 
z
" transform="scale(0.015625)"/>
       </defs>
       <use xlink:href="#DejaVuSans-2212"/>
       <use xlink:href="#DejaVuSans-36" x="83.789062"/>
       <use xlink:href="#DejaVuSans-30" x="147.412109"/>
      </g>
     </g>
    </g>
    <g id="ytick_4">
     <g id="line2d_8">
      <g>
       <use xlink:href="#m161bc34a0f" x="72" y="313.74" style="stroke: #000000; stroke-width: 0.8"/>
      </g>
     </g>
     <g id="text_9">
      <!-- −40 -->
      <g transform="translate(18.569688 322.098281)scale(0.22 -0.22)">
       <defs>
        <path id="DejaVuSans-34" d="M 2419 4116 
L 825 1625 
L 2419 1625 
L 2419 4116 
z
M 2253 4666 
L 3047 4666 
L 3047 1625 
L 3713 1625 
L 3713 1100 
L 3047 1100 
L 3047 0 
L 2419 0 
L 2419 1100 
L 313 1100 
L 313 1709 
L 2253 4666 
z
" transform="scale(0.015625)"/>
       </defs>
       <use xlink:href="#DejaVuSans-2212"/>
       <use xlink:href="#DejaVuSans-34" x="83.789062"/>
       <use xlink:href="#DejaVuSans-30" x="147.412109"/>
      </g>
     </g>
    </g>
    <g id="ytick_5">
     <g id="line2d_9">
      <g>
       <use xlink:href="#m161bc34a0f" x="72" y="259.38" style="stroke: #000000; stroke-width: 0.8"/>
      </g>
     </g>
     <g id="text_10">
      <!-- −20 -->
      <g transform="translate(18.569688 267.738281)scale(0.22 -0.22)">
       <use xlink:href="#DejaVuSans-2212"/>
       <use xlink:href="#DejaVuSans-32" x="83.789062"/>
       <use xlink:href="#DejaVuSans-30" x="147.412109"/>
      </g>
     </g>
    </g>
    <g id="ytick_6">
     <g id="line2d_10">
      <g>
       <use xlink:href="#m161bc34a0f" x="72" y="205.02" style="stroke: #000000; stroke-width: 0.8"/>
      </g>
     </g>
     <g id="text_11">
      <!-- 0 -->
      <g transform="translate(51.0025 213.378281)scale(0.22 -0.22)">
       <use xlink:href="#DejaVuSans-30"/>
      </g>
     </g>
    </g>
    <g id="ytick_7">
     <g id="line2d_11">
      <g>
       <use xlink:href="#m161bc34a0f" x="72" y="150.66" style="stroke: #000000; stroke-width: 0.8"/>
      </g>
     </g>
     <g id="text_12">
      <!-- 20 -->
      <g transform="translate(37.005 159.018281)scale(0.22 -0.22)">
       <use xlink:href="#DejaVuSans-32"/>
       <use xlink:href="#DejaVuSans-30" x="63.623047"/>
      </g>
     </g>
    </g>
    <g id="ytick_8">
     <g id="line2d_12">
      <g>
       <use xlink:href="#m161bc34a0f" x="72" y="96.3" style="stroke: #000000; stroke-width: 0.8"/>
      </g>
     </g>
     <g id="text_13">
      <!-- 40 -->
      <g transform="translate(37.005 104.658281)scale(0.22 -0.22)">
       <use xlink:href="#DejaVuSans-34"/>
       <use xlink:href="#DejaVuSans-30" x="63.623047"/>
      </g>
     </g>
    </g>
    <g id="text_14">
     <!-- Membrane potential (mV) -->
     <g transform="translate(-4.058125 410.655469)rotate(-90)scale(0.22 -0.22)">
      <defs>
       <path id="ArialMT-4d" d="M 475 0 
L 475 4581 
L 1388 4581 
L 2472 1338 
Q 2622 884 2691 659 
Q 2769 909 2934 1394 
L 4031 4581 
L 4847 4581 
L 4847 0 
L 4263 0 
L 4263 3834 
L 2931 0 
L 2384 0 
L 1059 3900 
L 1059 0 
L 475 0 
z
" transform="scale(0.015625)"/>
       <path id="ArialMT-62" d="M 941 0 
L 419 0 
L 419 4581 
L 981 4581 
L 981 2947 
Q 1338 3394 1891 3394 
Q 2197 3394 2470 3270 
Q 2744 3147 2920 2923 
Q 3097 2700 3197 2384 
Q 3297 2069 3297 1709 
Q 3297 856 2875 390 
Q 2453 -75 1863 -75 
Q 1275 -75 941 416 
L 941 0 
z
M 934 1684 
Q 934 1088 1097 822 
Q 1363 388 1816 388 
Q 2184 388 2453 708 
Q 2722 1028 2722 1663 
Q 2722 2313 2464 2622 
Q 2206 2931 1841 2931 
Q 1472 2931 1203 2611 
Q 934 2291 934 1684 
z
" transform="scale(0.015625)"/>
       <path id="ArialMT-72" d="M 416 0 
L 416 3319 
L 922 3319 
L 922 2816 
Q 1116 3169 1280 3281 
Q 1444 3394 1641 3394 
Q 1925 3394 2219 3213 
L 2025 2691 
Q 1819 2813 1613 2813 
Q 1428 2813 1281 2702 
Q 1134 2591 1072 2394 
Q 978 2094 978 1738 
L 978 0 
L 416 0 
z
" transform="scale(0.015625)"/>
       <path id="ArialMT-61" d="M 2588 409 
Q 2275 144 1986 34 
Q 1697 -75 1366 -75 
Q 819 -75 525 192 
Q 231 459 231 875 
Q 231 1119 342 1320 
Q 453 1522 633 1644 
Q 813 1766 1038 1828 
Q 1203 1872 1538 1913 
Q 2219 1994 2541 2106 
Q 2544 2222 2544 2253 
Q 2544 2597 2384 2738 
Q 2169 2928 1744 2928 
Q 1347 2928 1158 2789 
Q 969 2650 878 2297 
L 328 2372 
Q 403 2725 575 2942 
Q 747 3159 1072 3276 
Q 1397 3394 1825 3394 
Q 2250 3394 2515 3294 
Q 2781 3194 2906 3042 
Q 3031 2891 3081 2659 
Q 3109 2516 3109 2141 
L 3109 1391 
Q 3109 606 3145 398 
Q 3181 191 3288 0 
L 2700 0 
Q 2613 175 2588 409 
z
M 2541 1666 
Q 2234 1541 1622 1453 
Q 1275 1403 1131 1340 
Q 988 1278 909 1158 
Q 831 1038 831 891 
Q 831 666 1001 516 
Q 1172 366 1500 366 
Q 1825 366 2078 508 
Q 2331 650 2450 897 
Q 2541 1088 2541 1459 
L 2541 1666 
z
" transform="scale(0.015625)"/>
       <path id="ArialMT-6e" d="M 422 0 
L 422 3319 
L 928 3319 
L 928 2847 
Q 1294 3394 1984 3394 
Q 2284 3394 2536 3286 
Q 2788 3178 2913 3003 
Q 3038 2828 3088 2588 
Q 3119 2431 3119 2041 
L 3119 0 
L 2556 0 
L 2556 2019 
Q 2556 2363 2490 2533 
Q 2425 2703 2258 2804 
Q 2091 2906 1866 2906 
Q 1506 2906 1245 2678 
Q 984 2450 984 1813 
L 984 0 
L 422 0 
z
" transform="scale(0.015625)"/>
       <path id="ArialMT-20" transform="scale(0.015625)"/>
       <path id="ArialMT-70" d="M 422 -1272 
L 422 3319 
L 934 3319 
L 934 2888 
Q 1116 3141 1344 3267 
Q 1572 3394 1897 3394 
Q 2322 3394 2647 3175 
Q 2972 2956 3137 2557 
Q 3303 2159 3303 1684 
Q 3303 1175 3120 767 
Q 2938 359 2589 142 
Q 2241 -75 1856 -75 
Q 1575 -75 1351 44 
Q 1128 163 984 344 
L 984 -1272 
L 422 -1272 
z
M 931 1641 
Q 931 1000 1190 694 
Q 1450 388 1819 388 
Q 2194 388 2461 705 
Q 2728 1022 2728 1688 
Q 2728 2322 2467 2637 
Q 2206 2953 1844 2953 
Q 1484 2953 1207 2617 
Q 931 2281 931 1641 
z
" transform="scale(0.015625)"/>
       <path id="ArialMT-6f" d="M 213 1659 
Q 213 2581 725 3025 
Q 1153 3394 1769 3394 
Q 2453 3394 2887 2945 
Q 3322 2497 3322 1706 
Q 3322 1066 3130 698 
Q 2938 331 2570 128 
Q 2203 -75 1769 -75 
Q 1072 -75 642 372 
Q 213 819 213 1659 
z
M 791 1659 
Q 791 1022 1069 705 
Q 1347 388 1769 388 
Q 2188 388 2466 706 
Q 2744 1025 2744 1678 
Q 2744 2294 2464 2611 
Q 2184 2928 1769 2928 
Q 1347 2928 1069 2612 
Q 791 2297 791 1659 
z
" transform="scale(0.015625)"/>
       <path id="ArialMT-74" d="M 1650 503 
L 1731 6 
Q 1494 -44 1306 -44 
Q 1000 -44 831 53 
Q 663 150 594 308 
Q 525 466 525 972 
L 525 2881 
L 113 2881 
L 113 3319 
L 525 3319 
L 525 4141 
L 1084 4478 
L 1084 3319 
L 1650 3319 
L 1650 2881 
L 1084 2881 
L 1084 941 
Q 1084 700 1114 631 
Q 1144 563 1211 522 
Q 1278 481 1403 481 
Q 1497 481 1650 503 
z
" transform="scale(0.015625)"/>
       <path id="ArialMT-6c" d="M 409 0 
L 409 4581 
L 972 4581 
L 972 0 
L 409 0 
z
" transform="scale(0.015625)"/>
       <path id="ArialMT-56" d="M 1803 0 
L 28 4581 
L 684 4581 
L 1875 1253 
Q 2019 853 2116 503 
Q 2222 878 2363 1253 
L 3600 4581 
L 4219 4581 
L 2425 0 
L 1803 0 
z
" transform="scale(0.015625)"/>
      </defs>
      <use xlink:href="#ArialMT-4d"/>
      <use xlink:href="#ArialMT-65" x="83.300781"/>
      <use xlink:href="#ArialMT-6d" x="138.916016"/>
      <use xlink:href="#ArialMT-62" x="222.216797"/>
      <use xlink:href="#ArialMT-72" x="277.832031"/>
      <use xlink:href="#ArialMT-61" x="311.132812"/>
      <use xlink:href="#ArialMT-6e" x="366.748047"/>
      <use xlink:href="#ArialMT-65" x="422.363281"/>
      <use xlink:href="#ArialMT-20" x="477.978516"/>
      <use xlink:href="#ArialMT-70" x="505.761719"/>
      <use xlink:href="#ArialMT-6f" x="561.376953"/>
      <use xlink:href="#ArialMT-74" x="616.992188"/>
      <use xlink:href="#ArialMT-65" x="644.775391"/>
      <use xlink:href="#ArialMT-6e" x="700.390625"/>
      <use xlink:href="#ArialMT-74" x="756.005859"/>
      <use xlink:href="#ArialMT-69" x="783.789062"/>
      <use xlink:href="#ArialMT-61" x="806.005859"/>
      <use xlink:href="#ArialMT-6c" x="861.621094"/>
      <use xlink:href="#ArialMT-20" x="883.837891"/>
      <use xlink:href="#ArialMT-28" x="911.621094"/>
      <use xlink:href="#ArialMT-6d" x="944.921875"/>
      <use xlink:href="#ArialMT-56" x="1028.222656"/>
      <use xlink:href="#ArialMT-29" x="1094.921875"/>
     </g>
    </g>
   </g>
   <g id="line2d_13">
    <path d="M 92.290909 430.614 
L 92.493818 433.499832 
L 92.899636 434.6619 
L 93.440727 435.545199 
L 94.049455 436.139344 
L 94.793455 436.541713 
L 95.740364 436.785817 
L 97.296 436.923056 
L 101.218909 436.966718 
L 159.927273 436.968083 
L 160.130182 419.122314 
L 160.536 407.677042 
L 161.144727 396.899994 
L 162.024 385.393877 
L 163.985455 360.943573 
L 164.458909 351.592992 
L 164.797091 339.864078 
L 165 321.581807 
L 165.067636 300.526302 
L 165.135273 129.735898 
L 165.202909 150.866541 
L 165.405818 300.137001 
L 165.879273 376.099948 
L 166.149818 386.879895 
L 166.285091 387.594413 
L 166.420364 387.131373 
L 166.690909 384.70401 
L 167.434909 374.785864 
L 168.381818 363.54683 
L 169.058182 354.861018 
L 169.531636 345.688332 
L 169.802182 335.421347 
L 169.937455 323.987553 
L 170.005091 310.867387 
L 170.140364 131.87969 
L 170.208 200.567387 
L 170.410909 307.120918 
L 170.884364 379.483983 
L 171.154909 388.918191 
L 171.222545 389.316316 
L 171.290182 389.269865 
L 171.425455 388.274248 
L 171.831273 382.304569 
L 172.778182 368.427886 
L 174.536727 344.81849 
L 174.807273 336.397787 
L 175.010182 320.837932 
L 175.077818 305.609264 
L 175.213091 144.811905 
L 175.416 295.894502 
L 175.889455 376.063399 
L 176.16 387.721893 
L 176.295273 388.55443 
L 176.430545 387.89266 
L 176.701091 384.488239 
L 179.136 345.607617 
L 179.406545 335.482237 
L 179.541818 324.96483 
L 179.609455 313.776385 
L 179.677091 275.808131 
L 179.744727 127.497688 
L 179.812364 187.065392 
L 180.015273 306.199516 
L 180.421091 374.907039 
L 180.691636 387.053002 
L 180.826909 388.090324 
L 180.894545 388.019244 
L 181.097455 386.472996 
L 181.570909 379.78142 
L 182.923636 360.787 
L 183.6 349.985517 
L 183.938182 340.861724 
L 184.141091 329.161816 
L 184.276364 302.721302 
L 184.411636 148.746716 
L 184.614545 297.000483 
L 185.088 371.408159 
L 185.358545 384.622503 
L 185.561455 386.700765 
L 185.629091 386.682096 
L 185.764364 386.000684 
L 186.102545 382.166352 
L 187.996364 354.470217 
L 188.402182 345.475098 
L 188.672727 334.537419 
L 188.808 321.620731 
L 188.875636 304.551055 
L 189.010909 145.138666 
L 189.213818 297.156293 
L 189.687273 372.48802 
L 189.957818 384.238511 
L 190.160727 385.787812 
L 190.228364 385.709848 
L 190.431273 384.520228 
L 190.837091 379.786693 
L 192.595636 354.257424 
L 193.069091 343.826744 
L 193.272 335.661481 
L 193.407273 324.664538 
L 193.474909 312.401118 
L 193.542545 262.734665 
L 193.610182 128.74721 
L 193.677818 193.623832 
L 193.880727 304.703797 
L 194.354182 372.863081 
L 194.624727 384.635432 
L 194.827636 386.716568 
L 194.895273 386.668764 
L 195.030545 385.878114 
L 195.368727 381.764239 
L 197.465455 350.026554 
L 197.803636 340.263225 
L 198.006545 328.644293 
L 198.141818 304.546522 
L 198.277091 146.34639 
L 198.48 297.439974 
L 198.953455 375.247083 
L 199.224 385.970065 
L 199.359273 386.943674 
L 199.426909 386.935691 
L 199.562182 386.263623 
L 199.900364 382.395973 
L 201.929455 352.627555 
L 202.335273 342.046856 
L 202.538182 331.342301 
L 202.673455 311.46083 
L 202.808727 130.093548 
L 202.876364 197.95869 
L 203.079273 305.647616 
L 203.552727 373.582711 
L 203.823273 383.852767 
L 204.026182 385.155569 
L 204.161455 384.654136 
L 204.432 382.092858 
L 205.378909 369.56496 
L 206.528727 352.533326 
L 206.866909 344.513868 
L 207.137455 331.865892 
L 207.272727 318.922407 
L 207.340364 302.758221 
L 207.475636 152.982562 
L 207.678545 298.630397 
L 208.152 372.966624 
L 208.422545 383.554697 
L 208.625455 384.983376 
L 208.693091 384.901615 
L 208.896 383.647898 
L 209.301818 378.793552 
L 211.263273 350.831803 
L 211.601455 342.326643 
L 211.804364 333.028331 
L 211.939636 318.885321 
L 212.007273 297.778231 
L 212.074909 141.22043 
L 212.142545 159.153955 
L 212.345455 300.156226 
L 212.818909 375.738886 
L 213.089455 386.415439 
L 213.224727 387.402018 
L 213.292364 387.347174 
L 213.427636 386.533625 
L 213.765818 382.371715 
L 215.930182 349.426999 
L 216.268364 339.217476 
L 216.471273 325.830054 
L 216.538909 315.24964 
L 216.606545 282.49701 
L 216.674182 125.709298 
L 216.741818 179.868102 
L 216.944727 303.615719 
L 217.418182 375.061566 
L 217.688727 385.041153 
L 217.891636 386.198444 
L 218.026909 385.704224 
L 218.297455 383.100871 
L 219.176727 370.634858 
L 220.935273 344.357722 
L 221.205818 335.247862 
L 221.341091 325.602349 
L 221.408727 315.810952 
L 221.476364 288.885672 
L 221.544 131.53489 
L 221.611636 174.986846 
L 221.814545 300.524097 
L 222.288 369.899224 
L 222.558545 381.535433 
L 222.761455 383.395947 
L 222.829091 383.431662 
L 222.964364 383.021278 
L 223.234909 380.967697 
L 223.843636 373.795231 
L 225.264 354.798611 
L 225.669818 346.228217 
L 225.940364 336.000048 
L 226.075636 325.535145 
L 226.143273 314.490629 
L 226.210909 277.796265 
L 226.278545 125.821961 
L 226.346182 183.771454 
L 226.549091 304.266451 
L 227.022545 376.791368 
L 227.293091 386.793332 
L 227.428364 387.680484 
L 227.496 387.587979 
L 227.698909 386.01119 
L 228.24 378.307011 
L 230.404364 343.869245 
L 230.674909 332.564826 
L 230.810182 318.381703 
L 230.877818 296.997614 
L 230.945455 141.978612 
L 231.013091 161.418265 
L 231.216 299.927672 
L 231.689455 376.232572 
L 231.96 386.268835 
L 232.095273 386.990484 
L 232.230545 386.535592 
L 232.501091 383.82484 
L 233.786182 365.593956 
L 234.800727 349.645491 
L 235.138909 339.457193 
L 235.341818 325.55841 
L 235.409455 314.312369 
L 235.477091 275.798205 
L 235.544727 125.670692 
L 235.612364 184.990582 
L 235.815273 305.267845 
L 236.221091 373.178775 
L 236.491636 387.138389 
L 236.694545 388.624975 
L 236.829818 387.808057 
L 237.168 383.330846 
L 238.453091 364.928632 
L 239.332364 351.979433 
L 239.738182 342.671393 
L 239.941091 334.058444 
L 240.076364 321.713052 
L 240.144 306.14126 
L 240.279273 142.792286 
L 240.482182 295.383934 
L 240.955636 370.000937 
L 241.226182 383.310938 
L 241.429091 385.473645 
L 241.496727 385.516916 
L 241.632 385.012666 
L 241.902545 382.49586 
L 242.781818 370.532107 
L 243.999273 352.94417 
L 244.405091 343.110351 
L 244.608 333.856902 
L 244.743273 320.003115 
L 244.810909 300.01578 
L 244.878545 144.960668 
L 244.946182 154.057159 
L 245.149091 298.514597 
L 245.622545 373.529487 
L 245.893091 385.982401 
L 246.096 387.589761 
L 246.231273 387.027107 
L 246.501818 384.049197 
L 248.869091 349.495873 
L 249.139636 341.768098 
L 249.342545 330.593756 
L 249.477818 308.53567 
L 249.613091 136.281048 
L 249.883636 308.005614 
L 250.289455 370.078072 
L 250.56 383.566266 
L 250.762909 386.13825 
L 250.830545 386.270333 
L 250.965818 385.845193 
L 251.236364 383.234147 
L 252.656727 363.602137 
L 253.400727 352.654271 
L 253.806545 342.74812 
L 254.009455 333.390762 
L 254.144727 318.906133 
L 254.212364 296.45454 
L 254.28 133.357082 
L 254.347636 160.39254 
L 254.550545 299.348637 
L 255.024 371.043599 
L 255.294545 383.460633 
L 255.497455 385.687196 
L 255.565091 385.776985 
L 255.700364 385.324055 
L 255.970909 382.757492 
L 257.188364 366.131084 
L 258.202909 351.574235 
L 258.608727 341.624749 
L 258.811636 331.709441 
L 258.946909 314.761922 
L 259.014545 280.00546 
L 259.082182 125.98898 
L 259.149818 182.147049 
L 259.352727 303.619636 
L 259.826182 375.712816 
L 260.096727 386.146054 
L 260.232 387.203399 
L 260.299636 387.187816 
L 260.434909 386.441137 
L 260.773091 382.374606 
L 263.005091 348.644955 
L 263.343273 338.272295 
L 263.546182 323.344011 
L 263.613818 309.845071 
L 263.749091 134.27918 
L 263.816727 204.262485 
L 264.019636 307.525224 
L 264.425455 372.428701 
L 264.696 385.161108 
L 264.898909 386.742321 
L 265.034182 386.219974 
L 265.304727 383.449153 
L 266.725091 363.50913 
L 267.401455 352.519631 
L 267.739636 343.688945 
L 267.942545 333.953868 
L 268.077818 318.871317 
L 268.145455 294.369818 
L 268.213091 125.47231 
L 268.280727 162.038517 
L 268.483636 300.262012 
L 268.957091 370.988492 
L 269.227636 383.320147 
L 269.430545 385.774398 
L 269.498182 385.930244 
L 269.565818 385.852523 
L 269.701091 385.133062 
L 270.039273 381.334897 
L 272.000727 352.913514 
L 272.338909 344.748156 
L 272.541818 336.250434 
L 272.677091 324.869967 
L 272.744727 312.007303 
L 272.88 128.679415 
L 272.947636 195.72329 
L 273.150545 306.795814 
L 273.556364 372.407795 
L 273.826909 385.489499 
L 274.029818 387.210561 
L 274.097455 387.102428 
L 274.300364 385.670288 
L 274.773818 379.386493 
L 276.938182 346.292921 
L 277.208727 336.558796 
L 277.344 326.397529 
L 277.411636 315.909041 
L 277.479273 283.917729 
L 277.546909 124.231064 
L 277.614545 176.862574 
L 277.817455 302.518586 
L 278.290909 374.689745 
L 278.561455 385.239046 
L 278.764364 386.26589 
L 278.899636 385.657506 
L 279.170182 382.969754 
L 280.590545 363.735102 
L 281.334545 352.572069 
L 281.740364 343.663332 
L 282.010909 331.926902 
L 282.146182 316.205378 
L 282.213818 288.160216 
L 282.281455 127.804728 
L 282.349091 174.361325 
L 282.552 303.016212 
L 283.025455 376.98495 
L 283.296 386.671791 
L 283.431273 387.406202 
L 283.566545 386.888883 
L 283.837091 383.971556 
L 285.730909 356.607162 
L 286.204364 346.983443 
L 286.474909 337.038122 
L 286.610182 327.009332 
L 286.677818 316.910632 
L 286.745455 287.814911 
L 286.813091 123.713736 
L 286.880727 172.035196 
L 287.083636 302.595963 
L 287.557091 375.570369 
L 287.827636 385.910709 
L 288.030545 386.940671 
L 288.165818 386.270679 
L 288.504 382.432506 
L 290.600727 351.907479 
L 290.938909 343.19847 
L 291.141818 333.42915 
L 291.277091 318.002806 
L 291.344727 291.848063 
L 291.412364 124.625893 
L 291.48 166.344599 
L 291.682909 301.325206 
L 292.156364 373.102054 
L 292.426909 384.206204 
L 292.629818 385.860285 
L 292.697455 385.797025 
L 292.832727 385.083636 
L 293.170909 381.3762 
L 294.929455 356.65235 
L 295.402909 346.529438 
L 295.673455 335.676013 
L 295.808727 323.804011 
L 295.876364 309.77429 
L 296.011636 133.498974 
L 296.282182 307.242791 
L 296.688 369.508635 
L 296.958545 383.078617 
L 297.161455 385.495433 
L 297.229091 385.584556 
L 297.364364 385.133424 
L 297.634909 382.670637 
L 298.514182 370.836141 
L 299.799273 352.246238 
L 300.137455 344.336147 
L 300.408 332.259649 
L 300.543273 315.900546 
L 300.610909 284.62578 
L 300.678545 124.805691 
L 300.746182 176.623167 
L 300.949091 302.808149 
L 301.422545 375.120827 
L 301.693091 385.492728 
L 301.896 386.539372 
L 302.031273 385.885814 
L 302.369455 382.13476 
L 304.669091 349.1398 
L 305.007273 340.112164 
L 305.210182 328.933861 
L 305.345455 306.000192 
L 305.480727 143.199439 
L 305.683636 296.228079 
L 306.157091 375.447775 
L 306.427636 386.629466 
L 306.562909 387.615605 
L 306.630545 387.553676 
L 306.765818 386.726684 
L 307.104 382.51113 
L 309.403636 347.586581 
L 309.674182 338.501527 
L 309.877091 322.801373 
L 309.944727 307.924012 
L 310.08 137.976673 
L 310.282909 295.0324 
L 310.756364 373.303885 
L 311.026909 386.575254 
L 311.229818 388.231806 
L 311.365091 387.558841 
L 311.635636 384.295829 
L 313.935273 348.559128 
L 314.205818 340.609508 
L 314.408727 328.684276 
L 314.544 301.171827 
L 314.679273 152.162735 
L 314.882182 298.566878 
L 315.355636 375.087833 
L 315.626182 386.483955 
L 315.761455 387.521285 
L 315.829091 387.479784 
L 315.964364 386.681834 
L 316.302545 382.567738 
L 318.466909 349.993403 
L 318.805091 339.495037 
L 319.008 324.133019 
L 319.075636 310.101568 
L 319.210909 132.525624 
L 319.278545 203.24205 
L 319.481455 306.874612 
L 319.887273 367.998337 
L 320.157818 381.859486 
L 320.360727 384.811301 
L 320.496 385.071316 
L 320.631273 384.522855 
L 320.901818 381.974427 
L 321.916364 368.340931 
L 322.795636 355.212635 
L 323.201455 346.102201 
L 323.472 334.610385 
L 323.607273 320.954671 
L 323.674909 301.753032 
L 323.742545 148.105643 
L 323.810182 149.766405 
L 324.013091 297.757688 
L 324.486545 372.744168 
L 324.757091 385.013579 
L 324.96 386.681724 
L 325.027636 386.589309 
L 325.230545 385.222216 
L 325.636364 380.055956 
L 327.733091 348.518295 
L 328.003636 340.20484 
L 328.206545 327.115173 
L 328.274182 317.110573 
L 328.341818 288.751712 
L 328.409455 124.077279 
L 328.477091 170.92161 
L 328.68 302.018737 
L 329.153455 374.933231 
L 329.424 385.327995 
L 329.626909 386.453313 
L 329.762182 385.906509 
L 330.032727 383.236507 
L 331.114909 368.054083 
L 332.197091 352.140024 
L 332.602909 342.124417 
L 332.805818 332.331429 
L 332.941091 316.029988 
L 333.008727 285.064856 
L 333.076364 124.710404 
L 333.144 176.014104 
L 333.346909 302.319759 
L 333.820364 373.622197 
L 334.090909 384.679782 
L 334.293818 386.095112 
L 334.429091 385.587672 
L 334.699636 382.929811 
L 335.917091 366.250443 
L 336.796364 352.694797 
L 337.202182 343.346031 
L 337.405091 335.160889 
L 337.540364 324.220974 
L 337.608 312.069505 
L 337.675636 264.107998 
L 337.743273 129.98158 
L 337.810909 194.834793 
L 338.013818 306.814049 
L 338.419636 374.678765 
L 338.690182 387.494574 
L 338.825455 388.7166 
L 338.893091 388.662915 
L 339.028364 387.72018 
L 339.434182 381.995556 
L 341.666182 344.912457 
L 341.936727 333.634208 
L 342.072 320.252175 
L 342.139636 301.705625 
L 342.274909 151.580303 
L 342.477818 298.338913 
L 342.951273 374.049495 
L 343.221818 385.632692 
L 343.424727 387.117121 
L 343.56 386.58115 
L 343.830545 383.681098 
L 345.656727 357.265687 
L 346.130182 348.132602 
L 346.400727 339.448247 
L 346.603636 325.19198 
L 346.671273 313.221681 
L 346.738909 266.881615 
L 346.806545 126.90191 
L 346.874182 190.245174 
L 347.077091 305.228896 
L 347.482909 369.652 
L 347.753455 383.294537 
L 347.956364 385.467867 
L 348.024 385.511587 
L 348.159273 385.018306 
L 348.429818 382.568829 
L 349.241455 371.685524 
L 350.729455 350.724258 
L 351.067636 341.684098 
L 351.270545 330.752364 
L 351.405818 309.785622 
L 351.541091 133.741207 
L 351.608727 204.388771 
L 351.811636 307.413768 
L 352.217455 371.381978 
L 352.488 385.041538 
L 352.690909 387.118495 
L 352.758545 387.06714 
L 352.893818 386.297348 
L 353.232 382.257645 
L 355.734545 345.063151 
L 356.005091 334.689039 
L 356.140364 323.065628 
L 356.208 309.356915 
L 356.343273 135.474475 
L 356.410909 206.018633 
L 356.613818 306.739694 
L 357.087273 375.195055 
L 357.357818 385.75069 
L 357.560727 386.981627 
L 357.696 386.312628 
L 358.034182 382.306643 
L 360.130909 350.584999 
L 360.469091 341.593484 
L 360.672 330.720444 
L 360.807273 309.789402 
L 360.942545 133.816812 
L 361.010182 204.431338 
L 361.213091 306.729614 
L 361.686545 374.208273 
L 361.957091 384.724389 
L 362.16 386.248074 
L 362.227636 386.15531 
L 362.430545 384.773552 
L 362.904 378.573166 
L 364.933091 348.075306 
L 365.203636 339.5595 
L 365.406545 325.174065 
L 365.474182 312.90961 
L 365.541818 263.10269 
L 365.609455 127.268824 
L 365.677091 191.730703 
L 365.88 304.91849 
L 366.353455 373.980454 
L 366.624 384.650442 
L 366.826909 386.133454 
L 366.962182 385.72728 
L 367.232727 383.187046 
L 368.179636 370.042776 
L 369.667636 348.678439 
L 370.005818 338.361912 
L 370.208727 324.047094 
L 370.276364 311.878623 
L 370.344 263.744083 
L 370.411636 130.475579 
L 370.479273 195.651691 
L 370.682182 306.915912 
L 371.088 373.35765 
L 371.358545 385.619702 
L 371.561455 386.949613 
L 371.696727 386.345143 
L 371.967273 383.446183 
L 373.793455 357.490644 
L 374.266909 348.178014 
L 374.537455 339.364328 
L 374.740364 324.872958 
L 374.808 312.643256 
L 374.875636 263.235312 
L 374.943273 128.04031 
L 375.010909 192.921466 
L 375.213818 306.432072 
L 375.619636 373.055083 
L 375.890182 385.89526 
L 376.093091 387.388722 
L 376.228364 386.814549 
L 376.498909 383.913876 
L 378.730909 352.190209 
L 379.069091 344.167245 
L 379.272 335.474754 
L 379.407273 323.358588 
L 379.474909 308.660497 
L 379.610182 135.959737 
L 379.880727 307.416731 
L 380.286545 367.695761 
L 380.557091 381.107027 
L 380.76 383.944542 
L 380.895273 384.274661 
L 381.030545 383.878897 
L 381.301091 381.668001 
L 381.977455 372.911045 
L 383.465455 351.458979 
L 383.803636 342.936294 
L 384.006545 333.657745 
L 384.141818 320.368735 
L 384.209455 302.211378 
L 384.344727 150.722289 
L 384.547636 297.758796 
L 385.021091 372.844495 
L 385.291636 384.222054 
L 385.494545 385.57459 
L 385.629818 385.13879 
L 385.900364 382.707128 
L 386.712 371.828555 
L 388.335273 349.054272 
L 388.673455 340.656104 
L 388.876364 330.675166 
L 389.011636 312.824989 
L 389.079273 271.787958 
L 389.146909 129.38977 
L 389.214545 190.823615 
L 389.417455 303.903252 
L 389.890909 373.879055 
L 390.161455 384.359755 
L 390.364364 385.643056 
L 390.499636 385.207381 
L 390.770182 382.700582 
L 391.581818 371.425906 
L 392.866909 351.983573 
L 393.272727 341.926336 
L 393.475636 332.189494 
L 393.610909 316.161151 
L 393.678545 286.868853 
L 393.746182 126.017907 
L 393.813818 174.923933 
L 394.016727 303.762273 
L 394.490182 380.792504 
L 394.693091 388.984093 
L 394.828364 390.012626 
L 394.963636 389.263195 
L 395.301818 384.412002 
L 396.519273 365.82997 
L 397.398545 352.211097 
L 397.736727 344.304655 
L 397.939636 336.055821 
L 398.074909 324.965926 
L 398.142545 312.593074 
L 398.277818 128.064245 
L 398.345455 193.267195 
L 398.548364 305.302698 
L 399.021818 375.098427 
L 399.292364 385.74632 
L 399.495273 387.027852 
L 399.630545 386.44846 
L 399.901091 383.542759 
L 401.592 358.979961 
L 402.268364 346.456555 
L 402.538909 337.843326 
L 402.741818 323.407676 
L 402.809455 310.705907 
L 402.944727 133.159762 
L 403.012364 200.570965 
L 403.215273 305.345059 
L 403.688727 373.933219 
L 403.959273 383.967017 
L 404.162182 385.17248 
L 404.297455 384.757066 
L 404.568 382.397857 
L 405.447273 370.879267 
L 406.867636 351.056853 
L 407.205818 342.685989 
L 407.408727 333.711458 
L 407.544 320.292544 
L 407.611636 301.588771 
L 407.746909 151.71055 
L 407.949818 297.866519 
L 408.423273 373.332827 
L 408.693818 385.129992 
L 408.896727 386.613796 
L 409.032 386.109447 
L 409.302545 383.371108 
L 410.925818 360.769206 
L 411.534545 351.12665 
L 411.872727 342.492964 
L 412.075636 332.812004 
L 412.210909 317.423605 
L 412.278545 291.339113 
L 412.346182 126.871124 
L 412.413818 168.468571 
L 412.616727 301.482678 
L 413.090182 374.208548 
L 413.360727 385.00981 
L 413.563636 386.386798 
L 413.698909 385.963018 
L 413.969455 383.374437 
L 415.051636 368.146041 
L 416.336727 349.479297 
L 416.674909 340.578705 
L 416.877818 329.969842 
L 417.013091 309.783045 
L 417.148364 134.857572 
L 417.216 204.360372 
L 417.418909 306.543481 
L 417.892364 376.524834 
L 418.162909 386.358146 
L 418.298182 387.188858 
L 418.365818 387.080737 
L 418.568727 385.520564 
L 419.109818 377.981399 
L 421.138909 346.412375 
L 421.409455 336.132328 
L 421.544727 325.296365 
L 421.612364 313.533285 
L 421.68 269.554486 
L 421.747636 126.431642 
L 421.815273 188.690638 
L 422.018182 304.964224 
L 422.491636 375.872548 
L 422.762182 386.498534 
L 422.897455 387.567595 
L 422.965091 387.533608 
L 423.100364 386.729788 
L 423.438545 382.534969 
L 425.873455 345.107894 
L 426.144 333.548396 
L 426.279273 318.934353 
L 426.346909 296.130061 
L 426.414545 131.468122 
L 426.482182 160.5221 
L 426.685091 300.044684 
L 427.158545 373.000282 
L 427.429091 384.510551 
L 427.632 386.444253 
L 427.699636 386.436227 
L 427.834909 385.777971 
L 428.105455 382.864819 
L 429.999273 355.916613 
L 430.472727 346.911066 
L 430.743273 374.662756 
L 431.081455 388.705279 
L 431.554909 398.743803 
L 432.298909 409.036153 
L 433.245818 419.373112 
L 434.057455 426.031677 
L 434.801455 430.320179 
L 435.477818 432.952436 
L 436.154182 434.68956 
L 436.830545 435.808898 
L 437.506909 436.521861 
L 438.318545 437.042414 
L 439.265455 437.379865 
L 440.618182 437.605104 
L 442.782545 437.707392 
L 445.623273 437.627473 
L 448.666909 437.288927 
L 451.642909 437.061452 
L 456.242182 436.981226 
L 482.485091 436.967674 
L 498.109091 436.967732 
L 498.109091 436.967732 
" clip-path="url(#pb12f242c7e)" style="fill: none; stroke: #000000; stroke-width: 1.5; stroke-linecap: square"/>
   </g>
   <g id="line2d_14">
    <path d="M 497.973818 408.87 
" clip-path="url(#pb12f242c7e)" style="fill: none; stroke: #000000; stroke-width: 1.5; stroke-linecap: square"/>
   </g>
   <g id="line2d_15">
    <path d="M 430.472727 368.1 
L 430.472727 365.382 
L 430.472727 362.664 
L 430.472727 359.946 
L 430.472727 357.228 
L 430.472727 354.51 
L 430.472727 351.792 
L 430.472727 349.074 
L 430.472727 346.356 
L 430.472727 343.638 
L 430.472727 340.92 
L 430.472727 338.202 
L 430.472727 335.484 
L 430.472727 332.766 
L 430.472727 330.048 
L 430.472727 327.33 
L 430.472727 324.612 
L 430.472727 321.894 
L 430.472727 319.176 
L 430.472727 316.458 
" clip-path="url(#pb12f242c7e)" style="fill: none; stroke: #000000; stroke-width: 1.5; stroke-linecap: square"/>
   </g>
   <g id="patch_3">
    <path d="M 72 504 
L 72 69.12 
" style="fill: none; stroke: #000000; stroke-width: 0.8; stroke-linejoin: miter; stroke-linecap: square"/>
   </g>
   <g id="patch_4">
    <path d="M 518.4 504 
L 518.4 69.12 
" style="fill: none; stroke: #000000; stroke-width: 0.8; stroke-linejoin: miter; stroke-linecap: square"/>
   </g>
   <g id="patch_5">
    <path d="M 72 504 
L 518.4 504 
" style="fill: none; stroke: #000000; stroke-width: 0.8; stroke-linejoin: miter; stroke-linecap: square"/>
   </g>
   <g id="patch_6">
    <path d="M 72 69.12 
L 518.4 69.12 
" style="fill: none; stroke: #000000; stroke-width: 0.8; stroke-linejoin: miter; stroke-linecap: square"/>
   </g>
   <g id="text_15">
    <!-- 500 ms -->
    <g transform="translate(497.973818 406.152)scale(0.22 -0.22)">
     <defs>
      <path id="ArialMT-35" d="M 266 1200 
L 856 1250 
Q 922 819 1161 601 
Q 1400 384 1738 384 
Q 2144 384 2425 690 
Q 2706 997 2706 1503 
Q 2706 1984 2436 2262 
Q 2166 2541 1728 2541 
Q 1456 2541 1237 2417 
Q 1019 2294 894 2097 
L 366 2166 
L 809 4519 
L 3088 4519 
L 3088 3981 
L 1259 3981 
L 1013 2750 
Q 1425 3038 1878 3038 
Q 2478 3038 2890 2622 
Q 3303 2206 3303 1553 
Q 3303 931 2941 478 
Q 2500 -78 1738 -78 
Q 1113 -78 717 272 
Q 322 622 266 1200 
z
" transform="scale(0.015625)"/>
      <path id="ArialMT-30" d="M 266 2259 
Q 266 3072 433 3567 
Q 600 4063 929 4331 
Q 1259 4600 1759 4600 
Q 2128 4600 2406 4451 
Q 2684 4303 2865 4023 
Q 3047 3744 3150 3342 
Q 3253 2941 3253 2259 
Q 3253 1453 3087 958 
Q 2922 463 2592 192 
Q 2263 -78 1759 -78 
Q 1097 -78 719 397 
Q 266 969 266 2259 
z
M 844 2259 
Q 844 1131 1108 757 
Q 1372 384 1759 384 
Q 2147 384 2411 759 
Q 2675 1134 2675 2259 
Q 2675 3391 2411 3762 
Q 2147 4134 1753 4134 
Q 1366 4134 1134 3806 
Q 844 3388 844 2259 
z
" transform="scale(0.015625)"/>
     </defs>
     <use xlink:href="#ArialMT-35"/>
     <use xlink:href="#ArialMT-30" x="55.615234"/>
     <use xlink:href="#ArialMT-30" x="111.230469"/>
     <use xlink:href="#ArialMT-20" x="166.845703"/>
     <use xlink:href="#ArialMT-6d" x="194.628906"/>
     <use xlink:href="#ArialMT-73" x="277.929688"/>
    </g>
   </g>
   <g id="text_16">
    <!-- 20 mV -->
    <g transform="translate(504.737455 321.894)scale(0.22 -0.22)">
     <defs>
      <path id="ArialMT-32" d="M 3222 541 
L 3222 0 
L 194 0 
Q 188 203 259 391 
Q 375 700 629 1000 
Q 884 1300 1366 1694 
Q 2113 2306 2375 2664 
Q 2638 3022 2638 3341 
Q 2638 3675 2398 3904 
Q 2159 4134 1775 4134 
Q 1369 4134 1125 3890 
Q 881 3647 878 3216 
L 300 3275 
Q 359 3922 746 4261 
Q 1134 4600 1788 4600 
Q 2447 4600 2831 4234 
Q 3216 3869 3216 3328 
Q 3216 3053 3103 2787 
Q 2991 2522 2730 2228 
Q 2469 1934 1863 1422 
Q 1356 997 1212 845 
Q 1069 694 975 541 
L 3222 541 
z
" transform="scale(0.015625)"/>
     </defs>
     <use xlink:href="#ArialMT-32"/>
     <use xlink:href="#ArialMT-30" x="55.615234"/>
     <use xlink:href="#ArialMT-20" x="111.230469"/>
     <use xlink:href="#ArialMT-6d" x="139.013672"/>
     <use xlink:href="#ArialMT-56" x="222.314453"/>
    </g>
   </g>
   <g id="text_17">
    <!--  Plotting iSPN, trace number 18308  -->
    <g transform="translate(119.725937 63.12)scale(0.22 -0.22)">
     <defs>
      <path id="ArialMT-50" d="M 494 0 
L 494 4581 
L 2222 4581 
Q 2678 4581 2919 4538 
Q 3256 4481 3484 4323 
Q 3713 4166 3852 3881 
Q 3991 3597 3991 3256 
Q 3991 2672 3619 2267 
Q 3247 1863 2275 1863 
L 1100 1863 
L 1100 0 
L 494 0 
z
M 1100 2403 
L 2284 2403 
Q 2872 2403 3119 2622 
Q 3366 2841 3366 3238 
Q 3366 3525 3220 3729 
Q 3075 3934 2838 4000 
Q 2684 4041 2272 4041 
L 1100 4041 
L 1100 2403 
z
" transform="scale(0.015625)"/>
      <path id="ArialMT-67" d="M 319 -275 
L 866 -356 
Q 900 -609 1056 -725 
Q 1266 -881 1628 -881 
Q 2019 -881 2231 -725 
Q 2444 -569 2519 -288 
Q 2563 -116 2559 434 
Q 2191 0 1641 0 
Q 956 0 581 494 
Q 206 988 206 1678 
Q 206 2153 378 2554 
Q 550 2956 876 3175 
Q 1203 3394 1644 3394 
Q 2231 3394 2613 2919 
L 2613 3319 
L 3131 3319 
L 3131 450 
Q 3131 -325 2973 -648 
Q 2816 -972 2473 -1159 
Q 2131 -1347 1631 -1347 
Q 1038 -1347 672 -1080 
Q 306 -813 319 -275 
z
M 784 1719 
Q 784 1066 1043 766 
Q 1303 466 1694 466 
Q 2081 466 2343 764 
Q 2606 1063 2606 1700 
Q 2606 2309 2336 2618 
Q 2066 2928 1684 2928 
Q 1309 2928 1046 2623 
Q 784 2319 784 1719 
z
" transform="scale(0.015625)"/>
      <path id="ArialMT-53" d="M 288 1472 
L 859 1522 
Q 900 1178 1048 958 
Q 1197 738 1509 602 
Q 1822 466 2213 466 
Q 2559 466 2825 569 
Q 3091 672 3220 851 
Q 3350 1031 3350 1244 
Q 3350 1459 3225 1620 
Q 3100 1781 2813 1891 
Q 2628 1963 1997 2114 
Q 1366 2266 1113 2400 
Q 784 2572 623 2826 
Q 463 3081 463 3397 
Q 463 3744 659 4045 
Q 856 4347 1234 4503 
Q 1613 4659 2075 4659 
Q 2584 4659 2973 4495 
Q 3363 4331 3572 4012 
Q 3781 3694 3797 3291 
L 3216 3247 
Q 3169 3681 2898 3903 
Q 2628 4125 2100 4125 
Q 1550 4125 1298 3923 
Q 1047 3722 1047 3438 
Q 1047 3191 1225 3031 
Q 1400 2872 2139 2705 
Q 2878 2538 3153 2413 
Q 3553 2228 3743 1945 
Q 3934 1663 3934 1294 
Q 3934 928 3725 604 
Q 3516 281 3123 101 
Q 2731 -78 2241 -78 
Q 1619 -78 1198 103 
Q 778 284 539 648 
Q 300 1013 288 1472 
z
" transform="scale(0.015625)"/>
      <path id="ArialMT-4e" d="M 488 0 
L 488 4581 
L 1109 4581 
L 3516 984 
L 3516 4581 
L 4097 4581 
L 4097 0 
L 3475 0 
L 1069 3600 
L 1069 0 
L 488 0 
z
" transform="scale(0.015625)"/>
      <path id="ArialMT-2c" d="M 569 0 
L 569 641 
L 1209 641 
L 1209 0 
Q 1209 -353 1084 -570 
Q 959 -788 688 -906 
L 531 -666 
Q 709 -588 793 -436 
Q 878 -284 888 0 
L 569 0 
z
" transform="scale(0.015625)"/>
      <path id="ArialMT-63" d="M 2588 1216 
L 3141 1144 
Q 3050 572 2676 248 
Q 2303 -75 1759 -75 
Q 1078 -75 664 370 
Q 250 816 250 1647 
Q 250 2184 428 2587 
Q 606 2991 970 3192 
Q 1334 3394 1763 3394 
Q 2303 3394 2647 3120 
Q 2991 2847 3088 2344 
L 2541 2259 
Q 2463 2594 2264 2762 
Q 2066 2931 1784 2931 
Q 1359 2931 1093 2626 
Q 828 2322 828 1663 
Q 828 994 1084 691 
Q 1341 388 1753 388 
Q 2084 388 2306 591 
Q 2528 794 2588 1216 
z
" transform="scale(0.015625)"/>
      <path id="ArialMT-75" d="M 2597 0 
L 2597 488 
Q 2209 -75 1544 -75 
Q 1250 -75 995 37 
Q 741 150 617 320 
Q 494 491 444 738 
Q 409 903 409 1263 
L 409 3319 
L 972 3319 
L 972 1478 
Q 972 1038 1006 884 
Q 1059 663 1231 536 
Q 1403 409 1656 409 
Q 1909 409 2131 539 
Q 2353 669 2445 892 
Q 2538 1116 2538 1541 
L 2538 3319 
L 3100 3319 
L 3100 0 
L 2597 0 
z
" transform="scale(0.015625)"/>
      <path id="ArialMT-31" d="M 2384 0 
L 1822 0 
L 1822 3584 
Q 1619 3391 1289 3197 
Q 959 3003 697 2906 
L 697 3450 
Q 1169 3672 1522 3987 
Q 1875 4303 2022 4600 
L 2384 4600 
L 2384 0 
z
" transform="scale(0.015625)"/>
      <path id="ArialMT-38" d="M 1131 2484 
Q 781 2613 612 2850 
Q 444 3088 444 3419 
Q 444 3919 803 4259 
Q 1163 4600 1759 4600 
Q 2359 4600 2725 4251 
Q 3091 3903 3091 3403 
Q 3091 3084 2923 2848 
Q 2756 2613 2416 2484 
Q 2838 2347 3058 2040 
Q 3278 1734 3278 1309 
Q 3278 722 2862 322 
Q 2447 -78 1769 -78 
Q 1091 -78 675 323 
Q 259 725 259 1325 
Q 259 1772 486 2073 
Q 713 2375 1131 2484 
z
M 1019 3438 
Q 1019 3113 1228 2906 
Q 1438 2700 1772 2700 
Q 2097 2700 2305 2904 
Q 2513 3109 2513 3406 
Q 2513 3716 2298 3927 
Q 2084 4138 1766 4138 
Q 1444 4138 1231 3931 
Q 1019 3725 1019 3438 
z
M 838 1322 
Q 838 1081 952 856 
Q 1066 631 1291 507 
Q 1516 384 1775 384 
Q 2178 384 2440 643 
Q 2703 903 2703 1303 
Q 2703 1709 2433 1975 
Q 2163 2241 1756 2241 
Q 1359 2241 1098 1978 
Q 838 1716 838 1322 
z
" transform="scale(0.015625)"/>
      <path id="ArialMT-33" d="M 269 1209 
L 831 1284 
Q 928 806 1161 595 
Q 1394 384 1728 384 
Q 2125 384 2398 659 
Q 2672 934 2672 1341 
Q 2672 1728 2419 1979 
Q 2166 2231 1775 2231 
Q 1616 2231 1378 2169 
L 1441 2663 
Q 1497 2656 1531 2656 
Q 1891 2656 2178 2843 
Q 2466 3031 2466 3422 
Q 2466 3731 2256 3934 
Q 2047 4138 1716 4138 
Q 1388 4138 1169 3931 
Q 950 3725 888 3313 
L 325 3413 
Q 428 3978 793 4289 
Q 1159 4600 1703 4600 
Q 2078 4600 2393 4439 
Q 2709 4278 2876 4000 
Q 3044 3722 3044 3409 
Q 3044 3113 2884 2869 
Q 2725 2625 2413 2481 
Q 2819 2388 3044 2092 
Q 3269 1797 3269 1353 
Q 3269 753 2831 336 
Q 2394 -81 1725 -81 
Q 1122 -81 723 278 
Q 325 638 269 1209 
z
" transform="scale(0.015625)"/>
     </defs>
     <use xlink:href="#ArialMT-20"/>
     <use xlink:href="#ArialMT-50" x="27.783203"/>
     <use xlink:href="#ArialMT-6c" x="94.482422"/>
     <use xlink:href="#ArialMT-6f" x="116.699219"/>
     <use xlink:href="#ArialMT-74" x="172.314453"/>
     <use xlink:href="#ArialMT-74" x="200.097656"/>
     <use xlink:href="#ArialMT-69" x="227.880859"/>
     <use xlink:href="#ArialMT-6e" x="250.097656"/>
     <use xlink:href="#ArialMT-67" x="305.712891"/>
     <use xlink:href="#ArialMT-20" x="361.328125"/>
     <use xlink:href="#ArialMT-69" x="389.111328"/>
     <use xlink:href="#ArialMT-53" x="411.328125"/>
     <use xlink:href="#ArialMT-50" x="478.027344"/>
     <use xlink:href="#ArialMT-4e" x="544.726562"/>
     <use xlink:href="#ArialMT-2c" x="616.943359"/>
     <use xlink:href="#ArialMT-20" x="644.726562"/>
     <use xlink:href="#ArialMT-74" x="672.509766"/>
     <use xlink:href="#ArialMT-72" x="700.292969"/>
     <use xlink:href="#ArialMT-61" x="733.59375"/>
     <use xlink:href="#ArialMT-63" x="789.208984"/>
     <use xlink:href="#ArialMT-65" x="839.208984"/>
     <use xlink:href="#ArialMT-20" x="894.824219"/>
     <use xlink:href="#ArialMT-6e" x="922.607422"/>
     <use xlink:href="#ArialMT-75" x="978.222656"/>
     <use xlink:href="#ArialMT-6d" x="1033.837891"/>
     <use xlink:href="#ArialMT-62" x="1117.138672"/>
     <use xlink:href="#ArialMT-65" x="1172.753906"/>
     <use xlink:href="#ArialMT-72" x="1228.369141"/>
     <use xlink:href="#ArialMT-20" x="1261.669922"/>
     <use xlink:href="#ArialMT-31" x="1289.453125"/>
     <use xlink:href="#ArialMT-38" x="1345.068359"/>
     <use xlink:href="#ArialMT-33" x="1400.683594"/>
     <use xlink:href="#ArialMT-30" x="1456.298828"/>
     <use xlink:href="#ArialMT-38" x="1511.914062"/>
     <use xlink:href="#ArialMT-20" x="1567.529297"/>
    </g>
   </g>
  </g>
 </g>
 <defs>
  <clipPath id="pb12f242c7e">
   <rect x="72" y="69.12" width="446.4" height="434.88"/>
  </clipPath>
 </defs>
</svg>
