<?xml version="1.0" encoding="utf-8" standalone="no"?>
<!DOCTYPE svg PUBLIC "-//W3C//DTD SVG 1.1//EN"
  "http://www.w3.org/Graphics/SVG/1.1/DTD/svg11.dtd">
<svg xmlns:xlink="http://www.w3.org/1999/xlink" width="576pt" height="576pt" viewBox="0 0 576 576" xmlns="http://www.w3.org/2000/svg" version="1.1">
 <metadata>
  <rdf:RDF xmlns:dc="http://purl.org/dc/elements/1.1/" xmlns:cc="http://creativecommons.org/ns#" xmlns:rdf="http://www.w3.org/1999/02/22-rdf-syntax-ns#">
   <cc:Work>
    <dc:type rdf:resource="http://purl.org/dc/dcmitype/StillImage"/>
    <dc:date>2022-10-30T19:57:02.610651</dc:date>
    <dc:format>image/svg+xml</dc:format>
    <dc:creator>
     <cc:Agent>
      <dc:title>Matplotlib v3.5.2, https://matplotlib.org/</dc:title>
     </cc:Agent>
    </dc:creator>
   </cc:Work>
  </rdf:RDF>
 </metadata>
 <defs>
  <style type="text/css">*{stroke-linejoin: round; stroke-linecap: butt}</style>
 </defs>
 <g id="figure_1">
  <g id="patch_1">
   <path d="M 0 576 
L 576 576 
L 576 0 
L 0 0 
L 0 576 
z
" style="fill: none"/>
  </g>
  <g id="axes_1">
   <g id="patch_2">
    <path d="M 72 504 
L 518.4 504 
L 518.4 69.12 
L 72 69.12 
z
" style="fill: #ffffff"/>
   </g>
   <g id="matplotlib.axis_1">
    <g id="xtick_1">
     <g id="line2d_1">
      <defs>
       <path id="mb72e881c24" d="M 0 0 
L 0 3.5 
" style="stroke: #000000; stroke-width: 0.8"/>
      </defs>
      <g>
       <use xlink:href="#mb72e881c24" x="92.290909" y="504" style="stroke: #000000; stroke-width: 0.8"/>
      </g>
     </g>
     <g id="text_1">
      <!-- 0 -->
      <g transform="translate(85.292159 527.716563)scale(0.22 -0.22)">
       <defs>
        <path id="DejaVuSans-30" d="M 2034 4250 
Q 1547 4250 1301 3770 
Q 1056 3291 1056 2328 
Q 1056 1369 1301 889 
Q 1547 409 2034 409 
Q 2525 409 2770 889 
Q 3016 1369 3016 2328 
Q 3016 3291 2770 3770 
Q 2525 4250 2034 4250 
z
M 2034 4750 
Q 2819 4750 3233 4129 
Q 3647 3509 3647 2328 
Q 3647 1150 3233 529 
Q 2819 -91 2034 -91 
Q 1250 -91 836 529 
Q 422 1150 422 2328 
Q 422 3509 836 4129 
Q 1250 4750 2034 4750 
z
" transform="scale(0.015625)"/>
       </defs>
       <use xlink:href="#DejaVuSans-30"/>
      </g>
     </g>
    </g>
    <g id="xtick_2">
     <g id="line2d_2">
      <g>
       <use xlink:href="#mb72e881c24" x="227.563636" y="504" style="stroke: #000000; stroke-width: 0.8"/>
      </g>
     </g>
     <g id="text_2">
      <!-- 1000 -->
      <g transform="translate(199.568636 527.716563)scale(0.22 -0.22)">
       <defs>
        <path id="DejaVuSans-31" d="M 794 531 
L 1825 531 
L 1825 4091 
L 703 3866 
L 703 4441 
L 1819 4666 
L 2450 4666 
L 2450 531 
L 3481 531 
L 3481 0 
L 794 0 
L 794 531 
z
" transform="scale(0.015625)"/>
       </defs>
       <use xlink:href="#DejaVuSans-31"/>
       <use xlink:href="#DejaVuSans-30" x="63.623047"/>
       <use xlink:href="#DejaVuSans-30" x="127.246094"/>
       <use xlink:href="#DejaVuSans-30" x="190.869141"/>
      </g>
     </g>
    </g>
    <g id="xtick_3">
     <g id="line2d_3">
      <g>
       <use xlink:href="#mb72e881c24" x="362.836364" y="504" style="stroke: #000000; stroke-width: 0.8"/>
      </g>
     </g>
     <g id="text_3">
      <!-- 2000 -->
      <g transform="translate(334.841364 527.716563)scale(0.22 -0.22)">
       <defs>
        <path id="DejaVuSans-32" d="M 1228 531 
L 3431 531 
L 3431 0 
L 469 0 
L 469 531 
Q 828 903 1448 1529 
Q 2069 2156 2228 2338 
Q 2531 2678 2651 2914 
Q 2772 3150 2772 3378 
Q 2772 3750 2511 3984 
Q 2250 4219 1831 4219 
Q 1534 4219 1204 4116 
Q 875 4013 500 3803 
L 500 4441 
Q 881 4594 1212 4672 
Q 1544 4750 1819 4750 
Q 2544 4750 2975 4387 
Q 3406 4025 3406 3419 
Q 3406 3131 3298 2873 
Q 3191 2616 2906 2266 
Q 2828 2175 2409 1742 
Q 1991 1309 1228 531 
z
" transform="scale(0.015625)"/>
       </defs>
       <use xlink:href="#DejaVuSans-32"/>
       <use xlink:href="#DejaVuSans-30" x="63.623047"/>
       <use xlink:href="#DejaVuSans-30" x="127.246094"/>
       <use xlink:href="#DejaVuSans-30" x="190.869141"/>
      </g>
     </g>
    </g>
    <g id="xtick_4">
     <g id="line2d_4">
      <g>
       <use xlink:href="#mb72e881c24" x="498.109091" y="504" style="stroke: #000000; stroke-width: 0.8"/>
      </g>
     </g>
     <g id="text_4">
      <!-- 3000 -->
      <g transform="translate(470.114091 527.716563)scale(0.22 -0.22)">
       <defs>
        <path id="DejaVuSans-33" d="M 2597 2516 
Q 3050 2419 3304 2112 
Q 3559 1806 3559 1356 
Q 3559 666 3084 287 
Q 2609 -91 1734 -91 
Q 1441 -91 1130 -33 
Q 819 25 488 141 
L 488 750 
Q 750 597 1062 519 
Q 1375 441 1716 441 
Q 2309 441 2620 675 
Q 2931 909 2931 1356 
Q 2931 1769 2642 2001 
Q 2353 2234 1838 2234 
L 1294 2234 
L 1294 2753 
L 1863 2753 
Q 2328 2753 2575 2939 
Q 2822 3125 2822 3475 
Q 2822 3834 2567 4026 
Q 2313 4219 1838 4219 
Q 1578 4219 1281 4162 
Q 984 4106 628 3988 
L 628 4550 
Q 988 4650 1302 4700 
Q 1616 4750 1894 4750 
Q 2613 4750 3031 4423 
Q 3450 4097 3450 3541 
Q 3450 3153 3228 2886 
Q 3006 2619 2597 2516 
z
" transform="scale(0.015625)"/>
       </defs>
       <use xlink:href="#DejaVuSans-33"/>
       <use xlink:href="#DejaVuSans-30" x="63.623047"/>
       <use xlink:href="#DejaVuSans-30" x="127.246094"/>
       <use xlink:href="#DejaVuSans-30" x="190.869141"/>
      </g>
     </g>
    </g>
    <g id="text_5">
     <!-- Time(ms) -->
     <g transform="translate(249.182187 552.307188)scale(0.22 -0.22)">
      <defs>
       <path id="ArialMT-54" d="M 1659 0 
L 1659 4041 
L 150 4041 
L 150 4581 
L 3781 4581 
L 3781 4041 
L 2266 4041 
L 2266 0 
L 1659 0 
z
" transform="scale(0.015625)"/>
       <path id="ArialMT-69" d="M 425 3934 
L 425 4581 
L 988 4581 
L 988 3934 
L 425 3934 
z
M 425 0 
L 425 3319 
L 988 3319 
L 988 0 
L 425 0 
z
" transform="scale(0.015625)"/>
       <path id="ArialMT-6d" d="M 422 0 
L 422 3319 
L 925 3319 
L 925 2853 
Q 1081 3097 1340 3245 
Q 1600 3394 1931 3394 
Q 2300 3394 2536 3241 
Q 2772 3088 2869 2813 
Q 3263 3394 3894 3394 
Q 4388 3394 4653 3120 
Q 4919 2847 4919 2278 
L 4919 0 
L 4359 0 
L 4359 2091 
Q 4359 2428 4304 2576 
Q 4250 2725 4106 2815 
Q 3963 2906 3769 2906 
Q 3419 2906 3187 2673 
Q 2956 2441 2956 1928 
L 2956 0 
L 2394 0 
L 2394 2156 
Q 2394 2531 2256 2718 
Q 2119 2906 1806 2906 
Q 1569 2906 1367 2781 
Q 1166 2656 1075 2415 
Q 984 2175 984 1722 
L 984 0 
L 422 0 
z
" transform="scale(0.015625)"/>
       <path id="ArialMT-65" d="M 2694 1069 
L 3275 997 
Q 3138 488 2766 206 
Q 2394 -75 1816 -75 
Q 1088 -75 661 373 
Q 234 822 234 1631 
Q 234 2469 665 2931 
Q 1097 3394 1784 3394 
Q 2450 3394 2872 2941 
Q 3294 2488 3294 1666 
Q 3294 1616 3291 1516 
L 816 1516 
Q 847 969 1125 678 
Q 1403 388 1819 388 
Q 2128 388 2347 550 
Q 2566 713 2694 1069 
z
M 847 1978 
L 2700 1978 
Q 2663 2397 2488 2606 
Q 2219 2931 1791 2931 
Q 1403 2931 1139 2672 
Q 875 2413 847 1978 
z
" transform="scale(0.015625)"/>
       <path id="ArialMT-28" d="M 1497 -1347 
Q 1031 -759 709 28 
Q 388 816 388 1659 
Q 388 2403 628 3084 
Q 909 3875 1497 4659 
L 1900 4659 
Q 1522 4009 1400 3731 
Q 1209 3300 1100 2831 
Q 966 2247 966 1656 
Q 966 153 1900 -1347 
L 1497 -1347 
z
" transform="scale(0.015625)"/>
       <path id="ArialMT-73" d="M 197 991 
L 753 1078 
Q 800 744 1014 566 
Q 1228 388 1613 388 
Q 2000 388 2187 545 
Q 2375 703 2375 916 
Q 2375 1106 2209 1216 
Q 2094 1291 1634 1406 
Q 1016 1563 777 1677 
Q 538 1791 414 1992 
Q 291 2194 291 2438 
Q 291 2659 392 2848 
Q 494 3038 669 3163 
Q 800 3259 1026 3326 
Q 1253 3394 1513 3394 
Q 1903 3394 2198 3281 
Q 2494 3169 2634 2976 
Q 2775 2784 2828 2463 
L 2278 2388 
Q 2241 2644 2061 2787 
Q 1881 2931 1553 2931 
Q 1166 2931 1000 2803 
Q 834 2675 834 2503 
Q 834 2394 903 2306 
Q 972 2216 1119 2156 
Q 1203 2125 1616 2013 
Q 2213 1853 2448 1751 
Q 2684 1650 2818 1456 
Q 2953 1263 2953 975 
Q 2953 694 2789 445 
Q 2625 197 2315 61 
Q 2006 -75 1616 -75 
Q 969 -75 630 194 
Q 291 463 197 991 
z
" transform="scale(0.015625)"/>
       <path id="ArialMT-29" d="M 791 -1347 
L 388 -1347 
Q 1322 153 1322 1656 
Q 1322 2244 1188 2822 
Q 1081 3291 891 3722 
Q 769 4003 388 4659 
L 791 4659 
Q 1378 3875 1659 3084 
Q 1900 2403 1900 1659 
Q 1900 816 1576 28 
Q 1253 -759 791 -1347 
z
" transform="scale(0.015625)"/>
      </defs>
      <use xlink:href="#ArialMT-54"/>
      <use xlink:href="#ArialMT-69" x="57.333984"/>
      <use xlink:href="#ArialMT-6d" x="79.550781"/>
      <use xlink:href="#ArialMT-65" x="162.851562"/>
      <use xlink:href="#ArialMT-28" x="218.466797"/>
      <use xlink:href="#ArialMT-6d" x="251.767578"/>
      <use xlink:href="#ArialMT-73" x="335.068359"/>
      <use xlink:href="#ArialMT-29" x="385.068359"/>
     </g>
    </g>
   </g>
   <g id="matplotlib.axis_2">
    <g id="ytick_1">
     <g id="line2d_5">
      <defs>
       <path id="m9bbeeffca0" d="M 0 0 
L -3.5 0 
" style="stroke: #000000; stroke-width: 0.8"/>
      </defs>
      <g>
       <use xlink:href="#m9bbeeffca0" x="72" y="476.82" style="stroke: #000000; stroke-width: 0.8"/>
      </g>
     </g>
     <g id="text_6">
      <!-- −100 -->
      <g transform="translate(4.572187 485.178281)scale(0.22 -0.22)">
       <defs>
        <path id="DejaVuSans-2212" d="M 678 2272 
L 4684 2272 
L 4684 1741 
L 678 1741 
L 678 2272 
z
" transform="scale(0.015625)"/>
       </defs>
       <use xlink:href="#DejaVuSans-2212"/>
       <use xlink:href="#DejaVuSans-31" x="83.789062"/>
       <use xlink:href="#DejaVuSans-30" x="147.412109"/>
       <use xlink:href="#DejaVuSans-30" x="211.035156"/>
      </g>
     </g>
    </g>
    <g id="ytick_2">
     <g id="line2d_6">
      <g>
       <use xlink:href="#m9bbeeffca0" x="72" y="422.46" style="stroke: #000000; stroke-width: 0.8"/>
      </g>
     </g>
     <g id="text_7">
      <!-- −80 -->
      <g transform="translate(18.569688 430.818281)scale(0.22 -0.22)">
       <defs>
        <path id="DejaVuSans-38" d="M 2034 2216 
Q 1584 2216 1326 1975 
Q 1069 1734 1069 1313 
Q 1069 891 1326 650 
Q 1584 409 2034 409 
Q 2484 409 2743 651 
Q 3003 894 3003 1313 
Q 3003 1734 2745 1975 
Q 2488 2216 2034 2216 
z
M 1403 2484 
Q 997 2584 770 2862 
Q 544 3141 544 3541 
Q 544 4100 942 4425 
Q 1341 4750 2034 4750 
Q 2731 4750 3128 4425 
Q 3525 4100 3525 3541 
Q 3525 3141 3298 2862 
Q 3072 2584 2669 2484 
Q 3125 2378 3379 2068 
Q 3634 1759 3634 1313 
Q 3634 634 3220 271 
Q 2806 -91 2034 -91 
Q 1263 -91 848 271 
Q 434 634 434 1313 
Q 434 1759 690 2068 
Q 947 2378 1403 2484 
z
M 1172 3481 
Q 1172 3119 1398 2916 
Q 1625 2713 2034 2713 
Q 2441 2713 2670 2916 
Q 2900 3119 2900 3481 
Q 2900 3844 2670 4047 
Q 2441 4250 2034 4250 
Q 1625 4250 1398 4047 
Q 1172 3844 1172 3481 
z
" transform="scale(0.015625)"/>
       </defs>
       <use xlink:href="#DejaVuSans-2212"/>
       <use xlink:href="#DejaVuSans-38" x="83.789062"/>
       <use xlink:href="#DejaVuSans-30" x="147.412109"/>
      </g>
     </g>
    </g>
    <g id="ytick_3">
     <g id="line2d_7">
      <g>
       <use xlink:href="#m9bbeeffca0" x="72" y="368.1" style="stroke: #000000; stroke-width: 0.8"/>
      </g>
     </g>
     <g id="text_8">
      <!-- −60 -->
      <g transform="translate(18.569688 376.458281)scale(0.22 -0.22)">
       <defs>
        <path id="DejaVuSans-36" d="M 2113 2584 
Q 1688 2584 1439 2293 
Q 1191 2003 1191 1497 
Q 1191 994 1439 701 
Q 1688 409 2113 409 
Q 2538 409 2786 701 
Q 3034 994 3034 1497 
Q 3034 2003 2786 2293 
Q 2538 2584 2113 2584 
z
M 3366 4563 
L 3366 3988 
Q 3128 4100 2886 4159 
Q 2644 4219 2406 4219 
Q 1781 4219 1451 3797 
Q 1122 3375 1075 2522 
Q 1259 2794 1537 2939 
Q 1816 3084 2150 3084 
Q 2853 3084 3261 2657 
Q 3669 2231 3669 1497 
Q 3669 778 3244 343 
Q 2819 -91 2113 -91 
Q 1303 -91 875 529 
Q 447 1150 447 2328 
Q 447 3434 972 4092 
Q 1497 4750 2381 4750 
Q 2619 4750 2861 4703 
Q 3103 4656 3366 4563 
z
" transform="scale(0.015625)"/>
       </defs>
       <use xlink:href="#DejaVuSans-2212"/>
       <use xlink:href="#DejaVuSans-36" x="83.789062"/>
       <use xlink:href="#DejaVuSans-30" x="147.412109"/>
      </g>
     </g>
    </g>
    <g id="ytick_4">
     <g id="line2d_8">
      <g>
       <use xlink:href="#m9bbeeffca0" x="72" y="313.74" style="stroke: #000000; stroke-width: 0.8"/>
      </g>
     </g>
     <g id="text_9">
      <!-- −40 -->
      <g transform="translate(18.569688 322.098281)scale(0.22 -0.22)">
       <defs>
        <path id="DejaVuSans-34" d="M 2419 4116 
L 825 1625 
L 2419 1625 
L 2419 4116 
z
M 2253 4666 
L 3047 4666 
L 3047 1625 
L 3713 1625 
L 3713 1100 
L 3047 1100 
L 3047 0 
L 2419 0 
L 2419 1100 
L 313 1100 
L 313 1709 
L 2253 4666 
z
" transform="scale(0.015625)"/>
       </defs>
       <use xlink:href="#DejaVuSans-2212"/>
       <use xlink:href="#DejaVuSans-34" x="83.789062"/>
       <use xlink:href="#DejaVuSans-30" x="147.412109"/>
      </g>
     </g>
    </g>
    <g id="ytick_5">
     <g id="line2d_9">
      <g>
       <use xlink:href="#m9bbeeffca0" x="72" y="259.38" style="stroke: #000000; stroke-width: 0.8"/>
      </g>
     </g>
     <g id="text_10">
      <!-- −20 -->
      <g transform="translate(18.569688 267.738281)scale(0.22 -0.22)">
       <use xlink:href="#DejaVuSans-2212"/>
       <use xlink:href="#DejaVuSans-32" x="83.789062"/>
       <use xlink:href="#DejaVuSans-30" x="147.412109"/>
      </g>
     </g>
    </g>
    <g id="ytick_6">
     <g id="line2d_10">
      <g>
       <use xlink:href="#m9bbeeffca0" x="72" y="205.02" style="stroke: #000000; stroke-width: 0.8"/>
      </g>
     </g>
     <g id="text_11">
      <!-- 0 -->
      <g transform="translate(51.0025 213.378281)scale(0.22 -0.22)">
       <use xlink:href="#DejaVuSans-30"/>
      </g>
     </g>
    </g>
    <g id="ytick_7">
     <g id="line2d_11">
      <g>
       <use xlink:href="#m9bbeeffca0" x="72" y="150.66" style="stroke: #000000; stroke-width: 0.8"/>
      </g>
     </g>
     <g id="text_12">
      <!-- 20 -->
      <g transform="translate(37.005 159.018281)scale(0.22 -0.22)">
       <use xlink:href="#DejaVuSans-32"/>
       <use xlink:href="#DejaVuSans-30" x="63.623047"/>
      </g>
     </g>
    </g>
    <g id="ytick_8">
     <g id="line2d_12">
      <g>
       <use xlink:href="#m9bbeeffca0" x="72" y="96.3" style="stroke: #000000; stroke-width: 0.8"/>
      </g>
     </g>
     <g id="text_13">
      <!-- 40 -->
      <g transform="translate(37.005 104.658281)scale(0.22 -0.22)">
       <use xlink:href="#DejaVuSans-34"/>
       <use xlink:href="#DejaVuSans-30" x="63.623047"/>
      </g>
     </g>
    </g>
    <g id="text_14">
     <!-- Membrane potential (mV) -->
     <g transform="translate(-4.058125 410.655469)rotate(-90)scale(0.22 -0.22)">
      <defs>
       <path id="ArialMT-4d" d="M 475 0 
L 475 4581 
L 1388 4581 
L 2472 1338 
Q 2622 884 2691 659 
Q 2769 909 2934 1394 
L 4031 4581 
L 4847 4581 
L 4847 0 
L 4263 0 
L 4263 3834 
L 2931 0 
L 2384 0 
L 1059 3900 
L 1059 0 
L 475 0 
z
" transform="scale(0.015625)"/>
       <path id="ArialMT-62" d="M 941 0 
L 419 0 
L 419 4581 
L 981 4581 
L 981 2947 
Q 1338 3394 1891 3394 
Q 2197 3394 2470 3270 
Q 2744 3147 2920 2923 
Q 3097 2700 3197 2384 
Q 3297 2069 3297 1709 
Q 3297 856 2875 390 
Q 2453 -75 1863 -75 
Q 1275 -75 941 416 
L 941 0 
z
M 934 1684 
Q 934 1088 1097 822 
Q 1363 388 1816 388 
Q 2184 388 2453 708 
Q 2722 1028 2722 1663 
Q 2722 2313 2464 2622 
Q 2206 2931 1841 2931 
Q 1472 2931 1203 2611 
Q 934 2291 934 1684 
z
" transform="scale(0.015625)"/>
       <path id="ArialMT-72" d="M 416 0 
L 416 3319 
L 922 3319 
L 922 2816 
Q 1116 3169 1280 3281 
Q 1444 3394 1641 3394 
Q 1925 3394 2219 3213 
L 2025 2691 
Q 1819 2813 1613 2813 
Q 1428 2813 1281 2702 
Q 1134 2591 1072 2394 
Q 978 2094 978 1738 
L 978 0 
L 416 0 
z
" transform="scale(0.015625)"/>
       <path id="ArialMT-61" d="M 2588 409 
Q 2275 144 1986 34 
Q 1697 -75 1366 -75 
Q 819 -75 525 192 
Q 231 459 231 875 
Q 231 1119 342 1320 
Q 453 1522 633 1644 
Q 813 1766 1038 1828 
Q 1203 1872 1538 1913 
Q 2219 1994 2541 2106 
Q 2544 2222 2544 2253 
Q 2544 2597 2384 2738 
Q 2169 2928 1744 2928 
Q 1347 2928 1158 2789 
Q 969 2650 878 2297 
L 328 2372 
Q 403 2725 575 2942 
Q 747 3159 1072 3276 
Q 1397 3394 1825 3394 
Q 2250 3394 2515 3294 
Q 2781 3194 2906 3042 
Q 3031 2891 3081 2659 
Q 3109 2516 3109 2141 
L 3109 1391 
Q 3109 606 3145 398 
Q 3181 191 3288 0 
L 2700 0 
Q 2613 175 2588 409 
z
M 2541 1666 
Q 2234 1541 1622 1453 
Q 1275 1403 1131 1340 
Q 988 1278 909 1158 
Q 831 1038 831 891 
Q 831 666 1001 516 
Q 1172 366 1500 366 
Q 1825 366 2078 508 
Q 2331 650 2450 897 
Q 2541 1088 2541 1459 
L 2541 1666 
z
" transform="scale(0.015625)"/>
       <path id="ArialMT-6e" d="M 422 0 
L 422 3319 
L 928 3319 
L 928 2847 
Q 1294 3394 1984 3394 
Q 2284 3394 2536 3286 
Q 2788 3178 2913 3003 
Q 3038 2828 3088 2588 
Q 3119 2431 3119 2041 
L 3119 0 
L 2556 0 
L 2556 2019 
Q 2556 2363 2490 2533 
Q 2425 2703 2258 2804 
Q 2091 2906 1866 2906 
Q 1506 2906 1245 2678 
Q 984 2450 984 1813 
L 984 0 
L 422 0 
z
" transform="scale(0.015625)"/>
       <path id="ArialMT-20" transform="scale(0.015625)"/>
       <path id="ArialMT-70" d="M 422 -1272 
L 422 3319 
L 934 3319 
L 934 2888 
Q 1116 3141 1344 3267 
Q 1572 3394 1897 3394 
Q 2322 3394 2647 3175 
Q 2972 2956 3137 2557 
Q 3303 2159 3303 1684 
Q 3303 1175 3120 767 
Q 2938 359 2589 142 
Q 2241 -75 1856 -75 
Q 1575 -75 1351 44 
Q 1128 163 984 344 
L 984 -1272 
L 422 -1272 
z
M 931 1641 
Q 931 1000 1190 694 
Q 1450 388 1819 388 
Q 2194 388 2461 705 
Q 2728 1022 2728 1688 
Q 2728 2322 2467 2637 
Q 2206 2953 1844 2953 
Q 1484 2953 1207 2617 
Q 931 2281 931 1641 
z
" transform="scale(0.015625)"/>
       <path id="ArialMT-6f" d="M 213 1659 
Q 213 2581 725 3025 
Q 1153 3394 1769 3394 
Q 2453 3394 2887 2945 
Q 3322 2497 3322 1706 
Q 3322 1066 3130 698 
Q 2938 331 2570 128 
Q 2203 -75 1769 -75 
Q 1072 -75 642 372 
Q 213 819 213 1659 
z
M 791 1659 
Q 791 1022 1069 705 
Q 1347 388 1769 388 
Q 2188 388 2466 706 
Q 2744 1025 2744 1678 
Q 2744 2294 2464 2611 
Q 2184 2928 1769 2928 
Q 1347 2928 1069 2612 
Q 791 2297 791 1659 
z
" transform="scale(0.015625)"/>
       <path id="ArialMT-74" d="M 1650 503 
L 1731 6 
Q 1494 -44 1306 -44 
Q 1000 -44 831 53 
Q 663 150 594 308 
Q 525 466 525 972 
L 525 2881 
L 113 2881 
L 113 3319 
L 525 3319 
L 525 4141 
L 1084 4478 
L 1084 3319 
L 1650 3319 
L 1650 2881 
L 1084 2881 
L 1084 941 
Q 1084 700 1114 631 
Q 1144 563 1211 522 
Q 1278 481 1403 481 
Q 1497 481 1650 503 
z
" transform="scale(0.015625)"/>
       <path id="ArialMT-6c" d="M 409 0 
L 409 4581 
L 972 4581 
L 972 0 
L 409 0 
z
" transform="scale(0.015625)"/>
       <path id="ArialMT-56" d="M 1803 0 
L 28 4581 
L 684 4581 
L 1875 1253 
Q 2019 853 2116 503 
Q 2222 878 2363 1253 
L 3600 4581 
L 4219 4581 
L 2425 0 
L 1803 0 
z
" transform="scale(0.015625)"/>
      </defs>
      <use xlink:href="#ArialMT-4d"/>
      <use xlink:href="#ArialMT-65" x="83.300781"/>
      <use xlink:href="#ArialMT-6d" x="138.916016"/>
      <use xlink:href="#ArialMT-62" x="222.216797"/>
      <use xlink:href="#ArialMT-72" x="277.832031"/>
      <use xlink:href="#ArialMT-61" x="311.132812"/>
      <use xlink:href="#ArialMT-6e" x="366.748047"/>
      <use xlink:href="#ArialMT-65" x="422.363281"/>
      <use xlink:href="#ArialMT-20" x="477.978516"/>
      <use xlink:href="#ArialMT-70" x="505.761719"/>
      <use xlink:href="#ArialMT-6f" x="561.376953"/>
      <use xlink:href="#ArialMT-74" x="616.992188"/>
      <use xlink:href="#ArialMT-65" x="644.775391"/>
      <use xlink:href="#ArialMT-6e" x="700.390625"/>
      <use xlink:href="#ArialMT-74" x="756.005859"/>
      <use xlink:href="#ArialMT-69" x="783.789062"/>
      <use xlink:href="#ArialMT-61" x="806.005859"/>
      <use xlink:href="#ArialMT-6c" x="861.621094"/>
      <use xlink:href="#ArialMT-20" x="883.837891"/>
      <use xlink:href="#ArialMT-28" x="911.621094"/>
      <use xlink:href="#ArialMT-6d" x="944.921875"/>
      <use xlink:href="#ArialMT-56" x="1028.222656"/>
      <use xlink:href="#ArialMT-29" x="1094.921875"/>
     </g>
    </g>
   </g>
   <g id="line2d_13">
    <path d="M 92.290909 441.486 
L 92.967273 454.237454 
L 93.440727 459.10565 
L 93.914182 461.912564 
L 94.387636 463.465752 
L 94.861091 464.30345 
L 95.402182 464.793045 
L 96.078545 465.066509 
L 97.093091 465.204103 
L 99.663273 465.251942 
L 144.506182 465.254815 
L 159.927273 465.254864 
L 160.130182 435.136315 
L 160.468364 418.270574 
L 160.941818 405.182294 
L 161.482909 395.902307 
L 162.159273 388.110221 
L 162.970909 381.285346 
L 164.053091 374.09293 
L 165.067636 367.33202 
L 166.285091 355.920477 
L 166.961455 353.060035 
L 168.111273 349.031106 
L 168.584727 348.088717 
L 168.855273 348.03343 
L 169.261091 347.989114 
L 170.410909 347.345588 
L 170.884364 347.002829 
L 171.087273 347.15596 
L 171.696 347.781727 
L 172.101818 347.678594 
L 172.372364 347.309004 
L 172.845818 346.184413 
L 173.251636 345.423219 
L 173.522182 345.305224 
L 173.792727 345.487657 
L 174.063273 345.954329 
L 175.348364 348.904856 
L 175.889455 348.995404 
L 176.362909 348.898086 
L 177.039273 348.314694 
L 177.512727 348.0012 
L 177.783273 348.022448 
L 178.256727 348.353199 
L 179.338909 349.228812 
L 179.744727 349.027984 
L 180.218182 348.568929 
L 180.759273 347.986109 
L 180.826909 348.066609 
L 181.165091 349.260124 
L 181.570909 350.291143 
L 181.909091 350.583812 
L 182.112 350.515813 
L 182.585455 349.9501 
L 183.735273 348.196944 
L 184.005818 348.002015 
L 184.276364 348.091211 
L 184.546909 348.504395 
L 185.020364 349.275091 
L 185.696727 349.972759 
L 185.967273 349.730939 
L 186.305455 349.099369 
L 186.508364 348.71386 
L 186.643636 349.113345 
L 187.184727 351.473963 
L 187.387636 351.558878 
L 187.590545 351.286067 
L 187.996364 350.231913 
L 188.605091 348.613673 
L 188.808 348.46315 
L 189.078545 348.539509 
L 190.093091 349.003132 
L 190.363636 348.817374 
L 191.513455 347.650995 
L 192.054545 347.662158 
L 192.392727 347.581078 
L 192.730909 348.0277 
L 192.933818 349.98061 
L 193.272 353.029529 
L 193.474909 353.612135 
L 193.813091 353.798691 
L 194.016 353.51146 
L 194.354182 352.471025 
L 195.165818 349.569565 
L 195.639273 348.783352 
L 196.112727 348.161486 
L 196.315636 348.322106 
L 197.262545 349.376693 
L 197.533091 349.095364 
L 197.871273 348.330943 
L 198.615273 346.492953 
L 198.885818 346.407417 
L 199.156364 346.586887 
L 199.359273 347.135649 
L 200.170909 350.012353 
L 200.373818 350.094623 
L 200.576727 349.913721 
L 200.914909 349.582827 
L 201.185455 349.6915 
L 201.794182 350.095549 
L 201.997091 349.910688 
L 202.335273 349.240794 
L 202.538182 348.816254 
L 202.673455 349.142479 
L 203.146909 350.60458 
L 203.485091 351.042348 
L 203.890909 352.475342 
L 204.093818 352.585735 
L 204.296727 352.443076 
L 204.567273 351.824772 
L 205.514182 349.134211 
L 206.190545 348.512505 
L 207.002182 347.522199 
L 207.408 347.255052 
L 207.678545 347.469896 
L 208.152 348.178806 
L 208.693091 349.390699 
L 208.896 349.489849 
L 209.098909 349.360177 
L 209.572364 348.77523 
L 209.707636 349.065413 
L 210.316364 351.477722 
L 210.451636 351.503642 
L 210.654545 351.201221 
L 211.128 349.703868 
L 211.939636 347.362405 
L 212.142545 347.255388 
L 212.413091 347.375805 
L 212.548364 347.55468 
L 213.36 350.260096 
L 213.562909 350.081117 
L 213.901091 349.318401 
L 214.577455 347.129746 
L 215.050909 345.688045 
L 215.321455 345.483784 
L 215.659636 345.553389 
L 215.862545 345.731953 
L 216.877091 347.445726 
L 217.215273 347.354629 
L 217.756364 347.239875 
L 217.959273 347.39405 
L 218.432727 347.915996 
L 218.635636 347.795157 
L 219.041455 347.083038 
L 219.379636 346.682694 
L 219.582545 346.775119 
L 219.920727 347.238664 
L 220.461818 348.277465 
L 221.273455 349.278853 
L 221.611636 349.781249 
L 221.814545 349.980602 
L 222.220364 350.57572 
L 222.423273 350.485923 
L 222.693818 350.006974 
L 223.099636 349.278433 
L 223.573091 349.483413 
L 223.776 349.281735 
L 224.249455 348.273462 
L 224.52 347.868215 
L 224.655273 347.836931 
L 224.858182 348.788142 
L 225.331636 351.156182 
L 225.534545 351.44017 
L 225.737455 351.330943 
L 226.008 350.857457 
L 226.413818 349.605565 
L 227.090182 347.497383 
L 227.496 346.934131 
L 227.631273 346.926681 
L 227.834182 347.457327 
L 228.375273 348.954103 
L 228.578182 349.086827 
L 228.848727 348.877971 
L 230.674909 346.850221 
L 231.013091 346.882894 
L 231.554182 347.168431 
L 232.298182 347.851329 
L 232.704 347.878365 
L 233.109818 347.722742 
L 233.650909 347.416531 
L 233.921455 347.722779 
L 234.394909 348.247724 
L 234.665455 348.194934 
L 235.274182 347.741514 
L 235.950545 348.568764 
L 236.221091 348.323586 
L 236.897455 347.512196 
L 237.032727 347.654522 
L 237.912 349.151962 
L 238.114909 349.113585 
L 238.385455 348.820372 
L 239.4 347.456422 
L 239.941091 346.852131 
L 240.211636 347.583108 
L 240.752727 349.032926 
L 240.955636 349.21617 
L 241.158545 349.127893 
L 241.496727 348.60035 
L 241.699636 348.464902 
L 241.970182 348.882489 
L 242.376 349.414462 
L 242.578909 349.585542 
L 243.12 350.280643 
L 243.322909 350.318375 
L 243.593455 350.093421 
L 243.931636 349.572711 
L 245.960727 345.105182 
L 246.366545 344.793957 
L 246.569455 344.764386 
L 246.84 344.985133 
L 247.178182 345.658336 
L 247.516364 346.938862 
L 247.922182 348.219175 
L 248.192727 348.477973 
L 248.598545 348.39119 
L 249.139636 347.907088 
L 249.545455 347.553546 
L 249.748364 347.591707 
L 250.154182 347.782377 
L 250.357091 347.589969 
L 250.695273 346.880531 
L 251.101091 346.155236 
L 251.304 346.038238 
L 251.506909 346.289269 
L 251.980364 346.953156 
L 252.250909 346.899876 
L 252.521455 346.849979 
L 252.724364 347.049828 
L 253.671273 348.632747 
L 253.941818 348.552162 
L 254.347636 348.352606 
L 254.888727 348.369583 
L 255.159273 348.877017 
L 255.632727 349.712527 
L 255.970909 349.825917 
L 256.241455 349.641578 
L 256.579636 349.052595 
L 257.458909 347.082185 
L 257.661818 347.397156 
L 258.067636 348.06755 
L 258.405818 348.26672 
L 258.879273 348.197902 
L 259.217455 347.860619 
L 259.826182 346.940688 
L 260.367273 346.272629 
L 260.908364 345.963244 
L 261.246545 345.968038 
L 261.449455 346.429524 
L 262.193455 348.4304 
L 262.599273 348.939916 
L 262.869818 349.029814 
L 263.072727 348.852114 
L 264.154909 347.39756 
L 264.628364 347.102464 
L 265.237091 347.10765 
L 265.710545 347.319048 
L 265.981091 347.382723 
L 266.386909 348.182356 
L 266.792727 348.776359 
L 266.995636 348.726053 
L 267.266182 348.344078 
L 267.874909 347.337737 
L 268.416 346.949098 
L 268.618909 347.340615 
L 269.16 348.535002 
L 269.430545 348.726334 
L 269.701091 348.66599 
L 270.106909 348.492463 
L 270.309818 348.54189 
L 270.850909 349.078319 
L 271.053818 348.93442 
L 271.933091 347.805984 
L 272.271273 347.66888 
L 272.474182 347.953953 
L 273.015273 349.117364 
L 273.218182 349.150065 
L 273.488727 348.840923 
L 273.826909 348.079868 
L 274.638545 345.87485 
L 274.909091 345.754568 
L 275.112 345.973305 
L 275.450182 346.875304 
L 275.856 347.904847 
L 276.126545 348.128567 
L 276.397091 348.074782 
L 277.005818 347.467164 
L 277.479273 346.548035 
L 278.088 345.507442 
L 278.358545 345.262868 
L 278.561455 345.476277 
L 279.373091 346.990762 
L 279.643636 347.157364 
L 279.914182 347.59842 
L 280.861091 349.352787 
L 281.131636 349.382838 
L 281.537455 349.10165 
L 281.875636 348.694432 
L 282.281455 347.73978 
L 282.822545 346.501102 
L 283.160727 346.256699 
L 283.566545 346.296972 
L 283.701818 346.440009 
L 284.04 347.404836 
L 284.378182 348.07069 
L 284.581091 348.135611 
L 284.784 347.951027 
L 285.122182 347.192991 
L 285.730909 345.730922 
L 285.866182 345.747585 
L 286.069091 346.14946 
L 286.272 347.221499 
L 286.745455 350.101375 
L 286.948364 350.479351 
L 287.083636 350.448703 
L 287.286545 350.117246 
L 288.098182 348.343546 
L 288.571636 347.641399 
L 289.653818 346.985594 
L 290.059636 347.027516 
L 290.397818 346.826336 
L 290.803636 346.524966 
L 291.344727 346.572669 
L 291.750545 346.64122 
L 292.224 346.482684 
L 292.562182 346.771809 
L 293.373818 348.113142 
L 293.644364 348.044798 
L 293.914909 348.279724 
L 294.658909 349.547839 
L 294.861818 349.417943 
L 295.132364 348.955192 
L 295.605818 348.191093 
L 296.958545 346.833373 
L 297.229091 347.189229 
L 297.770182 347.918632 
L 297.973091 348.100485 
L 298.311273 348.984097 
L 298.649455 349.559909 
L 298.852364 349.48575 
L 299.122909 348.970572 
L 300.408 345.988748 
L 300.610909 346.248041 
L 301.084364 347.366943 
L 301.557818 348.34203 
L 301.760727 348.413982 
L 302.031273 348.203257 
L 302.572364 347.289305 
L 303.451636 345.589106 
L 304.060364 344.721357 
L 304.263273 344.811392 
L 304.669091 345.410627 
L 305.074909 346.239781 
L 305.683636 347.789913 
L 306.089455 348.349496 
L 306.427636 348.504598 
L 306.765818 348.369429 
L 307.374545 348.06104 
L 308.050909 347.798193 
L 308.524364 347.553633 
L 309.133091 347.560465 
L 309.471273 347.303147 
L 309.809455 346.754183 
L 310.282909 345.91801 
L 310.553455 345.898189 
L 311.297455 346.256627 
L 311.500364 346.055764 
L 312.041455 345.316473 
L 312.379636 345.083317 
L 313.123636 344.253394 
L 313.394182 344.189815 
L 313.529455 344.386439 
L 313.8 345.393103 
L 314.746909 349.261259 
L 315.152727 350.042814 
L 315.355636 350.055853 
L 315.558545 349.845845 
L 316.302545 348.802864 
L 317.181818 348.338072 
L 317.452364 348.32944 
L 317.722909 348.035632 
L 318.331636 347.175431 
L 319.008 347.142838 
L 319.549091 347.792915 
L 319.954909 348.123203 
L 320.225455 348.118627 
L 320.496 347.877862 
L 321.172364 347.096952 
L 321.510545 347.799092 
L 321.916364 348.482458 
L 322.119273 348.43778 
L 322.457455 347.913888 
L 323.336727 346.404937 
L 323.742545 345.976182 
L 323.877818 346.008171 
L 324.148364 346.434448 
L 324.824727 347.761355 
L 325.162909 347.915742 
L 325.568727 347.793064 
L 326.042182 347.525034 
L 326.515636 347.155643 
L 327.665455 345.950564 
L 328.071273 345.750472 
L 328.341818 345.974879 
L 329.085818 346.80085 
L 329.356364 346.695644 
L 329.829818 346.333109 
L 330.032727 346.808914 
L 330.573818 348.995367 
L 330.912 350.036281 
L 331.114909 350.116114 
L 331.317818 349.880006 
L 331.791273 348.786341 
L 332.467636 347.091163 
L 332.738182 346.89659 
L 332.941091 346.966477 
L 333.279273 347.444839 
L 333.617455 347.895353 
L 333.820364 347.863769 
L 334.429091 347.464987 
L 335.105455 347.610155 
L 335.443636 347.364489 
L 336.796364 345.983432 
L 336.999273 346.009369 
L 337.269818 346.327353 
L 338.013818 347.384196 
L 338.352 347.679726 
L 338.554909 347.605733 
L 338.757818 347.520002 
L 339.501818 347.727993 
L 339.907636 347.350071 
L 340.516364 346.148274 
L 341.125091 345.030696 
L 341.395636 344.950656 
L 341.733818 345.04322 
L 342.004364 345.420418 
L 343.357091 348.363553 
L 343.627636 348.481932 
L 343.830545 348.386511 
L 344.371636 347.695177 
L 345.656727 345.598246 
L 345.859636 345.796778 
L 346.400727 346.420623 
L 346.738909 346.479149 
L 347.077091 346.358408 
L 347.618182 345.938619 
L 347.821091 346.299539 
L 348.632727 348.3078 
L 348.970909 348.534269 
L 349.241455 348.455452 
L 349.579636 348.020391 
L 350.188364 347.132509 
L 352.082182 346.057107 
L 352.352727 346.248567 
L 352.961455 346.975395 
L 354.043636 347.158197 
L 354.314182 347.087526 
L 354.922909 347.643271 
L 355.328727 347.968485 
L 355.734545 347.875628 
L 356.208 347.80863 
L 356.343273 347.890031 
L 356.952 348.728919 
L 357.222545 348.609973 
L 357.493091 348.233215 
L 357.898909 347.607969 
L 358.169455 347.539861 
L 358.44 347.751702 
L 358.845818 348.106404 
L 359.116364 348.082583 
L 359.386909 347.840997 
L 359.725091 347.129435 
L 360.401455 345.54736 
L 360.604364 345.495139 
L 361.416 345.749825 
L 362.768727 347.624949 
L 363.242182 348.791767 
L 363.512727 348.935867 
L 363.783273 348.807478 
L 364.189091 348.258901 
L 365.068364 346.816962 
L 365.271273 346.894487 
L 365.744727 347.171011 
L 366.015273 347.057236 
L 366.556364 346.41145 
L 367.232727 345.614732 
L 367.435636 345.603532 
L 368.112 346.024956 
L 368.653091 346.59607 
L 369.667636 346.635785 
L 370.614545 346.34216 
L 371.358545 345.227559 
L 371.899636 344.422705 
L 372.034909 344.481144 
L 372.237818 344.958939 
L 372.914182 346.965304 
L 373.184727 347.175704 
L 373.590545 347.181499 
L 374.266909 347.112285 
L 374.808 347.325707 
L 375.416727 348.075422 
L 375.754909 348.139612 
L 376.093091 347.94811 
L 376.431273 347.485003 
L 376.769455 347.059988 
L 377.04 347.002988 
L 377.513455 347.045138 
L 378.122182 346.803915 
L 378.730909 346.869008 
L 379.001455 346.94269 
L 379.272 347.265275 
L 379.813091 347.973504 
L 380.016 348.000132 
L 380.421818 347.726525 
L 380.895273 347.321253 
L 381.436364 347.335008 
L 381.706909 347.551633 
L 382.112727 347.801392 
L 382.383273 347.743055 
L 382.789091 347.574521 
L 383.262545 347.527024 
L 383.533091 347.252953 
L 383.938909 346.867365 
L 384.547636 346.949605 
L 384.885818 346.920558 
L 385.426909 346.74004 
L 385.900364 346.673301 
L 386.373818 346.38812 
L 386.779636 346.247012 
L 387.050182 346.305233 
L 387.658909 346.775145 
L 387.929455 347.336991 
L 388.605818 349.223771 
L 388.808727 349.324457 
L 389.011636 349.132931 
L 389.349818 348.353858 
L 389.890909 347.392491 
L 390.567273 346.400288 
L 391.311273 345.812894 
L 392.258182 344.537193 
L 392.528727 344.822503 
L 393.002182 345.722138 
L 393.881455 347.382973 
L 394.084364 347.434617 
L 394.287273 347.291511 
L 394.625455 346.731421 
L 394.963636 346.234167 
L 395.166545 346.31389 
L 395.572364 346.8194 
L 396.113455 347.546622 
L 396.586909 347.833726 
L 396.925091 347.691663 
L 397.669091 347.307312 
L 397.939636 347.097092 
L 398.683636 346.21946 
L 398.886545 346.271941 
L 399.089455 346.784605 
L 400.104 350.24541 
L 400.374545 350.624543 
L 400.577455 350.549737 
L 400.983273 349.955076 
L 401.456727 348.929326 
L 402.471273 346.237834 
L 402.877091 345.863014 
L 403.147636 345.884593 
L 403.485818 345.961217 
L 403.756364 345.716948 
L 404.365091 344.613758 
L 404.703273 344.131182 
L 404.906182 344.192086 
L 405.244364 344.820504 
L 405.853091 345.924602 
L 406.326545 346.650891 
L 406.529455 347.747615 
L 407.002909 350.884679 
L 407.273455 351.393042 
L 407.408727 351.350909 
L 407.611636 351.014002 
L 408.017455 349.735776 
L 408.829091 347.222635 
L 409.505455 345.945509 
L 410.046545 345.161272 
L 410.655273 344.810589 
L 411.399273 344.544488 
L 411.602182 344.906633 
L 412.413818 346.859584 
L 412.684364 346.898182 
L 413.428364 346.721589 
L 413.698909 347.079906 
L 414.307636 347.98171 
L 414.578182 348.139931 
L 414.848727 347.987748 
L 415.322182 347.649258 
L 416.133818 348.524007 
L 416.404364 348.139217 
L 416.810182 347.085903 
L 417.283636 345.916384 
L 417.689455 345.534417 
L 418.027636 345.730203 
L 418.162909 345.861047 
L 418.365818 346.631138 
L 419.042182 349.547393 
L 419.245091 349.748736 
L 419.448 349.612552 
L 420.124364 348.602885 
L 420.800727 347.729787 
L 421.477091 347.261467 
L 421.68 347.339163 
L 422.085818 347.661318 
L 422.356364 347.571794 
L 422.626909 347.219086 
L 423.506182 345.750702 
L 423.776727 345.925849 
L 424.114909 346.05088 
L 425.197091 345.77983 
L 425.941091 345.413224 
L 426.888 346.75491 
L 427.158545 346.592399 
L 427.632 345.896867 
L 428.173091 344.951193 
L 428.308364 345.000396 
L 428.646545 345.620752 
L 428.984727 346.042736 
L 429.187636 346.23815 
L 430.472727 348.288385 
L 430.743273 391.34873 
L 431.013818 404.209703 
L 431.419636 412.384513 
L 432.569455 428.161334 
L 433.854545 443.553258 
L 434.666182 450.944049 
L 435.410182 455.835569 
L 436.086545 458.926937 
L 436.762909 461.041466 
L 437.439273 462.46389 
L 438.115636 463.413375 
L 438.859636 464.094888 
L 439.738909 464.588653 
L 440.821091 464.924242 
L 442.309091 465.135481 
L 444.879273 465.241399 
L 453.401455 465.254764 
L 498.109091 465.253417 
L 498.109091 465.253417 
" clip-path="url(#p2222894e12)" style="fill: none; stroke: #000000; stroke-width: 1.5; stroke-linecap: square"/>
   </g>
   <g id="line2d_14">
    <path d="M 497.973818 408.87 
" clip-path="url(#p2222894e12)" style="fill: none; stroke: #000000; stroke-width: 1.5; stroke-linecap: square"/>
   </g>
   <g id="line2d_15">
    <path d="M 430.472727 368.1 
L 430.472727 365.382 
L 430.472727 362.664 
L 430.472727 359.946 
L 430.472727 357.228 
L 430.472727 354.51 
L 430.472727 351.792 
L 430.472727 349.074 
L 430.472727 346.356 
L 430.472727 343.638 
L 430.472727 340.92 
L 430.472727 338.202 
L 430.472727 335.484 
L 430.472727 332.766 
L 430.472727 330.048 
L 430.472727 327.33 
L 430.472727 324.612 
L 430.472727 321.894 
L 430.472727 319.176 
L 430.472727 316.458 
" clip-path="url(#p2222894e12)" style="fill: none; stroke: #000000; stroke-width: 1.5; stroke-linecap: square"/>
   </g>
   <g id="patch_3">
    <path d="M 72 504 
L 72 69.12 
" style="fill: none; stroke: #000000; stroke-width: 0.8; stroke-linejoin: miter; stroke-linecap: square"/>
   </g>
   <g id="patch_4">
    <path d="M 518.4 504 
L 518.4 69.12 
" style="fill: none; stroke: #000000; stroke-width: 0.8; stroke-linejoin: miter; stroke-linecap: square"/>
   </g>
   <g id="patch_5">
    <path d="M 72 504 
L 518.4 504 
" style="fill: none; stroke: #000000; stroke-width: 0.8; stroke-linejoin: miter; stroke-linecap: square"/>
   </g>
   <g id="patch_6">
    <path d="M 72 69.12 
L 518.4 69.12 
" style="fill: none; stroke: #000000; stroke-width: 0.8; stroke-linejoin: miter; stroke-linecap: square"/>
   </g>
   <g id="text_15">
    <!-- 500 ms -->
    <g transform="translate(497.973818 406.152)scale(0.22 -0.22)">
     <defs>
      <path id="ArialMT-35" d="M 266 1200 
L 856 1250 
Q 922 819 1161 601 
Q 1400 384 1738 384 
Q 2144 384 2425 690 
Q 2706 997 2706 1503 
Q 2706 1984 2436 2262 
Q 2166 2541 1728 2541 
Q 1456 2541 1237 2417 
Q 1019 2294 894 2097 
L 366 2166 
L 809 4519 
L 3088 4519 
L 3088 3981 
L 1259 3981 
L 1013 2750 
Q 1425 3038 1878 3038 
Q 2478 3038 2890 2622 
Q 3303 2206 3303 1553 
Q 3303 931 2941 478 
Q 2500 -78 1738 -78 
Q 1113 -78 717 272 
Q 322 622 266 1200 
z
" transform="scale(0.015625)"/>
      <path id="ArialMT-30" d="M 266 2259 
Q 266 3072 433 3567 
Q 600 4063 929 4331 
Q 1259 4600 1759 4600 
Q 2128 4600 2406 4451 
Q 2684 4303 2865 4023 
Q 3047 3744 3150 3342 
Q 3253 2941 3253 2259 
Q 3253 1453 3087 958 
Q 2922 463 2592 192 
Q 2263 -78 1759 -78 
Q 1097 -78 719 397 
Q 266 969 266 2259 
z
M 844 2259 
Q 844 1131 1108 757 
Q 1372 384 1759 384 
Q 2147 384 2411 759 
Q 2675 1134 2675 2259 
Q 2675 3391 2411 3762 
Q 2147 4134 1753 4134 
Q 1366 4134 1134 3806 
Q 844 3388 844 2259 
z
" transform="scale(0.015625)"/>
     </defs>
     <use xlink:href="#ArialMT-35"/>
     <use xlink:href="#ArialMT-30" x="55.615234"/>
     <use xlink:href="#ArialMT-30" x="111.230469"/>
     <use xlink:href="#ArialMT-20" x="166.845703"/>
     <use xlink:href="#ArialMT-6d" x="194.628906"/>
     <use xlink:href="#ArialMT-73" x="277.929688"/>
    </g>
   </g>
   <g id="text_16">
    <!-- 20 mV -->
    <g transform="translate(504.737455 321.894)scale(0.22 -0.22)">
     <defs>
      <path id="ArialMT-32" d="M 3222 541 
L 3222 0 
L 194 0 
Q 188 203 259 391 
Q 375 700 629 1000 
Q 884 1300 1366 1694 
Q 2113 2306 2375 2664 
Q 2638 3022 2638 3341 
Q 2638 3675 2398 3904 
Q 2159 4134 1775 4134 
Q 1369 4134 1125 3890 
Q 881 3647 878 3216 
L 300 3275 
Q 359 3922 746 4261 
Q 1134 4600 1788 4600 
Q 2447 4600 2831 4234 
Q 3216 3869 3216 3328 
Q 3216 3053 3103 2787 
Q 2991 2522 2730 2228 
Q 2469 1934 1863 1422 
Q 1356 997 1212 845 
Q 1069 694 975 541 
L 3222 541 
z
" transform="scale(0.015625)"/>
     </defs>
     <use xlink:href="#ArialMT-32"/>
     <use xlink:href="#ArialMT-30" x="55.615234"/>
     <use xlink:href="#ArialMT-20" x="111.230469"/>
     <use xlink:href="#ArialMT-6d" x="139.013672"/>
     <use xlink:href="#ArialMT-56" x="222.314453"/>
    </g>
   </g>
   <g id="text_17">
    <!--  Plotting dSPN, trace number 15752  -->
    <g transform="translate(116.052969 63.12)scale(0.22 -0.22)">
     <defs>
      <path id="ArialMT-50" d="M 494 0 
L 494 4581 
L 2222 4581 
Q 2678 4581 2919 4538 
Q 3256 4481 3484 4323 
Q 3713 4166 3852 3881 
Q 3991 3597 3991 3256 
Q 3991 2672 3619 2267 
Q 3247 1863 2275 1863 
L 1100 1863 
L 1100 0 
L 494 0 
z
M 1100 2403 
L 2284 2403 
Q 2872 2403 3119 2622 
Q 3366 2841 3366 3238 
Q 3366 3525 3220 3729 
Q 3075 3934 2838 4000 
Q 2684 4041 2272 4041 
L 1100 4041 
L 1100 2403 
z
" transform="scale(0.015625)"/>
      <path id="ArialMT-67" d="M 319 -275 
L 866 -356 
Q 900 -609 1056 -725 
Q 1266 -881 1628 -881 
Q 2019 -881 2231 -725 
Q 2444 -569 2519 -288 
Q 2563 -116 2559 434 
Q 2191 0 1641 0 
Q 956 0 581 494 
Q 206 988 206 1678 
Q 206 2153 378 2554 
Q 550 2956 876 3175 
Q 1203 3394 1644 3394 
Q 2231 3394 2613 2919 
L 2613 3319 
L 3131 3319 
L 3131 450 
Q 3131 -325 2973 -648 
Q 2816 -972 2473 -1159 
Q 2131 -1347 1631 -1347 
Q 1038 -1347 672 -1080 
Q 306 -813 319 -275 
z
M 784 1719 
Q 784 1066 1043 766 
Q 1303 466 1694 466 
Q 2081 466 2343 764 
Q 2606 1063 2606 1700 
Q 2606 2309 2336 2618 
Q 2066 2928 1684 2928 
Q 1309 2928 1046 2623 
Q 784 2319 784 1719 
z
" transform="scale(0.015625)"/>
      <path id="ArialMT-64" d="M 2575 0 
L 2575 419 
Q 2259 -75 1647 -75 
Q 1250 -75 917 144 
Q 584 363 401 755 
Q 219 1147 219 1656 
Q 219 2153 384 2558 
Q 550 2963 881 3178 
Q 1213 3394 1622 3394 
Q 1922 3394 2156 3267 
Q 2391 3141 2538 2938 
L 2538 4581 
L 3097 4581 
L 3097 0 
L 2575 0 
z
M 797 1656 
Q 797 1019 1065 703 
Q 1334 388 1700 388 
Q 2069 388 2326 689 
Q 2584 991 2584 1609 
Q 2584 2291 2321 2609 
Q 2059 2928 1675 2928 
Q 1300 2928 1048 2622 
Q 797 2316 797 1656 
z
" transform="scale(0.015625)"/>
      <path id="ArialMT-53" d="M 288 1472 
L 859 1522 
Q 900 1178 1048 958 
Q 1197 738 1509 602 
Q 1822 466 2213 466 
Q 2559 466 2825 569 
Q 3091 672 3220 851 
Q 3350 1031 3350 1244 
Q 3350 1459 3225 1620 
Q 3100 1781 2813 1891 
Q 2628 1963 1997 2114 
Q 1366 2266 1113 2400 
Q 784 2572 623 2826 
Q 463 3081 463 3397 
Q 463 3744 659 4045 
Q 856 4347 1234 4503 
Q 1613 4659 2075 4659 
Q 2584 4659 2973 4495 
Q 3363 4331 3572 4012 
Q 3781 3694 3797 3291 
L 3216 3247 
Q 3169 3681 2898 3903 
Q 2628 4125 2100 4125 
Q 1550 4125 1298 3923 
Q 1047 3722 1047 3438 
Q 1047 3191 1225 3031 
Q 1400 2872 2139 2705 
Q 2878 2538 3153 2413 
Q 3553 2228 3743 1945 
Q 3934 1663 3934 1294 
Q 3934 928 3725 604 
Q 3516 281 3123 101 
Q 2731 -78 2241 -78 
Q 1619 -78 1198 103 
Q 778 284 539 648 
Q 300 1013 288 1472 
z
" transform="scale(0.015625)"/>
      <path id="ArialMT-4e" d="M 488 0 
L 488 4581 
L 1109 4581 
L 3516 984 
L 3516 4581 
L 4097 4581 
L 4097 0 
L 3475 0 
L 1069 3600 
L 1069 0 
L 488 0 
z
" transform="scale(0.015625)"/>
      <path id="ArialMT-2c" d="M 569 0 
L 569 641 
L 1209 641 
L 1209 0 
Q 1209 -353 1084 -570 
Q 959 -788 688 -906 
L 531 -666 
Q 709 -588 793 -436 
Q 878 -284 888 0 
L 569 0 
z
" transform="scale(0.015625)"/>
      <path id="ArialMT-63" d="M 2588 1216 
L 3141 1144 
Q 3050 572 2676 248 
Q 2303 -75 1759 -75 
Q 1078 -75 664 370 
Q 250 816 250 1647 
Q 250 2184 428 2587 
Q 606 2991 970 3192 
Q 1334 3394 1763 3394 
Q 2303 3394 2647 3120 
Q 2991 2847 3088 2344 
L 2541 2259 
Q 2463 2594 2264 2762 
Q 2066 2931 1784 2931 
Q 1359 2931 1093 2626 
Q 828 2322 828 1663 
Q 828 994 1084 691 
Q 1341 388 1753 388 
Q 2084 388 2306 591 
Q 2528 794 2588 1216 
z
" transform="scale(0.015625)"/>
      <path id="ArialMT-75" d="M 2597 0 
L 2597 488 
Q 2209 -75 1544 -75 
Q 1250 -75 995 37 
Q 741 150 617 320 
Q 494 491 444 738 
Q 409 903 409 1263 
L 409 3319 
L 972 3319 
L 972 1478 
Q 972 1038 1006 884 
Q 1059 663 1231 536 
Q 1403 409 1656 409 
Q 1909 409 2131 539 
Q 2353 669 2445 892 
Q 2538 1116 2538 1541 
L 2538 3319 
L 3100 3319 
L 3100 0 
L 2597 0 
z
" transform="scale(0.015625)"/>
      <path id="ArialMT-31" d="M 2384 0 
L 1822 0 
L 1822 3584 
Q 1619 3391 1289 3197 
Q 959 3003 697 2906 
L 697 3450 
Q 1169 3672 1522 3987 
Q 1875 4303 2022 4600 
L 2384 4600 
L 2384 0 
z
" transform="scale(0.015625)"/>
      <path id="ArialMT-37" d="M 303 3981 
L 303 4522 
L 3269 4522 
L 3269 4084 
Q 2831 3619 2401 2847 
Q 1972 2075 1738 1259 
Q 1569 684 1522 0 
L 944 0 
Q 953 541 1156 1306 
Q 1359 2072 1739 2783 
Q 2119 3494 2547 3981 
L 303 3981 
z
" transform="scale(0.015625)"/>
     </defs>
     <use xlink:href="#ArialMT-20"/>
     <use xlink:href="#ArialMT-50" x="27.783203"/>
     <use xlink:href="#ArialMT-6c" x="94.482422"/>
     <use xlink:href="#ArialMT-6f" x="116.699219"/>
     <use xlink:href="#ArialMT-74" x="172.314453"/>
     <use xlink:href="#ArialMT-74" x="200.097656"/>
     <use xlink:href="#ArialMT-69" x="227.880859"/>
     <use xlink:href="#ArialMT-6e" x="250.097656"/>
     <use xlink:href="#ArialMT-67" x="305.712891"/>
     <use xlink:href="#ArialMT-20" x="361.328125"/>
     <use xlink:href="#ArialMT-64" x="389.111328"/>
     <use xlink:href="#ArialMT-53" x="444.726562"/>
     <use xlink:href="#ArialMT-50" x="511.425781"/>
     <use xlink:href="#ArialMT-4e" x="578.125"/>
     <use xlink:href="#ArialMT-2c" x="650.341797"/>
     <use xlink:href="#ArialMT-20" x="678.125"/>
     <use xlink:href="#ArialMT-74" x="705.908203"/>
     <use xlink:href="#ArialMT-72" x="733.691406"/>
     <use xlink:href="#ArialMT-61" x="766.992188"/>
     <use xlink:href="#ArialMT-63" x="822.607422"/>
     <use xlink:href="#ArialMT-65" x="872.607422"/>
     <use xlink:href="#ArialMT-20" x="928.222656"/>
     <use xlink:href="#ArialMT-6e" x="956.005859"/>
     <use xlink:href="#ArialMT-75" x="1011.621094"/>
     <use xlink:href="#ArialMT-6d" x="1067.236328"/>
     <use xlink:href="#ArialMT-62" x="1150.537109"/>
     <use xlink:href="#ArialMT-65" x="1206.152344"/>
     <use xlink:href="#ArialMT-72" x="1261.767578"/>
     <use xlink:href="#ArialMT-20" x="1295.068359"/>
     <use xlink:href="#ArialMT-31" x="1322.851562"/>
     <use xlink:href="#ArialMT-35" x="1378.466797"/>
     <use xlink:href="#ArialMT-37" x="1434.082031"/>
     <use xlink:href="#ArialMT-35" x="1489.697266"/>
     <use xlink:href="#ArialMT-32" x="1545.3125"/>
     <use xlink:href="#ArialMT-20" x="1600.927734"/>
    </g>
   </g>
  </g>
 </g>
 <defs>
  <clipPath id="p2222894e12">
   <rect x="72" y="69.12" width="446.4" height="434.88"/>
  </clipPath>
 </defs>
</svg>
