<?xml version="1.0" encoding="utf-8" standalone="no"?>
<!DOCTYPE svg PUBLIC "-//W3C//DTD SVG 1.1//EN"
  "http://www.w3.org/Graphics/SVG/1.1/DTD/svg11.dtd">
<svg xmlns:xlink="http://www.w3.org/1999/xlink" width="576pt" height="576pt" viewBox="0 0 576 576" xmlns="http://www.w3.org/2000/svg" version="1.1">
 <metadata>
  <rdf:RDF xmlns:dc="http://purl.org/dc/elements/1.1/" xmlns:cc="http://creativecommons.org/ns#" xmlns:rdf="http://www.w3.org/1999/02/22-rdf-syntax-ns#">
   <cc:Work>
    <dc:type rdf:resource="http://purl.org/dc/dcmitype/StillImage"/>
    <dc:date>2022-10-30T19:57:04.471881</dc:date>
    <dc:format>image/svg+xml</dc:format>
    <dc:creator>
     <cc:Agent>
      <dc:title>Matplotlib v3.5.2, https://matplotlib.org/</dc:title>
     </cc:Agent>
    </dc:creator>
   </cc:Work>
  </rdf:RDF>
 </metadata>
 <defs>
  <style type="text/css">*{stroke-linejoin: round; stroke-linecap: butt}</style>
 </defs>
 <g id="figure_1">
  <g id="patch_1">
   <path d="M 0 576 
L 576 576 
L 576 0 
L 0 0 
L 0 576 
z
" style="fill: none"/>
  </g>
  <g id="axes_1">
   <g id="patch_2">
    <path d="M 72 504 
L 518.4 504 
L 518.4 69.12 
L 72 69.12 
z
" style="fill: #ffffff"/>
   </g>
   <g id="matplotlib.axis_1">
    <g id="xtick_1">
     <g id="line2d_1">
      <defs>
       <path id="m066d19d56b" d="M 0 0 
L 0 3.5 
" style="stroke: #000000; stroke-width: 0.8"/>
      </defs>
      <g>
       <use xlink:href="#m066d19d56b" x="92.290909" y="504" style="stroke: #000000; stroke-width: 0.8"/>
      </g>
     </g>
     <g id="text_1">
      <!-- 0 -->
      <g transform="translate(85.292159 527.716563)scale(0.22 -0.22)">
       <defs>
        <path id="DejaVuSans-30" d="M 2034 4250 
Q 1547 4250 1301 3770 
Q 1056 3291 1056 2328 
Q 1056 1369 1301 889 
Q 1547 409 2034 409 
Q 2525 409 2770 889 
Q 3016 1369 3016 2328 
Q 3016 3291 2770 3770 
Q 2525 4250 2034 4250 
z
M 2034 4750 
Q 2819 4750 3233 4129 
Q 3647 3509 3647 2328 
Q 3647 1150 3233 529 
Q 2819 -91 2034 -91 
Q 1250 -91 836 529 
Q 422 1150 422 2328 
Q 422 3509 836 4129 
Q 1250 4750 2034 4750 
z
" transform="scale(0.015625)"/>
       </defs>
       <use xlink:href="#DejaVuSans-30"/>
      </g>
     </g>
    </g>
    <g id="xtick_2">
     <g id="line2d_2">
      <g>
       <use xlink:href="#m066d19d56b" x="227.563636" y="504" style="stroke: #000000; stroke-width: 0.8"/>
      </g>
     </g>
     <g id="text_2">
      <!-- 1000 -->
      <g transform="translate(199.568636 527.716563)scale(0.22 -0.22)">
       <defs>
        <path id="DejaVuSans-31" d="M 794 531 
L 1825 531 
L 1825 4091 
L 703 3866 
L 703 4441 
L 1819 4666 
L 2450 4666 
L 2450 531 
L 3481 531 
L 3481 0 
L 794 0 
L 794 531 
z
" transform="scale(0.015625)"/>
       </defs>
       <use xlink:href="#DejaVuSans-31"/>
       <use xlink:href="#DejaVuSans-30" x="63.623047"/>
       <use xlink:href="#DejaVuSans-30" x="127.246094"/>
       <use xlink:href="#DejaVuSans-30" x="190.869141"/>
      </g>
     </g>
    </g>
    <g id="xtick_3">
     <g id="line2d_3">
      <g>
       <use xlink:href="#m066d19d56b" x="362.836364" y="504" style="stroke: #000000; stroke-width: 0.8"/>
      </g>
     </g>
     <g id="text_3">
      <!-- 2000 -->
      <g transform="translate(334.841364 527.716563)scale(0.22 -0.22)">
       <defs>
        <path id="DejaVuSans-32" d="M 1228 531 
L 3431 531 
L 3431 0 
L 469 0 
L 469 531 
Q 828 903 1448 1529 
Q 2069 2156 2228 2338 
Q 2531 2678 2651 2914 
Q 2772 3150 2772 3378 
Q 2772 3750 2511 3984 
Q 2250 4219 1831 4219 
Q 1534 4219 1204 4116 
Q 875 4013 500 3803 
L 500 4441 
Q 881 4594 1212 4672 
Q 1544 4750 1819 4750 
Q 2544 4750 2975 4387 
Q 3406 4025 3406 3419 
Q 3406 3131 3298 2873 
Q 3191 2616 2906 2266 
Q 2828 2175 2409 1742 
Q 1991 1309 1228 531 
z
" transform="scale(0.015625)"/>
       </defs>
       <use xlink:href="#DejaVuSans-32"/>
       <use xlink:href="#DejaVuSans-30" x="63.623047"/>
       <use xlink:href="#DejaVuSans-30" x="127.246094"/>
       <use xlink:href="#DejaVuSans-30" x="190.869141"/>
      </g>
     </g>
    </g>
    <g id="xtick_4">
     <g id="line2d_4">
      <g>
       <use xlink:href="#m066d19d56b" x="498.109091" y="504" style="stroke: #000000; stroke-width: 0.8"/>
      </g>
     </g>
     <g id="text_4">
      <!-- 3000 -->
      <g transform="translate(470.114091 527.716563)scale(0.22 -0.22)">
       <defs>
        <path id="DejaVuSans-33" d="M 2597 2516 
Q 3050 2419 3304 2112 
Q 3559 1806 3559 1356 
Q 3559 666 3084 287 
Q 2609 -91 1734 -91 
Q 1441 -91 1130 -33 
Q 819 25 488 141 
L 488 750 
Q 750 597 1062 519 
Q 1375 441 1716 441 
Q 2309 441 2620 675 
Q 2931 909 2931 1356 
Q 2931 1769 2642 2001 
Q 2353 2234 1838 2234 
L 1294 2234 
L 1294 2753 
L 1863 2753 
Q 2328 2753 2575 2939 
Q 2822 3125 2822 3475 
Q 2822 3834 2567 4026 
Q 2313 4219 1838 4219 
Q 1578 4219 1281 4162 
Q 984 4106 628 3988 
L 628 4550 
Q 988 4650 1302 4700 
Q 1616 4750 1894 4750 
Q 2613 4750 3031 4423 
Q 3450 4097 3450 3541 
Q 3450 3153 3228 2886 
Q 3006 2619 2597 2516 
z
" transform="scale(0.015625)"/>
       </defs>
       <use xlink:href="#DejaVuSans-33"/>
       <use xlink:href="#DejaVuSans-30" x="63.623047"/>
       <use xlink:href="#DejaVuSans-30" x="127.246094"/>
       <use xlink:href="#DejaVuSans-30" x="190.869141"/>
      </g>
     </g>
    </g>
    <g id="text_5">
     <!-- Time(ms) -->
     <g transform="translate(249.182187 552.307188)scale(0.22 -0.22)">
      <defs>
       <path id="ArialMT-54" d="M 1659 0 
L 1659 4041 
L 150 4041 
L 150 4581 
L 3781 4581 
L 3781 4041 
L 2266 4041 
L 2266 0 
L 1659 0 
z
" transform="scale(0.015625)"/>
       <path id="ArialMT-69" d="M 425 3934 
L 425 4581 
L 988 4581 
L 988 3934 
L 425 3934 
z
M 425 0 
L 425 3319 
L 988 3319 
L 988 0 
L 425 0 
z
" transform="scale(0.015625)"/>
       <path id="ArialMT-6d" d="M 422 0 
L 422 3319 
L 925 3319 
L 925 2853 
Q 1081 3097 1340 3245 
Q 1600 3394 1931 3394 
Q 2300 3394 2536 3241 
Q 2772 3088 2869 2813 
Q 3263 3394 3894 3394 
Q 4388 3394 4653 3120 
Q 4919 2847 4919 2278 
L 4919 0 
L 4359 0 
L 4359 2091 
Q 4359 2428 4304 2576 
Q 4250 2725 4106 2815 
Q 3963 2906 3769 2906 
Q 3419 2906 3187 2673 
Q 2956 2441 2956 1928 
L 2956 0 
L 2394 0 
L 2394 2156 
Q 2394 2531 2256 2718 
Q 2119 2906 1806 2906 
Q 1569 2906 1367 2781 
Q 1166 2656 1075 2415 
Q 984 2175 984 1722 
L 984 0 
L 422 0 
z
" transform="scale(0.015625)"/>
       <path id="ArialMT-65" d="M 2694 1069 
L 3275 997 
Q 3138 488 2766 206 
Q 2394 -75 1816 -75 
Q 1088 -75 661 373 
Q 234 822 234 1631 
Q 234 2469 665 2931 
Q 1097 3394 1784 3394 
Q 2450 3394 2872 2941 
Q 3294 2488 3294 1666 
Q 3294 1616 3291 1516 
L 816 1516 
Q 847 969 1125 678 
Q 1403 388 1819 388 
Q 2128 388 2347 550 
Q 2566 713 2694 1069 
z
M 847 1978 
L 2700 1978 
Q 2663 2397 2488 2606 
Q 2219 2931 1791 2931 
Q 1403 2931 1139 2672 
Q 875 2413 847 1978 
z
" transform="scale(0.015625)"/>
       <path id="ArialMT-28" d="M 1497 -1347 
Q 1031 -759 709 28 
Q 388 816 388 1659 
Q 388 2403 628 3084 
Q 909 3875 1497 4659 
L 1900 4659 
Q 1522 4009 1400 3731 
Q 1209 3300 1100 2831 
Q 966 2247 966 1656 
Q 966 153 1900 -1347 
L 1497 -1347 
z
" transform="scale(0.015625)"/>
       <path id="ArialMT-73" d="M 197 991 
L 753 1078 
Q 800 744 1014 566 
Q 1228 388 1613 388 
Q 2000 388 2187 545 
Q 2375 703 2375 916 
Q 2375 1106 2209 1216 
Q 2094 1291 1634 1406 
Q 1016 1563 777 1677 
Q 538 1791 414 1992 
Q 291 2194 291 2438 
Q 291 2659 392 2848 
Q 494 3038 669 3163 
Q 800 3259 1026 3326 
Q 1253 3394 1513 3394 
Q 1903 3394 2198 3281 
Q 2494 3169 2634 2976 
Q 2775 2784 2828 2463 
L 2278 2388 
Q 2241 2644 2061 2787 
Q 1881 2931 1553 2931 
Q 1166 2931 1000 2803 
Q 834 2675 834 2503 
Q 834 2394 903 2306 
Q 972 2216 1119 2156 
Q 1203 2125 1616 2013 
Q 2213 1853 2448 1751 
Q 2684 1650 2818 1456 
Q 2953 1263 2953 975 
Q 2953 694 2789 445 
Q 2625 197 2315 61 
Q 2006 -75 1616 -75 
Q 969 -75 630 194 
Q 291 463 197 991 
z
" transform="scale(0.015625)"/>
       <path id="ArialMT-29" d="M 791 -1347 
L 388 -1347 
Q 1322 153 1322 1656 
Q 1322 2244 1188 2822 
Q 1081 3291 891 3722 
Q 769 4003 388 4659 
L 791 4659 
Q 1378 3875 1659 3084 
Q 1900 2403 1900 1659 
Q 1900 816 1576 28 
Q 1253 -759 791 -1347 
z
" transform="scale(0.015625)"/>
      </defs>
      <use xlink:href="#ArialMT-54"/>
      <use xlink:href="#ArialMT-69" x="57.333984"/>
      <use xlink:href="#ArialMT-6d" x="79.550781"/>
      <use xlink:href="#ArialMT-65" x="162.851562"/>
      <use xlink:href="#ArialMT-28" x="218.466797"/>
      <use xlink:href="#ArialMT-6d" x="251.767578"/>
      <use xlink:href="#ArialMT-73" x="335.068359"/>
      <use xlink:href="#ArialMT-29" x="385.068359"/>
     </g>
    </g>
   </g>
   <g id="matplotlib.axis_2">
    <g id="ytick_1">
     <g id="line2d_5">
      <defs>
       <path id="m248697b894" d="M 0 0 
L -3.5 0 
" style="stroke: #000000; stroke-width: 0.8"/>
      </defs>
      <g>
       <use xlink:href="#m248697b894" x="72" y="476.82" style="stroke: #000000; stroke-width: 0.8"/>
      </g>
     </g>
     <g id="text_6">
      <!-- −100 -->
      <g transform="translate(4.572187 485.178281)scale(0.22 -0.22)">
       <defs>
        <path id="DejaVuSans-2212" d="M 678 2272 
L 4684 2272 
L 4684 1741 
L 678 1741 
L 678 2272 
z
" transform="scale(0.015625)"/>
       </defs>
       <use xlink:href="#DejaVuSans-2212"/>
       <use xlink:href="#DejaVuSans-31" x="83.789062"/>
       <use xlink:href="#DejaVuSans-30" x="147.412109"/>
       <use xlink:href="#DejaVuSans-30" x="211.035156"/>
      </g>
     </g>
    </g>
    <g id="ytick_2">
     <g id="line2d_6">
      <g>
       <use xlink:href="#m248697b894" x="72" y="422.46" style="stroke: #000000; stroke-width: 0.8"/>
      </g>
     </g>
     <g id="text_7">
      <!-- −80 -->
      <g transform="translate(18.569688 430.818281)scale(0.22 -0.22)">
       <defs>
        <path id="DejaVuSans-38" d="M 2034 2216 
Q 1584 2216 1326 1975 
Q 1069 1734 1069 1313 
Q 1069 891 1326 650 
Q 1584 409 2034 409 
Q 2484 409 2743 651 
Q 3003 894 3003 1313 
Q 3003 1734 2745 1975 
Q 2488 2216 2034 2216 
z
M 1403 2484 
Q 997 2584 770 2862 
Q 544 3141 544 3541 
Q 544 4100 942 4425 
Q 1341 4750 2034 4750 
Q 2731 4750 3128 4425 
Q 3525 4100 3525 3541 
Q 3525 3141 3298 2862 
Q 3072 2584 2669 2484 
Q 3125 2378 3379 2068 
Q 3634 1759 3634 1313 
Q 3634 634 3220 271 
Q 2806 -91 2034 -91 
Q 1263 -91 848 271 
Q 434 634 434 1313 
Q 434 1759 690 2068 
Q 947 2378 1403 2484 
z
M 1172 3481 
Q 1172 3119 1398 2916 
Q 1625 2713 2034 2713 
Q 2441 2713 2670 2916 
Q 2900 3119 2900 3481 
Q 2900 3844 2670 4047 
Q 2441 4250 2034 4250 
Q 1625 4250 1398 4047 
Q 1172 3844 1172 3481 
z
" transform="scale(0.015625)"/>
       </defs>
       <use xlink:href="#DejaVuSans-2212"/>
       <use xlink:href="#DejaVuSans-38" x="83.789062"/>
       <use xlink:href="#DejaVuSans-30" x="147.412109"/>
      </g>
     </g>
    </g>
    <g id="ytick_3">
     <g id="line2d_7">
      <g>
       <use xlink:href="#m248697b894" x="72" y="368.1" style="stroke: #000000; stroke-width: 0.8"/>
      </g>
     </g>
     <g id="text_8">
      <!-- −60 -->
      <g transform="translate(18.569688 376.458281)scale(0.22 -0.22)">
       <defs>
        <path id="DejaVuSans-36" d="M 2113 2584 
Q 1688 2584 1439 2293 
Q 1191 2003 1191 1497 
Q 1191 994 1439 701 
Q 1688 409 2113 409 
Q 2538 409 2786 701 
Q 3034 994 3034 1497 
Q 3034 2003 2786 2293 
Q 2538 2584 2113 2584 
z
M 3366 4563 
L 3366 3988 
Q 3128 4100 2886 4159 
Q 2644 4219 2406 4219 
Q 1781 4219 1451 3797 
Q 1122 3375 1075 2522 
Q 1259 2794 1537 2939 
Q 1816 3084 2150 3084 
Q 2853 3084 3261 2657 
Q 3669 2231 3669 1497 
Q 3669 778 3244 343 
Q 2819 -91 2113 -91 
Q 1303 -91 875 529 
Q 447 1150 447 2328 
Q 447 3434 972 4092 
Q 1497 4750 2381 4750 
Q 2619 4750 2861 4703 
Q 3103 4656 3366 4563 
z
" transform="scale(0.015625)"/>
       </defs>
       <use xlink:href="#DejaVuSans-2212"/>
       <use xlink:href="#DejaVuSans-36" x="83.789062"/>
       <use xlink:href="#DejaVuSans-30" x="147.412109"/>
      </g>
     </g>
    </g>
    <g id="ytick_4">
     <g id="line2d_8">
      <g>
       <use xlink:href="#m248697b894" x="72" y="313.74" style="stroke: #000000; stroke-width: 0.8"/>
      </g>
     </g>
     <g id="text_9">
      <!-- −40 -->
      <g transform="translate(18.569688 322.098281)scale(0.22 -0.22)">
       <defs>
        <path id="DejaVuSans-34" d="M 2419 4116 
L 825 1625 
L 2419 1625 
L 2419 4116 
z
M 2253 4666 
L 3047 4666 
L 3047 1625 
L 3713 1625 
L 3713 1100 
L 3047 1100 
L 3047 0 
L 2419 0 
L 2419 1100 
L 313 1100 
L 313 1709 
L 2253 4666 
z
" transform="scale(0.015625)"/>
       </defs>
       <use xlink:href="#DejaVuSans-2212"/>
       <use xlink:href="#DejaVuSans-34" x="83.789062"/>
       <use xlink:href="#DejaVuSans-30" x="147.412109"/>
      </g>
     </g>
    </g>
    <g id="ytick_5">
     <g id="line2d_9">
      <g>
       <use xlink:href="#m248697b894" x="72" y="259.38" style="stroke: #000000; stroke-width: 0.8"/>
      </g>
     </g>
     <g id="text_10">
      <!-- −20 -->
      <g transform="translate(18.569688 267.738281)scale(0.22 -0.22)">
       <use xlink:href="#DejaVuSans-2212"/>
       <use xlink:href="#DejaVuSans-32" x="83.789062"/>
       <use xlink:href="#DejaVuSans-30" x="147.412109"/>
      </g>
     </g>
    </g>
    <g id="ytick_6">
     <g id="line2d_10">
      <g>
       <use xlink:href="#m248697b894" x="72" y="205.02" style="stroke: #000000; stroke-width: 0.8"/>
      </g>
     </g>
     <g id="text_11">
      <!-- 0 -->
      <g transform="translate(51.0025 213.378281)scale(0.22 -0.22)">
       <use xlink:href="#DejaVuSans-30"/>
      </g>
     </g>
    </g>
    <g id="ytick_7">
     <g id="line2d_11">
      <g>
       <use xlink:href="#m248697b894" x="72" y="150.66" style="stroke: #000000; stroke-width: 0.8"/>
      </g>
     </g>
     <g id="text_12">
      <!-- 20 -->
      <g transform="translate(37.005 159.018281)scale(0.22 -0.22)">
       <use xlink:href="#DejaVuSans-32"/>
       <use xlink:href="#DejaVuSans-30" x="63.623047"/>
      </g>
     </g>
    </g>
    <g id="ytick_8">
     <g id="line2d_12">
      <g>
       <use xlink:href="#m248697b894" x="72" y="96.3" style="stroke: #000000; stroke-width: 0.8"/>
      </g>
     </g>
     <g id="text_13">
      <!-- 40 -->
      <g transform="translate(37.005 104.658281)scale(0.22 -0.22)">
       <use xlink:href="#DejaVuSans-34"/>
       <use xlink:href="#DejaVuSans-30" x="63.623047"/>
      </g>
     </g>
    </g>
    <g id="text_14">
     <!-- Membrane potential (mV) -->
     <g transform="translate(-4.058125 410.655469)rotate(-90)scale(0.22 -0.22)">
      <defs>
       <path id="ArialMT-4d" d="M 475 0 
L 475 4581 
L 1388 4581 
L 2472 1338 
Q 2622 884 2691 659 
Q 2769 909 2934 1394 
L 4031 4581 
L 4847 4581 
L 4847 0 
L 4263 0 
L 4263 3834 
L 2931 0 
L 2384 0 
L 1059 3900 
L 1059 0 
L 475 0 
z
" transform="scale(0.015625)"/>
       <path id="ArialMT-62" d="M 941 0 
L 419 0 
L 419 4581 
L 981 4581 
L 981 2947 
Q 1338 3394 1891 3394 
Q 2197 3394 2470 3270 
Q 2744 3147 2920 2923 
Q 3097 2700 3197 2384 
Q 3297 2069 3297 1709 
Q 3297 856 2875 390 
Q 2453 -75 1863 -75 
Q 1275 -75 941 416 
L 941 0 
z
M 934 1684 
Q 934 1088 1097 822 
Q 1363 388 1816 388 
Q 2184 388 2453 708 
Q 2722 1028 2722 1663 
Q 2722 2313 2464 2622 
Q 2206 2931 1841 2931 
Q 1472 2931 1203 2611 
Q 934 2291 934 1684 
z
" transform="scale(0.015625)"/>
       <path id="ArialMT-72" d="M 416 0 
L 416 3319 
L 922 3319 
L 922 2816 
Q 1116 3169 1280 3281 
Q 1444 3394 1641 3394 
Q 1925 3394 2219 3213 
L 2025 2691 
Q 1819 2813 1613 2813 
Q 1428 2813 1281 2702 
Q 1134 2591 1072 2394 
Q 978 2094 978 1738 
L 978 0 
L 416 0 
z
" transform="scale(0.015625)"/>
       <path id="ArialMT-61" d="M 2588 409 
Q 2275 144 1986 34 
Q 1697 -75 1366 -75 
Q 819 -75 525 192 
Q 231 459 231 875 
Q 231 1119 342 1320 
Q 453 1522 633 1644 
Q 813 1766 1038 1828 
Q 1203 1872 1538 1913 
Q 2219 1994 2541 2106 
Q 2544 2222 2544 2253 
Q 2544 2597 2384 2738 
Q 2169 2928 1744 2928 
Q 1347 2928 1158 2789 
Q 969 2650 878 2297 
L 328 2372 
Q 403 2725 575 2942 
Q 747 3159 1072 3276 
Q 1397 3394 1825 3394 
Q 2250 3394 2515 3294 
Q 2781 3194 2906 3042 
Q 3031 2891 3081 2659 
Q 3109 2516 3109 2141 
L 3109 1391 
Q 3109 606 3145 398 
Q 3181 191 3288 0 
L 2700 0 
Q 2613 175 2588 409 
z
M 2541 1666 
Q 2234 1541 1622 1453 
Q 1275 1403 1131 1340 
Q 988 1278 909 1158 
Q 831 1038 831 891 
Q 831 666 1001 516 
Q 1172 366 1500 366 
Q 1825 366 2078 508 
Q 2331 650 2450 897 
Q 2541 1088 2541 1459 
L 2541 1666 
z
" transform="scale(0.015625)"/>
       <path id="ArialMT-6e" d="M 422 0 
L 422 3319 
L 928 3319 
L 928 2847 
Q 1294 3394 1984 3394 
Q 2284 3394 2536 3286 
Q 2788 3178 2913 3003 
Q 3038 2828 3088 2588 
Q 3119 2431 3119 2041 
L 3119 0 
L 2556 0 
L 2556 2019 
Q 2556 2363 2490 2533 
Q 2425 2703 2258 2804 
Q 2091 2906 1866 2906 
Q 1506 2906 1245 2678 
Q 984 2450 984 1813 
L 984 0 
L 422 0 
z
" transform="scale(0.015625)"/>
       <path id="ArialMT-20" transform="scale(0.015625)"/>
       <path id="ArialMT-70" d="M 422 -1272 
L 422 3319 
L 934 3319 
L 934 2888 
Q 1116 3141 1344 3267 
Q 1572 3394 1897 3394 
Q 2322 3394 2647 3175 
Q 2972 2956 3137 2557 
Q 3303 2159 3303 1684 
Q 3303 1175 3120 767 
Q 2938 359 2589 142 
Q 2241 -75 1856 -75 
Q 1575 -75 1351 44 
Q 1128 163 984 344 
L 984 -1272 
L 422 -1272 
z
M 931 1641 
Q 931 1000 1190 694 
Q 1450 388 1819 388 
Q 2194 388 2461 705 
Q 2728 1022 2728 1688 
Q 2728 2322 2467 2637 
Q 2206 2953 1844 2953 
Q 1484 2953 1207 2617 
Q 931 2281 931 1641 
z
" transform="scale(0.015625)"/>
       <path id="ArialMT-6f" d="M 213 1659 
Q 213 2581 725 3025 
Q 1153 3394 1769 3394 
Q 2453 3394 2887 2945 
Q 3322 2497 3322 1706 
Q 3322 1066 3130 698 
Q 2938 331 2570 128 
Q 2203 -75 1769 -75 
Q 1072 -75 642 372 
Q 213 819 213 1659 
z
M 791 1659 
Q 791 1022 1069 705 
Q 1347 388 1769 388 
Q 2188 388 2466 706 
Q 2744 1025 2744 1678 
Q 2744 2294 2464 2611 
Q 2184 2928 1769 2928 
Q 1347 2928 1069 2612 
Q 791 2297 791 1659 
z
" transform="scale(0.015625)"/>
       <path id="ArialMT-74" d="M 1650 503 
L 1731 6 
Q 1494 -44 1306 -44 
Q 1000 -44 831 53 
Q 663 150 594 308 
Q 525 466 525 972 
L 525 2881 
L 113 2881 
L 113 3319 
L 525 3319 
L 525 4141 
L 1084 4478 
L 1084 3319 
L 1650 3319 
L 1650 2881 
L 1084 2881 
L 1084 941 
Q 1084 700 1114 631 
Q 1144 563 1211 522 
Q 1278 481 1403 481 
Q 1497 481 1650 503 
z
" transform="scale(0.015625)"/>
       <path id="ArialMT-6c" d="M 409 0 
L 409 4581 
L 972 4581 
L 972 0 
L 409 0 
z
" transform="scale(0.015625)"/>
       <path id="ArialMT-56" d="M 1803 0 
L 28 4581 
L 684 4581 
L 1875 1253 
Q 2019 853 2116 503 
Q 2222 878 2363 1253 
L 3600 4581 
L 4219 4581 
L 2425 0 
L 1803 0 
z
" transform="scale(0.015625)"/>
      </defs>
      <use xlink:href="#ArialMT-4d"/>
      <use xlink:href="#ArialMT-65" x="83.300781"/>
      <use xlink:href="#ArialMT-6d" x="138.916016"/>
      <use xlink:href="#ArialMT-62" x="222.216797"/>
      <use xlink:href="#ArialMT-72" x="277.832031"/>
      <use xlink:href="#ArialMT-61" x="311.132812"/>
      <use xlink:href="#ArialMT-6e" x="366.748047"/>
      <use xlink:href="#ArialMT-65" x="422.363281"/>
      <use xlink:href="#ArialMT-20" x="477.978516"/>
      <use xlink:href="#ArialMT-70" x="505.761719"/>
      <use xlink:href="#ArialMT-6f" x="561.376953"/>
      <use xlink:href="#ArialMT-74" x="616.992188"/>
      <use xlink:href="#ArialMT-65" x="644.775391"/>
      <use xlink:href="#ArialMT-6e" x="700.390625"/>
      <use xlink:href="#ArialMT-74" x="756.005859"/>
      <use xlink:href="#ArialMT-69" x="783.789062"/>
      <use xlink:href="#ArialMT-61" x="806.005859"/>
      <use xlink:href="#ArialMT-6c" x="861.621094"/>
      <use xlink:href="#ArialMT-20" x="883.837891"/>
      <use xlink:href="#ArialMT-28" x="911.621094"/>
      <use xlink:href="#ArialMT-6d" x="944.921875"/>
      <use xlink:href="#ArialMT-56" x="1028.222656"/>
      <use xlink:href="#ArialMT-29" x="1094.921875"/>
     </g>
    </g>
   </g>
   <g id="line2d_13">
    <path d="M 92.290909 438.768 
L 92.426182 452.54676 
L 92.696727 455.59982 
L 93.102545 457.722775 
L 93.508364 458.784584 
L 93.981818 459.395666 
L 94.522909 459.710056 
L 95.334545 459.881627 
L 97.093091 459.952134 
L 109.064727 459.963918 
L 159.927273 459.964117 
L 160.130182 429.919315 
L 160.536 415.4271 
L 161.077091 403.804175 
L 161.685818 395.339517 
L 162.565091 386.384947 
L 163.782545 376.365433 
L 165.541091 363.854058 
L 166.555636 357.162345 
L 167.570182 348.935089 
L 168.111273 343.149447 
L 168.517091 336.590456 
L 168.787636 329.178016 
L 168.922909 321.696452 
L 168.990545 314.105713 
L 169.058182 292.95475 
L 169.125818 147.864721 
L 169.328727 346.760511 
L 169.531636 376.103447 
L 169.599273 376.474526 
L 169.734545 374.600326 
L 170.749091 355.811199 
L 171.154909 352.894888 
L 171.898909 348.712008 
L 172.642909 342.806465 
L 173.386909 336.340633 
L 173.725091 334.345932 
L 173.928 331.76442 
L 174.130909 325.92991 
L 174.266182 315.66106 
L 174.333818 299.93634 
L 174.401455 168.678921 
L 174.469091 210.141832 
L 174.672 355.283426 
L 174.874909 374.230492 
L 174.942545 374.554642 
L 175.077818 373.180141 
L 176.295273 354.694335 
L 176.904 351.025466 
L 177.580364 346.669283 
L 178.527273 339.349416 
L 178.865455 333.985192 
L 179.068364 328.088825 
L 179.203636 319.908282 
L 179.271273 310.546462 
L 179.338909 273.687671 
L 179.406545 155.807921 
L 179.609455 348.699433 
L 179.812364 375.379277 
L 179.88 376.096452 
L 179.947636 375.77048 
L 180.218182 371.238281 
L 180.894545 359.379012 
L 181.368 354.664269 
L 182.179636 349.579698 
L 183.735273 338.528111 
L 184.005818 334.235378 
L 184.208727 328.031045 
L 184.344 318.632361 
L 184.411636 306.151474 
L 184.546909 182.769654 
L 184.749818 355.374774 
L 184.952727 376.773601 
L 185.020364 377.065479 
L 185.155636 375.575381 
L 186.305455 357.06359 
L 186.846545 353.184139 
L 187.793455 347.116764 
L 188.605091 339.960208 
L 188.943273 334.570012 
L 189.146182 328.811585 
L 189.281455 321.227218 
L 189.349091 313.197153 
L 189.416727 288.580681 
L 189.484364 145.89944 
L 189.687273 345.142112 
L 189.890182 375.348026 
L 189.957818 376.275254 
L 190.025455 376.02965 
L 190.296 371.528728 
L 191.04 358.64717 
L 191.513455 354.260973 
L 192.122182 350.802569 
L 192.663273 347.546153 
L 193.542545 340.268513 
L 193.880727 335.815516 
L 194.151273 329.407541 
L 194.286545 323.03676 
L 194.421818 303.42183 
L 194.489455 195.902035 
L 194.557091 196.097934 
L 194.76 355.603667 
L 194.962909 375.152994 
L 195.030545 375.393661 
L 195.165818 373.953283 
L 196.315636 356.740056 
L 196.856727 353.146137 
L 197.938909 346.40417 
L 198.412364 341.95161 
L 198.818182 336.076288 
L 199.494545 320.994873 
L 199.629818 313.75216 
L 199.697455 305.752842 
L 199.765091 283.864864 
L 199.832727 185.88212 
L 200.035636 330.965272 
L 200.238545 360.862503 
L 200.373818 363.75772 
L 200.441455 363.662688 
L 200.644364 361.00584 
L 201.253091 347.501582 
L 201.794182 332.056226 
L 201.997091 317.396342 
L 202.064727 298.513163 
L 202.132364 136.45765 
L 202.2 220.230294 
L 202.402909 364.247993 
L 202.605818 380.533014 
L 202.673455 380.285309 
L 202.944 375.614581 
L 203.620364 363.606665 
L 204.093818 358.796491 
L 204.770182 354.576179 
L 205.92 347.498079 
L 206.190545 346.351063 
L 206.461091 345.309331 
L 206.799273 342.758695 
L 207.205091 337.590269 
L 207.475636 331.595429 
L 207.678545 321.653524 
L 207.746182 313.52979 
L 207.813818 288.06627 
L 207.881455 144.107576 
L 208.084364 345.837858 
L 208.287273 375.661959 
L 208.354909 376.481924 
L 208.422545 376.161317 
L 208.693091 371.50157 
L 209.437091 358.434301 
L 209.910545 354.044344 
L 210.586909 350.082464 
L 211.263273 345.779688 
L 211.736727 341.28967 
L 212.142545 334.864517 
L 212.413091 326.399593 
L 212.548364 315.686022 
L 212.616 299.260027 
L 212.683636 160.726994 
L 212.751273 217.259637 
L 212.954182 358.968902 
L 213.157091 375.631268 
L 213.224727 375.557575 
L 213.427636 372.521996 
L 214.306909 356.98579 
L 214.780364 352.523837 
L 215.524364 348.25193 
L 216.065455 344.141967 
L 216.538909 338.586021 
L 216.877091 332.058099 
L 217.08 323.600411 
L 217.215273 304.074838 
L 217.350545 194.139767 
L 217.553455 356.390183 
L 217.756364 375.838719 
L 217.824 375.982412 
L 218.026909 373.157489 
L 218.973818 356.824889 
L 219.447273 353.192599 
L 220.8 344.536705 
L 221.273455 339.77769 
L 221.611636 334.143943 
L 221.814545 327.689777 
L 221.949818 317.90988 
L 222.017455 304.557831 
L 222.152727 191.964835 
L 222.355636 356.645969 
L 222.558545 376.200715 
L 222.626182 376.301485 
L 222.829091 373.395296 
L 223.776 356.843209 
L 224.249455 352.646424 
L 225.602182 342.669968 
L 226.278545 334.685765 
L 226.549091 327.148904 
L 226.752 313.159331 
L 226.819636 297.162458 
L 226.887273 177.900776 
L 226.954909 222.753549 
L 227.157818 354.456961 
L 227.360727 371.287181 
L 227.428364 371.457201 
L 227.563636 369.979653 
L 229.119273 345.425507 
L 230.269091 333.620513 
L 230.472 328.434812 
L 230.607273 321.386212 
L 230.674909 314.02467 
L 230.742545 293.714797 
L 230.810182 148.056107 
L 230.877818 236.932587 
L 231.080727 359.233603 
L 231.283636 374.735417 
L 231.351273 374.723821 
L 231.554182 371.822488 
L 232.433455 356.496839 
L 232.771636 353.456894 
L 233.042182 352.851009 
L 233.245091 352.372327 
L 233.515636 351.125398 
L 234.056727 347.107934 
L 235.003636 340.506003 
L 235.341818 334.90884 
L 235.544727 328.754639 
L 235.68 320.195288 
L 235.747636 310.057889 
L 235.882909 160.417381 
L 236.085818 351.624939 
L 236.288727 376.140635 
L 236.356364 376.525879 
L 236.491636 374.989808 
L 237.709091 354.787653 
L 238.317818 350.437914 
L 239.467636 342.389636 
L 239.873455 336.906815 
L 240.144 330.162977 
L 240.346909 317.183772 
L 240.414545 302.671108 
L 240.482182 177.175028 
L 240.549818 201.775784 
L 240.752727 357.86377 
L 240.955636 376.126759 
L 241.023273 376.129968 
L 241.226182 373.082103 
L 242.105455 357.137673 
L 242.578909 352.809594 
L 243.796364 344.064244 
L 244.269818 338.339886 
L 244.608 331.322752 
L 244.810909 321.665329 
L 244.878545 314.227381 
L 244.946182 293.643931 
L 245.013818 146.739034 
L 245.081455 239.75439 
L 245.284364 360.838321 
L 245.487273 375.273973 
L 245.554909 375.108407 
L 245.757818 372.006492 
L 246.637091 356.228954 
L 247.110545 351.846371 
L 248.260364 343.206772 
L 248.666182 337.691722 
L 248.936727 331.532448 
L 249.139636 321.467192 
L 249.207273 313.19172 
L 249.274909 286.587036 
L 249.342545 145.340938 
L 249.545455 346.561105 
L 249.748364 375.636709 
L 249.816 376.406037 
L 249.883636 376.060269 
L 250.154182 371.316614 
L 250.830545 359.192453 
L 251.304 354.474512 
L 252.048 349.740973 
L 252.724364 345.260017 
L 253.130182 341.204385 
L 253.468364 335.919872 
L 253.738909 327.904124 
L 253.874182 318.375367 
L 253.941818 306.083357 
L 254.077091 183.52609 
L 254.28 355.477976 
L 254.482909 375.869508 
L 254.550545 375.975233 
L 254.753455 372.997038 
L 255.632727 357.278247 
L 256.173818 352.524271 
L 257.526545 342.43374 
L 257.932364 336.823013 
L 258.202909 330.515466 
L 258.405818 319.401565 
L 258.473455 309.071721 
L 258.608727 165.221584 
L 258.811636 351.596903 
L 259.014545 375.407838 
L 259.082182 375.794279 
L 259.217455 374.24657 
L 260.434909 353.688104 
L 261.043636 349.080124 
L 262.261091 340.264368 
L 262.599273 334.922757 
L 262.802182 328.838562 
L 262.937455 320.255528 
L 263.005091 310.045885 
L 263.140364 160.834999 
L 263.343273 351.768224 
L 263.546182 376.178579 
L 263.613818 376.579506 
L 263.749091 375.065698 
L 264.966545 354.702197 
L 265.575273 350.171089 
L 266.319273 344.908615 
L 266.792727 339.793743 
L 267.333818 330.943291 
L 267.536727 324.331262 
L 267.672 312.853707 
L 267.739636 292.902033 
L 267.807273 154.951475 
L 267.874909 240.647678 
L 268.077818 357.278918 
L 268.280727 372.390445 
L 268.348364 372.409071 
L 268.551273 369.526169 
L 269.633455 350.311084 
L 270.242182 344.881772 
L 270.850909 339.089781 
L 271.189091 333.745744 
L 271.392 327.429773 
L 271.527273 317.583182 
L 271.594909 303.742383 
L 271.662545 187.902369 
L 271.730182 195.413745 
L 271.933091 356.333671 
L 272.136 375.74517 
L 272.203636 375.90449 
L 272.406545 373.048306 
L 273.285818 357.482682 
L 273.759273 353.138309 
L 274.773818 347.119915 
L 275.314909 341.704053 
L 275.720727 335.504134 
L 275.991273 327.244075 
L 276.126545 316.645863 
L 276.194182 300.596848 
L 276.261818 159.715593 
L 276.329455 212.212292 
L 276.532364 359.343568 
L 276.735273 376.173627 
L 276.802909 376.039749 
L 277.005818 372.823163 
L 277.885091 356.731213 
L 278.358545 352.098063 
L 278.764364 350.126133 
L 279.170182 348.150874 
L 279.576 344.931488 
L 280.049455 339.323922 
L 280.387636 332.743243 
L 280.590545 324.884428 
L 280.725818 309.840715 
L 280.861091 160.930568 
L 281.064 350.850773 
L 281.266909 375.34771 
L 281.334545 375.756099 
L 281.469818 374.212155 
L 282.687273 353.516468 
L 283.296 349.333088 
L 283.972364 344.147537 
L 284.445818 339.291755 
L 284.784 333.126501 
L 284.986909 325.296479 
L 285.122182 309.838179 
L 285.257455 162.0282 
L 285.460364 351.978807 
L 285.663273 376.040354 
L 285.730909 376.395752 
L 285.866182 374.828632 
L 287.083636 354.431395 
L 287.692364 349.656197 
L 288.842182 341.261488 
L 289.248 335.337553 
L 289.518545 327.068173 
L 289.653818 315.991044 
L 289.721455 297.997542 
L 289.789091 148.087479 
L 289.856727 222.968632 
L 290.059636 360.333473 
L 290.262545 376.155023 
L 290.330182 375.981159 
L 290.533091 372.730338 
L 291.48 355.452295 
L 291.885818 351.806137 
L 292.291636 349.816051 
L 292.697455 347.882283 
L 293.170909 344.224767 
L 293.576727 339.664296 
L 293.914909 333.430348 
L 294.117818 325.912214 
L 294.253091 312.093941 
L 294.320727 278.724488 
L 294.388364 149.655807 
L 294.591273 348.78786 
L 294.794182 375.70886 
L 294.861818 376.268751 
L 294.997091 374.842982 
L 296.214545 354.326498 
L 296.755636 350.417653 
L 297.499636 345.850028 
L 297.905455 341.943192 
L 298.311273 335.562118 
L 298.581818 327.354521 
L 298.717091 317.422195 
L 298.784727 303.620288 
L 298.852364 188.977846 
L 298.92 196.807566 
L 299.122909 356.928534 
L 299.325818 375.617585 
L 299.393455 375.615744 
L 299.596364 372.479219 
L 300.543273 355.130404 
L 301.016727 350.754282 
L 301.963636 344.074136 
L 302.369455 339.212298 
L 302.707636 332.086351 
L 302.910545 322.498588 
L 302.978182 315.074098 
L 303.045818 294.487298 
L 303.113455 143.089753 
L 303.181091 236.839983 
L 303.384 361.974483 
L 303.586909 376.314244 
L 303.654545 376.038152 
L 303.925091 371.315557 
L 304.669091 357.733414 
L 305.142545 352.977287 
L 306.765818 340.905556 
L 307.171636 335.763066 
L 307.442182 329.274992 
L 307.577455 322.463126 
L 307.712727 298.279943 
L 307.780364 153.771302 
L 307.848 220.884746 
L 308.050909 358.643445 
L 308.253818 374.888921 
L 308.321455 374.805736 
L 308.524364 371.675045 
L 309.471273 354.360996 
L 309.944727 349.757743 
L 310.485818 346.599262 
L 310.959273 342.934121 
L 311.365091 337.763528 
L 311.635636 331.971733 
L 311.838545 322.73452 
L 311.973818 297.418729 
L 312.041455 147.837024 
L 312.109091 225.095223 
L 312.312 360.337673 
L 312.514909 376.004827 
L 312.582545 375.820209 
L 312.785455 372.537028 
L 313.664727 356.30598 
L 314.138182 351.707538 
L 315.220364 343.549823 
L 315.761455 337.10383 
L 316.099636 331.608345 
L 316.302545 325.07425 
L 316.437818 314.043902 
L 316.505455 296.010103 
L 316.573091 157.53315 
L 316.640727 228.89239 
L 316.843636 356.955139 
L 317.046545 372.971069 
L 317.114182 372.994795 
L 317.317091 370.02676 
L 318.331636 351.623569 
L 318.872727 346.448209 
L 319.887273 338.535929 
L 320.157818 335.521632 
L 320.428364 329.79497 
L 320.631273 318.702271 
L 320.698909 307.811957 
L 320.834182 170.415366 
L 321.037091 350.355004 
L 321.24 373.706482 
L 321.307636 374.233764 
L 321.442909 372.941172 
L 322.930909 349.31785 
L 324.283636 337.432007 
L 324.554182 332.799183 
L 324.757091 325.83306 
L 324.892364 313.46867 
L 324.96 289.436544 
L 325.027636 144.823915 
L 325.230545 343.658467 
L 325.433455 374.189099 
L 325.501091 375.161913 
L 325.568727 374.923643 
L 325.839273 370.280299 
L 326.650909 355.461485 
L 327.124364 350.918236 
L 328.274182 343.660462 
L 328.68 338.648579 
L 328.950545 333.008189 
L 329.153455 324.453501 
L 329.288727 305.249114 
L 329.424 189.12343 
L 329.626909 356.955477 
L 329.829818 376.563655 
L 329.897455 376.573647 
L 330.100364 373.400963 
L 330.979636 357.086242 
L 331.453091 352.508127 
L 332.4 346.338159 
L 332.805818 343.30139 
L 333.211636 338.388861 
L 333.549818 331.06289 
L 333.752727 320.131367 
L 333.820364 310.14643 
L 333.955636 159.853738 
L 334.158545 351.118641 
L 334.361455 375.539919 
L 334.429091 375.909787 
L 334.564364 374.329373 
L 335.781818 353.574076 
L 336.390545 348.843013 
L 337.066909 343.411198 
L 337.540364 337.40992 
L 337.878545 329.769514 
L 338.081455 319.010306 
L 338.149091 309.250562 
L 338.284364 162.346015 
L 338.487273 348.889824 
L 338.690182 373.593355 
L 338.757818 374.13819 
L 338.893091 372.773733 
L 340.245818 350.893017 
L 341.463273 340.583458 
L 341.801455 335.40698 
L 342.072 327.505118 
L 342.207273 317.73983 
L 342.274909 304.284921 
L 342.410182 193.02963 
L 342.613091 356.225651 
L 342.816 375.508828 
L 342.883636 375.570351 
L 343.086545 372.508134 
L 343.965818 356.298594 
L 344.439273 351.896036 
L 345.724364 342.356915 
L 346.130182 336.233222 
L 346.400727 328.428445 
L 346.536 319.273381 
L 346.603636 307.6271 
L 346.738909 175.661781 
L 346.941818 354.750676 
L 347.144727 376.133923 
L 347.212364 376.27115 
L 347.415273 373.25772 
L 348.362182 355.719007 
L 348.835636 351.056559 
L 350.458909 338.04935 
L 350.729455 332.876745 
L 350.932364 325.204922 
L 351.067636 310.518006 
L 351.135273 269.564509 
L 351.202909 157.122175 
L 351.405818 349.763073 
L 351.608727 374.959984 
L 351.676364 375.445829 
L 351.811636 373.992128 
L 353.164364 351.481916 
L 353.502545 349.361949 
L 353.976 346.778438 
L 354.449455 342.877687 
L 354.855273 337.826449 
L 355.125818 332.30634 
L 355.328727 324.008174 
L 355.464 305.665331 
L 355.599273 185.290144 
L 355.802182 355.055301 
L 356.005091 375.353877 
L 356.072727 375.47736 
L 356.275636 372.464666 
L 357.222545 355.20715 
L 357.696 350.860466 
L 358.642909 343.797171 
L 359.116364 338.019786 
L 359.386909 332.495374 
L 359.589818 323.905015 
L 359.725091 304.040754 
L 359.792727 189.540881 
L 359.860364 194.903731 
L 360.063273 357.126781 
L 360.266182 375.92584 
L 360.333818 375.888938 
L 360.536727 372.689951 
L 361.416 356.408758 
L 361.889455 351.770734 
L 363.377455 340.637186 
L 363.715636 335.274198 
L 363.986182 326.885685 
L 364.121455 315.826186 
L 364.189091 297.908274 
L 364.256727 149.204358 
L 364.324364 223.221564 
L 364.527273 359.934845 
L 364.730182 375.612447 
L 364.797818 375.41976 
L 365.000727 372.121017 
L 365.88 355.677018 
L 366.421091 350.31618 
L 367.570909 341.230325 
L 367.909091 336.08924 
L 368.179636 328.40599 
L 368.314909 320.009142 
L 368.382545 310.389896 
L 368.450182 270.363796 
L 368.517818 157.697249 
L 368.720727 349.827372 
L 368.923636 374.837254 
L 368.991273 375.308488 
L 369.126545 373.848958 
L 370.479273 351.49074 
L 371.088 347.029718 
L 371.561455 343.121571 
L 371.967273 337.677063 
L 372.237818 331.197911 
L 372.440727 319.870572 
L 372.508364 309.355602 
L 372.643636 165.025185 
L 372.846545 352.670124 
L 373.049455 375.907322 
L 373.117091 376.187339 
L 373.252364 374.54946 
L 374.402182 354.678394 
L 374.943273 350.457342 
L 375.822545 344.14031 
L 376.296 338.816726 
L 376.634182 331.968713 
L 376.837091 322.646243 
L 376.904727 315.454485 
L 376.972364 296.201272 
L 377.04 145.118455 
L 377.107636 230.206956 
L 377.310545 360.86453 
L 377.513455 375.837717 
L 377.581091 375.591766 
L 377.851636 370.842874 
L 378.663273 355.904471 
L 379.204364 350.345023 
L 380.151273 343.638552 
L 380.557091 339.815452 
L 380.895273 334.005435 
L 381.098182 326.924542 
L 381.233455 314.896616 
L 381.301091 292.667613 
L 381.368727 140.975506 
L 381.571636 343.985634 
L 381.774545 375.580227 
L 381.842182 376.47493 
L 381.909818 376.146711 
L 382.180364 371.233796 
L 382.924364 357.347601 
L 383.397818 352.11891 
L 384.141818 346.874749 
L 384.615273 342.681008 
L 385.021091 337.194722 
L 385.359273 329.484008 
L 385.562182 317.212048 
L 385.629818 304.197085 
L 385.765091 192.257268 
L 385.968 354.896598 
L 386.170909 374.378326 
L 386.238545 374.489017 
L 386.441455 371.467813 
L 387.456 352.815157 
L 387.997091 347.759632 
L 388.876364 341.033913 
L 389.282182 335.316758 
L 389.620364 327.392416 
L 389.755636 320.238255 
L 389.823273 312.719662 
L 389.890909 291.529721 
L 389.958545 151.899049 
L 390.161455 340.01523 
L 390.364364 371.425012 
L 390.432 372.645865 
L 390.499636 372.558799 
L 390.702545 369.450828 
L 391.649455 352.16641 
L 392.190545 347.733192 
L 392.799273 342.648085 
L 393.205091 337.344369 
L 393.475636 330.842568 
L 393.610909 324.385468 
L 393.746182 304.641024 
L 393.813818 187.723422 
L 393.881455 192.169962 
L 394.084364 357.120496 
L 394.287273 376.382468 
L 394.354909 376.40384 
L 394.557818 373.302968 
L 395.437091 357.345166 
L 395.978182 352.082123 
L 397.263273 341.622895 
L 397.669091 335.680218 
L 397.939636 327.903184 
L 398.074909 318.467646 
L 398.142545 306.039167 
L 398.277818 184.030004 
L 398.480727 355.495706 
L 398.683636 375.738353 
L 398.751273 375.804769 
L 398.954182 372.67612 
L 399.901091 355.188468 
L 400.442182 349.89977 
L 401.659636 339.562933 
L 401.997818 332.651967 
L 402.200727 324.905723 
L 402.336 310.752272 
L 402.403636 275.26372 
L 402.471273 155.306977 
L 402.674182 348.563543 
L 402.877091 374.291624 
L 402.944727 374.836789 
L 403.08 373.434617 
L 404.432727 350.82761 
L 405.853091 337.889173 
L 406.123636 331.89315 
L 406.326545 322.141791 
L 406.394182 314.450564 
L 406.461818 292.127938 
L 406.529455 142.698244 
L 406.732364 343.999646 
L 406.935273 375.176215 
L 407.002909 376.042071 
L 407.070545 375.701533 
L 407.341091 370.801844 
L 408.085091 356.879715 
L 408.558545 352.403052 
L 409.708364 343.686837 
L 410.249455 337.043208 
L 410.52 330.947509 
L 410.722909 319.889725 
L 410.790545 309.58755 
L 410.925818 163.174436 
L 411.128727 351.654522 
L 411.331636 375.312126 
L 411.399273 375.648203 
L 411.534545 374.06193 
L 412.752 353.09206 
L 413.428364 347.522815 
L 414.24 340.616876 
L 414.578182 335.475523 
L 414.848727 328.143102 
L 414.984 320.134868 
L 415.051636 311.213414 
L 415.119273 279.107225 
L 415.186909 152.69727 
L 415.389818 347.053051 
L 415.592727 373.712233 
L 415.660364 374.367991 
L 415.728 373.983071 
L 415.998545 369.209397 
L 416.810182 354.315912 
L 417.283636 349.3777 
L 418.839273 336.401665 
L 419.109818 330.700518 
L 419.312727 319.869385 
L 419.380364 309.729591 
L 419.515636 161.096524 
L 419.718545 350.186458 
L 419.921455 374.77951 
L 419.989091 375.251898 
L 420.124364 373.782882 
L 421.409455 352.140445 
L 421.950545 348.11697 
L 422.491636 343.639289 
L 422.897455 338.405958 
L 423.235636 331.374342 
L 423.438545 322.192849 
L 423.573818 297.321662 
L 423.641455 152.187565 
L 423.709091 225.491662 
L 423.912 359.373543 
L 424.114909 375.051362 
L 424.182545 374.881781 
L 424.385455 371.575031 
L 425.264727 354.991616 
L 425.738182 350.049644 
L 426.346909 346.151268 
L 426.752727 342.911853 
L 427.158545 337.677371 
L 427.429091 331.36884 
L 427.632 319.910572 
L 427.699636 308.925542 
L 427.834909 168.182167 
L 428.037818 353.618061 
L 428.240727 376.253291 
L 428.308364 376.466005 
L 428.511273 373.489278 
L 429.458182 355.990458 
L 429.931636 351.442846 
L 430.472727 347.700542 
L 430.675636 394.297359 
L 431.013818 413.332233 
L 431.622545 432.66308 
L 432.231273 445.505694 
L 432.704727 451.382763 
L 433.178182 454.762859 
L 433.651636 456.705804 
L 434.192727 457.999912 
L 434.801455 458.853609 
L 435.477818 459.420792 
L 436.357091 459.846548 
L 437.506909 460.128404 
L 439.197818 460.280986 
L 442.038545 460.283769 
L 447.314182 460.026895 
L 452.522182 459.967892 
L 498.109091 459.96089 
L 498.109091 459.96089 
" clip-path="url(#p9d94c45ce2)" style="fill: none; stroke: #000000; stroke-width: 1.5; stroke-linecap: square"/>
   </g>
   <g id="line2d_14">
    <path d="M 497.973818 408.87 
" clip-path="url(#p9d94c45ce2)" style="fill: none; stroke: #000000; stroke-width: 1.5; stroke-linecap: square"/>
   </g>
   <g id="line2d_15">
    <path d="M 430.472727 368.1 
L 430.472727 365.382 
L 430.472727 362.664 
L 430.472727 359.946 
L 430.472727 357.228 
L 430.472727 354.51 
L 430.472727 351.792 
L 430.472727 349.074 
L 430.472727 346.356 
L 430.472727 343.638 
L 430.472727 340.92 
L 430.472727 338.202 
L 430.472727 335.484 
L 430.472727 332.766 
L 430.472727 330.048 
L 430.472727 327.33 
L 430.472727 324.612 
L 430.472727 321.894 
L 430.472727 319.176 
L 430.472727 316.458 
" clip-path="url(#p9d94c45ce2)" style="fill: none; stroke: #000000; stroke-width: 1.5; stroke-linecap: square"/>
   </g>
   <g id="patch_3">
    <path d="M 72 504 
L 72 69.12 
" style="fill: none; stroke: #000000; stroke-width: 0.8; stroke-linejoin: miter; stroke-linecap: square"/>
   </g>
   <g id="patch_4">
    <path d="M 518.4 504 
L 518.4 69.12 
" style="fill: none; stroke: #000000; stroke-width: 0.8; stroke-linejoin: miter; stroke-linecap: square"/>
   </g>
   <g id="patch_5">
    <path d="M 72 504 
L 518.4 504 
" style="fill: none; stroke: #000000; stroke-width: 0.8; stroke-linejoin: miter; stroke-linecap: square"/>
   </g>
   <g id="patch_6">
    <path d="M 72 69.12 
L 518.4 69.12 
" style="fill: none; stroke: #000000; stroke-width: 0.8; stroke-linejoin: miter; stroke-linecap: square"/>
   </g>
   <g id="text_15">
    <!-- 500 ms -->
    <g transform="translate(497.973818 406.152)scale(0.22 -0.22)">
     <defs>
      <path id="ArialMT-35" d="M 266 1200 
L 856 1250 
Q 922 819 1161 601 
Q 1400 384 1738 384 
Q 2144 384 2425 690 
Q 2706 997 2706 1503 
Q 2706 1984 2436 2262 
Q 2166 2541 1728 2541 
Q 1456 2541 1237 2417 
Q 1019 2294 894 2097 
L 366 2166 
L 809 4519 
L 3088 4519 
L 3088 3981 
L 1259 3981 
L 1013 2750 
Q 1425 3038 1878 3038 
Q 2478 3038 2890 2622 
Q 3303 2206 3303 1553 
Q 3303 931 2941 478 
Q 2500 -78 1738 -78 
Q 1113 -78 717 272 
Q 322 622 266 1200 
z
" transform="scale(0.015625)"/>
      <path id="ArialMT-30" d="M 266 2259 
Q 266 3072 433 3567 
Q 600 4063 929 4331 
Q 1259 4600 1759 4600 
Q 2128 4600 2406 4451 
Q 2684 4303 2865 4023 
Q 3047 3744 3150 3342 
Q 3253 2941 3253 2259 
Q 3253 1453 3087 958 
Q 2922 463 2592 192 
Q 2263 -78 1759 -78 
Q 1097 -78 719 397 
Q 266 969 266 2259 
z
M 844 2259 
Q 844 1131 1108 757 
Q 1372 384 1759 384 
Q 2147 384 2411 759 
Q 2675 1134 2675 2259 
Q 2675 3391 2411 3762 
Q 2147 4134 1753 4134 
Q 1366 4134 1134 3806 
Q 844 3388 844 2259 
z
" transform="scale(0.015625)"/>
     </defs>
     <use xlink:href="#ArialMT-35"/>
     <use xlink:href="#ArialMT-30" x="55.615234"/>
     <use xlink:href="#ArialMT-30" x="111.230469"/>
     <use xlink:href="#ArialMT-20" x="166.845703"/>
     <use xlink:href="#ArialMT-6d" x="194.628906"/>
     <use xlink:href="#ArialMT-73" x="277.929688"/>
    </g>
   </g>
   <g id="text_16">
    <!-- 20 mV -->
    <g transform="translate(504.737455 321.894)scale(0.22 -0.22)">
     <defs>
      <path id="ArialMT-32" d="M 3222 541 
L 3222 0 
L 194 0 
Q 188 203 259 391 
Q 375 700 629 1000 
Q 884 1300 1366 1694 
Q 2113 2306 2375 2664 
Q 2638 3022 2638 3341 
Q 2638 3675 2398 3904 
Q 2159 4134 1775 4134 
Q 1369 4134 1125 3890 
Q 881 3647 878 3216 
L 300 3275 
Q 359 3922 746 4261 
Q 1134 4600 1788 4600 
Q 2447 4600 2831 4234 
Q 3216 3869 3216 3328 
Q 3216 3053 3103 2787 
Q 2991 2522 2730 2228 
Q 2469 1934 1863 1422 
Q 1356 997 1212 845 
Q 1069 694 975 541 
L 3222 541 
z
" transform="scale(0.015625)"/>
     </defs>
     <use xlink:href="#ArialMT-32"/>
     <use xlink:href="#ArialMT-30" x="55.615234"/>
     <use xlink:href="#ArialMT-20" x="111.230469"/>
     <use xlink:href="#ArialMT-6d" x="139.013672"/>
     <use xlink:href="#ArialMT-56" x="222.314453"/>
    </g>
   </g>
   <g id="text_17">
    <!--  Plotting dSPN, trace number 3318  -->
    <g transform="translate(122.17 63.12)scale(0.22 -0.22)">
     <defs>
      <path id="ArialMT-50" d="M 494 0 
L 494 4581 
L 2222 4581 
Q 2678 4581 2919 4538 
Q 3256 4481 3484 4323 
Q 3713 4166 3852 3881 
Q 3991 3597 3991 3256 
Q 3991 2672 3619 2267 
Q 3247 1863 2275 1863 
L 1100 1863 
L 1100 0 
L 494 0 
z
M 1100 2403 
L 2284 2403 
Q 2872 2403 3119 2622 
Q 3366 2841 3366 3238 
Q 3366 3525 3220 3729 
Q 3075 3934 2838 4000 
Q 2684 4041 2272 4041 
L 1100 4041 
L 1100 2403 
z
" transform="scale(0.015625)"/>
      <path id="ArialMT-67" d="M 319 -275 
L 866 -356 
Q 900 -609 1056 -725 
Q 1266 -881 1628 -881 
Q 2019 -881 2231 -725 
Q 2444 -569 2519 -288 
Q 2563 -116 2559 434 
Q 2191 0 1641 0 
Q 956 0 581 494 
Q 206 988 206 1678 
Q 206 2153 378 2554 
Q 550 2956 876 3175 
Q 1203 3394 1644 3394 
Q 2231 3394 2613 2919 
L 2613 3319 
L 3131 3319 
L 3131 450 
Q 3131 -325 2973 -648 
Q 2816 -972 2473 -1159 
Q 2131 -1347 1631 -1347 
Q 1038 -1347 672 -1080 
Q 306 -813 319 -275 
z
M 784 1719 
Q 784 1066 1043 766 
Q 1303 466 1694 466 
Q 2081 466 2343 764 
Q 2606 1063 2606 1700 
Q 2606 2309 2336 2618 
Q 2066 2928 1684 2928 
Q 1309 2928 1046 2623 
Q 784 2319 784 1719 
z
" transform="scale(0.015625)"/>
      <path id="ArialMT-64" d="M 2575 0 
L 2575 419 
Q 2259 -75 1647 -75 
Q 1250 -75 917 144 
Q 584 363 401 755 
Q 219 1147 219 1656 
Q 219 2153 384 2558 
Q 550 2963 881 3178 
Q 1213 3394 1622 3394 
Q 1922 3394 2156 3267 
Q 2391 3141 2538 2938 
L 2538 4581 
L 3097 4581 
L 3097 0 
L 2575 0 
z
M 797 1656 
Q 797 1019 1065 703 
Q 1334 388 1700 388 
Q 2069 388 2326 689 
Q 2584 991 2584 1609 
Q 2584 2291 2321 2609 
Q 2059 2928 1675 2928 
Q 1300 2928 1048 2622 
Q 797 2316 797 1656 
z
" transform="scale(0.015625)"/>
      <path id="ArialMT-53" d="M 288 1472 
L 859 1522 
Q 900 1178 1048 958 
Q 1197 738 1509 602 
Q 1822 466 2213 466 
Q 2559 466 2825 569 
Q 3091 672 3220 851 
Q 3350 1031 3350 1244 
Q 3350 1459 3225 1620 
Q 3100 1781 2813 1891 
Q 2628 1963 1997 2114 
Q 1366 2266 1113 2400 
Q 784 2572 623 2826 
Q 463 3081 463 3397 
Q 463 3744 659 4045 
Q 856 4347 1234 4503 
Q 1613 4659 2075 4659 
Q 2584 4659 2973 4495 
Q 3363 4331 3572 4012 
Q 3781 3694 3797 3291 
L 3216 3247 
Q 3169 3681 2898 3903 
Q 2628 4125 2100 4125 
Q 1550 4125 1298 3923 
Q 1047 3722 1047 3438 
Q 1047 3191 1225 3031 
Q 1400 2872 2139 2705 
Q 2878 2538 3153 2413 
Q 3553 2228 3743 1945 
Q 3934 1663 3934 1294 
Q 3934 928 3725 604 
Q 3516 281 3123 101 
Q 2731 -78 2241 -78 
Q 1619 -78 1198 103 
Q 778 284 539 648 
Q 300 1013 288 1472 
z
" transform="scale(0.015625)"/>
      <path id="ArialMT-4e" d="M 488 0 
L 488 4581 
L 1109 4581 
L 3516 984 
L 3516 4581 
L 4097 4581 
L 4097 0 
L 3475 0 
L 1069 3600 
L 1069 0 
L 488 0 
z
" transform="scale(0.015625)"/>
      <path id="ArialMT-2c" d="M 569 0 
L 569 641 
L 1209 641 
L 1209 0 
Q 1209 -353 1084 -570 
Q 959 -788 688 -906 
L 531 -666 
Q 709 -588 793 -436 
Q 878 -284 888 0 
L 569 0 
z
" transform="scale(0.015625)"/>
      <path id="ArialMT-63" d="M 2588 1216 
L 3141 1144 
Q 3050 572 2676 248 
Q 2303 -75 1759 -75 
Q 1078 -75 664 370 
Q 250 816 250 1647 
Q 250 2184 428 2587 
Q 606 2991 970 3192 
Q 1334 3394 1763 3394 
Q 2303 3394 2647 3120 
Q 2991 2847 3088 2344 
L 2541 2259 
Q 2463 2594 2264 2762 
Q 2066 2931 1784 2931 
Q 1359 2931 1093 2626 
Q 828 2322 828 1663 
Q 828 994 1084 691 
Q 1341 388 1753 388 
Q 2084 388 2306 591 
Q 2528 794 2588 1216 
z
" transform="scale(0.015625)"/>
      <path id="ArialMT-75" d="M 2597 0 
L 2597 488 
Q 2209 -75 1544 -75 
Q 1250 -75 995 37 
Q 741 150 617 320 
Q 494 491 444 738 
Q 409 903 409 1263 
L 409 3319 
L 972 3319 
L 972 1478 
Q 972 1038 1006 884 
Q 1059 663 1231 536 
Q 1403 409 1656 409 
Q 1909 409 2131 539 
Q 2353 669 2445 892 
Q 2538 1116 2538 1541 
L 2538 3319 
L 3100 3319 
L 3100 0 
L 2597 0 
z
" transform="scale(0.015625)"/>
      <path id="ArialMT-33" d="M 269 1209 
L 831 1284 
Q 928 806 1161 595 
Q 1394 384 1728 384 
Q 2125 384 2398 659 
Q 2672 934 2672 1341 
Q 2672 1728 2419 1979 
Q 2166 2231 1775 2231 
Q 1616 2231 1378 2169 
L 1441 2663 
Q 1497 2656 1531 2656 
Q 1891 2656 2178 2843 
Q 2466 3031 2466 3422 
Q 2466 3731 2256 3934 
Q 2047 4138 1716 4138 
Q 1388 4138 1169 3931 
Q 950 3725 888 3313 
L 325 3413 
Q 428 3978 793 4289 
Q 1159 4600 1703 4600 
Q 2078 4600 2393 4439 
Q 2709 4278 2876 4000 
Q 3044 3722 3044 3409 
Q 3044 3113 2884 2869 
Q 2725 2625 2413 2481 
Q 2819 2388 3044 2092 
Q 3269 1797 3269 1353 
Q 3269 753 2831 336 
Q 2394 -81 1725 -81 
Q 1122 -81 723 278 
Q 325 638 269 1209 
z
" transform="scale(0.015625)"/>
      <path id="ArialMT-31" d="M 2384 0 
L 1822 0 
L 1822 3584 
Q 1619 3391 1289 3197 
Q 959 3003 697 2906 
L 697 3450 
Q 1169 3672 1522 3987 
Q 1875 4303 2022 4600 
L 2384 4600 
L 2384 0 
z
" transform="scale(0.015625)"/>
      <path id="ArialMT-38" d="M 1131 2484 
Q 781 2613 612 2850 
Q 444 3088 444 3419 
Q 444 3919 803 4259 
Q 1163 4600 1759 4600 
Q 2359 4600 2725 4251 
Q 3091 3903 3091 3403 
Q 3091 3084 2923 2848 
Q 2756 2613 2416 2484 
Q 2838 2347 3058 2040 
Q 3278 1734 3278 1309 
Q 3278 722 2862 322 
Q 2447 -78 1769 -78 
Q 1091 -78 675 323 
Q 259 725 259 1325 
Q 259 1772 486 2073 
Q 713 2375 1131 2484 
z
M 1019 3438 
Q 1019 3113 1228 2906 
Q 1438 2700 1772 2700 
Q 2097 2700 2305 2904 
Q 2513 3109 2513 3406 
Q 2513 3716 2298 3927 
Q 2084 4138 1766 4138 
Q 1444 4138 1231 3931 
Q 1019 3725 1019 3438 
z
M 838 1322 
Q 838 1081 952 856 
Q 1066 631 1291 507 
Q 1516 384 1775 384 
Q 2178 384 2440 643 
Q 2703 903 2703 1303 
Q 2703 1709 2433 1975 
Q 2163 2241 1756 2241 
Q 1359 2241 1098 1978 
Q 838 1716 838 1322 
z
" transform="scale(0.015625)"/>
     </defs>
     <use xlink:href="#ArialMT-20"/>
     <use xlink:href="#ArialMT-50" x="27.783203"/>
     <use xlink:href="#ArialMT-6c" x="94.482422"/>
     <use xlink:href="#ArialMT-6f" x="116.699219"/>
     <use xlink:href="#ArialMT-74" x="172.314453"/>
     <use xlink:href="#ArialMT-74" x="200.097656"/>
     <use xlink:href="#ArialMT-69" x="227.880859"/>
     <use xlink:href="#ArialMT-6e" x="250.097656"/>
     <use xlink:href="#ArialMT-67" x="305.712891"/>
     <use xlink:href="#ArialMT-20" x="361.328125"/>
     <use xlink:href="#ArialMT-64" x="389.111328"/>
     <use xlink:href="#ArialMT-53" x="444.726562"/>
     <use xlink:href="#ArialMT-50" x="511.425781"/>
     <use xlink:href="#ArialMT-4e" x="578.125"/>
     <use xlink:href="#ArialMT-2c" x="650.341797"/>
     <use xlink:href="#ArialMT-20" x="678.125"/>
     <use xlink:href="#ArialMT-74" x="705.908203"/>
     <use xlink:href="#ArialMT-72" x="733.691406"/>
     <use xlink:href="#ArialMT-61" x="766.992188"/>
     <use xlink:href="#ArialMT-63" x="822.607422"/>
     <use xlink:href="#ArialMT-65" x="872.607422"/>
     <use xlink:href="#ArialMT-20" x="928.222656"/>
     <use xlink:href="#ArialMT-6e" x="956.005859"/>
     <use xlink:href="#ArialMT-75" x="1011.621094"/>
     <use xlink:href="#ArialMT-6d" x="1067.236328"/>
     <use xlink:href="#ArialMT-62" x="1150.537109"/>
     <use xlink:href="#ArialMT-65" x="1206.152344"/>
     <use xlink:href="#ArialMT-72" x="1261.767578"/>
     <use xlink:href="#ArialMT-20" x="1295.068359"/>
     <use xlink:href="#ArialMT-33" x="1322.851562"/>
     <use xlink:href="#ArialMT-33" x="1378.466797"/>
     <use xlink:href="#ArialMT-31" x="1434.082031"/>
     <use xlink:href="#ArialMT-38" x="1489.697266"/>
     <use xlink:href="#ArialMT-20" x="1545.3125"/>
    </g>
   </g>
  </g>
 </g>
 <defs>
  <clipPath id="p9d94c45ce2">
   <rect x="72" y="69.12" width="446.4" height="434.88"/>
  </clipPath>
 </defs>
</svg>
