<?xml version="1.0" encoding="utf-8" standalone="no"?>
<!DOCTYPE svg PUBLIC "-//W3C//DTD SVG 1.1//EN"
  "http://www.w3.org/Graphics/SVG/1.1/DTD/svg11.dtd">
<svg xmlns:xlink="http://www.w3.org/1999/xlink" width="576pt" height="576pt" viewBox="0 0 576 576" xmlns="http://www.w3.org/2000/svg" version="1.1">
 <metadata>
  <rdf:RDF xmlns:dc="http://purl.org/dc/elements/1.1/" xmlns:cc="http://creativecommons.org/ns#" xmlns:rdf="http://www.w3.org/1999/02/22-rdf-syntax-ns#">
   <cc:Work>
    <dc:type rdf:resource="http://purl.org/dc/dcmitype/StillImage"/>
    <dc:date>2022-10-30T19:57:10.536161</dc:date>
    <dc:format>image/svg+xml</dc:format>
    <dc:creator>
     <cc:Agent>
      <dc:title>Matplotlib v3.5.2, https://matplotlib.org/</dc:title>
     </cc:Agent>
    </dc:creator>
   </cc:Work>
  </rdf:RDF>
 </metadata>
 <defs>
  <style type="text/css">*{stroke-linejoin: round; stroke-linecap: butt}</style>
 </defs>
 <g id="figure_1">
  <g id="patch_1">
   <path d="M 0 576 
L 576 576 
L 576 0 
L 0 0 
L 0 576 
z
" style="fill: none"/>
  </g>
  <g id="axes_1">
   <g id="patch_2">
    <path d="M 72 504 
L 518.4 504 
L 518.4 69.12 
L 72 69.12 
z
" style="fill: #ffffff"/>
   </g>
   <g id="matplotlib.axis_1">
    <g id="xtick_1">
     <g id="line2d_1">
      <defs>
       <path id="md3443c19dd" d="M 0 0 
L 0 3.5 
" style="stroke: #000000; stroke-width: 0.8"/>
      </defs>
      <g>
       <use xlink:href="#md3443c19dd" x="92.290909" y="504" style="stroke: #000000; stroke-width: 0.8"/>
      </g>
     </g>
     <g id="text_1">
      <!-- 0 -->
      <g transform="translate(85.292159 527.716563)scale(0.22 -0.22)">
       <defs>
        <path id="DejaVuSans-30" d="M 2034 4250 
Q 1547 4250 1301 3770 
Q 1056 3291 1056 2328 
Q 1056 1369 1301 889 
Q 1547 409 2034 409 
Q 2525 409 2770 889 
Q 3016 1369 3016 2328 
Q 3016 3291 2770 3770 
Q 2525 4250 2034 4250 
z
M 2034 4750 
Q 2819 4750 3233 4129 
Q 3647 3509 3647 2328 
Q 3647 1150 3233 529 
Q 2819 -91 2034 -91 
Q 1250 -91 836 529 
Q 422 1150 422 2328 
Q 422 3509 836 4129 
Q 1250 4750 2034 4750 
z
" transform="scale(0.015625)"/>
       </defs>
       <use xlink:href="#DejaVuSans-30"/>
      </g>
     </g>
    </g>
    <g id="xtick_2">
     <g id="line2d_2">
      <g>
       <use xlink:href="#md3443c19dd" x="227.563636" y="504" style="stroke: #000000; stroke-width: 0.8"/>
      </g>
     </g>
     <g id="text_2">
      <!-- 1000 -->
      <g transform="translate(199.568636 527.716563)scale(0.22 -0.22)">
       <defs>
        <path id="DejaVuSans-31" d="M 794 531 
L 1825 531 
L 1825 4091 
L 703 3866 
L 703 4441 
L 1819 4666 
L 2450 4666 
L 2450 531 
L 3481 531 
L 3481 0 
L 794 0 
L 794 531 
z
" transform="scale(0.015625)"/>
       </defs>
       <use xlink:href="#DejaVuSans-31"/>
       <use xlink:href="#DejaVuSans-30" x="63.623047"/>
       <use xlink:href="#DejaVuSans-30" x="127.246094"/>
       <use xlink:href="#DejaVuSans-30" x="190.869141"/>
      </g>
     </g>
    </g>
    <g id="xtick_3">
     <g id="line2d_3">
      <g>
       <use xlink:href="#md3443c19dd" x="362.836364" y="504" style="stroke: #000000; stroke-width: 0.8"/>
      </g>
     </g>
     <g id="text_3">
      <!-- 2000 -->
      <g transform="translate(334.841364 527.716563)scale(0.22 -0.22)">
       <defs>
        <path id="DejaVuSans-32" d="M 1228 531 
L 3431 531 
L 3431 0 
L 469 0 
L 469 531 
Q 828 903 1448 1529 
Q 2069 2156 2228 2338 
Q 2531 2678 2651 2914 
Q 2772 3150 2772 3378 
Q 2772 3750 2511 3984 
Q 2250 4219 1831 4219 
Q 1534 4219 1204 4116 
Q 875 4013 500 3803 
L 500 4441 
Q 881 4594 1212 4672 
Q 1544 4750 1819 4750 
Q 2544 4750 2975 4387 
Q 3406 4025 3406 3419 
Q 3406 3131 3298 2873 
Q 3191 2616 2906 2266 
Q 2828 2175 2409 1742 
Q 1991 1309 1228 531 
z
" transform="scale(0.015625)"/>
       </defs>
       <use xlink:href="#DejaVuSans-32"/>
       <use xlink:href="#DejaVuSans-30" x="63.623047"/>
       <use xlink:href="#DejaVuSans-30" x="127.246094"/>
       <use xlink:href="#DejaVuSans-30" x="190.869141"/>
      </g>
     </g>
    </g>
    <g id="xtick_4">
     <g id="line2d_4">
      <g>
       <use xlink:href="#md3443c19dd" x="498.109091" y="504" style="stroke: #000000; stroke-width: 0.8"/>
      </g>
     </g>
     <g id="text_4">
      <!-- 3000 -->
      <g transform="translate(470.114091 527.716563)scale(0.22 -0.22)">
       <defs>
        <path id="DejaVuSans-33" d="M 2597 2516 
Q 3050 2419 3304 2112 
Q 3559 1806 3559 1356 
Q 3559 666 3084 287 
Q 2609 -91 1734 -91 
Q 1441 -91 1130 -33 
Q 819 25 488 141 
L 488 750 
Q 750 597 1062 519 
Q 1375 441 1716 441 
Q 2309 441 2620 675 
Q 2931 909 2931 1356 
Q 2931 1769 2642 2001 
Q 2353 2234 1838 2234 
L 1294 2234 
L 1294 2753 
L 1863 2753 
Q 2328 2753 2575 2939 
Q 2822 3125 2822 3475 
Q 2822 3834 2567 4026 
Q 2313 4219 1838 4219 
Q 1578 4219 1281 4162 
Q 984 4106 628 3988 
L 628 4550 
Q 988 4650 1302 4700 
Q 1616 4750 1894 4750 
Q 2613 4750 3031 4423 
Q 3450 4097 3450 3541 
Q 3450 3153 3228 2886 
Q 3006 2619 2597 2516 
z
" transform="scale(0.015625)"/>
       </defs>
       <use xlink:href="#DejaVuSans-33"/>
       <use xlink:href="#DejaVuSans-30" x="63.623047"/>
       <use xlink:href="#DejaVuSans-30" x="127.246094"/>
       <use xlink:href="#DejaVuSans-30" x="190.869141"/>
      </g>
     </g>
    </g>
    <g id="text_5">
     <!-- Time(ms) -->
     <g transform="translate(249.182187 552.307188)scale(0.22 -0.22)">
      <defs>
       <path id="ArialMT-54" d="M 1659 0 
L 1659 4041 
L 150 4041 
L 150 4581 
L 3781 4581 
L 3781 4041 
L 2266 4041 
L 2266 0 
L 1659 0 
z
" transform="scale(0.015625)"/>
       <path id="ArialMT-69" d="M 425 3934 
L 425 4581 
L 988 4581 
L 988 3934 
L 425 3934 
z
M 425 0 
L 425 3319 
L 988 3319 
L 988 0 
L 425 0 
z
" transform="scale(0.015625)"/>
       <path id="ArialMT-6d" d="M 422 0 
L 422 3319 
L 925 3319 
L 925 2853 
Q 1081 3097 1340 3245 
Q 1600 3394 1931 3394 
Q 2300 3394 2536 3241 
Q 2772 3088 2869 2813 
Q 3263 3394 3894 3394 
Q 4388 3394 4653 3120 
Q 4919 2847 4919 2278 
L 4919 0 
L 4359 0 
L 4359 2091 
Q 4359 2428 4304 2576 
Q 4250 2725 4106 2815 
Q 3963 2906 3769 2906 
Q 3419 2906 3187 2673 
Q 2956 2441 2956 1928 
L 2956 0 
L 2394 0 
L 2394 2156 
Q 2394 2531 2256 2718 
Q 2119 2906 1806 2906 
Q 1569 2906 1367 2781 
Q 1166 2656 1075 2415 
Q 984 2175 984 1722 
L 984 0 
L 422 0 
z
" transform="scale(0.015625)"/>
       <path id="ArialMT-65" d="M 2694 1069 
L 3275 997 
Q 3138 488 2766 206 
Q 2394 -75 1816 -75 
Q 1088 -75 661 373 
Q 234 822 234 1631 
Q 234 2469 665 2931 
Q 1097 3394 1784 3394 
Q 2450 3394 2872 2941 
Q 3294 2488 3294 1666 
Q 3294 1616 3291 1516 
L 816 1516 
Q 847 969 1125 678 
Q 1403 388 1819 388 
Q 2128 388 2347 550 
Q 2566 713 2694 1069 
z
M 847 1978 
L 2700 1978 
Q 2663 2397 2488 2606 
Q 2219 2931 1791 2931 
Q 1403 2931 1139 2672 
Q 875 2413 847 1978 
z
" transform="scale(0.015625)"/>
       <path id="ArialMT-28" d="M 1497 -1347 
Q 1031 -759 709 28 
Q 388 816 388 1659 
Q 388 2403 628 3084 
Q 909 3875 1497 4659 
L 1900 4659 
Q 1522 4009 1400 3731 
Q 1209 3300 1100 2831 
Q 966 2247 966 1656 
Q 966 153 1900 -1347 
L 1497 -1347 
z
" transform="scale(0.015625)"/>
       <path id="ArialMT-73" d="M 197 991 
L 753 1078 
Q 800 744 1014 566 
Q 1228 388 1613 388 
Q 2000 388 2187 545 
Q 2375 703 2375 916 
Q 2375 1106 2209 1216 
Q 2094 1291 1634 1406 
Q 1016 1563 777 1677 
Q 538 1791 414 1992 
Q 291 2194 291 2438 
Q 291 2659 392 2848 
Q 494 3038 669 3163 
Q 800 3259 1026 3326 
Q 1253 3394 1513 3394 
Q 1903 3394 2198 3281 
Q 2494 3169 2634 2976 
Q 2775 2784 2828 2463 
L 2278 2388 
Q 2241 2644 2061 2787 
Q 1881 2931 1553 2931 
Q 1166 2931 1000 2803 
Q 834 2675 834 2503 
Q 834 2394 903 2306 
Q 972 2216 1119 2156 
Q 1203 2125 1616 2013 
Q 2213 1853 2448 1751 
Q 2684 1650 2818 1456 
Q 2953 1263 2953 975 
Q 2953 694 2789 445 
Q 2625 197 2315 61 
Q 2006 -75 1616 -75 
Q 969 -75 630 194 
Q 291 463 197 991 
z
" transform="scale(0.015625)"/>
       <path id="ArialMT-29" d="M 791 -1347 
L 388 -1347 
Q 1322 153 1322 1656 
Q 1322 2244 1188 2822 
Q 1081 3291 891 3722 
Q 769 4003 388 4659 
L 791 4659 
Q 1378 3875 1659 3084 
Q 1900 2403 1900 1659 
Q 1900 816 1576 28 
Q 1253 -759 791 -1347 
z
" transform="scale(0.015625)"/>
      </defs>
      <use xlink:href="#ArialMT-54"/>
      <use xlink:href="#ArialMT-69" x="57.333984"/>
      <use xlink:href="#ArialMT-6d" x="79.550781"/>
      <use xlink:href="#ArialMT-65" x="162.851562"/>
      <use xlink:href="#ArialMT-28" x="218.466797"/>
      <use xlink:href="#ArialMT-6d" x="251.767578"/>
      <use xlink:href="#ArialMT-73" x="335.068359"/>
      <use xlink:href="#ArialMT-29" x="385.068359"/>
     </g>
    </g>
   </g>
   <g id="matplotlib.axis_2">
    <g id="ytick_1">
     <g id="line2d_5">
      <defs>
       <path id="md60402c2db" d="M 0 0 
L -3.5 0 
" style="stroke: #000000; stroke-width: 0.8"/>
      </defs>
      <g>
       <use xlink:href="#md60402c2db" x="72" y="476.82" style="stroke: #000000; stroke-width: 0.8"/>
      </g>
     </g>
     <g id="text_6">
      <!-- −100 -->
      <g transform="translate(4.572187 485.178281)scale(0.22 -0.22)">
       <defs>
        <path id="DejaVuSans-2212" d="M 678 2272 
L 4684 2272 
L 4684 1741 
L 678 1741 
L 678 2272 
z
" transform="scale(0.015625)"/>
       </defs>
       <use xlink:href="#DejaVuSans-2212"/>
       <use xlink:href="#DejaVuSans-31" x="83.789062"/>
       <use xlink:href="#DejaVuSans-30" x="147.412109"/>
       <use xlink:href="#DejaVuSans-30" x="211.035156"/>
      </g>
     </g>
    </g>
    <g id="ytick_2">
     <g id="line2d_6">
      <g>
       <use xlink:href="#md60402c2db" x="72" y="422.46" style="stroke: #000000; stroke-width: 0.8"/>
      </g>
     </g>
     <g id="text_7">
      <!-- −80 -->
      <g transform="translate(18.569688 430.818281)scale(0.22 -0.22)">
       <defs>
        <path id="DejaVuSans-38" d="M 2034 2216 
Q 1584 2216 1326 1975 
Q 1069 1734 1069 1313 
Q 1069 891 1326 650 
Q 1584 409 2034 409 
Q 2484 409 2743 651 
Q 3003 894 3003 1313 
Q 3003 1734 2745 1975 
Q 2488 2216 2034 2216 
z
M 1403 2484 
Q 997 2584 770 2862 
Q 544 3141 544 3541 
Q 544 4100 942 4425 
Q 1341 4750 2034 4750 
Q 2731 4750 3128 4425 
Q 3525 4100 3525 3541 
Q 3525 3141 3298 2862 
Q 3072 2584 2669 2484 
Q 3125 2378 3379 2068 
Q 3634 1759 3634 1313 
Q 3634 634 3220 271 
Q 2806 -91 2034 -91 
Q 1263 -91 848 271 
Q 434 634 434 1313 
Q 434 1759 690 2068 
Q 947 2378 1403 2484 
z
M 1172 3481 
Q 1172 3119 1398 2916 
Q 1625 2713 2034 2713 
Q 2441 2713 2670 2916 
Q 2900 3119 2900 3481 
Q 2900 3844 2670 4047 
Q 2441 4250 2034 4250 
Q 1625 4250 1398 4047 
Q 1172 3844 1172 3481 
z
" transform="scale(0.015625)"/>
       </defs>
       <use xlink:href="#DejaVuSans-2212"/>
       <use xlink:href="#DejaVuSans-38" x="83.789062"/>
       <use xlink:href="#DejaVuSans-30" x="147.412109"/>
      </g>
     </g>
    </g>
    <g id="ytick_3">
     <g id="line2d_7">
      <g>
       <use xlink:href="#md60402c2db" x="72" y="368.1" style="stroke: #000000; stroke-width: 0.8"/>
      </g>
     </g>
     <g id="text_8">
      <!-- −60 -->
      <g transform="translate(18.569688 376.458281)scale(0.22 -0.22)">
       <defs>
        <path id="DejaVuSans-36" d="M 2113 2584 
Q 1688 2584 1439 2293 
Q 1191 2003 1191 1497 
Q 1191 994 1439 701 
Q 1688 409 2113 409 
Q 2538 409 2786 701 
Q 3034 994 3034 1497 
Q 3034 2003 2786 2293 
Q 2538 2584 2113 2584 
z
M 3366 4563 
L 3366 3988 
Q 3128 4100 2886 4159 
Q 2644 4219 2406 4219 
Q 1781 4219 1451 3797 
Q 1122 3375 1075 2522 
Q 1259 2794 1537 2939 
Q 1816 3084 2150 3084 
Q 2853 3084 3261 2657 
Q 3669 2231 3669 1497 
Q 3669 778 3244 343 
Q 2819 -91 2113 -91 
Q 1303 -91 875 529 
Q 447 1150 447 2328 
Q 447 3434 972 4092 
Q 1497 4750 2381 4750 
Q 2619 4750 2861 4703 
Q 3103 4656 3366 4563 
z
" transform="scale(0.015625)"/>
       </defs>
       <use xlink:href="#DejaVuSans-2212"/>
       <use xlink:href="#DejaVuSans-36" x="83.789062"/>
       <use xlink:href="#DejaVuSans-30" x="147.412109"/>
      </g>
     </g>
    </g>
    <g id="ytick_4">
     <g id="line2d_8">
      <g>
       <use xlink:href="#md60402c2db" x="72" y="313.74" style="stroke: #000000; stroke-width: 0.8"/>
      </g>
     </g>
     <g id="text_9">
      <!-- −40 -->
      <g transform="translate(18.569688 322.098281)scale(0.22 -0.22)">
       <defs>
        <path id="DejaVuSans-34" d="M 2419 4116 
L 825 1625 
L 2419 1625 
L 2419 4116 
z
M 2253 4666 
L 3047 4666 
L 3047 1625 
L 3713 1625 
L 3713 1100 
L 3047 1100 
L 3047 0 
L 2419 0 
L 2419 1100 
L 313 1100 
L 313 1709 
L 2253 4666 
z
" transform="scale(0.015625)"/>
       </defs>
       <use xlink:href="#DejaVuSans-2212"/>
       <use xlink:href="#DejaVuSans-34" x="83.789062"/>
       <use xlink:href="#DejaVuSans-30" x="147.412109"/>
      </g>
     </g>
    </g>
    <g id="ytick_5">
     <g id="line2d_9">
      <g>
       <use xlink:href="#md60402c2db" x="72" y="259.38" style="stroke: #000000; stroke-width: 0.8"/>
      </g>
     </g>
     <g id="text_10">
      <!-- −20 -->
      <g transform="translate(18.569688 267.738281)scale(0.22 -0.22)">
       <use xlink:href="#DejaVuSans-2212"/>
       <use xlink:href="#DejaVuSans-32" x="83.789062"/>
       <use xlink:href="#DejaVuSans-30" x="147.412109"/>
      </g>
     </g>
    </g>
    <g id="ytick_6">
     <g id="line2d_10">
      <g>
       <use xlink:href="#md60402c2db" x="72" y="205.02" style="stroke: #000000; stroke-width: 0.8"/>
      </g>
     </g>
     <g id="text_11">
      <!-- 0 -->
      <g transform="translate(51.0025 213.378281)scale(0.22 -0.22)">
       <use xlink:href="#DejaVuSans-30"/>
      </g>
     </g>
    </g>
    <g id="ytick_7">
     <g id="line2d_11">
      <g>
       <use xlink:href="#md60402c2db" x="72" y="150.66" style="stroke: #000000; stroke-width: 0.8"/>
      </g>
     </g>
     <g id="text_12">
      <!-- 20 -->
      <g transform="translate(37.005 159.018281)scale(0.22 -0.22)">
       <use xlink:href="#DejaVuSans-32"/>
       <use xlink:href="#DejaVuSans-30" x="63.623047"/>
      </g>
     </g>
    </g>
    <g id="ytick_8">
     <g id="line2d_12">
      <g>
       <use xlink:href="#md60402c2db" x="72" y="96.3" style="stroke: #000000; stroke-width: 0.8"/>
      </g>
     </g>
     <g id="text_13">
      <!-- 40 -->
      <g transform="translate(37.005 104.658281)scale(0.22 -0.22)">
       <use xlink:href="#DejaVuSans-34"/>
       <use xlink:href="#DejaVuSans-30" x="63.623047"/>
      </g>
     </g>
    </g>
    <g id="text_14">
     <!-- Membrane potential (mV) -->
     <g transform="translate(-4.058125 410.655469)rotate(-90)scale(0.22 -0.22)">
      <defs>
       <path id="ArialMT-4d" d="M 475 0 
L 475 4581 
L 1388 4581 
L 2472 1338 
Q 2622 884 2691 659 
Q 2769 909 2934 1394 
L 4031 4581 
L 4847 4581 
L 4847 0 
L 4263 0 
L 4263 3834 
L 2931 0 
L 2384 0 
L 1059 3900 
L 1059 0 
L 475 0 
z
" transform="scale(0.015625)"/>
       <path id="ArialMT-62" d="M 941 0 
L 419 0 
L 419 4581 
L 981 4581 
L 981 2947 
Q 1338 3394 1891 3394 
Q 2197 3394 2470 3270 
Q 2744 3147 2920 2923 
Q 3097 2700 3197 2384 
Q 3297 2069 3297 1709 
Q 3297 856 2875 390 
Q 2453 -75 1863 -75 
Q 1275 -75 941 416 
L 941 0 
z
M 934 1684 
Q 934 1088 1097 822 
Q 1363 388 1816 388 
Q 2184 388 2453 708 
Q 2722 1028 2722 1663 
Q 2722 2313 2464 2622 
Q 2206 2931 1841 2931 
Q 1472 2931 1203 2611 
Q 934 2291 934 1684 
z
" transform="scale(0.015625)"/>
       <path id="ArialMT-72" d="M 416 0 
L 416 3319 
L 922 3319 
L 922 2816 
Q 1116 3169 1280 3281 
Q 1444 3394 1641 3394 
Q 1925 3394 2219 3213 
L 2025 2691 
Q 1819 2813 1613 2813 
Q 1428 2813 1281 2702 
Q 1134 2591 1072 2394 
Q 978 2094 978 1738 
L 978 0 
L 416 0 
z
" transform="scale(0.015625)"/>
       <path id="ArialMT-61" d="M 2588 409 
Q 2275 144 1986 34 
Q 1697 -75 1366 -75 
Q 819 -75 525 192 
Q 231 459 231 875 
Q 231 1119 342 1320 
Q 453 1522 633 1644 
Q 813 1766 1038 1828 
Q 1203 1872 1538 1913 
Q 2219 1994 2541 2106 
Q 2544 2222 2544 2253 
Q 2544 2597 2384 2738 
Q 2169 2928 1744 2928 
Q 1347 2928 1158 2789 
Q 969 2650 878 2297 
L 328 2372 
Q 403 2725 575 2942 
Q 747 3159 1072 3276 
Q 1397 3394 1825 3394 
Q 2250 3394 2515 3294 
Q 2781 3194 2906 3042 
Q 3031 2891 3081 2659 
Q 3109 2516 3109 2141 
L 3109 1391 
Q 3109 606 3145 398 
Q 3181 191 3288 0 
L 2700 0 
Q 2613 175 2588 409 
z
M 2541 1666 
Q 2234 1541 1622 1453 
Q 1275 1403 1131 1340 
Q 988 1278 909 1158 
Q 831 1038 831 891 
Q 831 666 1001 516 
Q 1172 366 1500 366 
Q 1825 366 2078 508 
Q 2331 650 2450 897 
Q 2541 1088 2541 1459 
L 2541 1666 
z
" transform="scale(0.015625)"/>
       <path id="ArialMT-6e" d="M 422 0 
L 422 3319 
L 928 3319 
L 928 2847 
Q 1294 3394 1984 3394 
Q 2284 3394 2536 3286 
Q 2788 3178 2913 3003 
Q 3038 2828 3088 2588 
Q 3119 2431 3119 2041 
L 3119 0 
L 2556 0 
L 2556 2019 
Q 2556 2363 2490 2533 
Q 2425 2703 2258 2804 
Q 2091 2906 1866 2906 
Q 1506 2906 1245 2678 
Q 984 2450 984 1813 
L 984 0 
L 422 0 
z
" transform="scale(0.015625)"/>
       <path id="ArialMT-20" transform="scale(0.015625)"/>
       <path id="ArialMT-70" d="M 422 -1272 
L 422 3319 
L 934 3319 
L 934 2888 
Q 1116 3141 1344 3267 
Q 1572 3394 1897 3394 
Q 2322 3394 2647 3175 
Q 2972 2956 3137 2557 
Q 3303 2159 3303 1684 
Q 3303 1175 3120 767 
Q 2938 359 2589 142 
Q 2241 -75 1856 -75 
Q 1575 -75 1351 44 
Q 1128 163 984 344 
L 984 -1272 
L 422 -1272 
z
M 931 1641 
Q 931 1000 1190 694 
Q 1450 388 1819 388 
Q 2194 388 2461 705 
Q 2728 1022 2728 1688 
Q 2728 2322 2467 2637 
Q 2206 2953 1844 2953 
Q 1484 2953 1207 2617 
Q 931 2281 931 1641 
z
" transform="scale(0.015625)"/>
       <path id="ArialMT-6f" d="M 213 1659 
Q 213 2581 725 3025 
Q 1153 3394 1769 3394 
Q 2453 3394 2887 2945 
Q 3322 2497 3322 1706 
Q 3322 1066 3130 698 
Q 2938 331 2570 128 
Q 2203 -75 1769 -75 
Q 1072 -75 642 372 
Q 213 819 213 1659 
z
M 791 1659 
Q 791 1022 1069 705 
Q 1347 388 1769 388 
Q 2188 388 2466 706 
Q 2744 1025 2744 1678 
Q 2744 2294 2464 2611 
Q 2184 2928 1769 2928 
Q 1347 2928 1069 2612 
Q 791 2297 791 1659 
z
" transform="scale(0.015625)"/>
       <path id="ArialMT-74" d="M 1650 503 
L 1731 6 
Q 1494 -44 1306 -44 
Q 1000 -44 831 53 
Q 663 150 594 308 
Q 525 466 525 972 
L 525 2881 
L 113 2881 
L 113 3319 
L 525 3319 
L 525 4141 
L 1084 4478 
L 1084 3319 
L 1650 3319 
L 1650 2881 
L 1084 2881 
L 1084 941 
Q 1084 700 1114 631 
Q 1144 563 1211 522 
Q 1278 481 1403 481 
Q 1497 481 1650 503 
z
" transform="scale(0.015625)"/>
       <path id="ArialMT-6c" d="M 409 0 
L 409 4581 
L 972 4581 
L 972 0 
L 409 0 
z
" transform="scale(0.015625)"/>
       <path id="ArialMT-56" d="M 1803 0 
L 28 4581 
L 684 4581 
L 1875 1253 
Q 2019 853 2116 503 
Q 2222 878 2363 1253 
L 3600 4581 
L 4219 4581 
L 2425 0 
L 1803 0 
z
" transform="scale(0.015625)"/>
      </defs>
      <use xlink:href="#ArialMT-4d"/>
      <use xlink:href="#ArialMT-65" x="83.300781"/>
      <use xlink:href="#ArialMT-6d" x="138.916016"/>
      <use xlink:href="#ArialMT-62" x="222.216797"/>
      <use xlink:href="#ArialMT-72" x="277.832031"/>
      <use xlink:href="#ArialMT-61" x="311.132812"/>
      <use xlink:href="#ArialMT-6e" x="366.748047"/>
      <use xlink:href="#ArialMT-65" x="422.363281"/>
      <use xlink:href="#ArialMT-20" x="477.978516"/>
      <use xlink:href="#ArialMT-70" x="505.761719"/>
      <use xlink:href="#ArialMT-6f" x="561.376953"/>
      <use xlink:href="#ArialMT-74" x="616.992188"/>
      <use xlink:href="#ArialMT-65" x="644.775391"/>
      <use xlink:href="#ArialMT-6e" x="700.390625"/>
      <use xlink:href="#ArialMT-74" x="756.005859"/>
      <use xlink:href="#ArialMT-69" x="783.789062"/>
      <use xlink:href="#ArialMT-61" x="806.005859"/>
      <use xlink:href="#ArialMT-6c" x="861.621094"/>
      <use xlink:href="#ArialMT-20" x="883.837891"/>
      <use xlink:href="#ArialMT-28" x="911.621094"/>
      <use xlink:href="#ArialMT-6d" x="944.921875"/>
      <use xlink:href="#ArialMT-56" x="1028.222656"/>
      <use xlink:href="#ArialMT-29" x="1094.921875"/>
     </g>
    </g>
   </g>
   <g id="line2d_13">
    <path d="M 92.290909 430.614 
L 92.426182 432.212387 
L 92.764364 431.907698 
L 93.305455 431.603225 
L 94.184727 431.425633 
L 96.078545 431.320749 
L 102.504 431.294879 
L 159.927273 431.29475 
L 160.130182 413.103604 
L 160.536 401.304812 
L 161.144727 390.790658 
L 162.159273 377.964128 
L 163.376727 362.428273 
L 163.850182 353.837239 
L 164.188364 343.691858 
L 164.391273 330.51704 
L 164.458909 320.543775 
L 164.526545 291.182354 
L 164.594182 114.452183 
L 164.661818 166.369561 
L 164.864727 322.845055 
L 165.135273 383.390841 
L 165.338182 395.062106 
L 165.473455 396.438175 
L 165.608727 395.527851 
L 165.946909 389.790191 
L 166.758545 376.358463 
L 167.773091 363.962082 
L 168.517091 353.947606 
L 168.922909 345.80202 
L 169.193455 335.054094 
L 169.328727 322.057524 
L 169.396364 303.834046 
L 169.464 148.744446 
L 169.531636 150.93867 
L 169.734545 318.37447 
L 170.005091 385.823486 
L 170.208 397.08875 
L 170.275636 397.702509 
L 170.343273 397.523859 
L 170.546182 394.511699 
L 171.560727 375.903471 
L 172.642909 362.206299 
L 173.386909 351.1222 
L 173.725091 342.594748 
L 173.928 332.425891 
L 174.063273 314.177998 
L 174.130909 265.072277 
L 174.198545 127.172162 
L 174.266182 197.436381 
L 174.469091 332.922433 
L 174.739636 391.090367 
L 174.942545 398.316274 
L 175.010182 398.218409 
L 175.213091 395.223912 
L 176.227636 376.185223 
L 177.174545 364.608802 
L 177.850909 355.332146 
L 178.256727 347.275733 
L 178.527273 337.896014 
L 178.662545 328.218098 
L 178.730182 318.327534 
L 178.797818 289.109053 
L 178.865455 120.599897 
L 178.933091 174.868224 
L 179.136 325.703992 
L 179.406545 387.23197 
L 179.609455 396.822693 
L 179.677091 397.282877 
L 179.744727 397.071424 
L 179.947636 394.295176 
L 181.165091 373.18251 
L 182.653091 352.401711 
L 182.991273 344.332171 
L 183.194182 335.873611 
L 183.329455 323.832108 
L 183.397091 308.508373 
L 183.532364 140.249625 
L 183.802909 338.001291 
L 184.073455 390.501129 
L 184.276364 397.380366 
L 184.344 397.427248 
L 184.479273 396.028293 
L 185.223273 381.84874 
L 185.967273 370.839607 
L 187.32 352.270824 
L 187.658182 344.246251 
L 187.861091 335.562868 
L 187.996364 322.6886 
L 188.064 304.91169 
L 188.199273 147.944139 
L 188.402182 316.919916 
L 188.672727 384.596855 
L 188.875636 396.682388 
L 188.943273 397.469776 
L 189.010909 397.449343 
L 189.146182 395.950678 
L 190.904727 367.44927 
L 191.851636 354.450903 
L 192.257455 345.308134 
L 192.460364 336.858357 
L 192.595636 325.023556 
L 192.663273 310.46415 
L 192.798545 134.930483 
L 193.069091 336.736703 
L 193.339636 390.039825 
L 193.542545 397.11507 
L 193.610182 397.266462 
L 193.745455 396.091277 
L 194.151273 388.513845 
L 194.895273 375.69844 
L 195.909818 362.963666 
L 196.856727 350.048888 
L 197.194909 341.543372 
L 197.397818 330.758889 
L 197.533091 308.046464 
L 197.668364 141.661139 
L 197.938909 338.512191 
L 198.209455 390.693916 
L 198.412364 396.640045 
L 198.48 396.581933 
L 198.682909 394.120123 
L 200.103273 370.691428 
L 201.794182 347.506948 
L 202.064727 338.714805 
L 202.267636 321.934296 
L 202.335273 303.421251 
L 202.402909 145.702249 
L 202.470545 151.682439 
L 202.673455 318.996965 
L 202.944 386.254473 
L 203.146909 397.023921 
L 203.214545 397.550106 
L 203.282182 397.351503 
L 203.485091 394.524241 
L 204.702545 373.162521 
L 206.528727 346.799041 
L 206.799273 337.040999 
L 206.934545 326.772447 
L 207.002182 315.723724 
L 207.069818 276.22635 
L 207.137455 124.091765 
L 207.205091 189.274264 
L 207.408 330.591679 
L 207.678545 389.647632 
L 207.881455 397.500955 
L 207.949091 397.604232 
L 208.084364 396.141537 
L 209.707636 369.429995 
L 210.789818 355.190097 
L 211.195636 346.711021 
L 211.466182 335.850183 
L 211.601455 322.665549 
L 211.669091 304.074503 
L 211.736727 141.734284 
L 211.804364 149.116472 
L 212.007273 317.423772 
L 212.277818 383.536753 
L 212.480727 395.777447 
L 212.616 397.013983 
L 212.751273 395.903296 
L 213.157091 388.369668 
L 213.901091 375.553474 
L 214.915636 362.835993 
L 215.794909 350.342071 
L 216.133091 342.478709 
L 216.336 333.122546 
L 216.471273 317.287188 
L 216.538909 286.536285 
L 216.606545 122.692034 
L 216.674182 179.896184 
L 216.877091 326.855147 
L 217.147636 387.748638 
L 217.350545 396.781029 
L 217.418182 397.123098 
L 217.553455 396.082011 
L 217.959273 388.572577 
L 218.703273 375.694359 
L 219.920727 359.571505 
L 220.461818 351.250731 
L 220.8 342.97392 
L 221.002909 333.574332 
L 221.138182 318.028174 
L 221.205818 288.945107 
L 221.273455 121.550556 
L 221.341091 175.912582 
L 221.544 325.885596 
L 221.814545 387.408038 
L 222.017455 396.733145 
L 222.085091 397.169196 
L 222.152727 396.949463 
L 222.355636 394.180361 
L 223.640727 372.096213 
L 225.264 349.421346 
L 225.534545 341.952814 
L 225.737455 330.908374 
L 225.872727 307.281247 
L 226.008 142.963874 
L 226.210909 315.650454 
L 226.481455 385.206509 
L 226.684364 397.006944 
L 226.752 397.68589 
L 226.819636 397.583669 
L 227.022545 394.821231 
L 228.24 373.363129 
L 229.930909 349.355828 
L 230.201455 341.344712 
L 230.404364 328.74415 
L 230.472 319.126242 
L 230.539636 291.916103 
L 230.607273 120.032913 
L 230.674909 170.524804 
L 230.877818 323.998779 
L 231.148364 385.742974 
L 231.351273 396.304614 
L 231.486545 397.027981 
L 231.621818 395.67227 
L 232.162909 385.347085 
L 232.906909 373.39211 
L 234.597818 349.342731 
L 234.868364 341.222398 
L 235.071273 328.469113 
L 235.138909 318.658268 
L 235.206545 290.065553 
L 235.274182 120.067207 
L 235.341818 173.179382 
L 235.544727 325.37338 
L 235.815273 386.830458 
L 236.018182 396.595403 
L 236.085818 397.142796 
L 236.153455 397.011131 
L 236.356364 394.414627 
L 237.709091 371.495392 
L 239.332364 350.069047 
L 239.670545 340.66405 
L 239.873455 328.55258 
L 240.008727 296.058203 
L 240.076364 125.090851 
L 240.144 166.194455 
L 240.346909 323.67241 
L 240.617455 387.528568 
L 240.820364 396.877838 
L 240.888 397.23586 
L 241.023273 396.209777 
L 241.429091 388.603574 
L 242.173091 375.760922 
L 243.931636 349.329964 
L 244.202182 340.452555 
L 244.405091 325.728781 
L 244.472727 312.475351 
L 244.608 130.317769 
L 244.675636 205.904141 
L 244.878545 335.038959 
L 245.149091 390.46737 
L 245.352 397.710011 
L 245.419636 397.75902 
L 245.554909 396.316561 
L 247.516364 364.893029 
L 248.328 352.949602 
L 248.733818 343.298721 
L 248.936727 333.835342 
L 249.072 318.108219 
L 249.139636 288.206697 
L 249.207273 120.803007 
L 249.274909 176.108522 
L 249.477818 325.735703 
L 249.748364 386.892129 
L 249.951273 396.605559 
L 250.018909 397.135126 
L 250.086545 396.98671 
L 250.289455 394.32453 
L 251.642182 371.306623 
L 253.062545 351.31151 
L 253.400727 341.726976 
L 253.603636 329.105161 
L 253.671273 319.564203 
L 253.738909 292.921073 
L 253.806545 119.286864 
L 253.874182 168.296492 
L 254.077091 323.85878 
L 254.347636 386.814733 
L 254.550545 396.955065 
L 254.618182 397.49627 
L 254.685818 397.33217 
L 254.888727 394.593655 
L 256.173818 372.436793 
L 257.797091 350.454102 
L 258.135273 340.161774 
L 258.338182 324.640541 
L 258.405818 309.595915 
L 258.541091 136.918806 
L 258.811636 336.64306 
L 259.082182 389.456284 
L 259.285091 396.931961 
L 259.352727 397.155319 
L 259.488 396.023469 
L 259.893818 388.410009 
L 260.637818 375.612172 
L 262.599273 346.444437 
L 262.869818 337.434213 
L 263.005091 328.354984 
L 263.140364 296.084362 
L 263.208 126.241925 
L 263.275636 166.47314 
L 263.478545 322.652713 
L 263.749091 386.994798 
L 263.952 397.231312 
L 264.019636 397.672106 
L 264.087273 397.391387 
L 264.290182 394.31827 
L 265.372364 374.774297 
L 266.995636 350.815089 
L 267.333818 341.684027 
L 267.536727 330.682638 
L 267.672 307.072318 
L 267.807273 143.724881 
L 268.010182 315.380454 
L 268.280727 384.013226 
L 268.483636 396.213422 
L 268.618909 397.113975 
L 268.754182 395.782677 
L 269.295273 385.410123 
L 270.039273 373.403452 
L 271.797818 348.178942 
L 272.068364 339.663651 
L 272.271273 324.295435 
L 272.338909 309.324061 
L 272.474182 138.03334 
L 272.744727 336.442138 
L 273.015273 389.536393 
L 273.218182 396.977371 
L 273.285818 397.176068 
L 273.421091 396.025269 
L 273.826909 388.455491 
L 274.570909 375.59685 
L 275.585455 362.447956 
L 276.329455 351.708827 
L 276.735273 342.18328 
L 276.938182 332.654381 
L 277.073455 316.111189 
L 277.141091 280.775098 
L 277.208727 124.057402 
L 277.276364 186.349017 
L 277.479273 328.425102 
L 277.749818 388.18767 
L 277.952727 397.047359 
L 278.020364 397.367909 
L 278.155636 396.290746 
L 278.561455 388.597075 
L 279.305455 375.607737 
L 280.252364 363.459209 
L 280.928727 354.384521 
L 281.334545 345.635497 
L 281.605091 333.700727 
L 281.740364 316.93179 
L 281.808 280.523948 
L 281.875636 121.38526 
L 281.943273 183.238736 
L 282.146182 328.346188 
L 282.416727 388.236547 
L 282.619636 396.982722 
L 282.687273 397.309914 
L 282.822545 396.290707 
L 283.228364 388.763143 
L 283.972364 375.841272 
L 285.798545 347.80208 
L 286.069091 337.815046 
L 286.204364 327.615286 
L 286.272 316.860266 
L 286.339636 280.37646 
L 286.407273 121.524396 
L 286.474909 183.698177 
L 286.677818 328.855466 
L 286.948364 388.382357 
L 287.151273 397.099532 
L 287.218909 397.424947 
L 287.354182 396.382414 
L 287.76 388.806061 
L 288.504 375.898977 
L 290.465455 346.831961 
L 290.736 337.004571 
L 290.871273 326.431759 
L 290.938909 314.717769 
L 291.006545 267.557817 
L 291.074182 125.826042 
L 291.141818 194.677656 
L 291.344727 331.071003 
L 291.615273 388.940182 
L 291.818182 397.206782 
L 291.885818 397.462499 
L 292.021091 396.336153 
L 292.426909 388.65815 
L 293.170909 375.703251 
L 294.185455 362.52432 
L 294.794182 353.295788 
L 295.132364 345.218375 
L 295.335273 336.433696 
L 295.470545 323.681358 
L 295.538182 306.570402 
L 295.673455 143.363931 
L 295.876364 315.93297 
L 296.146909 384.531404 
L 296.349818 396.73575 
L 296.485091 397.590055 
L 296.620364 396.173988 
L 297.296727 383.055775 
L 298.040727 371.736245 
L 299.596364 350.242932 
L 299.934545 340.872628 
L 300.137455 328.191756 
L 300.205091 318.367076 
L 300.272727 289.660252 
L 300.340364 120.903548 
L 300.408 174.439008 
L 300.610909 325.789286 
L 300.881455 388.072779 
L 301.084364 397.426817 
L 301.152 397.756805 
L 301.287273 396.603816 
L 301.760727 387.335728 
L 302.504727 374.799796 
L 303.519273 362.056887 
L 304.195636 352.523894 
L 304.601455 344.598228 
L 304.872 334.511225 
L 305.007273 322.629561 
L 305.074909 307.558855 
L 305.210182 143.750336 
L 305.480727 338.38708 
L 305.751273 391.658601 
L 305.954182 398.057311 
L 306.021818 397.891343 
L 306.224727 394.865222 
L 307.306909 374.828388 
L 309.065455 349.354314 
L 309.336 341.352244 
L 309.538909 328.828225 
L 309.606545 319.28854 
L 309.674182 292.595304 
L 309.741818 120.083337 
L 309.809455 169.433967 
L 310.012364 323.961802 
L 310.282909 386.443809 
L 310.485818 396.688615 
L 310.553455 397.274995 
L 310.621091 397.147032 
L 310.824 394.45344 
L 312.109091 372.266749 
L 313.529455 351.769669 
L 313.867636 342.390904 
L 314.070545 330.362219 
L 314.205818 300.233184 
L 314.273455 124.768802 
L 314.341091 155.908385 
L 314.544 320.048457 
L 314.814545 385.125171 
L 315.017455 396.698128 
L 315.152727 397.535006 
L 315.288 396.13111 
L 315.829091 385.459439 
L 316.573091 373.465479 
L 318.264 349.021761 
L 318.534545 341.428873 
L 318.737455 329.942015 
L 318.872727 302.806951 
L 318.940364 141.657107 
L 319.008 152.827964 
L 319.210909 318.534934 
L 319.481455 384.982624 
L 319.684364 396.433455 
L 319.752 397.178133 
L 319.819636 397.155021 
L 319.954909 395.725712 
L 320.631273 382.84258 
L 321.375273 371.569232 
L 322.863273 350.973987 
L 323.201455 342.017037 
L 323.404364 330.918574 
L 323.539636 307.183702 
L 323.674909 143.104322 
L 323.877818 315.199583 
L 324.148364 383.732199 
L 324.351273 396.125987 
L 324.486545 397.203615 
L 324.621818 395.99444 
L 325.095273 387.013878 
L 325.839273 374.419005 
L 327.597818 348.505116 
L 327.868364 339.7856 
L 328.071273 324.34677 
L 328.138909 309.295842 
L 328.274182 137.994629 
L 328.544727 337.201873 
L 328.815273 390.22516 
L 329.018182 397.385402 
L 329.085818 397.493674 
L 329.221091 396.168189 
L 329.762182 385.64595 
L 330.438545 374.582869 
L 332.332364 347.855964 
L 332.602909 339.664514 
L 332.805818 325.929096 
L 332.873455 314.217268 
L 332.941091 267.256529 
L 333.008727 127.335145 
L 333.076364 196.858575 
L 333.279273 331.684532 
L 333.549818 389.459663 
L 333.752727 397.263913 
L 333.820364 397.377304 
L 333.955636 396.040566 
L 334.496727 385.578013 
L 335.240727 373.564104 
L 336.931636 349.51813 
L 337.269818 340.016072 
L 337.472727 326.783364 
L 337.540364 315.879485 
L 337.608 277.842725 
L 337.675636 123.979072 
L 337.743273 187.987315 
L 337.946182 328.799088 
L 338.216727 388.728686 
L 338.419636 397.423951 
L 338.487273 397.653222 
L 338.622545 396.417714 
L 339.096 386.969773 
L 339.772364 375.499216 
L 341.666182 347.127777 
L 341.936727 336.840595 
L 342.072 325.693224 
L 342.139636 312.814452 
L 342.274909 129.836107 
L 342.342545 204.184888 
L 342.545455 333.639448 
L 342.816 389.463326 
L 343.018909 397.274758 
L 343.086545 397.456604 
L 343.221818 396.213763 
L 343.695273 387.073125 
L 344.439273 374.612898 
L 346.333091 347.287701 
L 346.603636 338.691914 
L 346.806545 323.509438 
L 346.874182 308.717401 
L 347.009455 140.323473 
L 347.28 336.96035 
L 347.550545 389.705656 
L 347.753455 396.845905 
L 347.821091 396.990643 
L 347.956364 395.769123 
L 348.429818 386.839372 
L 349.173818 374.334584 
L 350.797091 350.567814 
L 351.067636 342.72082 
L 351.270545 331.130237 
L 351.405818 305.43887 
L 351.541091 145.997163 
L 351.744 316.712767 
L 352.014545 383.876245 
L 352.217455 396.111592 
L 352.352727 397.249075 
L 352.488 396.066847 
L 352.893818 388.341301 
L 353.637818 375.547458 
L 355.531636 347.737469 
L 355.802182 339.444439 
L 356.005091 325.41962 
L 356.072727 313.062608 
L 356.208 129.825406 
L 356.275636 202.578274 
L 356.478545 333.094118 
L 356.749091 390.108251 
L 356.952 397.456064 
L 357.019636 397.485875 
L 357.154909 396.039359 
L 359.048727 365.838957 
L 359.792727 355.796728 
L 360.198545 347.455566 
L 360.469091 337.471862 
L 360.604364 326.751383 
L 360.672 314.816624 
L 360.739636 264.567541 
L 360.807273 125.176089 
L 360.874909 194.551359 
L 361.077818 330.534301 
L 361.348364 387.844349 
L 361.551273 396.902441 
L 361.618909 397.361928 
L 361.686545 397.157025 
L 361.889455 394.329962 
L 363.106909 372.991681 
L 364.797818 348.577022 
L 365.068364 339.917646 
L 365.271273 325.1948 
L 365.338909 311.754415 
L 365.474182 132.406378 
L 365.541818 209.044964 
L 365.744727 334.963421 
L 366.015273 389.958001 
L 366.218182 397.321219 
L 366.285818 397.449293 
L 366.421091 396.18041 
L 366.894545 387.099142 
L 367.638545 374.509931 
L 369.464727 347.205952 
L 369.735273 336.654681 
L 369.870545 324.691428 
L 369.938182 309.783893 
L 370.073455 136.484823 
L 370.344 336.42081 
L 370.614545 389.71409 
L 370.817455 396.811983 
L 370.885091 396.979501 
L 371.020364 395.822571 
L 371.426182 388.299857 
L 372.170182 375.629454 
L 373.996364 348.174407 
L 374.266909 338.634835 
L 374.402182 329.131757 
L 374.469818 319.728346 
L 374.537455 293.973901 
L 374.605091 119.892926 
L 374.672727 167.028351 
L 374.875636 323.630805 
L 375.146182 386.582982 
L 375.349091 396.682862 
L 375.416727 397.248923 
L 375.484364 397.120994 
L 375.687273 394.489848 
L 377.04 371.384253 
L 378.595636 349.10456 
L 378.866182 341.160433 
L 379.069091 328.273251 
L 379.136727 318.160381 
L 379.204364 287.414557 
L 379.272 120.129776 
L 379.339636 176.327667 
L 379.542545 327.03567 
L 379.813091 388.466694 
L 380.016 397.378121 
L 380.083636 397.664168 
L 380.218909 396.527192 
L 380.692364 387.462757 
L 381.436364 374.831748 
L 383.330182 346.760094 
L 383.600727 336.889087 
L 383.736 326.339284 
L 383.803636 314.728497 
L 383.871273 269.059254 
L 383.938909 125.977218 
L 384.006545 194.607921 
L 384.209455 332.02361 
L 384.48 390.424153 
L 384.682909 397.962554 
L 384.750545 397.974939 
L 384.885818 396.447956 
L 386.712 366.304985 
L 387.591273 353.638543 
L 387.997091 344.060983 
L 388.2 334.682196 
L 388.335273 319.753957 
L 388.402909 294.27697 
L 388.470545 120.265506 
L 388.538182 166.858791 
L 388.741091 324.619652 
L 389.011636 388.440101 
L 389.214545 397.752105 
L 389.282182 398.045706 
L 389.417455 396.838493 
L 389.890909 387.481005 
L 390.634909 374.934699 
L 392.258182 350.512859 
L 392.596364 340.762306 
L 392.799273 328.134911 
L 392.866909 318.435235 
L 392.934545 290.592466 
L 393.002182 121.389708 
L 393.069818 173.687501 
L 393.272727 325.122789 
L 393.543273 386.93818 
L 393.746182 396.911598 
L 393.813818 397.431987 
L 393.881455 397.241784 
L 394.084364 394.385266 
L 395.234182 373.978988 
L 396.857455 350.961161 
L 397.195636 341.372706 
L 397.398545 328.755199 
L 397.466182 319.166494 
L 397.533818 292.126256 
L 397.601455 120.005721 
L 397.669091 170.122133 
L 397.872 324.244994 
L 398.142545 386.57318 
L 398.345455 396.720951 
L 398.413091 397.257634 
L 398.480727 397.086414 
L 398.683636 394.264176 
L 399.833455 374.077326 
L 401.659636 347.959529 
L 401.930182 339.90422 
L 402.133091 326.722558 
L 402.200727 315.886635 
L 402.268364 278.575738 
L 402.336 124.182093 
L 402.403636 187.914028 
L 402.606545 328.502641 
L 402.877091 387.662763 
L 403.08 396.612672 
L 403.147636 397.013074 
L 403.215273 396.768399 
L 403.418182 393.934137 
L 404.635636 372.767953 
L 406.326545 348.173923 
L 406.664727 338.373918 
L 406.867636 323.310631 
L 406.935273 308.618094 
L 407.070545 140.785853 
L 407.341091 337.49531 
L 407.611636 390.798961 
L 407.814545 397.202802 
L 407.882182 397.12364 
L 408.085091 394.42621 
L 409.302545 373.15222 
L 410.722909 352.786999 
L 411.128727 342.580627 
L 411.331636 331.968212 
L 411.466909 311.065672 
L 411.602182 133.8713 
L 411.872727 334.961198 
L 412.143273 389.749674 
L 412.346182 397.587057 
L 412.413818 397.775457 
L 412.549091 396.504231 
L 413.090182 385.763597 
L 413.834182 373.649913 
L 415.322182 352.205601 
L 415.660364 344.045584 
L 415.863273 335.272833 
L 415.998545 322.178437 
L 416.066182 303.694528 
L 416.133818 145.070809 
L 416.201455 150.756359 
L 416.404364 318.602751 
L 416.674909 385.802987 
L 416.877818 396.873199 
L 416.945455 397.48665 
L 417.013091 397.356183 
L 417.216 394.638265 
L 418.501091 372.401614 
L 419.921455 352.097272 
L 420.259636 343.605942 
L 420.462545 334.132433 
L 420.597818 318.659803 
L 420.665455 290.134356 
L 420.733091 120.150213 
L 420.800727 173.104826 
L 421.003636 325.557221 
L 421.274182 388.097255 
L 421.477091 397.632894 
L 421.544727 397.97642 
L 421.68 396.809616 
L 422.153455 387.437993 
L 422.829818 375.81295 
L 424.656 348.436229 
L 424.926545 340.004204 
L 425.129455 325.686478 
L 425.197091 312.975744 
L 425.332364 129.602603 
L 425.4 203.328093 
L 425.602909 333.427227 
L 425.873455 389.523962 
L 426.076364 397.079462 
L 426.144 397.227438 
L 426.279273 395.989521 
L 426.752727 387.031065 
L 427.496727 374.590124 
L 429.390545 346.622311 
L 429.661091 336.218288 
L 429.796364 324.161954 
L 429.864 308.906655 
L 429.999273 138.876089 
L 430.269818 337.013573 
L 430.608 404.665393 
L 430.810909 411.094777 
L 431.081455 412.745595 
L 431.487273 414.435726 
L 432.163636 418.918195 
L 433.042909 424.181256 
L 433.719273 427.002293 
L 434.395636 428.927328 
L 435.072 430.198641 
L 435.748364 431.021319 
L 436.492364 431.586986 
L 437.371636 431.972496 
L 438.521455 432.218822 
L 440.212364 432.33402 
L 443.458909 432.292363 
L 448.261091 432.028026 
L 455.633455 431.397766 
L 463.141091 431.310665 
L 493.036364 431.293168 
L 498.109091 431.293253 
L 498.109091 431.293253 
" clip-path="url(#pe46b6960a3)" style="fill: none; stroke: #000000; stroke-width: 1.5; stroke-linecap: square"/>
   </g>
   <g id="line2d_14">
    <path d="M 497.973818 408.87 
" clip-path="url(#pe46b6960a3)" style="fill: none; stroke: #000000; stroke-width: 1.5; stroke-linecap: square"/>
   </g>
   <g id="line2d_15">
    <path d="M 430.472727 368.1 
L 430.472727 365.382 
L 430.472727 362.664 
L 430.472727 359.946 
L 430.472727 357.228 
L 430.472727 354.51 
L 430.472727 351.792 
L 430.472727 349.074 
L 430.472727 346.356 
L 430.472727 343.638 
L 430.472727 340.92 
L 430.472727 338.202 
L 430.472727 335.484 
L 430.472727 332.766 
L 430.472727 330.048 
L 430.472727 327.33 
L 430.472727 324.612 
L 430.472727 321.894 
L 430.472727 319.176 
L 430.472727 316.458 
" clip-path="url(#pe46b6960a3)" style="fill: none; stroke: #000000; stroke-width: 1.5; stroke-linecap: square"/>
   </g>
   <g id="patch_3">
    <path d="M 72 504 
L 72 69.12 
" style="fill: none; stroke: #000000; stroke-width: 0.8; stroke-linejoin: miter; stroke-linecap: square"/>
   </g>
   <g id="patch_4">
    <path d="M 518.4 504 
L 518.4 69.12 
" style="fill: none; stroke: #000000; stroke-width: 0.8; stroke-linejoin: miter; stroke-linecap: square"/>
   </g>
   <g id="patch_5">
    <path d="M 72 504 
L 518.4 504 
" style="fill: none; stroke: #000000; stroke-width: 0.8; stroke-linejoin: miter; stroke-linecap: square"/>
   </g>
   <g id="patch_6">
    <path d="M 72 69.12 
L 518.4 69.12 
" style="fill: none; stroke: #000000; stroke-width: 0.8; stroke-linejoin: miter; stroke-linecap: square"/>
   </g>
   <g id="text_15">
    <!-- 500 ms -->
    <g transform="translate(497.973818 406.152)scale(0.22 -0.22)">
     <defs>
      <path id="ArialMT-35" d="M 266 1200 
L 856 1250 
Q 922 819 1161 601 
Q 1400 384 1738 384 
Q 2144 384 2425 690 
Q 2706 997 2706 1503 
Q 2706 1984 2436 2262 
Q 2166 2541 1728 2541 
Q 1456 2541 1237 2417 
Q 1019 2294 894 2097 
L 366 2166 
L 809 4519 
L 3088 4519 
L 3088 3981 
L 1259 3981 
L 1013 2750 
Q 1425 3038 1878 3038 
Q 2478 3038 2890 2622 
Q 3303 2206 3303 1553 
Q 3303 931 2941 478 
Q 2500 -78 1738 -78 
Q 1113 -78 717 272 
Q 322 622 266 1200 
z
" transform="scale(0.015625)"/>
      <path id="ArialMT-30" d="M 266 2259 
Q 266 3072 433 3567 
Q 600 4063 929 4331 
Q 1259 4600 1759 4600 
Q 2128 4600 2406 4451 
Q 2684 4303 2865 4023 
Q 3047 3744 3150 3342 
Q 3253 2941 3253 2259 
Q 3253 1453 3087 958 
Q 2922 463 2592 192 
Q 2263 -78 1759 -78 
Q 1097 -78 719 397 
Q 266 969 266 2259 
z
M 844 2259 
Q 844 1131 1108 757 
Q 1372 384 1759 384 
Q 2147 384 2411 759 
Q 2675 1134 2675 2259 
Q 2675 3391 2411 3762 
Q 2147 4134 1753 4134 
Q 1366 4134 1134 3806 
Q 844 3388 844 2259 
z
" transform="scale(0.015625)"/>
     </defs>
     <use xlink:href="#ArialMT-35"/>
     <use xlink:href="#ArialMT-30" x="55.615234"/>
     <use xlink:href="#ArialMT-30" x="111.230469"/>
     <use xlink:href="#ArialMT-20" x="166.845703"/>
     <use xlink:href="#ArialMT-6d" x="194.628906"/>
     <use xlink:href="#ArialMT-73" x="277.929688"/>
    </g>
   </g>
   <g id="text_16">
    <!-- 20 mV -->
    <g transform="translate(504.737455 321.894)scale(0.22 -0.22)">
     <defs>
      <path id="ArialMT-32" d="M 3222 541 
L 3222 0 
L 194 0 
Q 188 203 259 391 
Q 375 700 629 1000 
Q 884 1300 1366 1694 
Q 2113 2306 2375 2664 
Q 2638 3022 2638 3341 
Q 2638 3675 2398 3904 
Q 2159 4134 1775 4134 
Q 1369 4134 1125 3890 
Q 881 3647 878 3216 
L 300 3275 
Q 359 3922 746 4261 
Q 1134 4600 1788 4600 
Q 2447 4600 2831 4234 
Q 3216 3869 3216 3328 
Q 3216 3053 3103 2787 
Q 2991 2522 2730 2228 
Q 2469 1934 1863 1422 
Q 1356 997 1212 845 
Q 1069 694 975 541 
L 3222 541 
z
" transform="scale(0.015625)"/>
     </defs>
     <use xlink:href="#ArialMT-32"/>
     <use xlink:href="#ArialMT-30" x="55.615234"/>
     <use xlink:href="#ArialMT-20" x="111.230469"/>
     <use xlink:href="#ArialMT-6d" x="139.013672"/>
     <use xlink:href="#ArialMT-56" x="222.314453"/>
    </g>
   </g>
   <g id="text_17">
    <!--  Plotting iSPN, trace number 14781  -->
    <g transform="translate(119.725937 63.12)scale(0.22 -0.22)">
     <defs>
      <path id="ArialMT-50" d="M 494 0 
L 494 4581 
L 2222 4581 
Q 2678 4581 2919 4538 
Q 3256 4481 3484 4323 
Q 3713 4166 3852 3881 
Q 3991 3597 3991 3256 
Q 3991 2672 3619 2267 
Q 3247 1863 2275 1863 
L 1100 1863 
L 1100 0 
L 494 0 
z
M 1100 2403 
L 2284 2403 
Q 2872 2403 3119 2622 
Q 3366 2841 3366 3238 
Q 3366 3525 3220 3729 
Q 3075 3934 2838 4000 
Q 2684 4041 2272 4041 
L 1100 4041 
L 1100 2403 
z
" transform="scale(0.015625)"/>
      <path id="ArialMT-67" d="M 319 -275 
L 866 -356 
Q 900 -609 1056 -725 
Q 1266 -881 1628 -881 
Q 2019 -881 2231 -725 
Q 2444 -569 2519 -288 
Q 2563 -116 2559 434 
Q 2191 0 1641 0 
Q 956 0 581 494 
Q 206 988 206 1678 
Q 206 2153 378 2554 
Q 550 2956 876 3175 
Q 1203 3394 1644 3394 
Q 2231 3394 2613 2919 
L 2613 3319 
L 3131 3319 
L 3131 450 
Q 3131 -325 2973 -648 
Q 2816 -972 2473 -1159 
Q 2131 -1347 1631 -1347 
Q 1038 -1347 672 -1080 
Q 306 -813 319 -275 
z
M 784 1719 
Q 784 1066 1043 766 
Q 1303 466 1694 466 
Q 2081 466 2343 764 
Q 2606 1063 2606 1700 
Q 2606 2309 2336 2618 
Q 2066 2928 1684 2928 
Q 1309 2928 1046 2623 
Q 784 2319 784 1719 
z
" transform="scale(0.015625)"/>
      <path id="ArialMT-53" d="M 288 1472 
L 859 1522 
Q 900 1178 1048 958 
Q 1197 738 1509 602 
Q 1822 466 2213 466 
Q 2559 466 2825 569 
Q 3091 672 3220 851 
Q 3350 1031 3350 1244 
Q 3350 1459 3225 1620 
Q 3100 1781 2813 1891 
Q 2628 1963 1997 2114 
Q 1366 2266 1113 2400 
Q 784 2572 623 2826 
Q 463 3081 463 3397 
Q 463 3744 659 4045 
Q 856 4347 1234 4503 
Q 1613 4659 2075 4659 
Q 2584 4659 2973 4495 
Q 3363 4331 3572 4012 
Q 3781 3694 3797 3291 
L 3216 3247 
Q 3169 3681 2898 3903 
Q 2628 4125 2100 4125 
Q 1550 4125 1298 3923 
Q 1047 3722 1047 3438 
Q 1047 3191 1225 3031 
Q 1400 2872 2139 2705 
Q 2878 2538 3153 2413 
Q 3553 2228 3743 1945 
Q 3934 1663 3934 1294 
Q 3934 928 3725 604 
Q 3516 281 3123 101 
Q 2731 -78 2241 -78 
Q 1619 -78 1198 103 
Q 778 284 539 648 
Q 300 1013 288 1472 
z
" transform="scale(0.015625)"/>
      <path id="ArialMT-4e" d="M 488 0 
L 488 4581 
L 1109 4581 
L 3516 984 
L 3516 4581 
L 4097 4581 
L 4097 0 
L 3475 0 
L 1069 3600 
L 1069 0 
L 488 0 
z
" transform="scale(0.015625)"/>
      <path id="ArialMT-2c" d="M 569 0 
L 569 641 
L 1209 641 
L 1209 0 
Q 1209 -353 1084 -570 
Q 959 -788 688 -906 
L 531 -666 
Q 709 -588 793 -436 
Q 878 -284 888 0 
L 569 0 
z
" transform="scale(0.015625)"/>
      <path id="ArialMT-63" d="M 2588 1216 
L 3141 1144 
Q 3050 572 2676 248 
Q 2303 -75 1759 -75 
Q 1078 -75 664 370 
Q 250 816 250 1647 
Q 250 2184 428 2587 
Q 606 2991 970 3192 
Q 1334 3394 1763 3394 
Q 2303 3394 2647 3120 
Q 2991 2847 3088 2344 
L 2541 2259 
Q 2463 2594 2264 2762 
Q 2066 2931 1784 2931 
Q 1359 2931 1093 2626 
Q 828 2322 828 1663 
Q 828 994 1084 691 
Q 1341 388 1753 388 
Q 2084 388 2306 591 
Q 2528 794 2588 1216 
z
" transform="scale(0.015625)"/>
      <path id="ArialMT-75" d="M 2597 0 
L 2597 488 
Q 2209 -75 1544 -75 
Q 1250 -75 995 37 
Q 741 150 617 320 
Q 494 491 444 738 
Q 409 903 409 1263 
L 409 3319 
L 972 3319 
L 972 1478 
Q 972 1038 1006 884 
Q 1059 663 1231 536 
Q 1403 409 1656 409 
Q 1909 409 2131 539 
Q 2353 669 2445 892 
Q 2538 1116 2538 1541 
L 2538 3319 
L 3100 3319 
L 3100 0 
L 2597 0 
z
" transform="scale(0.015625)"/>
      <path id="ArialMT-31" d="M 2384 0 
L 1822 0 
L 1822 3584 
Q 1619 3391 1289 3197 
Q 959 3003 697 2906 
L 697 3450 
Q 1169 3672 1522 3987 
Q 1875 4303 2022 4600 
L 2384 4600 
L 2384 0 
z
" transform="scale(0.015625)"/>
      <path id="ArialMT-34" d="M 2069 0 
L 2069 1097 
L 81 1097 
L 81 1613 
L 2172 4581 
L 2631 4581 
L 2631 1613 
L 3250 1613 
L 3250 1097 
L 2631 1097 
L 2631 0 
L 2069 0 
z
M 2069 1613 
L 2069 3678 
L 634 1613 
L 2069 1613 
z
" transform="scale(0.015625)"/>
      <path id="ArialMT-37" d="M 303 3981 
L 303 4522 
L 3269 4522 
L 3269 4084 
Q 2831 3619 2401 2847 
Q 1972 2075 1738 1259 
Q 1569 684 1522 0 
L 944 0 
Q 953 541 1156 1306 
Q 1359 2072 1739 2783 
Q 2119 3494 2547 3981 
L 303 3981 
z
" transform="scale(0.015625)"/>
      <path id="ArialMT-38" d="M 1131 2484 
Q 781 2613 612 2850 
Q 444 3088 444 3419 
Q 444 3919 803 4259 
Q 1163 4600 1759 4600 
Q 2359 4600 2725 4251 
Q 3091 3903 3091 3403 
Q 3091 3084 2923 2848 
Q 2756 2613 2416 2484 
Q 2838 2347 3058 2040 
Q 3278 1734 3278 1309 
Q 3278 722 2862 322 
Q 2447 -78 1769 -78 
Q 1091 -78 675 323 
Q 259 725 259 1325 
Q 259 1772 486 2073 
Q 713 2375 1131 2484 
z
M 1019 3438 
Q 1019 3113 1228 2906 
Q 1438 2700 1772 2700 
Q 2097 2700 2305 2904 
Q 2513 3109 2513 3406 
Q 2513 3716 2298 3927 
Q 2084 4138 1766 4138 
Q 1444 4138 1231 3931 
Q 1019 3725 1019 3438 
z
M 838 1322 
Q 838 1081 952 856 
Q 1066 631 1291 507 
Q 1516 384 1775 384 
Q 2178 384 2440 643 
Q 2703 903 2703 1303 
Q 2703 1709 2433 1975 
Q 2163 2241 1756 2241 
Q 1359 2241 1098 1978 
Q 838 1716 838 1322 
z
" transform="scale(0.015625)"/>
     </defs>
     <use xlink:href="#ArialMT-20"/>
     <use xlink:href="#ArialMT-50" x="27.783203"/>
     <use xlink:href="#ArialMT-6c" x="94.482422"/>
     <use xlink:href="#ArialMT-6f" x="116.699219"/>
     <use xlink:href="#ArialMT-74" x="172.314453"/>
     <use xlink:href="#ArialMT-74" x="200.097656"/>
     <use xlink:href="#ArialMT-69" x="227.880859"/>
     <use xlink:href="#ArialMT-6e" x="250.097656"/>
     <use xlink:href="#ArialMT-67" x="305.712891"/>
     <use xlink:href="#ArialMT-20" x="361.328125"/>
     <use xlink:href="#ArialMT-69" x="389.111328"/>
     <use xlink:href="#ArialMT-53" x="411.328125"/>
     <use xlink:href="#ArialMT-50" x="478.027344"/>
     <use xlink:href="#ArialMT-4e" x="544.726562"/>
     <use xlink:href="#ArialMT-2c" x="616.943359"/>
     <use xlink:href="#ArialMT-20" x="644.726562"/>
     <use xlink:href="#ArialMT-74" x="672.509766"/>
     <use xlink:href="#ArialMT-72" x="700.292969"/>
     <use xlink:href="#ArialMT-61" x="733.59375"/>
     <use xlink:href="#ArialMT-63" x="789.208984"/>
     <use xlink:href="#ArialMT-65" x="839.208984"/>
     <use xlink:href="#ArialMT-20" x="894.824219"/>
     <use xlink:href="#ArialMT-6e" x="922.607422"/>
     <use xlink:href="#ArialMT-75" x="978.222656"/>
     <use xlink:href="#ArialMT-6d" x="1033.837891"/>
     <use xlink:href="#ArialMT-62" x="1117.138672"/>
     <use xlink:href="#ArialMT-65" x="1172.753906"/>
     <use xlink:href="#ArialMT-72" x="1228.369141"/>
     <use xlink:href="#ArialMT-20" x="1261.669922"/>
     <use xlink:href="#ArialMT-31" x="1289.453125"/>
     <use xlink:href="#ArialMT-34" x="1345.068359"/>
     <use xlink:href="#ArialMT-37" x="1400.683594"/>
     <use xlink:href="#ArialMT-38" x="1456.298828"/>
     <use xlink:href="#ArialMT-31" x="1511.914062"/>
     <use xlink:href="#ArialMT-20" x="1567.529297"/>
    </g>
   </g>
  </g>
 </g>
 <defs>
  <clipPath id="pe46b6960a3">
   <rect x="72" y="69.12" width="446.4" height="434.88"/>
  </clipPath>
 </defs>
</svg>
