<?xml version="1.0" encoding="utf-8" standalone="no"?>
<!DOCTYPE svg PUBLIC "-//W3C//DTD SVG 1.1//EN"
  "http://www.w3.org/Graphics/SVG/1.1/DTD/svg11.dtd">
<svg xmlns:xlink="http://www.w3.org/1999/xlink" width="576pt" height="576pt" viewBox="0 0 576 576" xmlns="http://www.w3.org/2000/svg" version="1.1">
 <metadata>
  <rdf:RDF xmlns:dc="http://purl.org/dc/elements/1.1/" xmlns:cc="http://creativecommons.org/ns#" xmlns:rdf="http://www.w3.org/1999/02/22-rdf-syntax-ns#">
   <cc:Work>
    <dc:type rdf:resource="http://purl.org/dc/dcmitype/StillImage"/>
    <dc:date>2022-10-30T19:57:16.017420</dc:date>
    <dc:format>image/svg+xml</dc:format>
    <dc:creator>
     <cc:Agent>
      <dc:title>Matplotlib v3.5.2, https://matplotlib.org/</dc:title>
     </cc:Agent>
    </dc:creator>
   </cc:Work>
  </rdf:RDF>
 </metadata>
 <defs>
  <style type="text/css">*{stroke-linejoin: round; stroke-linecap: butt}</style>
 </defs>
 <g id="figure_1">
  <g id="patch_1">
   <path d="M 0 576 
L 576 576 
L 576 0 
L 0 0 
L 0 576 
z
" style="fill: none"/>
  </g>
  <g id="axes_1">
   <g id="patch_2">
    <path d="M 72 504 
L 518.4 504 
L 518.4 69.12 
L 72 69.12 
z
" style="fill: #ffffff"/>
   </g>
   <g id="matplotlib.axis_1">
    <g id="xtick_1">
     <g id="line2d_1">
      <defs>
       <path id="m74dfcc8f51" d="M 0 0 
L 0 3.5 
" style="stroke: #000000; stroke-width: 0.8"/>
      </defs>
      <g>
       <use xlink:href="#m74dfcc8f51" x="92.290909" y="504" style="stroke: #000000; stroke-width: 0.8"/>
      </g>
     </g>
     <g id="text_1">
      <!-- 0 -->
      <g transform="translate(85.292159 527.716563)scale(0.22 -0.22)">
       <defs>
        <path id="DejaVuSans-30" d="M 2034 4250 
Q 1547 4250 1301 3770 
Q 1056 3291 1056 2328 
Q 1056 1369 1301 889 
Q 1547 409 2034 409 
Q 2525 409 2770 889 
Q 3016 1369 3016 2328 
Q 3016 3291 2770 3770 
Q 2525 4250 2034 4250 
z
M 2034 4750 
Q 2819 4750 3233 4129 
Q 3647 3509 3647 2328 
Q 3647 1150 3233 529 
Q 2819 -91 2034 -91 
Q 1250 -91 836 529 
Q 422 1150 422 2328 
Q 422 3509 836 4129 
Q 1250 4750 2034 4750 
z
" transform="scale(0.015625)"/>
       </defs>
       <use xlink:href="#DejaVuSans-30"/>
      </g>
     </g>
    </g>
    <g id="xtick_2">
     <g id="line2d_2">
      <g>
       <use xlink:href="#m74dfcc8f51" x="227.563636" y="504" style="stroke: #000000; stroke-width: 0.8"/>
      </g>
     </g>
     <g id="text_2">
      <!-- 1000 -->
      <g transform="translate(199.568636 527.716563)scale(0.22 -0.22)">
       <defs>
        <path id="DejaVuSans-31" d="M 794 531 
L 1825 531 
L 1825 4091 
L 703 3866 
L 703 4441 
L 1819 4666 
L 2450 4666 
L 2450 531 
L 3481 531 
L 3481 0 
L 794 0 
L 794 531 
z
" transform="scale(0.015625)"/>
       </defs>
       <use xlink:href="#DejaVuSans-31"/>
       <use xlink:href="#DejaVuSans-30" x="63.623047"/>
       <use xlink:href="#DejaVuSans-30" x="127.246094"/>
       <use xlink:href="#DejaVuSans-30" x="190.869141"/>
      </g>
     </g>
    </g>
    <g id="xtick_3">
     <g id="line2d_3">
      <g>
       <use xlink:href="#m74dfcc8f51" x="362.836364" y="504" style="stroke: #000000; stroke-width: 0.8"/>
      </g>
     </g>
     <g id="text_3">
      <!-- 2000 -->
      <g transform="translate(334.841364 527.716563)scale(0.22 -0.22)">
       <defs>
        <path id="DejaVuSans-32" d="M 1228 531 
L 3431 531 
L 3431 0 
L 469 0 
L 469 531 
Q 828 903 1448 1529 
Q 2069 2156 2228 2338 
Q 2531 2678 2651 2914 
Q 2772 3150 2772 3378 
Q 2772 3750 2511 3984 
Q 2250 4219 1831 4219 
Q 1534 4219 1204 4116 
Q 875 4013 500 3803 
L 500 4441 
Q 881 4594 1212 4672 
Q 1544 4750 1819 4750 
Q 2544 4750 2975 4387 
Q 3406 4025 3406 3419 
Q 3406 3131 3298 2873 
Q 3191 2616 2906 2266 
Q 2828 2175 2409 1742 
Q 1991 1309 1228 531 
z
" transform="scale(0.015625)"/>
       </defs>
       <use xlink:href="#DejaVuSans-32"/>
       <use xlink:href="#DejaVuSans-30" x="63.623047"/>
       <use xlink:href="#DejaVuSans-30" x="127.246094"/>
       <use xlink:href="#DejaVuSans-30" x="190.869141"/>
      </g>
     </g>
    </g>
    <g id="xtick_4">
     <g id="line2d_4">
      <g>
       <use xlink:href="#m74dfcc8f51" x="498.109091" y="504" style="stroke: #000000; stroke-width: 0.8"/>
      </g>
     </g>
     <g id="text_4">
      <!-- 3000 -->
      <g transform="translate(470.114091 527.716563)scale(0.22 -0.22)">
       <defs>
        <path id="DejaVuSans-33" d="M 2597 2516 
Q 3050 2419 3304 2112 
Q 3559 1806 3559 1356 
Q 3559 666 3084 287 
Q 2609 -91 1734 -91 
Q 1441 -91 1130 -33 
Q 819 25 488 141 
L 488 750 
Q 750 597 1062 519 
Q 1375 441 1716 441 
Q 2309 441 2620 675 
Q 2931 909 2931 1356 
Q 2931 1769 2642 2001 
Q 2353 2234 1838 2234 
L 1294 2234 
L 1294 2753 
L 1863 2753 
Q 2328 2753 2575 2939 
Q 2822 3125 2822 3475 
Q 2822 3834 2567 4026 
Q 2313 4219 1838 4219 
Q 1578 4219 1281 4162 
Q 984 4106 628 3988 
L 628 4550 
Q 988 4650 1302 4700 
Q 1616 4750 1894 4750 
Q 2613 4750 3031 4423 
Q 3450 4097 3450 3541 
Q 3450 3153 3228 2886 
Q 3006 2619 2597 2516 
z
" transform="scale(0.015625)"/>
       </defs>
       <use xlink:href="#DejaVuSans-33"/>
       <use xlink:href="#DejaVuSans-30" x="63.623047"/>
       <use xlink:href="#DejaVuSans-30" x="127.246094"/>
       <use xlink:href="#DejaVuSans-30" x="190.869141"/>
      </g>
     </g>
    </g>
    <g id="text_5">
     <!-- Time(ms) -->
     <g transform="translate(249.182187 552.307188)scale(0.22 -0.22)">
      <defs>
       <path id="ArialMT-54" d="M 1659 0 
L 1659 4041 
L 150 4041 
L 150 4581 
L 3781 4581 
L 3781 4041 
L 2266 4041 
L 2266 0 
L 1659 0 
z
" transform="scale(0.015625)"/>
       <path id="ArialMT-69" d="M 425 3934 
L 425 4581 
L 988 4581 
L 988 3934 
L 425 3934 
z
M 425 0 
L 425 3319 
L 988 3319 
L 988 0 
L 425 0 
z
" transform="scale(0.015625)"/>
       <path id="ArialMT-6d" d="M 422 0 
L 422 3319 
L 925 3319 
L 925 2853 
Q 1081 3097 1340 3245 
Q 1600 3394 1931 3394 
Q 2300 3394 2536 3241 
Q 2772 3088 2869 2813 
Q 3263 3394 3894 3394 
Q 4388 3394 4653 3120 
Q 4919 2847 4919 2278 
L 4919 0 
L 4359 0 
L 4359 2091 
Q 4359 2428 4304 2576 
Q 4250 2725 4106 2815 
Q 3963 2906 3769 2906 
Q 3419 2906 3187 2673 
Q 2956 2441 2956 1928 
L 2956 0 
L 2394 0 
L 2394 2156 
Q 2394 2531 2256 2718 
Q 2119 2906 1806 2906 
Q 1569 2906 1367 2781 
Q 1166 2656 1075 2415 
Q 984 2175 984 1722 
L 984 0 
L 422 0 
z
" transform="scale(0.015625)"/>
       <path id="ArialMT-65" d="M 2694 1069 
L 3275 997 
Q 3138 488 2766 206 
Q 2394 -75 1816 -75 
Q 1088 -75 661 373 
Q 234 822 234 1631 
Q 234 2469 665 2931 
Q 1097 3394 1784 3394 
Q 2450 3394 2872 2941 
Q 3294 2488 3294 1666 
Q 3294 1616 3291 1516 
L 816 1516 
Q 847 969 1125 678 
Q 1403 388 1819 388 
Q 2128 388 2347 550 
Q 2566 713 2694 1069 
z
M 847 1978 
L 2700 1978 
Q 2663 2397 2488 2606 
Q 2219 2931 1791 2931 
Q 1403 2931 1139 2672 
Q 875 2413 847 1978 
z
" transform="scale(0.015625)"/>
       <path id="ArialMT-28" d="M 1497 -1347 
Q 1031 -759 709 28 
Q 388 816 388 1659 
Q 388 2403 628 3084 
Q 909 3875 1497 4659 
L 1900 4659 
Q 1522 4009 1400 3731 
Q 1209 3300 1100 2831 
Q 966 2247 966 1656 
Q 966 153 1900 -1347 
L 1497 -1347 
z
" transform="scale(0.015625)"/>
       <path id="ArialMT-73" d="M 197 991 
L 753 1078 
Q 800 744 1014 566 
Q 1228 388 1613 388 
Q 2000 388 2187 545 
Q 2375 703 2375 916 
Q 2375 1106 2209 1216 
Q 2094 1291 1634 1406 
Q 1016 1563 777 1677 
Q 538 1791 414 1992 
Q 291 2194 291 2438 
Q 291 2659 392 2848 
Q 494 3038 669 3163 
Q 800 3259 1026 3326 
Q 1253 3394 1513 3394 
Q 1903 3394 2198 3281 
Q 2494 3169 2634 2976 
Q 2775 2784 2828 2463 
L 2278 2388 
Q 2241 2644 2061 2787 
Q 1881 2931 1553 2931 
Q 1166 2931 1000 2803 
Q 834 2675 834 2503 
Q 834 2394 903 2306 
Q 972 2216 1119 2156 
Q 1203 2125 1616 2013 
Q 2213 1853 2448 1751 
Q 2684 1650 2818 1456 
Q 2953 1263 2953 975 
Q 2953 694 2789 445 
Q 2625 197 2315 61 
Q 2006 -75 1616 -75 
Q 969 -75 630 194 
Q 291 463 197 991 
z
" transform="scale(0.015625)"/>
       <path id="ArialMT-29" d="M 791 -1347 
L 388 -1347 
Q 1322 153 1322 1656 
Q 1322 2244 1188 2822 
Q 1081 3291 891 3722 
Q 769 4003 388 4659 
L 791 4659 
Q 1378 3875 1659 3084 
Q 1900 2403 1900 1659 
Q 1900 816 1576 28 
Q 1253 -759 791 -1347 
z
" transform="scale(0.015625)"/>
      </defs>
      <use xlink:href="#ArialMT-54"/>
      <use xlink:href="#ArialMT-69" x="57.333984"/>
      <use xlink:href="#ArialMT-6d" x="79.550781"/>
      <use xlink:href="#ArialMT-65" x="162.851562"/>
      <use xlink:href="#ArialMT-28" x="218.466797"/>
      <use xlink:href="#ArialMT-6d" x="251.767578"/>
      <use xlink:href="#ArialMT-73" x="335.068359"/>
      <use xlink:href="#ArialMT-29" x="385.068359"/>
     </g>
    </g>
   </g>
   <g id="matplotlib.axis_2">
    <g id="ytick_1">
     <g id="line2d_5">
      <defs>
       <path id="mdb743dcdf3" d="M 0 0 
L -3.5 0 
" style="stroke: #000000; stroke-width: 0.8"/>
      </defs>
      <g>
       <use xlink:href="#mdb743dcdf3" x="72" y="476.82" style="stroke: #000000; stroke-width: 0.8"/>
      </g>
     </g>
     <g id="text_6">
      <!-- −100 -->
      <g transform="translate(4.572187 485.178281)scale(0.22 -0.22)">
       <defs>
        <path id="DejaVuSans-2212" d="M 678 2272 
L 4684 2272 
L 4684 1741 
L 678 1741 
L 678 2272 
z
" transform="scale(0.015625)"/>
       </defs>
       <use xlink:href="#DejaVuSans-2212"/>
       <use xlink:href="#DejaVuSans-31" x="83.789062"/>
       <use xlink:href="#DejaVuSans-30" x="147.412109"/>
       <use xlink:href="#DejaVuSans-30" x="211.035156"/>
      </g>
     </g>
    </g>
    <g id="ytick_2">
     <g id="line2d_6">
      <g>
       <use xlink:href="#mdb743dcdf3" x="72" y="422.46" style="stroke: #000000; stroke-width: 0.8"/>
      </g>
     </g>
     <g id="text_7">
      <!-- −80 -->
      <g transform="translate(18.569688 430.818281)scale(0.22 -0.22)">
       <defs>
        <path id="DejaVuSans-38" d="M 2034 2216 
Q 1584 2216 1326 1975 
Q 1069 1734 1069 1313 
Q 1069 891 1326 650 
Q 1584 409 2034 409 
Q 2484 409 2743 651 
Q 3003 894 3003 1313 
Q 3003 1734 2745 1975 
Q 2488 2216 2034 2216 
z
M 1403 2484 
Q 997 2584 770 2862 
Q 544 3141 544 3541 
Q 544 4100 942 4425 
Q 1341 4750 2034 4750 
Q 2731 4750 3128 4425 
Q 3525 4100 3525 3541 
Q 3525 3141 3298 2862 
Q 3072 2584 2669 2484 
Q 3125 2378 3379 2068 
Q 3634 1759 3634 1313 
Q 3634 634 3220 271 
Q 2806 -91 2034 -91 
Q 1263 -91 848 271 
Q 434 634 434 1313 
Q 434 1759 690 2068 
Q 947 2378 1403 2484 
z
M 1172 3481 
Q 1172 3119 1398 2916 
Q 1625 2713 2034 2713 
Q 2441 2713 2670 2916 
Q 2900 3119 2900 3481 
Q 2900 3844 2670 4047 
Q 2441 4250 2034 4250 
Q 1625 4250 1398 4047 
Q 1172 3844 1172 3481 
z
" transform="scale(0.015625)"/>
       </defs>
       <use xlink:href="#DejaVuSans-2212"/>
       <use xlink:href="#DejaVuSans-38" x="83.789062"/>
       <use xlink:href="#DejaVuSans-30" x="147.412109"/>
      </g>
     </g>
    </g>
    <g id="ytick_3">
     <g id="line2d_7">
      <g>
       <use xlink:href="#mdb743dcdf3" x="72" y="368.1" style="stroke: #000000; stroke-width: 0.8"/>
      </g>
     </g>
     <g id="text_8">
      <!-- −60 -->
      <g transform="translate(18.569688 376.458281)scale(0.22 -0.22)">
       <defs>
        <path id="DejaVuSans-36" d="M 2113 2584 
Q 1688 2584 1439 2293 
Q 1191 2003 1191 1497 
Q 1191 994 1439 701 
Q 1688 409 2113 409 
Q 2538 409 2786 701 
Q 3034 994 3034 1497 
Q 3034 2003 2786 2293 
Q 2538 2584 2113 2584 
z
M 3366 4563 
L 3366 3988 
Q 3128 4100 2886 4159 
Q 2644 4219 2406 4219 
Q 1781 4219 1451 3797 
Q 1122 3375 1075 2522 
Q 1259 2794 1537 2939 
Q 1816 3084 2150 3084 
Q 2853 3084 3261 2657 
Q 3669 2231 3669 1497 
Q 3669 778 3244 343 
Q 2819 -91 2113 -91 
Q 1303 -91 875 529 
Q 447 1150 447 2328 
Q 447 3434 972 4092 
Q 1497 4750 2381 4750 
Q 2619 4750 2861 4703 
Q 3103 4656 3366 4563 
z
" transform="scale(0.015625)"/>
       </defs>
       <use xlink:href="#DejaVuSans-2212"/>
       <use xlink:href="#DejaVuSans-36" x="83.789062"/>
       <use xlink:href="#DejaVuSans-30" x="147.412109"/>
      </g>
     </g>
    </g>
    <g id="ytick_4">
     <g id="line2d_8">
      <g>
       <use xlink:href="#mdb743dcdf3" x="72" y="313.74" style="stroke: #000000; stroke-width: 0.8"/>
      </g>
     </g>
     <g id="text_9">
      <!-- −40 -->
      <g transform="translate(18.569688 322.098281)scale(0.22 -0.22)">
       <defs>
        <path id="DejaVuSans-34" d="M 2419 4116 
L 825 1625 
L 2419 1625 
L 2419 4116 
z
M 2253 4666 
L 3047 4666 
L 3047 1625 
L 3713 1625 
L 3713 1100 
L 3047 1100 
L 3047 0 
L 2419 0 
L 2419 1100 
L 313 1100 
L 313 1709 
L 2253 4666 
z
" transform="scale(0.015625)"/>
       </defs>
       <use xlink:href="#DejaVuSans-2212"/>
       <use xlink:href="#DejaVuSans-34" x="83.789062"/>
       <use xlink:href="#DejaVuSans-30" x="147.412109"/>
      </g>
     </g>
    </g>
    <g id="ytick_5">
     <g id="line2d_9">
      <g>
       <use xlink:href="#mdb743dcdf3" x="72" y="259.38" style="stroke: #000000; stroke-width: 0.8"/>
      </g>
     </g>
     <g id="text_10">
      <!-- −20 -->
      <g transform="translate(18.569688 267.738281)scale(0.22 -0.22)">
       <use xlink:href="#DejaVuSans-2212"/>
       <use xlink:href="#DejaVuSans-32" x="83.789062"/>
       <use xlink:href="#DejaVuSans-30" x="147.412109"/>
      </g>
     </g>
    </g>
    <g id="ytick_6">
     <g id="line2d_10">
      <g>
       <use xlink:href="#mdb743dcdf3" x="72" y="205.02" style="stroke: #000000; stroke-width: 0.8"/>
      </g>
     </g>
     <g id="text_11">
      <!-- 0 -->
      <g transform="translate(51.0025 213.378281)scale(0.22 -0.22)">
       <use xlink:href="#DejaVuSans-30"/>
      </g>
     </g>
    </g>
    <g id="ytick_7">
     <g id="line2d_11">
      <g>
       <use xlink:href="#mdb743dcdf3" x="72" y="150.66" style="stroke: #000000; stroke-width: 0.8"/>
      </g>
     </g>
     <g id="text_12">
      <!-- 20 -->
      <g transform="translate(37.005 159.018281)scale(0.22 -0.22)">
       <use xlink:href="#DejaVuSans-32"/>
       <use xlink:href="#DejaVuSans-30" x="63.623047"/>
      </g>
     </g>
    </g>
    <g id="ytick_8">
     <g id="line2d_12">
      <g>
       <use xlink:href="#mdb743dcdf3" x="72" y="96.3" style="stroke: #000000; stroke-width: 0.8"/>
      </g>
     </g>
     <g id="text_13">
      <!-- 40 -->
      <g transform="translate(37.005 104.658281)scale(0.22 -0.22)">
       <use xlink:href="#DejaVuSans-34"/>
       <use xlink:href="#DejaVuSans-30" x="63.623047"/>
      </g>
     </g>
    </g>
    <g id="text_14">
     <!-- Membrane potential (mV) -->
     <g transform="translate(-4.058125 410.655469)rotate(-90)scale(0.22 -0.22)">
      <defs>
       <path id="ArialMT-4d" d="M 475 0 
L 475 4581 
L 1388 4581 
L 2472 1338 
Q 2622 884 2691 659 
Q 2769 909 2934 1394 
L 4031 4581 
L 4847 4581 
L 4847 0 
L 4263 0 
L 4263 3834 
L 2931 0 
L 2384 0 
L 1059 3900 
L 1059 0 
L 475 0 
z
" transform="scale(0.015625)"/>
       <path id="ArialMT-62" d="M 941 0 
L 419 0 
L 419 4581 
L 981 4581 
L 981 2947 
Q 1338 3394 1891 3394 
Q 2197 3394 2470 3270 
Q 2744 3147 2920 2923 
Q 3097 2700 3197 2384 
Q 3297 2069 3297 1709 
Q 3297 856 2875 390 
Q 2453 -75 1863 -75 
Q 1275 -75 941 416 
L 941 0 
z
M 934 1684 
Q 934 1088 1097 822 
Q 1363 388 1816 388 
Q 2184 388 2453 708 
Q 2722 1028 2722 1663 
Q 2722 2313 2464 2622 
Q 2206 2931 1841 2931 
Q 1472 2931 1203 2611 
Q 934 2291 934 1684 
z
" transform="scale(0.015625)"/>
       <path id="ArialMT-72" d="M 416 0 
L 416 3319 
L 922 3319 
L 922 2816 
Q 1116 3169 1280 3281 
Q 1444 3394 1641 3394 
Q 1925 3394 2219 3213 
L 2025 2691 
Q 1819 2813 1613 2813 
Q 1428 2813 1281 2702 
Q 1134 2591 1072 2394 
Q 978 2094 978 1738 
L 978 0 
L 416 0 
z
" transform="scale(0.015625)"/>
       <path id="ArialMT-61" d="M 2588 409 
Q 2275 144 1986 34 
Q 1697 -75 1366 -75 
Q 819 -75 525 192 
Q 231 459 231 875 
Q 231 1119 342 1320 
Q 453 1522 633 1644 
Q 813 1766 1038 1828 
Q 1203 1872 1538 1913 
Q 2219 1994 2541 2106 
Q 2544 2222 2544 2253 
Q 2544 2597 2384 2738 
Q 2169 2928 1744 2928 
Q 1347 2928 1158 2789 
Q 969 2650 878 2297 
L 328 2372 
Q 403 2725 575 2942 
Q 747 3159 1072 3276 
Q 1397 3394 1825 3394 
Q 2250 3394 2515 3294 
Q 2781 3194 2906 3042 
Q 3031 2891 3081 2659 
Q 3109 2516 3109 2141 
L 3109 1391 
Q 3109 606 3145 398 
Q 3181 191 3288 0 
L 2700 0 
Q 2613 175 2588 409 
z
M 2541 1666 
Q 2234 1541 1622 1453 
Q 1275 1403 1131 1340 
Q 988 1278 909 1158 
Q 831 1038 831 891 
Q 831 666 1001 516 
Q 1172 366 1500 366 
Q 1825 366 2078 508 
Q 2331 650 2450 897 
Q 2541 1088 2541 1459 
L 2541 1666 
z
" transform="scale(0.015625)"/>
       <path id="ArialMT-6e" d="M 422 0 
L 422 3319 
L 928 3319 
L 928 2847 
Q 1294 3394 1984 3394 
Q 2284 3394 2536 3286 
Q 2788 3178 2913 3003 
Q 3038 2828 3088 2588 
Q 3119 2431 3119 2041 
L 3119 0 
L 2556 0 
L 2556 2019 
Q 2556 2363 2490 2533 
Q 2425 2703 2258 2804 
Q 2091 2906 1866 2906 
Q 1506 2906 1245 2678 
Q 984 2450 984 1813 
L 984 0 
L 422 0 
z
" transform="scale(0.015625)"/>
       <path id="ArialMT-20" transform="scale(0.015625)"/>
       <path id="ArialMT-70" d="M 422 -1272 
L 422 3319 
L 934 3319 
L 934 2888 
Q 1116 3141 1344 3267 
Q 1572 3394 1897 3394 
Q 2322 3394 2647 3175 
Q 2972 2956 3137 2557 
Q 3303 2159 3303 1684 
Q 3303 1175 3120 767 
Q 2938 359 2589 142 
Q 2241 -75 1856 -75 
Q 1575 -75 1351 44 
Q 1128 163 984 344 
L 984 -1272 
L 422 -1272 
z
M 931 1641 
Q 931 1000 1190 694 
Q 1450 388 1819 388 
Q 2194 388 2461 705 
Q 2728 1022 2728 1688 
Q 2728 2322 2467 2637 
Q 2206 2953 1844 2953 
Q 1484 2953 1207 2617 
Q 931 2281 931 1641 
z
" transform="scale(0.015625)"/>
       <path id="ArialMT-6f" d="M 213 1659 
Q 213 2581 725 3025 
Q 1153 3394 1769 3394 
Q 2453 3394 2887 2945 
Q 3322 2497 3322 1706 
Q 3322 1066 3130 698 
Q 2938 331 2570 128 
Q 2203 -75 1769 -75 
Q 1072 -75 642 372 
Q 213 819 213 1659 
z
M 791 1659 
Q 791 1022 1069 705 
Q 1347 388 1769 388 
Q 2188 388 2466 706 
Q 2744 1025 2744 1678 
Q 2744 2294 2464 2611 
Q 2184 2928 1769 2928 
Q 1347 2928 1069 2612 
Q 791 2297 791 1659 
z
" transform="scale(0.015625)"/>
       <path id="ArialMT-74" d="M 1650 503 
L 1731 6 
Q 1494 -44 1306 -44 
Q 1000 -44 831 53 
Q 663 150 594 308 
Q 525 466 525 972 
L 525 2881 
L 113 2881 
L 113 3319 
L 525 3319 
L 525 4141 
L 1084 4478 
L 1084 3319 
L 1650 3319 
L 1650 2881 
L 1084 2881 
L 1084 941 
Q 1084 700 1114 631 
Q 1144 563 1211 522 
Q 1278 481 1403 481 
Q 1497 481 1650 503 
z
" transform="scale(0.015625)"/>
       <path id="ArialMT-6c" d="M 409 0 
L 409 4581 
L 972 4581 
L 972 0 
L 409 0 
z
" transform="scale(0.015625)"/>
       <path id="ArialMT-56" d="M 1803 0 
L 28 4581 
L 684 4581 
L 1875 1253 
Q 2019 853 2116 503 
Q 2222 878 2363 1253 
L 3600 4581 
L 4219 4581 
L 2425 0 
L 1803 0 
z
" transform="scale(0.015625)"/>
      </defs>
      <use xlink:href="#ArialMT-4d"/>
      <use xlink:href="#ArialMT-65" x="83.300781"/>
      <use xlink:href="#ArialMT-6d" x="138.916016"/>
      <use xlink:href="#ArialMT-62" x="222.216797"/>
      <use xlink:href="#ArialMT-72" x="277.832031"/>
      <use xlink:href="#ArialMT-61" x="311.132812"/>
      <use xlink:href="#ArialMT-6e" x="366.748047"/>
      <use xlink:href="#ArialMT-65" x="422.363281"/>
      <use xlink:href="#ArialMT-20" x="477.978516"/>
      <use xlink:href="#ArialMT-70" x="505.761719"/>
      <use xlink:href="#ArialMT-6f" x="561.376953"/>
      <use xlink:href="#ArialMT-74" x="616.992188"/>
      <use xlink:href="#ArialMT-65" x="644.775391"/>
      <use xlink:href="#ArialMT-6e" x="700.390625"/>
      <use xlink:href="#ArialMT-74" x="756.005859"/>
      <use xlink:href="#ArialMT-69" x="783.789062"/>
      <use xlink:href="#ArialMT-61" x="806.005859"/>
      <use xlink:href="#ArialMT-6c" x="861.621094"/>
      <use xlink:href="#ArialMT-20" x="883.837891"/>
      <use xlink:href="#ArialMT-28" x="911.621094"/>
      <use xlink:href="#ArialMT-6d" x="944.921875"/>
      <use xlink:href="#ArialMT-56" x="1028.222656"/>
      <use xlink:href="#ArialMT-29" x="1094.921875"/>
     </g>
    </g>
   </g>
   <g id="line2d_13">
    <path d="M 92.290909 436.05 
L 92.493818 447.475211 
L 92.899636 454.864495 
L 93.373091 459.679804 
L 93.846545 462.238187 
L 94.32 463.559941 
L 94.793455 464.233657 
L 95.334545 464.608936 
L 96.078545 464.821074 
L 97.431273 464.920348 
L 102.774545 464.939888 
L 159.927273 464.940038 
L 160.130182 448.988807 
L 160.603636 436.849789 
L 161.144727 428.258956 
L 161.821091 421.006261 
L 162.632727 414.790472 
L 163.579636 409.346967 
L 164.594182 404.777781 
L 165.744 400.596731 
L 167.029091 396.757832 
L 168.449455 393.213936 
L 170.005091 389.915191 
L 171.831273 386.574343 
L 173.995636 383.096348 
L 177.106909 378.564722 
L 180.894545 372.992353 
L 182.653091 370.00553 
L 184.005818 367.284173 
L 185.088 364.617384 
L 185.967273 361.887184 
L 186.711273 358.868281 
L 187.32 355.481077 
L 187.793455 351.66874 
L 188.131636 347.44146 
L 188.334545 342.495592 
L 188.672727 334.301756 
L 189.078545 327.990954 
L 189.281455 318.528557 
L 189.416727 297.67169 
L 189.552 231.149229 
L 189.754909 338.591226 
L 190.025455 364.052355 
L 190.296 369.475795 
L 190.431273 370.009913 
L 190.498909 369.996933 
L 190.634182 369.603107 
L 190.972364 367.501874 
L 192.933818 352.031746 
L 193.407273 346.086633 
L 193.745455 338.851211 
L 193.948364 330.618237 
L 194.083636 318.770499 
L 194.151273 304.130713 
L 194.286545 206.040738 
L 194.489455 354.92751 
L 194.692364 376.96948 
L 194.962909 382.346078 
L 195.098182 382.825995 
L 195.233455 382.220944 
L 195.436364 379.706676 
L 195.774545 375.163436 
L 197.059636 357.409266 
L 197.600727 348.491219 
L 197.938909 339.443413 
L 198.141818 329.030321 
L 198.277091 311.014507 
L 198.412364 173.784388 
L 198.615273 352.991167 
L 198.818182 378.300189 
L 199.021091 382.998695 
L 199.088727 383.325475 
L 199.156364 383.309079 
L 199.291636 382.553194 
L 199.629818 378.4881 
L 200.847273 362.123403 
L 201.591273 351.762299 
L 201.997091 343.034679 
L 202.267636 331.923112 
L 202.402909 318.90789 
L 202.470545 301.393127 
L 202.538182 175.754696 
L 202.605818 223.123108 
L 202.808727 358.295543 
L 203.011636 379.221564 
L 203.214545 384.228778 
L 203.349818 384.849742 
L 203.485091 384.387856 
L 203.755636 381.857778 
L 206.461091 348.945545 
L 206.866909 339.550035 
L 207.137455 327.148915 
L 207.272727 308.929698 
L 207.408 182.03553 
L 207.610909 350.668997 
L 207.813818 375.412909 
L 208.016727 380.740557 
L 208.152 381.351086 
L 208.287273 380.811735 
L 208.557818 377.947738 
L 209.910545 358.293795 
L 210.384 349.065832 
L 211.060364 326.719001 
L 211.195636 316.772103 
L 211.263273 306.230464 
L 211.330909 277.365831 
L 211.398545 199.923998 
L 211.601455 340.575964 
L 211.804364 365.028758 
L 212.007273 370.967672 
L 212.142545 371.859475 
L 212.210182 371.817597 
L 212.345455 371.089733 
L 212.683636 367.19152 
L 213.36 356.037061 
L 213.833455 344.832359 
L 214.104 332.046433 
L 214.239273 317.58628 
L 214.306909 295.551155 
L 214.374545 152.979271 
L 214.577455 347.609608 
L 214.780364 379.649519 
L 214.983273 385.782487 
L 215.186182 387.048429 
L 215.253818 387.01344 
L 215.456727 386.246089 
L 215.997818 382.517384 
L 216.809455 377.584921 
L 217.282909 374.782381 
L 217.485818 373.189557 
L 218.026909 374.48932 
L 218.229818 374.461054 
L 218.568 374.097164 
L 219.244364 372.924094 
L 220.258909 370.699688 
L 222.761455 364.247031 
L 223.505455 361.806587 
L 223.978909 360.543505 
L 224.52 358.346638 
L 225.061091 355.121274 
L 225.466909 351.4461 
L 225.872727 346.178252 
L 226.143273 340.092281 
L 226.481455 320.793359 
L 226.616727 292.867066 
L 226.684364 193.663449 
L 226.752 254.37222 
L 226.954909 355.927096 
L 227.157818 375.483673 
L 227.360727 380.402885 
L 227.563636 381.291063 
L 227.698909 380.88165 
L 228.037091 378.470196 
L 228.916364 371.858907 
L 229.728 367.584961 
L 230.945455 361.380246 
L 231.554182 357.120641 
L 232.095273 351.641875 
L 232.704 344.723461 
L 233.515636 323.899114 
L 233.650909 312.193772 
L 233.718545 297.636494 
L 233.853818 230.988938 
L 234.056727 343.239248 
L 234.259636 365.434382 
L 234.530182 372.722706 
L 234.733091 373.505683 
L 234.868364 373.085048 
L 235.206545 370.571731 
L 237.370909 350.977876 
L 237.709091 344.365207 
L 237.912 333.942283 
L 238.047273 322.841509 
L 238.114909 311.744998 
L 238.250182 168.612207 
L 238.453091 353.943228 
L 238.656 381.379829 
L 238.858909 386.79695 
L 239.061818 387.622008 
L 239.197091 387.100077 
L 239.535273 384.318714 
L 240.346909 377.406033 
L 240.955636 374.351439 
L 241.902545 370.887104 
L 243.187636 366.624849 
L 243.728727 364.272173 
L 243.999273 362.289301 
L 244.202182 360.082145 
L 244.337455 360.498853 
L 244.675636 361.782726 
L 244.878545 361.93911 
L 245.081455 361.737398 
L 245.419636 360.895562 
L 245.893091 359.029677 
L 246.501818 355.643435 
L 247.042909 351.237914 
L 247.448727 346.154166 
L 247.786909 338.890744 
L 247.989818 330.424854 
L 248.125091 317.783316 
L 248.192727 300.846691 
L 248.260364 188.629301 
L 248.328 221.671119 
L 248.530909 355.871808 
L 248.733818 376.493605 
L 249.004364 381.354417 
L 249.207273 382.363112 
L 249.342545 382.105788 
L 249.613091 380.515086 
L 250.627636 373.673761 
L 251.304 370.713325 
L 253.265455 363.539028 
L 254.144727 359.413826 
L 254.685818 355.801826 
L 255.159273 351.345822 
L 255.497455 346.299226 
L 255.700364 341.218373 
L 255.970909 326.624256 
L 256.106182 310.291669 
L 256.173818 279.825733 
L 256.241455 175.614101 
L 256.444364 347.827845 
L 256.647273 375.32476 
L 256.850182 380.946865 
L 256.917818 381.308058 
L 256.985455 381.053031 
L 257.932364 369.395231 
L 259.555636 346.940543 
L 259.893818 337.536844 
L 260.096727 325.282755 
L 260.232 294.634165 
L 260.299636 159.850942 
L 260.502545 344.6157 
L 260.705455 375.459947 
L 260.908364 381.128192 
L 261.043636 381.668819 
L 261.178909 381.031013 
L 261.449455 377.944178 
L 263.072727 353.226791 
L 263.343273 346.447993 
L 264.019636 320.134334 
L 264.154909 291.43806 
L 264.222545 197.765572 
L 264.493091 352.735555 
L 264.696 370.203983 
L 264.898909 374.162068 
L 264.966545 374.43752 
L 265.034182 374.40166 
L 265.169455 373.661461 
L 265.507636 369.658254 
L 266.319273 356.557554 
L 266.928 343.309898 
L 267.198545 333.136786 
L 267.333818 322.579555 
L 267.401455 311.383929 
L 267.536727 171.435389 
L 267.739636 351.373691 
L 267.942545 376.62392 
L 268.145455 381.233132 
L 268.213091 381.506313 
L 268.280727 381.417818 
L 268.416 380.452092 
L 268.686545 376.353372 
L 268.957091 371.15689 
L 269.295273 369.093018 
L 269.701091 367.62565 
L 270.039273 367.259072 
L 270.648 366.704921 
L 271.392 365.666421 
L 272.677091 362.510876 
L 273.353455 360.124263 
L 273.962182 357.194078 
L 275.112 349.779591 
L 275.450182 346.009444 
L 275.788364 339.468257 
L 275.991273 331.875713 
L 276.126545 321.555789 
L 276.194182 310.331745 
L 276.329455 173.894403 
L 276.532364 348.839646 
L 276.735273 377.203385 
L 277.005818 385.181049 
L 277.208727 385.932514 
L 277.344 385.449722 
L 277.682182 382.87934 
L 278.493818 376.876244 
L 279.170182 373.63132 
L 280.252364 369.818404 
L 282.078545 363.286692 
L 283.160727 358.203679 
L 283.634182 354.730446 
L 284.04 349.879616 
L 284.242909 344.134581 
L 284.513455 338.436459 
L 284.851636 333.570849 
L 285.054545 326.980344 
L 285.189818 316.947393 
L 285.257455 305.814139 
L 285.392727 195.820507 
L 285.595636 342.273781 
L 285.798545 368.209194 
L 286.069091 376.007857 
L 286.272 376.798503 
L 286.407273 376.375027 
L 286.745455 373.946432 
L 288.233455 361.910154 
L 289.112727 354.800466 
L 289.789091 346.538349 
L 290.059636 340.152155 
L 290.194909 333.015551 
L 290.330182 317.40179 
L 290.397818 292.871088 
L 290.465455 147.776171 
L 290.668364 348.812546 
L 290.871273 381.900446 
L 291.074182 388.094231 
L 291.277091 389.005631 
L 291.412364 388.406235 
L 291.818182 384.633302 
L 292.562182 378.087181 
L 293.238545 374.053503 
L 294.861818 365.593878 
L 295.064727 363.495508 
L 295.2 363.876923 
L 295.538182 364.848928 
L 295.741091 364.866056 
L 295.944 364.564697 
L 296.282182 363.572428 
L 296.823273 361.155936 
L 297.296727 358.131019 
L 297.973091 352.043439 
L 298.92 337.242593 
L 299.122909 329.579017 
L 299.258182 318.959158 
L 299.325818 307.0241 
L 299.461091 188.834381 
L 299.664 348.425582 
L 299.866909 373.413833 
L 300.069818 378.788286 
L 300.137455 379.051577 
L 300.272727 378.695643 
L 300.408 378.723503 
L 300.543273 378.33752 
L 300.881455 375.988669 
L 302.234182 365.756619 
L 302.775273 361.164204 
L 302.978182 357.484354 
L 303.181091 354.504516 
L 303.451636 353.569014 
L 303.722182 352.773263 
L 303.992727 351.22154 
L 304.330909 347.845557 
L 304.601455 343.251559 
L 304.872 334.419862 
L 305.007273 324.854001 
L 305.074909 314.343839 
L 305.142545 278.121072 
L 305.210182 158.34413 
L 305.413091 350.884222 
L 305.616 380.580684 
L 305.818909 386.666099 
L 306.021818 387.719571 
L 306.157091 387.259932 
L 306.495273 384.46048 
L 307.306909 377.667369 
L 307.983273 374.029212 
L 309.877091 365.356757 
L 310.147636 362.89524 
L 310.418182 363.512131 
L 310.553455 363.357567 
L 310.959273 363.496356 
L 311.229818 363.063043 
L 311.635636 361.87399 
L 312.853091 356.919712 
L 313.394182 353.475246 
L 313.867636 348.99201 
L 314.205818 343.943373 
L 314.476364 337.014466 
L 314.679273 326.749881 
L 314.814545 307.709206 
L 314.949818 186.791858 
L 315.152727 351.379343 
L 315.355636 376.240445 
L 315.558545 381.637747 
L 315.693818 382.390585 
L 315.761455 382.312142 
L 315.896727 381.524484 
L 316.573091 375.732798 
L 319.549091 358.108398 
L 320.090182 352.836565 
L 320.293091 349.221383 
L 320.766545 335.001606 
L 320.969455 327.499131 
L 321.104727 317.081028 
L 321.172364 305.500827 
L 321.307636 197.278272 
L 321.510545 345.246139 
L 321.713455 369.527477 
L 321.916364 375.067353 
L 322.051636 375.556832 
L 322.186909 373.870596 
L 322.457455 371.425587 
L 322.930909 366.90876 
L 323.201455 362.913385 
L 323.472 357.478924 
L 324.96 344.103635 
L 325.230545 337.830752 
L 325.433455 328.269578 
L 325.568727 308.896755 
L 325.704 181.549902 
L 325.906909 354.013346 
L 326.109818 381.190501 
L 326.312727 387.103296 
L 326.515636 388.114082 
L 326.650909 387.658804 
L 326.989091 385.072527 
L 327.800727 378.802081 
L 328.477091 375.275621 
L 329.288727 372.602072 
L 331.182545 366.585788 
L 332.061818 362.966387 
L 333.414545 354.299776 
L 333.820364 349.705865 
L 334.226182 349.584347 
L 334.429091 348.781258 
L 334.699636 346.574427 
L 335.037818 341.401073 
L 335.308364 333.08493 
L 335.443636 324.460441 
L 335.578909 297.425351 
L 335.646545 176.775806 
L 335.714182 234.77704 
L 335.917091 356.507984 
L 336.12 376.369968 
L 336.322909 381.18225 
L 336.525818 382.086867 
L 336.661091 381.662287 
L 336.999273 379.098492 
L 338.081455 370.293979 
L 339.907636 357.61357 
L 340.245818 353.447219 
L 340.448727 350.065793 
L 340.922182 347.299037 
L 341.260364 340.903185 
L 341.598545 334.756849 
L 341.801455 325.769433 
L 341.936727 305.843313 
L 342.072 196.790407 
L 342.274909 352.517818 
L 342.477818 377.688759 
L 342.680727 383.518234 
L 342.883636 384.630707 
L 343.018909 384.250627 
L 343.357091 381.790707 
L 344.236364 375.305156 
L 344.980364 371.551426 
L 346.130182 367.47743 
L 347.077091 363.838733 
L 348.429818 356.201793 
L 348.700364 353.02395 
L 348.903273 350.137418 
L 348.970909 350.078109 
L 349.376727 350.691514 
L 349.512 350.347391 
L 349.647273 349.56074 
L 350.188364 342.777245 
L 350.458909 336.934124 
L 350.661818 328.311314 
L 350.797091 314.492909 
L 350.864727 293.6091 
L 350.932364 173.642716 
L 351 249.031724 
L 351.202909 356.962765 
L 351.405818 376.546999 
L 351.608727 381.296575 
L 351.744 382.034329 
L 351.811636 381.998427 
L 352.014545 380.951176 
L 352.690909 374.901975 
L 353.570182 368.145903 
L 354.855273 360.290152 
L 355.464 356.050368 
L 355.666909 353.584604 
L 355.937455 349.687029 
L 356.072727 349.59438 
L 356.275636 349.5623 
L 356.410909 349.223297 
L 356.613818 348.065452 
L 356.884364 345.154074 
L 357.154909 339.939713 
L 357.425455 329.555006 
L 357.560727 316.660542 
L 357.628364 298.840218 
L 357.696 184.292577 
L 357.763636 229.181879 
L 357.966545 354.640427 
L 358.169455 376.417223 
L 358.44 383.031773 
L 358.575273 383.543545 
L 358.710545 383.221213 
L 358.981091 381.373763 
L 360.063273 373.004918 
L 361.754182 363.516613 
L 362.295273 361.586021 
L 362.565818 359.895741 
L 362.836364 357.067009 
L 362.904 357.190842 
L 363.242182 358.177396 
L 363.445091 358.286014 
L 363.648 358.043845 
L 363.918545 357.319333 
L 364.324364 355.508667 
L 364.865455 351.92766 
L 365.338909 347.631684 
L 365.677091 342.387683 
L 365.947636 334.834124 
L 366.150545 322.117617 
L 366.218182 312.06834 
L 366.285818 282.507905 
L 366.353455 167.784403 
L 366.556364 345.88047 
L 366.759273 374.560154 
L 366.962182 380.886588 
L 367.165091 382.041929 
L 367.300364 381.565354 
L 367.638545 378.494608 
L 368.653091 366.855075 
L 368.856 365.397996 
L 369.126545 365.548826 
L 369.261818 365.406385 
L 369.532364 364.604123 
L 369.938182 362.522728 
L 370.276364 359.655324 
L 370.411636 357.094445 
L 370.614545 353.556613 
L 370.885091 352.279189 
L 371.223273 350.760629 
L 371.561455 347.956098 
L 371.899636 343.115153 
L 372.170182 336.5201 
L 372.373091 326.136464 
L 372.508364 304.960488 
L 372.643636 200.986612 
L 372.846545 352.176221 
L 373.049455 376.268248 
L 373.252364 382.142703 
L 373.455273 383.108453 
L 373.522909 383.087501 
L 373.658182 382.660691 
L 373.996364 380.319558 
L 375.078545 372.319532 
L 376.093091 368.007358 
L 376.701818 365.022938 
L 376.904727 363.30451 
L 377.04 361.7629 
L 377.107636 361.825769 
L 377.648727 363.785732 
L 377.784 363.788945 
L 377.986909 363.556179 
L 378.325091 362.744969 
L 379.069091 359.832109 
L 379.677818 356.683374 
L 380.421818 351.847412 
L 380.76 348.090085 
L 381.165818 340.57522 
L 381.436364 330.393453 
L 381.571636 318.262032 
L 381.639273 302.80803 
L 381.706909 208.428007 
L 381.774545 212.12816 
L 381.977455 354.600146 
L 382.180364 376.331646 
L 382.383273 380.91071 
L 382.450909 381.165048 
L 383.194909 376.518664 
L 383.600727 372.761346 
L 384.615273 366.184649 
L 385.629818 360.017349 
L 386.373818 353.064558 
L 386.644364 348.664094 
L 386.982545 335.900873 
L 387.185455 325.549158 
L 387.320727 308.732543 
L 387.388364 275.285147 
L 387.456 182.970285 
L 387.658909 347.401551 
L 387.861818 373.370992 
L 388.064727 379.201143 
L 388.2 380.087485 
L 388.267636 380.060904 
L 388.402909 379.389724 
L 388.673455 376.545027 
L 388.944 371.873616 
L 389.214545 366.60265 
L 389.485091 363.365168 
L 389.823273 363.247864 
L 390.026182 362.544119 
L 390.229091 360.962194 
L 390.634909 355.757828 
L 391.446545 353.254409 
L 391.852364 350.432337 
L 392.258182 346.146428 
L 392.664 339.001552 
L 392.934545 329.396445 
L 393.069818 317.876878 
L 393.137455 303.844292 
L 393.272727 204.898334 
L 393.475636 351.696688 
L 393.678545 374.856794 
L 393.881455 380.213105 
L 394.016727 380.978309 
L 394.084364 380.945107 
L 394.219636 380.372577 
L 394.557818 377.401474 
L 394.896 373.205742 
L 395.098909 370.829816 
L 395.504727 370.117695 
L 395.707636 368.969683 
L 395.978182 367.859687 
L 396.654545 365.751973 
L 398.277818 359.083167 
L 398.886545 355.520079 
L 399.698182 348.803341 
L 400.036364 343.791934 
L 400.306909 336.938738 
L 400.509818 326.382778 
L 400.645091 305.041316 
L 400.780364 201.213453 
L 400.983273 353.307621 
L 401.186182 375.07922 
L 401.456727 382.440226 
L 401.592 383.075059 
L 401.659636 382.979661 
L 401.862545 381.637722 
L 402.133091 377.896324 
L 402.336 374.303082 
L 403.08 367.114675 
L 403.282909 364.294513 
L 403.485818 364.041365 
L 403.824 363.955349 
L 404.094545 363.56445 
L 404.500364 362.508344 
L 405.582545 358.548168 
L 406.123636 355.613525 
L 406.664727 351.424185 
L 407.138182 346.390346 
L 407.476364 340.158989 
L 407.679273 333.229318 
L 407.814545 324.225057 
L 407.949818 293.710898 
L 408.017455 164.863111 
L 408.220364 342.304563 
L 408.423273 372.813834 
L 408.693818 382.445327 
L 408.896727 384.17391 
L 408.964364 384.220209 
L 409.099636 383.839795 
L 409.437818 381.576774 
L 410.317091 375.604012 
L 410.993455 372.670452 
L 413.766545 362.715518 
L 414.172364 361.279336 
L 414.916364 357.889787 
L 415.457455 354.256231 
L 415.930909 349.424023 
L 416.269091 343.789257 
L 416.539636 335.830506 
L 416.742545 322.350336 
L 416.810182 311.229542 
L 416.945455 170.477526 
L 417.148364 349.430787 
L 417.351273 377.2545 
L 417.554182 383.07082 
L 417.621818 383.178634 
L 417.892364 382.607436 
L 418.095273 380.767832 
L 420.124364 351.317488 
L 420.530182 341.569637 
L 420.800727 328.07555 
L 420.936 306.980679 
L 421.071273 195.980216 
L 421.274182 356.525753 
L 421.477091 378.493908 
L 421.68 382.346191 
L 421.747636 382.525779 
L 421.815273 382.393159 
L 422.018182 380.755484 
L 422.559273 373.055965 
L 424.114909 348.33657 
L 424.385455 338.774553 
L 424.588364 325.071918 
L 424.723636 297.085258 
L 424.791273 168.141602 
L 424.858909 242.736336 
L 425.061818 361.759038 
L 425.264727 379.829696 
L 425.467636 383.104701 
L 425.535273 383.206448 
L 425.670545 382.604145 
L 425.941091 379.601001 
L 427.090909 362.474553 
L 427.564364 356.029515 
L 428.037818 348.992051 
L 428.443636 339.452308 
L 428.646545 330.194668 
L 428.781818 315.893983 
L 428.849455 293.674808 
L 428.917091 161.588526 
L 429.12 344.380453 
L 429.322909 374.632619 
L 429.525818 380.24335 
L 429.593455 380.564234 
L 429.931636 378.541571 
L 430.269818 375.490969 
L 430.472727 373.11875 
L 430.675636 390.027434 
L 431.487273 417.114283 
L 432.434182 442.123529 
L 433.042909 452.90197 
L 433.584 458.590138 
L 434.057455 461.409001 
L 434.530909 462.997293 
L 435.004364 463.87545 
L 435.545455 464.406202 
L 436.221818 464.716969 
L 437.168727 464.878638 
L 439.197818 464.944117 
L 456.377455 464.938753 
L 498.109091 464.939165 
L 498.109091 464.939165 
" clip-path="url(#p6ccf9e3ff6)" style="fill: none; stroke: #000000; stroke-width: 1.5; stroke-linecap: square"/>
   </g>
   <g id="line2d_14">
    <path d="M 497.973818 408.87 
" clip-path="url(#p6ccf9e3ff6)" style="fill: none; stroke: #000000; stroke-width: 1.5; stroke-linecap: square"/>
   </g>
   <g id="line2d_15">
    <path d="M 430.472727 368.1 
L 430.472727 365.382 
L 430.472727 362.664 
L 430.472727 359.946 
L 430.472727 357.228 
L 430.472727 354.51 
L 430.472727 351.792 
L 430.472727 349.074 
L 430.472727 346.356 
L 430.472727 343.638 
L 430.472727 340.92 
L 430.472727 338.202 
L 430.472727 335.484 
L 430.472727 332.766 
L 430.472727 330.048 
L 430.472727 327.33 
L 430.472727 324.612 
L 430.472727 321.894 
L 430.472727 319.176 
L 430.472727 316.458 
" clip-path="url(#p6ccf9e3ff6)" style="fill: none; stroke: #000000; stroke-width: 1.5; stroke-linecap: square"/>
   </g>
   <g id="patch_3">
    <path d="M 72 504 
L 72 69.12 
" style="fill: none; stroke: #000000; stroke-width: 0.8; stroke-linejoin: miter; stroke-linecap: square"/>
   </g>
   <g id="patch_4">
    <path d="M 518.4 504 
L 518.4 69.12 
" style="fill: none; stroke: #000000; stroke-width: 0.8; stroke-linejoin: miter; stroke-linecap: square"/>
   </g>
   <g id="patch_5">
    <path d="M 72 504 
L 518.4 504 
" style="fill: none; stroke: #000000; stroke-width: 0.8; stroke-linejoin: miter; stroke-linecap: square"/>
   </g>
   <g id="patch_6">
    <path d="M 72 69.12 
L 518.4 69.12 
" style="fill: none; stroke: #000000; stroke-width: 0.8; stroke-linejoin: miter; stroke-linecap: square"/>
   </g>
   <g id="text_15">
    <!-- 500 ms -->
    <g transform="translate(497.973818 406.152)scale(0.22 -0.22)">
     <defs>
      <path id="ArialMT-35" d="M 266 1200 
L 856 1250 
Q 922 819 1161 601 
Q 1400 384 1738 384 
Q 2144 384 2425 690 
Q 2706 997 2706 1503 
Q 2706 1984 2436 2262 
Q 2166 2541 1728 2541 
Q 1456 2541 1237 2417 
Q 1019 2294 894 2097 
L 366 2166 
L 809 4519 
L 3088 4519 
L 3088 3981 
L 1259 3981 
L 1013 2750 
Q 1425 3038 1878 3038 
Q 2478 3038 2890 2622 
Q 3303 2206 3303 1553 
Q 3303 931 2941 478 
Q 2500 -78 1738 -78 
Q 1113 -78 717 272 
Q 322 622 266 1200 
z
" transform="scale(0.015625)"/>
      <path id="ArialMT-30" d="M 266 2259 
Q 266 3072 433 3567 
Q 600 4063 929 4331 
Q 1259 4600 1759 4600 
Q 2128 4600 2406 4451 
Q 2684 4303 2865 4023 
Q 3047 3744 3150 3342 
Q 3253 2941 3253 2259 
Q 3253 1453 3087 958 
Q 2922 463 2592 192 
Q 2263 -78 1759 -78 
Q 1097 -78 719 397 
Q 266 969 266 2259 
z
M 844 2259 
Q 844 1131 1108 757 
Q 1372 384 1759 384 
Q 2147 384 2411 759 
Q 2675 1134 2675 2259 
Q 2675 3391 2411 3762 
Q 2147 4134 1753 4134 
Q 1366 4134 1134 3806 
Q 844 3388 844 2259 
z
" transform="scale(0.015625)"/>
     </defs>
     <use xlink:href="#ArialMT-35"/>
     <use xlink:href="#ArialMT-30" x="55.615234"/>
     <use xlink:href="#ArialMT-30" x="111.230469"/>
     <use xlink:href="#ArialMT-20" x="166.845703"/>
     <use xlink:href="#ArialMT-6d" x="194.628906"/>
     <use xlink:href="#ArialMT-73" x="277.929688"/>
    </g>
   </g>
   <g id="text_16">
    <!-- 20 mV -->
    <g transform="translate(504.737455 321.894)scale(0.22 -0.22)">
     <defs>
      <path id="ArialMT-32" d="M 3222 541 
L 3222 0 
L 194 0 
Q 188 203 259 391 
Q 375 700 629 1000 
Q 884 1300 1366 1694 
Q 2113 2306 2375 2664 
Q 2638 3022 2638 3341 
Q 2638 3675 2398 3904 
Q 2159 4134 1775 4134 
Q 1369 4134 1125 3890 
Q 881 3647 878 3216 
L 300 3275 
Q 359 3922 746 4261 
Q 1134 4600 1788 4600 
Q 2447 4600 2831 4234 
Q 3216 3869 3216 3328 
Q 3216 3053 3103 2787 
Q 2991 2522 2730 2228 
Q 2469 1934 1863 1422 
Q 1356 997 1212 845 
Q 1069 694 975 541 
L 3222 541 
z
" transform="scale(0.015625)"/>
     </defs>
     <use xlink:href="#ArialMT-32"/>
     <use xlink:href="#ArialMT-30" x="55.615234"/>
     <use xlink:href="#ArialMT-20" x="111.230469"/>
     <use xlink:href="#ArialMT-6d" x="139.013672"/>
     <use xlink:href="#ArialMT-56" x="222.314453"/>
    </g>
   </g>
   <g id="text_17">
    <!--  Plotting FS, trace number 17674  -->
    <g transform="translate(130.732812 63.12)scale(0.22 -0.22)">
     <defs>
      <path id="ArialMT-50" d="M 494 0 
L 494 4581 
L 2222 4581 
Q 2678 4581 2919 4538 
Q 3256 4481 3484 4323 
Q 3713 4166 3852 3881 
Q 3991 3597 3991 3256 
Q 3991 2672 3619 2267 
Q 3247 1863 2275 1863 
L 1100 1863 
L 1100 0 
L 494 0 
z
M 1100 2403 
L 2284 2403 
Q 2872 2403 3119 2622 
Q 3366 2841 3366 3238 
Q 3366 3525 3220 3729 
Q 3075 3934 2838 4000 
Q 2684 4041 2272 4041 
L 1100 4041 
L 1100 2403 
z
" transform="scale(0.015625)"/>
      <path id="ArialMT-67" d="M 319 -275 
L 866 -356 
Q 900 -609 1056 -725 
Q 1266 -881 1628 -881 
Q 2019 -881 2231 -725 
Q 2444 -569 2519 -288 
Q 2563 -116 2559 434 
Q 2191 0 1641 0 
Q 956 0 581 494 
Q 206 988 206 1678 
Q 206 2153 378 2554 
Q 550 2956 876 3175 
Q 1203 3394 1644 3394 
Q 2231 3394 2613 2919 
L 2613 3319 
L 3131 3319 
L 3131 450 
Q 3131 -325 2973 -648 
Q 2816 -972 2473 -1159 
Q 2131 -1347 1631 -1347 
Q 1038 -1347 672 -1080 
Q 306 -813 319 -275 
z
M 784 1719 
Q 784 1066 1043 766 
Q 1303 466 1694 466 
Q 2081 466 2343 764 
Q 2606 1063 2606 1700 
Q 2606 2309 2336 2618 
Q 2066 2928 1684 2928 
Q 1309 2928 1046 2623 
Q 784 2319 784 1719 
z
" transform="scale(0.015625)"/>
      <path id="ArialMT-46" d="M 525 0 
L 525 4581 
L 3616 4581 
L 3616 4041 
L 1131 4041 
L 1131 2622 
L 3281 2622 
L 3281 2081 
L 1131 2081 
L 1131 0 
L 525 0 
z
" transform="scale(0.015625)"/>
      <path id="ArialMT-53" d="M 288 1472 
L 859 1522 
Q 900 1178 1048 958 
Q 1197 738 1509 602 
Q 1822 466 2213 466 
Q 2559 466 2825 569 
Q 3091 672 3220 851 
Q 3350 1031 3350 1244 
Q 3350 1459 3225 1620 
Q 3100 1781 2813 1891 
Q 2628 1963 1997 2114 
Q 1366 2266 1113 2400 
Q 784 2572 623 2826 
Q 463 3081 463 3397 
Q 463 3744 659 4045 
Q 856 4347 1234 4503 
Q 1613 4659 2075 4659 
Q 2584 4659 2973 4495 
Q 3363 4331 3572 4012 
Q 3781 3694 3797 3291 
L 3216 3247 
Q 3169 3681 2898 3903 
Q 2628 4125 2100 4125 
Q 1550 4125 1298 3923 
Q 1047 3722 1047 3438 
Q 1047 3191 1225 3031 
Q 1400 2872 2139 2705 
Q 2878 2538 3153 2413 
Q 3553 2228 3743 1945 
Q 3934 1663 3934 1294 
Q 3934 928 3725 604 
Q 3516 281 3123 101 
Q 2731 -78 2241 -78 
Q 1619 -78 1198 103 
Q 778 284 539 648 
Q 300 1013 288 1472 
z
" transform="scale(0.015625)"/>
      <path id="ArialMT-2c" d="M 569 0 
L 569 641 
L 1209 641 
L 1209 0 
Q 1209 -353 1084 -570 
Q 959 -788 688 -906 
L 531 -666 
Q 709 -588 793 -436 
Q 878 -284 888 0 
L 569 0 
z
" transform="scale(0.015625)"/>
      <path id="ArialMT-63" d="M 2588 1216 
L 3141 1144 
Q 3050 572 2676 248 
Q 2303 -75 1759 -75 
Q 1078 -75 664 370 
Q 250 816 250 1647 
Q 250 2184 428 2587 
Q 606 2991 970 3192 
Q 1334 3394 1763 3394 
Q 2303 3394 2647 3120 
Q 2991 2847 3088 2344 
L 2541 2259 
Q 2463 2594 2264 2762 
Q 2066 2931 1784 2931 
Q 1359 2931 1093 2626 
Q 828 2322 828 1663 
Q 828 994 1084 691 
Q 1341 388 1753 388 
Q 2084 388 2306 591 
Q 2528 794 2588 1216 
z
" transform="scale(0.015625)"/>
      <path id="ArialMT-75" d="M 2597 0 
L 2597 488 
Q 2209 -75 1544 -75 
Q 1250 -75 995 37 
Q 741 150 617 320 
Q 494 491 444 738 
Q 409 903 409 1263 
L 409 3319 
L 972 3319 
L 972 1478 
Q 972 1038 1006 884 
Q 1059 663 1231 536 
Q 1403 409 1656 409 
Q 1909 409 2131 539 
Q 2353 669 2445 892 
Q 2538 1116 2538 1541 
L 2538 3319 
L 3100 3319 
L 3100 0 
L 2597 0 
z
" transform="scale(0.015625)"/>
      <path id="ArialMT-31" d="M 2384 0 
L 1822 0 
L 1822 3584 
Q 1619 3391 1289 3197 
Q 959 3003 697 2906 
L 697 3450 
Q 1169 3672 1522 3987 
Q 1875 4303 2022 4600 
L 2384 4600 
L 2384 0 
z
" transform="scale(0.015625)"/>
      <path id="ArialMT-37" d="M 303 3981 
L 303 4522 
L 3269 4522 
L 3269 4084 
Q 2831 3619 2401 2847 
Q 1972 2075 1738 1259 
Q 1569 684 1522 0 
L 944 0 
Q 953 541 1156 1306 
Q 1359 2072 1739 2783 
Q 2119 3494 2547 3981 
L 303 3981 
z
" transform="scale(0.015625)"/>
      <path id="ArialMT-36" d="M 3184 3459 
L 2625 3416 
Q 2550 3747 2413 3897 
Q 2184 4138 1850 4138 
Q 1581 4138 1378 3988 
Q 1113 3794 959 3422 
Q 806 3050 800 2363 
Q 1003 2672 1297 2822 
Q 1591 2972 1913 2972 
Q 2475 2972 2870 2558 
Q 3266 2144 3266 1488 
Q 3266 1056 3080 686 
Q 2894 316 2569 119 
Q 2244 -78 1831 -78 
Q 1128 -78 684 439 
Q 241 956 241 2144 
Q 241 3472 731 4075 
Q 1159 4600 1884 4600 
Q 2425 4600 2770 4297 
Q 3116 3994 3184 3459 
z
M 888 1484 
Q 888 1194 1011 928 
Q 1134 663 1356 523 
Q 1578 384 1822 384 
Q 2178 384 2434 671 
Q 2691 959 2691 1453 
Q 2691 1928 2437 2201 
Q 2184 2475 1800 2475 
Q 1419 2475 1153 2201 
Q 888 1928 888 1484 
z
" transform="scale(0.015625)"/>
      <path id="ArialMT-34" d="M 2069 0 
L 2069 1097 
L 81 1097 
L 81 1613 
L 2172 4581 
L 2631 4581 
L 2631 1613 
L 3250 1613 
L 3250 1097 
L 2631 1097 
L 2631 0 
L 2069 0 
z
M 2069 1613 
L 2069 3678 
L 634 1613 
L 2069 1613 
z
" transform="scale(0.015625)"/>
     </defs>
     <use xlink:href="#ArialMT-20"/>
     <use xlink:href="#ArialMT-50" x="27.783203"/>
     <use xlink:href="#ArialMT-6c" x="94.482422"/>
     <use xlink:href="#ArialMT-6f" x="116.699219"/>
     <use xlink:href="#ArialMT-74" x="172.314453"/>
     <use xlink:href="#ArialMT-74" x="200.097656"/>
     <use xlink:href="#ArialMT-69" x="227.880859"/>
     <use xlink:href="#ArialMT-6e" x="250.097656"/>
     <use xlink:href="#ArialMT-67" x="305.712891"/>
     <use xlink:href="#ArialMT-20" x="361.328125"/>
     <use xlink:href="#ArialMT-46" x="389.111328"/>
     <use xlink:href="#ArialMT-53" x="450.195312"/>
     <use xlink:href="#ArialMT-2c" x="516.894531"/>
     <use xlink:href="#ArialMT-20" x="544.677734"/>
     <use xlink:href="#ArialMT-74" x="572.460938"/>
     <use xlink:href="#ArialMT-72" x="600.244141"/>
     <use xlink:href="#ArialMT-61" x="633.544922"/>
     <use xlink:href="#ArialMT-63" x="689.160156"/>
     <use xlink:href="#ArialMT-65" x="739.160156"/>
     <use xlink:href="#ArialMT-20" x="794.775391"/>
     <use xlink:href="#ArialMT-6e" x="822.558594"/>
     <use xlink:href="#ArialMT-75" x="878.173828"/>
     <use xlink:href="#ArialMT-6d" x="933.789062"/>
     <use xlink:href="#ArialMT-62" x="1017.089844"/>
     <use xlink:href="#ArialMT-65" x="1072.705078"/>
     <use xlink:href="#ArialMT-72" x="1128.320312"/>
     <use xlink:href="#ArialMT-20" x="1161.621094"/>
     <use xlink:href="#ArialMT-31" x="1189.404297"/>
     <use xlink:href="#ArialMT-37" x="1245.019531"/>
     <use xlink:href="#ArialMT-36" x="1300.634766"/>
     <use xlink:href="#ArialMT-37" x="1356.25"/>
     <use xlink:href="#ArialMT-34" x="1411.865234"/>
     <use xlink:href="#ArialMT-20" x="1467.480469"/>
    </g>
   </g>
  </g>
 </g>
 <defs>
  <clipPath id="p6ccf9e3ff6">
   <rect x="72" y="69.12" width="446.4" height="434.88"/>
  </clipPath>
 </defs>
</svg>
