<?xml version="1.0" encoding="utf-8" standalone="no"?>
<!DOCTYPE svg PUBLIC "-//W3C//DTD SVG 1.1//EN"
  "http://www.w3.org/Graphics/SVG/1.1/DTD/svg11.dtd">
<svg xmlns:xlink="http://www.w3.org/1999/xlink" width="576pt" height="576pt" viewBox="0 0 576 576" xmlns="http://www.w3.org/2000/svg" version="1.1">
 <metadata>
  <rdf:RDF xmlns:dc="http://purl.org/dc/elements/1.1/" xmlns:cc="http://creativecommons.org/ns#" xmlns:rdf="http://www.w3.org/1999/02/22-rdf-syntax-ns#">
   <cc:Work>
    <dc:type rdf:resource="http://purl.org/dc/dcmitype/StillImage"/>
    <dc:date>2022-10-30T19:57:03.114910</dc:date>
    <dc:format>image/svg+xml</dc:format>
    <dc:creator>
     <cc:Agent>
      <dc:title>Matplotlib v3.5.2, https://matplotlib.org/</dc:title>
     </cc:Agent>
    </dc:creator>
   </cc:Work>
  </rdf:RDF>
 </metadata>
 <defs>
  <style type="text/css">*{stroke-linejoin: round; stroke-linecap: butt}</style>
 </defs>
 <g id="figure_1">
  <g id="patch_1">
   <path d="M 0 576 
L 576 576 
L 576 0 
L 0 0 
L 0 576 
z
" style="fill: none"/>
  </g>
  <g id="axes_1">
   <g id="patch_2">
    <path d="M 72 504 
L 518.4 504 
L 518.4 69.12 
L 72 69.12 
z
" style="fill: #ffffff"/>
   </g>
   <g id="matplotlib.axis_1">
    <g id="xtick_1">
     <g id="line2d_1">
      <defs>
       <path id="m442cd0d4fc" d="M 0 0 
L 0 3.5 
" style="stroke: #000000; stroke-width: 0.8"/>
      </defs>
      <g>
       <use xlink:href="#m442cd0d4fc" x="92.290909" y="504" style="stroke: #000000; stroke-width: 0.8"/>
      </g>
     </g>
     <g id="text_1">
      <!-- 0 -->
      <g transform="translate(85.292159 527.716563)scale(0.22 -0.22)">
       <defs>
        <path id="DejaVuSans-30" d="M 2034 4250 
Q 1547 4250 1301 3770 
Q 1056 3291 1056 2328 
Q 1056 1369 1301 889 
Q 1547 409 2034 409 
Q 2525 409 2770 889 
Q 3016 1369 3016 2328 
Q 3016 3291 2770 3770 
Q 2525 4250 2034 4250 
z
M 2034 4750 
Q 2819 4750 3233 4129 
Q 3647 3509 3647 2328 
Q 3647 1150 3233 529 
Q 2819 -91 2034 -91 
Q 1250 -91 836 529 
Q 422 1150 422 2328 
Q 422 3509 836 4129 
Q 1250 4750 2034 4750 
z
" transform="scale(0.015625)"/>
       </defs>
       <use xlink:href="#DejaVuSans-30"/>
      </g>
     </g>
    </g>
    <g id="xtick_2">
     <g id="line2d_2">
      <g>
       <use xlink:href="#m442cd0d4fc" x="227.563636" y="504" style="stroke: #000000; stroke-width: 0.8"/>
      </g>
     </g>
     <g id="text_2">
      <!-- 1000 -->
      <g transform="translate(199.568636 527.716563)scale(0.22 -0.22)">
       <defs>
        <path id="DejaVuSans-31" d="M 794 531 
L 1825 531 
L 1825 4091 
L 703 3866 
L 703 4441 
L 1819 4666 
L 2450 4666 
L 2450 531 
L 3481 531 
L 3481 0 
L 794 0 
L 794 531 
z
" transform="scale(0.015625)"/>
       </defs>
       <use xlink:href="#DejaVuSans-31"/>
       <use xlink:href="#DejaVuSans-30" x="63.623047"/>
       <use xlink:href="#DejaVuSans-30" x="127.246094"/>
       <use xlink:href="#DejaVuSans-30" x="190.869141"/>
      </g>
     </g>
    </g>
    <g id="xtick_3">
     <g id="line2d_3">
      <g>
       <use xlink:href="#m442cd0d4fc" x="362.836364" y="504" style="stroke: #000000; stroke-width: 0.8"/>
      </g>
     </g>
     <g id="text_3">
      <!-- 2000 -->
      <g transform="translate(334.841364 527.716563)scale(0.22 -0.22)">
       <defs>
        <path id="DejaVuSans-32" d="M 1228 531 
L 3431 531 
L 3431 0 
L 469 0 
L 469 531 
Q 828 903 1448 1529 
Q 2069 2156 2228 2338 
Q 2531 2678 2651 2914 
Q 2772 3150 2772 3378 
Q 2772 3750 2511 3984 
Q 2250 4219 1831 4219 
Q 1534 4219 1204 4116 
Q 875 4013 500 3803 
L 500 4441 
Q 881 4594 1212 4672 
Q 1544 4750 1819 4750 
Q 2544 4750 2975 4387 
Q 3406 4025 3406 3419 
Q 3406 3131 3298 2873 
Q 3191 2616 2906 2266 
Q 2828 2175 2409 1742 
Q 1991 1309 1228 531 
z
" transform="scale(0.015625)"/>
       </defs>
       <use xlink:href="#DejaVuSans-32"/>
       <use xlink:href="#DejaVuSans-30" x="63.623047"/>
       <use xlink:href="#DejaVuSans-30" x="127.246094"/>
       <use xlink:href="#DejaVuSans-30" x="190.869141"/>
      </g>
     </g>
    </g>
    <g id="xtick_4">
     <g id="line2d_4">
      <g>
       <use xlink:href="#m442cd0d4fc" x="498.109091" y="504" style="stroke: #000000; stroke-width: 0.8"/>
      </g>
     </g>
     <g id="text_4">
      <!-- 3000 -->
      <g transform="translate(470.114091 527.716563)scale(0.22 -0.22)">
       <defs>
        <path id="DejaVuSans-33" d="M 2597 2516 
Q 3050 2419 3304 2112 
Q 3559 1806 3559 1356 
Q 3559 666 3084 287 
Q 2609 -91 1734 -91 
Q 1441 -91 1130 -33 
Q 819 25 488 141 
L 488 750 
Q 750 597 1062 519 
Q 1375 441 1716 441 
Q 2309 441 2620 675 
Q 2931 909 2931 1356 
Q 2931 1769 2642 2001 
Q 2353 2234 1838 2234 
L 1294 2234 
L 1294 2753 
L 1863 2753 
Q 2328 2753 2575 2939 
Q 2822 3125 2822 3475 
Q 2822 3834 2567 4026 
Q 2313 4219 1838 4219 
Q 1578 4219 1281 4162 
Q 984 4106 628 3988 
L 628 4550 
Q 988 4650 1302 4700 
Q 1616 4750 1894 4750 
Q 2613 4750 3031 4423 
Q 3450 4097 3450 3541 
Q 3450 3153 3228 2886 
Q 3006 2619 2597 2516 
z
" transform="scale(0.015625)"/>
       </defs>
       <use xlink:href="#DejaVuSans-33"/>
       <use xlink:href="#DejaVuSans-30" x="63.623047"/>
       <use xlink:href="#DejaVuSans-30" x="127.246094"/>
       <use xlink:href="#DejaVuSans-30" x="190.869141"/>
      </g>
     </g>
    </g>
    <g id="text_5">
     <!-- Time(ms) -->
     <g transform="translate(249.182187 552.307188)scale(0.22 -0.22)">
      <defs>
       <path id="ArialMT-54" d="M 1659 0 
L 1659 4041 
L 150 4041 
L 150 4581 
L 3781 4581 
L 3781 4041 
L 2266 4041 
L 2266 0 
L 1659 0 
z
" transform="scale(0.015625)"/>
       <path id="ArialMT-69" d="M 425 3934 
L 425 4581 
L 988 4581 
L 988 3934 
L 425 3934 
z
M 425 0 
L 425 3319 
L 988 3319 
L 988 0 
L 425 0 
z
" transform="scale(0.015625)"/>
       <path id="ArialMT-6d" d="M 422 0 
L 422 3319 
L 925 3319 
L 925 2853 
Q 1081 3097 1340 3245 
Q 1600 3394 1931 3394 
Q 2300 3394 2536 3241 
Q 2772 3088 2869 2813 
Q 3263 3394 3894 3394 
Q 4388 3394 4653 3120 
Q 4919 2847 4919 2278 
L 4919 0 
L 4359 0 
L 4359 2091 
Q 4359 2428 4304 2576 
Q 4250 2725 4106 2815 
Q 3963 2906 3769 2906 
Q 3419 2906 3187 2673 
Q 2956 2441 2956 1928 
L 2956 0 
L 2394 0 
L 2394 2156 
Q 2394 2531 2256 2718 
Q 2119 2906 1806 2906 
Q 1569 2906 1367 2781 
Q 1166 2656 1075 2415 
Q 984 2175 984 1722 
L 984 0 
L 422 0 
z
" transform="scale(0.015625)"/>
       <path id="ArialMT-65" d="M 2694 1069 
L 3275 997 
Q 3138 488 2766 206 
Q 2394 -75 1816 -75 
Q 1088 -75 661 373 
Q 234 822 234 1631 
Q 234 2469 665 2931 
Q 1097 3394 1784 3394 
Q 2450 3394 2872 2941 
Q 3294 2488 3294 1666 
Q 3294 1616 3291 1516 
L 816 1516 
Q 847 969 1125 678 
Q 1403 388 1819 388 
Q 2128 388 2347 550 
Q 2566 713 2694 1069 
z
M 847 1978 
L 2700 1978 
Q 2663 2397 2488 2606 
Q 2219 2931 1791 2931 
Q 1403 2931 1139 2672 
Q 875 2413 847 1978 
z
" transform="scale(0.015625)"/>
       <path id="ArialMT-28" d="M 1497 -1347 
Q 1031 -759 709 28 
Q 388 816 388 1659 
Q 388 2403 628 3084 
Q 909 3875 1497 4659 
L 1900 4659 
Q 1522 4009 1400 3731 
Q 1209 3300 1100 2831 
Q 966 2247 966 1656 
Q 966 153 1900 -1347 
L 1497 -1347 
z
" transform="scale(0.015625)"/>
       <path id="ArialMT-73" d="M 197 991 
L 753 1078 
Q 800 744 1014 566 
Q 1228 388 1613 388 
Q 2000 388 2187 545 
Q 2375 703 2375 916 
Q 2375 1106 2209 1216 
Q 2094 1291 1634 1406 
Q 1016 1563 777 1677 
Q 538 1791 414 1992 
Q 291 2194 291 2438 
Q 291 2659 392 2848 
Q 494 3038 669 3163 
Q 800 3259 1026 3326 
Q 1253 3394 1513 3394 
Q 1903 3394 2198 3281 
Q 2494 3169 2634 2976 
Q 2775 2784 2828 2463 
L 2278 2388 
Q 2241 2644 2061 2787 
Q 1881 2931 1553 2931 
Q 1166 2931 1000 2803 
Q 834 2675 834 2503 
Q 834 2394 903 2306 
Q 972 2216 1119 2156 
Q 1203 2125 1616 2013 
Q 2213 1853 2448 1751 
Q 2684 1650 2818 1456 
Q 2953 1263 2953 975 
Q 2953 694 2789 445 
Q 2625 197 2315 61 
Q 2006 -75 1616 -75 
Q 969 -75 630 194 
Q 291 463 197 991 
z
" transform="scale(0.015625)"/>
       <path id="ArialMT-29" d="M 791 -1347 
L 388 -1347 
Q 1322 153 1322 1656 
Q 1322 2244 1188 2822 
Q 1081 3291 891 3722 
Q 769 4003 388 4659 
L 791 4659 
Q 1378 3875 1659 3084 
Q 1900 2403 1900 1659 
Q 1900 816 1576 28 
Q 1253 -759 791 -1347 
z
" transform="scale(0.015625)"/>
      </defs>
      <use xlink:href="#ArialMT-54"/>
      <use xlink:href="#ArialMT-69" x="57.333984"/>
      <use xlink:href="#ArialMT-6d" x="79.550781"/>
      <use xlink:href="#ArialMT-65" x="162.851562"/>
      <use xlink:href="#ArialMT-28" x="218.466797"/>
      <use xlink:href="#ArialMT-6d" x="251.767578"/>
      <use xlink:href="#ArialMT-73" x="335.068359"/>
      <use xlink:href="#ArialMT-29" x="385.068359"/>
     </g>
    </g>
   </g>
   <g id="matplotlib.axis_2">
    <g id="ytick_1">
     <g id="line2d_5">
      <defs>
       <path id="mba69bd750f" d="M 0 0 
L -3.5 0 
" style="stroke: #000000; stroke-width: 0.8"/>
      </defs>
      <g>
       <use xlink:href="#mba69bd750f" x="72" y="476.82" style="stroke: #000000; stroke-width: 0.8"/>
      </g>
     </g>
     <g id="text_6">
      <!-- −100 -->
      <g transform="translate(4.572187 485.178281)scale(0.22 -0.22)">
       <defs>
        <path id="DejaVuSans-2212" d="M 678 2272 
L 4684 2272 
L 4684 1741 
L 678 1741 
L 678 2272 
z
" transform="scale(0.015625)"/>
       </defs>
       <use xlink:href="#DejaVuSans-2212"/>
       <use xlink:href="#DejaVuSans-31" x="83.789062"/>
       <use xlink:href="#DejaVuSans-30" x="147.412109"/>
       <use xlink:href="#DejaVuSans-30" x="211.035156"/>
      </g>
     </g>
    </g>
    <g id="ytick_2">
     <g id="line2d_6">
      <g>
       <use xlink:href="#mba69bd750f" x="72" y="422.46" style="stroke: #000000; stroke-width: 0.8"/>
      </g>
     </g>
     <g id="text_7">
      <!-- −80 -->
      <g transform="translate(18.569688 430.818281)scale(0.22 -0.22)">
       <defs>
        <path id="DejaVuSans-38" d="M 2034 2216 
Q 1584 2216 1326 1975 
Q 1069 1734 1069 1313 
Q 1069 891 1326 650 
Q 1584 409 2034 409 
Q 2484 409 2743 651 
Q 3003 894 3003 1313 
Q 3003 1734 2745 1975 
Q 2488 2216 2034 2216 
z
M 1403 2484 
Q 997 2584 770 2862 
Q 544 3141 544 3541 
Q 544 4100 942 4425 
Q 1341 4750 2034 4750 
Q 2731 4750 3128 4425 
Q 3525 4100 3525 3541 
Q 3525 3141 3298 2862 
Q 3072 2584 2669 2484 
Q 3125 2378 3379 2068 
Q 3634 1759 3634 1313 
Q 3634 634 3220 271 
Q 2806 -91 2034 -91 
Q 1263 -91 848 271 
Q 434 634 434 1313 
Q 434 1759 690 2068 
Q 947 2378 1403 2484 
z
M 1172 3481 
Q 1172 3119 1398 2916 
Q 1625 2713 2034 2713 
Q 2441 2713 2670 2916 
Q 2900 3119 2900 3481 
Q 2900 3844 2670 4047 
Q 2441 4250 2034 4250 
Q 1625 4250 1398 4047 
Q 1172 3844 1172 3481 
z
" transform="scale(0.015625)"/>
       </defs>
       <use xlink:href="#DejaVuSans-2212"/>
       <use xlink:href="#DejaVuSans-38" x="83.789062"/>
       <use xlink:href="#DejaVuSans-30" x="147.412109"/>
      </g>
     </g>
    </g>
    <g id="ytick_3">
     <g id="line2d_7">
      <g>
       <use xlink:href="#mba69bd750f" x="72" y="368.1" style="stroke: #000000; stroke-width: 0.8"/>
      </g>
     </g>
     <g id="text_8">
      <!-- −60 -->
      <g transform="translate(18.569688 376.458281)scale(0.22 -0.22)">
       <defs>
        <path id="DejaVuSans-36" d="M 2113 2584 
Q 1688 2584 1439 2293 
Q 1191 2003 1191 1497 
Q 1191 994 1439 701 
Q 1688 409 2113 409 
Q 2538 409 2786 701 
Q 3034 994 3034 1497 
Q 3034 2003 2786 2293 
Q 2538 2584 2113 2584 
z
M 3366 4563 
L 3366 3988 
Q 3128 4100 2886 4159 
Q 2644 4219 2406 4219 
Q 1781 4219 1451 3797 
Q 1122 3375 1075 2522 
Q 1259 2794 1537 2939 
Q 1816 3084 2150 3084 
Q 2853 3084 3261 2657 
Q 3669 2231 3669 1497 
Q 3669 778 3244 343 
Q 2819 -91 2113 -91 
Q 1303 -91 875 529 
Q 447 1150 447 2328 
Q 447 3434 972 4092 
Q 1497 4750 2381 4750 
Q 2619 4750 2861 4703 
Q 3103 4656 3366 4563 
z
" transform="scale(0.015625)"/>
       </defs>
       <use xlink:href="#DejaVuSans-2212"/>
       <use xlink:href="#DejaVuSans-36" x="83.789062"/>
       <use xlink:href="#DejaVuSans-30" x="147.412109"/>
      </g>
     </g>
    </g>
    <g id="ytick_4">
     <g id="line2d_8">
      <g>
       <use xlink:href="#mba69bd750f" x="72" y="313.74" style="stroke: #000000; stroke-width: 0.8"/>
      </g>
     </g>
     <g id="text_9">
      <!-- −40 -->
      <g transform="translate(18.569688 322.098281)scale(0.22 -0.22)">
       <defs>
        <path id="DejaVuSans-34" d="M 2419 4116 
L 825 1625 
L 2419 1625 
L 2419 4116 
z
M 2253 4666 
L 3047 4666 
L 3047 1625 
L 3713 1625 
L 3713 1100 
L 3047 1100 
L 3047 0 
L 2419 0 
L 2419 1100 
L 313 1100 
L 313 1709 
L 2253 4666 
z
" transform="scale(0.015625)"/>
       </defs>
       <use xlink:href="#DejaVuSans-2212"/>
       <use xlink:href="#DejaVuSans-34" x="83.789062"/>
       <use xlink:href="#DejaVuSans-30" x="147.412109"/>
      </g>
     </g>
    </g>
    <g id="ytick_5">
     <g id="line2d_9">
      <g>
       <use xlink:href="#mba69bd750f" x="72" y="259.38" style="stroke: #000000; stroke-width: 0.8"/>
      </g>
     </g>
     <g id="text_10">
      <!-- −20 -->
      <g transform="translate(18.569688 267.738281)scale(0.22 -0.22)">
       <use xlink:href="#DejaVuSans-2212"/>
       <use xlink:href="#DejaVuSans-32" x="83.789062"/>
       <use xlink:href="#DejaVuSans-30" x="147.412109"/>
      </g>
     </g>
    </g>
    <g id="ytick_6">
     <g id="line2d_10">
      <g>
       <use xlink:href="#mba69bd750f" x="72" y="205.02" style="stroke: #000000; stroke-width: 0.8"/>
      </g>
     </g>
     <g id="text_11">
      <!-- 0 -->
      <g transform="translate(51.0025 213.378281)scale(0.22 -0.22)">
       <use xlink:href="#DejaVuSans-30"/>
      </g>
     </g>
    </g>
    <g id="ytick_7">
     <g id="line2d_11">
      <g>
       <use xlink:href="#mba69bd750f" x="72" y="150.66" style="stroke: #000000; stroke-width: 0.8"/>
      </g>
     </g>
     <g id="text_12">
      <!-- 20 -->
      <g transform="translate(37.005 159.018281)scale(0.22 -0.22)">
       <use xlink:href="#DejaVuSans-32"/>
       <use xlink:href="#DejaVuSans-30" x="63.623047"/>
      </g>
     </g>
    </g>
    <g id="ytick_8">
     <g id="line2d_12">
      <g>
       <use xlink:href="#mba69bd750f" x="72" y="96.3" style="stroke: #000000; stroke-width: 0.8"/>
      </g>
     </g>
     <g id="text_13">
      <!-- 40 -->
      <g transform="translate(37.005 104.658281)scale(0.22 -0.22)">
       <use xlink:href="#DejaVuSans-34"/>
       <use xlink:href="#DejaVuSans-30" x="63.623047"/>
      </g>
     </g>
    </g>
    <g id="text_14">
     <!-- Membrane potential (mV) -->
     <g transform="translate(-4.058125 410.655469)rotate(-90)scale(0.22 -0.22)">
      <defs>
       <path id="ArialMT-4d" d="M 475 0 
L 475 4581 
L 1388 4581 
L 2472 1338 
Q 2622 884 2691 659 
Q 2769 909 2934 1394 
L 4031 4581 
L 4847 4581 
L 4847 0 
L 4263 0 
L 4263 3834 
L 2931 0 
L 2384 0 
L 1059 3900 
L 1059 0 
L 475 0 
z
" transform="scale(0.015625)"/>
       <path id="ArialMT-62" d="M 941 0 
L 419 0 
L 419 4581 
L 981 4581 
L 981 2947 
Q 1338 3394 1891 3394 
Q 2197 3394 2470 3270 
Q 2744 3147 2920 2923 
Q 3097 2700 3197 2384 
Q 3297 2069 3297 1709 
Q 3297 856 2875 390 
Q 2453 -75 1863 -75 
Q 1275 -75 941 416 
L 941 0 
z
M 934 1684 
Q 934 1088 1097 822 
Q 1363 388 1816 388 
Q 2184 388 2453 708 
Q 2722 1028 2722 1663 
Q 2722 2313 2464 2622 
Q 2206 2931 1841 2931 
Q 1472 2931 1203 2611 
Q 934 2291 934 1684 
z
" transform="scale(0.015625)"/>
       <path id="ArialMT-72" d="M 416 0 
L 416 3319 
L 922 3319 
L 922 2816 
Q 1116 3169 1280 3281 
Q 1444 3394 1641 3394 
Q 1925 3394 2219 3213 
L 2025 2691 
Q 1819 2813 1613 2813 
Q 1428 2813 1281 2702 
Q 1134 2591 1072 2394 
Q 978 2094 978 1738 
L 978 0 
L 416 0 
z
" transform="scale(0.015625)"/>
       <path id="ArialMT-61" d="M 2588 409 
Q 2275 144 1986 34 
Q 1697 -75 1366 -75 
Q 819 -75 525 192 
Q 231 459 231 875 
Q 231 1119 342 1320 
Q 453 1522 633 1644 
Q 813 1766 1038 1828 
Q 1203 1872 1538 1913 
Q 2219 1994 2541 2106 
Q 2544 2222 2544 2253 
Q 2544 2597 2384 2738 
Q 2169 2928 1744 2928 
Q 1347 2928 1158 2789 
Q 969 2650 878 2297 
L 328 2372 
Q 403 2725 575 2942 
Q 747 3159 1072 3276 
Q 1397 3394 1825 3394 
Q 2250 3394 2515 3294 
Q 2781 3194 2906 3042 
Q 3031 2891 3081 2659 
Q 3109 2516 3109 2141 
L 3109 1391 
Q 3109 606 3145 398 
Q 3181 191 3288 0 
L 2700 0 
Q 2613 175 2588 409 
z
M 2541 1666 
Q 2234 1541 1622 1453 
Q 1275 1403 1131 1340 
Q 988 1278 909 1158 
Q 831 1038 831 891 
Q 831 666 1001 516 
Q 1172 366 1500 366 
Q 1825 366 2078 508 
Q 2331 650 2450 897 
Q 2541 1088 2541 1459 
L 2541 1666 
z
" transform="scale(0.015625)"/>
       <path id="ArialMT-6e" d="M 422 0 
L 422 3319 
L 928 3319 
L 928 2847 
Q 1294 3394 1984 3394 
Q 2284 3394 2536 3286 
Q 2788 3178 2913 3003 
Q 3038 2828 3088 2588 
Q 3119 2431 3119 2041 
L 3119 0 
L 2556 0 
L 2556 2019 
Q 2556 2363 2490 2533 
Q 2425 2703 2258 2804 
Q 2091 2906 1866 2906 
Q 1506 2906 1245 2678 
Q 984 2450 984 1813 
L 984 0 
L 422 0 
z
" transform="scale(0.015625)"/>
       <path id="ArialMT-20" transform="scale(0.015625)"/>
       <path id="ArialMT-70" d="M 422 -1272 
L 422 3319 
L 934 3319 
L 934 2888 
Q 1116 3141 1344 3267 
Q 1572 3394 1897 3394 
Q 2322 3394 2647 3175 
Q 2972 2956 3137 2557 
Q 3303 2159 3303 1684 
Q 3303 1175 3120 767 
Q 2938 359 2589 142 
Q 2241 -75 1856 -75 
Q 1575 -75 1351 44 
Q 1128 163 984 344 
L 984 -1272 
L 422 -1272 
z
M 931 1641 
Q 931 1000 1190 694 
Q 1450 388 1819 388 
Q 2194 388 2461 705 
Q 2728 1022 2728 1688 
Q 2728 2322 2467 2637 
Q 2206 2953 1844 2953 
Q 1484 2953 1207 2617 
Q 931 2281 931 1641 
z
" transform="scale(0.015625)"/>
       <path id="ArialMT-6f" d="M 213 1659 
Q 213 2581 725 3025 
Q 1153 3394 1769 3394 
Q 2453 3394 2887 2945 
Q 3322 2497 3322 1706 
Q 3322 1066 3130 698 
Q 2938 331 2570 128 
Q 2203 -75 1769 -75 
Q 1072 -75 642 372 
Q 213 819 213 1659 
z
M 791 1659 
Q 791 1022 1069 705 
Q 1347 388 1769 388 
Q 2188 388 2466 706 
Q 2744 1025 2744 1678 
Q 2744 2294 2464 2611 
Q 2184 2928 1769 2928 
Q 1347 2928 1069 2612 
Q 791 2297 791 1659 
z
" transform="scale(0.015625)"/>
       <path id="ArialMT-74" d="M 1650 503 
L 1731 6 
Q 1494 -44 1306 -44 
Q 1000 -44 831 53 
Q 663 150 594 308 
Q 525 466 525 972 
L 525 2881 
L 113 2881 
L 113 3319 
L 525 3319 
L 525 4141 
L 1084 4478 
L 1084 3319 
L 1650 3319 
L 1650 2881 
L 1084 2881 
L 1084 941 
Q 1084 700 1114 631 
Q 1144 563 1211 522 
Q 1278 481 1403 481 
Q 1497 481 1650 503 
z
" transform="scale(0.015625)"/>
       <path id="ArialMT-6c" d="M 409 0 
L 409 4581 
L 972 4581 
L 972 0 
L 409 0 
z
" transform="scale(0.015625)"/>
       <path id="ArialMT-56" d="M 1803 0 
L 28 4581 
L 684 4581 
L 1875 1253 
Q 2019 853 2116 503 
Q 2222 878 2363 1253 
L 3600 4581 
L 4219 4581 
L 2425 0 
L 1803 0 
z
" transform="scale(0.015625)"/>
      </defs>
      <use xlink:href="#ArialMT-4d"/>
      <use xlink:href="#ArialMT-65" x="83.300781"/>
      <use xlink:href="#ArialMT-6d" x="138.916016"/>
      <use xlink:href="#ArialMT-62" x="222.216797"/>
      <use xlink:href="#ArialMT-72" x="277.832031"/>
      <use xlink:href="#ArialMT-61" x="311.132812"/>
      <use xlink:href="#ArialMT-6e" x="366.748047"/>
      <use xlink:href="#ArialMT-65" x="422.363281"/>
      <use xlink:href="#ArialMT-20" x="477.978516"/>
      <use xlink:href="#ArialMT-70" x="505.761719"/>
      <use xlink:href="#ArialMT-6f" x="561.376953"/>
      <use xlink:href="#ArialMT-74" x="616.992188"/>
      <use xlink:href="#ArialMT-65" x="644.775391"/>
      <use xlink:href="#ArialMT-6e" x="700.390625"/>
      <use xlink:href="#ArialMT-74" x="756.005859"/>
      <use xlink:href="#ArialMT-69" x="783.789062"/>
      <use xlink:href="#ArialMT-61" x="806.005859"/>
      <use xlink:href="#ArialMT-6c" x="861.621094"/>
      <use xlink:href="#ArialMT-20" x="883.837891"/>
      <use xlink:href="#ArialMT-28" x="911.621094"/>
      <use xlink:href="#ArialMT-6d" x="944.921875"/>
      <use xlink:href="#ArialMT-56" x="1028.222656"/>
      <use xlink:href="#ArialMT-29" x="1094.921875"/>
     </g>
    </g>
   </g>
   <g id="line2d_13">
    <path d="M 92.290909 438.768 
L 92.426182 454.340458 
L 92.629091 454.929409 
L 92.899636 454.646674 
L 93.576 453.907763 
L 94.184727 453.595978 
L 95.064 453.436127 
L 97.093091 453.376057 
L 115.896 453.367632 
L 159.927273 453.366764 
L 160.130182 424.385061 
L 160.536 412.867267 
L 161.144727 401.877229 
L 161.956364 391.5289 
L 163.038545 380.868949 
L 165 364.328515 
L 167.096727 347.517998 
L 167.637818 340.632574 
L 167.976 333.898323 
L 168.178909 326.637693 
L 168.314182 315.827941 
L 168.381818 300.7561 
L 168.449455 186.627659 
L 168.517091 228.798502 
L 168.72 359.587262 
L 168.855273 368.625675 
L 168.922909 368.413746 
L 170.072727 354.137736 
L 171.560727 342.200612 
L 171.966545 335.49404 
L 172.169455 329.436288 
L 172.304727 321.386365 
L 172.372364 312.727185 
L 172.44 284.26231 
L 172.507636 153.659239 
L 172.710545 348.428527 
L 172.913455 368.847859 
L 172.981091 368.741514 
L 173.386909 363.786767 
L 174.063273 356.857941 
L 174.807273 351.432389 
L 175.483636 347.633582 
L 176.092364 341.903996 
L 176.498182 336.249759 
L 176.768727 330.012671 
L 176.971636 319.681429 
L 177.039273 310.976036 
L 177.106909 282.423775 
L 177.174545 160.140008 
L 177.377455 345.839706 
L 177.580364 366.255907 
L 177.648 366.330268 
L 177.918545 363.334308 
L 178.662545 355.335671 
L 179.812364 345.703412 
L 180.826909 336.831552 
L 181.097455 331.646061 
L 181.300364 323.174454 
L 181.435636 304.004762 
L 181.570909 201.495277 
L 181.773818 353.740716 
L 181.976727 368.297523 
L 182.044364 368.116356 
L 182.382545 364.013488 
L 183.058909 356.63129 
L 184.952727 340.341382 
L 185.223273 337.463169 
L 185.493818 332.022229 
L 185.696727 324.09774 
L 185.832 313.428925 
L 185.899636 298.869343 
L 185.967273 202.520852 
L 186.034909 223.304138 
L 186.237818 351.254479 
L 186.440727 363.732619 
L 186.508364 363.551038 
L 186.778909 360.380664 
L 187.590545 350.946613 
L 189.146182 334.764189 
L 189.416727 327.16119 
L 189.552 318.56772 
L 189.619636 308.419063 
L 189.754909 172.672588 
L 189.957818 348.377329 
L 190.160727 366.505724 
L 190.228364 366.547068 
L 190.498909 363.703462 
L 191.378182 354.390826 
L 192.325091 346.971664 
L 192.798545 343.973764 
L 193.272 338.705876 
L 193.610182 332.93549 
L 193.880727 324.460326 
L 194.016 315.765147 
L 194.083636 305.848375 
L 194.218909 181.392213 
L 194.421818 344.0022 
L 194.624727 362.612155 
L 194.692364 362.883153 
L 194.827636 361.783522 
L 196.992 333.889939 
L 197.194909 327.079489 
L 197.330182 317.015246 
L 197.397818 303.709078 
L 197.533091 202.656956 
L 197.736 354.185578 
L 197.938909 368.232993 
L 198.006545 368.251433 
L 198.209455 366.607244 
L 199.359273 356.135552 
L 200.441455 346.807648 
L 201.117818 339.29614 
L 201.456 333.829826 
L 201.658909 327.840675 
L 201.794182 319.35264 
L 201.861818 309.59534 
L 201.929455 270.957961 
L 201.997091 168.379627 
L 202.2 349.245419 
L 202.402909 366.861077 
L 202.470545 366.691879 
L 202.944 360.98953 
L 203.620364 354.404688 
L 204.634909 346.509263 
L 205.108364 340.448398 
L 205.446545 333.216847 
L 205.649455 324.867865 
L 205.784727 310.236385 
L 205.852364 274.106126 
L 205.92 165.070214 
L 206.122909 350.281958 
L 206.325818 368.960824 
L 206.393455 368.790509 
L 206.799273 363.604543 
L 207.475636 356.348588 
L 208.084364 351.821901 
L 208.693091 350.117579 
L 209.166545 347.083338 
L 209.64 342.150275 
L 210.045818 336.287102 
L 210.316364 328.953013 
L 210.451636 320.950265 
L 210.519273 312.277857 
L 210.586909 283.610883 
L 210.654545 154.981555 
L 210.857455 347.749452 
L 211.060364 368.39553 
L 211.128 368.300767 
L 211.466182 363.986762 
L 212.210182 355.66629 
L 213.630545 341.378543 
L 214.036364 334.896013 
L 214.239273 329.076177 
L 214.374545 321.615471 
L 214.509818 295.549396 
L 214.577455 159.396143 
L 214.645091 244.621796 
L 214.848 357.633724 
L 215.050909 367.075442 
L 215.253818 365.132303 
L 215.930182 358.61236 
L 217.959273 339.661417 
L 218.297455 333.49364 
L 218.500364 327.029712 
L 218.635636 318.045728 
L 218.703273 307.186067 
L 218.838545 181.908359 
L 219.041455 350.639859 
L 219.244364 366.687545 
L 219.312 366.495945 
L 219.650182 362.240587 
L 220.326545 354.698427 
L 222.017455 337.921625 
L 222.288 332.39399 
L 222.490909 324.104875 
L 222.626182 307.447758 
L 222.761455 181.952372 
L 222.964364 351.956945 
L 223.167273 367.97995 
L 223.234909 367.764472 
L 223.640727 362.752047 
L 224.181818 357.381115 
L 225.534545 346.397193 
L 226.549091 335.313846 
L 226.819636 328.677951 
L 226.954909 321.600053 
L 227.090182 296.722431 
L 227.157818 162.766404 
L 227.225455 238.057768 
L 227.428364 356.75131 
L 227.631273 367.428051 
L 227.766545 366.216673 
L 228.916364 352.297002 
L 229.998545 340.232612 
L 230.336727 333.797304 
L 230.539636 326.273486 
L 230.674909 313.819 
L 230.742545 291.06137 
L 230.810182 150.865728 
L 231.013091 345.145292 
L 231.216 368.08109 
L 231.283636 368.200025 
L 231.554182 365.329633 
L 232.433455 356.364887 
L 233.853818 345.526631 
L 234.394909 338.41316 
L 234.665455 332.740814 
L 234.868364 324.346225 
L 235.003636 307.352354 
L 235.138909 184.509687 
L 235.341818 353.259625 
L 235.544727 368.269899 
L 235.68 367.158562 
L 236.559273 356.902227 
L 238.453091 338.562315 
L 238.791273 332.496613 
L 238.994182 325.204758 
L 239.129455 312.511731 
L 239.197091 288.420486 
L 239.264727 155.292895 
L 239.467636 344.456815 
L 239.670545 366.716787 
L 239.738182 366.865048 
L 239.941091 364.67891 
L 240.685091 356.16906 
L 241.970182 343.941276 
L 242.443636 336.661936 
L 242.714182 329.665429 
L 242.917091 316.843399 
L 242.984727 303.249794 
L 243.052364 203.201529 
L 243.12 207.529752 
L 243.322909 354.529261 
L 243.525818 367.127959 
L 243.661091 365.952425 
L 244.540364 355.640467 
L 245.149091 350.970785 
L 245.690182 346.314695 
L 246.366545 338.39288 
L 246.637091 333.227647 
L 246.84 325.609284 
L 246.975273 311.613991 
L 247.042909 279.134364 
L 247.110545 158.246413 
L 247.313455 348.411382 
L 247.516364 367.957912 
L 247.584 367.907514 
L 247.922182 363.956164 
L 248.598545 356.97631 
L 250.289455 341.085306 
L 250.627636 335.707968 
L 250.898182 327.400178 
L 251.033455 317.051725 
L 251.101091 302.56362 
L 251.168727 185.613171 
L 251.236364 212.903424 
L 251.439273 356.295433 
L 251.642182 368.164617 
L 251.845091 365.98631 
L 252.589091 357.215352 
L 253.400727 350.531739 
L 254.077091 345.164125 
L 254.550545 339.773592 
L 254.888727 333.637342 
L 255.091636 326.999826 
L 255.226909 317.37846 
L 255.294545 304.868815 
L 255.429818 197.575764 
L 255.632727 352.905411 
L 255.835636 366.546738 
L 255.970909 365.544627 
L 256.917818 355.142486 
L 258.676364 339.290553 
L 259.082182 331.573049 
L 259.285091 323.886406 
L 259.420364 309.156957 
L 259.488 271.599132 
L 259.555636 168.953657 
L 259.758545 347.656588 
L 259.961455 365.735954 
L 260.029091 365.640713 
L 260.367273 361.351779 
L 261.043636 353.599573 
L 261.72 348.00201 
L 262.599273 341.641186 
L 262.937455 337.207213 
L 263.208 330.134068 
L 263.343273 322.470679 
L 263.410909 314.475853 
L 263.478545 290.803023 
L 263.546182 146.657975 
L 263.749091 345.704818 
L 263.952 368.880388 
L 264.019636 368.932242 
L 264.357818 364.987165 
L 265.101818 357.308199 
L 267.536727 334.745363 
L 267.807273 327.147273 
L 267.942545 317.744052 
L 268.010182 305.640507 
L 268.145455 192.461406 
L 268.348364 352.318358 
L 268.551273 366.808082 
L 268.686545 365.78042 
L 269.836364 352.196283 
L 270.715636 342.727279 
L 271.256727 335.175601 
L 271.527273 327.71028 
L 271.662545 319.285414 
L 271.730182 309.868294 
L 271.797818 275.352167 
L 271.865455 165.235196 
L 272.068364 348.171563 
L 272.271273 367.480725 
L 272.338909 367.438725 
L 272.609455 364.114801 
L 273.285818 356.236679 
L 274.773818 340.73421 
L 275.112 335.132135 
L 275.382545 326.341296 
L 275.517818 314.583056 
L 275.585455 294.977349 
L 275.653091 154.094212 
L 275.856 342.939669 
L 276.058909 367.791919 
L 276.126545 367.942247 
L 276.397091 364.599179 
L 277.141091 355.710865 
L 278.899636 338.245378 
L 279.373091 329.137827 
L 279.576 322.538728 
L 279.711273 311.895816 
L 279.778909 296.259265 
L 279.846545 198.263475 
L 279.914182 233.487955 
L 280.117091 348.703962 
L 280.32 360.991854 
L 280.387636 360.918054 
L 280.590545 358.669465 
L 282.281455 333.233147 
L 282.484364 326.930297 
L 282.619636 317.547399 
L 282.687273 305.358479 
L 282.822545 192.151015 
L 283.025455 351.213265 
L 283.228364 366.626052 
L 283.296 366.541392 
L 283.566545 363.529707 
L 284.310545 355.339159 
L 285.933818 340.148193 
L 286.339636 332.076028 
L 286.610182 321.603628 
L 286.745455 303.618091 
L 286.880727 199.643663 
L 287.083636 350.104693 
L 287.286545 364.422117 
L 287.354182 364.209661 
L 287.692364 359.735593 
L 288.504 349.614731 
L 289.383273 339.325969 
L 289.789091 331.883149 
L 289.992 324.559759 
L 290.127273 312.026539 
L 290.194909 288.679591 
L 290.262545 157.452267 
L 290.465455 342.50384 
L 290.668364 365.286051 
L 290.736 365.564138 
L 290.938909 363.543492 
L 291.750545 354.187404 
L 293.238545 339.679787 
L 293.644364 330.823826 
L 293.847273 321.575383 
L 293.982545 298.194912 
L 294.050182 171.149098 
L 294.117818 231.351347 
L 294.320727 355.169483 
L 294.523636 365.96061 
L 294.658909 364.784415 
L 295.673455 352.894711 
L 296.755636 341.508768 
L 297.229091 333.910795 
L 297.499636 325.029825 
L 297.634909 313.084069 
L 297.702545 292.589539 
L 297.770182 158.282765 
L 297.973091 341.667168 
L 298.176 365.948749 
L 298.243636 366.290079 
L 298.378909 365.112117 
L 299.461091 352.562081 
L 300.746182 339.727866 
L 301.152 333.377867 
L 301.354909 326.961026 
L 301.490182 316.954441 
L 301.557818 303.164024 
L 301.625455 198.688353 
L 301.693091 207.195595 
L 301.896 354.023169 
L 302.098909 366.896646 
L 302.234182 365.829007 
L 303.316364 353.542337 
L 304.466182 341.376603 
L 305.007273 333.81719 
L 305.277818 326.543199 
L 305.413091 317.874834 
L 305.480727 307.453971 
L 305.616 178.06558 
L 305.818909 347.801902 
L 306.021818 364.659451 
L 306.089455 364.641908 
L 306.36 361.61999 
L 307.171636 352.233646 
L 308.389091 339.526212 
L 308.727273 333.173479 
L 308.930182 325.759078 
L 309.065455 313.70842 
L 309.133091 292.727319 
L 309.200727 153.789584 
L 309.403636 342.649014 
L 309.606545 366.719712 
L 309.674182 366.950335 
L 309.877091 364.830439 
L 310.756364 354.686425 
L 312.109091 342.135548 
L 312.582545 335.02965 
L 312.853091 327.537724 
L 312.988364 319.179331 
L 313.056 309.608993 
L 313.123636 272.985858 
L 313.191273 167.084991 
L 313.394182 347.737006 
L 313.597091 365.825757 
L 313.664727 365.734739 
L 313.935273 362.480811 
L 314.679273 353.991333 
L 315.896727 343.558831 
L 316.302545 337.165765 
L 316.573091 329.735942 
L 316.708364 322.516502 
L 316.843636 297.781818 
L 316.911273 158.484787 
L 316.978909 235.387349 
L 317.181818 357.782725 
L 317.317091 367.505307 
L 317.384727 367.741637 
L 317.587636 365.474032 
L 318.466909 354.733946 
L 319.278545 347.513715 
L 319.954909 341.963123 
L 320.360727 336.40738 
L 320.631273 329.891885 
L 320.834182 318.949776 
L 320.901818 309.501909 
L 320.969455 274.451126 
L 321.037091 166.787734 
L 321.24 347.417634 
L 321.442909 366.46788 
L 321.510545 366.514128 
L 321.713455 364.23137 
L 322.525091 354.486688 
L 323.810182 340.753597 
L 324.148364 334.559108 
L 324.351273 327.89638 
L 324.486545 318.747981 
L 324.554182 307.685817 
L 324.689455 181.285961 
L 324.892364 352.079237 
L 325.095273 367.731882 
L 325.230545 366.706032 
L 326.245091 354.383523 
L 327.462545 342.289613 
L 327.936 334.848519 
L 328.206545 327.204191 
L 328.341818 318.369381 
L 328.409455 307.78823 
L 328.544727 178.296138 
L 328.747636 350.142765 
L 328.950545 366.717043 
L 329.018182 366.530223 
L 329.356364 362.142421 
L 330.032727 354.51553 
L 331.520727 339.325374 
L 331.791273 333.680607 
L 331.994182 325.464998 
L 332.129455 309.461753 
L 332.264727 172.932099 
L 332.467636 352.446532 
L 332.670545 368.854227 
L 332.805818 367.800646 
L 333.752727 356.668038 
L 334.496727 351.261806 
L 335.173091 345.260472 
L 335.646545 339.797648 
L 335.984727 332.901327 
L 336.187636 324.010167 
L 336.322909 303.882062 
L 336.390545 193.295865 
L 336.458182 206.861814 
L 336.661091 356.377952 
L 336.864 368.560781 
L 337.066909 366.215366 
L 337.810909 357.11129 
L 338.757818 348.685274 
L 339.366545 343.131279 
L 339.84 336.949037 
L 340.245818 328.667206 
L 340.448727 318.449748 
L 340.516364 309.676797 
L 340.584 281.094543 
L 340.651636 165.343629 
L 340.854545 343.753218 
L 341.057455 363.823226 
L 341.125091 363.923351 
L 341.328 361.60404 
L 342.207273 350.422825 
L 343.018909 340.597134 
L 343.357091 333.529468 
L 343.56 324.978942 
L 343.695273 307.696521 
L 343.830545 183.166659 
L 344.033455 353.598451 
L 344.236364 368.960892 
L 344.371636 367.926641 
L 345.318545 356.95418 
L 345.994909 351.595786 
L 346.738909 346.401085 
L 347.28 339.798795 
L 347.618182 333.07411 
L 347.821091 325.100095 
L 347.956364 310.286235 
L 348.024 271.657955 
L 348.091636 165.793201 
L 348.294545 350.141562 
L 348.497455 368.056018 
L 348.565091 367.828749 
L 348.970909 362.265198 
L 349.782545 352.510119 
L 350.932364 340.025408 
L 351.270545 333.884365 
L 351.541091 324.485485 
L 351.676364 311.287699 
L 351.744 284.707269 
L 351.811636 159.192136 
L 352.014545 344.919342 
L 352.217455 365.547994 
L 352.285091 365.611717 
L 352.555636 362.404695 
L 353.367273 352.723044 
L 354.517091 340.424389 
L 354.922909 333.475193 
L 355.125818 327.318597 
L 355.261091 319.070972 
L 355.328727 309.934743 
L 355.396364 277.933806 
L 355.464 164.316437 
L 355.666909 346.274141 
L 355.869818 365.591032 
L 355.937455 365.598342 
L 356.208 362.353292 
L 357.019636 352.682423 
L 358.507636 337.147034 
L 358.778182 331.69135 
L 358.981091 323.596335 
L 359.116364 307.722304 
L 359.251636 177.480542 
L 359.454545 349.151795 
L 359.657455 365.814278 
L 359.725091 365.673159 
L 360.063273 361.519113 
L 360.874909 352.476151 
L 362.295273 338.459123 
L 362.565818 333.329301 
L 362.768727 326.399962 
L 362.904 316.285279 
L 362.971636 302.444936 
L 363.039273 200.292236 
L 363.106909 209.799046 
L 363.309818 353.513616 
L 363.512727 366.160391 
L 363.648 365.037134 
L 365.203636 346.241791 
L 366.082909 334.696773 
L 366.353455 327.788666 
L 366.488727 320.262462 
L 366.556364 312.310341 
L 366.624 289.278379 
L 366.691636 156.864486 
L 366.894545 342.412037 
L 367.097455 365.023057 
L 367.165091 365.271645 
L 367.368 363.194383 
L 368.179636 353.713086 
L 369.6 340.393661 
L 369.938182 333.171804 
L 370.141091 324.553855 
L 370.276364 307.275282 
L 370.411636 184.987709 
L 370.614545 353.375085 
L 370.817455 368.301352 
L 370.952727 367.148834 
L 371.899636 355.803217 
L 373.522909 341.205375 
L 373.861091 336.29021 
L 374.131636 328.428999 
L 374.266909 318.920484 
L 374.334545 306.718235 
L 374.469818 190.272364 
L 374.672727 354.360131 
L 374.875636 368.244054 
L 375.010909 367.031229 
L 375.890182 356.817086 
L 377.581091 339.788718 
L 377.919273 333.456344 
L 378.189818 323.234987 
L 378.325091 306.659081 
L 378.460364 184.808383 
L 378.663273 350.598214 
L 378.866182 365.98125 
L 378.933818 365.713611 
L 379.474909 358.650696 
L 380.286545 350.159191 
L 381.098182 341.369167 
L 381.504 333.941929 
L 381.706909 327.018948 
L 381.842182 317.163053 
L 381.909818 304.35676 
L 382.045091 200.299095 
L 382.248 353.648172 
L 382.450909 367.028843 
L 382.586182 365.787471 
L 383.465455 354.950679 
L 384.074182 349.79571 
L 384.615273 345.617974 
L 385.088727 340.188129 
L 385.426909 334.132022 
L 385.629818 327.537796 
L 385.765091 317.874872 
L 385.832727 305.244491 
L 385.968 196.604224 
L 386.170909 353.735776 
L 386.373818 367.440549 
L 386.509091 366.322988 
L 387.658909 352.543314 
L 388.538182 343.051008 
L 389.146909 334.040055 
L 389.417455 327.457328 
L 389.552727 320.908203 
L 389.688 300.716335 
L 389.755636 207.643018 
L 389.823273 215.550101 
L 390.026182 351.182605 
L 390.229091 364.140827 
L 390.296727 363.904788 
L 390.634909 359.488881 
L 391.581818 347.455971 
L 392.461091 336.928194 
L 392.731636 330.26992 
L 392.934545 317.424101 
L 393.002182 303.702744 
L 393.069818 197.094579 
L 393.137455 204.814199 
L 393.340364 354.541787 
L 393.543273 367.465564 
L 393.678545 366.277786 
L 394.490182 356.712244 
L 395.234182 351.050705 
L 396.519273 340.241084 
L 396.857455 334.509156 
L 397.060364 328.22236 
L 397.195636 319.260717 
L 397.263273 308.405934 
L 397.398545 177.47429 
L 397.601455 351.629314 
L 397.804364 367.633291 
L 397.872 367.375872 
L 398.277818 362.097374 
L 399.089455 352.786193 
L 400.374545 338.945871 
L 400.712727 331.691226 
L 400.915636 321.747858 
L 400.983273 313.900375 
L 401.050909 291.611696 
L 401.118545 151.16029 
L 401.321455 344.769669 
L 401.524364 367.820979 
L 401.592 367.882436 
L 401.862545 364.643441 
L 402.538909 356.975461 
L 404.297455 339.215777 
L 404.568 333.287535 
L 404.770909 323.939715 
L 404.906182 300.659985 
L 404.973818 159.797181 
L 405.041455 224.562408 
L 405.244364 358.56786 
L 405.379636 368.498769 
L 405.447273 368.634129 
L 405.717818 365.266252 
L 406.394182 357.521885 
L 408.085091 342.33604 
L 408.558545 335.565971 
L 408.829091 329.222913 
L 409.032 317.877369 
L 409.099636 307.218357 
L 409.234909 180.742097 
L 409.437818 349.235964 
L 409.640727 365.172923 
L 409.708364 364.966028 
L 410.046545 360.602827 
L 410.993455 349.087361 
L 412.278545 334.923871 
L 412.616727 327.331039 
L 412.752 320.748531 
L 412.887273 299.484206 
L 412.954909 194.124027 
L 413.022545 220.924783 
L 413.225455 350.832085 
L 413.428364 363.317038 
L 413.496 363.10027 
L 413.834182 358.801972 
L 415.592727 332.612586 
L 415.795636 324.511783 
L 415.930909 308.149224 
L 416.066182 177.794117 
L 416.269091 351.105802 
L 416.472 367.693306 
L 416.539636 367.540386 
L 416.877818 363.50129 
L 417.418909 357.824634 
L 418.568727 347.588918 
L 419.245091 339.318015 
L 419.583273 332.413246 
L 419.786182 324.03747 
L 419.921455 307.137774 
L 420.056727 184.658018 
L 420.259636 352.371729 
L 420.462545 367.446471 
L 420.597818 366.360645 
L 421.544727 354.833839 
L 423.100364 339.119577 
L 423.506182 331.895712 
L 423.709091 325.547428 
L 423.844364 316.140471 
L 423.912 304.013131 
L 424.047273 197.807384 
L 424.250182 349.784587 
L 424.453091 364.066808 
L 424.520727 363.84316 
L 424.858909 359.418484 
L 425.535273 351.503572 
L 426.549818 341.174892 
L 426.955636 334.836619 
L 427.226182 326.005081 
L 427.361455 313.674632 
L 427.429091 291.046962 
L 427.496727 151.00319 
L 427.699636 343.820304 
L 427.902545 367.290359 
L 427.970182 367.464641 
L 428.173091 365.29163 
L 429.12 354.362684 
L 430.472727 340.695274 
L 430.675636 390.918616 
L 431.013818 408.316832 
L 431.622545 425.745668 
L 432.231273 438.06911 
L 432.772364 444.711103 
L 433.245818 448.0403 
L 433.719273 449.998591 
L 434.260364 451.326013 
L 434.869091 452.21668 
L 435.545455 452.81831 
L 436.357091 453.249893 
L 437.439273 453.556739 
L 438.927273 453.724921 
L 441.362182 453.745359 
L 445.285091 453.537724 
L 449.343273 453.390957 
L 460.570909 453.348668 
L 498.109091 453.352744 
L 498.109091 453.352744 
" clip-path="url(#p7ffc8b4de7)" style="fill: none; stroke: #000000; stroke-width: 1.5; stroke-linecap: square"/>
   </g>
   <g id="line2d_14">
    <path d="M 497.973818 408.87 
" clip-path="url(#p7ffc8b4de7)" style="fill: none; stroke: #000000; stroke-width: 1.5; stroke-linecap: square"/>
   </g>
   <g id="line2d_15">
    <path d="M 430.472727 368.1 
L 430.472727 365.382 
L 430.472727 362.664 
L 430.472727 359.946 
L 430.472727 357.228 
L 430.472727 354.51 
L 430.472727 351.792 
L 430.472727 349.074 
L 430.472727 346.356 
L 430.472727 343.638 
L 430.472727 340.92 
L 430.472727 338.202 
L 430.472727 335.484 
L 430.472727 332.766 
L 430.472727 330.048 
L 430.472727 327.33 
L 430.472727 324.612 
L 430.472727 321.894 
L 430.472727 319.176 
L 430.472727 316.458 
" clip-path="url(#p7ffc8b4de7)" style="fill: none; stroke: #000000; stroke-width: 1.5; stroke-linecap: square"/>
   </g>
   <g id="patch_3">
    <path d="M 72 504 
L 72 69.12 
" style="fill: none; stroke: #000000; stroke-width: 0.8; stroke-linejoin: miter; stroke-linecap: square"/>
   </g>
   <g id="patch_4">
    <path d="M 518.4 504 
L 518.4 69.12 
" style="fill: none; stroke: #000000; stroke-width: 0.8; stroke-linejoin: miter; stroke-linecap: square"/>
   </g>
   <g id="patch_5">
    <path d="M 72 504 
L 518.4 504 
" style="fill: none; stroke: #000000; stroke-width: 0.8; stroke-linejoin: miter; stroke-linecap: square"/>
   </g>
   <g id="patch_6">
    <path d="M 72 69.12 
L 518.4 69.12 
" style="fill: none; stroke: #000000; stroke-width: 0.8; stroke-linejoin: miter; stroke-linecap: square"/>
   </g>
   <g id="text_15">
    <!-- 500 ms -->
    <g transform="translate(497.973818 406.152)scale(0.22 -0.22)">
     <defs>
      <path id="ArialMT-35" d="M 266 1200 
L 856 1250 
Q 922 819 1161 601 
Q 1400 384 1738 384 
Q 2144 384 2425 690 
Q 2706 997 2706 1503 
Q 2706 1984 2436 2262 
Q 2166 2541 1728 2541 
Q 1456 2541 1237 2417 
Q 1019 2294 894 2097 
L 366 2166 
L 809 4519 
L 3088 4519 
L 3088 3981 
L 1259 3981 
L 1013 2750 
Q 1425 3038 1878 3038 
Q 2478 3038 2890 2622 
Q 3303 2206 3303 1553 
Q 3303 931 2941 478 
Q 2500 -78 1738 -78 
Q 1113 -78 717 272 
Q 322 622 266 1200 
z
" transform="scale(0.015625)"/>
      <path id="ArialMT-30" d="M 266 2259 
Q 266 3072 433 3567 
Q 600 4063 929 4331 
Q 1259 4600 1759 4600 
Q 2128 4600 2406 4451 
Q 2684 4303 2865 4023 
Q 3047 3744 3150 3342 
Q 3253 2941 3253 2259 
Q 3253 1453 3087 958 
Q 2922 463 2592 192 
Q 2263 -78 1759 -78 
Q 1097 -78 719 397 
Q 266 969 266 2259 
z
M 844 2259 
Q 844 1131 1108 757 
Q 1372 384 1759 384 
Q 2147 384 2411 759 
Q 2675 1134 2675 2259 
Q 2675 3391 2411 3762 
Q 2147 4134 1753 4134 
Q 1366 4134 1134 3806 
Q 844 3388 844 2259 
z
" transform="scale(0.015625)"/>
     </defs>
     <use xlink:href="#ArialMT-35"/>
     <use xlink:href="#ArialMT-30" x="55.615234"/>
     <use xlink:href="#ArialMT-30" x="111.230469"/>
     <use xlink:href="#ArialMT-20" x="166.845703"/>
     <use xlink:href="#ArialMT-6d" x="194.628906"/>
     <use xlink:href="#ArialMT-73" x="277.929688"/>
    </g>
   </g>
   <g id="text_16">
    <!-- 20 mV -->
    <g transform="translate(504.737455 321.894)scale(0.22 -0.22)">
     <defs>
      <path id="ArialMT-32" d="M 3222 541 
L 3222 0 
L 194 0 
Q 188 203 259 391 
Q 375 700 629 1000 
Q 884 1300 1366 1694 
Q 2113 2306 2375 2664 
Q 2638 3022 2638 3341 
Q 2638 3675 2398 3904 
Q 2159 4134 1775 4134 
Q 1369 4134 1125 3890 
Q 881 3647 878 3216 
L 300 3275 
Q 359 3922 746 4261 
Q 1134 4600 1788 4600 
Q 2447 4600 2831 4234 
Q 3216 3869 3216 3328 
Q 3216 3053 3103 2787 
Q 2991 2522 2730 2228 
Q 2469 1934 1863 1422 
Q 1356 997 1212 845 
Q 1069 694 975 541 
L 3222 541 
z
" transform="scale(0.015625)"/>
     </defs>
     <use xlink:href="#ArialMT-32"/>
     <use xlink:href="#ArialMT-30" x="55.615234"/>
     <use xlink:href="#ArialMT-20" x="111.230469"/>
     <use xlink:href="#ArialMT-6d" x="139.013672"/>
     <use xlink:href="#ArialMT-56" x="222.314453"/>
    </g>
   </g>
   <g id="text_17">
    <!--  Plotting dSPN, trace number 15246  -->
    <g transform="translate(116.052969 63.12)scale(0.22 -0.22)">
     <defs>
      <path id="ArialMT-50" d="M 494 0 
L 494 4581 
L 2222 4581 
Q 2678 4581 2919 4538 
Q 3256 4481 3484 4323 
Q 3713 4166 3852 3881 
Q 3991 3597 3991 3256 
Q 3991 2672 3619 2267 
Q 3247 1863 2275 1863 
L 1100 1863 
L 1100 0 
L 494 0 
z
M 1100 2403 
L 2284 2403 
Q 2872 2403 3119 2622 
Q 3366 2841 3366 3238 
Q 3366 3525 3220 3729 
Q 3075 3934 2838 4000 
Q 2684 4041 2272 4041 
L 1100 4041 
L 1100 2403 
z
" transform="scale(0.015625)"/>
      <path id="ArialMT-67" d="M 319 -275 
L 866 -356 
Q 900 -609 1056 -725 
Q 1266 -881 1628 -881 
Q 2019 -881 2231 -725 
Q 2444 -569 2519 -288 
Q 2563 -116 2559 434 
Q 2191 0 1641 0 
Q 956 0 581 494 
Q 206 988 206 1678 
Q 206 2153 378 2554 
Q 550 2956 876 3175 
Q 1203 3394 1644 3394 
Q 2231 3394 2613 2919 
L 2613 3319 
L 3131 3319 
L 3131 450 
Q 3131 -325 2973 -648 
Q 2816 -972 2473 -1159 
Q 2131 -1347 1631 -1347 
Q 1038 -1347 672 -1080 
Q 306 -813 319 -275 
z
M 784 1719 
Q 784 1066 1043 766 
Q 1303 466 1694 466 
Q 2081 466 2343 764 
Q 2606 1063 2606 1700 
Q 2606 2309 2336 2618 
Q 2066 2928 1684 2928 
Q 1309 2928 1046 2623 
Q 784 2319 784 1719 
z
" transform="scale(0.015625)"/>
      <path id="ArialMT-64" d="M 2575 0 
L 2575 419 
Q 2259 -75 1647 -75 
Q 1250 -75 917 144 
Q 584 363 401 755 
Q 219 1147 219 1656 
Q 219 2153 384 2558 
Q 550 2963 881 3178 
Q 1213 3394 1622 3394 
Q 1922 3394 2156 3267 
Q 2391 3141 2538 2938 
L 2538 4581 
L 3097 4581 
L 3097 0 
L 2575 0 
z
M 797 1656 
Q 797 1019 1065 703 
Q 1334 388 1700 388 
Q 2069 388 2326 689 
Q 2584 991 2584 1609 
Q 2584 2291 2321 2609 
Q 2059 2928 1675 2928 
Q 1300 2928 1048 2622 
Q 797 2316 797 1656 
z
" transform="scale(0.015625)"/>
      <path id="ArialMT-53" d="M 288 1472 
L 859 1522 
Q 900 1178 1048 958 
Q 1197 738 1509 602 
Q 1822 466 2213 466 
Q 2559 466 2825 569 
Q 3091 672 3220 851 
Q 3350 1031 3350 1244 
Q 3350 1459 3225 1620 
Q 3100 1781 2813 1891 
Q 2628 1963 1997 2114 
Q 1366 2266 1113 2400 
Q 784 2572 623 2826 
Q 463 3081 463 3397 
Q 463 3744 659 4045 
Q 856 4347 1234 4503 
Q 1613 4659 2075 4659 
Q 2584 4659 2973 4495 
Q 3363 4331 3572 4012 
Q 3781 3694 3797 3291 
L 3216 3247 
Q 3169 3681 2898 3903 
Q 2628 4125 2100 4125 
Q 1550 4125 1298 3923 
Q 1047 3722 1047 3438 
Q 1047 3191 1225 3031 
Q 1400 2872 2139 2705 
Q 2878 2538 3153 2413 
Q 3553 2228 3743 1945 
Q 3934 1663 3934 1294 
Q 3934 928 3725 604 
Q 3516 281 3123 101 
Q 2731 -78 2241 -78 
Q 1619 -78 1198 103 
Q 778 284 539 648 
Q 300 1013 288 1472 
z
" transform="scale(0.015625)"/>
      <path id="ArialMT-4e" d="M 488 0 
L 488 4581 
L 1109 4581 
L 3516 984 
L 3516 4581 
L 4097 4581 
L 4097 0 
L 3475 0 
L 1069 3600 
L 1069 0 
L 488 0 
z
" transform="scale(0.015625)"/>
      <path id="ArialMT-2c" d="M 569 0 
L 569 641 
L 1209 641 
L 1209 0 
Q 1209 -353 1084 -570 
Q 959 -788 688 -906 
L 531 -666 
Q 709 -588 793 -436 
Q 878 -284 888 0 
L 569 0 
z
" transform="scale(0.015625)"/>
      <path id="ArialMT-63" d="M 2588 1216 
L 3141 1144 
Q 3050 572 2676 248 
Q 2303 -75 1759 -75 
Q 1078 -75 664 370 
Q 250 816 250 1647 
Q 250 2184 428 2587 
Q 606 2991 970 3192 
Q 1334 3394 1763 3394 
Q 2303 3394 2647 3120 
Q 2991 2847 3088 2344 
L 2541 2259 
Q 2463 2594 2264 2762 
Q 2066 2931 1784 2931 
Q 1359 2931 1093 2626 
Q 828 2322 828 1663 
Q 828 994 1084 691 
Q 1341 388 1753 388 
Q 2084 388 2306 591 
Q 2528 794 2588 1216 
z
" transform="scale(0.015625)"/>
      <path id="ArialMT-75" d="M 2597 0 
L 2597 488 
Q 2209 -75 1544 -75 
Q 1250 -75 995 37 
Q 741 150 617 320 
Q 494 491 444 738 
Q 409 903 409 1263 
L 409 3319 
L 972 3319 
L 972 1478 
Q 972 1038 1006 884 
Q 1059 663 1231 536 
Q 1403 409 1656 409 
Q 1909 409 2131 539 
Q 2353 669 2445 892 
Q 2538 1116 2538 1541 
L 2538 3319 
L 3100 3319 
L 3100 0 
L 2597 0 
z
" transform="scale(0.015625)"/>
      <path id="ArialMT-31" d="M 2384 0 
L 1822 0 
L 1822 3584 
Q 1619 3391 1289 3197 
Q 959 3003 697 2906 
L 697 3450 
Q 1169 3672 1522 3987 
Q 1875 4303 2022 4600 
L 2384 4600 
L 2384 0 
z
" transform="scale(0.015625)"/>
      <path id="ArialMT-34" d="M 2069 0 
L 2069 1097 
L 81 1097 
L 81 1613 
L 2172 4581 
L 2631 4581 
L 2631 1613 
L 3250 1613 
L 3250 1097 
L 2631 1097 
L 2631 0 
L 2069 0 
z
M 2069 1613 
L 2069 3678 
L 634 1613 
L 2069 1613 
z
" transform="scale(0.015625)"/>
      <path id="ArialMT-36" d="M 3184 3459 
L 2625 3416 
Q 2550 3747 2413 3897 
Q 2184 4138 1850 4138 
Q 1581 4138 1378 3988 
Q 1113 3794 959 3422 
Q 806 3050 800 2363 
Q 1003 2672 1297 2822 
Q 1591 2972 1913 2972 
Q 2475 2972 2870 2558 
Q 3266 2144 3266 1488 
Q 3266 1056 3080 686 
Q 2894 316 2569 119 
Q 2244 -78 1831 -78 
Q 1128 -78 684 439 
Q 241 956 241 2144 
Q 241 3472 731 4075 
Q 1159 4600 1884 4600 
Q 2425 4600 2770 4297 
Q 3116 3994 3184 3459 
z
M 888 1484 
Q 888 1194 1011 928 
Q 1134 663 1356 523 
Q 1578 384 1822 384 
Q 2178 384 2434 671 
Q 2691 959 2691 1453 
Q 2691 1928 2437 2201 
Q 2184 2475 1800 2475 
Q 1419 2475 1153 2201 
Q 888 1928 888 1484 
z
" transform="scale(0.015625)"/>
     </defs>
     <use xlink:href="#ArialMT-20"/>
     <use xlink:href="#ArialMT-50" x="27.783203"/>
     <use xlink:href="#ArialMT-6c" x="94.482422"/>
     <use xlink:href="#ArialMT-6f" x="116.699219"/>
     <use xlink:href="#ArialMT-74" x="172.314453"/>
     <use xlink:href="#ArialMT-74" x="200.097656"/>
     <use xlink:href="#ArialMT-69" x="227.880859"/>
     <use xlink:href="#ArialMT-6e" x="250.097656"/>
     <use xlink:href="#ArialMT-67" x="305.712891"/>
     <use xlink:href="#ArialMT-20" x="361.328125"/>
     <use xlink:href="#ArialMT-64" x="389.111328"/>
     <use xlink:href="#ArialMT-53" x="444.726562"/>
     <use xlink:href="#ArialMT-50" x="511.425781"/>
     <use xlink:href="#ArialMT-4e" x="578.125"/>
     <use xlink:href="#ArialMT-2c" x="650.341797"/>
     <use xlink:href="#ArialMT-20" x="678.125"/>
     <use xlink:href="#ArialMT-74" x="705.908203"/>
     <use xlink:href="#ArialMT-72" x="733.691406"/>
     <use xlink:href="#ArialMT-61" x="766.992188"/>
     <use xlink:href="#ArialMT-63" x="822.607422"/>
     <use xlink:href="#ArialMT-65" x="872.607422"/>
     <use xlink:href="#ArialMT-20" x="928.222656"/>
     <use xlink:href="#ArialMT-6e" x="956.005859"/>
     <use xlink:href="#ArialMT-75" x="1011.621094"/>
     <use xlink:href="#ArialMT-6d" x="1067.236328"/>
     <use xlink:href="#ArialMT-62" x="1150.537109"/>
     <use xlink:href="#ArialMT-65" x="1206.152344"/>
     <use xlink:href="#ArialMT-72" x="1261.767578"/>
     <use xlink:href="#ArialMT-20" x="1295.068359"/>
     <use xlink:href="#ArialMT-31" x="1322.851562"/>
     <use xlink:href="#ArialMT-35" x="1378.466797"/>
     <use xlink:href="#ArialMT-32" x="1434.082031"/>
     <use xlink:href="#ArialMT-34" x="1489.697266"/>
     <use xlink:href="#ArialMT-36" x="1545.3125"/>
     <use xlink:href="#ArialMT-20" x="1600.927734"/>
    </g>
   </g>
  </g>
 </g>
 <defs>
  <clipPath id="p7ffc8b4de7">
   <rect x="72" y="69.12" width="446.4" height="434.88"/>
  </clipPath>
 </defs>
</svg>
