<?xml version="1.0" encoding="utf-8" standalone="no"?>
<!DOCTYPE svg PUBLIC "-//W3C//DTD SVG 1.1//EN"
  "http://www.w3.org/Graphics/SVG/1.1/DTD/svg11.dtd">
<svg xmlns:xlink="http://www.w3.org/1999/xlink" width="576pt" height="576pt" viewBox="0 0 576 576" xmlns="http://www.w3.org/2000/svg" version="1.1">
 <metadata>
  <rdf:RDF xmlns:dc="http://purl.org/dc/elements/1.1/" xmlns:cc="http://creativecommons.org/ns#" xmlns:rdf="http://www.w3.org/1999/02/22-rdf-syntax-ns#">
   <cc:Work>
    <dc:type rdf:resource="http://purl.org/dc/dcmitype/StillImage"/>
    <dc:date>2022-10-30T19:57:02.910910</dc:date>
    <dc:format>image/svg+xml</dc:format>
    <dc:creator>
     <cc:Agent>
      <dc:title>Matplotlib v3.5.2, https://matplotlib.org/</dc:title>
     </cc:Agent>
    </dc:creator>
   </cc:Work>
  </rdf:RDF>
 </metadata>
 <defs>
  <style type="text/css">*{stroke-linejoin: round; stroke-linecap: butt}</style>
 </defs>
 <g id="figure_1">
  <g id="patch_1">
   <path d="M 0 576 
L 576 576 
L 576 0 
L 0 0 
L 0 576 
z
" style="fill: none"/>
  </g>
  <g id="axes_1">
   <g id="patch_2">
    <path d="M 72 504 
L 518.4 504 
L 518.4 69.12 
L 72 69.12 
z
" style="fill: #ffffff"/>
   </g>
   <g id="matplotlib.axis_1">
    <g id="xtick_1">
     <g id="line2d_1">
      <defs>
       <path id="m295e80e58c" d="M 0 0 
L 0 3.5 
" style="stroke: #000000; stroke-width: 0.8"/>
      </defs>
      <g>
       <use xlink:href="#m295e80e58c" x="92.290909" y="504" style="stroke: #000000; stroke-width: 0.8"/>
      </g>
     </g>
     <g id="text_1">
      <!-- 0 -->
      <g transform="translate(85.292159 527.716563)scale(0.22 -0.22)">
       <defs>
        <path id="DejaVuSans-30" d="M 2034 4250 
Q 1547 4250 1301 3770 
Q 1056 3291 1056 2328 
Q 1056 1369 1301 889 
Q 1547 409 2034 409 
Q 2525 409 2770 889 
Q 3016 1369 3016 2328 
Q 3016 3291 2770 3770 
Q 2525 4250 2034 4250 
z
M 2034 4750 
Q 2819 4750 3233 4129 
Q 3647 3509 3647 2328 
Q 3647 1150 3233 529 
Q 2819 -91 2034 -91 
Q 1250 -91 836 529 
Q 422 1150 422 2328 
Q 422 3509 836 4129 
Q 1250 4750 2034 4750 
z
" transform="scale(0.015625)"/>
       </defs>
       <use xlink:href="#DejaVuSans-30"/>
      </g>
     </g>
    </g>
    <g id="xtick_2">
     <g id="line2d_2">
      <g>
       <use xlink:href="#m295e80e58c" x="227.563636" y="504" style="stroke: #000000; stroke-width: 0.8"/>
      </g>
     </g>
     <g id="text_2">
      <!-- 1000 -->
      <g transform="translate(199.568636 527.716563)scale(0.22 -0.22)">
       <defs>
        <path id="DejaVuSans-31" d="M 794 531 
L 1825 531 
L 1825 4091 
L 703 3866 
L 703 4441 
L 1819 4666 
L 2450 4666 
L 2450 531 
L 3481 531 
L 3481 0 
L 794 0 
L 794 531 
z
" transform="scale(0.015625)"/>
       </defs>
       <use xlink:href="#DejaVuSans-31"/>
       <use xlink:href="#DejaVuSans-30" x="63.623047"/>
       <use xlink:href="#DejaVuSans-30" x="127.246094"/>
       <use xlink:href="#DejaVuSans-30" x="190.869141"/>
      </g>
     </g>
    </g>
    <g id="xtick_3">
     <g id="line2d_3">
      <g>
       <use xlink:href="#m295e80e58c" x="362.836364" y="504" style="stroke: #000000; stroke-width: 0.8"/>
      </g>
     </g>
     <g id="text_3">
      <!-- 2000 -->
      <g transform="translate(334.841364 527.716563)scale(0.22 -0.22)">
       <defs>
        <path id="DejaVuSans-32" d="M 1228 531 
L 3431 531 
L 3431 0 
L 469 0 
L 469 531 
Q 828 903 1448 1529 
Q 2069 2156 2228 2338 
Q 2531 2678 2651 2914 
Q 2772 3150 2772 3378 
Q 2772 3750 2511 3984 
Q 2250 4219 1831 4219 
Q 1534 4219 1204 4116 
Q 875 4013 500 3803 
L 500 4441 
Q 881 4594 1212 4672 
Q 1544 4750 1819 4750 
Q 2544 4750 2975 4387 
Q 3406 4025 3406 3419 
Q 3406 3131 3298 2873 
Q 3191 2616 2906 2266 
Q 2828 2175 2409 1742 
Q 1991 1309 1228 531 
z
" transform="scale(0.015625)"/>
       </defs>
       <use xlink:href="#DejaVuSans-32"/>
       <use xlink:href="#DejaVuSans-30" x="63.623047"/>
       <use xlink:href="#DejaVuSans-30" x="127.246094"/>
       <use xlink:href="#DejaVuSans-30" x="190.869141"/>
      </g>
     </g>
    </g>
    <g id="xtick_4">
     <g id="line2d_4">
      <g>
       <use xlink:href="#m295e80e58c" x="498.109091" y="504" style="stroke: #000000; stroke-width: 0.8"/>
      </g>
     </g>
     <g id="text_4">
      <!-- 3000 -->
      <g transform="translate(470.114091 527.716563)scale(0.22 -0.22)">
       <defs>
        <path id="DejaVuSans-33" d="M 2597 2516 
Q 3050 2419 3304 2112 
Q 3559 1806 3559 1356 
Q 3559 666 3084 287 
Q 2609 -91 1734 -91 
Q 1441 -91 1130 -33 
Q 819 25 488 141 
L 488 750 
Q 750 597 1062 519 
Q 1375 441 1716 441 
Q 2309 441 2620 675 
Q 2931 909 2931 1356 
Q 2931 1769 2642 2001 
Q 2353 2234 1838 2234 
L 1294 2234 
L 1294 2753 
L 1863 2753 
Q 2328 2753 2575 2939 
Q 2822 3125 2822 3475 
Q 2822 3834 2567 4026 
Q 2313 4219 1838 4219 
Q 1578 4219 1281 4162 
Q 984 4106 628 3988 
L 628 4550 
Q 988 4650 1302 4700 
Q 1616 4750 1894 4750 
Q 2613 4750 3031 4423 
Q 3450 4097 3450 3541 
Q 3450 3153 3228 2886 
Q 3006 2619 2597 2516 
z
" transform="scale(0.015625)"/>
       </defs>
       <use xlink:href="#DejaVuSans-33"/>
       <use xlink:href="#DejaVuSans-30" x="63.623047"/>
       <use xlink:href="#DejaVuSans-30" x="127.246094"/>
       <use xlink:href="#DejaVuSans-30" x="190.869141"/>
      </g>
     </g>
    </g>
    <g id="text_5">
     <!-- Time(ms) -->
     <g transform="translate(249.182187 552.307188)scale(0.22 -0.22)">
      <defs>
       <path id="ArialMT-54" d="M 1659 0 
L 1659 4041 
L 150 4041 
L 150 4581 
L 3781 4581 
L 3781 4041 
L 2266 4041 
L 2266 0 
L 1659 0 
z
" transform="scale(0.015625)"/>
       <path id="ArialMT-69" d="M 425 3934 
L 425 4581 
L 988 4581 
L 988 3934 
L 425 3934 
z
M 425 0 
L 425 3319 
L 988 3319 
L 988 0 
L 425 0 
z
" transform="scale(0.015625)"/>
       <path id="ArialMT-6d" d="M 422 0 
L 422 3319 
L 925 3319 
L 925 2853 
Q 1081 3097 1340 3245 
Q 1600 3394 1931 3394 
Q 2300 3394 2536 3241 
Q 2772 3088 2869 2813 
Q 3263 3394 3894 3394 
Q 4388 3394 4653 3120 
Q 4919 2847 4919 2278 
L 4919 0 
L 4359 0 
L 4359 2091 
Q 4359 2428 4304 2576 
Q 4250 2725 4106 2815 
Q 3963 2906 3769 2906 
Q 3419 2906 3187 2673 
Q 2956 2441 2956 1928 
L 2956 0 
L 2394 0 
L 2394 2156 
Q 2394 2531 2256 2718 
Q 2119 2906 1806 2906 
Q 1569 2906 1367 2781 
Q 1166 2656 1075 2415 
Q 984 2175 984 1722 
L 984 0 
L 422 0 
z
" transform="scale(0.015625)"/>
       <path id="ArialMT-65" d="M 2694 1069 
L 3275 997 
Q 3138 488 2766 206 
Q 2394 -75 1816 -75 
Q 1088 -75 661 373 
Q 234 822 234 1631 
Q 234 2469 665 2931 
Q 1097 3394 1784 3394 
Q 2450 3394 2872 2941 
Q 3294 2488 3294 1666 
Q 3294 1616 3291 1516 
L 816 1516 
Q 847 969 1125 678 
Q 1403 388 1819 388 
Q 2128 388 2347 550 
Q 2566 713 2694 1069 
z
M 847 1978 
L 2700 1978 
Q 2663 2397 2488 2606 
Q 2219 2931 1791 2931 
Q 1403 2931 1139 2672 
Q 875 2413 847 1978 
z
" transform="scale(0.015625)"/>
       <path id="ArialMT-28" d="M 1497 -1347 
Q 1031 -759 709 28 
Q 388 816 388 1659 
Q 388 2403 628 3084 
Q 909 3875 1497 4659 
L 1900 4659 
Q 1522 4009 1400 3731 
Q 1209 3300 1100 2831 
Q 966 2247 966 1656 
Q 966 153 1900 -1347 
L 1497 -1347 
z
" transform="scale(0.015625)"/>
       <path id="ArialMT-73" d="M 197 991 
L 753 1078 
Q 800 744 1014 566 
Q 1228 388 1613 388 
Q 2000 388 2187 545 
Q 2375 703 2375 916 
Q 2375 1106 2209 1216 
Q 2094 1291 1634 1406 
Q 1016 1563 777 1677 
Q 538 1791 414 1992 
Q 291 2194 291 2438 
Q 291 2659 392 2848 
Q 494 3038 669 3163 
Q 800 3259 1026 3326 
Q 1253 3394 1513 3394 
Q 1903 3394 2198 3281 
Q 2494 3169 2634 2976 
Q 2775 2784 2828 2463 
L 2278 2388 
Q 2241 2644 2061 2787 
Q 1881 2931 1553 2931 
Q 1166 2931 1000 2803 
Q 834 2675 834 2503 
Q 834 2394 903 2306 
Q 972 2216 1119 2156 
Q 1203 2125 1616 2013 
Q 2213 1853 2448 1751 
Q 2684 1650 2818 1456 
Q 2953 1263 2953 975 
Q 2953 694 2789 445 
Q 2625 197 2315 61 
Q 2006 -75 1616 -75 
Q 969 -75 630 194 
Q 291 463 197 991 
z
" transform="scale(0.015625)"/>
       <path id="ArialMT-29" d="M 791 -1347 
L 388 -1347 
Q 1322 153 1322 1656 
Q 1322 2244 1188 2822 
Q 1081 3291 891 3722 
Q 769 4003 388 4659 
L 791 4659 
Q 1378 3875 1659 3084 
Q 1900 2403 1900 1659 
Q 1900 816 1576 28 
Q 1253 -759 791 -1347 
z
" transform="scale(0.015625)"/>
      </defs>
      <use xlink:href="#ArialMT-54"/>
      <use xlink:href="#ArialMT-69" x="57.333984"/>
      <use xlink:href="#ArialMT-6d" x="79.550781"/>
      <use xlink:href="#ArialMT-65" x="162.851562"/>
      <use xlink:href="#ArialMT-28" x="218.466797"/>
      <use xlink:href="#ArialMT-6d" x="251.767578"/>
      <use xlink:href="#ArialMT-73" x="335.068359"/>
      <use xlink:href="#ArialMT-29" x="385.068359"/>
     </g>
    </g>
   </g>
   <g id="matplotlib.axis_2">
    <g id="ytick_1">
     <g id="line2d_5">
      <defs>
       <path id="me9262ee6ed" d="M 0 0 
L -3.5 0 
" style="stroke: #000000; stroke-width: 0.8"/>
      </defs>
      <g>
       <use xlink:href="#me9262ee6ed" x="72" y="476.82" style="stroke: #000000; stroke-width: 0.8"/>
      </g>
     </g>
     <g id="text_6">
      <!-- −100 -->
      <g transform="translate(4.572187 485.178281)scale(0.22 -0.22)">
       <defs>
        <path id="DejaVuSans-2212" d="M 678 2272 
L 4684 2272 
L 4684 1741 
L 678 1741 
L 678 2272 
z
" transform="scale(0.015625)"/>
       </defs>
       <use xlink:href="#DejaVuSans-2212"/>
       <use xlink:href="#DejaVuSans-31" x="83.789062"/>
       <use xlink:href="#DejaVuSans-30" x="147.412109"/>
       <use xlink:href="#DejaVuSans-30" x="211.035156"/>
      </g>
     </g>
    </g>
    <g id="ytick_2">
     <g id="line2d_6">
      <g>
       <use xlink:href="#me9262ee6ed" x="72" y="422.46" style="stroke: #000000; stroke-width: 0.8"/>
      </g>
     </g>
     <g id="text_7">
      <!-- −80 -->
      <g transform="translate(18.569688 430.818281)scale(0.22 -0.22)">
       <defs>
        <path id="DejaVuSans-38" d="M 2034 2216 
Q 1584 2216 1326 1975 
Q 1069 1734 1069 1313 
Q 1069 891 1326 650 
Q 1584 409 2034 409 
Q 2484 409 2743 651 
Q 3003 894 3003 1313 
Q 3003 1734 2745 1975 
Q 2488 2216 2034 2216 
z
M 1403 2484 
Q 997 2584 770 2862 
Q 544 3141 544 3541 
Q 544 4100 942 4425 
Q 1341 4750 2034 4750 
Q 2731 4750 3128 4425 
Q 3525 4100 3525 3541 
Q 3525 3141 3298 2862 
Q 3072 2584 2669 2484 
Q 3125 2378 3379 2068 
Q 3634 1759 3634 1313 
Q 3634 634 3220 271 
Q 2806 -91 2034 -91 
Q 1263 -91 848 271 
Q 434 634 434 1313 
Q 434 1759 690 2068 
Q 947 2378 1403 2484 
z
M 1172 3481 
Q 1172 3119 1398 2916 
Q 1625 2713 2034 2713 
Q 2441 2713 2670 2916 
Q 2900 3119 2900 3481 
Q 2900 3844 2670 4047 
Q 2441 4250 2034 4250 
Q 1625 4250 1398 4047 
Q 1172 3844 1172 3481 
z
" transform="scale(0.015625)"/>
       </defs>
       <use xlink:href="#DejaVuSans-2212"/>
       <use xlink:href="#DejaVuSans-38" x="83.789062"/>
       <use xlink:href="#DejaVuSans-30" x="147.412109"/>
      </g>
     </g>
    </g>
    <g id="ytick_3">
     <g id="line2d_7">
      <g>
       <use xlink:href="#me9262ee6ed" x="72" y="368.1" style="stroke: #000000; stroke-width: 0.8"/>
      </g>
     </g>
     <g id="text_8">
      <!-- −60 -->
      <g transform="translate(18.569688 376.458281)scale(0.22 -0.22)">
       <defs>
        <path id="DejaVuSans-36" d="M 2113 2584 
Q 1688 2584 1439 2293 
Q 1191 2003 1191 1497 
Q 1191 994 1439 701 
Q 1688 409 2113 409 
Q 2538 409 2786 701 
Q 3034 994 3034 1497 
Q 3034 2003 2786 2293 
Q 2538 2584 2113 2584 
z
M 3366 4563 
L 3366 3988 
Q 3128 4100 2886 4159 
Q 2644 4219 2406 4219 
Q 1781 4219 1451 3797 
Q 1122 3375 1075 2522 
Q 1259 2794 1537 2939 
Q 1816 3084 2150 3084 
Q 2853 3084 3261 2657 
Q 3669 2231 3669 1497 
Q 3669 778 3244 343 
Q 2819 -91 2113 -91 
Q 1303 -91 875 529 
Q 447 1150 447 2328 
Q 447 3434 972 4092 
Q 1497 4750 2381 4750 
Q 2619 4750 2861 4703 
Q 3103 4656 3366 4563 
z
" transform="scale(0.015625)"/>
       </defs>
       <use xlink:href="#DejaVuSans-2212"/>
       <use xlink:href="#DejaVuSans-36" x="83.789062"/>
       <use xlink:href="#DejaVuSans-30" x="147.412109"/>
      </g>
     </g>
    </g>
    <g id="ytick_4">
     <g id="line2d_8">
      <g>
       <use xlink:href="#me9262ee6ed" x="72" y="313.74" style="stroke: #000000; stroke-width: 0.8"/>
      </g>
     </g>
     <g id="text_9">
      <!-- −40 -->
      <g transform="translate(18.569688 322.098281)scale(0.22 -0.22)">
       <defs>
        <path id="DejaVuSans-34" d="M 2419 4116 
L 825 1625 
L 2419 1625 
L 2419 4116 
z
M 2253 4666 
L 3047 4666 
L 3047 1625 
L 3713 1625 
L 3713 1100 
L 3047 1100 
L 3047 0 
L 2419 0 
L 2419 1100 
L 313 1100 
L 313 1709 
L 2253 4666 
z
" transform="scale(0.015625)"/>
       </defs>
       <use xlink:href="#DejaVuSans-2212"/>
       <use xlink:href="#DejaVuSans-34" x="83.789062"/>
       <use xlink:href="#DejaVuSans-30" x="147.412109"/>
      </g>
     </g>
    </g>
    <g id="ytick_5">
     <g id="line2d_9">
      <g>
       <use xlink:href="#me9262ee6ed" x="72" y="259.38" style="stroke: #000000; stroke-width: 0.8"/>
      </g>
     </g>
     <g id="text_10">
      <!-- −20 -->
      <g transform="translate(18.569688 267.738281)scale(0.22 -0.22)">
       <use xlink:href="#DejaVuSans-2212"/>
       <use xlink:href="#DejaVuSans-32" x="83.789062"/>
       <use xlink:href="#DejaVuSans-30" x="147.412109"/>
      </g>
     </g>
    </g>
    <g id="ytick_6">
     <g id="line2d_10">
      <g>
       <use xlink:href="#me9262ee6ed" x="72" y="205.02" style="stroke: #000000; stroke-width: 0.8"/>
      </g>
     </g>
     <g id="text_11">
      <!-- 0 -->
      <g transform="translate(51.0025 213.378281)scale(0.22 -0.22)">
       <use xlink:href="#DejaVuSans-30"/>
      </g>
     </g>
    </g>
    <g id="ytick_7">
     <g id="line2d_11">
      <g>
       <use xlink:href="#me9262ee6ed" x="72" y="150.66" style="stroke: #000000; stroke-width: 0.8"/>
      </g>
     </g>
     <g id="text_12">
      <!-- 20 -->
      <g transform="translate(37.005 159.018281)scale(0.22 -0.22)">
       <use xlink:href="#DejaVuSans-32"/>
       <use xlink:href="#DejaVuSans-30" x="63.623047"/>
      </g>
     </g>
    </g>
    <g id="ytick_8">
     <g id="line2d_12">
      <g>
       <use xlink:href="#me9262ee6ed" x="72" y="96.3" style="stroke: #000000; stroke-width: 0.8"/>
      </g>
     </g>
     <g id="text_13">
      <!-- 40 -->
      <g transform="translate(37.005 104.658281)scale(0.22 -0.22)">
       <use xlink:href="#DejaVuSans-34"/>
       <use xlink:href="#DejaVuSans-30" x="63.623047"/>
      </g>
     </g>
    </g>
    <g id="text_14">
     <!-- Membrane potential (mV) -->
     <g transform="translate(-4.058125 410.655469)rotate(-90)scale(0.22 -0.22)">
      <defs>
       <path id="ArialMT-4d" d="M 475 0 
L 475 4581 
L 1388 4581 
L 2472 1338 
Q 2622 884 2691 659 
Q 2769 909 2934 1394 
L 4031 4581 
L 4847 4581 
L 4847 0 
L 4263 0 
L 4263 3834 
L 2931 0 
L 2384 0 
L 1059 3900 
L 1059 0 
L 475 0 
z
" transform="scale(0.015625)"/>
       <path id="ArialMT-62" d="M 941 0 
L 419 0 
L 419 4581 
L 981 4581 
L 981 2947 
Q 1338 3394 1891 3394 
Q 2197 3394 2470 3270 
Q 2744 3147 2920 2923 
Q 3097 2700 3197 2384 
Q 3297 2069 3297 1709 
Q 3297 856 2875 390 
Q 2453 -75 1863 -75 
Q 1275 -75 941 416 
L 941 0 
z
M 934 1684 
Q 934 1088 1097 822 
Q 1363 388 1816 388 
Q 2184 388 2453 708 
Q 2722 1028 2722 1663 
Q 2722 2313 2464 2622 
Q 2206 2931 1841 2931 
Q 1472 2931 1203 2611 
Q 934 2291 934 1684 
z
" transform="scale(0.015625)"/>
       <path id="ArialMT-72" d="M 416 0 
L 416 3319 
L 922 3319 
L 922 2816 
Q 1116 3169 1280 3281 
Q 1444 3394 1641 3394 
Q 1925 3394 2219 3213 
L 2025 2691 
Q 1819 2813 1613 2813 
Q 1428 2813 1281 2702 
Q 1134 2591 1072 2394 
Q 978 2094 978 1738 
L 978 0 
L 416 0 
z
" transform="scale(0.015625)"/>
       <path id="ArialMT-61" d="M 2588 409 
Q 2275 144 1986 34 
Q 1697 -75 1366 -75 
Q 819 -75 525 192 
Q 231 459 231 875 
Q 231 1119 342 1320 
Q 453 1522 633 1644 
Q 813 1766 1038 1828 
Q 1203 1872 1538 1913 
Q 2219 1994 2541 2106 
Q 2544 2222 2544 2253 
Q 2544 2597 2384 2738 
Q 2169 2928 1744 2928 
Q 1347 2928 1158 2789 
Q 969 2650 878 2297 
L 328 2372 
Q 403 2725 575 2942 
Q 747 3159 1072 3276 
Q 1397 3394 1825 3394 
Q 2250 3394 2515 3294 
Q 2781 3194 2906 3042 
Q 3031 2891 3081 2659 
Q 3109 2516 3109 2141 
L 3109 1391 
Q 3109 606 3145 398 
Q 3181 191 3288 0 
L 2700 0 
Q 2613 175 2588 409 
z
M 2541 1666 
Q 2234 1541 1622 1453 
Q 1275 1403 1131 1340 
Q 988 1278 909 1158 
Q 831 1038 831 891 
Q 831 666 1001 516 
Q 1172 366 1500 366 
Q 1825 366 2078 508 
Q 2331 650 2450 897 
Q 2541 1088 2541 1459 
L 2541 1666 
z
" transform="scale(0.015625)"/>
       <path id="ArialMT-6e" d="M 422 0 
L 422 3319 
L 928 3319 
L 928 2847 
Q 1294 3394 1984 3394 
Q 2284 3394 2536 3286 
Q 2788 3178 2913 3003 
Q 3038 2828 3088 2588 
Q 3119 2431 3119 2041 
L 3119 0 
L 2556 0 
L 2556 2019 
Q 2556 2363 2490 2533 
Q 2425 2703 2258 2804 
Q 2091 2906 1866 2906 
Q 1506 2906 1245 2678 
Q 984 2450 984 1813 
L 984 0 
L 422 0 
z
" transform="scale(0.015625)"/>
       <path id="ArialMT-20" transform="scale(0.015625)"/>
       <path id="ArialMT-70" d="M 422 -1272 
L 422 3319 
L 934 3319 
L 934 2888 
Q 1116 3141 1344 3267 
Q 1572 3394 1897 3394 
Q 2322 3394 2647 3175 
Q 2972 2956 3137 2557 
Q 3303 2159 3303 1684 
Q 3303 1175 3120 767 
Q 2938 359 2589 142 
Q 2241 -75 1856 -75 
Q 1575 -75 1351 44 
Q 1128 163 984 344 
L 984 -1272 
L 422 -1272 
z
M 931 1641 
Q 931 1000 1190 694 
Q 1450 388 1819 388 
Q 2194 388 2461 705 
Q 2728 1022 2728 1688 
Q 2728 2322 2467 2637 
Q 2206 2953 1844 2953 
Q 1484 2953 1207 2617 
Q 931 2281 931 1641 
z
" transform="scale(0.015625)"/>
       <path id="ArialMT-6f" d="M 213 1659 
Q 213 2581 725 3025 
Q 1153 3394 1769 3394 
Q 2453 3394 2887 2945 
Q 3322 2497 3322 1706 
Q 3322 1066 3130 698 
Q 2938 331 2570 128 
Q 2203 -75 1769 -75 
Q 1072 -75 642 372 
Q 213 819 213 1659 
z
M 791 1659 
Q 791 1022 1069 705 
Q 1347 388 1769 388 
Q 2188 388 2466 706 
Q 2744 1025 2744 1678 
Q 2744 2294 2464 2611 
Q 2184 2928 1769 2928 
Q 1347 2928 1069 2612 
Q 791 2297 791 1659 
z
" transform="scale(0.015625)"/>
       <path id="ArialMT-74" d="M 1650 503 
L 1731 6 
Q 1494 -44 1306 -44 
Q 1000 -44 831 53 
Q 663 150 594 308 
Q 525 466 525 972 
L 525 2881 
L 113 2881 
L 113 3319 
L 525 3319 
L 525 4141 
L 1084 4478 
L 1084 3319 
L 1650 3319 
L 1650 2881 
L 1084 2881 
L 1084 941 
Q 1084 700 1114 631 
Q 1144 563 1211 522 
Q 1278 481 1403 481 
Q 1497 481 1650 503 
z
" transform="scale(0.015625)"/>
       <path id="ArialMT-6c" d="M 409 0 
L 409 4581 
L 972 4581 
L 972 0 
L 409 0 
z
" transform="scale(0.015625)"/>
       <path id="ArialMT-56" d="M 1803 0 
L 28 4581 
L 684 4581 
L 1875 1253 
Q 2019 853 2116 503 
Q 2222 878 2363 1253 
L 3600 4581 
L 4219 4581 
L 2425 0 
L 1803 0 
z
" transform="scale(0.015625)"/>
      </defs>
      <use xlink:href="#ArialMT-4d"/>
      <use xlink:href="#ArialMT-65" x="83.300781"/>
      <use xlink:href="#ArialMT-6d" x="138.916016"/>
      <use xlink:href="#ArialMT-62" x="222.216797"/>
      <use xlink:href="#ArialMT-72" x="277.832031"/>
      <use xlink:href="#ArialMT-61" x="311.132812"/>
      <use xlink:href="#ArialMT-6e" x="366.748047"/>
      <use xlink:href="#ArialMT-65" x="422.363281"/>
      <use xlink:href="#ArialMT-20" x="477.978516"/>
      <use xlink:href="#ArialMT-70" x="505.761719"/>
      <use xlink:href="#ArialMT-6f" x="561.376953"/>
      <use xlink:href="#ArialMT-74" x="616.992188"/>
      <use xlink:href="#ArialMT-65" x="644.775391"/>
      <use xlink:href="#ArialMT-6e" x="700.390625"/>
      <use xlink:href="#ArialMT-74" x="756.005859"/>
      <use xlink:href="#ArialMT-69" x="783.789062"/>
      <use xlink:href="#ArialMT-61" x="806.005859"/>
      <use xlink:href="#ArialMT-6c" x="861.621094"/>
      <use xlink:href="#ArialMT-20" x="883.837891"/>
      <use xlink:href="#ArialMT-28" x="911.621094"/>
      <use xlink:href="#ArialMT-6d" x="944.921875"/>
      <use xlink:href="#ArialMT-56" x="1028.222656"/>
      <use xlink:href="#ArialMT-29" x="1094.921875"/>
     </g>
    </g>
   </g>
   <g id="line2d_13">
    <path d="M 92.290909 441.486 
L 92.561455 450.081183 
L 92.967273 456.442845 
L 93.440727 460.428573 
L 93.846545 462.223778 
L 94.252364 463.192271 
L 94.725818 463.763151 
L 95.266909 464.056138 
L 96.078545 464.210746 
L 97.972364 464.267065 
L 121.374545 464.271454 
L 159.927273 464.271671 
L 160.130182 433.30779 
L 160.536 412.863033 
L 161.009455 399.673118 
L 161.618182 388.745878 
L 162.497455 377.267198 
L 164.256 355.446995 
L 164.729455 346.054516 
L 165 336.448016 
L 165.135273 326.624351 
L 165.202909 316.46888 
L 165.270545 284.630498 
L 165.338182 132.035097 
L 165.541091 347.545789 
L 165.744 385.829244 
L 165.879273 388.8186 
L 166.014545 387.605986 
L 167.570182 363.218148 
L 169.125818 344.771756 
L 169.464 336.942955 
L 169.666909 326.991603 
L 169.802182 305.583792 
L 169.937455 167.110424 
L 170.140364 342.107908 
L 170.343273 377.545168 
L 170.546182 384.214163 
L 170.613818 384.292493 
L 170.749091 383.196066 
L 171.154909 376.568386 
L 171.898909 365.361367 
L 172.981091 353.406836 
L 173.589818 345.691894 
L 173.995636 337.282095 
L 174.198545 328.814001 
L 174.333818 314.681536 
L 174.401455 290.520047 
L 174.469091 144.816175 
L 174.536727 216.360541 
L 174.739636 347.825033 
L 174.942545 378.044306 
L 175.145455 383.450538 
L 175.213091 383.389842 
L 175.416 381.252054 
L 176.836364 361.235125 
L 178.392 343.801423 
L 178.730182 335.611657 
L 178.933091 323.721281 
L 179.000727 313.944604 
L 179.068364 284.374703 
L 179.136 137.534967 
L 179.203636 228.442785 
L 179.406545 350.48516 
L 179.609455 379.200942 
L 179.812364 384.230676 
L 179.88 384.157991 
L 180.082909 382.045827 
L 181.638545 360.355346 
L 182.991273 344.798981 
L 183.329455 337.048579 
L 183.532364 326.751069 
L 183.667636 302.918978 
L 183.802909 176.965965 
L 184.005818 343.511935 
L 184.208727 377.706425 
L 184.411636 384.392082 
L 184.479273 384.571712 
L 184.614545 383.673571 
L 185.020364 377.345503 
L 185.832 365.277665 
L 186.846545 354.482113 
L 187.522909 346.383249 
L 187.861091 339.800487 
L 188.064 332.504584 
L 188.199273 322.028308 
L 188.266909 309.5414 
L 188.402182 149.919338 
L 188.605091 338.438542 
L 188.808 376.986179 
L 189.010909 384.605116 
L 189.078545 384.81008 
L 189.213818 383.879905 
L 189.552 378.653877 
L 190.160727 369.544953 
L 190.972364 361.237434 
L 191.986909 352.453397 
L 192.257455 352.088009 
L 192.460364 351.413465 
L 192.730909 349.659475 
L 193.069091 345.812143 
L 193.339636 340.549736 
L 193.542545 333.43398 
L 193.677818 323.472083 
L 193.745455 312.226701 
L 193.813091 270.3142 
L 193.880727 138.841808 
L 194.083636 334.155479 
L 194.354182 380.221655 
L 194.557091 384.618706 
L 194.624727 384.483551 
L 194.827636 382.33959 
L 196.383273 360.768078 
L 197.397818 349.001621 
L 198.277091 337.830155 
L 198.412364 337.758708 
L 198.547636 338.351517 
L 199.021091 341.186599 
L 199.156364 341.241322 
L 199.359273 340.612566 
L 199.562182 338.963091 
L 199.765091 335.451819 
L 199.968 327.631505 
L 200.103273 312.767206 
L 200.170909 284.518069 
L 200.238545 142.082414 
L 200.306182 219.384071 
L 200.509091 338.499758 
L 200.779636 376.41744 
L 200.982545 381.364806 
L 201.050182 381.441141 
L 201.185455 380.561429 
L 201.591273 375.004672 
L 202.470545 363.196939 
L 203.079273 357.481796 
L 203.823273 351.027307 
L 204.296727 344.858876 
L 204.634909 337.866974 
L 204.837818 329.300363 
L 204.973091 314.377145 
L 205.040727 286.484128 
L 205.108364 137.542538 
L 205.176 223.124708 
L 205.378909 348.844692 
L 205.581818 378.136129 
L 205.784727 383.561569 
L 205.852364 383.597761 
L 205.987636 382.597344 
L 206.393455 376.635523 
L 207.205091 365.454863 
L 209.031273 343.932085 
L 209.301818 337.247381 
L 209.504727 327.676174 
L 209.64 310.747116 
L 209.707636 273.4555 
L 209.775273 145.775684 
L 209.978182 334.487503 
L 210.181091 374.802936 
L 210.384 382.630228 
L 210.451636 382.796454 
L 210.586909 381.821805 
L 211.060364 374.741732 
L 211.872 363.651972 
L 213.495273 343.400086 
L 213.765818 337.502611 
L 213.968727 328.856954 
L 214.104 313.214717 
L 214.171636 281.460169 
L 214.239273 138.683096 
L 214.442182 331.00984 
L 214.712727 378.343858 
L 214.915636 383.343028 
L 214.983273 383.337679 
L 215.118545 382.289882 
L 215.592 375.319212 
L 216.471273 363.404965 
L 218.026909 345.004107 
L 218.365091 338.046901 
L 218.568 330.369462 
L 218.703273 318.583974 
L 218.770909 302.546525 
L 218.906182 177.690302 
L 219.109091 341.905594 
L 219.312 376.594414 
L 219.514909 383.028464 
L 219.582545 383.060963 
L 219.717818 381.938867 
L 220.326545 372.561969 
L 221.205818 361.065243 
L 222.558545 344.438531 
L 222.896727 337.674247 
L 223.099636 330.166744 
L 223.234909 318.648336 
L 223.302545 303.253658 
L 223.437818 174.271948 
L 223.640727 339.927945 
L 223.843636 374.722614 
L 224.046545 382.120928 
L 224.114182 382.435758 
L 224.181818 382.262881 
L 224.384727 380.202776 
L 226.346182 354.172721 
L 226.954909 345.643529 
L 227.293091 337.797471 
L 227.496 327.922025 
L 227.631273 307.178713 
L 227.766545 160.109761 
L 227.969455 341.319457 
L 228.172364 377.694675 
L 228.375273 384.488533 
L 228.442909 384.594446 
L 228.578182 383.554633 
L 229.051636 376.004812 
L 229.795636 365.305681 
L 230.674909 355.990979 
L 231.554182 346.018035 
L 231.96 338.113229 
L 232.162909 330.580597 
L 232.298182 319.259245 
L 232.365818 304.490534 
L 232.501091 169.575463 
L 232.704 339.371546 
L 232.906909 374.623983 
L 233.109818 382.178817 
L 233.177455 382.514869 
L 233.245091 382.353969 
L 233.448 380.282691 
L 235.071273 358.612503 
L 235.950545 348.229743 
L 236.288727 341.818064 
L 236.559273 331.962127 
L 236.694545 320.123929 
L 236.762182 304.338857 
L 236.897455 172.017473 
L 237.100364 344.476266 
L 237.303273 378.864603 
L 237.506182 384.680815 
L 237.573818 384.614374 
L 237.776727 382.374878 
L 239.129455 362.544694 
L 240.617455 344.808469 
L 240.888 337.98534 
L 241.090909 327.262929 
L 241.226182 301.795077 
L 241.293818 165.893861 
L 241.361455 182.183889 
L 241.564364 346.639329 
L 241.767273 379.42205 
L 241.970182 384.966526 
L 242.037818 384.907959 
L 242.240727 382.735764 
L 243.728727 361.042453 
L 244.946182 346.085411 
L 245.284364 338.991844 
L 245.487273 330.821928 
L 245.622545 318.26872 
L 245.690182 300.306906 
L 245.757818 168.76564 
L 245.825455 187.249663 
L 246.028364 345.830546 
L 246.231273 378.469214 
L 246.434182 383.994359 
L 246.501818 383.893615 
L 246.704727 381.628599 
L 248.057455 361.87087 
L 249.477818 344.874572 
L 249.748364 338.546467 
L 249.951273 329.109197 
L 250.086545 310.748336 
L 250.221818 145.402342 
L 250.424727 338.158435 
L 250.627636 377.033816 
L 250.830545 384.581653 
L 250.898182 384.788644 
L 251.033455 383.864589 
L 251.439273 377.448432 
L 252.250909 365.187906 
L 253.130182 355.660597 
L 253.806545 347.789223 
L 254.144727 341.495564 
L 254.415273 331.903667 
L 254.550545 320.115115 
L 254.618182 304.262171 
L 254.753455 172.300434 
L 254.956364 344.089519 
L 255.159273 378.553793 
L 255.362182 384.542744 
L 255.429818 384.512306 
L 255.632727 382.360331 
L 257.120727 361.102424 
L 258.541091 343.922568 
L 258.811636 336.731367 
L 259.014545 325.291294 
L 259.149818 293.620942 
L 259.217455 140.587513 
L 259.285091 208.054633 
L 259.488 349.209481 
L 259.690909 379.016146 
L 259.893818 383.966389 
L 259.961455 383.881496 
L 260.164364 381.792327 
L 262.058182 355.347094 
L 262.869818 344.167009 
L 263.208 336.303938 
L 263.410909 325.750706 
L 263.546182 300.149118 
L 263.613818 171.49314 
L 263.681455 187.299595 
L 263.884364 344.164589 
L 264.087273 376.822686 
L 264.290182 382.992175 
L 264.357818 383.075839 
L 264.493091 382.077811 
L 264.898909 375.950235 
L 265.778182 363.188699 
L 267.333818 344.421589 
L 267.604364 337.502023 
L 267.807273 326.560838 
L 267.942545 298.996252 
L 268.010182 151.981739 
L 268.077818 191.562891 
L 268.280727 347.700008 
L 268.483636 379.486349 
L 268.686545 384.64011 
L 268.754182 384.502767 
L 268.957091 382.182177 
L 270.445091 360.169998 
L 271.594909 345.64737 
L 272.000727 336.525469 
L 272.203636 326.438626 
L 272.338909 304.146242 
L 272.474182 171.872246 
L 272.677091 341.449506 
L 272.88 376.104826 
L 273.082909 382.837024 
L 273.150545 382.962233 
L 273.285818 381.94846 
L 273.759273 374.515062 
L 274.570909 363.035787 
L 275.923636 345.897444 
L 276.261818 338.083184 
L 276.464727 328.457584 
L 276.6 309.587266 
L 276.735273 150.000821 
L 276.938182 339.11505 
L 277.141091 377.070256 
L 277.344 384.085352 
L 277.411636 384.178136 
L 277.546909 383.103083 
L 278.088 374.612388 
L 278.899636 363.321992 
L 280.590545 342.197363 
L 280.861091 334.430592 
L 280.996364 326.372674 
L 281.131636 300.229133 
L 281.199273 163.726645 
L 281.266909 186.931508 
L 281.469818 345.243231 
L 281.672727 377.86108 
L 281.875636 383.720514 
L 281.943273 383.724153 
L 282.078545 382.588344 
L 282.619636 374.112369 
L 283.431273 362.992452 
L 284.919273 344.315041 
L 285.189818 337.339939 
L 285.392727 326.269398 
L 285.528 297.765112 
L 285.595636 147.909634 
L 285.663273 195.80551 
L 285.866182 348.190293 
L 286.069091 379.29895 
L 286.272 384.378427 
L 286.339636 384.224719 
L 286.542545 381.876329 
L 287.827636 362.868204 
L 289.315636 345.554308 
L 289.653818 338.247843 
L 289.856727 329.125698 
L 289.992 311.885186 
L 290.059636 269.317925 
L 290.127273 141.038122 
L 290.330182 335.733261 
L 290.533091 375.781748 
L 290.736 383.762812 
L 290.803636 384.002713 
L 290.938909 383.096707 
L 291.344727 376.766186 
L 292.156364 364.724751 
L 293.914909 342.002848 
L 294.185455 334.187726 
L 294.320727 326.13587 
L 294.456 300.1399 
L 294.523636 166.118888 
L 294.591273 187.324063 
L 294.794182 345.282658 
L 294.997091 377.813093 
L 295.2 383.553867 
L 295.267636 383.534693 
L 295.402909 382.346498 
L 295.944 373.499648 
L 296.688 363.001005 
L 298.243636 343.938794 
L 298.514182 336.440137 
L 298.717091 323.443108 
L 298.784727 312.0057 
L 298.852364 267.169648 
L 298.92 140.664112 
L 299.122909 336.700456 
L 299.325818 376.246507 
L 299.528727 384.129264 
L 299.596364 384.417959 
L 299.731636 383.635576 
L 300.069818 378.592019 
L 301.016727 364.065864 
L 302.64 342.393935 
L 302.910545 333.763565 
L 303.045818 324.514786 
L 303.113455 314.738608 
L 303.181091 285.166651 
L 303.248727 134.794414 
L 303.316364 227.654969 
L 303.519273 352.64568 
L 303.722182 379.97532 
L 303.925091 384.085211 
L 304.060364 383.31356 
L 304.398545 378.253872 
L 305.277818 364.994444 
L 306.968727 342.458014 
L 307.239273 334.051033 
L 307.374545 325.243007 
L 307.442182 316.260825 
L 307.509818 292.033844 
L 307.577455 137.554062 
L 307.645091 212.323787 
L 307.848 350.290742 
L 308.050909 379.57395 
L 308.253818 384.106295 
L 308.389091 383.268354 
L 308.794909 376.94452 
L 309.674182 364.035768 
L 311.365091 341.755036 
L 311.635636 335.448667 
L 311.838545 326.047566 
L 311.973818 307.015185 
L 312.109091 158.619111 
L 312.312 334.672777 
L 312.582545 376.369911 
L 312.785455 380.851072 
L 312.853091 380.816695 
L 313.056 378.961374 
L 315.490909 344.766966 
L 315.829091 335.664416 
L 316.032 322.065527 
L 316.099636 309.44759 
L 316.234909 150.366633 
L 316.437818 338.675378 
L 316.640727 376.431005 
L 316.843636 383.747729 
L 316.911273 383.912974 
L 317.046545 382.924406 
L 317.52 375.437635 
L 318.264 364.706266 
L 319.481455 351.453985 
L 319.954909 345.224022 
L 320.293091 337.604904 
L 320.496 328.128199 
L 320.631273 309.948849 
L 320.766545 147.862471 
L 320.969455 336.391221 
L 321.172364 374.930388 
L 321.375273 382.830522 
L 321.442909 383.128853 
L 321.578182 382.367201 
L 321.916364 377.522731 
L 322.930909 362.808379 
L 324.418909 342.835496 
L 324.757091 333.289343 
L 324.892364 325.037944 
L 325.027636 296.989164 
L 325.095273 156.650329 
L 325.162909 197.889767 
L 325.365818 345.583432 
L 325.568727 377.042916 
L 325.771636 382.698525 
L 325.839273 382.678931 
L 326.042182 380.64654 
L 327.800727 356.30847 
L 328.815273 343.355914 
L 329.085818 336.256514 
L 329.288727 323.981418 
L 329.356364 313.80354 
L 329.424 281.208502 
L 329.491636 135.841565 
L 329.694545 332.311084 
L 329.965091 379.471834 
L 330.168 383.759492 
L 330.235636 383.546323 
L 330.438545 381.111485 
L 331.656 362.810059 
L 332.873455 347.363801 
L 333.211636 340.1592 
L 333.414545 332.276044 
L 333.549818 320.503485 
L 333.617455 304.820367 
L 333.752727 170.571792 
L 333.955636 344.31438 
L 334.158545 378.460424 
L 334.361455 384.415463 
L 334.429091 384.426136 
L 334.564364 383.312468 
L 335.037818 375.820484 
L 335.849455 363.746802 
L 337.472727 343.069114 
L 337.743273 335.515488 
L 337.946182 321.983597 
L 338.013818 309.582676 
L 338.149091 149.886288 
L 338.352 338.504812 
L 338.554909 376.345398 
L 338.757818 383.502544 
L 338.825455 383.626518 
L 338.960727 382.560533 
L 339.501818 373.974035 
L 340.313455 362.708996 
L 341.801455 343.593814 
L 342.072 336.62198 
L 342.274909 325.320983 
L 342.410182 293.692709 
L 342.477818 140.651754 
L 342.545455 207.629609 
L 342.748364 348.858833 
L 342.951273 378.698034 
L 343.154182 383.6565 
L 343.221818 383.558018 
L 343.424727 381.436372 
L 345.183273 356.832868 
L 345.927273 347.473752 
L 346.265455 340.831744 
L 346.536 330.560947 
L 346.671273 316.670729 
L 346.738909 293.555781 
L 346.806545 139.392377 
L 346.874182 208.114699 
L 347.077091 349.27943 
L 347.28 378.988429 
L 347.482909 383.848622 
L 347.550545 383.69038 
L 347.753455 381.329457 
L 349.106182 361.38928 
L 350.256 346.981601 
L 350.594182 339.517422 
L 350.797091 330.813748 
L 350.932364 316.954478 
L 351 294.263406 
L 351.067636 139.59911 
L 351.135273 206.511699 
L 351.338182 349.733711 
L 351.541091 379.23281 
L 351.744 383.967943 
L 351.811636 383.850894 
L 352.014545 381.696213 
L 353.705455 357.615334 
L 354.449455 347.671588 
L 354.787636 340.418692 
L 354.990545 332.639548 
L 355.125818 321.253239 
L 355.193455 306.672989 
L 355.328727 163.237876 
L 355.531636 343.336195 
L 355.734545 378.348654 
L 355.937455 384.431496 
L 356.005091 384.44173 
L 356.140364 383.312073 
L 356.613818 375.7119 
L 357.425455 363.687126 
L 358.642909 349.935635 
L 359.184 342.955296 
L 359.454545 337.256237 
L 359.657455 328.785125 
L 359.792727 313.584962 
L 359.860364 284.143949 
L 359.928 139.170856 
L 359.995636 228.83194 
L 360.198545 348.660738 
L 360.401455 376.888628 
L 360.604364 382.150902 
L 360.672 382.1612 
L 360.807273 381.099539 
L 361.280727 373.91704 
L 362.16 361.434154 
L 363.242182 347.029798 
L 363.580364 339.103044 
L 363.783273 329.793838 
L 363.918545 313.111881 
L 363.986182 274.762999 
L 364.053818 137.081949 
L 364.256727 335.814944 
L 364.459636 376.473841 
L 364.662545 384.273668 
L 364.730182 384.47677 
L 364.865455 383.533405 
L 365.271273 377.193653 
L 366.082909 364.932966 
L 367.841455 341.993874 
L 368.112 332.965583 
L 368.247273 322.68535 
L 368.314909 310.687343 
L 368.450182 145.757829 
L 368.653091 337.92563 
L 368.856 376.442949 
L 369.058909 383.823507 
L 369.126545 383.993474 
L 369.261818 383.013453 
L 369.667636 376.45411 
L 370.479273 364.167046 
L 371.967273 344.829748 
L 372.305455 336.253207 
L 372.508364 324.08102 
L 372.576 314.081616 
L 372.643636 282.881249 
L 372.711273 135.937983 
L 372.914182 332.679661 
L 373.184727 380.132283 
L 373.387636 383.955952 
L 373.522909 382.967015 
L 373.996364 375.388222 
L 374.808 363.760356 
L 376.363636 343.300928 
L 376.634182 335.441092 
L 376.837091 320.930388 
L 376.904727 306.436458 
L 377.04 163.492616 
L 377.242909 342.280148 
L 377.445818 377.589607 
L 377.648727 383.95579 
L 377.716364 384.008795 
L 377.851636 382.918948 
L 378.325091 375.257239 
L 379.069091 364.39903 
L 380.827636 341.377838 
L 381.098182 332.035841 
L 381.233455 320.427089 
L 381.301091 305.035831 
L 381.436364 168.993055 
L 381.639273 342.822014 
L 381.842182 377.456225 
L 382.045091 383.81412 
L 382.112727 383.877432 
L 382.248 382.794238 
L 382.653818 376.235828 
L 383.397818 364.920866 
L 384.953455 344.103613 
L 385.224 336.615435 
L 385.426909 324.46311 
L 385.494545 314.600168 
L 385.562182 284.413143 
L 385.629818 134.740496 
L 385.697455 228.990811 
L 385.900364 352.864846 
L 386.103273 380.110726 
L 386.306182 384.081884 
L 386.441455 383.240934 
L 386.847273 377.034086 
L 387.726545 363.845191 
L 389.349818 342.127766 
L 389.620364 334.389643 
L 389.823273 319.683219 
L 389.890909 304.731753 
L 390.026182 169.621222 
L 390.229091 341.495281 
L 390.432 376.106628 
L 390.634909 382.669205 
L 390.702545 382.796575 
L 390.837818 381.855122 
L 391.243636 375.749855 
L 392.122909 363.038181 
L 393.340364 346.771927 
L 393.678545 338.567875 
L 393.881455 327.841278 
L 394.016727 302.835758 
L 394.084364 167.554611 
L 394.152 178.833672 
L 394.354909 347.17763 
L 394.557818 379.942591 
L 394.760727 385.122706 
L 394.828364 384.990822 
L 395.031273 382.72785 
L 396.722182 358.166871 
L 397.736727 345.519931 
L 398.074909 337.431296 
L 398.277818 326.284754 
L 398.413091 296.825608 
L 398.480727 143.618228 
L 398.548364 198.899103 
L 398.751273 348.650705 
L 398.954182 379.170572 
L 399.157091 384.138372 
L 399.224727 383.990203 
L 399.427636 381.646776 
L 400.780364 361.39957 
L 401.997818 346.411478 
L 402.336 339.781652 
L 402.538909 332.333325 
L 402.674182 321.690893 
L 402.741818 308.879432 
L 402.877091 152.610501 
L 403.08 338.687471 
L 403.282909 375.953181 
L 403.485818 383.233231 
L 403.553455 383.437534 
L 403.688727 382.559565 
L 404.094545 376.445782 
L 404.973818 363.486084 
L 406.326545 345.545151 
L 406.664727 337.076226 
L 406.867636 325.483608 
L 406.935273 316.402493 
L 407.002909 291.434748 
L 407.070545 135.065048 
L 407.138182 213.639 
L 407.341091 350.630591 
L 407.544 379.333376 
L 407.746909 384.02374 
L 407.814545 383.93432 
L 408.017455 381.884906 
L 409.776 357.71369 
L 410.52 348.893075 
L 410.925818 341.815575 
L 411.196364 332.796968 
L 411.331636 322.567397 
L 411.399273 310.760929 
L 411.534545 145.193518 
L 411.737455 337.405974 
L 411.940364 376.279116 
L 412.143273 383.607889 
L 412.210909 383.737819 
L 412.346182 382.708941 
L 412.819636 375.213033 
L 413.698909 362.474135 
L 415.186909 342.929916 
L 415.457455 335.421149 
L 415.660364 322.30258 
L 415.728 310.614559 
L 415.863273 145.564647 
L 416.066182 336.224604 
L 416.269091 375.28788 
L 416.472 383.08888 
L 416.539636 383.301617 
L 416.674909 382.36473 
L 417.080727 376.025088 
L 417.96 362.953496 
L 419.380364 343.51712 
L 419.650909 336.260826 
L 419.853818 324.217758 
L 419.921455 314.460506 
L 419.989091 285.19976 
L 420.056727 136.152358 
L 420.124364 227.65012 
L 420.327273 351.792241 
L 420.530182 379.262426 
L 420.733091 383.411896 
L 420.868364 382.570722 
L 421.274182 376.343665 
L 422.085818 364.335667 
L 423.641455 343.888377 
L 423.912 336.873569 
L 424.114909 325.901409 
L 424.250182 298.40394 
L 424.317818 155.583681 
L 424.385455 193.674703 
L 424.588364 346.688455 
L 424.791273 378.094327 
L 424.994182 383.461122 
L 425.061818 383.396162 
L 425.264727 381.256744 
L 426.888 358.225382 
L 427.970182 345.192065 
L 428.308364 337.021277 
L 428.511273 326.129371 
L 428.646545 298.643132 
L 428.714182 154.871447 
L 428.781818 192.489312 
L 428.984727 346.375026 
L 429.187636 377.95723 
L 429.390545 383.471723 
L 429.458182 383.443761 
L 429.661091 381.370161 
L 430.472727 368.21819 
L 430.675636 399.92557 
L 431.013818 416.643211 
L 431.554909 430.808958 
L 432.298909 444.661094 
L 432.907636 452.334242 
L 433.448727 456.733517 
L 433.989818 459.533425 
L 434.530909 461.319574 
L 435.139636 462.599484 
L 435.816 463.486433 
L 436.56 464.080741 
L 437.439273 464.483602 
L 438.589091 464.739555 
L 440.212364 464.847781 
L 443.053091 464.781132 
L 455.092364 464.313799 
L 470.378182 464.269176 
L 498.109091 464.269308 
L 498.109091 464.269308 
" clip-path="url(#p1de00f50a1)" style="fill: none; stroke: #000000; stroke-width: 1.5; stroke-linecap: square"/>
   </g>
   <g id="line2d_14">
    <path d="M 497.973818 408.87 
" clip-path="url(#p1de00f50a1)" style="fill: none; stroke: #000000; stroke-width: 1.5; stroke-linecap: square"/>
   </g>
   <g id="line2d_15">
    <path d="M 430.472727 368.1 
L 430.472727 365.382 
L 430.472727 362.664 
L 430.472727 359.946 
L 430.472727 357.228 
L 430.472727 354.51 
L 430.472727 351.792 
L 430.472727 349.074 
L 430.472727 346.356 
L 430.472727 343.638 
L 430.472727 340.92 
L 430.472727 338.202 
L 430.472727 335.484 
L 430.472727 332.766 
L 430.472727 330.048 
L 430.472727 327.33 
L 430.472727 324.612 
L 430.472727 321.894 
L 430.472727 319.176 
L 430.472727 316.458 
" clip-path="url(#p1de00f50a1)" style="fill: none; stroke: #000000; stroke-width: 1.5; stroke-linecap: square"/>
   </g>
   <g id="patch_3">
    <path d="M 72 504 
L 72 69.12 
" style="fill: none; stroke: #000000; stroke-width: 0.8; stroke-linejoin: miter; stroke-linecap: square"/>
   </g>
   <g id="patch_4">
    <path d="M 518.4 504 
L 518.4 69.12 
" style="fill: none; stroke: #000000; stroke-width: 0.8; stroke-linejoin: miter; stroke-linecap: square"/>
   </g>
   <g id="patch_5">
    <path d="M 72 504 
L 518.4 504 
" style="fill: none; stroke: #000000; stroke-width: 0.8; stroke-linejoin: miter; stroke-linecap: square"/>
   </g>
   <g id="patch_6">
    <path d="M 72 69.12 
L 518.4 69.12 
" style="fill: none; stroke: #000000; stroke-width: 0.8; stroke-linejoin: miter; stroke-linecap: square"/>
   </g>
   <g id="text_15">
    <!-- 500 ms -->
    <g transform="translate(497.973818 406.152)scale(0.22 -0.22)">
     <defs>
      <path id="ArialMT-35" d="M 266 1200 
L 856 1250 
Q 922 819 1161 601 
Q 1400 384 1738 384 
Q 2144 384 2425 690 
Q 2706 997 2706 1503 
Q 2706 1984 2436 2262 
Q 2166 2541 1728 2541 
Q 1456 2541 1237 2417 
Q 1019 2294 894 2097 
L 366 2166 
L 809 4519 
L 3088 4519 
L 3088 3981 
L 1259 3981 
L 1013 2750 
Q 1425 3038 1878 3038 
Q 2478 3038 2890 2622 
Q 3303 2206 3303 1553 
Q 3303 931 2941 478 
Q 2500 -78 1738 -78 
Q 1113 -78 717 272 
Q 322 622 266 1200 
z
" transform="scale(0.015625)"/>
      <path id="ArialMT-30" d="M 266 2259 
Q 266 3072 433 3567 
Q 600 4063 929 4331 
Q 1259 4600 1759 4600 
Q 2128 4600 2406 4451 
Q 2684 4303 2865 4023 
Q 3047 3744 3150 3342 
Q 3253 2941 3253 2259 
Q 3253 1453 3087 958 
Q 2922 463 2592 192 
Q 2263 -78 1759 -78 
Q 1097 -78 719 397 
Q 266 969 266 2259 
z
M 844 2259 
Q 844 1131 1108 757 
Q 1372 384 1759 384 
Q 2147 384 2411 759 
Q 2675 1134 2675 2259 
Q 2675 3391 2411 3762 
Q 2147 4134 1753 4134 
Q 1366 4134 1134 3806 
Q 844 3388 844 2259 
z
" transform="scale(0.015625)"/>
     </defs>
     <use xlink:href="#ArialMT-35"/>
     <use xlink:href="#ArialMT-30" x="55.615234"/>
     <use xlink:href="#ArialMT-30" x="111.230469"/>
     <use xlink:href="#ArialMT-20" x="166.845703"/>
     <use xlink:href="#ArialMT-6d" x="194.628906"/>
     <use xlink:href="#ArialMT-73" x="277.929688"/>
    </g>
   </g>
   <g id="text_16">
    <!-- 20 mV -->
    <g transform="translate(504.737455 321.894)scale(0.22 -0.22)">
     <defs>
      <path id="ArialMT-32" d="M 3222 541 
L 3222 0 
L 194 0 
Q 188 203 259 391 
Q 375 700 629 1000 
Q 884 1300 1366 1694 
Q 2113 2306 2375 2664 
Q 2638 3022 2638 3341 
Q 2638 3675 2398 3904 
Q 2159 4134 1775 4134 
Q 1369 4134 1125 3890 
Q 881 3647 878 3216 
L 300 3275 
Q 359 3922 746 4261 
Q 1134 4600 1788 4600 
Q 2447 4600 2831 4234 
Q 3216 3869 3216 3328 
Q 3216 3053 3103 2787 
Q 2991 2522 2730 2228 
Q 2469 1934 1863 1422 
Q 1356 997 1212 845 
Q 1069 694 975 541 
L 3222 541 
z
" transform="scale(0.015625)"/>
     </defs>
     <use xlink:href="#ArialMT-32"/>
     <use xlink:href="#ArialMT-30" x="55.615234"/>
     <use xlink:href="#ArialMT-20" x="111.230469"/>
     <use xlink:href="#ArialMT-6d" x="139.013672"/>
     <use xlink:href="#ArialMT-56" x="222.314453"/>
    </g>
   </g>
   <g id="text_17">
    <!--  Plotting dSPN, trace number 18699  -->
    <g transform="translate(116.052969 63.12)scale(0.22 -0.22)">
     <defs>
      <path id="ArialMT-50" d="M 494 0 
L 494 4581 
L 2222 4581 
Q 2678 4581 2919 4538 
Q 3256 4481 3484 4323 
Q 3713 4166 3852 3881 
Q 3991 3597 3991 3256 
Q 3991 2672 3619 2267 
Q 3247 1863 2275 1863 
L 1100 1863 
L 1100 0 
L 494 0 
z
M 1100 2403 
L 2284 2403 
Q 2872 2403 3119 2622 
Q 3366 2841 3366 3238 
Q 3366 3525 3220 3729 
Q 3075 3934 2838 4000 
Q 2684 4041 2272 4041 
L 1100 4041 
L 1100 2403 
z
" transform="scale(0.015625)"/>
      <path id="ArialMT-67" d="M 319 -275 
L 866 -356 
Q 900 -609 1056 -725 
Q 1266 -881 1628 -881 
Q 2019 -881 2231 -725 
Q 2444 -569 2519 -288 
Q 2563 -116 2559 434 
Q 2191 0 1641 0 
Q 956 0 581 494 
Q 206 988 206 1678 
Q 206 2153 378 2554 
Q 550 2956 876 3175 
Q 1203 3394 1644 3394 
Q 2231 3394 2613 2919 
L 2613 3319 
L 3131 3319 
L 3131 450 
Q 3131 -325 2973 -648 
Q 2816 -972 2473 -1159 
Q 2131 -1347 1631 -1347 
Q 1038 -1347 672 -1080 
Q 306 -813 319 -275 
z
M 784 1719 
Q 784 1066 1043 766 
Q 1303 466 1694 466 
Q 2081 466 2343 764 
Q 2606 1063 2606 1700 
Q 2606 2309 2336 2618 
Q 2066 2928 1684 2928 
Q 1309 2928 1046 2623 
Q 784 2319 784 1719 
z
" transform="scale(0.015625)"/>
      <path id="ArialMT-64" d="M 2575 0 
L 2575 419 
Q 2259 -75 1647 -75 
Q 1250 -75 917 144 
Q 584 363 401 755 
Q 219 1147 219 1656 
Q 219 2153 384 2558 
Q 550 2963 881 3178 
Q 1213 3394 1622 3394 
Q 1922 3394 2156 3267 
Q 2391 3141 2538 2938 
L 2538 4581 
L 3097 4581 
L 3097 0 
L 2575 0 
z
M 797 1656 
Q 797 1019 1065 703 
Q 1334 388 1700 388 
Q 2069 388 2326 689 
Q 2584 991 2584 1609 
Q 2584 2291 2321 2609 
Q 2059 2928 1675 2928 
Q 1300 2928 1048 2622 
Q 797 2316 797 1656 
z
" transform="scale(0.015625)"/>
      <path id="ArialMT-53" d="M 288 1472 
L 859 1522 
Q 900 1178 1048 958 
Q 1197 738 1509 602 
Q 1822 466 2213 466 
Q 2559 466 2825 569 
Q 3091 672 3220 851 
Q 3350 1031 3350 1244 
Q 3350 1459 3225 1620 
Q 3100 1781 2813 1891 
Q 2628 1963 1997 2114 
Q 1366 2266 1113 2400 
Q 784 2572 623 2826 
Q 463 3081 463 3397 
Q 463 3744 659 4045 
Q 856 4347 1234 4503 
Q 1613 4659 2075 4659 
Q 2584 4659 2973 4495 
Q 3363 4331 3572 4012 
Q 3781 3694 3797 3291 
L 3216 3247 
Q 3169 3681 2898 3903 
Q 2628 4125 2100 4125 
Q 1550 4125 1298 3923 
Q 1047 3722 1047 3438 
Q 1047 3191 1225 3031 
Q 1400 2872 2139 2705 
Q 2878 2538 3153 2413 
Q 3553 2228 3743 1945 
Q 3934 1663 3934 1294 
Q 3934 928 3725 604 
Q 3516 281 3123 101 
Q 2731 -78 2241 -78 
Q 1619 -78 1198 103 
Q 778 284 539 648 
Q 300 1013 288 1472 
z
" transform="scale(0.015625)"/>
      <path id="ArialMT-4e" d="M 488 0 
L 488 4581 
L 1109 4581 
L 3516 984 
L 3516 4581 
L 4097 4581 
L 4097 0 
L 3475 0 
L 1069 3600 
L 1069 0 
L 488 0 
z
" transform="scale(0.015625)"/>
      <path id="ArialMT-2c" d="M 569 0 
L 569 641 
L 1209 641 
L 1209 0 
Q 1209 -353 1084 -570 
Q 959 -788 688 -906 
L 531 -666 
Q 709 -588 793 -436 
Q 878 -284 888 0 
L 569 0 
z
" transform="scale(0.015625)"/>
      <path id="ArialMT-63" d="M 2588 1216 
L 3141 1144 
Q 3050 572 2676 248 
Q 2303 -75 1759 -75 
Q 1078 -75 664 370 
Q 250 816 250 1647 
Q 250 2184 428 2587 
Q 606 2991 970 3192 
Q 1334 3394 1763 3394 
Q 2303 3394 2647 3120 
Q 2991 2847 3088 2344 
L 2541 2259 
Q 2463 2594 2264 2762 
Q 2066 2931 1784 2931 
Q 1359 2931 1093 2626 
Q 828 2322 828 1663 
Q 828 994 1084 691 
Q 1341 388 1753 388 
Q 2084 388 2306 591 
Q 2528 794 2588 1216 
z
" transform="scale(0.015625)"/>
      <path id="ArialMT-75" d="M 2597 0 
L 2597 488 
Q 2209 -75 1544 -75 
Q 1250 -75 995 37 
Q 741 150 617 320 
Q 494 491 444 738 
Q 409 903 409 1263 
L 409 3319 
L 972 3319 
L 972 1478 
Q 972 1038 1006 884 
Q 1059 663 1231 536 
Q 1403 409 1656 409 
Q 1909 409 2131 539 
Q 2353 669 2445 892 
Q 2538 1116 2538 1541 
L 2538 3319 
L 3100 3319 
L 3100 0 
L 2597 0 
z
" transform="scale(0.015625)"/>
      <path id="ArialMT-31" d="M 2384 0 
L 1822 0 
L 1822 3584 
Q 1619 3391 1289 3197 
Q 959 3003 697 2906 
L 697 3450 
Q 1169 3672 1522 3987 
Q 1875 4303 2022 4600 
L 2384 4600 
L 2384 0 
z
" transform="scale(0.015625)"/>
      <path id="ArialMT-38" d="M 1131 2484 
Q 781 2613 612 2850 
Q 444 3088 444 3419 
Q 444 3919 803 4259 
Q 1163 4600 1759 4600 
Q 2359 4600 2725 4251 
Q 3091 3903 3091 3403 
Q 3091 3084 2923 2848 
Q 2756 2613 2416 2484 
Q 2838 2347 3058 2040 
Q 3278 1734 3278 1309 
Q 3278 722 2862 322 
Q 2447 -78 1769 -78 
Q 1091 -78 675 323 
Q 259 725 259 1325 
Q 259 1772 486 2073 
Q 713 2375 1131 2484 
z
M 1019 3438 
Q 1019 3113 1228 2906 
Q 1438 2700 1772 2700 
Q 2097 2700 2305 2904 
Q 2513 3109 2513 3406 
Q 2513 3716 2298 3927 
Q 2084 4138 1766 4138 
Q 1444 4138 1231 3931 
Q 1019 3725 1019 3438 
z
M 838 1322 
Q 838 1081 952 856 
Q 1066 631 1291 507 
Q 1516 384 1775 384 
Q 2178 384 2440 643 
Q 2703 903 2703 1303 
Q 2703 1709 2433 1975 
Q 2163 2241 1756 2241 
Q 1359 2241 1098 1978 
Q 838 1716 838 1322 
z
" transform="scale(0.015625)"/>
      <path id="ArialMT-36" d="M 3184 3459 
L 2625 3416 
Q 2550 3747 2413 3897 
Q 2184 4138 1850 4138 
Q 1581 4138 1378 3988 
Q 1113 3794 959 3422 
Q 806 3050 800 2363 
Q 1003 2672 1297 2822 
Q 1591 2972 1913 2972 
Q 2475 2972 2870 2558 
Q 3266 2144 3266 1488 
Q 3266 1056 3080 686 
Q 2894 316 2569 119 
Q 2244 -78 1831 -78 
Q 1128 -78 684 439 
Q 241 956 241 2144 
Q 241 3472 731 4075 
Q 1159 4600 1884 4600 
Q 2425 4600 2770 4297 
Q 3116 3994 3184 3459 
z
M 888 1484 
Q 888 1194 1011 928 
Q 1134 663 1356 523 
Q 1578 384 1822 384 
Q 2178 384 2434 671 
Q 2691 959 2691 1453 
Q 2691 1928 2437 2201 
Q 2184 2475 1800 2475 
Q 1419 2475 1153 2201 
Q 888 1928 888 1484 
z
" transform="scale(0.015625)"/>
      <path id="ArialMT-39" d="M 350 1059 
L 891 1109 
Q 959 728 1153 556 
Q 1347 384 1650 384 
Q 1909 384 2104 503 
Q 2300 622 2425 820 
Q 2550 1019 2634 1356 
Q 2719 1694 2719 2044 
Q 2719 2081 2716 2156 
Q 2547 1888 2255 1720 
Q 1963 1553 1622 1553 
Q 1053 1553 659 1965 
Q 266 2378 266 3053 
Q 266 3750 677 4175 
Q 1088 4600 1706 4600 
Q 2153 4600 2523 4359 
Q 2894 4119 3086 3673 
Q 3278 3228 3278 2384 
Q 3278 1506 3087 986 
Q 2897 466 2520 194 
Q 2144 -78 1638 -78 
Q 1100 -78 759 220 
Q 419 519 350 1059 
z
M 2653 3081 
Q 2653 3566 2395 3850 
Q 2138 4134 1775 4134 
Q 1400 4134 1122 3828 
Q 844 3522 844 3034 
Q 844 2597 1108 2323 
Q 1372 2050 1759 2050 
Q 2150 2050 2401 2323 
Q 2653 2597 2653 3081 
z
" transform="scale(0.015625)"/>
     </defs>
     <use xlink:href="#ArialMT-20"/>
     <use xlink:href="#ArialMT-50" x="27.783203"/>
     <use xlink:href="#ArialMT-6c" x="94.482422"/>
     <use xlink:href="#ArialMT-6f" x="116.699219"/>
     <use xlink:href="#ArialMT-74" x="172.314453"/>
     <use xlink:href="#ArialMT-74" x="200.097656"/>
     <use xlink:href="#ArialMT-69" x="227.880859"/>
     <use xlink:href="#ArialMT-6e" x="250.097656"/>
     <use xlink:href="#ArialMT-67" x="305.712891"/>
     <use xlink:href="#ArialMT-20" x="361.328125"/>
     <use xlink:href="#ArialMT-64" x="389.111328"/>
     <use xlink:href="#ArialMT-53" x="444.726562"/>
     <use xlink:href="#ArialMT-50" x="511.425781"/>
     <use xlink:href="#ArialMT-4e" x="578.125"/>
     <use xlink:href="#ArialMT-2c" x="650.341797"/>
     <use xlink:href="#ArialMT-20" x="678.125"/>
     <use xlink:href="#ArialMT-74" x="705.908203"/>
     <use xlink:href="#ArialMT-72" x="733.691406"/>
     <use xlink:href="#ArialMT-61" x="766.992188"/>
     <use xlink:href="#ArialMT-63" x="822.607422"/>
     <use xlink:href="#ArialMT-65" x="872.607422"/>
     <use xlink:href="#ArialMT-20" x="928.222656"/>
     <use xlink:href="#ArialMT-6e" x="956.005859"/>
     <use xlink:href="#ArialMT-75" x="1011.621094"/>
     <use xlink:href="#ArialMT-6d" x="1067.236328"/>
     <use xlink:href="#ArialMT-62" x="1150.537109"/>
     <use xlink:href="#ArialMT-65" x="1206.152344"/>
     <use xlink:href="#ArialMT-72" x="1261.767578"/>
     <use xlink:href="#ArialMT-20" x="1295.068359"/>
     <use xlink:href="#ArialMT-31" x="1322.851562"/>
     <use xlink:href="#ArialMT-38" x="1378.466797"/>
     <use xlink:href="#ArialMT-36" x="1434.082031"/>
     <use xlink:href="#ArialMT-39" x="1489.697266"/>
     <use xlink:href="#ArialMT-39" x="1545.3125"/>
     <use xlink:href="#ArialMT-20" x="1600.927734"/>
    </g>
   </g>
  </g>
 </g>
 <defs>
  <clipPath id="p1de00f50a1">
   <rect x="72" y="69.12" width="446.4" height="434.88"/>
  </clipPath>
 </defs>
</svg>
