<?xml version="1.0" encoding="utf-8" standalone="no"?>
<!DOCTYPE svg PUBLIC "-//W3C//DTD SVG 1.1//EN"
  "http://www.w3.org/Graphics/SVG/1.1/DTD/svg11.dtd">
<svg xmlns:xlink="http://www.w3.org/1999/xlink" width="576pt" height="576pt" viewBox="0 0 576 576" xmlns="http://www.w3.org/2000/svg" version="1.1">
 <metadata>
  <rdf:RDF xmlns:dc="http://purl.org/dc/elements/1.1/" xmlns:cc="http://creativecommons.org/ns#" xmlns:rdf="http://www.w3.org/1999/02/22-rdf-syntax-ns#">
   <cc:Work>
    <dc:type rdf:resource="http://purl.org/dc/dcmitype/StillImage"/>
    <dc:date>2022-10-30T19:57:17.966405</dc:date>
    <dc:format>image/svg+xml</dc:format>
    <dc:creator>
     <cc:Agent>
      <dc:title>Matplotlib v3.5.2, https://matplotlib.org/</dc:title>
     </cc:Agent>
    </dc:creator>
   </cc:Work>
  </rdf:RDF>
 </metadata>
 <defs>
  <style type="text/css">*{stroke-linejoin: round; stroke-linecap: butt}</style>
 </defs>
 <g id="figure_1">
  <g id="patch_1">
   <path d="M 0 576 
L 576 576 
L 576 0 
L 0 0 
L 0 576 
z
" style="fill: none"/>
  </g>
  <g id="axes_1">
   <g id="patch_2">
    <path d="M 72 504 
L 518.4 504 
L 518.4 69.12 
L 72 69.12 
z
" style="fill: #ffffff"/>
   </g>
   <g id="matplotlib.axis_1">
    <g id="xtick_1">
     <g id="line2d_1">
      <defs>
       <path id="m303bcbbb7f" d="M 0 0 
L 0 3.5 
" style="stroke: #000000; stroke-width: 0.8"/>
      </defs>
      <g>
       <use xlink:href="#m303bcbbb7f" x="92.290909" y="504" style="stroke: #000000; stroke-width: 0.8"/>
      </g>
     </g>
     <g id="text_1">
      <!-- 0 -->
      <g transform="translate(85.292159 527.716563)scale(0.22 -0.22)">
       <defs>
        <path id="DejaVuSans-30" d="M 2034 4250 
Q 1547 4250 1301 3770 
Q 1056 3291 1056 2328 
Q 1056 1369 1301 889 
Q 1547 409 2034 409 
Q 2525 409 2770 889 
Q 3016 1369 3016 2328 
Q 3016 3291 2770 3770 
Q 2525 4250 2034 4250 
z
M 2034 4750 
Q 2819 4750 3233 4129 
Q 3647 3509 3647 2328 
Q 3647 1150 3233 529 
Q 2819 -91 2034 -91 
Q 1250 -91 836 529 
Q 422 1150 422 2328 
Q 422 3509 836 4129 
Q 1250 4750 2034 4750 
z
" transform="scale(0.015625)"/>
       </defs>
       <use xlink:href="#DejaVuSans-30"/>
      </g>
     </g>
    </g>
    <g id="xtick_2">
     <g id="line2d_2">
      <g>
       <use xlink:href="#m303bcbbb7f" x="227.563636" y="504" style="stroke: #000000; stroke-width: 0.8"/>
      </g>
     </g>
     <g id="text_2">
      <!-- 1000 -->
      <g transform="translate(199.568636 527.716563)scale(0.22 -0.22)">
       <defs>
        <path id="DejaVuSans-31" d="M 794 531 
L 1825 531 
L 1825 4091 
L 703 3866 
L 703 4441 
L 1819 4666 
L 2450 4666 
L 2450 531 
L 3481 531 
L 3481 0 
L 794 0 
L 794 531 
z
" transform="scale(0.015625)"/>
       </defs>
       <use xlink:href="#DejaVuSans-31"/>
       <use xlink:href="#DejaVuSans-30" x="63.623047"/>
       <use xlink:href="#DejaVuSans-30" x="127.246094"/>
       <use xlink:href="#DejaVuSans-30" x="190.869141"/>
      </g>
     </g>
    </g>
    <g id="xtick_3">
     <g id="line2d_3">
      <g>
       <use xlink:href="#m303bcbbb7f" x="362.836364" y="504" style="stroke: #000000; stroke-width: 0.8"/>
      </g>
     </g>
     <g id="text_3">
      <!-- 2000 -->
      <g transform="translate(334.841364 527.716563)scale(0.22 -0.22)">
       <defs>
        <path id="DejaVuSans-32" d="M 1228 531 
L 3431 531 
L 3431 0 
L 469 0 
L 469 531 
Q 828 903 1448 1529 
Q 2069 2156 2228 2338 
Q 2531 2678 2651 2914 
Q 2772 3150 2772 3378 
Q 2772 3750 2511 3984 
Q 2250 4219 1831 4219 
Q 1534 4219 1204 4116 
Q 875 4013 500 3803 
L 500 4441 
Q 881 4594 1212 4672 
Q 1544 4750 1819 4750 
Q 2544 4750 2975 4387 
Q 3406 4025 3406 3419 
Q 3406 3131 3298 2873 
Q 3191 2616 2906 2266 
Q 2828 2175 2409 1742 
Q 1991 1309 1228 531 
z
" transform="scale(0.015625)"/>
       </defs>
       <use xlink:href="#DejaVuSans-32"/>
       <use xlink:href="#DejaVuSans-30" x="63.623047"/>
       <use xlink:href="#DejaVuSans-30" x="127.246094"/>
       <use xlink:href="#DejaVuSans-30" x="190.869141"/>
      </g>
     </g>
    </g>
    <g id="xtick_4">
     <g id="line2d_4">
      <g>
       <use xlink:href="#m303bcbbb7f" x="498.109091" y="504" style="stroke: #000000; stroke-width: 0.8"/>
      </g>
     </g>
     <g id="text_4">
      <!-- 3000 -->
      <g transform="translate(470.114091 527.716563)scale(0.22 -0.22)">
       <defs>
        <path id="DejaVuSans-33" d="M 2597 2516 
Q 3050 2419 3304 2112 
Q 3559 1806 3559 1356 
Q 3559 666 3084 287 
Q 2609 -91 1734 -91 
Q 1441 -91 1130 -33 
Q 819 25 488 141 
L 488 750 
Q 750 597 1062 519 
Q 1375 441 1716 441 
Q 2309 441 2620 675 
Q 2931 909 2931 1356 
Q 2931 1769 2642 2001 
Q 2353 2234 1838 2234 
L 1294 2234 
L 1294 2753 
L 1863 2753 
Q 2328 2753 2575 2939 
Q 2822 3125 2822 3475 
Q 2822 3834 2567 4026 
Q 2313 4219 1838 4219 
Q 1578 4219 1281 4162 
Q 984 4106 628 3988 
L 628 4550 
Q 988 4650 1302 4700 
Q 1616 4750 1894 4750 
Q 2613 4750 3031 4423 
Q 3450 4097 3450 3541 
Q 3450 3153 3228 2886 
Q 3006 2619 2597 2516 
z
" transform="scale(0.015625)"/>
       </defs>
       <use xlink:href="#DejaVuSans-33"/>
       <use xlink:href="#DejaVuSans-30" x="63.623047"/>
       <use xlink:href="#DejaVuSans-30" x="127.246094"/>
       <use xlink:href="#DejaVuSans-30" x="190.869141"/>
      </g>
     </g>
    </g>
    <g id="text_5">
     <!-- Time(ms) -->
     <g transform="translate(249.182187 552.307188)scale(0.22 -0.22)">
      <defs>
       <path id="ArialMT-54" d="M 1659 0 
L 1659 4041 
L 150 4041 
L 150 4581 
L 3781 4581 
L 3781 4041 
L 2266 4041 
L 2266 0 
L 1659 0 
z
" transform="scale(0.015625)"/>
       <path id="ArialMT-69" d="M 425 3934 
L 425 4581 
L 988 4581 
L 988 3934 
L 425 3934 
z
M 425 0 
L 425 3319 
L 988 3319 
L 988 0 
L 425 0 
z
" transform="scale(0.015625)"/>
       <path id="ArialMT-6d" d="M 422 0 
L 422 3319 
L 925 3319 
L 925 2853 
Q 1081 3097 1340 3245 
Q 1600 3394 1931 3394 
Q 2300 3394 2536 3241 
Q 2772 3088 2869 2813 
Q 3263 3394 3894 3394 
Q 4388 3394 4653 3120 
Q 4919 2847 4919 2278 
L 4919 0 
L 4359 0 
L 4359 2091 
Q 4359 2428 4304 2576 
Q 4250 2725 4106 2815 
Q 3963 2906 3769 2906 
Q 3419 2906 3187 2673 
Q 2956 2441 2956 1928 
L 2956 0 
L 2394 0 
L 2394 2156 
Q 2394 2531 2256 2718 
Q 2119 2906 1806 2906 
Q 1569 2906 1367 2781 
Q 1166 2656 1075 2415 
Q 984 2175 984 1722 
L 984 0 
L 422 0 
z
" transform="scale(0.015625)"/>
       <path id="ArialMT-65" d="M 2694 1069 
L 3275 997 
Q 3138 488 2766 206 
Q 2394 -75 1816 -75 
Q 1088 -75 661 373 
Q 234 822 234 1631 
Q 234 2469 665 2931 
Q 1097 3394 1784 3394 
Q 2450 3394 2872 2941 
Q 3294 2488 3294 1666 
Q 3294 1616 3291 1516 
L 816 1516 
Q 847 969 1125 678 
Q 1403 388 1819 388 
Q 2128 388 2347 550 
Q 2566 713 2694 1069 
z
M 847 1978 
L 2700 1978 
Q 2663 2397 2488 2606 
Q 2219 2931 1791 2931 
Q 1403 2931 1139 2672 
Q 875 2413 847 1978 
z
" transform="scale(0.015625)"/>
       <path id="ArialMT-28" d="M 1497 -1347 
Q 1031 -759 709 28 
Q 388 816 388 1659 
Q 388 2403 628 3084 
Q 909 3875 1497 4659 
L 1900 4659 
Q 1522 4009 1400 3731 
Q 1209 3300 1100 2831 
Q 966 2247 966 1656 
Q 966 153 1900 -1347 
L 1497 -1347 
z
" transform="scale(0.015625)"/>
       <path id="ArialMT-73" d="M 197 991 
L 753 1078 
Q 800 744 1014 566 
Q 1228 388 1613 388 
Q 2000 388 2187 545 
Q 2375 703 2375 916 
Q 2375 1106 2209 1216 
Q 2094 1291 1634 1406 
Q 1016 1563 777 1677 
Q 538 1791 414 1992 
Q 291 2194 291 2438 
Q 291 2659 392 2848 
Q 494 3038 669 3163 
Q 800 3259 1026 3326 
Q 1253 3394 1513 3394 
Q 1903 3394 2198 3281 
Q 2494 3169 2634 2976 
Q 2775 2784 2828 2463 
L 2278 2388 
Q 2241 2644 2061 2787 
Q 1881 2931 1553 2931 
Q 1166 2931 1000 2803 
Q 834 2675 834 2503 
Q 834 2394 903 2306 
Q 972 2216 1119 2156 
Q 1203 2125 1616 2013 
Q 2213 1853 2448 1751 
Q 2684 1650 2818 1456 
Q 2953 1263 2953 975 
Q 2953 694 2789 445 
Q 2625 197 2315 61 
Q 2006 -75 1616 -75 
Q 969 -75 630 194 
Q 291 463 197 991 
z
" transform="scale(0.015625)"/>
       <path id="ArialMT-29" d="M 791 -1347 
L 388 -1347 
Q 1322 153 1322 1656 
Q 1322 2244 1188 2822 
Q 1081 3291 891 3722 
Q 769 4003 388 4659 
L 791 4659 
Q 1378 3875 1659 3084 
Q 1900 2403 1900 1659 
Q 1900 816 1576 28 
Q 1253 -759 791 -1347 
z
" transform="scale(0.015625)"/>
      </defs>
      <use xlink:href="#ArialMT-54"/>
      <use xlink:href="#ArialMT-69" x="57.333984"/>
      <use xlink:href="#ArialMT-6d" x="79.550781"/>
      <use xlink:href="#ArialMT-65" x="162.851562"/>
      <use xlink:href="#ArialMT-28" x="218.466797"/>
      <use xlink:href="#ArialMT-6d" x="251.767578"/>
      <use xlink:href="#ArialMT-73" x="335.068359"/>
      <use xlink:href="#ArialMT-29" x="385.068359"/>
     </g>
    </g>
   </g>
   <g id="matplotlib.axis_2">
    <g id="ytick_1">
     <g id="line2d_5">
      <defs>
       <path id="m32a92db0da" d="M 0 0 
L -3.5 0 
" style="stroke: #000000; stroke-width: 0.8"/>
      </defs>
      <g>
       <use xlink:href="#m32a92db0da" x="72" y="476.82" style="stroke: #000000; stroke-width: 0.8"/>
      </g>
     </g>
     <g id="text_6">
      <!-- −100 -->
      <g transform="translate(4.572187 485.178281)scale(0.22 -0.22)">
       <defs>
        <path id="DejaVuSans-2212" d="M 678 2272 
L 4684 2272 
L 4684 1741 
L 678 1741 
L 678 2272 
z
" transform="scale(0.015625)"/>
       </defs>
       <use xlink:href="#DejaVuSans-2212"/>
       <use xlink:href="#DejaVuSans-31" x="83.789062"/>
       <use xlink:href="#DejaVuSans-30" x="147.412109"/>
       <use xlink:href="#DejaVuSans-30" x="211.035156"/>
      </g>
     </g>
    </g>
    <g id="ytick_2">
     <g id="line2d_6">
      <g>
       <use xlink:href="#m32a92db0da" x="72" y="422.46" style="stroke: #000000; stroke-width: 0.8"/>
      </g>
     </g>
     <g id="text_7">
      <!-- −80 -->
      <g transform="translate(18.569688 430.818281)scale(0.22 -0.22)">
       <defs>
        <path id="DejaVuSans-38" d="M 2034 2216 
Q 1584 2216 1326 1975 
Q 1069 1734 1069 1313 
Q 1069 891 1326 650 
Q 1584 409 2034 409 
Q 2484 409 2743 651 
Q 3003 894 3003 1313 
Q 3003 1734 2745 1975 
Q 2488 2216 2034 2216 
z
M 1403 2484 
Q 997 2584 770 2862 
Q 544 3141 544 3541 
Q 544 4100 942 4425 
Q 1341 4750 2034 4750 
Q 2731 4750 3128 4425 
Q 3525 4100 3525 3541 
Q 3525 3141 3298 2862 
Q 3072 2584 2669 2484 
Q 3125 2378 3379 2068 
Q 3634 1759 3634 1313 
Q 3634 634 3220 271 
Q 2806 -91 2034 -91 
Q 1263 -91 848 271 
Q 434 634 434 1313 
Q 434 1759 690 2068 
Q 947 2378 1403 2484 
z
M 1172 3481 
Q 1172 3119 1398 2916 
Q 1625 2713 2034 2713 
Q 2441 2713 2670 2916 
Q 2900 3119 2900 3481 
Q 2900 3844 2670 4047 
Q 2441 4250 2034 4250 
Q 1625 4250 1398 4047 
Q 1172 3844 1172 3481 
z
" transform="scale(0.015625)"/>
       </defs>
       <use xlink:href="#DejaVuSans-2212"/>
       <use xlink:href="#DejaVuSans-38" x="83.789062"/>
       <use xlink:href="#DejaVuSans-30" x="147.412109"/>
      </g>
     </g>
    </g>
    <g id="ytick_3">
     <g id="line2d_7">
      <g>
       <use xlink:href="#m32a92db0da" x="72" y="368.1" style="stroke: #000000; stroke-width: 0.8"/>
      </g>
     </g>
     <g id="text_8">
      <!-- −60 -->
      <g transform="translate(18.569688 376.458281)scale(0.22 -0.22)">
       <defs>
        <path id="DejaVuSans-36" d="M 2113 2584 
Q 1688 2584 1439 2293 
Q 1191 2003 1191 1497 
Q 1191 994 1439 701 
Q 1688 409 2113 409 
Q 2538 409 2786 701 
Q 3034 994 3034 1497 
Q 3034 2003 2786 2293 
Q 2538 2584 2113 2584 
z
M 3366 4563 
L 3366 3988 
Q 3128 4100 2886 4159 
Q 2644 4219 2406 4219 
Q 1781 4219 1451 3797 
Q 1122 3375 1075 2522 
Q 1259 2794 1537 2939 
Q 1816 3084 2150 3084 
Q 2853 3084 3261 2657 
Q 3669 2231 3669 1497 
Q 3669 778 3244 343 
Q 2819 -91 2113 -91 
Q 1303 -91 875 529 
Q 447 1150 447 2328 
Q 447 3434 972 4092 
Q 1497 4750 2381 4750 
Q 2619 4750 2861 4703 
Q 3103 4656 3366 4563 
z
" transform="scale(0.015625)"/>
       </defs>
       <use xlink:href="#DejaVuSans-2212"/>
       <use xlink:href="#DejaVuSans-36" x="83.789062"/>
       <use xlink:href="#DejaVuSans-30" x="147.412109"/>
      </g>
     </g>
    </g>
    <g id="ytick_4">
     <g id="line2d_8">
      <g>
       <use xlink:href="#m32a92db0da" x="72" y="313.74" style="stroke: #000000; stroke-width: 0.8"/>
      </g>
     </g>
     <g id="text_9">
      <!-- −40 -->
      <g transform="translate(18.569688 322.098281)scale(0.22 -0.22)">
       <defs>
        <path id="DejaVuSans-34" d="M 2419 4116 
L 825 1625 
L 2419 1625 
L 2419 4116 
z
M 2253 4666 
L 3047 4666 
L 3047 1625 
L 3713 1625 
L 3713 1100 
L 3047 1100 
L 3047 0 
L 2419 0 
L 2419 1100 
L 313 1100 
L 313 1709 
L 2253 4666 
z
" transform="scale(0.015625)"/>
       </defs>
       <use xlink:href="#DejaVuSans-2212"/>
       <use xlink:href="#DejaVuSans-34" x="83.789062"/>
       <use xlink:href="#DejaVuSans-30" x="147.412109"/>
      </g>
     </g>
    </g>
    <g id="ytick_5">
     <g id="line2d_9">
      <g>
       <use xlink:href="#m32a92db0da" x="72" y="259.38" style="stroke: #000000; stroke-width: 0.8"/>
      </g>
     </g>
     <g id="text_10">
      <!-- −20 -->
      <g transform="translate(18.569688 267.738281)scale(0.22 -0.22)">
       <use xlink:href="#DejaVuSans-2212"/>
       <use xlink:href="#DejaVuSans-32" x="83.789062"/>
       <use xlink:href="#DejaVuSans-30" x="147.412109"/>
      </g>
     </g>
    </g>
    <g id="ytick_6">
     <g id="line2d_10">
      <g>
       <use xlink:href="#m32a92db0da" x="72" y="205.02" style="stroke: #000000; stroke-width: 0.8"/>
      </g>
     </g>
     <g id="text_11">
      <!-- 0 -->
      <g transform="translate(51.0025 213.378281)scale(0.22 -0.22)">
       <use xlink:href="#DejaVuSans-30"/>
      </g>
     </g>
    </g>
    <g id="ytick_7">
     <g id="line2d_11">
      <g>
       <use xlink:href="#m32a92db0da" x="72" y="150.66" style="stroke: #000000; stroke-width: 0.8"/>
      </g>
     </g>
     <g id="text_12">
      <!-- 20 -->
      <g transform="translate(37.005 159.018281)scale(0.22 -0.22)">
       <use xlink:href="#DejaVuSans-32"/>
       <use xlink:href="#DejaVuSans-30" x="63.623047"/>
      </g>
     </g>
    </g>
    <g id="ytick_8">
     <g id="line2d_12">
      <g>
       <use xlink:href="#m32a92db0da" x="72" y="96.3" style="stroke: #000000; stroke-width: 0.8"/>
      </g>
     </g>
     <g id="text_13">
      <!-- 40 -->
      <g transform="translate(37.005 104.658281)scale(0.22 -0.22)">
       <use xlink:href="#DejaVuSans-34"/>
       <use xlink:href="#DejaVuSans-30" x="63.623047"/>
      </g>
     </g>
    </g>
    <g id="text_14">
     <!-- Membrane potential (mV) -->
     <g transform="translate(-4.058125 410.655469)rotate(-90)scale(0.22 -0.22)">
      <defs>
       <path id="ArialMT-4d" d="M 475 0 
L 475 4581 
L 1388 4581 
L 2472 1338 
Q 2622 884 2691 659 
Q 2769 909 2934 1394 
L 4031 4581 
L 4847 4581 
L 4847 0 
L 4263 0 
L 4263 3834 
L 2931 0 
L 2384 0 
L 1059 3900 
L 1059 0 
L 475 0 
z
" transform="scale(0.015625)"/>
       <path id="ArialMT-62" d="M 941 0 
L 419 0 
L 419 4581 
L 981 4581 
L 981 2947 
Q 1338 3394 1891 3394 
Q 2197 3394 2470 3270 
Q 2744 3147 2920 2923 
Q 3097 2700 3197 2384 
Q 3297 2069 3297 1709 
Q 3297 856 2875 390 
Q 2453 -75 1863 -75 
Q 1275 -75 941 416 
L 941 0 
z
M 934 1684 
Q 934 1088 1097 822 
Q 1363 388 1816 388 
Q 2184 388 2453 708 
Q 2722 1028 2722 1663 
Q 2722 2313 2464 2622 
Q 2206 2931 1841 2931 
Q 1472 2931 1203 2611 
Q 934 2291 934 1684 
z
" transform="scale(0.015625)"/>
       <path id="ArialMT-72" d="M 416 0 
L 416 3319 
L 922 3319 
L 922 2816 
Q 1116 3169 1280 3281 
Q 1444 3394 1641 3394 
Q 1925 3394 2219 3213 
L 2025 2691 
Q 1819 2813 1613 2813 
Q 1428 2813 1281 2702 
Q 1134 2591 1072 2394 
Q 978 2094 978 1738 
L 978 0 
L 416 0 
z
" transform="scale(0.015625)"/>
       <path id="ArialMT-61" d="M 2588 409 
Q 2275 144 1986 34 
Q 1697 -75 1366 -75 
Q 819 -75 525 192 
Q 231 459 231 875 
Q 231 1119 342 1320 
Q 453 1522 633 1644 
Q 813 1766 1038 1828 
Q 1203 1872 1538 1913 
Q 2219 1994 2541 2106 
Q 2544 2222 2544 2253 
Q 2544 2597 2384 2738 
Q 2169 2928 1744 2928 
Q 1347 2928 1158 2789 
Q 969 2650 878 2297 
L 328 2372 
Q 403 2725 575 2942 
Q 747 3159 1072 3276 
Q 1397 3394 1825 3394 
Q 2250 3394 2515 3294 
Q 2781 3194 2906 3042 
Q 3031 2891 3081 2659 
Q 3109 2516 3109 2141 
L 3109 1391 
Q 3109 606 3145 398 
Q 3181 191 3288 0 
L 2700 0 
Q 2613 175 2588 409 
z
M 2541 1666 
Q 2234 1541 1622 1453 
Q 1275 1403 1131 1340 
Q 988 1278 909 1158 
Q 831 1038 831 891 
Q 831 666 1001 516 
Q 1172 366 1500 366 
Q 1825 366 2078 508 
Q 2331 650 2450 897 
Q 2541 1088 2541 1459 
L 2541 1666 
z
" transform="scale(0.015625)"/>
       <path id="ArialMT-6e" d="M 422 0 
L 422 3319 
L 928 3319 
L 928 2847 
Q 1294 3394 1984 3394 
Q 2284 3394 2536 3286 
Q 2788 3178 2913 3003 
Q 3038 2828 3088 2588 
Q 3119 2431 3119 2041 
L 3119 0 
L 2556 0 
L 2556 2019 
Q 2556 2363 2490 2533 
Q 2425 2703 2258 2804 
Q 2091 2906 1866 2906 
Q 1506 2906 1245 2678 
Q 984 2450 984 1813 
L 984 0 
L 422 0 
z
" transform="scale(0.015625)"/>
       <path id="ArialMT-20" transform="scale(0.015625)"/>
       <path id="ArialMT-70" d="M 422 -1272 
L 422 3319 
L 934 3319 
L 934 2888 
Q 1116 3141 1344 3267 
Q 1572 3394 1897 3394 
Q 2322 3394 2647 3175 
Q 2972 2956 3137 2557 
Q 3303 2159 3303 1684 
Q 3303 1175 3120 767 
Q 2938 359 2589 142 
Q 2241 -75 1856 -75 
Q 1575 -75 1351 44 
Q 1128 163 984 344 
L 984 -1272 
L 422 -1272 
z
M 931 1641 
Q 931 1000 1190 694 
Q 1450 388 1819 388 
Q 2194 388 2461 705 
Q 2728 1022 2728 1688 
Q 2728 2322 2467 2637 
Q 2206 2953 1844 2953 
Q 1484 2953 1207 2617 
Q 931 2281 931 1641 
z
" transform="scale(0.015625)"/>
       <path id="ArialMT-6f" d="M 213 1659 
Q 213 2581 725 3025 
Q 1153 3394 1769 3394 
Q 2453 3394 2887 2945 
Q 3322 2497 3322 1706 
Q 3322 1066 3130 698 
Q 2938 331 2570 128 
Q 2203 -75 1769 -75 
Q 1072 -75 642 372 
Q 213 819 213 1659 
z
M 791 1659 
Q 791 1022 1069 705 
Q 1347 388 1769 388 
Q 2188 388 2466 706 
Q 2744 1025 2744 1678 
Q 2744 2294 2464 2611 
Q 2184 2928 1769 2928 
Q 1347 2928 1069 2612 
Q 791 2297 791 1659 
z
" transform="scale(0.015625)"/>
       <path id="ArialMT-74" d="M 1650 503 
L 1731 6 
Q 1494 -44 1306 -44 
Q 1000 -44 831 53 
Q 663 150 594 308 
Q 525 466 525 972 
L 525 2881 
L 113 2881 
L 113 3319 
L 525 3319 
L 525 4141 
L 1084 4478 
L 1084 3319 
L 1650 3319 
L 1650 2881 
L 1084 2881 
L 1084 941 
Q 1084 700 1114 631 
Q 1144 563 1211 522 
Q 1278 481 1403 481 
Q 1497 481 1650 503 
z
" transform="scale(0.015625)"/>
       <path id="ArialMT-6c" d="M 409 0 
L 409 4581 
L 972 4581 
L 972 0 
L 409 0 
z
" transform="scale(0.015625)"/>
       <path id="ArialMT-56" d="M 1803 0 
L 28 4581 
L 684 4581 
L 1875 1253 
Q 2019 853 2116 503 
Q 2222 878 2363 1253 
L 3600 4581 
L 4219 4581 
L 2425 0 
L 1803 0 
z
" transform="scale(0.015625)"/>
      </defs>
      <use xlink:href="#ArialMT-4d"/>
      <use xlink:href="#ArialMT-65" x="83.300781"/>
      <use xlink:href="#ArialMT-6d" x="138.916016"/>
      <use xlink:href="#ArialMT-62" x="222.216797"/>
      <use xlink:href="#ArialMT-72" x="277.832031"/>
      <use xlink:href="#ArialMT-61" x="311.132812"/>
      <use xlink:href="#ArialMT-6e" x="366.748047"/>
      <use xlink:href="#ArialMT-65" x="422.363281"/>
      <use xlink:href="#ArialMT-20" x="477.978516"/>
      <use xlink:href="#ArialMT-70" x="505.761719"/>
      <use xlink:href="#ArialMT-6f" x="561.376953"/>
      <use xlink:href="#ArialMT-74" x="616.992188"/>
      <use xlink:href="#ArialMT-65" x="644.775391"/>
      <use xlink:href="#ArialMT-6e" x="700.390625"/>
      <use xlink:href="#ArialMT-74" x="756.005859"/>
      <use xlink:href="#ArialMT-69" x="783.789062"/>
      <use xlink:href="#ArialMT-61" x="806.005859"/>
      <use xlink:href="#ArialMT-6c" x="861.621094"/>
      <use xlink:href="#ArialMT-20" x="883.837891"/>
      <use xlink:href="#ArialMT-28" x="911.621094"/>
      <use xlink:href="#ArialMT-6d" x="944.921875"/>
      <use xlink:href="#ArialMT-56" x="1028.222656"/>
      <use xlink:href="#ArialMT-29" x="1094.921875"/>
     </g>
    </g>
   </g>
   <g id="line2d_13">
    <path d="M 92.290909 460.512 
L 92.493818 467.127382 
L 92.832 469.740087 
L 93.305455 471.645992 
L 93.778909 472.743287 
L 94.32 473.467633 
L 94.928727 473.912018 
L 95.740364 474.197699 
L 96.957818 474.35298 
L 99.663273 474.410859 
L 130.640727 474.414151 
L 159.927273 474.414155 
L 160.130182 456.174191 
L 160.536 445.636446 
L 161.144727 436.083817 
L 161.821091 429.001979 
L 162.565091 423.459431 
L 163.376727 418.958415 
L 164.323636 414.951272 
L 165.338182 411.609654 
L 166.488 408.608379 
L 167.705455 406.052566 
L 169.058182 403.736368 
L 170.546182 401.640622 
L 172.169455 399.740867 
L 173.995636 397.948574 
L 176.092364 396.208122 
L 178.527273 394.477228 
L 181.773818 392.458323 
L 183.261818 391.451083 
L 184.141091 390.843085 
L 188.605091 388.061156 
L 190.701818 386.364491 
L 191.445818 385.587364 
L 191.986909 384.750102 
L 192.528 383.956446 
L 193.677818 383.658354 
L 194.354182 383.217111 
L 195.165818 382.257136 
L 195.504 381.927147 
L 196.518545 381.222735 
L 197.059636 380.651147 
L 197.397818 380.173204 
L 198.48 379.684941 
L 199.224 378.970244 
L 200.576727 377.420485 
L 201.388364 376.327978 
L 201.794182 375.573077 
L 202.470545 374.982506 
L 202.876364 374.414005 
L 203.755636 373.585906 
L 204.499636 372.54412 
L 205.378909 370.937766 
L 207.610909 364.473109 
L 208.152 361.851039 
L 208.693091 358.126259 
L 209.098909 353.759178 
L 209.437091 347.263061 
L 209.64 339.435806 
L 209.775273 326.926976 
L 209.842909 306.640545 
L 209.910545 140.052969 
L 210.113455 364.671194 
L 210.316364 383.73793 
L 210.519273 380.535616 
L 210.857455 376.194027 
L 211.195636 374.384989 
L 211.669091 373.185489 
L 212.210182 372.249791 
L 213.562909 370.59677 
L 213.833455 370.372108 
L 214.374545 370.182221 
L 214.915636 369.655126 
L 215.592 368.661002 
L 216.471273 366.85821 
L 217.012364 365.27287 
L 217.553455 362.964707 
L 217.959273 360.279499 
L 218.432727 355.168917 
L 218.838545 348.964367 
L 219.109091 340.470092 
L 219.244364 330.570332 
L 219.312 318.700442 
L 219.447273 209.379408 
L 219.650182 373.247692 
L 219.785455 383.332868 
L 219.853091 383.103828 
L 220.461818 375.508446 
L 220.8 374.106339 
L 221.205818 373.344556 
L 221.746909 372.793032 
L 222.693818 371.932519 
L 222.964364 371.613195 
L 223.911273 371.330559 
L 224.249455 370.972876 
L 224.993455 369.979187 
L 225.805091 368.906348 
L 226.481455 367.643242 
L 227.090182 366.022581 
L 227.496 364.328463 
L 228.984 356.187237 
L 229.322182 352.186533 
L 229.592727 346.758004 
L 229.795636 338.927376 
L 229.930909 326.292518 
L 229.998545 305.33261 
L 230.066182 142.568308 
L 230.269091 365.015501 
L 230.472 383.710705 
L 230.674909 380.549813 
L 231.013091 376.076046 
L 231.351273 374.121934 
L 231.757091 373.060886 
L 232.298182 372.324408 
L 233.245091 371.257979 
L 233.583273 370.739259 
L 234.800727 370.046057 
L 235.409455 369.238614 
L 236.018182 368.031824 
L 236.491636 366.603864 
L 237.235636 363.527039 
L 238.520727 356.865058 
L 238.926545 352.558528 
L 239.197091 347.5806 
L 239.4 340.789144 
L 239.535273 331.429704 
L 239.602909 320.827106 
L 239.738182 190.022234 
L 239.941091 371.603498 
L 240.076364 383.375875 
L 240.144 383.304732 
L 240.820364 374.926783 
L 241.226182 373.31828 
L 241.699636 372.241482 
L 242.443636 371.290684 
L 242.917091 370.57992 
L 243.661091 369.333962 
L 243.999273 368.525319 
L 244.337455 367.914302 
L 244.743273 367.39231 
L 245.149091 366.738497 
L 245.757818 365.765947 
L 246.298909 364.437565 
L 246.84 362.479421 
L 247.381091 359.572659 
L 247.854545 355.571899 
L 248.192727 350.933932 
L 248.463273 344.298918 
L 248.666182 332.921703 
L 248.733818 323.713311 
L 248.801455 292.636173 
L 248.869091 164.175985 
L 249.072 368.780835 
L 249.207273 383.071218 
L 249.274909 383.227149 
L 250.018909 373.826637 
L 250.357091 372.837071 
L 250.830545 372.186968 
L 251.574545 371.598121 
L 252.656727 370.745163 
L 253.265455 369.92805 
L 253.536 369.333102 
L 253.941818 368.143472 
L 254.482909 367.505142 
L 255.294545 365.545918 
L 255.903273 363.672892 
L 256.512 360.950608 
L 256.985455 357.730433 
L 257.323636 353.847067 
L 257.661818 347.634103 
L 257.864727 340.9179 
L 258 331.638292 
L 258.067636 321.193266 
L 258.202909 187.159204 
L 258.405818 371.219454 
L 258.541091 383.187652 
L 258.608727 383.152487 
L 259.285091 374.767265 
L 259.758545 372.702474 
L 260.164364 371.868335 
L 260.637818 370.89751 
L 261.111273 369.722953 
L 261.652364 369.322701 
L 262.396364 368.673384 
L 262.937455 367.900308 
L 263.749091 366.302203 
L 264.154909 364.970669 
L 265.372364 360.090396 
L 265.845818 356.195953 
L 266.251636 351.056237 
L 266.522182 344.61607 
L 266.725091 333.755351 
L 266.792727 325.337215 
L 266.860364 301.010905 
L 266.928 149.778851 
L 267.130909 366.500312 
L 267.333818 383.285582 
L 267.604364 379.022679 
L 267.942545 375.265599 
L 268.280727 373.506227 
L 268.686545 372.555226 
L 269.295273 371.814756 
L 270.174545 370.791153 
L 270.580364 370.067719 
L 271.053818 369.618648 
L 271.459636 369.143075 
L 272.000727 368.555003 
L 272.541818 367.608281 
L 273.082909 366.198308 
L 273.488727 364.612064 
L 274.638545 357.856405 
L 275.044364 353.752754 
L 275.382545 347.884212 
L 275.585455 341.237306 
L 275.720727 332.155536 
L 275.788364 322.176935 
L 275.923636 178.481105 
L 276.126545 370.363067 
L 276.261818 383.157044 
L 276.329455 383.203877 
L 277.073455 374.177761 
L 277.411636 373.211519 
L 277.885091 372.615108 
L 279.440727 370.993903 
L 280.928727 368.43112 
L 281.537455 367.848457 
L 282.078545 366.931663 
L 282.687273 365.418553 
L 283.228364 363.497648 
L 283.701818 361.058138 
L 284.310545 356.020091 
L 284.648727 351.872335 
L 284.919273 346.268533 
L 285.122182 337.95262 
L 285.257455 323.336872 
L 285.325091 290.517542 
L 285.392727 167.433252 
L 285.595636 369.230075 
L 285.730909 383.235343 
L 285.798545 383.398532 
L 286.610182 373.900504 
L 287.151273 372.177572 
L 287.489455 371.919205 
L 287.962909 371.558277 
L 288.571636 371.074009 
L 289.518545 370.319417 
L 290.262545 369.384939 
L 290.668364 368.579236 
L 291.074182 367.549371 
L 291.547636 366.693731 
L 292.156364 364.811239 
L 292.765091 362.427416 
L 293.170909 359.97116 
L 293.712 355.353945 
L 294.050182 350.230174 
L 294.320727 342.519257 
L 294.456 334.892295 
L 294.591273 310.544396 
L 294.658909 140.306629 
L 294.861818 361.977725 
L 295.064727 383.416814 
L 295.2 381.689571 
L 295.605818 376.078289 
L 295.944 374.104732 
L 296.349818 372.966162 
L 297.634909 370.587943 
L 298.176 370.074027 
L 298.852364 369.398352 
L 299.190545 368.758893 
L 299.596364 368.041648 
L 300.069818 367.148836 
L 300.746182 365.156426 
L 301.828364 361.30944 
L 302.301818 358.248816 
L 302.707636 354.014712 
L 302.978182 349.144393 
L 303.248727 339.386646 
L 303.384 327.197541 
L 303.451636 308.434655 
L 303.519273 138.95048 
L 303.722182 363.583603 
L 303.925091 383.606331 
L 304.128 380.594005 
L 304.466182 376.308551 
L 304.804364 374.390841 
L 305.345455 372.848245 
L 305.683636 372.484832 
L 306.427636 371.888891 
L 306.833455 371.359168 
L 307.645091 371.168402 
L 308.186182 370.714959 
L 308.794909 369.961123 
L 309.200727 369.148805 
L 311.229818 363.690706 
L 311.635636 361.583999 
L 312.244364 357.622933 
L 312.650182 353.120346 
L 312.988364 346.317848 
L 313.191273 337.591569 
L 313.326545 321.135165 
L 313.461818 190.257262 
L 313.664727 371.899137 
L 313.8 383.482427 
L 313.867636 383.368683 
L 314.544 374.769852 
L 314.949818 373.179561 
L 315.490909 372.067724 
L 316.302545 370.682794 
L 316.708364 369.962771 
L 317.046545 369.463385 
L 317.722909 368.958512 
L 318.196364 368.280633 
L 318.534545 367.484252 
L 319.008 366.397206 
L 319.549091 364.97091 
L 319.954909 363.204625 
L 320.766545 359.36908 
L 321.172364 356.050173 
L 321.510545 351.429043 
L 321.781091 344.987571 
L 321.984 334.680588 
L 322.119273 308.431471 
L 322.186909 139.199541 
L 322.389818 363.347884 
L 322.592727 383.366659 
L 322.795636 380.26618 
L 323.201455 375.170263 
L 323.607273 372.926097 
L 323.945455 372.348832 
L 325.568727 370.389908 
L 326.042182 369.782867 
L 326.380364 369.233018 
L 327.056727 367.689493 
L 327.597818 366.959418 
L 328.206545 365.679247 
L 328.747636 364.09886 
L 329.288727 361.796699 
L 329.694545 359.24835 
L 330.100364 354.942252 
L 330.438545 349.734175 
L 330.709091 341.56786 
L 330.844364 332.874149 
L 330.912 323.757645 
L 330.979636 293.522618 
L 331.047273 163.073752 
L 331.250182 368.567411 
L 331.385455 383.075384 
L 331.453091 383.312416 
L 332.264727 374.098719 
L 332.670545 372.669409 
L 333.346909 371.371024 
L 333.617455 371.330495 
L 334.226182 371.277887 
L 334.902545 370.975507 
L 335.578909 370.410955 
L 336.12 369.677792 
L 336.390545 369.007884 
L 336.728727 368.327463 
L 337.269818 367.526513 
L 337.878545 366.2116 
L 338.352 364.672535 
L 339.096 360.86658 
L 339.569455 357.01407 
L 339.975273 351.550873 
L 340.245818 345.742718 
L 340.448727 336.95071 
L 340.584 320.129816 
L 340.719273 197.076608 
L 340.922182 372.118859 
L 341.057455 383.166032 
L 341.125091 383.003961 
L 341.801455 374.380489 
L 342.274909 372.266137 
L 343.018909 370.126248 
L 344.168727 369.428865 
L 344.777455 368.640768 
L 345.183273 367.736032 
L 346.468364 364.229777 
L 347.618182 358.362475 
L 348.024 354.4185 
L 348.362182 348.686081 
L 348.632727 339.577663 
L 348.768 328.15709 
L 348.835636 311.932376 
L 348.903273 142.9002 
L 349.106182 360.974054 
L 349.309091 383.278173 
L 349.444364 381.484859 
L 349.850182 375.524151 
L 350.188364 373.664846 
L 350.594182 372.617568 
L 351.338182 371.366285 
L 352.961455 369.650843 
L 353.637818 368.162525 
L 354.314182 367.28529 
L 354.787636 366.222523 
L 355.396364 364.14753 
L 355.937455 361.558109 
L 356.478545 357.352334 
L 357.019636 350.495737 
L 357.290182 344.003597 
L 357.493091 332.638005 
L 357.560727 323.314599 
L 357.628364 290.940999 
L 357.696 166.986932 
L 357.898909 368.914803 
L 358.034182 382.931347 
L 358.101818 383.100602 
L 358.845818 374.155864 
L 359.251636 372.665456 
L 360.266182 370.286674 
L 360.672 370.149872 
L 361.145455 369.883647 
L 361.686545 369.315558 
L 362.092364 368.580713 
L 363.648 365.388214 
L 364.053818 363.644449 
L 364.933091 359.770965 
L 365.338909 356.675012 
L 365.744727 351.574868 
L 366.015273 345.393052 
L 366.218182 335.558658 
L 366.353455 313.00845 
L 366.421091 145.998775 
L 366.488727 252.71883 
L 366.691636 376.113236 
L 366.826909 383.099984 
L 366.962182 381.29385 
L 367.368 375.079899 
L 367.706182 373.065523 
L 368.179636 371.691662 
L 368.585455 371.082866 
L 370.344 369.085126 
L 370.817455 368.047278 
L 371.426182 367.256238 
L 371.967273 366.125779 
L 372.508364 364.459818 
L 373.522909 359.524879 
L 373.996364 355.178384 
L 374.334545 349.782313 
L 374.605091 342.226643 
L 374.740364 334.562003 
L 374.875636 309.268411 
L 374.943273 139.985728 
L 375.146182 362.602269 
L 375.349091 383.296114 
L 375.484364 381.532726 
L 375.890182 375.927081 
L 376.228364 373.93826 
L 376.634182 372.793741 
L 377.919273 370.472432 
L 379.272 369.460941 
L 379.677818 368.757379 
L 380.692364 365.942064 
L 381.368727 363.873978 
L 381.842182 362.108661 
L 382.315636 359.528133 
L 382.721455 356.210385 
L 383.059636 351.844492 
L 383.330182 345.760838 
L 383.533091 336.040849 
L 383.668364 314.767575 
L 383.736 157.86026 
L 383.803636 241.179932 
L 384.006545 375.601172 
L 384.141818 383.308694 
L 384.277091 381.715677 
L 384.682909 376.075714 
L 385.021091 374.072559 
L 385.426909 372.892183 
L 386.509091 370.763469 
L 387.388364 369.590719 
L 387.861818 368.600755 
L 388.2 368.104721 
L 388.741091 367.327601 
L 389.282182 366.323057 
L 389.823273 364.916196 
L 390.364364 362.845949 
L 390.770182 360.586163 
L 391.446545 354.561197 
L 391.784727 349.084524 
L 392.055273 340.10182 
L 392.190545 329.288569 
L 392.258182 315.069531 
L 392.325818 164.724899 
L 392.393455 238.399468 
L 392.596364 375.420199 
L 392.731636 383.428972 
L 392.866909 381.850302 
L 393.272727 375.782894 
L 393.610909 373.662405 
L 394.152 371.946421 
L 394.490182 371.629236 
L 395.842909 370.719616 
L 396.519273 369.879577 
L 397.060364 368.854557 
L 397.804364 366.908468 
L 398.345455 365.847735 
L 398.751273 364.529799 
L 399.698182 360.771865 
L 400.171636 357.560992 
L 400.509818 353.89008 
L 400.848 347.209686 
L 401.050909 339.769518 
L 401.186182 328.742242 
L 401.253818 313.795511 
L 401.321455 153.565757 
L 401.389091 247.022698 
L 401.592 375.82244 
L 401.727273 383.314137 
L 401.862545 381.666724 
L 402.268364 375.787799 
L 402.674182 373.259944 
L 403.215273 371.347024 
L 404.094545 369.152487 
L 404.770909 368.868145 
L 405.176727 368.381588 
L 406.258909 366.256705 
L 406.732364 364.845606 
L 407.746909 360.403007 
L 408.220364 357.170414 
L 408.626182 352.562301 
L 408.964364 345.474954 
L 409.167273 336.211789 
L 409.302545 317.101368 
L 409.370182 202.999504 
L 409.437818 222.500841 
L 409.640727 374.225266 
L 409.776 383.208678 
L 409.911273 381.632988 
L 410.384727 374.477982 
L 410.722909 372.901414 
L 411.128727 372.158483 
L 411.872727 371.400325 
L 413.022545 370.181172 
L 413.496 369.431525 
L 413.969455 368.421317 
L 414.578182 367.541952 
L 415.119273 366.285084 
L 415.592727 364.528321 
L 416.404364 360.8981 
L 416.810182 357.866063 
L 417.351273 351.638117 
L 417.621818 345.845317 
L 417.824727 336.818241 
L 417.96 319.27237 
L 418.095273 204.932372 
L 418.298182 373.001391 
L 418.433455 383.385569 
L 418.501091 383.14682 
L 419.109818 375.068488 
L 419.515636 373.192721 
L 420.394909 370.854201 
L 421.747636 368.877769 
L 422.762182 367.421076 
L 423.303273 366.300856 
L 423.641455 365.080579 
L 424.994182 359.905425 
L 425.467636 356.099985 
L 425.805818 351.693773 
L 426.076364 345.536726 
L 426.279273 335.772232 
L 426.414545 313.687031 
L 426.482182 149.075176 
L 426.549818 248.483731 
L 426.752727 375.836949 
L 426.888 382.974569 
L 427.023273 381.164983 
L 427.429091 375.551479 
L 427.767273 373.727274 
L 428.173091 372.787199 
L 428.714182 372.165 
L 430.066909 370.829841 
L 430.472727 369.934407 
L 430.675636 392.389417 
L 431.149091 412.057275 
L 432.096 441.613277 
L 432.772364 456.478701 
L 433.313455 463.903279 
L 433.854545 468.384373 
L 434.395636 471.001611 
L 434.936727 472.508169 
L 435.477818 473.368489 
L 436.086545 473.90045 
L 436.830545 474.219987 
L 437.845091 474.389935 
L 439.806545 474.45047 
L 486.543273 474.414021 
L 498.109091 474.414042 
L 498.109091 474.414042 
" clip-path="url(#pb1d8b47bf4)" style="fill: none; stroke: #000000; stroke-width: 1.5; stroke-linecap: square"/>
   </g>
   <g id="line2d_14">
    <path d="M 497.973818 408.87 
" clip-path="url(#pb1d8b47bf4)" style="fill: none; stroke: #000000; stroke-width: 1.5; stroke-linecap: square"/>
   </g>
   <g id="line2d_15">
    <path d="M 430.472727 368.1 
L 430.472727 365.382 
L 430.472727 362.664 
L 430.472727 359.946 
L 430.472727 357.228 
L 430.472727 354.51 
L 430.472727 351.792 
L 430.472727 349.074 
L 430.472727 346.356 
L 430.472727 343.638 
L 430.472727 340.92 
L 430.472727 338.202 
L 430.472727 335.484 
L 430.472727 332.766 
L 430.472727 330.048 
L 430.472727 327.33 
L 430.472727 324.612 
L 430.472727 321.894 
L 430.472727 319.176 
L 430.472727 316.458 
" clip-path="url(#pb1d8b47bf4)" style="fill: none; stroke: #000000; stroke-width: 1.5; stroke-linecap: square"/>
   </g>
   <g id="patch_3">
    <path d="M 72 504 
L 72 69.12 
" style="fill: none; stroke: #000000; stroke-width: 0.8; stroke-linejoin: miter; stroke-linecap: square"/>
   </g>
   <g id="patch_4">
    <path d="M 518.4 504 
L 518.4 69.12 
" style="fill: none; stroke: #000000; stroke-width: 0.8; stroke-linejoin: miter; stroke-linecap: square"/>
   </g>
   <g id="patch_5">
    <path d="M 72 504 
L 518.4 504 
" style="fill: none; stroke: #000000; stroke-width: 0.8; stroke-linejoin: miter; stroke-linecap: square"/>
   </g>
   <g id="patch_6">
    <path d="M 72 69.12 
L 518.4 69.12 
" style="fill: none; stroke: #000000; stroke-width: 0.8; stroke-linejoin: miter; stroke-linecap: square"/>
   </g>
   <g id="text_15">
    <!-- 500 ms -->
    <g transform="translate(497.973818 406.152)scale(0.22 -0.22)">
     <defs>
      <path id="ArialMT-35" d="M 266 1200 
L 856 1250 
Q 922 819 1161 601 
Q 1400 384 1738 384 
Q 2144 384 2425 690 
Q 2706 997 2706 1503 
Q 2706 1984 2436 2262 
Q 2166 2541 1728 2541 
Q 1456 2541 1237 2417 
Q 1019 2294 894 2097 
L 366 2166 
L 809 4519 
L 3088 4519 
L 3088 3981 
L 1259 3981 
L 1013 2750 
Q 1425 3038 1878 3038 
Q 2478 3038 2890 2622 
Q 3303 2206 3303 1553 
Q 3303 931 2941 478 
Q 2500 -78 1738 -78 
Q 1113 -78 717 272 
Q 322 622 266 1200 
z
" transform="scale(0.015625)"/>
      <path id="ArialMT-30" d="M 266 2259 
Q 266 3072 433 3567 
Q 600 4063 929 4331 
Q 1259 4600 1759 4600 
Q 2128 4600 2406 4451 
Q 2684 4303 2865 4023 
Q 3047 3744 3150 3342 
Q 3253 2941 3253 2259 
Q 3253 1453 3087 958 
Q 2922 463 2592 192 
Q 2263 -78 1759 -78 
Q 1097 -78 719 397 
Q 266 969 266 2259 
z
M 844 2259 
Q 844 1131 1108 757 
Q 1372 384 1759 384 
Q 2147 384 2411 759 
Q 2675 1134 2675 2259 
Q 2675 3391 2411 3762 
Q 2147 4134 1753 4134 
Q 1366 4134 1134 3806 
Q 844 3388 844 2259 
z
" transform="scale(0.015625)"/>
     </defs>
     <use xlink:href="#ArialMT-35"/>
     <use xlink:href="#ArialMT-30" x="55.615234"/>
     <use xlink:href="#ArialMT-30" x="111.230469"/>
     <use xlink:href="#ArialMT-20" x="166.845703"/>
     <use xlink:href="#ArialMT-6d" x="194.628906"/>
     <use xlink:href="#ArialMT-73" x="277.929688"/>
    </g>
   </g>
   <g id="text_16">
    <!-- 20 mV -->
    <g transform="translate(504.737455 321.894)scale(0.22 -0.22)">
     <defs>
      <path id="ArialMT-32" d="M 3222 541 
L 3222 0 
L 194 0 
Q 188 203 259 391 
Q 375 700 629 1000 
Q 884 1300 1366 1694 
Q 2113 2306 2375 2664 
Q 2638 3022 2638 3341 
Q 2638 3675 2398 3904 
Q 2159 4134 1775 4134 
Q 1369 4134 1125 3890 
Q 881 3647 878 3216 
L 300 3275 
Q 359 3922 746 4261 
Q 1134 4600 1788 4600 
Q 2447 4600 2831 4234 
Q 3216 3869 3216 3328 
Q 3216 3053 3103 2787 
Q 2991 2522 2730 2228 
Q 2469 1934 1863 1422 
Q 1356 997 1212 845 
Q 1069 694 975 541 
L 3222 541 
z
" transform="scale(0.015625)"/>
     </defs>
     <use xlink:href="#ArialMT-32"/>
     <use xlink:href="#ArialMT-30" x="55.615234"/>
     <use xlink:href="#ArialMT-20" x="111.230469"/>
     <use xlink:href="#ArialMT-6d" x="139.013672"/>
     <use xlink:href="#ArialMT-56" x="222.314453"/>
    </g>
   </g>
   <g id="text_17">
    <!--  Plotting FS, trace number 9207  -->
    <g transform="translate(136.849844 63.12)scale(0.22 -0.22)">
     <defs>
      <path id="ArialMT-50" d="M 494 0 
L 494 4581 
L 2222 4581 
Q 2678 4581 2919 4538 
Q 3256 4481 3484 4323 
Q 3713 4166 3852 3881 
Q 3991 3597 3991 3256 
Q 3991 2672 3619 2267 
Q 3247 1863 2275 1863 
L 1100 1863 
L 1100 0 
L 494 0 
z
M 1100 2403 
L 2284 2403 
Q 2872 2403 3119 2622 
Q 3366 2841 3366 3238 
Q 3366 3525 3220 3729 
Q 3075 3934 2838 4000 
Q 2684 4041 2272 4041 
L 1100 4041 
L 1100 2403 
z
" transform="scale(0.015625)"/>
      <path id="ArialMT-67" d="M 319 -275 
L 866 -356 
Q 900 -609 1056 -725 
Q 1266 -881 1628 -881 
Q 2019 -881 2231 -725 
Q 2444 -569 2519 -288 
Q 2563 -116 2559 434 
Q 2191 0 1641 0 
Q 956 0 581 494 
Q 206 988 206 1678 
Q 206 2153 378 2554 
Q 550 2956 876 3175 
Q 1203 3394 1644 3394 
Q 2231 3394 2613 2919 
L 2613 3319 
L 3131 3319 
L 3131 450 
Q 3131 -325 2973 -648 
Q 2816 -972 2473 -1159 
Q 2131 -1347 1631 -1347 
Q 1038 -1347 672 -1080 
Q 306 -813 319 -275 
z
M 784 1719 
Q 784 1066 1043 766 
Q 1303 466 1694 466 
Q 2081 466 2343 764 
Q 2606 1063 2606 1700 
Q 2606 2309 2336 2618 
Q 2066 2928 1684 2928 
Q 1309 2928 1046 2623 
Q 784 2319 784 1719 
z
" transform="scale(0.015625)"/>
      <path id="ArialMT-46" d="M 525 0 
L 525 4581 
L 3616 4581 
L 3616 4041 
L 1131 4041 
L 1131 2622 
L 3281 2622 
L 3281 2081 
L 1131 2081 
L 1131 0 
L 525 0 
z
" transform="scale(0.015625)"/>
      <path id="ArialMT-53" d="M 288 1472 
L 859 1522 
Q 900 1178 1048 958 
Q 1197 738 1509 602 
Q 1822 466 2213 466 
Q 2559 466 2825 569 
Q 3091 672 3220 851 
Q 3350 1031 3350 1244 
Q 3350 1459 3225 1620 
Q 3100 1781 2813 1891 
Q 2628 1963 1997 2114 
Q 1366 2266 1113 2400 
Q 784 2572 623 2826 
Q 463 3081 463 3397 
Q 463 3744 659 4045 
Q 856 4347 1234 4503 
Q 1613 4659 2075 4659 
Q 2584 4659 2973 4495 
Q 3363 4331 3572 4012 
Q 3781 3694 3797 3291 
L 3216 3247 
Q 3169 3681 2898 3903 
Q 2628 4125 2100 4125 
Q 1550 4125 1298 3923 
Q 1047 3722 1047 3438 
Q 1047 3191 1225 3031 
Q 1400 2872 2139 2705 
Q 2878 2538 3153 2413 
Q 3553 2228 3743 1945 
Q 3934 1663 3934 1294 
Q 3934 928 3725 604 
Q 3516 281 3123 101 
Q 2731 -78 2241 -78 
Q 1619 -78 1198 103 
Q 778 284 539 648 
Q 300 1013 288 1472 
z
" transform="scale(0.015625)"/>
      <path id="ArialMT-2c" d="M 569 0 
L 569 641 
L 1209 641 
L 1209 0 
Q 1209 -353 1084 -570 
Q 959 -788 688 -906 
L 531 -666 
Q 709 -588 793 -436 
Q 878 -284 888 0 
L 569 0 
z
" transform="scale(0.015625)"/>
      <path id="ArialMT-63" d="M 2588 1216 
L 3141 1144 
Q 3050 572 2676 248 
Q 2303 -75 1759 -75 
Q 1078 -75 664 370 
Q 250 816 250 1647 
Q 250 2184 428 2587 
Q 606 2991 970 3192 
Q 1334 3394 1763 3394 
Q 2303 3394 2647 3120 
Q 2991 2847 3088 2344 
L 2541 2259 
Q 2463 2594 2264 2762 
Q 2066 2931 1784 2931 
Q 1359 2931 1093 2626 
Q 828 2322 828 1663 
Q 828 994 1084 691 
Q 1341 388 1753 388 
Q 2084 388 2306 591 
Q 2528 794 2588 1216 
z
" transform="scale(0.015625)"/>
      <path id="ArialMT-75" d="M 2597 0 
L 2597 488 
Q 2209 -75 1544 -75 
Q 1250 -75 995 37 
Q 741 150 617 320 
Q 494 491 444 738 
Q 409 903 409 1263 
L 409 3319 
L 972 3319 
L 972 1478 
Q 972 1038 1006 884 
Q 1059 663 1231 536 
Q 1403 409 1656 409 
Q 1909 409 2131 539 
Q 2353 669 2445 892 
Q 2538 1116 2538 1541 
L 2538 3319 
L 3100 3319 
L 3100 0 
L 2597 0 
z
" transform="scale(0.015625)"/>
      <path id="ArialMT-39" d="M 350 1059 
L 891 1109 
Q 959 728 1153 556 
Q 1347 384 1650 384 
Q 1909 384 2104 503 
Q 2300 622 2425 820 
Q 2550 1019 2634 1356 
Q 2719 1694 2719 2044 
Q 2719 2081 2716 2156 
Q 2547 1888 2255 1720 
Q 1963 1553 1622 1553 
Q 1053 1553 659 1965 
Q 266 2378 266 3053 
Q 266 3750 677 4175 
Q 1088 4600 1706 4600 
Q 2153 4600 2523 4359 
Q 2894 4119 3086 3673 
Q 3278 3228 3278 2384 
Q 3278 1506 3087 986 
Q 2897 466 2520 194 
Q 2144 -78 1638 -78 
Q 1100 -78 759 220 
Q 419 519 350 1059 
z
M 2653 3081 
Q 2653 3566 2395 3850 
Q 2138 4134 1775 4134 
Q 1400 4134 1122 3828 
Q 844 3522 844 3034 
Q 844 2597 1108 2323 
Q 1372 2050 1759 2050 
Q 2150 2050 2401 2323 
Q 2653 2597 2653 3081 
z
" transform="scale(0.015625)"/>
      <path id="ArialMT-37" d="M 303 3981 
L 303 4522 
L 3269 4522 
L 3269 4084 
Q 2831 3619 2401 2847 
Q 1972 2075 1738 1259 
Q 1569 684 1522 0 
L 944 0 
Q 953 541 1156 1306 
Q 1359 2072 1739 2783 
Q 2119 3494 2547 3981 
L 303 3981 
z
" transform="scale(0.015625)"/>
     </defs>
     <use xlink:href="#ArialMT-20"/>
     <use xlink:href="#ArialMT-50" x="27.783203"/>
     <use xlink:href="#ArialMT-6c" x="94.482422"/>
     <use xlink:href="#ArialMT-6f" x="116.699219"/>
     <use xlink:href="#ArialMT-74" x="172.314453"/>
     <use xlink:href="#ArialMT-74" x="200.097656"/>
     <use xlink:href="#ArialMT-69" x="227.880859"/>
     <use xlink:href="#ArialMT-6e" x="250.097656"/>
     <use xlink:href="#ArialMT-67" x="305.712891"/>
     <use xlink:href="#ArialMT-20" x="361.328125"/>
     <use xlink:href="#ArialMT-46" x="389.111328"/>
     <use xlink:href="#ArialMT-53" x="450.195312"/>
     <use xlink:href="#ArialMT-2c" x="516.894531"/>
     <use xlink:href="#ArialMT-20" x="544.677734"/>
     <use xlink:href="#ArialMT-74" x="572.460938"/>
     <use xlink:href="#ArialMT-72" x="600.244141"/>
     <use xlink:href="#ArialMT-61" x="633.544922"/>
     <use xlink:href="#ArialMT-63" x="689.160156"/>
     <use xlink:href="#ArialMT-65" x="739.160156"/>
     <use xlink:href="#ArialMT-20" x="794.775391"/>
     <use xlink:href="#ArialMT-6e" x="822.558594"/>
     <use xlink:href="#ArialMT-75" x="878.173828"/>
     <use xlink:href="#ArialMT-6d" x="933.789062"/>
     <use xlink:href="#ArialMT-62" x="1017.089844"/>
     <use xlink:href="#ArialMT-65" x="1072.705078"/>
     <use xlink:href="#ArialMT-72" x="1128.320312"/>
     <use xlink:href="#ArialMT-20" x="1161.621094"/>
     <use xlink:href="#ArialMT-39" x="1189.404297"/>
     <use xlink:href="#ArialMT-32" x="1245.019531"/>
     <use xlink:href="#ArialMT-30" x="1300.634766"/>
     <use xlink:href="#ArialMT-37" x="1356.25"/>
     <use xlink:href="#ArialMT-20" x="1411.865234"/>
    </g>
   </g>
  </g>
 </g>
 <defs>
  <clipPath id="pb1d8b47bf4">
   <rect x="72" y="69.12" width="446.4" height="434.88"/>
  </clipPath>
 </defs>
</svg>
