<?xml version="1.0" encoding="utf-8" standalone="no"?>
<!DOCTYPE svg PUBLIC "-//W3C//DTD SVG 1.1//EN"
  "http://www.w3.org/Graphics/SVG/1.1/DTD/svg11.dtd">
<svg xmlns:xlink="http://www.w3.org/1999/xlink" width="576pt" height="576pt" viewBox="0 0 576 576" xmlns="http://www.w3.org/2000/svg" version="1.1">
 <metadata>
  <rdf:RDF xmlns:dc="http://purl.org/dc/elements/1.1/" xmlns:cc="http://creativecommons.org/ns#" xmlns:rdf="http://www.w3.org/1999/02/22-rdf-syntax-ns#">
   <cc:Work>
    <dc:type rdf:resource="http://purl.org/dc/dcmitype/StillImage"/>
    <dc:date>2022-10-30T19:57:17.211339</dc:date>
    <dc:format>image/svg+xml</dc:format>
    <dc:creator>
     <cc:Agent>
      <dc:title>Matplotlib v3.5.2, https://matplotlib.org/</dc:title>
     </cc:Agent>
    </dc:creator>
   </cc:Work>
  </rdf:RDF>
 </metadata>
 <defs>
  <style type="text/css">*{stroke-linejoin: round; stroke-linecap: butt}</style>
 </defs>
 <g id="figure_1">
  <g id="patch_1">
   <path d="M 0 576 
L 576 576 
L 576 0 
L 0 0 
L 0 576 
z
" style="fill: none"/>
  </g>
  <g id="axes_1">
   <g id="patch_2">
    <path d="M 72 504 
L 518.4 504 
L 518.4 69.12 
L 72 69.12 
z
" style="fill: #ffffff"/>
   </g>
   <g id="matplotlib.axis_1">
    <g id="xtick_1">
     <g id="line2d_1">
      <defs>
       <path id="m03b8cf00a4" d="M 0 0 
L 0 3.5 
" style="stroke: #000000; stroke-width: 0.8"/>
      </defs>
      <g>
       <use xlink:href="#m03b8cf00a4" x="92.290909" y="504" style="stroke: #000000; stroke-width: 0.8"/>
      </g>
     </g>
     <g id="text_1">
      <!-- 0 -->
      <g transform="translate(85.292159 527.716563)scale(0.22 -0.22)">
       <defs>
        <path id="DejaVuSans-30" d="M 2034 4250 
Q 1547 4250 1301 3770 
Q 1056 3291 1056 2328 
Q 1056 1369 1301 889 
Q 1547 409 2034 409 
Q 2525 409 2770 889 
Q 3016 1369 3016 2328 
Q 3016 3291 2770 3770 
Q 2525 4250 2034 4250 
z
M 2034 4750 
Q 2819 4750 3233 4129 
Q 3647 3509 3647 2328 
Q 3647 1150 3233 529 
Q 2819 -91 2034 -91 
Q 1250 -91 836 529 
Q 422 1150 422 2328 
Q 422 3509 836 4129 
Q 1250 4750 2034 4750 
z
" transform="scale(0.015625)"/>
       </defs>
       <use xlink:href="#DejaVuSans-30"/>
      </g>
     </g>
    </g>
    <g id="xtick_2">
     <g id="line2d_2">
      <g>
       <use xlink:href="#m03b8cf00a4" x="227.563636" y="504" style="stroke: #000000; stroke-width: 0.8"/>
      </g>
     </g>
     <g id="text_2">
      <!-- 1000 -->
      <g transform="translate(199.568636 527.716563)scale(0.22 -0.22)">
       <defs>
        <path id="DejaVuSans-31" d="M 794 531 
L 1825 531 
L 1825 4091 
L 703 3866 
L 703 4441 
L 1819 4666 
L 2450 4666 
L 2450 531 
L 3481 531 
L 3481 0 
L 794 0 
L 794 531 
z
" transform="scale(0.015625)"/>
       </defs>
       <use xlink:href="#DejaVuSans-31"/>
       <use xlink:href="#DejaVuSans-30" x="63.623047"/>
       <use xlink:href="#DejaVuSans-30" x="127.246094"/>
       <use xlink:href="#DejaVuSans-30" x="190.869141"/>
      </g>
     </g>
    </g>
    <g id="xtick_3">
     <g id="line2d_3">
      <g>
       <use xlink:href="#m03b8cf00a4" x="362.836364" y="504" style="stroke: #000000; stroke-width: 0.8"/>
      </g>
     </g>
     <g id="text_3">
      <!-- 2000 -->
      <g transform="translate(334.841364 527.716563)scale(0.22 -0.22)">
       <defs>
        <path id="DejaVuSans-32" d="M 1228 531 
L 3431 531 
L 3431 0 
L 469 0 
L 469 531 
Q 828 903 1448 1529 
Q 2069 2156 2228 2338 
Q 2531 2678 2651 2914 
Q 2772 3150 2772 3378 
Q 2772 3750 2511 3984 
Q 2250 4219 1831 4219 
Q 1534 4219 1204 4116 
Q 875 4013 500 3803 
L 500 4441 
Q 881 4594 1212 4672 
Q 1544 4750 1819 4750 
Q 2544 4750 2975 4387 
Q 3406 4025 3406 3419 
Q 3406 3131 3298 2873 
Q 3191 2616 2906 2266 
Q 2828 2175 2409 1742 
Q 1991 1309 1228 531 
z
" transform="scale(0.015625)"/>
       </defs>
       <use xlink:href="#DejaVuSans-32"/>
       <use xlink:href="#DejaVuSans-30" x="63.623047"/>
       <use xlink:href="#DejaVuSans-30" x="127.246094"/>
       <use xlink:href="#DejaVuSans-30" x="190.869141"/>
      </g>
     </g>
    </g>
    <g id="xtick_4">
     <g id="line2d_4">
      <g>
       <use xlink:href="#m03b8cf00a4" x="498.109091" y="504" style="stroke: #000000; stroke-width: 0.8"/>
      </g>
     </g>
     <g id="text_4">
      <!-- 3000 -->
      <g transform="translate(470.114091 527.716563)scale(0.22 -0.22)">
       <defs>
        <path id="DejaVuSans-33" d="M 2597 2516 
Q 3050 2419 3304 2112 
Q 3559 1806 3559 1356 
Q 3559 666 3084 287 
Q 2609 -91 1734 -91 
Q 1441 -91 1130 -33 
Q 819 25 488 141 
L 488 750 
Q 750 597 1062 519 
Q 1375 441 1716 441 
Q 2309 441 2620 675 
Q 2931 909 2931 1356 
Q 2931 1769 2642 2001 
Q 2353 2234 1838 2234 
L 1294 2234 
L 1294 2753 
L 1863 2753 
Q 2328 2753 2575 2939 
Q 2822 3125 2822 3475 
Q 2822 3834 2567 4026 
Q 2313 4219 1838 4219 
Q 1578 4219 1281 4162 
Q 984 4106 628 3988 
L 628 4550 
Q 988 4650 1302 4700 
Q 1616 4750 1894 4750 
Q 2613 4750 3031 4423 
Q 3450 4097 3450 3541 
Q 3450 3153 3228 2886 
Q 3006 2619 2597 2516 
z
" transform="scale(0.015625)"/>
       </defs>
       <use xlink:href="#DejaVuSans-33"/>
       <use xlink:href="#DejaVuSans-30" x="63.623047"/>
       <use xlink:href="#DejaVuSans-30" x="127.246094"/>
       <use xlink:href="#DejaVuSans-30" x="190.869141"/>
      </g>
     </g>
    </g>
    <g id="text_5">
     <!-- Time(ms) -->
     <g transform="translate(249.182187 552.307188)scale(0.22 -0.22)">
      <defs>
       <path id="ArialMT-54" d="M 1659 0 
L 1659 4041 
L 150 4041 
L 150 4581 
L 3781 4581 
L 3781 4041 
L 2266 4041 
L 2266 0 
L 1659 0 
z
" transform="scale(0.015625)"/>
       <path id="ArialMT-69" d="M 425 3934 
L 425 4581 
L 988 4581 
L 988 3934 
L 425 3934 
z
M 425 0 
L 425 3319 
L 988 3319 
L 988 0 
L 425 0 
z
" transform="scale(0.015625)"/>
       <path id="ArialMT-6d" d="M 422 0 
L 422 3319 
L 925 3319 
L 925 2853 
Q 1081 3097 1340 3245 
Q 1600 3394 1931 3394 
Q 2300 3394 2536 3241 
Q 2772 3088 2869 2813 
Q 3263 3394 3894 3394 
Q 4388 3394 4653 3120 
Q 4919 2847 4919 2278 
L 4919 0 
L 4359 0 
L 4359 2091 
Q 4359 2428 4304 2576 
Q 4250 2725 4106 2815 
Q 3963 2906 3769 2906 
Q 3419 2906 3187 2673 
Q 2956 2441 2956 1928 
L 2956 0 
L 2394 0 
L 2394 2156 
Q 2394 2531 2256 2718 
Q 2119 2906 1806 2906 
Q 1569 2906 1367 2781 
Q 1166 2656 1075 2415 
Q 984 2175 984 1722 
L 984 0 
L 422 0 
z
" transform="scale(0.015625)"/>
       <path id="ArialMT-65" d="M 2694 1069 
L 3275 997 
Q 3138 488 2766 206 
Q 2394 -75 1816 -75 
Q 1088 -75 661 373 
Q 234 822 234 1631 
Q 234 2469 665 2931 
Q 1097 3394 1784 3394 
Q 2450 3394 2872 2941 
Q 3294 2488 3294 1666 
Q 3294 1616 3291 1516 
L 816 1516 
Q 847 969 1125 678 
Q 1403 388 1819 388 
Q 2128 388 2347 550 
Q 2566 713 2694 1069 
z
M 847 1978 
L 2700 1978 
Q 2663 2397 2488 2606 
Q 2219 2931 1791 2931 
Q 1403 2931 1139 2672 
Q 875 2413 847 1978 
z
" transform="scale(0.015625)"/>
       <path id="ArialMT-28" d="M 1497 -1347 
Q 1031 -759 709 28 
Q 388 816 388 1659 
Q 388 2403 628 3084 
Q 909 3875 1497 4659 
L 1900 4659 
Q 1522 4009 1400 3731 
Q 1209 3300 1100 2831 
Q 966 2247 966 1656 
Q 966 153 1900 -1347 
L 1497 -1347 
z
" transform="scale(0.015625)"/>
       <path id="ArialMT-73" d="M 197 991 
L 753 1078 
Q 800 744 1014 566 
Q 1228 388 1613 388 
Q 2000 388 2187 545 
Q 2375 703 2375 916 
Q 2375 1106 2209 1216 
Q 2094 1291 1634 1406 
Q 1016 1563 777 1677 
Q 538 1791 414 1992 
Q 291 2194 291 2438 
Q 291 2659 392 2848 
Q 494 3038 669 3163 
Q 800 3259 1026 3326 
Q 1253 3394 1513 3394 
Q 1903 3394 2198 3281 
Q 2494 3169 2634 2976 
Q 2775 2784 2828 2463 
L 2278 2388 
Q 2241 2644 2061 2787 
Q 1881 2931 1553 2931 
Q 1166 2931 1000 2803 
Q 834 2675 834 2503 
Q 834 2394 903 2306 
Q 972 2216 1119 2156 
Q 1203 2125 1616 2013 
Q 2213 1853 2448 1751 
Q 2684 1650 2818 1456 
Q 2953 1263 2953 975 
Q 2953 694 2789 445 
Q 2625 197 2315 61 
Q 2006 -75 1616 -75 
Q 969 -75 630 194 
Q 291 463 197 991 
z
" transform="scale(0.015625)"/>
       <path id="ArialMT-29" d="M 791 -1347 
L 388 -1347 
Q 1322 153 1322 1656 
Q 1322 2244 1188 2822 
Q 1081 3291 891 3722 
Q 769 4003 388 4659 
L 791 4659 
Q 1378 3875 1659 3084 
Q 1900 2403 1900 1659 
Q 1900 816 1576 28 
Q 1253 -759 791 -1347 
z
" transform="scale(0.015625)"/>
      </defs>
      <use xlink:href="#ArialMT-54"/>
      <use xlink:href="#ArialMT-69" x="57.333984"/>
      <use xlink:href="#ArialMT-6d" x="79.550781"/>
      <use xlink:href="#ArialMT-65" x="162.851562"/>
      <use xlink:href="#ArialMT-28" x="218.466797"/>
      <use xlink:href="#ArialMT-6d" x="251.767578"/>
      <use xlink:href="#ArialMT-73" x="335.068359"/>
      <use xlink:href="#ArialMT-29" x="385.068359"/>
     </g>
    </g>
   </g>
   <g id="matplotlib.axis_2">
    <g id="ytick_1">
     <g id="line2d_5">
      <defs>
       <path id="m00f98e8417" d="M 0 0 
L -3.5 0 
" style="stroke: #000000; stroke-width: 0.8"/>
      </defs>
      <g>
       <use xlink:href="#m00f98e8417" x="72" y="476.82" style="stroke: #000000; stroke-width: 0.8"/>
      </g>
     </g>
     <g id="text_6">
      <!-- −100 -->
      <g transform="translate(4.572187 485.178281)scale(0.22 -0.22)">
       <defs>
        <path id="DejaVuSans-2212" d="M 678 2272 
L 4684 2272 
L 4684 1741 
L 678 1741 
L 678 2272 
z
" transform="scale(0.015625)"/>
       </defs>
       <use xlink:href="#DejaVuSans-2212"/>
       <use xlink:href="#DejaVuSans-31" x="83.789062"/>
       <use xlink:href="#DejaVuSans-30" x="147.412109"/>
       <use xlink:href="#DejaVuSans-30" x="211.035156"/>
      </g>
     </g>
    </g>
    <g id="ytick_2">
     <g id="line2d_6">
      <g>
       <use xlink:href="#m00f98e8417" x="72" y="422.46" style="stroke: #000000; stroke-width: 0.8"/>
      </g>
     </g>
     <g id="text_7">
      <!-- −80 -->
      <g transform="translate(18.569688 430.818281)scale(0.22 -0.22)">
       <defs>
        <path id="DejaVuSans-38" d="M 2034 2216 
Q 1584 2216 1326 1975 
Q 1069 1734 1069 1313 
Q 1069 891 1326 650 
Q 1584 409 2034 409 
Q 2484 409 2743 651 
Q 3003 894 3003 1313 
Q 3003 1734 2745 1975 
Q 2488 2216 2034 2216 
z
M 1403 2484 
Q 997 2584 770 2862 
Q 544 3141 544 3541 
Q 544 4100 942 4425 
Q 1341 4750 2034 4750 
Q 2731 4750 3128 4425 
Q 3525 4100 3525 3541 
Q 3525 3141 3298 2862 
Q 3072 2584 2669 2484 
Q 3125 2378 3379 2068 
Q 3634 1759 3634 1313 
Q 3634 634 3220 271 
Q 2806 -91 2034 -91 
Q 1263 -91 848 271 
Q 434 634 434 1313 
Q 434 1759 690 2068 
Q 947 2378 1403 2484 
z
M 1172 3481 
Q 1172 3119 1398 2916 
Q 1625 2713 2034 2713 
Q 2441 2713 2670 2916 
Q 2900 3119 2900 3481 
Q 2900 3844 2670 4047 
Q 2441 4250 2034 4250 
Q 1625 4250 1398 4047 
Q 1172 3844 1172 3481 
z
" transform="scale(0.015625)"/>
       </defs>
       <use xlink:href="#DejaVuSans-2212"/>
       <use xlink:href="#DejaVuSans-38" x="83.789062"/>
       <use xlink:href="#DejaVuSans-30" x="147.412109"/>
      </g>
     </g>
    </g>
    <g id="ytick_3">
     <g id="line2d_7">
      <g>
       <use xlink:href="#m00f98e8417" x="72" y="368.1" style="stroke: #000000; stroke-width: 0.8"/>
      </g>
     </g>
     <g id="text_8">
      <!-- −60 -->
      <g transform="translate(18.569688 376.458281)scale(0.22 -0.22)">
       <defs>
        <path id="DejaVuSans-36" d="M 2113 2584 
Q 1688 2584 1439 2293 
Q 1191 2003 1191 1497 
Q 1191 994 1439 701 
Q 1688 409 2113 409 
Q 2538 409 2786 701 
Q 3034 994 3034 1497 
Q 3034 2003 2786 2293 
Q 2538 2584 2113 2584 
z
M 3366 4563 
L 3366 3988 
Q 3128 4100 2886 4159 
Q 2644 4219 2406 4219 
Q 1781 4219 1451 3797 
Q 1122 3375 1075 2522 
Q 1259 2794 1537 2939 
Q 1816 3084 2150 3084 
Q 2853 3084 3261 2657 
Q 3669 2231 3669 1497 
Q 3669 778 3244 343 
Q 2819 -91 2113 -91 
Q 1303 -91 875 529 
Q 447 1150 447 2328 
Q 447 3434 972 4092 
Q 1497 4750 2381 4750 
Q 2619 4750 2861 4703 
Q 3103 4656 3366 4563 
z
" transform="scale(0.015625)"/>
       </defs>
       <use xlink:href="#DejaVuSans-2212"/>
       <use xlink:href="#DejaVuSans-36" x="83.789062"/>
       <use xlink:href="#DejaVuSans-30" x="147.412109"/>
      </g>
     </g>
    </g>
    <g id="ytick_4">
     <g id="line2d_8">
      <g>
       <use xlink:href="#m00f98e8417" x="72" y="313.74" style="stroke: #000000; stroke-width: 0.8"/>
      </g>
     </g>
     <g id="text_9">
      <!-- −40 -->
      <g transform="translate(18.569688 322.098281)scale(0.22 -0.22)">
       <defs>
        <path id="DejaVuSans-34" d="M 2419 4116 
L 825 1625 
L 2419 1625 
L 2419 4116 
z
M 2253 4666 
L 3047 4666 
L 3047 1625 
L 3713 1625 
L 3713 1100 
L 3047 1100 
L 3047 0 
L 2419 0 
L 2419 1100 
L 313 1100 
L 313 1709 
L 2253 4666 
z
" transform="scale(0.015625)"/>
       </defs>
       <use xlink:href="#DejaVuSans-2212"/>
       <use xlink:href="#DejaVuSans-34" x="83.789062"/>
       <use xlink:href="#DejaVuSans-30" x="147.412109"/>
      </g>
     </g>
    </g>
    <g id="ytick_5">
     <g id="line2d_9">
      <g>
       <use xlink:href="#m00f98e8417" x="72" y="259.38" style="stroke: #000000; stroke-width: 0.8"/>
      </g>
     </g>
     <g id="text_10">
      <!-- −20 -->
      <g transform="translate(18.569688 267.738281)scale(0.22 -0.22)">
       <use xlink:href="#DejaVuSans-2212"/>
       <use xlink:href="#DejaVuSans-32" x="83.789062"/>
       <use xlink:href="#DejaVuSans-30" x="147.412109"/>
      </g>
     </g>
    </g>
    <g id="ytick_6">
     <g id="line2d_10">
      <g>
       <use xlink:href="#m00f98e8417" x="72" y="205.02" style="stroke: #000000; stroke-width: 0.8"/>
      </g>
     </g>
     <g id="text_11">
      <!-- 0 -->
      <g transform="translate(51.0025 213.378281)scale(0.22 -0.22)">
       <use xlink:href="#DejaVuSans-30"/>
      </g>
     </g>
    </g>
    <g id="ytick_7">
     <g id="line2d_11">
      <g>
       <use xlink:href="#m00f98e8417" x="72" y="150.66" style="stroke: #000000; stroke-width: 0.8"/>
      </g>
     </g>
     <g id="text_12">
      <!-- 20 -->
      <g transform="translate(37.005 159.018281)scale(0.22 -0.22)">
       <use xlink:href="#DejaVuSans-32"/>
       <use xlink:href="#DejaVuSans-30" x="63.623047"/>
      </g>
     </g>
    </g>
    <g id="ytick_8">
     <g id="line2d_12">
      <g>
       <use xlink:href="#m00f98e8417" x="72" y="96.3" style="stroke: #000000; stroke-width: 0.8"/>
      </g>
     </g>
     <g id="text_13">
      <!-- 40 -->
      <g transform="translate(37.005 104.658281)scale(0.22 -0.22)">
       <use xlink:href="#DejaVuSans-34"/>
       <use xlink:href="#DejaVuSans-30" x="63.623047"/>
      </g>
     </g>
    </g>
    <g id="text_14">
     <!-- Membrane potential (mV) -->
     <g transform="translate(-4.058125 410.655469)rotate(-90)scale(0.22 -0.22)">
      <defs>
       <path id="ArialMT-4d" d="M 475 0 
L 475 4581 
L 1388 4581 
L 2472 1338 
Q 2622 884 2691 659 
Q 2769 909 2934 1394 
L 4031 4581 
L 4847 4581 
L 4847 0 
L 4263 0 
L 4263 3834 
L 2931 0 
L 2384 0 
L 1059 3900 
L 1059 0 
L 475 0 
z
" transform="scale(0.015625)"/>
       <path id="ArialMT-62" d="M 941 0 
L 419 0 
L 419 4581 
L 981 4581 
L 981 2947 
Q 1338 3394 1891 3394 
Q 2197 3394 2470 3270 
Q 2744 3147 2920 2923 
Q 3097 2700 3197 2384 
Q 3297 2069 3297 1709 
Q 3297 856 2875 390 
Q 2453 -75 1863 -75 
Q 1275 -75 941 416 
L 941 0 
z
M 934 1684 
Q 934 1088 1097 822 
Q 1363 388 1816 388 
Q 2184 388 2453 708 
Q 2722 1028 2722 1663 
Q 2722 2313 2464 2622 
Q 2206 2931 1841 2931 
Q 1472 2931 1203 2611 
Q 934 2291 934 1684 
z
" transform="scale(0.015625)"/>
       <path id="ArialMT-72" d="M 416 0 
L 416 3319 
L 922 3319 
L 922 2816 
Q 1116 3169 1280 3281 
Q 1444 3394 1641 3394 
Q 1925 3394 2219 3213 
L 2025 2691 
Q 1819 2813 1613 2813 
Q 1428 2813 1281 2702 
Q 1134 2591 1072 2394 
Q 978 2094 978 1738 
L 978 0 
L 416 0 
z
" transform="scale(0.015625)"/>
       <path id="ArialMT-61" d="M 2588 409 
Q 2275 144 1986 34 
Q 1697 -75 1366 -75 
Q 819 -75 525 192 
Q 231 459 231 875 
Q 231 1119 342 1320 
Q 453 1522 633 1644 
Q 813 1766 1038 1828 
Q 1203 1872 1538 1913 
Q 2219 1994 2541 2106 
Q 2544 2222 2544 2253 
Q 2544 2597 2384 2738 
Q 2169 2928 1744 2928 
Q 1347 2928 1158 2789 
Q 969 2650 878 2297 
L 328 2372 
Q 403 2725 575 2942 
Q 747 3159 1072 3276 
Q 1397 3394 1825 3394 
Q 2250 3394 2515 3294 
Q 2781 3194 2906 3042 
Q 3031 2891 3081 2659 
Q 3109 2516 3109 2141 
L 3109 1391 
Q 3109 606 3145 398 
Q 3181 191 3288 0 
L 2700 0 
Q 2613 175 2588 409 
z
M 2541 1666 
Q 2234 1541 1622 1453 
Q 1275 1403 1131 1340 
Q 988 1278 909 1158 
Q 831 1038 831 891 
Q 831 666 1001 516 
Q 1172 366 1500 366 
Q 1825 366 2078 508 
Q 2331 650 2450 897 
Q 2541 1088 2541 1459 
L 2541 1666 
z
" transform="scale(0.015625)"/>
       <path id="ArialMT-6e" d="M 422 0 
L 422 3319 
L 928 3319 
L 928 2847 
Q 1294 3394 1984 3394 
Q 2284 3394 2536 3286 
Q 2788 3178 2913 3003 
Q 3038 2828 3088 2588 
Q 3119 2431 3119 2041 
L 3119 0 
L 2556 0 
L 2556 2019 
Q 2556 2363 2490 2533 
Q 2425 2703 2258 2804 
Q 2091 2906 1866 2906 
Q 1506 2906 1245 2678 
Q 984 2450 984 1813 
L 984 0 
L 422 0 
z
" transform="scale(0.015625)"/>
       <path id="ArialMT-20" transform="scale(0.015625)"/>
       <path id="ArialMT-70" d="M 422 -1272 
L 422 3319 
L 934 3319 
L 934 2888 
Q 1116 3141 1344 3267 
Q 1572 3394 1897 3394 
Q 2322 3394 2647 3175 
Q 2972 2956 3137 2557 
Q 3303 2159 3303 1684 
Q 3303 1175 3120 767 
Q 2938 359 2589 142 
Q 2241 -75 1856 -75 
Q 1575 -75 1351 44 
Q 1128 163 984 344 
L 984 -1272 
L 422 -1272 
z
M 931 1641 
Q 931 1000 1190 694 
Q 1450 388 1819 388 
Q 2194 388 2461 705 
Q 2728 1022 2728 1688 
Q 2728 2322 2467 2637 
Q 2206 2953 1844 2953 
Q 1484 2953 1207 2617 
Q 931 2281 931 1641 
z
" transform="scale(0.015625)"/>
       <path id="ArialMT-6f" d="M 213 1659 
Q 213 2581 725 3025 
Q 1153 3394 1769 3394 
Q 2453 3394 2887 2945 
Q 3322 2497 3322 1706 
Q 3322 1066 3130 698 
Q 2938 331 2570 128 
Q 2203 -75 1769 -75 
Q 1072 -75 642 372 
Q 213 819 213 1659 
z
M 791 1659 
Q 791 1022 1069 705 
Q 1347 388 1769 388 
Q 2188 388 2466 706 
Q 2744 1025 2744 1678 
Q 2744 2294 2464 2611 
Q 2184 2928 1769 2928 
Q 1347 2928 1069 2612 
Q 791 2297 791 1659 
z
" transform="scale(0.015625)"/>
       <path id="ArialMT-74" d="M 1650 503 
L 1731 6 
Q 1494 -44 1306 -44 
Q 1000 -44 831 53 
Q 663 150 594 308 
Q 525 466 525 972 
L 525 2881 
L 113 2881 
L 113 3319 
L 525 3319 
L 525 4141 
L 1084 4478 
L 1084 3319 
L 1650 3319 
L 1650 2881 
L 1084 2881 
L 1084 941 
Q 1084 700 1114 631 
Q 1144 563 1211 522 
Q 1278 481 1403 481 
Q 1497 481 1650 503 
z
" transform="scale(0.015625)"/>
       <path id="ArialMT-6c" d="M 409 0 
L 409 4581 
L 972 4581 
L 972 0 
L 409 0 
z
" transform="scale(0.015625)"/>
       <path id="ArialMT-56" d="M 1803 0 
L 28 4581 
L 684 4581 
L 1875 1253 
Q 2019 853 2116 503 
Q 2222 878 2363 1253 
L 3600 4581 
L 4219 4581 
L 2425 0 
L 1803 0 
z
" transform="scale(0.015625)"/>
      </defs>
      <use xlink:href="#ArialMT-4d"/>
      <use xlink:href="#ArialMT-65" x="83.300781"/>
      <use xlink:href="#ArialMT-6d" x="138.916016"/>
      <use xlink:href="#ArialMT-62" x="222.216797"/>
      <use xlink:href="#ArialMT-72" x="277.832031"/>
      <use xlink:href="#ArialMT-61" x="311.132812"/>
      <use xlink:href="#ArialMT-6e" x="366.748047"/>
      <use xlink:href="#ArialMT-65" x="422.363281"/>
      <use xlink:href="#ArialMT-20" x="477.978516"/>
      <use xlink:href="#ArialMT-70" x="505.761719"/>
      <use xlink:href="#ArialMT-6f" x="561.376953"/>
      <use xlink:href="#ArialMT-74" x="616.992188"/>
      <use xlink:href="#ArialMT-65" x="644.775391"/>
      <use xlink:href="#ArialMT-6e" x="700.390625"/>
      <use xlink:href="#ArialMT-74" x="756.005859"/>
      <use xlink:href="#ArialMT-69" x="783.789062"/>
      <use xlink:href="#ArialMT-61" x="806.005859"/>
      <use xlink:href="#ArialMT-6c" x="861.621094"/>
      <use xlink:href="#ArialMT-20" x="883.837891"/>
      <use xlink:href="#ArialMT-28" x="911.621094"/>
      <use xlink:href="#ArialMT-6d" x="944.921875"/>
      <use xlink:href="#ArialMT-56" x="1028.222656"/>
      <use xlink:href="#ArialMT-29" x="1094.921875"/>
     </g>
    </g>
   </g>
   <g id="line2d_13">
    <path d="M 92.290909 436.05 
L 92.493818 447.745802 
L 92.832 453.159147 
L 93.305455 457.29469 
L 93.778909 459.677357 
L 94.252364 461.072523 
L 94.793455 461.976598 
L 95.334545 462.468161 
L 96.010909 462.780479 
L 97.025455 462.967448 
L 98.986909 463.04722 
L 109.876364 463.058182 
L 159.927273 463.05827 
L 160.130182 444.41276 
L 160.536 434.816589 
L 161.144727 426.21596 
L 161.821091 419.625074 
L 162.632727 413.850418 
L 163.512 409.108898 
L 164.526545 404.840277 
L 165.608727 401.213624 
L 166.826182 397.906282 
L 168.111273 395.034689 
L 169.531636 392.385854 
L 171.154909 389.839527 
L 172.981091 387.404973 
L 175.145455 384.91161 
L 178.527273 381.422828 
L 180.082909 379.931815 
L 181.435636 378.840409 
L 183.6 376.80808 
L 185.290909 374.91115 
L 187.32 372.069295 
L 187.590545 371.373504 
L 188.064 370.14753 
L 188.740364 370.176462 
L 189.213818 369.836021 
L 189.754909 369.194802 
L 190.566545 368.133089 
L 191.378182 366.978134 
L 191.445818 367.037526 
L 191.919273 367.642344 
L 192.189818 367.518071 
L 192.528 367.005885 
L 193.136727 366.138628 
L 194.016 364.774685 
L 194.489455 363.754597 
L 194.76 363.785523 
L 195.030545 363.817752 
L 195.368727 363.591177 
L 195.842182 362.975131 
L 196.653818 361.82689 
L 197.330182 361.537322 
L 197.871273 362.631724 
L 198.074182 362.539122 
L 198.412364 362.049942 
L 198.953455 360.816255 
L 199.562182 358.837861 
L 200.576727 354.689234 
L 200.914909 353.264544 
L 201.591273 351.874107 
L 201.997091 350.48254 
L 202.064727 350.579593 
L 202.538182 352.049361 
L 202.673455 351.942371 
L 202.876364 351.381212 
L 203.146909 349.967552 
L 204.161455 341.907295 
L 204.702545 335.294583 
L 204.973091 327.512655 
L 205.108364 318.903103 
L 205.243636 292.618614 
L 205.311273 221.09586 
L 205.378909 244.563532 
L 205.581818 354.216133 
L 205.784727 374.692039 
L 205.92 376.01164 
L 206.055273 374.860802 
L 206.596364 369.000811 
L 207.205091 365.422007 
L 207.746182 363.094171 
L 208.693091 361.863567 
L 209.64 359.606187 
L 210.113455 358.068819 
L 210.451636 356.823978 
L 211.466182 355.688823 
L 211.872 354.091161 
L 212.345455 352.318316 
L 212.616 352.151682 
L 212.818909 352.827969 
L 213.224727 354.12939 
L 213.427636 354.14077 
L 213.630545 353.877156 
L 213.968727 352.984159 
L 214.374545 351.276444 
L 214.712727 350.063739 
L 214.848 349.977705 
L 215.186182 348.961736 
L 215.592 347.276126 
L 215.997818 344.287137 
L 216.336 340.187054 
L 216.606545 334.763497 
L 216.809455 327.37864 
L 216.944727 317.157649 
L 217.012364 306.283931 
L 217.08 275.939764 
L 217.147636 192.793814 
L 217.350545 346.605087 
L 217.553455 375.352499 
L 217.688727 377.83224 
L 217.756364 377.743862 
L 217.959273 375.97586 
L 218.432727 371.050623 
L 219.041455 367.267422 
L 219.717818 364.430383 
L 221.002909 359.555264 
L 221.273455 358.613026 
L 222.085091 358.214173 
L 222.423273 358.036389 
L 222.896727 358.21173 
L 223.505455 357.832979 
L 223.776 357.182928 
L 224.114182 355.988744 
L 224.655273 355.202126 
L 225.331636 360.716255 
L 225.534545 360.788921 
L 226.143273 360.359084 
L 226.616727 359.545447 
L 227.225455 358.03905 
L 227.766545 356.121177 
L 228.645818 352.409992 
L 229.119273 349.354274 
L 229.728 344.051432 
L 229.863273 344.392427 
L 230.133818 345.128343 
L 230.269091 345.052103 
L 230.472 344.304677 
L 230.742545 342.225219 
L 231.080727 337.467638 
L 231.351273 329.731009 
L 231.554182 314.37048 
L 231.621818 299.710456 
L 231.757091 215.177342 
L 231.96 353.555336 
L 232.162909 376.962425 
L 232.298182 378.575672 
L 232.433455 377.815694 
L 233.650909 366.905566 
L 234.056727 365.325057 
L 234.733091 363.451181 
L 235.341818 360.88585 
L 235.612364 359.981013 
L 236.559273 358.454085 
L 237.032727 356.955507 
L 237.912 354.681276 
L 238.453091 353.859627 
L 238.520727 353.916873 
L 238.791273 354.165793 
L 239.061818 353.983571 
L 239.264727 353.61023 
L 239.535273 352.302819 
L 239.873455 350.982306 
L 240.076364 353.956899 
L 240.346909 357.034534 
L 240.549818 357.74404 
L 240.685091 357.799424 
L 240.888 357.558536 
L 241.226182 356.613087 
L 241.429091 355.541138 
L 241.767273 354.140724 
L 242.578909 351.380778 
L 242.984727 349.022287 
L 243.322909 345.902011 
L 243.796364 340.821107 
L 244.066909 338.743275 
L 244.337455 334.388873 
L 244.540364 328.268704 
L 244.743273 313.294256 
L 244.810909 299.909042 
L 244.946182 215.813312 
L 245.149091 348.53706 
L 245.352 373.292694 
L 245.487273 375.484461 
L 245.554909 375.374349 
L 245.757818 373.534879 
L 246.637091 364.266097 
L 246.975273 362.898148 
L 247.448727 361.900858 
L 247.854545 361.647037 
L 248.328 360.88872 
L 250.086545 357.209947 
L 250.695273 355.192492 
L 251.439273 351.657282 
L 251.777455 349.061873 
L 252.656727 338.079205 
L 252.994909 329.476324 
L 253.197818 319.072554 
L 253.333091 298.706147 
L 253.468364 223.239056 
L 253.671273 345.036016 
L 253.874182 369.15609 
L 254.077091 371.769349 
L 254.212364 370.928612 
L 254.753455 366.575948 
L 254.888727 365.944334 
L 254.956364 366.050172 
L 255.226909 366.61432 
L 255.362182 366.503264 
L 255.768 365.594168 
L 257.256 361.419596 
L 257.729455 359.638662 
L 258.135273 357.539895 
L 258.473455 357.079202 
L 258.946909 356.706558 
L 259.149818 356.947072 
L 259.420364 357.147281 
L 259.623273 356.938163 
L 259.961455 356.054456 
L 260.570182 354.606081 
L 260.908364 353.835529 
L 261.449455 351.801752 
L 261.922909 349.078991 
L 262.396364 345.067682 
L 262.802182 339.486556 
L 263.072727 332.609345 
L 263.275636 323.769189 
L 263.410909 310.184851 
L 263.478545 292.22839 
L 263.546182 223.86822 
L 263.613818 247.364789 
L 263.816727 353.708845 
L 264.019636 373.41419 
L 264.154909 374.822931 
L 264.290182 374.168088 
L 265.913455 361.013684 
L 265.981091 360.976136 
L 266.454545 363.411143 
L 266.589818 363.35651 
L 266.995636 362.570026 
L 267.401455 362.194783 
L 267.807273 361.383723 
L 268.618909 359.570639 
L 268.821818 359.585429 
L 268.957091 359.432866 
L 269.904 357.000425 
L 270.174545 356.393338 
L 270.648 354.961057 
L 271.053818 354.213406 
L 271.459636 352.831632 
L 271.933091 350.22182 
L 272.203636 348.56973 
L 272.271273 348.83224 
L 272.744727 352.865638 
L 273.150545 353.485171 
L 273.285818 353.474571 
L 273.488727 353.183409 
L 273.759273 352.357439 
L 274.368 349.395611 
L 274.706182 346.745276 
L 275.247273 338.872304 
L 275.517818 332.354579 
L 275.720727 321.94007 
L 275.856 300.855765 
L 275.991273 211.03396 
L 276.194182 353.376039 
L 276.397091 377.575593 
L 276.532364 379.289291 
L 276.667636 378.579781 
L 277.817455 368.677294 
L 278.223273 367.15054 
L 279.711273 363.173034 
L 280.184727 362.136156 
L 280.522909 361.009058 
L 280.861091 359.449479 
L 281.672727 357.61733 
L 282.078545 356.904673 
L 282.552 355.565647 
L 282.957818 353.683957 
L 283.431273 352.121742 
L 284.378182 349.267725 
L 284.581091 349.171079 
L 284.784 348.732363 
L 285.054545 347.402169 
L 285.392727 344.417653 
L 285.730909 339.184689 
L 286.001455 331.490812 
L 286.204364 317.851877 
L 286.339636 296.159675 
L 286.474909 237.921983 
L 286.677818 341.499655 
L 286.880727 363.222269 
L 287.083636 366.239826 
L 287.151273 366.144273 
L 287.421818 364.471532 
L 288.030545 360.538629 
L 289.180364 356.126249 
L 289.721455 355.343891 
L 290.127273 353.980626 
L 291.209455 349.106034 
L 291.547636 346.587998 
L 291.818182 343.200482 
L 292.359273 333.213395 
L 292.562182 325.402817 
L 292.697455 313.587084 
L 292.765091 299.408374 
L 292.900364 217.427889 
L 293.103273 351.102889 
L 293.306182 374.497661 
L 293.441455 376.170434 
L 293.576727 375.419385 
L 294.658909 366.237943 
L 295.673455 361.602394 
L 296.011636 360.720762 
L 296.620364 359.408711 
L 297.161455 357.643951 
L 297.567273 355.712922 
L 297.905455 354.098006 
L 298.040727 355.064631 
L 298.446545 358.777262 
L 298.649455 359.426398 
L 298.784727 359.455662 
L 299.325818 358.803561 
L 299.528727 358.662565 
L 299.934545 358.837792 
L 300.205091 358.51267 
L 300.610909 357.523436 
L 301.016727 356.045303 
L 301.557818 353.667152 
L 302.098909 351.248654 
L 302.775273 346.87876 
L 303.519273 340.207637 
L 303.857455 333.120306 
L 304.060364 324.613102 
L 304.195636 311.296417 
L 304.263273 293.652288 
L 304.330909 220.825755 
L 304.398545 241.14435 
L 304.601455 354.875548 
L 304.804364 375.146553 
L 304.939636 376.400748 
L 305.074909 375.487253 
L 306.021818 366.465945 
L 306.901091 363.167402 
L 308.253818 359.561539 
L 308.321455 359.565371 
L 308.727273 361.62538 
L 308.930182 361.622613 
L 309.133091 361.401819 
L 309.809455 359.923562 
L 310.215273 359.170952 
L 310.756364 357.601246 
L 311.568 355.308851 
L 311.770909 355.190996 
L 312.379636 358.692433 
L 312.514909 358.671051 
L 312.717818 358.360917 
L 313.123636 357.200525 
L 313.8 354.3845 
L 314.408727 351.019294 
L 315.964364 337.051301 
L 316.032 337.162063 
L 316.437818 339.73588 
L 316.505455 339.576127 
L 316.573091 339.628158 
L 317.114182 342.789905 
L 317.181818 342.772197 
L 317.317091 342.385814 
L 317.52 341.05097 
L 317.790545 337.536871 
L 318.061091 330.892988 
L 318.264 319.4771 
L 318.399273 292.839423 
L 318.466909 215.83453 
L 318.534545 242.942548 
L 318.737455 355.15424 
L 318.940364 375.510901 
L 319.075636 376.967523 
L 319.210909 376.144963 
L 320.293091 365.648685 
L 321.037091 363.078013 
L 321.916364 361.343336 
L 322.525091 359.548616 
L 323.539636 356.289481 
L 324.148364 353.531342 
L 324.757091 349.498578 
L 326.177455 335.514466 
L 326.380364 330.320381 
L 326.583273 318.700785 
L 326.718545 289.844443 
L 326.786182 208.478591 
L 326.853818 254.403704 
L 327.056727 356.048224 
L 327.259636 374.96855 
L 327.394909 375.907209 
L 327.597818 374.288821 
L 328.544727 365.899375 
L 328.882909 364.314668 
L 329.626909 361.626652 
L 330.032727 360.262664 
L 330.912 358.386322 
L 331.182545 357.443717 
L 332.129455 355.765701 
L 332.805818 353.737532 
L 333.346909 351.4482 
L 333.820364 348.416477 
L 335.037818 338.285266 
L 335.308364 331.961799 
L 335.511273 321.53441 
L 335.646545 301.632756 
L 335.781818 207.731266 
L 335.984727 350.039101 
L 336.187636 375.159436 
L 336.322909 376.96543 
L 336.525818 375.302347 
L 337.405091 367.02421 
L 337.810909 365.231596 
L 340.042909 358.375825 
L 340.448727 357.448543 
L 340.854545 355.917602 
L 341.530909 352.892004 
L 342.477818 349.244774 
L 342.680727 349.132338 
L 342.883636 348.64639 
L 343.154182 347.28414 
L 343.627636 342.910252 
L 343.965818 337.950879 
L 344.236364 330.803874 
L 344.439273 318.544284 
L 344.574545 286.211993 
L 344.642182 196.513361 
L 344.845091 342.155912 
L 345.048 374.488857 
L 345.183273 377.556828 
L 345.250909 377.529045 
L 345.453818 375.626691 
L 346.062545 368.791019 
L 346.468364 366.556478 
L 348.024 360.18996 
L 348.835636 358.359096 
L 349.309091 357.523298 
L 349.782545 356.288296 
L 351.202909 351.397338 
L 352.285091 344.865782 
L 352.690909 340.101547 
L 352.961455 334.20208 
L 353.164364 324.820007 
L 353.299636 308.882719 
L 353.367273 282.563548 
L 353.434909 186.101218 
L 353.637818 346.084656 
L 353.840727 376.99676 
L 353.976 379.50732 
L 354.043636 379.37814 
L 354.314182 376.698381 
L 354.922909 370.522105 
L 355.599273 366.880466 
L 355.937455 366.012834 
L 357.357818 363.092291 
L 358.169455 361.085108 
L 358.642909 359.555086 
L 358.981091 357.973875 
L 359.792727 355.727883 
L 360.536727 353.063838 
L 361.010182 352.90842 
L 361.280727 352.419375 
L 361.618909 351.32614 
L 362.092364 348.90922 
L 362.498182 345.628496 
L 362.971636 339.846425 
L 363.309818 331.739945 
L 363.512727 321.218333 
L 363.648 299.932528 
L 363.783273 214.949814 
L 363.986182 351.897137 
L 364.189091 375.027632 
L 364.324364 376.520226 
L 364.459636 375.804429 
L 365.474182 367.639992 
L 366.150545 365.044626 
L 368.585455 357.538017 
L 370.141091 350.208816 
L 370.208727 350.224704 
L 370.749818 350.943327 
L 370.952727 350.612436 
L 371.223273 349.5817 
L 371.629091 347.037179 
L 371.967273 343.775257 
L 372.305455 338.161557 
L 372.576 329.723615 
L 372.778909 314.279193 
L 372.846545 299.784266 
L 372.981818 215.632902 
L 373.184727 353.628448 
L 373.387636 376.725594 
L 373.522909 378.167301 
L 373.658182 377.257313 
L 374.943273 364.346993 
L 375.484364 362.449075 
L 375.754909 361.985509 
L 376.363636 361.421616 
L 376.701818 360.66172 
L 377.986909 356.494463 
L 378.528 354.255379 
L 380.083636 345.259553 
L 380.489455 340.074392 
L 380.895273 332.222366 
L 381.165818 323.494564 
L 381.301091 313.566402 
L 381.436364 279.072854 
L 381.504 223.448335 
L 381.706909 333.759992 
L 381.909818 361.290248 
L 382.112727 365.635754 
L 382.180364 365.568038 
L 382.383273 364.112018 
L 384.141818 348.030878 
L 384.48 345.363194 
L 385.021091 340.260792 
L 385.291636 336.848655 
L 385.494545 331.242062 
L 385.697455 319.633403 
L 385.832727 293.154865 
L 385.900364 216.383076 
L 385.968 242.976732 
L 386.170909 355.854923 
L 386.373818 375.931199 
L 386.509091 377.143457 
L 386.644364 376.288461 
L 387.794182 365.894502 
L 389.417455 358.771622 
L 389.890909 357.823943 
L 391.446545 352.716351 
L 391.852364 351.11737 
L 392.934545 345.722035 
L 393.475636 338.843488 
L 393.746182 333.122741 
L 393.949091 324.588124 
L 394.084364 310.089316 
L 394.152 288.676852 
L 394.219636 198.819204 
L 394.490182 358.558535 
L 394.693091 376.842374 
L 394.828364 377.784469 
L 395.031273 376.17216 
L 395.978182 366.964875 
L 396.384 365.050064 
L 397.060364 362.814755 
L 397.330909 362.381111 
L 397.872 361.686548 
L 398.277818 360.801294 
L 398.616 359.578873 
L 399.157091 357.893259 
L 399.765818 355.554753 
L 401.727273 347.950789 
L 402.065455 345.737283 
L 402.336 342.766448 
L 402.741818 334.735974 
L 403.08 322.73397 
L 403.215273 313.142807 
L 403.350545 286.175644 
L 403.418182 246.556711 
L 403.485818 269.205814 
L 403.688727 335.094507 
L 403.891636 352.88597 
L 404.094545 356.109865 
L 404.162182 355.990893 
L 404.432727 353.836566 
L 405.109091 346.330876 
L 405.514909 339.285865 
L 405.785455 330.599028 
L 405.920727 321.674655 
L 406.056 293.502004 
L 406.123636 193.840961 
L 406.191273 242.953767 
L 406.394182 360.595126 
L 406.597091 379.581015 
L 406.664727 380.298788 
L 406.732364 380.2274 
L 406.935273 378.409978 
L 407.611636 371.980339 
L 408.288 367.974856 
L 408.896727 365.670549 
L 410.046545 362.190886 
L 410.452364 361.578264 
L 410.858182 361.364963 
L 411.196364 360.778391 
L 411.534545 360.387703 
L 411.669818 360.056179 
L 412.008 358.954918 
L 412.413818 357.988915 
L 412.819636 356.532454 
L 413.225455 355.444637 
L 413.766545 353.361386 
L 414.781091 346.7259 
L 415.322182 340.888424 
L 415.660364 334.863913 
L 415.930909 325.79759 
L 416.066182 316.940303 
L 416.201455 291.314492 
L 416.269091 235.225554 
L 416.336727 250.732466 
L 416.539636 347.614329 
L 416.742545 367.38091 
L 416.877818 369.329692 
L 416.945455 369.27888 
L 417.148364 367.572158 
L 417.621818 363.34758 
L 419.718545 349.069436 
L 420.530182 345.859492 
L 420.936 342.64119 
L 421.274182 337.269305 
L 421.544727 330.044037 
L 421.747636 317.546794 
L 421.882909 283.293139 
L 421.950545 198.174341 
L 422.153455 342.323949 
L 422.356364 373.381237 
L 422.491636 376.392491 
L 422.559273 376.381135 
L 422.694545 375.273712 
L 423.235636 369.485935 
L 423.709091 366.439558 
L 424.858909 361.640913 
L 425.670545 358.996307 
L 426.482182 355.686401 
L 426.955636 353.911811 
L 427.429091 351.837044 
L 427.834909 350.698376 
L 428.105455 349.216889 
L 429.052364 339.269512 
L 429.390545 331.175909 
L 429.593455 320.087605 
L 429.728727 295.53633 
L 429.796364 227.08489 
L 429.864 233.704527 
L 430.066909 354.923031 
L 430.269818 377.029899 
L 430.405091 378.545456 
L 430.472727 378.245079 
L 430.675636 397.144951 
L 431.081455 407.638234 
L 432.772364 442.699854 
L 433.381091 451.022923 
L 433.922182 455.858579 
L 434.463273 458.86338 
L 435.004364 460.650676 
L 435.545455 461.687524 
L 436.086545 462.280933 
L 436.762909 462.676764 
L 437.642182 462.907683 
L 439.130182 463.028167 
L 443.458909 463.058581 
L 498.109091 463.05762 
L 498.109091 463.05762 
" clip-path="url(#p0b4db8015f)" style="fill: none; stroke: #000000; stroke-width: 1.5; stroke-linecap: square"/>
   </g>
   <g id="line2d_14">
    <path d="M 497.973818 408.87 
" clip-path="url(#p0b4db8015f)" style="fill: none; stroke: #000000; stroke-width: 1.5; stroke-linecap: square"/>
   </g>
   <g id="line2d_15">
    <path d="M 430.472727 368.1 
L 430.472727 365.382 
L 430.472727 362.664 
L 430.472727 359.946 
L 430.472727 357.228 
L 430.472727 354.51 
L 430.472727 351.792 
L 430.472727 349.074 
L 430.472727 346.356 
L 430.472727 343.638 
L 430.472727 340.92 
L 430.472727 338.202 
L 430.472727 335.484 
L 430.472727 332.766 
L 430.472727 330.048 
L 430.472727 327.33 
L 430.472727 324.612 
L 430.472727 321.894 
L 430.472727 319.176 
L 430.472727 316.458 
" clip-path="url(#p0b4db8015f)" style="fill: none; stroke: #000000; stroke-width: 1.5; stroke-linecap: square"/>
   </g>
   <g id="patch_3">
    <path d="M 72 504 
L 72 69.12 
" style="fill: none; stroke: #000000; stroke-width: 0.8; stroke-linejoin: miter; stroke-linecap: square"/>
   </g>
   <g id="patch_4">
    <path d="M 518.4 504 
L 518.4 69.12 
" style="fill: none; stroke: #000000; stroke-width: 0.8; stroke-linejoin: miter; stroke-linecap: square"/>
   </g>
   <g id="patch_5">
    <path d="M 72 504 
L 518.4 504 
" style="fill: none; stroke: #000000; stroke-width: 0.8; stroke-linejoin: miter; stroke-linecap: square"/>
   </g>
   <g id="patch_6">
    <path d="M 72 69.12 
L 518.4 69.12 
" style="fill: none; stroke: #000000; stroke-width: 0.8; stroke-linejoin: miter; stroke-linecap: square"/>
   </g>
   <g id="text_15">
    <!-- 500 ms -->
    <g transform="translate(497.973818 406.152)scale(0.22 -0.22)">
     <defs>
      <path id="ArialMT-35" d="M 266 1200 
L 856 1250 
Q 922 819 1161 601 
Q 1400 384 1738 384 
Q 2144 384 2425 690 
Q 2706 997 2706 1503 
Q 2706 1984 2436 2262 
Q 2166 2541 1728 2541 
Q 1456 2541 1237 2417 
Q 1019 2294 894 2097 
L 366 2166 
L 809 4519 
L 3088 4519 
L 3088 3981 
L 1259 3981 
L 1013 2750 
Q 1425 3038 1878 3038 
Q 2478 3038 2890 2622 
Q 3303 2206 3303 1553 
Q 3303 931 2941 478 
Q 2500 -78 1738 -78 
Q 1113 -78 717 272 
Q 322 622 266 1200 
z
" transform="scale(0.015625)"/>
      <path id="ArialMT-30" d="M 266 2259 
Q 266 3072 433 3567 
Q 600 4063 929 4331 
Q 1259 4600 1759 4600 
Q 2128 4600 2406 4451 
Q 2684 4303 2865 4023 
Q 3047 3744 3150 3342 
Q 3253 2941 3253 2259 
Q 3253 1453 3087 958 
Q 2922 463 2592 192 
Q 2263 -78 1759 -78 
Q 1097 -78 719 397 
Q 266 969 266 2259 
z
M 844 2259 
Q 844 1131 1108 757 
Q 1372 384 1759 384 
Q 2147 384 2411 759 
Q 2675 1134 2675 2259 
Q 2675 3391 2411 3762 
Q 2147 4134 1753 4134 
Q 1366 4134 1134 3806 
Q 844 3388 844 2259 
z
" transform="scale(0.015625)"/>
     </defs>
     <use xlink:href="#ArialMT-35"/>
     <use xlink:href="#ArialMT-30" x="55.615234"/>
     <use xlink:href="#ArialMT-30" x="111.230469"/>
     <use xlink:href="#ArialMT-20" x="166.845703"/>
     <use xlink:href="#ArialMT-6d" x="194.628906"/>
     <use xlink:href="#ArialMT-73" x="277.929688"/>
    </g>
   </g>
   <g id="text_16">
    <!-- 20 mV -->
    <g transform="translate(504.737455 321.894)scale(0.22 -0.22)">
     <defs>
      <path id="ArialMT-32" d="M 3222 541 
L 3222 0 
L 194 0 
Q 188 203 259 391 
Q 375 700 629 1000 
Q 884 1300 1366 1694 
Q 2113 2306 2375 2664 
Q 2638 3022 2638 3341 
Q 2638 3675 2398 3904 
Q 2159 4134 1775 4134 
Q 1369 4134 1125 3890 
Q 881 3647 878 3216 
L 300 3275 
Q 359 3922 746 4261 
Q 1134 4600 1788 4600 
Q 2447 4600 2831 4234 
Q 3216 3869 3216 3328 
Q 3216 3053 3103 2787 
Q 2991 2522 2730 2228 
Q 2469 1934 1863 1422 
Q 1356 997 1212 845 
Q 1069 694 975 541 
L 3222 541 
z
" transform="scale(0.015625)"/>
     </defs>
     <use xlink:href="#ArialMT-32"/>
     <use xlink:href="#ArialMT-30" x="55.615234"/>
     <use xlink:href="#ArialMT-20" x="111.230469"/>
     <use xlink:href="#ArialMT-6d" x="139.013672"/>
     <use xlink:href="#ArialMT-56" x="222.314453"/>
    </g>
   </g>
   <g id="text_17">
    <!--  Plotting FS, trace number 13125  -->
    <g transform="translate(130.732812 63.12)scale(0.22 -0.22)">
     <defs>
      <path id="ArialMT-50" d="M 494 0 
L 494 4581 
L 2222 4581 
Q 2678 4581 2919 4538 
Q 3256 4481 3484 4323 
Q 3713 4166 3852 3881 
Q 3991 3597 3991 3256 
Q 3991 2672 3619 2267 
Q 3247 1863 2275 1863 
L 1100 1863 
L 1100 0 
L 494 0 
z
M 1100 2403 
L 2284 2403 
Q 2872 2403 3119 2622 
Q 3366 2841 3366 3238 
Q 3366 3525 3220 3729 
Q 3075 3934 2838 4000 
Q 2684 4041 2272 4041 
L 1100 4041 
L 1100 2403 
z
" transform="scale(0.015625)"/>
      <path id="ArialMT-67" d="M 319 -275 
L 866 -356 
Q 900 -609 1056 -725 
Q 1266 -881 1628 -881 
Q 2019 -881 2231 -725 
Q 2444 -569 2519 -288 
Q 2563 -116 2559 434 
Q 2191 0 1641 0 
Q 956 0 581 494 
Q 206 988 206 1678 
Q 206 2153 378 2554 
Q 550 2956 876 3175 
Q 1203 3394 1644 3394 
Q 2231 3394 2613 2919 
L 2613 3319 
L 3131 3319 
L 3131 450 
Q 3131 -325 2973 -648 
Q 2816 -972 2473 -1159 
Q 2131 -1347 1631 -1347 
Q 1038 -1347 672 -1080 
Q 306 -813 319 -275 
z
M 784 1719 
Q 784 1066 1043 766 
Q 1303 466 1694 466 
Q 2081 466 2343 764 
Q 2606 1063 2606 1700 
Q 2606 2309 2336 2618 
Q 2066 2928 1684 2928 
Q 1309 2928 1046 2623 
Q 784 2319 784 1719 
z
" transform="scale(0.015625)"/>
      <path id="ArialMT-46" d="M 525 0 
L 525 4581 
L 3616 4581 
L 3616 4041 
L 1131 4041 
L 1131 2622 
L 3281 2622 
L 3281 2081 
L 1131 2081 
L 1131 0 
L 525 0 
z
" transform="scale(0.015625)"/>
      <path id="ArialMT-53" d="M 288 1472 
L 859 1522 
Q 900 1178 1048 958 
Q 1197 738 1509 602 
Q 1822 466 2213 466 
Q 2559 466 2825 569 
Q 3091 672 3220 851 
Q 3350 1031 3350 1244 
Q 3350 1459 3225 1620 
Q 3100 1781 2813 1891 
Q 2628 1963 1997 2114 
Q 1366 2266 1113 2400 
Q 784 2572 623 2826 
Q 463 3081 463 3397 
Q 463 3744 659 4045 
Q 856 4347 1234 4503 
Q 1613 4659 2075 4659 
Q 2584 4659 2973 4495 
Q 3363 4331 3572 4012 
Q 3781 3694 3797 3291 
L 3216 3247 
Q 3169 3681 2898 3903 
Q 2628 4125 2100 4125 
Q 1550 4125 1298 3923 
Q 1047 3722 1047 3438 
Q 1047 3191 1225 3031 
Q 1400 2872 2139 2705 
Q 2878 2538 3153 2413 
Q 3553 2228 3743 1945 
Q 3934 1663 3934 1294 
Q 3934 928 3725 604 
Q 3516 281 3123 101 
Q 2731 -78 2241 -78 
Q 1619 -78 1198 103 
Q 778 284 539 648 
Q 300 1013 288 1472 
z
" transform="scale(0.015625)"/>
      <path id="ArialMT-2c" d="M 569 0 
L 569 641 
L 1209 641 
L 1209 0 
Q 1209 -353 1084 -570 
Q 959 -788 688 -906 
L 531 -666 
Q 709 -588 793 -436 
Q 878 -284 888 0 
L 569 0 
z
" transform="scale(0.015625)"/>
      <path id="ArialMT-63" d="M 2588 1216 
L 3141 1144 
Q 3050 572 2676 248 
Q 2303 -75 1759 -75 
Q 1078 -75 664 370 
Q 250 816 250 1647 
Q 250 2184 428 2587 
Q 606 2991 970 3192 
Q 1334 3394 1763 3394 
Q 2303 3394 2647 3120 
Q 2991 2847 3088 2344 
L 2541 2259 
Q 2463 2594 2264 2762 
Q 2066 2931 1784 2931 
Q 1359 2931 1093 2626 
Q 828 2322 828 1663 
Q 828 994 1084 691 
Q 1341 388 1753 388 
Q 2084 388 2306 591 
Q 2528 794 2588 1216 
z
" transform="scale(0.015625)"/>
      <path id="ArialMT-75" d="M 2597 0 
L 2597 488 
Q 2209 -75 1544 -75 
Q 1250 -75 995 37 
Q 741 150 617 320 
Q 494 491 444 738 
Q 409 903 409 1263 
L 409 3319 
L 972 3319 
L 972 1478 
Q 972 1038 1006 884 
Q 1059 663 1231 536 
Q 1403 409 1656 409 
Q 1909 409 2131 539 
Q 2353 669 2445 892 
Q 2538 1116 2538 1541 
L 2538 3319 
L 3100 3319 
L 3100 0 
L 2597 0 
z
" transform="scale(0.015625)"/>
      <path id="ArialMT-31" d="M 2384 0 
L 1822 0 
L 1822 3584 
Q 1619 3391 1289 3197 
Q 959 3003 697 2906 
L 697 3450 
Q 1169 3672 1522 3987 
Q 1875 4303 2022 4600 
L 2384 4600 
L 2384 0 
z
" transform="scale(0.015625)"/>
      <path id="ArialMT-33" d="M 269 1209 
L 831 1284 
Q 928 806 1161 595 
Q 1394 384 1728 384 
Q 2125 384 2398 659 
Q 2672 934 2672 1341 
Q 2672 1728 2419 1979 
Q 2166 2231 1775 2231 
Q 1616 2231 1378 2169 
L 1441 2663 
Q 1497 2656 1531 2656 
Q 1891 2656 2178 2843 
Q 2466 3031 2466 3422 
Q 2466 3731 2256 3934 
Q 2047 4138 1716 4138 
Q 1388 4138 1169 3931 
Q 950 3725 888 3313 
L 325 3413 
Q 428 3978 793 4289 
Q 1159 4600 1703 4600 
Q 2078 4600 2393 4439 
Q 2709 4278 2876 4000 
Q 3044 3722 3044 3409 
Q 3044 3113 2884 2869 
Q 2725 2625 2413 2481 
Q 2819 2388 3044 2092 
Q 3269 1797 3269 1353 
Q 3269 753 2831 336 
Q 2394 -81 1725 -81 
Q 1122 -81 723 278 
Q 325 638 269 1209 
z
" transform="scale(0.015625)"/>
     </defs>
     <use xlink:href="#ArialMT-20"/>
     <use xlink:href="#ArialMT-50" x="27.783203"/>
     <use xlink:href="#ArialMT-6c" x="94.482422"/>
     <use xlink:href="#ArialMT-6f" x="116.699219"/>
     <use xlink:href="#ArialMT-74" x="172.314453"/>
     <use xlink:href="#ArialMT-74" x="200.097656"/>
     <use xlink:href="#ArialMT-69" x="227.880859"/>
     <use xlink:href="#ArialMT-6e" x="250.097656"/>
     <use xlink:href="#ArialMT-67" x="305.712891"/>
     <use xlink:href="#ArialMT-20" x="361.328125"/>
     <use xlink:href="#ArialMT-46" x="389.111328"/>
     <use xlink:href="#ArialMT-53" x="450.195312"/>
     <use xlink:href="#ArialMT-2c" x="516.894531"/>
     <use xlink:href="#ArialMT-20" x="544.677734"/>
     <use xlink:href="#ArialMT-74" x="572.460938"/>
     <use xlink:href="#ArialMT-72" x="600.244141"/>
     <use xlink:href="#ArialMT-61" x="633.544922"/>
     <use xlink:href="#ArialMT-63" x="689.160156"/>
     <use xlink:href="#ArialMT-65" x="739.160156"/>
     <use xlink:href="#ArialMT-20" x="794.775391"/>
     <use xlink:href="#ArialMT-6e" x="822.558594"/>
     <use xlink:href="#ArialMT-75" x="878.173828"/>
     <use xlink:href="#ArialMT-6d" x="933.789062"/>
     <use xlink:href="#ArialMT-62" x="1017.089844"/>
     <use xlink:href="#ArialMT-65" x="1072.705078"/>
     <use xlink:href="#ArialMT-72" x="1128.320312"/>
     <use xlink:href="#ArialMT-20" x="1161.621094"/>
     <use xlink:href="#ArialMT-31" x="1189.404297"/>
     <use xlink:href="#ArialMT-33" x="1245.019531"/>
     <use xlink:href="#ArialMT-31" x="1300.634766"/>
     <use xlink:href="#ArialMT-32" x="1356.25"/>
     <use xlink:href="#ArialMT-35" x="1411.865234"/>
     <use xlink:href="#ArialMT-20" x="1467.480469"/>
    </g>
   </g>
  </g>
 </g>
 <defs>
  <clipPath id="p0b4db8015f">
   <rect x="72" y="69.12" width="446.4" height="434.88"/>
  </clipPath>
 </defs>
</svg>
