<?xml version="1.0" encoding="utf-8" standalone="no"?>
<!DOCTYPE svg PUBLIC "-//W3C//DTD SVG 1.1//EN"
  "http://www.w3.org/Graphics/SVG/1.1/DTD/svg11.dtd">
<svg xmlns:xlink="http://www.w3.org/1999/xlink" width="576pt" height="576pt" viewBox="0 0 576 576" xmlns="http://www.w3.org/2000/svg" version="1.1">
 <metadata>
  <rdf:RDF xmlns:dc="http://purl.org/dc/elements/1.1/" xmlns:cc="http://creativecommons.org/ns#" xmlns:rdf="http://www.w3.org/1999/02/22-rdf-syntax-ns#">
   <cc:Work>
    <dc:type rdf:resource="http://purl.org/dc/dcmitype/StillImage"/>
    <dc:date>2022-10-30T19:57:03.015744</dc:date>
    <dc:format>image/svg+xml</dc:format>
    <dc:creator>
     <cc:Agent>
      <dc:title>Matplotlib v3.5.2, https://matplotlib.org/</dc:title>
     </cc:Agent>
    </dc:creator>
   </cc:Work>
  </rdf:RDF>
 </metadata>
 <defs>
  <style type="text/css">*{stroke-linejoin: round; stroke-linecap: butt}</style>
 </defs>
 <g id="figure_1">
  <g id="patch_1">
   <path d="M 0 576 
L 576 576 
L 576 0 
L 0 0 
L 0 576 
z
" style="fill: none"/>
  </g>
  <g id="axes_1">
   <g id="patch_2">
    <path d="M 72 504 
L 518.4 504 
L 518.4 69.12 
L 72 69.12 
z
" style="fill: #ffffff"/>
   </g>
   <g id="matplotlib.axis_1">
    <g id="xtick_1">
     <g id="line2d_1">
      <defs>
       <path id="mc2fa2c33b2" d="M 0 0 
L 0 3.5 
" style="stroke: #000000; stroke-width: 0.8"/>
      </defs>
      <g>
       <use xlink:href="#mc2fa2c33b2" x="92.290909" y="504" style="stroke: #000000; stroke-width: 0.8"/>
      </g>
     </g>
     <g id="text_1">
      <!-- 0 -->
      <g transform="translate(85.292159 527.716563)scale(0.22 -0.22)">
       <defs>
        <path id="DejaVuSans-30" d="M 2034 4250 
Q 1547 4250 1301 3770 
Q 1056 3291 1056 2328 
Q 1056 1369 1301 889 
Q 1547 409 2034 409 
Q 2525 409 2770 889 
Q 3016 1369 3016 2328 
Q 3016 3291 2770 3770 
Q 2525 4250 2034 4250 
z
M 2034 4750 
Q 2819 4750 3233 4129 
Q 3647 3509 3647 2328 
Q 3647 1150 3233 529 
Q 2819 -91 2034 -91 
Q 1250 -91 836 529 
Q 422 1150 422 2328 
Q 422 3509 836 4129 
Q 1250 4750 2034 4750 
z
" transform="scale(0.015625)"/>
       </defs>
       <use xlink:href="#DejaVuSans-30"/>
      </g>
     </g>
    </g>
    <g id="xtick_2">
     <g id="line2d_2">
      <g>
       <use xlink:href="#mc2fa2c33b2" x="227.563636" y="504" style="stroke: #000000; stroke-width: 0.8"/>
      </g>
     </g>
     <g id="text_2">
      <!-- 1000 -->
      <g transform="translate(199.568636 527.716563)scale(0.22 -0.22)">
       <defs>
        <path id="DejaVuSans-31" d="M 794 531 
L 1825 531 
L 1825 4091 
L 703 3866 
L 703 4441 
L 1819 4666 
L 2450 4666 
L 2450 531 
L 3481 531 
L 3481 0 
L 794 0 
L 794 531 
z
" transform="scale(0.015625)"/>
       </defs>
       <use xlink:href="#DejaVuSans-31"/>
       <use xlink:href="#DejaVuSans-30" x="63.623047"/>
       <use xlink:href="#DejaVuSans-30" x="127.246094"/>
       <use xlink:href="#DejaVuSans-30" x="190.869141"/>
      </g>
     </g>
    </g>
    <g id="xtick_3">
     <g id="line2d_3">
      <g>
       <use xlink:href="#mc2fa2c33b2" x="362.836364" y="504" style="stroke: #000000; stroke-width: 0.8"/>
      </g>
     </g>
     <g id="text_3">
      <!-- 2000 -->
      <g transform="translate(334.841364 527.716563)scale(0.22 -0.22)">
       <defs>
        <path id="DejaVuSans-32" d="M 1228 531 
L 3431 531 
L 3431 0 
L 469 0 
L 469 531 
Q 828 903 1448 1529 
Q 2069 2156 2228 2338 
Q 2531 2678 2651 2914 
Q 2772 3150 2772 3378 
Q 2772 3750 2511 3984 
Q 2250 4219 1831 4219 
Q 1534 4219 1204 4116 
Q 875 4013 500 3803 
L 500 4441 
Q 881 4594 1212 4672 
Q 1544 4750 1819 4750 
Q 2544 4750 2975 4387 
Q 3406 4025 3406 3419 
Q 3406 3131 3298 2873 
Q 3191 2616 2906 2266 
Q 2828 2175 2409 1742 
Q 1991 1309 1228 531 
z
" transform="scale(0.015625)"/>
       </defs>
       <use xlink:href="#DejaVuSans-32"/>
       <use xlink:href="#DejaVuSans-30" x="63.623047"/>
       <use xlink:href="#DejaVuSans-30" x="127.246094"/>
       <use xlink:href="#DejaVuSans-30" x="190.869141"/>
      </g>
     </g>
    </g>
    <g id="xtick_4">
     <g id="line2d_4">
      <g>
       <use xlink:href="#mc2fa2c33b2" x="498.109091" y="504" style="stroke: #000000; stroke-width: 0.8"/>
      </g>
     </g>
     <g id="text_4">
      <!-- 3000 -->
      <g transform="translate(470.114091 527.716563)scale(0.22 -0.22)">
       <defs>
        <path id="DejaVuSans-33" d="M 2597 2516 
Q 3050 2419 3304 2112 
Q 3559 1806 3559 1356 
Q 3559 666 3084 287 
Q 2609 -91 1734 -91 
Q 1441 -91 1130 -33 
Q 819 25 488 141 
L 488 750 
Q 750 597 1062 519 
Q 1375 441 1716 441 
Q 2309 441 2620 675 
Q 2931 909 2931 1356 
Q 2931 1769 2642 2001 
Q 2353 2234 1838 2234 
L 1294 2234 
L 1294 2753 
L 1863 2753 
Q 2328 2753 2575 2939 
Q 2822 3125 2822 3475 
Q 2822 3834 2567 4026 
Q 2313 4219 1838 4219 
Q 1578 4219 1281 4162 
Q 984 4106 628 3988 
L 628 4550 
Q 988 4650 1302 4700 
Q 1616 4750 1894 4750 
Q 2613 4750 3031 4423 
Q 3450 4097 3450 3541 
Q 3450 3153 3228 2886 
Q 3006 2619 2597 2516 
z
" transform="scale(0.015625)"/>
       </defs>
       <use xlink:href="#DejaVuSans-33"/>
       <use xlink:href="#DejaVuSans-30" x="63.623047"/>
       <use xlink:href="#DejaVuSans-30" x="127.246094"/>
       <use xlink:href="#DejaVuSans-30" x="190.869141"/>
      </g>
     </g>
    </g>
    <g id="text_5">
     <!-- Time(ms) -->
     <g transform="translate(249.182187 552.307188)scale(0.22 -0.22)">
      <defs>
       <path id="ArialMT-54" d="M 1659 0 
L 1659 4041 
L 150 4041 
L 150 4581 
L 3781 4581 
L 3781 4041 
L 2266 4041 
L 2266 0 
L 1659 0 
z
" transform="scale(0.015625)"/>
       <path id="ArialMT-69" d="M 425 3934 
L 425 4581 
L 988 4581 
L 988 3934 
L 425 3934 
z
M 425 0 
L 425 3319 
L 988 3319 
L 988 0 
L 425 0 
z
" transform="scale(0.015625)"/>
       <path id="ArialMT-6d" d="M 422 0 
L 422 3319 
L 925 3319 
L 925 2853 
Q 1081 3097 1340 3245 
Q 1600 3394 1931 3394 
Q 2300 3394 2536 3241 
Q 2772 3088 2869 2813 
Q 3263 3394 3894 3394 
Q 4388 3394 4653 3120 
Q 4919 2847 4919 2278 
L 4919 0 
L 4359 0 
L 4359 2091 
Q 4359 2428 4304 2576 
Q 4250 2725 4106 2815 
Q 3963 2906 3769 2906 
Q 3419 2906 3187 2673 
Q 2956 2441 2956 1928 
L 2956 0 
L 2394 0 
L 2394 2156 
Q 2394 2531 2256 2718 
Q 2119 2906 1806 2906 
Q 1569 2906 1367 2781 
Q 1166 2656 1075 2415 
Q 984 2175 984 1722 
L 984 0 
L 422 0 
z
" transform="scale(0.015625)"/>
       <path id="ArialMT-65" d="M 2694 1069 
L 3275 997 
Q 3138 488 2766 206 
Q 2394 -75 1816 -75 
Q 1088 -75 661 373 
Q 234 822 234 1631 
Q 234 2469 665 2931 
Q 1097 3394 1784 3394 
Q 2450 3394 2872 2941 
Q 3294 2488 3294 1666 
Q 3294 1616 3291 1516 
L 816 1516 
Q 847 969 1125 678 
Q 1403 388 1819 388 
Q 2128 388 2347 550 
Q 2566 713 2694 1069 
z
M 847 1978 
L 2700 1978 
Q 2663 2397 2488 2606 
Q 2219 2931 1791 2931 
Q 1403 2931 1139 2672 
Q 875 2413 847 1978 
z
" transform="scale(0.015625)"/>
       <path id="ArialMT-28" d="M 1497 -1347 
Q 1031 -759 709 28 
Q 388 816 388 1659 
Q 388 2403 628 3084 
Q 909 3875 1497 4659 
L 1900 4659 
Q 1522 4009 1400 3731 
Q 1209 3300 1100 2831 
Q 966 2247 966 1656 
Q 966 153 1900 -1347 
L 1497 -1347 
z
" transform="scale(0.015625)"/>
       <path id="ArialMT-73" d="M 197 991 
L 753 1078 
Q 800 744 1014 566 
Q 1228 388 1613 388 
Q 2000 388 2187 545 
Q 2375 703 2375 916 
Q 2375 1106 2209 1216 
Q 2094 1291 1634 1406 
Q 1016 1563 777 1677 
Q 538 1791 414 1992 
Q 291 2194 291 2438 
Q 291 2659 392 2848 
Q 494 3038 669 3163 
Q 800 3259 1026 3326 
Q 1253 3394 1513 3394 
Q 1903 3394 2198 3281 
Q 2494 3169 2634 2976 
Q 2775 2784 2828 2463 
L 2278 2388 
Q 2241 2644 2061 2787 
Q 1881 2931 1553 2931 
Q 1166 2931 1000 2803 
Q 834 2675 834 2503 
Q 834 2394 903 2306 
Q 972 2216 1119 2156 
Q 1203 2125 1616 2013 
Q 2213 1853 2448 1751 
Q 2684 1650 2818 1456 
Q 2953 1263 2953 975 
Q 2953 694 2789 445 
Q 2625 197 2315 61 
Q 2006 -75 1616 -75 
Q 969 -75 630 194 
Q 291 463 197 991 
z
" transform="scale(0.015625)"/>
       <path id="ArialMT-29" d="M 791 -1347 
L 388 -1347 
Q 1322 153 1322 1656 
Q 1322 2244 1188 2822 
Q 1081 3291 891 3722 
Q 769 4003 388 4659 
L 791 4659 
Q 1378 3875 1659 3084 
Q 1900 2403 1900 1659 
Q 1900 816 1576 28 
Q 1253 -759 791 -1347 
z
" transform="scale(0.015625)"/>
      </defs>
      <use xlink:href="#ArialMT-54"/>
      <use xlink:href="#ArialMT-69" x="57.333984"/>
      <use xlink:href="#ArialMT-6d" x="79.550781"/>
      <use xlink:href="#ArialMT-65" x="162.851562"/>
      <use xlink:href="#ArialMT-28" x="218.466797"/>
      <use xlink:href="#ArialMT-6d" x="251.767578"/>
      <use xlink:href="#ArialMT-73" x="335.068359"/>
      <use xlink:href="#ArialMT-29" x="385.068359"/>
     </g>
    </g>
   </g>
   <g id="matplotlib.axis_2">
    <g id="ytick_1">
     <g id="line2d_5">
      <defs>
       <path id="mfdcbeaebca" d="M 0 0 
L -3.5 0 
" style="stroke: #000000; stroke-width: 0.8"/>
      </defs>
      <g>
       <use xlink:href="#mfdcbeaebca" x="72" y="476.82" style="stroke: #000000; stroke-width: 0.8"/>
      </g>
     </g>
     <g id="text_6">
      <!-- −100 -->
      <g transform="translate(4.572187 485.178281)scale(0.22 -0.22)">
       <defs>
        <path id="DejaVuSans-2212" d="M 678 2272 
L 4684 2272 
L 4684 1741 
L 678 1741 
L 678 2272 
z
" transform="scale(0.015625)"/>
       </defs>
       <use xlink:href="#DejaVuSans-2212"/>
       <use xlink:href="#DejaVuSans-31" x="83.789062"/>
       <use xlink:href="#DejaVuSans-30" x="147.412109"/>
       <use xlink:href="#DejaVuSans-30" x="211.035156"/>
      </g>
     </g>
    </g>
    <g id="ytick_2">
     <g id="line2d_6">
      <g>
       <use xlink:href="#mfdcbeaebca" x="72" y="422.46" style="stroke: #000000; stroke-width: 0.8"/>
      </g>
     </g>
     <g id="text_7">
      <!-- −80 -->
      <g transform="translate(18.569688 430.818281)scale(0.22 -0.22)">
       <defs>
        <path id="DejaVuSans-38" d="M 2034 2216 
Q 1584 2216 1326 1975 
Q 1069 1734 1069 1313 
Q 1069 891 1326 650 
Q 1584 409 2034 409 
Q 2484 409 2743 651 
Q 3003 894 3003 1313 
Q 3003 1734 2745 1975 
Q 2488 2216 2034 2216 
z
M 1403 2484 
Q 997 2584 770 2862 
Q 544 3141 544 3541 
Q 544 4100 942 4425 
Q 1341 4750 2034 4750 
Q 2731 4750 3128 4425 
Q 3525 4100 3525 3541 
Q 3525 3141 3298 2862 
Q 3072 2584 2669 2484 
Q 3125 2378 3379 2068 
Q 3634 1759 3634 1313 
Q 3634 634 3220 271 
Q 2806 -91 2034 -91 
Q 1263 -91 848 271 
Q 434 634 434 1313 
Q 434 1759 690 2068 
Q 947 2378 1403 2484 
z
M 1172 3481 
Q 1172 3119 1398 2916 
Q 1625 2713 2034 2713 
Q 2441 2713 2670 2916 
Q 2900 3119 2900 3481 
Q 2900 3844 2670 4047 
Q 2441 4250 2034 4250 
Q 1625 4250 1398 4047 
Q 1172 3844 1172 3481 
z
" transform="scale(0.015625)"/>
       </defs>
       <use xlink:href="#DejaVuSans-2212"/>
       <use xlink:href="#DejaVuSans-38" x="83.789062"/>
       <use xlink:href="#DejaVuSans-30" x="147.412109"/>
      </g>
     </g>
    </g>
    <g id="ytick_3">
     <g id="line2d_7">
      <g>
       <use xlink:href="#mfdcbeaebca" x="72" y="368.1" style="stroke: #000000; stroke-width: 0.8"/>
      </g>
     </g>
     <g id="text_8">
      <!-- −60 -->
      <g transform="translate(18.569688 376.458281)scale(0.22 -0.22)">
       <defs>
        <path id="DejaVuSans-36" d="M 2113 2584 
Q 1688 2584 1439 2293 
Q 1191 2003 1191 1497 
Q 1191 994 1439 701 
Q 1688 409 2113 409 
Q 2538 409 2786 701 
Q 3034 994 3034 1497 
Q 3034 2003 2786 2293 
Q 2538 2584 2113 2584 
z
M 3366 4563 
L 3366 3988 
Q 3128 4100 2886 4159 
Q 2644 4219 2406 4219 
Q 1781 4219 1451 3797 
Q 1122 3375 1075 2522 
Q 1259 2794 1537 2939 
Q 1816 3084 2150 3084 
Q 2853 3084 3261 2657 
Q 3669 2231 3669 1497 
Q 3669 778 3244 343 
Q 2819 -91 2113 -91 
Q 1303 -91 875 529 
Q 447 1150 447 2328 
Q 447 3434 972 4092 
Q 1497 4750 2381 4750 
Q 2619 4750 2861 4703 
Q 3103 4656 3366 4563 
z
" transform="scale(0.015625)"/>
       </defs>
       <use xlink:href="#DejaVuSans-2212"/>
       <use xlink:href="#DejaVuSans-36" x="83.789062"/>
       <use xlink:href="#DejaVuSans-30" x="147.412109"/>
      </g>
     </g>
    </g>
    <g id="ytick_4">
     <g id="line2d_8">
      <g>
       <use xlink:href="#mfdcbeaebca" x="72" y="313.74" style="stroke: #000000; stroke-width: 0.8"/>
      </g>
     </g>
     <g id="text_9">
      <!-- −40 -->
      <g transform="translate(18.569688 322.098281)scale(0.22 -0.22)">
       <defs>
        <path id="DejaVuSans-34" d="M 2419 4116 
L 825 1625 
L 2419 1625 
L 2419 4116 
z
M 2253 4666 
L 3047 4666 
L 3047 1625 
L 3713 1625 
L 3713 1100 
L 3047 1100 
L 3047 0 
L 2419 0 
L 2419 1100 
L 313 1100 
L 313 1709 
L 2253 4666 
z
" transform="scale(0.015625)"/>
       </defs>
       <use xlink:href="#DejaVuSans-2212"/>
       <use xlink:href="#DejaVuSans-34" x="83.789062"/>
       <use xlink:href="#DejaVuSans-30" x="147.412109"/>
      </g>
     </g>
    </g>
    <g id="ytick_5">
     <g id="line2d_9">
      <g>
       <use xlink:href="#mfdcbeaebca" x="72" y="259.38" style="stroke: #000000; stroke-width: 0.8"/>
      </g>
     </g>
     <g id="text_10">
      <!-- −20 -->
      <g transform="translate(18.569688 267.738281)scale(0.22 -0.22)">
       <use xlink:href="#DejaVuSans-2212"/>
       <use xlink:href="#DejaVuSans-32" x="83.789062"/>
       <use xlink:href="#DejaVuSans-30" x="147.412109"/>
      </g>
     </g>
    </g>
    <g id="ytick_6">
     <g id="line2d_10">
      <g>
       <use xlink:href="#mfdcbeaebca" x="72" y="205.02" style="stroke: #000000; stroke-width: 0.8"/>
      </g>
     </g>
     <g id="text_11">
      <!-- 0 -->
      <g transform="translate(51.0025 213.378281)scale(0.22 -0.22)">
       <use xlink:href="#DejaVuSans-30"/>
      </g>
     </g>
    </g>
    <g id="ytick_7">
     <g id="line2d_11">
      <g>
       <use xlink:href="#mfdcbeaebca" x="72" y="150.66" style="stroke: #000000; stroke-width: 0.8"/>
      </g>
     </g>
     <g id="text_12">
      <!-- 20 -->
      <g transform="translate(37.005 159.018281)scale(0.22 -0.22)">
       <use xlink:href="#DejaVuSans-32"/>
       <use xlink:href="#DejaVuSans-30" x="63.623047"/>
      </g>
     </g>
    </g>
    <g id="ytick_8">
     <g id="line2d_12">
      <g>
       <use xlink:href="#mfdcbeaebca" x="72" y="96.3" style="stroke: #000000; stroke-width: 0.8"/>
      </g>
     </g>
     <g id="text_13">
      <!-- 40 -->
      <g transform="translate(37.005 104.658281)scale(0.22 -0.22)">
       <use xlink:href="#DejaVuSans-34"/>
       <use xlink:href="#DejaVuSans-30" x="63.623047"/>
      </g>
     </g>
    </g>
    <g id="text_14">
     <!-- Membrane potential (mV) -->
     <g transform="translate(-4.058125 410.655469)rotate(-90)scale(0.22 -0.22)">
      <defs>
       <path id="ArialMT-4d" d="M 475 0 
L 475 4581 
L 1388 4581 
L 2472 1338 
Q 2622 884 2691 659 
Q 2769 909 2934 1394 
L 4031 4581 
L 4847 4581 
L 4847 0 
L 4263 0 
L 4263 3834 
L 2931 0 
L 2384 0 
L 1059 3900 
L 1059 0 
L 475 0 
z
" transform="scale(0.015625)"/>
       <path id="ArialMT-62" d="M 941 0 
L 419 0 
L 419 4581 
L 981 4581 
L 981 2947 
Q 1338 3394 1891 3394 
Q 2197 3394 2470 3270 
Q 2744 3147 2920 2923 
Q 3097 2700 3197 2384 
Q 3297 2069 3297 1709 
Q 3297 856 2875 390 
Q 2453 -75 1863 -75 
Q 1275 -75 941 416 
L 941 0 
z
M 934 1684 
Q 934 1088 1097 822 
Q 1363 388 1816 388 
Q 2184 388 2453 708 
Q 2722 1028 2722 1663 
Q 2722 2313 2464 2622 
Q 2206 2931 1841 2931 
Q 1472 2931 1203 2611 
Q 934 2291 934 1684 
z
" transform="scale(0.015625)"/>
       <path id="ArialMT-72" d="M 416 0 
L 416 3319 
L 922 3319 
L 922 2816 
Q 1116 3169 1280 3281 
Q 1444 3394 1641 3394 
Q 1925 3394 2219 3213 
L 2025 2691 
Q 1819 2813 1613 2813 
Q 1428 2813 1281 2702 
Q 1134 2591 1072 2394 
Q 978 2094 978 1738 
L 978 0 
L 416 0 
z
" transform="scale(0.015625)"/>
       <path id="ArialMT-61" d="M 2588 409 
Q 2275 144 1986 34 
Q 1697 -75 1366 -75 
Q 819 -75 525 192 
Q 231 459 231 875 
Q 231 1119 342 1320 
Q 453 1522 633 1644 
Q 813 1766 1038 1828 
Q 1203 1872 1538 1913 
Q 2219 1994 2541 2106 
Q 2544 2222 2544 2253 
Q 2544 2597 2384 2738 
Q 2169 2928 1744 2928 
Q 1347 2928 1158 2789 
Q 969 2650 878 2297 
L 328 2372 
Q 403 2725 575 2942 
Q 747 3159 1072 3276 
Q 1397 3394 1825 3394 
Q 2250 3394 2515 3294 
Q 2781 3194 2906 3042 
Q 3031 2891 3081 2659 
Q 3109 2516 3109 2141 
L 3109 1391 
Q 3109 606 3145 398 
Q 3181 191 3288 0 
L 2700 0 
Q 2613 175 2588 409 
z
M 2541 1666 
Q 2234 1541 1622 1453 
Q 1275 1403 1131 1340 
Q 988 1278 909 1158 
Q 831 1038 831 891 
Q 831 666 1001 516 
Q 1172 366 1500 366 
Q 1825 366 2078 508 
Q 2331 650 2450 897 
Q 2541 1088 2541 1459 
L 2541 1666 
z
" transform="scale(0.015625)"/>
       <path id="ArialMT-6e" d="M 422 0 
L 422 3319 
L 928 3319 
L 928 2847 
Q 1294 3394 1984 3394 
Q 2284 3394 2536 3286 
Q 2788 3178 2913 3003 
Q 3038 2828 3088 2588 
Q 3119 2431 3119 2041 
L 3119 0 
L 2556 0 
L 2556 2019 
Q 2556 2363 2490 2533 
Q 2425 2703 2258 2804 
Q 2091 2906 1866 2906 
Q 1506 2906 1245 2678 
Q 984 2450 984 1813 
L 984 0 
L 422 0 
z
" transform="scale(0.015625)"/>
       <path id="ArialMT-20" transform="scale(0.015625)"/>
       <path id="ArialMT-70" d="M 422 -1272 
L 422 3319 
L 934 3319 
L 934 2888 
Q 1116 3141 1344 3267 
Q 1572 3394 1897 3394 
Q 2322 3394 2647 3175 
Q 2972 2956 3137 2557 
Q 3303 2159 3303 1684 
Q 3303 1175 3120 767 
Q 2938 359 2589 142 
Q 2241 -75 1856 -75 
Q 1575 -75 1351 44 
Q 1128 163 984 344 
L 984 -1272 
L 422 -1272 
z
M 931 1641 
Q 931 1000 1190 694 
Q 1450 388 1819 388 
Q 2194 388 2461 705 
Q 2728 1022 2728 1688 
Q 2728 2322 2467 2637 
Q 2206 2953 1844 2953 
Q 1484 2953 1207 2617 
Q 931 2281 931 1641 
z
" transform="scale(0.015625)"/>
       <path id="ArialMT-6f" d="M 213 1659 
Q 213 2581 725 3025 
Q 1153 3394 1769 3394 
Q 2453 3394 2887 2945 
Q 3322 2497 3322 1706 
Q 3322 1066 3130 698 
Q 2938 331 2570 128 
Q 2203 -75 1769 -75 
Q 1072 -75 642 372 
Q 213 819 213 1659 
z
M 791 1659 
Q 791 1022 1069 705 
Q 1347 388 1769 388 
Q 2188 388 2466 706 
Q 2744 1025 2744 1678 
Q 2744 2294 2464 2611 
Q 2184 2928 1769 2928 
Q 1347 2928 1069 2612 
Q 791 2297 791 1659 
z
" transform="scale(0.015625)"/>
       <path id="ArialMT-74" d="M 1650 503 
L 1731 6 
Q 1494 -44 1306 -44 
Q 1000 -44 831 53 
Q 663 150 594 308 
Q 525 466 525 972 
L 525 2881 
L 113 2881 
L 113 3319 
L 525 3319 
L 525 4141 
L 1084 4478 
L 1084 3319 
L 1650 3319 
L 1650 2881 
L 1084 2881 
L 1084 941 
Q 1084 700 1114 631 
Q 1144 563 1211 522 
Q 1278 481 1403 481 
Q 1497 481 1650 503 
z
" transform="scale(0.015625)"/>
       <path id="ArialMT-6c" d="M 409 0 
L 409 4581 
L 972 4581 
L 972 0 
L 409 0 
z
" transform="scale(0.015625)"/>
       <path id="ArialMT-56" d="M 1803 0 
L 28 4581 
L 684 4581 
L 1875 1253 
Q 2019 853 2116 503 
Q 2222 878 2363 1253 
L 3600 4581 
L 4219 4581 
L 2425 0 
L 1803 0 
z
" transform="scale(0.015625)"/>
      </defs>
      <use xlink:href="#ArialMT-4d"/>
      <use xlink:href="#ArialMT-65" x="83.300781"/>
      <use xlink:href="#ArialMT-6d" x="138.916016"/>
      <use xlink:href="#ArialMT-62" x="222.216797"/>
      <use xlink:href="#ArialMT-72" x="277.832031"/>
      <use xlink:href="#ArialMT-61" x="311.132812"/>
      <use xlink:href="#ArialMT-6e" x="366.748047"/>
      <use xlink:href="#ArialMT-65" x="422.363281"/>
      <use xlink:href="#ArialMT-20" x="477.978516"/>
      <use xlink:href="#ArialMT-70" x="505.761719"/>
      <use xlink:href="#ArialMT-6f" x="561.376953"/>
      <use xlink:href="#ArialMT-74" x="616.992188"/>
      <use xlink:href="#ArialMT-65" x="644.775391"/>
      <use xlink:href="#ArialMT-6e" x="700.390625"/>
      <use xlink:href="#ArialMT-74" x="756.005859"/>
      <use xlink:href="#ArialMT-69" x="783.789062"/>
      <use xlink:href="#ArialMT-61" x="806.005859"/>
      <use xlink:href="#ArialMT-6c" x="861.621094"/>
      <use xlink:href="#ArialMT-20" x="883.837891"/>
      <use xlink:href="#ArialMT-28" x="911.621094"/>
      <use xlink:href="#ArialMT-6d" x="944.921875"/>
      <use xlink:href="#ArialMT-56" x="1028.222656"/>
      <use xlink:href="#ArialMT-29" x="1094.921875"/>
     </g>
    </g>
   </g>
   <g id="line2d_13">
    <path d="M 92.290909 438.768 
L 92.493818 443.579959 
L 92.967273 448.018323 
L 93.440727 450.642607 
L 93.981818 452.417309 
L 94.522909 453.415799 
L 95.064 453.969446 
L 95.740364 454.325586 
L 96.687273 454.53322 
L 98.378182 454.630321 
L 104.938909 454.652097 
L 159.927273 454.652317 
L 160.130182 432.751091 
L 160.536 418.343152 
L 161.009455 408.51803 
L 161.618182 400.664759 
L 162.362182 394.143244 
L 163.309091 387.902518 
L 164.526545 381.448451 
L 166.555636 371.882349 
L 168.178909 367.031384 
L 168.990545 365.120223 
L 170.343273 362.534731 
L 170.884364 361.835766 
L 171.696 360.814695 
L 172.913455 358.390044 
L 173.792727 356.127828 
L 174.130909 355.606194 
L 174.333818 355.554505 
L 174.672 355.506209 
L 175.145455 355.173444 
L 175.686545 354.589908 
L 176.430545 353.971 
L 176.633455 354.019554 
L 176.971636 354.078397 
L 177.445091 353.866731 
L 177.850909 353.31716 
L 178.594909 352.117837 
L 179.136 352.670052 
L 179.947636 351.629155 
L 180.218182 350.934742 
L 181.435636 346.82835 
L 182.112 346.199322 
L 182.382545 346.332984 
L 182.585455 346.341122 
L 182.788364 346.024031 
L 183.058909 345.028389 
L 183.667636 341.413258 
L 184.276364 336.035856 
L 184.682182 330.528464 
L 184.952727 324.581634 
L 185.155636 313.184623 
L 185.223273 302.802137 
L 185.358545 208.353921 
L 185.561455 348.337758 
L 185.764364 369.059559 
L 185.967273 371.210226 
L 186.102545 370.504954 
L 187.049455 362.992353 
L 187.32 362.493043 
L 187.590545 362.459819 
L 188.740364 362.951629 
L 189.754909 366.314918 
L 189.957818 366.418723 
L 190.228364 366.244948 
L 191.513455 364.988137 
L 192.122182 364.851563 
L 192.460364 364.803545 
L 193.069091 364.421701 
L 193.745455 363.912163 
L 194.354182 365.02023 
L 194.624727 365.077017 
L 194.962909 364.753967 
L 195.165818 364.584923 
L 195.571636 364.674469 
L 195.774545 364.665342 
L 196.045091 364.597553 
L 196.383273 364.851135 
L 196.586182 364.710851 
L 197.059636 363.924779 
L 197.600727 363.131972 
L 197.871273 362.973401 
L 197.938909 362.985268 
L 198.006545 363.138583 
L 198.48 365.831219 
L 198.682909 366.106673 
L 198.885818 366.000605 
L 200.035636 364.124177 
L 200.576727 363.342085 
L 200.847273 363.398777 
L 201.117818 363.081158 
L 201.861818 361.483286 
L 202.741091 359.550006 
L 203.011636 359.710392 
L 203.485091 360.10025 
L 203.688 359.971702 
L 203.958545 359.442851 
L 204.229091 358.933964 
L 204.567273 358.645989 
L 204.905455 358.351536 
L 205.108364 358.445956 
L 205.378909 358.695974 
L 205.581818 358.56286 
L 205.852364 357.885793 
L 207.610909 351.839984 
L 207.678545 351.871415 
L 208.016727 352.575067 
L 208.354909 353.087674 
L 208.557818 353.073565 
L 208.963636 352.705233 
L 209.234182 352.085137 
L 209.504727 351.199693 
L 209.572364 351.227473 
L 209.775273 353.147019 
L 210.181091 356.914139 
L 210.384 357.343849 
L 210.519273 357.220744 
L 210.789818 356.343752 
L 212.345455 349.721553 
L 212.751273 349.30034 
L 212.954182 349.13679 
L 213.089455 349.317099 
L 213.630545 350.432145 
L 213.833455 350.14309 
L 214.171636 349.049052 
L 215.050909 345.670502 
L 215.186182 345.646252 
L 215.659636 346.56144 
L 215.727273 346.520538 
L 215.862545 346.21458 
L 216.133091 344.830028 
L 216.471273 343.305574 
L 216.606545 343.280781 
L 217.147636 344.159786 
L 217.215273 344.099936 
L 217.418182 343.554309 
L 217.756364 341.665565 
L 218.094545 340.028483 
L 218.229818 339.902165 
L 218.365091 340.08082 
L 218.973818 341.643256 
L 219.041455 341.610021 
L 219.109091 341.605694 
L 219.312 342.64207 
L 219.650182 344.476349 
L 219.853091 344.803894 
L 219.988364 344.762435 
L 220.191273 344.38497 
L 220.664727 342.90761 
L 221.002909 341.282015 
L 221.341091 338.409794 
L 221.611636 334.474507 
L 221.882182 326.006189 
L 222.017455 315.341126 
L 222.085091 300.488957 
L 222.152727 200.849269 
L 222.220364 239.147686 
L 222.423273 364.956248 
L 222.626182 378.855151 
L 222.693818 378.937596 
L 222.896727 376.898669 
L 223.573091 368.959025 
L 223.911273 367.213842 
L 224.317091 366.25088 
L 224.722909 365.845466 
L 225.264 365.616651 
L 225.602182 365.738538 
L 226.210909 366.181427 
L 226.616727 366.080928 
L 228.037091 365.575147 
L 229.322182 364.788521 
L 229.930909 364.686223 
L 231.080727 363.900577 
L 231.486545 363.740576 
L 232.027636 363.463544 
L 232.433455 363.484292 
L 232.839273 363.253439 
L 233.245091 362.734689 
L 233.989091 361.674625 
L 234.394909 361.424194 
L 234.665455 361.982047 
L 234.868364 362.212925 
L 235.071273 362.122916 
L 235.409455 361.684784 
L 236.559273 359.877266 
L 236.897455 359.898628 
L 237.168 359.636815 
L 237.844364 358.334627 
L 239.264727 355.363664 
L 239.805818 354.169658 
L 240.685091 353.149511 
L 241.023273 352.521136 
L 241.632 351.268625 
L 241.767273 351.248853 
L 242.240727 351.668634 
L 242.917091 351.192091 
L 243.12 350.801583 
L 244.202182 347.913893 
L 244.608 347.301534 
L 244.878545 346.390602 
L 245.419636 343.336977 
L 245.622545 342.699605 
L 245.757818 342.969711 
L 246.298909 344.70934 
L 246.434182 344.606037 
L 246.975273 343.487731 
L 247.245818 342.508044 
L 248.395636 335.84405 
L 249.274909 328.178729 
L 249.477818 321.230202 
L 249.613091 305.546538 
L 249.748364 196.185073 
L 249.951273 352.657456 
L 250.154182 372.369593 
L 250.289455 373.78935 
L 250.357091 373.683559 
L 250.56 372.138206 
L 251.236364 366.326206 
L 251.574545 365.269621 
L 251.912727 364.936091 
L 252.386182 364.790189 
L 253.400727 364.989403 
L 254.144727 364.70567 
L 255.903273 364.515377 
L 256.309091 364.484348 
L 256.714909 364.417482 
L 257.323636 364.759199 
L 257.729455 365.042459 
L 258 365.075169 
L 258.338182 364.873174 
L 259.285091 364.023327 
L 259.690909 363.811077 
L 260.299636 363.107995 
L 261.922909 361.325448 
L 262.531636 361.033309 
L 262.937455 360.7954 
L 263.343273 360.505707 
L 263.749091 359.831525 
L 264.425455 358.795909 
L 264.898909 358.375028 
L 265.372364 357.981402 
L 265.575273 357.821802 
L 266.116364 357.964084 
L 266.522182 357.701018 
L 267.063273 357.361909 
L 267.469091 356.80398 
L 267.942545 355.549299 
L 268.686545 353.837457 
L 269.904 351.093292 
L 270.242182 350.344688 
L 270.512727 350.211955 
L 271.121455 350.747786 
L 271.392 350.252585 
L 272.136 348.27452 
L 272.609455 346.989071 
L 272.812364 346.937834 
L 273.015273 347.242623 
L 273.353455 347.860591 
L 273.556364 347.876836 
L 273.759273 347.508438 
L 274.638545 344.960274 
L 275.788364 340.427276 
L 275.991273 340.234847 
L 276.126545 340.487156 
L 276.6 341.839728 
L 276.735273 341.928872 
L 277.073455 342.36498 
L 277.479273 341.919487 
L 277.682182 341.635938 
L 277.952727 340.686069 
L 278.290909 338.720403 
L 278.629091 335.204861 
L 278.899636 330.366485 
L 279.102545 322.834437 
L 279.237818 308.828137 
L 279.305455 280.522896 
L 279.373091 179.892047 
L 279.576 353.345203 
L 279.778909 375.339685 
L 279.914182 376.309123 
L 280.049455 375.322508 
L 280.928727 366.257821 
L 281.266909 364.997819 
L 281.537455 364.681446 
L 281.740364 364.723697 
L 282.146182 365.203321 
L 282.484364 365.455956 
L 282.754909 365.412753 
L 284.919273 364.451689 
L 285.392727 364.323426 
L 286.069091 364.096365 
L 286.272 364.222821 
L 286.610182 364.475441 
L 286.880727 364.569502 
L 287.218909 364.766666 
L 287.489455 364.652551 
L 288.233455 364.11277 
L 288.571636 363.947455 
L 289.383273 363.364976 
L 289.856727 363.497192 
L 290.262545 363.229115 
L 291.074182 362.522848 
L 291.750545 362.085019 
L 292.156364 361.3814 
L 293.170909 359.41929 
L 293.779636 358.25975 
L 294.185455 357.931572 
L 294.591273 357.525474 
L 295.064727 356.923381 
L 296.620364 353.799945 
L 296.688 353.855076 
L 297.499636 355.222472 
L 297.770182 355.314395 
L 297.973091 355.164499 
L 298.514182 354.480788 
L 298.92 354.334941 
L 299.190545 354.199623 
L 299.461091 354.225941 
L 299.731636 353.952202 
L 301.219636 351.893413 
L 302.978182 347.137132 
L 303.384 344.847901 
L 304.398545 338.857949 
L 304.669091 338.91015 
L 305.007273 338.920425 
L 305.210182 338.704916 
L 305.413091 337.864123 
L 305.683636 335.428867 
L 306.021818 330.65469 
L 306.224727 325.292947 
L 306.36 317.686097 
L 306.427636 309.480976 
L 306.495273 287.166597 
L 306.562909 181.6065 
L 306.765818 348.68947 
L 306.968727 373.239186 
L 307.104 375.061531 
L 307.171636 374.960454 
L 307.374545 373.159802 
L 307.983273 366.823585 
L 308.253818 365.732737 
L 308.592 365.239981 
L 309.538909 364.454254 
L 309.877091 364.423758 
L 312.514909 364.57842 
L 313.732364 364.095217 
L 314.341091 363.982246 
L 315.085091 364.07188 
L 315.558545 363.994565 
L 316.302545 363.558471 
L 317.181818 362.921841 
L 317.655273 362.630565 
L 318.128727 362.244663 
L 318.872727 361.724498 
L 319.075636 361.64766 
L 319.549091 361.669725 
L 319.887273 361.362154 
L 320.698909 360.586857 
L 321.104727 360.221704 
L 321.645818 359.651992 
L 321.916364 359.423193 
L 322.389818 358.66209 
L 323.269091 357.222319 
L 323.607273 356.945714 
L 324.013091 356.664472 
L 324.689455 355.916748 
L 325.230545 355.266909 
L 325.906909 355.164459 
L 326.177455 354.857488 
L 327.056727 352.835803 
L 328.003636 351.016804 
L 328.071273 350.999539 
L 328.274182 351.510823 
L 328.544727 352.121952 
L 328.747636 352.159253 
L 328.950545 351.912348 
L 329.221091 351.074976 
L 329.829818 349.24515 
L 330.168 348.927067 
L 330.709091 348.405402 
L 331.047273 348.032904 
L 331.385455 347.85499 
L 331.656 347.326901 
L 332.264727 345.942064 
L 332.467636 346.0371 
L 332.805818 346.195608 
L 333.076364 346.075018 
L 333.279273 345.725882 
L 333.685091 344.402466 
L 334.023273 342.357371 
L 334.429091 338.546715 
L 334.834909 332.472548 
L 335.105455 324.188624 
L 335.240727 313.48951 
L 335.308364 298.975291 
L 335.376 217.464042 
L 335.443636 242.847327 
L 335.646545 361.840934 
L 335.849455 376.295754 
L 335.917091 376.640693 
L 336.052364 375.820267 
L 336.999273 366.256295 
L 337.337455 365.334183 
L 337.743273 364.932267 
L 338.352 364.699795 
L 338.893091 364.703058 
L 339.298909 364.916556 
L 340.381091 365.110104 
L 341.125091 364.730594 
L 342.748364 364.161837 
L 345.250909 362.586627 
L 345.656727 362.317606 
L 346.536 361.550562 
L 347.077091 360.97438 
L 347.415273 360.699188 
L 348.294545 360.708393 
L 348.565091 360.8067 
L 348.768 360.71417 
L 349.038545 360.34018 
L 349.850182 358.927106 
L 350.120727 358.822343 
L 350.594182 358.732946 
L 351.067636 358.09817 
L 352.014545 356.779516 
L 352.420364 356.066561 
L 353.570182 353.94225 
L 353.840727 353.593149 
L 354.517091 352.471533 
L 354.652364 352.476661 
L 355.261091 352.858076 
L 355.531636 352.602625 
L 355.937455 351.783963 
L 356.546182 350.378533 
L 357.087273 350.222372 
L 357.763636 349.823683 
L 357.966545 349.401168 
L 358.845818 346.870752 
L 359.116364 346.915375 
L 359.657455 347.039371 
L 359.995636 346.478385 
L 360.401455 345.07083 
L 360.942545 342.916288 
L 361.077818 342.816626 
L 361.213091 342.968743 
L 361.686545 343.74581 
L 361.957091 343.921907 
L 362.092364 343.83606 
L 362.295273 343.297517 
L 362.565818 341.559997 
L 362.904 337.668851 
L 363.242182 331.185981 
L 363.445091 323.330331 
L 363.580364 308.890402 
L 363.648 278.881705 
L 363.715636 181.676821 
L 363.918545 356.469198 
L 364.121455 377.409734 
L 364.189091 378.027068 
L 364.256727 377.871951 
L 364.459636 375.644013 
L 365.068364 368.25525 
L 365.474182 365.960815 
L 365.744727 365.446352 
L 366.624 365.401525 
L 367.300364 365.275837 
L 367.909091 365.311088 
L 368.450182 365.153356 
L 369.194182 364.766164 
L 370.073455 365.047026 
L 370.411636 365.05829 
L 370.749818 365.059174 
L 371.358545 364.708021 
L 372.170182 364.064899 
L 372.711273 363.595031 
L 373.049455 363.342124 
L 373.455273 363.174506 
L 373.996364 362.655875 
L 374.469818 362.273499 
L 374.740364 362.304146 
L 375.146182 362.458774 
L 375.484364 362.39019 
L 376.093091 361.828311 
L 377.107636 360.772367 
L 377.378182 360.722048 
L 377.919273 360.289718 
L 378.460364 359.50665 
L 378.798545 359.048611 
L 379.136727 358.696386 
L 379.677818 358.031894 
L 380.827636 356.796072 
L 382.518545 353.747121 
L 382.789091 353.79209 
L 382.992 353.491075 
L 383.397818 352.438683 
L 384.006545 350.653001 
L 384.344727 350.517078 
L 384.818182 350.238699 
L 385.088727 349.655048 
L 385.697455 348.3019 
L 386.238545 348.173039 
L 386.441455 347.697187 
L 386.847273 345.931516 
L 387.794182 341.117748 
L 388.673455 338.742574 
L 388.944 336.746928 
L 389.214545 332.793531 
L 389.485091 324.438641 
L 389.620364 314.244784 
L 389.688 301.127006 
L 389.823273 228.007728 
L 390.026182 360.316066 
L 390.229091 376.231374 
L 390.296727 376.663707 
L 390.364364 376.462617 
L 390.634909 373.428426 
L 391.176 367.41334 
L 391.514182 365.645216 
L 391.852364 364.854896 
L 392.325818 364.408504 
L 393.002182 364.151998 
L 393.408 364.098428 
L 394.084364 364.039121 
L 394.828364 363.88904 
L 395.707636 363.614916 
L 396.113455 363.653748 
L 396.654545 363.698934 
L 397.128 363.562605 
L 397.533818 363.547027 
L 397.872 363.206451 
L 398.616 362.291494 
L 398.886545 362.17544 
L 399.292364 362.569982 
L 399.765818 362.858935 
L 400.036364 362.796445 
L 400.509818 362.368244 
L 400.983273 361.879739 
L 401.592 361.746839 
L 402.336 361.153218 
L 403.553455 359.677568 
L 404.568 357.84191 
L 404.906182 357.536338 
L 405.244364 357.303959 
L 405.717818 356.607719 
L 406.529455 355.169087 
L 407.341091 354.474524 
L 408.152727 352.969126 
L 408.626182 353.127421 
L 409.099636 352.523226 
L 409.302545 353.051969 
L 409.573091 353.595364 
L 409.708364 353.605332 
L 409.911273 353.30846 
L 410.249455 352.069875 
L 411.061091 348.930845 
L 411.602182 347.743889 
L 411.940364 347.546594 
L 412.143273 347.583467 
L 413.022545 348.024525 
L 413.225455 347.881192 
L 413.969455 346.598977 
L 414.24 346.23221 
L 414.510545 346.788101 
L 414.781091 347.066946 
L 415.322182 346.909842 
L 416.133818 345.675464 
L 416.607273 344.749051 
L 417.148364 344.537198 
L 417.351273 344.700324 
L 417.892364 345.617652 
L 418.095273 345.484971 
L 418.365818 344.991949 
L 418.704 343.773125 
L 419.380364 341.268462 
L 419.786182 339.959859 
L 420.124364 338.923261 
L 420.259636 338.960861 
L 420.394909 339.171873 
L 420.665455 340.306289 
L 421.274182 343.1708 
L 421.477091 343.314816 
L 421.612364 343.031058 
L 421.815273 341.961432 
L 422.085818 339.392309 
L 422.424 333.834572 
L 422.694545 325.262337 
L 422.829818 314.570144 
L 422.897455 299.591193 
L 422.965091 202.547826 
L 423.032727 241.523405 
L 423.235636 363.64553 
L 423.438545 377.910892 
L 423.506182 378.119964 
L 423.641455 377.098236 
L 424.520727 367.480199 
L 424.858909 366.287678 
L 425.197091 365.833352 
L 426.008727 365.405684 
L 426.211636 365.465517 
L 426.685091 365.780271 
L 427.023273 365.740777 
L 427.970182 365.299672 
L 428.917091 365.390953 
L 430.472727 364.512693 
L 430.675636 389.011121 
L 431.013818 401.138928 
L 431.554909 411.419458 
L 432.637091 426.673228 
L 433.584 437.315218 
L 434.328 443.486976 
L 435.004364 447.44772 
L 435.680727 450.121783 
L 436.289455 451.71363 
L 436.965818 452.858505 
L 437.642182 453.571188 
L 438.386182 454.045966 
L 439.333091 454.38065 
L 440.685818 454.596925 
L 442.917818 454.695106 
L 449.952 454.670501 
L 479.238545 454.651372 
L 498.109091 454.651581 
L 498.109091 454.651581 
" clip-path="url(#p0364bbf7cf)" style="fill: none; stroke: #000000; stroke-width: 1.5; stroke-linecap: square"/>
   </g>
   <g id="line2d_14">
    <path d="M 497.973818 408.87 
" clip-path="url(#p0364bbf7cf)" style="fill: none; stroke: #000000; stroke-width: 1.5; stroke-linecap: square"/>
   </g>
   <g id="line2d_15">
    <path d="M 430.472727 368.1 
L 430.472727 365.382 
L 430.472727 362.664 
L 430.472727 359.946 
L 430.472727 357.228 
L 430.472727 354.51 
L 430.472727 351.792 
L 430.472727 349.074 
L 430.472727 346.356 
L 430.472727 343.638 
L 430.472727 340.92 
L 430.472727 338.202 
L 430.472727 335.484 
L 430.472727 332.766 
L 430.472727 330.048 
L 430.472727 327.33 
L 430.472727 324.612 
L 430.472727 321.894 
L 430.472727 319.176 
L 430.472727 316.458 
" clip-path="url(#p0364bbf7cf)" style="fill: none; stroke: #000000; stroke-width: 1.5; stroke-linecap: square"/>
   </g>
   <g id="patch_3">
    <path d="M 72 504 
L 72 69.12 
" style="fill: none; stroke: #000000; stroke-width: 0.8; stroke-linejoin: miter; stroke-linecap: square"/>
   </g>
   <g id="patch_4">
    <path d="M 518.4 504 
L 518.4 69.12 
" style="fill: none; stroke: #000000; stroke-width: 0.8; stroke-linejoin: miter; stroke-linecap: square"/>
   </g>
   <g id="patch_5">
    <path d="M 72 504 
L 518.4 504 
" style="fill: none; stroke: #000000; stroke-width: 0.8; stroke-linejoin: miter; stroke-linecap: square"/>
   </g>
   <g id="patch_6">
    <path d="M 72 69.12 
L 518.4 69.12 
" style="fill: none; stroke: #000000; stroke-width: 0.8; stroke-linejoin: miter; stroke-linecap: square"/>
   </g>
   <g id="text_15">
    <!-- 500 ms -->
    <g transform="translate(497.973818 406.152)scale(0.22 -0.22)">
     <defs>
      <path id="ArialMT-35" d="M 266 1200 
L 856 1250 
Q 922 819 1161 601 
Q 1400 384 1738 384 
Q 2144 384 2425 690 
Q 2706 997 2706 1503 
Q 2706 1984 2436 2262 
Q 2166 2541 1728 2541 
Q 1456 2541 1237 2417 
Q 1019 2294 894 2097 
L 366 2166 
L 809 4519 
L 3088 4519 
L 3088 3981 
L 1259 3981 
L 1013 2750 
Q 1425 3038 1878 3038 
Q 2478 3038 2890 2622 
Q 3303 2206 3303 1553 
Q 3303 931 2941 478 
Q 2500 -78 1738 -78 
Q 1113 -78 717 272 
Q 322 622 266 1200 
z
" transform="scale(0.015625)"/>
      <path id="ArialMT-30" d="M 266 2259 
Q 266 3072 433 3567 
Q 600 4063 929 4331 
Q 1259 4600 1759 4600 
Q 2128 4600 2406 4451 
Q 2684 4303 2865 4023 
Q 3047 3744 3150 3342 
Q 3253 2941 3253 2259 
Q 3253 1453 3087 958 
Q 2922 463 2592 192 
Q 2263 -78 1759 -78 
Q 1097 -78 719 397 
Q 266 969 266 2259 
z
M 844 2259 
Q 844 1131 1108 757 
Q 1372 384 1759 384 
Q 2147 384 2411 759 
Q 2675 1134 2675 2259 
Q 2675 3391 2411 3762 
Q 2147 4134 1753 4134 
Q 1366 4134 1134 3806 
Q 844 3388 844 2259 
z
" transform="scale(0.015625)"/>
     </defs>
     <use xlink:href="#ArialMT-35"/>
     <use xlink:href="#ArialMT-30" x="55.615234"/>
     <use xlink:href="#ArialMT-30" x="111.230469"/>
     <use xlink:href="#ArialMT-20" x="166.845703"/>
     <use xlink:href="#ArialMT-6d" x="194.628906"/>
     <use xlink:href="#ArialMT-73" x="277.929688"/>
    </g>
   </g>
   <g id="text_16">
    <!-- 20 mV -->
    <g transform="translate(504.737455 321.894)scale(0.22 -0.22)">
     <defs>
      <path id="ArialMT-32" d="M 3222 541 
L 3222 0 
L 194 0 
Q 188 203 259 391 
Q 375 700 629 1000 
Q 884 1300 1366 1694 
Q 2113 2306 2375 2664 
Q 2638 3022 2638 3341 
Q 2638 3675 2398 3904 
Q 2159 4134 1775 4134 
Q 1369 4134 1125 3890 
Q 881 3647 878 3216 
L 300 3275 
Q 359 3922 746 4261 
Q 1134 4600 1788 4600 
Q 2447 4600 2831 4234 
Q 3216 3869 3216 3328 
Q 3216 3053 3103 2787 
Q 2991 2522 2730 2228 
Q 2469 1934 1863 1422 
Q 1356 997 1212 845 
Q 1069 694 975 541 
L 3222 541 
z
" transform="scale(0.015625)"/>
     </defs>
     <use xlink:href="#ArialMT-32"/>
     <use xlink:href="#ArialMT-30" x="55.615234"/>
     <use xlink:href="#ArialMT-20" x="111.230469"/>
     <use xlink:href="#ArialMT-6d" x="139.013672"/>
     <use xlink:href="#ArialMT-56" x="222.314453"/>
    </g>
   </g>
   <g id="text_17">
    <!--  Plotting dSPN, trace number 18572  -->
    <g transform="translate(116.052969 63.12)scale(0.22 -0.22)">
     <defs>
      <path id="ArialMT-50" d="M 494 0 
L 494 4581 
L 2222 4581 
Q 2678 4581 2919 4538 
Q 3256 4481 3484 4323 
Q 3713 4166 3852 3881 
Q 3991 3597 3991 3256 
Q 3991 2672 3619 2267 
Q 3247 1863 2275 1863 
L 1100 1863 
L 1100 0 
L 494 0 
z
M 1100 2403 
L 2284 2403 
Q 2872 2403 3119 2622 
Q 3366 2841 3366 3238 
Q 3366 3525 3220 3729 
Q 3075 3934 2838 4000 
Q 2684 4041 2272 4041 
L 1100 4041 
L 1100 2403 
z
" transform="scale(0.015625)"/>
      <path id="ArialMT-67" d="M 319 -275 
L 866 -356 
Q 900 -609 1056 -725 
Q 1266 -881 1628 -881 
Q 2019 -881 2231 -725 
Q 2444 -569 2519 -288 
Q 2563 -116 2559 434 
Q 2191 0 1641 0 
Q 956 0 581 494 
Q 206 988 206 1678 
Q 206 2153 378 2554 
Q 550 2956 876 3175 
Q 1203 3394 1644 3394 
Q 2231 3394 2613 2919 
L 2613 3319 
L 3131 3319 
L 3131 450 
Q 3131 -325 2973 -648 
Q 2816 -972 2473 -1159 
Q 2131 -1347 1631 -1347 
Q 1038 -1347 672 -1080 
Q 306 -813 319 -275 
z
M 784 1719 
Q 784 1066 1043 766 
Q 1303 466 1694 466 
Q 2081 466 2343 764 
Q 2606 1063 2606 1700 
Q 2606 2309 2336 2618 
Q 2066 2928 1684 2928 
Q 1309 2928 1046 2623 
Q 784 2319 784 1719 
z
" transform="scale(0.015625)"/>
      <path id="ArialMT-64" d="M 2575 0 
L 2575 419 
Q 2259 -75 1647 -75 
Q 1250 -75 917 144 
Q 584 363 401 755 
Q 219 1147 219 1656 
Q 219 2153 384 2558 
Q 550 2963 881 3178 
Q 1213 3394 1622 3394 
Q 1922 3394 2156 3267 
Q 2391 3141 2538 2938 
L 2538 4581 
L 3097 4581 
L 3097 0 
L 2575 0 
z
M 797 1656 
Q 797 1019 1065 703 
Q 1334 388 1700 388 
Q 2069 388 2326 689 
Q 2584 991 2584 1609 
Q 2584 2291 2321 2609 
Q 2059 2928 1675 2928 
Q 1300 2928 1048 2622 
Q 797 2316 797 1656 
z
" transform="scale(0.015625)"/>
      <path id="ArialMT-53" d="M 288 1472 
L 859 1522 
Q 900 1178 1048 958 
Q 1197 738 1509 602 
Q 1822 466 2213 466 
Q 2559 466 2825 569 
Q 3091 672 3220 851 
Q 3350 1031 3350 1244 
Q 3350 1459 3225 1620 
Q 3100 1781 2813 1891 
Q 2628 1963 1997 2114 
Q 1366 2266 1113 2400 
Q 784 2572 623 2826 
Q 463 3081 463 3397 
Q 463 3744 659 4045 
Q 856 4347 1234 4503 
Q 1613 4659 2075 4659 
Q 2584 4659 2973 4495 
Q 3363 4331 3572 4012 
Q 3781 3694 3797 3291 
L 3216 3247 
Q 3169 3681 2898 3903 
Q 2628 4125 2100 4125 
Q 1550 4125 1298 3923 
Q 1047 3722 1047 3438 
Q 1047 3191 1225 3031 
Q 1400 2872 2139 2705 
Q 2878 2538 3153 2413 
Q 3553 2228 3743 1945 
Q 3934 1663 3934 1294 
Q 3934 928 3725 604 
Q 3516 281 3123 101 
Q 2731 -78 2241 -78 
Q 1619 -78 1198 103 
Q 778 284 539 648 
Q 300 1013 288 1472 
z
" transform="scale(0.015625)"/>
      <path id="ArialMT-4e" d="M 488 0 
L 488 4581 
L 1109 4581 
L 3516 984 
L 3516 4581 
L 4097 4581 
L 4097 0 
L 3475 0 
L 1069 3600 
L 1069 0 
L 488 0 
z
" transform="scale(0.015625)"/>
      <path id="ArialMT-2c" d="M 569 0 
L 569 641 
L 1209 641 
L 1209 0 
Q 1209 -353 1084 -570 
Q 959 -788 688 -906 
L 531 -666 
Q 709 -588 793 -436 
Q 878 -284 888 0 
L 569 0 
z
" transform="scale(0.015625)"/>
      <path id="ArialMT-63" d="M 2588 1216 
L 3141 1144 
Q 3050 572 2676 248 
Q 2303 -75 1759 -75 
Q 1078 -75 664 370 
Q 250 816 250 1647 
Q 250 2184 428 2587 
Q 606 2991 970 3192 
Q 1334 3394 1763 3394 
Q 2303 3394 2647 3120 
Q 2991 2847 3088 2344 
L 2541 2259 
Q 2463 2594 2264 2762 
Q 2066 2931 1784 2931 
Q 1359 2931 1093 2626 
Q 828 2322 828 1663 
Q 828 994 1084 691 
Q 1341 388 1753 388 
Q 2084 388 2306 591 
Q 2528 794 2588 1216 
z
" transform="scale(0.015625)"/>
      <path id="ArialMT-75" d="M 2597 0 
L 2597 488 
Q 2209 -75 1544 -75 
Q 1250 -75 995 37 
Q 741 150 617 320 
Q 494 491 444 738 
Q 409 903 409 1263 
L 409 3319 
L 972 3319 
L 972 1478 
Q 972 1038 1006 884 
Q 1059 663 1231 536 
Q 1403 409 1656 409 
Q 1909 409 2131 539 
Q 2353 669 2445 892 
Q 2538 1116 2538 1541 
L 2538 3319 
L 3100 3319 
L 3100 0 
L 2597 0 
z
" transform="scale(0.015625)"/>
      <path id="ArialMT-31" d="M 2384 0 
L 1822 0 
L 1822 3584 
Q 1619 3391 1289 3197 
Q 959 3003 697 2906 
L 697 3450 
Q 1169 3672 1522 3987 
Q 1875 4303 2022 4600 
L 2384 4600 
L 2384 0 
z
" transform="scale(0.015625)"/>
      <path id="ArialMT-38" d="M 1131 2484 
Q 781 2613 612 2850 
Q 444 3088 444 3419 
Q 444 3919 803 4259 
Q 1163 4600 1759 4600 
Q 2359 4600 2725 4251 
Q 3091 3903 3091 3403 
Q 3091 3084 2923 2848 
Q 2756 2613 2416 2484 
Q 2838 2347 3058 2040 
Q 3278 1734 3278 1309 
Q 3278 722 2862 322 
Q 2447 -78 1769 -78 
Q 1091 -78 675 323 
Q 259 725 259 1325 
Q 259 1772 486 2073 
Q 713 2375 1131 2484 
z
M 1019 3438 
Q 1019 3113 1228 2906 
Q 1438 2700 1772 2700 
Q 2097 2700 2305 2904 
Q 2513 3109 2513 3406 
Q 2513 3716 2298 3927 
Q 2084 4138 1766 4138 
Q 1444 4138 1231 3931 
Q 1019 3725 1019 3438 
z
M 838 1322 
Q 838 1081 952 856 
Q 1066 631 1291 507 
Q 1516 384 1775 384 
Q 2178 384 2440 643 
Q 2703 903 2703 1303 
Q 2703 1709 2433 1975 
Q 2163 2241 1756 2241 
Q 1359 2241 1098 1978 
Q 838 1716 838 1322 
z
" transform="scale(0.015625)"/>
      <path id="ArialMT-37" d="M 303 3981 
L 303 4522 
L 3269 4522 
L 3269 4084 
Q 2831 3619 2401 2847 
Q 1972 2075 1738 1259 
Q 1569 684 1522 0 
L 944 0 
Q 953 541 1156 1306 
Q 1359 2072 1739 2783 
Q 2119 3494 2547 3981 
L 303 3981 
z
" transform="scale(0.015625)"/>
     </defs>
     <use xlink:href="#ArialMT-20"/>
     <use xlink:href="#ArialMT-50" x="27.783203"/>
     <use xlink:href="#ArialMT-6c" x="94.482422"/>
     <use xlink:href="#ArialMT-6f" x="116.699219"/>
     <use xlink:href="#ArialMT-74" x="172.314453"/>
     <use xlink:href="#ArialMT-74" x="200.097656"/>
     <use xlink:href="#ArialMT-69" x="227.880859"/>
     <use xlink:href="#ArialMT-6e" x="250.097656"/>
     <use xlink:href="#ArialMT-67" x="305.712891"/>
     <use xlink:href="#ArialMT-20" x="361.328125"/>
     <use xlink:href="#ArialMT-64" x="389.111328"/>
     <use xlink:href="#ArialMT-53" x="444.726562"/>
     <use xlink:href="#ArialMT-50" x="511.425781"/>
     <use xlink:href="#ArialMT-4e" x="578.125"/>
     <use xlink:href="#ArialMT-2c" x="650.341797"/>
     <use xlink:href="#ArialMT-20" x="678.125"/>
     <use xlink:href="#ArialMT-74" x="705.908203"/>
     <use xlink:href="#ArialMT-72" x="733.691406"/>
     <use xlink:href="#ArialMT-61" x="766.992188"/>
     <use xlink:href="#ArialMT-63" x="822.607422"/>
     <use xlink:href="#ArialMT-65" x="872.607422"/>
     <use xlink:href="#ArialMT-20" x="928.222656"/>
     <use xlink:href="#ArialMT-6e" x="956.005859"/>
     <use xlink:href="#ArialMT-75" x="1011.621094"/>
     <use xlink:href="#ArialMT-6d" x="1067.236328"/>
     <use xlink:href="#ArialMT-62" x="1150.537109"/>
     <use xlink:href="#ArialMT-65" x="1206.152344"/>
     <use xlink:href="#ArialMT-72" x="1261.767578"/>
     <use xlink:href="#ArialMT-20" x="1295.068359"/>
     <use xlink:href="#ArialMT-31" x="1322.851562"/>
     <use xlink:href="#ArialMT-38" x="1378.466797"/>
     <use xlink:href="#ArialMT-35" x="1434.082031"/>
     <use xlink:href="#ArialMT-37" x="1489.697266"/>
     <use xlink:href="#ArialMT-32" x="1545.3125"/>
     <use xlink:href="#ArialMT-20" x="1600.927734"/>
    </g>
   </g>
  </g>
 </g>
 <defs>
  <clipPath id="p0364bbf7cf">
   <rect x="72" y="69.12" width="446.4" height="434.88"/>
  </clipPath>
 </defs>
</svg>
