<?xml version="1.0" encoding="utf-8" standalone="no"?>
<!DOCTYPE svg PUBLIC "-//W3C//DTD SVG 1.1//EN"
  "http://www.w3.org/Graphics/SVG/1.1/DTD/svg11.dtd">
<svg xmlns:xlink="http://www.w3.org/1999/xlink" width="576pt" height="576pt" viewBox="0 0 576 576" xmlns="http://www.w3.org/2000/svg" version="1.1">
 <metadata>
  <rdf:RDF xmlns:dc="http://purl.org/dc/elements/1.1/" xmlns:cc="http://creativecommons.org/ns#" xmlns:rdf="http://www.w3.org/1999/02/22-rdf-syntax-ns#">
   <cc:Work>
    <dc:type rdf:resource="http://purl.org/dc/dcmitype/StillImage"/>
    <dc:date>2022-10-30T19:57:03.921215</dc:date>
    <dc:format>image/svg+xml</dc:format>
    <dc:creator>
     <cc:Agent>
      <dc:title>Matplotlib v3.5.2, https://matplotlib.org/</dc:title>
     </cc:Agent>
    </dc:creator>
   </cc:Work>
  </rdf:RDF>
 </metadata>
 <defs>
  <style type="text/css">*{stroke-linejoin: round; stroke-linecap: butt}</style>
 </defs>
 <g id="figure_1">
  <g id="patch_1">
   <path d="M 0 576 
L 576 576 
L 576 0 
L 0 0 
L 0 576 
z
" style="fill: none"/>
  </g>
  <g id="axes_1">
   <g id="patch_2">
    <path d="M 72 504 
L 518.4 504 
L 518.4 69.12 
L 72 69.12 
z
" style="fill: #ffffff"/>
   </g>
   <g id="matplotlib.axis_1">
    <g id="xtick_1">
     <g id="line2d_1">
      <defs>
       <path id="m17e15a7427" d="M 0 0 
L 0 3.5 
" style="stroke: #000000; stroke-width: 0.8"/>
      </defs>
      <g>
       <use xlink:href="#m17e15a7427" x="92.290909" y="504" style="stroke: #000000; stroke-width: 0.8"/>
      </g>
     </g>
     <g id="text_1">
      <!-- 0 -->
      <g transform="translate(85.292159 527.716563)scale(0.22 -0.22)">
       <defs>
        <path id="DejaVuSans-30" d="M 2034 4250 
Q 1547 4250 1301 3770 
Q 1056 3291 1056 2328 
Q 1056 1369 1301 889 
Q 1547 409 2034 409 
Q 2525 409 2770 889 
Q 3016 1369 3016 2328 
Q 3016 3291 2770 3770 
Q 2525 4250 2034 4250 
z
M 2034 4750 
Q 2819 4750 3233 4129 
Q 3647 3509 3647 2328 
Q 3647 1150 3233 529 
Q 2819 -91 2034 -91 
Q 1250 -91 836 529 
Q 422 1150 422 2328 
Q 422 3509 836 4129 
Q 1250 4750 2034 4750 
z
" transform="scale(0.015625)"/>
       </defs>
       <use xlink:href="#DejaVuSans-30"/>
      </g>
     </g>
    </g>
    <g id="xtick_2">
     <g id="line2d_2">
      <g>
       <use xlink:href="#m17e15a7427" x="227.563636" y="504" style="stroke: #000000; stroke-width: 0.8"/>
      </g>
     </g>
     <g id="text_2">
      <!-- 1000 -->
      <g transform="translate(199.568636 527.716563)scale(0.22 -0.22)">
       <defs>
        <path id="DejaVuSans-31" d="M 794 531 
L 1825 531 
L 1825 4091 
L 703 3866 
L 703 4441 
L 1819 4666 
L 2450 4666 
L 2450 531 
L 3481 531 
L 3481 0 
L 794 0 
L 794 531 
z
" transform="scale(0.015625)"/>
       </defs>
       <use xlink:href="#DejaVuSans-31"/>
       <use xlink:href="#DejaVuSans-30" x="63.623047"/>
       <use xlink:href="#DejaVuSans-30" x="127.246094"/>
       <use xlink:href="#DejaVuSans-30" x="190.869141"/>
      </g>
     </g>
    </g>
    <g id="xtick_3">
     <g id="line2d_3">
      <g>
       <use xlink:href="#m17e15a7427" x="362.836364" y="504" style="stroke: #000000; stroke-width: 0.8"/>
      </g>
     </g>
     <g id="text_3">
      <!-- 2000 -->
      <g transform="translate(334.841364 527.716563)scale(0.22 -0.22)">
       <defs>
        <path id="DejaVuSans-32" d="M 1228 531 
L 3431 531 
L 3431 0 
L 469 0 
L 469 531 
Q 828 903 1448 1529 
Q 2069 2156 2228 2338 
Q 2531 2678 2651 2914 
Q 2772 3150 2772 3378 
Q 2772 3750 2511 3984 
Q 2250 4219 1831 4219 
Q 1534 4219 1204 4116 
Q 875 4013 500 3803 
L 500 4441 
Q 881 4594 1212 4672 
Q 1544 4750 1819 4750 
Q 2544 4750 2975 4387 
Q 3406 4025 3406 3419 
Q 3406 3131 3298 2873 
Q 3191 2616 2906 2266 
Q 2828 2175 2409 1742 
Q 1991 1309 1228 531 
z
" transform="scale(0.015625)"/>
       </defs>
       <use xlink:href="#DejaVuSans-32"/>
       <use xlink:href="#DejaVuSans-30" x="63.623047"/>
       <use xlink:href="#DejaVuSans-30" x="127.246094"/>
       <use xlink:href="#DejaVuSans-30" x="190.869141"/>
      </g>
     </g>
    </g>
    <g id="xtick_4">
     <g id="line2d_4">
      <g>
       <use xlink:href="#m17e15a7427" x="498.109091" y="504" style="stroke: #000000; stroke-width: 0.8"/>
      </g>
     </g>
     <g id="text_4">
      <!-- 3000 -->
      <g transform="translate(470.114091 527.716563)scale(0.22 -0.22)">
       <defs>
        <path id="DejaVuSans-33" d="M 2597 2516 
Q 3050 2419 3304 2112 
Q 3559 1806 3559 1356 
Q 3559 666 3084 287 
Q 2609 -91 1734 -91 
Q 1441 -91 1130 -33 
Q 819 25 488 141 
L 488 750 
Q 750 597 1062 519 
Q 1375 441 1716 441 
Q 2309 441 2620 675 
Q 2931 909 2931 1356 
Q 2931 1769 2642 2001 
Q 2353 2234 1838 2234 
L 1294 2234 
L 1294 2753 
L 1863 2753 
Q 2328 2753 2575 2939 
Q 2822 3125 2822 3475 
Q 2822 3834 2567 4026 
Q 2313 4219 1838 4219 
Q 1578 4219 1281 4162 
Q 984 4106 628 3988 
L 628 4550 
Q 988 4650 1302 4700 
Q 1616 4750 1894 4750 
Q 2613 4750 3031 4423 
Q 3450 4097 3450 3541 
Q 3450 3153 3228 2886 
Q 3006 2619 2597 2516 
z
" transform="scale(0.015625)"/>
       </defs>
       <use xlink:href="#DejaVuSans-33"/>
       <use xlink:href="#DejaVuSans-30" x="63.623047"/>
       <use xlink:href="#DejaVuSans-30" x="127.246094"/>
       <use xlink:href="#DejaVuSans-30" x="190.869141"/>
      </g>
     </g>
    </g>
    <g id="text_5">
     <!-- Time(ms) -->
     <g transform="translate(249.182187 552.307188)scale(0.22 -0.22)">
      <defs>
       <path id="ArialMT-54" d="M 1659 0 
L 1659 4041 
L 150 4041 
L 150 4581 
L 3781 4581 
L 3781 4041 
L 2266 4041 
L 2266 0 
L 1659 0 
z
" transform="scale(0.015625)"/>
       <path id="ArialMT-69" d="M 425 3934 
L 425 4581 
L 988 4581 
L 988 3934 
L 425 3934 
z
M 425 0 
L 425 3319 
L 988 3319 
L 988 0 
L 425 0 
z
" transform="scale(0.015625)"/>
       <path id="ArialMT-6d" d="M 422 0 
L 422 3319 
L 925 3319 
L 925 2853 
Q 1081 3097 1340 3245 
Q 1600 3394 1931 3394 
Q 2300 3394 2536 3241 
Q 2772 3088 2869 2813 
Q 3263 3394 3894 3394 
Q 4388 3394 4653 3120 
Q 4919 2847 4919 2278 
L 4919 0 
L 4359 0 
L 4359 2091 
Q 4359 2428 4304 2576 
Q 4250 2725 4106 2815 
Q 3963 2906 3769 2906 
Q 3419 2906 3187 2673 
Q 2956 2441 2956 1928 
L 2956 0 
L 2394 0 
L 2394 2156 
Q 2394 2531 2256 2718 
Q 2119 2906 1806 2906 
Q 1569 2906 1367 2781 
Q 1166 2656 1075 2415 
Q 984 2175 984 1722 
L 984 0 
L 422 0 
z
" transform="scale(0.015625)"/>
       <path id="ArialMT-65" d="M 2694 1069 
L 3275 997 
Q 3138 488 2766 206 
Q 2394 -75 1816 -75 
Q 1088 -75 661 373 
Q 234 822 234 1631 
Q 234 2469 665 2931 
Q 1097 3394 1784 3394 
Q 2450 3394 2872 2941 
Q 3294 2488 3294 1666 
Q 3294 1616 3291 1516 
L 816 1516 
Q 847 969 1125 678 
Q 1403 388 1819 388 
Q 2128 388 2347 550 
Q 2566 713 2694 1069 
z
M 847 1978 
L 2700 1978 
Q 2663 2397 2488 2606 
Q 2219 2931 1791 2931 
Q 1403 2931 1139 2672 
Q 875 2413 847 1978 
z
" transform="scale(0.015625)"/>
       <path id="ArialMT-28" d="M 1497 -1347 
Q 1031 -759 709 28 
Q 388 816 388 1659 
Q 388 2403 628 3084 
Q 909 3875 1497 4659 
L 1900 4659 
Q 1522 4009 1400 3731 
Q 1209 3300 1100 2831 
Q 966 2247 966 1656 
Q 966 153 1900 -1347 
L 1497 -1347 
z
" transform="scale(0.015625)"/>
       <path id="ArialMT-73" d="M 197 991 
L 753 1078 
Q 800 744 1014 566 
Q 1228 388 1613 388 
Q 2000 388 2187 545 
Q 2375 703 2375 916 
Q 2375 1106 2209 1216 
Q 2094 1291 1634 1406 
Q 1016 1563 777 1677 
Q 538 1791 414 1992 
Q 291 2194 291 2438 
Q 291 2659 392 2848 
Q 494 3038 669 3163 
Q 800 3259 1026 3326 
Q 1253 3394 1513 3394 
Q 1903 3394 2198 3281 
Q 2494 3169 2634 2976 
Q 2775 2784 2828 2463 
L 2278 2388 
Q 2241 2644 2061 2787 
Q 1881 2931 1553 2931 
Q 1166 2931 1000 2803 
Q 834 2675 834 2503 
Q 834 2394 903 2306 
Q 972 2216 1119 2156 
Q 1203 2125 1616 2013 
Q 2213 1853 2448 1751 
Q 2684 1650 2818 1456 
Q 2953 1263 2953 975 
Q 2953 694 2789 445 
Q 2625 197 2315 61 
Q 2006 -75 1616 -75 
Q 969 -75 630 194 
Q 291 463 197 991 
z
" transform="scale(0.015625)"/>
       <path id="ArialMT-29" d="M 791 -1347 
L 388 -1347 
Q 1322 153 1322 1656 
Q 1322 2244 1188 2822 
Q 1081 3291 891 3722 
Q 769 4003 388 4659 
L 791 4659 
Q 1378 3875 1659 3084 
Q 1900 2403 1900 1659 
Q 1900 816 1576 28 
Q 1253 -759 791 -1347 
z
" transform="scale(0.015625)"/>
      </defs>
      <use xlink:href="#ArialMT-54"/>
      <use xlink:href="#ArialMT-69" x="57.333984"/>
      <use xlink:href="#ArialMT-6d" x="79.550781"/>
      <use xlink:href="#ArialMT-65" x="162.851562"/>
      <use xlink:href="#ArialMT-28" x="218.466797"/>
      <use xlink:href="#ArialMT-6d" x="251.767578"/>
      <use xlink:href="#ArialMT-73" x="335.068359"/>
      <use xlink:href="#ArialMT-29" x="385.068359"/>
     </g>
    </g>
   </g>
   <g id="matplotlib.axis_2">
    <g id="ytick_1">
     <g id="line2d_5">
      <defs>
       <path id="m7c3516b829" d="M 0 0 
L -3.5 0 
" style="stroke: #000000; stroke-width: 0.8"/>
      </defs>
      <g>
       <use xlink:href="#m7c3516b829" x="72" y="476.82" style="stroke: #000000; stroke-width: 0.8"/>
      </g>
     </g>
     <g id="text_6">
      <!-- −100 -->
      <g transform="translate(4.572187 485.178281)scale(0.22 -0.22)">
       <defs>
        <path id="DejaVuSans-2212" d="M 678 2272 
L 4684 2272 
L 4684 1741 
L 678 1741 
L 678 2272 
z
" transform="scale(0.015625)"/>
       </defs>
       <use xlink:href="#DejaVuSans-2212"/>
       <use xlink:href="#DejaVuSans-31" x="83.789062"/>
       <use xlink:href="#DejaVuSans-30" x="147.412109"/>
       <use xlink:href="#DejaVuSans-30" x="211.035156"/>
      </g>
     </g>
    </g>
    <g id="ytick_2">
     <g id="line2d_6">
      <g>
       <use xlink:href="#m7c3516b829" x="72" y="422.46" style="stroke: #000000; stroke-width: 0.8"/>
      </g>
     </g>
     <g id="text_7">
      <!-- −80 -->
      <g transform="translate(18.569688 430.818281)scale(0.22 -0.22)">
       <defs>
        <path id="DejaVuSans-38" d="M 2034 2216 
Q 1584 2216 1326 1975 
Q 1069 1734 1069 1313 
Q 1069 891 1326 650 
Q 1584 409 2034 409 
Q 2484 409 2743 651 
Q 3003 894 3003 1313 
Q 3003 1734 2745 1975 
Q 2488 2216 2034 2216 
z
M 1403 2484 
Q 997 2584 770 2862 
Q 544 3141 544 3541 
Q 544 4100 942 4425 
Q 1341 4750 2034 4750 
Q 2731 4750 3128 4425 
Q 3525 4100 3525 3541 
Q 3525 3141 3298 2862 
Q 3072 2584 2669 2484 
Q 3125 2378 3379 2068 
Q 3634 1759 3634 1313 
Q 3634 634 3220 271 
Q 2806 -91 2034 -91 
Q 1263 -91 848 271 
Q 434 634 434 1313 
Q 434 1759 690 2068 
Q 947 2378 1403 2484 
z
M 1172 3481 
Q 1172 3119 1398 2916 
Q 1625 2713 2034 2713 
Q 2441 2713 2670 2916 
Q 2900 3119 2900 3481 
Q 2900 3844 2670 4047 
Q 2441 4250 2034 4250 
Q 1625 4250 1398 4047 
Q 1172 3844 1172 3481 
z
" transform="scale(0.015625)"/>
       </defs>
       <use xlink:href="#DejaVuSans-2212"/>
       <use xlink:href="#DejaVuSans-38" x="83.789062"/>
       <use xlink:href="#DejaVuSans-30" x="147.412109"/>
      </g>
     </g>
    </g>
    <g id="ytick_3">
     <g id="line2d_7">
      <g>
       <use xlink:href="#m7c3516b829" x="72" y="368.1" style="stroke: #000000; stroke-width: 0.8"/>
      </g>
     </g>
     <g id="text_8">
      <!-- −60 -->
      <g transform="translate(18.569688 376.458281)scale(0.22 -0.22)">
       <defs>
        <path id="DejaVuSans-36" d="M 2113 2584 
Q 1688 2584 1439 2293 
Q 1191 2003 1191 1497 
Q 1191 994 1439 701 
Q 1688 409 2113 409 
Q 2538 409 2786 701 
Q 3034 994 3034 1497 
Q 3034 2003 2786 2293 
Q 2538 2584 2113 2584 
z
M 3366 4563 
L 3366 3988 
Q 3128 4100 2886 4159 
Q 2644 4219 2406 4219 
Q 1781 4219 1451 3797 
Q 1122 3375 1075 2522 
Q 1259 2794 1537 2939 
Q 1816 3084 2150 3084 
Q 2853 3084 3261 2657 
Q 3669 2231 3669 1497 
Q 3669 778 3244 343 
Q 2819 -91 2113 -91 
Q 1303 -91 875 529 
Q 447 1150 447 2328 
Q 447 3434 972 4092 
Q 1497 4750 2381 4750 
Q 2619 4750 2861 4703 
Q 3103 4656 3366 4563 
z
" transform="scale(0.015625)"/>
       </defs>
       <use xlink:href="#DejaVuSans-2212"/>
       <use xlink:href="#DejaVuSans-36" x="83.789062"/>
       <use xlink:href="#DejaVuSans-30" x="147.412109"/>
      </g>
     </g>
    </g>
    <g id="ytick_4">
     <g id="line2d_8">
      <g>
       <use xlink:href="#m7c3516b829" x="72" y="313.74" style="stroke: #000000; stroke-width: 0.8"/>
      </g>
     </g>
     <g id="text_9">
      <!-- −40 -->
      <g transform="translate(18.569688 322.098281)scale(0.22 -0.22)">
       <defs>
        <path id="DejaVuSans-34" d="M 2419 4116 
L 825 1625 
L 2419 1625 
L 2419 4116 
z
M 2253 4666 
L 3047 4666 
L 3047 1625 
L 3713 1625 
L 3713 1100 
L 3047 1100 
L 3047 0 
L 2419 0 
L 2419 1100 
L 313 1100 
L 313 1709 
L 2253 4666 
z
" transform="scale(0.015625)"/>
       </defs>
       <use xlink:href="#DejaVuSans-2212"/>
       <use xlink:href="#DejaVuSans-34" x="83.789062"/>
       <use xlink:href="#DejaVuSans-30" x="147.412109"/>
      </g>
     </g>
    </g>
    <g id="ytick_5">
     <g id="line2d_9">
      <g>
       <use xlink:href="#m7c3516b829" x="72" y="259.38" style="stroke: #000000; stroke-width: 0.8"/>
      </g>
     </g>
     <g id="text_10">
      <!-- −20 -->
      <g transform="translate(18.569688 267.738281)scale(0.22 -0.22)">
       <use xlink:href="#DejaVuSans-2212"/>
       <use xlink:href="#DejaVuSans-32" x="83.789062"/>
       <use xlink:href="#DejaVuSans-30" x="147.412109"/>
      </g>
     </g>
    </g>
    <g id="ytick_6">
     <g id="line2d_10">
      <g>
       <use xlink:href="#m7c3516b829" x="72" y="205.02" style="stroke: #000000; stroke-width: 0.8"/>
      </g>
     </g>
     <g id="text_11">
      <!-- 0 -->
      <g transform="translate(51.0025 213.378281)scale(0.22 -0.22)">
       <use xlink:href="#DejaVuSans-30"/>
      </g>
     </g>
    </g>
    <g id="ytick_7">
     <g id="line2d_11">
      <g>
       <use xlink:href="#m7c3516b829" x="72" y="150.66" style="stroke: #000000; stroke-width: 0.8"/>
      </g>
     </g>
     <g id="text_12">
      <!-- 20 -->
      <g transform="translate(37.005 159.018281)scale(0.22 -0.22)">
       <use xlink:href="#DejaVuSans-32"/>
       <use xlink:href="#DejaVuSans-30" x="63.623047"/>
      </g>
     </g>
    </g>
    <g id="ytick_8">
     <g id="line2d_12">
      <g>
       <use xlink:href="#m7c3516b829" x="72" y="96.3" style="stroke: #000000; stroke-width: 0.8"/>
      </g>
     </g>
     <g id="text_13">
      <!-- 40 -->
      <g transform="translate(37.005 104.658281)scale(0.22 -0.22)">
       <use xlink:href="#DejaVuSans-34"/>
       <use xlink:href="#DejaVuSans-30" x="63.623047"/>
      </g>
     </g>
    </g>
    <g id="text_14">
     <!-- Membrane potential (mV) -->
     <g transform="translate(-4.058125 410.655469)rotate(-90)scale(0.22 -0.22)">
      <defs>
       <path id="ArialMT-4d" d="M 475 0 
L 475 4581 
L 1388 4581 
L 2472 1338 
Q 2622 884 2691 659 
Q 2769 909 2934 1394 
L 4031 4581 
L 4847 4581 
L 4847 0 
L 4263 0 
L 4263 3834 
L 2931 0 
L 2384 0 
L 1059 3900 
L 1059 0 
L 475 0 
z
" transform="scale(0.015625)"/>
       <path id="ArialMT-62" d="M 941 0 
L 419 0 
L 419 4581 
L 981 4581 
L 981 2947 
Q 1338 3394 1891 3394 
Q 2197 3394 2470 3270 
Q 2744 3147 2920 2923 
Q 3097 2700 3197 2384 
Q 3297 2069 3297 1709 
Q 3297 856 2875 390 
Q 2453 -75 1863 -75 
Q 1275 -75 941 416 
L 941 0 
z
M 934 1684 
Q 934 1088 1097 822 
Q 1363 388 1816 388 
Q 2184 388 2453 708 
Q 2722 1028 2722 1663 
Q 2722 2313 2464 2622 
Q 2206 2931 1841 2931 
Q 1472 2931 1203 2611 
Q 934 2291 934 1684 
z
" transform="scale(0.015625)"/>
       <path id="ArialMT-72" d="M 416 0 
L 416 3319 
L 922 3319 
L 922 2816 
Q 1116 3169 1280 3281 
Q 1444 3394 1641 3394 
Q 1925 3394 2219 3213 
L 2025 2691 
Q 1819 2813 1613 2813 
Q 1428 2813 1281 2702 
Q 1134 2591 1072 2394 
Q 978 2094 978 1738 
L 978 0 
L 416 0 
z
" transform="scale(0.015625)"/>
       <path id="ArialMT-61" d="M 2588 409 
Q 2275 144 1986 34 
Q 1697 -75 1366 -75 
Q 819 -75 525 192 
Q 231 459 231 875 
Q 231 1119 342 1320 
Q 453 1522 633 1644 
Q 813 1766 1038 1828 
Q 1203 1872 1538 1913 
Q 2219 1994 2541 2106 
Q 2544 2222 2544 2253 
Q 2544 2597 2384 2738 
Q 2169 2928 1744 2928 
Q 1347 2928 1158 2789 
Q 969 2650 878 2297 
L 328 2372 
Q 403 2725 575 2942 
Q 747 3159 1072 3276 
Q 1397 3394 1825 3394 
Q 2250 3394 2515 3294 
Q 2781 3194 2906 3042 
Q 3031 2891 3081 2659 
Q 3109 2516 3109 2141 
L 3109 1391 
Q 3109 606 3145 398 
Q 3181 191 3288 0 
L 2700 0 
Q 2613 175 2588 409 
z
M 2541 1666 
Q 2234 1541 1622 1453 
Q 1275 1403 1131 1340 
Q 988 1278 909 1158 
Q 831 1038 831 891 
Q 831 666 1001 516 
Q 1172 366 1500 366 
Q 1825 366 2078 508 
Q 2331 650 2450 897 
Q 2541 1088 2541 1459 
L 2541 1666 
z
" transform="scale(0.015625)"/>
       <path id="ArialMT-6e" d="M 422 0 
L 422 3319 
L 928 3319 
L 928 2847 
Q 1294 3394 1984 3394 
Q 2284 3394 2536 3286 
Q 2788 3178 2913 3003 
Q 3038 2828 3088 2588 
Q 3119 2431 3119 2041 
L 3119 0 
L 2556 0 
L 2556 2019 
Q 2556 2363 2490 2533 
Q 2425 2703 2258 2804 
Q 2091 2906 1866 2906 
Q 1506 2906 1245 2678 
Q 984 2450 984 1813 
L 984 0 
L 422 0 
z
" transform="scale(0.015625)"/>
       <path id="ArialMT-20" transform="scale(0.015625)"/>
       <path id="ArialMT-70" d="M 422 -1272 
L 422 3319 
L 934 3319 
L 934 2888 
Q 1116 3141 1344 3267 
Q 1572 3394 1897 3394 
Q 2322 3394 2647 3175 
Q 2972 2956 3137 2557 
Q 3303 2159 3303 1684 
Q 3303 1175 3120 767 
Q 2938 359 2589 142 
Q 2241 -75 1856 -75 
Q 1575 -75 1351 44 
Q 1128 163 984 344 
L 984 -1272 
L 422 -1272 
z
M 931 1641 
Q 931 1000 1190 694 
Q 1450 388 1819 388 
Q 2194 388 2461 705 
Q 2728 1022 2728 1688 
Q 2728 2322 2467 2637 
Q 2206 2953 1844 2953 
Q 1484 2953 1207 2617 
Q 931 2281 931 1641 
z
" transform="scale(0.015625)"/>
       <path id="ArialMT-6f" d="M 213 1659 
Q 213 2581 725 3025 
Q 1153 3394 1769 3394 
Q 2453 3394 2887 2945 
Q 3322 2497 3322 1706 
Q 3322 1066 3130 698 
Q 2938 331 2570 128 
Q 2203 -75 1769 -75 
Q 1072 -75 642 372 
Q 213 819 213 1659 
z
M 791 1659 
Q 791 1022 1069 705 
Q 1347 388 1769 388 
Q 2188 388 2466 706 
Q 2744 1025 2744 1678 
Q 2744 2294 2464 2611 
Q 2184 2928 1769 2928 
Q 1347 2928 1069 2612 
Q 791 2297 791 1659 
z
" transform="scale(0.015625)"/>
       <path id="ArialMT-74" d="M 1650 503 
L 1731 6 
Q 1494 -44 1306 -44 
Q 1000 -44 831 53 
Q 663 150 594 308 
Q 525 466 525 972 
L 525 2881 
L 113 2881 
L 113 3319 
L 525 3319 
L 525 4141 
L 1084 4478 
L 1084 3319 
L 1650 3319 
L 1650 2881 
L 1084 2881 
L 1084 941 
Q 1084 700 1114 631 
Q 1144 563 1211 522 
Q 1278 481 1403 481 
Q 1497 481 1650 503 
z
" transform="scale(0.015625)"/>
       <path id="ArialMT-6c" d="M 409 0 
L 409 4581 
L 972 4581 
L 972 0 
L 409 0 
z
" transform="scale(0.015625)"/>
       <path id="ArialMT-56" d="M 1803 0 
L 28 4581 
L 684 4581 
L 1875 1253 
Q 2019 853 2116 503 
Q 2222 878 2363 1253 
L 3600 4581 
L 4219 4581 
L 2425 0 
L 1803 0 
z
" transform="scale(0.015625)"/>
      </defs>
      <use xlink:href="#ArialMT-4d"/>
      <use xlink:href="#ArialMT-65" x="83.300781"/>
      <use xlink:href="#ArialMT-6d" x="138.916016"/>
      <use xlink:href="#ArialMT-62" x="222.216797"/>
      <use xlink:href="#ArialMT-72" x="277.832031"/>
      <use xlink:href="#ArialMT-61" x="311.132812"/>
      <use xlink:href="#ArialMT-6e" x="366.748047"/>
      <use xlink:href="#ArialMT-65" x="422.363281"/>
      <use xlink:href="#ArialMT-20" x="477.978516"/>
      <use xlink:href="#ArialMT-70" x="505.761719"/>
      <use xlink:href="#ArialMT-6f" x="561.376953"/>
      <use xlink:href="#ArialMT-74" x="616.992188"/>
      <use xlink:href="#ArialMT-65" x="644.775391"/>
      <use xlink:href="#ArialMT-6e" x="700.390625"/>
      <use xlink:href="#ArialMT-74" x="756.005859"/>
      <use xlink:href="#ArialMT-69" x="783.789062"/>
      <use xlink:href="#ArialMT-61" x="806.005859"/>
      <use xlink:href="#ArialMT-6c" x="861.621094"/>
      <use xlink:href="#ArialMT-20" x="883.837891"/>
      <use xlink:href="#ArialMT-28" x="911.621094"/>
      <use xlink:href="#ArialMT-6d" x="944.921875"/>
      <use xlink:href="#ArialMT-56" x="1028.222656"/>
      <use xlink:href="#ArialMT-29" x="1094.921875"/>
     </g>
    </g>
   </g>
   <g id="line2d_13">
    <path d="M 92.290909 438.768 
L 92.629091 440.614252 
L 93.237818 443.372786 
L 93.846545 445.181162 
L 94.455273 446.365535 
L 95.131636 447.20179 
L 95.875636 447.754386 
L 96.754909 448.117715 
L 97.972364 448.354872 
L 100.001455 448.482408 
L 105.547636 448.519679 
L 159.927273 448.521009 
L 160.130182 426.210714 
L 160.536 408.719742 
L 161.077091 395.022117 
L 161.685818 384.933765 
L 162.497455 375.20809 
L 164.458909 353.188592 
L 165.270545 339.321583 
L 165.811636 328.027476 
L 166.014545 318.608569 
L 166.149818 297.705151 
L 166.285091 207.143101 
L 166.488 329.361532 
L 166.758545 357.611233 
L 167.029091 365.332312 
L 167.232 366.879418 
L 167.367273 366.987397 
L 167.502545 366.703858 
L 168.178909 363.882857 
L 168.787636 360.71527 
L 169.802182 355.084654 
L 170.410909 353.352787 
L 171.154909 351.122922 
L 172.169455 347.150394 
L 172.507636 344.328643 
L 172.845818 338.92106 
L 173.048727 333.032579 
L 173.184 325.138938 
L 173.319273 298.46741 
L 173.386909 169.684722 
L 173.454545 197.604448 
L 173.657455 340.56583 
L 173.928 370.324684 
L 174.198545 376.533126 
L 174.333818 377.153833 
L 174.401455 377.135374 
L 174.536727 376.653214 
L 174.874909 374.058512 
L 176.295273 361.882905 
L 177.309818 355.934428 
L 177.986182 351.720311 
L 179.203636 341.933395 
L 179.474182 336.529429 
L 179.677091 327.689221 
L 179.812364 310.071375 
L 179.947636 152.034343 
L 180.150545 334.599148 
L 180.421091 369.89031 
L 180.691636 376.727286 
L 180.826909 377.359206 
L 180.894545 377.331911 
L 181.029818 376.821745 
L 181.368 374.158054 
L 182.585455 363.732469 
L 183.735273 356.42972 
L 184.614545 350.151859 
L 185.155636 344.465828 
L 185.493818 338.365519 
L 185.696727 331.339276 
L 185.832 321.008531 
L 185.899636 308.6781 
L 186.034909 158.693025 
L 186.237818 337.64752 
L 186.440727 368.175669 
L 186.643636 376.164921 
L 186.846545 377.962886 
L 186.914182 377.974767 
L 187.049455 377.499574 
L 187.387636 374.821176 
L 188.875636 361.584991 
L 189.890182 355.023334 
L 190.498909 350.990693 
L 191.107636 345.458679 
L 191.445818 339.757085 
L 191.784 329.246239 
L 191.986909 315.618899 
L 192.054545 302.700196 
L 192.189818 181.667381 
L 192.392727 329.625291 
L 192.663273 363.03339 
L 192.933818 372.059701 
L 193.136727 373.495558 
L 193.204364 373.537339 
L 193.339636 373.238305 
L 193.610182 371.750492 
L 195.301091 360.006809 
L 195.909818 361.840061 
L 196.112727 361.490895 
L 196.450909 360.27111 
L 196.992 357.465169 
L 197.736 353.017025 
L 197.803636 353.255819 
L 198.48 358.931501 
L 198.615273 358.914064 
L 198.818182 358.329839 
L 199.088727 357.594644 
L 199.359273 357.11143 
L 199.765091 355.56545 
L 200.170909 353.262609 
L 200.914909 346.933898 
L 201.320727 340.638855 
L 201.591273 332.892577 
L 201.726545 324.776273 
L 201.861818 297.086678 
L 201.929455 165.0969 
L 201.997091 204.815345 
L 202.2 342.812273 
L 202.402909 367.098918 
L 202.673455 374.819795 
L 202.876364 375.81548 
L 203.011636 375.543709 
L 203.282182 373.844207 
L 204.026182 368.581533 
L 204.702545 365.637977 
L 205.108364 364.147642 
L 205.784727 360.934021 
L 205.852364 361.031062 
L 206.393455 362.117303 
L 206.596364 361.736045 
L 206.934545 360.466209 
L 207.949091 354.975037 
L 208.625455 350.383899 
L 209.031273 345.973188 
L 209.369455 339.857312 
L 209.64 330.31025 
L 209.775273 318.210719 
L 209.842909 302.248636 
L 209.978182 186.63186 
L 210.181091 342.243443 
L 210.384 368.987346 
L 210.586909 375.910205 
L 210.789818 377.257291 
L 210.925091 376.902549 
L 211.195636 374.896736 
L 212.548364 363.349512 
L 213.698182 356.066711 
L 214.577455 350.679782 
L 214.915636 348.55788 
L 214.983273 348.580805 
L 215.186182 349.337989 
L 215.389091 350.762036 
L 215.794909 353.522356 
L 215.930182 353.713218 
L 216.065455 353.550272 
L 216.268364 352.786915 
L 216.606545 350.374998 
L 217.08 345.134042 
L 217.418182 338.299096 
L 217.621091 329.955252 
L 217.756364 316.418713 
L 217.824 295.164259 
L 217.891636 153.616798 
L 217.959273 210.310658 
L 218.162182 344.460978 
L 218.365091 368.226346 
L 218.635636 375.539016 
L 218.838545 376.445801 
L 218.973818 376.135274 
L 219.244364 374.408694 
L 221.408727 357.300594 
L 222.017455 354.523568 
L 222.626182 353.049551 
L 222.964364 351.249208 
L 223.505455 346.781967 
L 223.978909 340.926406 
L 224.249455 334.133166 
L 224.384727 326.992878 
L 224.52 306.474643 
L 224.655273 167.54372 
L 224.858182 338.99814 
L 225.061091 367.399415 
L 225.331636 375.99196 
L 225.534545 377.057992 
L 225.669818 376.757412 
L 225.940364 375.016331 
L 228.510545 354.455402 
L 229.457455 350.29737 
L 229.795636 347.182975 
L 230.201455 340.860703 
L 230.472 332.387743 
L 230.607273 322.506896 
L 230.674909 311.227428 
L 230.742545 269.963261 
L 230.810182 148.509354 
L 231.013091 336.248446 
L 231.216 367.507752 
L 231.418909 375.338332 
L 231.621818 377.173525 
L 231.689455 377.245349 
L 231.824727 376.899594 
L 232.095273 375.054578 
L 233.380364 364.575494 
L 234.192 360.490546 
L 236.491636 346.706695 
L 236.897455 342.473651 
L 237.168 337.286919 
L 237.370909 328.918924 
L 237.506182 313.21905 
L 237.573818 281.430662 
L 237.641455 142.874534 
L 237.844364 331.629604 
L 238.047273 363.914357 
L 238.317818 374.239797 
L 238.520727 375.906707 
L 238.588364 375.970918 
L 238.723636 375.643441 
L 238.994182 373.897503 
L 241.090909 357.3388 
L 241.496727 356.40244 
L 241.834909 355.270276 
L 242.240727 352.894602 
L 242.849455 347.550693 
L 243.255273 344.327031 
L 243.931636 341.55098 
L 244.337455 337.94859 
L 244.540364 334.184866 
L 244.743273 325.548152 
L 244.878545 306.699271 
L 245.013818 162.495575 
L 245.216727 329.666181 
L 245.487273 363.389304 
L 245.757818 372.038697 
L 245.960727 373.773147 
L 246.096 373.868995 
L 246.231273 373.445243 
L 246.569455 371.190534 
L 248.530909 355.916563 
L 250.154182 344.849059 
L 250.492364 340.262348 
L 250.762909 333.193437 
L 250.965818 321.818814 
L 251.101091 290.366274 
L 251.168727 163.544079 
L 251.236364 225.224667 
L 251.439273 340.905183 
L 251.709818 367.058377 
L 251.980364 372.915549 
L 252.183273 373.717518 
L 252.318545 373.438782 
L 252.656727 371.481462 
L 253.536 364.822932 
L 255.091636 353.594233 
L 256.106182 347.502026 
L 256.579636 341.534593 
L 256.850182 335.608042 
L 257.053091 325.248974 
L 257.188364 298.494467 
L 257.256 170.05326 
L 257.323636 200.24588 
L 257.526545 342.565147 
L 257.729455 367.36874 
L 258 375.408756 
L 258.202909 376.373017 
L 258.338182 376.02025 
L 258.608727 374.152147 
L 260.232 360.619615 
L 261.517091 354.670755 
L 261.855273 354.259569 
L 262.125818 353.655897 
L 262.396364 352.519286 
L 262.802182 349.546902 
L 263.208 344.653102 
L 263.478545 339.134001 
L 263.681455 331.201434 
L 263.816727 318.238142 
L 263.884364 298.674196 
L 263.952 157.343596 
L 264.019636 200.566609 
L 264.222545 345.217188 
L 264.425455 369.60574 
L 264.628364 375.837186 
L 264.831273 377.175498 
L 264.898909 377.135043 
L 265.101818 376.216586 
L 265.507636 372.67025 
L 266.860364 360.197364 
L 267.604364 356.010086 
L 268.145455 353.507909 
L 268.483636 352.782065 
L 268.821818 351.506104 
L 269.227636 348.922695 
L 269.633455 344.705683 
L 269.904 339.858718 
L 270.106909 333.153191 
L 270.242182 323.693069 
L 270.309818 313.735338 
L 270.377455 284.088808 
L 270.445091 142.552018 
L 270.648 332.494298 
L 270.850909 365.858122 
L 271.053818 374.460085 
L 271.256727 376.640577 
L 271.324364 376.766846 
L 271.392 376.704595 
L 271.594909 375.754422 
L 272.068364 371.596274 
L 273.353455 360.117057 
L 273.962182 356.705309 
L 274.165091 356.552124 
L 274.435636 356.463247 
L 274.638545 356.16951 
L 274.909091 355.313532 
L 275.314909 353.108574 
L 276.397091 345.437438 
L 276.735273 340.532089 
L 276.938182 334.919289 
L 277.073455 327.743211 
L 277.208727 307.374847 
L 277.344 163.970479 
L 277.546909 338.349919 
L 277.749818 366.400558 
L 278.020364 375.495166 
L 278.223273 376.889612 
L 278.290909 376.868313 
L 278.426182 376.369873 
L 278.764364 373.664929 
L 279.711273 365.335911 
L 283.025455 344.115347 
L 283.363636 339.451046 
L 283.566545 334.213798 
L 283.769455 321.300866 
L 283.837091 309.17627 
L 283.972364 155.351896 
L 284.175273 335.71681 
L 284.445818 370.90389 
L 284.648727 376.411731 
L 284.851636 377.333518 
L 284.986909 376.842868 
L 285.325091 374.031228 
L 286.542545 362.740946 
L 288.368727 350.965234 
L 288.909818 349.046677 
L 290.059636 342.363894 
L 290.330182 338.19612 
L 290.533091 332.073777 
L 290.668364 323.663371 
L 290.803636 291.929876 
L 290.871273 152.353084 
L 290.938909 218.121538 
L 291.141818 341.502785 
L 291.412364 368.616015 
L 291.682909 374.597298 
L 291.885818 375.318464 
L 292.021091 374.932223 
L 292.359273 372.609364 
L 294.320727 356.50481 
L 295.335273 347.176705 
L 295.741091 340.766766 
L 296.011636 332.547612 
L 296.146909 323.408766 
L 296.214545 313.628217 
L 296.282182 284.779768 
L 296.349818 144.807043 
L 296.552727 333.024311 
L 296.755636 365.904808 
L 296.958545 374.136609 
L 297.161455 376.113385 
L 297.229091 376.2011 
L 297.296727 376.110567 
L 297.499636 375.175108 
L 297.905455 371.948305 
L 299.190545 361.273217 
L 299.664 358.638188 
L 300.746182 353.065166 
L 301.287273 349.951312 
L 301.693091 346.353965 
L 302.031273 341.131668 
L 302.234182 335.293521 
L 302.437091 320.968692 
L 302.504727 306.619969 
L 302.64 168.697505 
L 302.842909 341.263497 
L 303.045818 368.713023 
L 303.248727 375.568923 
L 303.451636 377.085584 
L 303.519273 377.072484 
L 303.654545 376.59848 
L 303.992727 374.005832 
L 305.480727 360.964021 
L 306.36 356.162061 
L 306.833455 355.056485 
L 307.239273 354.87727 
L 307.442182 354.303084 
L 307.848 352.118001 
L 308.253818 348.985566 
L 308.592 344.836789 
L 308.862545 339.376831 
L 309.065455 331.702984 
L 309.200727 319.839377 
L 309.268364 303.80592 
L 309.403636 180.749564 
L 309.606545 342.377727 
L 309.809455 367.850176 
L 310.08 375.465865 
L 310.282909 376.557343 
L 310.350545 376.507001 
L 310.553455 375.598191 
L 311.026909 371.558568 
L 312.244364 360.919877 
L 312.920727 356.356781 
L 313.529455 352.003333 
L 314.070545 346.455453 
L 314.476364 339.963245 
L 314.679273 333.924296 
L 314.814545 325.984321 
L 314.949818 300.079546 
L 315.017455 173.367668 
L 315.085091 196.627864 
L 315.288 344.245484 
L 315.490909 368.427986 
L 315.761455 375.680423 
L 315.964364 376.450906 
L 316.099636 376.113251 
L 316.370182 374.390786 
L 320.360727 340.611074 
L 320.631273 335.314941 
L 320.834182 326.07523 
L 320.969455 305.484741 
L 321.104727 170.983268 
L 321.307636 337.232978 
L 321.578182 369.405256 
L 321.848727 375.543148 
L 321.984 376.048435 
L 322.119273 375.764247 
L 322.389818 373.97279 
L 324.216 359.187987 
L 324.892364 356.036679 
L 325.704 351.98167 
L 326.042182 351.492668 
L 326.312727 350.401896 
L 326.718545 347.338374 
L 327.056727 342.727164 
L 327.327273 335.597828 
L 327.530182 321.801475 
L 327.597818 308.60597 
L 327.733091 159.046962 
L 327.936 338.903445 
L 328.138909 367.682762 
L 328.341818 375.057463 
L 328.544727 376.898991 
L 328.612364 376.966412 
L 328.747636 376.601338 
L 329.018182 374.685213 
L 330.506182 362.03676 
L 331.114909 358.834103 
L 331.858909 353.286631 
L 332.805818 344.484044 
L 333.211636 339.048089 
L 333.414545 333.858405 
L 333.617455 321.195913 
L 333.685091 309.517913 
L 333.820364 154.689165 
L 334.023273 334.031267 
L 334.293818 367.759759 
L 334.564364 374.64611 
L 334.767273 375.490341 
L 334.902545 375.127178 
L 335.173091 373.48873 
L 337.337455 357.447918 
L 338.013818 352.920029 
L 338.487273 348.496902 
L 339.569455 334.401224 
L 339.772364 325.181117 
L 339.907636 304.055895 
L 340.042909 176.228106 
L 340.245818 335.561449 
L 340.516364 366.205139 
L 340.786909 373.007944 
L 340.989818 374.058387 
L 341.057455 374.020501 
L 341.192727 373.563638 
L 341.530909 371.136721 
L 343.424727 355.366485 
L 343.627636 355.215628 
L 343.965818 355.306692 
L 344.168727 355.010213 
L 344.506909 353.866509 
L 344.845091 351.894788 
L 345.250909 347.995684 
L 345.859636 339.741616 
L 346.130182 332.336103 
L 346.265455 324.244963 
L 346.400727 296.513584 
L 346.468364 168.09168 
L 346.536 206.353731 
L 346.738909 341.802337 
L 347.009455 369.662646 
L 347.28 374.942139 
L 347.415273 375.302514 
L 347.550545 374.953882 
L 347.821091 373.171563 
L 350.797091 349.421632 
L 351.270545 346.138412 
L 351.608727 341.601438 
L 351.879273 334.744923 
L 352.082182 322.490173 
L 352.149818 312.358322 
L 352.217455 281.401433 
L 352.285091 147.248667 
L 352.488 331.988073 
L 352.690909 364.631572 
L 352.893818 373.338709 
L 353.096727 375.632514 
L 353.232 375.780898 
L 353.367273 375.355055 
L 353.705455 372.94187 
L 355.396364 359.074857 
L 356.275636 352.556667 
L 357.087273 345.106438 
L 357.425455 339.239639 
L 357.628364 332.522017 
L 357.763636 323.015175 
L 357.831273 312.461062 
L 357.898909 277.846092 
L 357.966545 145.242091 
L 358.169455 334.729034 
L 358.372364 366.595745 
L 358.575273 374.368255 
L 358.778182 376.098165 
L 358.845818 376.135832 
L 358.981091 375.750261 
L 359.251636 373.918202 
L 361.213091 357.9536 
L 362.024727 352.525752 
L 362.295273 351.031732 
L 362.498182 350.900472 
L 362.701091 350.846754 
L 362.904 350.514211 
L 363.174545 349.537708 
L 364.189091 344.531442 
L 364.459636 341.615932 
L 364.730182 335.843778 
L 364.933091 325.763258 
L 365.068364 301.55119 
L 365.203636 185.825859 
L 365.406545 338.86246 
L 365.677091 369.630377 
L 365.947636 375.829283 
L 366.082909 376.311587 
L 366.218182 375.98686 
L 366.488727 374.08751 
L 368.179636 359.64767 
L 368.585455 357.725854 
L 368.991273 355.905052 
L 369.735273 350.877524 
L 370.614545 343.354398 
L 370.885091 339.035185 
L 371.088 332.957486 
L 371.223273 324.495483 
L 371.358545 292.76275 
L 371.426182 149.840901 
L 371.493818 218.644766 
L 371.696727 345.541156 
L 371.899636 368.525133 
L 372.102545 374.504878 
L 372.305455 375.932061 
L 372.373091 375.933137 
L 372.508364 375.498836 
L 372.778909 373.580747 
L 374.334545 360.528044 
L 375.010909 355.904952 
L 375.687273 351.391691 
L 376.160727 348.193378 
L 376.566545 344.107535 
L 376.837091 339.772991 
L 377.04 333.723394 
L 377.175273 325.370125 
L 377.310545 295.710071 
L 377.378182 152.336129 
L 377.445818 210.220019 
L 377.648727 344.905776 
L 377.851636 368.305019 
L 378.122182 375.583745 
L 378.325091 376.367905 
L 378.460364 375.95635 
L 378.730909 374.033384 
L 380.962909 354.962395 
L 381.301091 354.514308 
L 381.571636 353.847359 
L 381.977455 351.901945 
L 382.721455 346.529756 
L 383.194909 341.495933 
L 383.465455 335.923203 
L 383.668364 326.237964 
L 383.803636 304.105196 
L 383.938909 176.894531 
L 384.141818 337.93516 
L 384.344727 363.887288 
L 384.615273 372.693051 
L 384.818182 374.399574 
L 384.953455 374.529998 
L 385.088727 374.144894 
L 385.359273 372.423094 
L 387.117818 358.944246 
L 388.402909 350.614916 
L 388.944 345.571926 
L 389.282182 340.726895 
L 389.552727 333.103782 
L 389.688 324.392341 
L 389.755636 315.266693 
L 389.823273 290.437583 
L 389.890909 144.718709 
L 389.958545 225.611414 
L 390.161455 347.384499 
L 390.364364 370.157827 
L 390.567273 376.013737 
L 390.770182 377.198601 
L 390.905455 376.845361 
L 391.176 374.905351 
L 393.137455 358.072187 
L 394.490182 348.650944 
L 394.896 343.703723 
L 395.166545 337.753662 
L 395.369455 328.374577 
L 395.504727 309.193214 
L 395.64 157.794905 
L 395.842909 339.690803 
L 396.045818 368.204672 
L 396.248727 375.31267 
L 396.451636 377.046291 
L 396.519273 377.082465 
L 396.654545 376.674042 
L 396.925091 374.745831 
L 399.021818 356.772766 
L 399.833455 352.302004 
L 400.104 352.184942 
L 400.306909 352.023019 
L 400.509818 351.446145 
L 400.915636 349.222105 
L 401.321455 345.802667 
L 401.659636 340.997021 
L 401.862545 335.565348 
L 402.065455 322.492893 
L 402.133091 310.57012 
L 402.268364 150.128915 
L 402.471273 335.792201 
L 402.674182 365.611222 
L 402.944727 374.675616 
L 403.147636 376.008725 
L 403.215273 376.012072 
L 403.350545 375.599702 
L 403.621091 373.742183 
L 405.041455 362.353334 
L 405.650182 358.833926 
L 406.529455 352.46864 
L 407.138182 346.636597 
L 407.611636 339.252578 
L 407.882182 332.148884 
L 408.085091 318.962622 
L 408.152727 307.550764 
L 408.220364 268.13341 
L 408.288 163.483203 
L 408.490909 332.131344 
L 408.761455 366.302879 
L 409.032 372.971021 
L 409.167273 373.596605 
L 409.234909 373.584602 
L 409.370182 373.129721 
L 409.708364 370.62774 
L 412.346182 345.537971 
L 412.887273 336.570841 
L 413.090182 330.892142 
L 413.225455 323.230606 
L 413.360727 298.052016 
L 413.428364 193.445788 
L 413.496 200.909163 
L 413.698909 337.99376 
L 413.969455 366.117449 
L 414.24 372.531327 
L 414.442909 373.415489 
L 414.578182 373.122037 
L 414.848727 371.478223 
L 415.728 363.634069 
L 416.539636 357.301663 
L 416.810182 356.611035 
L 417.486545 355.120754 
L 418.433455 352.151384 
L 418.704 351.411918 
L 419.042182 349.597314 
L 419.380364 346.541398 
L 419.786182 340.593743 
L 420.056727 332.625064 
L 420.192 323.479348 
L 420.259636 313.548458 
L 420.327273 283.487074 
L 420.394909 142.526134 
L 420.597818 330.887609 
L 420.868364 369.391645 
L 421.071273 375.644239 
L 421.274182 376.885575 
L 421.409455 376.518159 
L 421.68 374.508774 
L 423.370909 359.569652 
L 424.047273 355.647094 
L 424.588364 352.327995 
L 425.129455 347.564078 
L 426.414545 332.978566 
L 426.617455 327.433263 
L 426.752727 318.178268 
L 426.820364 307.197926 
L 426.888 271.44801 
L 426.955636 164.569522 
L 427.158545 323.787799 
L 427.429091 357.946237 
L 427.699636 368.325246 
L 427.970182 371.199661 
L 428.105455 371.360362 
L 428.240727 371.016118 
L 428.511273 369.424951 
L 430.472727 355.326213 
L 430.743273 385.306825 
L 431.081455 399.247162 
L 431.487273 407.284708 
L 432.096 414.595357 
L 433.042909 423.140414 
L 434.125091 431.113859 
L 435.139636 437.009824 
L 436.018909 440.873663 
L 436.830545 443.501241 
L 437.642182 445.376082 
L 438.386182 446.576286 
L 439.197818 447.465628 
L 440.077091 448.079197 
L 441.024 448.468956 
L 442.241455 448.716775 
L 443.932364 448.808833 
L 447.584727 448.710626 
L 455.768727 448.545928 
L 472.272 448.509232 
L 498.109091 448.512199 
L 498.109091 448.512199 
" clip-path="url(#p78000d47a5)" style="fill: none; stroke: #000000; stroke-width: 1.5; stroke-linecap: square"/>
   </g>
   <g id="line2d_14">
    <path d="M 497.973818 408.87 
" clip-path="url(#p78000d47a5)" style="fill: none; stroke: #000000; stroke-width: 1.5; stroke-linecap: square"/>
   </g>
   <g id="line2d_15">
    <path d="M 430.472727 368.1 
L 430.472727 365.382 
L 430.472727 362.664 
L 430.472727 359.946 
L 430.472727 357.228 
L 430.472727 354.51 
L 430.472727 351.792 
L 430.472727 349.074 
L 430.472727 346.356 
L 430.472727 343.638 
L 430.472727 340.92 
L 430.472727 338.202 
L 430.472727 335.484 
L 430.472727 332.766 
L 430.472727 330.048 
L 430.472727 327.33 
L 430.472727 324.612 
L 430.472727 321.894 
L 430.472727 319.176 
L 430.472727 316.458 
" clip-path="url(#p78000d47a5)" style="fill: none; stroke: #000000; stroke-width: 1.5; stroke-linecap: square"/>
   </g>
   <g id="patch_3">
    <path d="M 72 504 
L 72 69.12 
" style="fill: none; stroke: #000000; stroke-width: 0.8; stroke-linejoin: miter; stroke-linecap: square"/>
   </g>
   <g id="patch_4">
    <path d="M 518.4 504 
L 518.4 69.12 
" style="fill: none; stroke: #000000; stroke-width: 0.8; stroke-linejoin: miter; stroke-linecap: square"/>
   </g>
   <g id="patch_5">
    <path d="M 72 504 
L 518.4 504 
" style="fill: none; stroke: #000000; stroke-width: 0.8; stroke-linejoin: miter; stroke-linecap: square"/>
   </g>
   <g id="patch_6">
    <path d="M 72 69.12 
L 518.4 69.12 
" style="fill: none; stroke: #000000; stroke-width: 0.8; stroke-linejoin: miter; stroke-linecap: square"/>
   </g>
   <g id="text_15">
    <!-- 500 ms -->
    <g transform="translate(497.973818 406.152)scale(0.22 -0.22)">
     <defs>
      <path id="ArialMT-35" d="M 266 1200 
L 856 1250 
Q 922 819 1161 601 
Q 1400 384 1738 384 
Q 2144 384 2425 690 
Q 2706 997 2706 1503 
Q 2706 1984 2436 2262 
Q 2166 2541 1728 2541 
Q 1456 2541 1237 2417 
Q 1019 2294 894 2097 
L 366 2166 
L 809 4519 
L 3088 4519 
L 3088 3981 
L 1259 3981 
L 1013 2750 
Q 1425 3038 1878 3038 
Q 2478 3038 2890 2622 
Q 3303 2206 3303 1553 
Q 3303 931 2941 478 
Q 2500 -78 1738 -78 
Q 1113 -78 717 272 
Q 322 622 266 1200 
z
" transform="scale(0.015625)"/>
      <path id="ArialMT-30" d="M 266 2259 
Q 266 3072 433 3567 
Q 600 4063 929 4331 
Q 1259 4600 1759 4600 
Q 2128 4600 2406 4451 
Q 2684 4303 2865 4023 
Q 3047 3744 3150 3342 
Q 3253 2941 3253 2259 
Q 3253 1453 3087 958 
Q 2922 463 2592 192 
Q 2263 -78 1759 -78 
Q 1097 -78 719 397 
Q 266 969 266 2259 
z
M 844 2259 
Q 844 1131 1108 757 
Q 1372 384 1759 384 
Q 2147 384 2411 759 
Q 2675 1134 2675 2259 
Q 2675 3391 2411 3762 
Q 2147 4134 1753 4134 
Q 1366 4134 1134 3806 
Q 844 3388 844 2259 
z
" transform="scale(0.015625)"/>
     </defs>
     <use xlink:href="#ArialMT-35"/>
     <use xlink:href="#ArialMT-30" x="55.615234"/>
     <use xlink:href="#ArialMT-30" x="111.230469"/>
     <use xlink:href="#ArialMT-20" x="166.845703"/>
     <use xlink:href="#ArialMT-6d" x="194.628906"/>
     <use xlink:href="#ArialMT-73" x="277.929688"/>
    </g>
   </g>
   <g id="text_16">
    <!-- 20 mV -->
    <g transform="translate(504.737455 321.894)scale(0.22 -0.22)">
     <defs>
      <path id="ArialMT-32" d="M 3222 541 
L 3222 0 
L 194 0 
Q 188 203 259 391 
Q 375 700 629 1000 
Q 884 1300 1366 1694 
Q 2113 2306 2375 2664 
Q 2638 3022 2638 3341 
Q 2638 3675 2398 3904 
Q 2159 4134 1775 4134 
Q 1369 4134 1125 3890 
Q 881 3647 878 3216 
L 300 3275 
Q 359 3922 746 4261 
Q 1134 4600 1788 4600 
Q 2447 4600 2831 4234 
Q 3216 3869 3216 3328 
Q 3216 3053 3103 2787 
Q 2991 2522 2730 2228 
Q 2469 1934 1863 1422 
Q 1356 997 1212 845 
Q 1069 694 975 541 
L 3222 541 
z
" transform="scale(0.015625)"/>
     </defs>
     <use xlink:href="#ArialMT-32"/>
     <use xlink:href="#ArialMT-30" x="55.615234"/>
     <use xlink:href="#ArialMT-20" x="111.230469"/>
     <use xlink:href="#ArialMT-6d" x="139.013672"/>
     <use xlink:href="#ArialMT-56" x="222.314453"/>
    </g>
   </g>
   <g id="text_17">
    <!--  Plotting dSPN, trace number 4677  -->
    <g transform="translate(122.17 63.12)scale(0.22 -0.22)">
     <defs>
      <path id="ArialMT-50" d="M 494 0 
L 494 4581 
L 2222 4581 
Q 2678 4581 2919 4538 
Q 3256 4481 3484 4323 
Q 3713 4166 3852 3881 
Q 3991 3597 3991 3256 
Q 3991 2672 3619 2267 
Q 3247 1863 2275 1863 
L 1100 1863 
L 1100 0 
L 494 0 
z
M 1100 2403 
L 2284 2403 
Q 2872 2403 3119 2622 
Q 3366 2841 3366 3238 
Q 3366 3525 3220 3729 
Q 3075 3934 2838 4000 
Q 2684 4041 2272 4041 
L 1100 4041 
L 1100 2403 
z
" transform="scale(0.015625)"/>
      <path id="ArialMT-67" d="M 319 -275 
L 866 -356 
Q 900 -609 1056 -725 
Q 1266 -881 1628 -881 
Q 2019 -881 2231 -725 
Q 2444 -569 2519 -288 
Q 2563 -116 2559 434 
Q 2191 0 1641 0 
Q 956 0 581 494 
Q 206 988 206 1678 
Q 206 2153 378 2554 
Q 550 2956 876 3175 
Q 1203 3394 1644 3394 
Q 2231 3394 2613 2919 
L 2613 3319 
L 3131 3319 
L 3131 450 
Q 3131 -325 2973 -648 
Q 2816 -972 2473 -1159 
Q 2131 -1347 1631 -1347 
Q 1038 -1347 672 -1080 
Q 306 -813 319 -275 
z
M 784 1719 
Q 784 1066 1043 766 
Q 1303 466 1694 466 
Q 2081 466 2343 764 
Q 2606 1063 2606 1700 
Q 2606 2309 2336 2618 
Q 2066 2928 1684 2928 
Q 1309 2928 1046 2623 
Q 784 2319 784 1719 
z
" transform="scale(0.015625)"/>
      <path id="ArialMT-64" d="M 2575 0 
L 2575 419 
Q 2259 -75 1647 -75 
Q 1250 -75 917 144 
Q 584 363 401 755 
Q 219 1147 219 1656 
Q 219 2153 384 2558 
Q 550 2963 881 3178 
Q 1213 3394 1622 3394 
Q 1922 3394 2156 3267 
Q 2391 3141 2538 2938 
L 2538 4581 
L 3097 4581 
L 3097 0 
L 2575 0 
z
M 797 1656 
Q 797 1019 1065 703 
Q 1334 388 1700 388 
Q 2069 388 2326 689 
Q 2584 991 2584 1609 
Q 2584 2291 2321 2609 
Q 2059 2928 1675 2928 
Q 1300 2928 1048 2622 
Q 797 2316 797 1656 
z
" transform="scale(0.015625)"/>
      <path id="ArialMT-53" d="M 288 1472 
L 859 1522 
Q 900 1178 1048 958 
Q 1197 738 1509 602 
Q 1822 466 2213 466 
Q 2559 466 2825 569 
Q 3091 672 3220 851 
Q 3350 1031 3350 1244 
Q 3350 1459 3225 1620 
Q 3100 1781 2813 1891 
Q 2628 1963 1997 2114 
Q 1366 2266 1113 2400 
Q 784 2572 623 2826 
Q 463 3081 463 3397 
Q 463 3744 659 4045 
Q 856 4347 1234 4503 
Q 1613 4659 2075 4659 
Q 2584 4659 2973 4495 
Q 3363 4331 3572 4012 
Q 3781 3694 3797 3291 
L 3216 3247 
Q 3169 3681 2898 3903 
Q 2628 4125 2100 4125 
Q 1550 4125 1298 3923 
Q 1047 3722 1047 3438 
Q 1047 3191 1225 3031 
Q 1400 2872 2139 2705 
Q 2878 2538 3153 2413 
Q 3553 2228 3743 1945 
Q 3934 1663 3934 1294 
Q 3934 928 3725 604 
Q 3516 281 3123 101 
Q 2731 -78 2241 -78 
Q 1619 -78 1198 103 
Q 778 284 539 648 
Q 300 1013 288 1472 
z
" transform="scale(0.015625)"/>
      <path id="ArialMT-4e" d="M 488 0 
L 488 4581 
L 1109 4581 
L 3516 984 
L 3516 4581 
L 4097 4581 
L 4097 0 
L 3475 0 
L 1069 3600 
L 1069 0 
L 488 0 
z
" transform="scale(0.015625)"/>
      <path id="ArialMT-2c" d="M 569 0 
L 569 641 
L 1209 641 
L 1209 0 
Q 1209 -353 1084 -570 
Q 959 -788 688 -906 
L 531 -666 
Q 709 -588 793 -436 
Q 878 -284 888 0 
L 569 0 
z
" transform="scale(0.015625)"/>
      <path id="ArialMT-63" d="M 2588 1216 
L 3141 1144 
Q 3050 572 2676 248 
Q 2303 -75 1759 -75 
Q 1078 -75 664 370 
Q 250 816 250 1647 
Q 250 2184 428 2587 
Q 606 2991 970 3192 
Q 1334 3394 1763 3394 
Q 2303 3394 2647 3120 
Q 2991 2847 3088 2344 
L 2541 2259 
Q 2463 2594 2264 2762 
Q 2066 2931 1784 2931 
Q 1359 2931 1093 2626 
Q 828 2322 828 1663 
Q 828 994 1084 691 
Q 1341 388 1753 388 
Q 2084 388 2306 591 
Q 2528 794 2588 1216 
z
" transform="scale(0.015625)"/>
      <path id="ArialMT-75" d="M 2597 0 
L 2597 488 
Q 2209 -75 1544 -75 
Q 1250 -75 995 37 
Q 741 150 617 320 
Q 494 491 444 738 
Q 409 903 409 1263 
L 409 3319 
L 972 3319 
L 972 1478 
Q 972 1038 1006 884 
Q 1059 663 1231 536 
Q 1403 409 1656 409 
Q 1909 409 2131 539 
Q 2353 669 2445 892 
Q 2538 1116 2538 1541 
L 2538 3319 
L 3100 3319 
L 3100 0 
L 2597 0 
z
" transform="scale(0.015625)"/>
      <path id="ArialMT-34" d="M 2069 0 
L 2069 1097 
L 81 1097 
L 81 1613 
L 2172 4581 
L 2631 4581 
L 2631 1613 
L 3250 1613 
L 3250 1097 
L 2631 1097 
L 2631 0 
L 2069 0 
z
M 2069 1613 
L 2069 3678 
L 634 1613 
L 2069 1613 
z
" transform="scale(0.015625)"/>
      <path id="ArialMT-36" d="M 3184 3459 
L 2625 3416 
Q 2550 3747 2413 3897 
Q 2184 4138 1850 4138 
Q 1581 4138 1378 3988 
Q 1113 3794 959 3422 
Q 806 3050 800 2363 
Q 1003 2672 1297 2822 
Q 1591 2972 1913 2972 
Q 2475 2972 2870 2558 
Q 3266 2144 3266 1488 
Q 3266 1056 3080 686 
Q 2894 316 2569 119 
Q 2244 -78 1831 -78 
Q 1128 -78 684 439 
Q 241 956 241 2144 
Q 241 3472 731 4075 
Q 1159 4600 1884 4600 
Q 2425 4600 2770 4297 
Q 3116 3994 3184 3459 
z
M 888 1484 
Q 888 1194 1011 928 
Q 1134 663 1356 523 
Q 1578 384 1822 384 
Q 2178 384 2434 671 
Q 2691 959 2691 1453 
Q 2691 1928 2437 2201 
Q 2184 2475 1800 2475 
Q 1419 2475 1153 2201 
Q 888 1928 888 1484 
z
" transform="scale(0.015625)"/>
      <path id="ArialMT-37" d="M 303 3981 
L 303 4522 
L 3269 4522 
L 3269 4084 
Q 2831 3619 2401 2847 
Q 1972 2075 1738 1259 
Q 1569 684 1522 0 
L 944 0 
Q 953 541 1156 1306 
Q 1359 2072 1739 2783 
Q 2119 3494 2547 3981 
L 303 3981 
z
" transform="scale(0.015625)"/>
     </defs>
     <use xlink:href="#ArialMT-20"/>
     <use xlink:href="#ArialMT-50" x="27.783203"/>
     <use xlink:href="#ArialMT-6c" x="94.482422"/>
     <use xlink:href="#ArialMT-6f" x="116.699219"/>
     <use xlink:href="#ArialMT-74" x="172.314453"/>
     <use xlink:href="#ArialMT-74" x="200.097656"/>
     <use xlink:href="#ArialMT-69" x="227.880859"/>
     <use xlink:href="#ArialMT-6e" x="250.097656"/>
     <use xlink:href="#ArialMT-67" x="305.712891"/>
     <use xlink:href="#ArialMT-20" x="361.328125"/>
     <use xlink:href="#ArialMT-64" x="389.111328"/>
     <use xlink:href="#ArialMT-53" x="444.726562"/>
     <use xlink:href="#ArialMT-50" x="511.425781"/>
     <use xlink:href="#ArialMT-4e" x="578.125"/>
     <use xlink:href="#ArialMT-2c" x="650.341797"/>
     <use xlink:href="#ArialMT-20" x="678.125"/>
     <use xlink:href="#ArialMT-74" x="705.908203"/>
     <use xlink:href="#ArialMT-72" x="733.691406"/>
     <use xlink:href="#ArialMT-61" x="766.992188"/>
     <use xlink:href="#ArialMT-63" x="822.607422"/>
     <use xlink:href="#ArialMT-65" x="872.607422"/>
     <use xlink:href="#ArialMT-20" x="928.222656"/>
     <use xlink:href="#ArialMT-6e" x="956.005859"/>
     <use xlink:href="#ArialMT-75" x="1011.621094"/>
     <use xlink:href="#ArialMT-6d" x="1067.236328"/>
     <use xlink:href="#ArialMT-62" x="1150.537109"/>
     <use xlink:href="#ArialMT-65" x="1206.152344"/>
     <use xlink:href="#ArialMT-72" x="1261.767578"/>
     <use xlink:href="#ArialMT-20" x="1295.068359"/>
     <use xlink:href="#ArialMT-34" x="1322.851562"/>
     <use xlink:href="#ArialMT-36" x="1378.466797"/>
     <use xlink:href="#ArialMT-37" x="1434.082031"/>
     <use xlink:href="#ArialMT-37" x="1489.697266"/>
     <use xlink:href="#ArialMT-20" x="1545.3125"/>
    </g>
   </g>
  </g>
 </g>
 <defs>
  <clipPath id="p78000d47a5">
   <rect x="72" y="69.12" width="446.4" height="434.88"/>
  </clipPath>
 </defs>
</svg>
