<?xml version="1.0" encoding="utf-8" standalone="no"?>
<!DOCTYPE svg PUBLIC "-//W3C//DTD SVG 1.1//EN"
  "http://www.w3.org/Graphics/SVG/1.1/DTD/svg11.dtd">
<svg xmlns:xlink="http://www.w3.org/1999/xlink" width="576pt" height="576pt" viewBox="0 0 576 576" xmlns="http://www.w3.org/2000/svg" version="1.1">
 <metadata>
  <rdf:RDF xmlns:dc="http://purl.org/dc/elements/1.1/" xmlns:cc="http://creativecommons.org/ns#" xmlns:rdf="http://www.w3.org/1999/02/22-rdf-syntax-ns#">
   <cc:Work>
    <dc:type rdf:resource="http://purl.org/dc/dcmitype/StillImage"/>
    <dc:date>2022-10-30T19:57:10.200515</dc:date>
    <dc:format>image/svg+xml</dc:format>
    <dc:creator>
     <cc:Agent>
      <dc:title>Matplotlib v3.5.2, https://matplotlib.org/</dc:title>
     </cc:Agent>
    </dc:creator>
   </cc:Work>
  </rdf:RDF>
 </metadata>
 <defs>
  <style type="text/css">*{stroke-linejoin: round; stroke-linecap: butt}</style>
 </defs>
 <g id="figure_1">
  <g id="patch_1">
   <path d="M 0 576 
L 576 576 
L 576 0 
L 0 0 
L 0 576 
z
" style="fill: none"/>
  </g>
  <g id="axes_1">
   <g id="patch_2">
    <path d="M 72 504 
L 518.4 504 
L 518.4 69.12 
L 72 69.12 
z
" style="fill: #ffffff"/>
   </g>
   <g id="matplotlib.axis_1">
    <g id="xtick_1">
     <g id="line2d_1">
      <defs>
       <path id="mbf23119927" d="M 0 0 
L 0 3.5 
" style="stroke: #000000; stroke-width: 0.8"/>
      </defs>
      <g>
       <use xlink:href="#mbf23119927" x="92.290909" y="504" style="stroke: #000000; stroke-width: 0.8"/>
      </g>
     </g>
     <g id="text_1">
      <!-- 0 -->
      <g transform="translate(85.292159 527.716563)scale(0.22 -0.22)">
       <defs>
        <path id="DejaVuSans-30" d="M 2034 4250 
Q 1547 4250 1301 3770 
Q 1056 3291 1056 2328 
Q 1056 1369 1301 889 
Q 1547 409 2034 409 
Q 2525 409 2770 889 
Q 3016 1369 3016 2328 
Q 3016 3291 2770 3770 
Q 2525 4250 2034 4250 
z
M 2034 4750 
Q 2819 4750 3233 4129 
Q 3647 3509 3647 2328 
Q 3647 1150 3233 529 
Q 2819 -91 2034 -91 
Q 1250 -91 836 529 
Q 422 1150 422 2328 
Q 422 3509 836 4129 
Q 1250 4750 2034 4750 
z
" transform="scale(0.015625)"/>
       </defs>
       <use xlink:href="#DejaVuSans-30"/>
      </g>
     </g>
    </g>
    <g id="xtick_2">
     <g id="line2d_2">
      <g>
       <use xlink:href="#mbf23119927" x="227.563636" y="504" style="stroke: #000000; stroke-width: 0.8"/>
      </g>
     </g>
     <g id="text_2">
      <!-- 1000 -->
      <g transform="translate(199.568636 527.716563)scale(0.22 -0.22)">
       <defs>
        <path id="DejaVuSans-31" d="M 794 531 
L 1825 531 
L 1825 4091 
L 703 3866 
L 703 4441 
L 1819 4666 
L 2450 4666 
L 2450 531 
L 3481 531 
L 3481 0 
L 794 0 
L 794 531 
z
" transform="scale(0.015625)"/>
       </defs>
       <use xlink:href="#DejaVuSans-31"/>
       <use xlink:href="#DejaVuSans-30" x="63.623047"/>
       <use xlink:href="#DejaVuSans-30" x="127.246094"/>
       <use xlink:href="#DejaVuSans-30" x="190.869141"/>
      </g>
     </g>
    </g>
    <g id="xtick_3">
     <g id="line2d_3">
      <g>
       <use xlink:href="#mbf23119927" x="362.836364" y="504" style="stroke: #000000; stroke-width: 0.8"/>
      </g>
     </g>
     <g id="text_3">
      <!-- 2000 -->
      <g transform="translate(334.841364 527.716563)scale(0.22 -0.22)">
       <defs>
        <path id="DejaVuSans-32" d="M 1228 531 
L 3431 531 
L 3431 0 
L 469 0 
L 469 531 
Q 828 903 1448 1529 
Q 2069 2156 2228 2338 
Q 2531 2678 2651 2914 
Q 2772 3150 2772 3378 
Q 2772 3750 2511 3984 
Q 2250 4219 1831 4219 
Q 1534 4219 1204 4116 
Q 875 4013 500 3803 
L 500 4441 
Q 881 4594 1212 4672 
Q 1544 4750 1819 4750 
Q 2544 4750 2975 4387 
Q 3406 4025 3406 3419 
Q 3406 3131 3298 2873 
Q 3191 2616 2906 2266 
Q 2828 2175 2409 1742 
Q 1991 1309 1228 531 
z
" transform="scale(0.015625)"/>
       </defs>
       <use xlink:href="#DejaVuSans-32"/>
       <use xlink:href="#DejaVuSans-30" x="63.623047"/>
       <use xlink:href="#DejaVuSans-30" x="127.246094"/>
       <use xlink:href="#DejaVuSans-30" x="190.869141"/>
      </g>
     </g>
    </g>
    <g id="xtick_4">
     <g id="line2d_4">
      <g>
       <use xlink:href="#mbf23119927" x="498.109091" y="504" style="stroke: #000000; stroke-width: 0.8"/>
      </g>
     </g>
     <g id="text_4">
      <!-- 3000 -->
      <g transform="translate(470.114091 527.716563)scale(0.22 -0.22)">
       <defs>
        <path id="DejaVuSans-33" d="M 2597 2516 
Q 3050 2419 3304 2112 
Q 3559 1806 3559 1356 
Q 3559 666 3084 287 
Q 2609 -91 1734 -91 
Q 1441 -91 1130 -33 
Q 819 25 488 141 
L 488 750 
Q 750 597 1062 519 
Q 1375 441 1716 441 
Q 2309 441 2620 675 
Q 2931 909 2931 1356 
Q 2931 1769 2642 2001 
Q 2353 2234 1838 2234 
L 1294 2234 
L 1294 2753 
L 1863 2753 
Q 2328 2753 2575 2939 
Q 2822 3125 2822 3475 
Q 2822 3834 2567 4026 
Q 2313 4219 1838 4219 
Q 1578 4219 1281 4162 
Q 984 4106 628 3988 
L 628 4550 
Q 988 4650 1302 4700 
Q 1616 4750 1894 4750 
Q 2613 4750 3031 4423 
Q 3450 4097 3450 3541 
Q 3450 3153 3228 2886 
Q 3006 2619 2597 2516 
z
" transform="scale(0.015625)"/>
       </defs>
       <use xlink:href="#DejaVuSans-33"/>
       <use xlink:href="#DejaVuSans-30" x="63.623047"/>
       <use xlink:href="#DejaVuSans-30" x="127.246094"/>
       <use xlink:href="#DejaVuSans-30" x="190.869141"/>
      </g>
     </g>
    </g>
    <g id="text_5">
     <!-- Time(ms) -->
     <g transform="translate(249.182187 552.307188)scale(0.22 -0.22)">
      <defs>
       <path id="ArialMT-54" d="M 1659 0 
L 1659 4041 
L 150 4041 
L 150 4581 
L 3781 4581 
L 3781 4041 
L 2266 4041 
L 2266 0 
L 1659 0 
z
" transform="scale(0.015625)"/>
       <path id="ArialMT-69" d="M 425 3934 
L 425 4581 
L 988 4581 
L 988 3934 
L 425 3934 
z
M 425 0 
L 425 3319 
L 988 3319 
L 988 0 
L 425 0 
z
" transform="scale(0.015625)"/>
       <path id="ArialMT-6d" d="M 422 0 
L 422 3319 
L 925 3319 
L 925 2853 
Q 1081 3097 1340 3245 
Q 1600 3394 1931 3394 
Q 2300 3394 2536 3241 
Q 2772 3088 2869 2813 
Q 3263 3394 3894 3394 
Q 4388 3394 4653 3120 
Q 4919 2847 4919 2278 
L 4919 0 
L 4359 0 
L 4359 2091 
Q 4359 2428 4304 2576 
Q 4250 2725 4106 2815 
Q 3963 2906 3769 2906 
Q 3419 2906 3187 2673 
Q 2956 2441 2956 1928 
L 2956 0 
L 2394 0 
L 2394 2156 
Q 2394 2531 2256 2718 
Q 2119 2906 1806 2906 
Q 1569 2906 1367 2781 
Q 1166 2656 1075 2415 
Q 984 2175 984 1722 
L 984 0 
L 422 0 
z
" transform="scale(0.015625)"/>
       <path id="ArialMT-65" d="M 2694 1069 
L 3275 997 
Q 3138 488 2766 206 
Q 2394 -75 1816 -75 
Q 1088 -75 661 373 
Q 234 822 234 1631 
Q 234 2469 665 2931 
Q 1097 3394 1784 3394 
Q 2450 3394 2872 2941 
Q 3294 2488 3294 1666 
Q 3294 1616 3291 1516 
L 816 1516 
Q 847 969 1125 678 
Q 1403 388 1819 388 
Q 2128 388 2347 550 
Q 2566 713 2694 1069 
z
M 847 1978 
L 2700 1978 
Q 2663 2397 2488 2606 
Q 2219 2931 1791 2931 
Q 1403 2931 1139 2672 
Q 875 2413 847 1978 
z
" transform="scale(0.015625)"/>
       <path id="ArialMT-28" d="M 1497 -1347 
Q 1031 -759 709 28 
Q 388 816 388 1659 
Q 388 2403 628 3084 
Q 909 3875 1497 4659 
L 1900 4659 
Q 1522 4009 1400 3731 
Q 1209 3300 1100 2831 
Q 966 2247 966 1656 
Q 966 153 1900 -1347 
L 1497 -1347 
z
" transform="scale(0.015625)"/>
       <path id="ArialMT-73" d="M 197 991 
L 753 1078 
Q 800 744 1014 566 
Q 1228 388 1613 388 
Q 2000 388 2187 545 
Q 2375 703 2375 916 
Q 2375 1106 2209 1216 
Q 2094 1291 1634 1406 
Q 1016 1563 777 1677 
Q 538 1791 414 1992 
Q 291 2194 291 2438 
Q 291 2659 392 2848 
Q 494 3038 669 3163 
Q 800 3259 1026 3326 
Q 1253 3394 1513 3394 
Q 1903 3394 2198 3281 
Q 2494 3169 2634 2976 
Q 2775 2784 2828 2463 
L 2278 2388 
Q 2241 2644 2061 2787 
Q 1881 2931 1553 2931 
Q 1166 2931 1000 2803 
Q 834 2675 834 2503 
Q 834 2394 903 2306 
Q 972 2216 1119 2156 
Q 1203 2125 1616 2013 
Q 2213 1853 2448 1751 
Q 2684 1650 2818 1456 
Q 2953 1263 2953 975 
Q 2953 694 2789 445 
Q 2625 197 2315 61 
Q 2006 -75 1616 -75 
Q 969 -75 630 194 
Q 291 463 197 991 
z
" transform="scale(0.015625)"/>
       <path id="ArialMT-29" d="M 791 -1347 
L 388 -1347 
Q 1322 153 1322 1656 
Q 1322 2244 1188 2822 
Q 1081 3291 891 3722 
Q 769 4003 388 4659 
L 791 4659 
Q 1378 3875 1659 3084 
Q 1900 2403 1900 1659 
Q 1900 816 1576 28 
Q 1253 -759 791 -1347 
z
" transform="scale(0.015625)"/>
      </defs>
      <use xlink:href="#ArialMT-54"/>
      <use xlink:href="#ArialMT-69" x="57.333984"/>
      <use xlink:href="#ArialMT-6d" x="79.550781"/>
      <use xlink:href="#ArialMT-65" x="162.851562"/>
      <use xlink:href="#ArialMT-28" x="218.466797"/>
      <use xlink:href="#ArialMT-6d" x="251.767578"/>
      <use xlink:href="#ArialMT-73" x="335.068359"/>
      <use xlink:href="#ArialMT-29" x="385.068359"/>
     </g>
    </g>
   </g>
   <g id="matplotlib.axis_2">
    <g id="ytick_1">
     <g id="line2d_5">
      <defs>
       <path id="m664eaa622d" d="M 0 0 
L -3.5 0 
" style="stroke: #000000; stroke-width: 0.8"/>
      </defs>
      <g>
       <use xlink:href="#m664eaa622d" x="72" y="476.82" style="stroke: #000000; stroke-width: 0.8"/>
      </g>
     </g>
     <g id="text_6">
      <!-- −100 -->
      <g transform="translate(4.572187 485.178281)scale(0.22 -0.22)">
       <defs>
        <path id="DejaVuSans-2212" d="M 678 2272 
L 4684 2272 
L 4684 1741 
L 678 1741 
L 678 2272 
z
" transform="scale(0.015625)"/>
       </defs>
       <use xlink:href="#DejaVuSans-2212"/>
       <use xlink:href="#DejaVuSans-31" x="83.789062"/>
       <use xlink:href="#DejaVuSans-30" x="147.412109"/>
       <use xlink:href="#DejaVuSans-30" x="211.035156"/>
      </g>
     </g>
    </g>
    <g id="ytick_2">
     <g id="line2d_6">
      <g>
       <use xlink:href="#m664eaa622d" x="72" y="422.46" style="stroke: #000000; stroke-width: 0.8"/>
      </g>
     </g>
     <g id="text_7">
      <!-- −80 -->
      <g transform="translate(18.569688 430.818281)scale(0.22 -0.22)">
       <defs>
        <path id="DejaVuSans-38" d="M 2034 2216 
Q 1584 2216 1326 1975 
Q 1069 1734 1069 1313 
Q 1069 891 1326 650 
Q 1584 409 2034 409 
Q 2484 409 2743 651 
Q 3003 894 3003 1313 
Q 3003 1734 2745 1975 
Q 2488 2216 2034 2216 
z
M 1403 2484 
Q 997 2584 770 2862 
Q 544 3141 544 3541 
Q 544 4100 942 4425 
Q 1341 4750 2034 4750 
Q 2731 4750 3128 4425 
Q 3525 4100 3525 3541 
Q 3525 3141 3298 2862 
Q 3072 2584 2669 2484 
Q 3125 2378 3379 2068 
Q 3634 1759 3634 1313 
Q 3634 634 3220 271 
Q 2806 -91 2034 -91 
Q 1263 -91 848 271 
Q 434 634 434 1313 
Q 434 1759 690 2068 
Q 947 2378 1403 2484 
z
M 1172 3481 
Q 1172 3119 1398 2916 
Q 1625 2713 2034 2713 
Q 2441 2713 2670 2916 
Q 2900 3119 2900 3481 
Q 2900 3844 2670 4047 
Q 2441 4250 2034 4250 
Q 1625 4250 1398 4047 
Q 1172 3844 1172 3481 
z
" transform="scale(0.015625)"/>
       </defs>
       <use xlink:href="#DejaVuSans-2212"/>
       <use xlink:href="#DejaVuSans-38" x="83.789062"/>
       <use xlink:href="#DejaVuSans-30" x="147.412109"/>
      </g>
     </g>
    </g>
    <g id="ytick_3">
     <g id="line2d_7">
      <g>
       <use xlink:href="#m664eaa622d" x="72" y="368.1" style="stroke: #000000; stroke-width: 0.8"/>
      </g>
     </g>
     <g id="text_8">
      <!-- −60 -->
      <g transform="translate(18.569688 376.458281)scale(0.22 -0.22)">
       <defs>
        <path id="DejaVuSans-36" d="M 2113 2584 
Q 1688 2584 1439 2293 
Q 1191 2003 1191 1497 
Q 1191 994 1439 701 
Q 1688 409 2113 409 
Q 2538 409 2786 701 
Q 3034 994 3034 1497 
Q 3034 2003 2786 2293 
Q 2538 2584 2113 2584 
z
M 3366 4563 
L 3366 3988 
Q 3128 4100 2886 4159 
Q 2644 4219 2406 4219 
Q 1781 4219 1451 3797 
Q 1122 3375 1075 2522 
Q 1259 2794 1537 2939 
Q 1816 3084 2150 3084 
Q 2853 3084 3261 2657 
Q 3669 2231 3669 1497 
Q 3669 778 3244 343 
Q 2819 -91 2113 -91 
Q 1303 -91 875 529 
Q 447 1150 447 2328 
Q 447 3434 972 4092 
Q 1497 4750 2381 4750 
Q 2619 4750 2861 4703 
Q 3103 4656 3366 4563 
z
" transform="scale(0.015625)"/>
       </defs>
       <use xlink:href="#DejaVuSans-2212"/>
       <use xlink:href="#DejaVuSans-36" x="83.789062"/>
       <use xlink:href="#DejaVuSans-30" x="147.412109"/>
      </g>
     </g>
    </g>
    <g id="ytick_4">
     <g id="line2d_8">
      <g>
       <use xlink:href="#m664eaa622d" x="72" y="313.74" style="stroke: #000000; stroke-width: 0.8"/>
      </g>
     </g>
     <g id="text_9">
      <!-- −40 -->
      <g transform="translate(18.569688 322.098281)scale(0.22 -0.22)">
       <defs>
        <path id="DejaVuSans-34" d="M 2419 4116 
L 825 1625 
L 2419 1625 
L 2419 4116 
z
M 2253 4666 
L 3047 4666 
L 3047 1625 
L 3713 1625 
L 3713 1100 
L 3047 1100 
L 3047 0 
L 2419 0 
L 2419 1100 
L 313 1100 
L 313 1709 
L 2253 4666 
z
" transform="scale(0.015625)"/>
       </defs>
       <use xlink:href="#DejaVuSans-2212"/>
       <use xlink:href="#DejaVuSans-34" x="83.789062"/>
       <use xlink:href="#DejaVuSans-30" x="147.412109"/>
      </g>
     </g>
    </g>
    <g id="ytick_5">
     <g id="line2d_9">
      <g>
       <use xlink:href="#m664eaa622d" x="72" y="259.38" style="stroke: #000000; stroke-width: 0.8"/>
      </g>
     </g>
     <g id="text_10">
      <!-- −20 -->
      <g transform="translate(18.569688 267.738281)scale(0.22 -0.22)">
       <use xlink:href="#DejaVuSans-2212"/>
       <use xlink:href="#DejaVuSans-32" x="83.789062"/>
       <use xlink:href="#DejaVuSans-30" x="147.412109"/>
      </g>
     </g>
    </g>
    <g id="ytick_6">
     <g id="line2d_10">
      <g>
       <use xlink:href="#m664eaa622d" x="72" y="205.02" style="stroke: #000000; stroke-width: 0.8"/>
      </g>
     </g>
     <g id="text_11">
      <!-- 0 -->
      <g transform="translate(51.0025 213.378281)scale(0.22 -0.22)">
       <use xlink:href="#DejaVuSans-30"/>
      </g>
     </g>
    </g>
    <g id="ytick_7">
     <g id="line2d_11">
      <g>
       <use xlink:href="#m664eaa622d" x="72" y="150.66" style="stroke: #000000; stroke-width: 0.8"/>
      </g>
     </g>
     <g id="text_12">
      <!-- 20 -->
      <g transform="translate(37.005 159.018281)scale(0.22 -0.22)">
       <use xlink:href="#DejaVuSans-32"/>
       <use xlink:href="#DejaVuSans-30" x="63.623047"/>
      </g>
     </g>
    </g>
    <g id="ytick_8">
     <g id="line2d_12">
      <g>
       <use xlink:href="#m664eaa622d" x="72" y="96.3" style="stroke: #000000; stroke-width: 0.8"/>
      </g>
     </g>
     <g id="text_13">
      <!-- 40 -->
      <g transform="translate(37.005 104.658281)scale(0.22 -0.22)">
       <use xlink:href="#DejaVuSans-34"/>
       <use xlink:href="#DejaVuSans-30" x="63.623047"/>
      </g>
     </g>
    </g>
    <g id="text_14">
     <!-- Membrane potential (mV) -->
     <g transform="translate(-4.058125 410.655469)rotate(-90)scale(0.22 -0.22)">
      <defs>
       <path id="ArialMT-4d" d="M 475 0 
L 475 4581 
L 1388 4581 
L 2472 1338 
Q 2622 884 2691 659 
Q 2769 909 2934 1394 
L 4031 4581 
L 4847 4581 
L 4847 0 
L 4263 0 
L 4263 3834 
L 2931 0 
L 2384 0 
L 1059 3900 
L 1059 0 
L 475 0 
z
" transform="scale(0.015625)"/>
       <path id="ArialMT-62" d="M 941 0 
L 419 0 
L 419 4581 
L 981 4581 
L 981 2947 
Q 1338 3394 1891 3394 
Q 2197 3394 2470 3270 
Q 2744 3147 2920 2923 
Q 3097 2700 3197 2384 
Q 3297 2069 3297 1709 
Q 3297 856 2875 390 
Q 2453 -75 1863 -75 
Q 1275 -75 941 416 
L 941 0 
z
M 934 1684 
Q 934 1088 1097 822 
Q 1363 388 1816 388 
Q 2184 388 2453 708 
Q 2722 1028 2722 1663 
Q 2722 2313 2464 2622 
Q 2206 2931 1841 2931 
Q 1472 2931 1203 2611 
Q 934 2291 934 1684 
z
" transform="scale(0.015625)"/>
       <path id="ArialMT-72" d="M 416 0 
L 416 3319 
L 922 3319 
L 922 2816 
Q 1116 3169 1280 3281 
Q 1444 3394 1641 3394 
Q 1925 3394 2219 3213 
L 2025 2691 
Q 1819 2813 1613 2813 
Q 1428 2813 1281 2702 
Q 1134 2591 1072 2394 
Q 978 2094 978 1738 
L 978 0 
L 416 0 
z
" transform="scale(0.015625)"/>
       <path id="ArialMT-61" d="M 2588 409 
Q 2275 144 1986 34 
Q 1697 -75 1366 -75 
Q 819 -75 525 192 
Q 231 459 231 875 
Q 231 1119 342 1320 
Q 453 1522 633 1644 
Q 813 1766 1038 1828 
Q 1203 1872 1538 1913 
Q 2219 1994 2541 2106 
Q 2544 2222 2544 2253 
Q 2544 2597 2384 2738 
Q 2169 2928 1744 2928 
Q 1347 2928 1158 2789 
Q 969 2650 878 2297 
L 328 2372 
Q 403 2725 575 2942 
Q 747 3159 1072 3276 
Q 1397 3394 1825 3394 
Q 2250 3394 2515 3294 
Q 2781 3194 2906 3042 
Q 3031 2891 3081 2659 
Q 3109 2516 3109 2141 
L 3109 1391 
Q 3109 606 3145 398 
Q 3181 191 3288 0 
L 2700 0 
Q 2613 175 2588 409 
z
M 2541 1666 
Q 2234 1541 1622 1453 
Q 1275 1403 1131 1340 
Q 988 1278 909 1158 
Q 831 1038 831 891 
Q 831 666 1001 516 
Q 1172 366 1500 366 
Q 1825 366 2078 508 
Q 2331 650 2450 897 
Q 2541 1088 2541 1459 
L 2541 1666 
z
" transform="scale(0.015625)"/>
       <path id="ArialMT-6e" d="M 422 0 
L 422 3319 
L 928 3319 
L 928 2847 
Q 1294 3394 1984 3394 
Q 2284 3394 2536 3286 
Q 2788 3178 2913 3003 
Q 3038 2828 3088 2588 
Q 3119 2431 3119 2041 
L 3119 0 
L 2556 0 
L 2556 2019 
Q 2556 2363 2490 2533 
Q 2425 2703 2258 2804 
Q 2091 2906 1866 2906 
Q 1506 2906 1245 2678 
Q 984 2450 984 1813 
L 984 0 
L 422 0 
z
" transform="scale(0.015625)"/>
       <path id="ArialMT-20" transform="scale(0.015625)"/>
       <path id="ArialMT-70" d="M 422 -1272 
L 422 3319 
L 934 3319 
L 934 2888 
Q 1116 3141 1344 3267 
Q 1572 3394 1897 3394 
Q 2322 3394 2647 3175 
Q 2972 2956 3137 2557 
Q 3303 2159 3303 1684 
Q 3303 1175 3120 767 
Q 2938 359 2589 142 
Q 2241 -75 1856 -75 
Q 1575 -75 1351 44 
Q 1128 163 984 344 
L 984 -1272 
L 422 -1272 
z
M 931 1641 
Q 931 1000 1190 694 
Q 1450 388 1819 388 
Q 2194 388 2461 705 
Q 2728 1022 2728 1688 
Q 2728 2322 2467 2637 
Q 2206 2953 1844 2953 
Q 1484 2953 1207 2617 
Q 931 2281 931 1641 
z
" transform="scale(0.015625)"/>
       <path id="ArialMT-6f" d="M 213 1659 
Q 213 2581 725 3025 
Q 1153 3394 1769 3394 
Q 2453 3394 2887 2945 
Q 3322 2497 3322 1706 
Q 3322 1066 3130 698 
Q 2938 331 2570 128 
Q 2203 -75 1769 -75 
Q 1072 -75 642 372 
Q 213 819 213 1659 
z
M 791 1659 
Q 791 1022 1069 705 
Q 1347 388 1769 388 
Q 2188 388 2466 706 
Q 2744 1025 2744 1678 
Q 2744 2294 2464 2611 
Q 2184 2928 1769 2928 
Q 1347 2928 1069 2612 
Q 791 2297 791 1659 
z
" transform="scale(0.015625)"/>
       <path id="ArialMT-74" d="M 1650 503 
L 1731 6 
Q 1494 -44 1306 -44 
Q 1000 -44 831 53 
Q 663 150 594 308 
Q 525 466 525 972 
L 525 2881 
L 113 2881 
L 113 3319 
L 525 3319 
L 525 4141 
L 1084 4478 
L 1084 3319 
L 1650 3319 
L 1650 2881 
L 1084 2881 
L 1084 941 
Q 1084 700 1114 631 
Q 1144 563 1211 522 
Q 1278 481 1403 481 
Q 1497 481 1650 503 
z
" transform="scale(0.015625)"/>
       <path id="ArialMT-6c" d="M 409 0 
L 409 4581 
L 972 4581 
L 972 0 
L 409 0 
z
" transform="scale(0.015625)"/>
       <path id="ArialMT-56" d="M 1803 0 
L 28 4581 
L 684 4581 
L 1875 1253 
Q 2019 853 2116 503 
Q 2222 878 2363 1253 
L 3600 4581 
L 4219 4581 
L 2425 0 
L 1803 0 
z
" transform="scale(0.015625)"/>
      </defs>
      <use xlink:href="#ArialMT-4d"/>
      <use xlink:href="#ArialMT-65" x="83.300781"/>
      <use xlink:href="#ArialMT-6d" x="138.916016"/>
      <use xlink:href="#ArialMT-62" x="222.216797"/>
      <use xlink:href="#ArialMT-72" x="277.832031"/>
      <use xlink:href="#ArialMT-61" x="311.132812"/>
      <use xlink:href="#ArialMT-6e" x="366.748047"/>
      <use xlink:href="#ArialMT-65" x="422.363281"/>
      <use xlink:href="#ArialMT-20" x="477.978516"/>
      <use xlink:href="#ArialMT-70" x="505.761719"/>
      <use xlink:href="#ArialMT-6f" x="561.376953"/>
      <use xlink:href="#ArialMT-74" x="616.992188"/>
      <use xlink:href="#ArialMT-65" x="644.775391"/>
      <use xlink:href="#ArialMT-6e" x="700.390625"/>
      <use xlink:href="#ArialMT-74" x="756.005859"/>
      <use xlink:href="#ArialMT-69" x="783.789062"/>
      <use xlink:href="#ArialMT-61" x="806.005859"/>
      <use xlink:href="#ArialMT-6c" x="861.621094"/>
      <use xlink:href="#ArialMT-20" x="883.837891"/>
      <use xlink:href="#ArialMT-28" x="911.621094"/>
      <use xlink:href="#ArialMT-6d" x="944.921875"/>
      <use xlink:href="#ArialMT-56" x="1028.222656"/>
      <use xlink:href="#ArialMT-29" x="1094.921875"/>
     </g>
    </g>
   </g>
   <g id="line2d_13">
    <path d="M 92.290909 438.768 
L 92.358545 437.62785 
L 92.426182 437.715807 
L 92.899636 441.334191 
L 93.508364 444.820012 
L 94.049455 446.745275 
L 94.590545 447.934425 
L 95.131636 448.650652 
L 95.740364 449.114318 
L 96.484364 449.407843 
L 97.634182 449.590859 
L 99.866182 449.667807 
L 112.717091 449.675482 
L 159.927273 449.667506 
L 160.130182 428.099014 
L 160.536 412.094513 
L 161.077091 400.045163 
L 161.685818 391.372058 
L 162.497455 383.166624 
L 163.579636 374.674004 
L 165.405818 362.276962 
L 165.744 361.324243 
L 166.285091 360.214813 
L 166.961455 357.919449 
L 167.773091 355.082762 
L 168.043636 354.813144 
L 168.314182 354.822662 
L 168.72 355.032072 
L 168.990545 354.83548 
L 169.734545 354.190248 
L 169.937455 354.166392 
L 170.140364 354.374513 
L 170.952 355.716206 
L 171.222545 355.705575 
L 171.425455 355.695896 
L 171.966545 355.827701 
L 172.237091 355.519459 
L 172.642909 354.546664 
L 173.048727 353.623093 
L 173.454545 353.084147 
L 174.266182 352.691876 
L 174.469091 352.763399 
L 175.889455 354.26201 
L 176.362909 355.003756 
L 176.565818 354.969618 
L 177.377455 354.608772 
L 177.986182 354.578646 
L 178.459636 354.606551 
L 179.271273 354.592265 
L 179.947636 354.268669 
L 180.150545 354.265389 
L 180.624 354.404944 
L 180.962182 354.326283 
L 181.435636 354.546673 
L 181.909091 354.38414 
L 182.517818 354.043026 
L 182.923636 353.791113 
L 183.194182 353.373982 
L 184.073455 351.653412 
L 184.276364 351.630358 
L 184.479273 351.791874 
L 184.682182 353.446356 
L 185.696727 363.34066 
L 185.899636 363.676654 
L 186.034909 363.644486 
L 186.237818 363.301436 
L 186.576 362.182173 
L 187.928727 356.914356 
L 188.266909 356.426921 
L 188.605091 356.013267 
L 189.957818 353.5332 
L 190.363636 353.334621 
L 190.972364 352.664308 
L 191.378182 351.912558 
L 191.445818 351.955379 
L 191.716364 352.800191 
L 192.730909 355.966644 
L 193.001455 356.269493 
L 193.204364 356.139852 
L 193.745455 355.395313 
L 193.880727 356.536622 
L 194.286545 360.912104 
L 194.489455 361.628981 
L 194.692364 361.681301 
L 194.895273 361.378571 
L 195.233455 360.398492 
L 196.315636 356.826516 
L 196.789091 356.967701 
L 197.059636 356.474474 
L 197.465455 355.798484 
L 197.938909 357.659446 
L 198.547636 363.692312 
L 198.750545 363.994228 
L 198.953455 363.780311 
L 199.224 363.123066 
L 199.765091 361.008098 
L 200.847273 356.678145 
L 201.726545 354.891193 
L 202.673455 352.295895 
L 203.282182 350.720188 
L 203.485091 352.737602 
L 203.958545 357.588291 
L 204.229091 358.501043 
L 204.432 358.661514 
L 204.634909 358.431957 
L 205.176 357.061888 
L 205.514182 356.194155 
L 205.717091 357.27654 
L 206.055273 358.877796 
L 206.258182 359.234352 
L 206.461091 359.187188 
L 206.731636 358.700046 
L 207.408 356.643394 
L 208.016727 354.706405 
L 208.828364 358.204039 
L 209.031273 358.169283 
L 209.301818 357.658183 
L 210.316364 354.717359 
L 210.857455 353.432047 
L 211.128 353.235539 
L 211.398545 353.058844 
L 211.804364 352.342222 
L 212.277818 351.173263 
L 212.954182 349.283553 
L 213.224727 348.930289 
L 213.427636 349.0072 
L 213.698182 349.386984 
L 214.171636 350.148774 
L 214.915636 350.698874 
L 215.050909 351.288413 
L 215.389091 354.904216 
L 215.794909 358.920101 
L 216.065455 359.704637 
L 216.200727 359.718906 
L 216.403636 359.425634 
L 216.809455 358.22666 
L 217.350545 356.70205 
L 217.824 355.841918 
L 218.094545 356.937196 
L 218.365091 357.713437 
L 218.568 357.807877 
L 218.770909 357.562421 
L 219.109091 356.6215 
L 219.717818 354.723668 
L 220.123636 354.057121 
L 220.461818 353.782747 
L 220.867636 353.660402 
L 221.205818 353.216833 
L 221.814545 351.849018 
L 222.693818 349.694924 
L 222.896727 349.567898 
L 223.032 349.726279 
L 223.776 351.209393 
L 223.843636 351.212874 
L 223.978909 351.54194 
L 224.858182 355.133294 
L 225.264 356.691627 
L 225.534545 356.996249 
L 225.872727 356.978287 
L 226.413818 356.933078 
L 226.684364 356.897947 
L 227.022545 356.586222 
L 227.360727 355.887947 
L 227.969455 354.642644 
L 228.104727 354.483888 
L 228.307636 354.974911 
L 228.645818 355.677898 
L 228.848727 355.660859 
L 229.119273 355.327674 
L 229.660364 354.636069 
L 229.930909 354.533751 
L 230.201455 354.411247 
L 230.539636 353.963135 
L 231.080727 353.295029 
L 231.757091 352.808557 
L 232.162909 352.825577 
L 232.298182 352.880067 
L 232.974545 354.405676 
L 233.312727 355.300922 
L 233.583273 355.502774 
L 233.786182 355.395244 
L 234.056727 354.911169 
L 234.733091 353.224222 
L 234.800727 353.271836 
L 235.341818 354.169525 
L 235.747636 354.775897 
L 236.153455 354.794064 
L 236.424 354.678818 
L 236.762182 354.299617 
L 237.438545 352.928385 
L 238.047273 351.14038 
L 238.453091 349.90175 
L 238.588364 350.018734 
L 239.4 351.374634 
L 239.805818 351.628665 
L 240.144 351.740436 
L 240.414545 351.773469 
L 240.752727 352.92246 
L 241.023273 353.502688 
L 241.226182 353.567072 
L 241.496727 353.366145 
L 242.240727 352.518094 
L 242.917091 352.722941 
L 243.525818 352.67991 
L 243.864 352.899035 
L 244.743273 353.879786 
L 245.352 355.855241 
L 245.622545 356.037895 
L 245.893091 355.835492 
L 246.163636 355.354361 
L 246.569455 354.007108 
L 247.110545 352.367762 
L 248.057455 350.266259 
L 248.192727 350.801429 
L 248.936727 356.151812 
L 249.139636 356.405215 
L 249.342545 356.335856 
L 249.680727 355.760099 
L 250.221818 354.397947 
L 250.830545 353.073085 
L 251.439273 352.324188 
L 251.845091 351.765189 
L 252.318545 351.156648 
L 252.521455 351.205453 
L 252.927273 351.404436 
L 253.265455 351.57394 
L 254.077091 352.542484 
L 254.415273 353.119625 
L 254.685818 353.151223 
L 255.024 353.165905 
L 255.294545 353.234231 
L 255.497455 353.094459 
L 256.241455 352.151619 
L 256.917818 353.209765 
L 257.256 353.003399 
L 257.661818 352.832051 
L 258 352.970498 
L 258.338182 353.46777 
L 258.879273 354.320974 
L 259.285091 354.461954 
L 259.555636 354.465453 
L 259.690909 354.427923 
L 260.299636 354.887029 
L 260.637818 354.475388 
L 261.990545 351.877156 
L 262.869818 349.753206 
L 263.343273 349.731521 
L 263.749091 349.907384 
L 263.952 350.008178 
L 264.154909 350.668811 
L 264.763636 354.132814 
L 265.101818 354.616805 
L 265.642909 355.048189 
L 265.845818 354.940945 
L 266.860364 354.008277 
L 267.198545 353.792063 
L 267.739636 352.949581 
L 268.145455 352.028834 
L 268.889455 350.193724 
L 269.024727 350.187995 
L 269.227636 350.736602 
L 269.768727 352.30049 
L 270.039273 352.651287 
L 270.242182 352.586913 
L 270.580364 352.177173 
L 271.189091 350.992265 
L 271.662545 349.940756 
L 271.797818 350.179238 
L 272.271273 351.898804 
L 272.88 353.796928 
L 273.082909 353.92244 
L 273.353455 353.703187 
L 273.826909 353.248286 
L 274.165091 352.469736 
L 275.314909 349.154852 
L 275.517818 349.054912 
L 276.667636 349.863686 
L 277.141091 350.106161 
L 277.749818 350.395643 
L 278.020364 350.474692 
L 278.358545 350.976379 
L 278.764364 352.276516 
L 279.305455 354.172841 
L 280.049455 357.258269 
L 280.252364 357.457516 
L 280.455273 357.341876 
L 280.793455 356.77692 
L 281.672727 355.245635 
L 282.078545 354.417536 
L 283.566545 351.316447 
L 284.175273 350.964696 
L 284.513455 350.938778 
L 284.851636 350.591268 
L 285.730909 349.347484 
L 286.069091 349.084675 
L 286.339636 348.765907 
L 286.677818 349.342981 
L 287.557091 351.054296 
L 287.827636 351.24288 
L 288.233455 351.406859 
L 288.504 352.060927 
L 289.112727 353.557578 
L 289.383273 353.703661 
L 289.518545 353.731021 
L 290.059636 354.157835 
L 290.465455 353.858342 
L 290.803636 353.275094 
L 291.412364 351.494108 
L 291.750545 350.834166 
L 291.885818 351.240642 
L 292.494545 353.727129 
L 292.765091 353.894074 
L 292.968 353.692421 
L 293.441455 353.194401 
L 293.847273 353.434699 
L 294.117818 353.254939 
L 294.523636 352.632089 
L 295.132364 351.313597 
L 295.944 349.241825 
L 296.214545 348.998035 
L 296.688 348.964631 
L 297.634909 349.692518 
L 298.243636 350.254724 
L 298.649455 350.262969 
L 298.92 350.022135 
L 299.393455 349.559833 
L 299.731636 349.538762 
L 299.934545 349.601086 
L 300.137455 350.352525 
L 300.678545 353.697064 
L 301.084364 356.438563 
L 301.354909 357.086513 
L 301.490182 357.120378 
L 301.693091 356.869499 
L 302.098909 355.842533 
L 302.842909 354.00434 
L 303.722182 352.056862 
L 304.601455 348.900376 
L 305.210182 346.736646 
L 305.413091 346.533446 
L 305.683636 346.629836 
L 305.886545 346.925859 
L 307.239273 350.39795 
L 307.780364 352.290062 
L 308.050909 353.52099 
L 308.389091 354.712861 
L 308.659636 354.955046 
L 308.862545 354.843695 
L 309.944727 353.623471 
L 310.485818 352.323518 
L 310.891636 351.592063 
L 311.026909 351.616188 
L 311.297455 352.432451 
L 311.635636 353.149337 
L 311.838545 353.214782 
L 312.109091 353.039044 
L 312.514909 352.339635 
L 313.056 350.941707 
L 313.8 348.884532 
L 313.935273 348.772046 
L 314.138182 349.295738 
L 315.288 352.909034 
L 315.761455 353.568059 
L 316.099636 353.509431 
L 316.370182 353.296838 
L 317.181818 352.321499 
L 317.587636 352.386535 
L 317.858182 352.328688 
L 318.196364 352.370955 
L 318.534545 352.18564 
L 319.210909 352.504974 
L 319.752 353.155585 
L 320.090182 353.154406 
L 320.293091 352.984423 
L 320.766545 352.090582 
L 321.172364 351.031751 
L 321.442909 350.38502 
L 321.713455 350.488402 
L 322.119273 350.870864 
L 322.457455 351.256034 
L 323.269091 352.444576 
L 323.607273 352.58167 
L 323.945455 352.305013 
L 324.351273 351.934553 
L 325.027636 351.832497 
L 325.298182 351.886095 
L 325.636364 351.645031 
L 326.042182 351.302144 
L 326.448 351.124206 
L 326.650909 351.663541 
L 327.056727 352.732219 
L 327.462545 353.07589 
L 327.665455 353.229291 
L 328.274182 354.441242 
L 328.544727 354.513658 
L 328.68 354.494864 
L 329.424 355.095892 
L 329.626909 354.913146 
L 330.168 353.888274 
L 330.641455 352.657652 
L 331.114909 350.625472 
L 331.926545 347.093862 
L 332.197091 346.496626 
L 332.467636 346.405196 
L 332.738182 346.30345 
L 333.549818 345.576465 
L 333.685091 345.653108 
L 333.888 346.46399 
L 334.767273 350.838976 
L 335.646545 353.276273 
L 335.849455 353.728922 
L 336.458182 355.80182 
L 336.661091 355.9832 
L 337.202182 356.041907 
L 337.472727 356.149009 
L 337.743273 355.907106 
L 338.284364 354.797255 
L 338.757818 353.21952 
L 339.84 349.95074 
L 339.907636 349.897501 
L 340.042909 350.262024 
L 340.651636 352.690531 
L 340.854545 352.867144 
L 341.057455 352.776542 
L 341.395636 352.176615 
L 342.139636 350.526669 
L 342.680727 350.562571 
L 342.951273 350.101116 
L 343.492364 348.627767 
L 344.439273 345.536219 
L 344.574545 345.698231 
L 344.777455 346.868179 
L 345.521455 351.89294 
L 346.603636 355.78122 
L 346.806545 355.812053 
L 347.009455 355.563288 
L 347.347636 354.719852 
L 348.024 352.144499 
L 348.565091 350.421285 
L 348.903273 349.717317 
L 349.106182 349.709899 
L 349.782545 350.048601 
L 350.053091 350.107195 
L 350.391273 349.889078 
L 350.797091 349.518465 
L 350.932364 349.594946 
L 351.202909 350.228171 
L 351.608727 352.07548 
L 351.946909 353.032681 
L 352.488 353.533448 
L 352.690909 353.559762 
L 352.826182 353.564693 
L 353.164364 354.284244 
L 353.570182 355.165823 
L 353.773091 355.17474 
L 353.976 354.907093 
L 354.381818 353.926337 
L 355.328727 351.137139 
L 355.599273 350.91313 
L 356.072727 350.807357 
L 356.343273 350.749049 
L 356.613818 350.983881 
L 357.222545 351.873855 
L 357.560727 352.381412 
L 357.898909 352.50916 
L 358.507636 353.758217 
L 358.710545 353.759374 
L 359.184 353.349435 
L 359.657455 352.486174 
L 360.266182 351.291295 
L 360.469091 351.50322 
L 361.077818 352.226612 
L 362.295273 351.984554 
L 362.768727 351.614708 
L 363.174545 351.973219 
L 363.377455 351.851913 
L 363.783273 351.24529 
L 364.662545 349.074767 
L 365.068364 348.203302 
L 365.203636 348.284834 
L 365.474182 349.212428 
L 366.082909 351.556867 
L 366.285818 351.685095 
L 366.488727 351.489404 
L 366.894545 350.526841 
L 367.368 349.454481 
L 367.909091 349.137499 
L 368.044364 349.400975 
L 369.058909 352.722271 
L 369.532364 353.861615 
L 369.735273 353.911354 
L 370.208727 353.838431 
L 370.682182 354.146242 
L 371.020364 354.461547 
L 371.223273 354.403547 
L 371.493818 353.989828 
L 371.899636 353.046813 
L 373.252364 349.650486 
L 373.455273 350.0387 
L 374.266909 351.980263 
L 374.672727 352.340743 
L 374.875636 352.266058 
L 375.213818 351.754465 
L 375.890182 350.760059 
L 375.957818 350.756136 
L 376.093091 351.079875 
L 376.837091 353.751689 
L 377.04 353.773292 
L 377.310545 353.442004 
L 378.325091 351.617228 
L 378.798545 350.770725 
L 379.204364 349.997654 
L 379.474909 350.435738 
L 380.354182 351.694165 
L 380.692364 351.851786 
L 380.895273 351.752396 
L 381.233455 351.294768 
L 382.045091 349.803728 
L 382.518545 349.283571 
L 382.856727 348.948465 
L 383.059636 349.066456 
L 383.397818 349.354799 
L 383.600727 349.279902 
L 383.803636 349.179725 
L 384.006545 349.631662 
L 384.48 351.587817 
L 385.224 355.218194 
L 385.426909 355.421828 
L 385.629818 355.297438 
L 385.968 354.624248 
L 386.779636 352.360505 
L 387.320727 351.181896 
L 387.523636 351.289208 
L 388.064727 351.639426 
L 388.267636 351.583394 
L 388.876364 351.152772 
L 389.282182 350.942064 
L 389.823273 350.122711 
L 389.890909 350.219965 
L 390.432 351.679753 
L 391.108364 353.212618 
L 391.311273 353.310795 
L 391.717091 353.258556 
L 392.122909 353.508501 
L 392.799273 353.439783 
L 393.002182 353.13776 
L 393.340364 352.103073 
L 394.219636 348.081813 
L 394.625455 346.794548 
L 394.963636 346.339535 
L 395.166545 346.42304 
L 395.504727 346.884346 
L 395.707636 347.715461 
L 396.857455 353.597314 
L 397.128 353.901437 
L 397.330909 353.793889 
L 397.736727 353.245177 
L 399.224727 350.563806 
L 399.765818 349.859618 
L 399.901091 350.03115 
L 400.239273 350.974192 
L 400.983273 353.389378 
L 401.253818 353.612954 
L 401.524364 353.576228 
L 401.997818 353.378294 
L 402.336 353.577395 
L 402.538909 353.40328 
L 402.877091 352.622796 
L 403.282909 350.99947 
L 404.026909 348.242922 
L 404.432727 347.625371 
L 404.635636 347.622834 
L 404.838545 347.846755 
L 405.785455 349.841315 
L 406.056 350.008165 
L 406.191273 350.308706 
L 406.597091 352.093413 
L 407.138182 355.048519 
L 407.408727 355.450206 
L 407.611636 355.365883 
L 407.882182 354.866902 
L 408.964364 352.105519 
L 409.776 351.60682 
L 410.181818 351.882382 
L 410.384727 351.76721 
L 410.655273 351.383919 
L 411.264 350.424119 
L 411.737455 349.90329 
L 412.278545 349.794663 
L 413.225455 351.479534 
L 413.428364 351.304448 
L 413.834182 350.436535 
L 414.442909 349.175862 
L 414.645818 349.083515 
L 414.848727 349.191997 
L 415.119273 349.619732 
L 415.863273 351.061063 
L 416.336727 351.811376 
L 416.674909 352.342462 
L 416.945455 352.544713 
L 417.216 353.833142 
L 417.621818 355.901133 
L 417.824727 356.108714 
L 418.027636 355.94465 
L 418.636364 354.67192 
L 419.109818 353.504413 
L 419.650909 351.424685 
L 420.259636 349.175117 
L 422.018182 343.755032 
L 422.288727 343.741634 
L 422.559273 343.952313 
L 422.694545 344.24901 
L 422.965091 346.357025 
L 423.709091 352.404196 
L 424.114909 353.989671 
L 424.385455 354.436206 
L 424.588364 354.432976 
L 424.858909 354.124875 
L 424.994182 354.007909 
L 425.129455 354.279762 
L 425.535273 355.954383 
L 425.805818 356.793664 
L 426.008727 356.886972 
L 426.211636 356.573074 
L 426.549818 355.460021 
L 427.226182 352.438533 
L 428.105455 348.283569 
L 428.240727 348.326916 
L 428.849455 349.080367 
L 429.255273 349.014779 
L 429.796364 349.945721 
L 430.269818 351.29681 
L 430.472727 351.892092 
L 430.743273 382.953954 
L 431.081455 396.68243 
L 431.487273 404.032259 
L 432.163636 411.424879 
L 434.125091 429.630583 
L 435.139636 437.092018 
L 435.951273 441.470352 
L 436.695273 444.289488 
L 437.371636 446.05187 
L 438.048 447.250844 
L 438.792 448.116603 
L 439.603636 448.705986 
L 440.550545 449.108081 
L 441.835636 449.38579 
L 443.797091 449.547319 
L 447.990545 449.610837 
L 489.789818 449.630241 
L 498.109091 449.632732 
L 498.109091 449.632732 
" clip-path="url(#pe531675fcb)" style="fill: none; stroke: #000000; stroke-width: 1.5; stroke-linecap: square"/>
   </g>
   <g id="line2d_14">
    <path d="M 497.973818 408.87 
" clip-path="url(#pe531675fcb)" style="fill: none; stroke: #000000; stroke-width: 1.5; stroke-linecap: square"/>
   </g>
   <g id="line2d_15">
    <path d="M 430.472727 368.1 
L 430.472727 365.382 
L 430.472727 362.664 
L 430.472727 359.946 
L 430.472727 357.228 
L 430.472727 354.51 
L 430.472727 351.792 
L 430.472727 349.074 
L 430.472727 346.356 
L 430.472727 343.638 
L 430.472727 340.92 
L 430.472727 338.202 
L 430.472727 335.484 
L 430.472727 332.766 
L 430.472727 330.048 
L 430.472727 327.33 
L 430.472727 324.612 
L 430.472727 321.894 
L 430.472727 319.176 
L 430.472727 316.458 
" clip-path="url(#pe531675fcb)" style="fill: none; stroke: #000000; stroke-width: 1.5; stroke-linecap: square"/>
   </g>
   <g id="patch_3">
    <path d="M 72 504 
L 72 69.12 
" style="fill: none; stroke: #000000; stroke-width: 0.8; stroke-linejoin: miter; stroke-linecap: square"/>
   </g>
   <g id="patch_4">
    <path d="M 518.4 504 
L 518.4 69.12 
" style="fill: none; stroke: #000000; stroke-width: 0.8; stroke-linejoin: miter; stroke-linecap: square"/>
   </g>
   <g id="patch_5">
    <path d="M 72 504 
L 518.4 504 
" style="fill: none; stroke: #000000; stroke-width: 0.8; stroke-linejoin: miter; stroke-linecap: square"/>
   </g>
   <g id="patch_6">
    <path d="M 72 69.12 
L 518.4 69.12 
" style="fill: none; stroke: #000000; stroke-width: 0.8; stroke-linejoin: miter; stroke-linecap: square"/>
   </g>
   <g id="text_15">
    <!-- 500 ms -->
    <g transform="translate(497.973818 406.152)scale(0.22 -0.22)">
     <defs>
      <path id="ArialMT-35" d="M 266 1200 
L 856 1250 
Q 922 819 1161 601 
Q 1400 384 1738 384 
Q 2144 384 2425 690 
Q 2706 997 2706 1503 
Q 2706 1984 2436 2262 
Q 2166 2541 1728 2541 
Q 1456 2541 1237 2417 
Q 1019 2294 894 2097 
L 366 2166 
L 809 4519 
L 3088 4519 
L 3088 3981 
L 1259 3981 
L 1013 2750 
Q 1425 3038 1878 3038 
Q 2478 3038 2890 2622 
Q 3303 2206 3303 1553 
Q 3303 931 2941 478 
Q 2500 -78 1738 -78 
Q 1113 -78 717 272 
Q 322 622 266 1200 
z
" transform="scale(0.015625)"/>
      <path id="ArialMT-30" d="M 266 2259 
Q 266 3072 433 3567 
Q 600 4063 929 4331 
Q 1259 4600 1759 4600 
Q 2128 4600 2406 4451 
Q 2684 4303 2865 4023 
Q 3047 3744 3150 3342 
Q 3253 2941 3253 2259 
Q 3253 1453 3087 958 
Q 2922 463 2592 192 
Q 2263 -78 1759 -78 
Q 1097 -78 719 397 
Q 266 969 266 2259 
z
M 844 2259 
Q 844 1131 1108 757 
Q 1372 384 1759 384 
Q 2147 384 2411 759 
Q 2675 1134 2675 2259 
Q 2675 3391 2411 3762 
Q 2147 4134 1753 4134 
Q 1366 4134 1134 3806 
Q 844 3388 844 2259 
z
" transform="scale(0.015625)"/>
     </defs>
     <use xlink:href="#ArialMT-35"/>
     <use xlink:href="#ArialMT-30" x="55.615234"/>
     <use xlink:href="#ArialMT-30" x="111.230469"/>
     <use xlink:href="#ArialMT-20" x="166.845703"/>
     <use xlink:href="#ArialMT-6d" x="194.628906"/>
     <use xlink:href="#ArialMT-73" x="277.929688"/>
    </g>
   </g>
   <g id="text_16">
    <!-- 20 mV -->
    <g transform="translate(504.737455 321.894)scale(0.22 -0.22)">
     <defs>
      <path id="ArialMT-32" d="M 3222 541 
L 3222 0 
L 194 0 
Q 188 203 259 391 
Q 375 700 629 1000 
Q 884 1300 1366 1694 
Q 2113 2306 2375 2664 
Q 2638 3022 2638 3341 
Q 2638 3675 2398 3904 
Q 2159 4134 1775 4134 
Q 1369 4134 1125 3890 
Q 881 3647 878 3216 
L 300 3275 
Q 359 3922 746 4261 
Q 1134 4600 1788 4600 
Q 2447 4600 2831 4234 
Q 3216 3869 3216 3328 
Q 3216 3053 3103 2787 
Q 2991 2522 2730 2228 
Q 2469 1934 1863 1422 
Q 1356 997 1212 845 
Q 1069 694 975 541 
L 3222 541 
z
" transform="scale(0.015625)"/>
     </defs>
     <use xlink:href="#ArialMT-32"/>
     <use xlink:href="#ArialMT-30" x="55.615234"/>
     <use xlink:href="#ArialMT-20" x="111.230469"/>
     <use xlink:href="#ArialMT-6d" x="139.013672"/>
     <use xlink:href="#ArialMT-56" x="222.314453"/>
    </g>
   </g>
   <g id="text_17">
    <!--  Plotting iSPN, trace number 10918  -->
    <g transform="translate(119.725937 63.12)scale(0.22 -0.22)">
     <defs>
      <path id="ArialMT-50" d="M 494 0 
L 494 4581 
L 2222 4581 
Q 2678 4581 2919 4538 
Q 3256 4481 3484 4323 
Q 3713 4166 3852 3881 
Q 3991 3597 3991 3256 
Q 3991 2672 3619 2267 
Q 3247 1863 2275 1863 
L 1100 1863 
L 1100 0 
L 494 0 
z
M 1100 2403 
L 2284 2403 
Q 2872 2403 3119 2622 
Q 3366 2841 3366 3238 
Q 3366 3525 3220 3729 
Q 3075 3934 2838 4000 
Q 2684 4041 2272 4041 
L 1100 4041 
L 1100 2403 
z
" transform="scale(0.015625)"/>
      <path id="ArialMT-67" d="M 319 -275 
L 866 -356 
Q 900 -609 1056 -725 
Q 1266 -881 1628 -881 
Q 2019 -881 2231 -725 
Q 2444 -569 2519 -288 
Q 2563 -116 2559 434 
Q 2191 0 1641 0 
Q 956 0 581 494 
Q 206 988 206 1678 
Q 206 2153 378 2554 
Q 550 2956 876 3175 
Q 1203 3394 1644 3394 
Q 2231 3394 2613 2919 
L 2613 3319 
L 3131 3319 
L 3131 450 
Q 3131 -325 2973 -648 
Q 2816 -972 2473 -1159 
Q 2131 -1347 1631 -1347 
Q 1038 -1347 672 -1080 
Q 306 -813 319 -275 
z
M 784 1719 
Q 784 1066 1043 766 
Q 1303 466 1694 466 
Q 2081 466 2343 764 
Q 2606 1063 2606 1700 
Q 2606 2309 2336 2618 
Q 2066 2928 1684 2928 
Q 1309 2928 1046 2623 
Q 784 2319 784 1719 
z
" transform="scale(0.015625)"/>
      <path id="ArialMT-53" d="M 288 1472 
L 859 1522 
Q 900 1178 1048 958 
Q 1197 738 1509 602 
Q 1822 466 2213 466 
Q 2559 466 2825 569 
Q 3091 672 3220 851 
Q 3350 1031 3350 1244 
Q 3350 1459 3225 1620 
Q 3100 1781 2813 1891 
Q 2628 1963 1997 2114 
Q 1366 2266 1113 2400 
Q 784 2572 623 2826 
Q 463 3081 463 3397 
Q 463 3744 659 4045 
Q 856 4347 1234 4503 
Q 1613 4659 2075 4659 
Q 2584 4659 2973 4495 
Q 3363 4331 3572 4012 
Q 3781 3694 3797 3291 
L 3216 3247 
Q 3169 3681 2898 3903 
Q 2628 4125 2100 4125 
Q 1550 4125 1298 3923 
Q 1047 3722 1047 3438 
Q 1047 3191 1225 3031 
Q 1400 2872 2139 2705 
Q 2878 2538 3153 2413 
Q 3553 2228 3743 1945 
Q 3934 1663 3934 1294 
Q 3934 928 3725 604 
Q 3516 281 3123 101 
Q 2731 -78 2241 -78 
Q 1619 -78 1198 103 
Q 778 284 539 648 
Q 300 1013 288 1472 
z
" transform="scale(0.015625)"/>
      <path id="ArialMT-4e" d="M 488 0 
L 488 4581 
L 1109 4581 
L 3516 984 
L 3516 4581 
L 4097 4581 
L 4097 0 
L 3475 0 
L 1069 3600 
L 1069 0 
L 488 0 
z
" transform="scale(0.015625)"/>
      <path id="ArialMT-2c" d="M 569 0 
L 569 641 
L 1209 641 
L 1209 0 
Q 1209 -353 1084 -570 
Q 959 -788 688 -906 
L 531 -666 
Q 709 -588 793 -436 
Q 878 -284 888 0 
L 569 0 
z
" transform="scale(0.015625)"/>
      <path id="ArialMT-63" d="M 2588 1216 
L 3141 1144 
Q 3050 572 2676 248 
Q 2303 -75 1759 -75 
Q 1078 -75 664 370 
Q 250 816 250 1647 
Q 250 2184 428 2587 
Q 606 2991 970 3192 
Q 1334 3394 1763 3394 
Q 2303 3394 2647 3120 
Q 2991 2847 3088 2344 
L 2541 2259 
Q 2463 2594 2264 2762 
Q 2066 2931 1784 2931 
Q 1359 2931 1093 2626 
Q 828 2322 828 1663 
Q 828 994 1084 691 
Q 1341 388 1753 388 
Q 2084 388 2306 591 
Q 2528 794 2588 1216 
z
" transform="scale(0.015625)"/>
      <path id="ArialMT-75" d="M 2597 0 
L 2597 488 
Q 2209 -75 1544 -75 
Q 1250 -75 995 37 
Q 741 150 617 320 
Q 494 491 444 738 
Q 409 903 409 1263 
L 409 3319 
L 972 3319 
L 972 1478 
Q 972 1038 1006 884 
Q 1059 663 1231 536 
Q 1403 409 1656 409 
Q 1909 409 2131 539 
Q 2353 669 2445 892 
Q 2538 1116 2538 1541 
L 2538 3319 
L 3100 3319 
L 3100 0 
L 2597 0 
z
" transform="scale(0.015625)"/>
      <path id="ArialMT-31" d="M 2384 0 
L 1822 0 
L 1822 3584 
Q 1619 3391 1289 3197 
Q 959 3003 697 2906 
L 697 3450 
Q 1169 3672 1522 3987 
Q 1875 4303 2022 4600 
L 2384 4600 
L 2384 0 
z
" transform="scale(0.015625)"/>
      <path id="ArialMT-39" d="M 350 1059 
L 891 1109 
Q 959 728 1153 556 
Q 1347 384 1650 384 
Q 1909 384 2104 503 
Q 2300 622 2425 820 
Q 2550 1019 2634 1356 
Q 2719 1694 2719 2044 
Q 2719 2081 2716 2156 
Q 2547 1888 2255 1720 
Q 1963 1553 1622 1553 
Q 1053 1553 659 1965 
Q 266 2378 266 3053 
Q 266 3750 677 4175 
Q 1088 4600 1706 4600 
Q 2153 4600 2523 4359 
Q 2894 4119 3086 3673 
Q 3278 3228 3278 2384 
Q 3278 1506 3087 986 
Q 2897 466 2520 194 
Q 2144 -78 1638 -78 
Q 1100 -78 759 220 
Q 419 519 350 1059 
z
M 2653 3081 
Q 2653 3566 2395 3850 
Q 2138 4134 1775 4134 
Q 1400 4134 1122 3828 
Q 844 3522 844 3034 
Q 844 2597 1108 2323 
Q 1372 2050 1759 2050 
Q 2150 2050 2401 2323 
Q 2653 2597 2653 3081 
z
" transform="scale(0.015625)"/>
      <path id="ArialMT-38" d="M 1131 2484 
Q 781 2613 612 2850 
Q 444 3088 444 3419 
Q 444 3919 803 4259 
Q 1163 4600 1759 4600 
Q 2359 4600 2725 4251 
Q 3091 3903 3091 3403 
Q 3091 3084 2923 2848 
Q 2756 2613 2416 2484 
Q 2838 2347 3058 2040 
Q 3278 1734 3278 1309 
Q 3278 722 2862 322 
Q 2447 -78 1769 -78 
Q 1091 -78 675 323 
Q 259 725 259 1325 
Q 259 1772 486 2073 
Q 713 2375 1131 2484 
z
M 1019 3438 
Q 1019 3113 1228 2906 
Q 1438 2700 1772 2700 
Q 2097 2700 2305 2904 
Q 2513 3109 2513 3406 
Q 2513 3716 2298 3927 
Q 2084 4138 1766 4138 
Q 1444 4138 1231 3931 
Q 1019 3725 1019 3438 
z
M 838 1322 
Q 838 1081 952 856 
Q 1066 631 1291 507 
Q 1516 384 1775 384 
Q 2178 384 2440 643 
Q 2703 903 2703 1303 
Q 2703 1709 2433 1975 
Q 2163 2241 1756 2241 
Q 1359 2241 1098 1978 
Q 838 1716 838 1322 
z
" transform="scale(0.015625)"/>
     </defs>
     <use xlink:href="#ArialMT-20"/>
     <use xlink:href="#ArialMT-50" x="27.783203"/>
     <use xlink:href="#ArialMT-6c" x="94.482422"/>
     <use xlink:href="#ArialMT-6f" x="116.699219"/>
     <use xlink:href="#ArialMT-74" x="172.314453"/>
     <use xlink:href="#ArialMT-74" x="200.097656"/>
     <use xlink:href="#ArialMT-69" x="227.880859"/>
     <use xlink:href="#ArialMT-6e" x="250.097656"/>
     <use xlink:href="#ArialMT-67" x="305.712891"/>
     <use xlink:href="#ArialMT-20" x="361.328125"/>
     <use xlink:href="#ArialMT-69" x="389.111328"/>
     <use xlink:href="#ArialMT-53" x="411.328125"/>
     <use xlink:href="#ArialMT-50" x="478.027344"/>
     <use xlink:href="#ArialMT-4e" x="544.726562"/>
     <use xlink:href="#ArialMT-2c" x="616.943359"/>
     <use xlink:href="#ArialMT-20" x="644.726562"/>
     <use xlink:href="#ArialMT-74" x="672.509766"/>
     <use xlink:href="#ArialMT-72" x="700.292969"/>
     <use xlink:href="#ArialMT-61" x="733.59375"/>
     <use xlink:href="#ArialMT-63" x="789.208984"/>
     <use xlink:href="#ArialMT-65" x="839.208984"/>
     <use xlink:href="#ArialMT-20" x="894.824219"/>
     <use xlink:href="#ArialMT-6e" x="922.607422"/>
     <use xlink:href="#ArialMT-75" x="978.222656"/>
     <use xlink:href="#ArialMT-6d" x="1033.837891"/>
     <use xlink:href="#ArialMT-62" x="1117.138672"/>
     <use xlink:href="#ArialMT-65" x="1172.753906"/>
     <use xlink:href="#ArialMT-72" x="1228.369141"/>
     <use xlink:href="#ArialMT-20" x="1261.669922"/>
     <use xlink:href="#ArialMT-31" x="1289.453125"/>
     <use xlink:href="#ArialMT-30" x="1345.068359"/>
     <use xlink:href="#ArialMT-39" x="1400.683594"/>
     <use xlink:href="#ArialMT-31" x="1456.298828"/>
     <use xlink:href="#ArialMT-38" x="1511.914062"/>
     <use xlink:href="#ArialMT-20" x="1567.529297"/>
    </g>
   </g>
  </g>
 </g>
 <defs>
  <clipPath id="pe531675fcb">
   <rect x="72" y="69.12" width="446.4" height="434.88"/>
  </clipPath>
 </defs>
</svg>
