<?xml version="1.0" encoding="utf-8" standalone="no"?>
<!DOCTYPE svg PUBLIC "-//W3C//DTD SVG 1.1//EN"
  "http://www.w3.org/Graphics/SVG/1.1/DTD/svg11.dtd">
<svg xmlns:xlink="http://www.w3.org/1999/xlink" width="576pt" height="576pt" viewBox="0 0 576 576" xmlns="http://www.w3.org/2000/svg" version="1.1">
 <metadata>
  <rdf:RDF xmlns:dc="http://purl.org/dc/elements/1.1/" xmlns:cc="http://creativecommons.org/ns#" xmlns:rdf="http://www.w3.org/1999/02/22-rdf-syntax-ns#">
   <cc:Work>
    <dc:type rdf:resource="http://purl.org/dc/dcmitype/StillImage"/>
    <dc:date>2022-10-30T19:57:03.215206</dc:date>
    <dc:format>image/svg+xml</dc:format>
    <dc:creator>
     <cc:Agent>
      <dc:title>Matplotlib v3.5.2, https://matplotlib.org/</dc:title>
     </cc:Agent>
    </dc:creator>
   </cc:Work>
  </rdf:RDF>
 </metadata>
 <defs>
  <style type="text/css">*{stroke-linejoin: round; stroke-linecap: butt}</style>
 </defs>
 <g id="figure_1">
  <g id="patch_1">
   <path d="M 0 576 
L 576 576 
L 576 0 
L 0 0 
L 0 576 
z
" style="fill: none"/>
  </g>
  <g id="axes_1">
   <g id="patch_2">
    <path d="M 72 504 
L 518.4 504 
L 518.4 69.12 
L 72 69.12 
z
" style="fill: #ffffff"/>
   </g>
   <g id="matplotlib.axis_1">
    <g id="xtick_1">
     <g id="line2d_1">
      <defs>
       <path id="m5aafa8d5ab" d="M 0 0 
L 0 3.5 
" style="stroke: #000000; stroke-width: 0.8"/>
      </defs>
      <g>
       <use xlink:href="#m5aafa8d5ab" x="92.290909" y="504" style="stroke: #000000; stroke-width: 0.8"/>
      </g>
     </g>
     <g id="text_1">
      <!-- 0 -->
      <g transform="translate(85.292159 527.716563)scale(0.22 -0.22)">
       <defs>
        <path id="DejaVuSans-30" d="M 2034 4250 
Q 1547 4250 1301 3770 
Q 1056 3291 1056 2328 
Q 1056 1369 1301 889 
Q 1547 409 2034 409 
Q 2525 409 2770 889 
Q 3016 1369 3016 2328 
Q 3016 3291 2770 3770 
Q 2525 4250 2034 4250 
z
M 2034 4750 
Q 2819 4750 3233 4129 
Q 3647 3509 3647 2328 
Q 3647 1150 3233 529 
Q 2819 -91 2034 -91 
Q 1250 -91 836 529 
Q 422 1150 422 2328 
Q 422 3509 836 4129 
Q 1250 4750 2034 4750 
z
" transform="scale(0.015625)"/>
       </defs>
       <use xlink:href="#DejaVuSans-30"/>
      </g>
     </g>
    </g>
    <g id="xtick_2">
     <g id="line2d_2">
      <g>
       <use xlink:href="#m5aafa8d5ab" x="227.563636" y="504" style="stroke: #000000; stroke-width: 0.8"/>
      </g>
     </g>
     <g id="text_2">
      <!-- 1000 -->
      <g transform="translate(199.568636 527.716563)scale(0.22 -0.22)">
       <defs>
        <path id="DejaVuSans-31" d="M 794 531 
L 1825 531 
L 1825 4091 
L 703 3866 
L 703 4441 
L 1819 4666 
L 2450 4666 
L 2450 531 
L 3481 531 
L 3481 0 
L 794 0 
L 794 531 
z
" transform="scale(0.015625)"/>
       </defs>
       <use xlink:href="#DejaVuSans-31"/>
       <use xlink:href="#DejaVuSans-30" x="63.623047"/>
       <use xlink:href="#DejaVuSans-30" x="127.246094"/>
       <use xlink:href="#DejaVuSans-30" x="190.869141"/>
      </g>
     </g>
    </g>
    <g id="xtick_3">
     <g id="line2d_3">
      <g>
       <use xlink:href="#m5aafa8d5ab" x="362.836364" y="504" style="stroke: #000000; stroke-width: 0.8"/>
      </g>
     </g>
     <g id="text_3">
      <!-- 2000 -->
      <g transform="translate(334.841364 527.716563)scale(0.22 -0.22)">
       <defs>
        <path id="DejaVuSans-32" d="M 1228 531 
L 3431 531 
L 3431 0 
L 469 0 
L 469 531 
Q 828 903 1448 1529 
Q 2069 2156 2228 2338 
Q 2531 2678 2651 2914 
Q 2772 3150 2772 3378 
Q 2772 3750 2511 3984 
Q 2250 4219 1831 4219 
Q 1534 4219 1204 4116 
Q 875 4013 500 3803 
L 500 4441 
Q 881 4594 1212 4672 
Q 1544 4750 1819 4750 
Q 2544 4750 2975 4387 
Q 3406 4025 3406 3419 
Q 3406 3131 3298 2873 
Q 3191 2616 2906 2266 
Q 2828 2175 2409 1742 
Q 1991 1309 1228 531 
z
" transform="scale(0.015625)"/>
       </defs>
       <use xlink:href="#DejaVuSans-32"/>
       <use xlink:href="#DejaVuSans-30" x="63.623047"/>
       <use xlink:href="#DejaVuSans-30" x="127.246094"/>
       <use xlink:href="#DejaVuSans-30" x="190.869141"/>
      </g>
     </g>
    </g>
    <g id="xtick_4">
     <g id="line2d_4">
      <g>
       <use xlink:href="#m5aafa8d5ab" x="498.109091" y="504" style="stroke: #000000; stroke-width: 0.8"/>
      </g>
     </g>
     <g id="text_4">
      <!-- 3000 -->
      <g transform="translate(470.114091 527.716563)scale(0.22 -0.22)">
       <defs>
        <path id="DejaVuSans-33" d="M 2597 2516 
Q 3050 2419 3304 2112 
Q 3559 1806 3559 1356 
Q 3559 666 3084 287 
Q 2609 -91 1734 -91 
Q 1441 -91 1130 -33 
Q 819 25 488 141 
L 488 750 
Q 750 597 1062 519 
Q 1375 441 1716 441 
Q 2309 441 2620 675 
Q 2931 909 2931 1356 
Q 2931 1769 2642 2001 
Q 2353 2234 1838 2234 
L 1294 2234 
L 1294 2753 
L 1863 2753 
Q 2328 2753 2575 2939 
Q 2822 3125 2822 3475 
Q 2822 3834 2567 4026 
Q 2313 4219 1838 4219 
Q 1578 4219 1281 4162 
Q 984 4106 628 3988 
L 628 4550 
Q 988 4650 1302 4700 
Q 1616 4750 1894 4750 
Q 2613 4750 3031 4423 
Q 3450 4097 3450 3541 
Q 3450 3153 3228 2886 
Q 3006 2619 2597 2516 
z
" transform="scale(0.015625)"/>
       </defs>
       <use xlink:href="#DejaVuSans-33"/>
       <use xlink:href="#DejaVuSans-30" x="63.623047"/>
       <use xlink:href="#DejaVuSans-30" x="127.246094"/>
       <use xlink:href="#DejaVuSans-30" x="190.869141"/>
      </g>
     </g>
    </g>
    <g id="text_5">
     <!-- Time(ms) -->
     <g transform="translate(249.182187 552.307188)scale(0.22 -0.22)">
      <defs>
       <path id="ArialMT-54" d="M 1659 0 
L 1659 4041 
L 150 4041 
L 150 4581 
L 3781 4581 
L 3781 4041 
L 2266 4041 
L 2266 0 
L 1659 0 
z
" transform="scale(0.015625)"/>
       <path id="ArialMT-69" d="M 425 3934 
L 425 4581 
L 988 4581 
L 988 3934 
L 425 3934 
z
M 425 0 
L 425 3319 
L 988 3319 
L 988 0 
L 425 0 
z
" transform="scale(0.015625)"/>
       <path id="ArialMT-6d" d="M 422 0 
L 422 3319 
L 925 3319 
L 925 2853 
Q 1081 3097 1340 3245 
Q 1600 3394 1931 3394 
Q 2300 3394 2536 3241 
Q 2772 3088 2869 2813 
Q 3263 3394 3894 3394 
Q 4388 3394 4653 3120 
Q 4919 2847 4919 2278 
L 4919 0 
L 4359 0 
L 4359 2091 
Q 4359 2428 4304 2576 
Q 4250 2725 4106 2815 
Q 3963 2906 3769 2906 
Q 3419 2906 3187 2673 
Q 2956 2441 2956 1928 
L 2956 0 
L 2394 0 
L 2394 2156 
Q 2394 2531 2256 2718 
Q 2119 2906 1806 2906 
Q 1569 2906 1367 2781 
Q 1166 2656 1075 2415 
Q 984 2175 984 1722 
L 984 0 
L 422 0 
z
" transform="scale(0.015625)"/>
       <path id="ArialMT-65" d="M 2694 1069 
L 3275 997 
Q 3138 488 2766 206 
Q 2394 -75 1816 -75 
Q 1088 -75 661 373 
Q 234 822 234 1631 
Q 234 2469 665 2931 
Q 1097 3394 1784 3394 
Q 2450 3394 2872 2941 
Q 3294 2488 3294 1666 
Q 3294 1616 3291 1516 
L 816 1516 
Q 847 969 1125 678 
Q 1403 388 1819 388 
Q 2128 388 2347 550 
Q 2566 713 2694 1069 
z
M 847 1978 
L 2700 1978 
Q 2663 2397 2488 2606 
Q 2219 2931 1791 2931 
Q 1403 2931 1139 2672 
Q 875 2413 847 1978 
z
" transform="scale(0.015625)"/>
       <path id="ArialMT-28" d="M 1497 -1347 
Q 1031 -759 709 28 
Q 388 816 388 1659 
Q 388 2403 628 3084 
Q 909 3875 1497 4659 
L 1900 4659 
Q 1522 4009 1400 3731 
Q 1209 3300 1100 2831 
Q 966 2247 966 1656 
Q 966 153 1900 -1347 
L 1497 -1347 
z
" transform="scale(0.015625)"/>
       <path id="ArialMT-73" d="M 197 991 
L 753 1078 
Q 800 744 1014 566 
Q 1228 388 1613 388 
Q 2000 388 2187 545 
Q 2375 703 2375 916 
Q 2375 1106 2209 1216 
Q 2094 1291 1634 1406 
Q 1016 1563 777 1677 
Q 538 1791 414 1992 
Q 291 2194 291 2438 
Q 291 2659 392 2848 
Q 494 3038 669 3163 
Q 800 3259 1026 3326 
Q 1253 3394 1513 3394 
Q 1903 3394 2198 3281 
Q 2494 3169 2634 2976 
Q 2775 2784 2828 2463 
L 2278 2388 
Q 2241 2644 2061 2787 
Q 1881 2931 1553 2931 
Q 1166 2931 1000 2803 
Q 834 2675 834 2503 
Q 834 2394 903 2306 
Q 972 2216 1119 2156 
Q 1203 2125 1616 2013 
Q 2213 1853 2448 1751 
Q 2684 1650 2818 1456 
Q 2953 1263 2953 975 
Q 2953 694 2789 445 
Q 2625 197 2315 61 
Q 2006 -75 1616 -75 
Q 969 -75 630 194 
Q 291 463 197 991 
z
" transform="scale(0.015625)"/>
       <path id="ArialMT-29" d="M 791 -1347 
L 388 -1347 
Q 1322 153 1322 1656 
Q 1322 2244 1188 2822 
Q 1081 3291 891 3722 
Q 769 4003 388 4659 
L 791 4659 
Q 1378 3875 1659 3084 
Q 1900 2403 1900 1659 
Q 1900 816 1576 28 
Q 1253 -759 791 -1347 
z
" transform="scale(0.015625)"/>
      </defs>
      <use xlink:href="#ArialMT-54"/>
      <use xlink:href="#ArialMT-69" x="57.333984"/>
      <use xlink:href="#ArialMT-6d" x="79.550781"/>
      <use xlink:href="#ArialMT-65" x="162.851562"/>
      <use xlink:href="#ArialMT-28" x="218.466797"/>
      <use xlink:href="#ArialMT-6d" x="251.767578"/>
      <use xlink:href="#ArialMT-73" x="335.068359"/>
      <use xlink:href="#ArialMT-29" x="385.068359"/>
     </g>
    </g>
   </g>
   <g id="matplotlib.axis_2">
    <g id="ytick_1">
     <g id="line2d_5">
      <defs>
       <path id="m32ba1331db" d="M 0 0 
L -3.5 0 
" style="stroke: #000000; stroke-width: 0.8"/>
      </defs>
      <g>
       <use xlink:href="#m32ba1331db" x="72" y="476.82" style="stroke: #000000; stroke-width: 0.8"/>
      </g>
     </g>
     <g id="text_6">
      <!-- −100 -->
      <g transform="translate(4.572187 485.178281)scale(0.22 -0.22)">
       <defs>
        <path id="DejaVuSans-2212" d="M 678 2272 
L 4684 2272 
L 4684 1741 
L 678 1741 
L 678 2272 
z
" transform="scale(0.015625)"/>
       </defs>
       <use xlink:href="#DejaVuSans-2212"/>
       <use xlink:href="#DejaVuSans-31" x="83.789062"/>
       <use xlink:href="#DejaVuSans-30" x="147.412109"/>
       <use xlink:href="#DejaVuSans-30" x="211.035156"/>
      </g>
     </g>
    </g>
    <g id="ytick_2">
     <g id="line2d_6">
      <g>
       <use xlink:href="#m32ba1331db" x="72" y="422.46" style="stroke: #000000; stroke-width: 0.8"/>
      </g>
     </g>
     <g id="text_7">
      <!-- −80 -->
      <g transform="translate(18.569688 430.818281)scale(0.22 -0.22)">
       <defs>
        <path id="DejaVuSans-38" d="M 2034 2216 
Q 1584 2216 1326 1975 
Q 1069 1734 1069 1313 
Q 1069 891 1326 650 
Q 1584 409 2034 409 
Q 2484 409 2743 651 
Q 3003 894 3003 1313 
Q 3003 1734 2745 1975 
Q 2488 2216 2034 2216 
z
M 1403 2484 
Q 997 2584 770 2862 
Q 544 3141 544 3541 
Q 544 4100 942 4425 
Q 1341 4750 2034 4750 
Q 2731 4750 3128 4425 
Q 3525 4100 3525 3541 
Q 3525 3141 3298 2862 
Q 3072 2584 2669 2484 
Q 3125 2378 3379 2068 
Q 3634 1759 3634 1313 
Q 3634 634 3220 271 
Q 2806 -91 2034 -91 
Q 1263 -91 848 271 
Q 434 634 434 1313 
Q 434 1759 690 2068 
Q 947 2378 1403 2484 
z
M 1172 3481 
Q 1172 3119 1398 2916 
Q 1625 2713 2034 2713 
Q 2441 2713 2670 2916 
Q 2900 3119 2900 3481 
Q 2900 3844 2670 4047 
Q 2441 4250 2034 4250 
Q 1625 4250 1398 4047 
Q 1172 3844 1172 3481 
z
" transform="scale(0.015625)"/>
       </defs>
       <use xlink:href="#DejaVuSans-2212"/>
       <use xlink:href="#DejaVuSans-38" x="83.789062"/>
       <use xlink:href="#DejaVuSans-30" x="147.412109"/>
      </g>
     </g>
    </g>
    <g id="ytick_3">
     <g id="line2d_7">
      <g>
       <use xlink:href="#m32ba1331db" x="72" y="368.1" style="stroke: #000000; stroke-width: 0.8"/>
      </g>
     </g>
     <g id="text_8">
      <!-- −60 -->
      <g transform="translate(18.569688 376.458281)scale(0.22 -0.22)">
       <defs>
        <path id="DejaVuSans-36" d="M 2113 2584 
Q 1688 2584 1439 2293 
Q 1191 2003 1191 1497 
Q 1191 994 1439 701 
Q 1688 409 2113 409 
Q 2538 409 2786 701 
Q 3034 994 3034 1497 
Q 3034 2003 2786 2293 
Q 2538 2584 2113 2584 
z
M 3366 4563 
L 3366 3988 
Q 3128 4100 2886 4159 
Q 2644 4219 2406 4219 
Q 1781 4219 1451 3797 
Q 1122 3375 1075 2522 
Q 1259 2794 1537 2939 
Q 1816 3084 2150 3084 
Q 2853 3084 3261 2657 
Q 3669 2231 3669 1497 
Q 3669 778 3244 343 
Q 2819 -91 2113 -91 
Q 1303 -91 875 529 
Q 447 1150 447 2328 
Q 447 3434 972 4092 
Q 1497 4750 2381 4750 
Q 2619 4750 2861 4703 
Q 3103 4656 3366 4563 
z
" transform="scale(0.015625)"/>
       </defs>
       <use xlink:href="#DejaVuSans-2212"/>
       <use xlink:href="#DejaVuSans-36" x="83.789062"/>
       <use xlink:href="#DejaVuSans-30" x="147.412109"/>
      </g>
     </g>
    </g>
    <g id="ytick_4">
     <g id="line2d_8">
      <g>
       <use xlink:href="#m32ba1331db" x="72" y="313.74" style="stroke: #000000; stroke-width: 0.8"/>
      </g>
     </g>
     <g id="text_9">
      <!-- −40 -->
      <g transform="translate(18.569688 322.098281)scale(0.22 -0.22)">
       <defs>
        <path id="DejaVuSans-34" d="M 2419 4116 
L 825 1625 
L 2419 1625 
L 2419 4116 
z
M 2253 4666 
L 3047 4666 
L 3047 1625 
L 3713 1625 
L 3713 1100 
L 3047 1100 
L 3047 0 
L 2419 0 
L 2419 1100 
L 313 1100 
L 313 1709 
L 2253 4666 
z
" transform="scale(0.015625)"/>
       </defs>
       <use xlink:href="#DejaVuSans-2212"/>
       <use xlink:href="#DejaVuSans-34" x="83.789062"/>
       <use xlink:href="#DejaVuSans-30" x="147.412109"/>
      </g>
     </g>
    </g>
    <g id="ytick_5">
     <g id="line2d_9">
      <g>
       <use xlink:href="#m32ba1331db" x="72" y="259.38" style="stroke: #000000; stroke-width: 0.8"/>
      </g>
     </g>
     <g id="text_10">
      <!-- −20 -->
      <g transform="translate(18.569688 267.738281)scale(0.22 -0.22)">
       <use xlink:href="#DejaVuSans-2212"/>
       <use xlink:href="#DejaVuSans-32" x="83.789062"/>
       <use xlink:href="#DejaVuSans-30" x="147.412109"/>
      </g>
     </g>
    </g>
    <g id="ytick_6">
     <g id="line2d_10">
      <g>
       <use xlink:href="#m32ba1331db" x="72" y="205.02" style="stroke: #000000; stroke-width: 0.8"/>
      </g>
     </g>
     <g id="text_11">
      <!-- 0 -->
      <g transform="translate(51.0025 213.378281)scale(0.22 -0.22)">
       <use xlink:href="#DejaVuSans-30"/>
      </g>
     </g>
    </g>
    <g id="ytick_7">
     <g id="line2d_11">
      <g>
       <use xlink:href="#m32ba1331db" x="72" y="150.66" style="stroke: #000000; stroke-width: 0.8"/>
      </g>
     </g>
     <g id="text_12">
      <!-- 20 -->
      <g transform="translate(37.005 159.018281)scale(0.22 -0.22)">
       <use xlink:href="#DejaVuSans-32"/>
       <use xlink:href="#DejaVuSans-30" x="63.623047"/>
      </g>
     </g>
    </g>
    <g id="ytick_8">
     <g id="line2d_12">
      <g>
       <use xlink:href="#m32ba1331db" x="72" y="96.3" style="stroke: #000000; stroke-width: 0.8"/>
      </g>
     </g>
     <g id="text_13">
      <!-- 40 -->
      <g transform="translate(37.005 104.658281)scale(0.22 -0.22)">
       <use xlink:href="#DejaVuSans-34"/>
       <use xlink:href="#DejaVuSans-30" x="63.623047"/>
      </g>
     </g>
    </g>
    <g id="text_14">
     <!-- Membrane potential (mV) -->
     <g transform="translate(-4.058125 410.655469)rotate(-90)scale(0.22 -0.22)">
      <defs>
       <path id="ArialMT-4d" d="M 475 0 
L 475 4581 
L 1388 4581 
L 2472 1338 
Q 2622 884 2691 659 
Q 2769 909 2934 1394 
L 4031 4581 
L 4847 4581 
L 4847 0 
L 4263 0 
L 4263 3834 
L 2931 0 
L 2384 0 
L 1059 3900 
L 1059 0 
L 475 0 
z
" transform="scale(0.015625)"/>
       <path id="ArialMT-62" d="M 941 0 
L 419 0 
L 419 4581 
L 981 4581 
L 981 2947 
Q 1338 3394 1891 3394 
Q 2197 3394 2470 3270 
Q 2744 3147 2920 2923 
Q 3097 2700 3197 2384 
Q 3297 2069 3297 1709 
Q 3297 856 2875 390 
Q 2453 -75 1863 -75 
Q 1275 -75 941 416 
L 941 0 
z
M 934 1684 
Q 934 1088 1097 822 
Q 1363 388 1816 388 
Q 2184 388 2453 708 
Q 2722 1028 2722 1663 
Q 2722 2313 2464 2622 
Q 2206 2931 1841 2931 
Q 1472 2931 1203 2611 
Q 934 2291 934 1684 
z
" transform="scale(0.015625)"/>
       <path id="ArialMT-72" d="M 416 0 
L 416 3319 
L 922 3319 
L 922 2816 
Q 1116 3169 1280 3281 
Q 1444 3394 1641 3394 
Q 1925 3394 2219 3213 
L 2025 2691 
Q 1819 2813 1613 2813 
Q 1428 2813 1281 2702 
Q 1134 2591 1072 2394 
Q 978 2094 978 1738 
L 978 0 
L 416 0 
z
" transform="scale(0.015625)"/>
       <path id="ArialMT-61" d="M 2588 409 
Q 2275 144 1986 34 
Q 1697 -75 1366 -75 
Q 819 -75 525 192 
Q 231 459 231 875 
Q 231 1119 342 1320 
Q 453 1522 633 1644 
Q 813 1766 1038 1828 
Q 1203 1872 1538 1913 
Q 2219 1994 2541 2106 
Q 2544 2222 2544 2253 
Q 2544 2597 2384 2738 
Q 2169 2928 1744 2928 
Q 1347 2928 1158 2789 
Q 969 2650 878 2297 
L 328 2372 
Q 403 2725 575 2942 
Q 747 3159 1072 3276 
Q 1397 3394 1825 3394 
Q 2250 3394 2515 3294 
Q 2781 3194 2906 3042 
Q 3031 2891 3081 2659 
Q 3109 2516 3109 2141 
L 3109 1391 
Q 3109 606 3145 398 
Q 3181 191 3288 0 
L 2700 0 
Q 2613 175 2588 409 
z
M 2541 1666 
Q 2234 1541 1622 1453 
Q 1275 1403 1131 1340 
Q 988 1278 909 1158 
Q 831 1038 831 891 
Q 831 666 1001 516 
Q 1172 366 1500 366 
Q 1825 366 2078 508 
Q 2331 650 2450 897 
Q 2541 1088 2541 1459 
L 2541 1666 
z
" transform="scale(0.015625)"/>
       <path id="ArialMT-6e" d="M 422 0 
L 422 3319 
L 928 3319 
L 928 2847 
Q 1294 3394 1984 3394 
Q 2284 3394 2536 3286 
Q 2788 3178 2913 3003 
Q 3038 2828 3088 2588 
Q 3119 2431 3119 2041 
L 3119 0 
L 2556 0 
L 2556 2019 
Q 2556 2363 2490 2533 
Q 2425 2703 2258 2804 
Q 2091 2906 1866 2906 
Q 1506 2906 1245 2678 
Q 984 2450 984 1813 
L 984 0 
L 422 0 
z
" transform="scale(0.015625)"/>
       <path id="ArialMT-20" transform="scale(0.015625)"/>
       <path id="ArialMT-70" d="M 422 -1272 
L 422 3319 
L 934 3319 
L 934 2888 
Q 1116 3141 1344 3267 
Q 1572 3394 1897 3394 
Q 2322 3394 2647 3175 
Q 2972 2956 3137 2557 
Q 3303 2159 3303 1684 
Q 3303 1175 3120 767 
Q 2938 359 2589 142 
Q 2241 -75 1856 -75 
Q 1575 -75 1351 44 
Q 1128 163 984 344 
L 984 -1272 
L 422 -1272 
z
M 931 1641 
Q 931 1000 1190 694 
Q 1450 388 1819 388 
Q 2194 388 2461 705 
Q 2728 1022 2728 1688 
Q 2728 2322 2467 2637 
Q 2206 2953 1844 2953 
Q 1484 2953 1207 2617 
Q 931 2281 931 1641 
z
" transform="scale(0.015625)"/>
       <path id="ArialMT-6f" d="M 213 1659 
Q 213 2581 725 3025 
Q 1153 3394 1769 3394 
Q 2453 3394 2887 2945 
Q 3322 2497 3322 1706 
Q 3322 1066 3130 698 
Q 2938 331 2570 128 
Q 2203 -75 1769 -75 
Q 1072 -75 642 372 
Q 213 819 213 1659 
z
M 791 1659 
Q 791 1022 1069 705 
Q 1347 388 1769 388 
Q 2188 388 2466 706 
Q 2744 1025 2744 1678 
Q 2744 2294 2464 2611 
Q 2184 2928 1769 2928 
Q 1347 2928 1069 2612 
Q 791 2297 791 1659 
z
" transform="scale(0.015625)"/>
       <path id="ArialMT-74" d="M 1650 503 
L 1731 6 
Q 1494 -44 1306 -44 
Q 1000 -44 831 53 
Q 663 150 594 308 
Q 525 466 525 972 
L 525 2881 
L 113 2881 
L 113 3319 
L 525 3319 
L 525 4141 
L 1084 4478 
L 1084 3319 
L 1650 3319 
L 1650 2881 
L 1084 2881 
L 1084 941 
Q 1084 700 1114 631 
Q 1144 563 1211 522 
Q 1278 481 1403 481 
Q 1497 481 1650 503 
z
" transform="scale(0.015625)"/>
       <path id="ArialMT-6c" d="M 409 0 
L 409 4581 
L 972 4581 
L 972 0 
L 409 0 
z
" transform="scale(0.015625)"/>
       <path id="ArialMT-56" d="M 1803 0 
L 28 4581 
L 684 4581 
L 1875 1253 
Q 2019 853 2116 503 
Q 2222 878 2363 1253 
L 3600 4581 
L 4219 4581 
L 2425 0 
L 1803 0 
z
" transform="scale(0.015625)"/>
      </defs>
      <use xlink:href="#ArialMT-4d"/>
      <use xlink:href="#ArialMT-65" x="83.300781"/>
      <use xlink:href="#ArialMT-6d" x="138.916016"/>
      <use xlink:href="#ArialMT-62" x="222.216797"/>
      <use xlink:href="#ArialMT-72" x="277.832031"/>
      <use xlink:href="#ArialMT-61" x="311.132812"/>
      <use xlink:href="#ArialMT-6e" x="366.748047"/>
      <use xlink:href="#ArialMT-65" x="422.363281"/>
      <use xlink:href="#ArialMT-20" x="477.978516"/>
      <use xlink:href="#ArialMT-70" x="505.761719"/>
      <use xlink:href="#ArialMT-6f" x="561.376953"/>
      <use xlink:href="#ArialMT-74" x="616.992188"/>
      <use xlink:href="#ArialMT-65" x="644.775391"/>
      <use xlink:href="#ArialMT-6e" x="700.390625"/>
      <use xlink:href="#ArialMT-74" x="756.005859"/>
      <use xlink:href="#ArialMT-69" x="783.789062"/>
      <use xlink:href="#ArialMT-61" x="806.005859"/>
      <use xlink:href="#ArialMT-6c" x="861.621094"/>
      <use xlink:href="#ArialMT-20" x="883.837891"/>
      <use xlink:href="#ArialMT-28" x="911.621094"/>
      <use xlink:href="#ArialMT-6d" x="944.921875"/>
      <use xlink:href="#ArialMT-56" x="1028.222656"/>
      <use xlink:href="#ArialMT-29" x="1094.921875"/>
     </g>
    </g>
   </g>
   <g id="line2d_13">
    <path d="M 92.290909 441.486 
L 92.561455 450.032774 
L 92.967273 456.317769 
L 93.440727 460.273405 
L 93.846545 462.070633 
L 94.252364 463.049213 
L 94.725818 463.632063 
L 95.266909 463.93485 
L 96.078545 464.097063 
L 97.904727 464.157089 
L 117.451636 464.162228 
L 159.927273 464.162474 
L 160.130182 433.658487 
L 160.468364 416.62714 
L 160.941818 403.292237 
L 161.550545 392.566482 
L 162.362182 382.511826 
L 163.714909 369.061497 
L 164.932364 356.202457 
L 166.217455 338.820998 
L 166.488 330.528176 
L 166.623273 320.89258 
L 166.690909 310.192135 
L 166.758545 275.791454 
L 166.826182 151.078349 
L 167.029091 333.426747 
L 167.299636 376.358231 
L 167.502545 380.467735 
L 167.570182 380.338082 
L 167.773091 378.330487 
L 169.058182 362.022254 
L 169.869818 355.343727 
L 170.681455 350.673712 
L 171.493091 346.792526 
L 171.966545 343.25307 
L 172.372364 338.38782 
L 172.642909 332.031856 
L 172.845818 319.709798 
L 172.913455 308.67637 
L 172.981091 271.433682 
L 173.048727 151.121236 
L 173.251636 324.373653 
L 173.522182 372.346689 
L 173.725091 379.839696 
L 173.792727 380.249727 
L 173.860364 380.14789 
L 174.063273 378.191728 
L 175.280727 362.793877 
L 176.024727 357.444524 
L 177.580364 347.141998 
L 178.053818 342.106094 
L 178.392 335.849927 
L 178.594909 328.288047 
L 178.730182 316.14029 
L 178.797818 299.207537 
L 178.933091 184.146799 
L 179.136 335.899136 
L 179.406545 376.36965 
L 179.609455 381.019112 
L 179.677091 380.961299 
L 179.88 379.026859 
L 181.165091 362.928953 
L 181.976727 356.526088 
L 183.329455 347.010997 
L 184.141091 338.865114 
L 184.411636 333.620017 
L 184.614545 325.135565 
L 184.749818 308.721754 
L 184.817455 274.47613 
L 184.885091 153.323812 
L 185.088 324.085901 
L 185.358545 372.693318 
L 185.561455 379.627516 
L 185.629091 379.788354 
L 185.764364 378.851434 
L 186.981818 365.820141 
L 188.131636 357.619367 
L 189.010909 352.613315 
L 189.619636 349.798823 
L 190.025455 347.992762 
L 190.363636 345.349852 
L 190.701818 341.215003 
L 190.972364 335.665955 
L 191.175273 327.295302 
L 191.310545 312.319908 
L 191.378182 284.889769 
L 191.445818 146.761339 
L 191.513455 222.924309 
L 191.716364 342.100459 
L 191.986909 377.468008 
L 192.189818 381.221053 
L 192.257455 381.076922 
L 192.460364 379.017867 
L 193.542545 365.754387 
L 193.813091 363.722253 
L 193.948364 363.851213 
L 194.151273 363.994937 
L 194.286545 363.802833 
L 194.557091 362.833811 
L 195.165818 359.429443 
L 196.248 353.010473 
L 196.450909 352.911481 
L 196.653818 352.794243 
L 196.856727 352.294796 
L 197.127273 350.954062 
L 197.533091 347.568823 
L 197.938909 341.899159 
L 198.209455 335.166718 
L 198.412364 326.063602 
L 198.547636 310.640525 
L 198.615273 281.725066 
L 198.682909 151.669251 
L 198.750545 231.80336 
L 198.953455 341.842125 
L 199.224 375.306056 
L 199.426909 379.127787 
L 199.494545 379.072421 
L 199.697455 377.388243 
L 201.185455 360.883334 
L 202.470545 352.448073 
L 203.349818 348.611164 
L 203.417455 348.629011 
L 203.620364 349.032662 
L 204.093818 350.672463 
L 204.229091 350.571031 
L 204.432 349.911148 
L 204.702545 348.150756 
L 205.040727 344.583892 
L 205.378909 338.903736 
L 205.649455 334.105486 
L 205.784727 333.673268 
L 205.92 333.978304 
L 206.258182 334.890076 
L 206.393455 334.627549 
L 206.596364 333.105608 
L 206.799273 329.071504 
L 206.934545 323.018383 
L 207.069818 306.356108 
L 207.137455 271.476531 
L 207.205091 161.052288 
L 207.408 313.010324 
L 207.746182 365.91632 
L 207.949091 374.602042 
L 208.152 375.987179 
L 208.287273 375.259071 
L 208.760727 370.049146 
L 209.437091 363.35502 
L 210.519273 355.19837 
L 210.992727 352.568966 
L 211.533818 350.54991 
L 212.074909 347.309478 
L 212.616 342.836484 
L 212.954182 338.44489 
L 213.224727 332.151121 
L 213.427636 320.794484 
L 213.495273 311.40152 
L 213.562909 285.446521 
L 213.630545 154.832453 
L 213.698182 221.333506 
L 213.901091 337.535054 
L 214.171636 374.19064 
L 214.374545 379.042055 
L 214.442182 379.135825 
L 214.577455 378.319282 
L 215.118545 371.581563 
L 215.862545 364.41788 
L 217.824 348.806788 
L 218.026909 348.522143 
L 218.365091 348.593357 
L 218.568 348.208517 
L 218.838545 347.035278 
L 219.176727 344.277005 
L 219.514909 339.273711 
L 219.785455 331.45606 
L 219.920727 323.012165 
L 220.056 293.590568 
L 220.123636 162.168595 
L 220.191273 200.944187 
L 220.394182 337.928063 
L 220.664727 375.944164 
L 220.867636 380.474985 
L 220.935273 380.492674 
L 221.070545 379.564902 
L 221.544 373.197842 
L 222.288 364.08336 
L 222.964364 358.31858 
L 224.114182 351.294268 
L 224.925818 348.289182 
L 225.128727 347.832965 
L 225.399273 346.52438 
L 225.737455 343.66942 
L 226.143273 338.023683 
L 226.413818 331.382902 
L 226.616727 318.248191 
L 226.684364 305.852586 
L 226.819636 158.725528 
L 227.022545 325.92966 
L 227.293091 371.58509 
L 227.496 378.675428 
L 227.563636 379.056137 
L 227.631273 378.955546 
L 227.834182 377.090742 
L 229.051636 362.554052 
L 230.201455 353.245802 
L 231.418909 343.436895 
L 231.892364 337.530996 
L 232.162909 331.725101 
L 232.365818 321.380425 
L 232.501091 295.290558 
L 232.568727 193.252428 
L 232.636364 195.858539 
L 232.839273 331.383012 
L 233.109818 371.241056 
L 233.312727 377.336333 
L 233.380364 377.654538 
L 233.448 377.543946 
L 233.650909 375.786069 
L 235.138909 358.769805 
L 235.950545 352.514104 
L 236.626909 347.64062 
L 237.100364 342.713778 
L 237.506182 335.944227 
L 237.709091 328.953848 
L 237.844364 318.390167 
L 237.912 305.463863 
L 238.047273 160.737086 
L 238.250182 329.180168 
L 238.520727 373.096675 
L 238.723636 379.361404 
L 238.791273 379.623285 
L 238.926545 378.94665 
L 239.264727 374.57656 
L 240.076364 364.426929 
L 240.820364 358.097943 
L 242.173091 347.131624 
L 242.984727 337.795976 
L 243.255273 331.83979 
L 243.458182 320.96558 
L 243.593455 289.851124 
L 243.661091 166.429131 
L 243.728727 212.308381 
L 243.931636 335.742123 
L 244.202182 372.891861 
L 244.405091 378.044288 
L 244.472727 378.200331 
L 244.608 377.453715 
L 245.013818 372.475305 
L 245.825455 362.971366 
L 246.84 354.237207 
L 247.786909 345.546822 
L 249.139636 328.230657 
L 249.274909 322.387668 
L 249.410182 306.638213 
L 249.477818 276.51022 
L 249.545455 168.320602 
L 249.748364 313.563972 
L 250.086545 364.271252 
L 250.289455 372.536238 
L 250.492364 374.010243 
L 250.627636 373.411833 
L 250.965818 369.972902 
L 252.115636 357.445077 
L 252.859636 351.551958 
L 254.077091 343.896353 
L 254.415273 342.509667 
L 254.753455 340.184078 
L 255.024 336.884417 
L 255.226909 332.375606 
L 255.429818 321.81221 
L 255.565091 291.879162 
L 255.632727 166.214105 
L 255.700364 203.48984 
L 255.903273 332.709062 
L 256.173818 371.958182 
L 256.376727 378.273014 
L 256.444364 378.655055 
L 256.512 378.586192 
L 256.714909 376.847479 
L 258.202909 359.410231 
L 258.879273 354.764152 
L 260.232 345.003731 
L 260.637818 340.504423 
L 260.976 335.168675 
L 261.178909 328.904775 
L 261.314182 319.681217 
L 261.381818 309.345262 
L 261.449455 277.626786 
L 261.517091 153.206785 
L 261.72 321.217765 
L 261.990545 368.91499 
L 262.193455 377.365062 
L 262.328727 378.209757 
L 262.464 377.521673 
L 262.802182 373.412158 
L 263.681455 362.495653 
L 264.222545 358.235497 
L 265.237091 351.885556 
L 265.913455 346.832796 
L 266.319273 341.700277 
L 266.589818 336.076061 
L 266.792727 328.224521 
L 266.928 316.271999 
L 266.995636 300.093314 
L 267.130909 181.07244 
L 267.333818 334.461334 
L 267.604364 374.428141 
L 267.807273 379.38569 
L 267.874909 379.462065 
L 268.010182 378.580706 
L 268.483636 372.141631 
L 269.16 364.043677 
L 269.971636 357.914206 
L 271.121455 348.898278 
L 271.594909 342.913023 
L 271.933091 335.194296 
L 272.136 324.995631 
L 272.271273 303.169627 
L 272.406545 170.838431 
L 272.609455 336.00044 
L 272.88 376.735119 
L 273.082909 380.810623 
L 273.150545 380.65313 
L 273.353455 378.607557 
L 274.570909 363.294177 
L 275.585455 354.579276 
L 276.735273 345.361697 
L 277.141091 339.405619 
L 277.411636 331.54717 
L 277.546909 323.249999 
L 277.682182 295.462781 
L 277.749818 170.874136 
L 277.817455 197.773156 
L 278.020364 339.247475 
L 278.290909 376.448048 
L 278.493818 380.280237 
L 278.561455 380.137351 
L 278.764364 378.093401 
L 279.914182 363.301008 
L 280.861091 355.649251 
L 281.469818 351.666791 
L 281.943273 349.468753 
L 282.349091 346.307958 
L 282.754909 341.28092 
L 283.025455 335.546753 
L 283.228364 327.248292 
L 283.363636 312.821859 
L 283.431273 287.915218 
L 283.498909 151.544628 
L 283.566545 217.245238 
L 283.769455 340.636406 
L 284.04 376.108575 
L 284.242909 379.946472 
L 284.310545 379.825661 
L 284.513455 377.849102 
L 285.730909 362.431815 
L 286.880727 353.385585 
L 287.489455 347.677421 
L 287.962909 341.168697 
L 288.233455 334.951349 
L 288.436364 325.849044 
L 288.571636 308.280335 
L 288.639273 266.59449 
L 288.706909 152.370517 
L 288.909818 328.587911 
L 289.180364 373.325721 
L 289.383273 379.423531 
L 289.450909 379.679123 
L 289.518545 379.501695 
L 289.721455 377.515348 
L 290.938909 362.572934 
L 291.818182 355.222638 
L 292.968 348.424729 
L 293.576727 342.258319 
L 293.914909 336.112872 
L 294.117818 328.970101 
L 294.253091 318.271556 
L 294.320727 305.142236 
L 294.456 161.916072 
L 294.658909 330.346287 
L 294.929455 373.972662 
L 295.132364 379.468991 
L 295.2 379.553879 
L 295.335273 378.644559 
L 295.808727 372.106908 
L 296.552727 363.019883 
L 297.229091 357.073937 
L 298.717091 346.392307 
L 299.122909 341.40018 
L 299.393455 335.252525 
L 299.596364 325.121653 
L 299.731636 301.724508 
L 299.866909 175.804244 
L 300.069818 336.462548 
L 300.340364 376.568389 
L 300.543273 380.975742 
L 300.610909 380.903946 
L 300.813818 378.966962 
L 302.098909 363.007463 
L 302.842909 357.25695 
L 303.857455 349.272613 
L 304.398545 343.408217 
L 304.736727 337.084274 
L 304.939636 330.030923 
L 305.074909 320.398678 
L 305.142545 309.805468 
L 305.210182 276.141261 
L 305.277818 149.860807 
L 305.480727 326.488691 
L 305.751273 373.118169 
L 305.954182 379.312319 
L 306.021818 379.532212 
L 306.157091 378.82118 
L 306.495273 374.47606 
L 307.374545 362.964081 
L 308.118545 356.501909 
L 309.200727 348.619962 
L 310.08 344.901762 
L 310.418182 341.548686 
L 310.688727 336.450965 
L 310.891636 329.091106 
L 311.026909 318.091328 
L 311.094545 304.843064 
L 311.229818 162.273006 
L 311.432727 329.361467 
L 311.703273 373.081146 
L 311.906182 379.027646 
L 311.973818 379.232417 
L 312.109091 378.507348 
L 312.514909 373.246697 
L 313.326545 363.1561 
L 314.138182 355.785884 
L 315.896727 342.413691 
L 316.234909 337.493285 
L 316.505455 329.818848 
L 316.640727 320.928926 
L 316.708364 311.341832 
L 316.776 284.289382 
L 316.843636 152.468979 
L 316.911273 224.730842 
L 317.114182 338.931014 
L 317.384727 374.200166 
L 317.587636 378.6527 
L 317.655273 378.695443 
L 317.790545 377.82098 
L 318.196364 372.541823 
L 319.075636 361.657699 
L 319.481455 358.41686 
L 320.698909 350.357797 
L 321.781091 342.371337 
L 322.051636 339.425045 
L 322.322182 333.675552 
L 322.525091 323.289298 
L 322.660364 296.606398 
L 322.728 178.439408 
L 322.795636 191.564995 
L 322.998545 334.801414 
L 323.269091 373.980035 
L 323.472 379.24414 
L 323.539636 379.398223 
L 323.674909 378.629781 
L 324.080727 373.19957 
L 324.824727 363.780218 
L 325.636364 356.725871 
L 326.853818 348.214316 
L 327.259636 345.104671 
L 327.665455 340.030301 
L 327.936 333.394327 
L 328.138909 321.178301 
L 328.206545 310.791241 
L 328.274182 278.166097 
L 328.341818 146.081412 
L 328.544727 325.254398 
L 328.815273 373.512738 
L 329.018182 380.082081 
L 329.085818 380.294358 
L 329.221091 379.474918 
L 329.626909 373.800138 
L 330.370909 364.455765 
L 331.317818 355.96692 
L 332.873455 342.178287 
L 333.211636 337.156419 
L 333.549818 328.552965 
L 333.685091 321.048092 
L 333.820364 298.029018 
L 333.955636 187.007806 
L 334.158545 327.084477 
L 334.429091 367.481474 
L 334.632 374.758171 
L 334.767273 375.438661 
L 334.902545 374.748756 
L 335.308364 370.050445 
L 336.12 360.821988 
L 336.999273 353.761326 
L 337.540364 350.997408 
L 338.013818 347.532228 
L 338.487273 342.413487 
L 338.825455 336.384429 
L 339.028364 329.503504 
L 339.163636 319.528885 
L 339.231273 307.897482 
L 339.298909 265.441955 
L 339.366545 152.724533 
L 339.569455 326.70233 
L 339.84 372.312018 
L 340.042909 378.912067 
L 340.110545 379.217337 
L 340.178182 379.065202 
L 340.381091 377.153114 
L 341.869091 359.215241 
L 342.883636 350.820911 
L 343.424727 345.368125 
L 343.830545 338.877567 
L 344.101091 330.656102 
L 344.236364 321.387235 
L 344.304 311.373627 
L 344.371636 281.659254 
L 344.439273 147.530256 
L 344.506909 231.881571 
L 344.709818 344.316415 
L 344.912727 373.58374 
L 345.115636 379.83313 
L 345.183273 380.023758 
L 345.318545 379.248187 
L 345.724364 373.863839 
L 346.468364 364.981758 
L 347.550545 355.083933 
L 348.835636 342.75247 
L 349.173818 337.165745 
L 349.444364 328.983425 
L 349.579636 319.637333 
L 349.647273 309.235233 
L 349.714909 277.093966 
L 349.782545 153.681452 
L 349.985455 323.399892 
L 350.256 370.168589 
L 350.458909 377.562916 
L 350.526545 378.013344 
L 350.594182 377.965017 
L 350.797091 376.181661 
L 352.217455 359.183324 
L 353.164364 351.29251 
L 353.570182 349.687675 
L 353.976 347.850616 
L 354.381818 344.774002 
L 354.72 340.568706 
L 354.990545 334.933178 
L 355.193455 326.441349 
L 355.328727 310.706143 
L 355.396364 279.710237 
L 355.464 148.068616 
L 355.666909 323.081286 
L 355.937455 371.466683 
L 356.140364 378.882441 
L 356.208 379.297978 
L 356.275636 379.214264 
L 356.478545 377.354457 
L 357.763636 361.62786 
L 359.048727 350.996584 
L 359.589818 345.734369 
L 359.995636 339.647435 
L 360.333818 330.947344 
L 360.536727 319.107278 
L 360.604364 309.238064 
L 360.672 281.131295 
L 360.739636 160.580775 
L 360.807273 234.081487 
L 361.010182 337.399598 
L 361.280727 371.437988 
L 361.483636 376.312496 
L 361.551273 376.485347 
L 361.686545 375.822359 
L 362.024727 371.765896 
L 362.904 361.127072 
L 365.000727 339.997157 
L 365.474182 330.45622 
L 365.677091 320.066247 
L 365.812364 293.51857 
L 365.88 196.699722 
L 365.947636 201.852467 
L 366.150545 329.059776 
L 366.421091 367.461004 
L 366.624 374.354564 
L 366.759273 375.01983 
L 366.894545 374.358359 
L 367.232727 370.591684 
L 368.247273 358.877254 
L 368.923636 353.816945 
L 369.667636 349.532099 
L 370.208727 344.258808 
L 370.614545 338.337776 
L 370.885091 330.919814 
L 371.020364 323.00034 
L 371.155636 296.901588 
L 371.223273 184.767678 
L 371.290909 191.30469 
L 371.493818 334.714102 
L 371.764364 373.862389 
L 371.967273 378.921809 
L 372.034909 379.002722 
L 372.170182 378.120673 
L 372.643636 371.665076 
L 373.387636 362.494872 
L 374.131636 356.054132 
L 374.943273 349.062348 
L 375.416727 343.163667 
L 375.754909 335.761995 
L 375.957818 326.572942 
L 376.093091 311.152018 
L 376.160727 282.911886 
L 376.228364 151.044764 
L 376.296 230.617083 
L 376.498909 343.024932 
L 376.769455 375.907416 
L 376.972364 379.219417 
L 377.04 379.062111 
L 377.242909 377.12187 
L 378.663273 359.646298 
L 379.610182 352.110373 
L 381.233455 339.006019 
L 381.504 334.082205 
L 381.706909 326.158475 
L 381.842182 311.454564 
L 381.909818 285.091538 
L 381.977455 153.603463 
L 382.045091 221.896634 
L 382.248 337.016127 
L 382.518545 373.105387 
L 382.721455 378.098066 
L 382.789091 378.247301 
L 382.924364 377.520574 
L 383.262545 373.248485 
L 384.141818 362.051599 
L 384.682909 357.716919 
L 385.426909 353.682615 
L 385.968 349.439423 
L 386.509091 343.389183 
L 386.847273 337.382969 
L 387.050182 331.164869 
L 387.185455 323.022619 
L 387.320727 295.57811 
L 387.388364 174.514292 
L 387.456 196.734349 
L 387.658909 337.32663 
L 387.929455 374.95792 
L 388.132364 379.327219 
L 388.2 379.290597 
L 388.402909 377.422644 
L 389.890909 358.660538 
L 391.514182 344.571268 
L 392.122909 337.581489 
L 392.528727 332.64281 
L 392.731636 326.947254 
L 392.866909 317.903451 
L 392.934545 307.53021 
L 393.002182 276.358137 
L 393.069818 162.388087 
L 393.272727 316.497604 
L 393.543273 362.058893 
L 393.746182 372.716293 
L 393.949091 374.859122 
L 394.016727 374.734582 
L 394.219636 373.193147 
L 396.045818 354.225963 
L 396.586909 351.312687 
L 396.992727 348.758203 
L 397.398545 344.628706 
L 397.736727 338.894377 
L 398.007273 329.890793 
L 398.142545 319.110762 
L 398.210182 305.865645 
L 398.345455 159.353814 
L 398.548364 331.906885 
L 398.818909 375.091522 
L 399.021818 380.251443 
L 399.089455 380.306324 
L 399.224727 379.376757 
L 399.630545 373.715042 
L 400.239273 365.928677 
L 401.050909 358.747605 
L 401.930182 352.723925 
L 402.674182 346.908132 
L 403.08 341.785205 
L 403.350545 336.212202 
L 403.553455 328.128346 
L 403.688727 314.444885 
L 403.756364 292.423949 
L 403.824 156.58137 
L 403.891636 206.437642 
L 404.094545 341.387429 
L 404.365091 377.524021 
L 404.568 380.56561 
L 404.703273 379.622125 
L 405.176727 372.82009 
L 405.920727 363.468038 
L 406.597091 357.42745 
L 407.746909 350.245417 
L 408.355636 344.076655 
L 408.693818 338.722933 
L 408.964364 330.483171 
L 409.099636 321.199929 
L 409.167273 311.066252 
L 409.234909 280.313883 
L 409.302545 147.23672 
L 409.505455 325.05001 
L 409.776 373.162665 
L 409.978909 379.646467 
L 410.046545 379.863653 
L 410.181818 379.106079 
L 410.587636 373.618275 
L 411.331636 364.176379 
L 412.143273 356.660764 
L 413.563636 344.796381 
L 413.901818 339.25399 
L 414.172364 330.446674 
L 414.307636 319.808776 
L 414.375273 306.91892 
L 414.510545 156.231165 
L 414.713455 332.600162 
L 414.984 375.927153 
L 415.186909 380.825292 
L 415.254545 380.786558 
L 415.457455 378.837815 
L 416.742545 362.271304 
L 417.216 358.787253 
L 418.230545 353.294357 
L 418.771636 348.036559 
L 419.177455 342.058266 
L 419.448 335.351069 
L 419.650909 324.472534 
L 419.786182 296.704045 
L 419.853818 164.960981 
L 419.921455 194.766831 
L 420.124364 341.519214 
L 420.327273 374.270739 
L 420.530182 381.114888 
L 420.597818 381.299179 
L 420.733091 380.406994 
L 421.138909 374.348177 
L 421.882909 364.194657 
L 422.694545 356.591422 
L 424.317818 343.325927 
L 424.656 337.232186 
L 424.858909 330.049311 
L 424.994182 319.467426 
L 425.061818 306.964529 
L 425.197091 155.899612 
L 425.4 331.377824 
L 425.670545 375.461293 
L 425.873455 380.343992 
L 425.941091 380.30848 
L 426.144 378.446246 
L 427.699636 358.929916 
L 428.376 353.782028 
L 429.390545 345.177867 
L 429.796364 340.30598 
L 430.066909 334.71908 
L 430.269818 325.851857 
L 430.405091 308.504099 
L 430.472727 268.747357 
L 430.540364 157.468667 
L 430.743273 339.061262 
L 431.013818 403.222399 
L 431.284364 416.660061 
L 431.757818 425.694908 
L 432.975273 444.306106 
L 433.651636 451.513872 
L 434.260364 455.941609 
L 434.869091 458.904565 
L 435.477818 460.868173 
L 436.154182 462.290358 
L 436.830545 463.202594 
L 437.574545 463.835782 
L 438.453818 464.275957 
L 439.536 464.552421 
L 441.091636 464.691465 
L 443.729455 464.666793 
L 460.368 464.175768 
L 491.210182 464.15979 
L 498.109091 464.160049 
L 498.109091 464.160049 
" clip-path="url(#p0e0c3e99cb)" style="fill: none; stroke: #000000; stroke-width: 1.5; stroke-linecap: square"/>
   </g>
   <g id="line2d_14">
    <path d="M 497.973818 408.87 
" clip-path="url(#p0e0c3e99cb)" style="fill: none; stroke: #000000; stroke-width: 1.5; stroke-linecap: square"/>
   </g>
   <g id="line2d_15">
    <path d="M 430.472727 368.1 
L 430.472727 365.382 
L 430.472727 362.664 
L 430.472727 359.946 
L 430.472727 357.228 
L 430.472727 354.51 
L 430.472727 351.792 
L 430.472727 349.074 
L 430.472727 346.356 
L 430.472727 343.638 
L 430.472727 340.92 
L 430.472727 338.202 
L 430.472727 335.484 
L 430.472727 332.766 
L 430.472727 330.048 
L 430.472727 327.33 
L 430.472727 324.612 
L 430.472727 321.894 
L 430.472727 319.176 
L 430.472727 316.458 
" clip-path="url(#p0e0c3e99cb)" style="fill: none; stroke: #000000; stroke-width: 1.5; stroke-linecap: square"/>
   </g>
   <g id="patch_3">
    <path d="M 72 504 
L 72 69.12 
" style="fill: none; stroke: #000000; stroke-width: 0.8; stroke-linejoin: miter; stroke-linecap: square"/>
   </g>
   <g id="patch_4">
    <path d="M 518.4 504 
L 518.4 69.12 
" style="fill: none; stroke: #000000; stroke-width: 0.8; stroke-linejoin: miter; stroke-linecap: square"/>
   </g>
   <g id="patch_5">
    <path d="M 72 504 
L 518.4 504 
" style="fill: none; stroke: #000000; stroke-width: 0.8; stroke-linejoin: miter; stroke-linecap: square"/>
   </g>
   <g id="patch_6">
    <path d="M 72 69.12 
L 518.4 69.12 
" style="fill: none; stroke: #000000; stroke-width: 0.8; stroke-linejoin: miter; stroke-linecap: square"/>
   </g>
   <g id="text_15">
    <!-- 500 ms -->
    <g transform="translate(497.973818 406.152)scale(0.22 -0.22)">
     <defs>
      <path id="ArialMT-35" d="M 266 1200 
L 856 1250 
Q 922 819 1161 601 
Q 1400 384 1738 384 
Q 2144 384 2425 690 
Q 2706 997 2706 1503 
Q 2706 1984 2436 2262 
Q 2166 2541 1728 2541 
Q 1456 2541 1237 2417 
Q 1019 2294 894 2097 
L 366 2166 
L 809 4519 
L 3088 4519 
L 3088 3981 
L 1259 3981 
L 1013 2750 
Q 1425 3038 1878 3038 
Q 2478 3038 2890 2622 
Q 3303 2206 3303 1553 
Q 3303 931 2941 478 
Q 2500 -78 1738 -78 
Q 1113 -78 717 272 
Q 322 622 266 1200 
z
" transform="scale(0.015625)"/>
      <path id="ArialMT-30" d="M 266 2259 
Q 266 3072 433 3567 
Q 600 4063 929 4331 
Q 1259 4600 1759 4600 
Q 2128 4600 2406 4451 
Q 2684 4303 2865 4023 
Q 3047 3744 3150 3342 
Q 3253 2941 3253 2259 
Q 3253 1453 3087 958 
Q 2922 463 2592 192 
Q 2263 -78 1759 -78 
Q 1097 -78 719 397 
Q 266 969 266 2259 
z
M 844 2259 
Q 844 1131 1108 757 
Q 1372 384 1759 384 
Q 2147 384 2411 759 
Q 2675 1134 2675 2259 
Q 2675 3391 2411 3762 
Q 2147 4134 1753 4134 
Q 1366 4134 1134 3806 
Q 844 3388 844 2259 
z
" transform="scale(0.015625)"/>
     </defs>
     <use xlink:href="#ArialMT-35"/>
     <use xlink:href="#ArialMT-30" x="55.615234"/>
     <use xlink:href="#ArialMT-30" x="111.230469"/>
     <use xlink:href="#ArialMT-20" x="166.845703"/>
     <use xlink:href="#ArialMT-6d" x="194.628906"/>
     <use xlink:href="#ArialMT-73" x="277.929688"/>
    </g>
   </g>
   <g id="text_16">
    <!-- 20 mV -->
    <g transform="translate(504.737455 321.894)scale(0.22 -0.22)">
     <defs>
      <path id="ArialMT-32" d="M 3222 541 
L 3222 0 
L 194 0 
Q 188 203 259 391 
Q 375 700 629 1000 
Q 884 1300 1366 1694 
Q 2113 2306 2375 2664 
Q 2638 3022 2638 3341 
Q 2638 3675 2398 3904 
Q 2159 4134 1775 4134 
Q 1369 4134 1125 3890 
Q 881 3647 878 3216 
L 300 3275 
Q 359 3922 746 4261 
Q 1134 4600 1788 4600 
Q 2447 4600 2831 4234 
Q 3216 3869 3216 3328 
Q 3216 3053 3103 2787 
Q 2991 2522 2730 2228 
Q 2469 1934 1863 1422 
Q 1356 997 1212 845 
Q 1069 694 975 541 
L 3222 541 
z
" transform="scale(0.015625)"/>
     </defs>
     <use xlink:href="#ArialMT-32"/>
     <use xlink:href="#ArialMT-30" x="55.615234"/>
     <use xlink:href="#ArialMT-20" x="111.230469"/>
     <use xlink:href="#ArialMT-6d" x="139.013672"/>
     <use xlink:href="#ArialMT-56" x="222.314453"/>
    </g>
   </g>
   <g id="text_17">
    <!--  Plotting dSPN, trace number 13596  -->
    <g transform="translate(116.052969 63.12)scale(0.22 -0.22)">
     <defs>
      <path id="ArialMT-50" d="M 494 0 
L 494 4581 
L 2222 4581 
Q 2678 4581 2919 4538 
Q 3256 4481 3484 4323 
Q 3713 4166 3852 3881 
Q 3991 3597 3991 3256 
Q 3991 2672 3619 2267 
Q 3247 1863 2275 1863 
L 1100 1863 
L 1100 0 
L 494 0 
z
M 1100 2403 
L 2284 2403 
Q 2872 2403 3119 2622 
Q 3366 2841 3366 3238 
Q 3366 3525 3220 3729 
Q 3075 3934 2838 4000 
Q 2684 4041 2272 4041 
L 1100 4041 
L 1100 2403 
z
" transform="scale(0.015625)"/>
      <path id="ArialMT-67" d="M 319 -275 
L 866 -356 
Q 900 -609 1056 -725 
Q 1266 -881 1628 -881 
Q 2019 -881 2231 -725 
Q 2444 -569 2519 -288 
Q 2563 -116 2559 434 
Q 2191 0 1641 0 
Q 956 0 581 494 
Q 206 988 206 1678 
Q 206 2153 378 2554 
Q 550 2956 876 3175 
Q 1203 3394 1644 3394 
Q 2231 3394 2613 2919 
L 2613 3319 
L 3131 3319 
L 3131 450 
Q 3131 -325 2973 -648 
Q 2816 -972 2473 -1159 
Q 2131 -1347 1631 -1347 
Q 1038 -1347 672 -1080 
Q 306 -813 319 -275 
z
M 784 1719 
Q 784 1066 1043 766 
Q 1303 466 1694 466 
Q 2081 466 2343 764 
Q 2606 1063 2606 1700 
Q 2606 2309 2336 2618 
Q 2066 2928 1684 2928 
Q 1309 2928 1046 2623 
Q 784 2319 784 1719 
z
" transform="scale(0.015625)"/>
      <path id="ArialMT-64" d="M 2575 0 
L 2575 419 
Q 2259 -75 1647 -75 
Q 1250 -75 917 144 
Q 584 363 401 755 
Q 219 1147 219 1656 
Q 219 2153 384 2558 
Q 550 2963 881 3178 
Q 1213 3394 1622 3394 
Q 1922 3394 2156 3267 
Q 2391 3141 2538 2938 
L 2538 4581 
L 3097 4581 
L 3097 0 
L 2575 0 
z
M 797 1656 
Q 797 1019 1065 703 
Q 1334 388 1700 388 
Q 2069 388 2326 689 
Q 2584 991 2584 1609 
Q 2584 2291 2321 2609 
Q 2059 2928 1675 2928 
Q 1300 2928 1048 2622 
Q 797 2316 797 1656 
z
" transform="scale(0.015625)"/>
      <path id="ArialMT-53" d="M 288 1472 
L 859 1522 
Q 900 1178 1048 958 
Q 1197 738 1509 602 
Q 1822 466 2213 466 
Q 2559 466 2825 569 
Q 3091 672 3220 851 
Q 3350 1031 3350 1244 
Q 3350 1459 3225 1620 
Q 3100 1781 2813 1891 
Q 2628 1963 1997 2114 
Q 1366 2266 1113 2400 
Q 784 2572 623 2826 
Q 463 3081 463 3397 
Q 463 3744 659 4045 
Q 856 4347 1234 4503 
Q 1613 4659 2075 4659 
Q 2584 4659 2973 4495 
Q 3363 4331 3572 4012 
Q 3781 3694 3797 3291 
L 3216 3247 
Q 3169 3681 2898 3903 
Q 2628 4125 2100 4125 
Q 1550 4125 1298 3923 
Q 1047 3722 1047 3438 
Q 1047 3191 1225 3031 
Q 1400 2872 2139 2705 
Q 2878 2538 3153 2413 
Q 3553 2228 3743 1945 
Q 3934 1663 3934 1294 
Q 3934 928 3725 604 
Q 3516 281 3123 101 
Q 2731 -78 2241 -78 
Q 1619 -78 1198 103 
Q 778 284 539 648 
Q 300 1013 288 1472 
z
" transform="scale(0.015625)"/>
      <path id="ArialMT-4e" d="M 488 0 
L 488 4581 
L 1109 4581 
L 3516 984 
L 3516 4581 
L 4097 4581 
L 4097 0 
L 3475 0 
L 1069 3600 
L 1069 0 
L 488 0 
z
" transform="scale(0.015625)"/>
      <path id="ArialMT-2c" d="M 569 0 
L 569 641 
L 1209 641 
L 1209 0 
Q 1209 -353 1084 -570 
Q 959 -788 688 -906 
L 531 -666 
Q 709 -588 793 -436 
Q 878 -284 888 0 
L 569 0 
z
" transform="scale(0.015625)"/>
      <path id="ArialMT-63" d="M 2588 1216 
L 3141 1144 
Q 3050 572 2676 248 
Q 2303 -75 1759 -75 
Q 1078 -75 664 370 
Q 250 816 250 1647 
Q 250 2184 428 2587 
Q 606 2991 970 3192 
Q 1334 3394 1763 3394 
Q 2303 3394 2647 3120 
Q 2991 2847 3088 2344 
L 2541 2259 
Q 2463 2594 2264 2762 
Q 2066 2931 1784 2931 
Q 1359 2931 1093 2626 
Q 828 2322 828 1663 
Q 828 994 1084 691 
Q 1341 388 1753 388 
Q 2084 388 2306 591 
Q 2528 794 2588 1216 
z
" transform="scale(0.015625)"/>
      <path id="ArialMT-75" d="M 2597 0 
L 2597 488 
Q 2209 -75 1544 -75 
Q 1250 -75 995 37 
Q 741 150 617 320 
Q 494 491 444 738 
Q 409 903 409 1263 
L 409 3319 
L 972 3319 
L 972 1478 
Q 972 1038 1006 884 
Q 1059 663 1231 536 
Q 1403 409 1656 409 
Q 1909 409 2131 539 
Q 2353 669 2445 892 
Q 2538 1116 2538 1541 
L 2538 3319 
L 3100 3319 
L 3100 0 
L 2597 0 
z
" transform="scale(0.015625)"/>
      <path id="ArialMT-31" d="M 2384 0 
L 1822 0 
L 1822 3584 
Q 1619 3391 1289 3197 
Q 959 3003 697 2906 
L 697 3450 
Q 1169 3672 1522 3987 
Q 1875 4303 2022 4600 
L 2384 4600 
L 2384 0 
z
" transform="scale(0.015625)"/>
      <path id="ArialMT-33" d="M 269 1209 
L 831 1284 
Q 928 806 1161 595 
Q 1394 384 1728 384 
Q 2125 384 2398 659 
Q 2672 934 2672 1341 
Q 2672 1728 2419 1979 
Q 2166 2231 1775 2231 
Q 1616 2231 1378 2169 
L 1441 2663 
Q 1497 2656 1531 2656 
Q 1891 2656 2178 2843 
Q 2466 3031 2466 3422 
Q 2466 3731 2256 3934 
Q 2047 4138 1716 4138 
Q 1388 4138 1169 3931 
Q 950 3725 888 3313 
L 325 3413 
Q 428 3978 793 4289 
Q 1159 4600 1703 4600 
Q 2078 4600 2393 4439 
Q 2709 4278 2876 4000 
Q 3044 3722 3044 3409 
Q 3044 3113 2884 2869 
Q 2725 2625 2413 2481 
Q 2819 2388 3044 2092 
Q 3269 1797 3269 1353 
Q 3269 753 2831 336 
Q 2394 -81 1725 -81 
Q 1122 -81 723 278 
Q 325 638 269 1209 
z
" transform="scale(0.015625)"/>
      <path id="ArialMT-39" d="M 350 1059 
L 891 1109 
Q 959 728 1153 556 
Q 1347 384 1650 384 
Q 1909 384 2104 503 
Q 2300 622 2425 820 
Q 2550 1019 2634 1356 
Q 2719 1694 2719 2044 
Q 2719 2081 2716 2156 
Q 2547 1888 2255 1720 
Q 1963 1553 1622 1553 
Q 1053 1553 659 1965 
Q 266 2378 266 3053 
Q 266 3750 677 4175 
Q 1088 4600 1706 4600 
Q 2153 4600 2523 4359 
Q 2894 4119 3086 3673 
Q 3278 3228 3278 2384 
Q 3278 1506 3087 986 
Q 2897 466 2520 194 
Q 2144 -78 1638 -78 
Q 1100 -78 759 220 
Q 419 519 350 1059 
z
M 2653 3081 
Q 2653 3566 2395 3850 
Q 2138 4134 1775 4134 
Q 1400 4134 1122 3828 
Q 844 3522 844 3034 
Q 844 2597 1108 2323 
Q 1372 2050 1759 2050 
Q 2150 2050 2401 2323 
Q 2653 2597 2653 3081 
z
" transform="scale(0.015625)"/>
      <path id="ArialMT-36" d="M 3184 3459 
L 2625 3416 
Q 2550 3747 2413 3897 
Q 2184 4138 1850 4138 
Q 1581 4138 1378 3988 
Q 1113 3794 959 3422 
Q 806 3050 800 2363 
Q 1003 2672 1297 2822 
Q 1591 2972 1913 2972 
Q 2475 2972 2870 2558 
Q 3266 2144 3266 1488 
Q 3266 1056 3080 686 
Q 2894 316 2569 119 
Q 2244 -78 1831 -78 
Q 1128 -78 684 439 
Q 241 956 241 2144 
Q 241 3472 731 4075 
Q 1159 4600 1884 4600 
Q 2425 4600 2770 4297 
Q 3116 3994 3184 3459 
z
M 888 1484 
Q 888 1194 1011 928 
Q 1134 663 1356 523 
Q 1578 384 1822 384 
Q 2178 384 2434 671 
Q 2691 959 2691 1453 
Q 2691 1928 2437 2201 
Q 2184 2475 1800 2475 
Q 1419 2475 1153 2201 
Q 888 1928 888 1484 
z
" transform="scale(0.015625)"/>
     </defs>
     <use xlink:href="#ArialMT-20"/>
     <use xlink:href="#ArialMT-50" x="27.783203"/>
     <use xlink:href="#ArialMT-6c" x="94.482422"/>
     <use xlink:href="#ArialMT-6f" x="116.699219"/>
     <use xlink:href="#ArialMT-74" x="172.314453"/>
     <use xlink:href="#ArialMT-74" x="200.097656"/>
     <use xlink:href="#ArialMT-69" x="227.880859"/>
     <use xlink:href="#ArialMT-6e" x="250.097656"/>
     <use xlink:href="#ArialMT-67" x="305.712891"/>
     <use xlink:href="#ArialMT-20" x="361.328125"/>
     <use xlink:href="#ArialMT-64" x="389.111328"/>
     <use xlink:href="#ArialMT-53" x="444.726562"/>
     <use xlink:href="#ArialMT-50" x="511.425781"/>
     <use xlink:href="#ArialMT-4e" x="578.125"/>
     <use xlink:href="#ArialMT-2c" x="650.341797"/>
     <use xlink:href="#ArialMT-20" x="678.125"/>
     <use xlink:href="#ArialMT-74" x="705.908203"/>
     <use xlink:href="#ArialMT-72" x="733.691406"/>
     <use xlink:href="#ArialMT-61" x="766.992188"/>
     <use xlink:href="#ArialMT-63" x="822.607422"/>
     <use xlink:href="#ArialMT-65" x="872.607422"/>
     <use xlink:href="#ArialMT-20" x="928.222656"/>
     <use xlink:href="#ArialMT-6e" x="956.005859"/>
     <use xlink:href="#ArialMT-75" x="1011.621094"/>
     <use xlink:href="#ArialMT-6d" x="1067.236328"/>
     <use xlink:href="#ArialMT-62" x="1150.537109"/>
     <use xlink:href="#ArialMT-65" x="1206.152344"/>
     <use xlink:href="#ArialMT-72" x="1261.767578"/>
     <use xlink:href="#ArialMT-20" x="1295.068359"/>
     <use xlink:href="#ArialMT-31" x="1322.851562"/>
     <use xlink:href="#ArialMT-33" x="1378.466797"/>
     <use xlink:href="#ArialMT-35" x="1434.082031"/>
     <use xlink:href="#ArialMT-39" x="1489.697266"/>
     <use xlink:href="#ArialMT-36" x="1545.3125"/>
     <use xlink:href="#ArialMT-20" x="1600.927734"/>
    </g>
   </g>
  </g>
 </g>
 <defs>
  <clipPath id="p0e0c3e99cb">
   <rect x="72" y="69.12" width="446.4" height="434.88"/>
  </clipPath>
 </defs>
</svg>
