<?xml version="1.0" encoding="utf-8" standalone="no"?>
<!DOCTYPE svg PUBLIC "-//W3C//DTD SVG 1.1//EN"
  "http://www.w3.org/Graphics/SVG/1.1/DTD/svg11.dtd">
<svg xmlns:xlink="http://www.w3.org/1999/xlink" width="576pt" height="576pt" viewBox="0 0 576 576" xmlns="http://www.w3.org/2000/svg" version="1.1">
 <metadata>
  <rdf:RDF xmlns:dc="http://purl.org/dc/elements/1.1/" xmlns:cc="http://creativecommons.org/ns#" xmlns:rdf="http://www.w3.org/1999/02/22-rdf-syntax-ns#">
   <cc:Work>
    <dc:type rdf:resource="http://purl.org/dc/dcmitype/StillImage"/>
    <dc:date>2022-10-30T19:57:16.416819</dc:date>
    <dc:format>image/svg+xml</dc:format>
    <dc:creator>
     <cc:Agent>
      <dc:title>Matplotlib v3.5.2, https://matplotlib.org/</dc:title>
     </cc:Agent>
    </dc:creator>
   </cc:Work>
  </rdf:RDF>
 </metadata>
 <defs>
  <style type="text/css">*{stroke-linejoin: round; stroke-linecap: butt}</style>
 </defs>
 <g id="figure_1">
  <g id="patch_1">
   <path d="M 0 576 
L 576 576 
L 576 0 
L 0 0 
L 0 576 
z
" style="fill: none"/>
  </g>
  <g id="axes_1">
   <g id="patch_2">
    <path d="M 72 504 
L 518.4 504 
L 518.4 69.12 
L 72 69.12 
z
" style="fill: #ffffff"/>
   </g>
   <g id="matplotlib.axis_1">
    <g id="xtick_1">
     <g id="line2d_1">
      <defs>
       <path id="m4ad0782d5f" d="M 0 0 
L 0 3.5 
" style="stroke: #000000; stroke-width: 0.8"/>
      </defs>
      <g>
       <use xlink:href="#m4ad0782d5f" x="92.290909" y="504" style="stroke: #000000; stroke-width: 0.8"/>
      </g>
     </g>
     <g id="text_1">
      <!-- 0 -->
      <g transform="translate(85.292159 527.716563)scale(0.22 -0.22)">
       <defs>
        <path id="DejaVuSans-30" d="M 2034 4250 
Q 1547 4250 1301 3770 
Q 1056 3291 1056 2328 
Q 1056 1369 1301 889 
Q 1547 409 2034 409 
Q 2525 409 2770 889 
Q 3016 1369 3016 2328 
Q 3016 3291 2770 3770 
Q 2525 4250 2034 4250 
z
M 2034 4750 
Q 2819 4750 3233 4129 
Q 3647 3509 3647 2328 
Q 3647 1150 3233 529 
Q 2819 -91 2034 -91 
Q 1250 -91 836 529 
Q 422 1150 422 2328 
Q 422 3509 836 4129 
Q 1250 4750 2034 4750 
z
" transform="scale(0.015625)"/>
       </defs>
       <use xlink:href="#DejaVuSans-30"/>
      </g>
     </g>
    </g>
    <g id="xtick_2">
     <g id="line2d_2">
      <g>
       <use xlink:href="#m4ad0782d5f" x="227.563636" y="504" style="stroke: #000000; stroke-width: 0.8"/>
      </g>
     </g>
     <g id="text_2">
      <!-- 1000 -->
      <g transform="translate(199.568636 527.716563)scale(0.22 -0.22)">
       <defs>
        <path id="DejaVuSans-31" d="M 794 531 
L 1825 531 
L 1825 4091 
L 703 3866 
L 703 4441 
L 1819 4666 
L 2450 4666 
L 2450 531 
L 3481 531 
L 3481 0 
L 794 0 
L 794 531 
z
" transform="scale(0.015625)"/>
       </defs>
       <use xlink:href="#DejaVuSans-31"/>
       <use xlink:href="#DejaVuSans-30" x="63.623047"/>
       <use xlink:href="#DejaVuSans-30" x="127.246094"/>
       <use xlink:href="#DejaVuSans-30" x="190.869141"/>
      </g>
     </g>
    </g>
    <g id="xtick_3">
     <g id="line2d_3">
      <g>
       <use xlink:href="#m4ad0782d5f" x="362.836364" y="504" style="stroke: #000000; stroke-width: 0.8"/>
      </g>
     </g>
     <g id="text_3">
      <!-- 2000 -->
      <g transform="translate(334.841364 527.716563)scale(0.22 -0.22)">
       <defs>
        <path id="DejaVuSans-32" d="M 1228 531 
L 3431 531 
L 3431 0 
L 469 0 
L 469 531 
Q 828 903 1448 1529 
Q 2069 2156 2228 2338 
Q 2531 2678 2651 2914 
Q 2772 3150 2772 3378 
Q 2772 3750 2511 3984 
Q 2250 4219 1831 4219 
Q 1534 4219 1204 4116 
Q 875 4013 500 3803 
L 500 4441 
Q 881 4594 1212 4672 
Q 1544 4750 1819 4750 
Q 2544 4750 2975 4387 
Q 3406 4025 3406 3419 
Q 3406 3131 3298 2873 
Q 3191 2616 2906 2266 
Q 2828 2175 2409 1742 
Q 1991 1309 1228 531 
z
" transform="scale(0.015625)"/>
       </defs>
       <use xlink:href="#DejaVuSans-32"/>
       <use xlink:href="#DejaVuSans-30" x="63.623047"/>
       <use xlink:href="#DejaVuSans-30" x="127.246094"/>
       <use xlink:href="#DejaVuSans-30" x="190.869141"/>
      </g>
     </g>
    </g>
    <g id="xtick_4">
     <g id="line2d_4">
      <g>
       <use xlink:href="#m4ad0782d5f" x="498.109091" y="504" style="stroke: #000000; stroke-width: 0.8"/>
      </g>
     </g>
     <g id="text_4">
      <!-- 3000 -->
      <g transform="translate(470.114091 527.716563)scale(0.22 -0.22)">
       <defs>
        <path id="DejaVuSans-33" d="M 2597 2516 
Q 3050 2419 3304 2112 
Q 3559 1806 3559 1356 
Q 3559 666 3084 287 
Q 2609 -91 1734 -91 
Q 1441 -91 1130 -33 
Q 819 25 488 141 
L 488 750 
Q 750 597 1062 519 
Q 1375 441 1716 441 
Q 2309 441 2620 675 
Q 2931 909 2931 1356 
Q 2931 1769 2642 2001 
Q 2353 2234 1838 2234 
L 1294 2234 
L 1294 2753 
L 1863 2753 
Q 2328 2753 2575 2939 
Q 2822 3125 2822 3475 
Q 2822 3834 2567 4026 
Q 2313 4219 1838 4219 
Q 1578 4219 1281 4162 
Q 984 4106 628 3988 
L 628 4550 
Q 988 4650 1302 4700 
Q 1616 4750 1894 4750 
Q 2613 4750 3031 4423 
Q 3450 4097 3450 3541 
Q 3450 3153 3228 2886 
Q 3006 2619 2597 2516 
z
" transform="scale(0.015625)"/>
       </defs>
       <use xlink:href="#DejaVuSans-33"/>
       <use xlink:href="#DejaVuSans-30" x="63.623047"/>
       <use xlink:href="#DejaVuSans-30" x="127.246094"/>
       <use xlink:href="#DejaVuSans-30" x="190.869141"/>
      </g>
     </g>
    </g>
    <g id="text_5">
     <!-- Time(ms) -->
     <g transform="translate(249.182187 552.307188)scale(0.22 -0.22)">
      <defs>
       <path id="ArialMT-54" d="M 1659 0 
L 1659 4041 
L 150 4041 
L 150 4581 
L 3781 4581 
L 3781 4041 
L 2266 4041 
L 2266 0 
L 1659 0 
z
" transform="scale(0.015625)"/>
       <path id="ArialMT-69" d="M 425 3934 
L 425 4581 
L 988 4581 
L 988 3934 
L 425 3934 
z
M 425 0 
L 425 3319 
L 988 3319 
L 988 0 
L 425 0 
z
" transform="scale(0.015625)"/>
       <path id="ArialMT-6d" d="M 422 0 
L 422 3319 
L 925 3319 
L 925 2853 
Q 1081 3097 1340 3245 
Q 1600 3394 1931 3394 
Q 2300 3394 2536 3241 
Q 2772 3088 2869 2813 
Q 3263 3394 3894 3394 
Q 4388 3394 4653 3120 
Q 4919 2847 4919 2278 
L 4919 0 
L 4359 0 
L 4359 2091 
Q 4359 2428 4304 2576 
Q 4250 2725 4106 2815 
Q 3963 2906 3769 2906 
Q 3419 2906 3187 2673 
Q 2956 2441 2956 1928 
L 2956 0 
L 2394 0 
L 2394 2156 
Q 2394 2531 2256 2718 
Q 2119 2906 1806 2906 
Q 1569 2906 1367 2781 
Q 1166 2656 1075 2415 
Q 984 2175 984 1722 
L 984 0 
L 422 0 
z
" transform="scale(0.015625)"/>
       <path id="ArialMT-65" d="M 2694 1069 
L 3275 997 
Q 3138 488 2766 206 
Q 2394 -75 1816 -75 
Q 1088 -75 661 373 
Q 234 822 234 1631 
Q 234 2469 665 2931 
Q 1097 3394 1784 3394 
Q 2450 3394 2872 2941 
Q 3294 2488 3294 1666 
Q 3294 1616 3291 1516 
L 816 1516 
Q 847 969 1125 678 
Q 1403 388 1819 388 
Q 2128 388 2347 550 
Q 2566 713 2694 1069 
z
M 847 1978 
L 2700 1978 
Q 2663 2397 2488 2606 
Q 2219 2931 1791 2931 
Q 1403 2931 1139 2672 
Q 875 2413 847 1978 
z
" transform="scale(0.015625)"/>
       <path id="ArialMT-28" d="M 1497 -1347 
Q 1031 -759 709 28 
Q 388 816 388 1659 
Q 388 2403 628 3084 
Q 909 3875 1497 4659 
L 1900 4659 
Q 1522 4009 1400 3731 
Q 1209 3300 1100 2831 
Q 966 2247 966 1656 
Q 966 153 1900 -1347 
L 1497 -1347 
z
" transform="scale(0.015625)"/>
       <path id="ArialMT-73" d="M 197 991 
L 753 1078 
Q 800 744 1014 566 
Q 1228 388 1613 388 
Q 2000 388 2187 545 
Q 2375 703 2375 916 
Q 2375 1106 2209 1216 
Q 2094 1291 1634 1406 
Q 1016 1563 777 1677 
Q 538 1791 414 1992 
Q 291 2194 291 2438 
Q 291 2659 392 2848 
Q 494 3038 669 3163 
Q 800 3259 1026 3326 
Q 1253 3394 1513 3394 
Q 1903 3394 2198 3281 
Q 2494 3169 2634 2976 
Q 2775 2784 2828 2463 
L 2278 2388 
Q 2241 2644 2061 2787 
Q 1881 2931 1553 2931 
Q 1166 2931 1000 2803 
Q 834 2675 834 2503 
Q 834 2394 903 2306 
Q 972 2216 1119 2156 
Q 1203 2125 1616 2013 
Q 2213 1853 2448 1751 
Q 2684 1650 2818 1456 
Q 2953 1263 2953 975 
Q 2953 694 2789 445 
Q 2625 197 2315 61 
Q 2006 -75 1616 -75 
Q 969 -75 630 194 
Q 291 463 197 991 
z
" transform="scale(0.015625)"/>
       <path id="ArialMT-29" d="M 791 -1347 
L 388 -1347 
Q 1322 153 1322 1656 
Q 1322 2244 1188 2822 
Q 1081 3291 891 3722 
Q 769 4003 388 4659 
L 791 4659 
Q 1378 3875 1659 3084 
Q 1900 2403 1900 1659 
Q 1900 816 1576 28 
Q 1253 -759 791 -1347 
z
" transform="scale(0.015625)"/>
      </defs>
      <use xlink:href="#ArialMT-54"/>
      <use xlink:href="#ArialMT-69" x="57.333984"/>
      <use xlink:href="#ArialMT-6d" x="79.550781"/>
      <use xlink:href="#ArialMT-65" x="162.851562"/>
      <use xlink:href="#ArialMT-28" x="218.466797"/>
      <use xlink:href="#ArialMT-6d" x="251.767578"/>
      <use xlink:href="#ArialMT-73" x="335.068359"/>
      <use xlink:href="#ArialMT-29" x="385.068359"/>
     </g>
    </g>
   </g>
   <g id="matplotlib.axis_2">
    <g id="ytick_1">
     <g id="line2d_5">
      <defs>
       <path id="m823506979c" d="M 0 0 
L -3.5 0 
" style="stroke: #000000; stroke-width: 0.8"/>
      </defs>
      <g>
       <use xlink:href="#m823506979c" x="72" y="476.82" style="stroke: #000000; stroke-width: 0.8"/>
      </g>
     </g>
     <g id="text_6">
      <!-- −100 -->
      <g transform="translate(4.572187 485.178281)scale(0.22 -0.22)">
       <defs>
        <path id="DejaVuSans-2212" d="M 678 2272 
L 4684 2272 
L 4684 1741 
L 678 1741 
L 678 2272 
z
" transform="scale(0.015625)"/>
       </defs>
       <use xlink:href="#DejaVuSans-2212"/>
       <use xlink:href="#DejaVuSans-31" x="83.789062"/>
       <use xlink:href="#DejaVuSans-30" x="147.412109"/>
       <use xlink:href="#DejaVuSans-30" x="211.035156"/>
      </g>
     </g>
    </g>
    <g id="ytick_2">
     <g id="line2d_6">
      <g>
       <use xlink:href="#m823506979c" x="72" y="422.46" style="stroke: #000000; stroke-width: 0.8"/>
      </g>
     </g>
     <g id="text_7">
      <!-- −80 -->
      <g transform="translate(18.569688 430.818281)scale(0.22 -0.22)">
       <defs>
        <path id="DejaVuSans-38" d="M 2034 2216 
Q 1584 2216 1326 1975 
Q 1069 1734 1069 1313 
Q 1069 891 1326 650 
Q 1584 409 2034 409 
Q 2484 409 2743 651 
Q 3003 894 3003 1313 
Q 3003 1734 2745 1975 
Q 2488 2216 2034 2216 
z
M 1403 2484 
Q 997 2584 770 2862 
Q 544 3141 544 3541 
Q 544 4100 942 4425 
Q 1341 4750 2034 4750 
Q 2731 4750 3128 4425 
Q 3525 4100 3525 3541 
Q 3525 3141 3298 2862 
Q 3072 2584 2669 2484 
Q 3125 2378 3379 2068 
Q 3634 1759 3634 1313 
Q 3634 634 3220 271 
Q 2806 -91 2034 -91 
Q 1263 -91 848 271 
Q 434 634 434 1313 
Q 434 1759 690 2068 
Q 947 2378 1403 2484 
z
M 1172 3481 
Q 1172 3119 1398 2916 
Q 1625 2713 2034 2713 
Q 2441 2713 2670 2916 
Q 2900 3119 2900 3481 
Q 2900 3844 2670 4047 
Q 2441 4250 2034 4250 
Q 1625 4250 1398 4047 
Q 1172 3844 1172 3481 
z
" transform="scale(0.015625)"/>
       </defs>
       <use xlink:href="#DejaVuSans-2212"/>
       <use xlink:href="#DejaVuSans-38" x="83.789062"/>
       <use xlink:href="#DejaVuSans-30" x="147.412109"/>
      </g>
     </g>
    </g>
    <g id="ytick_3">
     <g id="line2d_7">
      <g>
       <use xlink:href="#m823506979c" x="72" y="368.1" style="stroke: #000000; stroke-width: 0.8"/>
      </g>
     </g>
     <g id="text_8">
      <!-- −60 -->
      <g transform="translate(18.569688 376.458281)scale(0.22 -0.22)">
       <defs>
        <path id="DejaVuSans-36" d="M 2113 2584 
Q 1688 2584 1439 2293 
Q 1191 2003 1191 1497 
Q 1191 994 1439 701 
Q 1688 409 2113 409 
Q 2538 409 2786 701 
Q 3034 994 3034 1497 
Q 3034 2003 2786 2293 
Q 2538 2584 2113 2584 
z
M 3366 4563 
L 3366 3988 
Q 3128 4100 2886 4159 
Q 2644 4219 2406 4219 
Q 1781 4219 1451 3797 
Q 1122 3375 1075 2522 
Q 1259 2794 1537 2939 
Q 1816 3084 2150 3084 
Q 2853 3084 3261 2657 
Q 3669 2231 3669 1497 
Q 3669 778 3244 343 
Q 2819 -91 2113 -91 
Q 1303 -91 875 529 
Q 447 1150 447 2328 
Q 447 3434 972 4092 
Q 1497 4750 2381 4750 
Q 2619 4750 2861 4703 
Q 3103 4656 3366 4563 
z
" transform="scale(0.015625)"/>
       </defs>
       <use xlink:href="#DejaVuSans-2212"/>
       <use xlink:href="#DejaVuSans-36" x="83.789062"/>
       <use xlink:href="#DejaVuSans-30" x="147.412109"/>
      </g>
     </g>
    </g>
    <g id="ytick_4">
     <g id="line2d_8">
      <g>
       <use xlink:href="#m823506979c" x="72" y="313.74" style="stroke: #000000; stroke-width: 0.8"/>
      </g>
     </g>
     <g id="text_9">
      <!-- −40 -->
      <g transform="translate(18.569688 322.098281)scale(0.22 -0.22)">
       <defs>
        <path id="DejaVuSans-34" d="M 2419 4116 
L 825 1625 
L 2419 1625 
L 2419 4116 
z
M 2253 4666 
L 3047 4666 
L 3047 1625 
L 3713 1625 
L 3713 1100 
L 3047 1100 
L 3047 0 
L 2419 0 
L 2419 1100 
L 313 1100 
L 313 1709 
L 2253 4666 
z
" transform="scale(0.015625)"/>
       </defs>
       <use xlink:href="#DejaVuSans-2212"/>
       <use xlink:href="#DejaVuSans-34" x="83.789062"/>
       <use xlink:href="#DejaVuSans-30" x="147.412109"/>
      </g>
     </g>
    </g>
    <g id="ytick_5">
     <g id="line2d_9">
      <g>
       <use xlink:href="#m823506979c" x="72" y="259.38" style="stroke: #000000; stroke-width: 0.8"/>
      </g>
     </g>
     <g id="text_10">
      <!-- −20 -->
      <g transform="translate(18.569688 267.738281)scale(0.22 -0.22)">
       <use xlink:href="#DejaVuSans-2212"/>
       <use xlink:href="#DejaVuSans-32" x="83.789062"/>
       <use xlink:href="#DejaVuSans-30" x="147.412109"/>
      </g>
     </g>
    </g>
    <g id="ytick_6">
     <g id="line2d_10">
      <g>
       <use xlink:href="#m823506979c" x="72" y="205.02" style="stroke: #000000; stroke-width: 0.8"/>
      </g>
     </g>
     <g id="text_11">
      <!-- 0 -->
      <g transform="translate(51.0025 213.378281)scale(0.22 -0.22)">
       <use xlink:href="#DejaVuSans-30"/>
      </g>
     </g>
    </g>
    <g id="ytick_7">
     <g id="line2d_11">
      <g>
       <use xlink:href="#m823506979c" x="72" y="150.66" style="stroke: #000000; stroke-width: 0.8"/>
      </g>
     </g>
     <g id="text_12">
      <!-- 20 -->
      <g transform="translate(37.005 159.018281)scale(0.22 -0.22)">
       <use xlink:href="#DejaVuSans-32"/>
       <use xlink:href="#DejaVuSans-30" x="63.623047"/>
      </g>
     </g>
    </g>
    <g id="ytick_8">
     <g id="line2d_12">
      <g>
       <use xlink:href="#m823506979c" x="72" y="96.3" style="stroke: #000000; stroke-width: 0.8"/>
      </g>
     </g>
     <g id="text_13">
      <!-- 40 -->
      <g transform="translate(37.005 104.658281)scale(0.22 -0.22)">
       <use xlink:href="#DejaVuSans-34"/>
       <use xlink:href="#DejaVuSans-30" x="63.623047"/>
      </g>
     </g>
    </g>
    <g id="text_14">
     <!-- Membrane potential (mV) -->
     <g transform="translate(-4.058125 410.655469)rotate(-90)scale(0.22 -0.22)">
      <defs>
       <path id="ArialMT-4d" d="M 475 0 
L 475 4581 
L 1388 4581 
L 2472 1338 
Q 2622 884 2691 659 
Q 2769 909 2934 1394 
L 4031 4581 
L 4847 4581 
L 4847 0 
L 4263 0 
L 4263 3834 
L 2931 0 
L 2384 0 
L 1059 3900 
L 1059 0 
L 475 0 
z
" transform="scale(0.015625)"/>
       <path id="ArialMT-62" d="M 941 0 
L 419 0 
L 419 4581 
L 981 4581 
L 981 2947 
Q 1338 3394 1891 3394 
Q 2197 3394 2470 3270 
Q 2744 3147 2920 2923 
Q 3097 2700 3197 2384 
Q 3297 2069 3297 1709 
Q 3297 856 2875 390 
Q 2453 -75 1863 -75 
Q 1275 -75 941 416 
L 941 0 
z
M 934 1684 
Q 934 1088 1097 822 
Q 1363 388 1816 388 
Q 2184 388 2453 708 
Q 2722 1028 2722 1663 
Q 2722 2313 2464 2622 
Q 2206 2931 1841 2931 
Q 1472 2931 1203 2611 
Q 934 2291 934 1684 
z
" transform="scale(0.015625)"/>
       <path id="ArialMT-72" d="M 416 0 
L 416 3319 
L 922 3319 
L 922 2816 
Q 1116 3169 1280 3281 
Q 1444 3394 1641 3394 
Q 1925 3394 2219 3213 
L 2025 2691 
Q 1819 2813 1613 2813 
Q 1428 2813 1281 2702 
Q 1134 2591 1072 2394 
Q 978 2094 978 1738 
L 978 0 
L 416 0 
z
" transform="scale(0.015625)"/>
       <path id="ArialMT-61" d="M 2588 409 
Q 2275 144 1986 34 
Q 1697 -75 1366 -75 
Q 819 -75 525 192 
Q 231 459 231 875 
Q 231 1119 342 1320 
Q 453 1522 633 1644 
Q 813 1766 1038 1828 
Q 1203 1872 1538 1913 
Q 2219 1994 2541 2106 
Q 2544 2222 2544 2253 
Q 2544 2597 2384 2738 
Q 2169 2928 1744 2928 
Q 1347 2928 1158 2789 
Q 969 2650 878 2297 
L 328 2372 
Q 403 2725 575 2942 
Q 747 3159 1072 3276 
Q 1397 3394 1825 3394 
Q 2250 3394 2515 3294 
Q 2781 3194 2906 3042 
Q 3031 2891 3081 2659 
Q 3109 2516 3109 2141 
L 3109 1391 
Q 3109 606 3145 398 
Q 3181 191 3288 0 
L 2700 0 
Q 2613 175 2588 409 
z
M 2541 1666 
Q 2234 1541 1622 1453 
Q 1275 1403 1131 1340 
Q 988 1278 909 1158 
Q 831 1038 831 891 
Q 831 666 1001 516 
Q 1172 366 1500 366 
Q 1825 366 2078 508 
Q 2331 650 2450 897 
Q 2541 1088 2541 1459 
L 2541 1666 
z
" transform="scale(0.015625)"/>
       <path id="ArialMT-6e" d="M 422 0 
L 422 3319 
L 928 3319 
L 928 2847 
Q 1294 3394 1984 3394 
Q 2284 3394 2536 3286 
Q 2788 3178 2913 3003 
Q 3038 2828 3088 2588 
Q 3119 2431 3119 2041 
L 3119 0 
L 2556 0 
L 2556 2019 
Q 2556 2363 2490 2533 
Q 2425 2703 2258 2804 
Q 2091 2906 1866 2906 
Q 1506 2906 1245 2678 
Q 984 2450 984 1813 
L 984 0 
L 422 0 
z
" transform="scale(0.015625)"/>
       <path id="ArialMT-20" transform="scale(0.015625)"/>
       <path id="ArialMT-70" d="M 422 -1272 
L 422 3319 
L 934 3319 
L 934 2888 
Q 1116 3141 1344 3267 
Q 1572 3394 1897 3394 
Q 2322 3394 2647 3175 
Q 2972 2956 3137 2557 
Q 3303 2159 3303 1684 
Q 3303 1175 3120 767 
Q 2938 359 2589 142 
Q 2241 -75 1856 -75 
Q 1575 -75 1351 44 
Q 1128 163 984 344 
L 984 -1272 
L 422 -1272 
z
M 931 1641 
Q 931 1000 1190 694 
Q 1450 388 1819 388 
Q 2194 388 2461 705 
Q 2728 1022 2728 1688 
Q 2728 2322 2467 2637 
Q 2206 2953 1844 2953 
Q 1484 2953 1207 2617 
Q 931 2281 931 1641 
z
" transform="scale(0.015625)"/>
       <path id="ArialMT-6f" d="M 213 1659 
Q 213 2581 725 3025 
Q 1153 3394 1769 3394 
Q 2453 3394 2887 2945 
Q 3322 2497 3322 1706 
Q 3322 1066 3130 698 
Q 2938 331 2570 128 
Q 2203 -75 1769 -75 
Q 1072 -75 642 372 
Q 213 819 213 1659 
z
M 791 1659 
Q 791 1022 1069 705 
Q 1347 388 1769 388 
Q 2188 388 2466 706 
Q 2744 1025 2744 1678 
Q 2744 2294 2464 2611 
Q 2184 2928 1769 2928 
Q 1347 2928 1069 2612 
Q 791 2297 791 1659 
z
" transform="scale(0.015625)"/>
       <path id="ArialMT-74" d="M 1650 503 
L 1731 6 
Q 1494 -44 1306 -44 
Q 1000 -44 831 53 
Q 663 150 594 308 
Q 525 466 525 972 
L 525 2881 
L 113 2881 
L 113 3319 
L 525 3319 
L 525 4141 
L 1084 4478 
L 1084 3319 
L 1650 3319 
L 1650 2881 
L 1084 2881 
L 1084 941 
Q 1084 700 1114 631 
Q 1144 563 1211 522 
Q 1278 481 1403 481 
Q 1497 481 1650 503 
z
" transform="scale(0.015625)"/>
       <path id="ArialMT-6c" d="M 409 0 
L 409 4581 
L 972 4581 
L 972 0 
L 409 0 
z
" transform="scale(0.015625)"/>
       <path id="ArialMT-56" d="M 1803 0 
L 28 4581 
L 684 4581 
L 1875 1253 
Q 2019 853 2116 503 
Q 2222 878 2363 1253 
L 3600 4581 
L 4219 4581 
L 2425 0 
L 1803 0 
z
" transform="scale(0.015625)"/>
      </defs>
      <use xlink:href="#ArialMT-4d"/>
      <use xlink:href="#ArialMT-65" x="83.300781"/>
      <use xlink:href="#ArialMT-6d" x="138.916016"/>
      <use xlink:href="#ArialMT-62" x="222.216797"/>
      <use xlink:href="#ArialMT-72" x="277.832031"/>
      <use xlink:href="#ArialMT-61" x="311.132812"/>
      <use xlink:href="#ArialMT-6e" x="366.748047"/>
      <use xlink:href="#ArialMT-65" x="422.363281"/>
      <use xlink:href="#ArialMT-20" x="477.978516"/>
      <use xlink:href="#ArialMT-70" x="505.761719"/>
      <use xlink:href="#ArialMT-6f" x="561.376953"/>
      <use xlink:href="#ArialMT-74" x="616.992188"/>
      <use xlink:href="#ArialMT-65" x="644.775391"/>
      <use xlink:href="#ArialMT-6e" x="700.390625"/>
      <use xlink:href="#ArialMT-74" x="756.005859"/>
      <use xlink:href="#ArialMT-69" x="783.789062"/>
      <use xlink:href="#ArialMT-61" x="806.005859"/>
      <use xlink:href="#ArialMT-6c" x="861.621094"/>
      <use xlink:href="#ArialMT-20" x="883.837891"/>
      <use xlink:href="#ArialMT-28" x="911.621094"/>
      <use xlink:href="#ArialMT-6d" x="944.921875"/>
      <use xlink:href="#ArialMT-56" x="1028.222656"/>
      <use xlink:href="#ArialMT-29" x="1094.921875"/>
     </g>
    </g>
   </g>
   <g id="line2d_13">
    <path d="M 92.290909 452.6298 
L 92.493818 463.644229 
L 92.832 468.308347 
L 93.237818 470.751198 
L 93.643636 471.988988 
L 94.117091 472.748125 
L 94.658182 473.182945 
L 95.334545 473.430071 
L 96.484364 473.568924 
L 99.460364 473.612122 
L 159.927273 473.613507 
L 160.130182 448.180386 
L 160.468364 435.504791 
L 160.941818 426.207895 
L 161.550545 418.636275 
L 162.226909 412.8089 
L 163.038545 407.704682 
L 163.917818 403.541192 
L 164.932364 399.837487 
L 166.014545 396.738379 
L 167.164364 394.097481 
L 168.449455 391.696858 
L 169.869818 389.516886 
L 171.493091 387.447655 
L 173.319273 385.484992 
L 175.551273 383.419323 
L 179.474182 380.160309 
L 182.247273 377.734101 
L 183.938182 376.018058 
L 184.952727 374.773106 
L 185.223273 374.17156 
L 185.426182 373.838797 
L 186.102545 373.392681 
L 186.576 372.672668 
L 186.846545 372.273906 
L 187.590545 371.795934 
L 188.199273 371.002925 
L 189.213818 369.214018 
L 189.890182 367.495376 
L 190.228364 366.093667 
L 190.498909 364.092611 
L 190.701818 364.169731 
L 190.904727 364.143917 
L 191.175273 363.694879 
L 191.513455 362.578265 
L 192.257455 359.223357 
L 192.595636 357.116273 
L 193.474909 347.274046 
L 193.677818 343.150644 
L 193.813091 337.401204 
L 193.948364 320.295962 
L 194.016 224.165005 
L 194.083636 253.728163 
L 194.286545 377.864151 
L 194.354182 379.80021 
L 194.557091 371.767416 
L 194.76 367.98063 
L 194.827636 368.103813 
L 195.504 371.83968 
L 195.706909 371.961566 
L 195.977455 371.823633 
L 196.383273 371.281365 
L 196.856727 370.227802 
L 197.330182 368.679714 
L 197.600727 367.249214 
L 197.871273 364.60347 
L 198.074182 364.171051 
L 198.48 363.658421 
L 198.818182 362.874495 
L 199.629818 359.951571 
L 199.900364 357.830656 
L 200.103273 354.516948 
L 200.509091 338.857288 
L 200.644364 327.863439 
L 200.712 310.489154 
L 200.779636 145.743013 
L 200.914909 351.375431 
L 201.050182 378.768484 
L 201.117818 378.563057 
L 201.523636 367.758974 
L 201.591273 367.556954 
L 201.658909 367.581786 
L 202.064727 368.249856 
L 202.2 368.142093 
L 202.402909 367.672661 
L 202.673455 366.358572 
L 202.808727 364.779912 
L 203.011636 361.371536 
L 203.079273 361.21716 
L 203.214545 362.062216 
L 203.552727 364.389754 
L 203.823273 364.920844 
L 204.026182 364.929387 
L 204.161455 364.665331 
L 204.567273 363.258207 
L 204.837818 361.530471 
L 204.973091 361.640386 
L 205.243636 361.860045 
L 205.581818 362.23035 
L 205.92 362.468527 
L 206.258182 362.384893 
L 206.596364 362.082712 
L 207.069818 361.266532 
L 207.610909 359.823113 
L 208.084364 357.872396 
L 208.490182 355.176046 
L 208.828364 351.57913 
L 209.098909 346.437003 
L 209.301818 337.939384 
L 209.437091 317.655016 
L 209.504727 148.270396 
L 209.707636 371.144866 
L 209.842909 381.324426 
L 210.316364 370.117163 
L 210.519273 369.75366 
L 210.722182 369.635782 
L 210.925091 369.150931 
L 211.128 367.906229 
L 211.398545 365.00012 
L 211.466182 365.008925 
L 211.804364 365.598619 
L 211.939636 365.451982 
L 212.277818 363.34278 
L 212.345455 363.42491 
L 212.683636 363.839152 
L 212.886545 363.636204 
L 213.157091 362.780537 
L 213.630545 360.453687 
L 213.968727 357.675294 
L 214.171636 354.306559 
L 214.374545 346.167176 
L 214.577455 333.92158 
L 214.645091 325.344163 
L 214.712727 296.818543 
L 214.780364 186.38603 
L 214.983273 379.456549 
L 215.050909 383.854759 
L 215.118545 382.827976 
L 215.456727 374.724923 
L 215.659636 373.925097 
L 216.133091 373.521585 
L 216.809455 372.03113 
L 217.147636 371.348722 
L 217.485818 370.125949 
L 218.568 364.23985 
L 218.770909 361.573139 
L 219.041455 357.685178 
L 219.379636 355.220722 
L 220.123636 346.474451 
L 220.326545 337.084289 
L 220.394182 329.477754 
L 220.461818 307.529119 
L 220.529455 151.521461 
L 220.664727 356.207884 
L 220.8 381.701487 
L 220.867636 381.027583 
L 221.205818 372.703657 
L 221.273455 372.55063 
L 221.341091 372.668364 
L 221.949818 374.628588 
L 222.152727 374.663418 
L 222.423273 374.439974 
L 222.761455 373.797648 
L 223.099636 372.82545 
L 223.708364 371.950641 
L 224.384727 370.34679 
L 224.858182 368.729738 
L 225.669818 364.454541 
L 226.008 361.435126 
L 226.210909 357.583498 
L 226.481455 350.582637 
L 226.887273 344.44363 
L 227.090182 337.427328 
L 227.225455 322.818346 
L 227.360727 218.23831 
L 227.563636 376.51039 
L 227.631273 379.858332 
L 227.698909 378.851503 
L 228.037091 371.787667 
L 228.24 371.293403 
L 228.578182 371.254909 
L 228.848727 370.243822 
L 229.051636 369.78022 
L 229.322182 370.329847 
L 229.592727 370.684951 
L 229.863273 370.701412 
L 230.269091 370.420825 
L 230.607273 369.918945 
L 230.945455 369.002625 
L 231.351273 367.910194 
L 231.96 366.477654 
L 232.501091 364.525991 
L 233.042182 361.712409 
L 233.380364 358.853866 
L 233.786182 352.571061 
L 234.192 335.333319 
L 234.327273 308.928965 
L 234.394909 148.692645 
L 234.530182 354.189354 
L 234.665455 381.011629 
L 234.733091 380.624507 
L 235.071273 371.6318 
L 235.274182 370.458372 
L 235.612364 369.585039 
L 235.950545 368.883143 
L 236.356364 368.409962 
L 236.626909 367.748404 
L 237.506182 364.70335 
L 237.912 362.844616 
L 238.250182 361.607214 
L 238.588364 360.310544 
L 238.858909 358.35318 
L 239.061818 355.127095 
L 239.738182 332.162981 
L 239.805818 322.932228 
L 239.941091 210.035467 
L 240.144 373.979105 
L 240.211636 377.338042 
L 240.279273 376.332198 
L 240.617455 368.225496 
L 240.888 366.705572 
L 241.090909 365.861428 
L 241.699636 362.169302 
L 241.834909 362.078802 
L 242.037818 362.161445 
L 242.173091 361.944566 
L 242.917091 358.692493 
L 243.187636 356.472074 
L 243.322909 353.685443 
L 243.931636 331.653927 
L 243.999273 321.515963 
L 244.134545 230.544055 
L 244.337455 375.571261 
L 244.405091 378.388003 
L 244.472727 377.265657 
L 244.810909 369.84467 
L 245.013818 369.039367 
L 245.487273 368.752529 
L 245.757818 367.926248 
L 246.028364 366.26348 
L 246.298909 364.877764 
L 246.637091 363.507639 
L 246.907636 361.061877 
L 247.516364 352.437296 
L 247.719273 351.217432 
L 247.922182 348.772653 
L 248.125091 344.104897 
L 248.260364 337.829668 
L 248.395636 318.630661 
L 248.463273 167.285223 
L 248.666182 368.941599 
L 248.801455 380.015442 
L 249.274909 369.093667 
L 249.613091 366.463345 
L 249.883636 363.454871 
L 249.951273 363.524512 
L 250.221818 365.018703 
L 250.492364 365.899239 
L 250.627636 365.937309 
L 250.830545 365.583166 
L 251.101091 364.689058 
L 251.574545 361.922964 
L 251.912727 359.892795 
L 252.048 359.926623 
L 252.318545 360.096667 
L 252.521455 359.888591 
L 252.792 359.16139 
L 253.130182 357.595022 
L 253.468364 355.167982 
L 253.806545 350.900303 
L 254.077091 343.677589 
L 254.212364 335.158644 
L 254.28 325.317319 
L 254.415273 209.016068 
L 254.618182 378.823394 
L 254.685818 381.489085 
L 255.159273 371.8892 
L 255.294545 372.026286 
L 255.565091 372.392787 
L 255.700364 372.277836 
L 255.903273 371.616697 
L 256.106182 370.071253 
L 256.444364 369.344582 
L 257.053091 367.214368 
L 257.526545 364.15451 
L 257.797091 362.578974 
L 257.932364 361.028394 
L 258.202909 356.095039 
L 258.338182 355.797988 
L 258.541091 355.73859 
L 258.879273 354.915709 
L 258.946909 354.944308 
L 259.352727 355.167894 
L 259.555636 354.947426 
L 259.826182 354.178885 
L 260.096727 352.69322 
L 260.367273 350.01412 
L 260.637818 344.789449 
L 260.840727 334.840759 
L 260.908364 326.342551 
L 260.976 297.362666 
L 261.043636 180.027178 
L 261.178909 358.766239 
L 261.314182 380.491361 
L 261.381818 379.694427 
L 261.72 371.344626 
L 261.922909 370.09418 
L 262.125818 369.974049 
L 262.328727 369.868055 
L 262.464 369.617617 
L 262.869818 368.480711 
L 263.140364 367.870171 
L 263.275636 367.284054 
L 263.546182 365.209178 
L 263.749091 365.155899 
L 263.952 365.002937 
L 264.222545 364.319783 
L 264.560727 362.84275 
L 264.831273 360.893611 
L 265.101818 356.915896 
L 265.372364 352.658108 
L 266.048727 348.208298 
L 266.251636 344.042359 
L 266.386909 338.385621 
L 266.522182 322.525825 
L 266.657455 231.414411 
L 266.860364 377.353659 
L 266.928 379.767243 
L 267.198545 370.941676 
L 267.469091 364.477217 
L 267.536727 364.548813 
L 267.807273 366.131139 
L 267.874909 366.085658 
L 268.010182 365.929406 
L 268.213091 366.375873 
L 268.416 366.742549 
L 268.957091 365.948237 
L 269.16 365.70429 
L 269.430545 365.579064 
L 269.633455 365.181908 
L 269.904 364.030724 
L 270.377455 360.509448 
L 270.580364 359.157575 
L 270.715636 356.278443 
L 270.986182 351.365562 
L 271.189091 350.989408 
L 271.324364 350.710048 
L 271.459636 349.793614 
L 271.662545 346.623863 
L 271.865455 338.921801 
L 272.000727 321.307455 
L 272.068364 216.94458 
L 272.136 252.577779 
L 272.338909 379.788108 
L 272.406545 381.599523 
L 272.88 371.352956 
L 273.150545 370.517216 
L 273.353455 369.751068 
L 273.759273 367.311545 
L 274.165091 362.453927 
L 274.300364 363.376039 
L 274.638545 365.8838 
L 274.976727 366.880366 
L 275.179636 367.017196 
L 275.382545 366.867787 
L 275.653091 366.333254 
L 276.058909 364.925917 
L 276.329455 363.34338 
L 276.6 360.550249 
L 277.073455 357.955926 
L 277.614545 354.540447 
L 277.952727 351.486776 
L 278.223273 346.712079 
L 278.426182 338.91934 
L 278.561455 323.08953 
L 278.696727 228.785509 
L 278.899636 378.007407 
L 278.967273 380.19484 
L 279.440727 369.022205 
L 279.643636 368.544173 
L 279.914182 368.423099 
L 280.117091 367.785444 
L 280.252364 366.691284 
L 280.522909 363.31737 
L 280.590545 363.40394 
L 281.131636 365.276323 
L 281.266909 365.259338 
L 281.469818 364.955957 
L 281.808 363.910719 
L 282.213818 361.853906 
L 282.552 358.902255 
L 282.687273 356.567859 
L 283.363636 333.066339 
L 283.431273 325.439377 
L 283.498909 302.332308 
L 283.566545 168.632937 
L 283.701818 354.329532 
L 283.837091 376.450251 
L 283.904727 375.987384 
L 284.310545 366.914572 
L 284.378182 366.832797 
L 284.581091 367.347128 
L 284.851636 367.79382 
L 284.986909 367.713922 
L 285.189818 367.299734 
L 285.460364 366.233425 
L 285.730909 364.272364 
L 286.136727 358.879189 
L 286.339636 359.115587 
L 286.474909 359.146392 
L 286.610182 358.671072 
L 287.151273 355.823577 
L 287.354182 355.551704 
L 287.557091 354.752975 
L 287.827636 352.657834 
L 288.098182 348.777356 
L 288.301091 343.081818 
L 288.436364 334.877394 
L 288.504 325.53988 
L 288.639273 199.929088 
L 288.842182 377.181967 
L 288.909818 379.865221 
L 288.977455 378.272429 
L 289.248 371.941024 
L 289.383273 371.468768 
L 289.586182 371.801949 
L 289.789091 371.951892 
L 289.856727 371.864195 
L 290.194909 370.461585 
L 290.262545 370.492834 
L 290.465455 370.40376 
L 290.736 369.866149 
L 291.141818 368.406419 
L 291.48 366.574328 
L 292.291636 359.775646 
L 292.494545 354.519496 
L 292.832727 347.363342 
L 293.035636 346.742521 
L 293.170909 346.628715 
L 293.306182 345.653575 
L 293.509091 341.686791 
L 293.644364 335.813169 
L 293.779636 316.342364 
L 293.847273 160.822621 
L 294.050182 366.70265 
L 294.185455 378.795856 
L 294.658909 371.973353 
L 294.794182 372.108003 
L 295.2 372.803187 
L 295.402909 372.834598 
L 295.673455 372.638087 
L 296.011636 372.08019 
L 296.214545 371.398629 
L 296.417455 370.094331 
L 296.552727 370.203623 
L 296.823273 370.452655 
L 297.026182 370.332622 
L 297.364364 369.777001 
L 298.446545 367.228739 
L 298.92 365.42903 
L 299.325818 363.142062 
L 299.731636 359.099675 
L 299.934545 355.014136 
L 300.272727 340.941823 
L 300.475636 327.19171 
L 300.543273 312.405997 
L 300.610909 156.055513 
L 300.813818 369.364465 
L 300.949091 378.329657 
L 301.422545 369.636936 
L 301.557818 369.460541 
L 302.098909 369.693148 
L 302.369455 369.405055 
L 302.707636 368.691318 
L 302.910545 367.879121 
L 303.113455 366.304716 
L 303.248727 366.249748 
L 303.451636 366.320022 
L 303.654545 366.113328 
L 303.992727 365.313231 
L 304.398545 363.794867 
L 304.804364 361.259882 
L 305.210182 357.633226 
L 305.413091 354.223048 
L 305.818909 338.44357 
L 305.954182 324.582672 
L 306.021818 290.663327 
L 306.089455 199.321073 
L 306.292364 375.793582 
L 306.36 378.859168 
L 306.427636 377.475282 
L 306.765818 369.059511 
L 306.968727 368.395514 
L 307.509818 368.905686 
L 307.645091 368.709001 
L 308.050909 367.724726 
L 308.389091 366.940618 
L 308.659636 365.708199 
L 308.862545 363.608971 
L 309.065455 360.627289 
L 309.133091 360.412268 
L 309.200727 360.461354 
L 309.606545 361.37507 
L 309.741818 361.18274 
L 309.944727 360.442048 
L 310.147636 359.004332 
L 310.485818 354.83839 
L 310.824 350.886223 
L 311.026909 345.892131 
L 311.162182 338.051344 
L 311.229818 329.132276 
L 311.297455 301.371503 
L 311.365091 169.86106 
L 311.500364 362.207116 
L 311.635636 385.64662 
L 311.770909 381.743275 
L 312.041455 375.246509 
L 312.312 373.721883 
L 312.853091 372.08447 
L 313.258909 371.553604 
L 313.461818 370.878995 
L 313.867636 369.151841 
L 314.273455 368.051939 
L 314.746909 365.74059 
L 315.152727 362.871298 
L 315.626182 359.558805 
L 315.964364 357.033799 
L 316.302545 352.94298 
L 316.708364 343.840502 
L 316.843636 337.05672 
L 316.978909 315.54085 
L 317.046545 141.450796 
L 317.249455 372.00077 
L 317.384727 381.266661 
L 317.790545 371.162257 
L 318.128727 369.177386 
L 318.399273 368.749179 
L 318.669818 368.266457 
L 318.940364 367.304753 
L 319.278545 365.096435 
L 319.549091 361.638122 
L 319.819636 357.282617 
L 319.954909 356.979219 
L 320.157818 357.089947 
L 320.293091 356.850185 
L 320.496 355.708391 
L 321.172364 348.609855 
L 321.375273 343.55758 
L 321.510545 336.710215 
L 321.645818 312.842754 
L 321.713455 137.279311 
L 321.916364 372.431089 
L 321.984 379.800702 
L 322.051636 379.690414 
L 322.457455 369.406084 
L 322.728 368.230592 
L 322.998545 367.217251 
L 323.201455 365.319796 
L 323.539636 359.939988 
L 323.607273 360.040616 
L 324.080727 362.214959 
L 324.216 361.993072 
L 324.486545 360.538281 
L 325.365818 353.922915 
L 325.636364 349.581402 
L 325.839273 342.502737 
L 325.974545 330.556659 
L 326.042182 309.473407 
L 326.109818 145.961087 
L 326.245091 357.182915 
L 326.380364 384.256126 
L 326.448 383.403913 
L 326.786182 373.87 
L 326.989091 373.079837 
L 327.394909 373.204446 
L 327.665455 372.848962 
L 328.071273 371.833818 
L 328.544727 370.063771 
L 328.882909 368.199629 
L 329.694545 360.569627 
L 329.897455 358.143464 
L 329.965091 358.146844 
L 330.168 358.592285 
L 330.235636 358.521512 
L 330.303273 358.20854 
L 330.776727 352.305244 
L 330.844364 352.366723 
L 331.182545 353.044541 
L 331.317818 352.863801 
L 331.520727 351.970217 
L 331.791273 349.305033 
L 332.061818 344.062568 
L 332.264727 334.070567 
L 332.332364 325.232326 
L 332.4 292.167731 
L 332.467636 191.568258 
L 332.670545 375.42537 
L 332.738182 379.719878 
L 332.805818 378.998349 
L 333.144 371.566196 
L 333.346909 370.849925 
L 333.820364 370.796015 
L 334.293818 370.175381 
L 334.632 369.240285 
L 335.173091 367.553436 
L 335.646545 367.588302 
L 335.917091 367.214061 
L 336.255273 366.32627 
L 336.661091 364.6134 
L 336.999273 362.297388 
L 337.202182 359.642799 
L 337.472727 354.617312 
L 338.013818 349.885232 
L 338.284364 343.435187 
L 338.419636 336.702488 
L 338.554909 313.620413 
L 338.622545 137.109913 
L 338.825455 370.790447 
L 338.893091 377.824666 
L 338.960727 377.780745 
L 339.298909 370.486747 
L 339.434182 370.206798 
L 339.975273 371.068901 
L 340.042909 371.028347 
L 340.448727 370.420702 
L 340.651636 370.060109 
L 340.922182 370.191461 
L 341.192727 370.197978 
L 341.463273 369.932348 
L 341.869091 369.191778 
L 342.342545 367.855624 
L 342.883636 365.529888 
L 343.221818 363.24015 
L 343.492364 360.150811 
L 344.371636 343.168921 
L 344.506909 333.017077 
L 344.574545 320.03889 
L 344.642182 177.483971 
L 344.845091 371.877073 
L 344.980364 384.204186 
L 345.386182 375.169049 
L 345.656727 374.289552 
L 345.927273 374.09353 
L 346.333091 373.970905 
L 346.671273 373.520603 
L 347.077091 372.560041 
L 348.362182 368.470509 
L 348.768 367.435953 
L 349.106182 366.427315 
L 349.782545 363.618317 
L 350.053091 361.395693 
L 350.458909 357.334173 
L 350.864727 353.440237 
L 351.405818 340.469155 
L 351.541091 332.294374 
L 351.608727 322.223059 
L 351.744 225.993989 
L 351.946909 375.623155 
L 352.014545 378.211265 
L 352.082182 376.609918 
L 352.488 363.993716 
L 352.555636 363.987357 
L 352.826182 366.320205 
L 353.096727 367.790323 
L 353.299636 368.013102 
L 353.570182 367.711353 
L 353.908364 367.03348 
L 354.314182 365.618489 
L 354.652364 363.538576 
L 355.734545 353.110837 
L 355.869818 349.206718 
L 356.072727 335.902473 
L 356.140364 326.010761 
L 356.275636 205.598123 
L 356.478545 383.834371 
L 356.546182 386.611788 
L 357.019636 374.376535 
L 357.222545 373.823487 
L 357.493091 373.378162 
L 357.763636 371.908864 
L 358.101818 372.064106 
L 358.304727 371.794887 
L 358.710545 370.75858 
L 359.184 368.957929 
L 359.522182 366.954596 
L 359.725091 364.736649 
L 359.995636 360.713225 
L 360.063273 360.749728 
L 360.266182 361.329159 
L 360.333818 361.231108 
L 360.604364 360.539348 
L 360.874909 360.592777 
L 361.145455 360.607747 
L 361.483636 360.248075 
L 361.686545 360.149312 
L 361.889455 359.760022 
L 362.16 358.585931 
L 362.565818 354.828819 
L 362.904 349.393216 
L 363.106909 343.529748 
L 363.242182 335.36749 
L 363.309818 326.850554 
L 363.377455 298.730405 
L 363.445091 177.951963 
L 363.580364 359.925384 
L 363.715636 381.181474 
L 363.850909 377.284259 
L 364.189091 368.384614 
L 364.392 366.835471 
L 364.594909 366.755498 
L 364.730182 366.297629 
L 365.271273 363.233184 
L 365.474182 362.039144 
L 366.218182 353.426876 
L 366.488727 346.25685 
L 366.691636 334.542046 
L 366.759273 324.208113 
L 366.894545 222.569373 
L 367.097455 379.767121 
L 367.165091 381.580395 
L 367.638545 369.092386 
L 367.706182 369.181326 
L 368.314909 371.381536 
L 368.517818 371.367042 
L 368.788364 370.887685 
L 369.058909 370.040067 
L 369.397091 369.100231 
L 369.735273 368.310773 
L 370.141091 366.636645 
L 370.479273 364.155011 
L 370.952727 357.353844 
L 371.020364 357.433569 
L 371.426182 358.800433 
L 371.561455 358.617207 
L 371.832 357.556376 
L 372.170182 355.253635 
L 372.508364 351.302255 
L 372.778909 345.003491 
L 372.914182 338.299112 
L 373.049455 317.646274 
L 373.117091 143.546572 
L 373.32 371.051109 
L 373.387636 378.793739 
L 373.455273 377.463849 
L 373.725818 367.992442 
L 373.861091 367.47851 
L 374.064 369.030215 
L 374.402182 371.376424 
L 374.605091 371.837753 
L 374.943273 371.887258 
L 375.281455 372.104356 
L 375.552 372.01358 
L 375.890182 371.627939 
L 376.363636 370.705006 
L 377.04 368.917781 
L 377.716364 365.996843 
L 377.919273 364.216802 
L 378.189818 363.833066 
L 378.460364 363.158368 
L 378.933818 361.040689 
L 379.339636 358.157198 
L 379.677818 354.006635 
L 379.948364 347.340163 
L 380.083636 339.618437 
L 380.218909 313.107342 
L 380.286545 135.650507 
L 380.421818 357.011846 
L 380.557091 387.000756 
L 380.624727 386.155156 
L 380.962909 376.753009 
L 381.165818 375.987587 
L 381.639273 375.878298 
L 381.977455 375.330237 
L 382.586182 373.79185 
L 383.262545 371.510832 
L 383.803636 368.988708 
L 384.277091 365.307646 
L 384.615273 363.155559 
L 384.953455 363.424494 
L 385.156364 363.076049 
L 385.426909 362.103208 
L 385.765091 359.940035 
L 386.103273 356.105205 
L 386.712 346.112662 
L 386.914909 337.945139 
L 387.050182 316.864742 
L 387.117818 137.720641 
L 387.320727 372.26975 
L 387.456 381.827522 
L 387.794182 373.992391 
L 387.929455 373.57711 
L 388.132364 373.923115 
L 388.402909 374.293042 
L 388.605818 374.277267 
L 388.876364 374.003535 
L 389.349818 373.119958 
L 389.890909 371.659396 
L 390.702545 368.731464 
L 391.176 366.274529 
L 391.581818 363.217636 
L 391.852364 362.278472 
L 392.055273 360.64713 
L 392.596364 355.500224 
L 392.866909 352.58034 
L 393.002182 348.713738 
L 393.205091 336.245916 
L 393.272727 327.992683 
L 393.340364 303.88485 
L 393.408 164.693701 
L 393.543273 360.443249 
L 393.678545 385.011025 
L 393.813818 381.629041 
L 394.084364 375.441093 
L 394.287273 374.569636 
L 394.963636 374.009268 
L 395.437091 372.959815 
L 396.654545 368.869929 
L 397.195636 365.796214 
L 398.954182 350.890031 
L 399.157091 345.633731 
L 399.36 336.604138 
L 399.495273 316.783938 
L 399.562909 157.496585 
L 399.765818 369.29028 
L 399.901091 379.37882 
L 400.306909 369.872583 
L 400.509818 369.254565 
L 400.848 369.216535 
L 401.050909 368.874712 
L 401.321455 367.904577 
L 401.524364 366.259481 
L 401.794909 363.051077 
L 401.930182 363.478088 
L 402.268364 364.751527 
L 402.403636 364.803217 
L 402.606545 364.530539 
L 402.877091 363.680463 
L 403.553455 360.166705 
L 403.891636 356.990191 
L 404.229818 351.074399 
L 404.365091 347.083479 
L 404.568 332.65221 
L 404.635636 319.3992 
L 404.703273 163.021557 
L 404.906182 373.51043 
L 405.041455 384.249835 
L 405.447273 373.040207 
L 405.582545 372.752885 
L 405.853091 372.88795 
L 405.988364 372.878769 
L 406.597091 373.221148 
L 406.8 373.169079 
L 407.002909 372.896518 
L 408.085091 370.649334 
L 408.964364 367.280637 
L 409.370182 365.362116 
L 409.843636 362.80854 
L 410.114182 361.208478 
L 410.384727 358.200104 
L 410.722909 352.251599 
L 410.993455 336.600634 
L 411.061091 328.104161 
L 411.128727 302.076949 
L 411.196364 171.248496 
L 411.331636 362.579054 
L 411.466909 384.563664 
L 411.940364 373.467688 
L 412.008 373.438939 
L 412.616727 374.204512 
L 412.887273 373.980422 
L 413.293091 373.303562 
L 414.172364 371.203686 
L 414.645818 369.719428 
L 415.254545 367.442624 
L 415.728 365.767962 
L 416.133818 363.471203 
L 416.404364 360.899784 
L 416.607273 355.988775 
L 417.013091 348.437277 
L 417.351273 342.3035 
L 417.486545 336.463253 
L 417.621818 318.570485 
L 417.689455 200.335392 
L 417.757091 268.609028 
L 417.96 376.590215 
L 418.027636 378.351417 
L 418.568727 369.122865 
L 418.974545 368.496164 
L 419.177455 367.219339 
L 419.312727 367.270596 
L 419.515636 367.343753 
L 419.650909 367.126104 
L 420.530182 363.521704 
L 420.936 359.345049 
L 421.341818 360.18839 
L 421.477091 360.002781 
L 421.68 359.26235 
L 421.950545 357.391368 
L 422.288727 353.664697 
L 422.626909 346.587286 
L 422.829818 338.058481 
L 422.965091 319.807117 
L 423.032727 193.619264 
L 423.100364 267.685969 
L 423.303273 379.101614 
L 423.370909 380.231995 
L 423.844364 369.491599 
L 424.047273 369.114608 
L 424.317818 368.991666 
L 424.453091 368.685628 
L 424.858909 367.355942 
L 425.264727 366.784156 
L 425.535273 365.733039 
L 426.008727 362.1979 
L 426.144 361.314808 
L 426.549818 356.180495 
L 426.888 356.960686 
L 426.955636 356.910538 
L 427.090909 356.497156 
L 427.293818 355.072935 
L 427.632 349.867105 
L 427.902545 343.319897 
L 428.037818 336.261203 
L 428.173091 310.242218 
L 428.240727 143.220564 
L 428.376 352.57468 
L 428.511273 379.535826 
L 428.578909 379.022759 
L 429.12 361.434461 
L 429.187636 361.282885 
L 429.322909 362.84432 
L 429.728727 368.510306 
L 430.066909 370.178312 
L 430.337455 370.587271 
L 430.472727 370.630061 
L 430.675636 402.369553 
L 431.081455 425.45747 
L 431.757818 450.398509 
L 432.231273 460.794583 
L 432.704727 466.374338 
L 433.178182 469.374568 
L 433.651636 471.088421 
L 434.192727 472.212825 
L 434.733818 472.841041 
L 435.342545 473.222741 
L 436.154182 473.460865 
L 437.506909 473.587982 
L 441.159273 473.618979 
L 498.109091 473.613095 
L 498.109091 473.613095 
" clip-path="url(#p4f1d44f11f)" style="fill: none; stroke: #000000; stroke-width: 1.5; stroke-linecap: square"/>
   </g>
   <g id="line2d_14">
    <path d="M 497.973818 408.87 
" clip-path="url(#p4f1d44f11f)" style="fill: none; stroke: #000000; stroke-width: 1.5; stroke-linecap: square"/>
   </g>
   <g id="line2d_15">
    <path d="M 430.472727 368.1 
L 430.472727 365.382 
L 430.472727 362.664 
L 430.472727 359.946 
L 430.472727 357.228 
L 430.472727 354.51 
L 430.472727 351.792 
L 430.472727 349.074 
L 430.472727 346.356 
L 430.472727 343.638 
L 430.472727 340.92 
L 430.472727 338.202 
L 430.472727 335.484 
L 430.472727 332.766 
L 430.472727 330.048 
L 430.472727 327.33 
L 430.472727 324.612 
L 430.472727 321.894 
L 430.472727 319.176 
L 430.472727 316.458 
" clip-path="url(#p4f1d44f11f)" style="fill: none; stroke: #000000; stroke-width: 1.5; stroke-linecap: square"/>
   </g>
   <g id="patch_3">
    <path d="M 72 504 
L 72 69.12 
" style="fill: none; stroke: #000000; stroke-width: 0.8; stroke-linejoin: miter; stroke-linecap: square"/>
   </g>
   <g id="patch_4">
    <path d="M 518.4 504 
L 518.4 69.12 
" style="fill: none; stroke: #000000; stroke-width: 0.8; stroke-linejoin: miter; stroke-linecap: square"/>
   </g>
   <g id="patch_5">
    <path d="M 72 504 
L 518.4 504 
" style="fill: none; stroke: #000000; stroke-width: 0.8; stroke-linejoin: miter; stroke-linecap: square"/>
   </g>
   <g id="patch_6">
    <path d="M 72 69.12 
L 518.4 69.12 
" style="fill: none; stroke: #000000; stroke-width: 0.8; stroke-linejoin: miter; stroke-linecap: square"/>
   </g>
   <g id="text_15">
    <!-- 500 ms -->
    <g transform="translate(497.973818 406.152)scale(0.22 -0.22)">
     <defs>
      <path id="ArialMT-35" d="M 266 1200 
L 856 1250 
Q 922 819 1161 601 
Q 1400 384 1738 384 
Q 2144 384 2425 690 
Q 2706 997 2706 1503 
Q 2706 1984 2436 2262 
Q 2166 2541 1728 2541 
Q 1456 2541 1237 2417 
Q 1019 2294 894 2097 
L 366 2166 
L 809 4519 
L 3088 4519 
L 3088 3981 
L 1259 3981 
L 1013 2750 
Q 1425 3038 1878 3038 
Q 2478 3038 2890 2622 
Q 3303 2206 3303 1553 
Q 3303 931 2941 478 
Q 2500 -78 1738 -78 
Q 1113 -78 717 272 
Q 322 622 266 1200 
z
" transform="scale(0.015625)"/>
      <path id="ArialMT-30" d="M 266 2259 
Q 266 3072 433 3567 
Q 600 4063 929 4331 
Q 1259 4600 1759 4600 
Q 2128 4600 2406 4451 
Q 2684 4303 2865 4023 
Q 3047 3744 3150 3342 
Q 3253 2941 3253 2259 
Q 3253 1453 3087 958 
Q 2922 463 2592 192 
Q 2263 -78 1759 -78 
Q 1097 -78 719 397 
Q 266 969 266 2259 
z
M 844 2259 
Q 844 1131 1108 757 
Q 1372 384 1759 384 
Q 2147 384 2411 759 
Q 2675 1134 2675 2259 
Q 2675 3391 2411 3762 
Q 2147 4134 1753 4134 
Q 1366 4134 1134 3806 
Q 844 3388 844 2259 
z
" transform="scale(0.015625)"/>
     </defs>
     <use xlink:href="#ArialMT-35"/>
     <use xlink:href="#ArialMT-30" x="55.615234"/>
     <use xlink:href="#ArialMT-30" x="111.230469"/>
     <use xlink:href="#ArialMT-20" x="166.845703"/>
     <use xlink:href="#ArialMT-6d" x="194.628906"/>
     <use xlink:href="#ArialMT-73" x="277.929688"/>
    </g>
   </g>
   <g id="text_16">
    <!-- 20 mV -->
    <g transform="translate(504.737455 321.894)scale(0.22 -0.22)">
     <defs>
      <path id="ArialMT-32" d="M 3222 541 
L 3222 0 
L 194 0 
Q 188 203 259 391 
Q 375 700 629 1000 
Q 884 1300 1366 1694 
Q 2113 2306 2375 2664 
Q 2638 3022 2638 3341 
Q 2638 3675 2398 3904 
Q 2159 4134 1775 4134 
Q 1369 4134 1125 3890 
Q 881 3647 878 3216 
L 300 3275 
Q 359 3922 746 4261 
Q 1134 4600 1788 4600 
Q 2447 4600 2831 4234 
Q 3216 3869 3216 3328 
Q 3216 3053 3103 2787 
Q 2991 2522 2730 2228 
Q 2469 1934 1863 1422 
Q 1356 997 1212 845 
Q 1069 694 975 541 
L 3222 541 
z
" transform="scale(0.015625)"/>
     </defs>
     <use xlink:href="#ArialMT-32"/>
     <use xlink:href="#ArialMT-30" x="55.615234"/>
     <use xlink:href="#ArialMT-20" x="111.230469"/>
     <use xlink:href="#ArialMT-6d" x="139.013672"/>
     <use xlink:href="#ArialMT-56" x="222.314453"/>
    </g>
   </g>
   <g id="text_17">
    <!--  Plotting FS, trace number 14235  -->
    <g transform="translate(130.732812 63.12)scale(0.22 -0.22)">
     <defs>
      <path id="ArialMT-50" d="M 494 0 
L 494 4581 
L 2222 4581 
Q 2678 4581 2919 4538 
Q 3256 4481 3484 4323 
Q 3713 4166 3852 3881 
Q 3991 3597 3991 3256 
Q 3991 2672 3619 2267 
Q 3247 1863 2275 1863 
L 1100 1863 
L 1100 0 
L 494 0 
z
M 1100 2403 
L 2284 2403 
Q 2872 2403 3119 2622 
Q 3366 2841 3366 3238 
Q 3366 3525 3220 3729 
Q 3075 3934 2838 4000 
Q 2684 4041 2272 4041 
L 1100 4041 
L 1100 2403 
z
" transform="scale(0.015625)"/>
      <path id="ArialMT-67" d="M 319 -275 
L 866 -356 
Q 900 -609 1056 -725 
Q 1266 -881 1628 -881 
Q 2019 -881 2231 -725 
Q 2444 -569 2519 -288 
Q 2563 -116 2559 434 
Q 2191 0 1641 0 
Q 956 0 581 494 
Q 206 988 206 1678 
Q 206 2153 378 2554 
Q 550 2956 876 3175 
Q 1203 3394 1644 3394 
Q 2231 3394 2613 2919 
L 2613 3319 
L 3131 3319 
L 3131 450 
Q 3131 -325 2973 -648 
Q 2816 -972 2473 -1159 
Q 2131 -1347 1631 -1347 
Q 1038 -1347 672 -1080 
Q 306 -813 319 -275 
z
M 784 1719 
Q 784 1066 1043 766 
Q 1303 466 1694 466 
Q 2081 466 2343 764 
Q 2606 1063 2606 1700 
Q 2606 2309 2336 2618 
Q 2066 2928 1684 2928 
Q 1309 2928 1046 2623 
Q 784 2319 784 1719 
z
" transform="scale(0.015625)"/>
      <path id="ArialMT-46" d="M 525 0 
L 525 4581 
L 3616 4581 
L 3616 4041 
L 1131 4041 
L 1131 2622 
L 3281 2622 
L 3281 2081 
L 1131 2081 
L 1131 0 
L 525 0 
z
" transform="scale(0.015625)"/>
      <path id="ArialMT-53" d="M 288 1472 
L 859 1522 
Q 900 1178 1048 958 
Q 1197 738 1509 602 
Q 1822 466 2213 466 
Q 2559 466 2825 569 
Q 3091 672 3220 851 
Q 3350 1031 3350 1244 
Q 3350 1459 3225 1620 
Q 3100 1781 2813 1891 
Q 2628 1963 1997 2114 
Q 1366 2266 1113 2400 
Q 784 2572 623 2826 
Q 463 3081 463 3397 
Q 463 3744 659 4045 
Q 856 4347 1234 4503 
Q 1613 4659 2075 4659 
Q 2584 4659 2973 4495 
Q 3363 4331 3572 4012 
Q 3781 3694 3797 3291 
L 3216 3247 
Q 3169 3681 2898 3903 
Q 2628 4125 2100 4125 
Q 1550 4125 1298 3923 
Q 1047 3722 1047 3438 
Q 1047 3191 1225 3031 
Q 1400 2872 2139 2705 
Q 2878 2538 3153 2413 
Q 3553 2228 3743 1945 
Q 3934 1663 3934 1294 
Q 3934 928 3725 604 
Q 3516 281 3123 101 
Q 2731 -78 2241 -78 
Q 1619 -78 1198 103 
Q 778 284 539 648 
Q 300 1013 288 1472 
z
" transform="scale(0.015625)"/>
      <path id="ArialMT-2c" d="M 569 0 
L 569 641 
L 1209 641 
L 1209 0 
Q 1209 -353 1084 -570 
Q 959 -788 688 -906 
L 531 -666 
Q 709 -588 793 -436 
Q 878 -284 888 0 
L 569 0 
z
" transform="scale(0.015625)"/>
      <path id="ArialMT-63" d="M 2588 1216 
L 3141 1144 
Q 3050 572 2676 248 
Q 2303 -75 1759 -75 
Q 1078 -75 664 370 
Q 250 816 250 1647 
Q 250 2184 428 2587 
Q 606 2991 970 3192 
Q 1334 3394 1763 3394 
Q 2303 3394 2647 3120 
Q 2991 2847 3088 2344 
L 2541 2259 
Q 2463 2594 2264 2762 
Q 2066 2931 1784 2931 
Q 1359 2931 1093 2626 
Q 828 2322 828 1663 
Q 828 994 1084 691 
Q 1341 388 1753 388 
Q 2084 388 2306 591 
Q 2528 794 2588 1216 
z
" transform="scale(0.015625)"/>
      <path id="ArialMT-75" d="M 2597 0 
L 2597 488 
Q 2209 -75 1544 -75 
Q 1250 -75 995 37 
Q 741 150 617 320 
Q 494 491 444 738 
Q 409 903 409 1263 
L 409 3319 
L 972 3319 
L 972 1478 
Q 972 1038 1006 884 
Q 1059 663 1231 536 
Q 1403 409 1656 409 
Q 1909 409 2131 539 
Q 2353 669 2445 892 
Q 2538 1116 2538 1541 
L 2538 3319 
L 3100 3319 
L 3100 0 
L 2597 0 
z
" transform="scale(0.015625)"/>
      <path id="ArialMT-31" d="M 2384 0 
L 1822 0 
L 1822 3584 
Q 1619 3391 1289 3197 
Q 959 3003 697 2906 
L 697 3450 
Q 1169 3672 1522 3987 
Q 1875 4303 2022 4600 
L 2384 4600 
L 2384 0 
z
" transform="scale(0.015625)"/>
      <path id="ArialMT-34" d="M 2069 0 
L 2069 1097 
L 81 1097 
L 81 1613 
L 2172 4581 
L 2631 4581 
L 2631 1613 
L 3250 1613 
L 3250 1097 
L 2631 1097 
L 2631 0 
L 2069 0 
z
M 2069 1613 
L 2069 3678 
L 634 1613 
L 2069 1613 
z
" transform="scale(0.015625)"/>
      <path id="ArialMT-33" d="M 269 1209 
L 831 1284 
Q 928 806 1161 595 
Q 1394 384 1728 384 
Q 2125 384 2398 659 
Q 2672 934 2672 1341 
Q 2672 1728 2419 1979 
Q 2166 2231 1775 2231 
Q 1616 2231 1378 2169 
L 1441 2663 
Q 1497 2656 1531 2656 
Q 1891 2656 2178 2843 
Q 2466 3031 2466 3422 
Q 2466 3731 2256 3934 
Q 2047 4138 1716 4138 
Q 1388 4138 1169 3931 
Q 950 3725 888 3313 
L 325 3413 
Q 428 3978 793 4289 
Q 1159 4600 1703 4600 
Q 2078 4600 2393 4439 
Q 2709 4278 2876 4000 
Q 3044 3722 3044 3409 
Q 3044 3113 2884 2869 
Q 2725 2625 2413 2481 
Q 2819 2388 3044 2092 
Q 3269 1797 3269 1353 
Q 3269 753 2831 336 
Q 2394 -81 1725 -81 
Q 1122 -81 723 278 
Q 325 638 269 1209 
z
" transform="scale(0.015625)"/>
     </defs>
     <use xlink:href="#ArialMT-20"/>
     <use xlink:href="#ArialMT-50" x="27.783203"/>
     <use xlink:href="#ArialMT-6c" x="94.482422"/>
     <use xlink:href="#ArialMT-6f" x="116.699219"/>
     <use xlink:href="#ArialMT-74" x="172.314453"/>
     <use xlink:href="#ArialMT-74" x="200.097656"/>
     <use xlink:href="#ArialMT-69" x="227.880859"/>
     <use xlink:href="#ArialMT-6e" x="250.097656"/>
     <use xlink:href="#ArialMT-67" x="305.712891"/>
     <use xlink:href="#ArialMT-20" x="361.328125"/>
     <use xlink:href="#ArialMT-46" x="389.111328"/>
     <use xlink:href="#ArialMT-53" x="450.195312"/>
     <use xlink:href="#ArialMT-2c" x="516.894531"/>
     <use xlink:href="#ArialMT-20" x="544.677734"/>
     <use xlink:href="#ArialMT-74" x="572.460938"/>
     <use xlink:href="#ArialMT-72" x="600.244141"/>
     <use xlink:href="#ArialMT-61" x="633.544922"/>
     <use xlink:href="#ArialMT-63" x="689.160156"/>
     <use xlink:href="#ArialMT-65" x="739.160156"/>
     <use xlink:href="#ArialMT-20" x="794.775391"/>
     <use xlink:href="#ArialMT-6e" x="822.558594"/>
     <use xlink:href="#ArialMT-75" x="878.173828"/>
     <use xlink:href="#ArialMT-6d" x="933.789062"/>
     <use xlink:href="#ArialMT-62" x="1017.089844"/>
     <use xlink:href="#ArialMT-65" x="1072.705078"/>
     <use xlink:href="#ArialMT-72" x="1128.320312"/>
     <use xlink:href="#ArialMT-20" x="1161.621094"/>
     <use xlink:href="#ArialMT-31" x="1189.404297"/>
     <use xlink:href="#ArialMT-34" x="1245.019531"/>
     <use xlink:href="#ArialMT-32" x="1300.634766"/>
     <use xlink:href="#ArialMT-33" x="1356.25"/>
     <use xlink:href="#ArialMT-35" x="1411.865234"/>
     <use xlink:href="#ArialMT-20" x="1467.480469"/>
    </g>
   </g>
  </g>
 </g>
 <defs>
  <clipPath id="p4f1d44f11f">
   <rect x="72" y="69.12" width="446.4" height="434.88"/>
  </clipPath>
 </defs>
</svg>
