<?xml version="1.0" encoding="utf-8" standalone="no"?>
<!DOCTYPE svg PUBLIC "-//W3C//DTD SVG 1.1//EN"
  "http://www.w3.org/Graphics/SVG/1.1/DTD/svg11.dtd">
<svg xmlns:xlink="http://www.w3.org/1999/xlink" width="576pt" height="576pt" viewBox="0 0 576 576" xmlns="http://www.w3.org/2000/svg" version="1.1">
 <metadata>
  <rdf:RDF xmlns:dc="http://purl.org/dc/elements/1.1/" xmlns:cc="http://creativecommons.org/ns#" xmlns:rdf="http://www.w3.org/1999/02/22-rdf-syntax-ns#">
   <cc:Work>
    <dc:type rdf:resource="http://purl.org/dc/dcmitype/StillImage"/>
    <dc:date>2022-10-30T19:57:09.969141</dc:date>
    <dc:format>image/svg+xml</dc:format>
    <dc:creator>
     <cc:Agent>
      <dc:title>Matplotlib v3.5.2, https://matplotlib.org/</dc:title>
     </cc:Agent>
    </dc:creator>
   </cc:Work>
  </rdf:RDF>
 </metadata>
 <defs>
  <style type="text/css">*{stroke-linejoin: round; stroke-linecap: butt}</style>
 </defs>
 <g id="figure_1">
  <g id="patch_1">
   <path d="M 0 576 
L 576 576 
L 576 0 
L 0 0 
L 0 576 
z
" style="fill: none"/>
  </g>
  <g id="axes_1">
   <g id="patch_2">
    <path d="M 72 504 
L 518.4 504 
L 518.4 69.12 
L 72 69.12 
z
" style="fill: #ffffff"/>
   </g>
   <g id="matplotlib.axis_1">
    <g id="xtick_1">
     <g id="line2d_1">
      <defs>
       <path id="mb628990e0c" d="M 0 0 
L 0 3.5 
" style="stroke: #000000; stroke-width: 0.8"/>
      </defs>
      <g>
       <use xlink:href="#mb628990e0c" x="92.290909" y="504" style="stroke: #000000; stroke-width: 0.8"/>
      </g>
     </g>
     <g id="text_1">
      <!-- 0 -->
      <g transform="translate(85.292159 527.716563)scale(0.22 -0.22)">
       <defs>
        <path id="DejaVuSans-30" d="M 2034 4250 
Q 1547 4250 1301 3770 
Q 1056 3291 1056 2328 
Q 1056 1369 1301 889 
Q 1547 409 2034 409 
Q 2525 409 2770 889 
Q 3016 1369 3016 2328 
Q 3016 3291 2770 3770 
Q 2525 4250 2034 4250 
z
M 2034 4750 
Q 2819 4750 3233 4129 
Q 3647 3509 3647 2328 
Q 3647 1150 3233 529 
Q 2819 -91 2034 -91 
Q 1250 -91 836 529 
Q 422 1150 422 2328 
Q 422 3509 836 4129 
Q 1250 4750 2034 4750 
z
" transform="scale(0.015625)"/>
       </defs>
       <use xlink:href="#DejaVuSans-30"/>
      </g>
     </g>
    </g>
    <g id="xtick_2">
     <g id="line2d_2">
      <g>
       <use xlink:href="#mb628990e0c" x="227.563636" y="504" style="stroke: #000000; stroke-width: 0.8"/>
      </g>
     </g>
     <g id="text_2">
      <!-- 1000 -->
      <g transform="translate(199.568636 527.716563)scale(0.22 -0.22)">
       <defs>
        <path id="DejaVuSans-31" d="M 794 531 
L 1825 531 
L 1825 4091 
L 703 3866 
L 703 4441 
L 1819 4666 
L 2450 4666 
L 2450 531 
L 3481 531 
L 3481 0 
L 794 0 
L 794 531 
z
" transform="scale(0.015625)"/>
       </defs>
       <use xlink:href="#DejaVuSans-31"/>
       <use xlink:href="#DejaVuSans-30" x="63.623047"/>
       <use xlink:href="#DejaVuSans-30" x="127.246094"/>
       <use xlink:href="#DejaVuSans-30" x="190.869141"/>
      </g>
     </g>
    </g>
    <g id="xtick_3">
     <g id="line2d_3">
      <g>
       <use xlink:href="#mb628990e0c" x="362.836364" y="504" style="stroke: #000000; stroke-width: 0.8"/>
      </g>
     </g>
     <g id="text_3">
      <!-- 2000 -->
      <g transform="translate(334.841364 527.716563)scale(0.22 -0.22)">
       <defs>
        <path id="DejaVuSans-32" d="M 1228 531 
L 3431 531 
L 3431 0 
L 469 0 
L 469 531 
Q 828 903 1448 1529 
Q 2069 2156 2228 2338 
Q 2531 2678 2651 2914 
Q 2772 3150 2772 3378 
Q 2772 3750 2511 3984 
Q 2250 4219 1831 4219 
Q 1534 4219 1204 4116 
Q 875 4013 500 3803 
L 500 4441 
Q 881 4594 1212 4672 
Q 1544 4750 1819 4750 
Q 2544 4750 2975 4387 
Q 3406 4025 3406 3419 
Q 3406 3131 3298 2873 
Q 3191 2616 2906 2266 
Q 2828 2175 2409 1742 
Q 1991 1309 1228 531 
z
" transform="scale(0.015625)"/>
       </defs>
       <use xlink:href="#DejaVuSans-32"/>
       <use xlink:href="#DejaVuSans-30" x="63.623047"/>
       <use xlink:href="#DejaVuSans-30" x="127.246094"/>
       <use xlink:href="#DejaVuSans-30" x="190.869141"/>
      </g>
     </g>
    </g>
    <g id="xtick_4">
     <g id="line2d_4">
      <g>
       <use xlink:href="#mb628990e0c" x="498.109091" y="504" style="stroke: #000000; stroke-width: 0.8"/>
      </g>
     </g>
     <g id="text_4">
      <!-- 3000 -->
      <g transform="translate(470.114091 527.716563)scale(0.22 -0.22)">
       <defs>
        <path id="DejaVuSans-33" d="M 2597 2516 
Q 3050 2419 3304 2112 
Q 3559 1806 3559 1356 
Q 3559 666 3084 287 
Q 2609 -91 1734 -91 
Q 1441 -91 1130 -33 
Q 819 25 488 141 
L 488 750 
Q 750 597 1062 519 
Q 1375 441 1716 441 
Q 2309 441 2620 675 
Q 2931 909 2931 1356 
Q 2931 1769 2642 2001 
Q 2353 2234 1838 2234 
L 1294 2234 
L 1294 2753 
L 1863 2753 
Q 2328 2753 2575 2939 
Q 2822 3125 2822 3475 
Q 2822 3834 2567 4026 
Q 2313 4219 1838 4219 
Q 1578 4219 1281 4162 
Q 984 4106 628 3988 
L 628 4550 
Q 988 4650 1302 4700 
Q 1616 4750 1894 4750 
Q 2613 4750 3031 4423 
Q 3450 4097 3450 3541 
Q 3450 3153 3228 2886 
Q 3006 2619 2597 2516 
z
" transform="scale(0.015625)"/>
       </defs>
       <use xlink:href="#DejaVuSans-33"/>
       <use xlink:href="#DejaVuSans-30" x="63.623047"/>
       <use xlink:href="#DejaVuSans-30" x="127.246094"/>
       <use xlink:href="#DejaVuSans-30" x="190.869141"/>
      </g>
     </g>
    </g>
    <g id="text_5">
     <!-- Time(ms) -->
     <g transform="translate(249.182187 552.307188)scale(0.22 -0.22)">
      <defs>
       <path id="ArialMT-54" d="M 1659 0 
L 1659 4041 
L 150 4041 
L 150 4581 
L 3781 4581 
L 3781 4041 
L 2266 4041 
L 2266 0 
L 1659 0 
z
" transform="scale(0.015625)"/>
       <path id="ArialMT-69" d="M 425 3934 
L 425 4581 
L 988 4581 
L 988 3934 
L 425 3934 
z
M 425 0 
L 425 3319 
L 988 3319 
L 988 0 
L 425 0 
z
" transform="scale(0.015625)"/>
       <path id="ArialMT-6d" d="M 422 0 
L 422 3319 
L 925 3319 
L 925 2853 
Q 1081 3097 1340 3245 
Q 1600 3394 1931 3394 
Q 2300 3394 2536 3241 
Q 2772 3088 2869 2813 
Q 3263 3394 3894 3394 
Q 4388 3394 4653 3120 
Q 4919 2847 4919 2278 
L 4919 0 
L 4359 0 
L 4359 2091 
Q 4359 2428 4304 2576 
Q 4250 2725 4106 2815 
Q 3963 2906 3769 2906 
Q 3419 2906 3187 2673 
Q 2956 2441 2956 1928 
L 2956 0 
L 2394 0 
L 2394 2156 
Q 2394 2531 2256 2718 
Q 2119 2906 1806 2906 
Q 1569 2906 1367 2781 
Q 1166 2656 1075 2415 
Q 984 2175 984 1722 
L 984 0 
L 422 0 
z
" transform="scale(0.015625)"/>
       <path id="ArialMT-65" d="M 2694 1069 
L 3275 997 
Q 3138 488 2766 206 
Q 2394 -75 1816 -75 
Q 1088 -75 661 373 
Q 234 822 234 1631 
Q 234 2469 665 2931 
Q 1097 3394 1784 3394 
Q 2450 3394 2872 2941 
Q 3294 2488 3294 1666 
Q 3294 1616 3291 1516 
L 816 1516 
Q 847 969 1125 678 
Q 1403 388 1819 388 
Q 2128 388 2347 550 
Q 2566 713 2694 1069 
z
M 847 1978 
L 2700 1978 
Q 2663 2397 2488 2606 
Q 2219 2931 1791 2931 
Q 1403 2931 1139 2672 
Q 875 2413 847 1978 
z
" transform="scale(0.015625)"/>
       <path id="ArialMT-28" d="M 1497 -1347 
Q 1031 -759 709 28 
Q 388 816 388 1659 
Q 388 2403 628 3084 
Q 909 3875 1497 4659 
L 1900 4659 
Q 1522 4009 1400 3731 
Q 1209 3300 1100 2831 
Q 966 2247 966 1656 
Q 966 153 1900 -1347 
L 1497 -1347 
z
" transform="scale(0.015625)"/>
       <path id="ArialMT-73" d="M 197 991 
L 753 1078 
Q 800 744 1014 566 
Q 1228 388 1613 388 
Q 2000 388 2187 545 
Q 2375 703 2375 916 
Q 2375 1106 2209 1216 
Q 2094 1291 1634 1406 
Q 1016 1563 777 1677 
Q 538 1791 414 1992 
Q 291 2194 291 2438 
Q 291 2659 392 2848 
Q 494 3038 669 3163 
Q 800 3259 1026 3326 
Q 1253 3394 1513 3394 
Q 1903 3394 2198 3281 
Q 2494 3169 2634 2976 
Q 2775 2784 2828 2463 
L 2278 2388 
Q 2241 2644 2061 2787 
Q 1881 2931 1553 2931 
Q 1166 2931 1000 2803 
Q 834 2675 834 2503 
Q 834 2394 903 2306 
Q 972 2216 1119 2156 
Q 1203 2125 1616 2013 
Q 2213 1853 2448 1751 
Q 2684 1650 2818 1456 
Q 2953 1263 2953 975 
Q 2953 694 2789 445 
Q 2625 197 2315 61 
Q 2006 -75 1616 -75 
Q 969 -75 630 194 
Q 291 463 197 991 
z
" transform="scale(0.015625)"/>
       <path id="ArialMT-29" d="M 791 -1347 
L 388 -1347 
Q 1322 153 1322 1656 
Q 1322 2244 1188 2822 
Q 1081 3291 891 3722 
Q 769 4003 388 4659 
L 791 4659 
Q 1378 3875 1659 3084 
Q 1900 2403 1900 1659 
Q 1900 816 1576 28 
Q 1253 -759 791 -1347 
z
" transform="scale(0.015625)"/>
      </defs>
      <use xlink:href="#ArialMT-54"/>
      <use xlink:href="#ArialMT-69" x="57.333984"/>
      <use xlink:href="#ArialMT-6d" x="79.550781"/>
      <use xlink:href="#ArialMT-65" x="162.851562"/>
      <use xlink:href="#ArialMT-28" x="218.466797"/>
      <use xlink:href="#ArialMT-6d" x="251.767578"/>
      <use xlink:href="#ArialMT-73" x="335.068359"/>
      <use xlink:href="#ArialMT-29" x="385.068359"/>
     </g>
    </g>
   </g>
   <g id="matplotlib.axis_2">
    <g id="ytick_1">
     <g id="line2d_5">
      <defs>
       <path id="m81ce975668" d="M 0 0 
L -3.5 0 
" style="stroke: #000000; stroke-width: 0.8"/>
      </defs>
      <g>
       <use xlink:href="#m81ce975668" x="72" y="476.82" style="stroke: #000000; stroke-width: 0.8"/>
      </g>
     </g>
     <g id="text_6">
      <!-- −100 -->
      <g transform="translate(4.572187 485.178281)scale(0.22 -0.22)">
       <defs>
        <path id="DejaVuSans-2212" d="M 678 2272 
L 4684 2272 
L 4684 1741 
L 678 1741 
L 678 2272 
z
" transform="scale(0.015625)"/>
       </defs>
       <use xlink:href="#DejaVuSans-2212"/>
       <use xlink:href="#DejaVuSans-31" x="83.789062"/>
       <use xlink:href="#DejaVuSans-30" x="147.412109"/>
       <use xlink:href="#DejaVuSans-30" x="211.035156"/>
      </g>
     </g>
    </g>
    <g id="ytick_2">
     <g id="line2d_6">
      <g>
       <use xlink:href="#m81ce975668" x="72" y="422.46" style="stroke: #000000; stroke-width: 0.8"/>
      </g>
     </g>
     <g id="text_7">
      <!-- −80 -->
      <g transform="translate(18.569688 430.818281)scale(0.22 -0.22)">
       <defs>
        <path id="DejaVuSans-38" d="M 2034 2216 
Q 1584 2216 1326 1975 
Q 1069 1734 1069 1313 
Q 1069 891 1326 650 
Q 1584 409 2034 409 
Q 2484 409 2743 651 
Q 3003 894 3003 1313 
Q 3003 1734 2745 1975 
Q 2488 2216 2034 2216 
z
M 1403 2484 
Q 997 2584 770 2862 
Q 544 3141 544 3541 
Q 544 4100 942 4425 
Q 1341 4750 2034 4750 
Q 2731 4750 3128 4425 
Q 3525 4100 3525 3541 
Q 3525 3141 3298 2862 
Q 3072 2584 2669 2484 
Q 3125 2378 3379 2068 
Q 3634 1759 3634 1313 
Q 3634 634 3220 271 
Q 2806 -91 2034 -91 
Q 1263 -91 848 271 
Q 434 634 434 1313 
Q 434 1759 690 2068 
Q 947 2378 1403 2484 
z
M 1172 3481 
Q 1172 3119 1398 2916 
Q 1625 2713 2034 2713 
Q 2441 2713 2670 2916 
Q 2900 3119 2900 3481 
Q 2900 3844 2670 4047 
Q 2441 4250 2034 4250 
Q 1625 4250 1398 4047 
Q 1172 3844 1172 3481 
z
" transform="scale(0.015625)"/>
       </defs>
       <use xlink:href="#DejaVuSans-2212"/>
       <use xlink:href="#DejaVuSans-38" x="83.789062"/>
       <use xlink:href="#DejaVuSans-30" x="147.412109"/>
      </g>
     </g>
    </g>
    <g id="ytick_3">
     <g id="line2d_7">
      <g>
       <use xlink:href="#m81ce975668" x="72" y="368.1" style="stroke: #000000; stroke-width: 0.8"/>
      </g>
     </g>
     <g id="text_8">
      <!-- −60 -->
      <g transform="translate(18.569688 376.458281)scale(0.22 -0.22)">
       <defs>
        <path id="DejaVuSans-36" d="M 2113 2584 
Q 1688 2584 1439 2293 
Q 1191 2003 1191 1497 
Q 1191 994 1439 701 
Q 1688 409 2113 409 
Q 2538 409 2786 701 
Q 3034 994 3034 1497 
Q 3034 2003 2786 2293 
Q 2538 2584 2113 2584 
z
M 3366 4563 
L 3366 3988 
Q 3128 4100 2886 4159 
Q 2644 4219 2406 4219 
Q 1781 4219 1451 3797 
Q 1122 3375 1075 2522 
Q 1259 2794 1537 2939 
Q 1816 3084 2150 3084 
Q 2853 3084 3261 2657 
Q 3669 2231 3669 1497 
Q 3669 778 3244 343 
Q 2819 -91 2113 -91 
Q 1303 -91 875 529 
Q 447 1150 447 2328 
Q 447 3434 972 4092 
Q 1497 4750 2381 4750 
Q 2619 4750 2861 4703 
Q 3103 4656 3366 4563 
z
" transform="scale(0.015625)"/>
       </defs>
       <use xlink:href="#DejaVuSans-2212"/>
       <use xlink:href="#DejaVuSans-36" x="83.789062"/>
       <use xlink:href="#DejaVuSans-30" x="147.412109"/>
      </g>
     </g>
    </g>
    <g id="ytick_4">
     <g id="line2d_8">
      <g>
       <use xlink:href="#m81ce975668" x="72" y="313.74" style="stroke: #000000; stroke-width: 0.8"/>
      </g>
     </g>
     <g id="text_9">
      <!-- −40 -->
      <g transform="translate(18.569688 322.098281)scale(0.22 -0.22)">
       <defs>
        <path id="DejaVuSans-34" d="M 2419 4116 
L 825 1625 
L 2419 1625 
L 2419 4116 
z
M 2253 4666 
L 3047 4666 
L 3047 1625 
L 3713 1625 
L 3713 1100 
L 3047 1100 
L 3047 0 
L 2419 0 
L 2419 1100 
L 313 1100 
L 313 1709 
L 2253 4666 
z
" transform="scale(0.015625)"/>
       </defs>
       <use xlink:href="#DejaVuSans-2212"/>
       <use xlink:href="#DejaVuSans-34" x="83.789062"/>
       <use xlink:href="#DejaVuSans-30" x="147.412109"/>
      </g>
     </g>
    </g>
    <g id="ytick_5">
     <g id="line2d_9">
      <g>
       <use xlink:href="#m81ce975668" x="72" y="259.38" style="stroke: #000000; stroke-width: 0.8"/>
      </g>
     </g>
     <g id="text_10">
      <!-- −20 -->
      <g transform="translate(18.569688 267.738281)scale(0.22 -0.22)">
       <use xlink:href="#DejaVuSans-2212"/>
       <use xlink:href="#DejaVuSans-32" x="83.789062"/>
       <use xlink:href="#DejaVuSans-30" x="147.412109"/>
      </g>
     </g>
    </g>
    <g id="ytick_6">
     <g id="line2d_10">
      <g>
       <use xlink:href="#m81ce975668" x="72" y="205.02" style="stroke: #000000; stroke-width: 0.8"/>
      </g>
     </g>
     <g id="text_11">
      <!-- 0 -->
      <g transform="translate(51.0025 213.378281)scale(0.22 -0.22)">
       <use xlink:href="#DejaVuSans-30"/>
      </g>
     </g>
    </g>
    <g id="ytick_7">
     <g id="line2d_11">
      <g>
       <use xlink:href="#m81ce975668" x="72" y="150.66" style="stroke: #000000; stroke-width: 0.8"/>
      </g>
     </g>
     <g id="text_12">
      <!-- 20 -->
      <g transform="translate(37.005 159.018281)scale(0.22 -0.22)">
       <use xlink:href="#DejaVuSans-32"/>
       <use xlink:href="#DejaVuSans-30" x="63.623047"/>
      </g>
     </g>
    </g>
    <g id="ytick_8">
     <g id="line2d_12">
      <g>
       <use xlink:href="#m81ce975668" x="72" y="96.3" style="stroke: #000000; stroke-width: 0.8"/>
      </g>
     </g>
     <g id="text_13">
      <!-- 40 -->
      <g transform="translate(37.005 104.658281)scale(0.22 -0.22)">
       <use xlink:href="#DejaVuSans-34"/>
       <use xlink:href="#DejaVuSans-30" x="63.623047"/>
      </g>
     </g>
    </g>
    <g id="text_14">
     <!-- Membrane potential (mV) -->
     <g transform="translate(-4.058125 410.655469)rotate(-90)scale(0.22 -0.22)">
      <defs>
       <path id="ArialMT-4d" d="M 475 0 
L 475 4581 
L 1388 4581 
L 2472 1338 
Q 2622 884 2691 659 
Q 2769 909 2934 1394 
L 4031 4581 
L 4847 4581 
L 4847 0 
L 4263 0 
L 4263 3834 
L 2931 0 
L 2384 0 
L 1059 3900 
L 1059 0 
L 475 0 
z
" transform="scale(0.015625)"/>
       <path id="ArialMT-62" d="M 941 0 
L 419 0 
L 419 4581 
L 981 4581 
L 981 2947 
Q 1338 3394 1891 3394 
Q 2197 3394 2470 3270 
Q 2744 3147 2920 2923 
Q 3097 2700 3197 2384 
Q 3297 2069 3297 1709 
Q 3297 856 2875 390 
Q 2453 -75 1863 -75 
Q 1275 -75 941 416 
L 941 0 
z
M 934 1684 
Q 934 1088 1097 822 
Q 1363 388 1816 388 
Q 2184 388 2453 708 
Q 2722 1028 2722 1663 
Q 2722 2313 2464 2622 
Q 2206 2931 1841 2931 
Q 1472 2931 1203 2611 
Q 934 2291 934 1684 
z
" transform="scale(0.015625)"/>
       <path id="ArialMT-72" d="M 416 0 
L 416 3319 
L 922 3319 
L 922 2816 
Q 1116 3169 1280 3281 
Q 1444 3394 1641 3394 
Q 1925 3394 2219 3213 
L 2025 2691 
Q 1819 2813 1613 2813 
Q 1428 2813 1281 2702 
Q 1134 2591 1072 2394 
Q 978 2094 978 1738 
L 978 0 
L 416 0 
z
" transform="scale(0.015625)"/>
       <path id="ArialMT-61" d="M 2588 409 
Q 2275 144 1986 34 
Q 1697 -75 1366 -75 
Q 819 -75 525 192 
Q 231 459 231 875 
Q 231 1119 342 1320 
Q 453 1522 633 1644 
Q 813 1766 1038 1828 
Q 1203 1872 1538 1913 
Q 2219 1994 2541 2106 
Q 2544 2222 2544 2253 
Q 2544 2597 2384 2738 
Q 2169 2928 1744 2928 
Q 1347 2928 1158 2789 
Q 969 2650 878 2297 
L 328 2372 
Q 403 2725 575 2942 
Q 747 3159 1072 3276 
Q 1397 3394 1825 3394 
Q 2250 3394 2515 3294 
Q 2781 3194 2906 3042 
Q 3031 2891 3081 2659 
Q 3109 2516 3109 2141 
L 3109 1391 
Q 3109 606 3145 398 
Q 3181 191 3288 0 
L 2700 0 
Q 2613 175 2588 409 
z
M 2541 1666 
Q 2234 1541 1622 1453 
Q 1275 1403 1131 1340 
Q 988 1278 909 1158 
Q 831 1038 831 891 
Q 831 666 1001 516 
Q 1172 366 1500 366 
Q 1825 366 2078 508 
Q 2331 650 2450 897 
Q 2541 1088 2541 1459 
L 2541 1666 
z
" transform="scale(0.015625)"/>
       <path id="ArialMT-6e" d="M 422 0 
L 422 3319 
L 928 3319 
L 928 2847 
Q 1294 3394 1984 3394 
Q 2284 3394 2536 3286 
Q 2788 3178 2913 3003 
Q 3038 2828 3088 2588 
Q 3119 2431 3119 2041 
L 3119 0 
L 2556 0 
L 2556 2019 
Q 2556 2363 2490 2533 
Q 2425 2703 2258 2804 
Q 2091 2906 1866 2906 
Q 1506 2906 1245 2678 
Q 984 2450 984 1813 
L 984 0 
L 422 0 
z
" transform="scale(0.015625)"/>
       <path id="ArialMT-20" transform="scale(0.015625)"/>
       <path id="ArialMT-70" d="M 422 -1272 
L 422 3319 
L 934 3319 
L 934 2888 
Q 1116 3141 1344 3267 
Q 1572 3394 1897 3394 
Q 2322 3394 2647 3175 
Q 2972 2956 3137 2557 
Q 3303 2159 3303 1684 
Q 3303 1175 3120 767 
Q 2938 359 2589 142 
Q 2241 -75 1856 -75 
Q 1575 -75 1351 44 
Q 1128 163 984 344 
L 984 -1272 
L 422 -1272 
z
M 931 1641 
Q 931 1000 1190 694 
Q 1450 388 1819 388 
Q 2194 388 2461 705 
Q 2728 1022 2728 1688 
Q 2728 2322 2467 2637 
Q 2206 2953 1844 2953 
Q 1484 2953 1207 2617 
Q 931 2281 931 1641 
z
" transform="scale(0.015625)"/>
       <path id="ArialMT-6f" d="M 213 1659 
Q 213 2581 725 3025 
Q 1153 3394 1769 3394 
Q 2453 3394 2887 2945 
Q 3322 2497 3322 1706 
Q 3322 1066 3130 698 
Q 2938 331 2570 128 
Q 2203 -75 1769 -75 
Q 1072 -75 642 372 
Q 213 819 213 1659 
z
M 791 1659 
Q 791 1022 1069 705 
Q 1347 388 1769 388 
Q 2188 388 2466 706 
Q 2744 1025 2744 1678 
Q 2744 2294 2464 2611 
Q 2184 2928 1769 2928 
Q 1347 2928 1069 2612 
Q 791 2297 791 1659 
z
" transform="scale(0.015625)"/>
       <path id="ArialMT-74" d="M 1650 503 
L 1731 6 
Q 1494 -44 1306 -44 
Q 1000 -44 831 53 
Q 663 150 594 308 
Q 525 466 525 972 
L 525 2881 
L 113 2881 
L 113 3319 
L 525 3319 
L 525 4141 
L 1084 4478 
L 1084 3319 
L 1650 3319 
L 1650 2881 
L 1084 2881 
L 1084 941 
Q 1084 700 1114 631 
Q 1144 563 1211 522 
Q 1278 481 1403 481 
Q 1497 481 1650 503 
z
" transform="scale(0.015625)"/>
       <path id="ArialMT-6c" d="M 409 0 
L 409 4581 
L 972 4581 
L 972 0 
L 409 0 
z
" transform="scale(0.015625)"/>
       <path id="ArialMT-56" d="M 1803 0 
L 28 4581 
L 684 4581 
L 1875 1253 
Q 2019 853 2116 503 
Q 2222 878 2363 1253 
L 3600 4581 
L 4219 4581 
L 2425 0 
L 1803 0 
z
" transform="scale(0.015625)"/>
      </defs>
      <use xlink:href="#ArialMT-4d"/>
      <use xlink:href="#ArialMT-65" x="83.300781"/>
      <use xlink:href="#ArialMT-6d" x="138.916016"/>
      <use xlink:href="#ArialMT-62" x="222.216797"/>
      <use xlink:href="#ArialMT-72" x="277.832031"/>
      <use xlink:href="#ArialMT-61" x="311.132812"/>
      <use xlink:href="#ArialMT-6e" x="366.748047"/>
      <use xlink:href="#ArialMT-65" x="422.363281"/>
      <use xlink:href="#ArialMT-20" x="477.978516"/>
      <use xlink:href="#ArialMT-70" x="505.761719"/>
      <use xlink:href="#ArialMT-6f" x="561.376953"/>
      <use xlink:href="#ArialMT-74" x="616.992188"/>
      <use xlink:href="#ArialMT-65" x="644.775391"/>
      <use xlink:href="#ArialMT-6e" x="700.390625"/>
      <use xlink:href="#ArialMT-74" x="756.005859"/>
      <use xlink:href="#ArialMT-69" x="783.789062"/>
      <use xlink:href="#ArialMT-61" x="806.005859"/>
      <use xlink:href="#ArialMT-6c" x="861.621094"/>
      <use xlink:href="#ArialMT-20" x="883.837891"/>
      <use xlink:href="#ArialMT-28" x="911.621094"/>
      <use xlink:href="#ArialMT-6d" x="944.921875"/>
      <use xlink:href="#ArialMT-56" x="1028.222656"/>
      <use xlink:href="#ArialMT-29" x="1094.921875"/>
     </g>
    </g>
   </g>
   <g id="line2d_13">
    <path d="M 92.290909 430.614 
L 92.561455 433.101052 
L 92.967273 434.687657 
L 93.440727 435.69109 
L 93.981818 436.355828 
L 94.658182 436.813451 
L 95.469818 437.080253 
L 96.754909 437.236703 
L 99.595636 437.294806 
L 130.302545 437.299151 
L 159.927273 437.299227 
L 160.130182 417.483798 
L 160.468364 404.828049 
L 160.941818 395.104042 
L 161.685818 384.987406 
L 163.173818 365.880012 
L 163.579636 357.179525 
L 163.782545 349.348626 
L 163.917818 338.384193 
L 163.985455 324.293629 
L 164.120727 110.209211 
L 164.391273 384.8043 
L 164.594182 411.536906 
L 164.661818 410.954935 
L 164.932364 402.550657 
L 165.744 376.445097 
L 166.217455 368.392594 
L 167.164364 355.312124 
L 167.434909 347.985866 
L 167.637818 335.096035 
L 167.705455 321.922881 
L 167.840727 114.38216 
L 168.111273 389.0251 
L 168.246545 415.941701 
L 168.314182 415.623063 
L 169.328727 376.80816 
L 170.005091 365.801495 
L 170.816727 352.486897 
L 171.087273 344.031785 
L 171.222545 334.277573 
L 171.290182 321.410091 
L 171.425455 115.606169 
L 171.696 388.996247 
L 171.831273 415.884916 
L 171.898909 415.470827 
L 172.913455 376.346603 
L 173.589818 365.608521 
L 174.198545 355.406711 
L 174.469091 347.776683 
L 174.672 333.625084 
L 174.739636 317.319079 
L 174.807273 101.395242 
L 174.874909 127.349169 
L 175.077818 362.23184 
L 175.280727 415.749194 
L 175.348364 414.995439 
L 176.362909 376.807636 
L 177.039273 365.872822 
L 177.715636 354.710404 
L 177.986182 346.176116 
L 178.121455 336.452519 
L 178.189091 324.365871 
L 178.324364 106.693675 
L 178.594909 384.205397 
L 178.797818 415.267785 
L 179.000727 406.520751 
L 179.474182 386.220967 
L 179.947636 374.859764 
L 181.368 346.972267 
L 181.503273 338.011584 
L 181.570909 327.81992 
L 181.638545 280.421655 
L 181.706182 97.613409 
L 181.773818 182.578017 
L 181.976727 378.076014 
L 182.179636 414.904892 
L 182.314909 410.405304 
L 182.923636 385.167246 
L 183.464727 373.221586 
L 184.885091 346.708037 
L 185.020364 338.959233 
L 185.088 330.961346 
L 185.155636 307.528578 
L 185.223273 93.22448 
L 185.290909 151.741576 
L 185.493818 369.849862 
L 185.696727 415.340869 
L 185.832 411.238665 
L 186.440727 384.769637 
L 186.914182 374.281927 
L 188.064 353.251429 
L 188.266909 344.800236 
L 188.402182 330.127953 
L 188.469818 294.676051 
L 188.537455 92.60909 
L 188.605091 166.779619 
L 188.808 373.734637 
L 189.010909 414.565042 
L 189.146182 410.274481 
L 189.754909 384.40985 
L 190.228364 374.22394 
L 191.04 362.627732 
L 191.513455 354.551206 
L 191.784 346.119213 
L 191.919273 337.352412 
L 191.986909 327.726523 
L 192.054545 287.75346 
L 192.122182 97.750035 
L 192.189818 179.974864 
L 192.392727 377.948563 
L 192.595636 415.067871 
L 192.798545 406.65689 
L 193.272 386.636481 
L 193.745455 375.761652 
L 195.098182 350.742391 
L 195.301091 340.668291 
L 195.436364 314.029471 
L 195.504 92.961627 
L 195.571636 135.775868 
L 195.774545 365.878447 
L 195.977455 415.453938 
L 196.045091 414.430655 
L 196.992 378.533787 
L 197.600727 368.051415 
L 198.344727 355.572258 
L 198.615273 347.254107 
L 198.750545 338.483014 
L 198.818182 328.771664 
L 198.885818 289.04092 
L 198.953455 95.42553 
L 199.021091 175.14144 
L 199.224 376.155211 
L 199.426909 414.918547 
L 199.562182 410.497294 
L 200.170909 384.927341 
L 200.712 373.110391 
L 201.861818 352.463142 
L 202.064727 344.302178 
L 202.2 330.358948 
L 202.267636 299.785092 
L 202.335273 92.530428 
L 202.402909 162.368914 
L 202.605818 373.036101 
L 202.808727 415.133638 
L 202.944 411.131893 
L 203.552727 385.795627 
L 204.093818 373.638092 
L 205.378909 349.659587 
L 205.581818 338.253842 
L 205.649455 328.448366 
L 205.717091 287.163201 
L 205.784727 96.216553 
L 205.852364 177.544095 
L 206.055273 376.810272 
L 206.258182 415.02248 
L 206.393455 410.715127 
L 207.002182 385.154105 
L 207.543273 373.1638 
L 208.760727 350.873665 
L 208.963636 340.29631 
L 209.031273 332.127147 
L 209.098909 308.391042 
L 209.166545 90.81659 
L 209.234182 147.390831 
L 209.437091 368.103388 
L 209.64 414.766879 
L 209.707636 414.157955 
L 210.045818 398.798216 
L 210.519273 381.965781 
L 211.060364 371.008101 
L 212.007273 354.000822 
L 212.210182 347.106558 
L 212.345455 337.700255 
L 212.413091 326.582086 
L 212.548364 100.821493 
L 212.616 192.954771 
L 212.818909 380.938526 
L 213.021818 415.47498 
L 213.157091 410.937395 
L 213.765818 385.166543 
L 214.239273 374.025407 
L 215.524364 349.78495 
L 215.727273 337.719309 
L 215.794909 326.772184 
L 215.930182 100.339386 
L 215.997818 191.372436 
L 216.200727 379.811281 
L 216.403636 414.704268 
L 216.538909 410.519861 
L 217.215273 383.415443 
L 217.756364 371.997912 
L 218.973818 350.328832 
L 219.176727 340.484151 
L 219.312 314.865589 
L 219.379636 94.461834 
L 219.447273 133.803882 
L 219.650182 363.764595 
L 219.853091 414.988033 
L 219.920727 414.556006 
L 220.258909 398.850454 
L 220.732364 382.126182 
L 221.273455 370.931005 
L 222.152727 354.585326 
L 222.423273 343.612234 
L 222.558545 326.572912 
L 222.693818 100.892148 
L 222.761455 193.758758 
L 222.964364 381.454434 
L 223.167273 415.073685 
L 223.370182 406.807888 
L 223.911273 384.469989 
L 224.384727 374.013318 
L 225.872727 346.66392 
L 226.008 338.173794 
L 226.075636 328.91099 
L 226.143273 294.220474 
L 226.210909 95.270485 
L 226.278545 171.681093 
L 226.481455 375.49644 
L 226.684364 415.381844 
L 226.819636 411.057046 
L 227.428364 385.592605 
L 227.969455 373.254491 
L 229.322182 347.263647 
L 229.457455 338.933055 
L 229.525091 329.991207 
L 229.592727 299.180188 
L 229.660364 93.301357 
L 229.728 164.134657 
L 229.930909 373.209078 
L 230.133818 415.261785 
L 230.269091 411.287392 
L 230.945455 382.693219 
L 231.486545 371.463479 
L 232.636364 350.849339 
L 232.839273 341.262419 
L 232.974545 318.529935 
L 233.042182 103.169325 
L 233.109818 123.660876 
L 233.312727 359.807006 
L 233.515636 414.699861 
L 233.583273 414.641669 
L 233.853818 402.437828 
L 234.327273 384.321718 
L 234.868364 372.39415 
L 235.950545 352.057654 
L 236.153455 342.998789 
L 236.288727 325.194726 
L 236.424 104.606652 
L 236.694545 383.889431 
L 236.897455 415.565961 
L 237.100364 406.631579 
L 237.573818 386.19168 
L 238.047273 374.908457 
L 239.4 348.446506 
L 239.535273 340.943454 
L 239.670545 315.562461 
L 239.738182 94.179139 
L 239.805818 131.744399 
L 240.008727 363.693333 
L 240.211636 415.240927 
L 240.279273 414.706914 
L 240.685091 395.710896 
L 241.158545 380.542061 
L 241.767273 368.926597 
L 242.646545 353.537243 
L 242.917091 343.24397 
L 243.052364 327.769076 
L 243.12 281.148472 
L 243.187636 97.7561 
L 243.255273 182.76183 
L 243.458182 378.69482 
L 243.661091 415.428697 
L 243.796364 410.761913 
L 244.405091 385.113203 
L 244.946182 372.973505 
L 246.096 351.584495 
L 246.298909 342.328166 
L 246.434182 323.372668 
L 246.569455 109.868355 
L 246.84 386.130212 
L 247.042909 414.985057 
L 247.245818 406.206857 
L 247.719273 386.484542 
L 248.192727 375.341689 
L 249.545455 348.700513 
L 249.680727 340.855374 
L 249.748364 333.106822 
L 249.816 312.324995 
L 249.883636 91.076077 
L 249.951273 139.039401 
L 250.154182 365.861421 
L 250.357091 415.035512 
L 250.424727 414.518576 
L 250.762909 398.946621 
L 251.236364 382.276617 
L 251.777455 371.277906 
L 252.792 353.178122 
L 252.994909 345.841537 
L 253.130182 335.093475 
L 253.197818 320.160028 
L 253.265455 113.875981 
L 253.333091 119.149222 
L 253.603636 389.631599 
L 253.738909 414.985487 
L 253.806545 415.051271 
L 254.077091 402.893497 
L 254.550545 384.542655 
L 255.091636 372.560764 
L 256.241455 351.472518 
L 256.444364 342.802704 
L 256.579636 325.837435 
L 256.714909 102.815178 
L 256.782545 197.453351 
L 256.985455 381.807956 
L 257.188364 415.020018 
L 257.391273 407.014226 
L 257.932364 384.827658 
L 258.405818 374.206825 
L 259.690909 350.070203 
L 259.893818 338.511287 
L 259.961455 328.612911 
L 260.029091 286.529159 
L 260.096727 95.812489 
L 260.164364 177.154087 
L 260.367273 377.299757 
L 260.570182 415.431453 
L 260.705455 410.89811 
L 261.314182 384.754213 
L 261.787636 374.014183 
L 263.072727 349.885901 
L 263.275636 337.673048 
L 263.343273 326.687031 
L 263.478545 100.523765 
L 263.546182 191.860686 
L 263.749091 379.925144 
L 263.952 414.530123 
L 264.087273 410.227467 
L 264.696 384.841947 
L 265.169455 374.087196 
L 266.522182 349.367855 
L 266.725091 337.00779 
L 266.792727 325.375306 
L 266.928 103.988721 
L 266.995636 200.535726 
L 267.198545 382.608724 
L 267.401455 415.174763 
L 267.604364 406.678391 
L 268.077818 386.557006 
L 268.551273 375.298521 
L 269.430545 360.982272 
L 269.836364 352.586645 
L 270.039273 344.511594 
L 270.174545 330.937817 
L 270.242182 303.137478 
L 270.309818 91.809345 
L 270.377455 157.267719 
L 270.580364 371.203932 
L 270.783273 414.911561 
L 270.850909 413.972882 
L 271.933091 376.134869 
L 273.285818 348.922466 
L 273.421091 341.383094 
L 273.556364 316.474348 
L 273.624 94.423699 
L 273.691636 129.092028 
L 273.894545 362.574444 
L 274.097455 414.734346 
L 274.165091 414.410914 
L 274.503273 398.900774 
L 274.976727 382.085248 
L 275.517818 371.13825 
L 276.464727 354.247116 
L 276.667636 346.921147 
L 276.802909 336.54256 
L 276.870545 323.080611 
L 277.005818 110.586208 
L 277.276364 386.51464 
L 277.479273 415.101865 
L 277.682182 406.46546 
L 278.155636 386.467704 
L 278.629091 374.966717 
L 279.440727 361.821694 
L 279.846545 353.864741 
L 280.117091 343.313649 
L 280.252364 327.021123 
L 280.32 268.465406 
L 280.387636 99.641802 
L 280.455273 189.258518 
L 280.658182 380.165518 
L 280.861091 415.262682 
L 280.996364 410.615014 
L 281.605091 385.200389 
L 282.146182 373.019348 
L 283.498909 349.033883 
L 283.701818 338.433415 
L 283.769455 329.777688 
L 283.837091 301.100163 
L 283.904727 94.062734 
L 283.972364 163.188489 
L 284.175273 373.290334 
L 284.378182 415.412999 
L 284.513455 411.164621 
L 285.122182 385.375444 
L 285.595636 374.29227 
L 286.407273 361.598369 
L 286.813091 354.051597 
L 287.083636 344.912526 
L 287.218909 333.534313 
L 287.286545 316.071543 
L 287.354182 96.428583 
L 287.421818 130.589298 
L 287.624727 362.118065 
L 287.827636 414.5924 
L 287.895273 414.452275 
L 288.165818 402.448579 
L 288.639273 384.508436 
L 289.180364 372.601426 
L 290.465455 349.068761 
L 290.668364 336.619711 
L 290.736 324.646378 
L 290.871273 106.033688 
L 291.141818 383.86563 
L 291.344727 415.455365 
L 291.547636 406.608402 
L 292.021091 386.281178 
L 292.494545 374.878482 
L 293.847273 347.9557 
L 293.982545 339.553011 
L 294.050182 330.710544 
L 294.117818 301.316694 
L 294.185455 91.974698 
L 294.253091 159.849511 
L 294.456 372.115407 
L 294.658909 415.126456 
L 294.794182 411.374699 
L 295.470545 383.256931 
L 296.011636 371.872408 
L 297.026182 353.263278 
L 297.229091 345.5863 
L 297.364364 334.125788 
L 297.432 316.809549 
L 297.499636 95.762346 
L 297.567273 128.365119 
L 297.770182 362.602663 
L 297.973091 415.375221 
L 298.040727 414.907148 
L 298.446545 395.751632 
L 298.92 380.38274 
L 299.461091 369.856253 
L 300.408 352.631193 
L 300.610909 345.459064 
L 300.746182 334.842321 
L 300.813818 320.002951 
L 300.881455 116.13229 
L 300.949091 119.75709 
L 301.219636 389.033426 
L 301.354909 414.558295 
L 301.422545 414.815734 
L 301.625455 406.364592 
L 302.166545 384.290844 
L 302.64 373.482605 
L 303.925091 349.881865 
L 304.128 338.419543 
L 304.195636 328.626814 
L 304.263273 287.696294 
L 304.330909 95.783213 
L 304.398545 176.458813 
L 304.601455 376.547694 
L 304.804364 415.062025 
L 304.939636 410.806768 
L 305.616 382.892009 
L 306.157091 371.539162 
L 307.239273 351.952207 
L 307.442182 343.617357 
L 307.577455 328.794404 
L 307.645091 290.058397 
L 307.712727 95.45102 
L 307.780364 174.758015 
L 307.983273 376.136092 
L 308.186182 414.991567 
L 308.321455 410.789707 
L 308.930182 385.155571 
L 309.471273 373.087031 
L 310.688727 350.786879 
L 310.891636 340.763342 
L 311.026909 314.855328 
L 311.094545 93.605826 
L 311.162182 133.517985 
L 311.365091 364.100745 
L 311.568 415.177744 
L 311.635636 414.59136 
L 312.785455 374.527866 
L 314.002909 351.507195 
L 314.205818 341.76169 
L 314.341091 318.98867 
L 314.408727 102.276246 
L 314.476364 122.250468 
L 314.679273 360.008695 
L 314.882182 415.331603 
L 314.949818 415.129612 
L 315.288 399.042767 
L 315.761455 382.058921 
L 316.302545 371.1436 
L 317.249455 354.095289 
L 317.52 343.377887 
L 317.655273 326.554291 
L 317.790545 100.918137 
L 317.858182 193.265662 
L 318.061091 380.794049 
L 318.264 415.076028 
L 318.399273 410.537182 
L 319.008 384.64141 
L 319.481455 373.885606 
L 320.766545 350.162166 
L 320.969455 339.572396 
L 321.037091 331.251532 
L 321.104727 305.937803 
L 321.172364 91.866061 
L 321.24 153.235727 
L 321.442909 370.229057 
L 321.645818 415.156894 
L 321.713455 414.147423 
L 322.728 377.148326 
L 323.336727 366.707373 
L 324.013091 355.228104 
L 324.283636 346.448891 
L 324.418909 336.127139 
L 324.486545 322.565576 
L 324.621818 111.981881 
L 324.892364 386.4523 
L 325.095273 415.066355 
L 325.298182 406.48013 
L 325.771636 386.393589 
L 326.245091 374.885079 
L 326.989091 362.790827 
L 327.462545 354.37994 
L 327.733091 345.386096 
L 327.868364 334.271964 
L 327.936 317.927565 
L 328.003636 100.467178 
L 328.071273 125.360951 
L 328.274182 360.68397 
L 328.477091 414.942472 
L 328.544727 414.699699 
L 328.882909 398.841834 
L 329.356364 382.059723 
L 329.897455 370.971818 
L 330.844364 353.932746 
L 331.114909 343.260613 
L 331.250182 326.639969 
L 331.385455 100.630562 
L 331.453091 192.25443 
L 331.656 380.785064 
L 331.858909 415.230012 
L 331.994182 410.680616 
L 332.602909 385.11495 
L 333.076364 374.175417 
L 334.496727 347.071033 
L 334.632 339.036041 
L 334.699636 330.579724 
L 334.767273 303.908343 
L 334.834909 92.848977 
L 334.902545 157.717422 
L 335.105455 371.547181 
L 335.308364 415.324772 
L 335.443636 411.43822 
L 336.12 383.433076 
L 336.661091 371.902071 
L 337.675636 353.537965 
L 337.878545 345.99431 
L 338.013818 334.762956 
L 338.081455 318.40235 
L 338.149091 99.369776 
L 338.216727 123.803019 
L 338.419636 359.925167 
L 338.622545 414.267573 
L 338.690182 414.421573 
L 338.893091 406.242803 
L 339.434182 384.563747 
L 339.975273 372.76724 
L 341.260364 349.722631 
L 341.463273 338.356922 
L 341.530909 328.67169 
L 341.598545 289.119961 
L 341.666182 95.704179 
L 341.733818 175.587954 
L 341.936727 376.46938 
L 342.139636 415.321504 
L 342.274909 410.919444 
L 342.883636 384.964789 
L 343.424727 372.887629 
L 344.574545 351.562276 
L 344.777455 342.51174 
L 344.912727 323.812232 
L 345.048 108.549099 
L 345.318545 384.689485 
L 345.521455 414.796089 
L 345.724364 406.76193 
L 346.265455 384.692088 
L 346.806545 372.490484 
L 348.024 349.826278 
L 348.226909 339.141521 
L 348.294545 330.625448 
L 348.362182 303.700631 
L 348.429818 92.642829 
L 348.497455 157.846319 
L 348.700364 372.193022 
L 348.903273 415.585228 
L 349.038545 411.290017 
L 349.647273 385.164714 
L 350.188364 373.138119 
L 351.541091 347.822092 
L 351.676364 340.226291 
L 351.811636 312.875782 
L 351.879273 92.874914 
L 351.946909 138.652599 
L 352.149818 365.464601 
L 352.352727 415.06155 
L 352.420364 414.466736 
L 352.826182 395.678055 
L 353.299636 380.380604 
L 353.908364 368.805112 
L 354.652364 355.519461 
L 354.922909 346.584768 
L 355.058182 336.400694 
L 355.125818 323.315608 
L 355.261091 109.940228 
L 355.531636 385.850425 
L 355.734545 415.190929 
L 355.937455 406.576166 
L 356.478545 384.115623 
L 356.952 373.518057 
L 358.372364 348.295304 
L 358.575273 335.39131 
L 358.642909 322.192793 
L 358.778182 113.168091 
L 359.048727 387.191762 
L 359.184 414.995106 
L 359.251636 415.265512 
L 359.522182 402.67386 
L 359.995636 384.231721 
L 360.536727 372.417746 
L 361.618909 352.615813 
L 361.821818 344.500895 
L 361.957091 330.81045 
L 362.024727 302.221034 
L 362.092364 91.916448 
L 362.16 158.691764 
L 362.362909 371.90596 
L 362.565818 415.026042 
L 362.701091 411.279783 
L 363.377455 383.65001 
L 363.918545 372.128538 
L 365.000727 352.352076 
L 365.203636 344.303241 
L 365.338909 330.864628 
L 365.406545 303.47806 
L 365.474182 92.071165 
L 365.541818 157.34329 
L 365.744727 371.520938 
L 365.947636 415.230077 
L 366.082909 411.496642 
L 366.759273 383.343738 
L 367.232727 373.011676 
L 368.517818 349.123945 
L 368.720727 336.946839 
L 368.788364 325.551675 
L 368.923636 103.548261 
L 368.991273 199.085783 
L 369.194182 382.169253 
L 369.397091 415.204034 
L 369.6 406.87016 
L 370.073455 386.645551 
L 370.546909 375.199499 
L 371.967273 346.357748 
L 372.102545 336.726177 
L 372.170182 324.975005 
L 372.305455 105.180369 
L 372.576 383.761629 
L 372.778909 415.363556 
L 372.981818 406.491189 
L 373.455273 386.119413 
L 373.928727 374.848311 
L 375.213818 350.679317 
L 375.416727 339.073613 
L 375.484364 329.303522 
L 375.552 289.512602 
L 375.619636 94.27262 
L 375.687273 172.843087 
L 375.890182 375.620399 
L 376.093091 415.049459 
L 376.228364 410.943983 
L 376.837091 384.862416 
L 377.310545 373.956313 
L 378.595636 350.247567 
L 378.798545 339.389071 
L 378.866182 330.707363 
L 378.933818 302.534516 
L 379.001455 92.215199 
L 379.069091 158.721242 
L 379.272 371.919893 
L 379.474909 415.2104 
L 379.610182 411.433751 
L 380.286545 383.623622 
L 380.827636 372.187079 
L 381.842182 353.273279 
L 382.045091 344.978424 
L 382.180364 331.11034 
L 382.248 301.904399 
L 382.315636 91.237838 
L 382.383273 158.119769 
L 382.586182 371.653316 
L 382.789091 414.762748 
L 382.924364 411.179039 
L 383.600727 383.466248 
L 384.141818 372.008256 
L 385.291636 351.361601 
L 385.494545 342.311194 
L 385.629818 323.260784 
L 385.765091 110.103838 
L 386.035636 385.631801 
L 386.238545 414.662617 
L 386.441455 406.260709 
L 386.982545 384.48592 
L 387.523636 372.709874 
L 388.605818 352.737982 
L 388.808727 344.563592 
L 388.944 330.942372 
L 389.011636 302.829512 
L 389.079273 91.719058 
L 389.146909 157.721869 
L 389.349818 371.840354 
L 389.552727 415.255192 
L 389.688 411.440896 
L 390.364364 383.41297 
L 390.905455 371.916453 
L 391.987636 352.575197 
L 392.190545 344.709047 
L 392.325818 331.931658 
L 392.393455 308.582523 
L 392.461091 91.385553 
L 392.528727 147.821842 
L 392.731636 368.852489 
L 392.934545 415.352181 
L 393.002182 414.403819 
L 394.016727 377.138008 
L 394.693091 365.678731 
L 395.301818 355.016568 
L 395.572364 346.033755 
L 395.707636 335.251352 
L 395.775273 320.342807 
L 395.842909 114.313494 
L 395.910545 118.48652 
L 396.181091 389.429711 
L 396.316364 414.839964 
L 396.384 414.855889 
L 396.654545 402.510175 
L 397.128 384.220227 
L 397.669091 372.429636 
L 398.886545 350.698645 
L 399.089455 341.055825 
L 399.224727 317.330665 
L 399.292364 98.420106 
L 399.36 127.009715 
L 399.562909 361.322826 
L 399.765818 415.005416 
L 399.833455 414.749243 
L 400.104 401.988256 
L 400.577455 383.774635 
L 401.118545 372.174635 
L 402.268364 350.98091 
L 402.471273 340.784799 
L 402.606545 313.164414 
L 402.674182 91.740808 
L 402.741818 137.189305 
L 402.944727 365.42516 
L 403.147636 415.370289 
L 403.215273 414.71564 
L 403.688727 392.724578 
L 404.162182 378.581425 
L 404.770909 367.556817 
L 405.447273 355.563156 
L 405.717818 346.709936 
L 405.853091 336.595877 
L 405.920727 323.742759 
L 406.056 108.703361 
L 406.326545 385.19569 
L 406.529455 415.116423 
L 406.732364 406.740317 
L 407.273455 384.525542 
L 407.814545 372.697881 
L 408.964364 351.386606 
L 409.167273 341.699975 
L 409.302545 319.074792 
L 409.370182 103.40345 
L 409.437818 122.103888 
L 409.640727 359.584285 
L 409.843636 414.618547 
L 409.911273 414.578612 
L 410.181818 402.399196 
L 410.655273 384.274096 
L 411.196364 372.495135 
L 412.278545 352.826377 
L 412.481455 345.184352 
L 412.616727 333.259102 
L 412.684364 313.904177 
L 412.752 92.568482 
L 412.819636 135.90385 
L 413.022545 365.532316 
L 413.225455 415.760903 
L 413.293091 414.907217 
L 414.307636 377.064684 
L 414.984 365.363479 
L 415.592727 354.367161 
L 415.863273 344.615043 
L 415.998545 331.340369 
L 416.066182 305.347504 
L 416.133818 91.496128 
L 416.201455 153.695364 
L 416.404364 370.383469 
L 416.607273 415.017059 
L 416.742545 411.367345 
L 417.418909 383.334405 
L 417.96 371.968327 
L 419.109818 351.436489 
L 419.312727 343.78955 
L 419.448 331.230403 
L 419.515636 308.139121 
L 419.583273 92.871317 
L 419.650909 150.298459 
L 419.853818 369.689636 
L 420.056727 415.526732 
L 420.192 411.47812 
L 420.800727 384.985171 
L 421.274182 374.157425 
L 422.694545 347.029472 
L 422.829818 338.931021 
L 422.897455 330.429782 
L 422.965091 303.402535 
L 423.032727 92.994137 
L 423.100364 158.599302 
L 423.303273 372.301717 
L 423.506182 415.721108 
L 423.641455 411.34559 
L 424.250182 384.941473 
L 424.723636 374.23478 
L 425.941091 351.186266 
L 426.144 340.609331 
L 426.211636 332.623823 
L 426.279273 310.256347 
L 426.346909 90.625601 
L 426.414545 143.505485 
L 426.617455 367.722837 
L 426.820364 415.254371 
L 426.888 414.328279 
L 427.902545 376.964507 
L 428.578909 365.817939 
L 429.187636 355.386905 
L 429.458182 347.149081 
L 429.593455 338.461493 
L 429.661091 328.83274 
L 429.728727 290.13058 
L 429.796364 95.358976 
L 429.864 174.41346 
L 430.066909 375.78932 
L 430.269818 415.006134 
L 430.405091 411.04615 
L 430.472727 407.790086 
L 430.608 415.464217 
L 430.675636 415.495308 
L 431.284364 412.041616 
L 431.419636 412.181159 
L 431.690182 413.12537 
L 432.298909 416.580677 
L 433.989818 426.445813 
L 434.869091 430.307313 
L 435.680727 432.909287 
L 436.424727 434.578092 
L 437.168727 435.712821 
L 437.912727 436.461588 
L 438.724364 436.980119 
L 439.738909 437.354718 
L 441.091636 437.595154 
L 443.188364 437.714853 
L 446.908364 437.679263 
L 458.88 437.303347 
L 498.109091 437.296418 
L 498.109091 437.296418 
" clip-path="url(#p570fc86544)" style="fill: none; stroke: #000000; stroke-width: 1.5; stroke-linecap: square"/>
   </g>
   <g id="line2d_14">
    <path d="M 497.973818 408.87 
" clip-path="url(#p570fc86544)" style="fill: none; stroke: #000000; stroke-width: 1.5; stroke-linecap: square"/>
   </g>
   <g id="line2d_15">
    <path d="M 430.472727 368.1 
L 430.472727 365.382 
L 430.472727 362.664 
L 430.472727 359.946 
L 430.472727 357.228 
L 430.472727 354.51 
L 430.472727 351.792 
L 430.472727 349.074 
L 430.472727 346.356 
L 430.472727 343.638 
L 430.472727 340.92 
L 430.472727 338.202 
L 430.472727 335.484 
L 430.472727 332.766 
L 430.472727 330.048 
L 430.472727 327.33 
L 430.472727 324.612 
L 430.472727 321.894 
L 430.472727 319.176 
L 430.472727 316.458 
" clip-path="url(#p570fc86544)" style="fill: none; stroke: #000000; stroke-width: 1.5; stroke-linecap: square"/>
   </g>
   <g id="patch_3">
    <path d="M 72 504 
L 72 69.12 
" style="fill: none; stroke: #000000; stroke-width: 0.8; stroke-linejoin: miter; stroke-linecap: square"/>
   </g>
   <g id="patch_4">
    <path d="M 518.4 504 
L 518.4 69.12 
" style="fill: none; stroke: #000000; stroke-width: 0.8; stroke-linejoin: miter; stroke-linecap: square"/>
   </g>
   <g id="patch_5">
    <path d="M 72 504 
L 518.4 504 
" style="fill: none; stroke: #000000; stroke-width: 0.8; stroke-linejoin: miter; stroke-linecap: square"/>
   </g>
   <g id="patch_6">
    <path d="M 72 69.12 
L 518.4 69.12 
" style="fill: none; stroke: #000000; stroke-width: 0.8; stroke-linejoin: miter; stroke-linecap: square"/>
   </g>
   <g id="text_15">
    <!-- 500 ms -->
    <g transform="translate(497.973818 406.152)scale(0.22 -0.22)">
     <defs>
      <path id="ArialMT-35" d="M 266 1200 
L 856 1250 
Q 922 819 1161 601 
Q 1400 384 1738 384 
Q 2144 384 2425 690 
Q 2706 997 2706 1503 
Q 2706 1984 2436 2262 
Q 2166 2541 1728 2541 
Q 1456 2541 1237 2417 
Q 1019 2294 894 2097 
L 366 2166 
L 809 4519 
L 3088 4519 
L 3088 3981 
L 1259 3981 
L 1013 2750 
Q 1425 3038 1878 3038 
Q 2478 3038 2890 2622 
Q 3303 2206 3303 1553 
Q 3303 931 2941 478 
Q 2500 -78 1738 -78 
Q 1113 -78 717 272 
Q 322 622 266 1200 
z
" transform="scale(0.015625)"/>
      <path id="ArialMT-30" d="M 266 2259 
Q 266 3072 433 3567 
Q 600 4063 929 4331 
Q 1259 4600 1759 4600 
Q 2128 4600 2406 4451 
Q 2684 4303 2865 4023 
Q 3047 3744 3150 3342 
Q 3253 2941 3253 2259 
Q 3253 1453 3087 958 
Q 2922 463 2592 192 
Q 2263 -78 1759 -78 
Q 1097 -78 719 397 
Q 266 969 266 2259 
z
M 844 2259 
Q 844 1131 1108 757 
Q 1372 384 1759 384 
Q 2147 384 2411 759 
Q 2675 1134 2675 2259 
Q 2675 3391 2411 3762 
Q 2147 4134 1753 4134 
Q 1366 4134 1134 3806 
Q 844 3388 844 2259 
z
" transform="scale(0.015625)"/>
     </defs>
     <use xlink:href="#ArialMT-35"/>
     <use xlink:href="#ArialMT-30" x="55.615234"/>
     <use xlink:href="#ArialMT-30" x="111.230469"/>
     <use xlink:href="#ArialMT-20" x="166.845703"/>
     <use xlink:href="#ArialMT-6d" x="194.628906"/>
     <use xlink:href="#ArialMT-73" x="277.929688"/>
    </g>
   </g>
   <g id="text_16">
    <!-- 20 mV -->
    <g transform="translate(504.737455 321.894)scale(0.22 -0.22)">
     <defs>
      <path id="ArialMT-32" d="M 3222 541 
L 3222 0 
L 194 0 
Q 188 203 259 391 
Q 375 700 629 1000 
Q 884 1300 1366 1694 
Q 2113 2306 2375 2664 
Q 2638 3022 2638 3341 
Q 2638 3675 2398 3904 
Q 2159 4134 1775 4134 
Q 1369 4134 1125 3890 
Q 881 3647 878 3216 
L 300 3275 
Q 359 3922 746 4261 
Q 1134 4600 1788 4600 
Q 2447 4600 2831 4234 
Q 3216 3869 3216 3328 
Q 3216 3053 3103 2787 
Q 2991 2522 2730 2228 
Q 2469 1934 1863 1422 
Q 1356 997 1212 845 
Q 1069 694 975 541 
L 3222 541 
z
" transform="scale(0.015625)"/>
     </defs>
     <use xlink:href="#ArialMT-32"/>
     <use xlink:href="#ArialMT-30" x="55.615234"/>
     <use xlink:href="#ArialMT-20" x="111.230469"/>
     <use xlink:href="#ArialMT-6d" x="139.013672"/>
     <use xlink:href="#ArialMT-56" x="222.314453"/>
    </g>
   </g>
   <g id="text_17">
    <!--  Plotting iSPN, trace number 6167  -->
    <g transform="translate(125.842969 63.12)scale(0.22 -0.22)">
     <defs>
      <path id="ArialMT-50" d="M 494 0 
L 494 4581 
L 2222 4581 
Q 2678 4581 2919 4538 
Q 3256 4481 3484 4323 
Q 3713 4166 3852 3881 
Q 3991 3597 3991 3256 
Q 3991 2672 3619 2267 
Q 3247 1863 2275 1863 
L 1100 1863 
L 1100 0 
L 494 0 
z
M 1100 2403 
L 2284 2403 
Q 2872 2403 3119 2622 
Q 3366 2841 3366 3238 
Q 3366 3525 3220 3729 
Q 3075 3934 2838 4000 
Q 2684 4041 2272 4041 
L 1100 4041 
L 1100 2403 
z
" transform="scale(0.015625)"/>
      <path id="ArialMT-67" d="M 319 -275 
L 866 -356 
Q 900 -609 1056 -725 
Q 1266 -881 1628 -881 
Q 2019 -881 2231 -725 
Q 2444 -569 2519 -288 
Q 2563 -116 2559 434 
Q 2191 0 1641 0 
Q 956 0 581 494 
Q 206 988 206 1678 
Q 206 2153 378 2554 
Q 550 2956 876 3175 
Q 1203 3394 1644 3394 
Q 2231 3394 2613 2919 
L 2613 3319 
L 3131 3319 
L 3131 450 
Q 3131 -325 2973 -648 
Q 2816 -972 2473 -1159 
Q 2131 -1347 1631 -1347 
Q 1038 -1347 672 -1080 
Q 306 -813 319 -275 
z
M 784 1719 
Q 784 1066 1043 766 
Q 1303 466 1694 466 
Q 2081 466 2343 764 
Q 2606 1063 2606 1700 
Q 2606 2309 2336 2618 
Q 2066 2928 1684 2928 
Q 1309 2928 1046 2623 
Q 784 2319 784 1719 
z
" transform="scale(0.015625)"/>
      <path id="ArialMT-53" d="M 288 1472 
L 859 1522 
Q 900 1178 1048 958 
Q 1197 738 1509 602 
Q 1822 466 2213 466 
Q 2559 466 2825 569 
Q 3091 672 3220 851 
Q 3350 1031 3350 1244 
Q 3350 1459 3225 1620 
Q 3100 1781 2813 1891 
Q 2628 1963 1997 2114 
Q 1366 2266 1113 2400 
Q 784 2572 623 2826 
Q 463 3081 463 3397 
Q 463 3744 659 4045 
Q 856 4347 1234 4503 
Q 1613 4659 2075 4659 
Q 2584 4659 2973 4495 
Q 3363 4331 3572 4012 
Q 3781 3694 3797 3291 
L 3216 3247 
Q 3169 3681 2898 3903 
Q 2628 4125 2100 4125 
Q 1550 4125 1298 3923 
Q 1047 3722 1047 3438 
Q 1047 3191 1225 3031 
Q 1400 2872 2139 2705 
Q 2878 2538 3153 2413 
Q 3553 2228 3743 1945 
Q 3934 1663 3934 1294 
Q 3934 928 3725 604 
Q 3516 281 3123 101 
Q 2731 -78 2241 -78 
Q 1619 -78 1198 103 
Q 778 284 539 648 
Q 300 1013 288 1472 
z
" transform="scale(0.015625)"/>
      <path id="ArialMT-4e" d="M 488 0 
L 488 4581 
L 1109 4581 
L 3516 984 
L 3516 4581 
L 4097 4581 
L 4097 0 
L 3475 0 
L 1069 3600 
L 1069 0 
L 488 0 
z
" transform="scale(0.015625)"/>
      <path id="ArialMT-2c" d="M 569 0 
L 569 641 
L 1209 641 
L 1209 0 
Q 1209 -353 1084 -570 
Q 959 -788 688 -906 
L 531 -666 
Q 709 -588 793 -436 
Q 878 -284 888 0 
L 569 0 
z
" transform="scale(0.015625)"/>
      <path id="ArialMT-63" d="M 2588 1216 
L 3141 1144 
Q 3050 572 2676 248 
Q 2303 -75 1759 -75 
Q 1078 -75 664 370 
Q 250 816 250 1647 
Q 250 2184 428 2587 
Q 606 2991 970 3192 
Q 1334 3394 1763 3394 
Q 2303 3394 2647 3120 
Q 2991 2847 3088 2344 
L 2541 2259 
Q 2463 2594 2264 2762 
Q 2066 2931 1784 2931 
Q 1359 2931 1093 2626 
Q 828 2322 828 1663 
Q 828 994 1084 691 
Q 1341 388 1753 388 
Q 2084 388 2306 591 
Q 2528 794 2588 1216 
z
" transform="scale(0.015625)"/>
      <path id="ArialMT-75" d="M 2597 0 
L 2597 488 
Q 2209 -75 1544 -75 
Q 1250 -75 995 37 
Q 741 150 617 320 
Q 494 491 444 738 
Q 409 903 409 1263 
L 409 3319 
L 972 3319 
L 972 1478 
Q 972 1038 1006 884 
Q 1059 663 1231 536 
Q 1403 409 1656 409 
Q 1909 409 2131 539 
Q 2353 669 2445 892 
Q 2538 1116 2538 1541 
L 2538 3319 
L 3100 3319 
L 3100 0 
L 2597 0 
z
" transform="scale(0.015625)"/>
      <path id="ArialMT-36" d="M 3184 3459 
L 2625 3416 
Q 2550 3747 2413 3897 
Q 2184 4138 1850 4138 
Q 1581 4138 1378 3988 
Q 1113 3794 959 3422 
Q 806 3050 800 2363 
Q 1003 2672 1297 2822 
Q 1591 2972 1913 2972 
Q 2475 2972 2870 2558 
Q 3266 2144 3266 1488 
Q 3266 1056 3080 686 
Q 2894 316 2569 119 
Q 2244 -78 1831 -78 
Q 1128 -78 684 439 
Q 241 956 241 2144 
Q 241 3472 731 4075 
Q 1159 4600 1884 4600 
Q 2425 4600 2770 4297 
Q 3116 3994 3184 3459 
z
M 888 1484 
Q 888 1194 1011 928 
Q 1134 663 1356 523 
Q 1578 384 1822 384 
Q 2178 384 2434 671 
Q 2691 959 2691 1453 
Q 2691 1928 2437 2201 
Q 2184 2475 1800 2475 
Q 1419 2475 1153 2201 
Q 888 1928 888 1484 
z
" transform="scale(0.015625)"/>
      <path id="ArialMT-31" d="M 2384 0 
L 1822 0 
L 1822 3584 
Q 1619 3391 1289 3197 
Q 959 3003 697 2906 
L 697 3450 
Q 1169 3672 1522 3987 
Q 1875 4303 2022 4600 
L 2384 4600 
L 2384 0 
z
" transform="scale(0.015625)"/>
      <path id="ArialMT-37" d="M 303 3981 
L 303 4522 
L 3269 4522 
L 3269 4084 
Q 2831 3619 2401 2847 
Q 1972 2075 1738 1259 
Q 1569 684 1522 0 
L 944 0 
Q 953 541 1156 1306 
Q 1359 2072 1739 2783 
Q 2119 3494 2547 3981 
L 303 3981 
z
" transform="scale(0.015625)"/>
     </defs>
     <use xlink:href="#ArialMT-20"/>
     <use xlink:href="#ArialMT-50" x="27.783203"/>
     <use xlink:href="#ArialMT-6c" x="94.482422"/>
     <use xlink:href="#ArialMT-6f" x="116.699219"/>
     <use xlink:href="#ArialMT-74" x="172.314453"/>
     <use xlink:href="#ArialMT-74" x="200.097656"/>
     <use xlink:href="#ArialMT-69" x="227.880859"/>
     <use xlink:href="#ArialMT-6e" x="250.097656"/>
     <use xlink:href="#ArialMT-67" x="305.712891"/>
     <use xlink:href="#ArialMT-20" x="361.328125"/>
     <use xlink:href="#ArialMT-69" x="389.111328"/>
     <use xlink:href="#ArialMT-53" x="411.328125"/>
     <use xlink:href="#ArialMT-50" x="478.027344"/>
     <use xlink:href="#ArialMT-4e" x="544.726562"/>
     <use xlink:href="#ArialMT-2c" x="616.943359"/>
     <use xlink:href="#ArialMT-20" x="644.726562"/>
     <use xlink:href="#ArialMT-74" x="672.509766"/>
     <use xlink:href="#ArialMT-72" x="700.292969"/>
     <use xlink:href="#ArialMT-61" x="733.59375"/>
     <use xlink:href="#ArialMT-63" x="789.208984"/>
     <use xlink:href="#ArialMT-65" x="839.208984"/>
     <use xlink:href="#ArialMT-20" x="894.824219"/>
     <use xlink:href="#ArialMT-6e" x="922.607422"/>
     <use xlink:href="#ArialMT-75" x="978.222656"/>
     <use xlink:href="#ArialMT-6d" x="1033.837891"/>
     <use xlink:href="#ArialMT-62" x="1117.138672"/>
     <use xlink:href="#ArialMT-65" x="1172.753906"/>
     <use xlink:href="#ArialMT-72" x="1228.369141"/>
     <use xlink:href="#ArialMT-20" x="1261.669922"/>
     <use xlink:href="#ArialMT-36" x="1289.453125"/>
     <use xlink:href="#ArialMT-31" x="1345.068359"/>
     <use xlink:href="#ArialMT-36" x="1400.683594"/>
     <use xlink:href="#ArialMT-37" x="1456.298828"/>
     <use xlink:href="#ArialMT-20" x="1511.914062"/>
    </g>
   </g>
  </g>
 </g>
 <defs>
  <clipPath id="p570fc86544">
   <rect x="72" y="69.12" width="446.4" height="434.88"/>
  </clipPath>
 </defs>
</svg>
