<?xml version="1.0" encoding="utf-8" standalone="no"?>
<!DOCTYPE svg PUBLIC "-//W3C//DTD SVG 1.1//EN"
  "http://www.w3.org/Graphics/SVG/1.1/DTD/svg11.dtd">
<svg xmlns:xlink="http://www.w3.org/1999/xlink" width="576pt" height="576pt" viewBox="0 0 576 576" xmlns="http://www.w3.org/2000/svg" version="1.1">
 <metadata>
  <rdf:RDF xmlns:dc="http://purl.org/dc/elements/1.1/" xmlns:cc="http://creativecommons.org/ns#" xmlns:rdf="http://www.w3.org/1999/02/22-rdf-syntax-ns#">
   <cc:Work>
    <dc:type rdf:resource="http://purl.org/dc/dcmitype/StillImage"/>
    <dc:date>2022-10-30T19:57:17.477789</dc:date>
    <dc:format>image/svg+xml</dc:format>
    <dc:creator>
     <cc:Agent>
      <dc:title>Matplotlib v3.5.2, https://matplotlib.org/</dc:title>
     </cc:Agent>
    </dc:creator>
   </cc:Work>
  </rdf:RDF>
 </metadata>
 <defs>
  <style type="text/css">*{stroke-linejoin: round; stroke-linecap: butt}</style>
 </defs>
 <g id="figure_1">
  <g id="patch_1">
   <path d="M 0 576 
L 576 576 
L 576 0 
L 0 0 
L 0 576 
z
" style="fill: none"/>
  </g>
  <g id="axes_1">
   <g id="patch_2">
    <path d="M 72 504 
L 518.4 504 
L 518.4 69.12 
L 72 69.12 
z
" style="fill: #ffffff"/>
   </g>
   <g id="matplotlib.axis_1">
    <g id="xtick_1">
     <g id="line2d_1">
      <defs>
       <path id="m5961d924f3" d="M 0 0 
L 0 3.5 
" style="stroke: #000000; stroke-width: 0.8"/>
      </defs>
      <g>
       <use xlink:href="#m5961d924f3" x="92.290909" y="504" style="stroke: #000000; stroke-width: 0.8"/>
      </g>
     </g>
     <g id="text_1">
      <!-- 0 -->
      <g transform="translate(85.292159 527.716563)scale(0.22 -0.22)">
       <defs>
        <path id="DejaVuSans-30" d="M 2034 4250 
Q 1547 4250 1301 3770 
Q 1056 3291 1056 2328 
Q 1056 1369 1301 889 
Q 1547 409 2034 409 
Q 2525 409 2770 889 
Q 3016 1369 3016 2328 
Q 3016 3291 2770 3770 
Q 2525 4250 2034 4250 
z
M 2034 4750 
Q 2819 4750 3233 4129 
Q 3647 3509 3647 2328 
Q 3647 1150 3233 529 
Q 2819 -91 2034 -91 
Q 1250 -91 836 529 
Q 422 1150 422 2328 
Q 422 3509 836 4129 
Q 1250 4750 2034 4750 
z
" transform="scale(0.015625)"/>
       </defs>
       <use xlink:href="#DejaVuSans-30"/>
      </g>
     </g>
    </g>
    <g id="xtick_2">
     <g id="line2d_2">
      <g>
       <use xlink:href="#m5961d924f3" x="227.563636" y="504" style="stroke: #000000; stroke-width: 0.8"/>
      </g>
     </g>
     <g id="text_2">
      <!-- 1000 -->
      <g transform="translate(199.568636 527.716563)scale(0.22 -0.22)">
       <defs>
        <path id="DejaVuSans-31" d="M 794 531 
L 1825 531 
L 1825 4091 
L 703 3866 
L 703 4441 
L 1819 4666 
L 2450 4666 
L 2450 531 
L 3481 531 
L 3481 0 
L 794 0 
L 794 531 
z
" transform="scale(0.015625)"/>
       </defs>
       <use xlink:href="#DejaVuSans-31"/>
       <use xlink:href="#DejaVuSans-30" x="63.623047"/>
       <use xlink:href="#DejaVuSans-30" x="127.246094"/>
       <use xlink:href="#DejaVuSans-30" x="190.869141"/>
      </g>
     </g>
    </g>
    <g id="xtick_3">
     <g id="line2d_3">
      <g>
       <use xlink:href="#m5961d924f3" x="362.836364" y="504" style="stroke: #000000; stroke-width: 0.8"/>
      </g>
     </g>
     <g id="text_3">
      <!-- 2000 -->
      <g transform="translate(334.841364 527.716563)scale(0.22 -0.22)">
       <defs>
        <path id="DejaVuSans-32" d="M 1228 531 
L 3431 531 
L 3431 0 
L 469 0 
L 469 531 
Q 828 903 1448 1529 
Q 2069 2156 2228 2338 
Q 2531 2678 2651 2914 
Q 2772 3150 2772 3378 
Q 2772 3750 2511 3984 
Q 2250 4219 1831 4219 
Q 1534 4219 1204 4116 
Q 875 4013 500 3803 
L 500 4441 
Q 881 4594 1212 4672 
Q 1544 4750 1819 4750 
Q 2544 4750 2975 4387 
Q 3406 4025 3406 3419 
Q 3406 3131 3298 2873 
Q 3191 2616 2906 2266 
Q 2828 2175 2409 1742 
Q 1991 1309 1228 531 
z
" transform="scale(0.015625)"/>
       </defs>
       <use xlink:href="#DejaVuSans-32"/>
       <use xlink:href="#DejaVuSans-30" x="63.623047"/>
       <use xlink:href="#DejaVuSans-30" x="127.246094"/>
       <use xlink:href="#DejaVuSans-30" x="190.869141"/>
      </g>
     </g>
    </g>
    <g id="xtick_4">
     <g id="line2d_4">
      <g>
       <use xlink:href="#m5961d924f3" x="498.109091" y="504" style="stroke: #000000; stroke-width: 0.8"/>
      </g>
     </g>
     <g id="text_4">
      <!-- 3000 -->
      <g transform="translate(470.114091 527.716563)scale(0.22 -0.22)">
       <defs>
        <path id="DejaVuSans-33" d="M 2597 2516 
Q 3050 2419 3304 2112 
Q 3559 1806 3559 1356 
Q 3559 666 3084 287 
Q 2609 -91 1734 -91 
Q 1441 -91 1130 -33 
Q 819 25 488 141 
L 488 750 
Q 750 597 1062 519 
Q 1375 441 1716 441 
Q 2309 441 2620 675 
Q 2931 909 2931 1356 
Q 2931 1769 2642 2001 
Q 2353 2234 1838 2234 
L 1294 2234 
L 1294 2753 
L 1863 2753 
Q 2328 2753 2575 2939 
Q 2822 3125 2822 3475 
Q 2822 3834 2567 4026 
Q 2313 4219 1838 4219 
Q 1578 4219 1281 4162 
Q 984 4106 628 3988 
L 628 4550 
Q 988 4650 1302 4700 
Q 1616 4750 1894 4750 
Q 2613 4750 3031 4423 
Q 3450 4097 3450 3541 
Q 3450 3153 3228 2886 
Q 3006 2619 2597 2516 
z
" transform="scale(0.015625)"/>
       </defs>
       <use xlink:href="#DejaVuSans-33"/>
       <use xlink:href="#DejaVuSans-30" x="63.623047"/>
       <use xlink:href="#DejaVuSans-30" x="127.246094"/>
       <use xlink:href="#DejaVuSans-30" x="190.869141"/>
      </g>
     </g>
    </g>
    <g id="text_5">
     <!-- Time(ms) -->
     <g transform="translate(249.182187 552.307188)scale(0.22 -0.22)">
      <defs>
       <path id="ArialMT-54" d="M 1659 0 
L 1659 4041 
L 150 4041 
L 150 4581 
L 3781 4581 
L 3781 4041 
L 2266 4041 
L 2266 0 
L 1659 0 
z
" transform="scale(0.015625)"/>
       <path id="ArialMT-69" d="M 425 3934 
L 425 4581 
L 988 4581 
L 988 3934 
L 425 3934 
z
M 425 0 
L 425 3319 
L 988 3319 
L 988 0 
L 425 0 
z
" transform="scale(0.015625)"/>
       <path id="ArialMT-6d" d="M 422 0 
L 422 3319 
L 925 3319 
L 925 2853 
Q 1081 3097 1340 3245 
Q 1600 3394 1931 3394 
Q 2300 3394 2536 3241 
Q 2772 3088 2869 2813 
Q 3263 3394 3894 3394 
Q 4388 3394 4653 3120 
Q 4919 2847 4919 2278 
L 4919 0 
L 4359 0 
L 4359 2091 
Q 4359 2428 4304 2576 
Q 4250 2725 4106 2815 
Q 3963 2906 3769 2906 
Q 3419 2906 3187 2673 
Q 2956 2441 2956 1928 
L 2956 0 
L 2394 0 
L 2394 2156 
Q 2394 2531 2256 2718 
Q 2119 2906 1806 2906 
Q 1569 2906 1367 2781 
Q 1166 2656 1075 2415 
Q 984 2175 984 1722 
L 984 0 
L 422 0 
z
" transform="scale(0.015625)"/>
       <path id="ArialMT-65" d="M 2694 1069 
L 3275 997 
Q 3138 488 2766 206 
Q 2394 -75 1816 -75 
Q 1088 -75 661 373 
Q 234 822 234 1631 
Q 234 2469 665 2931 
Q 1097 3394 1784 3394 
Q 2450 3394 2872 2941 
Q 3294 2488 3294 1666 
Q 3294 1616 3291 1516 
L 816 1516 
Q 847 969 1125 678 
Q 1403 388 1819 388 
Q 2128 388 2347 550 
Q 2566 713 2694 1069 
z
M 847 1978 
L 2700 1978 
Q 2663 2397 2488 2606 
Q 2219 2931 1791 2931 
Q 1403 2931 1139 2672 
Q 875 2413 847 1978 
z
" transform="scale(0.015625)"/>
       <path id="ArialMT-28" d="M 1497 -1347 
Q 1031 -759 709 28 
Q 388 816 388 1659 
Q 388 2403 628 3084 
Q 909 3875 1497 4659 
L 1900 4659 
Q 1522 4009 1400 3731 
Q 1209 3300 1100 2831 
Q 966 2247 966 1656 
Q 966 153 1900 -1347 
L 1497 -1347 
z
" transform="scale(0.015625)"/>
       <path id="ArialMT-73" d="M 197 991 
L 753 1078 
Q 800 744 1014 566 
Q 1228 388 1613 388 
Q 2000 388 2187 545 
Q 2375 703 2375 916 
Q 2375 1106 2209 1216 
Q 2094 1291 1634 1406 
Q 1016 1563 777 1677 
Q 538 1791 414 1992 
Q 291 2194 291 2438 
Q 291 2659 392 2848 
Q 494 3038 669 3163 
Q 800 3259 1026 3326 
Q 1253 3394 1513 3394 
Q 1903 3394 2198 3281 
Q 2494 3169 2634 2976 
Q 2775 2784 2828 2463 
L 2278 2388 
Q 2241 2644 2061 2787 
Q 1881 2931 1553 2931 
Q 1166 2931 1000 2803 
Q 834 2675 834 2503 
Q 834 2394 903 2306 
Q 972 2216 1119 2156 
Q 1203 2125 1616 2013 
Q 2213 1853 2448 1751 
Q 2684 1650 2818 1456 
Q 2953 1263 2953 975 
Q 2953 694 2789 445 
Q 2625 197 2315 61 
Q 2006 -75 1616 -75 
Q 969 -75 630 194 
Q 291 463 197 991 
z
" transform="scale(0.015625)"/>
       <path id="ArialMT-29" d="M 791 -1347 
L 388 -1347 
Q 1322 153 1322 1656 
Q 1322 2244 1188 2822 
Q 1081 3291 891 3722 
Q 769 4003 388 4659 
L 791 4659 
Q 1378 3875 1659 3084 
Q 1900 2403 1900 1659 
Q 1900 816 1576 28 
Q 1253 -759 791 -1347 
z
" transform="scale(0.015625)"/>
      </defs>
      <use xlink:href="#ArialMT-54"/>
      <use xlink:href="#ArialMT-69" x="57.333984"/>
      <use xlink:href="#ArialMT-6d" x="79.550781"/>
      <use xlink:href="#ArialMT-65" x="162.851562"/>
      <use xlink:href="#ArialMT-28" x="218.466797"/>
      <use xlink:href="#ArialMT-6d" x="251.767578"/>
      <use xlink:href="#ArialMT-73" x="335.068359"/>
      <use xlink:href="#ArialMT-29" x="385.068359"/>
     </g>
    </g>
   </g>
   <g id="matplotlib.axis_2">
    <g id="ytick_1">
     <g id="line2d_5">
      <defs>
       <path id="m10133773d2" d="M 0 0 
L -3.5 0 
" style="stroke: #000000; stroke-width: 0.8"/>
      </defs>
      <g>
       <use xlink:href="#m10133773d2" x="72" y="476.82" style="stroke: #000000; stroke-width: 0.8"/>
      </g>
     </g>
     <g id="text_6">
      <!-- −100 -->
      <g transform="translate(4.572187 485.178281)scale(0.22 -0.22)">
       <defs>
        <path id="DejaVuSans-2212" d="M 678 2272 
L 4684 2272 
L 4684 1741 
L 678 1741 
L 678 2272 
z
" transform="scale(0.015625)"/>
       </defs>
       <use xlink:href="#DejaVuSans-2212"/>
       <use xlink:href="#DejaVuSans-31" x="83.789062"/>
       <use xlink:href="#DejaVuSans-30" x="147.412109"/>
       <use xlink:href="#DejaVuSans-30" x="211.035156"/>
      </g>
     </g>
    </g>
    <g id="ytick_2">
     <g id="line2d_6">
      <g>
       <use xlink:href="#m10133773d2" x="72" y="422.46" style="stroke: #000000; stroke-width: 0.8"/>
      </g>
     </g>
     <g id="text_7">
      <!-- −80 -->
      <g transform="translate(18.569688 430.818281)scale(0.22 -0.22)">
       <defs>
        <path id="DejaVuSans-38" d="M 2034 2216 
Q 1584 2216 1326 1975 
Q 1069 1734 1069 1313 
Q 1069 891 1326 650 
Q 1584 409 2034 409 
Q 2484 409 2743 651 
Q 3003 894 3003 1313 
Q 3003 1734 2745 1975 
Q 2488 2216 2034 2216 
z
M 1403 2484 
Q 997 2584 770 2862 
Q 544 3141 544 3541 
Q 544 4100 942 4425 
Q 1341 4750 2034 4750 
Q 2731 4750 3128 4425 
Q 3525 4100 3525 3541 
Q 3525 3141 3298 2862 
Q 3072 2584 2669 2484 
Q 3125 2378 3379 2068 
Q 3634 1759 3634 1313 
Q 3634 634 3220 271 
Q 2806 -91 2034 -91 
Q 1263 -91 848 271 
Q 434 634 434 1313 
Q 434 1759 690 2068 
Q 947 2378 1403 2484 
z
M 1172 3481 
Q 1172 3119 1398 2916 
Q 1625 2713 2034 2713 
Q 2441 2713 2670 2916 
Q 2900 3119 2900 3481 
Q 2900 3844 2670 4047 
Q 2441 4250 2034 4250 
Q 1625 4250 1398 4047 
Q 1172 3844 1172 3481 
z
" transform="scale(0.015625)"/>
       </defs>
       <use xlink:href="#DejaVuSans-2212"/>
       <use xlink:href="#DejaVuSans-38" x="83.789062"/>
       <use xlink:href="#DejaVuSans-30" x="147.412109"/>
      </g>
     </g>
    </g>
    <g id="ytick_3">
     <g id="line2d_7">
      <g>
       <use xlink:href="#m10133773d2" x="72" y="368.1" style="stroke: #000000; stroke-width: 0.8"/>
      </g>
     </g>
     <g id="text_8">
      <!-- −60 -->
      <g transform="translate(18.569688 376.458281)scale(0.22 -0.22)">
       <defs>
        <path id="DejaVuSans-36" d="M 2113 2584 
Q 1688 2584 1439 2293 
Q 1191 2003 1191 1497 
Q 1191 994 1439 701 
Q 1688 409 2113 409 
Q 2538 409 2786 701 
Q 3034 994 3034 1497 
Q 3034 2003 2786 2293 
Q 2538 2584 2113 2584 
z
M 3366 4563 
L 3366 3988 
Q 3128 4100 2886 4159 
Q 2644 4219 2406 4219 
Q 1781 4219 1451 3797 
Q 1122 3375 1075 2522 
Q 1259 2794 1537 2939 
Q 1816 3084 2150 3084 
Q 2853 3084 3261 2657 
Q 3669 2231 3669 1497 
Q 3669 778 3244 343 
Q 2819 -91 2113 -91 
Q 1303 -91 875 529 
Q 447 1150 447 2328 
Q 447 3434 972 4092 
Q 1497 4750 2381 4750 
Q 2619 4750 2861 4703 
Q 3103 4656 3366 4563 
z
" transform="scale(0.015625)"/>
       </defs>
       <use xlink:href="#DejaVuSans-2212"/>
       <use xlink:href="#DejaVuSans-36" x="83.789062"/>
       <use xlink:href="#DejaVuSans-30" x="147.412109"/>
      </g>
     </g>
    </g>
    <g id="ytick_4">
     <g id="line2d_8">
      <g>
       <use xlink:href="#m10133773d2" x="72" y="313.74" style="stroke: #000000; stroke-width: 0.8"/>
      </g>
     </g>
     <g id="text_9">
      <!-- −40 -->
      <g transform="translate(18.569688 322.098281)scale(0.22 -0.22)">
       <defs>
        <path id="DejaVuSans-34" d="M 2419 4116 
L 825 1625 
L 2419 1625 
L 2419 4116 
z
M 2253 4666 
L 3047 4666 
L 3047 1625 
L 3713 1625 
L 3713 1100 
L 3047 1100 
L 3047 0 
L 2419 0 
L 2419 1100 
L 313 1100 
L 313 1709 
L 2253 4666 
z
" transform="scale(0.015625)"/>
       </defs>
       <use xlink:href="#DejaVuSans-2212"/>
       <use xlink:href="#DejaVuSans-34" x="83.789062"/>
       <use xlink:href="#DejaVuSans-30" x="147.412109"/>
      </g>
     </g>
    </g>
    <g id="ytick_5">
     <g id="line2d_9">
      <g>
       <use xlink:href="#m10133773d2" x="72" y="259.38" style="stroke: #000000; stroke-width: 0.8"/>
      </g>
     </g>
     <g id="text_10">
      <!-- −20 -->
      <g transform="translate(18.569688 267.738281)scale(0.22 -0.22)">
       <use xlink:href="#DejaVuSans-2212"/>
       <use xlink:href="#DejaVuSans-32" x="83.789062"/>
       <use xlink:href="#DejaVuSans-30" x="147.412109"/>
      </g>
     </g>
    </g>
    <g id="ytick_6">
     <g id="line2d_10">
      <g>
       <use xlink:href="#m10133773d2" x="72" y="205.02" style="stroke: #000000; stroke-width: 0.8"/>
      </g>
     </g>
     <g id="text_11">
      <!-- 0 -->
      <g transform="translate(51.0025 213.378281)scale(0.22 -0.22)">
       <use xlink:href="#DejaVuSans-30"/>
      </g>
     </g>
    </g>
    <g id="ytick_7">
     <g id="line2d_11">
      <g>
       <use xlink:href="#m10133773d2" x="72" y="150.66" style="stroke: #000000; stroke-width: 0.8"/>
      </g>
     </g>
     <g id="text_12">
      <!-- 20 -->
      <g transform="translate(37.005 159.018281)scale(0.22 -0.22)">
       <use xlink:href="#DejaVuSans-32"/>
       <use xlink:href="#DejaVuSans-30" x="63.623047"/>
      </g>
     </g>
    </g>
    <g id="ytick_8">
     <g id="line2d_12">
      <g>
       <use xlink:href="#m10133773d2" x="72" y="96.3" style="stroke: #000000; stroke-width: 0.8"/>
      </g>
     </g>
     <g id="text_13">
      <!-- 40 -->
      <g transform="translate(37.005 104.658281)scale(0.22 -0.22)">
       <use xlink:href="#DejaVuSans-34"/>
       <use xlink:href="#DejaVuSans-30" x="63.623047"/>
      </g>
     </g>
    </g>
    <g id="text_14">
     <!-- Membrane potential (mV) -->
     <g transform="translate(-4.058125 410.655469)rotate(-90)scale(0.22 -0.22)">
      <defs>
       <path id="ArialMT-4d" d="M 475 0 
L 475 4581 
L 1388 4581 
L 2472 1338 
Q 2622 884 2691 659 
Q 2769 909 2934 1394 
L 4031 4581 
L 4847 4581 
L 4847 0 
L 4263 0 
L 4263 3834 
L 2931 0 
L 2384 0 
L 1059 3900 
L 1059 0 
L 475 0 
z
" transform="scale(0.015625)"/>
       <path id="ArialMT-62" d="M 941 0 
L 419 0 
L 419 4581 
L 981 4581 
L 981 2947 
Q 1338 3394 1891 3394 
Q 2197 3394 2470 3270 
Q 2744 3147 2920 2923 
Q 3097 2700 3197 2384 
Q 3297 2069 3297 1709 
Q 3297 856 2875 390 
Q 2453 -75 1863 -75 
Q 1275 -75 941 416 
L 941 0 
z
M 934 1684 
Q 934 1088 1097 822 
Q 1363 388 1816 388 
Q 2184 388 2453 708 
Q 2722 1028 2722 1663 
Q 2722 2313 2464 2622 
Q 2206 2931 1841 2931 
Q 1472 2931 1203 2611 
Q 934 2291 934 1684 
z
" transform="scale(0.015625)"/>
       <path id="ArialMT-72" d="M 416 0 
L 416 3319 
L 922 3319 
L 922 2816 
Q 1116 3169 1280 3281 
Q 1444 3394 1641 3394 
Q 1925 3394 2219 3213 
L 2025 2691 
Q 1819 2813 1613 2813 
Q 1428 2813 1281 2702 
Q 1134 2591 1072 2394 
Q 978 2094 978 1738 
L 978 0 
L 416 0 
z
" transform="scale(0.015625)"/>
       <path id="ArialMT-61" d="M 2588 409 
Q 2275 144 1986 34 
Q 1697 -75 1366 -75 
Q 819 -75 525 192 
Q 231 459 231 875 
Q 231 1119 342 1320 
Q 453 1522 633 1644 
Q 813 1766 1038 1828 
Q 1203 1872 1538 1913 
Q 2219 1994 2541 2106 
Q 2544 2222 2544 2253 
Q 2544 2597 2384 2738 
Q 2169 2928 1744 2928 
Q 1347 2928 1158 2789 
Q 969 2650 878 2297 
L 328 2372 
Q 403 2725 575 2942 
Q 747 3159 1072 3276 
Q 1397 3394 1825 3394 
Q 2250 3394 2515 3294 
Q 2781 3194 2906 3042 
Q 3031 2891 3081 2659 
Q 3109 2516 3109 2141 
L 3109 1391 
Q 3109 606 3145 398 
Q 3181 191 3288 0 
L 2700 0 
Q 2613 175 2588 409 
z
M 2541 1666 
Q 2234 1541 1622 1453 
Q 1275 1403 1131 1340 
Q 988 1278 909 1158 
Q 831 1038 831 891 
Q 831 666 1001 516 
Q 1172 366 1500 366 
Q 1825 366 2078 508 
Q 2331 650 2450 897 
Q 2541 1088 2541 1459 
L 2541 1666 
z
" transform="scale(0.015625)"/>
       <path id="ArialMT-6e" d="M 422 0 
L 422 3319 
L 928 3319 
L 928 2847 
Q 1294 3394 1984 3394 
Q 2284 3394 2536 3286 
Q 2788 3178 2913 3003 
Q 3038 2828 3088 2588 
Q 3119 2431 3119 2041 
L 3119 0 
L 2556 0 
L 2556 2019 
Q 2556 2363 2490 2533 
Q 2425 2703 2258 2804 
Q 2091 2906 1866 2906 
Q 1506 2906 1245 2678 
Q 984 2450 984 1813 
L 984 0 
L 422 0 
z
" transform="scale(0.015625)"/>
       <path id="ArialMT-20" transform="scale(0.015625)"/>
       <path id="ArialMT-70" d="M 422 -1272 
L 422 3319 
L 934 3319 
L 934 2888 
Q 1116 3141 1344 3267 
Q 1572 3394 1897 3394 
Q 2322 3394 2647 3175 
Q 2972 2956 3137 2557 
Q 3303 2159 3303 1684 
Q 3303 1175 3120 767 
Q 2938 359 2589 142 
Q 2241 -75 1856 -75 
Q 1575 -75 1351 44 
Q 1128 163 984 344 
L 984 -1272 
L 422 -1272 
z
M 931 1641 
Q 931 1000 1190 694 
Q 1450 388 1819 388 
Q 2194 388 2461 705 
Q 2728 1022 2728 1688 
Q 2728 2322 2467 2637 
Q 2206 2953 1844 2953 
Q 1484 2953 1207 2617 
Q 931 2281 931 1641 
z
" transform="scale(0.015625)"/>
       <path id="ArialMT-6f" d="M 213 1659 
Q 213 2581 725 3025 
Q 1153 3394 1769 3394 
Q 2453 3394 2887 2945 
Q 3322 2497 3322 1706 
Q 3322 1066 3130 698 
Q 2938 331 2570 128 
Q 2203 -75 1769 -75 
Q 1072 -75 642 372 
Q 213 819 213 1659 
z
M 791 1659 
Q 791 1022 1069 705 
Q 1347 388 1769 388 
Q 2188 388 2466 706 
Q 2744 1025 2744 1678 
Q 2744 2294 2464 2611 
Q 2184 2928 1769 2928 
Q 1347 2928 1069 2612 
Q 791 2297 791 1659 
z
" transform="scale(0.015625)"/>
       <path id="ArialMT-74" d="M 1650 503 
L 1731 6 
Q 1494 -44 1306 -44 
Q 1000 -44 831 53 
Q 663 150 594 308 
Q 525 466 525 972 
L 525 2881 
L 113 2881 
L 113 3319 
L 525 3319 
L 525 4141 
L 1084 4478 
L 1084 3319 
L 1650 3319 
L 1650 2881 
L 1084 2881 
L 1084 941 
Q 1084 700 1114 631 
Q 1144 563 1211 522 
Q 1278 481 1403 481 
Q 1497 481 1650 503 
z
" transform="scale(0.015625)"/>
       <path id="ArialMT-6c" d="M 409 0 
L 409 4581 
L 972 4581 
L 972 0 
L 409 0 
z
" transform="scale(0.015625)"/>
       <path id="ArialMT-56" d="M 1803 0 
L 28 4581 
L 684 4581 
L 1875 1253 
Q 2019 853 2116 503 
Q 2222 878 2363 1253 
L 3600 4581 
L 4219 4581 
L 2425 0 
L 1803 0 
z
" transform="scale(0.015625)"/>
      </defs>
      <use xlink:href="#ArialMT-4d"/>
      <use xlink:href="#ArialMT-65" x="83.300781"/>
      <use xlink:href="#ArialMT-6d" x="138.916016"/>
      <use xlink:href="#ArialMT-62" x="222.216797"/>
      <use xlink:href="#ArialMT-72" x="277.832031"/>
      <use xlink:href="#ArialMT-61" x="311.132812"/>
      <use xlink:href="#ArialMT-6e" x="366.748047"/>
      <use xlink:href="#ArialMT-65" x="422.363281"/>
      <use xlink:href="#ArialMT-20" x="477.978516"/>
      <use xlink:href="#ArialMT-70" x="505.761719"/>
      <use xlink:href="#ArialMT-6f" x="561.376953"/>
      <use xlink:href="#ArialMT-74" x="616.992188"/>
      <use xlink:href="#ArialMT-65" x="644.775391"/>
      <use xlink:href="#ArialMT-6e" x="700.390625"/>
      <use xlink:href="#ArialMT-74" x="756.005859"/>
      <use xlink:href="#ArialMT-69" x="783.789062"/>
      <use xlink:href="#ArialMT-61" x="806.005859"/>
      <use xlink:href="#ArialMT-6c" x="861.621094"/>
      <use xlink:href="#ArialMT-20" x="883.837891"/>
      <use xlink:href="#ArialMT-28" x="911.621094"/>
      <use xlink:href="#ArialMT-6d" x="944.921875"/>
      <use xlink:href="#ArialMT-56" x="1028.222656"/>
      <use xlink:href="#ArialMT-29" x="1094.921875"/>
     </g>
    </g>
   </g>
   <g id="line2d_13">
    <path d="M 92.290909 452.6298 
L 92.561455 464.42887 
L 92.899636 469.416934 
L 93.237818 471.739426 
L 93.643636 473.067356 
L 94.049455 473.677245 
L 94.522909 473.998393 
L 95.199273 474.174005 
L 96.619636 474.258632 
L 103.518545 474.27492 
L 159.927273 474.274959 
L 160.130182 448.624279 
L 160.468364 435.167627 
L 160.941818 425.989864 
L 161.550545 418.691988 
L 162.294545 412.596408 
L 163.106182 407.750306 
L 164.053091 403.452918 
L 165.067636 399.849201 
L 166.217455 396.570148 
L 167.502545 393.576207 
L 168.922909 390.818567 
L 170.613818 388.034735 
L 172.642909 385.142891 
L 175.754182 381.155296 
L 179.271273 376.586052 
L 180.826909 374.204404 
L 182.517818 371.042222 
L 183.532364 368.612722 
L 184.344 366.06784 
L 185.020364 363.170501 
L 185.561455 359.825925 
L 185.967273 356.013166 
L 186.305455 350.709889 
L 186.576 341.962352 
L 186.711273 331.373371 
L 186.778909 317.832843 
L 186.846545 199.515404 
L 186.914182 256.653644 
L 187.117091 369.497514 
L 187.32 374.819304 
L 187.455273 374.549075 
L 187.725818 373.652351 
L 187.928727 373.615787 
L 188.266909 373.568749 
L 188.672727 373.180666 
L 189.416727 372.069605 
L 190.498909 370.056488 
L 190.972364 368.845425 
L 191.378182 367.32393 
L 192.460364 364.801549 
L 193.204364 362.127353 
L 193.677818 359.586388 
L 194.083636 356.349128 
L 194.421818 352.062534 
L 194.692364 345.864972 
L 194.895273 335.391216 
L 194.962909 327.285726 
L 195.030545 305.611666 
L 195.098182 152.551015 
L 195.233455 344.518118 
L 195.436364 377.58211 
L 195.504 378.082714 
L 195.706909 375.515468 
L 196.112727 371.336383 
L 196.856727 367.026863 
L 197.397818 364.397469 
L 197.871273 360.784759 
L 198.277091 356.310045 
L 198.412364 353.261617 
L 198.750545 331.965888 
L 198.818182 321.362536 
L 198.953455 215.545113 
L 199.156364 371.098892 
L 199.291636 380.112319 
L 199.359273 380.277598 
L 200.170909 374.428859 
L 201.861818 368.699043 
L 202.538182 367.003586 
L 203.011636 365.249122 
L 204.364364 357.140522 
L 204.770182 352.28023 
L 205.040727 346.277051 
L 205.243636 336.143921 
L 205.378909 309.609613 
L 205.446545 144.222836 
L 205.649455 363.22028 
L 205.852364 377.143871 
L 205.987636 374.513992 
L 206.190545 368.842599 
L 206.325818 368.44564 
L 206.866909 369.468693 
L 207.069818 369.363743 
L 207.408 368.845973 
L 207.881455 367.626659 
L 208.422545 365.452419 
L 209.234182 362.209011 
L 209.707636 359.30376 
L 210.045818 356.008438 
L 210.451636 347.647415 
L 210.654545 340.367855 
L 210.789818 329.136626 
L 210.857455 313.207817 
L 210.925091 154.221665 
L 211.128 360.709393 
L 211.330909 377.807868 
L 211.466182 376.658134 
L 211.872 372.259833 
L 212.345455 369.77361 
L 213.292364 365.168174 
L 213.765818 361.365946 
L 213.968727 358.446824 
L 214.374545 346.606062 
L 214.645091 341.52799 
L 214.780364 335.528597 
L 214.915636 316.723386 
L 214.983273 224.028814 
L 215.050909 252.17747 
L 215.253818 368.519109 
L 215.456727 376.941037 
L 215.659636 375.231247 
L 215.997818 372.874091 
L 216.538909 370.978689 
L 218.026909 366.316536 
L 218.635636 363.592289 
L 219.447273 357.914623 
L 219.785455 353.886245 
L 220.123636 346.119529 
L 220.326545 336.010959 
L 220.461818 310.403189 
L 220.529455 144.607137 
L 220.732364 362.748197 
L 220.935273 377.71959 
L 221.138182 375.07344 
L 221.544 370.412583 
L 221.949818 367.23651 
L 222.626182 363.211222 
L 222.896727 360.33252 
L 223.437818 350.390586 
L 223.640727 349.587416 
L 223.843636 347.455968 
L 224.046545 343.087999 
L 224.249455 331.901204 
L 224.317091 321.625717 
L 224.452364 206.440592 
L 224.655273 366.99352 
L 224.858182 377.891649 
L 224.993455 376.831237 
L 225.399273 373.369679 
L 225.872727 371.40836 
L 227.496 365.389186 
L 228.037091 362.370921 
L 228.645818 356.599068 
L 228.984 351.777477 
L 229.254545 344.402434 
L 229.457455 330.192065 
L 229.525091 315.196214 
L 229.592727 164.114639 
L 229.795636 360.45693 
L 229.998545 378.026939 
L 230.133818 376.624342 
L 230.539636 371.651871 
L 231.418909 364.173915 
L 231.621818 358.822863 
L 231.689455 358.664125 
L 231.824727 359.286319 
L 232.162909 360.940945 
L 232.365818 361.135052 
L 232.568727 360.915763 
L 232.839273 360.143842 
L 233.177455 358.520362 
L 233.515636 355.932552 
L 233.853818 351.065271 
L 234.124364 344.814023 
L 234.327273 333.806729 
L 234.394909 324.617278 
L 234.462545 294.857127 
L 234.530182 179.873401 
L 234.665455 348.599699 
L 234.868364 377.47066 
L 234.936 377.820758 
L 235.206545 374.538508 
L 235.544727 371.733701 
L 236.221091 368.599309 
L 237.506182 362.052665 
L 238.250182 356.76641 
L 238.656 351.611862 
L 238.926545 344.906981 
L 239.129455 332.040244 
L 239.197091 319.735465 
L 239.332364 238.227345 
L 239.535273 369.947219 
L 239.602909 373.625892 
L 239.670545 373.271178 
L 239.873455 372.514565 
L 240.008727 372.578769 
L 240.414545 372.931123 
L 240.685091 372.809512 
L 241.090909 372.263769 
L 242.105455 370.246716 
L 243.052364 367.971929 
L 243.661091 366.023592 
L 244.810909 360.475387 
L 245.284364 357.020102 
L 245.690182 352.257391 
L 245.960727 346.381614 
L 246.163636 336.39786 
L 246.298909 309.902928 
L 246.366545 143.375632 
L 246.569455 363.368721 
L 246.772364 378.052412 
L 246.975273 375.534282 
L 247.381091 371.364531 
L 247.922182 368.59597 
L 248.666182 364.704274 
L 249.207273 360.885611 
L 249.545455 357.107266 
L 249.680727 354.440571 
L 250.086545 331.400475 
L 250.154182 320.832048 
L 250.289455 216.930482 
L 250.492364 369.534069 
L 250.627636 378.42148 
L 250.695273 378.602824 
L 251.506909 372.517673 
L 252.318545 368.951726 
L 252.792 366.797218 
L 253.536 365.090044 
L 254.077091 362.980531 
L 254.618182 359.867461 
L 255.024 356.311742 
L 255.362182 351.555325 
L 255.632727 344.360361 
L 255.768 336.907391 
L 255.903273 313.499178 
L 255.970909 147.982591 
L 256.173818 361.462521 
L 256.376727 377.182855 
L 256.579636 373.771835 
L 257.120727 363.476054 
L 257.188364 363.511824 
L 257.661818 364.886606 
L 257.797091 364.814963 
L 258 364.141782 
L 258.473455 362.927321 
L 258.879273 361.381283 
L 259.285091 358.804452 
L 259.893818 352.02156 
L 260.164364 346.61168 
L 260.367273 338.100469 
L 260.502545 321.32309 
L 260.637818 218.8019 
L 260.840727 369.160551 
L 260.976 377.686354 
L 261.043636 377.694485 
L 261.855273 370.080841 
L 262.937455 363.749534 
L 263.275636 360.498253 
L 263.478545 356.702087 
L 264.087273 327.691633 
L 264.154909 314.211035 
L 264.222545 208.687177 
L 264.290182 268.542177 
L 264.493091 367.850812 
L 264.696 375.208077 
L 265.642909 369.894425 
L 267.130909 365.079 
L 267.739636 362.173046 
L 268.077818 359.435232 
L 268.754182 351.751164 
L 269.024727 345.528748 
L 269.227636 334.394571 
L 269.295273 325.217492 
L 269.362909 295.917155 
L 269.430545 177.346288 
L 269.565818 348.8175 
L 269.768727 377.191138 
L 269.836364 377.27688 
L 270.242182 370.933972 
L 270.648 366.879958 
L 271.053818 362.750676 
L 271.392 356.40693 
L 271.527273 356.365969 
L 271.730182 356.502611 
L 271.865455 356.31655 
L 272.068364 355.532346 
L 272.338909 353.524089 
L 272.609455 349.969685 
L 272.88 342.690387 
L 273.015273 334.147299 
L 273.082909 324.959819 
L 273.150545 295.480511 
L 273.218182 177.94375 
L 273.353455 348.602025 
L 273.556364 377.849489 
L 273.624 378.193823 
L 273.894545 374.847439 
L 274.300364 371.417074 
L 276.261818 359.294533 
L 276.802909 351.209942 
L 277.005818 345.007522 
L 277.141091 334.163775 
L 277.208727 319.816436 
L 277.276364 183.213906 
L 277.344 252.512045 
L 277.546909 377.243328 
L 277.682182 383.874008 
L 277.817455 382.727803 
L 278.223273 378.627709 
L 278.696727 376.407126 
L 279.711273 372.934166 
L 280.590545 369.758151 
L 282.281455 360.691584 
L 282.687273 357.466347 
L 283.160727 350.331591 
L 283.431273 342.25003 
L 283.566545 332.694269 
L 283.634182 321.465522 
L 283.769455 220.538795 
L 283.972364 369.412485 
L 284.107636 377.219543 
L 284.175273 376.964188 
L 284.919273 367.901405 
L 285.257455 364.224566 
L 285.528 357.912219 
L 285.595636 357.881522 
L 286.136727 359.481732 
L 286.272 359.311358 
L 286.542545 358.425799 
L 286.880727 356.345446 
L 287.218909 352.7091 
L 287.489455 347.304739 
L 287.692364 338.158801 
L 287.827636 319.91604 
L 287.962909 235.848702 
L 288.165818 370.73683 
L 288.301091 378.148518 
L 288.368727 377.962723 
L 289.045091 370.820237 
L 289.721455 368.520188 
L 290.533091 365.333659 
L 291.141818 362.021125 
L 291.615273 358.269996 
L 292.021091 353.336614 
L 292.291636 347.478405 
L 292.494545 338.243319 
L 292.629818 318.981809 
L 292.697455 219.584168 
L 292.765091 247.202268 
L 292.968 368.448836 
L 293.170909 374.859579 
L 293.306182 374.367237 
L 293.644364 372.844457 
L 294.523636 371.649432 
L 295.2 369.905265 
L 295.538182 368.664355 
L 295.944 366.990268 
L 296.620364 364.998593 
L 297.837818 358.999993 
L 298.243636 355.582235 
L 298.581818 350.89456 
L 298.852364 343.63177 
L 298.987636 335.85531 
L 299.122909 308.567191 
L 299.190545 145.897501 
L 299.393455 363.395682 
L 299.596364 377.67541 
L 299.799273 375.116672 
L 300.205091 370.847019 
L 301.625455 360.470221 
L 301.896 356.89549 
L 302.031273 351.849329 
L 302.437091 331.631683 
L 302.504727 322.45871 
L 302.572364 292.155569 
L 302.64 189.648404 
L 302.775273 348.634215 
L 302.978182 375.903432 
L 303.045818 376.234496 
L 303.925091 369.917498 
L 305.007273 365.532451 
L 305.548364 362.423938 
L 306.224727 357.87204 
L 306.630545 353.558165 
L 306.901091 348.455712 
L 307.104 340.906936 
L 307.239273 328.133493 
L 307.306909 307.354689 
L 307.374545 148.002145 
L 307.509818 344.070539 
L 307.712727 377.448694 
L 307.780364 377.73446 
L 308.050909 373.199496 
L 308.592 363.667278 
L 308.659636 363.677356 
L 309.133091 364.642939 
L 309.336 364.474022 
L 309.674182 363.638354 
L 310.08 361.968891 
L 310.553455 358.903266 
L 310.891636 354.913166 
L 311.297455 347.925743 
L 311.500364 340.780694 
L 311.635636 329.53938 
L 311.703273 313.682261 
L 311.770909 153.462387 
L 311.973818 360.591136 
L 312.176727 377.368191 
L 312.312 375.897225 
L 312.717818 370.60576 
L 313.258909 366.936602 
L 313.8 362.869075 
L 314.138182 358.247718 
L 314.746909 339.400517 
L 314.882182 332.203929 
L 314.949818 324.358631 
L 315.017455 302.741918 
L 315.085091 161.846787 
L 315.220364 341.634201 
L 315.423273 374.137458 
L 315.490909 375.272798 
L 315.558545 375.210059 
L 316.302545 370.121946 
L 317.925818 363.507014 
L 318.264 361.018238 
L 319.143273 353.034193 
L 319.413818 347.750244 
L 319.616727 339.500486 
L 319.752 324.05309 
L 319.887273 194.122854 
L 320.090182 368.506054 
L 320.225455 377.992707 
L 320.293091 377.982237 
L 321.104727 369.416181 
L 321.848727 364.361522 
L 322.119273 360.766012 
L 322.389818 353.125124 
L 322.525091 352.732832 
L 322.728 352.846485 
L 322.863273 352.532533 
L 323.066182 351.133373 
L 323.336727 347.013804 
L 323.539636 340.272802 
L 323.674909 329.238797 
L 323.742545 313.522854 
L 323.810182 155.790964 
L 324.013091 359.540861 
L 324.216 377.423954 
L 324.283636 377.225504 
L 324.96 370.704016 
L 325.433455 369.198059 
L 325.771636 367.829382 
L 326.177455 366.234005 
L 326.853818 364.028469 
L 327.394909 361.436993 
L 327.868364 358.118816 
L 328.274182 353.570457 
L 328.544727 348.30129 
L 328.747636 340.665556 
L 328.882909 328.302122 
L 328.950545 308.85184 
L 329.018182 145.348731 
L 329.221091 363.508459 
L 329.424 377.184629 
L 329.626909 373.86601 
L 330.303273 361.419267 
L 330.370909 361.502198 
L 330.844364 363.238643 
L 330.979636 363.262712 
L 331.182545 363.015292 
L 331.453091 362.273917 
L 331.858909 360.455787 
L 332.197091 358.054091 
L 332.670545 352.952881 
L 332.941091 347.34557 
L 333.144 338.772149 
L 333.279273 323.153726 
L 333.414545 200.280137 
L 333.617455 368.392564 
L 333.752727 377.759903 
L 333.820364 377.807454 
L 334.564364 370.389984 
L 335.917091 362.935742 
L 336.796364 353.309016 
L 336.999273 348.204053 
L 337.134545 339.500102 
L 337.269818 310.24226 
L 337.337455 139.910464 
L 337.540364 369.670428 
L 337.743273 384.397065 
L 338.622545 377.011098 
L 339.434182 374.156995 
L 340.786909 369.471268 
L 341.192727 367.668216 
L 341.869091 365.303748 
L 342.748364 360.194273 
L 343.154182 356.389157 
L 343.56 348.963261 
L 343.762909 342.098842 
L 343.898182 332.197365 
L 343.965818 320.23099 
L 344.101091 233.355863 
L 344.304 369.927788 
L 344.439273 376.640932 
L 344.574545 374.633826 
L 344.912727 366.3238 
L 345.048 366.635224 
L 345.386182 367.545768 
L 345.589091 367.569733 
L 345.859636 367.265166 
L 346.265455 366.442496 
L 346.806545 364.681284 
L 347.415273 361.783875 
L 347.888727 358.337824 
L 348.159273 354.595273 
L 348.565091 345.808929 
L 348.768 336.250438 
L 348.903273 313.35976 
L 348.970909 153.68454 
L 349.173818 360.479256 
L 349.376727 377.299884 
L 349.512 376.041419 
L 349.917818 371.389936 
L 350.526545 367.70019 
L 351.608727 362.123663 
L 352.082182 358.26269 
L 352.420364 353.979063 
L 352.690909 348.13094 
L 352.893818 338.931423 
L 353.029091 317.812841 
L 353.096727 161.759905 
L 353.299636 362.079465 
L 353.502545 381.388406 
L 353.570182 381.164447 
L 354.111273 376.103775 
L 355.328727 371.83578 
L 356.410909 369.002513 
L 357.222545 366.391491 
L 357.696 364.160479 
L 358.710545 357.865398 
L 359.116364 353.09563 
L 359.386909 347.524048 
L 359.589818 338.901899 
L 359.725091 322.336092 
L 359.860364 213.03546 
L 360.063273 368.897921 
L 360.198545 376.719138 
L 360.266182 376.409212 
L 361.145455 364.986764 
L 361.348364 362.097785 
L 361.618909 356.112128 
L 361.686545 355.974833 
L 361.754182 356.065761 
L 362.024727 356.635893 
L 362.16 356.522173 
L 362.362909 355.801711 
L 362.633455 353.902352 
L 362.904 350.609738 
L 363.174545 344.28966 
L 363.377455 331.96002 
L 363.445091 320.361233 
L 363.580364 227.961436 
L 363.783273 369.416178 
L 363.918545 377.547025 
L 363.986182 377.511187 
L 364.865455 368.753684 
L 366.218182 362.346603 
L 366.691636 358.904116 
L 367.029818 354.763526 
L 367.368 347.736712 
L 367.570909 339.653881 
L 367.706182 325.729142 
L 367.773818 298.815774 
L 367.841455 170.781862 
L 367.976727 347.877832 
L 368.179636 376.702022 
L 368.247273 376.655442 
L 368.450182 372.495646 
L 368.720727 365.795941 
L 368.788364 365.758263 
L 369.261818 366.811052 
L 369.397091 366.63059 
L 369.802909 365.570314 
L 370.208727 364.690309 
L 370.682182 362.978672 
L 371.155636 360.469444 
L 371.629091 356.628392 
L 371.967273 352.087663 
L 372.237818 345.466281 
L 372.440727 334.085983 
L 372.508364 324.654254 
L 372.576 293.152067 
L 372.643636 183.658811 
L 372.778909 349.784992 
L 372.981818 377.271026 
L 373.049455 377.293087 
L 374.402182 359.86254 
L 374.672727 353.487506 
L 374.875636 353.07985 
L 375.010909 352.979338 
L 375.146182 352.526893 
L 375.349091 350.969929 
L 375.619636 346.644206 
L 375.822545 339.540755 
L 375.957818 327.365225 
L 376.025455 307.663988 
L 376.093091 147.929022 
L 376.296 362.37142 
L 376.498909 377.589503 
L 376.634182 376.465692 
L 377.04 372.227494 
L 377.581091 369.410183 
L 378.528 364.687257 
L 378.933818 361.401456 
L 379.474909 355.996358 
L 379.745455 351.136035 
L 380.016 342.087704 
L 380.151273 331.689795 
L 380.218909 318.741813 
L 380.286545 219.140515 
L 380.354182 248.631104 
L 380.557091 369.069558 
L 380.692364 374.038718 
L 380.76 374.158468 
L 381.301091 372.603758 
L 381.909818 371.606945 
L 382.586182 369.939284 
L 383.330182 367.55742 
L 383.668364 365.772761 
L 384.209455 363.75449 
L 384.818182 360.7694 
L 385.291636 357.285214 
L 385.697455 352.347744 
L 385.968 346.4105 
L 386.170909 336.678659 
L 386.306182 312.717487 
L 386.373818 145.482097 
L 386.576727 361.608312 
L 386.779636 377.507942 
L 386.914909 376.031986 
L 387.320727 371.13593 
L 387.929455 367.345875 
L 388.605818 362.873594 
L 388.944 359.246137 
L 389.214545 354.216548 
L 389.552727 334.110988 
L 389.620364 325.888047 
L 389.688 303.806609 
L 389.755636 160.099286 
L 389.890909 346.742311 
L 390.093818 378.597699 
L 390.161455 379.129124 
L 390.364364 377.057603 
L 390.702545 374.300618 
L 391.176 372.455531 
L 393.272727 365.345311 
L 393.678545 363.183032 
L 394.557818 355.270999 
L 394.963636 348.922754 
L 395.166545 342.66315 
L 395.301818 333.909426 
L 395.369455 324.324377 
L 395.437091 291.17985 
L 395.504727 187.403901 
L 395.64 349.987647 
L 395.842909 377.010888 
L 395.910545 377.090951 
L 396.789818 368.186373 
L 397.466182 363.602269 
L 397.804364 359.475603 
L 398.277818 347.035927 
L 398.480727 343.724729 
L 398.683636 334.912243 
L 398.818909 312.37347 
L 398.886545 160.939859 
L 399.089455 358.653756 
L 399.292364 376.923151 
L 399.36 376.928113 
L 400.171636 370.868289 
L 400.915636 367.248737 
L 401.253818 365.388056 
L 402.133091 362.095153 
L 402.606545 359.235148 
L 403.012364 355.556533 
L 403.350545 350.485612 
L 403.621091 342.273129 
L 403.756364 332.553411 
L 403.824 321.04356 
L 403.959273 225.215671 
L 404.162182 369.562136 
L 404.297455 376.898545 
L 404.365091 376.588179 
L 405.041455 368.597629 
L 405.717818 362.842973 
L 405.853091 359.942175 
L 406.056 354.120123 
L 406.191273 353.451089 
L 406.529455 353.510265 
L 406.732364 352.534388 
L 407.002909 349.483376 
L 407.205818 344.999248 
L 407.408727 334.125435 
L 407.476364 325.003439 
L 407.544 295.987166 
L 407.611636 176.396372 
L 407.746909 348.035248 
L 407.949818 377.807373 
L 408.017455 378.285683 
L 408.220364 376.071872 
L 408.626182 372.472007 
L 409.573091 367.677774 
L 410.114182 365.511122 
L 411.331636 359.048312 
L 411.737455 355.004431 
L 412.075636 349.182442 
L 412.278545 342.476886 
L 412.413818 332.891032 
L 412.481455 321.707993 
L 412.616727 219.127964 
L 412.819636 369.567333 
L 412.954909 377.220771 
L 413.022545 376.82756 
L 413.428364 368.487083 
L 413.631273 363.709537 
L 413.766545 363.388415 
L 413.901818 363.608274 
L 414.24 364.253234 
L 414.375273 364.216262 
L 414.578182 363.886588 
L 414.848727 363.002775 
L 415.186909 360.782813 
L 415.930909 355.17915 
L 416.269091 350.404315 
L 416.539636 342.770959 
L 416.674909 334.170004 
L 416.742545 324.916194 
L 416.810182 294.861434 
L 416.877818 179.700898 
L 417.013091 348.939399 
L 417.216 377.209112 
L 417.283636 377.381867 
L 418.230545 368.079969 
L 418.839273 363.837917 
L 419.312727 357.853874 
L 419.448 354.833114 
L 419.989091 327.739956 
L 420.056727 313.959832 
L 420.124364 200.631551 
L 420.192 272.180285 
L 420.394909 368.69244 
L 420.530182 375.507175 
L 420.597818 375.581532 
L 421.68 367.714216 
L 422.085818 365.727443 
L 422.897455 362.209236 
L 423.438545 358.620797 
L 423.844364 354.340743 
L 424.114909 349.446147 
L 424.317818 342.147605 
L 424.453091 331.776882 
L 424.520727 318.970211 
L 424.588364 223.388444 
L 424.656 246.139515 
L 424.858909 371.240332 
L 424.994182 377.756542 
L 425.129455 376.359266 
L 425.602909 370.127272 
L 426.144 364.572253 
L 426.414545 357.962362 
L 426.482182 358.014515 
L 426.955636 359.925335 
L 427.090909 359.89409 
L 427.293818 359.472967 
L 427.564364 358.323188 
L 427.902545 355.876845 
L 428.173091 352.140938 
L 428.443636 345.994286 
L 428.646545 335.873192 
L 428.781818 309.453558 
L 428.849455 144.922936 
L 429.052364 362.990911 
L 429.255273 378.060291 
L 429.390545 376.810821 
L 429.796364 372.655299 
L 430.269818 370.408554 
L 430.472727 369.61946 
L 430.743273 404.910743 
L 431.216727 429.003186 
L 431.893091 453.486704 
L 432.366545 463.909815 
L 432.772364 468.719677 
L 433.178182 471.255177 
L 433.584 472.587016 
L 434.057455 473.385861 
L 434.598545 473.829962 
L 435.274909 474.081469 
L 436.424727 474.230885 
L 439.062545 474.282129 
L 497.297455 474.274579 
L 498.109091 474.274584 
L 498.109091 474.274584 
" clip-path="url(#p9e53d609d3)" style="fill: none; stroke: #000000; stroke-width: 1.5; stroke-linecap: square"/>
   </g>
   <g id="line2d_14">
    <path d="M 497.973818 408.87 
" clip-path="url(#p9e53d609d3)" style="fill: none; stroke: #000000; stroke-width: 1.5; stroke-linecap: square"/>
   </g>
   <g id="line2d_15">
    <path d="M 430.472727 368.1 
L 430.472727 365.382 
L 430.472727 362.664 
L 430.472727 359.946 
L 430.472727 357.228 
L 430.472727 354.51 
L 430.472727 351.792 
L 430.472727 349.074 
L 430.472727 346.356 
L 430.472727 343.638 
L 430.472727 340.92 
L 430.472727 338.202 
L 430.472727 335.484 
L 430.472727 332.766 
L 430.472727 330.048 
L 430.472727 327.33 
L 430.472727 324.612 
L 430.472727 321.894 
L 430.472727 319.176 
L 430.472727 316.458 
" clip-path="url(#p9e53d609d3)" style="fill: none; stroke: #000000; stroke-width: 1.5; stroke-linecap: square"/>
   </g>
   <g id="patch_3">
    <path d="M 72 504 
L 72 69.12 
" style="fill: none; stroke: #000000; stroke-width: 0.8; stroke-linejoin: miter; stroke-linecap: square"/>
   </g>
   <g id="patch_4">
    <path d="M 518.4 504 
L 518.4 69.12 
" style="fill: none; stroke: #000000; stroke-width: 0.8; stroke-linejoin: miter; stroke-linecap: square"/>
   </g>
   <g id="patch_5">
    <path d="M 72 504 
L 518.4 504 
" style="fill: none; stroke: #000000; stroke-width: 0.8; stroke-linejoin: miter; stroke-linecap: square"/>
   </g>
   <g id="patch_6">
    <path d="M 72 69.12 
L 518.4 69.12 
" style="fill: none; stroke: #000000; stroke-width: 0.8; stroke-linejoin: miter; stroke-linecap: square"/>
   </g>
   <g id="text_15">
    <!-- 500 ms -->
    <g transform="translate(497.973818 406.152)scale(0.22 -0.22)">
     <defs>
      <path id="ArialMT-35" d="M 266 1200 
L 856 1250 
Q 922 819 1161 601 
Q 1400 384 1738 384 
Q 2144 384 2425 690 
Q 2706 997 2706 1503 
Q 2706 1984 2436 2262 
Q 2166 2541 1728 2541 
Q 1456 2541 1237 2417 
Q 1019 2294 894 2097 
L 366 2166 
L 809 4519 
L 3088 4519 
L 3088 3981 
L 1259 3981 
L 1013 2750 
Q 1425 3038 1878 3038 
Q 2478 3038 2890 2622 
Q 3303 2206 3303 1553 
Q 3303 931 2941 478 
Q 2500 -78 1738 -78 
Q 1113 -78 717 272 
Q 322 622 266 1200 
z
" transform="scale(0.015625)"/>
      <path id="ArialMT-30" d="M 266 2259 
Q 266 3072 433 3567 
Q 600 4063 929 4331 
Q 1259 4600 1759 4600 
Q 2128 4600 2406 4451 
Q 2684 4303 2865 4023 
Q 3047 3744 3150 3342 
Q 3253 2941 3253 2259 
Q 3253 1453 3087 958 
Q 2922 463 2592 192 
Q 2263 -78 1759 -78 
Q 1097 -78 719 397 
Q 266 969 266 2259 
z
M 844 2259 
Q 844 1131 1108 757 
Q 1372 384 1759 384 
Q 2147 384 2411 759 
Q 2675 1134 2675 2259 
Q 2675 3391 2411 3762 
Q 2147 4134 1753 4134 
Q 1366 4134 1134 3806 
Q 844 3388 844 2259 
z
" transform="scale(0.015625)"/>
     </defs>
     <use xlink:href="#ArialMT-35"/>
     <use xlink:href="#ArialMT-30" x="55.615234"/>
     <use xlink:href="#ArialMT-30" x="111.230469"/>
     <use xlink:href="#ArialMT-20" x="166.845703"/>
     <use xlink:href="#ArialMT-6d" x="194.628906"/>
     <use xlink:href="#ArialMT-73" x="277.929688"/>
    </g>
   </g>
   <g id="text_16">
    <!-- 20 mV -->
    <g transform="translate(504.737455 321.894)scale(0.22 -0.22)">
     <defs>
      <path id="ArialMT-32" d="M 3222 541 
L 3222 0 
L 194 0 
Q 188 203 259 391 
Q 375 700 629 1000 
Q 884 1300 1366 1694 
Q 2113 2306 2375 2664 
Q 2638 3022 2638 3341 
Q 2638 3675 2398 3904 
Q 2159 4134 1775 4134 
Q 1369 4134 1125 3890 
Q 881 3647 878 3216 
L 300 3275 
Q 359 3922 746 4261 
Q 1134 4600 1788 4600 
Q 2447 4600 2831 4234 
Q 3216 3869 3216 3328 
Q 3216 3053 3103 2787 
Q 2991 2522 2730 2228 
Q 2469 1934 1863 1422 
Q 1356 997 1212 845 
Q 1069 694 975 541 
L 3222 541 
z
" transform="scale(0.015625)"/>
     </defs>
     <use xlink:href="#ArialMT-32"/>
     <use xlink:href="#ArialMT-30" x="55.615234"/>
     <use xlink:href="#ArialMT-20" x="111.230469"/>
     <use xlink:href="#ArialMT-6d" x="139.013672"/>
     <use xlink:href="#ArialMT-56" x="222.314453"/>
    </g>
   </g>
   <g id="text_17">
    <!--  Plotting FS, trace number 11091  -->
    <g transform="translate(131.544062 63.12)scale(0.22 -0.22)">
     <defs>
      <path id="ArialMT-50" d="M 494 0 
L 494 4581 
L 2222 4581 
Q 2678 4581 2919 4538 
Q 3256 4481 3484 4323 
Q 3713 4166 3852 3881 
Q 3991 3597 3991 3256 
Q 3991 2672 3619 2267 
Q 3247 1863 2275 1863 
L 1100 1863 
L 1100 0 
L 494 0 
z
M 1100 2403 
L 2284 2403 
Q 2872 2403 3119 2622 
Q 3366 2841 3366 3238 
Q 3366 3525 3220 3729 
Q 3075 3934 2838 4000 
Q 2684 4041 2272 4041 
L 1100 4041 
L 1100 2403 
z
" transform="scale(0.015625)"/>
      <path id="ArialMT-67" d="M 319 -275 
L 866 -356 
Q 900 -609 1056 -725 
Q 1266 -881 1628 -881 
Q 2019 -881 2231 -725 
Q 2444 -569 2519 -288 
Q 2563 -116 2559 434 
Q 2191 0 1641 0 
Q 956 0 581 494 
Q 206 988 206 1678 
Q 206 2153 378 2554 
Q 550 2956 876 3175 
Q 1203 3394 1644 3394 
Q 2231 3394 2613 2919 
L 2613 3319 
L 3131 3319 
L 3131 450 
Q 3131 -325 2973 -648 
Q 2816 -972 2473 -1159 
Q 2131 -1347 1631 -1347 
Q 1038 -1347 672 -1080 
Q 306 -813 319 -275 
z
M 784 1719 
Q 784 1066 1043 766 
Q 1303 466 1694 466 
Q 2081 466 2343 764 
Q 2606 1063 2606 1700 
Q 2606 2309 2336 2618 
Q 2066 2928 1684 2928 
Q 1309 2928 1046 2623 
Q 784 2319 784 1719 
z
" transform="scale(0.015625)"/>
      <path id="ArialMT-46" d="M 525 0 
L 525 4581 
L 3616 4581 
L 3616 4041 
L 1131 4041 
L 1131 2622 
L 3281 2622 
L 3281 2081 
L 1131 2081 
L 1131 0 
L 525 0 
z
" transform="scale(0.015625)"/>
      <path id="ArialMT-53" d="M 288 1472 
L 859 1522 
Q 900 1178 1048 958 
Q 1197 738 1509 602 
Q 1822 466 2213 466 
Q 2559 466 2825 569 
Q 3091 672 3220 851 
Q 3350 1031 3350 1244 
Q 3350 1459 3225 1620 
Q 3100 1781 2813 1891 
Q 2628 1963 1997 2114 
Q 1366 2266 1113 2400 
Q 784 2572 623 2826 
Q 463 3081 463 3397 
Q 463 3744 659 4045 
Q 856 4347 1234 4503 
Q 1613 4659 2075 4659 
Q 2584 4659 2973 4495 
Q 3363 4331 3572 4012 
Q 3781 3694 3797 3291 
L 3216 3247 
Q 3169 3681 2898 3903 
Q 2628 4125 2100 4125 
Q 1550 4125 1298 3923 
Q 1047 3722 1047 3438 
Q 1047 3191 1225 3031 
Q 1400 2872 2139 2705 
Q 2878 2538 3153 2413 
Q 3553 2228 3743 1945 
Q 3934 1663 3934 1294 
Q 3934 928 3725 604 
Q 3516 281 3123 101 
Q 2731 -78 2241 -78 
Q 1619 -78 1198 103 
Q 778 284 539 648 
Q 300 1013 288 1472 
z
" transform="scale(0.015625)"/>
      <path id="ArialMT-2c" d="M 569 0 
L 569 641 
L 1209 641 
L 1209 0 
Q 1209 -353 1084 -570 
Q 959 -788 688 -906 
L 531 -666 
Q 709 -588 793 -436 
Q 878 -284 888 0 
L 569 0 
z
" transform="scale(0.015625)"/>
      <path id="ArialMT-63" d="M 2588 1216 
L 3141 1144 
Q 3050 572 2676 248 
Q 2303 -75 1759 -75 
Q 1078 -75 664 370 
Q 250 816 250 1647 
Q 250 2184 428 2587 
Q 606 2991 970 3192 
Q 1334 3394 1763 3394 
Q 2303 3394 2647 3120 
Q 2991 2847 3088 2344 
L 2541 2259 
Q 2463 2594 2264 2762 
Q 2066 2931 1784 2931 
Q 1359 2931 1093 2626 
Q 828 2322 828 1663 
Q 828 994 1084 691 
Q 1341 388 1753 388 
Q 2084 388 2306 591 
Q 2528 794 2588 1216 
z
" transform="scale(0.015625)"/>
      <path id="ArialMT-75" d="M 2597 0 
L 2597 488 
Q 2209 -75 1544 -75 
Q 1250 -75 995 37 
Q 741 150 617 320 
Q 494 491 444 738 
Q 409 903 409 1263 
L 409 3319 
L 972 3319 
L 972 1478 
Q 972 1038 1006 884 
Q 1059 663 1231 536 
Q 1403 409 1656 409 
Q 1909 409 2131 539 
Q 2353 669 2445 892 
Q 2538 1116 2538 1541 
L 2538 3319 
L 3100 3319 
L 3100 0 
L 2597 0 
z
" transform="scale(0.015625)"/>
      <path id="ArialMT-31" d="M 2384 0 
L 1822 0 
L 1822 3584 
Q 1619 3391 1289 3197 
Q 959 3003 697 2906 
L 697 3450 
Q 1169 3672 1522 3987 
Q 1875 4303 2022 4600 
L 2384 4600 
L 2384 0 
z
" transform="scale(0.015625)"/>
      <path id="ArialMT-39" d="M 350 1059 
L 891 1109 
Q 959 728 1153 556 
Q 1347 384 1650 384 
Q 1909 384 2104 503 
Q 2300 622 2425 820 
Q 2550 1019 2634 1356 
Q 2719 1694 2719 2044 
Q 2719 2081 2716 2156 
Q 2547 1888 2255 1720 
Q 1963 1553 1622 1553 
Q 1053 1553 659 1965 
Q 266 2378 266 3053 
Q 266 3750 677 4175 
Q 1088 4600 1706 4600 
Q 2153 4600 2523 4359 
Q 2894 4119 3086 3673 
Q 3278 3228 3278 2384 
Q 3278 1506 3087 986 
Q 2897 466 2520 194 
Q 2144 -78 1638 -78 
Q 1100 -78 759 220 
Q 419 519 350 1059 
z
M 2653 3081 
Q 2653 3566 2395 3850 
Q 2138 4134 1775 4134 
Q 1400 4134 1122 3828 
Q 844 3522 844 3034 
Q 844 2597 1108 2323 
Q 1372 2050 1759 2050 
Q 2150 2050 2401 2323 
Q 2653 2597 2653 3081 
z
" transform="scale(0.015625)"/>
     </defs>
     <use xlink:href="#ArialMT-20"/>
     <use xlink:href="#ArialMT-50" x="27.783203"/>
     <use xlink:href="#ArialMT-6c" x="94.482422"/>
     <use xlink:href="#ArialMT-6f" x="116.699219"/>
     <use xlink:href="#ArialMT-74" x="172.314453"/>
     <use xlink:href="#ArialMT-74" x="200.097656"/>
     <use xlink:href="#ArialMT-69" x="227.880859"/>
     <use xlink:href="#ArialMT-6e" x="250.097656"/>
     <use xlink:href="#ArialMT-67" x="305.712891"/>
     <use xlink:href="#ArialMT-20" x="361.328125"/>
     <use xlink:href="#ArialMT-46" x="389.111328"/>
     <use xlink:href="#ArialMT-53" x="450.195312"/>
     <use xlink:href="#ArialMT-2c" x="516.894531"/>
     <use xlink:href="#ArialMT-20" x="544.677734"/>
     <use xlink:href="#ArialMT-74" x="572.460938"/>
     <use xlink:href="#ArialMT-72" x="600.244141"/>
     <use xlink:href="#ArialMT-61" x="633.544922"/>
     <use xlink:href="#ArialMT-63" x="689.160156"/>
     <use xlink:href="#ArialMT-65" x="739.160156"/>
     <use xlink:href="#ArialMT-20" x="794.775391"/>
     <use xlink:href="#ArialMT-6e" x="822.558594"/>
     <use xlink:href="#ArialMT-75" x="878.173828"/>
     <use xlink:href="#ArialMT-6d" x="933.789062"/>
     <use xlink:href="#ArialMT-62" x="1017.089844"/>
     <use xlink:href="#ArialMT-65" x="1072.705078"/>
     <use xlink:href="#ArialMT-72" x="1128.320312"/>
     <use xlink:href="#ArialMT-20" x="1161.621094"/>
     <use xlink:href="#ArialMT-31" x="1189.404297"/>
     <use xlink:href="#ArialMT-31" x="1237.644531"/>
     <use xlink:href="#ArialMT-30" x="1293.259766"/>
     <use xlink:href="#ArialMT-39" x="1348.875"/>
     <use xlink:href="#ArialMT-31" x="1404.490234"/>
     <use xlink:href="#ArialMT-20" x="1460.105469"/>
    </g>
   </g>
  </g>
 </g>
 <defs>
  <clipPath id="p9e53d609d3">
   <rect x="72" y="69.12" width="446.4" height="434.88"/>
  </clipPath>
 </defs>
</svg>
