<?xml version="1.0" encoding="utf-8" standalone="no"?>
<!DOCTYPE svg PUBLIC "-//W3C//DTD SVG 1.1//EN"
  "http://www.w3.org/Graphics/SVG/1.1/DTD/svg11.dtd">
<svg xmlns:xlink="http://www.w3.org/1999/xlink" width="576pt" height="576pt" viewBox="0 0 576 576" xmlns="http://www.w3.org/2000/svg" version="1.1">
 <metadata>
  <rdf:RDF xmlns:dc="http://purl.org/dc/elements/1.1/" xmlns:cc="http://creativecommons.org/ns#" xmlns:rdf="http://www.w3.org/1999/02/22-rdf-syntax-ns#">
   <cc:Work>
    <dc:type rdf:resource="http://purl.org/dc/dcmitype/StillImage"/>
    <dc:date>2022-10-30T19:57:04.322602</dc:date>
    <dc:format>image/svg+xml</dc:format>
    <dc:creator>
     <cc:Agent>
      <dc:title>Matplotlib v3.5.2, https://matplotlib.org/</dc:title>
     </cc:Agent>
    </dc:creator>
   </cc:Work>
  </rdf:RDF>
 </metadata>
 <defs>
  <style type="text/css">*{stroke-linejoin: round; stroke-linecap: butt}</style>
 </defs>
 <g id="figure_1">
  <g id="patch_1">
   <path d="M 0 576 
L 576 576 
L 576 0 
L 0 0 
L 0 576 
z
" style="fill: none"/>
  </g>
  <g id="axes_1">
   <g id="patch_2">
    <path d="M 72 504 
L 518.4 504 
L 518.4 69.12 
L 72 69.12 
z
" style="fill: #ffffff"/>
   </g>
   <g id="matplotlib.axis_1">
    <g id="xtick_1">
     <g id="line2d_1">
      <defs>
       <path id="m1c847dd3a0" d="M 0 0 
L 0 3.5 
" style="stroke: #000000; stroke-width: 0.8"/>
      </defs>
      <g>
       <use xlink:href="#m1c847dd3a0" x="92.290909" y="504" style="stroke: #000000; stroke-width: 0.8"/>
      </g>
     </g>
     <g id="text_1">
      <!-- 0 -->
      <g transform="translate(85.292159 527.716563)scale(0.22 -0.22)">
       <defs>
        <path id="DejaVuSans-30" d="M 2034 4250 
Q 1547 4250 1301 3770 
Q 1056 3291 1056 2328 
Q 1056 1369 1301 889 
Q 1547 409 2034 409 
Q 2525 409 2770 889 
Q 3016 1369 3016 2328 
Q 3016 3291 2770 3770 
Q 2525 4250 2034 4250 
z
M 2034 4750 
Q 2819 4750 3233 4129 
Q 3647 3509 3647 2328 
Q 3647 1150 3233 529 
Q 2819 -91 2034 -91 
Q 1250 -91 836 529 
Q 422 1150 422 2328 
Q 422 3509 836 4129 
Q 1250 4750 2034 4750 
z
" transform="scale(0.015625)"/>
       </defs>
       <use xlink:href="#DejaVuSans-30"/>
      </g>
     </g>
    </g>
    <g id="xtick_2">
     <g id="line2d_2">
      <g>
       <use xlink:href="#m1c847dd3a0" x="227.563636" y="504" style="stroke: #000000; stroke-width: 0.8"/>
      </g>
     </g>
     <g id="text_2">
      <!-- 1000 -->
      <g transform="translate(199.568636 527.716563)scale(0.22 -0.22)">
       <defs>
        <path id="DejaVuSans-31" d="M 794 531 
L 1825 531 
L 1825 4091 
L 703 3866 
L 703 4441 
L 1819 4666 
L 2450 4666 
L 2450 531 
L 3481 531 
L 3481 0 
L 794 0 
L 794 531 
z
" transform="scale(0.015625)"/>
       </defs>
       <use xlink:href="#DejaVuSans-31"/>
       <use xlink:href="#DejaVuSans-30" x="63.623047"/>
       <use xlink:href="#DejaVuSans-30" x="127.246094"/>
       <use xlink:href="#DejaVuSans-30" x="190.869141"/>
      </g>
     </g>
    </g>
    <g id="xtick_3">
     <g id="line2d_3">
      <g>
       <use xlink:href="#m1c847dd3a0" x="362.836364" y="504" style="stroke: #000000; stroke-width: 0.8"/>
      </g>
     </g>
     <g id="text_3">
      <!-- 2000 -->
      <g transform="translate(334.841364 527.716563)scale(0.22 -0.22)">
       <defs>
        <path id="DejaVuSans-32" d="M 1228 531 
L 3431 531 
L 3431 0 
L 469 0 
L 469 531 
Q 828 903 1448 1529 
Q 2069 2156 2228 2338 
Q 2531 2678 2651 2914 
Q 2772 3150 2772 3378 
Q 2772 3750 2511 3984 
Q 2250 4219 1831 4219 
Q 1534 4219 1204 4116 
Q 875 4013 500 3803 
L 500 4441 
Q 881 4594 1212 4672 
Q 1544 4750 1819 4750 
Q 2544 4750 2975 4387 
Q 3406 4025 3406 3419 
Q 3406 3131 3298 2873 
Q 3191 2616 2906 2266 
Q 2828 2175 2409 1742 
Q 1991 1309 1228 531 
z
" transform="scale(0.015625)"/>
       </defs>
       <use xlink:href="#DejaVuSans-32"/>
       <use xlink:href="#DejaVuSans-30" x="63.623047"/>
       <use xlink:href="#DejaVuSans-30" x="127.246094"/>
       <use xlink:href="#DejaVuSans-30" x="190.869141"/>
      </g>
     </g>
    </g>
    <g id="xtick_4">
     <g id="line2d_4">
      <g>
       <use xlink:href="#m1c847dd3a0" x="498.109091" y="504" style="stroke: #000000; stroke-width: 0.8"/>
      </g>
     </g>
     <g id="text_4">
      <!-- 3000 -->
      <g transform="translate(470.114091 527.716563)scale(0.22 -0.22)">
       <defs>
        <path id="DejaVuSans-33" d="M 2597 2516 
Q 3050 2419 3304 2112 
Q 3559 1806 3559 1356 
Q 3559 666 3084 287 
Q 2609 -91 1734 -91 
Q 1441 -91 1130 -33 
Q 819 25 488 141 
L 488 750 
Q 750 597 1062 519 
Q 1375 441 1716 441 
Q 2309 441 2620 675 
Q 2931 909 2931 1356 
Q 2931 1769 2642 2001 
Q 2353 2234 1838 2234 
L 1294 2234 
L 1294 2753 
L 1863 2753 
Q 2328 2753 2575 2939 
Q 2822 3125 2822 3475 
Q 2822 3834 2567 4026 
Q 2313 4219 1838 4219 
Q 1578 4219 1281 4162 
Q 984 4106 628 3988 
L 628 4550 
Q 988 4650 1302 4700 
Q 1616 4750 1894 4750 
Q 2613 4750 3031 4423 
Q 3450 4097 3450 3541 
Q 3450 3153 3228 2886 
Q 3006 2619 2597 2516 
z
" transform="scale(0.015625)"/>
       </defs>
       <use xlink:href="#DejaVuSans-33"/>
       <use xlink:href="#DejaVuSans-30" x="63.623047"/>
       <use xlink:href="#DejaVuSans-30" x="127.246094"/>
       <use xlink:href="#DejaVuSans-30" x="190.869141"/>
      </g>
     </g>
    </g>
    <g id="text_5">
     <!-- Time(ms) -->
     <g transform="translate(249.182187 552.307188)scale(0.22 -0.22)">
      <defs>
       <path id="ArialMT-54" d="M 1659 0 
L 1659 4041 
L 150 4041 
L 150 4581 
L 3781 4581 
L 3781 4041 
L 2266 4041 
L 2266 0 
L 1659 0 
z
" transform="scale(0.015625)"/>
       <path id="ArialMT-69" d="M 425 3934 
L 425 4581 
L 988 4581 
L 988 3934 
L 425 3934 
z
M 425 0 
L 425 3319 
L 988 3319 
L 988 0 
L 425 0 
z
" transform="scale(0.015625)"/>
       <path id="ArialMT-6d" d="M 422 0 
L 422 3319 
L 925 3319 
L 925 2853 
Q 1081 3097 1340 3245 
Q 1600 3394 1931 3394 
Q 2300 3394 2536 3241 
Q 2772 3088 2869 2813 
Q 3263 3394 3894 3394 
Q 4388 3394 4653 3120 
Q 4919 2847 4919 2278 
L 4919 0 
L 4359 0 
L 4359 2091 
Q 4359 2428 4304 2576 
Q 4250 2725 4106 2815 
Q 3963 2906 3769 2906 
Q 3419 2906 3187 2673 
Q 2956 2441 2956 1928 
L 2956 0 
L 2394 0 
L 2394 2156 
Q 2394 2531 2256 2718 
Q 2119 2906 1806 2906 
Q 1569 2906 1367 2781 
Q 1166 2656 1075 2415 
Q 984 2175 984 1722 
L 984 0 
L 422 0 
z
" transform="scale(0.015625)"/>
       <path id="ArialMT-65" d="M 2694 1069 
L 3275 997 
Q 3138 488 2766 206 
Q 2394 -75 1816 -75 
Q 1088 -75 661 373 
Q 234 822 234 1631 
Q 234 2469 665 2931 
Q 1097 3394 1784 3394 
Q 2450 3394 2872 2941 
Q 3294 2488 3294 1666 
Q 3294 1616 3291 1516 
L 816 1516 
Q 847 969 1125 678 
Q 1403 388 1819 388 
Q 2128 388 2347 550 
Q 2566 713 2694 1069 
z
M 847 1978 
L 2700 1978 
Q 2663 2397 2488 2606 
Q 2219 2931 1791 2931 
Q 1403 2931 1139 2672 
Q 875 2413 847 1978 
z
" transform="scale(0.015625)"/>
       <path id="ArialMT-28" d="M 1497 -1347 
Q 1031 -759 709 28 
Q 388 816 388 1659 
Q 388 2403 628 3084 
Q 909 3875 1497 4659 
L 1900 4659 
Q 1522 4009 1400 3731 
Q 1209 3300 1100 2831 
Q 966 2247 966 1656 
Q 966 153 1900 -1347 
L 1497 -1347 
z
" transform="scale(0.015625)"/>
       <path id="ArialMT-73" d="M 197 991 
L 753 1078 
Q 800 744 1014 566 
Q 1228 388 1613 388 
Q 2000 388 2187 545 
Q 2375 703 2375 916 
Q 2375 1106 2209 1216 
Q 2094 1291 1634 1406 
Q 1016 1563 777 1677 
Q 538 1791 414 1992 
Q 291 2194 291 2438 
Q 291 2659 392 2848 
Q 494 3038 669 3163 
Q 800 3259 1026 3326 
Q 1253 3394 1513 3394 
Q 1903 3394 2198 3281 
Q 2494 3169 2634 2976 
Q 2775 2784 2828 2463 
L 2278 2388 
Q 2241 2644 2061 2787 
Q 1881 2931 1553 2931 
Q 1166 2931 1000 2803 
Q 834 2675 834 2503 
Q 834 2394 903 2306 
Q 972 2216 1119 2156 
Q 1203 2125 1616 2013 
Q 2213 1853 2448 1751 
Q 2684 1650 2818 1456 
Q 2953 1263 2953 975 
Q 2953 694 2789 445 
Q 2625 197 2315 61 
Q 2006 -75 1616 -75 
Q 969 -75 630 194 
Q 291 463 197 991 
z
" transform="scale(0.015625)"/>
       <path id="ArialMT-29" d="M 791 -1347 
L 388 -1347 
Q 1322 153 1322 1656 
Q 1322 2244 1188 2822 
Q 1081 3291 891 3722 
Q 769 4003 388 4659 
L 791 4659 
Q 1378 3875 1659 3084 
Q 1900 2403 1900 1659 
Q 1900 816 1576 28 
Q 1253 -759 791 -1347 
z
" transform="scale(0.015625)"/>
      </defs>
      <use xlink:href="#ArialMT-54"/>
      <use xlink:href="#ArialMT-69" x="57.333984"/>
      <use xlink:href="#ArialMT-6d" x="79.550781"/>
      <use xlink:href="#ArialMT-65" x="162.851562"/>
      <use xlink:href="#ArialMT-28" x="218.466797"/>
      <use xlink:href="#ArialMT-6d" x="251.767578"/>
      <use xlink:href="#ArialMT-73" x="335.068359"/>
      <use xlink:href="#ArialMT-29" x="385.068359"/>
     </g>
    </g>
   </g>
   <g id="matplotlib.axis_2">
    <g id="ytick_1">
     <g id="line2d_5">
      <defs>
       <path id="m89b29dcfc7" d="M 0 0 
L -3.5 0 
" style="stroke: #000000; stroke-width: 0.8"/>
      </defs>
      <g>
       <use xlink:href="#m89b29dcfc7" x="72" y="476.82" style="stroke: #000000; stroke-width: 0.8"/>
      </g>
     </g>
     <g id="text_6">
      <!-- −100 -->
      <g transform="translate(4.572187 485.178281)scale(0.22 -0.22)">
       <defs>
        <path id="DejaVuSans-2212" d="M 678 2272 
L 4684 2272 
L 4684 1741 
L 678 1741 
L 678 2272 
z
" transform="scale(0.015625)"/>
       </defs>
       <use xlink:href="#DejaVuSans-2212"/>
       <use xlink:href="#DejaVuSans-31" x="83.789062"/>
       <use xlink:href="#DejaVuSans-30" x="147.412109"/>
       <use xlink:href="#DejaVuSans-30" x="211.035156"/>
      </g>
     </g>
    </g>
    <g id="ytick_2">
     <g id="line2d_6">
      <g>
       <use xlink:href="#m89b29dcfc7" x="72" y="422.46" style="stroke: #000000; stroke-width: 0.8"/>
      </g>
     </g>
     <g id="text_7">
      <!-- −80 -->
      <g transform="translate(18.569688 430.818281)scale(0.22 -0.22)">
       <defs>
        <path id="DejaVuSans-38" d="M 2034 2216 
Q 1584 2216 1326 1975 
Q 1069 1734 1069 1313 
Q 1069 891 1326 650 
Q 1584 409 2034 409 
Q 2484 409 2743 651 
Q 3003 894 3003 1313 
Q 3003 1734 2745 1975 
Q 2488 2216 2034 2216 
z
M 1403 2484 
Q 997 2584 770 2862 
Q 544 3141 544 3541 
Q 544 4100 942 4425 
Q 1341 4750 2034 4750 
Q 2731 4750 3128 4425 
Q 3525 4100 3525 3541 
Q 3525 3141 3298 2862 
Q 3072 2584 2669 2484 
Q 3125 2378 3379 2068 
Q 3634 1759 3634 1313 
Q 3634 634 3220 271 
Q 2806 -91 2034 -91 
Q 1263 -91 848 271 
Q 434 634 434 1313 
Q 434 1759 690 2068 
Q 947 2378 1403 2484 
z
M 1172 3481 
Q 1172 3119 1398 2916 
Q 1625 2713 2034 2713 
Q 2441 2713 2670 2916 
Q 2900 3119 2900 3481 
Q 2900 3844 2670 4047 
Q 2441 4250 2034 4250 
Q 1625 4250 1398 4047 
Q 1172 3844 1172 3481 
z
" transform="scale(0.015625)"/>
       </defs>
       <use xlink:href="#DejaVuSans-2212"/>
       <use xlink:href="#DejaVuSans-38" x="83.789062"/>
       <use xlink:href="#DejaVuSans-30" x="147.412109"/>
      </g>
     </g>
    </g>
    <g id="ytick_3">
     <g id="line2d_7">
      <g>
       <use xlink:href="#m89b29dcfc7" x="72" y="368.1" style="stroke: #000000; stroke-width: 0.8"/>
      </g>
     </g>
     <g id="text_8">
      <!-- −60 -->
      <g transform="translate(18.569688 376.458281)scale(0.22 -0.22)">
       <defs>
        <path id="DejaVuSans-36" d="M 2113 2584 
Q 1688 2584 1439 2293 
Q 1191 2003 1191 1497 
Q 1191 994 1439 701 
Q 1688 409 2113 409 
Q 2538 409 2786 701 
Q 3034 994 3034 1497 
Q 3034 2003 2786 2293 
Q 2538 2584 2113 2584 
z
M 3366 4563 
L 3366 3988 
Q 3128 4100 2886 4159 
Q 2644 4219 2406 4219 
Q 1781 4219 1451 3797 
Q 1122 3375 1075 2522 
Q 1259 2794 1537 2939 
Q 1816 3084 2150 3084 
Q 2853 3084 3261 2657 
Q 3669 2231 3669 1497 
Q 3669 778 3244 343 
Q 2819 -91 2113 -91 
Q 1303 -91 875 529 
Q 447 1150 447 2328 
Q 447 3434 972 4092 
Q 1497 4750 2381 4750 
Q 2619 4750 2861 4703 
Q 3103 4656 3366 4563 
z
" transform="scale(0.015625)"/>
       </defs>
       <use xlink:href="#DejaVuSans-2212"/>
       <use xlink:href="#DejaVuSans-36" x="83.789062"/>
       <use xlink:href="#DejaVuSans-30" x="147.412109"/>
      </g>
     </g>
    </g>
    <g id="ytick_4">
     <g id="line2d_8">
      <g>
       <use xlink:href="#m89b29dcfc7" x="72" y="313.74" style="stroke: #000000; stroke-width: 0.8"/>
      </g>
     </g>
     <g id="text_9">
      <!-- −40 -->
      <g transform="translate(18.569688 322.098281)scale(0.22 -0.22)">
       <defs>
        <path id="DejaVuSans-34" d="M 2419 4116 
L 825 1625 
L 2419 1625 
L 2419 4116 
z
M 2253 4666 
L 3047 4666 
L 3047 1625 
L 3713 1625 
L 3713 1100 
L 3047 1100 
L 3047 0 
L 2419 0 
L 2419 1100 
L 313 1100 
L 313 1709 
L 2253 4666 
z
" transform="scale(0.015625)"/>
       </defs>
       <use xlink:href="#DejaVuSans-2212"/>
       <use xlink:href="#DejaVuSans-34" x="83.789062"/>
       <use xlink:href="#DejaVuSans-30" x="147.412109"/>
      </g>
     </g>
    </g>
    <g id="ytick_5">
     <g id="line2d_9">
      <g>
       <use xlink:href="#m89b29dcfc7" x="72" y="259.38" style="stroke: #000000; stroke-width: 0.8"/>
      </g>
     </g>
     <g id="text_10">
      <!-- −20 -->
      <g transform="translate(18.569688 267.738281)scale(0.22 -0.22)">
       <use xlink:href="#DejaVuSans-2212"/>
       <use xlink:href="#DejaVuSans-32" x="83.789062"/>
       <use xlink:href="#DejaVuSans-30" x="147.412109"/>
      </g>
     </g>
    </g>
    <g id="ytick_6">
     <g id="line2d_10">
      <g>
       <use xlink:href="#m89b29dcfc7" x="72" y="205.02" style="stroke: #000000; stroke-width: 0.8"/>
      </g>
     </g>
     <g id="text_11">
      <!-- 0 -->
      <g transform="translate(51.0025 213.378281)scale(0.22 -0.22)">
       <use xlink:href="#DejaVuSans-30"/>
      </g>
     </g>
    </g>
    <g id="ytick_7">
     <g id="line2d_11">
      <g>
       <use xlink:href="#m89b29dcfc7" x="72" y="150.66" style="stroke: #000000; stroke-width: 0.8"/>
      </g>
     </g>
     <g id="text_12">
      <!-- 20 -->
      <g transform="translate(37.005 159.018281)scale(0.22 -0.22)">
       <use xlink:href="#DejaVuSans-32"/>
       <use xlink:href="#DejaVuSans-30" x="63.623047"/>
      </g>
     </g>
    </g>
    <g id="ytick_8">
     <g id="line2d_12">
      <g>
       <use xlink:href="#m89b29dcfc7" x="72" y="96.3" style="stroke: #000000; stroke-width: 0.8"/>
      </g>
     </g>
     <g id="text_13">
      <!-- 40 -->
      <g transform="translate(37.005 104.658281)scale(0.22 -0.22)">
       <use xlink:href="#DejaVuSans-34"/>
       <use xlink:href="#DejaVuSans-30" x="63.623047"/>
      </g>
     </g>
    </g>
    <g id="text_14">
     <!-- Membrane potential (mV) -->
     <g transform="translate(-4.058125 410.655469)rotate(-90)scale(0.22 -0.22)">
      <defs>
       <path id="ArialMT-4d" d="M 475 0 
L 475 4581 
L 1388 4581 
L 2472 1338 
Q 2622 884 2691 659 
Q 2769 909 2934 1394 
L 4031 4581 
L 4847 4581 
L 4847 0 
L 4263 0 
L 4263 3834 
L 2931 0 
L 2384 0 
L 1059 3900 
L 1059 0 
L 475 0 
z
" transform="scale(0.015625)"/>
       <path id="ArialMT-62" d="M 941 0 
L 419 0 
L 419 4581 
L 981 4581 
L 981 2947 
Q 1338 3394 1891 3394 
Q 2197 3394 2470 3270 
Q 2744 3147 2920 2923 
Q 3097 2700 3197 2384 
Q 3297 2069 3297 1709 
Q 3297 856 2875 390 
Q 2453 -75 1863 -75 
Q 1275 -75 941 416 
L 941 0 
z
M 934 1684 
Q 934 1088 1097 822 
Q 1363 388 1816 388 
Q 2184 388 2453 708 
Q 2722 1028 2722 1663 
Q 2722 2313 2464 2622 
Q 2206 2931 1841 2931 
Q 1472 2931 1203 2611 
Q 934 2291 934 1684 
z
" transform="scale(0.015625)"/>
       <path id="ArialMT-72" d="M 416 0 
L 416 3319 
L 922 3319 
L 922 2816 
Q 1116 3169 1280 3281 
Q 1444 3394 1641 3394 
Q 1925 3394 2219 3213 
L 2025 2691 
Q 1819 2813 1613 2813 
Q 1428 2813 1281 2702 
Q 1134 2591 1072 2394 
Q 978 2094 978 1738 
L 978 0 
L 416 0 
z
" transform="scale(0.015625)"/>
       <path id="ArialMT-61" d="M 2588 409 
Q 2275 144 1986 34 
Q 1697 -75 1366 -75 
Q 819 -75 525 192 
Q 231 459 231 875 
Q 231 1119 342 1320 
Q 453 1522 633 1644 
Q 813 1766 1038 1828 
Q 1203 1872 1538 1913 
Q 2219 1994 2541 2106 
Q 2544 2222 2544 2253 
Q 2544 2597 2384 2738 
Q 2169 2928 1744 2928 
Q 1347 2928 1158 2789 
Q 969 2650 878 2297 
L 328 2372 
Q 403 2725 575 2942 
Q 747 3159 1072 3276 
Q 1397 3394 1825 3394 
Q 2250 3394 2515 3294 
Q 2781 3194 2906 3042 
Q 3031 2891 3081 2659 
Q 3109 2516 3109 2141 
L 3109 1391 
Q 3109 606 3145 398 
Q 3181 191 3288 0 
L 2700 0 
Q 2613 175 2588 409 
z
M 2541 1666 
Q 2234 1541 1622 1453 
Q 1275 1403 1131 1340 
Q 988 1278 909 1158 
Q 831 1038 831 891 
Q 831 666 1001 516 
Q 1172 366 1500 366 
Q 1825 366 2078 508 
Q 2331 650 2450 897 
Q 2541 1088 2541 1459 
L 2541 1666 
z
" transform="scale(0.015625)"/>
       <path id="ArialMT-6e" d="M 422 0 
L 422 3319 
L 928 3319 
L 928 2847 
Q 1294 3394 1984 3394 
Q 2284 3394 2536 3286 
Q 2788 3178 2913 3003 
Q 3038 2828 3088 2588 
Q 3119 2431 3119 2041 
L 3119 0 
L 2556 0 
L 2556 2019 
Q 2556 2363 2490 2533 
Q 2425 2703 2258 2804 
Q 2091 2906 1866 2906 
Q 1506 2906 1245 2678 
Q 984 2450 984 1813 
L 984 0 
L 422 0 
z
" transform="scale(0.015625)"/>
       <path id="ArialMT-20" transform="scale(0.015625)"/>
       <path id="ArialMT-70" d="M 422 -1272 
L 422 3319 
L 934 3319 
L 934 2888 
Q 1116 3141 1344 3267 
Q 1572 3394 1897 3394 
Q 2322 3394 2647 3175 
Q 2972 2956 3137 2557 
Q 3303 2159 3303 1684 
Q 3303 1175 3120 767 
Q 2938 359 2589 142 
Q 2241 -75 1856 -75 
Q 1575 -75 1351 44 
Q 1128 163 984 344 
L 984 -1272 
L 422 -1272 
z
M 931 1641 
Q 931 1000 1190 694 
Q 1450 388 1819 388 
Q 2194 388 2461 705 
Q 2728 1022 2728 1688 
Q 2728 2322 2467 2637 
Q 2206 2953 1844 2953 
Q 1484 2953 1207 2617 
Q 931 2281 931 1641 
z
" transform="scale(0.015625)"/>
       <path id="ArialMT-6f" d="M 213 1659 
Q 213 2581 725 3025 
Q 1153 3394 1769 3394 
Q 2453 3394 2887 2945 
Q 3322 2497 3322 1706 
Q 3322 1066 3130 698 
Q 2938 331 2570 128 
Q 2203 -75 1769 -75 
Q 1072 -75 642 372 
Q 213 819 213 1659 
z
M 791 1659 
Q 791 1022 1069 705 
Q 1347 388 1769 388 
Q 2188 388 2466 706 
Q 2744 1025 2744 1678 
Q 2744 2294 2464 2611 
Q 2184 2928 1769 2928 
Q 1347 2928 1069 2612 
Q 791 2297 791 1659 
z
" transform="scale(0.015625)"/>
       <path id="ArialMT-74" d="M 1650 503 
L 1731 6 
Q 1494 -44 1306 -44 
Q 1000 -44 831 53 
Q 663 150 594 308 
Q 525 466 525 972 
L 525 2881 
L 113 2881 
L 113 3319 
L 525 3319 
L 525 4141 
L 1084 4478 
L 1084 3319 
L 1650 3319 
L 1650 2881 
L 1084 2881 
L 1084 941 
Q 1084 700 1114 631 
Q 1144 563 1211 522 
Q 1278 481 1403 481 
Q 1497 481 1650 503 
z
" transform="scale(0.015625)"/>
       <path id="ArialMT-6c" d="M 409 0 
L 409 4581 
L 972 4581 
L 972 0 
L 409 0 
z
" transform="scale(0.015625)"/>
       <path id="ArialMT-56" d="M 1803 0 
L 28 4581 
L 684 4581 
L 1875 1253 
Q 2019 853 2116 503 
Q 2222 878 2363 1253 
L 3600 4581 
L 4219 4581 
L 2425 0 
L 1803 0 
z
" transform="scale(0.015625)"/>
      </defs>
      <use xlink:href="#ArialMT-4d"/>
      <use xlink:href="#ArialMT-65" x="83.300781"/>
      <use xlink:href="#ArialMT-6d" x="138.916016"/>
      <use xlink:href="#ArialMT-62" x="222.216797"/>
      <use xlink:href="#ArialMT-72" x="277.832031"/>
      <use xlink:href="#ArialMT-61" x="311.132812"/>
      <use xlink:href="#ArialMT-6e" x="366.748047"/>
      <use xlink:href="#ArialMT-65" x="422.363281"/>
      <use xlink:href="#ArialMT-20" x="477.978516"/>
      <use xlink:href="#ArialMT-70" x="505.761719"/>
      <use xlink:href="#ArialMT-6f" x="561.376953"/>
      <use xlink:href="#ArialMT-74" x="616.992188"/>
      <use xlink:href="#ArialMT-65" x="644.775391"/>
      <use xlink:href="#ArialMT-6e" x="700.390625"/>
      <use xlink:href="#ArialMT-74" x="756.005859"/>
      <use xlink:href="#ArialMT-69" x="783.789062"/>
      <use xlink:href="#ArialMT-61" x="806.005859"/>
      <use xlink:href="#ArialMT-6c" x="861.621094"/>
      <use xlink:href="#ArialMT-20" x="883.837891"/>
      <use xlink:href="#ArialMT-28" x="911.621094"/>
      <use xlink:href="#ArialMT-6d" x="944.921875"/>
      <use xlink:href="#ArialMT-56" x="1028.222656"/>
      <use xlink:href="#ArialMT-29" x="1094.921875"/>
     </g>
    </g>
   </g>
   <g id="line2d_13">
    <path d="M 92.290909 438.768 
L 92.426182 453.691036 
L 92.764364 458.517866 
L 93.170182 461.200901 
L 93.576 462.45848 
L 93.981818 463.045045 
L 94.455273 463.346137 
L 95.199273 463.503866 
L 96.957818 463.555468 
L 123.471273 463.559452 
L 159.927273 463.559699 
L 160.130182 435.358743 
L 160.536 421.093687 
L 161.144727 407.952333 
L 161.888727 396.779572 
L 162.970909 384.162867 
L 165.202909 361.614654 
L 166.217455 352.022025 
L 166.690909 344.902702 
L 167.029091 336.974601 
L 167.232 328.471883 
L 167.367273 315.301826 
L 167.434909 292.21431 
L 167.502545 152.320286 
L 167.705455 350.838005 
L 167.908364 370.174127 
L 168.043636 370.787082 
L 168.178909 370.159344 
L 168.517091 366.756825 
L 169.802182 352.462898 
L 170.546182 345.019693 
L 170.952 338.957122 
L 171.222545 331.991918 
L 171.425455 320.253228 
L 171.493091 310.105869 
L 171.628364 171.370336 
L 171.831273 348.304126 
L 172.034182 367.594984 
L 172.237091 369.667428 
L 172.304727 369.578707 
L 172.507636 368.311361 
L 173.116364 361.642169 
L 175.077818 338.62855 
L 175.348364 330.471954 
L 175.483636 321.874706 
L 175.551273 312.654519 
L 175.618909 279.949345 
L 175.686545 157.874816 
L 175.889455 347.237067 
L 176.092364 368.729975 
L 176.295273 371.15485 
L 176.362909 371.117674 
L 176.498182 370.456435 
L 176.836364 367.125833 
L 179.203636 338.574723 
L 179.474182 331.960141 
L 179.677091 320.345067 
L 179.744727 310.16222 
L 179.88 171.026782 
L 180.082909 348.147258 
L 180.285818 367.838406 
L 180.488727 370.210318 
L 180.556364 370.181865 
L 180.691636 369.533059 
L 181.029818 366.195093 
L 182.923636 342.88054 
L 183.329455 335.052669 
L 183.532364 328.174774 
L 183.667636 318.388813 
L 183.735273 306.102755 
L 183.870545 195.360659 
L 184.073455 350.481157 
L 184.276364 367.294705 
L 184.479273 369.368882 
L 184.546909 369.312422 
L 184.749818 368.127158 
L 185.223273 362.990602 
L 186.914182 341.827019 
L 187.252364 334.48151 
L 187.455273 325.772211 
L 187.590545 308.881496 
L 187.725818 180.929652 
L 187.928727 350.88424 
L 188.131636 369.069665 
L 188.334545 371.14586 
L 188.402182 371.122847 
L 188.537455 370.484533 
L 188.875636 367.220201 
L 191.175273 340.054279 
L 191.445818 332.432505 
L 191.648727 318.474284 
L 191.716364 303.124108 
L 191.784 166.122497 
L 191.851636 216.66977 
L 192.054545 356.275787 
L 192.257455 370.462777 
L 192.460364 371.786504 
L 192.595636 371.242797 
L 192.933818 368.0243 
L 194.76 345.814581 
L 195.165818 338.235704 
L 195.436364 329.180681 
L 195.571636 318.534852 
L 195.639273 304.095286 
L 195.706909 180.5866 
L 195.774545 211.47927 
L 195.977455 355.743434 
L 196.180364 370.681043 
L 196.383273 372.063497 
L 196.518545 371.469144 
L 196.856727 368.179089 
L 199.088727 341.57317 
L 199.426909 332.873193 
L 199.629818 319.681996 
L 199.697455 306.378803 
L 199.765091 199.064706 
L 199.832727 199.61142 
L 200.035636 354.708976 
L 200.238545 370.157326 
L 200.441455 371.69164 
L 200.576727 371.201506 
L 200.847273 368.774667 
L 202.944 344.252583 
L 203.552727 332.79477 
L 203.755636 324.136185 
L 203.890909 306.485682 
L 204.026182 192.004421 
L 204.229091 349.425075 
L 204.432 367.460584 
L 204.634909 369.664597 
L 204.702545 369.578333 
L 204.905455 368.290057 
L 205.446545 362.300314 
L 206.934545 343.856298 
L 207.340364 335.451883 
L 207.543273 327.214918 
L 207.678545 312.984281 
L 207.746182 280.8406 
L 207.813818 156.864268 
L 208.016727 347.373383 
L 208.219636 368.612305 
L 208.422545 370.976689 
L 208.490182 370.930716 
L 208.693091 369.709581 
L 209.166545 364.404655 
L 210.181091 353.369424 
L 210.789818 345.731887 
L 211.263273 336.752616 
L 211.466182 329.459996 
L 211.601455 319.062619 
L 211.669091 305.413668 
L 211.736727 193.543644 
L 211.804364 203.947748 
L 212.007273 354.319605 
L 212.210182 369.369853 
L 212.413091 370.871793 
L 212.548364 370.394502 
L 212.818909 368.002823 
L 214.036364 353.207968 
L 214.915636 341.396202 
L 215.253818 333.546467 
L 215.456727 323.225642 
L 215.524364 315.42655 
L 215.592 294.209399 
L 215.659636 148.641793 
L 215.862545 342.946476 
L 216.065455 367.479602 
L 216.268364 370.092328 
L 216.336 370.09771 
L 216.471273 369.520436 
L 216.809455 366.37589 
L 218.703273 343.949234 
L 219.041455 337.082018 
L 219.244364 329.88919 
L 219.379636 319.941086 
L 219.447273 307.574801 
L 219.582545 191.413499 
L 219.785455 353.351388 
L 219.988364 369.608079 
L 220.191273 371.147421 
L 220.258909 371.071945 
L 220.461818 369.927646 
L 220.935273 365.042769 
L 222.829091 342.716462 
L 223.167273 334.31524 
L 223.370182 323.387105 
L 223.437818 314.946693 
L 223.505455 289.234247 
L 223.573091 148.459967 
L 223.776 346.910557 
L 223.978909 369.867733 
L 224.181818 371.982674 
L 224.317091 371.520087 
L 224.587636 369.026899 
L 226.346182 347.554281 
L 226.819636 339.933885 
L 227.090182 332.30566 
L 227.225455 324.820119 
L 227.360727 300.586854 
L 227.428364 152.565274 
L 227.496 229.156426 
L 227.698909 357.036652 
L 227.901818 369.874618 
L 228.104727 371.074315 
L 228.24 370.532913 
L 228.578182 367.378892 
L 230.607273 343.270026 
L 230.945455 335.612365 
L 231.148364 326.906852 
L 231.283636 311.612221 
L 231.418909 165.763663 
L 231.621818 349.789027 
L 231.824727 368.907279 
L 232.027636 370.72665 
L 232.162909 370.27683 
L 232.433455 367.860606 
L 234.394909 344.405487 
L 235.206545 331.887689 
L 235.409455 325.814762 
L 235.544727 316.684271 
L 235.612364 305.487112 
L 235.747636 190.780169 
L 235.950545 343.359103 
L 236.153455 360.99238 
L 236.356364 363.589292 
L 236.424 363.641132 
L 236.559273 363.122564 
L 236.829818 360.67179 
L 237.438545 352.609548 
L 238.182545 339.76989 
L 238.453091 331.634328 
L 238.588364 323.44327 
L 238.656 314.99222 
L 238.723636 288.653505 
L 238.791273 146.503727 
L 238.994182 344.707581 
L 239.197091 368.856972 
L 239.4 371.934371 
L 239.467636 372.008585 
L 239.602909 371.468809 
L 239.941091 368.111407 
L 242.105455 340.887702 
L 242.443636 333.312555 
L 242.646545 323.478436 
L 242.781818 298.591538 
L 242.849455 155.893023 
L 242.917091 235.936698 
L 243.12 355.300713 
L 243.322909 368.091411 
L 243.525818 369.392707 
L 243.661091 368.849749 
L 243.999273 365.597095 
L 245.622545 345.118002 
L 246.028364 337.028876 
L 246.231273 329.510125 
L 246.366545 318.276384 
L 246.434182 301.830239 
L 246.501818 154.914566 
L 246.569455 222.961428 
L 246.772364 356.639823 
L 246.975273 370.084717 
L 247.178182 371.332547 
L 247.313455 370.770881 
L 247.651636 367.516572 
L 249.680727 342.581306 
L 250.018909 335.165579 
L 250.221818 327.037 
L 250.357091 313.569816 
L 250.424727 286.69223 
L 250.492364 153.532195 
L 250.695273 345.381571 
L 250.898182 367.451111 
L 251.101091 369.721757 
L 251.168727 369.640234 
L 251.371636 368.373415 
L 251.845091 363.070226 
L 253.265455 346.900379 
L 253.671273 341.664857 
L 253.941818 335.675822 
L 254.144727 327.01528 
L 254.28 310.977868 
L 254.415273 169.960994 
L 254.618182 350.363728 
L 254.821091 369.133697 
L 255.024 371.026197 
L 255.159273 370.589977 
L 255.429818 368.146436 
L 256.714909 352.155766 
L 257.391273 341.96508 
L 257.729455 334.082051 
L 257.932364 325.219095 
L 258.067636 309.459366 
L 258.202909 174.836723 
L 258.405818 348.74912 
L 258.608727 367.321192 
L 258.811636 369.051682 
L 258.946909 368.483724 
L 259.285091 365.011091 
L 260.570182 347.405306 
L 261.111273 337.363041 
L 261.381818 327.494896 
L 261.517091 313.913477 
L 261.584727 286.443464 
L 261.652364 151.973622 
L 261.855273 345.90709 
L 262.058182 368.054564 
L 262.261091 370.337113 
L 262.328727 370.275246 
L 262.531636 369.033091 
L 263.005091 363.620954 
L 264.628364 341.813688 
L 264.966545 334.359922 
L 265.169455 325.510529 
L 265.304727 307.594812 
L 265.44 189.513308 
L 265.642909 351.343072 
L 265.845818 367.879752 
L 266.048727 369.713454 
L 266.184 369.295947 
L 266.454545 367.070057 
L 267.333818 356.64422 
L 268.416 341.936809 
L 268.754182 333.794956 
L 268.957091 322.75735 
L 269.024727 313.885425 
L 269.092364 284.379771 
L 269.16 152.735365 
L 269.362909 346.883115 
L 269.565818 368.256213 
L 269.768727 370.404189 
L 269.836364 370.340184 
L 270.039273 369.12854 
L 270.512727 363.827101 
L 271.865455 345.68038 
L 272.271273 336.761122 
L 272.474182 328.920837 
L 272.609455 317.54861 
L 272.677091 300.820088 
L 272.744727 156.177369 
L 272.812364 228.072722 
L 273.015273 356.537891 
L 273.218182 369.289965 
L 273.421091 370.398935 
L 273.556364 369.814109 
L 273.894545 366.575963 
L 275.517818 346.346805 
L 275.923636 339.296283 
L 276.194182 330.84466 
L 276.329455 321.802081 
L 276.397091 311.622581 
L 276.532364 166.752271 
L 276.735273 350.305554 
L 276.938182 369.224126 
L 277.141091 371.042781 
L 277.276364 370.581111 
L 277.546909 368.135276 
L 279.778909 341.666187 
L 280.049455 334.892779 
L 280.252364 324.641548 
L 280.387636 297.605369 
L 280.455273 144.51485 
L 280.522909 240.853842 
L 280.725818 357.984252 
L 280.928727 369.970378 
L 281.064 370.950154 
L 281.131636 370.914639 
L 281.266909 370.260275 
L 281.605091 366.894454 
L 283.025455 348.656463 
L 283.498909 340.476683 
L 283.837091 330.707352 
L 283.972364 322.640502 
L 284.04 314.569155 
L 284.107636 291.702642 
L 284.175273 150.690767 
L 284.378182 344.158688 
L 284.581091 367.328246 
L 284.784 369.543567 
L 284.851636 369.462538 
L 285.054545 368.202892 
L 285.528 362.835549 
L 287.218909 341.113515 
L 287.557091 333.3826 
L 287.76 323.923218 
L 287.895273 302.931644 
L 287.962909 185.308449 
L 288.030545 214.193344 
L 288.233455 353.236753 
L 288.436364 367.861398 
L 288.571636 369.128951 
L 288.639273 369.117109 
L 288.774545 368.421232 
L 289.112727 364.798012 
L 290.465455 346.165881 
L 290.871273 337.708426 
L 291.074182 330.123759 
L 291.209455 319.349053 
L 291.277091 304.667525 
L 291.344727 171.069311 
L 291.412364 209.329382 
L 291.615273 356.342791 
L 291.818182 370.926521 
L 291.953455 372.104197 
L 292.021091 372.085426 
L 292.156364 371.399944 
L 292.494545 367.830315 
L 294.117818 346.148815 
L 294.591273 337.131662 
L 294.929455 325.939053 
L 295.064727 314.627057 
L 295.132364 297.945662 
L 295.2 172.599941 
L 295.267636 237.24324 
L 295.470545 352.283177 
L 295.673455 364.981858 
L 295.876364 366.193139 
L 296.011636 365.585349 
L 296.349818 362.252255 
L 297.161455 351.203228 
L 297.702545 341.41251 
L 297.973091 332.800929 
L 298.108364 324.190781 
L 298.176 315.304012 
L 298.243636 285.292741 
L 298.311273 147.022054 
L 298.514182 348.448956 
L 298.717091 370.817825 
L 298.92 372.98217 
L 298.987636 372.891112 
L 299.190545 371.583032 
L 299.731636 365.376802 
L 301.760727 339.489336 
L 302.031273 331.722367 
L 302.166545 323.962664 
L 302.234182 316.320035 
L 302.301818 296.032379 
L 302.369455 146.773526 
L 302.572364 343.220461 
L 302.775273 367.761153 
L 302.978182 370.015942 
L 303.045818 369.944171 
L 303.248727 368.706238 
L 303.722182 363.396207 
L 305.413091 341.122081 
L 305.751273 331.886522 
L 305.954182 318.38666 
L 306.021818 304.594713 
L 306.089455 193.300889 
L 306.157091 207.07392 
L 306.36 354.055937 
L 306.562909 369.077508 
L 306.698182 370.291863 
L 306.765818 370.250666 
L 306.968727 368.895408 
L 307.509818 362.210412 
L 308.727273 344.446317 
L 309.200727 334.184847 
L 309.403636 324.791316 
L 309.538909 306.115849 
L 309.674182 197.049138 
L 309.877091 352.270262 
L 310.08 367.83271 
L 310.282909 369.140949 
L 310.418182 368.518132 
L 310.756364 365.098233 
L 312.109091 347.259071 
L 312.582545 338.591587 
L 312.853091 330.852416 
L 313.056 317.187234 
L 313.123636 302.543658 
L 313.191273 183.612864 
L 313.258909 216.180376 
L 313.461818 353.191453 
L 313.664727 367.541009 
L 313.8 368.78163 
L 313.867636 368.771799 
L 314.002909 368.092417 
L 314.341091 364.527963 
L 315.355636 350.275136 
L 316.032 338.380473 
L 316.302545 329.093915 
L 316.437818 317.900309 
L 316.505455 301.568013 
L 316.573091 157.680969 
L 316.640727 223.340623 
L 316.843636 355.812325 
L 317.046545 369.252287 
L 317.249455 370.50621 
L 317.384727 369.909608 
L 317.722909 366.555738 
L 319.346182 345.936121 
L 319.752 338.093962 
L 320.022545 327.846812 
L 320.157818 313.897654 
L 320.225455 284.28258 
L 320.293091 152.876884 
L 320.496 347.665116 
L 320.698909 369.094333 
L 320.901818 371.042047 
L 321.037091 370.546413 
L 321.307636 367.965089 
L 323.133818 345.157865 
L 323.539636 337.027505 
L 323.810182 326.284868 
L 323.945455 309.351461 
L 324.080727 180.22311 
L 324.283636 351.487605 
L 324.486545 368.731484 
L 324.689455 370.355745 
L 324.824727 369.784213 
L 325.162909 366.320459 
L 327.056727 341.23284 
L 327.394909 331.974548 
L 327.530182 324.260616 
L 327.665455 297.172761 
L 327.733091 146.238315 
L 327.800727 242.697921 
L 328.003636 357.456361 
L 328.206545 369.302384 
L 328.341818 370.290221 
L 328.409455 370.252767 
L 328.544727 369.580349 
L 328.882909 366.105217 
L 330.438545 345.746099 
L 330.912 336.795702 
L 331.114909 330.08433 
L 331.250182 320.999372 
L 331.317818 310.581789 
L 331.453091 171.453761 
L 331.656 349.57789 
L 331.858909 367.748087 
L 332.061818 369.505641 
L 332.197091 369.068227 
L 332.467636 366.717262 
L 333.346909 355.969507 
L 334.090909 345.211739 
L 334.834909 330.682631 
L 335.037818 321.662033 
L 335.173091 300.772108 
L 335.240727 199.331068 
L 335.308364 220.147506 
L 335.511273 348.533583 
L 335.714182 363.09425 
L 335.917091 364.876463 
L 336.052364 364.430106 
L 336.322909 361.917682 
L 337.134545 351.015089 
L 337.810909 339.932968 
L 338.081455 332.458597 
L 338.284364 319.07132 
L 338.352 305.255056 
L 338.419636 188.349338 
L 338.487273 202.549574 
L 338.690182 353.405963 
L 338.893091 369.278574 
L 339.096 370.828707 
L 339.231273 370.252839 
L 339.569455 366.833286 
L 341.057455 347.397312 
L 341.463273 339.299176 
L 341.733818 329.77527 
L 341.869091 318.969352 
L 341.936727 304.276051 
L 342.004364 173.003751 
L 342.072 211.615121 
L 342.274909 355.986741 
L 342.477818 369.837132 
L 342.613091 370.916556 
L 342.680727 370.894002 
L 342.816 370.239157 
L 343.154182 366.787166 
L 344.574545 347.813458 
L 344.980364 340.104945 
L 345.250909 331.353782 
L 345.386182 322.416409 
L 345.453818 312.774365 
L 345.521455 275.247113 
L 345.589091 160.343037 
L 345.792 349.973169 
L 345.994909 369.281819 
L 346.197818 370.925761 
L 346.333091 370.435509 
L 346.603636 367.989994 
L 348.565091 344.35179 
L 348.903273 337.587008 
L 349.106182 330.265133 
L 349.241455 319.757354 
L 349.309091 305.73046 
L 349.376727 182.01059 
L 349.444364 204.021726 
L 349.647273 355.338168 
L 349.850182 369.821361 
L 350.053091 371.147201 
L 350.188364 370.579765 
L 350.526545 367.256288 
L 352.352727 344.241379 
L 352.758545 337.560853 
L 353.029091 328.707121 
L 353.164364 317.896099 
L 353.232 302.69396 
L 353.299636 171.351682 
L 353.367273 217.18334 
L 353.570182 354.257225 
L 353.773091 368.10445 
L 353.908364 369.287195 
L 353.976 369.2801 
L 354.111273 368.62563 
L 354.449455 365.148946 
L 356.072727 343.971344 
L 356.410909 337.052188 
L 356.613818 329.638664 
L 356.749091 318.870489 
L 356.816727 304.031799 
L 356.884364 171.319425 
L 356.952 211.583478 
L 357.154909 355.296532 
L 357.357818 369.609694 
L 357.493091 370.802346 
L 357.560727 370.79325 
L 357.696 370.135731 
L 358.034182 366.66385 
L 360.130909 339.358979 
L 360.401455 331.169528 
L 360.536727 322.621744 
L 360.604364 313.614151 
L 360.672 282.978341 
L 360.739636 153.982174 
L 360.942545 347.487899 
L 361.145455 368.677935 
L 361.348364 370.596353 
L 361.483636 370.102655 
L 361.754182 367.552184 
L 363.648 343.876283 
L 363.986182 336.191586 
L 364.189091 327.330849 
L 364.324364 310.760271 
L 364.459636 173.779502 
L 364.662545 352.177319 
L 364.865455 369.631118 
L 365.068364 371.026025 
L 365.203636 370.44511 
L 365.541818 367.09871 
L 367.300364 345.272252 
L 367.706182 336.752078 
L 367.909091 328.870711 
L 368.044364 316.601636 
L 368.112 296.112459 
L 368.179636 145.072956 
L 368.382545 343.795744 
L 368.585455 368.528061 
L 368.788364 370.731017 
L 368.923636 370.309479 
L 369.194182 367.858808 
L 370.479273 351.674124 
L 371.088 342.91874 
L 371.426182 334.518827 
L 371.629091 323.458678 
L 371.696727 314.694661 
L 371.764364 286.061046 
L 371.832 149.747971 
L 372.034909 347.678563 
L 372.237818 369.437441 
L 372.440727 371.378358 
L 372.576 370.888344 
L 372.846545 368.352075 
L 374.740364 344.708133 
L 375.146182 336.812721 
L 375.349091 329.838208 
L 375.484364 320.289092 
L 375.552 308.861491 
L 375.687273 182.890545 
L 375.890182 351.758846 
L 376.093091 368.742195 
L 376.296 370.168171 
L 376.431273 369.516374 
L 376.769455 365.936989 
L 378.189818 346.522949 
L 378.663273 338.140445 
L 378.933818 328.288105 
L 379.069091 315.275762 
L 379.136727 291.266837 
L 379.204364 147.026269 
L 379.407273 345.404657 
L 379.610182 368.874974 
L 379.813091 370.964397 
L 379.948364 370.45902 
L 380.218909 367.890695 
L 381.368727 352.979189 
L 381.977455 343.217434 
L 382.315636 333.960688 
L 382.518545 320.368217 
L 382.586182 306.589566 
L 382.653818 184.236793 
L 382.721455 200.958491 
L 382.924364 356.330579 
L 383.127273 370.897915 
L 383.262545 371.988246 
L 383.330182 371.961917 
L 383.465455 371.297241 
L 383.803636 367.854733 
L 386.103273 338.57087 
L 386.373818 330.069499 
L 386.509091 321.199261 
L 386.576727 311.413702 
L 386.644364 272.591077 
L 386.712 165.561071 
L 386.914909 348.755629 
L 387.117818 367.824338 
L 387.320727 369.402718 
L 387.456 368.818647 
L 387.794182 365.380095 
L 389.146909 347.307977 
L 389.552727 339.706259 
L 389.823273 330.536427 
L 389.958545 319.943995 
L 390.026182 305.765482 
L 390.093818 177.717521 
L 390.161455 204.223037 
L 390.364364 355.679344 
L 390.567273 370.121674 
L 390.770182 371.40516 
L 390.905455 370.852409 
L 391.243636 367.554715 
L 393.340364 341.48832 
L 393.610909 335.172277 
L 393.813818 325.863807 
L 393.949091 305.911161 
L 394.016727 191.911501 
L 394.084364 202.037975 
L 394.287273 354.475943 
L 394.490182 369.195177 
L 394.693091 370.371352 
L 394.828364 369.736987 
L 395.166545 366.276153 
L 397.263273 338.943133 
L 397.533818 331.16329 
L 397.669091 323.198795 
L 397.736727 315.140506 
L 397.804364 292.075482 
L 397.872 147.779868 
L 398.074909 343.574124 
L 398.277818 367.196971 
L 398.480727 369.585596 
L 398.548364 369.517658 
L 398.751273 368.215049 
L 399.292364 361.844683 
L 400.442182 345.783606 
L 400.848 337.372247 
L 401.050909 329.639156 
L 401.186182 318.262963 
L 401.253818 301.597146 
L 401.321455 152.901975 
L 401.389091 224.48967 
L 401.592 357.135227 
L 401.794909 370.047833 
L 401.930182 371.037185 
L 401.997818 370.989172 
L 402.200727 369.763234 
L 402.674182 364.3707 
L 404.229818 343.296115 
L 404.568 335.447928 
L 404.770909 326.308573 
L 404.906182 308.816552 
L 405.041455 184.322636 
L 405.244364 352.743773 
L 405.447273 369.192099 
L 405.650182 370.508473 
L 405.785455 369.890438 
L 406.123636 366.514482 
L 407.679273 346.683408 
L 408.085091 338.770198 
L 408.355636 329.262208 
L 408.490909 317.679868 
L 408.558545 300.03113 
L 408.626182 149.4752 
L 408.693818 231.795526 
L 408.896727 357.441538 
L 409.099636 370.164383 
L 409.234909 371.154366 
L 409.302545 371.077702 
L 409.505455 369.719116 
L 410.046545 363.218711 
L 411.602182 342.044076 
L 411.940364 333.394595 
L 412.143273 320.754343 
L 412.210909 308.877261 
L 412.346182 185.015167 
L 412.549091 353.252795 
L 412.752 369.630131 
L 412.954909 370.933506 
L 413.090182 370.294007 
L 413.428364 366.795088 
L 414.916364 346.711334 
L 415.389818 337.874635 
L 415.660364 329.159686 
L 415.795636 319.540709 
L 415.863273 307.95672 
L 415.998545 186.736067 
L 416.201455 350.840113 
L 416.404364 367.283657 
L 416.607273 368.765041 
L 416.742545 368.185691 
L 417.080727 364.738988 
L 418.365818 347.411473 
L 418.771636 339.511521 
L 419.042182 329.974159 
L 419.177455 318.436041 
L 419.245091 300.921744 
L 419.312727 146.46431 
L 419.380364 227.630609 
L 419.583273 357.828774 
L 419.786182 370.679931 
L 419.921455 371.756914 
L 419.989091 371.741385 
L 420.124364 371.093811 
L 420.462545 367.661638 
L 422.221091 345.33447 
L 422.626909 336.839274 
L 422.829818 329.135641 
L 422.965091 317.67621 
L 423.032727 300.639345 
L 423.100364 153.527234 
L 423.168 229.500013 
L 423.370909 357.617015 
L 423.573818 370.33471 
L 423.709091 371.164282 
L 423.844364 370.653319 
L 424.114909 367.970223 
L 425.535273 349.16509 
L 426.076364 339.916385 
L 426.346909 331.615896 
L 426.482182 323.680371 
L 426.617455 296.053564 
L 426.685091 148.131249 
L 426.888 343.262301 
L 427.090909 368.360822 
L 427.293818 370.536708 
L 427.429091 370.002679 
L 427.767273 366.521454 
L 429.187636 347.464253 
L 429.661091 338.523174 
L 429.931636 329.802793 
L 430.066909 320.839631 
L 430.134545 310.903678 
L 430.269818 168.093241 
L 430.472727 348.813661 
L 430.675636 400.872903 
L 431.013818 420.423673 
L 431.622545 441.606265 
L 432.096 451.855643 
L 432.501818 456.767416 
L 432.907636 459.481596 
L 433.381091 461.211907 
L 433.922182 462.300217 
L 434.530909 463.00976 
L 435.274909 463.522645 
L 436.221818 463.882227 
L 437.439273 464.090003 
L 439.333091 464.156933 
L 442.917818 464.018016 
L 452.928 463.575164 
L 472.880727 463.553025 
L 498.109091 463.554858 
L 498.109091 463.554858 
" clip-path="url(#p698529e9f1)" style="fill: none; stroke: #000000; stroke-width: 1.5; stroke-linecap: square"/>
   </g>
   <g id="line2d_14">
    <path d="M 497.973818 408.87 
" clip-path="url(#p698529e9f1)" style="fill: none; stroke: #000000; stroke-width: 1.5; stroke-linecap: square"/>
   </g>
   <g id="line2d_15">
    <path d="M 430.472727 368.1 
L 430.472727 365.382 
L 430.472727 362.664 
L 430.472727 359.946 
L 430.472727 357.228 
L 430.472727 354.51 
L 430.472727 351.792 
L 430.472727 349.074 
L 430.472727 346.356 
L 430.472727 343.638 
L 430.472727 340.92 
L 430.472727 338.202 
L 430.472727 335.484 
L 430.472727 332.766 
L 430.472727 330.048 
L 430.472727 327.33 
L 430.472727 324.612 
L 430.472727 321.894 
L 430.472727 319.176 
L 430.472727 316.458 
" clip-path="url(#p698529e9f1)" style="fill: none; stroke: #000000; stroke-width: 1.5; stroke-linecap: square"/>
   </g>
   <g id="patch_3">
    <path d="M 72 504 
L 72 69.12 
" style="fill: none; stroke: #000000; stroke-width: 0.8; stroke-linejoin: miter; stroke-linecap: square"/>
   </g>
   <g id="patch_4">
    <path d="M 518.4 504 
L 518.4 69.12 
" style="fill: none; stroke: #000000; stroke-width: 0.8; stroke-linejoin: miter; stroke-linecap: square"/>
   </g>
   <g id="patch_5">
    <path d="M 72 504 
L 518.4 504 
" style="fill: none; stroke: #000000; stroke-width: 0.8; stroke-linejoin: miter; stroke-linecap: square"/>
   </g>
   <g id="patch_6">
    <path d="M 72 69.12 
L 518.4 69.12 
" style="fill: none; stroke: #000000; stroke-width: 0.8; stroke-linejoin: miter; stroke-linecap: square"/>
   </g>
   <g id="text_15">
    <!-- 500 ms -->
    <g transform="translate(497.973818 406.152)scale(0.22 -0.22)">
     <defs>
      <path id="ArialMT-35" d="M 266 1200 
L 856 1250 
Q 922 819 1161 601 
Q 1400 384 1738 384 
Q 2144 384 2425 690 
Q 2706 997 2706 1503 
Q 2706 1984 2436 2262 
Q 2166 2541 1728 2541 
Q 1456 2541 1237 2417 
Q 1019 2294 894 2097 
L 366 2166 
L 809 4519 
L 3088 4519 
L 3088 3981 
L 1259 3981 
L 1013 2750 
Q 1425 3038 1878 3038 
Q 2478 3038 2890 2622 
Q 3303 2206 3303 1553 
Q 3303 931 2941 478 
Q 2500 -78 1738 -78 
Q 1113 -78 717 272 
Q 322 622 266 1200 
z
" transform="scale(0.015625)"/>
      <path id="ArialMT-30" d="M 266 2259 
Q 266 3072 433 3567 
Q 600 4063 929 4331 
Q 1259 4600 1759 4600 
Q 2128 4600 2406 4451 
Q 2684 4303 2865 4023 
Q 3047 3744 3150 3342 
Q 3253 2941 3253 2259 
Q 3253 1453 3087 958 
Q 2922 463 2592 192 
Q 2263 -78 1759 -78 
Q 1097 -78 719 397 
Q 266 969 266 2259 
z
M 844 2259 
Q 844 1131 1108 757 
Q 1372 384 1759 384 
Q 2147 384 2411 759 
Q 2675 1134 2675 2259 
Q 2675 3391 2411 3762 
Q 2147 4134 1753 4134 
Q 1366 4134 1134 3806 
Q 844 3388 844 2259 
z
" transform="scale(0.015625)"/>
     </defs>
     <use xlink:href="#ArialMT-35"/>
     <use xlink:href="#ArialMT-30" x="55.615234"/>
     <use xlink:href="#ArialMT-30" x="111.230469"/>
     <use xlink:href="#ArialMT-20" x="166.845703"/>
     <use xlink:href="#ArialMT-6d" x="194.628906"/>
     <use xlink:href="#ArialMT-73" x="277.929688"/>
    </g>
   </g>
   <g id="text_16">
    <!-- 20 mV -->
    <g transform="translate(504.737455 321.894)scale(0.22 -0.22)">
     <defs>
      <path id="ArialMT-32" d="M 3222 541 
L 3222 0 
L 194 0 
Q 188 203 259 391 
Q 375 700 629 1000 
Q 884 1300 1366 1694 
Q 2113 2306 2375 2664 
Q 2638 3022 2638 3341 
Q 2638 3675 2398 3904 
Q 2159 4134 1775 4134 
Q 1369 4134 1125 3890 
Q 881 3647 878 3216 
L 300 3275 
Q 359 3922 746 4261 
Q 1134 4600 1788 4600 
Q 2447 4600 2831 4234 
Q 3216 3869 3216 3328 
Q 3216 3053 3103 2787 
Q 2991 2522 2730 2228 
Q 2469 1934 1863 1422 
Q 1356 997 1212 845 
Q 1069 694 975 541 
L 3222 541 
z
" transform="scale(0.015625)"/>
     </defs>
     <use xlink:href="#ArialMT-32"/>
     <use xlink:href="#ArialMT-30" x="55.615234"/>
     <use xlink:href="#ArialMT-20" x="111.230469"/>
     <use xlink:href="#ArialMT-6d" x="139.013672"/>
     <use xlink:href="#ArialMT-56" x="222.314453"/>
    </g>
   </g>
   <g id="text_17">
    <!--  Plotting dSPN, trace number 14435  -->
    <g transform="translate(116.052969 63.12)scale(0.22 -0.22)">
     <defs>
      <path id="ArialMT-50" d="M 494 0 
L 494 4581 
L 2222 4581 
Q 2678 4581 2919 4538 
Q 3256 4481 3484 4323 
Q 3713 4166 3852 3881 
Q 3991 3597 3991 3256 
Q 3991 2672 3619 2267 
Q 3247 1863 2275 1863 
L 1100 1863 
L 1100 0 
L 494 0 
z
M 1100 2403 
L 2284 2403 
Q 2872 2403 3119 2622 
Q 3366 2841 3366 3238 
Q 3366 3525 3220 3729 
Q 3075 3934 2838 4000 
Q 2684 4041 2272 4041 
L 1100 4041 
L 1100 2403 
z
" transform="scale(0.015625)"/>
      <path id="ArialMT-67" d="M 319 -275 
L 866 -356 
Q 900 -609 1056 -725 
Q 1266 -881 1628 -881 
Q 2019 -881 2231 -725 
Q 2444 -569 2519 -288 
Q 2563 -116 2559 434 
Q 2191 0 1641 0 
Q 956 0 581 494 
Q 206 988 206 1678 
Q 206 2153 378 2554 
Q 550 2956 876 3175 
Q 1203 3394 1644 3394 
Q 2231 3394 2613 2919 
L 2613 3319 
L 3131 3319 
L 3131 450 
Q 3131 -325 2973 -648 
Q 2816 -972 2473 -1159 
Q 2131 -1347 1631 -1347 
Q 1038 -1347 672 -1080 
Q 306 -813 319 -275 
z
M 784 1719 
Q 784 1066 1043 766 
Q 1303 466 1694 466 
Q 2081 466 2343 764 
Q 2606 1063 2606 1700 
Q 2606 2309 2336 2618 
Q 2066 2928 1684 2928 
Q 1309 2928 1046 2623 
Q 784 2319 784 1719 
z
" transform="scale(0.015625)"/>
      <path id="ArialMT-64" d="M 2575 0 
L 2575 419 
Q 2259 -75 1647 -75 
Q 1250 -75 917 144 
Q 584 363 401 755 
Q 219 1147 219 1656 
Q 219 2153 384 2558 
Q 550 2963 881 3178 
Q 1213 3394 1622 3394 
Q 1922 3394 2156 3267 
Q 2391 3141 2538 2938 
L 2538 4581 
L 3097 4581 
L 3097 0 
L 2575 0 
z
M 797 1656 
Q 797 1019 1065 703 
Q 1334 388 1700 388 
Q 2069 388 2326 689 
Q 2584 991 2584 1609 
Q 2584 2291 2321 2609 
Q 2059 2928 1675 2928 
Q 1300 2928 1048 2622 
Q 797 2316 797 1656 
z
" transform="scale(0.015625)"/>
      <path id="ArialMT-53" d="M 288 1472 
L 859 1522 
Q 900 1178 1048 958 
Q 1197 738 1509 602 
Q 1822 466 2213 466 
Q 2559 466 2825 569 
Q 3091 672 3220 851 
Q 3350 1031 3350 1244 
Q 3350 1459 3225 1620 
Q 3100 1781 2813 1891 
Q 2628 1963 1997 2114 
Q 1366 2266 1113 2400 
Q 784 2572 623 2826 
Q 463 3081 463 3397 
Q 463 3744 659 4045 
Q 856 4347 1234 4503 
Q 1613 4659 2075 4659 
Q 2584 4659 2973 4495 
Q 3363 4331 3572 4012 
Q 3781 3694 3797 3291 
L 3216 3247 
Q 3169 3681 2898 3903 
Q 2628 4125 2100 4125 
Q 1550 4125 1298 3923 
Q 1047 3722 1047 3438 
Q 1047 3191 1225 3031 
Q 1400 2872 2139 2705 
Q 2878 2538 3153 2413 
Q 3553 2228 3743 1945 
Q 3934 1663 3934 1294 
Q 3934 928 3725 604 
Q 3516 281 3123 101 
Q 2731 -78 2241 -78 
Q 1619 -78 1198 103 
Q 778 284 539 648 
Q 300 1013 288 1472 
z
" transform="scale(0.015625)"/>
      <path id="ArialMT-4e" d="M 488 0 
L 488 4581 
L 1109 4581 
L 3516 984 
L 3516 4581 
L 4097 4581 
L 4097 0 
L 3475 0 
L 1069 3600 
L 1069 0 
L 488 0 
z
" transform="scale(0.015625)"/>
      <path id="ArialMT-2c" d="M 569 0 
L 569 641 
L 1209 641 
L 1209 0 
Q 1209 -353 1084 -570 
Q 959 -788 688 -906 
L 531 -666 
Q 709 -588 793 -436 
Q 878 -284 888 0 
L 569 0 
z
" transform="scale(0.015625)"/>
      <path id="ArialMT-63" d="M 2588 1216 
L 3141 1144 
Q 3050 572 2676 248 
Q 2303 -75 1759 -75 
Q 1078 -75 664 370 
Q 250 816 250 1647 
Q 250 2184 428 2587 
Q 606 2991 970 3192 
Q 1334 3394 1763 3394 
Q 2303 3394 2647 3120 
Q 2991 2847 3088 2344 
L 2541 2259 
Q 2463 2594 2264 2762 
Q 2066 2931 1784 2931 
Q 1359 2931 1093 2626 
Q 828 2322 828 1663 
Q 828 994 1084 691 
Q 1341 388 1753 388 
Q 2084 388 2306 591 
Q 2528 794 2588 1216 
z
" transform="scale(0.015625)"/>
      <path id="ArialMT-75" d="M 2597 0 
L 2597 488 
Q 2209 -75 1544 -75 
Q 1250 -75 995 37 
Q 741 150 617 320 
Q 494 491 444 738 
Q 409 903 409 1263 
L 409 3319 
L 972 3319 
L 972 1478 
Q 972 1038 1006 884 
Q 1059 663 1231 536 
Q 1403 409 1656 409 
Q 1909 409 2131 539 
Q 2353 669 2445 892 
Q 2538 1116 2538 1541 
L 2538 3319 
L 3100 3319 
L 3100 0 
L 2597 0 
z
" transform="scale(0.015625)"/>
      <path id="ArialMT-31" d="M 2384 0 
L 1822 0 
L 1822 3584 
Q 1619 3391 1289 3197 
Q 959 3003 697 2906 
L 697 3450 
Q 1169 3672 1522 3987 
Q 1875 4303 2022 4600 
L 2384 4600 
L 2384 0 
z
" transform="scale(0.015625)"/>
      <path id="ArialMT-34" d="M 2069 0 
L 2069 1097 
L 81 1097 
L 81 1613 
L 2172 4581 
L 2631 4581 
L 2631 1613 
L 3250 1613 
L 3250 1097 
L 2631 1097 
L 2631 0 
L 2069 0 
z
M 2069 1613 
L 2069 3678 
L 634 1613 
L 2069 1613 
z
" transform="scale(0.015625)"/>
      <path id="ArialMT-33" d="M 269 1209 
L 831 1284 
Q 928 806 1161 595 
Q 1394 384 1728 384 
Q 2125 384 2398 659 
Q 2672 934 2672 1341 
Q 2672 1728 2419 1979 
Q 2166 2231 1775 2231 
Q 1616 2231 1378 2169 
L 1441 2663 
Q 1497 2656 1531 2656 
Q 1891 2656 2178 2843 
Q 2466 3031 2466 3422 
Q 2466 3731 2256 3934 
Q 2047 4138 1716 4138 
Q 1388 4138 1169 3931 
Q 950 3725 888 3313 
L 325 3413 
Q 428 3978 793 4289 
Q 1159 4600 1703 4600 
Q 2078 4600 2393 4439 
Q 2709 4278 2876 4000 
Q 3044 3722 3044 3409 
Q 3044 3113 2884 2869 
Q 2725 2625 2413 2481 
Q 2819 2388 3044 2092 
Q 3269 1797 3269 1353 
Q 3269 753 2831 336 
Q 2394 -81 1725 -81 
Q 1122 -81 723 278 
Q 325 638 269 1209 
z
" transform="scale(0.015625)"/>
     </defs>
     <use xlink:href="#ArialMT-20"/>
     <use xlink:href="#ArialMT-50" x="27.783203"/>
     <use xlink:href="#ArialMT-6c" x="94.482422"/>
     <use xlink:href="#ArialMT-6f" x="116.699219"/>
     <use xlink:href="#ArialMT-74" x="172.314453"/>
     <use xlink:href="#ArialMT-74" x="200.097656"/>
     <use xlink:href="#ArialMT-69" x="227.880859"/>
     <use xlink:href="#ArialMT-6e" x="250.097656"/>
     <use xlink:href="#ArialMT-67" x="305.712891"/>
     <use xlink:href="#ArialMT-20" x="361.328125"/>
     <use xlink:href="#ArialMT-64" x="389.111328"/>
     <use xlink:href="#ArialMT-53" x="444.726562"/>
     <use xlink:href="#ArialMT-50" x="511.425781"/>
     <use xlink:href="#ArialMT-4e" x="578.125"/>
     <use xlink:href="#ArialMT-2c" x="650.341797"/>
     <use xlink:href="#ArialMT-20" x="678.125"/>
     <use xlink:href="#ArialMT-74" x="705.908203"/>
     <use xlink:href="#ArialMT-72" x="733.691406"/>
     <use xlink:href="#ArialMT-61" x="766.992188"/>
     <use xlink:href="#ArialMT-63" x="822.607422"/>
     <use xlink:href="#ArialMT-65" x="872.607422"/>
     <use xlink:href="#ArialMT-20" x="928.222656"/>
     <use xlink:href="#ArialMT-6e" x="956.005859"/>
     <use xlink:href="#ArialMT-75" x="1011.621094"/>
     <use xlink:href="#ArialMT-6d" x="1067.236328"/>
     <use xlink:href="#ArialMT-62" x="1150.537109"/>
     <use xlink:href="#ArialMT-65" x="1206.152344"/>
     <use xlink:href="#ArialMT-72" x="1261.767578"/>
     <use xlink:href="#ArialMT-20" x="1295.068359"/>
     <use xlink:href="#ArialMT-31" x="1322.851562"/>
     <use xlink:href="#ArialMT-34" x="1378.466797"/>
     <use xlink:href="#ArialMT-34" x="1434.082031"/>
     <use xlink:href="#ArialMT-33" x="1489.697266"/>
     <use xlink:href="#ArialMT-35" x="1545.3125"/>
     <use xlink:href="#ArialMT-20" x="1600.927734"/>
    </g>
   </g>
  </g>
 </g>
 <defs>
  <clipPath id="p698529e9f1">
   <rect x="72" y="69.12" width="446.4" height="434.88"/>
  </clipPath>
 </defs>
</svg>
