<?xml version="1.0" encoding="utf-8" standalone="no"?>
<!DOCTYPE svg PUBLIC "-//W3C//DTD SVG 1.1//EN"
  "http://www.w3.org/Graphics/SVG/1.1/DTD/svg11.dtd">
<svg xmlns:xlink="http://www.w3.org/1999/xlink" width="576pt" height="576pt" viewBox="0 0 576 576" xmlns="http://www.w3.org/2000/svg" version="1.1">
 <metadata>
  <rdf:RDF xmlns:dc="http://purl.org/dc/elements/1.1/" xmlns:cc="http://creativecommons.org/ns#" xmlns:rdf="http://www.w3.org/1999/02/22-rdf-syntax-ns#">
   <cc:Work>
    <dc:type rdf:resource="http://purl.org/dc/dcmitype/StillImage"/>
    <dc:date>2022-10-30T19:57:11.137365</dc:date>
    <dc:format>image/svg+xml</dc:format>
    <dc:creator>
     <cc:Agent>
      <dc:title>Matplotlib v3.5.2, https://matplotlib.org/</dc:title>
     </cc:Agent>
    </dc:creator>
   </cc:Work>
  </rdf:RDF>
 </metadata>
 <defs>
  <style type="text/css">*{stroke-linejoin: round; stroke-linecap: butt}</style>
 </defs>
 <g id="figure_1">
  <g id="patch_1">
   <path d="M 0 576 
L 576 576 
L 576 0 
L 0 0 
L 0 576 
z
" style="fill: none"/>
  </g>
  <g id="axes_1">
   <g id="patch_2">
    <path d="M 72 504 
L 518.4 504 
L 518.4 69.12 
L 72 69.12 
z
" style="fill: #ffffff"/>
   </g>
   <g id="matplotlib.axis_1">
    <g id="xtick_1">
     <g id="line2d_1">
      <defs>
       <path id="mffc0725ec3" d="M 0 0 
L 0 3.5 
" style="stroke: #000000; stroke-width: 0.8"/>
      </defs>
      <g>
       <use xlink:href="#mffc0725ec3" x="92.290909" y="504" style="stroke: #000000; stroke-width: 0.8"/>
      </g>
     </g>
     <g id="text_1">
      <!-- 0 -->
      <g transform="translate(85.292159 527.716563)scale(0.22 -0.22)">
       <defs>
        <path id="DejaVuSans-30" d="M 2034 4250 
Q 1547 4250 1301 3770 
Q 1056 3291 1056 2328 
Q 1056 1369 1301 889 
Q 1547 409 2034 409 
Q 2525 409 2770 889 
Q 3016 1369 3016 2328 
Q 3016 3291 2770 3770 
Q 2525 4250 2034 4250 
z
M 2034 4750 
Q 2819 4750 3233 4129 
Q 3647 3509 3647 2328 
Q 3647 1150 3233 529 
Q 2819 -91 2034 -91 
Q 1250 -91 836 529 
Q 422 1150 422 2328 
Q 422 3509 836 4129 
Q 1250 4750 2034 4750 
z
" transform="scale(0.015625)"/>
       </defs>
       <use xlink:href="#DejaVuSans-30"/>
      </g>
     </g>
    </g>
    <g id="xtick_2">
     <g id="line2d_2">
      <g>
       <use xlink:href="#mffc0725ec3" x="227.563636" y="504" style="stroke: #000000; stroke-width: 0.8"/>
      </g>
     </g>
     <g id="text_2">
      <!-- 1000 -->
      <g transform="translate(199.568636 527.716563)scale(0.22 -0.22)">
       <defs>
        <path id="DejaVuSans-31" d="M 794 531 
L 1825 531 
L 1825 4091 
L 703 3866 
L 703 4441 
L 1819 4666 
L 2450 4666 
L 2450 531 
L 3481 531 
L 3481 0 
L 794 0 
L 794 531 
z
" transform="scale(0.015625)"/>
       </defs>
       <use xlink:href="#DejaVuSans-31"/>
       <use xlink:href="#DejaVuSans-30" x="63.623047"/>
       <use xlink:href="#DejaVuSans-30" x="127.246094"/>
       <use xlink:href="#DejaVuSans-30" x="190.869141"/>
      </g>
     </g>
    </g>
    <g id="xtick_3">
     <g id="line2d_3">
      <g>
       <use xlink:href="#mffc0725ec3" x="362.836364" y="504" style="stroke: #000000; stroke-width: 0.8"/>
      </g>
     </g>
     <g id="text_3">
      <!-- 2000 -->
      <g transform="translate(334.841364 527.716563)scale(0.22 -0.22)">
       <defs>
        <path id="DejaVuSans-32" d="M 1228 531 
L 3431 531 
L 3431 0 
L 469 0 
L 469 531 
Q 828 903 1448 1529 
Q 2069 2156 2228 2338 
Q 2531 2678 2651 2914 
Q 2772 3150 2772 3378 
Q 2772 3750 2511 3984 
Q 2250 4219 1831 4219 
Q 1534 4219 1204 4116 
Q 875 4013 500 3803 
L 500 4441 
Q 881 4594 1212 4672 
Q 1544 4750 1819 4750 
Q 2544 4750 2975 4387 
Q 3406 4025 3406 3419 
Q 3406 3131 3298 2873 
Q 3191 2616 2906 2266 
Q 2828 2175 2409 1742 
Q 1991 1309 1228 531 
z
" transform="scale(0.015625)"/>
       </defs>
       <use xlink:href="#DejaVuSans-32"/>
       <use xlink:href="#DejaVuSans-30" x="63.623047"/>
       <use xlink:href="#DejaVuSans-30" x="127.246094"/>
       <use xlink:href="#DejaVuSans-30" x="190.869141"/>
      </g>
     </g>
    </g>
    <g id="xtick_4">
     <g id="line2d_4">
      <g>
       <use xlink:href="#mffc0725ec3" x="498.109091" y="504" style="stroke: #000000; stroke-width: 0.8"/>
      </g>
     </g>
     <g id="text_4">
      <!-- 3000 -->
      <g transform="translate(470.114091 527.716563)scale(0.22 -0.22)">
       <defs>
        <path id="DejaVuSans-33" d="M 2597 2516 
Q 3050 2419 3304 2112 
Q 3559 1806 3559 1356 
Q 3559 666 3084 287 
Q 2609 -91 1734 -91 
Q 1441 -91 1130 -33 
Q 819 25 488 141 
L 488 750 
Q 750 597 1062 519 
Q 1375 441 1716 441 
Q 2309 441 2620 675 
Q 2931 909 2931 1356 
Q 2931 1769 2642 2001 
Q 2353 2234 1838 2234 
L 1294 2234 
L 1294 2753 
L 1863 2753 
Q 2328 2753 2575 2939 
Q 2822 3125 2822 3475 
Q 2822 3834 2567 4026 
Q 2313 4219 1838 4219 
Q 1578 4219 1281 4162 
Q 984 4106 628 3988 
L 628 4550 
Q 988 4650 1302 4700 
Q 1616 4750 1894 4750 
Q 2613 4750 3031 4423 
Q 3450 4097 3450 3541 
Q 3450 3153 3228 2886 
Q 3006 2619 2597 2516 
z
" transform="scale(0.015625)"/>
       </defs>
       <use xlink:href="#DejaVuSans-33"/>
       <use xlink:href="#DejaVuSans-30" x="63.623047"/>
       <use xlink:href="#DejaVuSans-30" x="127.246094"/>
       <use xlink:href="#DejaVuSans-30" x="190.869141"/>
      </g>
     </g>
    </g>
    <g id="text_5">
     <!-- Time(ms) -->
     <g transform="translate(249.182187 552.307188)scale(0.22 -0.22)">
      <defs>
       <path id="ArialMT-54" d="M 1659 0 
L 1659 4041 
L 150 4041 
L 150 4581 
L 3781 4581 
L 3781 4041 
L 2266 4041 
L 2266 0 
L 1659 0 
z
" transform="scale(0.015625)"/>
       <path id="ArialMT-69" d="M 425 3934 
L 425 4581 
L 988 4581 
L 988 3934 
L 425 3934 
z
M 425 0 
L 425 3319 
L 988 3319 
L 988 0 
L 425 0 
z
" transform="scale(0.015625)"/>
       <path id="ArialMT-6d" d="M 422 0 
L 422 3319 
L 925 3319 
L 925 2853 
Q 1081 3097 1340 3245 
Q 1600 3394 1931 3394 
Q 2300 3394 2536 3241 
Q 2772 3088 2869 2813 
Q 3263 3394 3894 3394 
Q 4388 3394 4653 3120 
Q 4919 2847 4919 2278 
L 4919 0 
L 4359 0 
L 4359 2091 
Q 4359 2428 4304 2576 
Q 4250 2725 4106 2815 
Q 3963 2906 3769 2906 
Q 3419 2906 3187 2673 
Q 2956 2441 2956 1928 
L 2956 0 
L 2394 0 
L 2394 2156 
Q 2394 2531 2256 2718 
Q 2119 2906 1806 2906 
Q 1569 2906 1367 2781 
Q 1166 2656 1075 2415 
Q 984 2175 984 1722 
L 984 0 
L 422 0 
z
" transform="scale(0.015625)"/>
       <path id="ArialMT-65" d="M 2694 1069 
L 3275 997 
Q 3138 488 2766 206 
Q 2394 -75 1816 -75 
Q 1088 -75 661 373 
Q 234 822 234 1631 
Q 234 2469 665 2931 
Q 1097 3394 1784 3394 
Q 2450 3394 2872 2941 
Q 3294 2488 3294 1666 
Q 3294 1616 3291 1516 
L 816 1516 
Q 847 969 1125 678 
Q 1403 388 1819 388 
Q 2128 388 2347 550 
Q 2566 713 2694 1069 
z
M 847 1978 
L 2700 1978 
Q 2663 2397 2488 2606 
Q 2219 2931 1791 2931 
Q 1403 2931 1139 2672 
Q 875 2413 847 1978 
z
" transform="scale(0.015625)"/>
       <path id="ArialMT-28" d="M 1497 -1347 
Q 1031 -759 709 28 
Q 388 816 388 1659 
Q 388 2403 628 3084 
Q 909 3875 1497 4659 
L 1900 4659 
Q 1522 4009 1400 3731 
Q 1209 3300 1100 2831 
Q 966 2247 966 1656 
Q 966 153 1900 -1347 
L 1497 -1347 
z
" transform="scale(0.015625)"/>
       <path id="ArialMT-73" d="M 197 991 
L 753 1078 
Q 800 744 1014 566 
Q 1228 388 1613 388 
Q 2000 388 2187 545 
Q 2375 703 2375 916 
Q 2375 1106 2209 1216 
Q 2094 1291 1634 1406 
Q 1016 1563 777 1677 
Q 538 1791 414 1992 
Q 291 2194 291 2438 
Q 291 2659 392 2848 
Q 494 3038 669 3163 
Q 800 3259 1026 3326 
Q 1253 3394 1513 3394 
Q 1903 3394 2198 3281 
Q 2494 3169 2634 2976 
Q 2775 2784 2828 2463 
L 2278 2388 
Q 2241 2644 2061 2787 
Q 1881 2931 1553 2931 
Q 1166 2931 1000 2803 
Q 834 2675 834 2503 
Q 834 2394 903 2306 
Q 972 2216 1119 2156 
Q 1203 2125 1616 2013 
Q 2213 1853 2448 1751 
Q 2684 1650 2818 1456 
Q 2953 1263 2953 975 
Q 2953 694 2789 445 
Q 2625 197 2315 61 
Q 2006 -75 1616 -75 
Q 969 -75 630 194 
Q 291 463 197 991 
z
" transform="scale(0.015625)"/>
       <path id="ArialMT-29" d="M 791 -1347 
L 388 -1347 
Q 1322 153 1322 1656 
Q 1322 2244 1188 2822 
Q 1081 3291 891 3722 
Q 769 4003 388 4659 
L 791 4659 
Q 1378 3875 1659 3084 
Q 1900 2403 1900 1659 
Q 1900 816 1576 28 
Q 1253 -759 791 -1347 
z
" transform="scale(0.015625)"/>
      </defs>
      <use xlink:href="#ArialMT-54"/>
      <use xlink:href="#ArialMT-69" x="57.333984"/>
      <use xlink:href="#ArialMT-6d" x="79.550781"/>
      <use xlink:href="#ArialMT-65" x="162.851562"/>
      <use xlink:href="#ArialMT-28" x="218.466797"/>
      <use xlink:href="#ArialMT-6d" x="251.767578"/>
      <use xlink:href="#ArialMT-73" x="335.068359"/>
      <use xlink:href="#ArialMT-29" x="385.068359"/>
     </g>
    </g>
   </g>
   <g id="matplotlib.axis_2">
    <g id="ytick_1">
     <g id="line2d_5">
      <defs>
       <path id="m06d76f53ad" d="M 0 0 
L -3.5 0 
" style="stroke: #000000; stroke-width: 0.8"/>
      </defs>
      <g>
       <use xlink:href="#m06d76f53ad" x="72" y="476.82" style="stroke: #000000; stroke-width: 0.8"/>
      </g>
     </g>
     <g id="text_6">
      <!-- −100 -->
      <g transform="translate(4.572187 485.178281)scale(0.22 -0.22)">
       <defs>
        <path id="DejaVuSans-2212" d="M 678 2272 
L 4684 2272 
L 4684 1741 
L 678 1741 
L 678 2272 
z
" transform="scale(0.015625)"/>
       </defs>
       <use xlink:href="#DejaVuSans-2212"/>
       <use xlink:href="#DejaVuSans-31" x="83.789062"/>
       <use xlink:href="#DejaVuSans-30" x="147.412109"/>
       <use xlink:href="#DejaVuSans-30" x="211.035156"/>
      </g>
     </g>
    </g>
    <g id="ytick_2">
     <g id="line2d_6">
      <g>
       <use xlink:href="#m06d76f53ad" x="72" y="422.46" style="stroke: #000000; stroke-width: 0.8"/>
      </g>
     </g>
     <g id="text_7">
      <!-- −80 -->
      <g transform="translate(18.569688 430.818281)scale(0.22 -0.22)">
       <defs>
        <path id="DejaVuSans-38" d="M 2034 2216 
Q 1584 2216 1326 1975 
Q 1069 1734 1069 1313 
Q 1069 891 1326 650 
Q 1584 409 2034 409 
Q 2484 409 2743 651 
Q 3003 894 3003 1313 
Q 3003 1734 2745 1975 
Q 2488 2216 2034 2216 
z
M 1403 2484 
Q 997 2584 770 2862 
Q 544 3141 544 3541 
Q 544 4100 942 4425 
Q 1341 4750 2034 4750 
Q 2731 4750 3128 4425 
Q 3525 4100 3525 3541 
Q 3525 3141 3298 2862 
Q 3072 2584 2669 2484 
Q 3125 2378 3379 2068 
Q 3634 1759 3634 1313 
Q 3634 634 3220 271 
Q 2806 -91 2034 -91 
Q 1263 -91 848 271 
Q 434 634 434 1313 
Q 434 1759 690 2068 
Q 947 2378 1403 2484 
z
M 1172 3481 
Q 1172 3119 1398 2916 
Q 1625 2713 2034 2713 
Q 2441 2713 2670 2916 
Q 2900 3119 2900 3481 
Q 2900 3844 2670 4047 
Q 2441 4250 2034 4250 
Q 1625 4250 1398 4047 
Q 1172 3844 1172 3481 
z
" transform="scale(0.015625)"/>
       </defs>
       <use xlink:href="#DejaVuSans-2212"/>
       <use xlink:href="#DejaVuSans-38" x="83.789062"/>
       <use xlink:href="#DejaVuSans-30" x="147.412109"/>
      </g>
     </g>
    </g>
    <g id="ytick_3">
     <g id="line2d_7">
      <g>
       <use xlink:href="#m06d76f53ad" x="72" y="368.1" style="stroke: #000000; stroke-width: 0.8"/>
      </g>
     </g>
     <g id="text_8">
      <!-- −60 -->
      <g transform="translate(18.569688 376.458281)scale(0.22 -0.22)">
       <defs>
        <path id="DejaVuSans-36" d="M 2113 2584 
Q 1688 2584 1439 2293 
Q 1191 2003 1191 1497 
Q 1191 994 1439 701 
Q 1688 409 2113 409 
Q 2538 409 2786 701 
Q 3034 994 3034 1497 
Q 3034 2003 2786 2293 
Q 2538 2584 2113 2584 
z
M 3366 4563 
L 3366 3988 
Q 3128 4100 2886 4159 
Q 2644 4219 2406 4219 
Q 1781 4219 1451 3797 
Q 1122 3375 1075 2522 
Q 1259 2794 1537 2939 
Q 1816 3084 2150 3084 
Q 2853 3084 3261 2657 
Q 3669 2231 3669 1497 
Q 3669 778 3244 343 
Q 2819 -91 2113 -91 
Q 1303 -91 875 529 
Q 447 1150 447 2328 
Q 447 3434 972 4092 
Q 1497 4750 2381 4750 
Q 2619 4750 2861 4703 
Q 3103 4656 3366 4563 
z
" transform="scale(0.015625)"/>
       </defs>
       <use xlink:href="#DejaVuSans-2212"/>
       <use xlink:href="#DejaVuSans-36" x="83.789062"/>
       <use xlink:href="#DejaVuSans-30" x="147.412109"/>
      </g>
     </g>
    </g>
    <g id="ytick_4">
     <g id="line2d_8">
      <g>
       <use xlink:href="#m06d76f53ad" x="72" y="313.74" style="stroke: #000000; stroke-width: 0.8"/>
      </g>
     </g>
     <g id="text_9">
      <!-- −40 -->
      <g transform="translate(18.569688 322.098281)scale(0.22 -0.22)">
       <defs>
        <path id="DejaVuSans-34" d="M 2419 4116 
L 825 1625 
L 2419 1625 
L 2419 4116 
z
M 2253 4666 
L 3047 4666 
L 3047 1625 
L 3713 1625 
L 3713 1100 
L 3047 1100 
L 3047 0 
L 2419 0 
L 2419 1100 
L 313 1100 
L 313 1709 
L 2253 4666 
z
" transform="scale(0.015625)"/>
       </defs>
       <use xlink:href="#DejaVuSans-2212"/>
       <use xlink:href="#DejaVuSans-34" x="83.789062"/>
       <use xlink:href="#DejaVuSans-30" x="147.412109"/>
      </g>
     </g>
    </g>
    <g id="ytick_5">
     <g id="line2d_9">
      <g>
       <use xlink:href="#m06d76f53ad" x="72" y="259.38" style="stroke: #000000; stroke-width: 0.8"/>
      </g>
     </g>
     <g id="text_10">
      <!-- −20 -->
      <g transform="translate(18.569688 267.738281)scale(0.22 -0.22)">
       <use xlink:href="#DejaVuSans-2212"/>
       <use xlink:href="#DejaVuSans-32" x="83.789062"/>
       <use xlink:href="#DejaVuSans-30" x="147.412109"/>
      </g>
     </g>
    </g>
    <g id="ytick_6">
     <g id="line2d_10">
      <g>
       <use xlink:href="#m06d76f53ad" x="72" y="205.02" style="stroke: #000000; stroke-width: 0.8"/>
      </g>
     </g>
     <g id="text_11">
      <!-- 0 -->
      <g transform="translate(51.0025 213.378281)scale(0.22 -0.22)">
       <use xlink:href="#DejaVuSans-30"/>
      </g>
     </g>
    </g>
    <g id="ytick_7">
     <g id="line2d_11">
      <g>
       <use xlink:href="#m06d76f53ad" x="72" y="150.66" style="stroke: #000000; stroke-width: 0.8"/>
      </g>
     </g>
     <g id="text_12">
      <!-- 20 -->
      <g transform="translate(37.005 159.018281)scale(0.22 -0.22)">
       <use xlink:href="#DejaVuSans-32"/>
       <use xlink:href="#DejaVuSans-30" x="63.623047"/>
      </g>
     </g>
    </g>
    <g id="ytick_8">
     <g id="line2d_12">
      <g>
       <use xlink:href="#m06d76f53ad" x="72" y="96.3" style="stroke: #000000; stroke-width: 0.8"/>
      </g>
     </g>
     <g id="text_13">
      <!-- 40 -->
      <g transform="translate(37.005 104.658281)scale(0.22 -0.22)">
       <use xlink:href="#DejaVuSans-34"/>
       <use xlink:href="#DejaVuSans-30" x="63.623047"/>
      </g>
     </g>
    </g>
    <g id="text_14">
     <!-- Membrane potential (mV) -->
     <g transform="translate(-4.058125 410.655469)rotate(-90)scale(0.22 -0.22)">
      <defs>
       <path id="ArialMT-4d" d="M 475 0 
L 475 4581 
L 1388 4581 
L 2472 1338 
Q 2622 884 2691 659 
Q 2769 909 2934 1394 
L 4031 4581 
L 4847 4581 
L 4847 0 
L 4263 0 
L 4263 3834 
L 2931 0 
L 2384 0 
L 1059 3900 
L 1059 0 
L 475 0 
z
" transform="scale(0.015625)"/>
       <path id="ArialMT-62" d="M 941 0 
L 419 0 
L 419 4581 
L 981 4581 
L 981 2947 
Q 1338 3394 1891 3394 
Q 2197 3394 2470 3270 
Q 2744 3147 2920 2923 
Q 3097 2700 3197 2384 
Q 3297 2069 3297 1709 
Q 3297 856 2875 390 
Q 2453 -75 1863 -75 
Q 1275 -75 941 416 
L 941 0 
z
M 934 1684 
Q 934 1088 1097 822 
Q 1363 388 1816 388 
Q 2184 388 2453 708 
Q 2722 1028 2722 1663 
Q 2722 2313 2464 2622 
Q 2206 2931 1841 2931 
Q 1472 2931 1203 2611 
Q 934 2291 934 1684 
z
" transform="scale(0.015625)"/>
       <path id="ArialMT-72" d="M 416 0 
L 416 3319 
L 922 3319 
L 922 2816 
Q 1116 3169 1280 3281 
Q 1444 3394 1641 3394 
Q 1925 3394 2219 3213 
L 2025 2691 
Q 1819 2813 1613 2813 
Q 1428 2813 1281 2702 
Q 1134 2591 1072 2394 
Q 978 2094 978 1738 
L 978 0 
L 416 0 
z
" transform="scale(0.015625)"/>
       <path id="ArialMT-61" d="M 2588 409 
Q 2275 144 1986 34 
Q 1697 -75 1366 -75 
Q 819 -75 525 192 
Q 231 459 231 875 
Q 231 1119 342 1320 
Q 453 1522 633 1644 
Q 813 1766 1038 1828 
Q 1203 1872 1538 1913 
Q 2219 1994 2541 2106 
Q 2544 2222 2544 2253 
Q 2544 2597 2384 2738 
Q 2169 2928 1744 2928 
Q 1347 2928 1158 2789 
Q 969 2650 878 2297 
L 328 2372 
Q 403 2725 575 2942 
Q 747 3159 1072 3276 
Q 1397 3394 1825 3394 
Q 2250 3394 2515 3294 
Q 2781 3194 2906 3042 
Q 3031 2891 3081 2659 
Q 3109 2516 3109 2141 
L 3109 1391 
Q 3109 606 3145 398 
Q 3181 191 3288 0 
L 2700 0 
Q 2613 175 2588 409 
z
M 2541 1666 
Q 2234 1541 1622 1453 
Q 1275 1403 1131 1340 
Q 988 1278 909 1158 
Q 831 1038 831 891 
Q 831 666 1001 516 
Q 1172 366 1500 366 
Q 1825 366 2078 508 
Q 2331 650 2450 897 
Q 2541 1088 2541 1459 
L 2541 1666 
z
" transform="scale(0.015625)"/>
       <path id="ArialMT-6e" d="M 422 0 
L 422 3319 
L 928 3319 
L 928 2847 
Q 1294 3394 1984 3394 
Q 2284 3394 2536 3286 
Q 2788 3178 2913 3003 
Q 3038 2828 3088 2588 
Q 3119 2431 3119 2041 
L 3119 0 
L 2556 0 
L 2556 2019 
Q 2556 2363 2490 2533 
Q 2425 2703 2258 2804 
Q 2091 2906 1866 2906 
Q 1506 2906 1245 2678 
Q 984 2450 984 1813 
L 984 0 
L 422 0 
z
" transform="scale(0.015625)"/>
       <path id="ArialMT-20" transform="scale(0.015625)"/>
       <path id="ArialMT-70" d="M 422 -1272 
L 422 3319 
L 934 3319 
L 934 2888 
Q 1116 3141 1344 3267 
Q 1572 3394 1897 3394 
Q 2322 3394 2647 3175 
Q 2972 2956 3137 2557 
Q 3303 2159 3303 1684 
Q 3303 1175 3120 767 
Q 2938 359 2589 142 
Q 2241 -75 1856 -75 
Q 1575 -75 1351 44 
Q 1128 163 984 344 
L 984 -1272 
L 422 -1272 
z
M 931 1641 
Q 931 1000 1190 694 
Q 1450 388 1819 388 
Q 2194 388 2461 705 
Q 2728 1022 2728 1688 
Q 2728 2322 2467 2637 
Q 2206 2953 1844 2953 
Q 1484 2953 1207 2617 
Q 931 2281 931 1641 
z
" transform="scale(0.015625)"/>
       <path id="ArialMT-6f" d="M 213 1659 
Q 213 2581 725 3025 
Q 1153 3394 1769 3394 
Q 2453 3394 2887 2945 
Q 3322 2497 3322 1706 
Q 3322 1066 3130 698 
Q 2938 331 2570 128 
Q 2203 -75 1769 -75 
Q 1072 -75 642 372 
Q 213 819 213 1659 
z
M 791 1659 
Q 791 1022 1069 705 
Q 1347 388 1769 388 
Q 2188 388 2466 706 
Q 2744 1025 2744 1678 
Q 2744 2294 2464 2611 
Q 2184 2928 1769 2928 
Q 1347 2928 1069 2612 
Q 791 2297 791 1659 
z
" transform="scale(0.015625)"/>
       <path id="ArialMT-74" d="M 1650 503 
L 1731 6 
Q 1494 -44 1306 -44 
Q 1000 -44 831 53 
Q 663 150 594 308 
Q 525 466 525 972 
L 525 2881 
L 113 2881 
L 113 3319 
L 525 3319 
L 525 4141 
L 1084 4478 
L 1084 3319 
L 1650 3319 
L 1650 2881 
L 1084 2881 
L 1084 941 
Q 1084 700 1114 631 
Q 1144 563 1211 522 
Q 1278 481 1403 481 
Q 1497 481 1650 503 
z
" transform="scale(0.015625)"/>
       <path id="ArialMT-6c" d="M 409 0 
L 409 4581 
L 972 4581 
L 972 0 
L 409 0 
z
" transform="scale(0.015625)"/>
       <path id="ArialMT-56" d="M 1803 0 
L 28 4581 
L 684 4581 
L 1875 1253 
Q 2019 853 2116 503 
Q 2222 878 2363 1253 
L 3600 4581 
L 4219 4581 
L 2425 0 
L 1803 0 
z
" transform="scale(0.015625)"/>
      </defs>
      <use xlink:href="#ArialMT-4d"/>
      <use xlink:href="#ArialMT-65" x="83.300781"/>
      <use xlink:href="#ArialMT-6d" x="138.916016"/>
      <use xlink:href="#ArialMT-62" x="222.216797"/>
      <use xlink:href="#ArialMT-72" x="277.832031"/>
      <use xlink:href="#ArialMT-61" x="311.132812"/>
      <use xlink:href="#ArialMT-6e" x="366.748047"/>
      <use xlink:href="#ArialMT-65" x="422.363281"/>
      <use xlink:href="#ArialMT-20" x="477.978516"/>
      <use xlink:href="#ArialMT-70" x="505.761719"/>
      <use xlink:href="#ArialMT-6f" x="561.376953"/>
      <use xlink:href="#ArialMT-74" x="616.992188"/>
      <use xlink:href="#ArialMT-65" x="644.775391"/>
      <use xlink:href="#ArialMT-6e" x="700.390625"/>
      <use xlink:href="#ArialMT-74" x="756.005859"/>
      <use xlink:href="#ArialMT-69" x="783.789062"/>
      <use xlink:href="#ArialMT-61" x="806.005859"/>
      <use xlink:href="#ArialMT-6c" x="861.621094"/>
      <use xlink:href="#ArialMT-20" x="883.837891"/>
      <use xlink:href="#ArialMT-28" x="911.621094"/>
      <use xlink:href="#ArialMT-6d" x="944.921875"/>
      <use xlink:href="#ArialMT-56" x="1028.222656"/>
      <use xlink:href="#ArialMT-29" x="1094.921875"/>
     </g>
    </g>
   </g>
   <g id="line2d_13">
    <path d="M 92.290909 430.614 
L 92.426182 432.514995 
L 92.629091 432.517113 
L 93.305455 432.379975 
L 95.469818 432.385698 
L 117.451636 432.391834 
L 159.927273 432.391755 
L 160.130182 414.175845 
L 160.536 402.326482 
L 161.144727 391.77729 
L 162.091636 379.864985 
L 163.647273 360.795338 
L 164.188364 350.926771 
L 164.526545 340.363961 
L 164.729455 325.940607 
L 164.797091 314.229821 
L 164.864727 272.429799 
L 164.932364 129.073755 
L 165 194.09771 
L 165.202909 319.68251 
L 165.541091 384.721109 
L 165.744 393.964876 
L 165.879273 394.827628 
L 166.014545 393.731665 
L 166.420364 386.65305 
L 167.232 373.388797 
L 168.178909 362.052295 
L 168.855273 353.300729 
L 169.261091 345.428044 
L 169.531636 336.331068 
L 169.734545 319.680378 
L 169.802182 302.638565 
L 169.937455 156.757996 
L 170.140364 307.298434 
L 170.478545 381.175574 
L 170.681455 394.020524 
L 170.816727 395.317398 
L 170.952 394.038537 
L 171.560727 382.149378 
L 172.237091 371.618338 
L 173.860364 348.907961 
L 174.198545 340.256051 
L 174.401455 330.671359 
L 174.536727 315.273936 
L 174.604364 289.677503 
L 174.672 139.294126 
L 174.739636 181.733966 
L 174.942545 313.472387 
L 175.280727 383.293417 
L 175.483636 393.994125 
L 175.618909 394.7763 
L 175.754182 393.379285 
L 176.430545 380.553738 
L 177.174545 369.380695 
L 178.662545 349.052533 
L 179.000727 339.86187 
L 179.203636 328.828265 
L 179.338909 307.86979 
L 179.474182 144.46059 
L 179.744727 323.122094 
L 180.082909 386.069706 
L 180.285818 394.249413 
L 180.353455 394.689063 
L 180.421091 394.491553 
L 180.624 391.775734 
L 181.841455 370.871239 
L 182.856 358.712613 
L 183.397091 355.586369 
L 183.802909 351.215338 
L 184.141091 345.546694 
L 184.411636 338.015359 
L 184.614545 326.839962 
L 184.749818 303.493559 
L 184.885091 155.453117 
L 185.088 306.002549 
L 185.426182 380.181566 
L 185.629091 392.319731 
L 185.764364 393.670031 
L 185.899636 392.704453 
L 186.305455 385.536084 
L 187.117091 372.011587 
L 188.740364 348.372702 
L 189.078545 337.848643 
L 189.281455 322.184938 
L 189.349091 307.6398 
L 189.484364 144.504914 
L 189.754909 325.181333 
L 190.025455 380.889758 
L 190.228364 393.263692 
L 190.363636 394.770195 
L 190.498909 393.866157 
L 190.837091 388.002797 
L 191.716364 372.928138 
L 193.069091 355.043319 
L 193.813091 346.842416 
L 194.083636 340.735159 
L 194.286545 332.466848 
L 194.421818 321.045115 
L 194.489455 307.88729 
L 194.624727 145.117871 
L 194.692364 216.64338 
L 194.895273 320.100219 
L 195.233455 383.79383 
L 195.436364 392.673581 
L 195.571636 393.311222 
L 195.706909 392.076389 
L 196.180364 383.623647 
L 196.992 370.402147 
L 198.277091 350.852203 
L 198.615273 341.816282 
L 198.818182 331.79062 
L 198.953455 315.712331 
L 199.021091 287.229302 
L 199.088727 131.42023 
L 199.156364 182.703123 
L 199.359273 316.106086 
L 199.697455 383.669777 
L 199.900364 393.37008 
L 200.035636 394.288897 
L 200.170909 393.208708 
L 200.576727 386.171386 
L 201.388364 372.67583 
L 203.349818 343.810162 
L 203.620364 334.895734 
L 203.755636 325.720397 
L 203.890909 295.823007 
L 203.958545 154.654387 
L 204.026182 171.659921 
L 204.229091 310.228913 
L 204.567273 380.382165 
L 204.770182 392.005661 
L 204.905455 393.48454 
L 204.973091 393.280539 
L 205.176 390.774387 
L 206.664 366.839845 
L 207.746182 351.949852 
L 208.152 342.392465 
L 208.354909 333.551725 
L 208.490182 321.019117 
L 208.557818 305.345458 
L 208.693091 150.181084 
L 208.896 306.294169 
L 209.234182 379.675812 
L 209.437091 392.42353 
L 209.572364 394.274776 
L 209.64 394.175964 
L 209.842909 391.794423 
L 211.601455 363.461116 
L 212.818909 345.983271 
L 213.157091 337.557326 
L 213.36 326.90577 
L 213.495273 305.66825 
L 213.630545 150.667293 
L 213.833455 302.538756 
L 214.239273 384.434808 
L 214.442182 393.175509 
L 214.509818 393.674846 
L 214.577455 393.52242 
L 214.780364 390.932673 
L 216.133091 368.419293 
L 217.282909 351.503914 
L 217.688727 341.320816 
L 217.891636 331.184168 
L 218.026909 314.265205 
L 218.094545 281.510866 
L 218.162182 131.933544 
L 218.229818 190.151415 
L 218.432727 318.707571 
L 218.770909 386.244529 
L 218.973818 394.623876 
L 219.041455 395.036175 
L 219.109091 394.819727 
L 219.312 392.134047 
L 220.8 367.199758 
L 222.423273 343.640965 
L 222.693818 334.142255 
L 222.829091 324.065417 
L 222.896727 313.59652 
L 222.964364 282.912076 
L 223.032 136.245086 
L 223.099636 190.81917 
L 223.302545 314.686431 
L 223.640727 382.004043 
L 223.843636 392.851283 
L 223.978909 394.033839 
L 224.114182 393.006186 
L 224.52 385.861599 
L 225.399273 371.175841 
L 226.954909 348.154399 
L 227.293091 339.4657 
L 227.496 329.213019 
L 227.631273 310.665827 
L 227.698909 266.734625 
L 227.766545 138.733344 
L 227.834182 205.690716 
L 228.037091 318.825021 
L 228.375273 384.747957 
L 228.578182 393.776721 
L 228.645818 394.317561 
L 228.713455 394.194465 
L 228.916364 391.651761 
L 230.269091 369.227114 
L 231.96 347.271661 
L 232.298182 337.687341 
L 232.501091 324.412106 
L 232.568727 314.003319 
L 232.636364 283.788462 
L 232.704 135.275309 
L 232.771636 189.446506 
L 232.974545 316.019807 
L 233.312727 383.871768 
L 233.515636 393.583802 
L 233.650909 394.287265 
L 233.786182 392.985614 
L 234.327273 383.035869 
L 235.138909 369.919538 
L 236.626909 347.831709 
L 236.965091 338.205988 
L 237.168 325.258544 
L 237.235636 315.345101 
L 237.303273 288.330126 
L 237.370909 135.536676 
L 237.438545 182.831353 
L 237.641455 315.464565 
L 237.979636 384.671115 
L 238.182545 394.076122 
L 238.250182 394.69702 
L 238.317818 394.631329 
L 238.520727 392.127989 
L 239.805818 370.171008 
L 241.361455 347.95549 
L 241.699636 338.028216 
L 241.902545 324.103693 
L 241.970182 312.742857 
L 242.037818 274.841558 
L 242.105455 134.137254 
L 242.173091 197.250763 
L 242.376 318.539618 
L 242.714182 384.937314 
L 242.917091 393.999711 
L 242.984727 394.588534 
L 243.052364 394.514189 
L 243.255273 392.079474 
L 244.810909 366.519005 
L 245.960727 349.784839 
L 246.298909 342.163522 
L 246.501818 333.949255 
L 246.637091 322.782937 
L 246.704727 310.459536 
L 246.772364 263.792762 
L 246.84 138.810493 
L 246.907636 207.598645 
L 247.110545 322.57205 
L 247.448727 387.628407 
L 247.651636 394.781993 
L 247.719273 394.957012 
L 247.854545 393.779441 
L 248.328 384.945494 
L 249.072 372.542701 
L 250.762909 347.263075 
L 251.033455 339.480317 
L 251.236364 327.762474 
L 251.371636 301.9291 
L 251.506909 158.159741 
L 251.709818 308.717452 
L 252.048 380.201993 
L 252.250909 391.975492 
L 252.386182 393.722568 
L 252.453818 393.647804 
L 252.656727 391.422983 
L 254.685818 359.798043 
L 255.700364 344.830248 
L 255.970909 337.024403 
L 256.173818 323.862988 
L 256.241455 313.369943 
L 256.309091 282.582189 
L 256.376727 136.957517 
L 256.444364 191.587439 
L 256.647273 314.856459 
L 256.985455 383.086319 
L 257.188364 393.329583 
L 257.323636 394.101473 
L 257.458909 392.8008 
L 258 382.817841 
L 258.811636 369.83749 
L 260.232 348.60116 
L 260.570182 339.006969 
L 260.773091 326.286582 
L 260.908364 292.363778 
L 260.976 136.65772 
L 261.043636 175.754055 
L 261.246545 313.122293 
L 261.584727 382.033603 
L 261.787636 392.887074 
L 261.922909 394.161155 
L 262.058182 393.253899 
L 262.396364 387.580997 
L 263.275636 372.734736 
L 265.101818 345.840817 
L 265.372364 337.009063 
L 265.575273 321.600035 
L 265.642909 307.388162 
L 265.778182 145.558371 
L 266.048727 322.855567 
L 266.386909 384.86641 
L 266.589818 393.44058 
L 266.657455 394.054653 
L 266.725091 394.027527 
L 266.860364 392.749875 
L 267.333818 384.244116 
L 268.145455 370.989288 
L 269.565818 349.805127 
L 269.904 340.735066 
L 270.106909 330.14134 
L 270.242182 311.563784 
L 270.309818 268.037792 
L 270.377455 136.054074 
L 270.445091 203.125679 
L 270.648 321.697849 
L 270.986182 387.22462 
L 271.189091 394.958929 
L 271.256727 395.253137 
L 271.392 394.168021 
L 271.797818 386.543039 
L 272.541818 373.760672 
L 274.368 346.706223 
L 274.638545 338.078644 
L 274.841455 323.87727 
L 274.909091 312.040856 
L 274.976727 269.626908 
L 275.044364 135.021782 
L 275.112 201.208358 
L 275.314909 320.271226 
L 275.653091 385.27164 
L 275.856 393.912288 
L 275.923636 394.48116 
L 275.991273 394.406323 
L 276.194182 391.98907 
L 277.749818 366.61082 
L 278.832 351.706407 
L 279.237818 342.412994 
L 279.440727 333.863499 
L 279.576 322.267541 
L 279.643636 308.887016 
L 279.778909 141.954741 
L 279.846545 214.601869 
L 280.049455 322.752058 
L 280.387636 386.409898 
L 280.590545 394.454644 
L 280.658182 394.84287 
L 280.725818 394.603072 
L 280.928727 391.814112 
L 282.146182 370.876918 
L 283.566545 350.290044 
L 284.04 338.726047 
L 284.242909 329.577186 
L 284.378182 314.992211 
L 284.445818 292.389813 
L 284.513455 153.458849 
L 284.581091 179.093987 
L 284.784 309.512072 
L 285.122182 379.546884 
L 285.325091 392.034824 
L 285.460364 393.579981 
L 285.595636 392.665535 
L 286.001455 385.48438 
L 286.813091 371.81798 
L 288.571636 345.194558 
L 288.842182 337.978949 
L 289.045091 326.821484 
L 289.180364 302.776533 
L 289.315636 157.062919 
L 289.518545 305.699953 
L 289.856727 378.546945 
L 290.059636 391.500012 
L 290.194909 393.315639 
L 290.262545 393.209997 
L 290.465455 390.879499 
L 292.156364 364.348407 
L 293.238545 349.600154 
L 293.576727 341.9532 
L 293.779636 333.728231 
L 293.914909 322.497354 
L 293.982545 309.822053 
L 294.117818 140.11811 
L 294.185455 210.238922 
L 294.388364 321.463732 
L 294.726545 385.865044 
L 294.929455 394.002994 
L 294.997091 394.43755 
L 295.064727 394.24922 
L 295.267636 391.623779 
L 296.688 367.974779 
L 297.905455 350.514468 
L 298.243636 342.012224 
L 298.446545 332.591001 
L 298.581818 318.291832 
L 298.649455 297.170751 
L 298.717091 146.874847 
L 298.784727 167.409439 
L 298.987636 312.379607 
L 299.325818 384.096029 
L 299.528727 394.098223 
L 299.596364 394.775449 
L 299.664 394.751926 
L 299.799273 393.411538 
L 300.340364 383.261646 
L 301.084364 371.523797 
L 302.572364 350.192359 
L 302.910545 341.1301 
L 303.113455 330.4635 
L 303.248727 311.851989 
L 303.316364 267.429799 
L 303.384 135.087403 
L 303.451636 202.306476 
L 303.654545 321.458638 
L 303.992727 386.344953 
L 304.195636 394.51941 
L 304.263273 394.915267 
L 304.330909 394.674699 
L 304.533818 391.898734 
L 305.751273 371.138196 
L 307.374545 348.327815 
L 307.712727 339.034757 
L 307.915636 326.727971 
L 308.050909 296.752221 
L 308.118545 149.022966 
L 308.186182 168.676053 
L 308.389091 311.483493 
L 308.727273 382.630986 
L 308.930182 393.77187 
L 309.065455 394.843474 
L 309.200727 393.651359 
L 309.674182 384.837334 
L 310.485818 371.387035 
L 312.582545 340.516504 
L 312.785455 332.433202 
L 312.920727 320.845199 
L 312.988364 307.109348 
L 313.123636 146.818717 
L 313.191273 219.843135 
L 313.394182 320.463763 
L 313.732364 384.385092 
L 313.935273 393.222798 
L 314.002909 393.801638 
L 314.070545 393.729155 
L 314.273455 391.326094 
L 315.896727 365.095068 
L 316.911273 350.524045 
L 317.249455 342.190299 
L 317.452364 333.152109 
L 317.587636 320.059721 
L 317.655273 302.77727 
L 317.790545 156.029276 
L 317.993455 308.006557 
L 318.331636 380.419036 
L 318.534545 392.769034 
L 318.669818 394.395833 
L 318.737455 394.195256 
L 318.940364 391.564833 
L 320.225455 370.138498 
L 321.645818 350.940582 
L 321.984 343.111403 
L 322.254545 330.86298 
L 322.389818 313.753824 
L 322.457455 279.448788 
L 322.525091 132.675869 
L 322.592727 192.461351 
L 322.795636 317.498006 
L 323.133818 383.67873 
L 323.336727 393.291606 
L 323.472 394.175179 
L 323.607273 393.047322 
L 324.013091 385.897516 
L 324.892364 371.36829 
L 326.583273 347.341624 
L 326.853818 339.65411 
L 327.056727 328.303084 
L 327.192 305.283762 
L 327.327273 150.581764 
L 327.530182 306.854033 
L 327.868364 381.615921 
L 328.071273 393.253498 
L 328.206545 394.503248 
L 328.341818 393.477151 
L 328.747636 386.254304 
L 329.559273 372.542453 
L 331.114909 348.496944 
L 331.453091 337.970771 
L 331.656 322.338917 
L 331.723636 307.839387 
L 331.858909 143.957099 
L 332.129455 324.766981 
L 332.467636 387.034895 
L 332.670545 394.827617 
L 332.738182 395.171069 
L 332.873455 394.213659 
L 333.279273 386.833427 
L 334.090909 373.031438 
L 335.917091 346.335764 
L 336.187636 337.034781 
L 336.390545 319.785306 
L 336.458182 301.526907 
L 336.593455 158.560347 
L 336.796364 309.463872 
L 337.134545 381.178241 
L 337.337455 392.871771 
L 337.472727 394.39342 
L 337.540364 394.18746 
L 337.743273 391.614517 
L 339.163636 368.466081 
L 340.584 349.894466 
L 340.922182 342.516068 
L 341.192727 330.816106 
L 341.328 314.940955 
L 341.395636 287.150852 
L 341.463273 135.582904 
L 341.530909 184.638593 
L 341.733818 314.370835 
L 342.072 382.182198 
L 342.274909 392.596544 
L 342.410182 393.746777 
L 342.545455 392.812967 
L 342.883636 387.182856 
L 343.830545 371.201383 
L 345.521455 345.471505 
L 345.792 336.582195 
L 345.994909 320.12841 
L 346.062545 303.775811 
L 346.197818 154.201855 
L 346.400727 307.726471 
L 346.738909 381.796817 
L 346.941818 393.486766 
L 347.077091 394.627644 
L 347.212364 393.495236 
L 347.685818 384.885006 
L 348.497455 371.472616 
L 350.188364 346.46231 
L 350.458909 338.057712 
L 350.661818 323.97867 
L 350.729455 312.289863 
L 350.797091 271.254925 
L 350.864727 134.598239 
L 350.932364 199.721218 
L 351.135273 318.701782 
L 351.473455 383.226507 
L 351.676364 392.868604 
L 351.811636 393.906617 
L 351.946909 392.891883 
L 352.352727 385.717499 
L 353.164364 372.338198 
L 354.922909 346.341447 
L 355.261091 335.936158 
L 355.464 319.944549 
L 355.531636 304.19514 
L 355.666909 153.502272 
L 355.869818 305.642865 
L 356.208 378.614876 
L 356.410909 391.564608 
L 356.546182 393.438865 
L 356.613818 393.35968 
L 356.816727 391.091943 
L 358.507636 364.88852 
L 359.319273 354.040555 
L 359.792727 344.38673 
L 360.063273 333.874449 
L 360.198545 322.083352 
L 360.266182 308.260841 
L 360.401455 143.384588 
L 360.672 324.756509 
L 360.942545 381.822774 
L 361.145455 393.690509 
L 361.280727 394.8089 
L 361.416 393.655371 
L 361.889455 384.968236 
L 362.701091 371.605432 
L 364.594909 344.000114 
L 364.865455 334.381115 
L 365.000727 324.373421 
L 365.068364 314.144963 
L 365.136 285.413403 
L 365.203636 136.86389 
L 365.271273 188.071465 
L 365.474182 316.261834 
L 365.812364 385.517632 
L 366.015273 394.555749 
L 366.082909 394.972452 
L 366.150545 394.700716 
L 366.353455 391.740152 
L 367.435636 372.708684 
L 369.194182 348.329671 
L 369.464727 340.466462 
L 369.667636 329.075581 
L 369.802909 306.616591 
L 369.938182 147.025578 
L 370.141091 306.224904 
L 370.479273 381.469821 
L 370.682182 392.997056 
L 370.817455 394.344246 
L 370.952727 393.482362 
L 371.290909 387.843009 
L 372.170182 372.887699 
L 373.928727 347.078128 
L 374.199273 338.311821 
L 374.402182 324.083105 
L 374.469818 312.394335 
L 374.537455 271.197599 
L 374.605091 134.172025 
L 374.672727 199.472978 
L 374.875636 319.602101 
L 375.213818 384.1627 
L 375.416727 393.035842 
L 375.552 393.863666 
L 375.687273 392.797732 
L 376.093091 385.836813 
L 376.972364 371.500519 
L 378.054545 358.445336 
L 378.595636 350.423337 
L 378.933818 342.280629 
L 379.136727 333.48892 
L 379.272 321.073154 
L 379.339636 305.640163 
L 379.474909 149.535782 
L 379.677818 306.066651 
L 380.016 379.428558 
L 380.218909 391.912362 
L 380.354182 393.782571 
L 380.421818 393.739146 
L 380.557091 392.526476 
L 380.962909 385.498075 
L 381.842182 370.973626 
L 383.600727 344.728225 
L 383.871273 337.443764 
L 384.074182 326.181792 
L 384.209455 301.765795 
L 384.344727 159.71657 
L 384.547636 305.637698 
L 384.953455 385.143183 
L 385.156364 393.2482 
L 385.224 393.671302 
L 385.291636 393.469473 
L 385.494545 390.810266 
L 386.847273 368.317833 
L 388.132364 350.375033 
L 388.538182 340.713232 
L 388.741091 331.320134 
L 388.876364 316.350111 
L 388.944 292.605361 
L 389.011636 141.317278 
L 389.079273 176.592311 
L 389.282182 313.35854 
L 389.620364 383.206707 
L 389.823273 393.494165 
L 389.958545 394.429109 
L 390.093818 393.261223 
L 390.499636 385.90054 
L 391.311273 372.203925 
L 392.866909 349.05257 
L 393.205091 338.863263 
L 393.408 325.188058 
L 393.475636 314.498754 
L 393.543273 282.045509 
L 393.610909 131.422962 
L 393.678545 189.224808 
L 393.881455 317.886789 
L 394.219636 384.224456 
L 394.422545 393.534666 
L 394.557818 394.299117 
L 394.693091 393.08019 
L 395.166545 384.525503 
L 395.910545 372.49186 
L 397.736727 345.965128 
L 398.007273 336.460277 
L 398.210182 318.640779 
L 398.277818 298.592641 
L 398.345455 154.03611 
L 398.413091 164.856828 
L 398.616 310.932608 
L 398.954182 381.698884 
L 399.157091 392.968103 
L 399.292364 394.337435 
L 399.427636 393.441123 
L 399.765818 387.644593 
L 400.645091 372.693657 
L 402.200727 349.510741 
L 402.538909 340.825339 
L 402.741818 331.128375 
L 402.877091 315.309551 
L 402.944727 287.804712 
L 403.012364 134.703325 
L 403.08 183.387531 
L 403.282909 314.982344 
L 403.621091 383.444344 
L 403.824 393.227801 
L 403.959273 394.077501 
L 404.094545 392.940034 
L 404.500364 385.828141 
L 405.312 372.350307 
L 406.935273 348.31338 
L 407.273455 338.982403 
L 407.476364 327.386716 
L 407.611636 302.069914 
L 407.746909 158.185186 
L 407.949818 308.161718 
L 408.288 380.846589 
L 408.490909 392.604625 
L 408.626182 393.957115 
L 408.761455 393.059951 
L 409.099636 387.399964 
L 409.978909 372.605772 
L 411.872727 345.233808 
L 412.143273 335.716924 
L 412.278545 326.0143 
L 412.413818 291.50576 
L 412.481455 136.497196 
L 412.549091 177.450062 
L 412.752 313.705028 
L 413.090182 382.284145 
L 413.293091 392.746168 
L 413.428364 393.931849 
L 413.563636 393.016222 
L 413.901818 387.443364 
L 414.848727 371.499232 
L 415.930909 357.628099 
L 416.472 349.904212 
L 416.810182 342.005276 
L 417.013091 333.421043 
L 417.148364 321.222153 
L 417.216 306.275769 
L 417.351273 148.137581 
L 417.554182 304.984849 
L 417.892364 378.985453 
L 418.095273 392.579876 
L 418.230545 394.603864 
L 418.298182 394.5018 
L 418.501091 391.979524 
L 419.921455 368.222507 
L 421.206545 351.093881 
L 421.612364 343.211709 
L 421.882909 333.386692 
L 422.018182 322.745744 
L 422.085818 311.444276 
L 422.153455 274.529864 
L 422.221091 138.515979 
L 422.288727 200.866253 
L 422.491636 317.588381 
L 422.829818 384.087963 
L 423.032727 393.35966 
L 423.100364 393.979726 
L 423.168 393.925584 
L 423.370909 391.516882 
L 424.858909 366.935678 
L 425.873455 351.960471 
L 426.279273 342.41509 
L 426.482182 333.697866 
L 426.617455 321.572428 
L 426.685091 307.089351 
L 426.820364 146.16195 
L 427.090909 324.933007 
L 427.361455 380.775634 
L 427.564364 393.132782 
L 427.699636 394.608813 
L 427.834909 393.713723 
L 428.173091 387.812062 
L 428.984727 373.753608 
L 430.472727 354.186699 
L 430.675636 376.336232 
L 431.013818 390.648671 
L 431.487273 400.562018 
L 432.163636 409.587944 
L 433.042909 418.407547 
L 433.786909 423.807058 
L 434.463273 427.206567 
L 435.072 429.272609 
L 435.680727 430.64414 
L 436.289455 431.531631 
L 436.965818 432.1443 
L 437.777455 432.562011 
L 438.792 432.816934 
L 440.347636 432.947391 
L 443.256 432.924537 
L 447.517091 432.67701 
L 451.845818 432.480692 
L 460.435636 432.401498 
L 498.109091 432.389699 
L 498.109091 432.389699 
" clip-path="url(#p1d81b2aa07)" style="fill: none; stroke: #000000; stroke-width: 1.5; stroke-linecap: square"/>
   </g>
   <g id="line2d_14">
    <path d="M 497.973818 408.87 
" clip-path="url(#p1d81b2aa07)" style="fill: none; stroke: #000000; stroke-width: 1.5; stroke-linecap: square"/>
   </g>
   <g id="line2d_15">
    <path d="M 430.472727 368.1 
L 430.472727 365.382 
L 430.472727 362.664 
L 430.472727 359.946 
L 430.472727 357.228 
L 430.472727 354.51 
L 430.472727 351.792 
L 430.472727 349.074 
L 430.472727 346.356 
L 430.472727 343.638 
L 430.472727 340.92 
L 430.472727 338.202 
L 430.472727 335.484 
L 430.472727 332.766 
L 430.472727 330.048 
L 430.472727 327.33 
L 430.472727 324.612 
L 430.472727 321.894 
L 430.472727 319.176 
L 430.472727 316.458 
" clip-path="url(#p1d81b2aa07)" style="fill: none; stroke: #000000; stroke-width: 1.5; stroke-linecap: square"/>
   </g>
   <g id="patch_3">
    <path d="M 72 504 
L 72 69.12 
" style="fill: none; stroke: #000000; stroke-width: 0.8; stroke-linejoin: miter; stroke-linecap: square"/>
   </g>
   <g id="patch_4">
    <path d="M 518.4 504 
L 518.4 69.12 
" style="fill: none; stroke: #000000; stroke-width: 0.8; stroke-linejoin: miter; stroke-linecap: square"/>
   </g>
   <g id="patch_5">
    <path d="M 72 504 
L 518.4 504 
" style="fill: none; stroke: #000000; stroke-width: 0.8; stroke-linejoin: miter; stroke-linecap: square"/>
   </g>
   <g id="patch_6">
    <path d="M 72 69.12 
L 518.4 69.12 
" style="fill: none; stroke: #000000; stroke-width: 0.8; stroke-linejoin: miter; stroke-linecap: square"/>
   </g>
   <g id="text_15">
    <!-- 500 ms -->
    <g transform="translate(497.973818 406.152)scale(0.22 -0.22)">
     <defs>
      <path id="ArialMT-35" d="M 266 1200 
L 856 1250 
Q 922 819 1161 601 
Q 1400 384 1738 384 
Q 2144 384 2425 690 
Q 2706 997 2706 1503 
Q 2706 1984 2436 2262 
Q 2166 2541 1728 2541 
Q 1456 2541 1237 2417 
Q 1019 2294 894 2097 
L 366 2166 
L 809 4519 
L 3088 4519 
L 3088 3981 
L 1259 3981 
L 1013 2750 
Q 1425 3038 1878 3038 
Q 2478 3038 2890 2622 
Q 3303 2206 3303 1553 
Q 3303 931 2941 478 
Q 2500 -78 1738 -78 
Q 1113 -78 717 272 
Q 322 622 266 1200 
z
" transform="scale(0.015625)"/>
      <path id="ArialMT-30" d="M 266 2259 
Q 266 3072 433 3567 
Q 600 4063 929 4331 
Q 1259 4600 1759 4600 
Q 2128 4600 2406 4451 
Q 2684 4303 2865 4023 
Q 3047 3744 3150 3342 
Q 3253 2941 3253 2259 
Q 3253 1453 3087 958 
Q 2922 463 2592 192 
Q 2263 -78 1759 -78 
Q 1097 -78 719 397 
Q 266 969 266 2259 
z
M 844 2259 
Q 844 1131 1108 757 
Q 1372 384 1759 384 
Q 2147 384 2411 759 
Q 2675 1134 2675 2259 
Q 2675 3391 2411 3762 
Q 2147 4134 1753 4134 
Q 1366 4134 1134 3806 
Q 844 3388 844 2259 
z
" transform="scale(0.015625)"/>
     </defs>
     <use xlink:href="#ArialMT-35"/>
     <use xlink:href="#ArialMT-30" x="55.615234"/>
     <use xlink:href="#ArialMT-30" x="111.230469"/>
     <use xlink:href="#ArialMT-20" x="166.845703"/>
     <use xlink:href="#ArialMT-6d" x="194.628906"/>
     <use xlink:href="#ArialMT-73" x="277.929688"/>
    </g>
   </g>
   <g id="text_16">
    <!-- 20 mV -->
    <g transform="translate(504.737455 321.894)scale(0.22 -0.22)">
     <defs>
      <path id="ArialMT-32" d="M 3222 541 
L 3222 0 
L 194 0 
Q 188 203 259 391 
Q 375 700 629 1000 
Q 884 1300 1366 1694 
Q 2113 2306 2375 2664 
Q 2638 3022 2638 3341 
Q 2638 3675 2398 3904 
Q 2159 4134 1775 4134 
Q 1369 4134 1125 3890 
Q 881 3647 878 3216 
L 300 3275 
Q 359 3922 746 4261 
Q 1134 4600 1788 4600 
Q 2447 4600 2831 4234 
Q 3216 3869 3216 3328 
Q 3216 3053 3103 2787 
Q 2991 2522 2730 2228 
Q 2469 1934 1863 1422 
Q 1356 997 1212 845 
Q 1069 694 975 541 
L 3222 541 
z
" transform="scale(0.015625)"/>
     </defs>
     <use xlink:href="#ArialMT-32"/>
     <use xlink:href="#ArialMT-30" x="55.615234"/>
     <use xlink:href="#ArialMT-20" x="111.230469"/>
     <use xlink:href="#ArialMT-6d" x="139.013672"/>
     <use xlink:href="#ArialMT-56" x="222.314453"/>
    </g>
   </g>
   <g id="text_17">
    <!--  Plotting iSPN, trace number 3062  -->
    <g transform="translate(125.842969 63.12)scale(0.22 -0.22)">
     <defs>
      <path id="ArialMT-50" d="M 494 0 
L 494 4581 
L 2222 4581 
Q 2678 4581 2919 4538 
Q 3256 4481 3484 4323 
Q 3713 4166 3852 3881 
Q 3991 3597 3991 3256 
Q 3991 2672 3619 2267 
Q 3247 1863 2275 1863 
L 1100 1863 
L 1100 0 
L 494 0 
z
M 1100 2403 
L 2284 2403 
Q 2872 2403 3119 2622 
Q 3366 2841 3366 3238 
Q 3366 3525 3220 3729 
Q 3075 3934 2838 4000 
Q 2684 4041 2272 4041 
L 1100 4041 
L 1100 2403 
z
" transform="scale(0.015625)"/>
      <path id="ArialMT-67" d="M 319 -275 
L 866 -356 
Q 900 -609 1056 -725 
Q 1266 -881 1628 -881 
Q 2019 -881 2231 -725 
Q 2444 -569 2519 -288 
Q 2563 -116 2559 434 
Q 2191 0 1641 0 
Q 956 0 581 494 
Q 206 988 206 1678 
Q 206 2153 378 2554 
Q 550 2956 876 3175 
Q 1203 3394 1644 3394 
Q 2231 3394 2613 2919 
L 2613 3319 
L 3131 3319 
L 3131 450 
Q 3131 -325 2973 -648 
Q 2816 -972 2473 -1159 
Q 2131 -1347 1631 -1347 
Q 1038 -1347 672 -1080 
Q 306 -813 319 -275 
z
M 784 1719 
Q 784 1066 1043 766 
Q 1303 466 1694 466 
Q 2081 466 2343 764 
Q 2606 1063 2606 1700 
Q 2606 2309 2336 2618 
Q 2066 2928 1684 2928 
Q 1309 2928 1046 2623 
Q 784 2319 784 1719 
z
" transform="scale(0.015625)"/>
      <path id="ArialMT-53" d="M 288 1472 
L 859 1522 
Q 900 1178 1048 958 
Q 1197 738 1509 602 
Q 1822 466 2213 466 
Q 2559 466 2825 569 
Q 3091 672 3220 851 
Q 3350 1031 3350 1244 
Q 3350 1459 3225 1620 
Q 3100 1781 2813 1891 
Q 2628 1963 1997 2114 
Q 1366 2266 1113 2400 
Q 784 2572 623 2826 
Q 463 3081 463 3397 
Q 463 3744 659 4045 
Q 856 4347 1234 4503 
Q 1613 4659 2075 4659 
Q 2584 4659 2973 4495 
Q 3363 4331 3572 4012 
Q 3781 3694 3797 3291 
L 3216 3247 
Q 3169 3681 2898 3903 
Q 2628 4125 2100 4125 
Q 1550 4125 1298 3923 
Q 1047 3722 1047 3438 
Q 1047 3191 1225 3031 
Q 1400 2872 2139 2705 
Q 2878 2538 3153 2413 
Q 3553 2228 3743 1945 
Q 3934 1663 3934 1294 
Q 3934 928 3725 604 
Q 3516 281 3123 101 
Q 2731 -78 2241 -78 
Q 1619 -78 1198 103 
Q 778 284 539 648 
Q 300 1013 288 1472 
z
" transform="scale(0.015625)"/>
      <path id="ArialMT-4e" d="M 488 0 
L 488 4581 
L 1109 4581 
L 3516 984 
L 3516 4581 
L 4097 4581 
L 4097 0 
L 3475 0 
L 1069 3600 
L 1069 0 
L 488 0 
z
" transform="scale(0.015625)"/>
      <path id="ArialMT-2c" d="M 569 0 
L 569 641 
L 1209 641 
L 1209 0 
Q 1209 -353 1084 -570 
Q 959 -788 688 -906 
L 531 -666 
Q 709 -588 793 -436 
Q 878 -284 888 0 
L 569 0 
z
" transform="scale(0.015625)"/>
      <path id="ArialMT-63" d="M 2588 1216 
L 3141 1144 
Q 3050 572 2676 248 
Q 2303 -75 1759 -75 
Q 1078 -75 664 370 
Q 250 816 250 1647 
Q 250 2184 428 2587 
Q 606 2991 970 3192 
Q 1334 3394 1763 3394 
Q 2303 3394 2647 3120 
Q 2991 2847 3088 2344 
L 2541 2259 
Q 2463 2594 2264 2762 
Q 2066 2931 1784 2931 
Q 1359 2931 1093 2626 
Q 828 2322 828 1663 
Q 828 994 1084 691 
Q 1341 388 1753 388 
Q 2084 388 2306 591 
Q 2528 794 2588 1216 
z
" transform="scale(0.015625)"/>
      <path id="ArialMT-75" d="M 2597 0 
L 2597 488 
Q 2209 -75 1544 -75 
Q 1250 -75 995 37 
Q 741 150 617 320 
Q 494 491 444 738 
Q 409 903 409 1263 
L 409 3319 
L 972 3319 
L 972 1478 
Q 972 1038 1006 884 
Q 1059 663 1231 536 
Q 1403 409 1656 409 
Q 1909 409 2131 539 
Q 2353 669 2445 892 
Q 2538 1116 2538 1541 
L 2538 3319 
L 3100 3319 
L 3100 0 
L 2597 0 
z
" transform="scale(0.015625)"/>
      <path id="ArialMT-33" d="M 269 1209 
L 831 1284 
Q 928 806 1161 595 
Q 1394 384 1728 384 
Q 2125 384 2398 659 
Q 2672 934 2672 1341 
Q 2672 1728 2419 1979 
Q 2166 2231 1775 2231 
Q 1616 2231 1378 2169 
L 1441 2663 
Q 1497 2656 1531 2656 
Q 1891 2656 2178 2843 
Q 2466 3031 2466 3422 
Q 2466 3731 2256 3934 
Q 2047 4138 1716 4138 
Q 1388 4138 1169 3931 
Q 950 3725 888 3313 
L 325 3413 
Q 428 3978 793 4289 
Q 1159 4600 1703 4600 
Q 2078 4600 2393 4439 
Q 2709 4278 2876 4000 
Q 3044 3722 3044 3409 
Q 3044 3113 2884 2869 
Q 2725 2625 2413 2481 
Q 2819 2388 3044 2092 
Q 3269 1797 3269 1353 
Q 3269 753 2831 336 
Q 2394 -81 1725 -81 
Q 1122 -81 723 278 
Q 325 638 269 1209 
z
" transform="scale(0.015625)"/>
      <path id="ArialMT-36" d="M 3184 3459 
L 2625 3416 
Q 2550 3747 2413 3897 
Q 2184 4138 1850 4138 
Q 1581 4138 1378 3988 
Q 1113 3794 959 3422 
Q 806 3050 800 2363 
Q 1003 2672 1297 2822 
Q 1591 2972 1913 2972 
Q 2475 2972 2870 2558 
Q 3266 2144 3266 1488 
Q 3266 1056 3080 686 
Q 2894 316 2569 119 
Q 2244 -78 1831 -78 
Q 1128 -78 684 439 
Q 241 956 241 2144 
Q 241 3472 731 4075 
Q 1159 4600 1884 4600 
Q 2425 4600 2770 4297 
Q 3116 3994 3184 3459 
z
M 888 1484 
Q 888 1194 1011 928 
Q 1134 663 1356 523 
Q 1578 384 1822 384 
Q 2178 384 2434 671 
Q 2691 959 2691 1453 
Q 2691 1928 2437 2201 
Q 2184 2475 1800 2475 
Q 1419 2475 1153 2201 
Q 888 1928 888 1484 
z
" transform="scale(0.015625)"/>
     </defs>
     <use xlink:href="#ArialMT-20"/>
     <use xlink:href="#ArialMT-50" x="27.783203"/>
     <use xlink:href="#ArialMT-6c" x="94.482422"/>
     <use xlink:href="#ArialMT-6f" x="116.699219"/>
     <use xlink:href="#ArialMT-74" x="172.314453"/>
     <use xlink:href="#ArialMT-74" x="200.097656"/>
     <use xlink:href="#ArialMT-69" x="227.880859"/>
     <use xlink:href="#ArialMT-6e" x="250.097656"/>
     <use xlink:href="#ArialMT-67" x="305.712891"/>
     <use xlink:href="#ArialMT-20" x="361.328125"/>
     <use xlink:href="#ArialMT-69" x="389.111328"/>
     <use xlink:href="#ArialMT-53" x="411.328125"/>
     <use xlink:href="#ArialMT-50" x="478.027344"/>
     <use xlink:href="#ArialMT-4e" x="544.726562"/>
     <use xlink:href="#ArialMT-2c" x="616.943359"/>
     <use xlink:href="#ArialMT-20" x="644.726562"/>
     <use xlink:href="#ArialMT-74" x="672.509766"/>
     <use xlink:href="#ArialMT-72" x="700.292969"/>
     <use xlink:href="#ArialMT-61" x="733.59375"/>
     <use xlink:href="#ArialMT-63" x="789.208984"/>
     <use xlink:href="#ArialMT-65" x="839.208984"/>
     <use xlink:href="#ArialMT-20" x="894.824219"/>
     <use xlink:href="#ArialMT-6e" x="922.607422"/>
     <use xlink:href="#ArialMT-75" x="978.222656"/>
     <use xlink:href="#ArialMT-6d" x="1033.837891"/>
     <use xlink:href="#ArialMT-62" x="1117.138672"/>
     <use xlink:href="#ArialMT-65" x="1172.753906"/>
     <use xlink:href="#ArialMT-72" x="1228.369141"/>
     <use xlink:href="#ArialMT-20" x="1261.669922"/>
     <use xlink:href="#ArialMT-33" x="1289.453125"/>
     <use xlink:href="#ArialMT-30" x="1345.068359"/>
     <use xlink:href="#ArialMT-36" x="1400.683594"/>
     <use xlink:href="#ArialMT-32" x="1456.298828"/>
     <use xlink:href="#ArialMT-20" x="1511.914062"/>
    </g>
   </g>
  </g>
 </g>
 <defs>
  <clipPath id="p1d81b2aa07">
   <rect x="72" y="69.12" width="446.4" height="434.88"/>
  </clipPath>
 </defs>
</svg>
