<?xml version="1.0" encoding="utf-8" standalone="no"?>
<!DOCTYPE svg PUBLIC "-//W3C//DTD SVG 1.1//EN"
  "http://www.w3.org/Graphics/SVG/1.1/DTD/svg11.dtd">
<svg xmlns:xlink="http://www.w3.org/1999/xlink" width="576pt" height="576pt" viewBox="0 0 576 576" xmlns="http://www.w3.org/2000/svg" version="1.1">
 <metadata>
  <rdf:RDF xmlns:dc="http://purl.org/dc/elements/1.1/" xmlns:cc="http://creativecommons.org/ns#" xmlns:rdf="http://www.w3.org/1999/02/22-rdf-syntax-ns#">
   <cc:Work>
    <dc:type rdf:resource="http://purl.org/dc/dcmitype/StillImage"/>
    <dc:date>2022-10-30T19:57:17.772515</dc:date>
    <dc:format>image/svg+xml</dc:format>
    <dc:creator>
     <cc:Agent>
      <dc:title>Matplotlib v3.5.2, https://matplotlib.org/</dc:title>
     </cc:Agent>
    </dc:creator>
   </cc:Work>
  </rdf:RDF>
 </metadata>
 <defs>
  <style type="text/css">*{stroke-linejoin: round; stroke-linecap: butt}</style>
 </defs>
 <g id="figure_1">
  <g id="patch_1">
   <path d="M 0 576 
L 576 576 
L 576 0 
L 0 0 
L 0 576 
z
" style="fill: none"/>
  </g>
  <g id="axes_1">
   <g id="patch_2">
    <path d="M 72 504 
L 518.4 504 
L 518.4 69.12 
L 72 69.12 
z
" style="fill: #ffffff"/>
   </g>
   <g id="matplotlib.axis_1">
    <g id="xtick_1">
     <g id="line2d_1">
      <defs>
       <path id="mb7fd153482" d="M 0 0 
L 0 3.5 
" style="stroke: #000000; stroke-width: 0.8"/>
      </defs>
      <g>
       <use xlink:href="#mb7fd153482" x="92.290909" y="504" style="stroke: #000000; stroke-width: 0.8"/>
      </g>
     </g>
     <g id="text_1">
      <!-- 0 -->
      <g transform="translate(85.292159 527.716563)scale(0.22 -0.22)">
       <defs>
        <path id="DejaVuSans-30" d="M 2034 4250 
Q 1547 4250 1301 3770 
Q 1056 3291 1056 2328 
Q 1056 1369 1301 889 
Q 1547 409 2034 409 
Q 2525 409 2770 889 
Q 3016 1369 3016 2328 
Q 3016 3291 2770 3770 
Q 2525 4250 2034 4250 
z
M 2034 4750 
Q 2819 4750 3233 4129 
Q 3647 3509 3647 2328 
Q 3647 1150 3233 529 
Q 2819 -91 2034 -91 
Q 1250 -91 836 529 
Q 422 1150 422 2328 
Q 422 3509 836 4129 
Q 1250 4750 2034 4750 
z
" transform="scale(0.015625)"/>
       </defs>
       <use xlink:href="#DejaVuSans-30"/>
      </g>
     </g>
    </g>
    <g id="xtick_2">
     <g id="line2d_2">
      <g>
       <use xlink:href="#mb7fd153482" x="227.563636" y="504" style="stroke: #000000; stroke-width: 0.8"/>
      </g>
     </g>
     <g id="text_2">
      <!-- 1000 -->
      <g transform="translate(199.568636 527.716563)scale(0.22 -0.22)">
       <defs>
        <path id="DejaVuSans-31" d="M 794 531 
L 1825 531 
L 1825 4091 
L 703 3866 
L 703 4441 
L 1819 4666 
L 2450 4666 
L 2450 531 
L 3481 531 
L 3481 0 
L 794 0 
L 794 531 
z
" transform="scale(0.015625)"/>
       </defs>
       <use xlink:href="#DejaVuSans-31"/>
       <use xlink:href="#DejaVuSans-30" x="63.623047"/>
       <use xlink:href="#DejaVuSans-30" x="127.246094"/>
       <use xlink:href="#DejaVuSans-30" x="190.869141"/>
      </g>
     </g>
    </g>
    <g id="xtick_3">
     <g id="line2d_3">
      <g>
       <use xlink:href="#mb7fd153482" x="362.836364" y="504" style="stroke: #000000; stroke-width: 0.8"/>
      </g>
     </g>
     <g id="text_3">
      <!-- 2000 -->
      <g transform="translate(334.841364 527.716563)scale(0.22 -0.22)">
       <defs>
        <path id="DejaVuSans-32" d="M 1228 531 
L 3431 531 
L 3431 0 
L 469 0 
L 469 531 
Q 828 903 1448 1529 
Q 2069 2156 2228 2338 
Q 2531 2678 2651 2914 
Q 2772 3150 2772 3378 
Q 2772 3750 2511 3984 
Q 2250 4219 1831 4219 
Q 1534 4219 1204 4116 
Q 875 4013 500 3803 
L 500 4441 
Q 881 4594 1212 4672 
Q 1544 4750 1819 4750 
Q 2544 4750 2975 4387 
Q 3406 4025 3406 3419 
Q 3406 3131 3298 2873 
Q 3191 2616 2906 2266 
Q 2828 2175 2409 1742 
Q 1991 1309 1228 531 
z
" transform="scale(0.015625)"/>
       </defs>
       <use xlink:href="#DejaVuSans-32"/>
       <use xlink:href="#DejaVuSans-30" x="63.623047"/>
       <use xlink:href="#DejaVuSans-30" x="127.246094"/>
       <use xlink:href="#DejaVuSans-30" x="190.869141"/>
      </g>
     </g>
    </g>
    <g id="xtick_4">
     <g id="line2d_4">
      <g>
       <use xlink:href="#mb7fd153482" x="498.109091" y="504" style="stroke: #000000; stroke-width: 0.8"/>
      </g>
     </g>
     <g id="text_4">
      <!-- 3000 -->
      <g transform="translate(470.114091 527.716563)scale(0.22 -0.22)">
       <defs>
        <path id="DejaVuSans-33" d="M 2597 2516 
Q 3050 2419 3304 2112 
Q 3559 1806 3559 1356 
Q 3559 666 3084 287 
Q 2609 -91 1734 -91 
Q 1441 -91 1130 -33 
Q 819 25 488 141 
L 488 750 
Q 750 597 1062 519 
Q 1375 441 1716 441 
Q 2309 441 2620 675 
Q 2931 909 2931 1356 
Q 2931 1769 2642 2001 
Q 2353 2234 1838 2234 
L 1294 2234 
L 1294 2753 
L 1863 2753 
Q 2328 2753 2575 2939 
Q 2822 3125 2822 3475 
Q 2822 3834 2567 4026 
Q 2313 4219 1838 4219 
Q 1578 4219 1281 4162 
Q 984 4106 628 3988 
L 628 4550 
Q 988 4650 1302 4700 
Q 1616 4750 1894 4750 
Q 2613 4750 3031 4423 
Q 3450 4097 3450 3541 
Q 3450 3153 3228 2886 
Q 3006 2619 2597 2516 
z
" transform="scale(0.015625)"/>
       </defs>
       <use xlink:href="#DejaVuSans-33"/>
       <use xlink:href="#DejaVuSans-30" x="63.623047"/>
       <use xlink:href="#DejaVuSans-30" x="127.246094"/>
       <use xlink:href="#DejaVuSans-30" x="190.869141"/>
      </g>
     </g>
    </g>
    <g id="text_5">
     <!-- Time(ms) -->
     <g transform="translate(249.182187 552.307188)scale(0.22 -0.22)">
      <defs>
       <path id="ArialMT-54" d="M 1659 0 
L 1659 4041 
L 150 4041 
L 150 4581 
L 3781 4581 
L 3781 4041 
L 2266 4041 
L 2266 0 
L 1659 0 
z
" transform="scale(0.015625)"/>
       <path id="ArialMT-69" d="M 425 3934 
L 425 4581 
L 988 4581 
L 988 3934 
L 425 3934 
z
M 425 0 
L 425 3319 
L 988 3319 
L 988 0 
L 425 0 
z
" transform="scale(0.015625)"/>
       <path id="ArialMT-6d" d="M 422 0 
L 422 3319 
L 925 3319 
L 925 2853 
Q 1081 3097 1340 3245 
Q 1600 3394 1931 3394 
Q 2300 3394 2536 3241 
Q 2772 3088 2869 2813 
Q 3263 3394 3894 3394 
Q 4388 3394 4653 3120 
Q 4919 2847 4919 2278 
L 4919 0 
L 4359 0 
L 4359 2091 
Q 4359 2428 4304 2576 
Q 4250 2725 4106 2815 
Q 3963 2906 3769 2906 
Q 3419 2906 3187 2673 
Q 2956 2441 2956 1928 
L 2956 0 
L 2394 0 
L 2394 2156 
Q 2394 2531 2256 2718 
Q 2119 2906 1806 2906 
Q 1569 2906 1367 2781 
Q 1166 2656 1075 2415 
Q 984 2175 984 1722 
L 984 0 
L 422 0 
z
" transform="scale(0.015625)"/>
       <path id="ArialMT-65" d="M 2694 1069 
L 3275 997 
Q 3138 488 2766 206 
Q 2394 -75 1816 -75 
Q 1088 -75 661 373 
Q 234 822 234 1631 
Q 234 2469 665 2931 
Q 1097 3394 1784 3394 
Q 2450 3394 2872 2941 
Q 3294 2488 3294 1666 
Q 3294 1616 3291 1516 
L 816 1516 
Q 847 969 1125 678 
Q 1403 388 1819 388 
Q 2128 388 2347 550 
Q 2566 713 2694 1069 
z
M 847 1978 
L 2700 1978 
Q 2663 2397 2488 2606 
Q 2219 2931 1791 2931 
Q 1403 2931 1139 2672 
Q 875 2413 847 1978 
z
" transform="scale(0.015625)"/>
       <path id="ArialMT-28" d="M 1497 -1347 
Q 1031 -759 709 28 
Q 388 816 388 1659 
Q 388 2403 628 3084 
Q 909 3875 1497 4659 
L 1900 4659 
Q 1522 4009 1400 3731 
Q 1209 3300 1100 2831 
Q 966 2247 966 1656 
Q 966 153 1900 -1347 
L 1497 -1347 
z
" transform="scale(0.015625)"/>
       <path id="ArialMT-73" d="M 197 991 
L 753 1078 
Q 800 744 1014 566 
Q 1228 388 1613 388 
Q 2000 388 2187 545 
Q 2375 703 2375 916 
Q 2375 1106 2209 1216 
Q 2094 1291 1634 1406 
Q 1016 1563 777 1677 
Q 538 1791 414 1992 
Q 291 2194 291 2438 
Q 291 2659 392 2848 
Q 494 3038 669 3163 
Q 800 3259 1026 3326 
Q 1253 3394 1513 3394 
Q 1903 3394 2198 3281 
Q 2494 3169 2634 2976 
Q 2775 2784 2828 2463 
L 2278 2388 
Q 2241 2644 2061 2787 
Q 1881 2931 1553 2931 
Q 1166 2931 1000 2803 
Q 834 2675 834 2503 
Q 834 2394 903 2306 
Q 972 2216 1119 2156 
Q 1203 2125 1616 2013 
Q 2213 1853 2448 1751 
Q 2684 1650 2818 1456 
Q 2953 1263 2953 975 
Q 2953 694 2789 445 
Q 2625 197 2315 61 
Q 2006 -75 1616 -75 
Q 969 -75 630 194 
Q 291 463 197 991 
z
" transform="scale(0.015625)"/>
       <path id="ArialMT-29" d="M 791 -1347 
L 388 -1347 
Q 1322 153 1322 1656 
Q 1322 2244 1188 2822 
Q 1081 3291 891 3722 
Q 769 4003 388 4659 
L 791 4659 
Q 1378 3875 1659 3084 
Q 1900 2403 1900 1659 
Q 1900 816 1576 28 
Q 1253 -759 791 -1347 
z
" transform="scale(0.015625)"/>
      </defs>
      <use xlink:href="#ArialMT-54"/>
      <use xlink:href="#ArialMT-69" x="57.333984"/>
      <use xlink:href="#ArialMT-6d" x="79.550781"/>
      <use xlink:href="#ArialMT-65" x="162.851562"/>
      <use xlink:href="#ArialMT-28" x="218.466797"/>
      <use xlink:href="#ArialMT-6d" x="251.767578"/>
      <use xlink:href="#ArialMT-73" x="335.068359"/>
      <use xlink:href="#ArialMT-29" x="385.068359"/>
     </g>
    </g>
   </g>
   <g id="matplotlib.axis_2">
    <g id="ytick_1">
     <g id="line2d_5">
      <defs>
       <path id="m068c988322" d="M 0 0 
L -3.5 0 
" style="stroke: #000000; stroke-width: 0.8"/>
      </defs>
      <g>
       <use xlink:href="#m068c988322" x="72" y="476.82" style="stroke: #000000; stroke-width: 0.8"/>
      </g>
     </g>
     <g id="text_6">
      <!-- −100 -->
      <g transform="translate(4.572187 485.178281)scale(0.22 -0.22)">
       <defs>
        <path id="DejaVuSans-2212" d="M 678 2272 
L 4684 2272 
L 4684 1741 
L 678 1741 
L 678 2272 
z
" transform="scale(0.015625)"/>
       </defs>
       <use xlink:href="#DejaVuSans-2212"/>
       <use xlink:href="#DejaVuSans-31" x="83.789062"/>
       <use xlink:href="#DejaVuSans-30" x="147.412109"/>
       <use xlink:href="#DejaVuSans-30" x="211.035156"/>
      </g>
     </g>
    </g>
    <g id="ytick_2">
     <g id="line2d_6">
      <g>
       <use xlink:href="#m068c988322" x="72" y="422.46" style="stroke: #000000; stroke-width: 0.8"/>
      </g>
     </g>
     <g id="text_7">
      <!-- −80 -->
      <g transform="translate(18.569688 430.818281)scale(0.22 -0.22)">
       <defs>
        <path id="DejaVuSans-38" d="M 2034 2216 
Q 1584 2216 1326 1975 
Q 1069 1734 1069 1313 
Q 1069 891 1326 650 
Q 1584 409 2034 409 
Q 2484 409 2743 651 
Q 3003 894 3003 1313 
Q 3003 1734 2745 1975 
Q 2488 2216 2034 2216 
z
M 1403 2484 
Q 997 2584 770 2862 
Q 544 3141 544 3541 
Q 544 4100 942 4425 
Q 1341 4750 2034 4750 
Q 2731 4750 3128 4425 
Q 3525 4100 3525 3541 
Q 3525 3141 3298 2862 
Q 3072 2584 2669 2484 
Q 3125 2378 3379 2068 
Q 3634 1759 3634 1313 
Q 3634 634 3220 271 
Q 2806 -91 2034 -91 
Q 1263 -91 848 271 
Q 434 634 434 1313 
Q 434 1759 690 2068 
Q 947 2378 1403 2484 
z
M 1172 3481 
Q 1172 3119 1398 2916 
Q 1625 2713 2034 2713 
Q 2441 2713 2670 2916 
Q 2900 3119 2900 3481 
Q 2900 3844 2670 4047 
Q 2441 4250 2034 4250 
Q 1625 4250 1398 4047 
Q 1172 3844 1172 3481 
z
" transform="scale(0.015625)"/>
       </defs>
       <use xlink:href="#DejaVuSans-2212"/>
       <use xlink:href="#DejaVuSans-38" x="83.789062"/>
       <use xlink:href="#DejaVuSans-30" x="147.412109"/>
      </g>
     </g>
    </g>
    <g id="ytick_3">
     <g id="line2d_7">
      <g>
       <use xlink:href="#m068c988322" x="72" y="368.1" style="stroke: #000000; stroke-width: 0.8"/>
      </g>
     </g>
     <g id="text_8">
      <!-- −60 -->
      <g transform="translate(18.569688 376.458281)scale(0.22 -0.22)">
       <defs>
        <path id="DejaVuSans-36" d="M 2113 2584 
Q 1688 2584 1439 2293 
Q 1191 2003 1191 1497 
Q 1191 994 1439 701 
Q 1688 409 2113 409 
Q 2538 409 2786 701 
Q 3034 994 3034 1497 
Q 3034 2003 2786 2293 
Q 2538 2584 2113 2584 
z
M 3366 4563 
L 3366 3988 
Q 3128 4100 2886 4159 
Q 2644 4219 2406 4219 
Q 1781 4219 1451 3797 
Q 1122 3375 1075 2522 
Q 1259 2794 1537 2939 
Q 1816 3084 2150 3084 
Q 2853 3084 3261 2657 
Q 3669 2231 3669 1497 
Q 3669 778 3244 343 
Q 2819 -91 2113 -91 
Q 1303 -91 875 529 
Q 447 1150 447 2328 
Q 447 3434 972 4092 
Q 1497 4750 2381 4750 
Q 2619 4750 2861 4703 
Q 3103 4656 3366 4563 
z
" transform="scale(0.015625)"/>
       </defs>
       <use xlink:href="#DejaVuSans-2212"/>
       <use xlink:href="#DejaVuSans-36" x="83.789062"/>
       <use xlink:href="#DejaVuSans-30" x="147.412109"/>
      </g>
     </g>
    </g>
    <g id="ytick_4">
     <g id="line2d_8">
      <g>
       <use xlink:href="#m068c988322" x="72" y="313.74" style="stroke: #000000; stroke-width: 0.8"/>
      </g>
     </g>
     <g id="text_9">
      <!-- −40 -->
      <g transform="translate(18.569688 322.098281)scale(0.22 -0.22)">
       <defs>
        <path id="DejaVuSans-34" d="M 2419 4116 
L 825 1625 
L 2419 1625 
L 2419 4116 
z
M 2253 4666 
L 3047 4666 
L 3047 1625 
L 3713 1625 
L 3713 1100 
L 3047 1100 
L 3047 0 
L 2419 0 
L 2419 1100 
L 313 1100 
L 313 1709 
L 2253 4666 
z
" transform="scale(0.015625)"/>
       </defs>
       <use xlink:href="#DejaVuSans-2212"/>
       <use xlink:href="#DejaVuSans-34" x="83.789062"/>
       <use xlink:href="#DejaVuSans-30" x="147.412109"/>
      </g>
     </g>
    </g>
    <g id="ytick_5">
     <g id="line2d_9">
      <g>
       <use xlink:href="#m068c988322" x="72" y="259.38" style="stroke: #000000; stroke-width: 0.8"/>
      </g>
     </g>
     <g id="text_10">
      <!-- −20 -->
      <g transform="translate(18.569688 267.738281)scale(0.22 -0.22)">
       <use xlink:href="#DejaVuSans-2212"/>
       <use xlink:href="#DejaVuSans-32" x="83.789062"/>
       <use xlink:href="#DejaVuSans-30" x="147.412109"/>
      </g>
     </g>
    </g>
    <g id="ytick_6">
     <g id="line2d_10">
      <g>
       <use xlink:href="#m068c988322" x="72" y="205.02" style="stroke: #000000; stroke-width: 0.8"/>
      </g>
     </g>
     <g id="text_11">
      <!-- 0 -->
      <g transform="translate(51.0025 213.378281)scale(0.22 -0.22)">
       <use xlink:href="#DejaVuSans-30"/>
      </g>
     </g>
    </g>
    <g id="ytick_7">
     <g id="line2d_11">
      <g>
       <use xlink:href="#m068c988322" x="72" y="150.66" style="stroke: #000000; stroke-width: 0.8"/>
      </g>
     </g>
     <g id="text_12">
      <!-- 20 -->
      <g transform="translate(37.005 159.018281)scale(0.22 -0.22)">
       <use xlink:href="#DejaVuSans-32"/>
       <use xlink:href="#DejaVuSans-30" x="63.623047"/>
      </g>
     </g>
    </g>
    <g id="ytick_8">
     <g id="line2d_12">
      <g>
       <use xlink:href="#m068c988322" x="72" y="96.3" style="stroke: #000000; stroke-width: 0.8"/>
      </g>
     </g>
     <g id="text_13">
      <!-- 40 -->
      <g transform="translate(37.005 104.658281)scale(0.22 -0.22)">
       <use xlink:href="#DejaVuSans-34"/>
       <use xlink:href="#DejaVuSans-30" x="63.623047"/>
      </g>
     </g>
    </g>
    <g id="text_14">
     <!-- Membrane potential (mV) -->
     <g transform="translate(-4.058125 410.655469)rotate(-90)scale(0.22 -0.22)">
      <defs>
       <path id="ArialMT-4d" d="M 475 0 
L 475 4581 
L 1388 4581 
L 2472 1338 
Q 2622 884 2691 659 
Q 2769 909 2934 1394 
L 4031 4581 
L 4847 4581 
L 4847 0 
L 4263 0 
L 4263 3834 
L 2931 0 
L 2384 0 
L 1059 3900 
L 1059 0 
L 475 0 
z
" transform="scale(0.015625)"/>
       <path id="ArialMT-62" d="M 941 0 
L 419 0 
L 419 4581 
L 981 4581 
L 981 2947 
Q 1338 3394 1891 3394 
Q 2197 3394 2470 3270 
Q 2744 3147 2920 2923 
Q 3097 2700 3197 2384 
Q 3297 2069 3297 1709 
Q 3297 856 2875 390 
Q 2453 -75 1863 -75 
Q 1275 -75 941 416 
L 941 0 
z
M 934 1684 
Q 934 1088 1097 822 
Q 1363 388 1816 388 
Q 2184 388 2453 708 
Q 2722 1028 2722 1663 
Q 2722 2313 2464 2622 
Q 2206 2931 1841 2931 
Q 1472 2931 1203 2611 
Q 934 2291 934 1684 
z
" transform="scale(0.015625)"/>
       <path id="ArialMT-72" d="M 416 0 
L 416 3319 
L 922 3319 
L 922 2816 
Q 1116 3169 1280 3281 
Q 1444 3394 1641 3394 
Q 1925 3394 2219 3213 
L 2025 2691 
Q 1819 2813 1613 2813 
Q 1428 2813 1281 2702 
Q 1134 2591 1072 2394 
Q 978 2094 978 1738 
L 978 0 
L 416 0 
z
" transform="scale(0.015625)"/>
       <path id="ArialMT-61" d="M 2588 409 
Q 2275 144 1986 34 
Q 1697 -75 1366 -75 
Q 819 -75 525 192 
Q 231 459 231 875 
Q 231 1119 342 1320 
Q 453 1522 633 1644 
Q 813 1766 1038 1828 
Q 1203 1872 1538 1913 
Q 2219 1994 2541 2106 
Q 2544 2222 2544 2253 
Q 2544 2597 2384 2738 
Q 2169 2928 1744 2928 
Q 1347 2928 1158 2789 
Q 969 2650 878 2297 
L 328 2372 
Q 403 2725 575 2942 
Q 747 3159 1072 3276 
Q 1397 3394 1825 3394 
Q 2250 3394 2515 3294 
Q 2781 3194 2906 3042 
Q 3031 2891 3081 2659 
Q 3109 2516 3109 2141 
L 3109 1391 
Q 3109 606 3145 398 
Q 3181 191 3288 0 
L 2700 0 
Q 2613 175 2588 409 
z
M 2541 1666 
Q 2234 1541 1622 1453 
Q 1275 1403 1131 1340 
Q 988 1278 909 1158 
Q 831 1038 831 891 
Q 831 666 1001 516 
Q 1172 366 1500 366 
Q 1825 366 2078 508 
Q 2331 650 2450 897 
Q 2541 1088 2541 1459 
L 2541 1666 
z
" transform="scale(0.015625)"/>
       <path id="ArialMT-6e" d="M 422 0 
L 422 3319 
L 928 3319 
L 928 2847 
Q 1294 3394 1984 3394 
Q 2284 3394 2536 3286 
Q 2788 3178 2913 3003 
Q 3038 2828 3088 2588 
Q 3119 2431 3119 2041 
L 3119 0 
L 2556 0 
L 2556 2019 
Q 2556 2363 2490 2533 
Q 2425 2703 2258 2804 
Q 2091 2906 1866 2906 
Q 1506 2906 1245 2678 
Q 984 2450 984 1813 
L 984 0 
L 422 0 
z
" transform="scale(0.015625)"/>
       <path id="ArialMT-20" transform="scale(0.015625)"/>
       <path id="ArialMT-70" d="M 422 -1272 
L 422 3319 
L 934 3319 
L 934 2888 
Q 1116 3141 1344 3267 
Q 1572 3394 1897 3394 
Q 2322 3394 2647 3175 
Q 2972 2956 3137 2557 
Q 3303 2159 3303 1684 
Q 3303 1175 3120 767 
Q 2938 359 2589 142 
Q 2241 -75 1856 -75 
Q 1575 -75 1351 44 
Q 1128 163 984 344 
L 984 -1272 
L 422 -1272 
z
M 931 1641 
Q 931 1000 1190 694 
Q 1450 388 1819 388 
Q 2194 388 2461 705 
Q 2728 1022 2728 1688 
Q 2728 2322 2467 2637 
Q 2206 2953 1844 2953 
Q 1484 2953 1207 2617 
Q 931 2281 931 1641 
z
" transform="scale(0.015625)"/>
       <path id="ArialMT-6f" d="M 213 1659 
Q 213 2581 725 3025 
Q 1153 3394 1769 3394 
Q 2453 3394 2887 2945 
Q 3322 2497 3322 1706 
Q 3322 1066 3130 698 
Q 2938 331 2570 128 
Q 2203 -75 1769 -75 
Q 1072 -75 642 372 
Q 213 819 213 1659 
z
M 791 1659 
Q 791 1022 1069 705 
Q 1347 388 1769 388 
Q 2188 388 2466 706 
Q 2744 1025 2744 1678 
Q 2744 2294 2464 2611 
Q 2184 2928 1769 2928 
Q 1347 2928 1069 2612 
Q 791 2297 791 1659 
z
" transform="scale(0.015625)"/>
       <path id="ArialMT-74" d="M 1650 503 
L 1731 6 
Q 1494 -44 1306 -44 
Q 1000 -44 831 53 
Q 663 150 594 308 
Q 525 466 525 972 
L 525 2881 
L 113 2881 
L 113 3319 
L 525 3319 
L 525 4141 
L 1084 4478 
L 1084 3319 
L 1650 3319 
L 1650 2881 
L 1084 2881 
L 1084 941 
Q 1084 700 1114 631 
Q 1144 563 1211 522 
Q 1278 481 1403 481 
Q 1497 481 1650 503 
z
" transform="scale(0.015625)"/>
       <path id="ArialMT-6c" d="M 409 0 
L 409 4581 
L 972 4581 
L 972 0 
L 409 0 
z
" transform="scale(0.015625)"/>
       <path id="ArialMT-56" d="M 1803 0 
L 28 4581 
L 684 4581 
L 1875 1253 
Q 2019 853 2116 503 
Q 2222 878 2363 1253 
L 3600 4581 
L 4219 4581 
L 2425 0 
L 1803 0 
z
" transform="scale(0.015625)"/>
      </defs>
      <use xlink:href="#ArialMT-4d"/>
      <use xlink:href="#ArialMT-65" x="83.300781"/>
      <use xlink:href="#ArialMT-6d" x="138.916016"/>
      <use xlink:href="#ArialMT-62" x="222.216797"/>
      <use xlink:href="#ArialMT-72" x="277.832031"/>
      <use xlink:href="#ArialMT-61" x="311.132812"/>
      <use xlink:href="#ArialMT-6e" x="366.748047"/>
      <use xlink:href="#ArialMT-65" x="422.363281"/>
      <use xlink:href="#ArialMT-20" x="477.978516"/>
      <use xlink:href="#ArialMT-70" x="505.761719"/>
      <use xlink:href="#ArialMT-6f" x="561.376953"/>
      <use xlink:href="#ArialMT-74" x="616.992188"/>
      <use xlink:href="#ArialMT-65" x="644.775391"/>
      <use xlink:href="#ArialMT-6e" x="700.390625"/>
      <use xlink:href="#ArialMT-74" x="756.005859"/>
      <use xlink:href="#ArialMT-69" x="783.789062"/>
      <use xlink:href="#ArialMT-61" x="806.005859"/>
      <use xlink:href="#ArialMT-6c" x="861.621094"/>
      <use xlink:href="#ArialMT-20" x="883.837891"/>
      <use xlink:href="#ArialMT-28" x="911.621094"/>
      <use xlink:href="#ArialMT-6d" x="944.921875"/>
      <use xlink:href="#ArialMT-56" x="1028.222656"/>
      <use xlink:href="#ArialMT-29" x="1094.921875"/>
     </g>
    </g>
   </g>
   <g id="line2d_13">
    <path d="M 92.290909 452.6298 
L 92.493818 462.797094 
L 92.832 468.668922 
L 93.237818 471.767686 
L 93.643636 473.153554 
L 94.049455 473.810492 
L 94.522909 474.178275 
L 95.199273 474.401186 
L 96.416727 474.518324 
L 100.136727 474.549696 
L 159.927273 474.550095 
L 160.130182 450.041407 
L 160.468364 437.190827 
L 160.941818 428.16648 
L 161.550545 421.074375 
L 162.226909 415.649599 
L 163.038545 410.876866 
L 163.985455 406.681711 
L 165 403.191239 
L 166.149818 400.04133 
L 167.434909 397.193901 
L 168.855273 394.604069 
L 170.478545 392.127517 
L 172.372364 389.665795 
L 174.807273 386.896466 
L 179.338909 381.843326 
L 180.150545 380.569469 
L 180.285818 380.217452 
L 180.556364 378.936278 
L 180.691636 379.028914 
L 181.232727 379.708818 
L 181.570909 379.750996 
L 182.044364 379.547912 
L 182.856 378.900036 
L 183.938182 377.760914 
L 184.749818 376.625503 
L 185.020364 375.894727 
L 185.290909 375.442387 
L 185.967273 375.01947 
L 186.643636 374.185003 
L 187.455273 372.805995 
L 188.266909 370.916967 
L 188.808 369.17462 
L 189.010909 368.046494 
L 189.213818 366.58692 
L 189.349091 366.459119 
L 189.687273 366.528576 
L 190.431273 365.353769 
L 190.634182 365.122968 
L 190.904727 364.471932 
L 191.445818 362.353183 
L 192.054545 359.218901 
L 192.460364 355.745739 
L 192.798545 350.57716 
L 193.001455 344.621123 
L 193.136727 336.493799 
L 193.204364 327.863921 
L 193.272 300.236856 
L 193.339636 169.708959 
L 193.474909 351.389833 
L 193.677818 379.498777 
L 193.745455 379.816938 
L 193.813091 379.609379 
L 194.218909 378.294081 
L 194.557091 377.144806 
L 194.895273 375.903226 
L 196.045091 373.912356 
L 196.383273 372.789265 
L 196.721455 371.017577 
L 196.992 371.179959 
L 197.262545 371.20797 
L 197.600727 371.007365 
L 198.006545 370.511989 
L 198.48 369.560532 
L 199.426909 367.059109 
L 199.968 365.664979 
L 200.712 362.895285 
L 201.117818 360.795906 
L 201.456 358.006727 
L 201.726545 354.304439 
L 201.929455 348.056833 
L 202.132364 334.977618 
L 202.2 324.833707 
L 202.335273 205.92507 
L 202.538182 376.267574 
L 202.673455 385.021278 
L 202.741091 384.880927 
L 203.417455 378.743173 
L 204.093818 375.752766 
L 204.634909 376.003648 
L 204.973091 375.763107 
L 205.514182 375.034765 
L 206.190545 373.751634 
L 207.340364 370.81722 
L 207.746182 369.626914 
L 208.287273 368.153011 
L 208.963636 365.469351 
L 209.775273 361.342906 
L 210.181091 357.666122 
L 210.519273 352.123461 
L 210.722182 344.657222 
L 210.857455 330.827316 
L 210.925091 307.212226 
L 210.992727 151.834726 
L 211.128 351.628991 
L 211.330909 385.275891 
L 211.398545 385.279095 
L 211.804364 381.958354 
L 212.345455 380.29591 
L 216.538909 368.519254 
L 217.08 366.0704 
L 217.485818 363.327948 
L 218.094545 356.664036 
L 218.297455 355.682598 
L 218.500364 353.625278 
L 218.906182 344.406881 
L 219.109091 333.98678 
L 219.176727 324.758568 
L 219.244364 289.391762 
L 219.312 192.48503 
L 219.514909 370.442463 
L 219.650182 380.397519 
L 219.717818 380.555951 
L 220.394182 375.113408 
L 220.867636 373.670433 
L 221.746909 371.054193 
L 222.288 368.833045 
L 222.626182 366.700548 
L 222.829091 363.692009 
L 223.032 361.534119 
L 223.234909 361.115605 
L 223.708364 360.897945 
L 223.978909 360.192856 
L 224.317091 358.533425 
L 224.655273 355.770617 
L 224.993455 350.874167 
L 225.196364 345.235716 
L 225.331636 337.630592 
L 225.399273 329.543263 
L 225.466909 306.511566 
L 225.534545 153.28073 
L 225.669818 349.430882 
L 225.872727 382.973462 
L 225.940364 383.101169 
L 227.360727 368.817915 
L 227.766545 366.629512 
L 228.713455 360.09577 
L 229.119273 355.628666 
L 229.457455 348.960257 
L 229.660364 340.447277 
L 229.795636 324.184714 
L 229.930909 214.714457 
L 230.133818 374.397425 
L 230.269091 381.784711 
L 230.404364 380.532641 
L 231.013091 373.327653 
L 231.689455 366.094013 
L 231.96 363.845246 
L 232.636364 361.804273 
L 233.042182 358.337744 
L 233.380364 353.951156 
L 233.650909 347.953115 
L 233.853818 340.216044 
L 233.989091 328.228649 
L 234.056727 307.82721 
L 234.124364 150.46477 
L 234.259636 346.725393 
L 234.462545 381.18396 
L 234.530182 381.424493 
L 235.747636 368.721557 
L 237.032727 359.253408 
L 237.438545 353.978858 
L 237.709091 347.328228 
L 237.912 335.727633 
L 237.979636 325.838559 
L 238.114909 197.637145 
L 238.317818 372.746311 
L 238.453091 380.688338 
L 238.520727 380.385529 
L 238.994182 375.608078 
L 240.279273 368.157088 
L 240.820364 365.258585 
L 241.226182 362.882542 
L 241.564364 359.382512 
L 242.037818 352.386483 
L 242.308364 344.87445 
L 242.443636 336.871716 
L 242.511273 328.786479 
L 242.578909 305.753102 
L 242.646545 156.127422 
L 242.781818 349.400198 
L 242.984727 380.803702 
L 243.052364 380.566521 
L 243.525818 375.057142 
L 245.081455 363.925168 
L 245.352 360.853217 
L 245.757818 355.56536 
L 246.028364 351.704072 
L 246.298909 344.60148 
L 246.434182 337.403234 
L 246.569455 313.280464 
L 246.637091 138.38375 
L 246.84 365.869792 
L 247.042909 380.546641 
L 247.381091 376.83425 
L 247.854545 373.374958 
L 248.598545 368.73711 
L 249.883636 357.414773 
L 250.289455 349.976239 
L 250.492364 343.534388 
L 250.627636 334.423482 
L 250.695273 323.783071 
L 250.830545 215.572742 
L 251.033455 374.437072 
L 251.168727 382.213321 
L 251.236364 381.903373 
L 251.912727 374.724841 
L 252.859636 367.92856 
L 253.333091 366.415879 
L 253.536 364.99932 
L 254.144727 359.704022 
L 254.482909 356.254067 
L 254.753455 350.920653 
L 255.024 340.704493 
L 255.159273 325.336239 
L 255.294545 201.705899 
L 255.497455 372.901254 
L 255.632727 380.692464 
L 255.768 379.550675 
L 256.241455 374.682735 
L 256.917818 369.036563 
L 258.202909 358.005689 
L 258.541091 352.154718 
L 258.811636 342.094691 
L 258.946909 331.580677 
L 259.014545 317.705422 
L 259.082182 160.527531 
L 259.285091 364.060959 
L 259.488 381.44868 
L 259.758545 378.107751 
L 260.299636 373.22466 
L 261.652364 363.654357 
L 262.058182 360.53146 
L 262.464 355.642338 
L 262.869818 347.262661 
L 263.072727 337.905284 
L 263.208 315.082092 
L 263.275636 138.212482 
L 263.478545 365.207823 
L 263.681455 380.483282 
L 264.019636 376.183429 
L 264.696 369.436331 
L 265.304727 364.426457 
L 265.575273 361.733663 
L 266.251636 358.531768 
L 266.657455 355.109782 
L 266.928 351.065382 
L 267.130909 345.218082 
L 267.266182 337.250477 
L 267.333818 329.146541 
L 267.401455 306.113031 
L 267.469091 154.619534 
L 267.604364 349.13883 
L 267.807273 381.255722 
L 267.874909 381.201886 
L 268.551273 373.515036 
L 270.580364 357.425385 
L 270.918545 352.604679 
L 271.189091 345.116198 
L 271.324364 336.577962 
L 271.392 327.411951 
L 271.459636 295.589129 
L 271.527273 179.721861 
L 271.662545 353.794451 
L 271.865455 381.267653 
L 271.933091 380.916867 
L 272.406545 374.639276 
L 273.826909 365.765115 
L 274.368 361.447966 
L 274.841455 354.698645 
L 275.112 348.482651 
L 275.314909 339.402246 
L 275.450182 320.441651 
L 275.517818 191.54415 
L 275.585455 251.268406 
L 275.788364 376.015845 
L 275.923636 381.62454 
L 276.126545 379.290338 
L 276.6 374.255538 
L 278.155636 361.46072 
L 278.629091 357.850099 
L 278.899636 353.489064 
L 279.237818 340.77417 
L 279.373091 327.672542 
L 279.440727 302.941376 
L 279.508364 164.42146 
L 279.643636 350.888955 
L 279.846545 381.510069 
L 279.914182 381.375723 
L 280.658182 373.267448 
L 281.469818 367.161434 
L 282.687273 356.51834 
L 282.957818 352.156489 
L 283.228364 343.652429 
L 283.363636 333.76608 
L 283.431273 321.524274 
L 283.498909 214.107366 
L 283.566545 241.583429 
L 283.769455 375.096025 
L 283.904727 380.836276 
L 284.107636 378.372935 
L 284.648727 372.140513 
L 285.528 363.879037 
L 285.866182 360.113023 
L 286.407273 357.780219 
L 286.745455 354.933984 
L 287.016 350.785162 
L 287.286545 342.599951 
L 287.421818 332.604072 
L 287.489455 319.655668 
L 287.557091 185.676095 
L 287.624727 254.547644 
L 287.827636 375.380368 
L 287.962909 381.023397 
L 288.165818 378.534125 
L 288.706909 372.505156 
L 290.465455 354.845461 
L 290.736 350.052523 
L 290.938909 343.223841 
L 291.074182 332.920561 
L 291.141818 319.380491 
L 291.209455 166.629222 
L 291.277091 260.865762 
L 291.48 375.724778 
L 291.615273 380.308837 
L 292.156364 374.24978 
L 294.523636 358.034491 
L 294.861818 354.210211 
L 295.132364 348.319363 
L 295.335273 339.401303 
L 295.470545 320.958197 
L 295.538182 206.016966 
L 295.605818 245.330226 
L 295.808727 375.105933 
L 295.944 380.848599 
L 296.079273 379.403512 
L 296.620364 372.928796 
L 297.296727 367.286101 
L 298.243636 360.025241 
L 298.649455 354.302665 
L 298.92 347.957677 
L 299.122909 337.451688 
L 299.190545 329.387629 
L 299.258182 306.884796 
L 299.325818 153.056429 
L 299.461091 349.191788 
L 299.664 380.394007 
L 299.731636 380.317394 
L 300.543273 372.095587 
L 301.354909 367.652838 
L 301.896 364.464165 
L 302.775273 356.105155 
L 303.113455 349.080313 
L 303.316364 340.44186 
L 303.451636 324.009067 
L 303.586909 217.07841 
L 303.789818 373.703487 
L 303.925091 380.298169 
L 304.060364 378.865072 
L 304.533818 373.302492 
L 305.345455 366.558288 
L 305.818909 363.258515 
L 306.292364 357.900244 
L 306.562909 353.185859 
L 306.833455 343.294822 
L 306.968727 334.479334 
L 307.036364 325.154583 
L 307.104 290.10077 
L 307.171636 192.864471 
L 307.374545 372.477508 
L 307.509818 381.14996 
L 307.577455 380.800889 
L 308.186182 373.150117 
L 308.930182 368.236087 
L 309.944727 361.611766 
L 310.282909 358.325863 
L 310.688727 351.77555 
L 310.891636 345.752098 
L 311.026909 337.966595 
L 311.094545 330.240906 
L 311.162182 309.75113 
L 311.229818 144.968696 
L 311.365091 347.437241 
L 311.568 380.802607 
L 311.635636 380.807563 
L 312.650182 369.769148 
L 313.258909 364.383029 
L 313.664727 359.935586 
L 314.205818 356.013384 
L 314.476364 351.496579 
L 314.746909 343.320513 
L 314.882182 333.888219 
L 314.949818 322.434072 
L 315.085091 229.912915 
L 315.288 374.256335 
L 315.423273 380.861459 
L 315.558545 379.537711 
L 316.032 373.811221 
L 317.181818 364.882131 
L 317.655273 360.543376 
L 317.993455 355.563621 
L 318.331636 346.787404 
L 318.534545 333.852377 
L 318.602182 321.639006 
L 318.669818 215.808813 
L 318.737455 241.53497 
L 318.940364 375.393879 
L 319.075636 380.688854 
L 319.684364 373.17442 
L 321.172364 362.788417 
L 321.916364 354.612076 
L 322.186909 349.198773 
L 322.389818 341.16901 
L 322.525091 326.944442 
L 322.592727 294.629923 
L 322.660364 182.001599 
L 322.795636 353.523737 
L 322.998545 380.694882 
L 323.066182 380.49431 
L 323.877818 371.57618 
L 325.162909 360.777605 
L 325.501091 356.172837 
L 325.839273 349.386477 
L 326.042182 341.513019 
L 326.177455 328.201228 
L 326.245091 302.671679 
L 326.312727 164.515688 
L 326.448 351.056554 
L 326.650909 380.873561 
L 326.786182 378.906969 
L 327.124364 374.055643 
L 327.597818 371.300018 
L 328.071273 368.328581 
L 329.356364 356.93865 
L 329.694545 350.750489 
L 329.897455 343.770348 
L 330.032727 333.716328 
L 330.100364 321.104834 
L 330.168 199.047353 
L 330.235636 246.794771 
L 330.438545 375.563123 
L 330.573818 380.976895 
L 330.776727 378.34975 
L 331.317818 371.973833 
L 333.076364 354.189038 
L 333.346909 348.429594 
L 333.549818 339.786948 
L 333.685091 322.516111 
L 333.820364 230.22091 
L 334.023273 374.366135 
L 334.158545 380.949471 
L 334.293818 379.752081 
L 334.834909 374.127899 
L 335.578909 368.493238 
L 336.255273 363.616508 
L 336.728727 358.776133 
L 337.066909 353.499466 
L 337.337455 346.031583 
L 337.540364 331.946846 
L 337.608 316.464822 
L 337.675636 138.284583 
L 337.878545 365.341359 
L 338.013818 380.266381 
L 338.081455 380.559367 
L 340.042909 358.934632 
L 340.448727 355.276816 
L 340.786909 350.568599 
L 340.989818 345.372732 
L 341.192727 332.495001 
L 341.260364 319.245108 
L 341.328 175.933865 
L 341.395636 258.512692 
L 341.598545 375.455197 
L 341.733818 380.862684 
L 341.936727 378.402858 
L 342.477818 372.440782 
L 343.965818 358.879848 
L 344.304 353.219086 
L 344.574545 344.614519 
L 344.709818 334.286344 
L 344.777455 321.666978 
L 344.845091 200.399805 
L 344.912727 244.74059 
L 345.115636 376.585996 
L 345.250909 381.813942 
L 345.453818 378.78817 
L 345.792 373.592995 
L 346.197818 371.353986 
L 346.874182 367.765564 
L 347.482909 363.312779 
L 348.091636 357.225466 
L 348.429818 351.552589 
L 348.700364 343.425247 
L 348.835636 334.485498 
L 348.903273 324.241457 
L 349.038545 208.925446 
L 349.241455 373.066207 
L 349.376727 380.726767 
L 349.512 379.388013 
L 350.053091 372.604833 
L 351.541091 357.519244 
L 351.879273 351.21771 
L 352.082182 343.966194 
L 352.217455 332.64431 
L 352.285091 317.756748 
L 352.352727 141.393851 
L 352.555636 366.208726 
L 352.690909 382.096671 
L 352.758545 382.429307 
L 353.840727 371.626205 
L 354.855273 363.592408 
L 355.734545 353.263624 
L 356.005091 346.86324 
L 356.208 335.764313 
L 356.275636 326.553535 
L 356.343273 293.485066 
L 356.410909 184.439231 
L 356.613818 371.843119 
L 356.749091 380.829218 
L 356.816727 380.503048 
L 357.696 369.425332 
L 358.304727 361.556394 
L 358.642909 357.942716 
L 359.048727 353.762167 
L 359.319273 348.694379 
L 359.522182 340.851803 
L 359.657455 326.705737 
L 359.725091 294.476177 
L 359.792727 182.219502 
L 359.995636 371.285239 
L 360.130909 380.704807 
L 360.198545 380.585375 
L 361.280727 369.428456 
L 362.430545 360.725978 
L 362.836364 355.532154 
L 363.174545 347.895696 
L 363.377455 338.11424 
L 363.512727 314.474219 
L 363.580364 136.787239 
L 363.783273 366.492007 
L 363.918545 380.674599 
L 363.986182 380.827302 
L 364.459636 373.530847 
L 364.797818 368.912403 
L 365.203636 366.623323 
L 365.88 362.287187 
L 366.353455 357.525723 
L 366.691636 351.881864 
L 366.962182 343.233962 
L 367.097455 333.635952 
L 367.165091 322.055347 
L 367.300364 233.192629 
L 367.503273 374.620131 
L 367.638545 380.956975 
L 367.773818 379.406138 
L 368.247273 372.773285 
L 368.856 368.210919 
L 369.6 361.784757 
L 370.073455 355.440501 
L 370.344 349.366276 
L 370.546909 340.357227 
L 370.682182 322.364222 
L 370.749818 225.465442 
L 370.817455 236.332619 
L 371.020364 375.893873 
L 371.155636 381.530811 
L 371.358545 378.062467 
L 371.696727 372.472295 
L 371.967273 371.017593 
L 372.440727 368.978615 
L 373.184727 364.046819 
L 373.725818 358.732001 
L 374.064 353.51774 
L 374.334545 346.014194 
L 374.469818 338.492481 
L 374.605091 314.266852 
L 374.672727 135.717002 
L 374.875636 366.908584 
L 375.010909 380.79267 
L 375.078545 380.939941 
L 376.025455 370.294818 
L 376.837091 363.444807 
L 377.107636 360.067056 
L 377.648727 351.538112 
L 377.919273 344.911068 
L 378.054545 337.700586 
L 378.189818 313.837593 
L 378.257455 137.574098 
L 378.460364 365.69441 
L 378.595636 379.871596 
L 378.663273 380.221185 
L 380.354182 364.840228 
L 380.895273 359.221876 
L 381.301091 352.294283 
L 381.571636 343.203919 
L 381.706909 332.368417 
L 381.774545 317.843216 
L 381.842182 146.885719 
L 382.045091 364.934172 
L 382.180364 381.076397 
L 382.248 381.493208 
L 382.586182 376.508445 
L 383.262545 368.463501 
L 384.006545 364.164104 
L 384.48 359.96245 
L 384.885818 354.41269 
L 385.156364 347.546055 
L 385.359273 335.522297 
L 385.426909 325.317152 
L 385.562182 204.035636 
L 385.765091 373.544836 
L 385.900364 381.01368 
L 386.035636 379.701817 
L 386.509091 374.1453 
L 388.267636 357.686723 
L 388.741091 348.068593 
L 388.944 338.990642 
L 389.079273 318.939033 
L 389.146909 162.705786 
L 389.349818 363.347565 
L 389.552727 380.932539 
L 389.755636 377.438279 
L 390.026182 373.416803 
L 390.499636 370.360477 
L 391.243636 365.517501 
L 391.717091 361.077011 
L 392.325818 352.320333 
L 392.596364 344.654053 
L 392.731636 336.262766 
L 392.799273 327.325992 
L 392.866909 297.25068 
L 392.934545 176.915782 
L 393.069818 352.733965 
L 393.272727 380.409352 
L 393.340364 380.175552 
L 394.219636 370.055969 
L 394.896 364.440484 
L 395.775273 353.971381 
L 396.045818 346.757887 
L 396.248727 331.222128 
L 396.316364 313.272723 
L 396.384 136.606836 
L 396.586909 368.720164 
L 396.722182 382.285177 
L 396.789818 382.368001 
L 397.736727 371.962744 
L 398.683636 363.444195 
L 399.224727 357.559344 
L 399.562909 351.817274 
L 399.833455 343.451445 
L 399.968727 333.722467 
L 400.036364 321.83401 
L 400.104 228.683942 
L 400.171636 237.029851 
L 400.374545 374.776482 
L 400.509818 380.836505 
L 400.645091 379.347005 
L 401.186182 372.619407 
L 402.538909 360.720824 
L 402.877091 358.302422 
L 403.215273 353.946401 
L 403.485818 347.820205 
L 403.688727 337.799166 
L 403.824 310.81001 
L 403.891636 142.086208 
L 404.094545 367.825482 
L 404.229818 380.422218 
L 404.297455 380.527445 
L 405.650182 365.929663 
L 406.258909 361.076645 
L 406.664727 356.278462 
L 407.002909 349.456073 
L 407.205818 341.403117 
L 407.341091 328.401439 
L 407.408727 304.457442 
L 407.476364 159.889671 
L 407.611636 350.019675 
L 407.814545 381.017357 
L 407.882182 380.904107 
L 409.032 366.871275 
L 409.640727 361.59219 
L 409.978909 359.367107 
L 410.317091 355.58744 
L 410.655273 348.812053 
L 410.858182 339.994252 
L 410.993455 322.178738 
L 411.061091 228.950296 
L 411.128727 235.475214 
L 411.331636 375.040284 
L 411.466909 380.941029 
L 411.669818 378.234712 
L 412.210909 371.672716 
L 412.752 367.442907 
L 413.225455 362.925958 
L 413.901818 355.093803 
L 414.172364 349.377106 
L 414.375273 341.226549 
L 414.510545 326.875993 
L 414.578182 293.794252 
L 414.645818 183.731825 
L 414.848727 371.788297 
L 414.984 380.680703 
L 415.051636 380.405096 
L 416.133818 367.336583 
L 416.539636 365.62605 
L 417.080727 362.141864 
L 417.486545 358.250153 
L 417.824727 353.011477 
L 418.095273 345.229242 
L 418.230545 336.820931 
L 418.298182 327.991264 
L 418.365818 299.38914 
L 418.433455 172.077645 
L 418.568727 352.624335 
L 418.771636 381.104894 
L 418.839273 380.759499 
L 419.448 373.274127 
L 421.071273 358.35425 
L 421.409455 352.366406 
L 421.612364 345.620568 
L 421.747636 336.643537 
L 421.815273 327.693849 
L 421.882909 298.56091 
L 421.950545 174.661173 
L 422.085818 353.880229 
L 422.288727 382.415607 
L 422.356364 382.024127 
L 422.897455 374.78563 
L 423.912 367.172081 
L 424.520727 361.60498 
L 425.129455 354.089164 
L 425.4 347.663541 
L 425.602909 336.682152 
L 425.670545 327.717316 
L 425.738182 297.844139 
L 425.805818 175.418201 
L 425.941091 353.047508 
L 426.144 380.837933 
L 426.211636 380.516726 
L 426.955636 371.285649 
L 427.834909 363.392588 
L 428.240727 358.141275 
L 428.646545 353.523719 
L 428.917091 347.399512 
L 429.12 336.461759 
L 429.187636 327.402455 
L 429.255273 296.500169 
L 429.322909 178.013002 
L 429.458182 353.213058 
L 429.661091 381.083374 
L 429.728727 380.857782 
L 430.472727 372.576809 
L 430.675636 399.814082 
L 431.081455 420.611275 
L 431.893091 449.677581 
L 432.434182 462.012138 
L 432.907636 467.809031 
L 433.381091 470.856432 
L 433.854545 472.495807 
L 434.328 473.403273 
L 434.869091 473.964193 
L 435.477818 474.279814 
L 436.357091 474.468539 
L 438.048 474.552215 
L 446.637818 474.55175 
L 498.109091 474.549664 
L 498.109091 474.549664 
" clip-path="url(#p8cafc7fb07)" style="fill: none; stroke: #000000; stroke-width: 1.5; stroke-linecap: square"/>
   </g>
   <g id="line2d_14">
    <path d="M 497.973818 408.87 
" clip-path="url(#p8cafc7fb07)" style="fill: none; stroke: #000000; stroke-width: 1.5; stroke-linecap: square"/>
   </g>
   <g id="line2d_15">
    <path d="M 430.472727 368.1 
L 430.472727 365.382 
L 430.472727 362.664 
L 430.472727 359.946 
L 430.472727 357.228 
L 430.472727 354.51 
L 430.472727 351.792 
L 430.472727 349.074 
L 430.472727 346.356 
L 430.472727 343.638 
L 430.472727 340.92 
L 430.472727 338.202 
L 430.472727 335.484 
L 430.472727 332.766 
L 430.472727 330.048 
L 430.472727 327.33 
L 430.472727 324.612 
L 430.472727 321.894 
L 430.472727 319.176 
L 430.472727 316.458 
" clip-path="url(#p8cafc7fb07)" style="fill: none; stroke: #000000; stroke-width: 1.5; stroke-linecap: square"/>
   </g>
   <g id="patch_3">
    <path d="M 72 504 
L 72 69.12 
" style="fill: none; stroke: #000000; stroke-width: 0.8; stroke-linejoin: miter; stroke-linecap: square"/>
   </g>
   <g id="patch_4">
    <path d="M 518.4 504 
L 518.4 69.12 
" style="fill: none; stroke: #000000; stroke-width: 0.8; stroke-linejoin: miter; stroke-linecap: square"/>
   </g>
   <g id="patch_5">
    <path d="M 72 504 
L 518.4 504 
" style="fill: none; stroke: #000000; stroke-width: 0.8; stroke-linejoin: miter; stroke-linecap: square"/>
   </g>
   <g id="patch_6">
    <path d="M 72 69.12 
L 518.4 69.12 
" style="fill: none; stroke: #000000; stroke-width: 0.8; stroke-linejoin: miter; stroke-linecap: square"/>
   </g>
   <g id="text_15">
    <!-- 500 ms -->
    <g transform="translate(497.973818 406.152)scale(0.22 -0.22)">
     <defs>
      <path id="ArialMT-35" d="M 266 1200 
L 856 1250 
Q 922 819 1161 601 
Q 1400 384 1738 384 
Q 2144 384 2425 690 
Q 2706 997 2706 1503 
Q 2706 1984 2436 2262 
Q 2166 2541 1728 2541 
Q 1456 2541 1237 2417 
Q 1019 2294 894 2097 
L 366 2166 
L 809 4519 
L 3088 4519 
L 3088 3981 
L 1259 3981 
L 1013 2750 
Q 1425 3038 1878 3038 
Q 2478 3038 2890 2622 
Q 3303 2206 3303 1553 
Q 3303 931 2941 478 
Q 2500 -78 1738 -78 
Q 1113 -78 717 272 
Q 322 622 266 1200 
z
" transform="scale(0.015625)"/>
      <path id="ArialMT-30" d="M 266 2259 
Q 266 3072 433 3567 
Q 600 4063 929 4331 
Q 1259 4600 1759 4600 
Q 2128 4600 2406 4451 
Q 2684 4303 2865 4023 
Q 3047 3744 3150 3342 
Q 3253 2941 3253 2259 
Q 3253 1453 3087 958 
Q 2922 463 2592 192 
Q 2263 -78 1759 -78 
Q 1097 -78 719 397 
Q 266 969 266 2259 
z
M 844 2259 
Q 844 1131 1108 757 
Q 1372 384 1759 384 
Q 2147 384 2411 759 
Q 2675 1134 2675 2259 
Q 2675 3391 2411 3762 
Q 2147 4134 1753 4134 
Q 1366 4134 1134 3806 
Q 844 3388 844 2259 
z
" transform="scale(0.015625)"/>
     </defs>
     <use xlink:href="#ArialMT-35"/>
     <use xlink:href="#ArialMT-30" x="55.615234"/>
     <use xlink:href="#ArialMT-30" x="111.230469"/>
     <use xlink:href="#ArialMT-20" x="166.845703"/>
     <use xlink:href="#ArialMT-6d" x="194.628906"/>
     <use xlink:href="#ArialMT-73" x="277.929688"/>
    </g>
   </g>
   <g id="text_16">
    <!-- 20 mV -->
    <g transform="translate(504.737455 321.894)scale(0.22 -0.22)">
     <defs>
      <path id="ArialMT-32" d="M 3222 541 
L 3222 0 
L 194 0 
Q 188 203 259 391 
Q 375 700 629 1000 
Q 884 1300 1366 1694 
Q 2113 2306 2375 2664 
Q 2638 3022 2638 3341 
Q 2638 3675 2398 3904 
Q 2159 4134 1775 4134 
Q 1369 4134 1125 3890 
Q 881 3647 878 3216 
L 300 3275 
Q 359 3922 746 4261 
Q 1134 4600 1788 4600 
Q 2447 4600 2831 4234 
Q 3216 3869 3216 3328 
Q 3216 3053 3103 2787 
Q 2991 2522 2730 2228 
Q 2469 1934 1863 1422 
Q 1356 997 1212 845 
Q 1069 694 975 541 
L 3222 541 
z
" transform="scale(0.015625)"/>
     </defs>
     <use xlink:href="#ArialMT-32"/>
     <use xlink:href="#ArialMT-30" x="55.615234"/>
     <use xlink:href="#ArialMT-20" x="111.230469"/>
     <use xlink:href="#ArialMT-6d" x="139.013672"/>
     <use xlink:href="#ArialMT-56" x="222.314453"/>
    </g>
   </g>
   <g id="text_17">
    <!--  Plotting FS, trace number 9312  -->
    <g transform="translate(136.849844 63.12)scale(0.22 -0.22)">
     <defs>
      <path id="ArialMT-50" d="M 494 0 
L 494 4581 
L 2222 4581 
Q 2678 4581 2919 4538 
Q 3256 4481 3484 4323 
Q 3713 4166 3852 3881 
Q 3991 3597 3991 3256 
Q 3991 2672 3619 2267 
Q 3247 1863 2275 1863 
L 1100 1863 
L 1100 0 
L 494 0 
z
M 1100 2403 
L 2284 2403 
Q 2872 2403 3119 2622 
Q 3366 2841 3366 3238 
Q 3366 3525 3220 3729 
Q 3075 3934 2838 4000 
Q 2684 4041 2272 4041 
L 1100 4041 
L 1100 2403 
z
" transform="scale(0.015625)"/>
      <path id="ArialMT-67" d="M 319 -275 
L 866 -356 
Q 900 -609 1056 -725 
Q 1266 -881 1628 -881 
Q 2019 -881 2231 -725 
Q 2444 -569 2519 -288 
Q 2563 -116 2559 434 
Q 2191 0 1641 0 
Q 956 0 581 494 
Q 206 988 206 1678 
Q 206 2153 378 2554 
Q 550 2956 876 3175 
Q 1203 3394 1644 3394 
Q 2231 3394 2613 2919 
L 2613 3319 
L 3131 3319 
L 3131 450 
Q 3131 -325 2973 -648 
Q 2816 -972 2473 -1159 
Q 2131 -1347 1631 -1347 
Q 1038 -1347 672 -1080 
Q 306 -813 319 -275 
z
M 784 1719 
Q 784 1066 1043 766 
Q 1303 466 1694 466 
Q 2081 466 2343 764 
Q 2606 1063 2606 1700 
Q 2606 2309 2336 2618 
Q 2066 2928 1684 2928 
Q 1309 2928 1046 2623 
Q 784 2319 784 1719 
z
" transform="scale(0.015625)"/>
      <path id="ArialMT-46" d="M 525 0 
L 525 4581 
L 3616 4581 
L 3616 4041 
L 1131 4041 
L 1131 2622 
L 3281 2622 
L 3281 2081 
L 1131 2081 
L 1131 0 
L 525 0 
z
" transform="scale(0.015625)"/>
      <path id="ArialMT-53" d="M 288 1472 
L 859 1522 
Q 900 1178 1048 958 
Q 1197 738 1509 602 
Q 1822 466 2213 466 
Q 2559 466 2825 569 
Q 3091 672 3220 851 
Q 3350 1031 3350 1244 
Q 3350 1459 3225 1620 
Q 3100 1781 2813 1891 
Q 2628 1963 1997 2114 
Q 1366 2266 1113 2400 
Q 784 2572 623 2826 
Q 463 3081 463 3397 
Q 463 3744 659 4045 
Q 856 4347 1234 4503 
Q 1613 4659 2075 4659 
Q 2584 4659 2973 4495 
Q 3363 4331 3572 4012 
Q 3781 3694 3797 3291 
L 3216 3247 
Q 3169 3681 2898 3903 
Q 2628 4125 2100 4125 
Q 1550 4125 1298 3923 
Q 1047 3722 1047 3438 
Q 1047 3191 1225 3031 
Q 1400 2872 2139 2705 
Q 2878 2538 3153 2413 
Q 3553 2228 3743 1945 
Q 3934 1663 3934 1294 
Q 3934 928 3725 604 
Q 3516 281 3123 101 
Q 2731 -78 2241 -78 
Q 1619 -78 1198 103 
Q 778 284 539 648 
Q 300 1013 288 1472 
z
" transform="scale(0.015625)"/>
      <path id="ArialMT-2c" d="M 569 0 
L 569 641 
L 1209 641 
L 1209 0 
Q 1209 -353 1084 -570 
Q 959 -788 688 -906 
L 531 -666 
Q 709 -588 793 -436 
Q 878 -284 888 0 
L 569 0 
z
" transform="scale(0.015625)"/>
      <path id="ArialMT-63" d="M 2588 1216 
L 3141 1144 
Q 3050 572 2676 248 
Q 2303 -75 1759 -75 
Q 1078 -75 664 370 
Q 250 816 250 1647 
Q 250 2184 428 2587 
Q 606 2991 970 3192 
Q 1334 3394 1763 3394 
Q 2303 3394 2647 3120 
Q 2991 2847 3088 2344 
L 2541 2259 
Q 2463 2594 2264 2762 
Q 2066 2931 1784 2931 
Q 1359 2931 1093 2626 
Q 828 2322 828 1663 
Q 828 994 1084 691 
Q 1341 388 1753 388 
Q 2084 388 2306 591 
Q 2528 794 2588 1216 
z
" transform="scale(0.015625)"/>
      <path id="ArialMT-75" d="M 2597 0 
L 2597 488 
Q 2209 -75 1544 -75 
Q 1250 -75 995 37 
Q 741 150 617 320 
Q 494 491 444 738 
Q 409 903 409 1263 
L 409 3319 
L 972 3319 
L 972 1478 
Q 972 1038 1006 884 
Q 1059 663 1231 536 
Q 1403 409 1656 409 
Q 1909 409 2131 539 
Q 2353 669 2445 892 
Q 2538 1116 2538 1541 
L 2538 3319 
L 3100 3319 
L 3100 0 
L 2597 0 
z
" transform="scale(0.015625)"/>
      <path id="ArialMT-39" d="M 350 1059 
L 891 1109 
Q 959 728 1153 556 
Q 1347 384 1650 384 
Q 1909 384 2104 503 
Q 2300 622 2425 820 
Q 2550 1019 2634 1356 
Q 2719 1694 2719 2044 
Q 2719 2081 2716 2156 
Q 2547 1888 2255 1720 
Q 1963 1553 1622 1553 
Q 1053 1553 659 1965 
Q 266 2378 266 3053 
Q 266 3750 677 4175 
Q 1088 4600 1706 4600 
Q 2153 4600 2523 4359 
Q 2894 4119 3086 3673 
Q 3278 3228 3278 2384 
Q 3278 1506 3087 986 
Q 2897 466 2520 194 
Q 2144 -78 1638 -78 
Q 1100 -78 759 220 
Q 419 519 350 1059 
z
M 2653 3081 
Q 2653 3566 2395 3850 
Q 2138 4134 1775 4134 
Q 1400 4134 1122 3828 
Q 844 3522 844 3034 
Q 844 2597 1108 2323 
Q 1372 2050 1759 2050 
Q 2150 2050 2401 2323 
Q 2653 2597 2653 3081 
z
" transform="scale(0.015625)"/>
      <path id="ArialMT-33" d="M 269 1209 
L 831 1284 
Q 928 806 1161 595 
Q 1394 384 1728 384 
Q 2125 384 2398 659 
Q 2672 934 2672 1341 
Q 2672 1728 2419 1979 
Q 2166 2231 1775 2231 
Q 1616 2231 1378 2169 
L 1441 2663 
Q 1497 2656 1531 2656 
Q 1891 2656 2178 2843 
Q 2466 3031 2466 3422 
Q 2466 3731 2256 3934 
Q 2047 4138 1716 4138 
Q 1388 4138 1169 3931 
Q 950 3725 888 3313 
L 325 3413 
Q 428 3978 793 4289 
Q 1159 4600 1703 4600 
Q 2078 4600 2393 4439 
Q 2709 4278 2876 4000 
Q 3044 3722 3044 3409 
Q 3044 3113 2884 2869 
Q 2725 2625 2413 2481 
Q 2819 2388 3044 2092 
Q 3269 1797 3269 1353 
Q 3269 753 2831 336 
Q 2394 -81 1725 -81 
Q 1122 -81 723 278 
Q 325 638 269 1209 
z
" transform="scale(0.015625)"/>
      <path id="ArialMT-31" d="M 2384 0 
L 1822 0 
L 1822 3584 
Q 1619 3391 1289 3197 
Q 959 3003 697 2906 
L 697 3450 
Q 1169 3672 1522 3987 
Q 1875 4303 2022 4600 
L 2384 4600 
L 2384 0 
z
" transform="scale(0.015625)"/>
     </defs>
     <use xlink:href="#ArialMT-20"/>
     <use xlink:href="#ArialMT-50" x="27.783203"/>
     <use xlink:href="#ArialMT-6c" x="94.482422"/>
     <use xlink:href="#ArialMT-6f" x="116.699219"/>
     <use xlink:href="#ArialMT-74" x="172.314453"/>
     <use xlink:href="#ArialMT-74" x="200.097656"/>
     <use xlink:href="#ArialMT-69" x="227.880859"/>
     <use xlink:href="#ArialMT-6e" x="250.097656"/>
     <use xlink:href="#ArialMT-67" x="305.712891"/>
     <use xlink:href="#ArialMT-20" x="361.328125"/>
     <use xlink:href="#ArialMT-46" x="389.111328"/>
     <use xlink:href="#ArialMT-53" x="450.195312"/>
     <use xlink:href="#ArialMT-2c" x="516.894531"/>
     <use xlink:href="#ArialMT-20" x="544.677734"/>
     <use xlink:href="#ArialMT-74" x="572.460938"/>
     <use xlink:href="#ArialMT-72" x="600.244141"/>
     <use xlink:href="#ArialMT-61" x="633.544922"/>
     <use xlink:href="#ArialMT-63" x="689.160156"/>
     <use xlink:href="#ArialMT-65" x="739.160156"/>
     <use xlink:href="#ArialMT-20" x="794.775391"/>
     <use xlink:href="#ArialMT-6e" x="822.558594"/>
     <use xlink:href="#ArialMT-75" x="878.173828"/>
     <use xlink:href="#ArialMT-6d" x="933.789062"/>
     <use xlink:href="#ArialMT-62" x="1017.089844"/>
     <use xlink:href="#ArialMT-65" x="1072.705078"/>
     <use xlink:href="#ArialMT-72" x="1128.320312"/>
     <use xlink:href="#ArialMT-20" x="1161.621094"/>
     <use xlink:href="#ArialMT-39" x="1189.404297"/>
     <use xlink:href="#ArialMT-33" x="1245.019531"/>
     <use xlink:href="#ArialMT-31" x="1300.634766"/>
     <use xlink:href="#ArialMT-32" x="1356.25"/>
     <use xlink:href="#ArialMT-20" x="1411.865234"/>
    </g>
   </g>
  </g>
 </g>
 <defs>
  <clipPath id="p8cafc7fb07">
   <rect x="72" y="69.12" width="446.4" height="434.88"/>
  </clipPath>
 </defs>
</svg>
