<?xml version="1.0" encoding="utf-8" standalone="no"?>
<!DOCTYPE svg PUBLIC "-//W3C//DTD SVG 1.1//EN"
  "http://www.w3.org/Graphics/SVG/1.1/DTD/svg11.dtd">
<svg xmlns:xlink="http://www.w3.org/1999/xlink" width="576pt" height="576pt" viewBox="0 0 576 576" xmlns="http://www.w3.org/2000/svg" version="1.1">
 <metadata>
  <rdf:RDF xmlns:dc="http://purl.org/dc/elements/1.1/" xmlns:cc="http://creativecommons.org/ns#" xmlns:rdf="http://www.w3.org/1999/02/22-rdf-syntax-ns#">
   <cc:Work>
    <dc:type rdf:resource="http://purl.org/dc/dcmitype/StillImage"/>
    <dc:date>2022-10-30T19:57:09.849768</dc:date>
    <dc:format>image/svg+xml</dc:format>
    <dc:creator>
     <cc:Agent>
      <dc:title>Matplotlib v3.5.2, https://matplotlib.org/</dc:title>
     </cc:Agent>
    </dc:creator>
   </cc:Work>
  </rdf:RDF>
 </metadata>
 <defs>
  <style type="text/css">*{stroke-linejoin: round; stroke-linecap: butt}</style>
 </defs>
 <g id="figure_1">
  <g id="patch_1">
   <path d="M 0 576 
L 576 576 
L 576 0 
L 0 0 
L 0 576 
z
" style="fill: none"/>
  </g>
  <g id="axes_1">
   <g id="patch_2">
    <path d="M 72 504 
L 518.4 504 
L 518.4 69.12 
L 72 69.12 
z
" style="fill: #ffffff"/>
   </g>
   <g id="matplotlib.axis_1">
    <g id="xtick_1">
     <g id="line2d_1">
      <defs>
       <path id="mfa40c7148b" d="M 0 0 
L 0 3.5 
" style="stroke: #000000; stroke-width: 0.8"/>
      </defs>
      <g>
       <use xlink:href="#mfa40c7148b" x="92.290909" y="504" style="stroke: #000000; stroke-width: 0.8"/>
      </g>
     </g>
     <g id="text_1">
      <!-- 0 -->
      <g transform="translate(85.292159 527.716563)scale(0.22 -0.22)">
       <defs>
        <path id="DejaVuSans-30" d="M 2034 4250 
Q 1547 4250 1301 3770 
Q 1056 3291 1056 2328 
Q 1056 1369 1301 889 
Q 1547 409 2034 409 
Q 2525 409 2770 889 
Q 3016 1369 3016 2328 
Q 3016 3291 2770 3770 
Q 2525 4250 2034 4250 
z
M 2034 4750 
Q 2819 4750 3233 4129 
Q 3647 3509 3647 2328 
Q 3647 1150 3233 529 
Q 2819 -91 2034 -91 
Q 1250 -91 836 529 
Q 422 1150 422 2328 
Q 422 3509 836 4129 
Q 1250 4750 2034 4750 
z
" transform="scale(0.015625)"/>
       </defs>
       <use xlink:href="#DejaVuSans-30"/>
      </g>
     </g>
    </g>
    <g id="xtick_2">
     <g id="line2d_2">
      <g>
       <use xlink:href="#mfa40c7148b" x="227.563636" y="504" style="stroke: #000000; stroke-width: 0.8"/>
      </g>
     </g>
     <g id="text_2">
      <!-- 1000 -->
      <g transform="translate(199.568636 527.716563)scale(0.22 -0.22)">
       <defs>
        <path id="DejaVuSans-31" d="M 794 531 
L 1825 531 
L 1825 4091 
L 703 3866 
L 703 4441 
L 1819 4666 
L 2450 4666 
L 2450 531 
L 3481 531 
L 3481 0 
L 794 0 
L 794 531 
z
" transform="scale(0.015625)"/>
       </defs>
       <use xlink:href="#DejaVuSans-31"/>
       <use xlink:href="#DejaVuSans-30" x="63.623047"/>
       <use xlink:href="#DejaVuSans-30" x="127.246094"/>
       <use xlink:href="#DejaVuSans-30" x="190.869141"/>
      </g>
     </g>
    </g>
    <g id="xtick_3">
     <g id="line2d_3">
      <g>
       <use xlink:href="#mfa40c7148b" x="362.836364" y="504" style="stroke: #000000; stroke-width: 0.8"/>
      </g>
     </g>
     <g id="text_3">
      <!-- 2000 -->
      <g transform="translate(334.841364 527.716563)scale(0.22 -0.22)">
       <defs>
        <path id="DejaVuSans-32" d="M 1228 531 
L 3431 531 
L 3431 0 
L 469 0 
L 469 531 
Q 828 903 1448 1529 
Q 2069 2156 2228 2338 
Q 2531 2678 2651 2914 
Q 2772 3150 2772 3378 
Q 2772 3750 2511 3984 
Q 2250 4219 1831 4219 
Q 1534 4219 1204 4116 
Q 875 4013 500 3803 
L 500 4441 
Q 881 4594 1212 4672 
Q 1544 4750 1819 4750 
Q 2544 4750 2975 4387 
Q 3406 4025 3406 3419 
Q 3406 3131 3298 2873 
Q 3191 2616 2906 2266 
Q 2828 2175 2409 1742 
Q 1991 1309 1228 531 
z
" transform="scale(0.015625)"/>
       </defs>
       <use xlink:href="#DejaVuSans-32"/>
       <use xlink:href="#DejaVuSans-30" x="63.623047"/>
       <use xlink:href="#DejaVuSans-30" x="127.246094"/>
       <use xlink:href="#DejaVuSans-30" x="190.869141"/>
      </g>
     </g>
    </g>
    <g id="xtick_4">
     <g id="line2d_4">
      <g>
       <use xlink:href="#mfa40c7148b" x="498.109091" y="504" style="stroke: #000000; stroke-width: 0.8"/>
      </g>
     </g>
     <g id="text_4">
      <!-- 3000 -->
      <g transform="translate(470.114091 527.716563)scale(0.22 -0.22)">
       <defs>
        <path id="DejaVuSans-33" d="M 2597 2516 
Q 3050 2419 3304 2112 
Q 3559 1806 3559 1356 
Q 3559 666 3084 287 
Q 2609 -91 1734 -91 
Q 1441 -91 1130 -33 
Q 819 25 488 141 
L 488 750 
Q 750 597 1062 519 
Q 1375 441 1716 441 
Q 2309 441 2620 675 
Q 2931 909 2931 1356 
Q 2931 1769 2642 2001 
Q 2353 2234 1838 2234 
L 1294 2234 
L 1294 2753 
L 1863 2753 
Q 2328 2753 2575 2939 
Q 2822 3125 2822 3475 
Q 2822 3834 2567 4026 
Q 2313 4219 1838 4219 
Q 1578 4219 1281 4162 
Q 984 4106 628 3988 
L 628 4550 
Q 988 4650 1302 4700 
Q 1616 4750 1894 4750 
Q 2613 4750 3031 4423 
Q 3450 4097 3450 3541 
Q 3450 3153 3228 2886 
Q 3006 2619 2597 2516 
z
" transform="scale(0.015625)"/>
       </defs>
       <use xlink:href="#DejaVuSans-33"/>
       <use xlink:href="#DejaVuSans-30" x="63.623047"/>
       <use xlink:href="#DejaVuSans-30" x="127.246094"/>
       <use xlink:href="#DejaVuSans-30" x="190.869141"/>
      </g>
     </g>
    </g>
    <g id="text_5">
     <!-- Time(ms) -->
     <g transform="translate(249.182187 552.307188)scale(0.22 -0.22)">
      <defs>
       <path id="ArialMT-54" d="M 1659 0 
L 1659 4041 
L 150 4041 
L 150 4581 
L 3781 4581 
L 3781 4041 
L 2266 4041 
L 2266 0 
L 1659 0 
z
" transform="scale(0.015625)"/>
       <path id="ArialMT-69" d="M 425 3934 
L 425 4581 
L 988 4581 
L 988 3934 
L 425 3934 
z
M 425 0 
L 425 3319 
L 988 3319 
L 988 0 
L 425 0 
z
" transform="scale(0.015625)"/>
       <path id="ArialMT-6d" d="M 422 0 
L 422 3319 
L 925 3319 
L 925 2853 
Q 1081 3097 1340 3245 
Q 1600 3394 1931 3394 
Q 2300 3394 2536 3241 
Q 2772 3088 2869 2813 
Q 3263 3394 3894 3394 
Q 4388 3394 4653 3120 
Q 4919 2847 4919 2278 
L 4919 0 
L 4359 0 
L 4359 2091 
Q 4359 2428 4304 2576 
Q 4250 2725 4106 2815 
Q 3963 2906 3769 2906 
Q 3419 2906 3187 2673 
Q 2956 2441 2956 1928 
L 2956 0 
L 2394 0 
L 2394 2156 
Q 2394 2531 2256 2718 
Q 2119 2906 1806 2906 
Q 1569 2906 1367 2781 
Q 1166 2656 1075 2415 
Q 984 2175 984 1722 
L 984 0 
L 422 0 
z
" transform="scale(0.015625)"/>
       <path id="ArialMT-65" d="M 2694 1069 
L 3275 997 
Q 3138 488 2766 206 
Q 2394 -75 1816 -75 
Q 1088 -75 661 373 
Q 234 822 234 1631 
Q 234 2469 665 2931 
Q 1097 3394 1784 3394 
Q 2450 3394 2872 2941 
Q 3294 2488 3294 1666 
Q 3294 1616 3291 1516 
L 816 1516 
Q 847 969 1125 678 
Q 1403 388 1819 388 
Q 2128 388 2347 550 
Q 2566 713 2694 1069 
z
M 847 1978 
L 2700 1978 
Q 2663 2397 2488 2606 
Q 2219 2931 1791 2931 
Q 1403 2931 1139 2672 
Q 875 2413 847 1978 
z
" transform="scale(0.015625)"/>
       <path id="ArialMT-28" d="M 1497 -1347 
Q 1031 -759 709 28 
Q 388 816 388 1659 
Q 388 2403 628 3084 
Q 909 3875 1497 4659 
L 1900 4659 
Q 1522 4009 1400 3731 
Q 1209 3300 1100 2831 
Q 966 2247 966 1656 
Q 966 153 1900 -1347 
L 1497 -1347 
z
" transform="scale(0.015625)"/>
       <path id="ArialMT-73" d="M 197 991 
L 753 1078 
Q 800 744 1014 566 
Q 1228 388 1613 388 
Q 2000 388 2187 545 
Q 2375 703 2375 916 
Q 2375 1106 2209 1216 
Q 2094 1291 1634 1406 
Q 1016 1563 777 1677 
Q 538 1791 414 1992 
Q 291 2194 291 2438 
Q 291 2659 392 2848 
Q 494 3038 669 3163 
Q 800 3259 1026 3326 
Q 1253 3394 1513 3394 
Q 1903 3394 2198 3281 
Q 2494 3169 2634 2976 
Q 2775 2784 2828 2463 
L 2278 2388 
Q 2241 2644 2061 2787 
Q 1881 2931 1553 2931 
Q 1166 2931 1000 2803 
Q 834 2675 834 2503 
Q 834 2394 903 2306 
Q 972 2216 1119 2156 
Q 1203 2125 1616 2013 
Q 2213 1853 2448 1751 
Q 2684 1650 2818 1456 
Q 2953 1263 2953 975 
Q 2953 694 2789 445 
Q 2625 197 2315 61 
Q 2006 -75 1616 -75 
Q 969 -75 630 194 
Q 291 463 197 991 
z
" transform="scale(0.015625)"/>
       <path id="ArialMT-29" d="M 791 -1347 
L 388 -1347 
Q 1322 153 1322 1656 
Q 1322 2244 1188 2822 
Q 1081 3291 891 3722 
Q 769 4003 388 4659 
L 791 4659 
Q 1378 3875 1659 3084 
Q 1900 2403 1900 1659 
Q 1900 816 1576 28 
Q 1253 -759 791 -1347 
z
" transform="scale(0.015625)"/>
      </defs>
      <use xlink:href="#ArialMT-54"/>
      <use xlink:href="#ArialMT-69" x="57.333984"/>
      <use xlink:href="#ArialMT-6d" x="79.550781"/>
      <use xlink:href="#ArialMT-65" x="162.851562"/>
      <use xlink:href="#ArialMT-28" x="218.466797"/>
      <use xlink:href="#ArialMT-6d" x="251.767578"/>
      <use xlink:href="#ArialMT-73" x="335.068359"/>
      <use xlink:href="#ArialMT-29" x="385.068359"/>
     </g>
    </g>
   </g>
   <g id="matplotlib.axis_2">
    <g id="ytick_1">
     <g id="line2d_5">
      <defs>
       <path id="m128fb81bba" d="M 0 0 
L -3.5 0 
" style="stroke: #000000; stroke-width: 0.8"/>
      </defs>
      <g>
       <use xlink:href="#m128fb81bba" x="72" y="476.82" style="stroke: #000000; stroke-width: 0.8"/>
      </g>
     </g>
     <g id="text_6">
      <!-- −100 -->
      <g transform="translate(4.572187 485.178281)scale(0.22 -0.22)">
       <defs>
        <path id="DejaVuSans-2212" d="M 678 2272 
L 4684 2272 
L 4684 1741 
L 678 1741 
L 678 2272 
z
" transform="scale(0.015625)"/>
       </defs>
       <use xlink:href="#DejaVuSans-2212"/>
       <use xlink:href="#DejaVuSans-31" x="83.789062"/>
       <use xlink:href="#DejaVuSans-30" x="147.412109"/>
       <use xlink:href="#DejaVuSans-30" x="211.035156"/>
      </g>
     </g>
    </g>
    <g id="ytick_2">
     <g id="line2d_6">
      <g>
       <use xlink:href="#m128fb81bba" x="72" y="422.46" style="stroke: #000000; stroke-width: 0.8"/>
      </g>
     </g>
     <g id="text_7">
      <!-- −80 -->
      <g transform="translate(18.569688 430.818281)scale(0.22 -0.22)">
       <defs>
        <path id="DejaVuSans-38" d="M 2034 2216 
Q 1584 2216 1326 1975 
Q 1069 1734 1069 1313 
Q 1069 891 1326 650 
Q 1584 409 2034 409 
Q 2484 409 2743 651 
Q 3003 894 3003 1313 
Q 3003 1734 2745 1975 
Q 2488 2216 2034 2216 
z
M 1403 2484 
Q 997 2584 770 2862 
Q 544 3141 544 3541 
Q 544 4100 942 4425 
Q 1341 4750 2034 4750 
Q 2731 4750 3128 4425 
Q 3525 4100 3525 3541 
Q 3525 3141 3298 2862 
Q 3072 2584 2669 2484 
Q 3125 2378 3379 2068 
Q 3634 1759 3634 1313 
Q 3634 634 3220 271 
Q 2806 -91 2034 -91 
Q 1263 -91 848 271 
Q 434 634 434 1313 
Q 434 1759 690 2068 
Q 947 2378 1403 2484 
z
M 1172 3481 
Q 1172 3119 1398 2916 
Q 1625 2713 2034 2713 
Q 2441 2713 2670 2916 
Q 2900 3119 2900 3481 
Q 2900 3844 2670 4047 
Q 2441 4250 2034 4250 
Q 1625 4250 1398 4047 
Q 1172 3844 1172 3481 
z
" transform="scale(0.015625)"/>
       </defs>
       <use xlink:href="#DejaVuSans-2212"/>
       <use xlink:href="#DejaVuSans-38" x="83.789062"/>
       <use xlink:href="#DejaVuSans-30" x="147.412109"/>
      </g>
     </g>
    </g>
    <g id="ytick_3">
     <g id="line2d_7">
      <g>
       <use xlink:href="#m128fb81bba" x="72" y="368.1" style="stroke: #000000; stroke-width: 0.8"/>
      </g>
     </g>
     <g id="text_8">
      <!-- −60 -->
      <g transform="translate(18.569688 376.458281)scale(0.22 -0.22)">
       <defs>
        <path id="DejaVuSans-36" d="M 2113 2584 
Q 1688 2584 1439 2293 
Q 1191 2003 1191 1497 
Q 1191 994 1439 701 
Q 1688 409 2113 409 
Q 2538 409 2786 701 
Q 3034 994 3034 1497 
Q 3034 2003 2786 2293 
Q 2538 2584 2113 2584 
z
M 3366 4563 
L 3366 3988 
Q 3128 4100 2886 4159 
Q 2644 4219 2406 4219 
Q 1781 4219 1451 3797 
Q 1122 3375 1075 2522 
Q 1259 2794 1537 2939 
Q 1816 3084 2150 3084 
Q 2853 3084 3261 2657 
Q 3669 2231 3669 1497 
Q 3669 778 3244 343 
Q 2819 -91 2113 -91 
Q 1303 -91 875 529 
Q 447 1150 447 2328 
Q 447 3434 972 4092 
Q 1497 4750 2381 4750 
Q 2619 4750 2861 4703 
Q 3103 4656 3366 4563 
z
" transform="scale(0.015625)"/>
       </defs>
       <use xlink:href="#DejaVuSans-2212"/>
       <use xlink:href="#DejaVuSans-36" x="83.789062"/>
       <use xlink:href="#DejaVuSans-30" x="147.412109"/>
      </g>
     </g>
    </g>
    <g id="ytick_4">
     <g id="line2d_8">
      <g>
       <use xlink:href="#m128fb81bba" x="72" y="313.74" style="stroke: #000000; stroke-width: 0.8"/>
      </g>
     </g>
     <g id="text_9">
      <!-- −40 -->
      <g transform="translate(18.569688 322.098281)scale(0.22 -0.22)">
       <defs>
        <path id="DejaVuSans-34" d="M 2419 4116 
L 825 1625 
L 2419 1625 
L 2419 4116 
z
M 2253 4666 
L 3047 4666 
L 3047 1625 
L 3713 1625 
L 3713 1100 
L 3047 1100 
L 3047 0 
L 2419 0 
L 2419 1100 
L 313 1100 
L 313 1709 
L 2253 4666 
z
" transform="scale(0.015625)"/>
       </defs>
       <use xlink:href="#DejaVuSans-2212"/>
       <use xlink:href="#DejaVuSans-34" x="83.789062"/>
       <use xlink:href="#DejaVuSans-30" x="147.412109"/>
      </g>
     </g>
    </g>
    <g id="ytick_5">
     <g id="line2d_9">
      <g>
       <use xlink:href="#m128fb81bba" x="72" y="259.38" style="stroke: #000000; stroke-width: 0.8"/>
      </g>
     </g>
     <g id="text_10">
      <!-- −20 -->
      <g transform="translate(18.569688 267.738281)scale(0.22 -0.22)">
       <use xlink:href="#DejaVuSans-2212"/>
       <use xlink:href="#DejaVuSans-32" x="83.789062"/>
       <use xlink:href="#DejaVuSans-30" x="147.412109"/>
      </g>
     </g>
    </g>
    <g id="ytick_6">
     <g id="line2d_10">
      <g>
       <use xlink:href="#m128fb81bba" x="72" y="205.02" style="stroke: #000000; stroke-width: 0.8"/>
      </g>
     </g>
     <g id="text_11">
      <!-- 0 -->
      <g transform="translate(51.0025 213.378281)scale(0.22 -0.22)">
       <use xlink:href="#DejaVuSans-30"/>
      </g>
     </g>
    </g>
    <g id="ytick_7">
     <g id="line2d_11">
      <g>
       <use xlink:href="#m128fb81bba" x="72" y="150.66" style="stroke: #000000; stroke-width: 0.8"/>
      </g>
     </g>
     <g id="text_12">
      <!-- 20 -->
      <g transform="translate(37.005 159.018281)scale(0.22 -0.22)">
       <use xlink:href="#DejaVuSans-32"/>
       <use xlink:href="#DejaVuSans-30" x="63.623047"/>
      </g>
     </g>
    </g>
    <g id="ytick_8">
     <g id="line2d_12">
      <g>
       <use xlink:href="#m128fb81bba" x="72" y="96.3" style="stroke: #000000; stroke-width: 0.8"/>
      </g>
     </g>
     <g id="text_13">
      <!-- 40 -->
      <g transform="translate(37.005 104.658281)scale(0.22 -0.22)">
       <use xlink:href="#DejaVuSans-34"/>
       <use xlink:href="#DejaVuSans-30" x="63.623047"/>
      </g>
     </g>
    </g>
    <g id="text_14">
     <!-- Membrane potential (mV) -->
     <g transform="translate(-4.058125 410.655469)rotate(-90)scale(0.22 -0.22)">
      <defs>
       <path id="ArialMT-4d" d="M 475 0 
L 475 4581 
L 1388 4581 
L 2472 1338 
Q 2622 884 2691 659 
Q 2769 909 2934 1394 
L 4031 4581 
L 4847 4581 
L 4847 0 
L 4263 0 
L 4263 3834 
L 2931 0 
L 2384 0 
L 1059 3900 
L 1059 0 
L 475 0 
z
" transform="scale(0.015625)"/>
       <path id="ArialMT-62" d="M 941 0 
L 419 0 
L 419 4581 
L 981 4581 
L 981 2947 
Q 1338 3394 1891 3394 
Q 2197 3394 2470 3270 
Q 2744 3147 2920 2923 
Q 3097 2700 3197 2384 
Q 3297 2069 3297 1709 
Q 3297 856 2875 390 
Q 2453 -75 1863 -75 
Q 1275 -75 941 416 
L 941 0 
z
M 934 1684 
Q 934 1088 1097 822 
Q 1363 388 1816 388 
Q 2184 388 2453 708 
Q 2722 1028 2722 1663 
Q 2722 2313 2464 2622 
Q 2206 2931 1841 2931 
Q 1472 2931 1203 2611 
Q 934 2291 934 1684 
z
" transform="scale(0.015625)"/>
       <path id="ArialMT-72" d="M 416 0 
L 416 3319 
L 922 3319 
L 922 2816 
Q 1116 3169 1280 3281 
Q 1444 3394 1641 3394 
Q 1925 3394 2219 3213 
L 2025 2691 
Q 1819 2813 1613 2813 
Q 1428 2813 1281 2702 
Q 1134 2591 1072 2394 
Q 978 2094 978 1738 
L 978 0 
L 416 0 
z
" transform="scale(0.015625)"/>
       <path id="ArialMT-61" d="M 2588 409 
Q 2275 144 1986 34 
Q 1697 -75 1366 -75 
Q 819 -75 525 192 
Q 231 459 231 875 
Q 231 1119 342 1320 
Q 453 1522 633 1644 
Q 813 1766 1038 1828 
Q 1203 1872 1538 1913 
Q 2219 1994 2541 2106 
Q 2544 2222 2544 2253 
Q 2544 2597 2384 2738 
Q 2169 2928 1744 2928 
Q 1347 2928 1158 2789 
Q 969 2650 878 2297 
L 328 2372 
Q 403 2725 575 2942 
Q 747 3159 1072 3276 
Q 1397 3394 1825 3394 
Q 2250 3394 2515 3294 
Q 2781 3194 2906 3042 
Q 3031 2891 3081 2659 
Q 3109 2516 3109 2141 
L 3109 1391 
Q 3109 606 3145 398 
Q 3181 191 3288 0 
L 2700 0 
Q 2613 175 2588 409 
z
M 2541 1666 
Q 2234 1541 1622 1453 
Q 1275 1403 1131 1340 
Q 988 1278 909 1158 
Q 831 1038 831 891 
Q 831 666 1001 516 
Q 1172 366 1500 366 
Q 1825 366 2078 508 
Q 2331 650 2450 897 
Q 2541 1088 2541 1459 
L 2541 1666 
z
" transform="scale(0.015625)"/>
       <path id="ArialMT-6e" d="M 422 0 
L 422 3319 
L 928 3319 
L 928 2847 
Q 1294 3394 1984 3394 
Q 2284 3394 2536 3286 
Q 2788 3178 2913 3003 
Q 3038 2828 3088 2588 
Q 3119 2431 3119 2041 
L 3119 0 
L 2556 0 
L 2556 2019 
Q 2556 2363 2490 2533 
Q 2425 2703 2258 2804 
Q 2091 2906 1866 2906 
Q 1506 2906 1245 2678 
Q 984 2450 984 1813 
L 984 0 
L 422 0 
z
" transform="scale(0.015625)"/>
       <path id="ArialMT-20" transform="scale(0.015625)"/>
       <path id="ArialMT-70" d="M 422 -1272 
L 422 3319 
L 934 3319 
L 934 2888 
Q 1116 3141 1344 3267 
Q 1572 3394 1897 3394 
Q 2322 3394 2647 3175 
Q 2972 2956 3137 2557 
Q 3303 2159 3303 1684 
Q 3303 1175 3120 767 
Q 2938 359 2589 142 
Q 2241 -75 1856 -75 
Q 1575 -75 1351 44 
Q 1128 163 984 344 
L 984 -1272 
L 422 -1272 
z
M 931 1641 
Q 931 1000 1190 694 
Q 1450 388 1819 388 
Q 2194 388 2461 705 
Q 2728 1022 2728 1688 
Q 2728 2322 2467 2637 
Q 2206 2953 1844 2953 
Q 1484 2953 1207 2617 
Q 931 2281 931 1641 
z
" transform="scale(0.015625)"/>
       <path id="ArialMT-6f" d="M 213 1659 
Q 213 2581 725 3025 
Q 1153 3394 1769 3394 
Q 2453 3394 2887 2945 
Q 3322 2497 3322 1706 
Q 3322 1066 3130 698 
Q 2938 331 2570 128 
Q 2203 -75 1769 -75 
Q 1072 -75 642 372 
Q 213 819 213 1659 
z
M 791 1659 
Q 791 1022 1069 705 
Q 1347 388 1769 388 
Q 2188 388 2466 706 
Q 2744 1025 2744 1678 
Q 2744 2294 2464 2611 
Q 2184 2928 1769 2928 
Q 1347 2928 1069 2612 
Q 791 2297 791 1659 
z
" transform="scale(0.015625)"/>
       <path id="ArialMT-74" d="M 1650 503 
L 1731 6 
Q 1494 -44 1306 -44 
Q 1000 -44 831 53 
Q 663 150 594 308 
Q 525 466 525 972 
L 525 2881 
L 113 2881 
L 113 3319 
L 525 3319 
L 525 4141 
L 1084 4478 
L 1084 3319 
L 1650 3319 
L 1650 2881 
L 1084 2881 
L 1084 941 
Q 1084 700 1114 631 
Q 1144 563 1211 522 
Q 1278 481 1403 481 
Q 1497 481 1650 503 
z
" transform="scale(0.015625)"/>
       <path id="ArialMT-6c" d="M 409 0 
L 409 4581 
L 972 4581 
L 972 0 
L 409 0 
z
" transform="scale(0.015625)"/>
       <path id="ArialMT-56" d="M 1803 0 
L 28 4581 
L 684 4581 
L 1875 1253 
Q 2019 853 2116 503 
Q 2222 878 2363 1253 
L 3600 4581 
L 4219 4581 
L 2425 0 
L 1803 0 
z
" transform="scale(0.015625)"/>
      </defs>
      <use xlink:href="#ArialMT-4d"/>
      <use xlink:href="#ArialMT-65" x="83.300781"/>
      <use xlink:href="#ArialMT-6d" x="138.916016"/>
      <use xlink:href="#ArialMT-62" x="222.216797"/>
      <use xlink:href="#ArialMT-72" x="277.832031"/>
      <use xlink:href="#ArialMT-61" x="311.132812"/>
      <use xlink:href="#ArialMT-6e" x="366.748047"/>
      <use xlink:href="#ArialMT-65" x="422.363281"/>
      <use xlink:href="#ArialMT-20" x="477.978516"/>
      <use xlink:href="#ArialMT-70" x="505.761719"/>
      <use xlink:href="#ArialMT-6f" x="561.376953"/>
      <use xlink:href="#ArialMT-74" x="616.992188"/>
      <use xlink:href="#ArialMT-65" x="644.775391"/>
      <use xlink:href="#ArialMT-6e" x="700.390625"/>
      <use xlink:href="#ArialMT-74" x="756.005859"/>
      <use xlink:href="#ArialMT-69" x="783.789062"/>
      <use xlink:href="#ArialMT-61" x="806.005859"/>
      <use xlink:href="#ArialMT-6c" x="861.621094"/>
      <use xlink:href="#ArialMT-20" x="883.837891"/>
      <use xlink:href="#ArialMT-28" x="911.621094"/>
      <use xlink:href="#ArialMT-6d" x="944.921875"/>
      <use xlink:href="#ArialMT-56" x="1028.222656"/>
      <use xlink:href="#ArialMT-29" x="1094.921875"/>
     </g>
    </g>
   </g>
   <g id="line2d_13">
    <path d="M 92.290909 438.768 
L 92.493818 448.834943 
L 92.899636 452.543714 
L 93.373091 454.853563 
L 93.846545 456.096425 
L 94.32 456.766415 
L 94.861091 457.16475 
L 95.605091 457.408823 
L 96.822545 457.531378 
L 100.339636 457.566701 
L 159.927273 457.568396 
L 160.130182 427.677048 
L 160.536 413.056819 
L 161.144727 399.393788 
L 161.888727 388.044195 
L 162.903273 376.224102 
L 164.661818 356.164596 
L 165.135273 351.621444 
L 165.270545 351.434982 
L 165.405818 351.801631 
L 165.946909 354.145453 
L 166.082182 353.991004 
L 166.285091 353.009388 
L 166.555636 350.431867 
L 166.893818 344.976885 
L 167.164364 336.192759 
L 167.299636 324.257079 
L 167.367273 298.615217 
L 167.434909 117.302157 
L 167.637818 368.188231 
L 167.840727 403.40158 
L 168.652364 380.732897 
L 169.125818 374.548347 
L 169.802182 368.881432 
L 170.681455 363.528708 
L 171.898909 357.558671 
L 172.913455 352.315183 
L 173.792727 345.585896 
L 174.130909 341.888435 
L 174.401455 336.002013 
L 174.536727 329.30071 
L 174.604364 321.784264 
L 174.672 295.579979 
L 174.739636 122.307799 
L 174.942545 364.161375 
L 175.145455 400.070907 
L 175.348364 394.730702 
L 175.889455 381.773877 
L 176.430545 374.238749 
L 177.039273 368.922975 
L 178.189091 361.465003 
L 178.933091 357.524414 
L 179.474182 354.655373 
L 180.218182 348.55627 
L 180.624 343.412045 
L 180.894545 337.198133 
L 181.029818 331.15528 
L 181.165091 309.984645 
L 181.232727 123.523206 
L 181.300364 201.997141 
L 181.503273 382.744895 
L 181.638545 400.638648 
L 181.773818 397.781528 
L 182.314909 383.352417 
L 182.788364 375.943716 
L 183.397091 369.993843 
L 184.344 363.261018 
L 184.817455 360.828456 
L 185.629091 358.34185 
L 186.237818 354.035572 
L 186.778909 348.72592 
L 187.184727 342.197681 
L 187.387636 336.531137 
L 187.522909 328.555177 
L 187.590545 318.59118 
L 187.725818 150.193596 
L 187.928727 374.264397 
L 188.064 400.052312 
L 188.131636 399.911479 
L 189.010909 379.733062 
L 189.552 373.550219 
L 190.160727 369.226983 
L 191.378182 362.631556 
L 192.325091 357.994131 
L 192.933818 353.581489 
L 193.677818 346.983522 
L 194.016 341.318782 
L 194.218909 334.187779 
L 194.354182 319.884033 
L 194.489455 142.421194 
L 194.692364 373.328223 
L 194.827636 401.27272 
L 194.895273 401.179893 
L 195.706909 380.579647 
L 196.248 373.826365 
L 196.856727 368.882755 
L 197.871273 362.788001 
L 198.682909 358.276636 
L 199.224 355.767182 
L 199.562182 354.780238 
L 199.900364 352.727593 
L 200.170909 351.075297 
L 200.509091 349.68202 
L 200.644364 349.28376 
L 200.779636 349.83031 
L 201.117818 351.305505 
L 201.253091 351.178082 
L 201.456 350.202582 
L 201.726545 347.460976 
L 201.997091 342.282755 
L 202.2 333.640782 
L 202.267636 327.00028 
L 202.335273 308.97626 
L 202.402909 106.750926 
L 202.470545 202.805977 
L 202.673455 384.607226 
L 202.808727 401.826347 
L 202.944 398.757096 
L 203.485091 385.287105 
L 204.026182 376.828498 
L 204.634909 370.759972 
L 205.514182 364.46496 
L 207.069818 354.05176 
L 207.881455 348.408028 
L 208.557818 343.372507 
L 208.828364 338.897926 
L 209.031273 331.054672 
L 209.098909 324.757844 
L 209.166545 307.653492 
L 209.234182 115.57739 
L 209.301818 210.832573 
L 209.504727 382.715264 
L 209.64 399.472901 
L 209.775273 396.78673 
L 210.316364 383.624114 
L 210.857455 375.340811 
L 211.466182 369.777263 
L 212.007273 366.574951 
L 213.021818 360.268827 
L 214.577455 348.652945 
L 215.050909 342.902557 
L 215.321455 337.212504 
L 215.524364 326.932481 
L 215.592 316.315347 
L 215.727273 161.95285 
L 215.930182 374.570111 
L 216.065455 398.380377 
L 216.133091 398.248588 
L 217.08 377.445687 
L 217.621091 371.319842 
L 218.432727 364.953907 
L 219.379636 359.020594 
L 220.191273 353.743211 
L 221.544 342.756112 
L 221.814545 336.581021 
L 221.949818 329.558629 
L 222.017455 321.529835 
L 222.085091 290.823672 
L 222.152727 126.110807 
L 222.355636 366.539405 
L 222.558545 400.008198 
L 222.896727 390.021028 
L 223.370182 379.724687 
L 223.911273 372.958136 
L 224.655273 366.998342 
L 225.669818 360.450901 
L 226.752 353.755548 
L 227.157818 350.09136 
L 227.563636 344.310948 
L 227.834182 338.022241 
L 228.037091 327.023367 
L 228.104727 315.347043 
L 228.24 171.79534 
L 228.442909 378.423497 
L 228.578182 400.287704 
L 228.645818 399.531907 
L 229.322182 381.777465 
L 229.863273 374.11667 
L 230.472 368.66493 
L 232.365818 356.300007 
L 233.786182 347.572793 
L 234.192 342.184624 
L 234.394909 337.09212 
L 234.530182 329.908424 
L 234.597818 321.525302 
L 234.665455 286.874381 
L 234.733091 128.461387 
L 234.936 367.851929 
L 235.138909 399.82364 
L 236.356364 374.807301 
L 236.965091 369.117181 
L 238.385455 359.590584 
L 239.670545 350.84421 
L 240.076364 348.192602 
L 240.414545 346.38817 
L 240.685091 343.450046 
L 240.955636 337.299996 
L 241.090909 330.086206 
L 241.158545 321.641201 
L 241.226182 286.252879 
L 241.293818 128.110987 
L 241.496727 367.539166 
L 241.699636 399.486822 
L 242.984727 374.204197 
L 243.593455 368.538721 
L 244.608 361.586871 
L 246.434182 350.262563 
L 246.84 345.584875 
L 247.110545 340.169095 
L 247.313455 330.848142 
L 247.381091 322.884073 
L 247.448727 293.750462 
L 247.516364 122.050013 
L 247.719273 366.971236 
L 247.922182 400.367565 
L 248.936727 377.816676 
L 249.545455 371.042734 
L 250.289455 365.164075 
L 251.236364 359.503142 
L 251.777455 356.303064 
L 252.386182 351.210505 
L 252.994909 344.255469 
L 253.265455 338.553838 
L 253.400727 332.549042 
L 253.536 312.335439 
L 253.603636 127.718969 
L 253.671273 191.396945 
L 253.874182 381.528974 
L 254.009455 399.825924 
L 254.144727 396.979828 
L 254.685818 383.755347 
L 255.226909 375.28654 
L 255.768 369.88344 
L 256.579636 364.224618 
L 259.149818 346.946762 
L 259.488 342.798716 
L 259.758545 335.910442 
L 259.893818 326.953221 
L 259.961455 313.800288 
L 260.029091 146.335542 
L 260.096727 180.98983 
L 260.299636 379.105728 
L 260.434909 399.792677 
L 260.502545 399.190043 
L 261.314182 379.728151 
L 261.855273 372.608016 
L 262.464 367.473026 
L 265.169455 348.380985 
L 265.575273 342.807221 
L 265.845818 336.141734 
L 265.981091 329.090169 
L 266.048727 321.272082 
L 266.116364 292.644484 
L 266.184 126.688563 
L 266.386909 366.41025 
L 266.589818 398.823447 
L 267.739636 374.686563 
L 268.348364 368.700648 
L 269.227636 362.44036 
L 270.512727 353.411414 
L 271.053818 347.665679 
L 271.459636 340.88768 
L 271.662545 334.607872 
L 271.797818 324.01786 
L 271.865455 304.330891 
L 271.933091 115.48786 
L 272.000727 228.646561 
L 272.203636 385.6305 
L 272.338909 398.99075 
L 272.541818 393.807428 
L 273.082909 381.333189 
L 273.624 373.650511 
L 274.232727 368.261847 
L 276.870545 349.089322 
L 277.546909 341.544262 
L 277.749818 336.576912 
L 277.885091 329.666384 
L 277.952727 321.89015 
L 278.020364 293.781712 
L 278.088 124.1678 
L 278.290909 365.518329 
L 278.493818 398.777306 
L 278.832 389.702489 
L 279.373091 378.680269 
L 279.914182 371.897199 
L 280.590545 366.281504 
L 281.740364 358.72634 
L 282.890182 349.907479 
L 283.296 344.708194 
L 283.566545 339.151646 
L 283.769455 328.99686 
L 283.837091 319.037896 
L 283.972364 148.363795 
L 284.175273 373.64654 
L 284.310545 399.471641 
L 284.378182 399.349902 
L 285.257455 379.000682 
L 285.798545 372.169548 
L 286.339636 367.745676 
L 287.827636 358.951663 
L 288.368727 355.144908 
L 289.518545 344.890743 
L 289.856727 339.603049 
L 290.059636 333.154366 
L 290.194909 320.325573 
L 290.262545 283.664157 
L 290.330182 133.723191 
L 290.533091 368.14594 
L 290.736 398.428889 
L 291.953455 373.530114 
L 292.494545 368.47154 
L 293.779636 359.380358 
L 295.064727 350.111026 
L 295.470545 345.034543 
L 295.808727 338.121892 
L 296.011636 327.473219 
L 296.079273 316.245619 
L 296.214545 165.680187 
L 296.417455 376.185668 
L 296.552727 398.876133 
L 296.620364 398.472669 
L 297.432 379.350857 
L 297.973091 372.315341 
L 298.649455 366.58404 
L 299.934545 358.001091 
L 301.084364 349.836598 
L 301.557818 344.391256 
L 301.828364 338.399068 
L 301.963636 331.959245 
L 302.031273 325.284898 
L 302.098909 306.511948 
L 302.166545 112.022999 
L 302.234182 218.066789 
L 302.437091 385.48957 
L 302.572364 400.287527 
L 302.775273 394.831806 
L 303.316364 381.841989 
L 303.857455 374.009721 
L 304.533818 367.671287 
L 305.345455 362.043024 
L 306.36 355.366767 
L 307.306909 348.387031 
L 307.848 341.564954 
L 308.118545 334.542246 
L 308.253818 324.782779 
L 308.321455 308.437272 
L 308.389091 118.470964 
L 308.456727 208.955215 
L 308.659636 382.282235 
L 308.794909 398.644996 
L 308.930182 395.691927 
L 309.471273 382.028671 
L 310.012364 374.040672 
L 310.621091 368.334154 
L 311.703273 360.834008 
L 312.650182 353.698821 
L 313.326545 346.725592 
L 313.664727 341.151506 
L 313.867636 334.320618 
L 314.002909 320.59994 
L 314.070545 275.843644 
L 314.138182 137.409878 
L 314.341091 371.033181 
L 314.476364 398.863851 
L 314.544 399.009106 
L 315.490909 377.855489 
L 316.032 371.529788 
L 316.776 365.635728 
L 317.790545 359.236882 
L 318.940364 351.617748 
L 319.346182 346.902703 
L 319.616727 341.561053 
L 319.819636 333.434004 
L 319.954909 313.511923 
L 320.022545 128.308285 
L 320.090182 186.460424 
L 320.293091 381.784516 
L 320.428364 400.291342 
L 320.563636 397.139406 
L 321.104727 383.474304 
L 321.645818 375.126651 
L 322.254545 369.143238 
L 323.066182 363.513151 
L 324.621818 352.987498 
L 325.095273 348.102662 
L 325.433455 342.858386 
L 325.636364 337.365582 
L 325.771636 329.539016 
L 325.839273 319.927775 
L 325.974545 143.234707 
L 326.177455 373.1007 
L 326.312727 400.01445 
L 326.380364 399.904158 
L 327.259636 378.690497 
L 327.800727 371.91802 
L 328.477091 366.644953 
L 331.723636 345.090098 
L 331.994182 340.049774 
L 332.197091 331.238792 
L 332.264727 323.857152 
L 332.332364 299.823373 
L 332.4 115.657171 
L 332.602909 362.987424 
L 332.805818 399.67247 
L 333.076364 392.268985 
L 333.617455 380.112067 
L 334.158545 372.870841 
L 334.834909 366.895364 
L 335.984727 359.186568 
L 336.999273 352.984752 
L 337.337455 350.997426 
L 337.743273 346.786993 
L 338.081455 340.736117 
L 338.284364 331.991388 
L 338.352 324.888841 
L 338.419636 303.365344 
L 338.487273 112.45908 
L 338.554909 228.880623 
L 338.757818 386.662627 
L 338.893091 399.712685 
L 339.163636 392.415469 
L 339.704727 380.626152 
L 340.245818 373.285666 
L 340.922182 367.349656 
L 341.801455 361.582169 
L 342.613091 356.162345 
L 343.56 348.155971 
L 343.898182 344.165484 
L 344.168727 338.488957 
L 344.304 332.884814 
L 344.439273 315.736201 
L 344.574545 170.065898 
L 344.777455 377.299405 
L 344.912727 399.112367 
L 344.980364 398.547984 
L 345.724364 380.43799 
L 346.265455 373.112731 
L 346.941818 367.120409 
L 348.362182 356.948097 
L 349.241455 350.51141 
L 349.850182 344.10173 
L 350.188364 338.50395 
L 350.391273 331.011696 
L 350.526545 311.014032 
L 350.594182 133.235219 
L 350.661818 195.522534 
L 350.864727 379.80613 
L 351 398.18919 
L 351.135273 395.584762 
L 351.676364 382.013448 
L 352.217455 373.847162 
L 352.826182 367.892921 
L 353.908364 360.540996 
L 355.396364 349.832158 
L 355.937455 343.524447 
L 356.208 337.47182 
L 356.343273 331.093004 
L 356.410909 324.456373 
L 356.478545 305.625362 
L 356.546182 114.223134 
L 356.613818 221.756597 
L 356.816727 384.901099 
L 356.952 399.270344 
L 357.154909 393.812356 
L 357.696 380.906076 
L 358.237091 373.174314 
L 358.845818 367.656042 
L 360.604364 355.385356 
L 361.618909 348.459905 
L 361.957091 343.645565 
L 362.16 338.070944 
L 362.295273 329.866199 
L 362.362909 319.554641 
L 362.498182 147.601758 
L 362.701091 374.17017 
L 362.836364 399.825437 
L 362.904 399.593737 
L 363.715636 380.394489 
L 364.256727 373.165401 
L 364.933091 367.306574 
L 366.150545 359.664544 
L 367.232727 352.013484 
L 367.841455 345.777587 
L 368.179636 340.155731 
L 368.382545 334.178826 
L 368.517818 323.974298 
L 368.585455 305.584 
L 368.653091 116.291823 
L 368.720727 222.448684 
L 368.923636 383.690722 
L 369.058909 397.928857 
L 369.261818 392.872701 
L 369.802909 380.64581 
L 370.344 373.022052 
L 370.952727 367.564248 
L 372.711273 354.956863 
L 373.725818 348.361256 
L 374.131636 344.041507 
L 374.402182 338.16181 
L 374.537455 331.483615 
L 374.605091 324.288747 
L 374.672727 301.778038 
L 374.740364 114.043106 
L 374.808 233.465052 
L 375.010909 386.846625 
L 375.146182 399.880916 
L 375.416727 392.338667 
L 375.957818 380.41603 
L 376.498909 372.975129 
L 377.107636 367.585148 
L 380.016 346.170691 
L 380.354182 340.85955 
L 380.557091 334.92227 
L 380.692364 324.930132 
L 380.76 307.797664 
L 380.827636 115.526155 
L 380.895273 212.320015 
L 381.098182 382.854851 
L 381.233455 398.442891 
L 381.368727 395.56043 
L 381.909818 382.401628 
L 382.450909 374.063977 
L 383.059636 368.252153 
L 383.871273 362.762116 
L 384.682909 357.389167 
L 385.494545 350.517238 
L 385.968 344.930613 
L 386.238545 339.647213 
L 386.441455 330.852879 
L 386.509091 323.631734 
L 386.576727 300.79722 
L 386.644364 116.732189 
L 386.847273 363.534889 
L 387.050182 399.874383 
L 387.388364 390.060037 
L 387.861818 379.833234 
L 388.402909 372.558593 
L 389.079273 366.524642 
L 390.229091 358.430046 
L 391.243636 352.600937 
L 391.717091 348.655255 
L 392.055273 344.47142 
L 392.325818 337.933001 
L 392.461091 330.856287 
L 392.528727 323.005556 
L 392.596364 294.737094 
L 392.664 120.982488 
L 392.866909 366.067781 
L 393.069818 399.585642 
L 394.152 376.046105 
L 394.760727 369.543977 
L 395.707636 362.323949 
L 397.398545 349.986686 
L 397.804364 345.069582 
L 398.142545 337.9609 
L 398.277818 332.119751 
L 398.413091 313.424327 
L 398.480727 149.073418 
L 398.548364 184.232346 
L 398.751273 380.014672 
L 398.886545 399.629523 
L 399.021818 396.602138 
L 399.562909 382.151804 
L 400.036364 374.651945 
L 400.645091 368.729611 
L 401.659636 361.41817 
L 402.606545 354.481193 
L 403.215273 348.828344 
L 403.621091 342.996498 
L 403.824 337.491009 
L 403.959273 329.525287 
L 404.026909 319.659844 
L 404.162182 145.647171 
L 404.365091 373.73023 
L 404.500364 400.006451 
L 404.568 399.793045 
L 405.379636 379.780011 
L 405.920727 372.650757 
L 406.529455 367.54424 
L 408.626182 351.783785 
L 409.370182 345.589572 
L 409.640727 341.381826 
L 409.843636 335.315741 
L 409.978909 325.072499 
L 410.046545 307.188271 
L 410.114182 113.57162 
L 410.181818 215.12248 
L 410.384727 384.206884 
L 410.52 399.416783 
L 410.722909 394.069137 
L 411.264 380.998974 
L 411.805091 373.331781 
L 412.413818 367.799534 
L 413.428364 360.899484 
L 414.172364 355.45178 
L 414.984 347.872259 
L 415.389818 342.247988 
L 415.592727 337.109999 
L 415.728 330.248309 
L 415.795636 322.750463 
L 415.863273 297.489678 
L 415.930909 120.425807 
L 416.133818 364.812131 
L 416.336727 399.322815 
L 416.742545 387.735697 
L 417.283636 377.162263 
L 417.824727 370.889975 
L 418.636364 364.291231 
L 421.409455 344.604432 
L 421.68 340.115407 
L 421.882909 332.581775 
L 422.018182 313.666655 
L 422.085818 143.538715 
L 422.153455 181.345147 
L 422.356364 379.315991 
L 422.491636 399.934968 
L 422.626909 397.117355 
L 423.168 382.541471 
L 423.709091 374.175432 
L 424.317818 368.368159 
L 425.602909 359.0259 
L 426.549818 351.304559 
L 427.090909 345.016571 
L 427.429091 339.19498 
L 427.632 331.538466 
L 427.767273 310.958962 
L 427.834909 127.571936 
L 427.902545 197.814161 
L 428.105455 380.919711 
L 428.240727 398.384255 
L 428.376 395.569744 
L 428.917091 382.220122 
L 429.458182 374.076789 
L 430.066909 368.169471 
L 430.472727 365.015784 
L 430.675636 401.71896 
L 431.013818 414.282661 
L 431.554909 424.868427 
L 432.298909 435.329127 
L 433.042909 442.746849 
L 433.719273 447.416722 
L 434.395636 450.698284 
L 435.072 453.012616 
L 435.816 454.773873 
L 436.56 455.957042 
L 437.304 456.73932 
L 438.115636 457.282129 
L 439.062545 457.648586 
L 440.28 457.864363 
L 441.903273 457.903556 
L 445.149818 457.680846 
L 448.734545 457.578418 
L 463.479273 457.557981 
L 498.109091 457.56168 
L 498.109091 457.56168 
" clip-path="url(#p1bbf7e4c2f)" style="fill: none; stroke: #000000; stroke-width: 1.5; stroke-linecap: square"/>
   </g>
   <g id="line2d_14">
    <path d="M 497.973818 408.87 
" clip-path="url(#p1bbf7e4c2f)" style="fill: none; stroke: #000000; stroke-width: 1.5; stroke-linecap: square"/>
   </g>
   <g id="line2d_15">
    <path d="M 430.472727 368.1 
L 430.472727 365.382 
L 430.472727 362.664 
L 430.472727 359.946 
L 430.472727 357.228 
L 430.472727 354.51 
L 430.472727 351.792 
L 430.472727 349.074 
L 430.472727 346.356 
L 430.472727 343.638 
L 430.472727 340.92 
L 430.472727 338.202 
L 430.472727 335.484 
L 430.472727 332.766 
L 430.472727 330.048 
L 430.472727 327.33 
L 430.472727 324.612 
L 430.472727 321.894 
L 430.472727 319.176 
L 430.472727 316.458 
" clip-path="url(#p1bbf7e4c2f)" style="fill: none; stroke: #000000; stroke-width: 1.5; stroke-linecap: square"/>
   </g>
   <g id="patch_3">
    <path d="M 72 504 
L 72 69.12 
" style="fill: none; stroke: #000000; stroke-width: 0.8; stroke-linejoin: miter; stroke-linecap: square"/>
   </g>
   <g id="patch_4">
    <path d="M 518.4 504 
L 518.4 69.12 
" style="fill: none; stroke: #000000; stroke-width: 0.8; stroke-linejoin: miter; stroke-linecap: square"/>
   </g>
   <g id="patch_5">
    <path d="M 72 504 
L 518.4 504 
" style="fill: none; stroke: #000000; stroke-width: 0.8; stroke-linejoin: miter; stroke-linecap: square"/>
   </g>
   <g id="patch_6">
    <path d="M 72 69.12 
L 518.4 69.12 
" style="fill: none; stroke: #000000; stroke-width: 0.8; stroke-linejoin: miter; stroke-linecap: square"/>
   </g>
   <g id="text_15">
    <!-- 500 ms -->
    <g transform="translate(497.973818 406.152)scale(0.22 -0.22)">
     <defs>
      <path id="ArialMT-35" d="M 266 1200 
L 856 1250 
Q 922 819 1161 601 
Q 1400 384 1738 384 
Q 2144 384 2425 690 
Q 2706 997 2706 1503 
Q 2706 1984 2436 2262 
Q 2166 2541 1728 2541 
Q 1456 2541 1237 2417 
Q 1019 2294 894 2097 
L 366 2166 
L 809 4519 
L 3088 4519 
L 3088 3981 
L 1259 3981 
L 1013 2750 
Q 1425 3038 1878 3038 
Q 2478 3038 2890 2622 
Q 3303 2206 3303 1553 
Q 3303 931 2941 478 
Q 2500 -78 1738 -78 
Q 1113 -78 717 272 
Q 322 622 266 1200 
z
" transform="scale(0.015625)"/>
      <path id="ArialMT-30" d="M 266 2259 
Q 266 3072 433 3567 
Q 600 4063 929 4331 
Q 1259 4600 1759 4600 
Q 2128 4600 2406 4451 
Q 2684 4303 2865 4023 
Q 3047 3744 3150 3342 
Q 3253 2941 3253 2259 
Q 3253 1453 3087 958 
Q 2922 463 2592 192 
Q 2263 -78 1759 -78 
Q 1097 -78 719 397 
Q 266 969 266 2259 
z
M 844 2259 
Q 844 1131 1108 757 
Q 1372 384 1759 384 
Q 2147 384 2411 759 
Q 2675 1134 2675 2259 
Q 2675 3391 2411 3762 
Q 2147 4134 1753 4134 
Q 1366 4134 1134 3806 
Q 844 3388 844 2259 
z
" transform="scale(0.015625)"/>
     </defs>
     <use xlink:href="#ArialMT-35"/>
     <use xlink:href="#ArialMT-30" x="55.615234"/>
     <use xlink:href="#ArialMT-30" x="111.230469"/>
     <use xlink:href="#ArialMT-20" x="166.845703"/>
     <use xlink:href="#ArialMT-6d" x="194.628906"/>
     <use xlink:href="#ArialMT-73" x="277.929688"/>
    </g>
   </g>
   <g id="text_16">
    <!-- 20 mV -->
    <g transform="translate(504.737455 321.894)scale(0.22 -0.22)">
     <defs>
      <path id="ArialMT-32" d="M 3222 541 
L 3222 0 
L 194 0 
Q 188 203 259 391 
Q 375 700 629 1000 
Q 884 1300 1366 1694 
Q 2113 2306 2375 2664 
Q 2638 3022 2638 3341 
Q 2638 3675 2398 3904 
Q 2159 4134 1775 4134 
Q 1369 4134 1125 3890 
Q 881 3647 878 3216 
L 300 3275 
Q 359 3922 746 4261 
Q 1134 4600 1788 4600 
Q 2447 4600 2831 4234 
Q 3216 3869 3216 3328 
Q 3216 3053 3103 2787 
Q 2991 2522 2730 2228 
Q 2469 1934 1863 1422 
Q 1356 997 1212 845 
Q 1069 694 975 541 
L 3222 541 
z
" transform="scale(0.015625)"/>
     </defs>
     <use xlink:href="#ArialMT-32"/>
     <use xlink:href="#ArialMT-30" x="55.615234"/>
     <use xlink:href="#ArialMT-20" x="111.230469"/>
     <use xlink:href="#ArialMT-6d" x="139.013672"/>
     <use xlink:href="#ArialMT-56" x="222.314453"/>
    </g>
   </g>
   <g id="text_17">
    <!--  Plotting iSPN, trace number 7190  -->
    <g transform="translate(125.842969 63.12)scale(0.22 -0.22)">
     <defs>
      <path id="ArialMT-50" d="M 494 0 
L 494 4581 
L 2222 4581 
Q 2678 4581 2919 4538 
Q 3256 4481 3484 4323 
Q 3713 4166 3852 3881 
Q 3991 3597 3991 3256 
Q 3991 2672 3619 2267 
Q 3247 1863 2275 1863 
L 1100 1863 
L 1100 0 
L 494 0 
z
M 1100 2403 
L 2284 2403 
Q 2872 2403 3119 2622 
Q 3366 2841 3366 3238 
Q 3366 3525 3220 3729 
Q 3075 3934 2838 4000 
Q 2684 4041 2272 4041 
L 1100 4041 
L 1100 2403 
z
" transform="scale(0.015625)"/>
      <path id="ArialMT-67" d="M 319 -275 
L 866 -356 
Q 900 -609 1056 -725 
Q 1266 -881 1628 -881 
Q 2019 -881 2231 -725 
Q 2444 -569 2519 -288 
Q 2563 -116 2559 434 
Q 2191 0 1641 0 
Q 956 0 581 494 
Q 206 988 206 1678 
Q 206 2153 378 2554 
Q 550 2956 876 3175 
Q 1203 3394 1644 3394 
Q 2231 3394 2613 2919 
L 2613 3319 
L 3131 3319 
L 3131 450 
Q 3131 -325 2973 -648 
Q 2816 -972 2473 -1159 
Q 2131 -1347 1631 -1347 
Q 1038 -1347 672 -1080 
Q 306 -813 319 -275 
z
M 784 1719 
Q 784 1066 1043 766 
Q 1303 466 1694 466 
Q 2081 466 2343 764 
Q 2606 1063 2606 1700 
Q 2606 2309 2336 2618 
Q 2066 2928 1684 2928 
Q 1309 2928 1046 2623 
Q 784 2319 784 1719 
z
" transform="scale(0.015625)"/>
      <path id="ArialMT-53" d="M 288 1472 
L 859 1522 
Q 900 1178 1048 958 
Q 1197 738 1509 602 
Q 1822 466 2213 466 
Q 2559 466 2825 569 
Q 3091 672 3220 851 
Q 3350 1031 3350 1244 
Q 3350 1459 3225 1620 
Q 3100 1781 2813 1891 
Q 2628 1963 1997 2114 
Q 1366 2266 1113 2400 
Q 784 2572 623 2826 
Q 463 3081 463 3397 
Q 463 3744 659 4045 
Q 856 4347 1234 4503 
Q 1613 4659 2075 4659 
Q 2584 4659 2973 4495 
Q 3363 4331 3572 4012 
Q 3781 3694 3797 3291 
L 3216 3247 
Q 3169 3681 2898 3903 
Q 2628 4125 2100 4125 
Q 1550 4125 1298 3923 
Q 1047 3722 1047 3438 
Q 1047 3191 1225 3031 
Q 1400 2872 2139 2705 
Q 2878 2538 3153 2413 
Q 3553 2228 3743 1945 
Q 3934 1663 3934 1294 
Q 3934 928 3725 604 
Q 3516 281 3123 101 
Q 2731 -78 2241 -78 
Q 1619 -78 1198 103 
Q 778 284 539 648 
Q 300 1013 288 1472 
z
" transform="scale(0.015625)"/>
      <path id="ArialMT-4e" d="M 488 0 
L 488 4581 
L 1109 4581 
L 3516 984 
L 3516 4581 
L 4097 4581 
L 4097 0 
L 3475 0 
L 1069 3600 
L 1069 0 
L 488 0 
z
" transform="scale(0.015625)"/>
      <path id="ArialMT-2c" d="M 569 0 
L 569 641 
L 1209 641 
L 1209 0 
Q 1209 -353 1084 -570 
Q 959 -788 688 -906 
L 531 -666 
Q 709 -588 793 -436 
Q 878 -284 888 0 
L 569 0 
z
" transform="scale(0.015625)"/>
      <path id="ArialMT-63" d="M 2588 1216 
L 3141 1144 
Q 3050 572 2676 248 
Q 2303 -75 1759 -75 
Q 1078 -75 664 370 
Q 250 816 250 1647 
Q 250 2184 428 2587 
Q 606 2991 970 3192 
Q 1334 3394 1763 3394 
Q 2303 3394 2647 3120 
Q 2991 2847 3088 2344 
L 2541 2259 
Q 2463 2594 2264 2762 
Q 2066 2931 1784 2931 
Q 1359 2931 1093 2626 
Q 828 2322 828 1663 
Q 828 994 1084 691 
Q 1341 388 1753 388 
Q 2084 388 2306 591 
Q 2528 794 2588 1216 
z
" transform="scale(0.015625)"/>
      <path id="ArialMT-75" d="M 2597 0 
L 2597 488 
Q 2209 -75 1544 -75 
Q 1250 -75 995 37 
Q 741 150 617 320 
Q 494 491 444 738 
Q 409 903 409 1263 
L 409 3319 
L 972 3319 
L 972 1478 
Q 972 1038 1006 884 
Q 1059 663 1231 536 
Q 1403 409 1656 409 
Q 1909 409 2131 539 
Q 2353 669 2445 892 
Q 2538 1116 2538 1541 
L 2538 3319 
L 3100 3319 
L 3100 0 
L 2597 0 
z
" transform="scale(0.015625)"/>
      <path id="ArialMT-37" d="M 303 3981 
L 303 4522 
L 3269 4522 
L 3269 4084 
Q 2831 3619 2401 2847 
Q 1972 2075 1738 1259 
Q 1569 684 1522 0 
L 944 0 
Q 953 541 1156 1306 
Q 1359 2072 1739 2783 
Q 2119 3494 2547 3981 
L 303 3981 
z
" transform="scale(0.015625)"/>
      <path id="ArialMT-31" d="M 2384 0 
L 1822 0 
L 1822 3584 
Q 1619 3391 1289 3197 
Q 959 3003 697 2906 
L 697 3450 
Q 1169 3672 1522 3987 
Q 1875 4303 2022 4600 
L 2384 4600 
L 2384 0 
z
" transform="scale(0.015625)"/>
      <path id="ArialMT-39" d="M 350 1059 
L 891 1109 
Q 959 728 1153 556 
Q 1347 384 1650 384 
Q 1909 384 2104 503 
Q 2300 622 2425 820 
Q 2550 1019 2634 1356 
Q 2719 1694 2719 2044 
Q 2719 2081 2716 2156 
Q 2547 1888 2255 1720 
Q 1963 1553 1622 1553 
Q 1053 1553 659 1965 
Q 266 2378 266 3053 
Q 266 3750 677 4175 
Q 1088 4600 1706 4600 
Q 2153 4600 2523 4359 
Q 2894 4119 3086 3673 
Q 3278 3228 3278 2384 
Q 3278 1506 3087 986 
Q 2897 466 2520 194 
Q 2144 -78 1638 -78 
Q 1100 -78 759 220 
Q 419 519 350 1059 
z
M 2653 3081 
Q 2653 3566 2395 3850 
Q 2138 4134 1775 4134 
Q 1400 4134 1122 3828 
Q 844 3522 844 3034 
Q 844 2597 1108 2323 
Q 1372 2050 1759 2050 
Q 2150 2050 2401 2323 
Q 2653 2597 2653 3081 
z
" transform="scale(0.015625)"/>
     </defs>
     <use xlink:href="#ArialMT-20"/>
     <use xlink:href="#ArialMT-50" x="27.783203"/>
     <use xlink:href="#ArialMT-6c" x="94.482422"/>
     <use xlink:href="#ArialMT-6f" x="116.699219"/>
     <use xlink:href="#ArialMT-74" x="172.314453"/>
     <use xlink:href="#ArialMT-74" x="200.097656"/>
     <use xlink:href="#ArialMT-69" x="227.880859"/>
     <use xlink:href="#ArialMT-6e" x="250.097656"/>
     <use xlink:href="#ArialMT-67" x="305.712891"/>
     <use xlink:href="#ArialMT-20" x="361.328125"/>
     <use xlink:href="#ArialMT-69" x="389.111328"/>
     <use xlink:href="#ArialMT-53" x="411.328125"/>
     <use xlink:href="#ArialMT-50" x="478.027344"/>
     <use xlink:href="#ArialMT-4e" x="544.726562"/>
     <use xlink:href="#ArialMT-2c" x="616.943359"/>
     <use xlink:href="#ArialMT-20" x="644.726562"/>
     <use xlink:href="#ArialMT-74" x="672.509766"/>
     <use xlink:href="#ArialMT-72" x="700.292969"/>
     <use xlink:href="#ArialMT-61" x="733.59375"/>
     <use xlink:href="#ArialMT-63" x="789.208984"/>
     <use xlink:href="#ArialMT-65" x="839.208984"/>
     <use xlink:href="#ArialMT-20" x="894.824219"/>
     <use xlink:href="#ArialMT-6e" x="922.607422"/>
     <use xlink:href="#ArialMT-75" x="978.222656"/>
     <use xlink:href="#ArialMT-6d" x="1033.837891"/>
     <use xlink:href="#ArialMT-62" x="1117.138672"/>
     <use xlink:href="#ArialMT-65" x="1172.753906"/>
     <use xlink:href="#ArialMT-72" x="1228.369141"/>
     <use xlink:href="#ArialMT-20" x="1261.669922"/>
     <use xlink:href="#ArialMT-37" x="1289.453125"/>
     <use xlink:href="#ArialMT-31" x="1345.068359"/>
     <use xlink:href="#ArialMT-39" x="1400.683594"/>
     <use xlink:href="#ArialMT-30" x="1456.298828"/>
     <use xlink:href="#ArialMT-20" x="1511.914062"/>
    </g>
   </g>
  </g>
 </g>
 <defs>
  <clipPath id="p1bbf7e4c2f">
   <rect x="72" y="69.12" width="446.4" height="434.88"/>
  </clipPath>
 </defs>
</svg>
