<?xml version="1.0" encoding="utf-8" standalone="no"?>
<!DOCTYPE svg PUBLIC "-//W3C//DTD SVG 1.1//EN"
  "http://www.w3.org/Graphics/SVG/1.1/DTD/svg11.dtd">
<svg xmlns:xlink="http://www.w3.org/1999/xlink" width="576pt" height="576pt" viewBox="0 0 576 576" xmlns="http://www.w3.org/2000/svg" version="1.1">
 <metadata>
  <rdf:RDF xmlns:dc="http://purl.org/dc/elements/1.1/" xmlns:cc="http://creativecommons.org/ns#" xmlns:rdf="http://www.w3.org/1999/02/22-rdf-syntax-ns#">
   <cc:Work>
    <dc:type rdf:resource="http://purl.org/dc/dcmitype/StillImage"/>
    <dc:date>2022-10-30T19:57:17.122763</dc:date>
    <dc:format>image/svg+xml</dc:format>
    <dc:creator>
     <cc:Agent>
      <dc:title>Matplotlib v3.5.2, https://matplotlib.org/</dc:title>
     </cc:Agent>
    </dc:creator>
   </cc:Work>
  </rdf:RDF>
 </metadata>
 <defs>
  <style type="text/css">*{stroke-linejoin: round; stroke-linecap: butt}</style>
 </defs>
 <g id="figure_1">
  <g id="patch_1">
   <path d="M 0 576 
L 576 576 
L 576 0 
L 0 0 
L 0 576 
z
" style="fill: none"/>
  </g>
  <g id="axes_1">
   <g id="patch_2">
    <path d="M 72 504 
L 518.4 504 
L 518.4 69.12 
L 72 69.12 
z
" style="fill: #ffffff"/>
   </g>
   <g id="matplotlib.axis_1">
    <g id="xtick_1">
     <g id="line2d_1">
      <defs>
       <path id="me4d852f7ed" d="M 0 0 
L 0 3.5 
" style="stroke: #000000; stroke-width: 0.8"/>
      </defs>
      <g>
       <use xlink:href="#me4d852f7ed" x="92.290909" y="504" style="stroke: #000000; stroke-width: 0.8"/>
      </g>
     </g>
     <g id="text_1">
      <!-- 0 -->
      <g transform="translate(85.292159 527.716563)scale(0.22 -0.22)">
       <defs>
        <path id="DejaVuSans-30" d="M 2034 4250 
Q 1547 4250 1301 3770 
Q 1056 3291 1056 2328 
Q 1056 1369 1301 889 
Q 1547 409 2034 409 
Q 2525 409 2770 889 
Q 3016 1369 3016 2328 
Q 3016 3291 2770 3770 
Q 2525 4250 2034 4250 
z
M 2034 4750 
Q 2819 4750 3233 4129 
Q 3647 3509 3647 2328 
Q 3647 1150 3233 529 
Q 2819 -91 2034 -91 
Q 1250 -91 836 529 
Q 422 1150 422 2328 
Q 422 3509 836 4129 
Q 1250 4750 2034 4750 
z
" transform="scale(0.015625)"/>
       </defs>
       <use xlink:href="#DejaVuSans-30"/>
      </g>
     </g>
    </g>
    <g id="xtick_2">
     <g id="line2d_2">
      <g>
       <use xlink:href="#me4d852f7ed" x="227.563636" y="504" style="stroke: #000000; stroke-width: 0.8"/>
      </g>
     </g>
     <g id="text_2">
      <!-- 1000 -->
      <g transform="translate(199.568636 527.716563)scale(0.22 -0.22)">
       <defs>
        <path id="DejaVuSans-31" d="M 794 531 
L 1825 531 
L 1825 4091 
L 703 3866 
L 703 4441 
L 1819 4666 
L 2450 4666 
L 2450 531 
L 3481 531 
L 3481 0 
L 794 0 
L 794 531 
z
" transform="scale(0.015625)"/>
       </defs>
       <use xlink:href="#DejaVuSans-31"/>
       <use xlink:href="#DejaVuSans-30" x="63.623047"/>
       <use xlink:href="#DejaVuSans-30" x="127.246094"/>
       <use xlink:href="#DejaVuSans-30" x="190.869141"/>
      </g>
     </g>
    </g>
    <g id="xtick_3">
     <g id="line2d_3">
      <g>
       <use xlink:href="#me4d852f7ed" x="362.836364" y="504" style="stroke: #000000; stroke-width: 0.8"/>
      </g>
     </g>
     <g id="text_3">
      <!-- 2000 -->
      <g transform="translate(334.841364 527.716563)scale(0.22 -0.22)">
       <defs>
        <path id="DejaVuSans-32" d="M 1228 531 
L 3431 531 
L 3431 0 
L 469 0 
L 469 531 
Q 828 903 1448 1529 
Q 2069 2156 2228 2338 
Q 2531 2678 2651 2914 
Q 2772 3150 2772 3378 
Q 2772 3750 2511 3984 
Q 2250 4219 1831 4219 
Q 1534 4219 1204 4116 
Q 875 4013 500 3803 
L 500 4441 
Q 881 4594 1212 4672 
Q 1544 4750 1819 4750 
Q 2544 4750 2975 4387 
Q 3406 4025 3406 3419 
Q 3406 3131 3298 2873 
Q 3191 2616 2906 2266 
Q 2828 2175 2409 1742 
Q 1991 1309 1228 531 
z
" transform="scale(0.015625)"/>
       </defs>
       <use xlink:href="#DejaVuSans-32"/>
       <use xlink:href="#DejaVuSans-30" x="63.623047"/>
       <use xlink:href="#DejaVuSans-30" x="127.246094"/>
       <use xlink:href="#DejaVuSans-30" x="190.869141"/>
      </g>
     </g>
    </g>
    <g id="xtick_4">
     <g id="line2d_4">
      <g>
       <use xlink:href="#me4d852f7ed" x="498.109091" y="504" style="stroke: #000000; stroke-width: 0.8"/>
      </g>
     </g>
     <g id="text_4">
      <!-- 3000 -->
      <g transform="translate(470.114091 527.716563)scale(0.22 -0.22)">
       <defs>
        <path id="DejaVuSans-33" d="M 2597 2516 
Q 3050 2419 3304 2112 
Q 3559 1806 3559 1356 
Q 3559 666 3084 287 
Q 2609 -91 1734 -91 
Q 1441 -91 1130 -33 
Q 819 25 488 141 
L 488 750 
Q 750 597 1062 519 
Q 1375 441 1716 441 
Q 2309 441 2620 675 
Q 2931 909 2931 1356 
Q 2931 1769 2642 2001 
Q 2353 2234 1838 2234 
L 1294 2234 
L 1294 2753 
L 1863 2753 
Q 2328 2753 2575 2939 
Q 2822 3125 2822 3475 
Q 2822 3834 2567 4026 
Q 2313 4219 1838 4219 
Q 1578 4219 1281 4162 
Q 984 4106 628 3988 
L 628 4550 
Q 988 4650 1302 4700 
Q 1616 4750 1894 4750 
Q 2613 4750 3031 4423 
Q 3450 4097 3450 3541 
Q 3450 3153 3228 2886 
Q 3006 2619 2597 2516 
z
" transform="scale(0.015625)"/>
       </defs>
       <use xlink:href="#DejaVuSans-33"/>
       <use xlink:href="#DejaVuSans-30" x="63.623047"/>
       <use xlink:href="#DejaVuSans-30" x="127.246094"/>
       <use xlink:href="#DejaVuSans-30" x="190.869141"/>
      </g>
     </g>
    </g>
    <g id="text_5">
     <!-- Time(ms) -->
     <g transform="translate(249.182187 552.307188)scale(0.22 -0.22)">
      <defs>
       <path id="ArialMT-54" d="M 1659 0 
L 1659 4041 
L 150 4041 
L 150 4581 
L 3781 4581 
L 3781 4041 
L 2266 4041 
L 2266 0 
L 1659 0 
z
" transform="scale(0.015625)"/>
       <path id="ArialMT-69" d="M 425 3934 
L 425 4581 
L 988 4581 
L 988 3934 
L 425 3934 
z
M 425 0 
L 425 3319 
L 988 3319 
L 988 0 
L 425 0 
z
" transform="scale(0.015625)"/>
       <path id="ArialMT-6d" d="M 422 0 
L 422 3319 
L 925 3319 
L 925 2853 
Q 1081 3097 1340 3245 
Q 1600 3394 1931 3394 
Q 2300 3394 2536 3241 
Q 2772 3088 2869 2813 
Q 3263 3394 3894 3394 
Q 4388 3394 4653 3120 
Q 4919 2847 4919 2278 
L 4919 0 
L 4359 0 
L 4359 2091 
Q 4359 2428 4304 2576 
Q 4250 2725 4106 2815 
Q 3963 2906 3769 2906 
Q 3419 2906 3187 2673 
Q 2956 2441 2956 1928 
L 2956 0 
L 2394 0 
L 2394 2156 
Q 2394 2531 2256 2718 
Q 2119 2906 1806 2906 
Q 1569 2906 1367 2781 
Q 1166 2656 1075 2415 
Q 984 2175 984 1722 
L 984 0 
L 422 0 
z
" transform="scale(0.015625)"/>
       <path id="ArialMT-65" d="M 2694 1069 
L 3275 997 
Q 3138 488 2766 206 
Q 2394 -75 1816 -75 
Q 1088 -75 661 373 
Q 234 822 234 1631 
Q 234 2469 665 2931 
Q 1097 3394 1784 3394 
Q 2450 3394 2872 2941 
Q 3294 2488 3294 1666 
Q 3294 1616 3291 1516 
L 816 1516 
Q 847 969 1125 678 
Q 1403 388 1819 388 
Q 2128 388 2347 550 
Q 2566 713 2694 1069 
z
M 847 1978 
L 2700 1978 
Q 2663 2397 2488 2606 
Q 2219 2931 1791 2931 
Q 1403 2931 1139 2672 
Q 875 2413 847 1978 
z
" transform="scale(0.015625)"/>
       <path id="ArialMT-28" d="M 1497 -1347 
Q 1031 -759 709 28 
Q 388 816 388 1659 
Q 388 2403 628 3084 
Q 909 3875 1497 4659 
L 1900 4659 
Q 1522 4009 1400 3731 
Q 1209 3300 1100 2831 
Q 966 2247 966 1656 
Q 966 153 1900 -1347 
L 1497 -1347 
z
" transform="scale(0.015625)"/>
       <path id="ArialMT-73" d="M 197 991 
L 753 1078 
Q 800 744 1014 566 
Q 1228 388 1613 388 
Q 2000 388 2187 545 
Q 2375 703 2375 916 
Q 2375 1106 2209 1216 
Q 2094 1291 1634 1406 
Q 1016 1563 777 1677 
Q 538 1791 414 1992 
Q 291 2194 291 2438 
Q 291 2659 392 2848 
Q 494 3038 669 3163 
Q 800 3259 1026 3326 
Q 1253 3394 1513 3394 
Q 1903 3394 2198 3281 
Q 2494 3169 2634 2976 
Q 2775 2784 2828 2463 
L 2278 2388 
Q 2241 2644 2061 2787 
Q 1881 2931 1553 2931 
Q 1166 2931 1000 2803 
Q 834 2675 834 2503 
Q 834 2394 903 2306 
Q 972 2216 1119 2156 
Q 1203 2125 1616 2013 
Q 2213 1853 2448 1751 
Q 2684 1650 2818 1456 
Q 2953 1263 2953 975 
Q 2953 694 2789 445 
Q 2625 197 2315 61 
Q 2006 -75 1616 -75 
Q 969 -75 630 194 
Q 291 463 197 991 
z
" transform="scale(0.015625)"/>
       <path id="ArialMT-29" d="M 791 -1347 
L 388 -1347 
Q 1322 153 1322 1656 
Q 1322 2244 1188 2822 
Q 1081 3291 891 3722 
Q 769 4003 388 4659 
L 791 4659 
Q 1378 3875 1659 3084 
Q 1900 2403 1900 1659 
Q 1900 816 1576 28 
Q 1253 -759 791 -1347 
z
" transform="scale(0.015625)"/>
      </defs>
      <use xlink:href="#ArialMT-54"/>
      <use xlink:href="#ArialMT-69" x="57.333984"/>
      <use xlink:href="#ArialMT-6d" x="79.550781"/>
      <use xlink:href="#ArialMT-65" x="162.851562"/>
      <use xlink:href="#ArialMT-28" x="218.466797"/>
      <use xlink:href="#ArialMT-6d" x="251.767578"/>
      <use xlink:href="#ArialMT-73" x="335.068359"/>
      <use xlink:href="#ArialMT-29" x="385.068359"/>
     </g>
    </g>
   </g>
   <g id="matplotlib.axis_2">
    <g id="ytick_1">
     <g id="line2d_5">
      <defs>
       <path id="m1b226a7b25" d="M 0 0 
L -3.5 0 
" style="stroke: #000000; stroke-width: 0.8"/>
      </defs>
      <g>
       <use xlink:href="#m1b226a7b25" x="72" y="476.82" style="stroke: #000000; stroke-width: 0.8"/>
      </g>
     </g>
     <g id="text_6">
      <!-- −100 -->
      <g transform="translate(4.572187 485.178281)scale(0.22 -0.22)">
       <defs>
        <path id="DejaVuSans-2212" d="M 678 2272 
L 4684 2272 
L 4684 1741 
L 678 1741 
L 678 2272 
z
" transform="scale(0.015625)"/>
       </defs>
       <use xlink:href="#DejaVuSans-2212"/>
       <use xlink:href="#DejaVuSans-31" x="83.789062"/>
       <use xlink:href="#DejaVuSans-30" x="147.412109"/>
       <use xlink:href="#DejaVuSans-30" x="211.035156"/>
      </g>
     </g>
    </g>
    <g id="ytick_2">
     <g id="line2d_6">
      <g>
       <use xlink:href="#m1b226a7b25" x="72" y="422.46" style="stroke: #000000; stroke-width: 0.8"/>
      </g>
     </g>
     <g id="text_7">
      <!-- −80 -->
      <g transform="translate(18.569688 430.818281)scale(0.22 -0.22)">
       <defs>
        <path id="DejaVuSans-38" d="M 2034 2216 
Q 1584 2216 1326 1975 
Q 1069 1734 1069 1313 
Q 1069 891 1326 650 
Q 1584 409 2034 409 
Q 2484 409 2743 651 
Q 3003 894 3003 1313 
Q 3003 1734 2745 1975 
Q 2488 2216 2034 2216 
z
M 1403 2484 
Q 997 2584 770 2862 
Q 544 3141 544 3541 
Q 544 4100 942 4425 
Q 1341 4750 2034 4750 
Q 2731 4750 3128 4425 
Q 3525 4100 3525 3541 
Q 3525 3141 3298 2862 
Q 3072 2584 2669 2484 
Q 3125 2378 3379 2068 
Q 3634 1759 3634 1313 
Q 3634 634 3220 271 
Q 2806 -91 2034 -91 
Q 1263 -91 848 271 
Q 434 634 434 1313 
Q 434 1759 690 2068 
Q 947 2378 1403 2484 
z
M 1172 3481 
Q 1172 3119 1398 2916 
Q 1625 2713 2034 2713 
Q 2441 2713 2670 2916 
Q 2900 3119 2900 3481 
Q 2900 3844 2670 4047 
Q 2441 4250 2034 4250 
Q 1625 4250 1398 4047 
Q 1172 3844 1172 3481 
z
" transform="scale(0.015625)"/>
       </defs>
       <use xlink:href="#DejaVuSans-2212"/>
       <use xlink:href="#DejaVuSans-38" x="83.789062"/>
       <use xlink:href="#DejaVuSans-30" x="147.412109"/>
      </g>
     </g>
    </g>
    <g id="ytick_3">
     <g id="line2d_7">
      <g>
       <use xlink:href="#m1b226a7b25" x="72" y="368.1" style="stroke: #000000; stroke-width: 0.8"/>
      </g>
     </g>
     <g id="text_8">
      <!-- −60 -->
      <g transform="translate(18.569688 376.458281)scale(0.22 -0.22)">
       <defs>
        <path id="DejaVuSans-36" d="M 2113 2584 
Q 1688 2584 1439 2293 
Q 1191 2003 1191 1497 
Q 1191 994 1439 701 
Q 1688 409 2113 409 
Q 2538 409 2786 701 
Q 3034 994 3034 1497 
Q 3034 2003 2786 2293 
Q 2538 2584 2113 2584 
z
M 3366 4563 
L 3366 3988 
Q 3128 4100 2886 4159 
Q 2644 4219 2406 4219 
Q 1781 4219 1451 3797 
Q 1122 3375 1075 2522 
Q 1259 2794 1537 2939 
Q 1816 3084 2150 3084 
Q 2853 3084 3261 2657 
Q 3669 2231 3669 1497 
Q 3669 778 3244 343 
Q 2819 -91 2113 -91 
Q 1303 -91 875 529 
Q 447 1150 447 2328 
Q 447 3434 972 4092 
Q 1497 4750 2381 4750 
Q 2619 4750 2861 4703 
Q 3103 4656 3366 4563 
z
" transform="scale(0.015625)"/>
       </defs>
       <use xlink:href="#DejaVuSans-2212"/>
       <use xlink:href="#DejaVuSans-36" x="83.789062"/>
       <use xlink:href="#DejaVuSans-30" x="147.412109"/>
      </g>
     </g>
    </g>
    <g id="ytick_4">
     <g id="line2d_8">
      <g>
       <use xlink:href="#m1b226a7b25" x="72" y="313.74" style="stroke: #000000; stroke-width: 0.8"/>
      </g>
     </g>
     <g id="text_9">
      <!-- −40 -->
      <g transform="translate(18.569688 322.098281)scale(0.22 -0.22)">
       <defs>
        <path id="DejaVuSans-34" d="M 2419 4116 
L 825 1625 
L 2419 1625 
L 2419 4116 
z
M 2253 4666 
L 3047 4666 
L 3047 1625 
L 3713 1625 
L 3713 1100 
L 3047 1100 
L 3047 0 
L 2419 0 
L 2419 1100 
L 313 1100 
L 313 1709 
L 2253 4666 
z
" transform="scale(0.015625)"/>
       </defs>
       <use xlink:href="#DejaVuSans-2212"/>
       <use xlink:href="#DejaVuSans-34" x="83.789062"/>
       <use xlink:href="#DejaVuSans-30" x="147.412109"/>
      </g>
     </g>
    </g>
    <g id="ytick_5">
     <g id="line2d_9">
      <g>
       <use xlink:href="#m1b226a7b25" x="72" y="259.38" style="stroke: #000000; stroke-width: 0.8"/>
      </g>
     </g>
     <g id="text_10">
      <!-- −20 -->
      <g transform="translate(18.569688 267.738281)scale(0.22 -0.22)">
       <use xlink:href="#DejaVuSans-2212"/>
       <use xlink:href="#DejaVuSans-32" x="83.789062"/>
       <use xlink:href="#DejaVuSans-30" x="147.412109"/>
      </g>
     </g>
    </g>
    <g id="ytick_6">
     <g id="line2d_10">
      <g>
       <use xlink:href="#m1b226a7b25" x="72" y="205.02" style="stroke: #000000; stroke-width: 0.8"/>
      </g>
     </g>
     <g id="text_11">
      <!-- 0 -->
      <g transform="translate(51.0025 213.378281)scale(0.22 -0.22)">
       <use xlink:href="#DejaVuSans-30"/>
      </g>
     </g>
    </g>
    <g id="ytick_7">
     <g id="line2d_11">
      <g>
       <use xlink:href="#m1b226a7b25" x="72" y="150.66" style="stroke: #000000; stroke-width: 0.8"/>
      </g>
     </g>
     <g id="text_12">
      <!-- 20 -->
      <g transform="translate(37.005 159.018281)scale(0.22 -0.22)">
       <use xlink:href="#DejaVuSans-32"/>
       <use xlink:href="#DejaVuSans-30" x="63.623047"/>
      </g>
     </g>
    </g>
    <g id="ytick_8">
     <g id="line2d_12">
      <g>
       <use xlink:href="#m1b226a7b25" x="72" y="96.3" style="stroke: #000000; stroke-width: 0.8"/>
      </g>
     </g>
     <g id="text_13">
      <!-- 40 -->
      <g transform="translate(37.005 104.658281)scale(0.22 -0.22)">
       <use xlink:href="#DejaVuSans-34"/>
       <use xlink:href="#DejaVuSans-30" x="63.623047"/>
      </g>
     </g>
    </g>
    <g id="text_14">
     <!-- Membrane potential (mV) -->
     <g transform="translate(-4.058125 410.655469)rotate(-90)scale(0.22 -0.22)">
      <defs>
       <path id="ArialMT-4d" d="M 475 0 
L 475 4581 
L 1388 4581 
L 2472 1338 
Q 2622 884 2691 659 
Q 2769 909 2934 1394 
L 4031 4581 
L 4847 4581 
L 4847 0 
L 4263 0 
L 4263 3834 
L 2931 0 
L 2384 0 
L 1059 3900 
L 1059 0 
L 475 0 
z
" transform="scale(0.015625)"/>
       <path id="ArialMT-62" d="M 941 0 
L 419 0 
L 419 4581 
L 981 4581 
L 981 2947 
Q 1338 3394 1891 3394 
Q 2197 3394 2470 3270 
Q 2744 3147 2920 2923 
Q 3097 2700 3197 2384 
Q 3297 2069 3297 1709 
Q 3297 856 2875 390 
Q 2453 -75 1863 -75 
Q 1275 -75 941 416 
L 941 0 
z
M 934 1684 
Q 934 1088 1097 822 
Q 1363 388 1816 388 
Q 2184 388 2453 708 
Q 2722 1028 2722 1663 
Q 2722 2313 2464 2622 
Q 2206 2931 1841 2931 
Q 1472 2931 1203 2611 
Q 934 2291 934 1684 
z
" transform="scale(0.015625)"/>
       <path id="ArialMT-72" d="M 416 0 
L 416 3319 
L 922 3319 
L 922 2816 
Q 1116 3169 1280 3281 
Q 1444 3394 1641 3394 
Q 1925 3394 2219 3213 
L 2025 2691 
Q 1819 2813 1613 2813 
Q 1428 2813 1281 2702 
Q 1134 2591 1072 2394 
Q 978 2094 978 1738 
L 978 0 
L 416 0 
z
" transform="scale(0.015625)"/>
       <path id="ArialMT-61" d="M 2588 409 
Q 2275 144 1986 34 
Q 1697 -75 1366 -75 
Q 819 -75 525 192 
Q 231 459 231 875 
Q 231 1119 342 1320 
Q 453 1522 633 1644 
Q 813 1766 1038 1828 
Q 1203 1872 1538 1913 
Q 2219 1994 2541 2106 
Q 2544 2222 2544 2253 
Q 2544 2597 2384 2738 
Q 2169 2928 1744 2928 
Q 1347 2928 1158 2789 
Q 969 2650 878 2297 
L 328 2372 
Q 403 2725 575 2942 
Q 747 3159 1072 3276 
Q 1397 3394 1825 3394 
Q 2250 3394 2515 3294 
Q 2781 3194 2906 3042 
Q 3031 2891 3081 2659 
Q 3109 2516 3109 2141 
L 3109 1391 
Q 3109 606 3145 398 
Q 3181 191 3288 0 
L 2700 0 
Q 2613 175 2588 409 
z
M 2541 1666 
Q 2234 1541 1622 1453 
Q 1275 1403 1131 1340 
Q 988 1278 909 1158 
Q 831 1038 831 891 
Q 831 666 1001 516 
Q 1172 366 1500 366 
Q 1825 366 2078 508 
Q 2331 650 2450 897 
Q 2541 1088 2541 1459 
L 2541 1666 
z
" transform="scale(0.015625)"/>
       <path id="ArialMT-6e" d="M 422 0 
L 422 3319 
L 928 3319 
L 928 2847 
Q 1294 3394 1984 3394 
Q 2284 3394 2536 3286 
Q 2788 3178 2913 3003 
Q 3038 2828 3088 2588 
Q 3119 2431 3119 2041 
L 3119 0 
L 2556 0 
L 2556 2019 
Q 2556 2363 2490 2533 
Q 2425 2703 2258 2804 
Q 2091 2906 1866 2906 
Q 1506 2906 1245 2678 
Q 984 2450 984 1813 
L 984 0 
L 422 0 
z
" transform="scale(0.015625)"/>
       <path id="ArialMT-20" transform="scale(0.015625)"/>
       <path id="ArialMT-70" d="M 422 -1272 
L 422 3319 
L 934 3319 
L 934 2888 
Q 1116 3141 1344 3267 
Q 1572 3394 1897 3394 
Q 2322 3394 2647 3175 
Q 2972 2956 3137 2557 
Q 3303 2159 3303 1684 
Q 3303 1175 3120 767 
Q 2938 359 2589 142 
Q 2241 -75 1856 -75 
Q 1575 -75 1351 44 
Q 1128 163 984 344 
L 984 -1272 
L 422 -1272 
z
M 931 1641 
Q 931 1000 1190 694 
Q 1450 388 1819 388 
Q 2194 388 2461 705 
Q 2728 1022 2728 1688 
Q 2728 2322 2467 2637 
Q 2206 2953 1844 2953 
Q 1484 2953 1207 2617 
Q 931 2281 931 1641 
z
" transform="scale(0.015625)"/>
       <path id="ArialMT-6f" d="M 213 1659 
Q 213 2581 725 3025 
Q 1153 3394 1769 3394 
Q 2453 3394 2887 2945 
Q 3322 2497 3322 1706 
Q 3322 1066 3130 698 
Q 2938 331 2570 128 
Q 2203 -75 1769 -75 
Q 1072 -75 642 372 
Q 213 819 213 1659 
z
M 791 1659 
Q 791 1022 1069 705 
Q 1347 388 1769 388 
Q 2188 388 2466 706 
Q 2744 1025 2744 1678 
Q 2744 2294 2464 2611 
Q 2184 2928 1769 2928 
Q 1347 2928 1069 2612 
Q 791 2297 791 1659 
z
" transform="scale(0.015625)"/>
       <path id="ArialMT-74" d="M 1650 503 
L 1731 6 
Q 1494 -44 1306 -44 
Q 1000 -44 831 53 
Q 663 150 594 308 
Q 525 466 525 972 
L 525 2881 
L 113 2881 
L 113 3319 
L 525 3319 
L 525 4141 
L 1084 4478 
L 1084 3319 
L 1650 3319 
L 1650 2881 
L 1084 2881 
L 1084 941 
Q 1084 700 1114 631 
Q 1144 563 1211 522 
Q 1278 481 1403 481 
Q 1497 481 1650 503 
z
" transform="scale(0.015625)"/>
       <path id="ArialMT-6c" d="M 409 0 
L 409 4581 
L 972 4581 
L 972 0 
L 409 0 
z
" transform="scale(0.015625)"/>
       <path id="ArialMT-56" d="M 1803 0 
L 28 4581 
L 684 4581 
L 1875 1253 
Q 2019 853 2116 503 
Q 2222 878 2363 1253 
L 3600 4581 
L 4219 4581 
L 2425 0 
L 1803 0 
z
" transform="scale(0.015625)"/>
      </defs>
      <use xlink:href="#ArialMT-4d"/>
      <use xlink:href="#ArialMT-65" x="83.300781"/>
      <use xlink:href="#ArialMT-6d" x="138.916016"/>
      <use xlink:href="#ArialMT-62" x="222.216797"/>
      <use xlink:href="#ArialMT-72" x="277.832031"/>
      <use xlink:href="#ArialMT-61" x="311.132812"/>
      <use xlink:href="#ArialMT-6e" x="366.748047"/>
      <use xlink:href="#ArialMT-65" x="422.363281"/>
      <use xlink:href="#ArialMT-20" x="477.978516"/>
      <use xlink:href="#ArialMT-70" x="505.761719"/>
      <use xlink:href="#ArialMT-6f" x="561.376953"/>
      <use xlink:href="#ArialMT-74" x="616.992188"/>
      <use xlink:href="#ArialMT-65" x="644.775391"/>
      <use xlink:href="#ArialMT-6e" x="700.390625"/>
      <use xlink:href="#ArialMT-74" x="756.005859"/>
      <use xlink:href="#ArialMT-69" x="783.789062"/>
      <use xlink:href="#ArialMT-61" x="806.005859"/>
      <use xlink:href="#ArialMT-6c" x="861.621094"/>
      <use xlink:href="#ArialMT-20" x="883.837891"/>
      <use xlink:href="#ArialMT-28" x="911.621094"/>
      <use xlink:href="#ArialMT-6d" x="944.921875"/>
      <use xlink:href="#ArialMT-56" x="1028.222656"/>
      <use xlink:href="#ArialMT-29" x="1094.921875"/>
     </g>
    </g>
   </g>
   <g id="line2d_13">
    <path d="M 92.290909 460.512 
L 92.493818 466.008407 
L 92.832 468.248433 
L 93.305455 469.933143 
L 93.846545 471.146795 
L 94.455273 471.982513 
L 95.131636 472.508486 
L 95.943273 472.829392 
L 97.093091 473.014719 
L 99.325091 473.096501 
L 111.432 473.106977 
L 159.927273 473.106984 
L 160.130182 451.259553 
L 160.468364 440.234454 
L 161.009455 429.944236 
L 161.685818 421.213194 
L 162.429818 414.339078 
L 163.309091 408.332067 
L 164.256 403.418178 
L 165.270545 399.284603 
L 166.420364 395.526326 
L 167.705455 392.101379 
L 169.125818 388.949183 
L 170.816727 385.756697 
L 172.981091 382.183005 
L 176.498182 376.838021 
L 177.377455 375.63158 
L 178.933091 373.097607 
L 180.353455 370.374989 
L 181.435636 367.81326 
L 182.314909 365.1292 
L 182.991273 362.966675 
L 183.194182 362.793392 
L 183.464727 362.14002 
L 183.870545 360.41372 
L 184.344 357.404299 
L 184.749818 353.458079 
L 185.088 347.893238 
L 185.290909 341.694717 
L 185.426182 333.399965 
L 185.493818 324.632552 
L 185.561455 295.683638 
L 185.629091 167.350726 
L 185.832 372.008347 
L 186.034909 387.178507 
L 186.237818 383.501793 
L 186.643636 376.507629 
L 187.117091 372.277571 
L 187.455273 371.014526 
L 188.943273 367.178211 
L 189.213818 366.78261 
L 189.619636 365.684881 
L 190.160727 363.490956 
L 190.904727 359.558088 
L 191.378182 355.859809 
L 191.716364 351.666501 
L 191.986909 345.941023 
L 192.189818 337.290716 
L 192.325091 320.421187 
L 192.460364 212.890075 
L 192.663273 376.216362 
L 192.798545 386.659878 
L 192.866182 386.543782 
L 193.813091 373.259851 
L 194.286545 371.149798 
L 195.030545 368.839461 
L 195.436364 368.240116 
L 195.977455 366.953143 
L 197.465455 361.918075 
L 198.006545 358.632571 
L 198.48 354.259526 
L 198.818182 349.01373 
L 199.088727 340.633598 
L 199.224 330.705316 
L 199.291636 318.281558 
L 199.359273 204.860542 
L 199.426909 232.405378 
L 199.629818 377.811288 
L 199.765091 387.029529 
L 199.832727 386.729875 
L 200.712 372.852009 
L 201.117818 370.749621 
L 202.402909 365.432668 
L 203.011636 362.837561 
L 203.485091 360.211353 
L 203.755636 357.735937 
L 204.499636 347.766007 
L 204.770182 339.235182 
L 204.905455 328.259984 
L 204.973091 312.336271 
L 205.040727 143.070145 
L 205.243636 364.626408 
L 205.446545 386.978223 
L 205.581818 385.109284 
L 206.055273 376.514441 
L 206.461091 373.37461 
L 207.002182 371.134718 
L 209.166545 363.222676 
L 209.707636 360.319306 
L 210.113455 356.936201 
L 210.722182 348.282253 
L 210.925091 342.469071 
L 211.060364 334.999586 
L 211.195636 309.785381 
L 211.263273 140.613788 
L 211.466182 366.737332 
L 211.669091 386.59245 
L 211.804364 384.618118 
L 212.277818 375.956766 
L 212.683636 372.662627 
L 213.292364 369.949683 
L 214.712727 364.357443 
L 215.186182 361.39919 
L 215.524364 358.042953 
L 216.336 346.451389 
L 216.606545 336.597717 
L 216.741818 323.362381 
L 216.809455 296.820322 
L 216.877091 167.724754 
L 217.08 369.84711 
L 217.282909 385.126468 
L 217.485818 381.505921 
L 217.959273 373.46922 
L 218.365091 370.787589 
L 218.906182 368.740486 
L 220.191273 364.452915 
L 220.8 361.490066 
L 221.341091 357.592335 
L 221.814545 352.621187 
L 222.152727 347.964494 
L 222.355636 342.573978 
L 222.490909 335.438547 
L 222.626182 313.219338 
L 222.693818 144.882573 
L 222.896727 363.635404 
L 223.099636 385.724445 
L 223.234909 384.02261 
L 223.708364 375.838799 
L 224.114182 372.794477 
L 224.655273 370.738425 
L 225.466909 368.342611 
L 226.143273 366.930984 
L 226.819636 365.509532 
L 227.157818 364.817678 
L 227.698909 363.088876 
L 228.307636 360.294419 
L 228.781091 357.119586 
L 229.254545 352.394164 
L 229.525091 348.001945 
L 229.728 342.200107 
L 229.863273 334.76594 
L 229.998545 309.421814 
L 230.066182 140.874717 
L 230.269091 366.84502 
L 230.472 387.229729 
L 230.607273 385.326572 
L 231.148364 375.614161 
L 231.554182 372.233356 
L 232.230545 368.783118 
L 233.448 364.23855 
L 234.056727 360.998065 
L 234.597818 356.993808 
L 235.003636 352.284384 
L 235.341818 345.312798 
L 235.544727 336.087598 
L 235.68 315.722714 
L 235.747636 160.918255 
L 235.815273 253.297347 
L 236.018182 378.887368 
L 236.153455 386.93437 
L 236.221091 386.516869 
L 237.100364 372.477815 
L 237.912 367.725808 
L 238.723636 364.709513 
L 239.129455 362.781703 
L 239.467636 360.971531 
L 240.211636 356.175805 
L 240.617455 351.642575 
L 240.888 346.475057 
L 241.090909 339.061241 
L 241.226182 327.094916 
L 241.293818 307.633037 
L 241.361455 143.093569 
L 241.564364 367.725849 
L 241.767273 386.960268 
L 241.902545 384.985171 
L 242.443636 375.303645 
L 242.849455 372.152321 
L 243.525818 368.930432 
L 244.134545 365.933237 
L 244.878545 361.352481 
L 245.284364 358.501814 
L 245.893091 351.055562 
L 246.163636 345.498175 
L 246.366545 337.250643 
L 246.501818 321.763628 
L 246.637091 196.332996 
L 246.84 374.541601 
L 246.975273 386.458788 
L 247.042909 386.445106 
L 247.989818 372.741447 
L 248.395636 371.077583 
L 250.56 363.782426 
L 251.168727 360.290869 
L 251.439273 357.751881 
L 252.115636 348.518662 
L 252.318545 342.829379 
L 252.453818 335.159634 
L 252.589091 309.191751 
L 252.656727 140.181183 
L 252.859636 367.366943 
L 253.062545 387.429142 
L 253.197818 385.637002 
L 253.738909 376.377064 
L 254.144727 373.414545 
L 254.821091 370.469782 
L 257.120727 361.475297 
L 257.797091 357.37318 
L 258.202909 353.342152 
L 258.541091 347.179449 
L 258.744 339.323182 
L 258.879273 326.731322 
L 258.946909 306.107566 
L 259.014545 145.995446 
L 259.217455 368.812589 
L 259.420364 386.948239 
L 259.555636 384.904838 
L 260.029091 376.243401 
L 260.434909 372.634447 
L 260.976 369.98308 
L 263.275636 359.741094 
L 263.749091 355.691471 
L 264.087273 351.100632 
L 264.425455 343.735381 
L 264.628364 333.710932 
L 264.696 325.955399 
L 264.763636 304.785185 
L 264.831273 149.375595 
L 265.034182 367.941535 
L 265.237091 385.293564 
L 265.372364 383.180036 
L 265.913455 372.979117 
L 266.251636 370.267693 
L 266.792727 367.867757 
L 268.077818 362.632199 
L 268.686545 358.599642 
L 269.092364 354.679265 
L 269.430545 349.020152 
L 269.701091 340.58203 
L 269.836364 332.106209 
L 269.904 323.068654 
L 269.971636 291.356964 
L 270.039273 177.099404 
L 270.242182 371.665712 
L 270.377455 384.901231 
L 270.445091 385.070495 
L 270.715636 379.708393 
L 271.121455 373.442513 
L 271.594909 369.552856 
L 272.000727 367.802914 
L 273.150545 364.461367 
L 273.826909 361.424094 
L 274.368 358.027703 
L 274.773818 354.212822 
L 275.247273 347.478072 
L 275.450182 341.910338 
L 275.585455 334.625257 
L 275.720727 310.196907 
L 275.788364 141.478571 
L 275.991273 365.756196 
L 276.194182 386.646419 
L 276.329455 384.750171 
L 276.870545 374.669052 
L 277.344 370.076053 
L 277.749818 368.468428 
L 278.493818 365.706794 
L 278.832 363.841155 
L 279.170182 362.063089 
L 279.778909 359.459468 
L 280.252364 356.11745 
L 280.725818 350.855374 
L 280.996364 346.211595 
L 281.199273 339.400851 
L 281.334545 328.920224 
L 281.402182 314.624089 
L 281.469818 157.766894 
L 281.672727 362.121292 
L 281.875636 386.183583 
L 281.943273 385.768051 
L 282.754909 372.754027 
L 283.566545 366.995971 
L 283.972364 365.446011 
L 284.581091 363.209021 
L 285.325091 359.338986 
L 285.798545 355.46726 
L 286.339636 348.532674 
L 286.542545 343.39891 
L 286.745455 331.062853 
L 286.813091 319.81561 
L 286.948364 215.44237 
L 287.151273 376.263284 
L 287.286545 386.948272 
L 287.354182 386.921544 
L 287.692364 380.291467 
L 288.098182 374.936837 
L 288.504 372.297057 
L 289.180364 369.564468 
L 289.856727 366.703287 
L 290.330182 364.218795 
L 290.668364 362.41222 
L 291.209455 359.560087 
L 291.615273 357.676433 
L 292.021091 354.49899 
L 292.359273 350.069686 
L 292.629818 343.520063 
L 292.832727 331.561003 
L 292.900364 320.699777 
L 293.035636 208.411088 
L 293.238545 375.527865 
L 293.373818 386.403374 
L 293.441455 386.309496 
L 293.847273 377.965615 
L 294.253091 372.685073 
L 294.726545 369.414864 
L 296.011636 361.967725 
L 296.620364 356.333054 
L 297.093818 352.202183 
L 297.432 346.649603 
L 297.634909 340.045189 
L 297.770182 330.345131 
L 297.837818 318.271366 
L 297.905455 218.899083 
L 297.973091 229.100997 
L 298.176 376.711281 
L 298.311273 386.264434 
L 298.378909 386.046507 
L 299.325818 372.1181 
L 299.866909 369.599969 
L 301.693091 361.997461 
L 302.098909 359.803129 
L 302.842909 352.254147 
L 303.113455 347.270102 
L 303.316364 340.316402 
L 303.451636 329.987614 
L 303.519273 316.425781 
L 303.586909 169.22865 
L 303.654545 247.842327 
L 303.857455 378.110074 
L 303.992727 386.240143 
L 304.060364 385.833335 
L 304.872 372.747453 
L 305.277818 370.510843 
L 307.104 363.436867 
L 307.577455 361.552974 
L 308.118545 358.301206 
L 308.524364 354.379736 
L 308.930182 347.028006 
L 309.133091 340.360557 
L 309.268364 330.767012 
L 309.336 319.028132 
L 309.471273 223.664216 
L 309.674182 376.729305 
L 309.809455 386.759662 
L 309.877091 386.635986 
L 310.282909 378.560552 
L 310.688727 373.286635 
L 311.094545 370.595788 
L 313.191273 359.840484 
L 313.529455 356.469332 
L 314.205818 347.705852 
L 314.476364 339.67831 
L 314.611636 329.67459 
L 314.679273 316.610951 
L 314.746909 184.342023 
L 314.814545 243.39914 
L 315.017455 377.801501 
L 315.152727 386.790712 
L 315.220364 386.556508 
L 316.167273 372.680969 
L 316.708364 370.065272 
L 317.384727 367.833943 
L 317.993455 365.795108 
L 318.669818 362.805317 
L 319.278545 358.899658 
L 319.684364 355.129683 
L 320.022545 350.110056 
L 320.293091 342.630923 
L 320.428364 334.787847 
L 320.496 326.955049 
L 320.563636 305.562645 
L 320.631273 146.509104 
L 320.834182 368.866955 
L 321.037091 386.399896 
L 321.24 381.991956 
L 321.645818 374.33215 
L 322.051636 370.96393 
L 322.457455 369.572892 
L 323.269091 367.724293 
L 324.216 364.911131 
L 324.892364 362.066036 
L 325.433455 358.831896 
L 325.906909 354.411346 
L 326.245091 349.14258 
L 326.515636 340.890392 
L 326.650909 331.295112 
L 326.718545 319.728397 
L 326.853818 219.334614 
L 327.056727 376.622847 
L 327.192 386.598948 
L 327.259636 386.354019 
L 328.138909 372.116844 
L 328.68 369.011265 
L 330.100364 363.313663 
L 330.438545 360.764662 
L 331.317818 352.996405 
L 331.656 347.72925 
L 331.926545 339.182182 
L 332.061818 328.197008 
L 332.129455 312.216518 
L 332.197091 142.974049 
L 332.4 364.428604 
L 332.602909 386.718525 
L 332.738182 385.045448 
L 333.279273 375.343208 
L 333.752727 371.360934 
L 334.226182 369.750017 
L 334.970182 367.226224 
L 335.781818 363.798883 
L 336.390545 360.491598 
L 336.999273 356.020385 
L 337.405091 351.155256 
L 337.675636 345.37492 
L 337.878545 336.279496 
L 338.013818 316.567413 
L 338.081455 172.538606 
L 338.149091 246.403949 
L 338.352 378.425443 
L 338.487273 386.758971 
L 338.554909 386.335238 
L 339.501818 370.466488 
L 339.84 368.554157 
L 341.666182 361.779675 
L 342.274909 358.311064 
L 342.748364 354.069683 
L 343.154182 348.107233 
L 343.424727 339.597877 
L 343.56 328.849899 
L 343.627636 313.782864 
L 343.695273 147.259052 
L 343.898182 363.716489 
L 344.101091 386.801568 
L 344.236364 385.020919 
L 344.777455 375.106046 
L 345.318545 370.300616 
L 345.994909 367.365641 
L 346.738909 364.561198 
L 347.347636 361.368954 
L 347.685818 358.268807 
L 348.362182 350.936203 
L 348.632727 345.103858 
L 348.835636 335.89996 
L 348.970909 315.208964 
L 349.038545 156.495662 
L 349.106182 256.795554 
L 349.309091 378.894267 
L 349.444364 386.614399 
L 349.579636 384.908539 
L 350.120727 375.112261 
L 350.594182 371.095713 
L 350.932364 369.080457 
L 352.488 362.647256 
L 353.299636 357.502305 
L 353.705455 353.943473 
L 354.043636 348.9763 
L 354.314182 341.093193 
L 354.449455 332.120639 
L 354.517091 321.922186 
L 354.652364 196.394652 
L 354.855273 374.798332 
L 354.990545 386.497671 
L 355.058182 386.468955 
L 355.396364 379.373031 
L 355.802182 373.318892 
L 356.343273 368.964209 
L 357.290182 362.589322 
L 357.831273 359.20847 
L 358.304727 354.781542 
L 358.642909 349.489389 
L 358.913455 341.245068 
L 359.048727 331.844634 
L 359.116364 320.928095 
L 359.251636 208.203915 
L 359.454545 376.144785 
L 359.589818 387.099791 
L 359.657455 386.986631 
L 359.928 380.809955 
L 360.333818 373.403205 
L 360.807273 369.270253 
L 361.416 366.05655 
L 362.295273 361.153378 
L 362.768727 357.39195 
L 363.106909 352.830805 
L 363.445091 345.416068 
L 363.648 335.244582 
L 363.783273 310.02609 
L 363.850909 139.568037 
L 364.053818 366.910533 
L 364.256727 387.066902 
L 364.392 385.092771 
L 364.933091 375.189523 
L 365.338909 371.659529 
L 365.947636 368.404536 
L 366.826909 363.853258 
L 367.165091 361.31136 
L 368.179636 350.041272 
L 368.450182 342.651384 
L 368.585455 334.934982 
L 368.720727 307.383991 
L 368.788364 143.030013 
L 368.991273 367.859212 
L 369.194182 386.10114 
L 369.329455 383.939764 
L 369.870545 373.770995 
L 370.344 369.233722 
L 371.223273 363.725069 
L 371.764364 361.610893 
L 372.237818 358.715345 
L 372.711273 354.275691 
L 373.049455 348.94222 
L 373.32 340.334636 
L 373.455273 329.991164 
L 373.522909 316.473248 
L 373.590545 170.383606 
L 373.658182 247.486333 
L 373.861091 378.388847 
L 373.996364 386.584742 
L 374.064 386.137726 
L 375.078545 369.073439 
L 376.972364 357.532403 
L 377.445818 352.187056 
L 377.716364 347.051685 
L 377.919273 339.843251 
L 378.054545 328.783243 
L 378.122182 312.995206 
L 378.189818 142.063903 
L 378.392727 364.331672 
L 378.595636 386.098117 
L 378.730909 383.932029 
L 379.272 373.36235 
L 379.745455 369.060843 
L 380.421818 363.562618 
L 380.76 361.094083 
L 381.301091 357.860305 
L 381.842182 352.776793 
L 382.112727 348.80734 
L 382.383273 340.889991 
L 382.518545 331.907182 
L 382.586182 321.827991 
L 382.721455 195.013791 
L 382.924364 374.343627 
L 383.059636 386.430637 
L 383.127273 386.48899 
L 383.397818 380.666129 
L 383.803636 373.308891 
L 384.277091 368.946214 
L 385.156364 363.302571 
L 385.765091 359.312038 
L 386.170909 355.291452 
L 386.441455 350.712881 
L 386.712 343.219623 
L 386.914909 329.622975 
L 386.982545 315.321391 
L 387.050182 154.869805 
L 387.117818 257.491695 
L 387.320727 378.953936 
L 387.456 386.092137 
L 387.591273 384.115164 
L 388.132364 374.147928 
L 388.605818 370.201554 
L 390.432 358.391732 
L 390.905455 353.180227 
L 391.176 347.874988 
L 391.378909 340.414008 
L 391.514182 329.828103 
L 391.581818 315.846751 
L 391.649455 159.725551 
L 391.717091 253.345592 
L 391.92 378.974403 
L 392.055273 386.768489 
L 392.190545 384.898064 
L 392.664 375.275411 
L 393.069818 371.508524 
L 393.746182 367.676597 
L 394.152 364.866803 
L 394.625455 362.284106 
L 395.166545 359.010891 
L 395.64 354.738134 
L 395.978182 349.59065 
L 396.248727 341.645437 
L 396.384 333.066059 
L 396.451636 323.837335 
L 396.519273 290.292054 
L 396.586909 176.698723 
L 396.789818 372.830718 
L 396.925091 386.344589 
L 396.992727 386.570825 
L 397.195636 382.573589 
L 397.669091 373.985989 
L 398.142545 369.387352 
L 398.616 366.884945 
L 399.224727 363.568033 
L 400.036364 357.109502 
L 400.374545 352.45974 
L 400.712727 345.368789 
L 400.915636 336.967791 
L 401.050909 320.938542 
L 401.186182 204.420899 
L 401.389091 375.153764 
L 401.524364 386.439362 
L 401.592 386.392356 
L 401.930182 379.24439 
L 402.336 373.284263 
L 402.809455 369.553012 
L 403.688727 364.648588 
L 403.959273 362.952962 
L 405.041455 354.777386 
L 405.379636 349.25594 
L 405.650182 340.468841 
L 405.785455 329.337664 
L 405.853091 313.455629 
L 405.920727 139.657562 
L 406.123636 364.741487 
L 406.326545 386.650253 
L 406.461818 384.719167 
L 407.002909 374.784425 
L 407.408727 371.374376 
L 408.085091 367.851352 
L 409.573091 360.383889 
L 410.046545 356.055655 
L 410.52 348.335155 
L 410.790545 339.78774 
L 410.925818 329.214602 
L 410.993455 314.790475 
L 411.061091 154.263255 
L 411.264 362.677076 
L 411.466909 386.487832 
L 411.602182 384.706578 
L 412.143273 374.093816 
L 412.616727 369.022821 
L 413.225455 366.030766 
L 414.442909 359.588983 
L 414.916364 355.352238 
L 415.254545 350.339373 
L 415.525091 342.972874 
L 415.660364 335.53049 
L 415.795636 311.399756 
L 415.863273 138.801861 
L 416.066182 365.597697 
L 416.269091 386.131141 
L 416.404364 384.091017 
L 416.945455 373.669458 
L 417.418909 369.141527 
L 419.448 353.728439 
L 419.786182 349.501793 
L 420.056727 343.040311 
L 420.259636 330.853908 
L 420.327273 319.424929 
L 420.462545 218.784363 
L 420.665455 376.090582 
L 420.800727 386.328913 
L 420.868364 386.179055 
L 421.274182 377.714042 
L 421.747636 371.172146 
L 422.153455 368.376914 
L 423.709091 359.412353 
L 424.182545 354.741587 
L 424.656 347.037592 
L 424.858909 340.823493 
L 424.994182 332.085667 
L 425.061818 322.315498 
L 425.197091 189.344955 
L 425.4 373.184913 
L 425.535273 385.612458 
L 425.602909 385.75494 
L 425.805818 381.70194 
L 426.279273 373.049411 
L 426.752727 368.854512 
L 428.511273 355.813403 
L 428.849455 351.31663 
L 429.12 345.154592 
L 429.322909 335.339515 
L 429.458182 311.387258 
L 429.525818 139.434789 
L 429.728727 365.843423 
L 429.931636 386.770567 
L 430.066909 384.744803 
L 430.472727 376.586159 
L 430.675636 398.220317 
L 431.149091 414.259665 
L 432.231273 442.0914 
L 432.907636 454.763854 
L 433.516364 462.268742 
L 434.057455 466.497917 
L 434.598545 469.155164 
L 435.139636 470.787929 
L 435.680727 471.775733 
L 436.289455 472.420666 
L 436.965818 472.805248 
L 437.845091 473.036891 
L 439.265455 473.150533 
L 443.120727 473.146046 
L 461.112 473.106689 
L 498.109091 473.106671 
L 498.109091 473.106671 
" clip-path="url(#p2d587d1bdd)" style="fill: none; stroke: #000000; stroke-width: 1.5; stroke-linecap: square"/>
   </g>
   <g id="line2d_14">
    <path d="M 497.973818 408.87 
" clip-path="url(#p2d587d1bdd)" style="fill: none; stroke: #000000; stroke-width: 1.5; stroke-linecap: square"/>
   </g>
   <g id="line2d_15">
    <path d="M 430.472727 368.1 
L 430.472727 365.382 
L 430.472727 362.664 
L 430.472727 359.946 
L 430.472727 357.228 
L 430.472727 354.51 
L 430.472727 351.792 
L 430.472727 349.074 
L 430.472727 346.356 
L 430.472727 343.638 
L 430.472727 340.92 
L 430.472727 338.202 
L 430.472727 335.484 
L 430.472727 332.766 
L 430.472727 330.048 
L 430.472727 327.33 
L 430.472727 324.612 
L 430.472727 321.894 
L 430.472727 319.176 
L 430.472727 316.458 
" clip-path="url(#p2d587d1bdd)" style="fill: none; stroke: #000000; stroke-width: 1.5; stroke-linecap: square"/>
   </g>
   <g id="patch_3">
    <path d="M 72 504 
L 72 69.12 
" style="fill: none; stroke: #000000; stroke-width: 0.8; stroke-linejoin: miter; stroke-linecap: square"/>
   </g>
   <g id="patch_4">
    <path d="M 518.4 504 
L 518.4 69.12 
" style="fill: none; stroke: #000000; stroke-width: 0.8; stroke-linejoin: miter; stroke-linecap: square"/>
   </g>
   <g id="patch_5">
    <path d="M 72 504 
L 518.4 504 
" style="fill: none; stroke: #000000; stroke-width: 0.8; stroke-linejoin: miter; stroke-linecap: square"/>
   </g>
   <g id="patch_6">
    <path d="M 72 69.12 
L 518.4 69.12 
" style="fill: none; stroke: #000000; stroke-width: 0.8; stroke-linejoin: miter; stroke-linecap: square"/>
   </g>
   <g id="text_15">
    <!-- 500 ms -->
    <g transform="translate(497.973818 406.152)scale(0.22 -0.22)">
     <defs>
      <path id="ArialMT-35" d="M 266 1200 
L 856 1250 
Q 922 819 1161 601 
Q 1400 384 1738 384 
Q 2144 384 2425 690 
Q 2706 997 2706 1503 
Q 2706 1984 2436 2262 
Q 2166 2541 1728 2541 
Q 1456 2541 1237 2417 
Q 1019 2294 894 2097 
L 366 2166 
L 809 4519 
L 3088 4519 
L 3088 3981 
L 1259 3981 
L 1013 2750 
Q 1425 3038 1878 3038 
Q 2478 3038 2890 2622 
Q 3303 2206 3303 1553 
Q 3303 931 2941 478 
Q 2500 -78 1738 -78 
Q 1113 -78 717 272 
Q 322 622 266 1200 
z
" transform="scale(0.015625)"/>
      <path id="ArialMT-30" d="M 266 2259 
Q 266 3072 433 3567 
Q 600 4063 929 4331 
Q 1259 4600 1759 4600 
Q 2128 4600 2406 4451 
Q 2684 4303 2865 4023 
Q 3047 3744 3150 3342 
Q 3253 2941 3253 2259 
Q 3253 1453 3087 958 
Q 2922 463 2592 192 
Q 2263 -78 1759 -78 
Q 1097 -78 719 397 
Q 266 969 266 2259 
z
M 844 2259 
Q 844 1131 1108 757 
Q 1372 384 1759 384 
Q 2147 384 2411 759 
Q 2675 1134 2675 2259 
Q 2675 3391 2411 3762 
Q 2147 4134 1753 4134 
Q 1366 4134 1134 3806 
Q 844 3388 844 2259 
z
" transform="scale(0.015625)"/>
     </defs>
     <use xlink:href="#ArialMT-35"/>
     <use xlink:href="#ArialMT-30" x="55.615234"/>
     <use xlink:href="#ArialMT-30" x="111.230469"/>
     <use xlink:href="#ArialMT-20" x="166.845703"/>
     <use xlink:href="#ArialMT-6d" x="194.628906"/>
     <use xlink:href="#ArialMT-73" x="277.929688"/>
    </g>
   </g>
   <g id="text_16">
    <!-- 20 mV -->
    <g transform="translate(504.737455 321.894)scale(0.22 -0.22)">
     <defs>
      <path id="ArialMT-32" d="M 3222 541 
L 3222 0 
L 194 0 
Q 188 203 259 391 
Q 375 700 629 1000 
Q 884 1300 1366 1694 
Q 2113 2306 2375 2664 
Q 2638 3022 2638 3341 
Q 2638 3675 2398 3904 
Q 2159 4134 1775 4134 
Q 1369 4134 1125 3890 
Q 881 3647 878 3216 
L 300 3275 
Q 359 3922 746 4261 
Q 1134 4600 1788 4600 
Q 2447 4600 2831 4234 
Q 3216 3869 3216 3328 
Q 3216 3053 3103 2787 
Q 2991 2522 2730 2228 
Q 2469 1934 1863 1422 
Q 1356 997 1212 845 
Q 1069 694 975 541 
L 3222 541 
z
" transform="scale(0.015625)"/>
     </defs>
     <use xlink:href="#ArialMT-32"/>
     <use xlink:href="#ArialMT-30" x="55.615234"/>
     <use xlink:href="#ArialMT-20" x="111.230469"/>
     <use xlink:href="#ArialMT-6d" x="139.013672"/>
     <use xlink:href="#ArialMT-56" x="222.314453"/>
    </g>
   </g>
   <g id="text_17">
    <!--  Plotting FS, trace number 4789  -->
    <g transform="translate(136.849844 63.12)scale(0.22 -0.22)">
     <defs>
      <path id="ArialMT-50" d="M 494 0 
L 494 4581 
L 2222 4581 
Q 2678 4581 2919 4538 
Q 3256 4481 3484 4323 
Q 3713 4166 3852 3881 
Q 3991 3597 3991 3256 
Q 3991 2672 3619 2267 
Q 3247 1863 2275 1863 
L 1100 1863 
L 1100 0 
L 494 0 
z
M 1100 2403 
L 2284 2403 
Q 2872 2403 3119 2622 
Q 3366 2841 3366 3238 
Q 3366 3525 3220 3729 
Q 3075 3934 2838 4000 
Q 2684 4041 2272 4041 
L 1100 4041 
L 1100 2403 
z
" transform="scale(0.015625)"/>
      <path id="ArialMT-67" d="M 319 -275 
L 866 -356 
Q 900 -609 1056 -725 
Q 1266 -881 1628 -881 
Q 2019 -881 2231 -725 
Q 2444 -569 2519 -288 
Q 2563 -116 2559 434 
Q 2191 0 1641 0 
Q 956 0 581 494 
Q 206 988 206 1678 
Q 206 2153 378 2554 
Q 550 2956 876 3175 
Q 1203 3394 1644 3394 
Q 2231 3394 2613 2919 
L 2613 3319 
L 3131 3319 
L 3131 450 
Q 3131 -325 2973 -648 
Q 2816 -972 2473 -1159 
Q 2131 -1347 1631 -1347 
Q 1038 -1347 672 -1080 
Q 306 -813 319 -275 
z
M 784 1719 
Q 784 1066 1043 766 
Q 1303 466 1694 466 
Q 2081 466 2343 764 
Q 2606 1063 2606 1700 
Q 2606 2309 2336 2618 
Q 2066 2928 1684 2928 
Q 1309 2928 1046 2623 
Q 784 2319 784 1719 
z
" transform="scale(0.015625)"/>
      <path id="ArialMT-46" d="M 525 0 
L 525 4581 
L 3616 4581 
L 3616 4041 
L 1131 4041 
L 1131 2622 
L 3281 2622 
L 3281 2081 
L 1131 2081 
L 1131 0 
L 525 0 
z
" transform="scale(0.015625)"/>
      <path id="ArialMT-53" d="M 288 1472 
L 859 1522 
Q 900 1178 1048 958 
Q 1197 738 1509 602 
Q 1822 466 2213 466 
Q 2559 466 2825 569 
Q 3091 672 3220 851 
Q 3350 1031 3350 1244 
Q 3350 1459 3225 1620 
Q 3100 1781 2813 1891 
Q 2628 1963 1997 2114 
Q 1366 2266 1113 2400 
Q 784 2572 623 2826 
Q 463 3081 463 3397 
Q 463 3744 659 4045 
Q 856 4347 1234 4503 
Q 1613 4659 2075 4659 
Q 2584 4659 2973 4495 
Q 3363 4331 3572 4012 
Q 3781 3694 3797 3291 
L 3216 3247 
Q 3169 3681 2898 3903 
Q 2628 4125 2100 4125 
Q 1550 4125 1298 3923 
Q 1047 3722 1047 3438 
Q 1047 3191 1225 3031 
Q 1400 2872 2139 2705 
Q 2878 2538 3153 2413 
Q 3553 2228 3743 1945 
Q 3934 1663 3934 1294 
Q 3934 928 3725 604 
Q 3516 281 3123 101 
Q 2731 -78 2241 -78 
Q 1619 -78 1198 103 
Q 778 284 539 648 
Q 300 1013 288 1472 
z
" transform="scale(0.015625)"/>
      <path id="ArialMT-2c" d="M 569 0 
L 569 641 
L 1209 641 
L 1209 0 
Q 1209 -353 1084 -570 
Q 959 -788 688 -906 
L 531 -666 
Q 709 -588 793 -436 
Q 878 -284 888 0 
L 569 0 
z
" transform="scale(0.015625)"/>
      <path id="ArialMT-63" d="M 2588 1216 
L 3141 1144 
Q 3050 572 2676 248 
Q 2303 -75 1759 -75 
Q 1078 -75 664 370 
Q 250 816 250 1647 
Q 250 2184 428 2587 
Q 606 2991 970 3192 
Q 1334 3394 1763 3394 
Q 2303 3394 2647 3120 
Q 2991 2847 3088 2344 
L 2541 2259 
Q 2463 2594 2264 2762 
Q 2066 2931 1784 2931 
Q 1359 2931 1093 2626 
Q 828 2322 828 1663 
Q 828 994 1084 691 
Q 1341 388 1753 388 
Q 2084 388 2306 591 
Q 2528 794 2588 1216 
z
" transform="scale(0.015625)"/>
      <path id="ArialMT-75" d="M 2597 0 
L 2597 488 
Q 2209 -75 1544 -75 
Q 1250 -75 995 37 
Q 741 150 617 320 
Q 494 491 444 738 
Q 409 903 409 1263 
L 409 3319 
L 972 3319 
L 972 1478 
Q 972 1038 1006 884 
Q 1059 663 1231 536 
Q 1403 409 1656 409 
Q 1909 409 2131 539 
Q 2353 669 2445 892 
Q 2538 1116 2538 1541 
L 2538 3319 
L 3100 3319 
L 3100 0 
L 2597 0 
z
" transform="scale(0.015625)"/>
      <path id="ArialMT-34" d="M 2069 0 
L 2069 1097 
L 81 1097 
L 81 1613 
L 2172 4581 
L 2631 4581 
L 2631 1613 
L 3250 1613 
L 3250 1097 
L 2631 1097 
L 2631 0 
L 2069 0 
z
M 2069 1613 
L 2069 3678 
L 634 1613 
L 2069 1613 
z
" transform="scale(0.015625)"/>
      <path id="ArialMT-37" d="M 303 3981 
L 303 4522 
L 3269 4522 
L 3269 4084 
Q 2831 3619 2401 2847 
Q 1972 2075 1738 1259 
Q 1569 684 1522 0 
L 944 0 
Q 953 541 1156 1306 
Q 1359 2072 1739 2783 
Q 2119 3494 2547 3981 
L 303 3981 
z
" transform="scale(0.015625)"/>
      <path id="ArialMT-38" d="M 1131 2484 
Q 781 2613 612 2850 
Q 444 3088 444 3419 
Q 444 3919 803 4259 
Q 1163 4600 1759 4600 
Q 2359 4600 2725 4251 
Q 3091 3903 3091 3403 
Q 3091 3084 2923 2848 
Q 2756 2613 2416 2484 
Q 2838 2347 3058 2040 
Q 3278 1734 3278 1309 
Q 3278 722 2862 322 
Q 2447 -78 1769 -78 
Q 1091 -78 675 323 
Q 259 725 259 1325 
Q 259 1772 486 2073 
Q 713 2375 1131 2484 
z
M 1019 3438 
Q 1019 3113 1228 2906 
Q 1438 2700 1772 2700 
Q 2097 2700 2305 2904 
Q 2513 3109 2513 3406 
Q 2513 3716 2298 3927 
Q 2084 4138 1766 4138 
Q 1444 4138 1231 3931 
Q 1019 3725 1019 3438 
z
M 838 1322 
Q 838 1081 952 856 
Q 1066 631 1291 507 
Q 1516 384 1775 384 
Q 2178 384 2440 643 
Q 2703 903 2703 1303 
Q 2703 1709 2433 1975 
Q 2163 2241 1756 2241 
Q 1359 2241 1098 1978 
Q 838 1716 838 1322 
z
" transform="scale(0.015625)"/>
      <path id="ArialMT-39" d="M 350 1059 
L 891 1109 
Q 959 728 1153 556 
Q 1347 384 1650 384 
Q 1909 384 2104 503 
Q 2300 622 2425 820 
Q 2550 1019 2634 1356 
Q 2719 1694 2719 2044 
Q 2719 2081 2716 2156 
Q 2547 1888 2255 1720 
Q 1963 1553 1622 1553 
Q 1053 1553 659 1965 
Q 266 2378 266 3053 
Q 266 3750 677 4175 
Q 1088 4600 1706 4600 
Q 2153 4600 2523 4359 
Q 2894 4119 3086 3673 
Q 3278 3228 3278 2384 
Q 3278 1506 3087 986 
Q 2897 466 2520 194 
Q 2144 -78 1638 -78 
Q 1100 -78 759 220 
Q 419 519 350 1059 
z
M 2653 3081 
Q 2653 3566 2395 3850 
Q 2138 4134 1775 4134 
Q 1400 4134 1122 3828 
Q 844 3522 844 3034 
Q 844 2597 1108 2323 
Q 1372 2050 1759 2050 
Q 2150 2050 2401 2323 
Q 2653 2597 2653 3081 
z
" transform="scale(0.015625)"/>
     </defs>
     <use xlink:href="#ArialMT-20"/>
     <use xlink:href="#ArialMT-50" x="27.783203"/>
     <use xlink:href="#ArialMT-6c" x="94.482422"/>
     <use xlink:href="#ArialMT-6f" x="116.699219"/>
     <use xlink:href="#ArialMT-74" x="172.314453"/>
     <use xlink:href="#ArialMT-74" x="200.097656"/>
     <use xlink:href="#ArialMT-69" x="227.880859"/>
     <use xlink:href="#ArialMT-6e" x="250.097656"/>
     <use xlink:href="#ArialMT-67" x="305.712891"/>
     <use xlink:href="#ArialMT-20" x="361.328125"/>
     <use xlink:href="#ArialMT-46" x="389.111328"/>
     <use xlink:href="#ArialMT-53" x="450.195312"/>
     <use xlink:href="#ArialMT-2c" x="516.894531"/>
     <use xlink:href="#ArialMT-20" x="544.677734"/>
     <use xlink:href="#ArialMT-74" x="572.460938"/>
     <use xlink:href="#ArialMT-72" x="600.244141"/>
     <use xlink:href="#ArialMT-61" x="633.544922"/>
     <use xlink:href="#ArialMT-63" x="689.160156"/>
     <use xlink:href="#ArialMT-65" x="739.160156"/>
     <use xlink:href="#ArialMT-20" x="794.775391"/>
     <use xlink:href="#ArialMT-6e" x="822.558594"/>
     <use xlink:href="#ArialMT-75" x="878.173828"/>
     <use xlink:href="#ArialMT-6d" x="933.789062"/>
     <use xlink:href="#ArialMT-62" x="1017.089844"/>
     <use xlink:href="#ArialMT-65" x="1072.705078"/>
     <use xlink:href="#ArialMT-72" x="1128.320312"/>
     <use xlink:href="#ArialMT-20" x="1161.621094"/>
     <use xlink:href="#ArialMT-34" x="1189.404297"/>
     <use xlink:href="#ArialMT-37" x="1245.019531"/>
     <use xlink:href="#ArialMT-38" x="1300.634766"/>
     <use xlink:href="#ArialMT-39" x="1356.25"/>
     <use xlink:href="#ArialMT-20" x="1411.865234"/>
    </g>
   </g>
  </g>
 </g>
 <defs>
  <clipPath id="p2d587d1bdd">
   <rect x="72" y="69.12" width="446.4" height="434.88"/>
  </clipPath>
 </defs>
</svg>
