<?xml version="1.0" encoding="utf-8" standalone="no"?>
<!DOCTYPE svg PUBLIC "-//W3C//DTD SVG 1.1//EN"
  "http://www.w3.org/Graphics/SVG/1.1/DTD/svg11.dtd">
<svg xmlns:xlink="http://www.w3.org/1999/xlink" width="576pt" height="576pt" viewBox="0 0 576 576" xmlns="http://www.w3.org/2000/svg" version="1.1">
 <metadata>
  <rdf:RDF xmlns:dc="http://purl.org/dc/elements/1.1/" xmlns:cc="http://creativecommons.org/ns#" xmlns:rdf="http://www.w3.org/1999/02/22-rdf-syntax-ns#">
   <cc:Work>
    <dc:type rdf:resource="http://purl.org/dc/dcmitype/StillImage"/>
    <dc:date>2022-10-30T19:57:10.929402</dc:date>
    <dc:format>image/svg+xml</dc:format>
    <dc:creator>
     <cc:Agent>
      <dc:title>Matplotlib v3.5.2, https://matplotlib.org/</dc:title>
     </cc:Agent>
    </dc:creator>
   </cc:Work>
  </rdf:RDF>
 </metadata>
 <defs>
  <style type="text/css">*{stroke-linejoin: round; stroke-linecap: butt}</style>
 </defs>
 <g id="figure_1">
  <g id="patch_1">
   <path d="M 0 576 
L 576 576 
L 576 0 
L 0 0 
L 0 576 
z
" style="fill: none"/>
  </g>
  <g id="axes_1">
   <g id="patch_2">
    <path d="M 72 504 
L 518.4 504 
L 518.4 69.12 
L 72 69.12 
z
" style="fill: #ffffff"/>
   </g>
   <g id="matplotlib.axis_1">
    <g id="xtick_1">
     <g id="line2d_1">
      <defs>
       <path id="m7862e44ff5" d="M 0 0 
L 0 3.5 
" style="stroke: #000000; stroke-width: 0.8"/>
      </defs>
      <g>
       <use xlink:href="#m7862e44ff5" x="92.290909" y="504" style="stroke: #000000; stroke-width: 0.8"/>
      </g>
     </g>
     <g id="text_1">
      <!-- 0 -->
      <g transform="translate(85.292159 527.716563)scale(0.22 -0.22)">
       <defs>
        <path id="DejaVuSans-30" d="M 2034 4250 
Q 1547 4250 1301 3770 
Q 1056 3291 1056 2328 
Q 1056 1369 1301 889 
Q 1547 409 2034 409 
Q 2525 409 2770 889 
Q 3016 1369 3016 2328 
Q 3016 3291 2770 3770 
Q 2525 4250 2034 4250 
z
M 2034 4750 
Q 2819 4750 3233 4129 
Q 3647 3509 3647 2328 
Q 3647 1150 3233 529 
Q 2819 -91 2034 -91 
Q 1250 -91 836 529 
Q 422 1150 422 2328 
Q 422 3509 836 4129 
Q 1250 4750 2034 4750 
z
" transform="scale(0.015625)"/>
       </defs>
       <use xlink:href="#DejaVuSans-30"/>
      </g>
     </g>
    </g>
    <g id="xtick_2">
     <g id="line2d_2">
      <g>
       <use xlink:href="#m7862e44ff5" x="227.563636" y="504" style="stroke: #000000; stroke-width: 0.8"/>
      </g>
     </g>
     <g id="text_2">
      <!-- 1000 -->
      <g transform="translate(199.568636 527.716563)scale(0.22 -0.22)">
       <defs>
        <path id="DejaVuSans-31" d="M 794 531 
L 1825 531 
L 1825 4091 
L 703 3866 
L 703 4441 
L 1819 4666 
L 2450 4666 
L 2450 531 
L 3481 531 
L 3481 0 
L 794 0 
L 794 531 
z
" transform="scale(0.015625)"/>
       </defs>
       <use xlink:href="#DejaVuSans-31"/>
       <use xlink:href="#DejaVuSans-30" x="63.623047"/>
       <use xlink:href="#DejaVuSans-30" x="127.246094"/>
       <use xlink:href="#DejaVuSans-30" x="190.869141"/>
      </g>
     </g>
    </g>
    <g id="xtick_3">
     <g id="line2d_3">
      <g>
       <use xlink:href="#m7862e44ff5" x="362.836364" y="504" style="stroke: #000000; stroke-width: 0.8"/>
      </g>
     </g>
     <g id="text_3">
      <!-- 2000 -->
      <g transform="translate(334.841364 527.716563)scale(0.22 -0.22)">
       <defs>
        <path id="DejaVuSans-32" d="M 1228 531 
L 3431 531 
L 3431 0 
L 469 0 
L 469 531 
Q 828 903 1448 1529 
Q 2069 2156 2228 2338 
Q 2531 2678 2651 2914 
Q 2772 3150 2772 3378 
Q 2772 3750 2511 3984 
Q 2250 4219 1831 4219 
Q 1534 4219 1204 4116 
Q 875 4013 500 3803 
L 500 4441 
Q 881 4594 1212 4672 
Q 1544 4750 1819 4750 
Q 2544 4750 2975 4387 
Q 3406 4025 3406 3419 
Q 3406 3131 3298 2873 
Q 3191 2616 2906 2266 
Q 2828 2175 2409 1742 
Q 1991 1309 1228 531 
z
" transform="scale(0.015625)"/>
       </defs>
       <use xlink:href="#DejaVuSans-32"/>
       <use xlink:href="#DejaVuSans-30" x="63.623047"/>
       <use xlink:href="#DejaVuSans-30" x="127.246094"/>
       <use xlink:href="#DejaVuSans-30" x="190.869141"/>
      </g>
     </g>
    </g>
    <g id="xtick_4">
     <g id="line2d_4">
      <g>
       <use xlink:href="#m7862e44ff5" x="498.109091" y="504" style="stroke: #000000; stroke-width: 0.8"/>
      </g>
     </g>
     <g id="text_4">
      <!-- 3000 -->
      <g transform="translate(470.114091 527.716563)scale(0.22 -0.22)">
       <defs>
        <path id="DejaVuSans-33" d="M 2597 2516 
Q 3050 2419 3304 2112 
Q 3559 1806 3559 1356 
Q 3559 666 3084 287 
Q 2609 -91 1734 -91 
Q 1441 -91 1130 -33 
Q 819 25 488 141 
L 488 750 
Q 750 597 1062 519 
Q 1375 441 1716 441 
Q 2309 441 2620 675 
Q 2931 909 2931 1356 
Q 2931 1769 2642 2001 
Q 2353 2234 1838 2234 
L 1294 2234 
L 1294 2753 
L 1863 2753 
Q 2328 2753 2575 2939 
Q 2822 3125 2822 3475 
Q 2822 3834 2567 4026 
Q 2313 4219 1838 4219 
Q 1578 4219 1281 4162 
Q 984 4106 628 3988 
L 628 4550 
Q 988 4650 1302 4700 
Q 1616 4750 1894 4750 
Q 2613 4750 3031 4423 
Q 3450 4097 3450 3541 
Q 3450 3153 3228 2886 
Q 3006 2619 2597 2516 
z
" transform="scale(0.015625)"/>
       </defs>
       <use xlink:href="#DejaVuSans-33"/>
       <use xlink:href="#DejaVuSans-30" x="63.623047"/>
       <use xlink:href="#DejaVuSans-30" x="127.246094"/>
       <use xlink:href="#DejaVuSans-30" x="190.869141"/>
      </g>
     </g>
    </g>
    <g id="text_5">
     <!-- Time(ms) -->
     <g transform="translate(249.182187 552.307188)scale(0.22 -0.22)">
      <defs>
       <path id="ArialMT-54" d="M 1659 0 
L 1659 4041 
L 150 4041 
L 150 4581 
L 3781 4581 
L 3781 4041 
L 2266 4041 
L 2266 0 
L 1659 0 
z
" transform="scale(0.015625)"/>
       <path id="ArialMT-69" d="M 425 3934 
L 425 4581 
L 988 4581 
L 988 3934 
L 425 3934 
z
M 425 0 
L 425 3319 
L 988 3319 
L 988 0 
L 425 0 
z
" transform="scale(0.015625)"/>
       <path id="ArialMT-6d" d="M 422 0 
L 422 3319 
L 925 3319 
L 925 2853 
Q 1081 3097 1340 3245 
Q 1600 3394 1931 3394 
Q 2300 3394 2536 3241 
Q 2772 3088 2869 2813 
Q 3263 3394 3894 3394 
Q 4388 3394 4653 3120 
Q 4919 2847 4919 2278 
L 4919 0 
L 4359 0 
L 4359 2091 
Q 4359 2428 4304 2576 
Q 4250 2725 4106 2815 
Q 3963 2906 3769 2906 
Q 3419 2906 3187 2673 
Q 2956 2441 2956 1928 
L 2956 0 
L 2394 0 
L 2394 2156 
Q 2394 2531 2256 2718 
Q 2119 2906 1806 2906 
Q 1569 2906 1367 2781 
Q 1166 2656 1075 2415 
Q 984 2175 984 1722 
L 984 0 
L 422 0 
z
" transform="scale(0.015625)"/>
       <path id="ArialMT-65" d="M 2694 1069 
L 3275 997 
Q 3138 488 2766 206 
Q 2394 -75 1816 -75 
Q 1088 -75 661 373 
Q 234 822 234 1631 
Q 234 2469 665 2931 
Q 1097 3394 1784 3394 
Q 2450 3394 2872 2941 
Q 3294 2488 3294 1666 
Q 3294 1616 3291 1516 
L 816 1516 
Q 847 969 1125 678 
Q 1403 388 1819 388 
Q 2128 388 2347 550 
Q 2566 713 2694 1069 
z
M 847 1978 
L 2700 1978 
Q 2663 2397 2488 2606 
Q 2219 2931 1791 2931 
Q 1403 2931 1139 2672 
Q 875 2413 847 1978 
z
" transform="scale(0.015625)"/>
       <path id="ArialMT-28" d="M 1497 -1347 
Q 1031 -759 709 28 
Q 388 816 388 1659 
Q 388 2403 628 3084 
Q 909 3875 1497 4659 
L 1900 4659 
Q 1522 4009 1400 3731 
Q 1209 3300 1100 2831 
Q 966 2247 966 1656 
Q 966 153 1900 -1347 
L 1497 -1347 
z
" transform="scale(0.015625)"/>
       <path id="ArialMT-73" d="M 197 991 
L 753 1078 
Q 800 744 1014 566 
Q 1228 388 1613 388 
Q 2000 388 2187 545 
Q 2375 703 2375 916 
Q 2375 1106 2209 1216 
Q 2094 1291 1634 1406 
Q 1016 1563 777 1677 
Q 538 1791 414 1992 
Q 291 2194 291 2438 
Q 291 2659 392 2848 
Q 494 3038 669 3163 
Q 800 3259 1026 3326 
Q 1253 3394 1513 3394 
Q 1903 3394 2198 3281 
Q 2494 3169 2634 2976 
Q 2775 2784 2828 2463 
L 2278 2388 
Q 2241 2644 2061 2787 
Q 1881 2931 1553 2931 
Q 1166 2931 1000 2803 
Q 834 2675 834 2503 
Q 834 2394 903 2306 
Q 972 2216 1119 2156 
Q 1203 2125 1616 2013 
Q 2213 1853 2448 1751 
Q 2684 1650 2818 1456 
Q 2953 1263 2953 975 
Q 2953 694 2789 445 
Q 2625 197 2315 61 
Q 2006 -75 1616 -75 
Q 969 -75 630 194 
Q 291 463 197 991 
z
" transform="scale(0.015625)"/>
       <path id="ArialMT-29" d="M 791 -1347 
L 388 -1347 
Q 1322 153 1322 1656 
Q 1322 2244 1188 2822 
Q 1081 3291 891 3722 
Q 769 4003 388 4659 
L 791 4659 
Q 1378 3875 1659 3084 
Q 1900 2403 1900 1659 
Q 1900 816 1576 28 
Q 1253 -759 791 -1347 
z
" transform="scale(0.015625)"/>
      </defs>
      <use xlink:href="#ArialMT-54"/>
      <use xlink:href="#ArialMT-69" x="57.333984"/>
      <use xlink:href="#ArialMT-6d" x="79.550781"/>
      <use xlink:href="#ArialMT-65" x="162.851562"/>
      <use xlink:href="#ArialMT-28" x="218.466797"/>
      <use xlink:href="#ArialMT-6d" x="251.767578"/>
      <use xlink:href="#ArialMT-73" x="335.068359"/>
      <use xlink:href="#ArialMT-29" x="385.068359"/>
     </g>
    </g>
   </g>
   <g id="matplotlib.axis_2">
    <g id="ytick_1">
     <g id="line2d_5">
      <defs>
       <path id="ma6ef6c3e50" d="M 0 0 
L -3.5 0 
" style="stroke: #000000; stroke-width: 0.8"/>
      </defs>
      <g>
       <use xlink:href="#ma6ef6c3e50" x="72" y="476.82" style="stroke: #000000; stroke-width: 0.8"/>
      </g>
     </g>
     <g id="text_6">
      <!-- −100 -->
      <g transform="translate(4.572187 485.178281)scale(0.22 -0.22)">
       <defs>
        <path id="DejaVuSans-2212" d="M 678 2272 
L 4684 2272 
L 4684 1741 
L 678 1741 
L 678 2272 
z
" transform="scale(0.015625)"/>
       </defs>
       <use xlink:href="#DejaVuSans-2212"/>
       <use xlink:href="#DejaVuSans-31" x="83.789062"/>
       <use xlink:href="#DejaVuSans-30" x="147.412109"/>
       <use xlink:href="#DejaVuSans-30" x="211.035156"/>
      </g>
     </g>
    </g>
    <g id="ytick_2">
     <g id="line2d_6">
      <g>
       <use xlink:href="#ma6ef6c3e50" x="72" y="422.46" style="stroke: #000000; stroke-width: 0.8"/>
      </g>
     </g>
     <g id="text_7">
      <!-- −80 -->
      <g transform="translate(18.569688 430.818281)scale(0.22 -0.22)">
       <defs>
        <path id="DejaVuSans-38" d="M 2034 2216 
Q 1584 2216 1326 1975 
Q 1069 1734 1069 1313 
Q 1069 891 1326 650 
Q 1584 409 2034 409 
Q 2484 409 2743 651 
Q 3003 894 3003 1313 
Q 3003 1734 2745 1975 
Q 2488 2216 2034 2216 
z
M 1403 2484 
Q 997 2584 770 2862 
Q 544 3141 544 3541 
Q 544 4100 942 4425 
Q 1341 4750 2034 4750 
Q 2731 4750 3128 4425 
Q 3525 4100 3525 3541 
Q 3525 3141 3298 2862 
Q 3072 2584 2669 2484 
Q 3125 2378 3379 2068 
Q 3634 1759 3634 1313 
Q 3634 634 3220 271 
Q 2806 -91 2034 -91 
Q 1263 -91 848 271 
Q 434 634 434 1313 
Q 434 1759 690 2068 
Q 947 2378 1403 2484 
z
M 1172 3481 
Q 1172 3119 1398 2916 
Q 1625 2713 2034 2713 
Q 2441 2713 2670 2916 
Q 2900 3119 2900 3481 
Q 2900 3844 2670 4047 
Q 2441 4250 2034 4250 
Q 1625 4250 1398 4047 
Q 1172 3844 1172 3481 
z
" transform="scale(0.015625)"/>
       </defs>
       <use xlink:href="#DejaVuSans-2212"/>
       <use xlink:href="#DejaVuSans-38" x="83.789062"/>
       <use xlink:href="#DejaVuSans-30" x="147.412109"/>
      </g>
     </g>
    </g>
    <g id="ytick_3">
     <g id="line2d_7">
      <g>
       <use xlink:href="#ma6ef6c3e50" x="72" y="368.1" style="stroke: #000000; stroke-width: 0.8"/>
      </g>
     </g>
     <g id="text_8">
      <!-- −60 -->
      <g transform="translate(18.569688 376.458281)scale(0.22 -0.22)">
       <defs>
        <path id="DejaVuSans-36" d="M 2113 2584 
Q 1688 2584 1439 2293 
Q 1191 2003 1191 1497 
Q 1191 994 1439 701 
Q 1688 409 2113 409 
Q 2538 409 2786 701 
Q 3034 994 3034 1497 
Q 3034 2003 2786 2293 
Q 2538 2584 2113 2584 
z
M 3366 4563 
L 3366 3988 
Q 3128 4100 2886 4159 
Q 2644 4219 2406 4219 
Q 1781 4219 1451 3797 
Q 1122 3375 1075 2522 
Q 1259 2794 1537 2939 
Q 1816 3084 2150 3084 
Q 2853 3084 3261 2657 
Q 3669 2231 3669 1497 
Q 3669 778 3244 343 
Q 2819 -91 2113 -91 
Q 1303 -91 875 529 
Q 447 1150 447 2328 
Q 447 3434 972 4092 
Q 1497 4750 2381 4750 
Q 2619 4750 2861 4703 
Q 3103 4656 3366 4563 
z
" transform="scale(0.015625)"/>
       </defs>
       <use xlink:href="#DejaVuSans-2212"/>
       <use xlink:href="#DejaVuSans-36" x="83.789062"/>
       <use xlink:href="#DejaVuSans-30" x="147.412109"/>
      </g>
     </g>
    </g>
    <g id="ytick_4">
     <g id="line2d_8">
      <g>
       <use xlink:href="#ma6ef6c3e50" x="72" y="313.74" style="stroke: #000000; stroke-width: 0.8"/>
      </g>
     </g>
     <g id="text_9">
      <!-- −40 -->
      <g transform="translate(18.569688 322.098281)scale(0.22 -0.22)">
       <defs>
        <path id="DejaVuSans-34" d="M 2419 4116 
L 825 1625 
L 2419 1625 
L 2419 4116 
z
M 2253 4666 
L 3047 4666 
L 3047 1625 
L 3713 1625 
L 3713 1100 
L 3047 1100 
L 3047 0 
L 2419 0 
L 2419 1100 
L 313 1100 
L 313 1709 
L 2253 4666 
z
" transform="scale(0.015625)"/>
       </defs>
       <use xlink:href="#DejaVuSans-2212"/>
       <use xlink:href="#DejaVuSans-34" x="83.789062"/>
       <use xlink:href="#DejaVuSans-30" x="147.412109"/>
      </g>
     </g>
    </g>
    <g id="ytick_5">
     <g id="line2d_9">
      <g>
       <use xlink:href="#ma6ef6c3e50" x="72" y="259.38" style="stroke: #000000; stroke-width: 0.8"/>
      </g>
     </g>
     <g id="text_10">
      <!-- −20 -->
      <g transform="translate(18.569688 267.738281)scale(0.22 -0.22)">
       <use xlink:href="#DejaVuSans-2212"/>
       <use xlink:href="#DejaVuSans-32" x="83.789062"/>
       <use xlink:href="#DejaVuSans-30" x="147.412109"/>
      </g>
     </g>
    </g>
    <g id="ytick_6">
     <g id="line2d_10">
      <g>
       <use xlink:href="#ma6ef6c3e50" x="72" y="205.02" style="stroke: #000000; stroke-width: 0.8"/>
      </g>
     </g>
     <g id="text_11">
      <!-- 0 -->
      <g transform="translate(51.0025 213.378281)scale(0.22 -0.22)">
       <use xlink:href="#DejaVuSans-30"/>
      </g>
     </g>
    </g>
    <g id="ytick_7">
     <g id="line2d_11">
      <g>
       <use xlink:href="#ma6ef6c3e50" x="72" y="150.66" style="stroke: #000000; stroke-width: 0.8"/>
      </g>
     </g>
     <g id="text_12">
      <!-- 20 -->
      <g transform="translate(37.005 159.018281)scale(0.22 -0.22)">
       <use xlink:href="#DejaVuSans-32"/>
       <use xlink:href="#DejaVuSans-30" x="63.623047"/>
      </g>
     </g>
    </g>
    <g id="ytick_8">
     <g id="line2d_12">
      <g>
       <use xlink:href="#ma6ef6c3e50" x="72" y="96.3" style="stroke: #000000; stroke-width: 0.8"/>
      </g>
     </g>
     <g id="text_13">
      <!-- 40 -->
      <g transform="translate(37.005 104.658281)scale(0.22 -0.22)">
       <use xlink:href="#DejaVuSans-34"/>
       <use xlink:href="#DejaVuSans-30" x="63.623047"/>
      </g>
     </g>
    </g>
    <g id="text_14">
     <!-- Membrane potential (mV) -->
     <g transform="translate(-4.058125 410.655469)rotate(-90)scale(0.22 -0.22)">
      <defs>
       <path id="ArialMT-4d" d="M 475 0 
L 475 4581 
L 1388 4581 
L 2472 1338 
Q 2622 884 2691 659 
Q 2769 909 2934 1394 
L 4031 4581 
L 4847 4581 
L 4847 0 
L 4263 0 
L 4263 3834 
L 2931 0 
L 2384 0 
L 1059 3900 
L 1059 0 
L 475 0 
z
" transform="scale(0.015625)"/>
       <path id="ArialMT-62" d="M 941 0 
L 419 0 
L 419 4581 
L 981 4581 
L 981 2947 
Q 1338 3394 1891 3394 
Q 2197 3394 2470 3270 
Q 2744 3147 2920 2923 
Q 3097 2700 3197 2384 
Q 3297 2069 3297 1709 
Q 3297 856 2875 390 
Q 2453 -75 1863 -75 
Q 1275 -75 941 416 
L 941 0 
z
M 934 1684 
Q 934 1088 1097 822 
Q 1363 388 1816 388 
Q 2184 388 2453 708 
Q 2722 1028 2722 1663 
Q 2722 2313 2464 2622 
Q 2206 2931 1841 2931 
Q 1472 2931 1203 2611 
Q 934 2291 934 1684 
z
" transform="scale(0.015625)"/>
       <path id="ArialMT-72" d="M 416 0 
L 416 3319 
L 922 3319 
L 922 2816 
Q 1116 3169 1280 3281 
Q 1444 3394 1641 3394 
Q 1925 3394 2219 3213 
L 2025 2691 
Q 1819 2813 1613 2813 
Q 1428 2813 1281 2702 
Q 1134 2591 1072 2394 
Q 978 2094 978 1738 
L 978 0 
L 416 0 
z
" transform="scale(0.015625)"/>
       <path id="ArialMT-61" d="M 2588 409 
Q 2275 144 1986 34 
Q 1697 -75 1366 -75 
Q 819 -75 525 192 
Q 231 459 231 875 
Q 231 1119 342 1320 
Q 453 1522 633 1644 
Q 813 1766 1038 1828 
Q 1203 1872 1538 1913 
Q 2219 1994 2541 2106 
Q 2544 2222 2544 2253 
Q 2544 2597 2384 2738 
Q 2169 2928 1744 2928 
Q 1347 2928 1158 2789 
Q 969 2650 878 2297 
L 328 2372 
Q 403 2725 575 2942 
Q 747 3159 1072 3276 
Q 1397 3394 1825 3394 
Q 2250 3394 2515 3294 
Q 2781 3194 2906 3042 
Q 3031 2891 3081 2659 
Q 3109 2516 3109 2141 
L 3109 1391 
Q 3109 606 3145 398 
Q 3181 191 3288 0 
L 2700 0 
Q 2613 175 2588 409 
z
M 2541 1666 
Q 2234 1541 1622 1453 
Q 1275 1403 1131 1340 
Q 988 1278 909 1158 
Q 831 1038 831 891 
Q 831 666 1001 516 
Q 1172 366 1500 366 
Q 1825 366 2078 508 
Q 2331 650 2450 897 
Q 2541 1088 2541 1459 
L 2541 1666 
z
" transform="scale(0.015625)"/>
       <path id="ArialMT-6e" d="M 422 0 
L 422 3319 
L 928 3319 
L 928 2847 
Q 1294 3394 1984 3394 
Q 2284 3394 2536 3286 
Q 2788 3178 2913 3003 
Q 3038 2828 3088 2588 
Q 3119 2431 3119 2041 
L 3119 0 
L 2556 0 
L 2556 2019 
Q 2556 2363 2490 2533 
Q 2425 2703 2258 2804 
Q 2091 2906 1866 2906 
Q 1506 2906 1245 2678 
Q 984 2450 984 1813 
L 984 0 
L 422 0 
z
" transform="scale(0.015625)"/>
       <path id="ArialMT-20" transform="scale(0.015625)"/>
       <path id="ArialMT-70" d="M 422 -1272 
L 422 3319 
L 934 3319 
L 934 2888 
Q 1116 3141 1344 3267 
Q 1572 3394 1897 3394 
Q 2322 3394 2647 3175 
Q 2972 2956 3137 2557 
Q 3303 2159 3303 1684 
Q 3303 1175 3120 767 
Q 2938 359 2589 142 
Q 2241 -75 1856 -75 
Q 1575 -75 1351 44 
Q 1128 163 984 344 
L 984 -1272 
L 422 -1272 
z
M 931 1641 
Q 931 1000 1190 694 
Q 1450 388 1819 388 
Q 2194 388 2461 705 
Q 2728 1022 2728 1688 
Q 2728 2322 2467 2637 
Q 2206 2953 1844 2953 
Q 1484 2953 1207 2617 
Q 931 2281 931 1641 
z
" transform="scale(0.015625)"/>
       <path id="ArialMT-6f" d="M 213 1659 
Q 213 2581 725 3025 
Q 1153 3394 1769 3394 
Q 2453 3394 2887 2945 
Q 3322 2497 3322 1706 
Q 3322 1066 3130 698 
Q 2938 331 2570 128 
Q 2203 -75 1769 -75 
Q 1072 -75 642 372 
Q 213 819 213 1659 
z
M 791 1659 
Q 791 1022 1069 705 
Q 1347 388 1769 388 
Q 2188 388 2466 706 
Q 2744 1025 2744 1678 
Q 2744 2294 2464 2611 
Q 2184 2928 1769 2928 
Q 1347 2928 1069 2612 
Q 791 2297 791 1659 
z
" transform="scale(0.015625)"/>
       <path id="ArialMT-74" d="M 1650 503 
L 1731 6 
Q 1494 -44 1306 -44 
Q 1000 -44 831 53 
Q 663 150 594 308 
Q 525 466 525 972 
L 525 2881 
L 113 2881 
L 113 3319 
L 525 3319 
L 525 4141 
L 1084 4478 
L 1084 3319 
L 1650 3319 
L 1650 2881 
L 1084 2881 
L 1084 941 
Q 1084 700 1114 631 
Q 1144 563 1211 522 
Q 1278 481 1403 481 
Q 1497 481 1650 503 
z
" transform="scale(0.015625)"/>
       <path id="ArialMT-6c" d="M 409 0 
L 409 4581 
L 972 4581 
L 972 0 
L 409 0 
z
" transform="scale(0.015625)"/>
       <path id="ArialMT-56" d="M 1803 0 
L 28 4581 
L 684 4581 
L 1875 1253 
Q 2019 853 2116 503 
Q 2222 878 2363 1253 
L 3600 4581 
L 4219 4581 
L 2425 0 
L 1803 0 
z
" transform="scale(0.015625)"/>
      </defs>
      <use xlink:href="#ArialMT-4d"/>
      <use xlink:href="#ArialMT-65" x="83.300781"/>
      <use xlink:href="#ArialMT-6d" x="138.916016"/>
      <use xlink:href="#ArialMT-62" x="222.216797"/>
      <use xlink:href="#ArialMT-72" x="277.832031"/>
      <use xlink:href="#ArialMT-61" x="311.132812"/>
      <use xlink:href="#ArialMT-6e" x="366.748047"/>
      <use xlink:href="#ArialMT-65" x="422.363281"/>
      <use xlink:href="#ArialMT-20" x="477.978516"/>
      <use xlink:href="#ArialMT-70" x="505.761719"/>
      <use xlink:href="#ArialMT-6f" x="561.376953"/>
      <use xlink:href="#ArialMT-74" x="616.992188"/>
      <use xlink:href="#ArialMT-65" x="644.775391"/>
      <use xlink:href="#ArialMT-6e" x="700.390625"/>
      <use xlink:href="#ArialMT-74" x="756.005859"/>
      <use xlink:href="#ArialMT-69" x="783.789062"/>
      <use xlink:href="#ArialMT-61" x="806.005859"/>
      <use xlink:href="#ArialMT-6c" x="861.621094"/>
      <use xlink:href="#ArialMT-20" x="883.837891"/>
      <use xlink:href="#ArialMT-28" x="911.621094"/>
      <use xlink:href="#ArialMT-6d" x="944.921875"/>
      <use xlink:href="#ArialMT-56" x="1028.222656"/>
      <use xlink:href="#ArialMT-29" x="1094.921875"/>
     </g>
    </g>
   </g>
   <g id="line2d_13">
    <path d="M 92.290909 438.768 
L 92.561455 443.615742 
L 93.034909 448.141237 
L 93.576 451.241608 
L 94.117091 453.040209 
L 94.658182 454.061991 
L 95.199273 454.632849 
L 95.875636 455.002424 
L 96.754909 455.209537 
L 98.310545 455.313796 
L 103.789091 455.338433 
L 159.927273 455.339294 
L 160.130182 432.505377 
L 160.603636 408.676327 
L 161.144727 392.445917 
L 161.753455 380.495533 
L 163.647273 348.304291 
L 163.917818 338.005856 
L 164.053091 327.737407 
L 164.120727 317.392422 
L 164.188364 286.428125 
L 164.256 137.929413 
L 164.458909 355.961286 
L 164.661818 393.832538 
L 164.864727 399.918441 
L 164.932364 400.061921 
L 165.067636 399.112157 
L 165.405818 392.911748 
L 166.149818 379.336424 
L 166.758545 372.850272 
L 168.111273 361.758432 
L 169.261091 352.535037 
L 170.140364 341.83622 
L 170.410909 334.95072 
L 170.613818 321.698765 
L 170.681455 309.80832 
L 170.816727 153.613381 
L 171.019636 336.93877 
L 171.290182 385.40435 
L 171.493091 394.33845 
L 171.628364 395.21326 
L 171.763636 394.267151 
L 172.169455 387.86642 
L 172.845818 378.138338 
L 173.657455 369.824319 
L 175.821818 349.113361 
L 176.362909 339.150084 
L 176.565818 331.929739 
L 176.701091 321.312956 
L 176.768727 308.761475 
L 176.904 158.435743 
L 177.106909 340.083788 
L 177.377455 386.930306 
L 177.580364 394.992672 
L 177.715636 395.695927 
L 177.850909 394.639812 
L 178.324364 387.062654 
L 179.068364 376.452812 
L 179.812364 369.126359 
L 181.300364 355.582947 
L 181.909091 347.514954 
L 182.314909 338.483789 
L 182.517818 329.972145 
L 182.653091 316.105116 
L 182.720727 294.320403 
L 182.788364 154.613321 
L 182.856 213.955491 
L 183.058909 350.833269 
L 183.329455 388.960479 
L 183.532364 394.997927 
L 183.6 395.344815 
L 183.667636 395.227106 
L 183.870545 393.262011 
L 185.629091 369.99589 
L 186.846545 359.251006 
L 188.402182 346.80935 
L 188.469818 346.963073 
L 188.672727 352.42621 
L 189.010909 360.689059 
L 189.281455 363.006914 
L 189.484364 363.340972 
L 189.619636 363.109894 
L 189.890182 362.495123 
L 190.093091 362.473724 
L 190.296 362.090796 
L 190.566545 361.059001 
L 190.972364 358.340887 
L 191.648727 351.856605 
L 192.054545 345.514966 
L 192.325091 337.848816 
L 192.528 324.744629 
L 192.595636 313.721845 
L 192.663273 275.566467 
L 192.730909 139.345097 
L 192.933818 340.084457 
L 193.204364 391.0415 
L 193.407273 397.31639 
L 193.474909 397.415701 
L 193.610182 396.31045 
L 194.218909 386.509324 
L 194.895273 377.623079 
L 195.436364 373.502681 
L 197.262545 360.306388 
L 198.006545 352.802605 
L 198.48 345.21319 
L 198.885818 334.894277 
L 199.088727 322.759199 
L 199.156364 313.386502 
L 199.224 288.353082 
L 199.291636 154.289489 
L 199.359273 229.841413 
L 199.562182 349.241388 
L 199.832727 385.48827 
L 200.035636 389.699438 
L 200.103273 389.537323 
L 200.373818 386.932449 
L 201.320727 377.100177 
L 202.605818 366.647225 
L 203.011636 364.386798 
L 203.417455 363.908328 
L 203.485091 363.730221 
L 203.755636 367.069338 
L 204.026182 369.212622 
L 204.229091 369.482841 
L 204.432 369.032594 
L 204.770182 367.453188 
L 205.649455 361.764028 
L 206.190545 356.926646 
L 206.664 350.565266 
L 207.002182 343.358506 
L 207.205091 335.636745 
L 207.340364 325.362352 
L 207.408 314.240037 
L 207.475636 275.217261 
L 207.543273 138.487956 
L 207.746182 341.809132 
L 208.016727 391.615284 
L 208.219636 398.51128 
L 208.287273 398.788878 
L 208.422545 397.892807 
L 208.828364 391.077476 
L 209.572364 379.433417 
L 210.316364 371.404626 
L 210.857455 367.139431 
L 211.466182 363.464369 
L 212.210182 357.280738 
L 212.886545 350.723387 
L 212.954182 350.821134 
L 213.292364 356.525999 
L 213.630545 360.119625 
L 213.765818 361.515048 
L 214.171636 366.035454 
L 214.442182 367.566841 
L 214.577455 367.613213 
L 214.780364 367.103738 
L 215.118545 365.387373 
L 216.268364 357.302963 
L 216.809455 351.342588 
L 217.215273 344.227618 
L 217.485818 335.304615 
L 217.688727 319.88556 
L 217.756364 304.770125 
L 217.891636 174.208747 
L 218.094545 343.368931 
L 218.365091 386.4592 
L 218.568 393.913565 
L 218.703273 394.496122 
L 218.838545 393.503303 
L 219.244364 387.470656 
L 220.056 376.173384 
L 220.935273 367.150441 
L 221.611636 361.403915 
L 221.746909 361.55709 
L 222.017455 361.985577 
L 222.152727 361.911739 
L 222.423273 361.222893 
L 222.761455 359.597143 
L 223.167273 357.781277 
L 223.505455 356.505107 
L 223.911273 353.647166 
L 224.317091 348.83431 
L 224.655273 341.945885 
L 224.858182 333.819943 
L 224.993455 321.742501 
L 225.061091 306.205923 
L 225.196364 169.730639 
L 225.399273 347.674477 
L 225.669818 392.151094 
L 225.872727 398.420595 
L 225.940364 398.645483 
L 226.075636 397.75782 
L 226.413818 392.414635 
L 227.225455 379.272366 
L 227.969455 371.288567 
L 230.269091 349.002893 
L 230.607273 342.136456 
L 230.810182 334.295394 
L 230.945455 322.973533 
L 231.013091 309.328066 
L 231.148364 160.003714 
L 231.351273 349.371605 
L 231.554182 387.651039 
L 231.757091 396.288978 
L 231.824727 396.606032 
L 231.96 395.640057 
L 232.636364 385.390361 
L 233.380364 376.475094 
L 234.259636 368.776856 
L 234.936 363.938253 
L 235.341818 363.256196 
L 235.612364 362.142871 
L 236.018182 359.338155 
L 236.559273 353.625767 
L 237.032727 346.367442 
L 237.370909 337.595008 
L 237.573818 325.488415 
L 237.709091 294.537795 
L 237.776727 150.047074 
L 237.844364 213.107495 
L 238.047273 352.858774 
L 238.317818 389.732565 
L 238.520727 394.488432 
L 238.588364 394.537822 
L 238.723636 393.549519 
L 239.129455 387.391871 
L 239.873455 376.927993 
L 240.752727 367.916064 
L 242.511273 351.807735 
L 242.578909 351.834246 
L 243.12 352.439746 
L 243.255273 352.173169 
L 243.458182 351.206421 
L 243.728727 348.856423 
L 244.066909 343.415116 
L 244.405091 332.97221 
L 244.608 318.512664 
L 244.675636 304.599559 
L 244.810909 171.618595 
L 245.013818 335.303402 
L 245.284364 380.274604 
L 245.487273 389.878214 
L 245.690182 391.543194 
L 245.825455 390.771633 
L 246.163636 386.523 
L 246.84 377.357629 
L 247.719273 368.82282 
L 248.733818 360.926607 
L 249.545455 357.529836 
L 249.951273 354.236331 
L 250.357091 349.155709 
L 250.695273 341.70308 
L 250.898182 332.844384 
L 251.033455 318.641824 
L 251.101091 296.00305 
L 251.168727 137.857571 
L 251.236364 207.025899 
L 251.439273 354.882477 
L 251.709818 393.51357 
L 251.912727 398.474296 
L 251.980364 398.486037 
L 252.115636 397.317104 
L 252.589091 389.23602 
L 253.265455 379.113216 
L 253.941818 372.202177 
L 254.347636 369.356053 
L 255.091636 365.313976 
L 255.835636 359.892027 
L 256.850182 350.449567 
L 257.256 343.125458 
L 257.526545 333.152626 
L 257.661818 320.565834 
L 257.729455 303.350367 
L 257.797091 176.515888 
L 257.864727 183.094 
L 258.067636 350.094267 
L 258.338182 391.153771 
L 258.541091 397.177064 
L 258.608727 397.44996 
L 258.744 396.719436 
L 259.082182 391.790795 
L 260.096727 376.426487 
L 260.705455 370.469282 
L 262.328727 360.7834 
L 262.869818 355.859218 
L 263.343273 349.493978 
L 263.749091 340.857639 
L 264.019636 330.609514 
L 264.154909 318.004393 
L 264.222545 300.551855 
L 264.290182 184.955067 
L 264.357818 192.58385 
L 264.560727 346.34944 
L 264.831273 386.148907 
L 265.034182 392.953298 
L 265.169455 393.593071 
L 265.304727 392.760701 
L 265.642909 387.772458 
L 266.454545 376.47115 
L 267.333818 367.518264 
L 267.807273 363.920585 
L 268.348364 361.271562 
L 269.227636 356.568637 
L 269.430545 356.169112 
L 269.701091 355.054443 
L 270.039273 352.408251 
L 270.377455 348.011389 
L 270.783273 340.336047 
L 270.986182 333.155401 
L 271.121455 323.036169 
L 271.189091 311.699832 
L 271.256727 271.490653 
L 271.324364 146.321624 
L 271.527273 335.97019 
L 271.797818 385.172339 
L 272.000727 393.980131 
L 272.136 394.988511 
L 272.271273 394.274099 
L 272.609455 389.596632 
L 273.488727 376.756065 
L 274.165091 369.636912 
L 275.720727 358.330344 
L 276.397091 350.873264 
L 277.141091 340.03488 
L 277.344 333.112835 
L 277.479273 323.104803 
L 277.546909 311.876838 
L 277.614545 273.693028 
L 277.682182 147.212373 
L 277.885091 336.817448 
L 278.155636 384.784616 
L 278.358545 393.214441 
L 278.493818 394.244457 
L 278.629091 393.597386 
L 278.899636 390.166142 
L 279.914182 375.491886 
L 280.725818 367.418223 
L 281.605091 360.436104 
L 282.349091 358.490766 
L 282.687273 356.272589 
L 283.093091 351.896053 
L 283.431273 345.985461 
L 283.701818 337.581563 
L 283.904727 321.787101 
L 283.972364 305.489895 
L 284.107636 174.608373 
L 284.310545 350.234005 
L 284.581091 392.606257 
L 284.784 397.869966 
L 284.851636 397.935729 
L 284.986909 396.892183 
L 285.392727 390.511398 
L 286.204364 378.392715 
L 286.948364 370.492007 
L 289.045091 352.894946 
L 289.450909 348.83462 
L 289.856727 342.4809 
L 290.127273 333.927634 
L 290.262545 324.373624 
L 290.330182 314.134434 
L 290.397818 282.926102 
L 290.465455 140.880179 
L 290.668364 334.84629 
L 290.938909 385.865189 
L 291.141818 394.881702 
L 291.277091 395.989016 
L 291.412364 395.247945 
L 291.750545 389.440418 
L 292.426909 379.295889 
L 293.306182 369.911392 
L 295.402909 348.61985 
L 295.741091 343.61877 
L 296.011636 335.971256 
L 296.214545 321.175519 
L 296.282182 307.587114 
L 296.417455 163.891189 
L 296.620364 343.755397 
L 296.890909 387.846534 
L 297.093818 394.45902 
L 297.161455 394.841117 
L 297.229091 394.723425 
L 297.432 392.689658 
L 298.987636 371.944018 
L 300.340364 360.306336 
L 301.287273 353.069816 
L 301.693091 347.908795 
L 301.963636 342.046724 
L 302.166545 333.989748 
L 302.301818 322.285174 
L 302.369455 307.672385 
L 302.504727 165.201514 
L 302.707636 347.390468 
L 302.978182 391.342379 
L 303.181091 397.784994 
L 303.248727 398.102325 
L 303.316364 397.913196 
L 303.451636 396.409271 
L 304.466182 379.311408 
L 305.345455 370.324382 
L 307.306909 351.086275 
L 307.645091 345.544712 
L 307.915636 337.907463 
L 308.118545 324.89171 
L 308.186182 314.096121 
L 308.253818 278.32681 
L 308.321455 140.094893 
L 308.524364 340.179112 
L 308.794909 388.894017 
L 308.997818 396.440444 
L 309.133091 397.027022 
L 309.268364 396.0428 
L 309.674182 389.795775 
L 310.485818 377.513151 
L 311.094545 371.724445 
L 312.379636 362.169047 
L 312.785455 361.085696 
L 313.123636 359.182748 
L 313.935273 352.567171 
L 314.408727 347.273226 
L 314.746909 340.976596 
L 314.949818 334.266656 
L 315.085091 325.391203 
L 315.220364 293.115059 
L 315.288 145.80259 
L 315.355636 214.317836 
L 315.558545 350.733901 
L 315.829091 389.266852 
L 316.032 394.946656 
L 316.099636 395.157556 
L 316.234909 394.315343 
L 316.640727 388.021734 
L 317.452364 376.528266 
L 318.534545 364.930703 
L 319.684364 352.063414 
L 320.293091 341.448412 
L 320.496 334.592518 
L 320.631273 325.586899 
L 320.766545 292.913065 
L 320.834182 144.751805 
L 320.901818 218.542952 
L 321.104727 353.525173 
L 321.375273 389.418903 
L 321.578182 394.169648 
L 321.645818 394.242887 
L 321.781091 393.301354 
L 322.186909 387.445796 
L 322.930909 377.417945 
L 324.013091 367.204904 
L 324.892364 360.442275 
L 325.433455 355.104032 
L 325.906909 350.848128 
L 326.380364 347.624102 
L 326.650909 344.054662 
L 326.921455 337.472087 
L 327.124364 326.071022 
L 327.259636 295.531304 
L 327.327273 147.883234 
L 327.394909 206.796689 
L 327.597818 349.855512 
L 327.868364 389.363946 
L 328.071273 395.591738 
L 328.138909 395.963949 
L 328.206545 395.863695 
L 328.409455 393.919821 
L 330.438545 366.916942 
L 332.332364 349.009968 
L 332.738182 341.474839 
L 333.076364 333.140902 
L 333.279273 320.770802 
L 333.346909 310.17643 
L 333.414545 277.707563 
L 333.482182 156.597875 
L 333.685091 330.131762 
L 333.955636 377.89833 
L 334.158545 387.372485 
L 334.361455 388.759732 
L 334.496727 387.982349 
L 334.902545 383.287157 
L 335.917091 371.599884 
L 336.593455 365.959945 
L 337.540364 357.602553 
L 338.149091 350.765903 
L 338.487273 344.387011 
L 338.757818 334.787847 
L 338.893091 324.244163 
L 338.960727 312.39273 
L 339.096 145.492969 
L 339.298909 343.587156 
L 339.569455 390.540307 
L 339.772364 396.877905 
L 339.84 397.162914 
L 339.907636 396.968058 
L 340.110545 394.761017 
L 341.666182 372.780849 
L 342.680727 363.306195 
L 343.424727 357.711807 
L 343.830545 355.735439 
L 344.236364 352.233346 
L 344.574545 347.377388 
L 344.845091 340.704211 
L 345.115636 326.641865 
L 345.250909 307.072805 
L 345.386182 165.066949 
L 345.589091 339.173152 
L 345.859636 382.020898 
L 346.062545 389.743269 
L 346.197818 390.756369 
L 346.265455 390.614549 
L 346.468364 388.797742 
L 348.091636 369.26225 
L 349.444364 357.992098 
L 350.120727 352.535232 
L 350.526545 348.727668 
L 350.864727 343.46323 
L 351.135273 335.522713 
L 351.270545 327.322607 
L 351.405818 302.546785 
L 351.473455 183.119735 
L 351.541091 183.83241 
L 351.744 346.563625 
L 352.014545 388.177371 
L 352.217455 394.87762 
L 352.285091 395.321016 
L 352.352727 395.270659 
L 352.488 394.2218 
L 352.893818 388.008639 
L 353.705455 376.301967 
L 354.652364 366.203834 
L 355.125818 362.362807 
L 355.802182 358.293889 
L 355.869818 358.33421 
L 356.343273 359.320643 
L 356.546182 358.94541 
L 356.952 357.865111 
L 357.290182 355.83422 
L 357.696 351.830967 
L 358.101818 345.117712 
L 358.372364 337.121204 
L 358.575273 322.528322 
L 358.642909 308.666194 
L 358.778182 158.931076 
L 358.981091 343.83237 
L 359.251636 389.400326 
L 359.454545 396.623223 
L 359.522182 397.108795 
L 359.589818 397.064215 
L 359.725091 395.962513 
L 360.130909 389.562186 
L 360.874909 377.934521 
L 361.551273 370.730307 
L 363.106909 357.728792 
L 363.377455 356.788567 
L 363.986182 354.795864 
L 364.256727 353.297099 
L 364.324364 353.311002 
L 364.662545 353.667582 
L 364.797818 353.479094 
L 365.000727 352.698575 
L 365.271273 350.590994 
L 365.677091 345.351106 
L 365.947636 339.824233 
L 366.150545 331.840934 
L 366.285818 319.156241 
L 366.353455 301.330608 
L 366.421091 173.783382 
L 366.488727 185.388401 
L 366.691636 344.390767 
L 366.962182 387.259814 
L 367.165091 394.886271 
L 367.300364 395.551356 
L 367.435636 394.556187 
L 367.909091 387.481374 
L 368.788364 375.346389 
L 369.397091 369.785258 
L 370.546909 359.694203 
L 371.764364 346.972281 
L 372.102545 339.72437 
L 372.305455 331.105471 
L 372.440727 316.844904 
L 372.508364 293.664289 
L 372.576 144.742776 
L 372.643636 215.645374 
L 372.846545 353.755455 
L 373.117091 389.78047 
L 373.32 394.460055 
L 373.387636 394.570388 
L 373.522909 393.661576 
L 373.996364 386.790001 
L 374.808 375.856693 
L 375.619636 368.267379 
L 376.634182 358.415754 
L 377.513455 349.61205 
L 377.919273 345.007214 
L 378.189818 339.309708 
L 378.528 328.203775 
L 378.663273 317.581454 
L 378.730909 304.920489 
L 378.866182 172.281986 
L 379.069091 330.405875 
L 379.339636 373.863698 
L 379.610182 385.708832 
L 379.813091 386.895388 
L 379.948364 386.189009 
L 380.286545 382.465184 
L 381.301091 370.74258 
L 382.992 355.350971 
L 383.803636 347.772472 
L 384.141818 342.536829 
L 384.615273 329.263743 
L 384.750545 320.041651 
L 384.818182 310.238047 
L 384.885818 283.215597 
L 384.953455 163.836116 
L 385.021091 238.173913 
L 385.224 339.938188 
L 385.494545 376.121864 
L 385.765091 386.050994 
L 385.900364 386.871045 
L 385.968 386.762824 
L 386.170909 385.303258 
L 386.914909 376.384986 
L 387.861818 366.27431 
L 389.146909 354.224253 
L 389.755636 345.487365 
L 390.093818 337.404749 
L 390.364364 327.440332 
L 390.499636 316.033588 
L 390.567273 301.814078 
L 390.702545 183.928707 
L 390.905455 332.589051 
L 391.176 373.50046 
L 391.446545 384.909208 
L 391.649455 386.130591 
L 391.784727 385.435566 
L 392.122909 381.711164 
L 393.137455 370.135069 
L 395.166545 349.238433 
L 395.572364 342.266192 
L 395.842909 332.695452 
L 395.978182 321.795396 
L 396.045818 309.0794 
L 396.181091 157.34471 
L 396.384 340.539574 
L 396.654545 385.528639 
L 396.857455 393.501836 
L 396.992727 394.480598 
L 397.128 393.804186 
L 397.398545 390.019402 
L 398.210182 377.719966 
L 399.021818 369.157734 
L 399.968727 361.151727 
L 400.712727 355.417428 
L 401.118545 350.979192 
L 401.794909 340.630293 
L 401.997818 333.393642 
L 402.133091 322.833425 
L 402.200727 310.625904 
L 402.336 151.042656 
L 402.538909 339.821391 
L 402.809455 386.705283 
L 403.012364 394.721189 
L 403.147636 395.544875 
L 403.282909 394.737482 
L 403.621091 389.965874 
L 404.635636 375.102826 
L 405.514909 365.796582 
L 405.988364 362.49008 
L 406.326545 361.883333 
L 406.664727 360.567747 
L 407.070545 358.286069 
L 407.611636 353.678063 
L 408.017455 348.118863 
L 408.288 341.864169 
L 408.490909 333.360577 
L 408.626182 321.759976 
L 408.693818 308.339888 
L 408.829091 160.846533 
L 409.032 343.709292 
L 409.302545 387.276862 
L 409.505455 394.109373 
L 409.640727 394.654037 
L 409.776 393.745185 
L 410.181818 387.906302 
L 411.061091 375.458209 
L 411.669818 369.310224 
L 413.428364 354.932687 
L 413.901818 348.27954 
L 414.375273 341.000511 
L 414.645818 336.121923 
L 414.848727 328.42507 
L 414.984 315.518995 
L 415.051636 296.830091 
L 415.119273 183.436604 
L 415.186909 202.371635 
L 415.389818 339.856415 
L 415.660364 379.185949 
L 415.930909 389.024212 
L 416.066182 389.717441 
L 416.201455 389.124645 
L 416.539636 385.187373 
L 417.621818 371.586317 
L 418.433455 364.635684 
L 419.042182 360.504267 
L 419.583273 355.705232 
L 420.259636 347.170165 
L 420.665455 338.665609 
L 421.003636 329.981226 
L 421.138909 322.176805 
L 421.274182 297.389122 
L 421.409455 199.46439 
L 421.612364 333.764952 
L 421.882909 373.070876 
L 422.153455 384.769902 
L 422.356364 386.137881 
L 422.491636 385.51354 
L 422.829818 381.854157 
L 423.844364 370.001579 
L 424.926545 360.323906 
L 425.738182 352.9326 
L 426.549818 346.125044 
L 426.820364 343.354113 
L 427.090909 337.633328 
L 427.293818 328.210288 
L 427.429091 311.547308 
L 427.496727 277.161578 
L 427.564364 148.088317 
L 427.767273 330.990738 
L 428.037818 380.337011 
L 428.240727 390.770598 
L 428.443636 392.704404 
L 428.578909 391.945546 
L 428.917091 387.530428 
L 429.864 374.728872 
L 430.472727 369.387851 
L 430.675636 392.32907 
L 431.081455 410.521661 
L 431.622545 423.25965 
L 432.366545 435.340333 
L 433.110545 444.072017 
L 433.719273 448.941932 
L 434.328 452.173811 
L 434.936727 454.247039 
L 435.545455 455.558773 
L 436.154182 456.385813 
L 436.830545 456.950675 
L 437.642182 457.332823 
L 438.656727 457.553885 
L 440.009455 457.609516 
L 441.632727 457.449991 
L 443.188364 457.076288 
L 445.623273 456.192101 
L 447.246545 455.750484 
L 449.005091 455.515189 
L 451.913455 455.388552 
L 460.300364 455.32817 
L 498.109091 455.327522 
L 498.109091 455.327522 
" clip-path="url(#p35e811ef7e)" style="fill: none; stroke: #000000; stroke-width: 1.5; stroke-linecap: square"/>
   </g>
   <g id="line2d_14">
    <path d="M 497.973818 408.87 
" clip-path="url(#p35e811ef7e)" style="fill: none; stroke: #000000; stroke-width: 1.5; stroke-linecap: square"/>
   </g>
   <g id="line2d_15">
    <path d="M 430.472727 368.1 
L 430.472727 365.382 
L 430.472727 362.664 
L 430.472727 359.946 
L 430.472727 357.228 
L 430.472727 354.51 
L 430.472727 351.792 
L 430.472727 349.074 
L 430.472727 346.356 
L 430.472727 343.638 
L 430.472727 340.92 
L 430.472727 338.202 
L 430.472727 335.484 
L 430.472727 332.766 
L 430.472727 330.048 
L 430.472727 327.33 
L 430.472727 324.612 
L 430.472727 321.894 
L 430.472727 319.176 
L 430.472727 316.458 
" clip-path="url(#p35e811ef7e)" style="fill: none; stroke: #000000; stroke-width: 1.5; stroke-linecap: square"/>
   </g>
   <g id="patch_3">
    <path d="M 72 504 
L 72 69.12 
" style="fill: none; stroke: #000000; stroke-width: 0.8; stroke-linejoin: miter; stroke-linecap: square"/>
   </g>
   <g id="patch_4">
    <path d="M 518.4 504 
L 518.4 69.12 
" style="fill: none; stroke: #000000; stroke-width: 0.8; stroke-linejoin: miter; stroke-linecap: square"/>
   </g>
   <g id="patch_5">
    <path d="M 72 504 
L 518.4 504 
" style="fill: none; stroke: #000000; stroke-width: 0.8; stroke-linejoin: miter; stroke-linecap: square"/>
   </g>
   <g id="patch_6">
    <path d="M 72 69.12 
L 518.4 69.12 
" style="fill: none; stroke: #000000; stroke-width: 0.8; stroke-linejoin: miter; stroke-linecap: square"/>
   </g>
   <g id="text_15">
    <!-- 500 ms -->
    <g transform="translate(497.973818 406.152)scale(0.22 -0.22)">
     <defs>
      <path id="ArialMT-35" d="M 266 1200 
L 856 1250 
Q 922 819 1161 601 
Q 1400 384 1738 384 
Q 2144 384 2425 690 
Q 2706 997 2706 1503 
Q 2706 1984 2436 2262 
Q 2166 2541 1728 2541 
Q 1456 2541 1237 2417 
Q 1019 2294 894 2097 
L 366 2166 
L 809 4519 
L 3088 4519 
L 3088 3981 
L 1259 3981 
L 1013 2750 
Q 1425 3038 1878 3038 
Q 2478 3038 2890 2622 
Q 3303 2206 3303 1553 
Q 3303 931 2941 478 
Q 2500 -78 1738 -78 
Q 1113 -78 717 272 
Q 322 622 266 1200 
z
" transform="scale(0.015625)"/>
      <path id="ArialMT-30" d="M 266 2259 
Q 266 3072 433 3567 
Q 600 4063 929 4331 
Q 1259 4600 1759 4600 
Q 2128 4600 2406 4451 
Q 2684 4303 2865 4023 
Q 3047 3744 3150 3342 
Q 3253 2941 3253 2259 
Q 3253 1453 3087 958 
Q 2922 463 2592 192 
Q 2263 -78 1759 -78 
Q 1097 -78 719 397 
Q 266 969 266 2259 
z
M 844 2259 
Q 844 1131 1108 757 
Q 1372 384 1759 384 
Q 2147 384 2411 759 
Q 2675 1134 2675 2259 
Q 2675 3391 2411 3762 
Q 2147 4134 1753 4134 
Q 1366 4134 1134 3806 
Q 844 3388 844 2259 
z
" transform="scale(0.015625)"/>
     </defs>
     <use xlink:href="#ArialMT-35"/>
     <use xlink:href="#ArialMT-30" x="55.615234"/>
     <use xlink:href="#ArialMT-30" x="111.230469"/>
     <use xlink:href="#ArialMT-20" x="166.845703"/>
     <use xlink:href="#ArialMT-6d" x="194.628906"/>
     <use xlink:href="#ArialMT-73" x="277.929688"/>
    </g>
   </g>
   <g id="text_16">
    <!-- 20 mV -->
    <g transform="translate(504.737455 321.894)scale(0.22 -0.22)">
     <defs>
      <path id="ArialMT-32" d="M 3222 541 
L 3222 0 
L 194 0 
Q 188 203 259 391 
Q 375 700 629 1000 
Q 884 1300 1366 1694 
Q 2113 2306 2375 2664 
Q 2638 3022 2638 3341 
Q 2638 3675 2398 3904 
Q 2159 4134 1775 4134 
Q 1369 4134 1125 3890 
Q 881 3647 878 3216 
L 300 3275 
Q 359 3922 746 4261 
Q 1134 4600 1788 4600 
Q 2447 4600 2831 4234 
Q 3216 3869 3216 3328 
Q 3216 3053 3103 2787 
Q 2991 2522 2730 2228 
Q 2469 1934 1863 1422 
Q 1356 997 1212 845 
Q 1069 694 975 541 
L 3222 541 
z
" transform="scale(0.015625)"/>
     </defs>
     <use xlink:href="#ArialMT-32"/>
     <use xlink:href="#ArialMT-30" x="55.615234"/>
     <use xlink:href="#ArialMT-20" x="111.230469"/>
     <use xlink:href="#ArialMT-6d" x="139.013672"/>
     <use xlink:href="#ArialMT-56" x="222.314453"/>
    </g>
   </g>
   <g id="text_17">
    <!--  Plotting iSPN, trace number 16089  -->
    <g transform="translate(119.725937 63.12)scale(0.22 -0.22)">
     <defs>
      <path id="ArialMT-50" d="M 494 0 
L 494 4581 
L 2222 4581 
Q 2678 4581 2919 4538 
Q 3256 4481 3484 4323 
Q 3713 4166 3852 3881 
Q 3991 3597 3991 3256 
Q 3991 2672 3619 2267 
Q 3247 1863 2275 1863 
L 1100 1863 
L 1100 0 
L 494 0 
z
M 1100 2403 
L 2284 2403 
Q 2872 2403 3119 2622 
Q 3366 2841 3366 3238 
Q 3366 3525 3220 3729 
Q 3075 3934 2838 4000 
Q 2684 4041 2272 4041 
L 1100 4041 
L 1100 2403 
z
" transform="scale(0.015625)"/>
      <path id="ArialMT-67" d="M 319 -275 
L 866 -356 
Q 900 -609 1056 -725 
Q 1266 -881 1628 -881 
Q 2019 -881 2231 -725 
Q 2444 -569 2519 -288 
Q 2563 -116 2559 434 
Q 2191 0 1641 0 
Q 956 0 581 494 
Q 206 988 206 1678 
Q 206 2153 378 2554 
Q 550 2956 876 3175 
Q 1203 3394 1644 3394 
Q 2231 3394 2613 2919 
L 2613 3319 
L 3131 3319 
L 3131 450 
Q 3131 -325 2973 -648 
Q 2816 -972 2473 -1159 
Q 2131 -1347 1631 -1347 
Q 1038 -1347 672 -1080 
Q 306 -813 319 -275 
z
M 784 1719 
Q 784 1066 1043 766 
Q 1303 466 1694 466 
Q 2081 466 2343 764 
Q 2606 1063 2606 1700 
Q 2606 2309 2336 2618 
Q 2066 2928 1684 2928 
Q 1309 2928 1046 2623 
Q 784 2319 784 1719 
z
" transform="scale(0.015625)"/>
      <path id="ArialMT-53" d="M 288 1472 
L 859 1522 
Q 900 1178 1048 958 
Q 1197 738 1509 602 
Q 1822 466 2213 466 
Q 2559 466 2825 569 
Q 3091 672 3220 851 
Q 3350 1031 3350 1244 
Q 3350 1459 3225 1620 
Q 3100 1781 2813 1891 
Q 2628 1963 1997 2114 
Q 1366 2266 1113 2400 
Q 784 2572 623 2826 
Q 463 3081 463 3397 
Q 463 3744 659 4045 
Q 856 4347 1234 4503 
Q 1613 4659 2075 4659 
Q 2584 4659 2973 4495 
Q 3363 4331 3572 4012 
Q 3781 3694 3797 3291 
L 3216 3247 
Q 3169 3681 2898 3903 
Q 2628 4125 2100 4125 
Q 1550 4125 1298 3923 
Q 1047 3722 1047 3438 
Q 1047 3191 1225 3031 
Q 1400 2872 2139 2705 
Q 2878 2538 3153 2413 
Q 3553 2228 3743 1945 
Q 3934 1663 3934 1294 
Q 3934 928 3725 604 
Q 3516 281 3123 101 
Q 2731 -78 2241 -78 
Q 1619 -78 1198 103 
Q 778 284 539 648 
Q 300 1013 288 1472 
z
" transform="scale(0.015625)"/>
      <path id="ArialMT-4e" d="M 488 0 
L 488 4581 
L 1109 4581 
L 3516 984 
L 3516 4581 
L 4097 4581 
L 4097 0 
L 3475 0 
L 1069 3600 
L 1069 0 
L 488 0 
z
" transform="scale(0.015625)"/>
      <path id="ArialMT-2c" d="M 569 0 
L 569 641 
L 1209 641 
L 1209 0 
Q 1209 -353 1084 -570 
Q 959 -788 688 -906 
L 531 -666 
Q 709 -588 793 -436 
Q 878 -284 888 0 
L 569 0 
z
" transform="scale(0.015625)"/>
      <path id="ArialMT-63" d="M 2588 1216 
L 3141 1144 
Q 3050 572 2676 248 
Q 2303 -75 1759 -75 
Q 1078 -75 664 370 
Q 250 816 250 1647 
Q 250 2184 428 2587 
Q 606 2991 970 3192 
Q 1334 3394 1763 3394 
Q 2303 3394 2647 3120 
Q 2991 2847 3088 2344 
L 2541 2259 
Q 2463 2594 2264 2762 
Q 2066 2931 1784 2931 
Q 1359 2931 1093 2626 
Q 828 2322 828 1663 
Q 828 994 1084 691 
Q 1341 388 1753 388 
Q 2084 388 2306 591 
Q 2528 794 2588 1216 
z
" transform="scale(0.015625)"/>
      <path id="ArialMT-75" d="M 2597 0 
L 2597 488 
Q 2209 -75 1544 -75 
Q 1250 -75 995 37 
Q 741 150 617 320 
Q 494 491 444 738 
Q 409 903 409 1263 
L 409 3319 
L 972 3319 
L 972 1478 
Q 972 1038 1006 884 
Q 1059 663 1231 536 
Q 1403 409 1656 409 
Q 1909 409 2131 539 
Q 2353 669 2445 892 
Q 2538 1116 2538 1541 
L 2538 3319 
L 3100 3319 
L 3100 0 
L 2597 0 
z
" transform="scale(0.015625)"/>
      <path id="ArialMT-31" d="M 2384 0 
L 1822 0 
L 1822 3584 
Q 1619 3391 1289 3197 
Q 959 3003 697 2906 
L 697 3450 
Q 1169 3672 1522 3987 
Q 1875 4303 2022 4600 
L 2384 4600 
L 2384 0 
z
" transform="scale(0.015625)"/>
      <path id="ArialMT-36" d="M 3184 3459 
L 2625 3416 
Q 2550 3747 2413 3897 
Q 2184 4138 1850 4138 
Q 1581 4138 1378 3988 
Q 1113 3794 959 3422 
Q 806 3050 800 2363 
Q 1003 2672 1297 2822 
Q 1591 2972 1913 2972 
Q 2475 2972 2870 2558 
Q 3266 2144 3266 1488 
Q 3266 1056 3080 686 
Q 2894 316 2569 119 
Q 2244 -78 1831 -78 
Q 1128 -78 684 439 
Q 241 956 241 2144 
Q 241 3472 731 4075 
Q 1159 4600 1884 4600 
Q 2425 4600 2770 4297 
Q 3116 3994 3184 3459 
z
M 888 1484 
Q 888 1194 1011 928 
Q 1134 663 1356 523 
Q 1578 384 1822 384 
Q 2178 384 2434 671 
Q 2691 959 2691 1453 
Q 2691 1928 2437 2201 
Q 2184 2475 1800 2475 
Q 1419 2475 1153 2201 
Q 888 1928 888 1484 
z
" transform="scale(0.015625)"/>
      <path id="ArialMT-38" d="M 1131 2484 
Q 781 2613 612 2850 
Q 444 3088 444 3419 
Q 444 3919 803 4259 
Q 1163 4600 1759 4600 
Q 2359 4600 2725 4251 
Q 3091 3903 3091 3403 
Q 3091 3084 2923 2848 
Q 2756 2613 2416 2484 
Q 2838 2347 3058 2040 
Q 3278 1734 3278 1309 
Q 3278 722 2862 322 
Q 2447 -78 1769 -78 
Q 1091 -78 675 323 
Q 259 725 259 1325 
Q 259 1772 486 2073 
Q 713 2375 1131 2484 
z
M 1019 3438 
Q 1019 3113 1228 2906 
Q 1438 2700 1772 2700 
Q 2097 2700 2305 2904 
Q 2513 3109 2513 3406 
Q 2513 3716 2298 3927 
Q 2084 4138 1766 4138 
Q 1444 4138 1231 3931 
Q 1019 3725 1019 3438 
z
M 838 1322 
Q 838 1081 952 856 
Q 1066 631 1291 507 
Q 1516 384 1775 384 
Q 2178 384 2440 643 
Q 2703 903 2703 1303 
Q 2703 1709 2433 1975 
Q 2163 2241 1756 2241 
Q 1359 2241 1098 1978 
Q 838 1716 838 1322 
z
" transform="scale(0.015625)"/>
      <path id="ArialMT-39" d="M 350 1059 
L 891 1109 
Q 959 728 1153 556 
Q 1347 384 1650 384 
Q 1909 384 2104 503 
Q 2300 622 2425 820 
Q 2550 1019 2634 1356 
Q 2719 1694 2719 2044 
Q 2719 2081 2716 2156 
Q 2547 1888 2255 1720 
Q 1963 1553 1622 1553 
Q 1053 1553 659 1965 
Q 266 2378 266 3053 
Q 266 3750 677 4175 
Q 1088 4600 1706 4600 
Q 2153 4600 2523 4359 
Q 2894 4119 3086 3673 
Q 3278 3228 3278 2384 
Q 3278 1506 3087 986 
Q 2897 466 2520 194 
Q 2144 -78 1638 -78 
Q 1100 -78 759 220 
Q 419 519 350 1059 
z
M 2653 3081 
Q 2653 3566 2395 3850 
Q 2138 4134 1775 4134 
Q 1400 4134 1122 3828 
Q 844 3522 844 3034 
Q 844 2597 1108 2323 
Q 1372 2050 1759 2050 
Q 2150 2050 2401 2323 
Q 2653 2597 2653 3081 
z
" transform="scale(0.015625)"/>
     </defs>
     <use xlink:href="#ArialMT-20"/>
     <use xlink:href="#ArialMT-50" x="27.783203"/>
     <use xlink:href="#ArialMT-6c" x="94.482422"/>
     <use xlink:href="#ArialMT-6f" x="116.699219"/>
     <use xlink:href="#ArialMT-74" x="172.314453"/>
     <use xlink:href="#ArialMT-74" x="200.097656"/>
     <use xlink:href="#ArialMT-69" x="227.880859"/>
     <use xlink:href="#ArialMT-6e" x="250.097656"/>
     <use xlink:href="#ArialMT-67" x="305.712891"/>
     <use xlink:href="#ArialMT-20" x="361.328125"/>
     <use xlink:href="#ArialMT-69" x="389.111328"/>
     <use xlink:href="#ArialMT-53" x="411.328125"/>
     <use xlink:href="#ArialMT-50" x="478.027344"/>
     <use xlink:href="#ArialMT-4e" x="544.726562"/>
     <use xlink:href="#ArialMT-2c" x="616.943359"/>
     <use xlink:href="#ArialMT-20" x="644.726562"/>
     <use xlink:href="#ArialMT-74" x="672.509766"/>
     <use xlink:href="#ArialMT-72" x="700.292969"/>
     <use xlink:href="#ArialMT-61" x="733.59375"/>
     <use xlink:href="#ArialMT-63" x="789.208984"/>
     <use xlink:href="#ArialMT-65" x="839.208984"/>
     <use xlink:href="#ArialMT-20" x="894.824219"/>
     <use xlink:href="#ArialMT-6e" x="922.607422"/>
     <use xlink:href="#ArialMT-75" x="978.222656"/>
     <use xlink:href="#ArialMT-6d" x="1033.837891"/>
     <use xlink:href="#ArialMT-62" x="1117.138672"/>
     <use xlink:href="#ArialMT-65" x="1172.753906"/>
     <use xlink:href="#ArialMT-72" x="1228.369141"/>
     <use xlink:href="#ArialMT-20" x="1261.669922"/>
     <use xlink:href="#ArialMT-31" x="1289.453125"/>
     <use xlink:href="#ArialMT-36" x="1345.068359"/>
     <use xlink:href="#ArialMT-30" x="1400.683594"/>
     <use xlink:href="#ArialMT-38" x="1456.298828"/>
     <use xlink:href="#ArialMT-39" x="1511.914062"/>
     <use xlink:href="#ArialMT-20" x="1567.529297"/>
    </g>
   </g>
  </g>
 </g>
 <defs>
  <clipPath id="p35e811ef7e">
   <rect x="72" y="69.12" width="446.4" height="434.88"/>
  </clipPath>
 </defs>
</svg>
