<?xml version="1.0" encoding="utf-8" standalone="no"?>
<!DOCTYPE svg PUBLIC "-//W3C//DTD SVG 1.1//EN"
  "http://www.w3.org/Graphics/SVG/1.1/DTD/svg11.dtd">
<svg xmlns:xlink="http://www.w3.org/1999/xlink" width="576pt" height="576pt" viewBox="0 0 576 576" xmlns="http://www.w3.org/2000/svg" version="1.1">
 <metadata>
  <rdf:RDF xmlns:dc="http://purl.org/dc/elements/1.1/" xmlns:cc="http://creativecommons.org/ns#" xmlns:rdf="http://www.w3.org/1999/02/22-rdf-syntax-ns#">
   <cc:Work>
    <dc:type rdf:resource="http://purl.org/dc/dcmitype/StillImage"/>
    <dc:date>2022-10-30T19:57:02.413271</dc:date>
    <dc:format>image/svg+xml</dc:format>
    <dc:creator>
     <cc:Agent>
      <dc:title>Matplotlib v3.5.2, https://matplotlib.org/</dc:title>
     </cc:Agent>
    </dc:creator>
   </cc:Work>
  </rdf:RDF>
 </metadata>
 <defs>
  <style type="text/css">*{stroke-linejoin: round; stroke-linecap: butt}</style>
 </defs>
 <g id="figure_1">
  <g id="patch_1">
   <path d="M 0 576 
L 576 576 
L 576 0 
L 0 0 
L 0 576 
z
" style="fill: none"/>
  </g>
  <g id="axes_1">
   <g id="patch_2">
    <path d="M 72 504 
L 518.4 504 
L 518.4 69.12 
L 72 69.12 
z
" style="fill: #ffffff"/>
   </g>
   <g id="matplotlib.axis_1">
    <g id="xtick_1">
     <g id="line2d_1">
      <defs>
       <path id="mb30a3c5002" d="M 0 0 
L 0 3.5 
" style="stroke: #000000; stroke-width: 0.8"/>
      </defs>
      <g>
       <use xlink:href="#mb30a3c5002" x="92.290909" y="504" style="stroke: #000000; stroke-width: 0.8"/>
      </g>
     </g>
     <g id="text_1">
      <!-- 0 -->
      <g transform="translate(85.292159 527.716563)scale(0.22 -0.22)">
       <defs>
        <path id="DejaVuSans-30" d="M 2034 4250 
Q 1547 4250 1301 3770 
Q 1056 3291 1056 2328 
Q 1056 1369 1301 889 
Q 1547 409 2034 409 
Q 2525 409 2770 889 
Q 3016 1369 3016 2328 
Q 3016 3291 2770 3770 
Q 2525 4250 2034 4250 
z
M 2034 4750 
Q 2819 4750 3233 4129 
Q 3647 3509 3647 2328 
Q 3647 1150 3233 529 
Q 2819 -91 2034 -91 
Q 1250 -91 836 529 
Q 422 1150 422 2328 
Q 422 3509 836 4129 
Q 1250 4750 2034 4750 
z
" transform="scale(0.015625)"/>
       </defs>
       <use xlink:href="#DejaVuSans-30"/>
      </g>
     </g>
    </g>
    <g id="xtick_2">
     <g id="line2d_2">
      <g>
       <use xlink:href="#mb30a3c5002" x="227.563636" y="504" style="stroke: #000000; stroke-width: 0.8"/>
      </g>
     </g>
     <g id="text_2">
      <!-- 1000 -->
      <g transform="translate(199.568636 527.716563)scale(0.22 -0.22)">
       <defs>
        <path id="DejaVuSans-31" d="M 794 531 
L 1825 531 
L 1825 4091 
L 703 3866 
L 703 4441 
L 1819 4666 
L 2450 4666 
L 2450 531 
L 3481 531 
L 3481 0 
L 794 0 
L 794 531 
z
" transform="scale(0.015625)"/>
       </defs>
       <use xlink:href="#DejaVuSans-31"/>
       <use xlink:href="#DejaVuSans-30" x="63.623047"/>
       <use xlink:href="#DejaVuSans-30" x="127.246094"/>
       <use xlink:href="#DejaVuSans-30" x="190.869141"/>
      </g>
     </g>
    </g>
    <g id="xtick_3">
     <g id="line2d_3">
      <g>
       <use xlink:href="#mb30a3c5002" x="362.836364" y="504" style="stroke: #000000; stroke-width: 0.8"/>
      </g>
     </g>
     <g id="text_3">
      <!-- 2000 -->
      <g transform="translate(334.841364 527.716563)scale(0.22 -0.22)">
       <defs>
        <path id="DejaVuSans-32" d="M 1228 531 
L 3431 531 
L 3431 0 
L 469 0 
L 469 531 
Q 828 903 1448 1529 
Q 2069 2156 2228 2338 
Q 2531 2678 2651 2914 
Q 2772 3150 2772 3378 
Q 2772 3750 2511 3984 
Q 2250 4219 1831 4219 
Q 1534 4219 1204 4116 
Q 875 4013 500 3803 
L 500 4441 
Q 881 4594 1212 4672 
Q 1544 4750 1819 4750 
Q 2544 4750 2975 4387 
Q 3406 4025 3406 3419 
Q 3406 3131 3298 2873 
Q 3191 2616 2906 2266 
Q 2828 2175 2409 1742 
Q 1991 1309 1228 531 
z
" transform="scale(0.015625)"/>
       </defs>
       <use xlink:href="#DejaVuSans-32"/>
       <use xlink:href="#DejaVuSans-30" x="63.623047"/>
       <use xlink:href="#DejaVuSans-30" x="127.246094"/>
       <use xlink:href="#DejaVuSans-30" x="190.869141"/>
      </g>
     </g>
    </g>
    <g id="xtick_4">
     <g id="line2d_4">
      <g>
       <use xlink:href="#mb30a3c5002" x="498.109091" y="504" style="stroke: #000000; stroke-width: 0.8"/>
      </g>
     </g>
     <g id="text_4">
      <!-- 3000 -->
      <g transform="translate(470.114091 527.716563)scale(0.22 -0.22)">
       <defs>
        <path id="DejaVuSans-33" d="M 2597 2516 
Q 3050 2419 3304 2112 
Q 3559 1806 3559 1356 
Q 3559 666 3084 287 
Q 2609 -91 1734 -91 
Q 1441 -91 1130 -33 
Q 819 25 488 141 
L 488 750 
Q 750 597 1062 519 
Q 1375 441 1716 441 
Q 2309 441 2620 675 
Q 2931 909 2931 1356 
Q 2931 1769 2642 2001 
Q 2353 2234 1838 2234 
L 1294 2234 
L 1294 2753 
L 1863 2753 
Q 2328 2753 2575 2939 
Q 2822 3125 2822 3475 
Q 2822 3834 2567 4026 
Q 2313 4219 1838 4219 
Q 1578 4219 1281 4162 
Q 984 4106 628 3988 
L 628 4550 
Q 988 4650 1302 4700 
Q 1616 4750 1894 4750 
Q 2613 4750 3031 4423 
Q 3450 4097 3450 3541 
Q 3450 3153 3228 2886 
Q 3006 2619 2597 2516 
z
" transform="scale(0.015625)"/>
       </defs>
       <use xlink:href="#DejaVuSans-33"/>
       <use xlink:href="#DejaVuSans-30" x="63.623047"/>
       <use xlink:href="#DejaVuSans-30" x="127.246094"/>
       <use xlink:href="#DejaVuSans-30" x="190.869141"/>
      </g>
     </g>
    </g>
    <g id="text_5">
     <!-- Time(ms) -->
     <g transform="translate(249.182187 552.307188)scale(0.22 -0.22)">
      <defs>
       <path id="ArialMT-54" d="M 1659 0 
L 1659 4041 
L 150 4041 
L 150 4581 
L 3781 4581 
L 3781 4041 
L 2266 4041 
L 2266 0 
L 1659 0 
z
" transform="scale(0.015625)"/>
       <path id="ArialMT-69" d="M 425 3934 
L 425 4581 
L 988 4581 
L 988 3934 
L 425 3934 
z
M 425 0 
L 425 3319 
L 988 3319 
L 988 0 
L 425 0 
z
" transform="scale(0.015625)"/>
       <path id="ArialMT-6d" d="M 422 0 
L 422 3319 
L 925 3319 
L 925 2853 
Q 1081 3097 1340 3245 
Q 1600 3394 1931 3394 
Q 2300 3394 2536 3241 
Q 2772 3088 2869 2813 
Q 3263 3394 3894 3394 
Q 4388 3394 4653 3120 
Q 4919 2847 4919 2278 
L 4919 0 
L 4359 0 
L 4359 2091 
Q 4359 2428 4304 2576 
Q 4250 2725 4106 2815 
Q 3963 2906 3769 2906 
Q 3419 2906 3187 2673 
Q 2956 2441 2956 1928 
L 2956 0 
L 2394 0 
L 2394 2156 
Q 2394 2531 2256 2718 
Q 2119 2906 1806 2906 
Q 1569 2906 1367 2781 
Q 1166 2656 1075 2415 
Q 984 2175 984 1722 
L 984 0 
L 422 0 
z
" transform="scale(0.015625)"/>
       <path id="ArialMT-65" d="M 2694 1069 
L 3275 997 
Q 3138 488 2766 206 
Q 2394 -75 1816 -75 
Q 1088 -75 661 373 
Q 234 822 234 1631 
Q 234 2469 665 2931 
Q 1097 3394 1784 3394 
Q 2450 3394 2872 2941 
Q 3294 2488 3294 1666 
Q 3294 1616 3291 1516 
L 816 1516 
Q 847 969 1125 678 
Q 1403 388 1819 388 
Q 2128 388 2347 550 
Q 2566 713 2694 1069 
z
M 847 1978 
L 2700 1978 
Q 2663 2397 2488 2606 
Q 2219 2931 1791 2931 
Q 1403 2931 1139 2672 
Q 875 2413 847 1978 
z
" transform="scale(0.015625)"/>
       <path id="ArialMT-28" d="M 1497 -1347 
Q 1031 -759 709 28 
Q 388 816 388 1659 
Q 388 2403 628 3084 
Q 909 3875 1497 4659 
L 1900 4659 
Q 1522 4009 1400 3731 
Q 1209 3300 1100 2831 
Q 966 2247 966 1656 
Q 966 153 1900 -1347 
L 1497 -1347 
z
" transform="scale(0.015625)"/>
       <path id="ArialMT-73" d="M 197 991 
L 753 1078 
Q 800 744 1014 566 
Q 1228 388 1613 388 
Q 2000 388 2187 545 
Q 2375 703 2375 916 
Q 2375 1106 2209 1216 
Q 2094 1291 1634 1406 
Q 1016 1563 777 1677 
Q 538 1791 414 1992 
Q 291 2194 291 2438 
Q 291 2659 392 2848 
Q 494 3038 669 3163 
Q 800 3259 1026 3326 
Q 1253 3394 1513 3394 
Q 1903 3394 2198 3281 
Q 2494 3169 2634 2976 
Q 2775 2784 2828 2463 
L 2278 2388 
Q 2241 2644 2061 2787 
Q 1881 2931 1553 2931 
Q 1166 2931 1000 2803 
Q 834 2675 834 2503 
Q 834 2394 903 2306 
Q 972 2216 1119 2156 
Q 1203 2125 1616 2013 
Q 2213 1853 2448 1751 
Q 2684 1650 2818 1456 
Q 2953 1263 2953 975 
Q 2953 694 2789 445 
Q 2625 197 2315 61 
Q 2006 -75 1616 -75 
Q 969 -75 630 194 
Q 291 463 197 991 
z
" transform="scale(0.015625)"/>
       <path id="ArialMT-29" d="M 791 -1347 
L 388 -1347 
Q 1322 153 1322 1656 
Q 1322 2244 1188 2822 
Q 1081 3291 891 3722 
Q 769 4003 388 4659 
L 791 4659 
Q 1378 3875 1659 3084 
Q 1900 2403 1900 1659 
Q 1900 816 1576 28 
Q 1253 -759 791 -1347 
z
" transform="scale(0.015625)"/>
      </defs>
      <use xlink:href="#ArialMT-54"/>
      <use xlink:href="#ArialMT-69" x="57.333984"/>
      <use xlink:href="#ArialMT-6d" x="79.550781"/>
      <use xlink:href="#ArialMT-65" x="162.851562"/>
      <use xlink:href="#ArialMT-28" x="218.466797"/>
      <use xlink:href="#ArialMT-6d" x="251.767578"/>
      <use xlink:href="#ArialMT-73" x="335.068359"/>
      <use xlink:href="#ArialMT-29" x="385.068359"/>
     </g>
    </g>
   </g>
   <g id="matplotlib.axis_2">
    <g id="ytick_1">
     <g id="line2d_5">
      <defs>
       <path id="m03eabb6481" d="M 0 0 
L -3.5 0 
" style="stroke: #000000; stroke-width: 0.8"/>
      </defs>
      <g>
       <use xlink:href="#m03eabb6481" x="72" y="476.82" style="stroke: #000000; stroke-width: 0.8"/>
      </g>
     </g>
     <g id="text_6">
      <!-- −100 -->
      <g transform="translate(4.572187 485.178281)scale(0.22 -0.22)">
       <defs>
        <path id="DejaVuSans-2212" d="M 678 2272 
L 4684 2272 
L 4684 1741 
L 678 1741 
L 678 2272 
z
" transform="scale(0.015625)"/>
       </defs>
       <use xlink:href="#DejaVuSans-2212"/>
       <use xlink:href="#DejaVuSans-31" x="83.789062"/>
       <use xlink:href="#DejaVuSans-30" x="147.412109"/>
       <use xlink:href="#DejaVuSans-30" x="211.035156"/>
      </g>
     </g>
    </g>
    <g id="ytick_2">
     <g id="line2d_6">
      <g>
       <use xlink:href="#m03eabb6481" x="72" y="422.46" style="stroke: #000000; stroke-width: 0.8"/>
      </g>
     </g>
     <g id="text_7">
      <!-- −80 -->
      <g transform="translate(18.569688 430.818281)scale(0.22 -0.22)">
       <defs>
        <path id="DejaVuSans-38" d="M 2034 2216 
Q 1584 2216 1326 1975 
Q 1069 1734 1069 1313 
Q 1069 891 1326 650 
Q 1584 409 2034 409 
Q 2484 409 2743 651 
Q 3003 894 3003 1313 
Q 3003 1734 2745 1975 
Q 2488 2216 2034 2216 
z
M 1403 2484 
Q 997 2584 770 2862 
Q 544 3141 544 3541 
Q 544 4100 942 4425 
Q 1341 4750 2034 4750 
Q 2731 4750 3128 4425 
Q 3525 4100 3525 3541 
Q 3525 3141 3298 2862 
Q 3072 2584 2669 2484 
Q 3125 2378 3379 2068 
Q 3634 1759 3634 1313 
Q 3634 634 3220 271 
Q 2806 -91 2034 -91 
Q 1263 -91 848 271 
Q 434 634 434 1313 
Q 434 1759 690 2068 
Q 947 2378 1403 2484 
z
M 1172 3481 
Q 1172 3119 1398 2916 
Q 1625 2713 2034 2713 
Q 2441 2713 2670 2916 
Q 2900 3119 2900 3481 
Q 2900 3844 2670 4047 
Q 2441 4250 2034 4250 
Q 1625 4250 1398 4047 
Q 1172 3844 1172 3481 
z
" transform="scale(0.015625)"/>
       </defs>
       <use xlink:href="#DejaVuSans-2212"/>
       <use xlink:href="#DejaVuSans-38" x="83.789062"/>
       <use xlink:href="#DejaVuSans-30" x="147.412109"/>
      </g>
     </g>
    </g>
    <g id="ytick_3">
     <g id="line2d_7">
      <g>
       <use xlink:href="#m03eabb6481" x="72" y="368.1" style="stroke: #000000; stroke-width: 0.8"/>
      </g>
     </g>
     <g id="text_8">
      <!-- −60 -->
      <g transform="translate(18.569688 376.458281)scale(0.22 -0.22)">
       <defs>
        <path id="DejaVuSans-36" d="M 2113 2584 
Q 1688 2584 1439 2293 
Q 1191 2003 1191 1497 
Q 1191 994 1439 701 
Q 1688 409 2113 409 
Q 2538 409 2786 701 
Q 3034 994 3034 1497 
Q 3034 2003 2786 2293 
Q 2538 2584 2113 2584 
z
M 3366 4563 
L 3366 3988 
Q 3128 4100 2886 4159 
Q 2644 4219 2406 4219 
Q 1781 4219 1451 3797 
Q 1122 3375 1075 2522 
Q 1259 2794 1537 2939 
Q 1816 3084 2150 3084 
Q 2853 3084 3261 2657 
Q 3669 2231 3669 1497 
Q 3669 778 3244 343 
Q 2819 -91 2113 -91 
Q 1303 -91 875 529 
Q 447 1150 447 2328 
Q 447 3434 972 4092 
Q 1497 4750 2381 4750 
Q 2619 4750 2861 4703 
Q 3103 4656 3366 4563 
z
" transform="scale(0.015625)"/>
       </defs>
       <use xlink:href="#DejaVuSans-2212"/>
       <use xlink:href="#DejaVuSans-36" x="83.789062"/>
       <use xlink:href="#DejaVuSans-30" x="147.412109"/>
      </g>
     </g>
    </g>
    <g id="ytick_4">
     <g id="line2d_8">
      <g>
       <use xlink:href="#m03eabb6481" x="72" y="313.74" style="stroke: #000000; stroke-width: 0.8"/>
      </g>
     </g>
     <g id="text_9">
      <!-- −40 -->
      <g transform="translate(18.569688 322.098281)scale(0.22 -0.22)">
       <defs>
        <path id="DejaVuSans-34" d="M 2419 4116 
L 825 1625 
L 2419 1625 
L 2419 4116 
z
M 2253 4666 
L 3047 4666 
L 3047 1625 
L 3713 1625 
L 3713 1100 
L 3047 1100 
L 3047 0 
L 2419 0 
L 2419 1100 
L 313 1100 
L 313 1709 
L 2253 4666 
z
" transform="scale(0.015625)"/>
       </defs>
       <use xlink:href="#DejaVuSans-2212"/>
       <use xlink:href="#DejaVuSans-34" x="83.789062"/>
       <use xlink:href="#DejaVuSans-30" x="147.412109"/>
      </g>
     </g>
    </g>
    <g id="ytick_5">
     <g id="line2d_9">
      <g>
       <use xlink:href="#m03eabb6481" x="72" y="259.38" style="stroke: #000000; stroke-width: 0.8"/>
      </g>
     </g>
     <g id="text_10">
      <!-- −20 -->
      <g transform="translate(18.569688 267.738281)scale(0.22 -0.22)">
       <use xlink:href="#DejaVuSans-2212"/>
       <use xlink:href="#DejaVuSans-32" x="83.789062"/>
       <use xlink:href="#DejaVuSans-30" x="147.412109"/>
      </g>
     </g>
    </g>
    <g id="ytick_6">
     <g id="line2d_10">
      <g>
       <use xlink:href="#m03eabb6481" x="72" y="205.02" style="stroke: #000000; stroke-width: 0.8"/>
      </g>
     </g>
     <g id="text_11">
      <!-- 0 -->
      <g transform="translate(51.0025 213.378281)scale(0.22 -0.22)">
       <use xlink:href="#DejaVuSans-30"/>
      </g>
     </g>
    </g>
    <g id="ytick_7">
     <g id="line2d_11">
      <g>
       <use xlink:href="#m03eabb6481" x="72" y="150.66" style="stroke: #000000; stroke-width: 0.8"/>
      </g>
     </g>
     <g id="text_12">
      <!-- 20 -->
      <g transform="translate(37.005 159.018281)scale(0.22 -0.22)">
       <use xlink:href="#DejaVuSans-32"/>
       <use xlink:href="#DejaVuSans-30" x="63.623047"/>
      </g>
     </g>
    </g>
    <g id="ytick_8">
     <g id="line2d_12">
      <g>
       <use xlink:href="#m03eabb6481" x="72" y="96.3" style="stroke: #000000; stroke-width: 0.8"/>
      </g>
     </g>
     <g id="text_13">
      <!-- 40 -->
      <g transform="translate(37.005 104.658281)scale(0.22 -0.22)">
       <use xlink:href="#DejaVuSans-34"/>
       <use xlink:href="#DejaVuSans-30" x="63.623047"/>
      </g>
     </g>
    </g>
    <g id="text_14">
     <!-- Membrane potential (mV) -->
     <g transform="translate(-4.058125 410.655469)rotate(-90)scale(0.22 -0.22)">
      <defs>
       <path id="ArialMT-4d" d="M 475 0 
L 475 4581 
L 1388 4581 
L 2472 1338 
Q 2622 884 2691 659 
Q 2769 909 2934 1394 
L 4031 4581 
L 4847 4581 
L 4847 0 
L 4263 0 
L 4263 3834 
L 2931 0 
L 2384 0 
L 1059 3900 
L 1059 0 
L 475 0 
z
" transform="scale(0.015625)"/>
       <path id="ArialMT-62" d="M 941 0 
L 419 0 
L 419 4581 
L 981 4581 
L 981 2947 
Q 1338 3394 1891 3394 
Q 2197 3394 2470 3270 
Q 2744 3147 2920 2923 
Q 3097 2700 3197 2384 
Q 3297 2069 3297 1709 
Q 3297 856 2875 390 
Q 2453 -75 1863 -75 
Q 1275 -75 941 416 
L 941 0 
z
M 934 1684 
Q 934 1088 1097 822 
Q 1363 388 1816 388 
Q 2184 388 2453 708 
Q 2722 1028 2722 1663 
Q 2722 2313 2464 2622 
Q 2206 2931 1841 2931 
Q 1472 2931 1203 2611 
Q 934 2291 934 1684 
z
" transform="scale(0.015625)"/>
       <path id="ArialMT-72" d="M 416 0 
L 416 3319 
L 922 3319 
L 922 2816 
Q 1116 3169 1280 3281 
Q 1444 3394 1641 3394 
Q 1925 3394 2219 3213 
L 2025 2691 
Q 1819 2813 1613 2813 
Q 1428 2813 1281 2702 
Q 1134 2591 1072 2394 
Q 978 2094 978 1738 
L 978 0 
L 416 0 
z
" transform="scale(0.015625)"/>
       <path id="ArialMT-61" d="M 2588 409 
Q 2275 144 1986 34 
Q 1697 -75 1366 -75 
Q 819 -75 525 192 
Q 231 459 231 875 
Q 231 1119 342 1320 
Q 453 1522 633 1644 
Q 813 1766 1038 1828 
Q 1203 1872 1538 1913 
Q 2219 1994 2541 2106 
Q 2544 2222 2544 2253 
Q 2544 2597 2384 2738 
Q 2169 2928 1744 2928 
Q 1347 2928 1158 2789 
Q 969 2650 878 2297 
L 328 2372 
Q 403 2725 575 2942 
Q 747 3159 1072 3276 
Q 1397 3394 1825 3394 
Q 2250 3394 2515 3294 
Q 2781 3194 2906 3042 
Q 3031 2891 3081 2659 
Q 3109 2516 3109 2141 
L 3109 1391 
Q 3109 606 3145 398 
Q 3181 191 3288 0 
L 2700 0 
Q 2613 175 2588 409 
z
M 2541 1666 
Q 2234 1541 1622 1453 
Q 1275 1403 1131 1340 
Q 988 1278 909 1158 
Q 831 1038 831 891 
Q 831 666 1001 516 
Q 1172 366 1500 366 
Q 1825 366 2078 508 
Q 2331 650 2450 897 
Q 2541 1088 2541 1459 
L 2541 1666 
z
" transform="scale(0.015625)"/>
       <path id="ArialMT-6e" d="M 422 0 
L 422 3319 
L 928 3319 
L 928 2847 
Q 1294 3394 1984 3394 
Q 2284 3394 2536 3286 
Q 2788 3178 2913 3003 
Q 3038 2828 3088 2588 
Q 3119 2431 3119 2041 
L 3119 0 
L 2556 0 
L 2556 2019 
Q 2556 2363 2490 2533 
Q 2425 2703 2258 2804 
Q 2091 2906 1866 2906 
Q 1506 2906 1245 2678 
Q 984 2450 984 1813 
L 984 0 
L 422 0 
z
" transform="scale(0.015625)"/>
       <path id="ArialMT-20" transform="scale(0.015625)"/>
       <path id="ArialMT-70" d="M 422 -1272 
L 422 3319 
L 934 3319 
L 934 2888 
Q 1116 3141 1344 3267 
Q 1572 3394 1897 3394 
Q 2322 3394 2647 3175 
Q 2972 2956 3137 2557 
Q 3303 2159 3303 1684 
Q 3303 1175 3120 767 
Q 2938 359 2589 142 
Q 2241 -75 1856 -75 
Q 1575 -75 1351 44 
Q 1128 163 984 344 
L 984 -1272 
L 422 -1272 
z
M 931 1641 
Q 931 1000 1190 694 
Q 1450 388 1819 388 
Q 2194 388 2461 705 
Q 2728 1022 2728 1688 
Q 2728 2322 2467 2637 
Q 2206 2953 1844 2953 
Q 1484 2953 1207 2617 
Q 931 2281 931 1641 
z
" transform="scale(0.015625)"/>
       <path id="ArialMT-6f" d="M 213 1659 
Q 213 2581 725 3025 
Q 1153 3394 1769 3394 
Q 2453 3394 2887 2945 
Q 3322 2497 3322 1706 
Q 3322 1066 3130 698 
Q 2938 331 2570 128 
Q 2203 -75 1769 -75 
Q 1072 -75 642 372 
Q 213 819 213 1659 
z
M 791 1659 
Q 791 1022 1069 705 
Q 1347 388 1769 388 
Q 2188 388 2466 706 
Q 2744 1025 2744 1678 
Q 2744 2294 2464 2611 
Q 2184 2928 1769 2928 
Q 1347 2928 1069 2612 
Q 791 2297 791 1659 
z
" transform="scale(0.015625)"/>
       <path id="ArialMT-74" d="M 1650 503 
L 1731 6 
Q 1494 -44 1306 -44 
Q 1000 -44 831 53 
Q 663 150 594 308 
Q 525 466 525 972 
L 525 2881 
L 113 2881 
L 113 3319 
L 525 3319 
L 525 4141 
L 1084 4478 
L 1084 3319 
L 1650 3319 
L 1650 2881 
L 1084 2881 
L 1084 941 
Q 1084 700 1114 631 
Q 1144 563 1211 522 
Q 1278 481 1403 481 
Q 1497 481 1650 503 
z
" transform="scale(0.015625)"/>
       <path id="ArialMT-6c" d="M 409 0 
L 409 4581 
L 972 4581 
L 972 0 
L 409 0 
z
" transform="scale(0.015625)"/>
       <path id="ArialMT-56" d="M 1803 0 
L 28 4581 
L 684 4581 
L 1875 1253 
Q 2019 853 2116 503 
Q 2222 878 2363 1253 
L 3600 4581 
L 4219 4581 
L 2425 0 
L 1803 0 
z
" transform="scale(0.015625)"/>
      </defs>
      <use xlink:href="#ArialMT-4d"/>
      <use xlink:href="#ArialMT-65" x="83.300781"/>
      <use xlink:href="#ArialMT-6d" x="138.916016"/>
      <use xlink:href="#ArialMT-62" x="222.216797"/>
      <use xlink:href="#ArialMT-72" x="277.832031"/>
      <use xlink:href="#ArialMT-61" x="311.132812"/>
      <use xlink:href="#ArialMT-6e" x="366.748047"/>
      <use xlink:href="#ArialMT-65" x="422.363281"/>
      <use xlink:href="#ArialMT-20" x="477.978516"/>
      <use xlink:href="#ArialMT-70" x="505.761719"/>
      <use xlink:href="#ArialMT-6f" x="561.376953"/>
      <use xlink:href="#ArialMT-74" x="616.992188"/>
      <use xlink:href="#ArialMT-65" x="644.775391"/>
      <use xlink:href="#ArialMT-6e" x="700.390625"/>
      <use xlink:href="#ArialMT-74" x="756.005859"/>
      <use xlink:href="#ArialMT-69" x="783.789062"/>
      <use xlink:href="#ArialMT-61" x="806.005859"/>
      <use xlink:href="#ArialMT-6c" x="861.621094"/>
      <use xlink:href="#ArialMT-20" x="883.837891"/>
      <use xlink:href="#ArialMT-28" x="911.621094"/>
      <use xlink:href="#ArialMT-6d" x="944.921875"/>
      <use xlink:href="#ArialMT-56" x="1028.222656"/>
      <use xlink:href="#ArialMT-29" x="1094.921875"/>
     </g>
    </g>
   </g>
   <g id="line2d_13">
    <path d="M 92.290909 438.768 
L 92.493818 443.059732 
L 92.967273 446.944075 
L 93.508364 449.496414 
L 94.049455 450.969653 
L 94.590545 451.813248 
L 95.199273 452.333668 
L 95.943273 452.646379 
L 97.025455 452.824125 
L 99.189818 452.901204 
L 111.567273 452.912833 
L 159.927273 452.912897 
L 160.130182 431.216043 
L 160.536 417.775477 
L 161.009455 408.588156 
L 161.618182 401.13986 
L 162.362182 394.900474 
L 163.309091 388.948432 
L 164.458909 383.175518 
L 165.067636 379.742316 
L 166.014545 374.415878 
L 166.758545 372.096718 
L 168.111273 368.529173 
L 168.855273 367.102823 
L 170.072727 365.166207 
L 171.696 363.896522 
L 173.184 361.429456 
L 174.739636 360.505968 
L 175.077818 360.285201 
L 176.362909 359.071726 
L 176.971636 358.876243 
L 177.445091 358.594599 
L 177.783273 358.513969 
L 178.121455 358.247827 
L 179.000727 357.427618 
L 179.406545 357.011969 
L 180.488727 355.47692 
L 180.894545 355.073301 
L 181.232727 354.700127 
L 182.112 354.439165 
L 182.517818 353.813847 
L 182.856 353.39959 
L 183.126545 353.466799 
L 183.870545 353.64674 
L 184.614545 353.054467 
L 184.885091 353.481717 
L 186.102545 355.568228 
L 186.305455 355.479654 
L 186.576 355.276983 
L 187.184727 355.889441 
L 187.455273 355.537752 
L 188.266909 354.242588 
L 188.605091 354.233388 
L 189.010909 354.571978 
L 189.349091 354.781249 
L 189.416727 354.794963 
L 189.687273 356.234332 
L 189.957818 357.234657 
L 190.160727 357.306273 
L 190.431273 356.957753 
L 190.769455 356.165606 
L 191.107636 355.382505 
L 191.310545 355.364562 
L 192.257455 355.843637 
L 192.460364 355.889383 
L 192.933818 356.262807 
L 193.204364 356.250277 
L 193.610182 355.932913 
L 194.083636 355.372141 
L 195.301091 353.577905 
L 195.368727 353.546788 
L 195.504 353.849255 
L 196.045091 355.682532 
L 196.248 355.759056 
L 196.518545 355.423769 
L 196.924364 354.895543 
L 197.330182 354.461068 
L 198.141818 353.517615 
L 198.344727 353.559521 
L 198.750545 353.711722 
L 198.953455 353.630484 
L 199.224 353.26107 
L 199.562182 352.897959 
L 199.832727 352.502309 
L 200.373818 350.999887 
L 200.509091 350.753812 
L 200.644364 351.19243 
L 201.185455 353.487912 
L 201.388364 353.582805 
L 202.2 353.201834 
L 202.605818 353.4236 
L 203.079273 353.889651 
L 203.282182 353.706038 
L 204.026182 352.393644 
L 204.229091 352.04817 
L 204.770182 351.880008 
L 205.446545 350.975705 
L 205.852364 350.092317 
L 206.866909 346.896474 
L 207.069818 346.871056 
L 207.881455 347.704721 
L 208.152 348.390893 
L 208.828364 350.341845 
L 209.031273 350.269437 
L 209.369455 349.932661 
L 209.437091 350.066353 
L 209.64 351.871128 
L 210.045818 355.870274 
L 210.248727 356.419221 
L 210.384 356.362881 
L 210.654545 355.677314 
L 212.007273 351.255425 
L 212.616 350.443672 
L 212.886545 350.814511 
L 213.901091 352.158003 
L 214.104 352.075692 
L 214.509818 351.544413 
L 215.050909 350.874181 
L 215.389091 351.191972 
L 215.659636 351.293436 
L 216.403636 351.008092 
L 216.674182 350.797096 
L 217.012364 350.025776 
L 217.350545 349.491644 
L 217.553455 349.484533 
L 217.756364 349.791323 
L 218.026909 350.690227 
L 218.432727 352.500348 
L 218.703273 352.886443 
L 219.041455 352.987589 
L 219.582545 352.913252 
L 219.920727 352.985628 
L 220.191273 352.79808 
L 220.529455 352.215186 
L 220.935273 351.721018 
L 221.476364 351.210118 
L 221.814545 350.922545 
L 222.558545 350.137721 
L 222.761455 350.476069 
L 223.099636 351.046301 
L 223.573091 351.162803 
L 224.114182 350.810133 
L 224.655273 350.254555 
L 224.790545 350.508763 
L 225.602182 353.797671 
L 226.210909 354.299166 
L 226.481455 354.124995 
L 227.090182 353.489499 
L 227.496 353.814628 
L 227.698909 354.708094 
L 228.037091 355.883249 
L 228.24 355.944132 
L 228.510545 355.665022 
L 229.389818 354.332035 
L 229.795636 354.227678 
L 230.269091 353.880706 
L 230.742545 353.523179 
L 231.418909 352.740821 
L 232.162909 352.628344 
L 232.501091 352.35717 
L 233.042182 352.47585 
L 233.245091 352.168269 
L 233.718545 351.249598 
L 233.989091 351.155004 
L 234.259636 351.275716 
L 234.530182 351.621093 
L 234.868364 352.011662 
L 235.477091 352.261733 
L 235.747636 352.320925 
L 236.018182 352.08301 
L 236.491636 351.609719 
L 236.762182 351.806079 
L 237.032727 352.186236 
L 237.370909 352.581414 
L 237.776727 352.697935 
L 238.047273 352.448882 
L 238.453091 351.648944 
L 238.858909 350.927738 
L 239.467636 350.202566 
L 240.076364 349.112479 
L 240.752727 349.550322 
L 241.564364 350.048519 
L 242.376 352.738331 
L 242.646545 352.629062 
L 244.337455 351.173419 
L 245.149091 352.142867 
L 245.419636 352.146236 
L 245.757818 351.815816 
L 246.434182 351.318766 
L 247.110545 351.317523 
L 247.381091 351.313433 
L 247.786909 351.238766 
L 248.125091 351.177909 
L 248.463273 350.691106 
L 249.004364 349.723493 
L 249.274909 349.780284 
L 249.680727 349.890687 
L 250.154182 349.832102 
L 250.898182 349.529981 
L 251.304 349.608065 
L 251.777455 349.235946 
L 252.386182 348.71088 
L 252.521455 348.864328 
L 253.197818 350.047788 
L 253.400727 350.075367 
L 253.603636 349.874729 
L 254.009455 348.906205 
L 254.482909 347.87459 
L 254.753455 347.693184 
L 254.956364 347.752542 
L 255.226909 348.372693 
L 256.173818 350.662529 
L 256.376727 350.724306 
L 256.714909 350.520234 
L 257.188364 350.022211 
L 257.256 350.146522 
L 258 352.470006 
L 258.135273 352.376775 
L 258.744 351.217616 
L 259.014545 350.912504 
L 259.555636 350.977126 
L 259.893818 351.034407 
L 260.096727 350.788065 
L 260.637818 349.913451 
L 260.908364 349.843056 
L 263.005091 350.38576 
L 263.275636 350.11282 
L 263.613818 349.428747 
L 264.696 347.104058 
L 264.898909 347.064411 
L 265.101818 347.35442 
L 265.575273 348.139591 
L 265.981091 348.757719 
L 266.792727 351.339078 
L 267.063273 351.264437 
L 267.333818 350.966118 
L 267.942545 350.189143 
L 268.754182 349.812852 
L 269.024727 350.029728 
L 269.362909 350.319998 
L 269.565818 350.185275 
L 270.174545 349.395417 
L 270.512727 349.426092 
L 270.783273 349.840064 
L 271.121455 350.2043 
L 271.459636 350.45603 
L 272.068364 351.081559 
L 272.338909 350.973626 
L 272.541818 351.542214 
L 273.218182 353.537606 
L 273.421091 353.7603 
L 273.691636 353.659516 
L 273.962182 353.316261 
L 274.503273 352.582469 
L 275.314909 351.96238 
L 275.585455 352.040658 
L 276.532364 352.392405 
L 277.141091 351.984953 
L 278.358545 351.463545 
L 278.899636 351.406021 
L 279.170182 350.890888 
L 279.643636 349.887989 
L 280.049455 349.681226 
L 280.252364 349.71594 
L 280.590545 349.873049 
L 280.928727 349.671644 
L 281.199273 349.519551 
L 281.402182 349.678687 
L 282.146182 350.945205 
L 282.349091 350.787121 
L 282.687273 350.404765 
L 282.890182 350.499557 
L 283.363636 350.865115 
L 283.634182 350.884058 
L 283.972364 351.809249 
L 284.310545 352.558565 
L 284.513455 352.63771 
L 284.716364 352.480618 
L 286.339636 350.31385 
L 287.016 350.605278 
L 287.218909 350.362352 
L 287.624727 349.184489 
L 288.030545 348.268664 
L 288.165818 348.223842 
L 288.504 348.614608 
L 289.856727 350.390527 
L 290.127273 350.675215 
L 290.330182 350.641833 
L 290.600727 350.308124 
L 291.209455 349.427562 
L 291.547636 349.343991 
L 291.885818 349.240544 
L 292.426909 348.902073 
L 293.035636 349.054263 
L 293.306182 348.854103 
L 293.509091 348.655428 
L 293.712 348.898594 
L 294.117818 349.399938 
L 294.658909 349.637871 
L 295.064727 350.689598 
L 295.402909 351.287244 
L 295.605818 351.318626 
L 296.349818 350.948315 
L 297.837818 351.255002 
L 298.040727 351.395956 
L 298.717091 352.233024 
L 298.92 352.02905 
L 300.272727 350.117631 
L 300.475636 350.055198 
L 300.746182 350.402575 
L 301.084364 350.812764 
L 301.490182 350.864599 
L 301.963636 350.935292 
L 302.301818 350.967938 
L 302.842909 350.685424 
L 303.654545 351.003158 
L 303.925091 350.634239 
L 304.195636 350.311325 
L 304.533818 350.042293 
L 304.872 349.743444 
L 305.074909 350.178723 
L 305.480727 351.168652 
L 306.021818 351.937752 
L 306.901091 352.445066 
L 308.050909 354.273672 
L 308.930182 354.308469 
L 309.538909 353.640659 
L 309.944727 352.831074 
L 310.485818 351.845394 
L 311.703273 350.85318 
L 311.906182 350.902782 
L 312.379636 351.374204 
L 312.717818 351.373215 
L 313.529455 350.866453 
L 313.867636 350.714306 
L 314.205818 350.625441 
L 314.679273 350.221493 
L 315.288 349.551508 
L 315.626182 349.358833 
L 316.032 349.106673 
L 316.234909 349.279609 
L 316.776 350.395056 
L 317.114182 351.474119 
L 317.452364 352.365691 
L 317.655273 352.411292 
L 317.858182 352.165336 
L 319.278545 349.880463 
L 319.481455 349.838716 
L 319.819636 350.15191 
L 320.157818 350.35139 
L 320.428364 350.389263 
L 320.969455 350.839638 
L 321.916364 350.37219 
L 322.254545 349.923135 
L 322.795636 348.707552 
L 323.674909 346.28199 
L 324.216 345.674704 
L 324.554182 344.699699 
L 325.027636 342.981872 
L 325.162909 342.879704 
L 325.298182 343.300451 
L 325.974545 346.623397 
L 326.177455 346.762167 
L 326.448 346.528927 
L 326.921455 346.221499 
L 327.259636 346.022079 
L 327.733091 345.649606 
L 327.936 345.791948 
L 328.138909 346.195737 
L 328.815273 347.95246 
L 328.950545 347.941804 
L 329.356364 347.354025 
L 329.762182 346.85207 
L 329.897455 346.885376 
L 330.100364 347.203015 
L 330.235636 347.637938 
L 330.776727 350.034623 
L 331.047273 350.234379 
L 331.385455 350.107327 
L 331.791273 349.955378 
L 332.873455 349.360423 
L 333.279273 350.003205 
L 333.617455 350.350257 
L 334.293818 350.66271 
L 335.105455 352.071551 
L 335.376 352.215687 
L 335.646545 352.139572 
L 336.187636 351.744481 
L 336.390545 352.062663 
L 336.796364 352.675212 
L 337.134545 352.911534 
L 337.405091 352.803064 
L 338.284364 352.220041 
L 338.554909 352.209811 
L 338.960727 352.20615 
L 339.434182 352.012883 
L 339.704727 352.310475 
L 340.042909 352.757654 
L 340.245818 352.734678 
L 340.448727 352.492416 
L 340.854545 351.550094 
L 341.530909 349.832918 
L 341.936727 349.420535 
L 342.139636 349.47555 
L 342.342545 349.67315 
L 342.816 350.943025 
L 343.154182 351.734554 
L 343.627636 351.994679 
L 344.033455 351.735062 
L 344.371636 351.535864 
L 344.777455 351.452132 
L 345.183273 351.079954 
L 345.792 350.261951 
L 346.400727 350.148059 
L 346.806545 349.718666 
L 347.550545 348.731861 
L 347.753455 348.866366 
L 348.565091 349.770158 
L 349.106182 349.696064 
L 349.376727 349.246616 
L 350.053091 347.823693 
L 350.661818 347.280704 
L 351.270545 346.479947 
L 351.608727 346.368476 
L 351.811636 346.434295 
L 352.082182 346.986046 
L 352.555636 348.080765 
L 352.758545 348.118942 
L 353.029091 347.780566 
L 353.502545 347.010416 
L 353.840727 346.871038 
L 354.111273 346.779536 
L 354.246545 347.167092 
L 354.855273 349.61003 
L 355.058182 349.622112 
L 355.328727 349.238642 
L 356.546182 346.669156 
L 356.613818 346.703021 
L 356.952 347.25692 
L 357.560727 348.442081 
L 357.898909 348.950293 
L 358.710545 350.702609 
L 358.981091 350.85366 
L 359.522182 350.770441 
L 359.860364 350.610426 
L 360.536727 350.087833 
L 360.807273 350.197355 
L 361.280727 350.599466 
L 361.686545 350.258451 
L 362.16 349.682396 
L 362.430545 349.790758 
L 362.904 350.250772 
L 363.309818 351.14111 
L 364.189091 353.350835 
L 364.392 353.516439 
L 364.594909 353.404937 
L 365.068364 352.977754 
L 365.677091 353.584135 
L 366.082909 353.438971 
L 366.488727 353.514536 
L 366.759273 353.813979 
L 367.029818 354.031511 
L 367.368 353.85885 
L 367.638545 353.820512 
L 367.976727 354.076994 
L 368.179636 354.13405 
L 368.450182 353.964205 
L 369.058909 353.428271 
L 369.464727 353.428538 
L 371.223273 352.168929 
L 371.899636 351.228196 
L 372.170182 351.572517 
L 372.711273 352.31399 
L 372.981818 352.353839 
L 373.252364 352.166641 
L 373.793455 351.352699 
L 374.131636 350.8538 
L 374.402182 350.819697 
L 374.605091 350.971424 
L 375.484364 352.666464 
L 375.754909 352.672069 
L 376.093091 352.293897 
L 376.566545 351.594119 
L 376.904727 351.143138 
L 377.784 350.823495 
L 378.325091 350.214478 
L 379.136727 350.197729 
L 379.813091 349.681316 
L 380.083636 349.723436 
L 380.489455 350.042371 
L 381.233455 349.855906 
L 381.842182 349.093934 
L 382.653818 349.408505 
L 382.856727 349.095913 
L 383.533091 347.574467 
L 383.736 347.527538 
L 384.006545 347.796215 
L 384.615273 348.554891 
L 385.088727 349.310184 
L 385.494545 350.246978 
L 385.765091 350.414353 
L 385.968 350.253653 
L 386.238545 349.614336 
L 387.185455 346.874176 
L 387.388364 346.827526 
L 387.591273 347.086398 
L 387.929455 348.090798 
L 388.673455 350.593936 
L 388.944 350.8643 
L 389.214545 350.811094 
L 389.890909 350.418481 
L 390.364364 350.82569 
L 391.243636 352.139174 
L 391.514182 352.043496 
L 391.784727 351.621344 
L 392.122909 350.982798 
L 392.258182 351.01003 
L 392.461091 351.461122 
L 393.002182 352.870086 
L 393.205091 352.971038 
L 393.610909 352.778925 
L 393.813818 352.757324 
L 394.896 353.446461 
L 395.098909 353.426305 
L 395.504727 353.202748 
L 395.910545 353.397273 
L 396.451636 353.331632 
L 396.722182 353.214005 
L 397.195636 352.844451 
L 397.398545 353.08068 
L 397.804364 353.631097 
L 398.007273 353.545523 
L 398.345455 353.03684 
L 398.683636 352.636201 
L 398.954182 352.583093 
L 399.224727 352.940901 
L 399.562909 353.320013 
L 399.901091 353.316798 
L 400.239273 353.113308 
L 400.780364 352.177075 
L 401.253818 351.435325 
L 401.794909 350.973382 
L 401.997818 351.191718 
L 402.403636 351.683155 
L 402.606545 351.78158 
L 402.944727 351.931723 
L 403.282909 351.824579 
L 403.553455 351.493283 
L 403.891636 350.667014 
L 404.229818 349.939535 
L 404.432727 349.969859 
L 404.906182 350.313078 
L 405.447273 350.283464 
L 406.123636 349.825947 
L 406.326545 349.98371 
L 407.002909 351.294511 
L 407.273455 351.343123 
L 407.544 351.133677 
L 407.949818 350.414486 
L 408.693818 349.241876 
L 408.896727 349.337012 
L 409.099636 349.647469 
L 409.573091 350.649192 
L 410.181818 350.943716 
L 410.384727 350.795203 
L 410.790545 350.358365 
L 411.264 350.599559 
L 411.602182 350.982768 
L 412.008 351.306567 
L 412.481455 351.324626 
L 412.954909 350.946042 
L 414.037091 349.92625 
L 414.24 350.047878 
L 414.645818 350.892713 
L 415.119273 351.681697 
L 415.592727 352.011658 
L 415.795636 351.966947 
L 416.066182 351.60865 
L 416.877818 350.206725 
L 417.554182 349.800909 
L 418.230545 349.124032 
L 418.501091 349.295611 
L 418.906909 349.518442 
L 419.177455 349.341271 
L 419.448 349.206098 
L 420.192 348.997047 
L 420.665455 348.632144 
L 421.206545 348.542868 
L 421.612364 348.044873 
L 422.221091 348.336867 
L 422.424 348.138621 
L 422.829818 347.185817 
L 423.573818 345.304255 
L 424.047273 344.612809 
L 424.385455 344.168862 
L 424.656 344.281371 
L 424.994182 344.432137 
L 425.197091 344.244763 
L 425.941091 343.1268 
L 426.144 343.235692 
L 426.346909 343.727061 
L 426.888 345.488397 
L 427.023273 345.481595 
L 427.226182 345.070747 
L 428.173091 342.517475 
L 428.376 342.778719 
L 428.646545 343.56943 
L 429.052364 344.849035 
L 429.255273 344.949048 
L 429.525818 344.7763 
L 430.066909 344.319404 
L 430.337455 344.128488 
L 430.472727 343.935539 
L 430.675636 374.503928 
L 431.013818 391.426411 
L 431.419636 400.914246 
L 432.231273 413.514394 
L 433.448727 429.099833 
L 434.328 437.774365 
L 435.072 443.093873 
L 435.748364 446.466715 
L 436.424727 448.748583 
L 437.101091 450.249612 
L 437.777455 451.222988 
L 438.521455 451.899184 
L 439.333091 452.343733 
L 440.415273 452.664387 
L 441.903273 452.853273 
L 444.608727 452.933337 
L 460.165091 452.912433 
L 498.109091 452.911981 
L 498.109091 452.911981 
" clip-path="url(#p9f1505b2ef)" style="fill: none; stroke: #000000; stroke-width: 1.5; stroke-linecap: square"/>
   </g>
   <g id="line2d_14">
    <path d="M 497.973818 408.87 
" clip-path="url(#p9f1505b2ef)" style="fill: none; stroke: #000000; stroke-width: 1.5; stroke-linecap: square"/>
   </g>
   <g id="line2d_15">
    <path d="M 430.472727 368.1 
L 430.472727 365.382 
L 430.472727 362.664 
L 430.472727 359.946 
L 430.472727 357.228 
L 430.472727 354.51 
L 430.472727 351.792 
L 430.472727 349.074 
L 430.472727 346.356 
L 430.472727 343.638 
L 430.472727 340.92 
L 430.472727 338.202 
L 430.472727 335.484 
L 430.472727 332.766 
L 430.472727 330.048 
L 430.472727 327.33 
L 430.472727 324.612 
L 430.472727 321.894 
L 430.472727 319.176 
L 430.472727 316.458 
" clip-path="url(#p9f1505b2ef)" style="fill: none; stroke: #000000; stroke-width: 1.5; stroke-linecap: square"/>
   </g>
   <g id="patch_3">
    <path d="M 72 504 
L 72 69.12 
" style="fill: none; stroke: #000000; stroke-width: 0.8; stroke-linejoin: miter; stroke-linecap: square"/>
   </g>
   <g id="patch_4">
    <path d="M 518.4 504 
L 518.4 69.12 
" style="fill: none; stroke: #000000; stroke-width: 0.8; stroke-linejoin: miter; stroke-linecap: square"/>
   </g>
   <g id="patch_5">
    <path d="M 72 504 
L 518.4 504 
" style="fill: none; stroke: #000000; stroke-width: 0.8; stroke-linejoin: miter; stroke-linecap: square"/>
   </g>
   <g id="patch_6">
    <path d="M 72 69.12 
L 518.4 69.12 
" style="fill: none; stroke: #000000; stroke-width: 0.8; stroke-linejoin: miter; stroke-linecap: square"/>
   </g>
   <g id="text_15">
    <!-- 500 ms -->
    <g transform="translate(497.973818 406.152)scale(0.22 -0.22)">
     <defs>
      <path id="ArialMT-35" d="M 266 1200 
L 856 1250 
Q 922 819 1161 601 
Q 1400 384 1738 384 
Q 2144 384 2425 690 
Q 2706 997 2706 1503 
Q 2706 1984 2436 2262 
Q 2166 2541 1728 2541 
Q 1456 2541 1237 2417 
Q 1019 2294 894 2097 
L 366 2166 
L 809 4519 
L 3088 4519 
L 3088 3981 
L 1259 3981 
L 1013 2750 
Q 1425 3038 1878 3038 
Q 2478 3038 2890 2622 
Q 3303 2206 3303 1553 
Q 3303 931 2941 478 
Q 2500 -78 1738 -78 
Q 1113 -78 717 272 
Q 322 622 266 1200 
z
" transform="scale(0.015625)"/>
      <path id="ArialMT-30" d="M 266 2259 
Q 266 3072 433 3567 
Q 600 4063 929 4331 
Q 1259 4600 1759 4600 
Q 2128 4600 2406 4451 
Q 2684 4303 2865 4023 
Q 3047 3744 3150 3342 
Q 3253 2941 3253 2259 
Q 3253 1453 3087 958 
Q 2922 463 2592 192 
Q 2263 -78 1759 -78 
Q 1097 -78 719 397 
Q 266 969 266 2259 
z
M 844 2259 
Q 844 1131 1108 757 
Q 1372 384 1759 384 
Q 2147 384 2411 759 
Q 2675 1134 2675 2259 
Q 2675 3391 2411 3762 
Q 2147 4134 1753 4134 
Q 1366 4134 1134 3806 
Q 844 3388 844 2259 
z
" transform="scale(0.015625)"/>
     </defs>
     <use xlink:href="#ArialMT-35"/>
     <use xlink:href="#ArialMT-30" x="55.615234"/>
     <use xlink:href="#ArialMT-30" x="111.230469"/>
     <use xlink:href="#ArialMT-20" x="166.845703"/>
     <use xlink:href="#ArialMT-6d" x="194.628906"/>
     <use xlink:href="#ArialMT-73" x="277.929688"/>
    </g>
   </g>
   <g id="text_16">
    <!-- 20 mV -->
    <g transform="translate(504.737455 321.894)scale(0.22 -0.22)">
     <defs>
      <path id="ArialMT-32" d="M 3222 541 
L 3222 0 
L 194 0 
Q 188 203 259 391 
Q 375 700 629 1000 
Q 884 1300 1366 1694 
Q 2113 2306 2375 2664 
Q 2638 3022 2638 3341 
Q 2638 3675 2398 3904 
Q 2159 4134 1775 4134 
Q 1369 4134 1125 3890 
Q 881 3647 878 3216 
L 300 3275 
Q 359 3922 746 4261 
Q 1134 4600 1788 4600 
Q 2447 4600 2831 4234 
Q 3216 3869 3216 3328 
Q 3216 3053 3103 2787 
Q 2991 2522 2730 2228 
Q 2469 1934 1863 1422 
Q 1356 997 1212 845 
Q 1069 694 975 541 
L 3222 541 
z
" transform="scale(0.015625)"/>
     </defs>
     <use xlink:href="#ArialMT-32"/>
     <use xlink:href="#ArialMT-30" x="55.615234"/>
     <use xlink:href="#ArialMT-20" x="111.230469"/>
     <use xlink:href="#ArialMT-6d" x="139.013672"/>
     <use xlink:href="#ArialMT-56" x="222.314453"/>
    </g>
   </g>
   <g id="text_17">
    <!--  Plotting dSPN, trace number 16385  -->
    <g transform="translate(116.052969 63.12)scale(0.22 -0.22)">
     <defs>
      <path id="ArialMT-50" d="M 494 0 
L 494 4581 
L 2222 4581 
Q 2678 4581 2919 4538 
Q 3256 4481 3484 4323 
Q 3713 4166 3852 3881 
Q 3991 3597 3991 3256 
Q 3991 2672 3619 2267 
Q 3247 1863 2275 1863 
L 1100 1863 
L 1100 0 
L 494 0 
z
M 1100 2403 
L 2284 2403 
Q 2872 2403 3119 2622 
Q 3366 2841 3366 3238 
Q 3366 3525 3220 3729 
Q 3075 3934 2838 4000 
Q 2684 4041 2272 4041 
L 1100 4041 
L 1100 2403 
z
" transform="scale(0.015625)"/>
      <path id="ArialMT-67" d="M 319 -275 
L 866 -356 
Q 900 -609 1056 -725 
Q 1266 -881 1628 -881 
Q 2019 -881 2231 -725 
Q 2444 -569 2519 -288 
Q 2563 -116 2559 434 
Q 2191 0 1641 0 
Q 956 0 581 494 
Q 206 988 206 1678 
Q 206 2153 378 2554 
Q 550 2956 876 3175 
Q 1203 3394 1644 3394 
Q 2231 3394 2613 2919 
L 2613 3319 
L 3131 3319 
L 3131 450 
Q 3131 -325 2973 -648 
Q 2816 -972 2473 -1159 
Q 2131 -1347 1631 -1347 
Q 1038 -1347 672 -1080 
Q 306 -813 319 -275 
z
M 784 1719 
Q 784 1066 1043 766 
Q 1303 466 1694 466 
Q 2081 466 2343 764 
Q 2606 1063 2606 1700 
Q 2606 2309 2336 2618 
Q 2066 2928 1684 2928 
Q 1309 2928 1046 2623 
Q 784 2319 784 1719 
z
" transform="scale(0.015625)"/>
      <path id="ArialMT-64" d="M 2575 0 
L 2575 419 
Q 2259 -75 1647 -75 
Q 1250 -75 917 144 
Q 584 363 401 755 
Q 219 1147 219 1656 
Q 219 2153 384 2558 
Q 550 2963 881 3178 
Q 1213 3394 1622 3394 
Q 1922 3394 2156 3267 
Q 2391 3141 2538 2938 
L 2538 4581 
L 3097 4581 
L 3097 0 
L 2575 0 
z
M 797 1656 
Q 797 1019 1065 703 
Q 1334 388 1700 388 
Q 2069 388 2326 689 
Q 2584 991 2584 1609 
Q 2584 2291 2321 2609 
Q 2059 2928 1675 2928 
Q 1300 2928 1048 2622 
Q 797 2316 797 1656 
z
" transform="scale(0.015625)"/>
      <path id="ArialMT-53" d="M 288 1472 
L 859 1522 
Q 900 1178 1048 958 
Q 1197 738 1509 602 
Q 1822 466 2213 466 
Q 2559 466 2825 569 
Q 3091 672 3220 851 
Q 3350 1031 3350 1244 
Q 3350 1459 3225 1620 
Q 3100 1781 2813 1891 
Q 2628 1963 1997 2114 
Q 1366 2266 1113 2400 
Q 784 2572 623 2826 
Q 463 3081 463 3397 
Q 463 3744 659 4045 
Q 856 4347 1234 4503 
Q 1613 4659 2075 4659 
Q 2584 4659 2973 4495 
Q 3363 4331 3572 4012 
Q 3781 3694 3797 3291 
L 3216 3247 
Q 3169 3681 2898 3903 
Q 2628 4125 2100 4125 
Q 1550 4125 1298 3923 
Q 1047 3722 1047 3438 
Q 1047 3191 1225 3031 
Q 1400 2872 2139 2705 
Q 2878 2538 3153 2413 
Q 3553 2228 3743 1945 
Q 3934 1663 3934 1294 
Q 3934 928 3725 604 
Q 3516 281 3123 101 
Q 2731 -78 2241 -78 
Q 1619 -78 1198 103 
Q 778 284 539 648 
Q 300 1013 288 1472 
z
" transform="scale(0.015625)"/>
      <path id="ArialMT-4e" d="M 488 0 
L 488 4581 
L 1109 4581 
L 3516 984 
L 3516 4581 
L 4097 4581 
L 4097 0 
L 3475 0 
L 1069 3600 
L 1069 0 
L 488 0 
z
" transform="scale(0.015625)"/>
      <path id="ArialMT-2c" d="M 569 0 
L 569 641 
L 1209 641 
L 1209 0 
Q 1209 -353 1084 -570 
Q 959 -788 688 -906 
L 531 -666 
Q 709 -588 793 -436 
Q 878 -284 888 0 
L 569 0 
z
" transform="scale(0.015625)"/>
      <path id="ArialMT-63" d="M 2588 1216 
L 3141 1144 
Q 3050 572 2676 248 
Q 2303 -75 1759 -75 
Q 1078 -75 664 370 
Q 250 816 250 1647 
Q 250 2184 428 2587 
Q 606 2991 970 3192 
Q 1334 3394 1763 3394 
Q 2303 3394 2647 3120 
Q 2991 2847 3088 2344 
L 2541 2259 
Q 2463 2594 2264 2762 
Q 2066 2931 1784 2931 
Q 1359 2931 1093 2626 
Q 828 2322 828 1663 
Q 828 994 1084 691 
Q 1341 388 1753 388 
Q 2084 388 2306 591 
Q 2528 794 2588 1216 
z
" transform="scale(0.015625)"/>
      <path id="ArialMT-75" d="M 2597 0 
L 2597 488 
Q 2209 -75 1544 -75 
Q 1250 -75 995 37 
Q 741 150 617 320 
Q 494 491 444 738 
Q 409 903 409 1263 
L 409 3319 
L 972 3319 
L 972 1478 
Q 972 1038 1006 884 
Q 1059 663 1231 536 
Q 1403 409 1656 409 
Q 1909 409 2131 539 
Q 2353 669 2445 892 
Q 2538 1116 2538 1541 
L 2538 3319 
L 3100 3319 
L 3100 0 
L 2597 0 
z
" transform="scale(0.015625)"/>
      <path id="ArialMT-31" d="M 2384 0 
L 1822 0 
L 1822 3584 
Q 1619 3391 1289 3197 
Q 959 3003 697 2906 
L 697 3450 
Q 1169 3672 1522 3987 
Q 1875 4303 2022 4600 
L 2384 4600 
L 2384 0 
z
" transform="scale(0.015625)"/>
      <path id="ArialMT-36" d="M 3184 3459 
L 2625 3416 
Q 2550 3747 2413 3897 
Q 2184 4138 1850 4138 
Q 1581 4138 1378 3988 
Q 1113 3794 959 3422 
Q 806 3050 800 2363 
Q 1003 2672 1297 2822 
Q 1591 2972 1913 2972 
Q 2475 2972 2870 2558 
Q 3266 2144 3266 1488 
Q 3266 1056 3080 686 
Q 2894 316 2569 119 
Q 2244 -78 1831 -78 
Q 1128 -78 684 439 
Q 241 956 241 2144 
Q 241 3472 731 4075 
Q 1159 4600 1884 4600 
Q 2425 4600 2770 4297 
Q 3116 3994 3184 3459 
z
M 888 1484 
Q 888 1194 1011 928 
Q 1134 663 1356 523 
Q 1578 384 1822 384 
Q 2178 384 2434 671 
Q 2691 959 2691 1453 
Q 2691 1928 2437 2201 
Q 2184 2475 1800 2475 
Q 1419 2475 1153 2201 
Q 888 1928 888 1484 
z
" transform="scale(0.015625)"/>
      <path id="ArialMT-33" d="M 269 1209 
L 831 1284 
Q 928 806 1161 595 
Q 1394 384 1728 384 
Q 2125 384 2398 659 
Q 2672 934 2672 1341 
Q 2672 1728 2419 1979 
Q 2166 2231 1775 2231 
Q 1616 2231 1378 2169 
L 1441 2663 
Q 1497 2656 1531 2656 
Q 1891 2656 2178 2843 
Q 2466 3031 2466 3422 
Q 2466 3731 2256 3934 
Q 2047 4138 1716 4138 
Q 1388 4138 1169 3931 
Q 950 3725 888 3313 
L 325 3413 
Q 428 3978 793 4289 
Q 1159 4600 1703 4600 
Q 2078 4600 2393 4439 
Q 2709 4278 2876 4000 
Q 3044 3722 3044 3409 
Q 3044 3113 2884 2869 
Q 2725 2625 2413 2481 
Q 2819 2388 3044 2092 
Q 3269 1797 3269 1353 
Q 3269 753 2831 336 
Q 2394 -81 1725 -81 
Q 1122 -81 723 278 
Q 325 638 269 1209 
z
" transform="scale(0.015625)"/>
      <path id="ArialMT-38" d="M 1131 2484 
Q 781 2613 612 2850 
Q 444 3088 444 3419 
Q 444 3919 803 4259 
Q 1163 4600 1759 4600 
Q 2359 4600 2725 4251 
Q 3091 3903 3091 3403 
Q 3091 3084 2923 2848 
Q 2756 2613 2416 2484 
Q 2838 2347 3058 2040 
Q 3278 1734 3278 1309 
Q 3278 722 2862 322 
Q 2447 -78 1769 -78 
Q 1091 -78 675 323 
Q 259 725 259 1325 
Q 259 1772 486 2073 
Q 713 2375 1131 2484 
z
M 1019 3438 
Q 1019 3113 1228 2906 
Q 1438 2700 1772 2700 
Q 2097 2700 2305 2904 
Q 2513 3109 2513 3406 
Q 2513 3716 2298 3927 
Q 2084 4138 1766 4138 
Q 1444 4138 1231 3931 
Q 1019 3725 1019 3438 
z
M 838 1322 
Q 838 1081 952 856 
Q 1066 631 1291 507 
Q 1516 384 1775 384 
Q 2178 384 2440 643 
Q 2703 903 2703 1303 
Q 2703 1709 2433 1975 
Q 2163 2241 1756 2241 
Q 1359 2241 1098 1978 
Q 838 1716 838 1322 
z
" transform="scale(0.015625)"/>
     </defs>
     <use xlink:href="#ArialMT-20"/>
     <use xlink:href="#ArialMT-50" x="27.783203"/>
     <use xlink:href="#ArialMT-6c" x="94.482422"/>
     <use xlink:href="#ArialMT-6f" x="116.699219"/>
     <use xlink:href="#ArialMT-74" x="172.314453"/>
     <use xlink:href="#ArialMT-74" x="200.097656"/>
     <use xlink:href="#ArialMT-69" x="227.880859"/>
     <use xlink:href="#ArialMT-6e" x="250.097656"/>
     <use xlink:href="#ArialMT-67" x="305.712891"/>
     <use xlink:href="#ArialMT-20" x="361.328125"/>
     <use xlink:href="#ArialMT-64" x="389.111328"/>
     <use xlink:href="#ArialMT-53" x="444.726562"/>
     <use xlink:href="#ArialMT-50" x="511.425781"/>
     <use xlink:href="#ArialMT-4e" x="578.125"/>
     <use xlink:href="#ArialMT-2c" x="650.341797"/>
     <use xlink:href="#ArialMT-20" x="678.125"/>
     <use xlink:href="#ArialMT-74" x="705.908203"/>
     <use xlink:href="#ArialMT-72" x="733.691406"/>
     <use xlink:href="#ArialMT-61" x="766.992188"/>
     <use xlink:href="#ArialMT-63" x="822.607422"/>
     <use xlink:href="#ArialMT-65" x="872.607422"/>
     <use xlink:href="#ArialMT-20" x="928.222656"/>
     <use xlink:href="#ArialMT-6e" x="956.005859"/>
     <use xlink:href="#ArialMT-75" x="1011.621094"/>
     <use xlink:href="#ArialMT-6d" x="1067.236328"/>
     <use xlink:href="#ArialMT-62" x="1150.537109"/>
     <use xlink:href="#ArialMT-65" x="1206.152344"/>
     <use xlink:href="#ArialMT-72" x="1261.767578"/>
     <use xlink:href="#ArialMT-20" x="1295.068359"/>
     <use xlink:href="#ArialMT-31" x="1322.851562"/>
     <use xlink:href="#ArialMT-36" x="1378.466797"/>
     <use xlink:href="#ArialMT-33" x="1434.082031"/>
     <use xlink:href="#ArialMT-38" x="1489.697266"/>
     <use xlink:href="#ArialMT-35" x="1545.3125"/>
     <use xlink:href="#ArialMT-20" x="1600.927734"/>
    </g>
   </g>
  </g>
 </g>
 <defs>
  <clipPath id="p9f1505b2ef">
   <rect x="72" y="69.12" width="446.4" height="434.88"/>
  </clipPath>
 </defs>
</svg>
