<?xml version="1.0" encoding="utf-8" standalone="no"?>
<!DOCTYPE svg PUBLIC "-//W3C//DTD SVG 1.1//EN"
  "http://www.w3.org/Graphics/SVG/1.1/DTD/svg11.dtd">
<svg xmlns:xlink="http://www.w3.org/1999/xlink" width="576pt" height="576pt" viewBox="0 0 576 576" xmlns="http://www.w3.org/2000/svg" version="1.1">
 <metadata>
  <rdf:RDF xmlns:dc="http://purl.org/dc/elements/1.1/" xmlns:cc="http://creativecommons.org/ns#" xmlns:rdf="http://www.w3.org/1999/02/22-rdf-syntax-ns#">
   <cc:Work>
    <dc:type rdf:resource="http://purl.org/dc/dcmitype/StillImage"/>
    <dc:date>2022-10-30T19:57:03.427358</dc:date>
    <dc:format>image/svg+xml</dc:format>
    <dc:creator>
     <cc:Agent>
      <dc:title>Matplotlib v3.5.2, https://matplotlib.org/</dc:title>
     </cc:Agent>
    </dc:creator>
   </cc:Work>
  </rdf:RDF>
 </metadata>
 <defs>
  <style type="text/css">*{stroke-linejoin: round; stroke-linecap: butt}</style>
 </defs>
 <g id="figure_1">
  <g id="patch_1">
   <path d="M 0 576 
L 576 576 
L 576 0 
L 0 0 
L 0 576 
z
" style="fill: none"/>
  </g>
  <g id="axes_1">
   <g id="patch_2">
    <path d="M 72 504 
L 518.4 504 
L 518.4 69.12 
L 72 69.12 
z
" style="fill: #ffffff"/>
   </g>
   <g id="matplotlib.axis_1">
    <g id="xtick_1">
     <g id="line2d_1">
      <defs>
       <path id="m6a8971f51a" d="M 0 0 
L 0 3.5 
" style="stroke: #000000; stroke-width: 0.8"/>
      </defs>
      <g>
       <use xlink:href="#m6a8971f51a" x="92.290909" y="504" style="stroke: #000000; stroke-width: 0.8"/>
      </g>
     </g>
     <g id="text_1">
      <!-- 0 -->
      <g transform="translate(85.292159 527.716563)scale(0.22 -0.22)">
       <defs>
        <path id="DejaVuSans-30" d="M 2034 4250 
Q 1547 4250 1301 3770 
Q 1056 3291 1056 2328 
Q 1056 1369 1301 889 
Q 1547 409 2034 409 
Q 2525 409 2770 889 
Q 3016 1369 3016 2328 
Q 3016 3291 2770 3770 
Q 2525 4250 2034 4250 
z
M 2034 4750 
Q 2819 4750 3233 4129 
Q 3647 3509 3647 2328 
Q 3647 1150 3233 529 
Q 2819 -91 2034 -91 
Q 1250 -91 836 529 
Q 422 1150 422 2328 
Q 422 3509 836 4129 
Q 1250 4750 2034 4750 
z
" transform="scale(0.015625)"/>
       </defs>
       <use xlink:href="#DejaVuSans-30"/>
      </g>
     </g>
    </g>
    <g id="xtick_2">
     <g id="line2d_2">
      <g>
       <use xlink:href="#m6a8971f51a" x="227.563636" y="504" style="stroke: #000000; stroke-width: 0.8"/>
      </g>
     </g>
     <g id="text_2">
      <!-- 1000 -->
      <g transform="translate(199.568636 527.716563)scale(0.22 -0.22)">
       <defs>
        <path id="DejaVuSans-31" d="M 794 531 
L 1825 531 
L 1825 4091 
L 703 3866 
L 703 4441 
L 1819 4666 
L 2450 4666 
L 2450 531 
L 3481 531 
L 3481 0 
L 794 0 
L 794 531 
z
" transform="scale(0.015625)"/>
       </defs>
       <use xlink:href="#DejaVuSans-31"/>
       <use xlink:href="#DejaVuSans-30" x="63.623047"/>
       <use xlink:href="#DejaVuSans-30" x="127.246094"/>
       <use xlink:href="#DejaVuSans-30" x="190.869141"/>
      </g>
     </g>
    </g>
    <g id="xtick_3">
     <g id="line2d_3">
      <g>
       <use xlink:href="#m6a8971f51a" x="362.836364" y="504" style="stroke: #000000; stroke-width: 0.8"/>
      </g>
     </g>
     <g id="text_3">
      <!-- 2000 -->
      <g transform="translate(334.841364 527.716563)scale(0.22 -0.22)">
       <defs>
        <path id="DejaVuSans-32" d="M 1228 531 
L 3431 531 
L 3431 0 
L 469 0 
L 469 531 
Q 828 903 1448 1529 
Q 2069 2156 2228 2338 
Q 2531 2678 2651 2914 
Q 2772 3150 2772 3378 
Q 2772 3750 2511 3984 
Q 2250 4219 1831 4219 
Q 1534 4219 1204 4116 
Q 875 4013 500 3803 
L 500 4441 
Q 881 4594 1212 4672 
Q 1544 4750 1819 4750 
Q 2544 4750 2975 4387 
Q 3406 4025 3406 3419 
Q 3406 3131 3298 2873 
Q 3191 2616 2906 2266 
Q 2828 2175 2409 1742 
Q 1991 1309 1228 531 
z
" transform="scale(0.015625)"/>
       </defs>
       <use xlink:href="#DejaVuSans-32"/>
       <use xlink:href="#DejaVuSans-30" x="63.623047"/>
       <use xlink:href="#DejaVuSans-30" x="127.246094"/>
       <use xlink:href="#DejaVuSans-30" x="190.869141"/>
      </g>
     </g>
    </g>
    <g id="xtick_4">
     <g id="line2d_4">
      <g>
       <use xlink:href="#m6a8971f51a" x="498.109091" y="504" style="stroke: #000000; stroke-width: 0.8"/>
      </g>
     </g>
     <g id="text_4">
      <!-- 3000 -->
      <g transform="translate(470.114091 527.716563)scale(0.22 -0.22)">
       <defs>
        <path id="DejaVuSans-33" d="M 2597 2516 
Q 3050 2419 3304 2112 
Q 3559 1806 3559 1356 
Q 3559 666 3084 287 
Q 2609 -91 1734 -91 
Q 1441 -91 1130 -33 
Q 819 25 488 141 
L 488 750 
Q 750 597 1062 519 
Q 1375 441 1716 441 
Q 2309 441 2620 675 
Q 2931 909 2931 1356 
Q 2931 1769 2642 2001 
Q 2353 2234 1838 2234 
L 1294 2234 
L 1294 2753 
L 1863 2753 
Q 2328 2753 2575 2939 
Q 2822 3125 2822 3475 
Q 2822 3834 2567 4026 
Q 2313 4219 1838 4219 
Q 1578 4219 1281 4162 
Q 984 4106 628 3988 
L 628 4550 
Q 988 4650 1302 4700 
Q 1616 4750 1894 4750 
Q 2613 4750 3031 4423 
Q 3450 4097 3450 3541 
Q 3450 3153 3228 2886 
Q 3006 2619 2597 2516 
z
" transform="scale(0.015625)"/>
       </defs>
       <use xlink:href="#DejaVuSans-33"/>
       <use xlink:href="#DejaVuSans-30" x="63.623047"/>
       <use xlink:href="#DejaVuSans-30" x="127.246094"/>
       <use xlink:href="#DejaVuSans-30" x="190.869141"/>
      </g>
     </g>
    </g>
    <g id="text_5">
     <!-- Time(ms) -->
     <g transform="translate(249.182187 552.307188)scale(0.22 -0.22)">
      <defs>
       <path id="ArialMT-54" d="M 1659 0 
L 1659 4041 
L 150 4041 
L 150 4581 
L 3781 4581 
L 3781 4041 
L 2266 4041 
L 2266 0 
L 1659 0 
z
" transform="scale(0.015625)"/>
       <path id="ArialMT-69" d="M 425 3934 
L 425 4581 
L 988 4581 
L 988 3934 
L 425 3934 
z
M 425 0 
L 425 3319 
L 988 3319 
L 988 0 
L 425 0 
z
" transform="scale(0.015625)"/>
       <path id="ArialMT-6d" d="M 422 0 
L 422 3319 
L 925 3319 
L 925 2853 
Q 1081 3097 1340 3245 
Q 1600 3394 1931 3394 
Q 2300 3394 2536 3241 
Q 2772 3088 2869 2813 
Q 3263 3394 3894 3394 
Q 4388 3394 4653 3120 
Q 4919 2847 4919 2278 
L 4919 0 
L 4359 0 
L 4359 2091 
Q 4359 2428 4304 2576 
Q 4250 2725 4106 2815 
Q 3963 2906 3769 2906 
Q 3419 2906 3187 2673 
Q 2956 2441 2956 1928 
L 2956 0 
L 2394 0 
L 2394 2156 
Q 2394 2531 2256 2718 
Q 2119 2906 1806 2906 
Q 1569 2906 1367 2781 
Q 1166 2656 1075 2415 
Q 984 2175 984 1722 
L 984 0 
L 422 0 
z
" transform="scale(0.015625)"/>
       <path id="ArialMT-65" d="M 2694 1069 
L 3275 997 
Q 3138 488 2766 206 
Q 2394 -75 1816 -75 
Q 1088 -75 661 373 
Q 234 822 234 1631 
Q 234 2469 665 2931 
Q 1097 3394 1784 3394 
Q 2450 3394 2872 2941 
Q 3294 2488 3294 1666 
Q 3294 1616 3291 1516 
L 816 1516 
Q 847 969 1125 678 
Q 1403 388 1819 388 
Q 2128 388 2347 550 
Q 2566 713 2694 1069 
z
M 847 1978 
L 2700 1978 
Q 2663 2397 2488 2606 
Q 2219 2931 1791 2931 
Q 1403 2931 1139 2672 
Q 875 2413 847 1978 
z
" transform="scale(0.015625)"/>
       <path id="ArialMT-28" d="M 1497 -1347 
Q 1031 -759 709 28 
Q 388 816 388 1659 
Q 388 2403 628 3084 
Q 909 3875 1497 4659 
L 1900 4659 
Q 1522 4009 1400 3731 
Q 1209 3300 1100 2831 
Q 966 2247 966 1656 
Q 966 153 1900 -1347 
L 1497 -1347 
z
" transform="scale(0.015625)"/>
       <path id="ArialMT-73" d="M 197 991 
L 753 1078 
Q 800 744 1014 566 
Q 1228 388 1613 388 
Q 2000 388 2187 545 
Q 2375 703 2375 916 
Q 2375 1106 2209 1216 
Q 2094 1291 1634 1406 
Q 1016 1563 777 1677 
Q 538 1791 414 1992 
Q 291 2194 291 2438 
Q 291 2659 392 2848 
Q 494 3038 669 3163 
Q 800 3259 1026 3326 
Q 1253 3394 1513 3394 
Q 1903 3394 2198 3281 
Q 2494 3169 2634 2976 
Q 2775 2784 2828 2463 
L 2278 2388 
Q 2241 2644 2061 2787 
Q 1881 2931 1553 2931 
Q 1166 2931 1000 2803 
Q 834 2675 834 2503 
Q 834 2394 903 2306 
Q 972 2216 1119 2156 
Q 1203 2125 1616 2013 
Q 2213 1853 2448 1751 
Q 2684 1650 2818 1456 
Q 2953 1263 2953 975 
Q 2953 694 2789 445 
Q 2625 197 2315 61 
Q 2006 -75 1616 -75 
Q 969 -75 630 194 
Q 291 463 197 991 
z
" transform="scale(0.015625)"/>
       <path id="ArialMT-29" d="M 791 -1347 
L 388 -1347 
Q 1322 153 1322 1656 
Q 1322 2244 1188 2822 
Q 1081 3291 891 3722 
Q 769 4003 388 4659 
L 791 4659 
Q 1378 3875 1659 3084 
Q 1900 2403 1900 1659 
Q 1900 816 1576 28 
Q 1253 -759 791 -1347 
z
" transform="scale(0.015625)"/>
      </defs>
      <use xlink:href="#ArialMT-54"/>
      <use xlink:href="#ArialMT-69" x="57.333984"/>
      <use xlink:href="#ArialMT-6d" x="79.550781"/>
      <use xlink:href="#ArialMT-65" x="162.851562"/>
      <use xlink:href="#ArialMT-28" x="218.466797"/>
      <use xlink:href="#ArialMT-6d" x="251.767578"/>
      <use xlink:href="#ArialMT-73" x="335.068359"/>
      <use xlink:href="#ArialMT-29" x="385.068359"/>
     </g>
    </g>
   </g>
   <g id="matplotlib.axis_2">
    <g id="ytick_1">
     <g id="line2d_5">
      <defs>
       <path id="m48f012dd00" d="M 0 0 
L -3.5 0 
" style="stroke: #000000; stroke-width: 0.8"/>
      </defs>
      <g>
       <use xlink:href="#m48f012dd00" x="72" y="476.82" style="stroke: #000000; stroke-width: 0.8"/>
      </g>
     </g>
     <g id="text_6">
      <!-- −100 -->
      <g transform="translate(4.572187 485.178281)scale(0.22 -0.22)">
       <defs>
        <path id="DejaVuSans-2212" d="M 678 2272 
L 4684 2272 
L 4684 1741 
L 678 1741 
L 678 2272 
z
" transform="scale(0.015625)"/>
       </defs>
       <use xlink:href="#DejaVuSans-2212"/>
       <use xlink:href="#DejaVuSans-31" x="83.789062"/>
       <use xlink:href="#DejaVuSans-30" x="147.412109"/>
       <use xlink:href="#DejaVuSans-30" x="211.035156"/>
      </g>
     </g>
    </g>
    <g id="ytick_2">
     <g id="line2d_6">
      <g>
       <use xlink:href="#m48f012dd00" x="72" y="422.46" style="stroke: #000000; stroke-width: 0.8"/>
      </g>
     </g>
     <g id="text_7">
      <!-- −80 -->
      <g transform="translate(18.569688 430.818281)scale(0.22 -0.22)">
       <defs>
        <path id="DejaVuSans-38" d="M 2034 2216 
Q 1584 2216 1326 1975 
Q 1069 1734 1069 1313 
Q 1069 891 1326 650 
Q 1584 409 2034 409 
Q 2484 409 2743 651 
Q 3003 894 3003 1313 
Q 3003 1734 2745 1975 
Q 2488 2216 2034 2216 
z
M 1403 2484 
Q 997 2584 770 2862 
Q 544 3141 544 3541 
Q 544 4100 942 4425 
Q 1341 4750 2034 4750 
Q 2731 4750 3128 4425 
Q 3525 4100 3525 3541 
Q 3525 3141 3298 2862 
Q 3072 2584 2669 2484 
Q 3125 2378 3379 2068 
Q 3634 1759 3634 1313 
Q 3634 634 3220 271 
Q 2806 -91 2034 -91 
Q 1263 -91 848 271 
Q 434 634 434 1313 
Q 434 1759 690 2068 
Q 947 2378 1403 2484 
z
M 1172 3481 
Q 1172 3119 1398 2916 
Q 1625 2713 2034 2713 
Q 2441 2713 2670 2916 
Q 2900 3119 2900 3481 
Q 2900 3844 2670 4047 
Q 2441 4250 2034 4250 
Q 1625 4250 1398 4047 
Q 1172 3844 1172 3481 
z
" transform="scale(0.015625)"/>
       </defs>
       <use xlink:href="#DejaVuSans-2212"/>
       <use xlink:href="#DejaVuSans-38" x="83.789062"/>
       <use xlink:href="#DejaVuSans-30" x="147.412109"/>
      </g>
     </g>
    </g>
    <g id="ytick_3">
     <g id="line2d_7">
      <g>
       <use xlink:href="#m48f012dd00" x="72" y="368.1" style="stroke: #000000; stroke-width: 0.8"/>
      </g>
     </g>
     <g id="text_8">
      <!-- −60 -->
      <g transform="translate(18.569688 376.458281)scale(0.22 -0.22)">
       <defs>
        <path id="DejaVuSans-36" d="M 2113 2584 
Q 1688 2584 1439 2293 
Q 1191 2003 1191 1497 
Q 1191 994 1439 701 
Q 1688 409 2113 409 
Q 2538 409 2786 701 
Q 3034 994 3034 1497 
Q 3034 2003 2786 2293 
Q 2538 2584 2113 2584 
z
M 3366 4563 
L 3366 3988 
Q 3128 4100 2886 4159 
Q 2644 4219 2406 4219 
Q 1781 4219 1451 3797 
Q 1122 3375 1075 2522 
Q 1259 2794 1537 2939 
Q 1816 3084 2150 3084 
Q 2853 3084 3261 2657 
Q 3669 2231 3669 1497 
Q 3669 778 3244 343 
Q 2819 -91 2113 -91 
Q 1303 -91 875 529 
Q 447 1150 447 2328 
Q 447 3434 972 4092 
Q 1497 4750 2381 4750 
Q 2619 4750 2861 4703 
Q 3103 4656 3366 4563 
z
" transform="scale(0.015625)"/>
       </defs>
       <use xlink:href="#DejaVuSans-2212"/>
       <use xlink:href="#DejaVuSans-36" x="83.789062"/>
       <use xlink:href="#DejaVuSans-30" x="147.412109"/>
      </g>
     </g>
    </g>
    <g id="ytick_4">
     <g id="line2d_8">
      <g>
       <use xlink:href="#m48f012dd00" x="72" y="313.74" style="stroke: #000000; stroke-width: 0.8"/>
      </g>
     </g>
     <g id="text_9">
      <!-- −40 -->
      <g transform="translate(18.569688 322.098281)scale(0.22 -0.22)">
       <defs>
        <path id="DejaVuSans-34" d="M 2419 4116 
L 825 1625 
L 2419 1625 
L 2419 4116 
z
M 2253 4666 
L 3047 4666 
L 3047 1625 
L 3713 1625 
L 3713 1100 
L 3047 1100 
L 3047 0 
L 2419 0 
L 2419 1100 
L 313 1100 
L 313 1709 
L 2253 4666 
z
" transform="scale(0.015625)"/>
       </defs>
       <use xlink:href="#DejaVuSans-2212"/>
       <use xlink:href="#DejaVuSans-34" x="83.789062"/>
       <use xlink:href="#DejaVuSans-30" x="147.412109"/>
      </g>
     </g>
    </g>
    <g id="ytick_5">
     <g id="line2d_9">
      <g>
       <use xlink:href="#m48f012dd00" x="72" y="259.38" style="stroke: #000000; stroke-width: 0.8"/>
      </g>
     </g>
     <g id="text_10">
      <!-- −20 -->
      <g transform="translate(18.569688 267.738281)scale(0.22 -0.22)">
       <use xlink:href="#DejaVuSans-2212"/>
       <use xlink:href="#DejaVuSans-32" x="83.789062"/>
       <use xlink:href="#DejaVuSans-30" x="147.412109"/>
      </g>
     </g>
    </g>
    <g id="ytick_6">
     <g id="line2d_10">
      <g>
       <use xlink:href="#m48f012dd00" x="72" y="205.02" style="stroke: #000000; stroke-width: 0.8"/>
      </g>
     </g>
     <g id="text_11">
      <!-- 0 -->
      <g transform="translate(51.0025 213.378281)scale(0.22 -0.22)">
       <use xlink:href="#DejaVuSans-30"/>
      </g>
     </g>
    </g>
    <g id="ytick_7">
     <g id="line2d_11">
      <g>
       <use xlink:href="#m48f012dd00" x="72" y="150.66" style="stroke: #000000; stroke-width: 0.8"/>
      </g>
     </g>
     <g id="text_12">
      <!-- 20 -->
      <g transform="translate(37.005 159.018281)scale(0.22 -0.22)">
       <use xlink:href="#DejaVuSans-32"/>
       <use xlink:href="#DejaVuSans-30" x="63.623047"/>
      </g>
     </g>
    </g>
    <g id="ytick_8">
     <g id="line2d_12">
      <g>
       <use xlink:href="#m48f012dd00" x="72" y="96.3" style="stroke: #000000; stroke-width: 0.8"/>
      </g>
     </g>
     <g id="text_13">
      <!-- 40 -->
      <g transform="translate(37.005 104.658281)scale(0.22 -0.22)">
       <use xlink:href="#DejaVuSans-34"/>
       <use xlink:href="#DejaVuSans-30" x="63.623047"/>
      </g>
     </g>
    </g>
    <g id="text_14">
     <!-- Membrane potential (mV) -->
     <g transform="translate(-4.058125 410.655469)rotate(-90)scale(0.22 -0.22)">
      <defs>
       <path id="ArialMT-4d" d="M 475 0 
L 475 4581 
L 1388 4581 
L 2472 1338 
Q 2622 884 2691 659 
Q 2769 909 2934 1394 
L 4031 4581 
L 4847 4581 
L 4847 0 
L 4263 0 
L 4263 3834 
L 2931 0 
L 2384 0 
L 1059 3900 
L 1059 0 
L 475 0 
z
" transform="scale(0.015625)"/>
       <path id="ArialMT-62" d="M 941 0 
L 419 0 
L 419 4581 
L 981 4581 
L 981 2947 
Q 1338 3394 1891 3394 
Q 2197 3394 2470 3270 
Q 2744 3147 2920 2923 
Q 3097 2700 3197 2384 
Q 3297 2069 3297 1709 
Q 3297 856 2875 390 
Q 2453 -75 1863 -75 
Q 1275 -75 941 416 
L 941 0 
z
M 934 1684 
Q 934 1088 1097 822 
Q 1363 388 1816 388 
Q 2184 388 2453 708 
Q 2722 1028 2722 1663 
Q 2722 2313 2464 2622 
Q 2206 2931 1841 2931 
Q 1472 2931 1203 2611 
Q 934 2291 934 1684 
z
" transform="scale(0.015625)"/>
       <path id="ArialMT-72" d="M 416 0 
L 416 3319 
L 922 3319 
L 922 2816 
Q 1116 3169 1280 3281 
Q 1444 3394 1641 3394 
Q 1925 3394 2219 3213 
L 2025 2691 
Q 1819 2813 1613 2813 
Q 1428 2813 1281 2702 
Q 1134 2591 1072 2394 
Q 978 2094 978 1738 
L 978 0 
L 416 0 
z
" transform="scale(0.015625)"/>
       <path id="ArialMT-61" d="M 2588 409 
Q 2275 144 1986 34 
Q 1697 -75 1366 -75 
Q 819 -75 525 192 
Q 231 459 231 875 
Q 231 1119 342 1320 
Q 453 1522 633 1644 
Q 813 1766 1038 1828 
Q 1203 1872 1538 1913 
Q 2219 1994 2541 2106 
Q 2544 2222 2544 2253 
Q 2544 2597 2384 2738 
Q 2169 2928 1744 2928 
Q 1347 2928 1158 2789 
Q 969 2650 878 2297 
L 328 2372 
Q 403 2725 575 2942 
Q 747 3159 1072 3276 
Q 1397 3394 1825 3394 
Q 2250 3394 2515 3294 
Q 2781 3194 2906 3042 
Q 3031 2891 3081 2659 
Q 3109 2516 3109 2141 
L 3109 1391 
Q 3109 606 3145 398 
Q 3181 191 3288 0 
L 2700 0 
Q 2613 175 2588 409 
z
M 2541 1666 
Q 2234 1541 1622 1453 
Q 1275 1403 1131 1340 
Q 988 1278 909 1158 
Q 831 1038 831 891 
Q 831 666 1001 516 
Q 1172 366 1500 366 
Q 1825 366 2078 508 
Q 2331 650 2450 897 
Q 2541 1088 2541 1459 
L 2541 1666 
z
" transform="scale(0.015625)"/>
       <path id="ArialMT-6e" d="M 422 0 
L 422 3319 
L 928 3319 
L 928 2847 
Q 1294 3394 1984 3394 
Q 2284 3394 2536 3286 
Q 2788 3178 2913 3003 
Q 3038 2828 3088 2588 
Q 3119 2431 3119 2041 
L 3119 0 
L 2556 0 
L 2556 2019 
Q 2556 2363 2490 2533 
Q 2425 2703 2258 2804 
Q 2091 2906 1866 2906 
Q 1506 2906 1245 2678 
Q 984 2450 984 1813 
L 984 0 
L 422 0 
z
" transform="scale(0.015625)"/>
       <path id="ArialMT-20" transform="scale(0.015625)"/>
       <path id="ArialMT-70" d="M 422 -1272 
L 422 3319 
L 934 3319 
L 934 2888 
Q 1116 3141 1344 3267 
Q 1572 3394 1897 3394 
Q 2322 3394 2647 3175 
Q 2972 2956 3137 2557 
Q 3303 2159 3303 1684 
Q 3303 1175 3120 767 
Q 2938 359 2589 142 
Q 2241 -75 1856 -75 
Q 1575 -75 1351 44 
Q 1128 163 984 344 
L 984 -1272 
L 422 -1272 
z
M 931 1641 
Q 931 1000 1190 694 
Q 1450 388 1819 388 
Q 2194 388 2461 705 
Q 2728 1022 2728 1688 
Q 2728 2322 2467 2637 
Q 2206 2953 1844 2953 
Q 1484 2953 1207 2617 
Q 931 2281 931 1641 
z
" transform="scale(0.015625)"/>
       <path id="ArialMT-6f" d="M 213 1659 
Q 213 2581 725 3025 
Q 1153 3394 1769 3394 
Q 2453 3394 2887 2945 
Q 3322 2497 3322 1706 
Q 3322 1066 3130 698 
Q 2938 331 2570 128 
Q 2203 -75 1769 -75 
Q 1072 -75 642 372 
Q 213 819 213 1659 
z
M 791 1659 
Q 791 1022 1069 705 
Q 1347 388 1769 388 
Q 2188 388 2466 706 
Q 2744 1025 2744 1678 
Q 2744 2294 2464 2611 
Q 2184 2928 1769 2928 
Q 1347 2928 1069 2612 
Q 791 2297 791 1659 
z
" transform="scale(0.015625)"/>
       <path id="ArialMT-74" d="M 1650 503 
L 1731 6 
Q 1494 -44 1306 -44 
Q 1000 -44 831 53 
Q 663 150 594 308 
Q 525 466 525 972 
L 525 2881 
L 113 2881 
L 113 3319 
L 525 3319 
L 525 4141 
L 1084 4478 
L 1084 3319 
L 1650 3319 
L 1650 2881 
L 1084 2881 
L 1084 941 
Q 1084 700 1114 631 
Q 1144 563 1211 522 
Q 1278 481 1403 481 
Q 1497 481 1650 503 
z
" transform="scale(0.015625)"/>
       <path id="ArialMT-6c" d="M 409 0 
L 409 4581 
L 972 4581 
L 972 0 
L 409 0 
z
" transform="scale(0.015625)"/>
       <path id="ArialMT-56" d="M 1803 0 
L 28 4581 
L 684 4581 
L 1875 1253 
Q 2019 853 2116 503 
Q 2222 878 2363 1253 
L 3600 4581 
L 4219 4581 
L 2425 0 
L 1803 0 
z
" transform="scale(0.015625)"/>
      </defs>
      <use xlink:href="#ArialMT-4d"/>
      <use xlink:href="#ArialMT-65" x="83.300781"/>
      <use xlink:href="#ArialMT-6d" x="138.916016"/>
      <use xlink:href="#ArialMT-62" x="222.216797"/>
      <use xlink:href="#ArialMT-72" x="277.832031"/>
      <use xlink:href="#ArialMT-61" x="311.132812"/>
      <use xlink:href="#ArialMT-6e" x="366.748047"/>
      <use xlink:href="#ArialMT-65" x="422.363281"/>
      <use xlink:href="#ArialMT-20" x="477.978516"/>
      <use xlink:href="#ArialMT-70" x="505.761719"/>
      <use xlink:href="#ArialMT-6f" x="561.376953"/>
      <use xlink:href="#ArialMT-74" x="616.992188"/>
      <use xlink:href="#ArialMT-65" x="644.775391"/>
      <use xlink:href="#ArialMT-6e" x="700.390625"/>
      <use xlink:href="#ArialMT-74" x="756.005859"/>
      <use xlink:href="#ArialMT-69" x="783.789062"/>
      <use xlink:href="#ArialMT-61" x="806.005859"/>
      <use xlink:href="#ArialMT-6c" x="861.621094"/>
      <use xlink:href="#ArialMT-20" x="883.837891"/>
      <use xlink:href="#ArialMT-28" x="911.621094"/>
      <use xlink:href="#ArialMT-6d" x="944.921875"/>
      <use xlink:href="#ArialMT-56" x="1028.222656"/>
      <use xlink:href="#ArialMT-29" x="1094.921875"/>
     </g>
    </g>
   </g>
   <g id="line2d_13">
    <path d="M 92.290909 438.768 
L 92.426182 453.691036 
L 92.764364 458.517866 
L 93.170182 461.200901 
L 93.576 462.45848 
L 93.981818 463.045045 
L 94.455273 463.346137 
L 95.199273 463.503866 
L 96.957818 463.555468 
L 123.471273 463.559452 
L 159.927273 463.559699 
L 160.130182 435.358743 
L 160.536 421.093687 
L 161.144727 407.952333 
L 161.888727 396.779572 
L 162.970909 384.162867 
L 165.135273 362.345271 
L 165.541091 359.846183 
L 166.014545 357.577176 
L 166.420364 354.117642 
L 166.893818 348.330256 
L 167.299636 340.681428 
L 167.570182 332.030182 
L 167.773091 317.948714 
L 167.840727 304.312538 
L 167.908364 202.183762 
L 167.976 215.577798 
L 168.178909 358.849474 
L 168.381818 371.212152 
L 168.449455 371.420245 
L 168.584727 370.648002 
L 168.990545 365.618998 
L 169.802182 355.986474 
L 170.275636 352.290183 
L 171.966545 341.526094 
L 172.237091 337.883166 
L 172.507636 330.713598 
L 172.642909 323.055285 
L 172.710545 315.367813 
L 172.778182 294.531949 
L 172.845818 148.053759 
L 173.048727 340.856164 
L 173.251636 367.739232 
L 173.454545 370.824712 
L 173.522182 370.79224 
L 173.725091 369.503115 
L 175.416 354.26039 
L 176.701091 345.166539 
L 177.106909 340.035864 
L 177.377455 334.285366 
L 177.580364 326.005069 
L 177.715636 311.041545 
L 177.783273 272.839972 
L 177.850909 164.930317 
L 178.053818 347.604587 
L 178.256727 369.14653 
L 178.459636 371.162045 
L 178.594909 370.521157 
L 178.933091 366.99398 
L 180.015273 355.22402 
L 180.894545 347.73842 
L 181.638545 342.078009 
L 181.976727 337.862342 
L 182.247273 331.989177 
L 182.450182 322.670309 
L 182.585455 299.8883 
L 182.653091 171.385347 
L 182.720727 224.984885 
L 182.923636 352.269509 
L 183.126545 367.709884 
L 183.329455 369.379171 
L 183.464727 368.745459 
L 183.802909 365.25205 
L 185.020364 352.266065 
L 185.290909 350.935692 
L 185.899636 350.335033 
L 186.102545 349.540207 
L 186.508364 347.740217 
L 186.643636 347.6471 
L 186.846545 346.9909 
L 187.117091 344.817802 
L 187.455273 339.737045 
L 187.725818 332.431817 
L 187.928727 318.552666 
L 187.996364 303.206231 
L 188.064 164.472152 
L 188.131636 212.285104 
L 188.334545 355.602171 
L 188.537455 371.54627 
L 188.672727 372.793636 
L 188.740364 372.706293 
L 188.943273 371.232156 
L 190.701818 353.871503 
L 191.581091 347.866497 
L 192.595636 338.344977 
L 192.866182 335.001336 
L 193.204364 327.395736 
L 193.407273 317.307058 
L 193.474909 309.240519 
L 193.542545 287.104308 
L 193.610182 173.481583 
L 193.813091 334.326435 
L 194.016 360.601334 
L 194.218909 364.428316 
L 194.286545 364.439968 
L 194.421818 363.676442 
L 196.112727 348.98885 
L 196.518545 347.727294 
L 196.721455 347.206727 
L 196.924364 346.059375 
L 197.194909 343.252459 
L 197.533091 336.761966 
L 197.803636 326.943138 
L 197.938909 313.844631 
L 198.006545 288.372621 
L 198.074182 150.189506 
L 198.277091 344.778174 
L 198.48 371.556806 
L 198.615273 373.469517 
L 198.682909 373.308267 
L 198.885818 371.373375 
L 200.103273 357.573586 
L 200.644364 353.598386 
L 201.117818 351.437284 
L 201.523636 350.470763 
L 201.861818 348.758175 
L 202.267636 345.471134 
L 202.876364 340.812066 
L 203.146909 338.658107 
L 203.890909 331.146404 
L 204.093818 330.024024 
L 204.296727 326.415861 
L 204.432 320.522629 
L 204.567273 301.665882 
L 204.702545 204.759489 
L 204.905455 341.010447 
L 205.108364 360.546723 
L 205.311273 363.969233 
L 205.378909 364.05159 
L 205.514182 363.477414 
L 205.92 359.622728 
L 207.543273 342.84251 
L 208.219636 339.50521 
L 208.490182 335.738978 
L 208.693091 330.618332 
L 208.896 319.037266 
L 208.963636 309.160234 
L 209.098909 169.384568 
L 209.301818 344.179342 
L 209.504727 366.925397 
L 209.707636 369.410712 
L 209.842909 368.733756 
L 210.248727 364.097653 
L 211.263273 352.646232 
L 211.601455 350.539086 
L 212.074909 347.747907 
L 212.548364 343.823894 
L 213.089455 337.094418 
L 213.36 330.763628 
L 213.562909 319.415435 
L 213.630545 309.752859 
L 213.698182 273.198074 
L 213.765818 168.177335 
L 213.968727 344.249967 
L 214.171636 365.981604 
L 214.374545 368.57803 
L 214.442182 368.46681 
L 214.645091 366.931849 
L 217.215273 337.801332 
L 217.553455 331.32764 
L 217.756364 322.674739 
L 217.891636 304.907282 
L 218.026909 194.891422 
L 218.229818 347.52724 
L 218.432727 366.270079 
L 218.635636 368.203113 
L 218.770909 367.438557 
L 219.176727 362.600416 
L 219.988364 353.262451 
L 220.529455 349.21164 
L 220.935273 346.433275 
L 221.341091 341.510624 
L 221.814545 333.451678 
L 222.017455 326.517237 
L 222.152727 315.957001 
L 222.220364 301.326377 
L 222.288 189.766701 
L 222.355636 216.718575 
L 222.558545 350.898415 
L 222.761455 367.361105 
L 222.896727 368.956146 
L 222.964364 368.946522 
L 223.099636 368.136354 
L 223.505455 363.437884 
L 224.790545 348.334074 
L 225.602182 340.611911 
L 226.008 333.934772 
L 226.278545 326.169164 
L 226.413818 317.694697 
L 226.481455 308.198942 
L 226.549091 274.790749 
L 226.616727 173.613318 
L 226.819636 341.518222 
L 227.022545 363.715121 
L 227.225455 366.49028 
L 227.293091 366.361065 
L 227.496 364.775816 
L 229.998545 336.50899 
L 230.269091 330.593315 
L 230.472 321.078183 
L 230.607273 297.670181 
L 230.674909 175.717041 
L 230.742545 232.654985 
L 230.945455 350.071906 
L 231.148364 365.060279 
L 231.351273 366.883531 
L 231.486545 366.293247 
L 231.824727 362.853056 
L 233.042182 349.68594 
L 233.515636 346.59807 
L 233.921455 344.704089 
L 234.192 342.363426 
L 234.530182 337.390409 
L 234.800727 330.533045 
L 235.003636 319.070431 
L 235.071273 309.054599 
L 235.206545 171.926817 
L 235.409455 345.614692 
L 235.612364 367.045719 
L 235.815273 369.162568 
L 235.950545 368.412217 
L 236.356364 363.694691 
L 237.168 354.70047 
L 238.317818 343.826091 
L 238.791273 335.715991 
L 239.061818 327.308261 
L 239.197091 317.774344 
L 239.264727 306.110466 
L 239.4 190.94678 
L 239.602909 348.042878 
L 239.805818 365.911181 
L 240.008727 367.692463 
L 240.144 367.045498 
L 240.482182 363.433132 
L 241.970182 346.0158 
L 243.187636 332.722488 
L 243.458182 325.198297 
L 243.593455 315.439929 
L 243.661091 302.505419 
L 243.796364 205.490189 
L 243.999273 345.523646 
L 244.202182 363.928756 
L 244.405091 366.325375 
L 244.540364 365.770352 
L 244.878545 362.167986 
L 246.231273 347.158884 
L 246.975273 338.449042 
L 247.245818 332.619565 
L 247.448727 323.553803 
L 247.584 302.204958 
L 247.651636 180.549333 
L 247.719273 214.129165 
L 247.922182 351.725087 
L 248.125091 368.022711 
L 248.328 369.774443 
L 248.463273 369.115488 
L 248.869091 364.780611 
L 249.748364 355.807775 
L 251.168727 342.39604 
L 251.506909 336.318421 
L 251.777455 327.253405 
L 251.912727 315.75884 
L 251.980364 297.962957 
L 252.048 157.062389 
L 252.115636 235.872078 
L 252.318545 354.450474 
L 252.521455 368.007277 
L 252.656727 369.186995 
L 252.724364 369.140641 
L 252.927273 367.772686 
L 254.550545 352.685242 
L 255.362182 345.917855 
L 255.768 340.585844 
L 256.106182 332.505702 
L 256.309091 321.911334 
L 256.376727 313.797986 
L 256.444364 290.46288 
L 256.512 152.192257 
L 256.714909 342.981169 
L 256.917818 368.110227 
L 257.120727 370.415891 
L 257.256 369.646975 
L 257.661818 364.71004 
L 258.405818 356.150925 
L 259.826182 346.226097 
L 260.299636 340.68408 
L 260.637818 334.473922 
L 260.840727 327.488109 
L 260.976 316.910362 
L 261.043636 302.170441 
L 261.111273 182.722865 
L 261.178909 215.314282 
L 261.381818 352.379185 
L 261.584727 368.011006 
L 261.72 369.333439 
L 261.787636 369.251983 
L 261.990545 367.675143 
L 263.681455 349.992077 
L 264.425455 344.763986 
L 264.831273 339.186239 
L 265.101818 332.448202 
L 265.304727 321.61692 
L 265.372364 312.831292 
L 265.44 284.025325 
L 265.507636 155.046333 
L 265.710545 344.655697 
L 265.913455 367.71091 
L 266.116364 369.899597 
L 266.251636 369.293879 
L 266.589818 365.708587 
L 267.672 353.589717 
L 268.618909 343.594426 
L 269.227636 334.203031 
L 269.498182 327.348469 
L 269.633455 320.100055 
L 269.768727 295.097416 
L 269.836364 172.409477 
L 269.904 243.598339 
L 270.106909 349.959758 
L 270.309818 364.168678 
L 270.445091 365.627118 
L 270.512727 365.616939 
L 270.648 364.862745 
L 271.053818 360.270044 
L 272.000727 349.269924 
L 272.474182 345.510955 
L 273.218182 339.692208 
L 273.488727 335.506963 
L 273.691636 329.696094 
L 273.826909 321.931957 
L 273.894545 313.914403 
L 273.962182 290.780762 
L 274.029818 150.634173 
L 274.232727 340.761446 
L 274.435636 367.389056 
L 274.638545 370.232779 
L 274.773818 369.620182 
L 275.112 365.813706 
L 275.991273 355.613459 
L 277.276364 343.997734 
L 277.614545 337.791158 
L 277.885091 328.111491 
L 278.020364 315.605488 
L 278.088 294.024281 
L 278.155636 146.552717 
L 278.358545 343.437019 
L 278.561455 369.187192 
L 278.764364 371.47466 
L 278.899636 370.817148 
L 279.237818 367.127409 
L 280.049455 358.252544 
L 281.808 342.370771 
L 282.281455 334.574502 
L 282.484364 328.316863 
L 282.619636 319.676288 
L 282.687273 310.021922 
L 282.754909 273.587796 
L 282.822545 168.339342 
L 283.025455 345.611801 
L 283.228364 366.94411 
L 283.431273 368.960708 
L 283.566545 368.151484 
L 283.972364 363.201417 
L 284.919273 352.013455 
L 285.730909 344.618785 
L 286.069091 341.440599 
L 286.407273 335.719038 
L 286.677818 327.015919 
L 286.813091 315.916969 
L 286.880727 299.419963 
L 286.948364 165.743081 
L 287.016 227.642641 
L 287.218909 352.649272 
L 287.421818 367.430351 
L 287.557091 368.816819 
L 287.624727 368.792366 
L 287.76 368.007047 
L 288.165818 363.323131 
L 289.045091 353.570509 
L 289.653818 348.783997 
L 290.262545 343.895174 
L 290.668364 338.712192 
L 291.006545 330.275629 
L 291.209455 317.374014 
L 291.277091 304.415747 
L 291.412364 201.500309 
L 291.615273 350.149809 
L 291.818182 367.56999 
L 292.021091 369.251399 
L 292.156364 368.425961 
L 292.629818 362.832799 
L 293.712 350.839605 
L 294.861818 338.608178 
L 295.2 331.707904 
L 295.402909 322.639231 
L 295.538182 301.9027 
L 295.605818 193.691588 
L 295.673455 214.202961 
L 295.876364 350.20276 
L 296.079273 366.213228 
L 296.282182 367.776238 
L 296.417455 367.029297 
L 296.823273 362.469847 
L 297.973091 349.617329 
L 298.311273 348.024222 
L 298.581818 346.533257 
L 298.92 342.921994 
L 299.258182 336.168097 
L 299.461091 328.347979 
L 299.596364 316.230251 
L 299.664 296.063451 
L 299.731636 145.613585 
L 299.934545 341.910971 
L 300.137455 369.566934 
L 300.340364 372.122992 
L 300.475636 371.407205 
L 300.881455 366.732001 
L 301.760727 356.987402 
L 302.234182 353.640882 
L 302.707636 350.226092 
L 303.181091 345.087081 
L 303.586909 338.831297 
L 303.857455 331.697805 
L 304.060364 319.613055 
L 304.128 308.824102 
L 304.263273 178.516856 
L 304.466182 349.599368 
L 304.669091 368.24373 
L 304.804364 369.676308 
L 304.872 369.629401 
L 305.074909 368.218032 
L 307.780364 338.865963 
L 308.186182 330.232697 
L 308.389091 322.205589 
L 308.524364 307.052288 
L 308.659636 179.680981 
L 308.862545 341.548623 
L 309.065455 362.079173 
L 309.268364 364.612466 
L 309.403636 364.069144 
L 309.741818 360.397306 
L 311.568 336.051101 
L 311.838545 326.847286 
L 311.973818 315.91225 
L 312.041455 300.249888 
L 312.109091 174.178224 
L 312.176727 222.814699 
L 312.379636 352.213546 
L 312.582545 367.651112 
L 312.717818 368.935304 
L 312.785455 368.836976 
L 312.988364 367.248396 
L 313.8 356.915047 
L 314.679273 347.436236 
L 315.829091 335.02256 
L 316.032 329.179397 
L 316.167273 321.52051 
L 316.234909 313.803846 
L 316.302545 292.896359 
L 316.370182 154.444055 
L 316.573091 338.825426 
L 316.776 365.259784 
L 316.978909 368.289969 
L 317.046545 368.185764 
L 317.249455 366.658152 
L 317.925818 358.312048 
L 318.872727 347.574122 
L 319.346182 344.193276 
L 319.752 341.644166 
L 320.090182 337.67721 
L 320.428364 330.469787 
L 320.631273 320.636783 
L 320.766545 293.194468 
L 320.834182 160.124436 
L 321.037091 336.587958 
L 321.24 363.760982 
L 321.442909 366.999948 
L 321.510545 366.898963 
L 321.713455 365.375819 
L 323.607273 343.788211 
L 324.013091 335.411841 
L 324.216 327.478039 
L 324.351273 315.064455 
L 324.418909 294.213551 
L 324.486545 149.4879 
L 324.689455 342.264624 
L 324.892364 368.866178 
L 325.095273 371.220953 
L 325.230545 370.446286 
L 325.636364 365.595848 
L 326.650909 353.682517 
L 327.327273 348.124228 
L 327.800727 344.058539 
L 328.206545 338.498608 
L 328.544727 330.803629 
L 328.747636 321.595757 
L 328.882909 302.23504 
L 329.018182 209.614339 
L 329.221091 349.089359 
L 329.424 366.19661 
L 329.559273 367.49566 
L 329.694545 366.826248 
L 330.100364 361.753752 
L 330.979636 351.408983 
L 331.723636 342.821591 
L 332.061818 336.879571 
L 332.332364 328.34389 
L 332.467636 318.96493 
L 332.535273 307.859171 
L 332.670545 182.244762 
L 332.873455 348.637239 
L 333.076364 367.464898 
L 333.279273 369.079299 
L 333.414545 368.289393 
L 333.820364 363.528078 
L 334.496727 356.299577 
L 335.443636 346.590021 
L 335.984727 338.547387 
L 336.390545 330.10202 
L 336.593455 320.665784 
L 336.728727 297.201841 
L 336.796364 178.305189 
L 336.864 235.340513 
L 337.066909 350.001861 
L 337.269818 364.581092 
L 337.405091 365.914627 
L 337.472727 365.846459 
L 337.675636 364.309687 
L 338.216727 357.199173 
L 339.501818 337.535265 
L 339.84 327.1434 
L 339.975273 317.943566 
L 340.042909 307.489787 
L 340.178182 180.32674 
L 340.381091 346.034051 
L 340.584 365.99994 
L 340.786909 367.919611 
L 340.922182 367.141767 
L 341.328 362.287516 
L 342.748364 344.54556 
L 343.492364 336.766425 
L 343.762909 330.607327 
L 343.965818 319.828993 
L 344.033455 310.595154 
L 344.101091 278.084637 
L 344.168727 163.808045 
L 344.371636 343.096851 
L 344.574545 365.656241 
L 344.777455 368.248382 
L 344.912727 367.694435 
L 345.250909 364.03919 
L 346.130182 354.108396 
L 347.28 343.972547 
L 347.685818 338.649395 
L 347.956364 332.392752 
L 348.159273 322.780819 
L 348.294545 300.63274 
L 348.362182 176.302464 
L 348.429818 221.76678 
L 348.632727 352.67296 
L 348.835636 367.979996 
L 348.970909 369.088249 
L 349.106182 368.460883 
L 349.444364 364.517581 
L 350.458909 352.246556 
L 351.473455 340.610448 
L 351.811636 334.374807 
L 352.014545 327.294167 
L 352.149818 316.245853 
L 352.217455 299.833481 
L 352.285091 165.124049 
L 352.352727 226.685745 
L 352.555636 352.669552 
L 352.758545 367.102798 
L 352.961455 368.504993 
L 353.096727 367.82539 
L 353.502545 363.515271 
L 354.922909 347.736269 
L 355.531636 340.943571 
L 356.005091 332.474304 
L 356.208 325.889037 
L 356.343273 316.52788 
L 356.410909 305.139231 
L 356.546182 192.309771 
L 356.749091 345.457049 
L 356.952 364.006653 
L 357.154909 365.913915 
L 357.290182 365.224224 
L 357.628364 361.428938 
L 359.657455 333.232608 
L 359.860364 324.344882 
L 359.995636 305.154005 
L 360.130909 198.707955 
L 360.333818 351.06776 
L 360.536727 368.488734 
L 360.672 369.92961 
L 360.739636 369.86946 
L 360.942545 368.340872 
L 363.242182 344.468477 
L 363.648 339.494848 
L 363.918545 333.935328 
L 364.121455 325.93024 
L 364.256727 312.101637 
L 364.324364 282.859401 
L 364.392 158.00934 
L 364.594909 344.508397 
L 364.797818 367.50534 
L 365.000727 369.562658 
L 365.136 368.776332 
L 365.609455 363.293782 
L 366.759273 350.768917 
L 367.976727 337.201924 
L 368.247273 331.128345 
L 368.450182 320.319176 
L 368.517818 311.195565 
L 368.585455 279.647227 
L 368.653091 161.734141 
L 368.856 343.635334 
L 369.058909 366.07499 
L 369.261818 368.465869 
L 369.397091 367.846405 
L 369.735273 364.075413 
L 370.885091 350.452525 
L 371.561455 343.588038 
L 371.899636 337.744676 
L 372.170182 329.562248 
L 372.305455 321.112358 
L 372.373091 312.189116 
L 372.440727 282.578618 
L 372.508364 157.819684 
L 372.711273 345.136057 
L 372.914182 367.694795 
L 373.117091 369.757706 
L 373.252364 369.031442 
L 373.658182 364.28657 
L 374.469818 355.336887 
L 375.619636 343.649557 
L 376.093091 336.093144 
L 376.363636 327.552295 
L 376.498909 317.313629 
L 376.566545 303.806946 
L 376.634182 204.32227 
L 376.701818 206.536427 
L 376.904727 351.385449 
L 377.107636 367.393435 
L 377.242909 368.613546 
L 377.310545 368.491132 
L 377.513455 366.858465 
L 378.257455 357.072359 
L 379.136727 347.370192 
L 380.016 337.480358 
L 380.286545 331.400654 
L 380.489455 321.960611 
L 380.624727 298.830105 
L 380.692364 172.679863 
L 380.76 228.930614 
L 380.962909 351.65075 
L 381.165818 366.536058 
L 381.301091 367.831607 
L 381.368727 367.758707 
L 381.571636 366.20637 
L 383.330182 347.769301 
L 384.209455 339.920875 
L 384.615273 334.113983 
L 384.885818 326.93418 
L 385.021091 318.477674 
L 385.088727 308.701038 
L 385.156364 271.202391 
L 385.224 172.013697 
L 385.426909 342.293475 
L 385.629818 363.784623 
L 385.832727 366.337194 
L 385.968 365.763541 
L 386.306182 361.944969 
L 387.456 347.823976 
L 387.929455 344.489744 
L 388.402909 341.395484 
L 388.673455 337.932005 
L 388.944 331.646038 
L 389.146909 320.829701 
L 389.214545 311.629561 
L 389.282182 278.727501 
L 389.349818 159.270404 
L 389.552727 343.526669 
L 389.755636 366.449818 
L 389.958545 369.085641 
L 390.093818 368.541151 
L 390.432 364.862331 
L 391.92 347.094843 
L 392.325818 343.811991 
L 393.002182 339.44931 
L 393.272727 334.481101 
L 393.475636 326.426114 
L 393.610909 311.071745 
L 393.746182 165.036468 
L 393.949091 346.830394 
L 394.152 368.018336 
L 394.354909 370.222735 
L 394.490182 369.620461 
L 394.828364 365.963458 
L 395.707636 356.087995 
L 397.263273 342.931767 
L 397.601455 336.888193 
L 397.872 327.286602 
L 398.007273 315.001397 
L 398.074909 294.187049 
L 398.142545 150.121329 
L 398.345455 341.486975 
L 398.548364 367.129083 
L 398.751273 369.465822 
L 398.886545 368.816164 
L 399.224727 365.038451 
L 400.239273 353.142143 
L 401.930182 336.48533 
L 402.200727 330.855221 
L 402.403636 321.465942 
L 402.538909 295.952106 
L 402.606545 161.655204 
L 402.674182 240.290723 
L 402.877091 351.112008 
L 403.08 365.367753 
L 403.215273 366.790067 
L 403.282909 366.779319 
L 403.418182 366.013549 
L 403.824 361.343366 
L 405.650182 339.280559 
L 406.056 334.903002 
L 406.326545 328.397928 
L 406.461818 320.914747 
L 406.529455 313.197989 
L 406.597091 292.476071 
L 406.664727 157.511207 
L 406.867636 337.59626 
L 407.070545 364.658255 
L 407.273455 367.744775 
L 407.408727 367.176217 
L 407.746909 363.320568 
L 408.693818 351.654944 
L 409.776 342.247479 
L 410.114182 336.594035 
L 410.384727 327.471289 
L 410.52 315.181042 
L 410.587636 293.783751 
L 410.655273 147.881526 
L 410.858182 341.059064 
L 411.061091 367.487372 
L 411.264 370.186344 
L 411.399273 369.615248 
L 411.737455 365.94933 
L 413.090182 350.305539 
L 414.645818 335.000717 
L 414.916364 326.633233 
L 415.051636 316.33761 
L 415.119273 302.325716 
L 415.186909 198.138738 
L 415.254545 210.950288 
L 415.457455 349.803065 
L 415.660364 366.343184 
L 415.795636 367.843953 
L 415.863273 367.810253 
L 416.066182 366.305499 
L 416.810182 356.792516 
L 417.486545 349.662895 
L 418.230545 342.588087 
L 418.771636 333.422647 
L 418.974545 327.111943 
L 419.109818 318.007082 
L 419.177455 307.186799 
L 419.312727 182.406715 
L 419.515636 345.662361 
L 419.718545 365.161788 
L 419.921455 367.160895 
L 420.056727 366.425286 
L 420.462545 361.538359 
L 421.341818 351.149531 
L 422.288727 340.677691 
L 422.559273 335.199077 
L 422.762182 327.624222 
L 422.897455 316.684285 
L 422.965091 301.406186 
L 423.032727 175.093064 
L 423.100364 218.865224 
L 423.303273 353.251622 
L 423.506182 368.952449 
L 423.641455 370.143472 
L 423.776727 369.522039 
L 424.114909 365.438003 
L 424.994182 354.774527 
L 426.685091 338.494434 
L 426.955636 332.395762 
L 427.158545 321.787114 
L 427.226182 313.082729 
L 427.293818 284.85663 
L 427.361455 153.829248 
L 427.564364 344.027564 
L 427.767273 367.455964 
L 427.970182 369.689956 
L 428.105455 368.982495 
L 428.443636 365.093233 
L 429.322909 354.828267 
L 429.931636 349.714955 
L 430.472727 345.521406 
L 430.675636 391.532731 
L 431.013818 411.401418 
L 431.622545 431.603491 
L 432.231273 445.66733 
L 432.704727 452.315919 
L 433.178182 456.245064 
L 433.719273 458.870721 
L 434.260364 460.473989 
L 434.869091 461.639244 
L 435.545455 462.479833 
L 436.289455 463.066816 
L 437.168727 463.477655 
L 438.318545 463.745923 
L 439.941818 463.868105 
L 442.647273 463.820579 
L 450.290182 463.571401 
L 474.165818 463.553076 
L 498.109091 463.554891 
L 498.109091 463.554891 
" clip-path="url(#p1c07a950b8)" style="fill: none; stroke: #000000; stroke-width: 1.5; stroke-linecap: square"/>
   </g>
   <g id="line2d_14">
    <path d="M 497.973818 408.87 
" clip-path="url(#p1c07a950b8)" style="fill: none; stroke: #000000; stroke-width: 1.5; stroke-linecap: square"/>
   </g>
   <g id="line2d_15">
    <path d="M 430.472727 368.1 
L 430.472727 365.382 
L 430.472727 362.664 
L 430.472727 359.946 
L 430.472727 357.228 
L 430.472727 354.51 
L 430.472727 351.792 
L 430.472727 349.074 
L 430.472727 346.356 
L 430.472727 343.638 
L 430.472727 340.92 
L 430.472727 338.202 
L 430.472727 335.484 
L 430.472727 332.766 
L 430.472727 330.048 
L 430.472727 327.33 
L 430.472727 324.612 
L 430.472727 321.894 
L 430.472727 319.176 
L 430.472727 316.458 
" clip-path="url(#p1c07a950b8)" style="fill: none; stroke: #000000; stroke-width: 1.5; stroke-linecap: square"/>
   </g>
   <g id="patch_3">
    <path d="M 72 504 
L 72 69.12 
" style="fill: none; stroke: #000000; stroke-width: 0.8; stroke-linejoin: miter; stroke-linecap: square"/>
   </g>
   <g id="patch_4">
    <path d="M 518.4 504 
L 518.4 69.12 
" style="fill: none; stroke: #000000; stroke-width: 0.8; stroke-linejoin: miter; stroke-linecap: square"/>
   </g>
   <g id="patch_5">
    <path d="M 72 504 
L 518.4 504 
" style="fill: none; stroke: #000000; stroke-width: 0.8; stroke-linejoin: miter; stroke-linecap: square"/>
   </g>
   <g id="patch_6">
    <path d="M 72 69.12 
L 518.4 69.12 
" style="fill: none; stroke: #000000; stroke-width: 0.8; stroke-linejoin: miter; stroke-linecap: square"/>
   </g>
   <g id="text_15">
    <!-- 500 ms -->
    <g transform="translate(497.973818 406.152)scale(0.22 -0.22)">
     <defs>
      <path id="ArialMT-35" d="M 266 1200 
L 856 1250 
Q 922 819 1161 601 
Q 1400 384 1738 384 
Q 2144 384 2425 690 
Q 2706 997 2706 1503 
Q 2706 1984 2436 2262 
Q 2166 2541 1728 2541 
Q 1456 2541 1237 2417 
Q 1019 2294 894 2097 
L 366 2166 
L 809 4519 
L 3088 4519 
L 3088 3981 
L 1259 3981 
L 1013 2750 
Q 1425 3038 1878 3038 
Q 2478 3038 2890 2622 
Q 3303 2206 3303 1553 
Q 3303 931 2941 478 
Q 2500 -78 1738 -78 
Q 1113 -78 717 272 
Q 322 622 266 1200 
z
" transform="scale(0.015625)"/>
      <path id="ArialMT-30" d="M 266 2259 
Q 266 3072 433 3567 
Q 600 4063 929 4331 
Q 1259 4600 1759 4600 
Q 2128 4600 2406 4451 
Q 2684 4303 2865 4023 
Q 3047 3744 3150 3342 
Q 3253 2941 3253 2259 
Q 3253 1453 3087 958 
Q 2922 463 2592 192 
Q 2263 -78 1759 -78 
Q 1097 -78 719 397 
Q 266 969 266 2259 
z
M 844 2259 
Q 844 1131 1108 757 
Q 1372 384 1759 384 
Q 2147 384 2411 759 
Q 2675 1134 2675 2259 
Q 2675 3391 2411 3762 
Q 2147 4134 1753 4134 
Q 1366 4134 1134 3806 
Q 844 3388 844 2259 
z
" transform="scale(0.015625)"/>
     </defs>
     <use xlink:href="#ArialMT-35"/>
     <use xlink:href="#ArialMT-30" x="55.615234"/>
     <use xlink:href="#ArialMT-30" x="111.230469"/>
     <use xlink:href="#ArialMT-20" x="166.845703"/>
     <use xlink:href="#ArialMT-6d" x="194.628906"/>
     <use xlink:href="#ArialMT-73" x="277.929688"/>
    </g>
   </g>
   <g id="text_16">
    <!-- 20 mV -->
    <g transform="translate(504.737455 321.894)scale(0.22 -0.22)">
     <defs>
      <path id="ArialMT-32" d="M 3222 541 
L 3222 0 
L 194 0 
Q 188 203 259 391 
Q 375 700 629 1000 
Q 884 1300 1366 1694 
Q 2113 2306 2375 2664 
Q 2638 3022 2638 3341 
Q 2638 3675 2398 3904 
Q 2159 4134 1775 4134 
Q 1369 4134 1125 3890 
Q 881 3647 878 3216 
L 300 3275 
Q 359 3922 746 4261 
Q 1134 4600 1788 4600 
Q 2447 4600 2831 4234 
Q 3216 3869 3216 3328 
Q 3216 3053 3103 2787 
Q 2991 2522 2730 2228 
Q 2469 1934 1863 1422 
Q 1356 997 1212 845 
Q 1069 694 975 541 
L 3222 541 
z
" transform="scale(0.015625)"/>
     </defs>
     <use xlink:href="#ArialMT-32"/>
     <use xlink:href="#ArialMT-30" x="55.615234"/>
     <use xlink:href="#ArialMT-20" x="111.230469"/>
     <use xlink:href="#ArialMT-6d" x="139.013672"/>
     <use xlink:href="#ArialMT-56" x="222.314453"/>
    </g>
   </g>
   <g id="text_17">
    <!--  Plotting dSPN, trace number 15278  -->
    <g transform="translate(116.052969 63.12)scale(0.22 -0.22)">
     <defs>
      <path id="ArialMT-50" d="M 494 0 
L 494 4581 
L 2222 4581 
Q 2678 4581 2919 4538 
Q 3256 4481 3484 4323 
Q 3713 4166 3852 3881 
Q 3991 3597 3991 3256 
Q 3991 2672 3619 2267 
Q 3247 1863 2275 1863 
L 1100 1863 
L 1100 0 
L 494 0 
z
M 1100 2403 
L 2284 2403 
Q 2872 2403 3119 2622 
Q 3366 2841 3366 3238 
Q 3366 3525 3220 3729 
Q 3075 3934 2838 4000 
Q 2684 4041 2272 4041 
L 1100 4041 
L 1100 2403 
z
" transform="scale(0.015625)"/>
      <path id="ArialMT-67" d="M 319 -275 
L 866 -356 
Q 900 -609 1056 -725 
Q 1266 -881 1628 -881 
Q 2019 -881 2231 -725 
Q 2444 -569 2519 -288 
Q 2563 -116 2559 434 
Q 2191 0 1641 0 
Q 956 0 581 494 
Q 206 988 206 1678 
Q 206 2153 378 2554 
Q 550 2956 876 3175 
Q 1203 3394 1644 3394 
Q 2231 3394 2613 2919 
L 2613 3319 
L 3131 3319 
L 3131 450 
Q 3131 -325 2973 -648 
Q 2816 -972 2473 -1159 
Q 2131 -1347 1631 -1347 
Q 1038 -1347 672 -1080 
Q 306 -813 319 -275 
z
M 784 1719 
Q 784 1066 1043 766 
Q 1303 466 1694 466 
Q 2081 466 2343 764 
Q 2606 1063 2606 1700 
Q 2606 2309 2336 2618 
Q 2066 2928 1684 2928 
Q 1309 2928 1046 2623 
Q 784 2319 784 1719 
z
" transform="scale(0.015625)"/>
      <path id="ArialMT-64" d="M 2575 0 
L 2575 419 
Q 2259 -75 1647 -75 
Q 1250 -75 917 144 
Q 584 363 401 755 
Q 219 1147 219 1656 
Q 219 2153 384 2558 
Q 550 2963 881 3178 
Q 1213 3394 1622 3394 
Q 1922 3394 2156 3267 
Q 2391 3141 2538 2938 
L 2538 4581 
L 3097 4581 
L 3097 0 
L 2575 0 
z
M 797 1656 
Q 797 1019 1065 703 
Q 1334 388 1700 388 
Q 2069 388 2326 689 
Q 2584 991 2584 1609 
Q 2584 2291 2321 2609 
Q 2059 2928 1675 2928 
Q 1300 2928 1048 2622 
Q 797 2316 797 1656 
z
" transform="scale(0.015625)"/>
      <path id="ArialMT-53" d="M 288 1472 
L 859 1522 
Q 900 1178 1048 958 
Q 1197 738 1509 602 
Q 1822 466 2213 466 
Q 2559 466 2825 569 
Q 3091 672 3220 851 
Q 3350 1031 3350 1244 
Q 3350 1459 3225 1620 
Q 3100 1781 2813 1891 
Q 2628 1963 1997 2114 
Q 1366 2266 1113 2400 
Q 784 2572 623 2826 
Q 463 3081 463 3397 
Q 463 3744 659 4045 
Q 856 4347 1234 4503 
Q 1613 4659 2075 4659 
Q 2584 4659 2973 4495 
Q 3363 4331 3572 4012 
Q 3781 3694 3797 3291 
L 3216 3247 
Q 3169 3681 2898 3903 
Q 2628 4125 2100 4125 
Q 1550 4125 1298 3923 
Q 1047 3722 1047 3438 
Q 1047 3191 1225 3031 
Q 1400 2872 2139 2705 
Q 2878 2538 3153 2413 
Q 3553 2228 3743 1945 
Q 3934 1663 3934 1294 
Q 3934 928 3725 604 
Q 3516 281 3123 101 
Q 2731 -78 2241 -78 
Q 1619 -78 1198 103 
Q 778 284 539 648 
Q 300 1013 288 1472 
z
" transform="scale(0.015625)"/>
      <path id="ArialMT-4e" d="M 488 0 
L 488 4581 
L 1109 4581 
L 3516 984 
L 3516 4581 
L 4097 4581 
L 4097 0 
L 3475 0 
L 1069 3600 
L 1069 0 
L 488 0 
z
" transform="scale(0.015625)"/>
      <path id="ArialMT-2c" d="M 569 0 
L 569 641 
L 1209 641 
L 1209 0 
Q 1209 -353 1084 -570 
Q 959 -788 688 -906 
L 531 -666 
Q 709 -588 793 -436 
Q 878 -284 888 0 
L 569 0 
z
" transform="scale(0.015625)"/>
      <path id="ArialMT-63" d="M 2588 1216 
L 3141 1144 
Q 3050 572 2676 248 
Q 2303 -75 1759 -75 
Q 1078 -75 664 370 
Q 250 816 250 1647 
Q 250 2184 428 2587 
Q 606 2991 970 3192 
Q 1334 3394 1763 3394 
Q 2303 3394 2647 3120 
Q 2991 2847 3088 2344 
L 2541 2259 
Q 2463 2594 2264 2762 
Q 2066 2931 1784 2931 
Q 1359 2931 1093 2626 
Q 828 2322 828 1663 
Q 828 994 1084 691 
Q 1341 388 1753 388 
Q 2084 388 2306 591 
Q 2528 794 2588 1216 
z
" transform="scale(0.015625)"/>
      <path id="ArialMT-75" d="M 2597 0 
L 2597 488 
Q 2209 -75 1544 -75 
Q 1250 -75 995 37 
Q 741 150 617 320 
Q 494 491 444 738 
Q 409 903 409 1263 
L 409 3319 
L 972 3319 
L 972 1478 
Q 972 1038 1006 884 
Q 1059 663 1231 536 
Q 1403 409 1656 409 
Q 1909 409 2131 539 
Q 2353 669 2445 892 
Q 2538 1116 2538 1541 
L 2538 3319 
L 3100 3319 
L 3100 0 
L 2597 0 
z
" transform="scale(0.015625)"/>
      <path id="ArialMT-31" d="M 2384 0 
L 1822 0 
L 1822 3584 
Q 1619 3391 1289 3197 
Q 959 3003 697 2906 
L 697 3450 
Q 1169 3672 1522 3987 
Q 1875 4303 2022 4600 
L 2384 4600 
L 2384 0 
z
" transform="scale(0.015625)"/>
      <path id="ArialMT-37" d="M 303 3981 
L 303 4522 
L 3269 4522 
L 3269 4084 
Q 2831 3619 2401 2847 
Q 1972 2075 1738 1259 
Q 1569 684 1522 0 
L 944 0 
Q 953 541 1156 1306 
Q 1359 2072 1739 2783 
Q 2119 3494 2547 3981 
L 303 3981 
z
" transform="scale(0.015625)"/>
      <path id="ArialMT-38" d="M 1131 2484 
Q 781 2613 612 2850 
Q 444 3088 444 3419 
Q 444 3919 803 4259 
Q 1163 4600 1759 4600 
Q 2359 4600 2725 4251 
Q 3091 3903 3091 3403 
Q 3091 3084 2923 2848 
Q 2756 2613 2416 2484 
Q 2838 2347 3058 2040 
Q 3278 1734 3278 1309 
Q 3278 722 2862 322 
Q 2447 -78 1769 -78 
Q 1091 -78 675 323 
Q 259 725 259 1325 
Q 259 1772 486 2073 
Q 713 2375 1131 2484 
z
M 1019 3438 
Q 1019 3113 1228 2906 
Q 1438 2700 1772 2700 
Q 2097 2700 2305 2904 
Q 2513 3109 2513 3406 
Q 2513 3716 2298 3927 
Q 2084 4138 1766 4138 
Q 1444 4138 1231 3931 
Q 1019 3725 1019 3438 
z
M 838 1322 
Q 838 1081 952 856 
Q 1066 631 1291 507 
Q 1516 384 1775 384 
Q 2178 384 2440 643 
Q 2703 903 2703 1303 
Q 2703 1709 2433 1975 
Q 2163 2241 1756 2241 
Q 1359 2241 1098 1978 
Q 838 1716 838 1322 
z
" transform="scale(0.015625)"/>
     </defs>
     <use xlink:href="#ArialMT-20"/>
     <use xlink:href="#ArialMT-50" x="27.783203"/>
     <use xlink:href="#ArialMT-6c" x="94.482422"/>
     <use xlink:href="#ArialMT-6f" x="116.699219"/>
     <use xlink:href="#ArialMT-74" x="172.314453"/>
     <use xlink:href="#ArialMT-74" x="200.097656"/>
     <use xlink:href="#ArialMT-69" x="227.880859"/>
     <use xlink:href="#ArialMT-6e" x="250.097656"/>
     <use xlink:href="#ArialMT-67" x="305.712891"/>
     <use xlink:href="#ArialMT-20" x="361.328125"/>
     <use xlink:href="#ArialMT-64" x="389.111328"/>
     <use xlink:href="#ArialMT-53" x="444.726562"/>
     <use xlink:href="#ArialMT-50" x="511.425781"/>
     <use xlink:href="#ArialMT-4e" x="578.125"/>
     <use xlink:href="#ArialMT-2c" x="650.341797"/>
     <use xlink:href="#ArialMT-20" x="678.125"/>
     <use xlink:href="#ArialMT-74" x="705.908203"/>
     <use xlink:href="#ArialMT-72" x="733.691406"/>
     <use xlink:href="#ArialMT-61" x="766.992188"/>
     <use xlink:href="#ArialMT-63" x="822.607422"/>
     <use xlink:href="#ArialMT-65" x="872.607422"/>
     <use xlink:href="#ArialMT-20" x="928.222656"/>
     <use xlink:href="#ArialMT-6e" x="956.005859"/>
     <use xlink:href="#ArialMT-75" x="1011.621094"/>
     <use xlink:href="#ArialMT-6d" x="1067.236328"/>
     <use xlink:href="#ArialMT-62" x="1150.537109"/>
     <use xlink:href="#ArialMT-65" x="1206.152344"/>
     <use xlink:href="#ArialMT-72" x="1261.767578"/>
     <use xlink:href="#ArialMT-20" x="1295.068359"/>
     <use xlink:href="#ArialMT-31" x="1322.851562"/>
     <use xlink:href="#ArialMT-35" x="1378.466797"/>
     <use xlink:href="#ArialMT-32" x="1434.082031"/>
     <use xlink:href="#ArialMT-37" x="1489.697266"/>
     <use xlink:href="#ArialMT-38" x="1545.3125"/>
     <use xlink:href="#ArialMT-20" x="1600.927734"/>
    </g>
   </g>
  </g>
 </g>
 <defs>
  <clipPath id="p1c07a950b8">
   <rect x="72" y="69.12" width="446.4" height="434.88"/>
  </clipPath>
 </defs>
</svg>
