<?xml version="1.0" encoding="utf-8" standalone="no"?>
<!DOCTYPE svg PUBLIC "-//W3C//DTD SVG 1.1//EN"
  "http://www.w3.org/Graphics/SVG/1.1/DTD/svg11.dtd">
<svg xmlns:xlink="http://www.w3.org/1999/xlink" width="576pt" height="576pt" viewBox="0 0 576 576" xmlns="http://www.w3.org/2000/svg" version="1.1">
 <metadata>
  <rdf:RDF xmlns:dc="http://purl.org/dc/elements/1.1/" xmlns:cc="http://creativecommons.org/ns#" xmlns:rdf="http://www.w3.org/1999/02/22-rdf-syntax-ns#">
   <cc:Work>
    <dc:type rdf:resource="http://purl.org/dc/dcmitype/StillImage"/>
    <dc:date>2022-10-30T19:57:03.769383</dc:date>
    <dc:format>image/svg+xml</dc:format>
    <dc:creator>
     <cc:Agent>
      <dc:title>Matplotlib v3.5.2, https://matplotlib.org/</dc:title>
     </cc:Agent>
    </dc:creator>
   </cc:Work>
  </rdf:RDF>
 </metadata>
 <defs>
  <style type="text/css">*{stroke-linejoin: round; stroke-linecap: butt}</style>
 </defs>
 <g id="figure_1">
  <g id="patch_1">
   <path d="M 0 576 
L 576 576 
L 576 0 
L 0 0 
L 0 576 
z
" style="fill: none"/>
  </g>
  <g id="axes_1">
   <g id="patch_2">
    <path d="M 72 504 
L 518.4 504 
L 518.4 69.12 
L 72 69.12 
z
" style="fill: #ffffff"/>
   </g>
   <g id="matplotlib.axis_1">
    <g id="xtick_1">
     <g id="line2d_1">
      <defs>
       <path id="mdc29467025" d="M 0 0 
L 0 3.5 
" style="stroke: #000000; stroke-width: 0.8"/>
      </defs>
      <g>
       <use xlink:href="#mdc29467025" x="92.290909" y="504" style="stroke: #000000; stroke-width: 0.8"/>
      </g>
     </g>
     <g id="text_1">
      <!-- 0 -->
      <g transform="translate(85.292159 527.716563)scale(0.22 -0.22)">
       <defs>
        <path id="DejaVuSans-30" d="M 2034 4250 
Q 1547 4250 1301 3770 
Q 1056 3291 1056 2328 
Q 1056 1369 1301 889 
Q 1547 409 2034 409 
Q 2525 409 2770 889 
Q 3016 1369 3016 2328 
Q 3016 3291 2770 3770 
Q 2525 4250 2034 4250 
z
M 2034 4750 
Q 2819 4750 3233 4129 
Q 3647 3509 3647 2328 
Q 3647 1150 3233 529 
Q 2819 -91 2034 -91 
Q 1250 -91 836 529 
Q 422 1150 422 2328 
Q 422 3509 836 4129 
Q 1250 4750 2034 4750 
z
" transform="scale(0.015625)"/>
       </defs>
       <use xlink:href="#DejaVuSans-30"/>
      </g>
     </g>
    </g>
    <g id="xtick_2">
     <g id="line2d_2">
      <g>
       <use xlink:href="#mdc29467025" x="227.563636" y="504" style="stroke: #000000; stroke-width: 0.8"/>
      </g>
     </g>
     <g id="text_2">
      <!-- 1000 -->
      <g transform="translate(199.568636 527.716563)scale(0.22 -0.22)">
       <defs>
        <path id="DejaVuSans-31" d="M 794 531 
L 1825 531 
L 1825 4091 
L 703 3866 
L 703 4441 
L 1819 4666 
L 2450 4666 
L 2450 531 
L 3481 531 
L 3481 0 
L 794 0 
L 794 531 
z
" transform="scale(0.015625)"/>
       </defs>
       <use xlink:href="#DejaVuSans-31"/>
       <use xlink:href="#DejaVuSans-30" x="63.623047"/>
       <use xlink:href="#DejaVuSans-30" x="127.246094"/>
       <use xlink:href="#DejaVuSans-30" x="190.869141"/>
      </g>
     </g>
    </g>
    <g id="xtick_3">
     <g id="line2d_3">
      <g>
       <use xlink:href="#mdc29467025" x="362.836364" y="504" style="stroke: #000000; stroke-width: 0.8"/>
      </g>
     </g>
     <g id="text_3">
      <!-- 2000 -->
      <g transform="translate(334.841364 527.716563)scale(0.22 -0.22)">
       <defs>
        <path id="DejaVuSans-32" d="M 1228 531 
L 3431 531 
L 3431 0 
L 469 0 
L 469 531 
Q 828 903 1448 1529 
Q 2069 2156 2228 2338 
Q 2531 2678 2651 2914 
Q 2772 3150 2772 3378 
Q 2772 3750 2511 3984 
Q 2250 4219 1831 4219 
Q 1534 4219 1204 4116 
Q 875 4013 500 3803 
L 500 4441 
Q 881 4594 1212 4672 
Q 1544 4750 1819 4750 
Q 2544 4750 2975 4387 
Q 3406 4025 3406 3419 
Q 3406 3131 3298 2873 
Q 3191 2616 2906 2266 
Q 2828 2175 2409 1742 
Q 1991 1309 1228 531 
z
" transform="scale(0.015625)"/>
       </defs>
       <use xlink:href="#DejaVuSans-32"/>
       <use xlink:href="#DejaVuSans-30" x="63.623047"/>
       <use xlink:href="#DejaVuSans-30" x="127.246094"/>
       <use xlink:href="#DejaVuSans-30" x="190.869141"/>
      </g>
     </g>
    </g>
    <g id="xtick_4">
     <g id="line2d_4">
      <g>
       <use xlink:href="#mdc29467025" x="498.109091" y="504" style="stroke: #000000; stroke-width: 0.8"/>
      </g>
     </g>
     <g id="text_4">
      <!-- 3000 -->
      <g transform="translate(470.114091 527.716563)scale(0.22 -0.22)">
       <defs>
        <path id="DejaVuSans-33" d="M 2597 2516 
Q 3050 2419 3304 2112 
Q 3559 1806 3559 1356 
Q 3559 666 3084 287 
Q 2609 -91 1734 -91 
Q 1441 -91 1130 -33 
Q 819 25 488 141 
L 488 750 
Q 750 597 1062 519 
Q 1375 441 1716 441 
Q 2309 441 2620 675 
Q 2931 909 2931 1356 
Q 2931 1769 2642 2001 
Q 2353 2234 1838 2234 
L 1294 2234 
L 1294 2753 
L 1863 2753 
Q 2328 2753 2575 2939 
Q 2822 3125 2822 3475 
Q 2822 3834 2567 4026 
Q 2313 4219 1838 4219 
Q 1578 4219 1281 4162 
Q 984 4106 628 3988 
L 628 4550 
Q 988 4650 1302 4700 
Q 1616 4750 1894 4750 
Q 2613 4750 3031 4423 
Q 3450 4097 3450 3541 
Q 3450 3153 3228 2886 
Q 3006 2619 2597 2516 
z
" transform="scale(0.015625)"/>
       </defs>
       <use xlink:href="#DejaVuSans-33"/>
       <use xlink:href="#DejaVuSans-30" x="63.623047"/>
       <use xlink:href="#DejaVuSans-30" x="127.246094"/>
       <use xlink:href="#DejaVuSans-30" x="190.869141"/>
      </g>
     </g>
    </g>
    <g id="text_5">
     <!-- Time(ms) -->
     <g transform="translate(249.182187 552.307188)scale(0.22 -0.22)">
      <defs>
       <path id="ArialMT-54" d="M 1659 0 
L 1659 4041 
L 150 4041 
L 150 4581 
L 3781 4581 
L 3781 4041 
L 2266 4041 
L 2266 0 
L 1659 0 
z
" transform="scale(0.015625)"/>
       <path id="ArialMT-69" d="M 425 3934 
L 425 4581 
L 988 4581 
L 988 3934 
L 425 3934 
z
M 425 0 
L 425 3319 
L 988 3319 
L 988 0 
L 425 0 
z
" transform="scale(0.015625)"/>
       <path id="ArialMT-6d" d="M 422 0 
L 422 3319 
L 925 3319 
L 925 2853 
Q 1081 3097 1340 3245 
Q 1600 3394 1931 3394 
Q 2300 3394 2536 3241 
Q 2772 3088 2869 2813 
Q 3263 3394 3894 3394 
Q 4388 3394 4653 3120 
Q 4919 2847 4919 2278 
L 4919 0 
L 4359 0 
L 4359 2091 
Q 4359 2428 4304 2576 
Q 4250 2725 4106 2815 
Q 3963 2906 3769 2906 
Q 3419 2906 3187 2673 
Q 2956 2441 2956 1928 
L 2956 0 
L 2394 0 
L 2394 2156 
Q 2394 2531 2256 2718 
Q 2119 2906 1806 2906 
Q 1569 2906 1367 2781 
Q 1166 2656 1075 2415 
Q 984 2175 984 1722 
L 984 0 
L 422 0 
z
" transform="scale(0.015625)"/>
       <path id="ArialMT-65" d="M 2694 1069 
L 3275 997 
Q 3138 488 2766 206 
Q 2394 -75 1816 -75 
Q 1088 -75 661 373 
Q 234 822 234 1631 
Q 234 2469 665 2931 
Q 1097 3394 1784 3394 
Q 2450 3394 2872 2941 
Q 3294 2488 3294 1666 
Q 3294 1616 3291 1516 
L 816 1516 
Q 847 969 1125 678 
Q 1403 388 1819 388 
Q 2128 388 2347 550 
Q 2566 713 2694 1069 
z
M 847 1978 
L 2700 1978 
Q 2663 2397 2488 2606 
Q 2219 2931 1791 2931 
Q 1403 2931 1139 2672 
Q 875 2413 847 1978 
z
" transform="scale(0.015625)"/>
       <path id="ArialMT-28" d="M 1497 -1347 
Q 1031 -759 709 28 
Q 388 816 388 1659 
Q 388 2403 628 3084 
Q 909 3875 1497 4659 
L 1900 4659 
Q 1522 4009 1400 3731 
Q 1209 3300 1100 2831 
Q 966 2247 966 1656 
Q 966 153 1900 -1347 
L 1497 -1347 
z
" transform="scale(0.015625)"/>
       <path id="ArialMT-73" d="M 197 991 
L 753 1078 
Q 800 744 1014 566 
Q 1228 388 1613 388 
Q 2000 388 2187 545 
Q 2375 703 2375 916 
Q 2375 1106 2209 1216 
Q 2094 1291 1634 1406 
Q 1016 1563 777 1677 
Q 538 1791 414 1992 
Q 291 2194 291 2438 
Q 291 2659 392 2848 
Q 494 3038 669 3163 
Q 800 3259 1026 3326 
Q 1253 3394 1513 3394 
Q 1903 3394 2198 3281 
Q 2494 3169 2634 2976 
Q 2775 2784 2828 2463 
L 2278 2388 
Q 2241 2644 2061 2787 
Q 1881 2931 1553 2931 
Q 1166 2931 1000 2803 
Q 834 2675 834 2503 
Q 834 2394 903 2306 
Q 972 2216 1119 2156 
Q 1203 2125 1616 2013 
Q 2213 1853 2448 1751 
Q 2684 1650 2818 1456 
Q 2953 1263 2953 975 
Q 2953 694 2789 445 
Q 2625 197 2315 61 
Q 2006 -75 1616 -75 
Q 969 -75 630 194 
Q 291 463 197 991 
z
" transform="scale(0.015625)"/>
       <path id="ArialMT-29" d="M 791 -1347 
L 388 -1347 
Q 1322 153 1322 1656 
Q 1322 2244 1188 2822 
Q 1081 3291 891 3722 
Q 769 4003 388 4659 
L 791 4659 
Q 1378 3875 1659 3084 
Q 1900 2403 1900 1659 
Q 1900 816 1576 28 
Q 1253 -759 791 -1347 
z
" transform="scale(0.015625)"/>
      </defs>
      <use xlink:href="#ArialMT-54"/>
      <use xlink:href="#ArialMT-69" x="57.333984"/>
      <use xlink:href="#ArialMT-6d" x="79.550781"/>
      <use xlink:href="#ArialMT-65" x="162.851562"/>
      <use xlink:href="#ArialMT-28" x="218.466797"/>
      <use xlink:href="#ArialMT-6d" x="251.767578"/>
      <use xlink:href="#ArialMT-73" x="335.068359"/>
      <use xlink:href="#ArialMT-29" x="385.068359"/>
     </g>
    </g>
   </g>
   <g id="matplotlib.axis_2">
    <g id="ytick_1">
     <g id="line2d_5">
      <defs>
       <path id="mc623de86ed" d="M 0 0 
L -3.5 0 
" style="stroke: #000000; stroke-width: 0.8"/>
      </defs>
      <g>
       <use xlink:href="#mc623de86ed" x="72" y="476.82" style="stroke: #000000; stroke-width: 0.8"/>
      </g>
     </g>
     <g id="text_6">
      <!-- −100 -->
      <g transform="translate(4.572187 485.178281)scale(0.22 -0.22)">
       <defs>
        <path id="DejaVuSans-2212" d="M 678 2272 
L 4684 2272 
L 4684 1741 
L 678 1741 
L 678 2272 
z
" transform="scale(0.015625)"/>
       </defs>
       <use xlink:href="#DejaVuSans-2212"/>
       <use xlink:href="#DejaVuSans-31" x="83.789062"/>
       <use xlink:href="#DejaVuSans-30" x="147.412109"/>
       <use xlink:href="#DejaVuSans-30" x="211.035156"/>
      </g>
     </g>
    </g>
    <g id="ytick_2">
     <g id="line2d_6">
      <g>
       <use xlink:href="#mc623de86ed" x="72" y="422.46" style="stroke: #000000; stroke-width: 0.8"/>
      </g>
     </g>
     <g id="text_7">
      <!-- −80 -->
      <g transform="translate(18.569688 430.818281)scale(0.22 -0.22)">
       <defs>
        <path id="DejaVuSans-38" d="M 2034 2216 
Q 1584 2216 1326 1975 
Q 1069 1734 1069 1313 
Q 1069 891 1326 650 
Q 1584 409 2034 409 
Q 2484 409 2743 651 
Q 3003 894 3003 1313 
Q 3003 1734 2745 1975 
Q 2488 2216 2034 2216 
z
M 1403 2484 
Q 997 2584 770 2862 
Q 544 3141 544 3541 
Q 544 4100 942 4425 
Q 1341 4750 2034 4750 
Q 2731 4750 3128 4425 
Q 3525 4100 3525 3541 
Q 3525 3141 3298 2862 
Q 3072 2584 2669 2484 
Q 3125 2378 3379 2068 
Q 3634 1759 3634 1313 
Q 3634 634 3220 271 
Q 2806 -91 2034 -91 
Q 1263 -91 848 271 
Q 434 634 434 1313 
Q 434 1759 690 2068 
Q 947 2378 1403 2484 
z
M 1172 3481 
Q 1172 3119 1398 2916 
Q 1625 2713 2034 2713 
Q 2441 2713 2670 2916 
Q 2900 3119 2900 3481 
Q 2900 3844 2670 4047 
Q 2441 4250 2034 4250 
Q 1625 4250 1398 4047 
Q 1172 3844 1172 3481 
z
" transform="scale(0.015625)"/>
       </defs>
       <use xlink:href="#DejaVuSans-2212"/>
       <use xlink:href="#DejaVuSans-38" x="83.789062"/>
       <use xlink:href="#DejaVuSans-30" x="147.412109"/>
      </g>
     </g>
    </g>
    <g id="ytick_3">
     <g id="line2d_7">
      <g>
       <use xlink:href="#mc623de86ed" x="72" y="368.1" style="stroke: #000000; stroke-width: 0.8"/>
      </g>
     </g>
     <g id="text_8">
      <!-- −60 -->
      <g transform="translate(18.569688 376.458281)scale(0.22 -0.22)">
       <defs>
        <path id="DejaVuSans-36" d="M 2113 2584 
Q 1688 2584 1439 2293 
Q 1191 2003 1191 1497 
Q 1191 994 1439 701 
Q 1688 409 2113 409 
Q 2538 409 2786 701 
Q 3034 994 3034 1497 
Q 3034 2003 2786 2293 
Q 2538 2584 2113 2584 
z
M 3366 4563 
L 3366 3988 
Q 3128 4100 2886 4159 
Q 2644 4219 2406 4219 
Q 1781 4219 1451 3797 
Q 1122 3375 1075 2522 
Q 1259 2794 1537 2939 
Q 1816 3084 2150 3084 
Q 2853 3084 3261 2657 
Q 3669 2231 3669 1497 
Q 3669 778 3244 343 
Q 2819 -91 2113 -91 
Q 1303 -91 875 529 
Q 447 1150 447 2328 
Q 447 3434 972 4092 
Q 1497 4750 2381 4750 
Q 2619 4750 2861 4703 
Q 3103 4656 3366 4563 
z
" transform="scale(0.015625)"/>
       </defs>
       <use xlink:href="#DejaVuSans-2212"/>
       <use xlink:href="#DejaVuSans-36" x="83.789062"/>
       <use xlink:href="#DejaVuSans-30" x="147.412109"/>
      </g>
     </g>
    </g>
    <g id="ytick_4">
     <g id="line2d_8">
      <g>
       <use xlink:href="#mc623de86ed" x="72" y="313.74" style="stroke: #000000; stroke-width: 0.8"/>
      </g>
     </g>
     <g id="text_9">
      <!-- −40 -->
      <g transform="translate(18.569688 322.098281)scale(0.22 -0.22)">
       <defs>
        <path id="DejaVuSans-34" d="M 2419 4116 
L 825 1625 
L 2419 1625 
L 2419 4116 
z
M 2253 4666 
L 3047 4666 
L 3047 1625 
L 3713 1625 
L 3713 1100 
L 3047 1100 
L 3047 0 
L 2419 0 
L 2419 1100 
L 313 1100 
L 313 1709 
L 2253 4666 
z
" transform="scale(0.015625)"/>
       </defs>
       <use xlink:href="#DejaVuSans-2212"/>
       <use xlink:href="#DejaVuSans-34" x="83.789062"/>
       <use xlink:href="#DejaVuSans-30" x="147.412109"/>
      </g>
     </g>
    </g>
    <g id="ytick_5">
     <g id="line2d_9">
      <g>
       <use xlink:href="#mc623de86ed" x="72" y="259.38" style="stroke: #000000; stroke-width: 0.8"/>
      </g>
     </g>
     <g id="text_10">
      <!-- −20 -->
      <g transform="translate(18.569688 267.738281)scale(0.22 -0.22)">
       <use xlink:href="#DejaVuSans-2212"/>
       <use xlink:href="#DejaVuSans-32" x="83.789062"/>
       <use xlink:href="#DejaVuSans-30" x="147.412109"/>
      </g>
     </g>
    </g>
    <g id="ytick_6">
     <g id="line2d_10">
      <g>
       <use xlink:href="#mc623de86ed" x="72" y="205.02" style="stroke: #000000; stroke-width: 0.8"/>
      </g>
     </g>
     <g id="text_11">
      <!-- 0 -->
      <g transform="translate(51.0025 213.378281)scale(0.22 -0.22)">
       <use xlink:href="#DejaVuSans-30"/>
      </g>
     </g>
    </g>
    <g id="ytick_7">
     <g id="line2d_11">
      <g>
       <use xlink:href="#mc623de86ed" x="72" y="150.66" style="stroke: #000000; stroke-width: 0.8"/>
      </g>
     </g>
     <g id="text_12">
      <!-- 20 -->
      <g transform="translate(37.005 159.018281)scale(0.22 -0.22)">
       <use xlink:href="#DejaVuSans-32"/>
       <use xlink:href="#DejaVuSans-30" x="63.623047"/>
      </g>
     </g>
    </g>
    <g id="ytick_8">
     <g id="line2d_12">
      <g>
       <use xlink:href="#mc623de86ed" x="72" y="96.3" style="stroke: #000000; stroke-width: 0.8"/>
      </g>
     </g>
     <g id="text_13">
      <!-- 40 -->
      <g transform="translate(37.005 104.658281)scale(0.22 -0.22)">
       <use xlink:href="#DejaVuSans-34"/>
       <use xlink:href="#DejaVuSans-30" x="63.623047"/>
      </g>
     </g>
    </g>
    <g id="text_14">
     <!-- Membrane potential (mV) -->
     <g transform="translate(-4.058125 410.655469)rotate(-90)scale(0.22 -0.22)">
      <defs>
       <path id="ArialMT-4d" d="M 475 0 
L 475 4581 
L 1388 4581 
L 2472 1338 
Q 2622 884 2691 659 
Q 2769 909 2934 1394 
L 4031 4581 
L 4847 4581 
L 4847 0 
L 4263 0 
L 4263 3834 
L 2931 0 
L 2384 0 
L 1059 3900 
L 1059 0 
L 475 0 
z
" transform="scale(0.015625)"/>
       <path id="ArialMT-62" d="M 941 0 
L 419 0 
L 419 4581 
L 981 4581 
L 981 2947 
Q 1338 3394 1891 3394 
Q 2197 3394 2470 3270 
Q 2744 3147 2920 2923 
Q 3097 2700 3197 2384 
Q 3297 2069 3297 1709 
Q 3297 856 2875 390 
Q 2453 -75 1863 -75 
Q 1275 -75 941 416 
L 941 0 
z
M 934 1684 
Q 934 1088 1097 822 
Q 1363 388 1816 388 
Q 2184 388 2453 708 
Q 2722 1028 2722 1663 
Q 2722 2313 2464 2622 
Q 2206 2931 1841 2931 
Q 1472 2931 1203 2611 
Q 934 2291 934 1684 
z
" transform="scale(0.015625)"/>
       <path id="ArialMT-72" d="M 416 0 
L 416 3319 
L 922 3319 
L 922 2816 
Q 1116 3169 1280 3281 
Q 1444 3394 1641 3394 
Q 1925 3394 2219 3213 
L 2025 2691 
Q 1819 2813 1613 2813 
Q 1428 2813 1281 2702 
Q 1134 2591 1072 2394 
Q 978 2094 978 1738 
L 978 0 
L 416 0 
z
" transform="scale(0.015625)"/>
       <path id="ArialMT-61" d="M 2588 409 
Q 2275 144 1986 34 
Q 1697 -75 1366 -75 
Q 819 -75 525 192 
Q 231 459 231 875 
Q 231 1119 342 1320 
Q 453 1522 633 1644 
Q 813 1766 1038 1828 
Q 1203 1872 1538 1913 
Q 2219 1994 2541 2106 
Q 2544 2222 2544 2253 
Q 2544 2597 2384 2738 
Q 2169 2928 1744 2928 
Q 1347 2928 1158 2789 
Q 969 2650 878 2297 
L 328 2372 
Q 403 2725 575 2942 
Q 747 3159 1072 3276 
Q 1397 3394 1825 3394 
Q 2250 3394 2515 3294 
Q 2781 3194 2906 3042 
Q 3031 2891 3081 2659 
Q 3109 2516 3109 2141 
L 3109 1391 
Q 3109 606 3145 398 
Q 3181 191 3288 0 
L 2700 0 
Q 2613 175 2588 409 
z
M 2541 1666 
Q 2234 1541 1622 1453 
Q 1275 1403 1131 1340 
Q 988 1278 909 1158 
Q 831 1038 831 891 
Q 831 666 1001 516 
Q 1172 366 1500 366 
Q 1825 366 2078 508 
Q 2331 650 2450 897 
Q 2541 1088 2541 1459 
L 2541 1666 
z
" transform="scale(0.015625)"/>
       <path id="ArialMT-6e" d="M 422 0 
L 422 3319 
L 928 3319 
L 928 2847 
Q 1294 3394 1984 3394 
Q 2284 3394 2536 3286 
Q 2788 3178 2913 3003 
Q 3038 2828 3088 2588 
Q 3119 2431 3119 2041 
L 3119 0 
L 2556 0 
L 2556 2019 
Q 2556 2363 2490 2533 
Q 2425 2703 2258 2804 
Q 2091 2906 1866 2906 
Q 1506 2906 1245 2678 
Q 984 2450 984 1813 
L 984 0 
L 422 0 
z
" transform="scale(0.015625)"/>
       <path id="ArialMT-20" transform="scale(0.015625)"/>
       <path id="ArialMT-70" d="M 422 -1272 
L 422 3319 
L 934 3319 
L 934 2888 
Q 1116 3141 1344 3267 
Q 1572 3394 1897 3394 
Q 2322 3394 2647 3175 
Q 2972 2956 3137 2557 
Q 3303 2159 3303 1684 
Q 3303 1175 3120 767 
Q 2938 359 2589 142 
Q 2241 -75 1856 -75 
Q 1575 -75 1351 44 
Q 1128 163 984 344 
L 984 -1272 
L 422 -1272 
z
M 931 1641 
Q 931 1000 1190 694 
Q 1450 388 1819 388 
Q 2194 388 2461 705 
Q 2728 1022 2728 1688 
Q 2728 2322 2467 2637 
Q 2206 2953 1844 2953 
Q 1484 2953 1207 2617 
Q 931 2281 931 1641 
z
" transform="scale(0.015625)"/>
       <path id="ArialMT-6f" d="M 213 1659 
Q 213 2581 725 3025 
Q 1153 3394 1769 3394 
Q 2453 3394 2887 2945 
Q 3322 2497 3322 1706 
Q 3322 1066 3130 698 
Q 2938 331 2570 128 
Q 2203 -75 1769 -75 
Q 1072 -75 642 372 
Q 213 819 213 1659 
z
M 791 1659 
Q 791 1022 1069 705 
Q 1347 388 1769 388 
Q 2188 388 2466 706 
Q 2744 1025 2744 1678 
Q 2744 2294 2464 2611 
Q 2184 2928 1769 2928 
Q 1347 2928 1069 2612 
Q 791 2297 791 1659 
z
" transform="scale(0.015625)"/>
       <path id="ArialMT-74" d="M 1650 503 
L 1731 6 
Q 1494 -44 1306 -44 
Q 1000 -44 831 53 
Q 663 150 594 308 
Q 525 466 525 972 
L 525 2881 
L 113 2881 
L 113 3319 
L 525 3319 
L 525 4141 
L 1084 4478 
L 1084 3319 
L 1650 3319 
L 1650 2881 
L 1084 2881 
L 1084 941 
Q 1084 700 1114 631 
Q 1144 563 1211 522 
Q 1278 481 1403 481 
Q 1497 481 1650 503 
z
" transform="scale(0.015625)"/>
       <path id="ArialMT-6c" d="M 409 0 
L 409 4581 
L 972 4581 
L 972 0 
L 409 0 
z
" transform="scale(0.015625)"/>
       <path id="ArialMT-56" d="M 1803 0 
L 28 4581 
L 684 4581 
L 1875 1253 
Q 2019 853 2116 503 
Q 2222 878 2363 1253 
L 3600 4581 
L 4219 4581 
L 2425 0 
L 1803 0 
z
" transform="scale(0.015625)"/>
      </defs>
      <use xlink:href="#ArialMT-4d"/>
      <use xlink:href="#ArialMT-65" x="83.300781"/>
      <use xlink:href="#ArialMT-6d" x="138.916016"/>
      <use xlink:href="#ArialMT-62" x="222.216797"/>
      <use xlink:href="#ArialMT-72" x="277.832031"/>
      <use xlink:href="#ArialMT-61" x="311.132812"/>
      <use xlink:href="#ArialMT-6e" x="366.748047"/>
      <use xlink:href="#ArialMT-65" x="422.363281"/>
      <use xlink:href="#ArialMT-20" x="477.978516"/>
      <use xlink:href="#ArialMT-70" x="505.761719"/>
      <use xlink:href="#ArialMT-6f" x="561.376953"/>
      <use xlink:href="#ArialMT-74" x="616.992188"/>
      <use xlink:href="#ArialMT-65" x="644.775391"/>
      <use xlink:href="#ArialMT-6e" x="700.390625"/>
      <use xlink:href="#ArialMT-74" x="756.005859"/>
      <use xlink:href="#ArialMT-69" x="783.789062"/>
      <use xlink:href="#ArialMT-61" x="806.005859"/>
      <use xlink:href="#ArialMT-6c" x="861.621094"/>
      <use xlink:href="#ArialMT-20" x="883.837891"/>
      <use xlink:href="#ArialMT-28" x="911.621094"/>
      <use xlink:href="#ArialMT-6d" x="944.921875"/>
      <use xlink:href="#ArialMT-56" x="1028.222656"/>
      <use xlink:href="#ArialMT-29" x="1094.921875"/>
     </g>
    </g>
   </g>
   <g id="line2d_13">
    <path d="M 92.290909 438.768 
L 92.493818 443.632062 
L 92.967273 448.23171 
L 93.440727 450.9265 
L 93.914182 452.553761 
L 94.455273 453.627676 
L 94.996364 454.214328 
L 95.605091 454.559537 
L 96.484364 454.778114 
L 98.04 454.885705 
L 103.383273 454.912334 
L 159.927273 454.912828 
L 160.130182 432.680501 
L 160.536 417.379312 
L 161.009455 407.078718 
L 161.550545 399.716838 
L 162.294545 392.782889 
L 163.241455 386.125016 
L 164.526545 378.735682 
L 165.811636 372.315037 
L 168.246545 363.854505 
L 170.816727 357.195781 
L 171.357818 356.761096 
L 171.966545 355.67953 
L 172.304727 354.650875 
L 173.319273 350.968737 
L 173.928 349.450654 
L 174.874909 345.788269 
L 175.145455 345.497016 
L 175.618909 345.608757 
L 175.821818 345.194493 
L 176.092364 343.747951 
L 176.701091 338.18188 
L 177.242182 331.918089 
L 177.512727 325.392853 
L 177.648 317.755156 
L 177.715636 309.392261 
L 177.783273 285.263778 
L 177.850909 180.391283 
L 178.053818 351.259765 
L 178.256727 375.292653 
L 178.392 376.921582 
L 178.527273 376.114562 
L 179.541818 365.540734 
L 179.812364 364.796475 
L 180.150545 364.518068 
L 180.759273 364.372226 
L 181.165091 364.857686 
L 181.435636 364.825931 
L 181.909091 364.48757 
L 182.314909 363.912989 
L 182.991273 363.021424 
L 183.6 362.527515 
L 184.073455 362.291293 
L 184.749818 362.422412 
L 186.373091 360.68963 
L 186.508364 360.48384 
L 186.981818 368.26102 
L 187.184727 368.823305 
L 187.455273 368.792454 
L 187.725818 368.396245 
L 188.199273 367.130657 
L 188.740364 365.716446 
L 189.619636 363.931948 
L 190.498909 361.849396 
L 191.04 360.495249 
L 191.107636 360.547504 
L 191.445818 362.380837 
L 191.784 363.763259 
L 192.054545 363.888366 
L 192.257455 363.640441 
L 192.595636 362.678472 
L 192.663273 362.436555 
L 192.730909 362.587161 
L 193.069091 364.941245 
L 193.204364 365.128468 
L 193.339636 364.990941 
L 193.745455 364.167874 
L 193.948364 364.15937 
L 194.151273 363.8815 
L 194.557091 362.829367 
L 194.895273 362.097226 
L 195.165818 361.522401 
L 195.909818 359.066545 
L 196.924364 355.021269 
L 197.465455 355.473806 
L 197.803636 356.182464 
L 198.006545 356.087512 
L 198.209455 355.656856 
L 199.021091 353.417368 
L 199.494545 352.0811 
L 200.509091 349.24741 
L 200.576727 349.540833 
L 201.185455 357.561332 
L 201.523636 358.237903 
L 201.929455 359.927778 
L 202.132364 359.871737 
L 202.335273 359.52416 
L 202.673455 358.251203 
L 203.958545 352.472065 
L 204.364364 350.885404 
L 205.581818 345.854296 
L 205.717091 345.773667 
L 205.784727 345.920137 
L 205.987636 347.673808 
L 206.393455 351.265423 
L 206.664 352.072825 
L 206.799273 352.014681 
L 207.002182 351.45747 
L 207.340364 349.424736 
L 207.881455 345.934687 
L 208.084364 345.622983 
L 208.219636 345.702261 
L 208.422545 346.075308 
L 208.693091 347.07551 
L 208.828364 348.389667 
L 209.234182 353.005594 
L 209.437091 353.477775 
L 209.572364 353.366045 
L 209.842909 352.492041 
L 210.586909 349.64428 
L 210.992727 349.149676 
L 211.601455 350.174905 
L 211.736727 349.926401 
L 212.007273 348.655735 
L 212.480727 344.578925 
L 213.089455 339.005525 
L 213.224727 339.405154 
L 213.765818 342.131135 
L 213.901091 341.755611 
L 214.104 340.220931 
L 214.577455 333.661559 
L 214.848 327.093703 
L 214.983273 319.919565 
L 215.050909 312.391966 
L 215.118545 292.393827 
L 215.186182 172.050384 
L 215.389091 350.811223 
L 215.592 377.431921 
L 215.727273 378.977752 
L 215.862545 377.995665 
L 216.674182 368.61332 
L 217.012364 367.819225 
L 218.162182 366.433931 
L 219.176727 365.436598 
L 219.785455 364.741242 
L 219.920727 364.815481 
L 220.394182 365.28636 
L 220.597091 365.226408 
L 221.205818 364.623233 
L 221.544 364.349453 
L 221.949818 364.122593 
L 222.964364 363.156358 
L 223.437818 362.935362 
L 223.708364 362.899333 
L 223.776 362.875531 
L 224.181818 363.471004 
L 224.384727 363.250769 
L 224.790545 362.770664 
L 225.331636 362.463456 
L 226.616727 360.356303 
L 227.360727 358.866327 
L 229.051636 355.348562 
L 229.660364 353.362304 
L 229.863273 353.32629 
L 230.201455 353.618983 
L 230.472 353.754388 
L 230.674909 353.596718 
L 231.148364 353.064739 
L 231.689455 355.126392 
L 231.824727 355.085608 
L 232.027636 354.599697 
L 233.245091 350.442984 
L 233.515636 350.330362 
L 233.853818 350.46092 
L 234.597818 349.820784 
L 235.003636 349.362436 
L 235.274182 348.54553 
L 235.747636 346.16591 
L 236.221091 342.67778 
L 236.762182 338.61313 
L 236.965091 338.216043 
L 237.370909 337.906296 
L 237.573818 337.124132 
L 237.776727 335.103205 
L 237.979636 330.424091 
L 238.114909 323.21085 
L 238.182545 315.354413 
L 238.250182 292.559152 
L 238.317818 154.25893 
L 238.520727 356.823808 
L 238.723636 382.477953 
L 238.791273 383.092263 
L 238.858909 382.810653 
L 239.129455 378.910195 
L 239.670545 371.54424 
L 240.008727 369.47681 
L 240.346909 368.56349 
L 240.752727 368.031107 
L 242.646545 366.15914 
L 243.661091 365.728746 
L 243.999273 365.542962 
L 244.269818 365.452382 
L 244.675636 364.986533 
L 245.352 364.045373 
L 245.419636 364.121645 
L 245.825455 364.753922 
L 246.028364 364.676432 
L 246.366545 364.196512 
L 247.178182 362.885129 
L 247.448727 362.806561 
L 247.719273 362.784499 
L 248.125091 362.482378 
L 248.666182 361.530636 
L 249.748364 359.611099 
L 250.221818 358.991442 
L 250.56 358.664902 
L 251.101091 358.203965 
L 251.439273 357.345958 
L 252.453818 354.086349 
L 252.589091 354.456901 
L 253.062545 356.003048 
L 253.265455 356.092755 
L 253.536 355.737933 
L 254.550545 354.207121 
L 254.956364 354.222301 
L 255.159273 353.811493 
L 255.632727 352.012414 
L 258.135273 341.281357 
L 258.744 336.221556 
L 259.217455 332.757986 
L 259.285091 333.031941 
L 259.488 337.381198 
L 259.893818 346.33491 
L 260.096727 347.692688 
L 260.232 347.870912 
L 260.367273 347.708113 
L 260.570182 346.909229 
L 260.976 344.192767 
L 261.314182 340.603744 
L 261.652364 334.511402 
L 261.855273 327.026631 
L 261.990545 313.617828 
L 262.058182 285.363854 
L 262.125818 162.061977 
L 262.328727 359.916357 
L 262.531636 383.252361 
L 262.599273 383.674834 
L 262.734545 382.431815 
L 263.613818 369.913126 
L 263.952 368.046984 
L 264.290182 367.214536 
L 264.628364 366.863274 
L 264.763636 366.92875 
L 265.101818 367.329271 
L 265.304727 367.303329 
L 266.792727 366.184173 
L 267.401455 365.41239 
L 267.942545 364.746024 
L 268.145455 364.642179 
L 268.754182 364.659245 
L 269.092364 364.267692 
L 270.309818 362.512774 
L 270.850909 362.191417 
L 271.324364 361.994695 
L 271.730182 362.610662 
L 271.933091 362.560916 
L 272.541818 361.853866 
L 273.218182 361.152224 
L 273.691636 361.155075 
L 273.962182 360.942193 
L 274.503273 360.199895 
L 275.314909 358.555277 
L 276.464727 356.316758 
L 278.020364 353.300663 
L 278.088 353.311657 
L 278.561455 354.732749 
L 278.696727 354.574901 
L 278.967273 353.627273 
L 279.981818 348.643044 
L 280.590545 345.476482 
L 280.928727 344.508892 
L 281.402182 343.895681 
L 281.537455 343.892891 
L 281.672727 344.044674 
L 282.146182 345.342845 
L 282.213818 345.299671 
L 282.349091 344.900623 
L 282.619636 343.166477 
L 283.025455 338.795562 
L 283.363636 332.153376 
L 283.566545 322.488705 
L 283.634182 314.784694 
L 283.701818 293.537797 
L 283.769455 158.857911 
L 283.972364 356.55909 
L 284.175273 382.180706 
L 284.242909 382.790317 
L 284.310545 382.48581 
L 284.581091 378.41358 
L 285.122182 370.668547 
L 285.460364 368.40395 
L 285.663273 368.128484 
L 286.272 367.715254 
L 286.813091 366.91277 
L 287.76 365.568097 
L 288.706909 364.583122 
L 289.450909 364.832864 
L 289.721455 364.683516 
L 290.668364 363.632068 
L 291.006545 363.391329 
L 291.547636 363.199755 
L 291.885818 362.848195 
L 292.562182 361.892197 
L 293.035636 362.320822 
L 293.712 362.348323 
L 294.117818 361.935919 
L 294.658909 360.969179 
L 295.605818 358.91311 
L 295.876364 358.9755 
L 296.146909 358.97504 
L 296.417455 358.665637 
L 296.688 358.344262 
L 296.958545 358.329406 
L 297.161455 358.360278 
L 297.364364 358.142578 
L 297.770182 357.09189 
L 298.92 353.685453 
L 299.528727 351.375325 
L 299.596364 351.454303 
L 300.205091 353.411284 
L 300.475636 353.380054 
L 300.678545 353.136763 
L 301.016727 352.117298 
L 301.557818 350.059902 
L 302.437091 346.245498 
L 302.910545 345.773852 
L 303.654545 343.409737 
L 303.925091 342.594425 
L 304.263273 340.612974 
L 304.533818 338.006834 
L 304.804364 333.438602 
L 305.007273 326.692525 
L 305.142545 315.873141 
L 305.210182 299.946787 
L 305.277818 179.505373 
L 305.345455 249.954894 
L 305.548364 368.58385 
L 305.751273 381.881746 
L 305.818909 381.7848 
L 306.021818 379.123059 
L 306.562909 371.395878 
L 306.968727 368.632799 
L 307.306909 367.647382 
L 307.915636 366.78628 
L 308.524364 365.984229 
L 308.862545 365.643857 
L 309.336 365.078833 
L 310.08 364.158569 
L 310.824 363.760782 
L 311.026909 364.011284 
L 311.365091 364.360409 
L 311.635636 364.23482 
L 312.109091 363.714665 
L 312.853091 362.847128 
L 313.326545 363.691182 
L 313.529455 363.616244 
L 313.8 363.203345 
L 315.085091 360.782924 
L 315.626182 360.163765 
L 316.167273 359.557595 
L 317.587636 357.0976 
L 318.602182 356.04306 
L 319.346182 357.62381 
L 319.549091 357.553298 
L 319.819636 357.084029 
L 321.307636 353.680757 
L 321.645818 352.770902 
L 323.877818 344.368731 
L 324.216 342.315476 
L 324.621818 338.148026 
L 324.892364 333.151847 
L 325.095273 326.200195 
L 325.230545 315.361386 
L 325.298182 300.378543 
L 325.365818 198.026401 
L 325.433455 246.173567 
L 325.636364 367.243533 
L 325.839273 380.651175 
L 325.906909 380.671695 
L 326.109818 378.325677 
L 326.786182 369.431919 
L 327.192 366.982357 
L 327.597818 365.925172 
L 328.071273 365.344333 
L 328.409455 365.158298 
L 329.018182 364.977537 
L 330.032727 364.206252 
L 330.370909 363.947061 
L 330.776727 363.951577 
L 331.114909 363.621485 
L 331.588364 363.23003 
L 331.994182 362.794 
L 332.129455 362.669077 
L 332.602909 363.231734 
L 332.805818 363.187599 
L 333.008727 363.125493 
L 333.549818 363.27705 
L 333.955636 363.087803 
L 334.902545 362.145139 
L 335.376 361.077188 
L 336.322909 358.920602 
L 336.999273 358.057826 
L 337.337455 357.896374 
L 337.743273 358.098843 
L 338.216727 358.127746 
L 338.487273 357.792835 
L 338.960727 356.85931 
L 339.028364 356.978156 
L 339.434182 357.756798 
L 339.569455 357.675359 
L 339.84 357.047655 
L 340.922182 354.186493 
L 341.328 354.278729 
L 341.530909 354.007444 
L 341.936727 352.865151 
L 342.342545 352.076729 
L 342.883636 351.541028 
L 343.357091 350.246514 
L 343.830545 348.389394 
L 345.048 343.014109 
L 345.250909 343.420332 
L 345.656727 344.112351 
L 345.792 344.261878 
L 346.333091 347.023068 
L 346.468364 347.010313 
L 346.671273 346.486317 
L 347.009455 344.73767 
L 348.700364 333.734905 
L 348.903273 330.903781 
L 349.106182 324.495967 
L 349.241455 311.921342 
L 349.309091 287.697174 
L 349.376727 167.620381 
L 349.579636 352.748292 
L 349.782545 377.258327 
L 349.917818 378.633273 
L 350.053091 377.682889 
L 351.067636 366.494474 
L 351.405818 365.388898 
L 351.676364 365.123786 
L 352.149818 365.334873 
L 352.555636 365.628634 
L 352.893818 366.224138 
L 353.096727 366.235436 
L 353.637818 365.831227 
L 355.058182 364.360626 
L 355.666909 364.382238 
L 356.072727 364.514124 
L 356.343273 364.335375 
L 356.952 363.373923 
L 358.913455 360.503384 
L 359.589818 361.195851 
L 359.928 360.883459 
L 360.942545 359.518337 
L 361.280727 359.051764 
L 361.957091 358.875647 
L 362.295273 358.258427 
L 363.242182 355.402428 
L 363.580364 354.52453 
L 364.256727 353.613445 
L 364.730182 352.901185 
L 365.000727 352.221113 
L 365.136 351.810793 
L 365.203636 351.86379 
L 365.677091 352.768507 
L 365.812364 352.654619 
L 366.015273 352.013156 
L 366.488727 349.372906 
L 367.029818 346.458447 
L 367.232727 346.209843 
L 367.435636 346.430471 
L 367.638545 346.588811 
L 367.773818 346.439667 
L 367.976727 345.816081 
L 368.314909 343.880793 
L 368.788364 341.332103 
L 369.261818 339.233715 
L 369.870545 334.891187 
L 370.141091 330.878891 
L 370.344 325.032577 
L 370.479273 316.079834 
L 370.546909 304.823997 
L 370.682182 207.710261 
L 370.885091 357.8427 
L 371.088 376.673064 
L 371.223273 377.530453 
L 371.426182 375.591387 
L 372.034909 368.526569 
L 372.440727 366.388166 
L 372.846545 365.37221 
L 373.252364 364.925424 
L 373.928727 364.581999 
L 374.672727 364.391238 
L 375.078545 364.46141 
L 375.349091 364.288796 
L 376.634182 362.967744 
L 377.242909 362.4877 
L 377.986909 361.569574 
L 378.325091 361.544793 
L 378.595636 361.760853 
L 379.001455 362.710278 
L 379.204364 362.742996 
L 379.407273 362.572124 
L 380.083636 361.704326 
L 380.354182 361.565079 
L 380.624727 361.168801 
L 382.180364 358.141153 
L 382.653818 357.643867 
L 383.059636 357.25322 
L 384.074182 356.176153 
L 384.615273 355.53622 
L 385.156364 354.584629 
L 385.562182 353.389862 
L 385.697455 352.944936 
L 385.765091 352.993939 
L 386.103273 353.481374 
L 386.238545 353.325118 
L 387.050182 351.09273 
L 387.523636 349.795709 
L 387.929455 349.029288 
L 388.267636 347.753826 
L 389.146909 342.851586 
L 389.755636 339.453069 
L 389.890909 339.746595 
L 390.634909 342.928385 
L 390.702545 342.878425 
L 390.837818 342.42213 
L 391.108364 340.161005 
L 391.378909 335.695338 
L 391.581818 328.951142 
L 391.717091 317.830387 
L 391.784727 300.247116 
L 391.852364 154.641321 
L 392.055273 354.171267 
L 392.258182 383.716933 
L 392.325818 384.488832 
L 392.393455 384.194531 
L 392.664 379.884873 
L 393.205091 371.950823 
L 393.610909 369.114435 
L 393.949091 368.178437 
L 395.707636 365.880147 
L 396.248727 365.636471 
L 397.128 365.092218 
L 398.210182 364.275217 
L 398.616 363.898537 
L 398.751273 363.738873 
L 399.224727 364.149274 
L 399.427636 363.985258 
L 400.509818 362.320128 
L 401.186182 361.048653 
L 401.389091 361.037992 
L 401.862545 361.264799 
L 402.065455 361.088238 
L 403.959273 358.238709 
L 404.635636 357.824839 
L 404.973818 357.127262 
L 405.853091 354.895073 
L 405.988364 355.231591 
L 406.394182 356.47618 
L 406.597091 356.502545 
L 406.8 356.190939 
L 407.273455 354.631574 
L 407.544 354.084712 
L 407.746909 354.036406 
L 408.085091 354.21897 
L 408.288 353.971464 
L 408.693818 352.699188 
L 409.573091 350.055697 
L 409.978909 349.214713 
L 410.452364 347.503015 
L 410.858182 345.102614 
L 411.534545 340.46429 
L 412.210909 338.714949 
L 412.616727 336.003964 
L 412.684364 336.264227 
L 412.954909 339.346873 
L 413.225455 341.658514 
L 413.360727 341.849718 
L 413.496 341.474334 
L 413.766545 339.328983 
L 414.104727 334.88729 
L 414.375273 328.342402 
L 414.510545 320.900752 
L 414.578182 312.718356 
L 414.645818 287.910598 
L 414.713455 163.549853 
L 414.916364 354.469362 
L 415.119273 379.464304 
L 415.254545 380.512922 
L 415.457455 378.287656 
L 416.133818 369.519472 
L 416.539636 367.263313 
L 416.945455 366.200965 
L 417.351273 365.61893 
L 417.824727 365.378066 
L 418.568727 365.043537 
L 418.974545 365.635312 
L 419.245091 365.639816 
L 419.515636 365.414459 
L 420.192 364.721234 
L 420.665455 364.430343 
L 421.341818 364.306687 
L 422.491636 363.046613 
L 423.370909 361.71279 
L 424.182545 360.439567 
L 424.791273 359.438857 
L 424.858909 359.44592 
L 425.4 360.401056 
L 425.941091 360.379179 
L 426.482182 360.526652 
L 426.888 360.287774 
L 427.226182 359.633298 
L 428.173091 357.422992 
L 428.714182 356.570311 
L 429.999273 353.512049 
L 430.269818 353.558623 
L 430.472727 353.64337 
L 430.675636 380.965709 
L 431.013818 395.494787 
L 431.487273 405.410966 
L 432.501818 420.641965 
L 433.584 434.292077 
L 434.395636 441.959758 
L 435.072 446.4573 
L 435.748364 449.498868 
L 436.357091 451.312785 
L 437.033455 452.628337 
L 437.709818 453.462154 
L 438.453818 454.03259 
L 439.333091 454.427475 
L 440.550545 454.705469 
L 442.376727 454.863335 
L 446.232 454.918324 
L 498.109091 454.911707 
L 498.109091 454.911707 
" clip-path="url(#p6843459797)" style="fill: none; stroke: #000000; stroke-width: 1.5; stroke-linecap: square"/>
   </g>
   <g id="line2d_14">
    <path d="M 497.973818 408.87 
" clip-path="url(#p6843459797)" style="fill: none; stroke: #000000; stroke-width: 1.5; stroke-linecap: square"/>
   </g>
   <g id="line2d_15">
    <path d="M 430.472727 368.1 
L 430.472727 365.382 
L 430.472727 362.664 
L 430.472727 359.946 
L 430.472727 357.228 
L 430.472727 354.51 
L 430.472727 351.792 
L 430.472727 349.074 
L 430.472727 346.356 
L 430.472727 343.638 
L 430.472727 340.92 
L 430.472727 338.202 
L 430.472727 335.484 
L 430.472727 332.766 
L 430.472727 330.048 
L 430.472727 327.33 
L 430.472727 324.612 
L 430.472727 321.894 
L 430.472727 319.176 
L 430.472727 316.458 
" clip-path="url(#p6843459797)" style="fill: none; stroke: #000000; stroke-width: 1.5; stroke-linecap: square"/>
   </g>
   <g id="patch_3">
    <path d="M 72 504 
L 72 69.12 
" style="fill: none; stroke: #000000; stroke-width: 0.8; stroke-linejoin: miter; stroke-linecap: square"/>
   </g>
   <g id="patch_4">
    <path d="M 518.4 504 
L 518.4 69.12 
" style="fill: none; stroke: #000000; stroke-width: 0.8; stroke-linejoin: miter; stroke-linecap: square"/>
   </g>
   <g id="patch_5">
    <path d="M 72 504 
L 518.4 504 
" style="fill: none; stroke: #000000; stroke-width: 0.8; stroke-linejoin: miter; stroke-linecap: square"/>
   </g>
   <g id="patch_6">
    <path d="M 72 69.12 
L 518.4 69.12 
" style="fill: none; stroke: #000000; stroke-width: 0.8; stroke-linejoin: miter; stroke-linecap: square"/>
   </g>
   <g id="text_15">
    <!-- 500 ms -->
    <g transform="translate(497.973818 406.152)scale(0.22 -0.22)">
     <defs>
      <path id="ArialMT-35" d="M 266 1200 
L 856 1250 
Q 922 819 1161 601 
Q 1400 384 1738 384 
Q 2144 384 2425 690 
Q 2706 997 2706 1503 
Q 2706 1984 2436 2262 
Q 2166 2541 1728 2541 
Q 1456 2541 1237 2417 
Q 1019 2294 894 2097 
L 366 2166 
L 809 4519 
L 3088 4519 
L 3088 3981 
L 1259 3981 
L 1013 2750 
Q 1425 3038 1878 3038 
Q 2478 3038 2890 2622 
Q 3303 2206 3303 1553 
Q 3303 931 2941 478 
Q 2500 -78 1738 -78 
Q 1113 -78 717 272 
Q 322 622 266 1200 
z
" transform="scale(0.015625)"/>
      <path id="ArialMT-30" d="M 266 2259 
Q 266 3072 433 3567 
Q 600 4063 929 4331 
Q 1259 4600 1759 4600 
Q 2128 4600 2406 4451 
Q 2684 4303 2865 4023 
Q 3047 3744 3150 3342 
Q 3253 2941 3253 2259 
Q 3253 1453 3087 958 
Q 2922 463 2592 192 
Q 2263 -78 1759 -78 
Q 1097 -78 719 397 
Q 266 969 266 2259 
z
M 844 2259 
Q 844 1131 1108 757 
Q 1372 384 1759 384 
Q 2147 384 2411 759 
Q 2675 1134 2675 2259 
Q 2675 3391 2411 3762 
Q 2147 4134 1753 4134 
Q 1366 4134 1134 3806 
Q 844 3388 844 2259 
z
" transform="scale(0.015625)"/>
     </defs>
     <use xlink:href="#ArialMT-35"/>
     <use xlink:href="#ArialMT-30" x="55.615234"/>
     <use xlink:href="#ArialMT-30" x="111.230469"/>
     <use xlink:href="#ArialMT-20" x="166.845703"/>
     <use xlink:href="#ArialMT-6d" x="194.628906"/>
     <use xlink:href="#ArialMT-73" x="277.929688"/>
    </g>
   </g>
   <g id="text_16">
    <!-- 20 mV -->
    <g transform="translate(504.737455 321.894)scale(0.22 -0.22)">
     <defs>
      <path id="ArialMT-32" d="M 3222 541 
L 3222 0 
L 194 0 
Q 188 203 259 391 
Q 375 700 629 1000 
Q 884 1300 1366 1694 
Q 2113 2306 2375 2664 
Q 2638 3022 2638 3341 
Q 2638 3675 2398 3904 
Q 2159 4134 1775 4134 
Q 1369 4134 1125 3890 
Q 881 3647 878 3216 
L 300 3275 
Q 359 3922 746 4261 
Q 1134 4600 1788 4600 
Q 2447 4600 2831 4234 
Q 3216 3869 3216 3328 
Q 3216 3053 3103 2787 
Q 2991 2522 2730 2228 
Q 2469 1934 1863 1422 
Q 1356 997 1212 845 
Q 1069 694 975 541 
L 3222 541 
z
" transform="scale(0.015625)"/>
     </defs>
     <use xlink:href="#ArialMT-32"/>
     <use xlink:href="#ArialMT-30" x="55.615234"/>
     <use xlink:href="#ArialMT-20" x="111.230469"/>
     <use xlink:href="#ArialMT-6d" x="139.013672"/>
     <use xlink:href="#ArialMT-56" x="222.314453"/>
    </g>
   </g>
   <g id="text_17">
    <!--  Plotting dSPN, trace number 6853  -->
    <g transform="translate(122.17 63.12)scale(0.22 -0.22)">
     <defs>
      <path id="ArialMT-50" d="M 494 0 
L 494 4581 
L 2222 4581 
Q 2678 4581 2919 4538 
Q 3256 4481 3484 4323 
Q 3713 4166 3852 3881 
Q 3991 3597 3991 3256 
Q 3991 2672 3619 2267 
Q 3247 1863 2275 1863 
L 1100 1863 
L 1100 0 
L 494 0 
z
M 1100 2403 
L 2284 2403 
Q 2872 2403 3119 2622 
Q 3366 2841 3366 3238 
Q 3366 3525 3220 3729 
Q 3075 3934 2838 4000 
Q 2684 4041 2272 4041 
L 1100 4041 
L 1100 2403 
z
" transform="scale(0.015625)"/>
      <path id="ArialMT-67" d="M 319 -275 
L 866 -356 
Q 900 -609 1056 -725 
Q 1266 -881 1628 -881 
Q 2019 -881 2231 -725 
Q 2444 -569 2519 -288 
Q 2563 -116 2559 434 
Q 2191 0 1641 0 
Q 956 0 581 494 
Q 206 988 206 1678 
Q 206 2153 378 2554 
Q 550 2956 876 3175 
Q 1203 3394 1644 3394 
Q 2231 3394 2613 2919 
L 2613 3319 
L 3131 3319 
L 3131 450 
Q 3131 -325 2973 -648 
Q 2816 -972 2473 -1159 
Q 2131 -1347 1631 -1347 
Q 1038 -1347 672 -1080 
Q 306 -813 319 -275 
z
M 784 1719 
Q 784 1066 1043 766 
Q 1303 466 1694 466 
Q 2081 466 2343 764 
Q 2606 1063 2606 1700 
Q 2606 2309 2336 2618 
Q 2066 2928 1684 2928 
Q 1309 2928 1046 2623 
Q 784 2319 784 1719 
z
" transform="scale(0.015625)"/>
      <path id="ArialMT-64" d="M 2575 0 
L 2575 419 
Q 2259 -75 1647 -75 
Q 1250 -75 917 144 
Q 584 363 401 755 
Q 219 1147 219 1656 
Q 219 2153 384 2558 
Q 550 2963 881 3178 
Q 1213 3394 1622 3394 
Q 1922 3394 2156 3267 
Q 2391 3141 2538 2938 
L 2538 4581 
L 3097 4581 
L 3097 0 
L 2575 0 
z
M 797 1656 
Q 797 1019 1065 703 
Q 1334 388 1700 388 
Q 2069 388 2326 689 
Q 2584 991 2584 1609 
Q 2584 2291 2321 2609 
Q 2059 2928 1675 2928 
Q 1300 2928 1048 2622 
Q 797 2316 797 1656 
z
" transform="scale(0.015625)"/>
      <path id="ArialMT-53" d="M 288 1472 
L 859 1522 
Q 900 1178 1048 958 
Q 1197 738 1509 602 
Q 1822 466 2213 466 
Q 2559 466 2825 569 
Q 3091 672 3220 851 
Q 3350 1031 3350 1244 
Q 3350 1459 3225 1620 
Q 3100 1781 2813 1891 
Q 2628 1963 1997 2114 
Q 1366 2266 1113 2400 
Q 784 2572 623 2826 
Q 463 3081 463 3397 
Q 463 3744 659 4045 
Q 856 4347 1234 4503 
Q 1613 4659 2075 4659 
Q 2584 4659 2973 4495 
Q 3363 4331 3572 4012 
Q 3781 3694 3797 3291 
L 3216 3247 
Q 3169 3681 2898 3903 
Q 2628 4125 2100 4125 
Q 1550 4125 1298 3923 
Q 1047 3722 1047 3438 
Q 1047 3191 1225 3031 
Q 1400 2872 2139 2705 
Q 2878 2538 3153 2413 
Q 3553 2228 3743 1945 
Q 3934 1663 3934 1294 
Q 3934 928 3725 604 
Q 3516 281 3123 101 
Q 2731 -78 2241 -78 
Q 1619 -78 1198 103 
Q 778 284 539 648 
Q 300 1013 288 1472 
z
" transform="scale(0.015625)"/>
      <path id="ArialMT-4e" d="M 488 0 
L 488 4581 
L 1109 4581 
L 3516 984 
L 3516 4581 
L 4097 4581 
L 4097 0 
L 3475 0 
L 1069 3600 
L 1069 0 
L 488 0 
z
" transform="scale(0.015625)"/>
      <path id="ArialMT-2c" d="M 569 0 
L 569 641 
L 1209 641 
L 1209 0 
Q 1209 -353 1084 -570 
Q 959 -788 688 -906 
L 531 -666 
Q 709 -588 793 -436 
Q 878 -284 888 0 
L 569 0 
z
" transform="scale(0.015625)"/>
      <path id="ArialMT-63" d="M 2588 1216 
L 3141 1144 
Q 3050 572 2676 248 
Q 2303 -75 1759 -75 
Q 1078 -75 664 370 
Q 250 816 250 1647 
Q 250 2184 428 2587 
Q 606 2991 970 3192 
Q 1334 3394 1763 3394 
Q 2303 3394 2647 3120 
Q 2991 2847 3088 2344 
L 2541 2259 
Q 2463 2594 2264 2762 
Q 2066 2931 1784 2931 
Q 1359 2931 1093 2626 
Q 828 2322 828 1663 
Q 828 994 1084 691 
Q 1341 388 1753 388 
Q 2084 388 2306 591 
Q 2528 794 2588 1216 
z
" transform="scale(0.015625)"/>
      <path id="ArialMT-75" d="M 2597 0 
L 2597 488 
Q 2209 -75 1544 -75 
Q 1250 -75 995 37 
Q 741 150 617 320 
Q 494 491 444 738 
Q 409 903 409 1263 
L 409 3319 
L 972 3319 
L 972 1478 
Q 972 1038 1006 884 
Q 1059 663 1231 536 
Q 1403 409 1656 409 
Q 1909 409 2131 539 
Q 2353 669 2445 892 
Q 2538 1116 2538 1541 
L 2538 3319 
L 3100 3319 
L 3100 0 
L 2597 0 
z
" transform="scale(0.015625)"/>
      <path id="ArialMT-36" d="M 3184 3459 
L 2625 3416 
Q 2550 3747 2413 3897 
Q 2184 4138 1850 4138 
Q 1581 4138 1378 3988 
Q 1113 3794 959 3422 
Q 806 3050 800 2363 
Q 1003 2672 1297 2822 
Q 1591 2972 1913 2972 
Q 2475 2972 2870 2558 
Q 3266 2144 3266 1488 
Q 3266 1056 3080 686 
Q 2894 316 2569 119 
Q 2244 -78 1831 -78 
Q 1128 -78 684 439 
Q 241 956 241 2144 
Q 241 3472 731 4075 
Q 1159 4600 1884 4600 
Q 2425 4600 2770 4297 
Q 3116 3994 3184 3459 
z
M 888 1484 
Q 888 1194 1011 928 
Q 1134 663 1356 523 
Q 1578 384 1822 384 
Q 2178 384 2434 671 
Q 2691 959 2691 1453 
Q 2691 1928 2437 2201 
Q 2184 2475 1800 2475 
Q 1419 2475 1153 2201 
Q 888 1928 888 1484 
z
" transform="scale(0.015625)"/>
      <path id="ArialMT-38" d="M 1131 2484 
Q 781 2613 612 2850 
Q 444 3088 444 3419 
Q 444 3919 803 4259 
Q 1163 4600 1759 4600 
Q 2359 4600 2725 4251 
Q 3091 3903 3091 3403 
Q 3091 3084 2923 2848 
Q 2756 2613 2416 2484 
Q 2838 2347 3058 2040 
Q 3278 1734 3278 1309 
Q 3278 722 2862 322 
Q 2447 -78 1769 -78 
Q 1091 -78 675 323 
Q 259 725 259 1325 
Q 259 1772 486 2073 
Q 713 2375 1131 2484 
z
M 1019 3438 
Q 1019 3113 1228 2906 
Q 1438 2700 1772 2700 
Q 2097 2700 2305 2904 
Q 2513 3109 2513 3406 
Q 2513 3716 2298 3927 
Q 2084 4138 1766 4138 
Q 1444 4138 1231 3931 
Q 1019 3725 1019 3438 
z
M 838 1322 
Q 838 1081 952 856 
Q 1066 631 1291 507 
Q 1516 384 1775 384 
Q 2178 384 2440 643 
Q 2703 903 2703 1303 
Q 2703 1709 2433 1975 
Q 2163 2241 1756 2241 
Q 1359 2241 1098 1978 
Q 838 1716 838 1322 
z
" transform="scale(0.015625)"/>
      <path id="ArialMT-33" d="M 269 1209 
L 831 1284 
Q 928 806 1161 595 
Q 1394 384 1728 384 
Q 2125 384 2398 659 
Q 2672 934 2672 1341 
Q 2672 1728 2419 1979 
Q 2166 2231 1775 2231 
Q 1616 2231 1378 2169 
L 1441 2663 
Q 1497 2656 1531 2656 
Q 1891 2656 2178 2843 
Q 2466 3031 2466 3422 
Q 2466 3731 2256 3934 
Q 2047 4138 1716 4138 
Q 1388 4138 1169 3931 
Q 950 3725 888 3313 
L 325 3413 
Q 428 3978 793 4289 
Q 1159 4600 1703 4600 
Q 2078 4600 2393 4439 
Q 2709 4278 2876 4000 
Q 3044 3722 3044 3409 
Q 3044 3113 2884 2869 
Q 2725 2625 2413 2481 
Q 2819 2388 3044 2092 
Q 3269 1797 3269 1353 
Q 3269 753 2831 336 
Q 2394 -81 1725 -81 
Q 1122 -81 723 278 
Q 325 638 269 1209 
z
" transform="scale(0.015625)"/>
     </defs>
     <use xlink:href="#ArialMT-20"/>
     <use xlink:href="#ArialMT-50" x="27.783203"/>
     <use xlink:href="#ArialMT-6c" x="94.482422"/>
     <use xlink:href="#ArialMT-6f" x="116.699219"/>
     <use xlink:href="#ArialMT-74" x="172.314453"/>
     <use xlink:href="#ArialMT-74" x="200.097656"/>
     <use xlink:href="#ArialMT-69" x="227.880859"/>
     <use xlink:href="#ArialMT-6e" x="250.097656"/>
     <use xlink:href="#ArialMT-67" x="305.712891"/>
     <use xlink:href="#ArialMT-20" x="361.328125"/>
     <use xlink:href="#ArialMT-64" x="389.111328"/>
     <use xlink:href="#ArialMT-53" x="444.726562"/>
     <use xlink:href="#ArialMT-50" x="511.425781"/>
     <use xlink:href="#ArialMT-4e" x="578.125"/>
     <use xlink:href="#ArialMT-2c" x="650.341797"/>
     <use xlink:href="#ArialMT-20" x="678.125"/>
     <use xlink:href="#ArialMT-74" x="705.908203"/>
     <use xlink:href="#ArialMT-72" x="733.691406"/>
     <use xlink:href="#ArialMT-61" x="766.992188"/>
     <use xlink:href="#ArialMT-63" x="822.607422"/>
     <use xlink:href="#ArialMT-65" x="872.607422"/>
     <use xlink:href="#ArialMT-20" x="928.222656"/>
     <use xlink:href="#ArialMT-6e" x="956.005859"/>
     <use xlink:href="#ArialMT-75" x="1011.621094"/>
     <use xlink:href="#ArialMT-6d" x="1067.236328"/>
     <use xlink:href="#ArialMT-62" x="1150.537109"/>
     <use xlink:href="#ArialMT-65" x="1206.152344"/>
     <use xlink:href="#ArialMT-72" x="1261.767578"/>
     <use xlink:href="#ArialMT-20" x="1295.068359"/>
     <use xlink:href="#ArialMT-36" x="1322.851562"/>
     <use xlink:href="#ArialMT-38" x="1378.466797"/>
     <use xlink:href="#ArialMT-35" x="1434.082031"/>
     <use xlink:href="#ArialMT-33" x="1489.697266"/>
     <use xlink:href="#ArialMT-20" x="1545.3125"/>
    </g>
   </g>
  </g>
 </g>
 <defs>
  <clipPath id="p6843459797">
   <rect x="72" y="69.12" width="446.4" height="434.88"/>
  </clipPath>
 </defs>
</svg>
