<?xml version="1.0" encoding="utf-8" standalone="no"?>
<!DOCTYPE svg PUBLIC "-//W3C//DTD SVG 1.1//EN"
  "http://www.w3.org/Graphics/SVG/1.1/DTD/svg11.dtd">
<svg xmlns:xlink="http://www.w3.org/1999/xlink" width="576pt" height="576pt" viewBox="0 0 576 576" xmlns="http://www.w3.org/2000/svg" version="1.1">
 <metadata>
  <rdf:RDF xmlns:dc="http://purl.org/dc/elements/1.1/" xmlns:cc="http://creativecommons.org/ns#" xmlns:rdf="http://www.w3.org/1999/02/22-rdf-syntax-ns#">
   <cc:Work>
    <dc:type rdf:resource="http://purl.org/dc/dcmitype/StillImage"/>
    <dc:date>2022-10-30T19:57:17.667081</dc:date>
    <dc:format>image/svg+xml</dc:format>
    <dc:creator>
     <cc:Agent>
      <dc:title>Matplotlib v3.5.2, https://matplotlib.org/</dc:title>
     </cc:Agent>
    </dc:creator>
   </cc:Work>
  </rdf:RDF>
 </metadata>
 <defs>
  <style type="text/css">*{stroke-linejoin: round; stroke-linecap: butt}</style>
 </defs>
 <g id="figure_1">
  <g id="patch_1">
   <path d="M 0 576 
L 576 576 
L 576 0 
L 0 0 
L 0 576 
z
" style="fill: none"/>
  </g>
  <g id="axes_1">
   <g id="patch_2">
    <path d="M 72 504 
L 518.4 504 
L 518.4 69.12 
L 72 69.12 
z
" style="fill: #ffffff"/>
   </g>
   <g id="matplotlib.axis_1">
    <g id="xtick_1">
     <g id="line2d_1">
      <defs>
       <path id="m2b7b99006a" d="M 0 0 
L 0 3.5 
" style="stroke: #000000; stroke-width: 0.8"/>
      </defs>
      <g>
       <use xlink:href="#m2b7b99006a" x="92.290909" y="504" style="stroke: #000000; stroke-width: 0.8"/>
      </g>
     </g>
     <g id="text_1">
      <!-- 0 -->
      <g transform="translate(85.292159 527.716563)scale(0.22 -0.22)">
       <defs>
        <path id="DejaVuSans-30" d="M 2034 4250 
Q 1547 4250 1301 3770 
Q 1056 3291 1056 2328 
Q 1056 1369 1301 889 
Q 1547 409 2034 409 
Q 2525 409 2770 889 
Q 3016 1369 3016 2328 
Q 3016 3291 2770 3770 
Q 2525 4250 2034 4250 
z
M 2034 4750 
Q 2819 4750 3233 4129 
Q 3647 3509 3647 2328 
Q 3647 1150 3233 529 
Q 2819 -91 2034 -91 
Q 1250 -91 836 529 
Q 422 1150 422 2328 
Q 422 3509 836 4129 
Q 1250 4750 2034 4750 
z
" transform="scale(0.015625)"/>
       </defs>
       <use xlink:href="#DejaVuSans-30"/>
      </g>
     </g>
    </g>
    <g id="xtick_2">
     <g id="line2d_2">
      <g>
       <use xlink:href="#m2b7b99006a" x="227.563636" y="504" style="stroke: #000000; stroke-width: 0.8"/>
      </g>
     </g>
     <g id="text_2">
      <!-- 1000 -->
      <g transform="translate(199.568636 527.716563)scale(0.22 -0.22)">
       <defs>
        <path id="DejaVuSans-31" d="M 794 531 
L 1825 531 
L 1825 4091 
L 703 3866 
L 703 4441 
L 1819 4666 
L 2450 4666 
L 2450 531 
L 3481 531 
L 3481 0 
L 794 0 
L 794 531 
z
" transform="scale(0.015625)"/>
       </defs>
       <use xlink:href="#DejaVuSans-31"/>
       <use xlink:href="#DejaVuSans-30" x="63.623047"/>
       <use xlink:href="#DejaVuSans-30" x="127.246094"/>
       <use xlink:href="#DejaVuSans-30" x="190.869141"/>
      </g>
     </g>
    </g>
    <g id="xtick_3">
     <g id="line2d_3">
      <g>
       <use xlink:href="#m2b7b99006a" x="362.836364" y="504" style="stroke: #000000; stroke-width: 0.8"/>
      </g>
     </g>
     <g id="text_3">
      <!-- 2000 -->
      <g transform="translate(334.841364 527.716563)scale(0.22 -0.22)">
       <defs>
        <path id="DejaVuSans-32" d="M 1228 531 
L 3431 531 
L 3431 0 
L 469 0 
L 469 531 
Q 828 903 1448 1529 
Q 2069 2156 2228 2338 
Q 2531 2678 2651 2914 
Q 2772 3150 2772 3378 
Q 2772 3750 2511 3984 
Q 2250 4219 1831 4219 
Q 1534 4219 1204 4116 
Q 875 4013 500 3803 
L 500 4441 
Q 881 4594 1212 4672 
Q 1544 4750 1819 4750 
Q 2544 4750 2975 4387 
Q 3406 4025 3406 3419 
Q 3406 3131 3298 2873 
Q 3191 2616 2906 2266 
Q 2828 2175 2409 1742 
Q 1991 1309 1228 531 
z
" transform="scale(0.015625)"/>
       </defs>
       <use xlink:href="#DejaVuSans-32"/>
       <use xlink:href="#DejaVuSans-30" x="63.623047"/>
       <use xlink:href="#DejaVuSans-30" x="127.246094"/>
       <use xlink:href="#DejaVuSans-30" x="190.869141"/>
      </g>
     </g>
    </g>
    <g id="xtick_4">
     <g id="line2d_4">
      <g>
       <use xlink:href="#m2b7b99006a" x="498.109091" y="504" style="stroke: #000000; stroke-width: 0.8"/>
      </g>
     </g>
     <g id="text_4">
      <!-- 3000 -->
      <g transform="translate(470.114091 527.716563)scale(0.22 -0.22)">
       <defs>
        <path id="DejaVuSans-33" d="M 2597 2516 
Q 3050 2419 3304 2112 
Q 3559 1806 3559 1356 
Q 3559 666 3084 287 
Q 2609 -91 1734 -91 
Q 1441 -91 1130 -33 
Q 819 25 488 141 
L 488 750 
Q 750 597 1062 519 
Q 1375 441 1716 441 
Q 2309 441 2620 675 
Q 2931 909 2931 1356 
Q 2931 1769 2642 2001 
Q 2353 2234 1838 2234 
L 1294 2234 
L 1294 2753 
L 1863 2753 
Q 2328 2753 2575 2939 
Q 2822 3125 2822 3475 
Q 2822 3834 2567 4026 
Q 2313 4219 1838 4219 
Q 1578 4219 1281 4162 
Q 984 4106 628 3988 
L 628 4550 
Q 988 4650 1302 4700 
Q 1616 4750 1894 4750 
Q 2613 4750 3031 4423 
Q 3450 4097 3450 3541 
Q 3450 3153 3228 2886 
Q 3006 2619 2597 2516 
z
" transform="scale(0.015625)"/>
       </defs>
       <use xlink:href="#DejaVuSans-33"/>
       <use xlink:href="#DejaVuSans-30" x="63.623047"/>
       <use xlink:href="#DejaVuSans-30" x="127.246094"/>
       <use xlink:href="#DejaVuSans-30" x="190.869141"/>
      </g>
     </g>
    </g>
    <g id="text_5">
     <!-- Time(ms) -->
     <g transform="translate(249.182187 552.307188)scale(0.22 -0.22)">
      <defs>
       <path id="ArialMT-54" d="M 1659 0 
L 1659 4041 
L 150 4041 
L 150 4581 
L 3781 4581 
L 3781 4041 
L 2266 4041 
L 2266 0 
L 1659 0 
z
" transform="scale(0.015625)"/>
       <path id="ArialMT-69" d="M 425 3934 
L 425 4581 
L 988 4581 
L 988 3934 
L 425 3934 
z
M 425 0 
L 425 3319 
L 988 3319 
L 988 0 
L 425 0 
z
" transform="scale(0.015625)"/>
       <path id="ArialMT-6d" d="M 422 0 
L 422 3319 
L 925 3319 
L 925 2853 
Q 1081 3097 1340 3245 
Q 1600 3394 1931 3394 
Q 2300 3394 2536 3241 
Q 2772 3088 2869 2813 
Q 3263 3394 3894 3394 
Q 4388 3394 4653 3120 
Q 4919 2847 4919 2278 
L 4919 0 
L 4359 0 
L 4359 2091 
Q 4359 2428 4304 2576 
Q 4250 2725 4106 2815 
Q 3963 2906 3769 2906 
Q 3419 2906 3187 2673 
Q 2956 2441 2956 1928 
L 2956 0 
L 2394 0 
L 2394 2156 
Q 2394 2531 2256 2718 
Q 2119 2906 1806 2906 
Q 1569 2906 1367 2781 
Q 1166 2656 1075 2415 
Q 984 2175 984 1722 
L 984 0 
L 422 0 
z
" transform="scale(0.015625)"/>
       <path id="ArialMT-65" d="M 2694 1069 
L 3275 997 
Q 3138 488 2766 206 
Q 2394 -75 1816 -75 
Q 1088 -75 661 373 
Q 234 822 234 1631 
Q 234 2469 665 2931 
Q 1097 3394 1784 3394 
Q 2450 3394 2872 2941 
Q 3294 2488 3294 1666 
Q 3294 1616 3291 1516 
L 816 1516 
Q 847 969 1125 678 
Q 1403 388 1819 388 
Q 2128 388 2347 550 
Q 2566 713 2694 1069 
z
M 847 1978 
L 2700 1978 
Q 2663 2397 2488 2606 
Q 2219 2931 1791 2931 
Q 1403 2931 1139 2672 
Q 875 2413 847 1978 
z
" transform="scale(0.015625)"/>
       <path id="ArialMT-28" d="M 1497 -1347 
Q 1031 -759 709 28 
Q 388 816 388 1659 
Q 388 2403 628 3084 
Q 909 3875 1497 4659 
L 1900 4659 
Q 1522 4009 1400 3731 
Q 1209 3300 1100 2831 
Q 966 2247 966 1656 
Q 966 153 1900 -1347 
L 1497 -1347 
z
" transform="scale(0.015625)"/>
       <path id="ArialMT-73" d="M 197 991 
L 753 1078 
Q 800 744 1014 566 
Q 1228 388 1613 388 
Q 2000 388 2187 545 
Q 2375 703 2375 916 
Q 2375 1106 2209 1216 
Q 2094 1291 1634 1406 
Q 1016 1563 777 1677 
Q 538 1791 414 1992 
Q 291 2194 291 2438 
Q 291 2659 392 2848 
Q 494 3038 669 3163 
Q 800 3259 1026 3326 
Q 1253 3394 1513 3394 
Q 1903 3394 2198 3281 
Q 2494 3169 2634 2976 
Q 2775 2784 2828 2463 
L 2278 2388 
Q 2241 2644 2061 2787 
Q 1881 2931 1553 2931 
Q 1166 2931 1000 2803 
Q 834 2675 834 2503 
Q 834 2394 903 2306 
Q 972 2216 1119 2156 
Q 1203 2125 1616 2013 
Q 2213 1853 2448 1751 
Q 2684 1650 2818 1456 
Q 2953 1263 2953 975 
Q 2953 694 2789 445 
Q 2625 197 2315 61 
Q 2006 -75 1616 -75 
Q 969 -75 630 194 
Q 291 463 197 991 
z
" transform="scale(0.015625)"/>
       <path id="ArialMT-29" d="M 791 -1347 
L 388 -1347 
Q 1322 153 1322 1656 
Q 1322 2244 1188 2822 
Q 1081 3291 891 3722 
Q 769 4003 388 4659 
L 791 4659 
Q 1378 3875 1659 3084 
Q 1900 2403 1900 1659 
Q 1900 816 1576 28 
Q 1253 -759 791 -1347 
z
" transform="scale(0.015625)"/>
      </defs>
      <use xlink:href="#ArialMT-54"/>
      <use xlink:href="#ArialMT-69" x="57.333984"/>
      <use xlink:href="#ArialMT-6d" x="79.550781"/>
      <use xlink:href="#ArialMT-65" x="162.851562"/>
      <use xlink:href="#ArialMT-28" x="218.466797"/>
      <use xlink:href="#ArialMT-6d" x="251.767578"/>
      <use xlink:href="#ArialMT-73" x="335.068359"/>
      <use xlink:href="#ArialMT-29" x="385.068359"/>
     </g>
    </g>
   </g>
   <g id="matplotlib.axis_2">
    <g id="ytick_1">
     <g id="line2d_5">
      <defs>
       <path id="mb4fe77d265" d="M 0 0 
L -3.5 0 
" style="stroke: #000000; stroke-width: 0.8"/>
      </defs>
      <g>
       <use xlink:href="#mb4fe77d265" x="72" y="476.82" style="stroke: #000000; stroke-width: 0.8"/>
      </g>
     </g>
     <g id="text_6">
      <!-- −100 -->
      <g transform="translate(4.572187 485.178281)scale(0.22 -0.22)">
       <defs>
        <path id="DejaVuSans-2212" d="M 678 2272 
L 4684 2272 
L 4684 1741 
L 678 1741 
L 678 2272 
z
" transform="scale(0.015625)"/>
       </defs>
       <use xlink:href="#DejaVuSans-2212"/>
       <use xlink:href="#DejaVuSans-31" x="83.789062"/>
       <use xlink:href="#DejaVuSans-30" x="147.412109"/>
       <use xlink:href="#DejaVuSans-30" x="211.035156"/>
      </g>
     </g>
    </g>
    <g id="ytick_2">
     <g id="line2d_6">
      <g>
       <use xlink:href="#mb4fe77d265" x="72" y="422.46" style="stroke: #000000; stroke-width: 0.8"/>
      </g>
     </g>
     <g id="text_7">
      <!-- −80 -->
      <g transform="translate(18.569688 430.818281)scale(0.22 -0.22)">
       <defs>
        <path id="DejaVuSans-38" d="M 2034 2216 
Q 1584 2216 1326 1975 
Q 1069 1734 1069 1313 
Q 1069 891 1326 650 
Q 1584 409 2034 409 
Q 2484 409 2743 651 
Q 3003 894 3003 1313 
Q 3003 1734 2745 1975 
Q 2488 2216 2034 2216 
z
M 1403 2484 
Q 997 2584 770 2862 
Q 544 3141 544 3541 
Q 544 4100 942 4425 
Q 1341 4750 2034 4750 
Q 2731 4750 3128 4425 
Q 3525 4100 3525 3541 
Q 3525 3141 3298 2862 
Q 3072 2584 2669 2484 
Q 3125 2378 3379 2068 
Q 3634 1759 3634 1313 
Q 3634 634 3220 271 
Q 2806 -91 2034 -91 
Q 1263 -91 848 271 
Q 434 634 434 1313 
Q 434 1759 690 2068 
Q 947 2378 1403 2484 
z
M 1172 3481 
Q 1172 3119 1398 2916 
Q 1625 2713 2034 2713 
Q 2441 2713 2670 2916 
Q 2900 3119 2900 3481 
Q 2900 3844 2670 4047 
Q 2441 4250 2034 4250 
Q 1625 4250 1398 4047 
Q 1172 3844 1172 3481 
z
" transform="scale(0.015625)"/>
       </defs>
       <use xlink:href="#DejaVuSans-2212"/>
       <use xlink:href="#DejaVuSans-38" x="83.789062"/>
       <use xlink:href="#DejaVuSans-30" x="147.412109"/>
      </g>
     </g>
    </g>
    <g id="ytick_3">
     <g id="line2d_7">
      <g>
       <use xlink:href="#mb4fe77d265" x="72" y="368.1" style="stroke: #000000; stroke-width: 0.8"/>
      </g>
     </g>
     <g id="text_8">
      <!-- −60 -->
      <g transform="translate(18.569688 376.458281)scale(0.22 -0.22)">
       <defs>
        <path id="DejaVuSans-36" d="M 2113 2584 
Q 1688 2584 1439 2293 
Q 1191 2003 1191 1497 
Q 1191 994 1439 701 
Q 1688 409 2113 409 
Q 2538 409 2786 701 
Q 3034 994 3034 1497 
Q 3034 2003 2786 2293 
Q 2538 2584 2113 2584 
z
M 3366 4563 
L 3366 3988 
Q 3128 4100 2886 4159 
Q 2644 4219 2406 4219 
Q 1781 4219 1451 3797 
Q 1122 3375 1075 2522 
Q 1259 2794 1537 2939 
Q 1816 3084 2150 3084 
Q 2853 3084 3261 2657 
Q 3669 2231 3669 1497 
Q 3669 778 3244 343 
Q 2819 -91 2113 -91 
Q 1303 -91 875 529 
Q 447 1150 447 2328 
Q 447 3434 972 4092 
Q 1497 4750 2381 4750 
Q 2619 4750 2861 4703 
Q 3103 4656 3366 4563 
z
" transform="scale(0.015625)"/>
       </defs>
       <use xlink:href="#DejaVuSans-2212"/>
       <use xlink:href="#DejaVuSans-36" x="83.789062"/>
       <use xlink:href="#DejaVuSans-30" x="147.412109"/>
      </g>
     </g>
    </g>
    <g id="ytick_4">
     <g id="line2d_8">
      <g>
       <use xlink:href="#mb4fe77d265" x="72" y="313.74" style="stroke: #000000; stroke-width: 0.8"/>
      </g>
     </g>
     <g id="text_9">
      <!-- −40 -->
      <g transform="translate(18.569688 322.098281)scale(0.22 -0.22)">
       <defs>
        <path id="DejaVuSans-34" d="M 2419 4116 
L 825 1625 
L 2419 1625 
L 2419 4116 
z
M 2253 4666 
L 3047 4666 
L 3047 1625 
L 3713 1625 
L 3713 1100 
L 3047 1100 
L 3047 0 
L 2419 0 
L 2419 1100 
L 313 1100 
L 313 1709 
L 2253 4666 
z
" transform="scale(0.015625)"/>
       </defs>
       <use xlink:href="#DejaVuSans-2212"/>
       <use xlink:href="#DejaVuSans-34" x="83.789062"/>
       <use xlink:href="#DejaVuSans-30" x="147.412109"/>
      </g>
     </g>
    </g>
    <g id="ytick_5">
     <g id="line2d_9">
      <g>
       <use xlink:href="#mb4fe77d265" x="72" y="259.38" style="stroke: #000000; stroke-width: 0.8"/>
      </g>
     </g>
     <g id="text_10">
      <!-- −20 -->
      <g transform="translate(18.569688 267.738281)scale(0.22 -0.22)">
       <use xlink:href="#DejaVuSans-2212"/>
       <use xlink:href="#DejaVuSans-32" x="83.789062"/>
       <use xlink:href="#DejaVuSans-30" x="147.412109"/>
      </g>
     </g>
    </g>
    <g id="ytick_6">
     <g id="line2d_10">
      <g>
       <use xlink:href="#mb4fe77d265" x="72" y="205.02" style="stroke: #000000; stroke-width: 0.8"/>
      </g>
     </g>
     <g id="text_11">
      <!-- 0 -->
      <g transform="translate(51.0025 213.378281)scale(0.22 -0.22)">
       <use xlink:href="#DejaVuSans-30"/>
      </g>
     </g>
    </g>
    <g id="ytick_7">
     <g id="line2d_11">
      <g>
       <use xlink:href="#mb4fe77d265" x="72" y="150.66" style="stroke: #000000; stroke-width: 0.8"/>
      </g>
     </g>
     <g id="text_12">
      <!-- 20 -->
      <g transform="translate(37.005 159.018281)scale(0.22 -0.22)">
       <use xlink:href="#DejaVuSans-32"/>
       <use xlink:href="#DejaVuSans-30" x="63.623047"/>
      </g>
     </g>
    </g>
    <g id="ytick_8">
     <g id="line2d_12">
      <g>
       <use xlink:href="#mb4fe77d265" x="72" y="96.3" style="stroke: #000000; stroke-width: 0.8"/>
      </g>
     </g>
     <g id="text_13">
      <!-- 40 -->
      <g transform="translate(37.005 104.658281)scale(0.22 -0.22)">
       <use xlink:href="#DejaVuSans-34"/>
       <use xlink:href="#DejaVuSans-30" x="63.623047"/>
      </g>
     </g>
    </g>
    <g id="text_14">
     <!-- Membrane potential (mV) -->
     <g transform="translate(-4.058125 410.655469)rotate(-90)scale(0.22 -0.22)">
      <defs>
       <path id="ArialMT-4d" d="M 475 0 
L 475 4581 
L 1388 4581 
L 2472 1338 
Q 2622 884 2691 659 
Q 2769 909 2934 1394 
L 4031 4581 
L 4847 4581 
L 4847 0 
L 4263 0 
L 4263 3834 
L 2931 0 
L 2384 0 
L 1059 3900 
L 1059 0 
L 475 0 
z
" transform="scale(0.015625)"/>
       <path id="ArialMT-62" d="M 941 0 
L 419 0 
L 419 4581 
L 981 4581 
L 981 2947 
Q 1338 3394 1891 3394 
Q 2197 3394 2470 3270 
Q 2744 3147 2920 2923 
Q 3097 2700 3197 2384 
Q 3297 2069 3297 1709 
Q 3297 856 2875 390 
Q 2453 -75 1863 -75 
Q 1275 -75 941 416 
L 941 0 
z
M 934 1684 
Q 934 1088 1097 822 
Q 1363 388 1816 388 
Q 2184 388 2453 708 
Q 2722 1028 2722 1663 
Q 2722 2313 2464 2622 
Q 2206 2931 1841 2931 
Q 1472 2931 1203 2611 
Q 934 2291 934 1684 
z
" transform="scale(0.015625)"/>
       <path id="ArialMT-72" d="M 416 0 
L 416 3319 
L 922 3319 
L 922 2816 
Q 1116 3169 1280 3281 
Q 1444 3394 1641 3394 
Q 1925 3394 2219 3213 
L 2025 2691 
Q 1819 2813 1613 2813 
Q 1428 2813 1281 2702 
Q 1134 2591 1072 2394 
Q 978 2094 978 1738 
L 978 0 
L 416 0 
z
" transform="scale(0.015625)"/>
       <path id="ArialMT-61" d="M 2588 409 
Q 2275 144 1986 34 
Q 1697 -75 1366 -75 
Q 819 -75 525 192 
Q 231 459 231 875 
Q 231 1119 342 1320 
Q 453 1522 633 1644 
Q 813 1766 1038 1828 
Q 1203 1872 1538 1913 
Q 2219 1994 2541 2106 
Q 2544 2222 2544 2253 
Q 2544 2597 2384 2738 
Q 2169 2928 1744 2928 
Q 1347 2928 1158 2789 
Q 969 2650 878 2297 
L 328 2372 
Q 403 2725 575 2942 
Q 747 3159 1072 3276 
Q 1397 3394 1825 3394 
Q 2250 3394 2515 3294 
Q 2781 3194 2906 3042 
Q 3031 2891 3081 2659 
Q 3109 2516 3109 2141 
L 3109 1391 
Q 3109 606 3145 398 
Q 3181 191 3288 0 
L 2700 0 
Q 2613 175 2588 409 
z
M 2541 1666 
Q 2234 1541 1622 1453 
Q 1275 1403 1131 1340 
Q 988 1278 909 1158 
Q 831 1038 831 891 
Q 831 666 1001 516 
Q 1172 366 1500 366 
Q 1825 366 2078 508 
Q 2331 650 2450 897 
Q 2541 1088 2541 1459 
L 2541 1666 
z
" transform="scale(0.015625)"/>
       <path id="ArialMT-6e" d="M 422 0 
L 422 3319 
L 928 3319 
L 928 2847 
Q 1294 3394 1984 3394 
Q 2284 3394 2536 3286 
Q 2788 3178 2913 3003 
Q 3038 2828 3088 2588 
Q 3119 2431 3119 2041 
L 3119 0 
L 2556 0 
L 2556 2019 
Q 2556 2363 2490 2533 
Q 2425 2703 2258 2804 
Q 2091 2906 1866 2906 
Q 1506 2906 1245 2678 
Q 984 2450 984 1813 
L 984 0 
L 422 0 
z
" transform="scale(0.015625)"/>
       <path id="ArialMT-20" transform="scale(0.015625)"/>
       <path id="ArialMT-70" d="M 422 -1272 
L 422 3319 
L 934 3319 
L 934 2888 
Q 1116 3141 1344 3267 
Q 1572 3394 1897 3394 
Q 2322 3394 2647 3175 
Q 2972 2956 3137 2557 
Q 3303 2159 3303 1684 
Q 3303 1175 3120 767 
Q 2938 359 2589 142 
Q 2241 -75 1856 -75 
Q 1575 -75 1351 44 
Q 1128 163 984 344 
L 984 -1272 
L 422 -1272 
z
M 931 1641 
Q 931 1000 1190 694 
Q 1450 388 1819 388 
Q 2194 388 2461 705 
Q 2728 1022 2728 1688 
Q 2728 2322 2467 2637 
Q 2206 2953 1844 2953 
Q 1484 2953 1207 2617 
Q 931 2281 931 1641 
z
" transform="scale(0.015625)"/>
       <path id="ArialMT-6f" d="M 213 1659 
Q 213 2581 725 3025 
Q 1153 3394 1769 3394 
Q 2453 3394 2887 2945 
Q 3322 2497 3322 1706 
Q 3322 1066 3130 698 
Q 2938 331 2570 128 
Q 2203 -75 1769 -75 
Q 1072 -75 642 372 
Q 213 819 213 1659 
z
M 791 1659 
Q 791 1022 1069 705 
Q 1347 388 1769 388 
Q 2188 388 2466 706 
Q 2744 1025 2744 1678 
Q 2744 2294 2464 2611 
Q 2184 2928 1769 2928 
Q 1347 2928 1069 2612 
Q 791 2297 791 1659 
z
" transform="scale(0.015625)"/>
       <path id="ArialMT-74" d="M 1650 503 
L 1731 6 
Q 1494 -44 1306 -44 
Q 1000 -44 831 53 
Q 663 150 594 308 
Q 525 466 525 972 
L 525 2881 
L 113 2881 
L 113 3319 
L 525 3319 
L 525 4141 
L 1084 4478 
L 1084 3319 
L 1650 3319 
L 1650 2881 
L 1084 2881 
L 1084 941 
Q 1084 700 1114 631 
Q 1144 563 1211 522 
Q 1278 481 1403 481 
Q 1497 481 1650 503 
z
" transform="scale(0.015625)"/>
       <path id="ArialMT-6c" d="M 409 0 
L 409 4581 
L 972 4581 
L 972 0 
L 409 0 
z
" transform="scale(0.015625)"/>
       <path id="ArialMT-56" d="M 1803 0 
L 28 4581 
L 684 4581 
L 1875 1253 
Q 2019 853 2116 503 
Q 2222 878 2363 1253 
L 3600 4581 
L 4219 4581 
L 2425 0 
L 1803 0 
z
" transform="scale(0.015625)"/>
      </defs>
      <use xlink:href="#ArialMT-4d"/>
      <use xlink:href="#ArialMT-65" x="83.300781"/>
      <use xlink:href="#ArialMT-6d" x="138.916016"/>
      <use xlink:href="#ArialMT-62" x="222.216797"/>
      <use xlink:href="#ArialMT-72" x="277.832031"/>
      <use xlink:href="#ArialMT-61" x="311.132812"/>
      <use xlink:href="#ArialMT-6e" x="366.748047"/>
      <use xlink:href="#ArialMT-65" x="422.363281"/>
      <use xlink:href="#ArialMT-20" x="477.978516"/>
      <use xlink:href="#ArialMT-70" x="505.761719"/>
      <use xlink:href="#ArialMT-6f" x="561.376953"/>
      <use xlink:href="#ArialMT-74" x="616.992188"/>
      <use xlink:href="#ArialMT-65" x="644.775391"/>
      <use xlink:href="#ArialMT-6e" x="700.390625"/>
      <use xlink:href="#ArialMT-74" x="756.005859"/>
      <use xlink:href="#ArialMT-69" x="783.789062"/>
      <use xlink:href="#ArialMT-61" x="806.005859"/>
      <use xlink:href="#ArialMT-6c" x="861.621094"/>
      <use xlink:href="#ArialMT-20" x="883.837891"/>
      <use xlink:href="#ArialMT-28" x="911.621094"/>
      <use xlink:href="#ArialMT-6d" x="944.921875"/>
      <use xlink:href="#ArialMT-56" x="1028.222656"/>
      <use xlink:href="#ArialMT-29" x="1094.921875"/>
     </g>
    </g>
   </g>
   <g id="line2d_13">
    <path d="M 92.290909 460.512 
L 92.493818 465.868793 
L 92.899636 468.888283 
L 93.440727 471.29112 
L 93.981818 472.670988 
L 94.522909 473.448688 
L 95.131636 473.920822 
L 95.875636 474.199717 
L 97.025455 474.359127 
L 99.528 474.419069 
L 125.229818 474.423146 
L 159.927273 474.423157 
L 160.130182 456.178343 
L 160.536 444.418439 
L 161.077091 434.650748 
L 161.685818 427.269471 
L 162.429818 420.956299 
L 163.241455 415.971024 
L 164.120727 411.898846 
L 165.135273 408.274147 
L 166.217455 405.232976 
L 167.434909 402.488781 
L 168.787636 400.008882 
L 170.275636 397.751231 
L 171.966545 395.588111 
L 174.063273 393.283375 
L 176.971636 390.440306 
L 180.624 386.843972 
L 182.044364 385.118892 
L 182.856 383.787242 
L 183.126545 383.102843 
L 183.397091 381.747951 
L 183.464727 381.820885 
L 183.938182 382.303858 
L 184.411636 382.441741 
L 184.885091 382.32478 
L 185.493818 381.911534 
L 185.967273 381.355787 
L 186.237818 380.861487 
L 186.981818 380.348 
L 187.658182 379.590594 
L 188.334545 378.505093 
L 189.754909 375.823721 
L 190.363636 374.469521 
L 190.769455 372.984868 
L 191.107636 370.220303 
L 191.242909 369.462184 
L 191.445818 370.056568 
L 191.784 370.926424 
L 192.122182 371.295098 
L 192.460364 371.343192 
L 192.730909 371.113137 
L 193.069091 370.452576 
L 193.542545 370.240719 
L 193.948364 369.760557 
L 194.286545 369.055226 
L 194.76 367.863496 
L 195.098182 366.986485 
L 195.774545 363.393165 
L 196.112727 361.993307 
L 196.586182 360.790042 
L 196.856727 358.9075 
L 197.465455 357.965479 
L 198.074182 355.362254 
L 198.412364 353.158886 
L 198.750545 349.39502 
L 199.021091 343.656016 
L 199.224 333.368498 
L 199.291636 325.246925 
L 199.359273 301.779131 
L 199.426909 158.813884 
L 199.629818 371.12542 
L 199.765091 383.139841 
L 199.832727 383.241986 
L 199.968 381.463363 
L 200.238545 377.975904 
L 200.982545 371.952673 
L 201.050182 371.993621 
L 201.861818 373.315369 
L 202.267636 373.46359 
L 202.673455 373.368357 
L 202.876364 373.126409 
L 203.146909 372.707358 
L 203.688 372.264805 
L 204.026182 371.712094 
L 204.364364 371.12885 
L 204.634909 370.607338 
L 204.973091 370.105069 
L 205.581818 369.28516 
L 205.987636 368.22995 
L 206.325818 366.782313 
L 206.461091 365.82883 
L 206.799273 362.04344 
L 207.002182 361.606711 
L 207.137455 361.48824 
L 207.340364 361.389367 
L 207.408 361.385957 
L 207.610909 360.42323 
L 207.678545 360.515339 
L 208.219636 361.973845 
L 208.693091 362.413599 
L 208.963636 362.41026 
L 209.234182 362.201299 
L 209.64 361.546408 
L 210.045818 360.460011 
L 210.451636 358.617568 
L 211.330909 352.979531 
L 211.669091 348.594671 
L 211.872 343.666583 
L 212.007273 336.618095 
L 212.142545 318.050777 
L 212.210182 208.72347 
L 212.277818 240.115551 
L 212.480727 378.961707 
L 212.616 385.655455 
L 212.683636 385.413657 
L 213.901091 374.180409 
L 214.509818 373.851694 
L 214.712727 373.497245 
L 214.915636 372.249176 
L 214.983273 372.280813 
L 215.321455 372.606653 
L 215.592 372.7478 
L 216.200727 373.098167 
L 216.538909 373.030697 
L 216.877091 372.730692 
L 217.282909 372.051989 
L 217.553455 371.282567 
L 217.688727 370.264313 
L 217.891636 369.473057 
L 218.297455 369.327553 
L 219.853091 366.624924 
L 220.191273 365.33463 
L 220.461818 363.357337 
L 220.732364 361.298494 
L 221.273455 360.161187 
L 221.408727 360.152341 
L 221.679273 360.286369 
L 221.882182 360.042744 
L 222.085091 359.417281 
L 222.288 358.020253 
L 222.558545 353.942981 
L 222.693818 353.87234 
L 222.964364 354.03817 
L 223.167273 353.741908 
L 223.437818 352.766164 
L 223.776 350.557886 
L 224.114182 346.411971 
L 224.384727 339.516475 
L 224.52 331.569782 
L 224.587636 322.993211 
L 224.655273 294.949886 
L 224.722909 174.78441 
L 224.925818 371.773585 
L 225.061091 383.17131 
L 225.128727 383.426346 
L 225.331636 381.357114 
L 225.805091 376.935581 
L 226.346182 374.176067 
L 226.616727 372.726592 
L 226.954909 370.583355 
L 227.090182 370.394913 
L 227.766545 370.460637 
L 227.969455 370.124652 
L 228.307636 369.292215 
L 228.578182 368.563495 
L 228.984 366.566057 
L 229.254545 366.429282 
L 229.389818 366.041694 
L 229.592727 364.918487 
L 229.728 365.151125 
L 230.133818 365.983461 
L 230.472 366.187568 
L 230.810182 366.154915 
L 231.148364 365.81761 
L 231.486545 365.14157 
L 232.839273 360.199945 
L 233.042182 358.442708 
L 233.380364 355.568068 
L 233.650909 353.70718 
L 234.259636 346.781503 
L 234.462545 339.711642 
L 234.597818 330.078047 
L 234.665455 319.845314 
L 234.800727 210.03237 
L 235.003636 376.806686 
L 235.138909 385.785582 
L 235.206545 385.782093 
L 236.288727 377.340869 
L 236.965091 375.561063 
L 237.979636 373.307414 
L 238.317818 372.985561 
L 238.723636 372.223855 
L 239.197091 370.942545 
L 239.4 369.48071 
L 239.602909 368.647668 
L 240.008727 368.196666 
L 240.211636 367.410036 
L 240.346909 366.865472 
L 240.617455 367.621179 
L 241.023273 368.481432 
L 241.361455 368.802305 
L 241.699636 368.820682 
L 241.970182 368.625505 
L 242.240727 368.189801 
L 242.443636 366.907244 
L 242.511273 366.926913 
L 242.984727 367.521673 
L 243.255273 367.428216 
L 243.525818 367.049577 
L 243.728727 366.305781 
L 243.999273 365.406721 
L 244.540364 364.272809 
L 245.419636 360.400087 
L 245.622545 357.968366 
L 245.960727 355.443604 
L 246.298909 352.650583 
L 246.501818 349.378094 
L 246.772364 340.753026 
L 246.975273 326.200734 
L 247.042909 309.475476 
L 247.110545 148.928343 
L 247.313455 367.64874 
L 247.516364 384.580869 
L 247.651636 383.669063 
L 248.260364 378.199832 
L 248.801455 374.964818 
L 249.207273 374.539788 
L 249.613091 373.779131 
L 250.018909 372.881142 
L 250.762909 371.636342 
L 250.965818 370.888534 
L 251.304 368.91393 
L 251.777455 369.197737 
L 252.115636 369.076105 
L 252.453818 368.687743 
L 252.656727 368.156565 
L 253.197818 365.980918 
L 253.468364 363.847323 
L 253.671273 363.521322 
L 253.874182 363.338012 
L 254.212364 362.766152 
L 254.347636 362.711376 
L 254.550545 362.187654 
L 254.685818 361.351119 
L 254.888727 360.316871 
L 255.226909 360.444587 
L 255.362182 360.093669 
L 255.632727 358.493664 
L 256.106182 358.363552 
L 256.309091 357.974865 
L 256.850182 355.865485 
L 257.188364 353.574358 
L 257.661818 347.303302 
L 257.932364 339.630492 
L 258.067636 330.625665 
L 258.135273 320.040857 
L 258.270545 214.130493 
L 258.473455 375.702393 
L 258.608727 384.030247 
L 258.676364 384.01697 
L 258.946909 380.797486 
L 259.826182 370.444936 
L 260.096727 370.537747 
L 260.299636 370.254777 
L 260.705455 370.450083 
L 260.840727 369.549094 
L 260.908364 369.58232 
L 261.72 371.14763 
L 262.058182 371.203228 
L 262.328727 371.032758 
L 264.087273 367.776233 
L 264.290182 366.75302 
L 264.493091 365.286133 
L 264.628364 365.314291 
L 264.966545 365.444739 
L 265.237091 365.272429 
L 265.507636 364.808761 
L 265.710545 363.936007 
L 266.454545 360.053968 
L 266.725091 356.357912 
L 266.860364 356.247207 
L 267.333818 356.781484 
L 267.536727 356.682221 
L 267.739636 356.314452 
L 268.010182 355.33095 
L 268.280727 353.45043 
L 268.686545 348.367431 
L 268.889455 343.412 
L 269.092364 329.902602 
L 269.16 317.455359 
L 269.227636 204.210775 
L 269.295273 243.748929 
L 269.498182 378.63401 
L 269.633455 385.323241 
L 269.701091 385.067277 
L 270.445091 378.115188 
L 270.918545 375.925609 
L 272.609455 369.901074 
L 273.015273 366.312245 
L 273.218182 366.752344 
L 273.421091 367.05039 
L 273.624 366.34336 
L 273.962182 367.419342 
L 274.300364 368.216233 
L 274.638545 368.603766 
L 275.112 369.128137 
L 275.450182 369.210583 
L 275.720727 369.058317 
L 276.194182 368.206448 
L 277.682182 364.85093 
L 278.020364 363.097323 
L 278.223273 361.068927 
L 278.493818 357.99011 
L 278.629091 356.584329 
L 278.899636 354.389606 
L 279.237818 353.005693 
L 279.576 349.284762 
L 280.252364 339.448623 
L 280.387636 333.430252 
L 280.522909 315.4517 
L 280.590545 215.101444 
L 280.658182 248.158471 
L 280.861091 376.257633 
L 280.996364 383.604593 
L 281.064 383.571502 
L 282.213818 375.02725 
L 283.431273 369.742011 
L 283.634182 369.74604 
L 284.175273 369.549597 
L 284.445818 368.997456 
L 284.784 368.721276 
L 285.122182 367.991276 
L 285.257455 367.337412 
L 285.460364 366.008174 
L 285.866182 365.832819 
L 286.069091 365.27414 
L 286.474909 363.061427 
L 286.542545 363.095511 
L 287.421818 364.249896 
L 287.624727 364.181866 
L 287.76 363.911137 
L 288.098182 362.193628 
L 288.165818 362.21375 
L 288.706909 362.510532 
L 288.977455 362.371353 
L 289.248 361.965212 
L 289.653818 360.904314 
L 290.059636 359.196174 
L 290.330182 357.191221 
L 290.668364 353.48427 
L 291.006545 348.066601 
L 291.277091 339.935322 
L 291.412364 328.558321 
L 291.48 313.498181 
L 291.547636 148.932786 
L 291.750545 366.446025 
L 291.953455 384.20637 
L 292.088727 383.367194 
L 292.765091 377.730419 
L 293.576727 373.394611 
L 293.779636 373.481724 
L 294.320727 373.789836 
L 294.591273 373.698951 
L 294.794182 373.438638 
L 295.064727 373.202608 
L 295.673455 372.904817 
L 296.079273 372.404221 
L 296.485091 371.508555 
L 296.755636 370.40941 
L 296.890909 369.479388 
L 297.093818 367.448252 
L 297.229091 367.224105 
L 297.634909 367.397774 
L 297.770182 367.134539 
L 297.973091 366.054674 
L 298.378909 366.594084 
L 298.717091 366.989254 
L 298.852364 366.922809 
L 299.122909 366.758466 
L 299.664 366.616647 
L 300.002182 366.24769 
L 300.205091 365.836615 
L 300.610909 364.695079 
L 301.016727 363.520471 
L 301.422545 361.597015 
L 301.625455 359.507325 
L 301.896 357.198564 
L 302.166545 355.288163 
L 302.504727 350.248668 
L 302.842909 344.92987 
L 303.113455 335.434259 
L 303.248727 322.10032 
L 303.316364 293.973723 
L 303.384 178.505522 
L 303.586909 371.887434 
L 303.722182 382.666594 
L 303.789818 383.073539 
L 303.925091 382.245883 
L 304.601455 377.124947 
L 305.277818 374.119698 
L 305.751273 371.719203 
L 305.954182 370.540877 
L 306.495273 370.628171 
L 306.698182 370.40482 
L 307.171636 370.403652 
L 307.442182 370.199 
L 308.186182 369.937872 
L 308.524364 369.485598 
L 308.862545 368.64787 
L 309.065455 367.565298 
L 309.471273 364.9229 
L 309.606545 364.889889 
L 309.944727 365.189883 
L 310.147636 365.031252 
L 310.350545 364.459548 
L 310.621091 362.261728 
L 310.756364 361.220637 
L 310.891636 361.524026 
L 311.297455 362.82275 
L 311.973818 363.137209 
L 312.244364 363.152937 
L 312.514909 362.96009 
L 312.853091 362.423746 
L 313.258909 361.29195 
L 313.529455 359.945487 
L 314.070545 356.634521 
L 314.408727 353.799135 
L 314.746909 349.525418 
L 315.017455 343.269101 
L 315.220364 331.757955 
L 315.288 321.585261 
L 315.423273 203.32404 
L 315.626182 374.600741 
L 315.761455 383.009526 
L 315.829091 382.88049 
L 316.505455 377.099163 
L 317.114182 376.378022 
L 317.925818 375.671947 
L 318.669818 374.992667 
L 319.278545 374.046103 
L 319.549091 373.309876 
L 320.360727 370.603184 
L 320.631273 369.074954 
L 320.901818 369.016427 
L 321.375273 369.348574 
L 321.645818 369.185558 
L 321.916364 368.721701 
L 322.051636 368.0344 
L 322.254545 367.034795 
L 322.592727 367.049628 
L 322.795636 366.77006 
L 323.066182 365.660486 
L 323.336727 364.50289 
L 323.674909 361.825593 
L 324.013091 360.984059 
L 324.418909 360.545397 
L 324.554182 360.05382 
L 324.757091 358.575223 
L 324.96 358.432971 
L 325.162909 358.292726 
L 325.501091 357.633275 
L 326.042182 355.82085 
L 326.312727 354.46861 
L 326.515636 352.684685 
L 327.124364 339.384053 
L 327.259636 331.285663 
L 327.327273 322.542053 
L 327.394909 293.062512 
L 327.462545 179.252708 
L 327.665455 372.205695 
L 327.800727 383.041531 
L 327.868364 383.112428 
L 328.206545 378.476318 
L 328.68 372.872076 
L 329.018182 372.106882 
L 329.559273 370.915333 
L 329.965091 369.262568 
L 330.168 369.472182 
L 330.776727 370.24733 
L 331.114909 370.261266 
L 331.453091 370.05945 
L 331.858909 369.508161 
L 332.129455 368.735387 
L 332.467636 367.549676 
L 333.076364 365.965585 
L 333.346909 364.57406 
L 333.482182 362.297583 
L 333.685091 360.202262 
L 333.820364 360.244146 
L 334.023273 360.280115 
L 334.158545 359.946555 
L 334.564364 357.666681 
L 334.699636 357.843416 
L 335.105455 358.56917 
L 335.240727 358.558712 
L 335.646545 357.724031 
L 335.917091 356.901303 
L 336.187636 355.359629 
L 336.728727 350.203439 
L 336.999273 345.191672 
L 337.202182 337.996121 
L 337.337455 326.559732 
L 337.405091 308.801032 
L 337.472727 146.119764 
L 337.675636 367.783352 
L 337.810909 382.683968 
L 337.878545 382.712234 
L 338.690182 374.088653 
L 339.366545 371.16013 
L 339.637091 369.670038 
L 339.772364 369.752793 
L 340.178182 370.511161 
L 340.516364 370.588286 
L 340.989818 370.772268 
L 341.328 370.639711 
L 341.598545 370.275811 
L 342.545455 367.844718 
L 342.748364 366.384159 
L 342.951273 366.345105 
L 343.221818 366.225106 
L 343.492364 365.799211 
L 343.695273 365.124889 
L 343.965818 363.117471 
L 344.439273 363.078784 
L 344.642182 362.611408 
L 345.250909 359.940757 
L 345.927273 354.98952 
L 346.265455 353.568783 
L 346.603636 350.783718 
L 346.874182 346.326592 
L 347.077091 339.646609 
L 347.212364 329.008878 
L 347.28 314.175111 
L 347.347636 150.753731 
L 347.550545 365.931762 
L 347.753455 384.967171 
L 347.888727 383.987184 
L 348.700364 375.763617 
L 349.173818 374.650084 
L 349.714909 373.434679 
L 350.188364 372.061882 
L 351.067636 369.318143 
L 351.338182 367.890612 
L 351.676364 366.890579 
L 351.946909 365.316116 
L 352.014545 365.407498 
L 352.623273 366.525105 
L 352.758545 366.400927 
L 353.096727 366.016889 
L 353.367273 365.839303 
L 353.773091 365.678148 
L 354.043636 365.246887 
L 354.178909 364.490366 
L 354.381818 363.420616 
L 354.787636 363.405894 
L 355.058182 362.907955 
L 355.396364 361.746882 
L 355.666909 360.014381 
L 356.005091 356.297973 
L 356.275636 354.245371 
L 356.546182 352.244655 
L 356.952 345.416502 
L 357.222545 337.04339 
L 357.357818 326.397015 
L 357.425455 310.855721 
L 357.493091 153.547931 
L 357.696 365.524331 
L 357.898909 383.788771 
L 357.966545 383.602998 
L 358.981091 376.13693 
L 359.725091 373.191074 
L 360.198545 371.586841 
L 360.333818 370.852861 
L 360.536727 368.976639 
L 360.672 368.246868 
L 360.807273 367.545984 
L 360.942545 367.722832 
L 361.145455 367.951139 
L 361.754182 367.751646 
L 362.295273 366.34159 
L 362.971636 366.628834 
L 363.512727 366.069992 
L 363.783273 365.864579 
L 364.189091 365.185991 
L 364.662545 363.919238 
L 365.068364 362.153435 
L 365.338909 360.028425 
L 365.609455 356.541986 
L 365.88 352.850727 
L 366.218182 348.679822 
L 366.488727 341.138452 
L 366.691636 329.932994 
L 366.759273 321.201558 
L 366.826909 291.737887 
L 366.894545 184.493202 
L 367.097455 372.726939 
L 367.232727 384.086732 
L 367.300364 384.435781 
L 367.503273 382.608557 
L 368.044364 377.759891 
L 368.653091 374.17395 
L 369.058909 372.895438 
L 369.397091 371.953775 
L 370.005818 369.857996 
L 370.208727 368.721451 
L 370.952727 368.991999 
L 371.223273 368.632586 
L 371.426182 368.048387 
L 371.899636 365.786585 
L 372.102545 363.424515 
L 372.237818 363.221312 
L 372.440727 363.655717 
L 372.778909 364.27404 
L 372.981818 364.293324 
L 373.117091 363.961442 
L 373.387636 363.146149 
L 373.928727 362.669424 
L 374.266909 361.841617 
L 374.605091 360.309991 
L 374.740364 359.24675 
L 375.010909 356.128996 
L 375.754909 351.026094 
L 376.025455 346.424676 
L 376.228364 340.114358 
L 376.363636 330.190003 
L 376.431273 317.722304 
L 376.498909 205.231288 
L 376.566545 242.149137 
L 376.769455 378.235923 
L 376.904727 384.964925 
L 376.972364 384.766535 
L 377.310545 380.836921 
L 377.581091 377.541076 
L 378.122182 374.646105 
L 378.730909 372.616599 
L 379.001455 370.744878 
L 379.610182 371.33789 
L 380.083636 371.606284 
L 380.421818 371.539588 
L 380.76 371.208358 
L 380.962909 370.674874 
L 381.301091 370.048378 
L 381.639273 369.339231 
L 381.909818 368.308561 
L 382.450909 365.627778 
L 382.856727 365.114936 
L 383.465455 363.060407 
L 383.668364 361.620373 
L 383.938909 357.584235 
L 384.141818 357.715756 
L 384.344727 358.078879 
L 384.615273 358.510175 
L 384.750545 358.494137 
L 384.953455 358.20922 
L 385.224 357.421641 
L 385.562182 355.640304 
L 385.832727 352.988358 
L 386.306182 343.64315 
L 386.509091 336.736086 
L 386.644364 325.036796 
L 386.712 305.618655 
L 386.779636 152.463678 
L 386.982545 368.613087 
L 387.185455 383.753616 
L 387.320727 382.716229 
L 387.997091 376.068572 
L 388.538182 372.403343 
L 389.214545 371.154678 
L 389.688 369.243081 
L 390.161455 366.255451 
L 390.296727 366.134739 
L 390.634909 366.229391 
L 390.905455 365.545958 
L 391.040727 365.626809 
L 391.649455 366.321045 
L 391.92 366.280252 
L 392.190545 365.93128 
L 392.461091 365.135402 
L 392.596364 363.964751 
L 392.799273 362.835144 
L 392.934545 362.739756 
L 393.678545 362.954287 
L 393.881455 362.879536 
L 394.625455 361.633265 
L 394.963636 360.800841 
L 395.369455 359.082863 
L 395.707636 356.684086 
L 396.045818 352.090761 
L 396.248727 347.593429 
L 396.519273 335.766406 
L 396.654545 316.551387 
L 396.722182 183.500267 
L 396.789818 253.948742 
L 396.992727 378.183746 
L 397.128 384.41922 
L 397.195636 384.29608 
L 398.210182 377.137587 
L 398.886545 375.294988 
L 399.562909 374.470761 
L 400.171636 373.632206 
L 400.645091 372.604291 
L 401.253818 370.440386 
L 401.524364 368.965861 
L 401.930182 365.422426 
L 402.133091 363.608448 
L 402.200727 363.627431 
L 402.538909 364.281505 
L 402.674182 363.598125 
L 402.809455 363.965821 
L 403.418182 366.497728 
L 403.756364 367.033116 
L 404.094545 367.185766 
L 404.432727 367.073414 
L 404.770909 366.705582 
L 405.109091 365.986411 
L 405.514909 364.664667 
L 405.785455 363.696609 
L 406.529455 360.250849 
L 406.732364 358.226553 
L 407.408727 355.428075 
L 407.882182 351.554412 
L 408.017455 349.314874 
L 408.423273 335.887162 
L 408.558545 320.919042 
L 408.693818 200.250816 
L 408.896727 374.081772 
L 409.032 383.285242 
L 409.099636 383.404274 
L 409.437818 380.388801 
L 410.114182 375.537667 
L 410.52 373.518586 
L 410.655273 373.015445 
L 410.858182 371.781722 
L 411.061091 371.98724 
L 411.331636 372.173548 
L 411.602182 372.002298 
L 412.278545 372.355966 
L 412.616727 372.234207 
L 413.157818 371.751339 
L 413.631273 370.995011 
L 413.901818 370.183647 
L 414.781091 366.826265 
L 414.984 364.904841 
L 415.254545 363.486682 
L 415.322182 363.53837 
L 415.863273 363.905601 
L 416.066182 363.924804 
L 416.269091 363.657732 
L 416.404364 363.156702 
L 416.742545 361.484229 
L 417.486545 360.318412 
L 418.771636 354.955518 
L 419.109818 351.831267 
L 419.448 346.229034 
L 419.650909 339.573805 
L 419.786182 329.52085 
L 419.853818 316.32557 
L 419.921455 177.745155 
L 419.989091 255.217655 
L 420.192 377.910856 
L 420.327273 382.829609 
L 420.597818 380.352246 
L 421.071273 376.972484 
L 422.085818 372.015398 
L 422.288727 372.089938 
L 422.762182 372.319775 
L 423.032727 372.203357 
L 423.641455 371.250805 
L 423.912 370.640809 
L 424.385455 369.911947 
L 424.588364 369.319712 
L 424.926545 367.598984 
L 424.994182 367.612865 
L 425.264727 367.607446 
L 425.602909 367.337548 
L 425.805818 367.01938 
L 426.549818 364.914797 
L 427.090909 361.481742 
L 427.293818 361.355485 
L 427.361455 361.153574 
L 427.564364 359.996464 
L 427.767273 360.344586 
L 428.037818 360.64213 
L 428.240727 360.5244 
L 428.511273 359.967515 
L 428.984727 358.024092 
L 429.187636 356.383412 
L 429.458182 353.290182 
L 429.796364 350.367854 
L 430.134545 344.51524 
L 430.405091 335.612222 
L 430.472727 331.144635 
L 430.878545 376.616572 
L 431.352 401.2762 
L 432.163636 430.777527 
L 432.907636 451.29811 
L 433.448727 461.059732 
L 433.989818 466.960303 
L 434.463273 469.992542 
L 434.936727 471.80545 
L 435.410182 472.881502 
L 435.951273 473.585364 
L 436.56 474.005856 
L 437.371636 474.264786 
L 438.656727 474.398486 
L 441.903273 474.432638 
L 498.109091 474.422934 
L 498.109091 474.422934 
" clip-path="url(#p04b806db62)" style="fill: none; stroke: #000000; stroke-width: 1.5; stroke-linecap: square"/>
   </g>
   <g id="line2d_14">
    <path d="M 497.973818 408.87 
" clip-path="url(#p04b806db62)" style="fill: none; stroke: #000000; stroke-width: 1.5; stroke-linecap: square"/>
   </g>
   <g id="line2d_15">
    <path d="M 430.472727 368.1 
L 430.472727 365.382 
L 430.472727 362.664 
L 430.472727 359.946 
L 430.472727 357.228 
L 430.472727 354.51 
L 430.472727 351.792 
L 430.472727 349.074 
L 430.472727 346.356 
L 430.472727 343.638 
L 430.472727 340.92 
L 430.472727 338.202 
L 430.472727 335.484 
L 430.472727 332.766 
L 430.472727 330.048 
L 430.472727 327.33 
L 430.472727 324.612 
L 430.472727 321.894 
L 430.472727 319.176 
L 430.472727 316.458 
" clip-path="url(#p04b806db62)" style="fill: none; stroke: #000000; stroke-width: 1.5; stroke-linecap: square"/>
   </g>
   <g id="patch_3">
    <path d="M 72 504 
L 72 69.12 
" style="fill: none; stroke: #000000; stroke-width: 0.8; stroke-linejoin: miter; stroke-linecap: square"/>
   </g>
   <g id="patch_4">
    <path d="M 518.4 504 
L 518.4 69.12 
" style="fill: none; stroke: #000000; stroke-width: 0.8; stroke-linejoin: miter; stroke-linecap: square"/>
   </g>
   <g id="patch_5">
    <path d="M 72 504 
L 518.4 504 
" style="fill: none; stroke: #000000; stroke-width: 0.8; stroke-linejoin: miter; stroke-linecap: square"/>
   </g>
   <g id="patch_6">
    <path d="M 72 69.12 
L 518.4 69.12 
" style="fill: none; stroke: #000000; stroke-width: 0.8; stroke-linejoin: miter; stroke-linecap: square"/>
   </g>
   <g id="text_15">
    <!-- 500 ms -->
    <g transform="translate(497.973818 406.152)scale(0.22 -0.22)">
     <defs>
      <path id="ArialMT-35" d="M 266 1200 
L 856 1250 
Q 922 819 1161 601 
Q 1400 384 1738 384 
Q 2144 384 2425 690 
Q 2706 997 2706 1503 
Q 2706 1984 2436 2262 
Q 2166 2541 1728 2541 
Q 1456 2541 1237 2417 
Q 1019 2294 894 2097 
L 366 2166 
L 809 4519 
L 3088 4519 
L 3088 3981 
L 1259 3981 
L 1013 2750 
Q 1425 3038 1878 3038 
Q 2478 3038 2890 2622 
Q 3303 2206 3303 1553 
Q 3303 931 2941 478 
Q 2500 -78 1738 -78 
Q 1113 -78 717 272 
Q 322 622 266 1200 
z
" transform="scale(0.015625)"/>
      <path id="ArialMT-30" d="M 266 2259 
Q 266 3072 433 3567 
Q 600 4063 929 4331 
Q 1259 4600 1759 4600 
Q 2128 4600 2406 4451 
Q 2684 4303 2865 4023 
Q 3047 3744 3150 3342 
Q 3253 2941 3253 2259 
Q 3253 1453 3087 958 
Q 2922 463 2592 192 
Q 2263 -78 1759 -78 
Q 1097 -78 719 397 
Q 266 969 266 2259 
z
M 844 2259 
Q 844 1131 1108 757 
Q 1372 384 1759 384 
Q 2147 384 2411 759 
Q 2675 1134 2675 2259 
Q 2675 3391 2411 3762 
Q 2147 4134 1753 4134 
Q 1366 4134 1134 3806 
Q 844 3388 844 2259 
z
" transform="scale(0.015625)"/>
     </defs>
     <use xlink:href="#ArialMT-35"/>
     <use xlink:href="#ArialMT-30" x="55.615234"/>
     <use xlink:href="#ArialMT-30" x="111.230469"/>
     <use xlink:href="#ArialMT-20" x="166.845703"/>
     <use xlink:href="#ArialMT-6d" x="194.628906"/>
     <use xlink:href="#ArialMT-73" x="277.929688"/>
    </g>
   </g>
   <g id="text_16">
    <!-- 20 mV -->
    <g transform="translate(504.737455 321.894)scale(0.22 -0.22)">
     <defs>
      <path id="ArialMT-32" d="M 3222 541 
L 3222 0 
L 194 0 
Q 188 203 259 391 
Q 375 700 629 1000 
Q 884 1300 1366 1694 
Q 2113 2306 2375 2664 
Q 2638 3022 2638 3341 
Q 2638 3675 2398 3904 
Q 2159 4134 1775 4134 
Q 1369 4134 1125 3890 
Q 881 3647 878 3216 
L 300 3275 
Q 359 3922 746 4261 
Q 1134 4600 1788 4600 
Q 2447 4600 2831 4234 
Q 3216 3869 3216 3328 
Q 3216 3053 3103 2787 
Q 2991 2522 2730 2228 
Q 2469 1934 1863 1422 
Q 1356 997 1212 845 
Q 1069 694 975 541 
L 3222 541 
z
" transform="scale(0.015625)"/>
     </defs>
     <use xlink:href="#ArialMT-32"/>
     <use xlink:href="#ArialMT-30" x="55.615234"/>
     <use xlink:href="#ArialMT-20" x="111.230469"/>
     <use xlink:href="#ArialMT-6d" x="139.013672"/>
     <use xlink:href="#ArialMT-56" x="222.314453"/>
    </g>
   </g>
   <g id="text_17">
    <!--  Plotting FS, trace number 14554  -->
    <g transform="translate(130.732812 63.12)scale(0.22 -0.22)">
     <defs>
      <path id="ArialMT-50" d="M 494 0 
L 494 4581 
L 2222 4581 
Q 2678 4581 2919 4538 
Q 3256 4481 3484 4323 
Q 3713 4166 3852 3881 
Q 3991 3597 3991 3256 
Q 3991 2672 3619 2267 
Q 3247 1863 2275 1863 
L 1100 1863 
L 1100 0 
L 494 0 
z
M 1100 2403 
L 2284 2403 
Q 2872 2403 3119 2622 
Q 3366 2841 3366 3238 
Q 3366 3525 3220 3729 
Q 3075 3934 2838 4000 
Q 2684 4041 2272 4041 
L 1100 4041 
L 1100 2403 
z
" transform="scale(0.015625)"/>
      <path id="ArialMT-67" d="M 319 -275 
L 866 -356 
Q 900 -609 1056 -725 
Q 1266 -881 1628 -881 
Q 2019 -881 2231 -725 
Q 2444 -569 2519 -288 
Q 2563 -116 2559 434 
Q 2191 0 1641 0 
Q 956 0 581 494 
Q 206 988 206 1678 
Q 206 2153 378 2554 
Q 550 2956 876 3175 
Q 1203 3394 1644 3394 
Q 2231 3394 2613 2919 
L 2613 3319 
L 3131 3319 
L 3131 450 
Q 3131 -325 2973 -648 
Q 2816 -972 2473 -1159 
Q 2131 -1347 1631 -1347 
Q 1038 -1347 672 -1080 
Q 306 -813 319 -275 
z
M 784 1719 
Q 784 1066 1043 766 
Q 1303 466 1694 466 
Q 2081 466 2343 764 
Q 2606 1063 2606 1700 
Q 2606 2309 2336 2618 
Q 2066 2928 1684 2928 
Q 1309 2928 1046 2623 
Q 784 2319 784 1719 
z
" transform="scale(0.015625)"/>
      <path id="ArialMT-46" d="M 525 0 
L 525 4581 
L 3616 4581 
L 3616 4041 
L 1131 4041 
L 1131 2622 
L 3281 2622 
L 3281 2081 
L 1131 2081 
L 1131 0 
L 525 0 
z
" transform="scale(0.015625)"/>
      <path id="ArialMT-53" d="M 288 1472 
L 859 1522 
Q 900 1178 1048 958 
Q 1197 738 1509 602 
Q 1822 466 2213 466 
Q 2559 466 2825 569 
Q 3091 672 3220 851 
Q 3350 1031 3350 1244 
Q 3350 1459 3225 1620 
Q 3100 1781 2813 1891 
Q 2628 1963 1997 2114 
Q 1366 2266 1113 2400 
Q 784 2572 623 2826 
Q 463 3081 463 3397 
Q 463 3744 659 4045 
Q 856 4347 1234 4503 
Q 1613 4659 2075 4659 
Q 2584 4659 2973 4495 
Q 3363 4331 3572 4012 
Q 3781 3694 3797 3291 
L 3216 3247 
Q 3169 3681 2898 3903 
Q 2628 4125 2100 4125 
Q 1550 4125 1298 3923 
Q 1047 3722 1047 3438 
Q 1047 3191 1225 3031 
Q 1400 2872 2139 2705 
Q 2878 2538 3153 2413 
Q 3553 2228 3743 1945 
Q 3934 1663 3934 1294 
Q 3934 928 3725 604 
Q 3516 281 3123 101 
Q 2731 -78 2241 -78 
Q 1619 -78 1198 103 
Q 778 284 539 648 
Q 300 1013 288 1472 
z
" transform="scale(0.015625)"/>
      <path id="ArialMT-2c" d="M 569 0 
L 569 641 
L 1209 641 
L 1209 0 
Q 1209 -353 1084 -570 
Q 959 -788 688 -906 
L 531 -666 
Q 709 -588 793 -436 
Q 878 -284 888 0 
L 569 0 
z
" transform="scale(0.015625)"/>
      <path id="ArialMT-63" d="M 2588 1216 
L 3141 1144 
Q 3050 572 2676 248 
Q 2303 -75 1759 -75 
Q 1078 -75 664 370 
Q 250 816 250 1647 
Q 250 2184 428 2587 
Q 606 2991 970 3192 
Q 1334 3394 1763 3394 
Q 2303 3394 2647 3120 
Q 2991 2847 3088 2344 
L 2541 2259 
Q 2463 2594 2264 2762 
Q 2066 2931 1784 2931 
Q 1359 2931 1093 2626 
Q 828 2322 828 1663 
Q 828 994 1084 691 
Q 1341 388 1753 388 
Q 2084 388 2306 591 
Q 2528 794 2588 1216 
z
" transform="scale(0.015625)"/>
      <path id="ArialMT-75" d="M 2597 0 
L 2597 488 
Q 2209 -75 1544 -75 
Q 1250 -75 995 37 
Q 741 150 617 320 
Q 494 491 444 738 
Q 409 903 409 1263 
L 409 3319 
L 972 3319 
L 972 1478 
Q 972 1038 1006 884 
Q 1059 663 1231 536 
Q 1403 409 1656 409 
Q 1909 409 2131 539 
Q 2353 669 2445 892 
Q 2538 1116 2538 1541 
L 2538 3319 
L 3100 3319 
L 3100 0 
L 2597 0 
z
" transform="scale(0.015625)"/>
      <path id="ArialMT-31" d="M 2384 0 
L 1822 0 
L 1822 3584 
Q 1619 3391 1289 3197 
Q 959 3003 697 2906 
L 697 3450 
Q 1169 3672 1522 3987 
Q 1875 4303 2022 4600 
L 2384 4600 
L 2384 0 
z
" transform="scale(0.015625)"/>
      <path id="ArialMT-34" d="M 2069 0 
L 2069 1097 
L 81 1097 
L 81 1613 
L 2172 4581 
L 2631 4581 
L 2631 1613 
L 3250 1613 
L 3250 1097 
L 2631 1097 
L 2631 0 
L 2069 0 
z
M 2069 1613 
L 2069 3678 
L 634 1613 
L 2069 1613 
z
" transform="scale(0.015625)"/>
     </defs>
     <use xlink:href="#ArialMT-20"/>
     <use xlink:href="#ArialMT-50" x="27.783203"/>
     <use xlink:href="#ArialMT-6c" x="94.482422"/>
     <use xlink:href="#ArialMT-6f" x="116.699219"/>
     <use xlink:href="#ArialMT-74" x="172.314453"/>
     <use xlink:href="#ArialMT-74" x="200.097656"/>
     <use xlink:href="#ArialMT-69" x="227.880859"/>
     <use xlink:href="#ArialMT-6e" x="250.097656"/>
     <use xlink:href="#ArialMT-67" x="305.712891"/>
     <use xlink:href="#ArialMT-20" x="361.328125"/>
     <use xlink:href="#ArialMT-46" x="389.111328"/>
     <use xlink:href="#ArialMT-53" x="450.195312"/>
     <use xlink:href="#ArialMT-2c" x="516.894531"/>
     <use xlink:href="#ArialMT-20" x="544.677734"/>
     <use xlink:href="#ArialMT-74" x="572.460938"/>
     <use xlink:href="#ArialMT-72" x="600.244141"/>
     <use xlink:href="#ArialMT-61" x="633.544922"/>
     <use xlink:href="#ArialMT-63" x="689.160156"/>
     <use xlink:href="#ArialMT-65" x="739.160156"/>
     <use xlink:href="#ArialMT-20" x="794.775391"/>
     <use xlink:href="#ArialMT-6e" x="822.558594"/>
     <use xlink:href="#ArialMT-75" x="878.173828"/>
     <use xlink:href="#ArialMT-6d" x="933.789062"/>
     <use xlink:href="#ArialMT-62" x="1017.089844"/>
     <use xlink:href="#ArialMT-65" x="1072.705078"/>
     <use xlink:href="#ArialMT-72" x="1128.320312"/>
     <use xlink:href="#ArialMT-20" x="1161.621094"/>
     <use xlink:href="#ArialMT-31" x="1189.404297"/>
     <use xlink:href="#ArialMT-34" x="1245.019531"/>
     <use xlink:href="#ArialMT-35" x="1300.634766"/>
     <use xlink:href="#ArialMT-35" x="1356.25"/>
     <use xlink:href="#ArialMT-34" x="1411.865234"/>
     <use xlink:href="#ArialMT-20" x="1467.480469"/>
    </g>
   </g>
  </g>
 </g>
 <defs>
  <clipPath id="p04b806db62">
   <rect x="72" y="69.12" width="446.4" height="434.88"/>
  </clipPath>
 </defs>
</svg>
