<?xml version="1.0" encoding="utf-8" standalone="no"?>
<!DOCTYPE svg PUBLIC "-//W3C//DTD SVG 1.1//EN"
  "http://www.w3.org/Graphics/SVG/1.1/DTD/svg11.dtd">
<svg xmlns:xlink="http://www.w3.org/1999/xlink" width="576pt" height="576pt" viewBox="0 0 576 576" xmlns="http://www.w3.org/2000/svg" version="1.1">
 <metadata>
  <rdf:RDF xmlns:dc="http://purl.org/dc/elements/1.1/" xmlns:cc="http://creativecommons.org/ns#" xmlns:rdf="http://www.w3.org/1999/02/22-rdf-syntax-ns#">
   <cc:Work>
    <dc:type rdf:resource="http://purl.org/dc/dcmitype/StillImage"/>
    <dc:date>2022-10-30T19:57:02.516151</dc:date>
    <dc:format>image/svg+xml</dc:format>
    <dc:creator>
     <cc:Agent>
      <dc:title>Matplotlib v3.5.2, https://matplotlib.org/</dc:title>
     </cc:Agent>
    </dc:creator>
   </cc:Work>
  </rdf:RDF>
 </metadata>
 <defs>
  <style type="text/css">*{stroke-linejoin: round; stroke-linecap: butt}</style>
 </defs>
 <g id="figure_1">
  <g id="patch_1">
   <path d="M 0 576 
L 576 576 
L 576 0 
L 0 0 
L 0 576 
z
" style="fill: none"/>
  </g>
  <g id="axes_1">
   <g id="patch_2">
    <path d="M 72 504 
L 518.4 504 
L 518.4 69.12 
L 72 69.12 
z
" style="fill: #ffffff"/>
   </g>
   <g id="matplotlib.axis_1">
    <g id="xtick_1">
     <g id="line2d_1">
      <defs>
       <path id="m895e5213ca" d="M 0 0 
L 0 3.5 
" style="stroke: #000000; stroke-width: 0.8"/>
      </defs>
      <g>
       <use xlink:href="#m895e5213ca" x="92.290909" y="504" style="stroke: #000000; stroke-width: 0.8"/>
      </g>
     </g>
     <g id="text_1">
      <!-- 0 -->
      <g transform="translate(85.292159 527.716563)scale(0.22 -0.22)">
       <defs>
        <path id="DejaVuSans-30" d="M 2034 4250 
Q 1547 4250 1301 3770 
Q 1056 3291 1056 2328 
Q 1056 1369 1301 889 
Q 1547 409 2034 409 
Q 2525 409 2770 889 
Q 3016 1369 3016 2328 
Q 3016 3291 2770 3770 
Q 2525 4250 2034 4250 
z
M 2034 4750 
Q 2819 4750 3233 4129 
Q 3647 3509 3647 2328 
Q 3647 1150 3233 529 
Q 2819 -91 2034 -91 
Q 1250 -91 836 529 
Q 422 1150 422 2328 
Q 422 3509 836 4129 
Q 1250 4750 2034 4750 
z
" transform="scale(0.015625)"/>
       </defs>
       <use xlink:href="#DejaVuSans-30"/>
      </g>
     </g>
    </g>
    <g id="xtick_2">
     <g id="line2d_2">
      <g>
       <use xlink:href="#m895e5213ca" x="227.563636" y="504" style="stroke: #000000; stroke-width: 0.8"/>
      </g>
     </g>
     <g id="text_2">
      <!-- 1000 -->
      <g transform="translate(199.568636 527.716563)scale(0.22 -0.22)">
       <defs>
        <path id="DejaVuSans-31" d="M 794 531 
L 1825 531 
L 1825 4091 
L 703 3866 
L 703 4441 
L 1819 4666 
L 2450 4666 
L 2450 531 
L 3481 531 
L 3481 0 
L 794 0 
L 794 531 
z
" transform="scale(0.015625)"/>
       </defs>
       <use xlink:href="#DejaVuSans-31"/>
       <use xlink:href="#DejaVuSans-30" x="63.623047"/>
       <use xlink:href="#DejaVuSans-30" x="127.246094"/>
       <use xlink:href="#DejaVuSans-30" x="190.869141"/>
      </g>
     </g>
    </g>
    <g id="xtick_3">
     <g id="line2d_3">
      <g>
       <use xlink:href="#m895e5213ca" x="362.836364" y="504" style="stroke: #000000; stroke-width: 0.8"/>
      </g>
     </g>
     <g id="text_3">
      <!-- 2000 -->
      <g transform="translate(334.841364 527.716563)scale(0.22 -0.22)">
       <defs>
        <path id="DejaVuSans-32" d="M 1228 531 
L 3431 531 
L 3431 0 
L 469 0 
L 469 531 
Q 828 903 1448 1529 
Q 2069 2156 2228 2338 
Q 2531 2678 2651 2914 
Q 2772 3150 2772 3378 
Q 2772 3750 2511 3984 
Q 2250 4219 1831 4219 
Q 1534 4219 1204 4116 
Q 875 4013 500 3803 
L 500 4441 
Q 881 4594 1212 4672 
Q 1544 4750 1819 4750 
Q 2544 4750 2975 4387 
Q 3406 4025 3406 3419 
Q 3406 3131 3298 2873 
Q 3191 2616 2906 2266 
Q 2828 2175 2409 1742 
Q 1991 1309 1228 531 
z
" transform="scale(0.015625)"/>
       </defs>
       <use xlink:href="#DejaVuSans-32"/>
       <use xlink:href="#DejaVuSans-30" x="63.623047"/>
       <use xlink:href="#DejaVuSans-30" x="127.246094"/>
       <use xlink:href="#DejaVuSans-30" x="190.869141"/>
      </g>
     </g>
    </g>
    <g id="xtick_4">
     <g id="line2d_4">
      <g>
       <use xlink:href="#m895e5213ca" x="498.109091" y="504" style="stroke: #000000; stroke-width: 0.8"/>
      </g>
     </g>
     <g id="text_4">
      <!-- 3000 -->
      <g transform="translate(470.114091 527.716563)scale(0.22 -0.22)">
       <defs>
        <path id="DejaVuSans-33" d="M 2597 2516 
Q 3050 2419 3304 2112 
Q 3559 1806 3559 1356 
Q 3559 666 3084 287 
Q 2609 -91 1734 -91 
Q 1441 -91 1130 -33 
Q 819 25 488 141 
L 488 750 
Q 750 597 1062 519 
Q 1375 441 1716 441 
Q 2309 441 2620 675 
Q 2931 909 2931 1356 
Q 2931 1769 2642 2001 
Q 2353 2234 1838 2234 
L 1294 2234 
L 1294 2753 
L 1863 2753 
Q 2328 2753 2575 2939 
Q 2822 3125 2822 3475 
Q 2822 3834 2567 4026 
Q 2313 4219 1838 4219 
Q 1578 4219 1281 4162 
Q 984 4106 628 3988 
L 628 4550 
Q 988 4650 1302 4700 
Q 1616 4750 1894 4750 
Q 2613 4750 3031 4423 
Q 3450 4097 3450 3541 
Q 3450 3153 3228 2886 
Q 3006 2619 2597 2516 
z
" transform="scale(0.015625)"/>
       </defs>
       <use xlink:href="#DejaVuSans-33"/>
       <use xlink:href="#DejaVuSans-30" x="63.623047"/>
       <use xlink:href="#DejaVuSans-30" x="127.246094"/>
       <use xlink:href="#DejaVuSans-30" x="190.869141"/>
      </g>
     </g>
    </g>
    <g id="text_5">
     <!-- Time(ms) -->
     <g transform="translate(249.182187 552.307188)scale(0.22 -0.22)">
      <defs>
       <path id="ArialMT-54" d="M 1659 0 
L 1659 4041 
L 150 4041 
L 150 4581 
L 3781 4581 
L 3781 4041 
L 2266 4041 
L 2266 0 
L 1659 0 
z
" transform="scale(0.015625)"/>
       <path id="ArialMT-69" d="M 425 3934 
L 425 4581 
L 988 4581 
L 988 3934 
L 425 3934 
z
M 425 0 
L 425 3319 
L 988 3319 
L 988 0 
L 425 0 
z
" transform="scale(0.015625)"/>
       <path id="ArialMT-6d" d="M 422 0 
L 422 3319 
L 925 3319 
L 925 2853 
Q 1081 3097 1340 3245 
Q 1600 3394 1931 3394 
Q 2300 3394 2536 3241 
Q 2772 3088 2869 2813 
Q 3263 3394 3894 3394 
Q 4388 3394 4653 3120 
Q 4919 2847 4919 2278 
L 4919 0 
L 4359 0 
L 4359 2091 
Q 4359 2428 4304 2576 
Q 4250 2725 4106 2815 
Q 3963 2906 3769 2906 
Q 3419 2906 3187 2673 
Q 2956 2441 2956 1928 
L 2956 0 
L 2394 0 
L 2394 2156 
Q 2394 2531 2256 2718 
Q 2119 2906 1806 2906 
Q 1569 2906 1367 2781 
Q 1166 2656 1075 2415 
Q 984 2175 984 1722 
L 984 0 
L 422 0 
z
" transform="scale(0.015625)"/>
       <path id="ArialMT-65" d="M 2694 1069 
L 3275 997 
Q 3138 488 2766 206 
Q 2394 -75 1816 -75 
Q 1088 -75 661 373 
Q 234 822 234 1631 
Q 234 2469 665 2931 
Q 1097 3394 1784 3394 
Q 2450 3394 2872 2941 
Q 3294 2488 3294 1666 
Q 3294 1616 3291 1516 
L 816 1516 
Q 847 969 1125 678 
Q 1403 388 1819 388 
Q 2128 388 2347 550 
Q 2566 713 2694 1069 
z
M 847 1978 
L 2700 1978 
Q 2663 2397 2488 2606 
Q 2219 2931 1791 2931 
Q 1403 2931 1139 2672 
Q 875 2413 847 1978 
z
" transform="scale(0.015625)"/>
       <path id="ArialMT-28" d="M 1497 -1347 
Q 1031 -759 709 28 
Q 388 816 388 1659 
Q 388 2403 628 3084 
Q 909 3875 1497 4659 
L 1900 4659 
Q 1522 4009 1400 3731 
Q 1209 3300 1100 2831 
Q 966 2247 966 1656 
Q 966 153 1900 -1347 
L 1497 -1347 
z
" transform="scale(0.015625)"/>
       <path id="ArialMT-73" d="M 197 991 
L 753 1078 
Q 800 744 1014 566 
Q 1228 388 1613 388 
Q 2000 388 2187 545 
Q 2375 703 2375 916 
Q 2375 1106 2209 1216 
Q 2094 1291 1634 1406 
Q 1016 1563 777 1677 
Q 538 1791 414 1992 
Q 291 2194 291 2438 
Q 291 2659 392 2848 
Q 494 3038 669 3163 
Q 800 3259 1026 3326 
Q 1253 3394 1513 3394 
Q 1903 3394 2198 3281 
Q 2494 3169 2634 2976 
Q 2775 2784 2828 2463 
L 2278 2388 
Q 2241 2644 2061 2787 
Q 1881 2931 1553 2931 
Q 1166 2931 1000 2803 
Q 834 2675 834 2503 
Q 834 2394 903 2306 
Q 972 2216 1119 2156 
Q 1203 2125 1616 2013 
Q 2213 1853 2448 1751 
Q 2684 1650 2818 1456 
Q 2953 1263 2953 975 
Q 2953 694 2789 445 
Q 2625 197 2315 61 
Q 2006 -75 1616 -75 
Q 969 -75 630 194 
Q 291 463 197 991 
z
" transform="scale(0.015625)"/>
       <path id="ArialMT-29" d="M 791 -1347 
L 388 -1347 
Q 1322 153 1322 1656 
Q 1322 2244 1188 2822 
Q 1081 3291 891 3722 
Q 769 4003 388 4659 
L 791 4659 
Q 1378 3875 1659 3084 
Q 1900 2403 1900 1659 
Q 1900 816 1576 28 
Q 1253 -759 791 -1347 
z
" transform="scale(0.015625)"/>
      </defs>
      <use xlink:href="#ArialMT-54"/>
      <use xlink:href="#ArialMT-69" x="57.333984"/>
      <use xlink:href="#ArialMT-6d" x="79.550781"/>
      <use xlink:href="#ArialMT-65" x="162.851562"/>
      <use xlink:href="#ArialMT-28" x="218.466797"/>
      <use xlink:href="#ArialMT-6d" x="251.767578"/>
      <use xlink:href="#ArialMT-73" x="335.068359"/>
      <use xlink:href="#ArialMT-29" x="385.068359"/>
     </g>
    </g>
   </g>
   <g id="matplotlib.axis_2">
    <g id="ytick_1">
     <g id="line2d_5">
      <defs>
       <path id="m1428b1a71c" d="M 0 0 
L -3.5 0 
" style="stroke: #000000; stroke-width: 0.8"/>
      </defs>
      <g>
       <use xlink:href="#m1428b1a71c" x="72" y="476.82" style="stroke: #000000; stroke-width: 0.8"/>
      </g>
     </g>
     <g id="text_6">
      <!-- −100 -->
      <g transform="translate(4.572187 485.178281)scale(0.22 -0.22)">
       <defs>
        <path id="DejaVuSans-2212" d="M 678 2272 
L 4684 2272 
L 4684 1741 
L 678 1741 
L 678 2272 
z
" transform="scale(0.015625)"/>
       </defs>
       <use xlink:href="#DejaVuSans-2212"/>
       <use xlink:href="#DejaVuSans-31" x="83.789062"/>
       <use xlink:href="#DejaVuSans-30" x="147.412109"/>
       <use xlink:href="#DejaVuSans-30" x="211.035156"/>
      </g>
     </g>
    </g>
    <g id="ytick_2">
     <g id="line2d_6">
      <g>
       <use xlink:href="#m1428b1a71c" x="72" y="422.46" style="stroke: #000000; stroke-width: 0.8"/>
      </g>
     </g>
     <g id="text_7">
      <!-- −80 -->
      <g transform="translate(18.569688 430.818281)scale(0.22 -0.22)">
       <defs>
        <path id="DejaVuSans-38" d="M 2034 2216 
Q 1584 2216 1326 1975 
Q 1069 1734 1069 1313 
Q 1069 891 1326 650 
Q 1584 409 2034 409 
Q 2484 409 2743 651 
Q 3003 894 3003 1313 
Q 3003 1734 2745 1975 
Q 2488 2216 2034 2216 
z
M 1403 2484 
Q 997 2584 770 2862 
Q 544 3141 544 3541 
Q 544 4100 942 4425 
Q 1341 4750 2034 4750 
Q 2731 4750 3128 4425 
Q 3525 4100 3525 3541 
Q 3525 3141 3298 2862 
Q 3072 2584 2669 2484 
Q 3125 2378 3379 2068 
Q 3634 1759 3634 1313 
Q 3634 634 3220 271 
Q 2806 -91 2034 -91 
Q 1263 -91 848 271 
Q 434 634 434 1313 
Q 434 1759 690 2068 
Q 947 2378 1403 2484 
z
M 1172 3481 
Q 1172 3119 1398 2916 
Q 1625 2713 2034 2713 
Q 2441 2713 2670 2916 
Q 2900 3119 2900 3481 
Q 2900 3844 2670 4047 
Q 2441 4250 2034 4250 
Q 1625 4250 1398 4047 
Q 1172 3844 1172 3481 
z
" transform="scale(0.015625)"/>
       </defs>
       <use xlink:href="#DejaVuSans-2212"/>
       <use xlink:href="#DejaVuSans-38" x="83.789062"/>
       <use xlink:href="#DejaVuSans-30" x="147.412109"/>
      </g>
     </g>
    </g>
    <g id="ytick_3">
     <g id="line2d_7">
      <g>
       <use xlink:href="#m1428b1a71c" x="72" y="368.1" style="stroke: #000000; stroke-width: 0.8"/>
      </g>
     </g>
     <g id="text_8">
      <!-- −60 -->
      <g transform="translate(18.569688 376.458281)scale(0.22 -0.22)">
       <defs>
        <path id="DejaVuSans-36" d="M 2113 2584 
Q 1688 2584 1439 2293 
Q 1191 2003 1191 1497 
Q 1191 994 1439 701 
Q 1688 409 2113 409 
Q 2538 409 2786 701 
Q 3034 994 3034 1497 
Q 3034 2003 2786 2293 
Q 2538 2584 2113 2584 
z
M 3366 4563 
L 3366 3988 
Q 3128 4100 2886 4159 
Q 2644 4219 2406 4219 
Q 1781 4219 1451 3797 
Q 1122 3375 1075 2522 
Q 1259 2794 1537 2939 
Q 1816 3084 2150 3084 
Q 2853 3084 3261 2657 
Q 3669 2231 3669 1497 
Q 3669 778 3244 343 
Q 2819 -91 2113 -91 
Q 1303 -91 875 529 
Q 447 1150 447 2328 
Q 447 3434 972 4092 
Q 1497 4750 2381 4750 
Q 2619 4750 2861 4703 
Q 3103 4656 3366 4563 
z
" transform="scale(0.015625)"/>
       </defs>
       <use xlink:href="#DejaVuSans-2212"/>
       <use xlink:href="#DejaVuSans-36" x="83.789062"/>
       <use xlink:href="#DejaVuSans-30" x="147.412109"/>
      </g>
     </g>
    </g>
    <g id="ytick_4">
     <g id="line2d_8">
      <g>
       <use xlink:href="#m1428b1a71c" x="72" y="313.74" style="stroke: #000000; stroke-width: 0.8"/>
      </g>
     </g>
     <g id="text_9">
      <!-- −40 -->
      <g transform="translate(18.569688 322.098281)scale(0.22 -0.22)">
       <defs>
        <path id="DejaVuSans-34" d="M 2419 4116 
L 825 1625 
L 2419 1625 
L 2419 4116 
z
M 2253 4666 
L 3047 4666 
L 3047 1625 
L 3713 1625 
L 3713 1100 
L 3047 1100 
L 3047 0 
L 2419 0 
L 2419 1100 
L 313 1100 
L 313 1709 
L 2253 4666 
z
" transform="scale(0.015625)"/>
       </defs>
       <use xlink:href="#DejaVuSans-2212"/>
       <use xlink:href="#DejaVuSans-34" x="83.789062"/>
       <use xlink:href="#DejaVuSans-30" x="147.412109"/>
      </g>
     </g>
    </g>
    <g id="ytick_5">
     <g id="line2d_9">
      <g>
       <use xlink:href="#m1428b1a71c" x="72" y="259.38" style="stroke: #000000; stroke-width: 0.8"/>
      </g>
     </g>
     <g id="text_10">
      <!-- −20 -->
      <g transform="translate(18.569688 267.738281)scale(0.22 -0.22)">
       <use xlink:href="#DejaVuSans-2212"/>
       <use xlink:href="#DejaVuSans-32" x="83.789062"/>
       <use xlink:href="#DejaVuSans-30" x="147.412109"/>
      </g>
     </g>
    </g>
    <g id="ytick_6">
     <g id="line2d_10">
      <g>
       <use xlink:href="#m1428b1a71c" x="72" y="205.02" style="stroke: #000000; stroke-width: 0.8"/>
      </g>
     </g>
     <g id="text_11">
      <!-- 0 -->
      <g transform="translate(51.0025 213.378281)scale(0.22 -0.22)">
       <use xlink:href="#DejaVuSans-30"/>
      </g>
     </g>
    </g>
    <g id="ytick_7">
     <g id="line2d_11">
      <g>
       <use xlink:href="#m1428b1a71c" x="72" y="150.66" style="stroke: #000000; stroke-width: 0.8"/>
      </g>
     </g>
     <g id="text_12">
      <!-- 20 -->
      <g transform="translate(37.005 159.018281)scale(0.22 -0.22)">
       <use xlink:href="#DejaVuSans-32"/>
       <use xlink:href="#DejaVuSans-30" x="63.623047"/>
      </g>
     </g>
    </g>
    <g id="ytick_8">
     <g id="line2d_12">
      <g>
       <use xlink:href="#m1428b1a71c" x="72" y="96.3" style="stroke: #000000; stroke-width: 0.8"/>
      </g>
     </g>
     <g id="text_13">
      <!-- 40 -->
      <g transform="translate(37.005 104.658281)scale(0.22 -0.22)">
       <use xlink:href="#DejaVuSans-34"/>
       <use xlink:href="#DejaVuSans-30" x="63.623047"/>
      </g>
     </g>
    </g>
    <g id="text_14">
     <!-- Membrane potential (mV) -->
     <g transform="translate(-4.058125 410.655469)rotate(-90)scale(0.22 -0.22)">
      <defs>
       <path id="ArialMT-4d" d="M 475 0 
L 475 4581 
L 1388 4581 
L 2472 1338 
Q 2622 884 2691 659 
Q 2769 909 2934 1394 
L 4031 4581 
L 4847 4581 
L 4847 0 
L 4263 0 
L 4263 3834 
L 2931 0 
L 2384 0 
L 1059 3900 
L 1059 0 
L 475 0 
z
" transform="scale(0.015625)"/>
       <path id="ArialMT-62" d="M 941 0 
L 419 0 
L 419 4581 
L 981 4581 
L 981 2947 
Q 1338 3394 1891 3394 
Q 2197 3394 2470 3270 
Q 2744 3147 2920 2923 
Q 3097 2700 3197 2384 
Q 3297 2069 3297 1709 
Q 3297 856 2875 390 
Q 2453 -75 1863 -75 
Q 1275 -75 941 416 
L 941 0 
z
M 934 1684 
Q 934 1088 1097 822 
Q 1363 388 1816 388 
Q 2184 388 2453 708 
Q 2722 1028 2722 1663 
Q 2722 2313 2464 2622 
Q 2206 2931 1841 2931 
Q 1472 2931 1203 2611 
Q 934 2291 934 1684 
z
" transform="scale(0.015625)"/>
       <path id="ArialMT-72" d="M 416 0 
L 416 3319 
L 922 3319 
L 922 2816 
Q 1116 3169 1280 3281 
Q 1444 3394 1641 3394 
Q 1925 3394 2219 3213 
L 2025 2691 
Q 1819 2813 1613 2813 
Q 1428 2813 1281 2702 
Q 1134 2591 1072 2394 
Q 978 2094 978 1738 
L 978 0 
L 416 0 
z
" transform="scale(0.015625)"/>
       <path id="ArialMT-61" d="M 2588 409 
Q 2275 144 1986 34 
Q 1697 -75 1366 -75 
Q 819 -75 525 192 
Q 231 459 231 875 
Q 231 1119 342 1320 
Q 453 1522 633 1644 
Q 813 1766 1038 1828 
Q 1203 1872 1538 1913 
Q 2219 1994 2541 2106 
Q 2544 2222 2544 2253 
Q 2544 2597 2384 2738 
Q 2169 2928 1744 2928 
Q 1347 2928 1158 2789 
Q 969 2650 878 2297 
L 328 2372 
Q 403 2725 575 2942 
Q 747 3159 1072 3276 
Q 1397 3394 1825 3394 
Q 2250 3394 2515 3294 
Q 2781 3194 2906 3042 
Q 3031 2891 3081 2659 
Q 3109 2516 3109 2141 
L 3109 1391 
Q 3109 606 3145 398 
Q 3181 191 3288 0 
L 2700 0 
Q 2613 175 2588 409 
z
M 2541 1666 
Q 2234 1541 1622 1453 
Q 1275 1403 1131 1340 
Q 988 1278 909 1158 
Q 831 1038 831 891 
Q 831 666 1001 516 
Q 1172 366 1500 366 
Q 1825 366 2078 508 
Q 2331 650 2450 897 
Q 2541 1088 2541 1459 
L 2541 1666 
z
" transform="scale(0.015625)"/>
       <path id="ArialMT-6e" d="M 422 0 
L 422 3319 
L 928 3319 
L 928 2847 
Q 1294 3394 1984 3394 
Q 2284 3394 2536 3286 
Q 2788 3178 2913 3003 
Q 3038 2828 3088 2588 
Q 3119 2431 3119 2041 
L 3119 0 
L 2556 0 
L 2556 2019 
Q 2556 2363 2490 2533 
Q 2425 2703 2258 2804 
Q 2091 2906 1866 2906 
Q 1506 2906 1245 2678 
Q 984 2450 984 1813 
L 984 0 
L 422 0 
z
" transform="scale(0.015625)"/>
       <path id="ArialMT-20" transform="scale(0.015625)"/>
       <path id="ArialMT-70" d="M 422 -1272 
L 422 3319 
L 934 3319 
L 934 2888 
Q 1116 3141 1344 3267 
Q 1572 3394 1897 3394 
Q 2322 3394 2647 3175 
Q 2972 2956 3137 2557 
Q 3303 2159 3303 1684 
Q 3303 1175 3120 767 
Q 2938 359 2589 142 
Q 2241 -75 1856 -75 
Q 1575 -75 1351 44 
Q 1128 163 984 344 
L 984 -1272 
L 422 -1272 
z
M 931 1641 
Q 931 1000 1190 694 
Q 1450 388 1819 388 
Q 2194 388 2461 705 
Q 2728 1022 2728 1688 
Q 2728 2322 2467 2637 
Q 2206 2953 1844 2953 
Q 1484 2953 1207 2617 
Q 931 2281 931 1641 
z
" transform="scale(0.015625)"/>
       <path id="ArialMT-6f" d="M 213 1659 
Q 213 2581 725 3025 
Q 1153 3394 1769 3394 
Q 2453 3394 2887 2945 
Q 3322 2497 3322 1706 
Q 3322 1066 3130 698 
Q 2938 331 2570 128 
Q 2203 -75 1769 -75 
Q 1072 -75 642 372 
Q 213 819 213 1659 
z
M 791 1659 
Q 791 1022 1069 705 
Q 1347 388 1769 388 
Q 2188 388 2466 706 
Q 2744 1025 2744 1678 
Q 2744 2294 2464 2611 
Q 2184 2928 1769 2928 
Q 1347 2928 1069 2612 
Q 791 2297 791 1659 
z
" transform="scale(0.015625)"/>
       <path id="ArialMT-74" d="M 1650 503 
L 1731 6 
Q 1494 -44 1306 -44 
Q 1000 -44 831 53 
Q 663 150 594 308 
Q 525 466 525 972 
L 525 2881 
L 113 2881 
L 113 3319 
L 525 3319 
L 525 4141 
L 1084 4478 
L 1084 3319 
L 1650 3319 
L 1650 2881 
L 1084 2881 
L 1084 941 
Q 1084 700 1114 631 
Q 1144 563 1211 522 
Q 1278 481 1403 481 
Q 1497 481 1650 503 
z
" transform="scale(0.015625)"/>
       <path id="ArialMT-6c" d="M 409 0 
L 409 4581 
L 972 4581 
L 972 0 
L 409 0 
z
" transform="scale(0.015625)"/>
       <path id="ArialMT-56" d="M 1803 0 
L 28 4581 
L 684 4581 
L 1875 1253 
Q 2019 853 2116 503 
Q 2222 878 2363 1253 
L 3600 4581 
L 4219 4581 
L 2425 0 
L 1803 0 
z
" transform="scale(0.015625)"/>
      </defs>
      <use xlink:href="#ArialMT-4d"/>
      <use xlink:href="#ArialMT-65" x="83.300781"/>
      <use xlink:href="#ArialMT-6d" x="138.916016"/>
      <use xlink:href="#ArialMT-62" x="222.216797"/>
      <use xlink:href="#ArialMT-72" x="277.832031"/>
      <use xlink:href="#ArialMT-61" x="311.132812"/>
      <use xlink:href="#ArialMT-6e" x="366.748047"/>
      <use xlink:href="#ArialMT-65" x="422.363281"/>
      <use xlink:href="#ArialMT-20" x="477.978516"/>
      <use xlink:href="#ArialMT-70" x="505.761719"/>
      <use xlink:href="#ArialMT-6f" x="561.376953"/>
      <use xlink:href="#ArialMT-74" x="616.992188"/>
      <use xlink:href="#ArialMT-65" x="644.775391"/>
      <use xlink:href="#ArialMT-6e" x="700.390625"/>
      <use xlink:href="#ArialMT-74" x="756.005859"/>
      <use xlink:href="#ArialMT-69" x="783.789062"/>
      <use xlink:href="#ArialMT-61" x="806.005859"/>
      <use xlink:href="#ArialMT-6c" x="861.621094"/>
      <use xlink:href="#ArialMT-20" x="883.837891"/>
      <use xlink:href="#ArialMT-28" x="911.621094"/>
      <use xlink:href="#ArialMT-6d" x="944.921875"/>
      <use xlink:href="#ArialMT-56" x="1028.222656"/>
      <use xlink:href="#ArialMT-29" x="1094.921875"/>
     </g>
    </g>
   </g>
   <g id="line2d_13">
    <path d="M 92.290909 438.768 
L 92.493818 443.256573 
L 92.967273 447.745124 
L 93.440727 450.283257 
L 93.914182 451.768622 
L 94.387636 452.631032 
L 94.928727 453.176909 
L 95.605091 453.511572 
L 96.552 453.695527 
L 98.445818 453.778693 
L 108.185455 453.793209 
L 159.927273 453.793298 
L 160.130182 430.829673 
L 160.536 413.784007 
L 161.009455 402.97392 
L 161.550545 395.659299 
L 162.294545 388.723378 
L 163.376727 380.785893 
L 165.270545 368.761915 
L 166.961455 358.963226 
L 167.908364 350.721368 
L 168.652364 342.900736 
L 168.990545 336.318007 
L 169.261091 325.396654 
L 169.396364 308.445006 
L 169.531636 209.839041 
L 169.734545 370.784228 
L 169.937455 386.656793 
L 170.005091 386.296198 
L 170.275636 380.477094 
L 170.884364 367.874272 
L 171.290182 363.533097 
L 171.763636 360.966612 
L 173.251636 354.310726 
L 174.198545 349.158141 
L 174.739636 345.170974 
L 175.077818 341.423726 
L 175.348364 335.858216 
L 175.551273 327.98615 
L 175.686545 314.264855 
L 175.754182 285.197884 
L 175.821818 167.451731 
L 176.024727 365.182836 
L 176.227636 387.326653 
L 176.295273 387.424416 
L 176.498182 383.927711 
L 177.242182 368.520832 
L 177.648 364.290873 
L 178.053818 362.31435 
L 179.203636 358.050985 
L 180.826909 350.411534 
L 181.368 345.696475 
L 181.773818 339.890476 
L 182.044364 332.649321 
L 182.179636 325.144921 
L 182.314909 298.669122 
L 182.382545 154.529125 
L 182.585455 360.914255 
L 182.788364 387.935996 
L 182.856 388.328119 
L 182.991273 386.589884 
L 184.005818 367.042428 
L 184.411636 364.056787 
L 184.749818 362.835428 
L 185.223273 363.238622 
L 185.426182 363.012959 
L 186.102545 361.785349 
L 186.576 363.215272 
L 186.711273 363.144374 
L 186.914182 362.690124 
L 188.537455 357.087338 
L 189.349091 351.764439 
L 189.957818 346.702992 
L 190.363636 341.33097 
L 190.769455 332.773079 
L 190.972364 323.684407 
L 191.107636 302.810994 
L 191.175273 196.955357 
L 191.242909 245.095011 
L 191.445818 370.976959 
L 191.648727 384.657291 
L 191.716364 384.421175 
L 191.919273 380.874486 
L 192.595636 367.779188 
L 193.001455 363.738763 
L 193.474909 361.307778 
L 193.948364 359.973969 
L 194.489455 358.428202 
L 195.504 355.380668 
L 195.639273 355.045482 
L 195.774545 355.342989 
L 196.112727 356.205837 
L 196.248 356.142507 
L 196.450909 355.540941 
L 196.789091 353.510744 
L 197.397818 347.966909 
L 198.209455 340.762648 
L 198.48 338.445439 
L 198.818182 332.798986 
L 199.021091 327.170515 
L 199.156364 319.046344 
L 199.224 309.757014 
L 199.291636 277.996951 
L 199.359273 184.729223 
L 199.562182 358.479763 
L 199.765091 379.74553 
L 199.832727 380.513187 
L 199.900364 380.3349 
L 200.103273 377.31385 
L 200.914909 363.342918 
L 201.320727 359.999075 
L 201.726545 358.259008 
L 202.402909 355.757054 
L 203.958545 347.856326 
L 204.161455 346.918766 
L 204.567273 346.491316 
L 204.770182 345.413692 
L 205.040727 342.201581 
L 205.311273 335.878168 
L 205.514182 325.191199 
L 205.581818 316.601765 
L 205.649455 289.012401 
L 205.717091 156.249702 
L 205.92 365.97124 
L 206.122909 389.482847 
L 206.190545 389.377845 
L 206.393455 385.423546 
L 207.069818 370.92671 
L 207.475636 366.37711 
L 207.881455 364.106845 
L 209.369455 358.859537 
L 210.181091 356.465334 
L 210.654545 355.253403 
L 211.128 353.898352 
L 211.533818 351.662794 
L 212.007273 348.071665 
L 212.616 341.190839 
L 212.886545 336.263593 
L 213.089455 329.179627 
L 213.224727 318.113131 
L 213.292364 301.781616 
L 213.36 166.176932 
L 213.562909 357.18077 
L 213.765818 386.819187 
L 213.833455 387.465392 
L 213.968727 385.881332 
L 214.983273 366.429923 
L 215.389091 363.34519 
L 215.862545 361.402396 
L 216.674182 358.640325 
L 217.012364 357.556038 
L 217.485818 357.233922 
L 217.756364 357.138479 
L 217.959273 356.768052 
L 218.229818 356.409283 
L 218.500364 355.978957 
L 218.770909 355.076161 
L 219.109091 353.08888 
L 219.853091 346.933326 
L 220.529455 339.029092 
L 220.8 332.515302 
L 220.935273 325.628339 
L 221.070545 303.971479 
L 221.138182 175.823102 
L 221.205818 243.034184 
L 221.408727 374.137429 
L 221.611636 387.292721 
L 221.746909 385.846498 
L 222.829091 365.690669 
L 223.234909 362.858787 
L 223.843636 360.677641 
L 224.452364 358.060057 
L 226.413818 347.471716 
L 226.887273 342.339919 
L 227.157818 337.402449 
L 227.360727 330.454435 
L 227.496 319.982747 
L 227.563636 306.285985 
L 227.631273 195.547829 
L 227.698909 229.722305 
L 227.901818 374.363096 
L 228.104727 388.369023 
L 228.24 386.820331 
L 229.254545 367.108122 
L 229.660364 363.746102 
L 230.201455 361.057496 
L 230.607273 359.797732 
L 231.554182 358.001593 
L 231.892364 357.075606 
L 232.433455 354.620224 
L 233.109818 350.298513 
L 233.650909 345.398689 
L 234.327273 337.841826 
L 234.597818 331.472645 
L 234.800727 318.626169 
L 234.868364 305.344312 
L 234.936 210.637706 
L 235.003636 229.006332 
L 235.206545 370.391368 
L 235.409455 385.315232 
L 235.477091 385.165582 
L 235.68 381.656485 
L 236.424 367.212894 
L 236.829818 363.315301 
L 237.235636 361.258472 
L 238.656 356.331353 
L 239.129455 355.343121 
L 239.467636 354.036873 
L 239.941091 351.068466 
L 240.617455 345.785748 
L 241.158545 338.99731 
L 241.429091 332.746036 
L 241.564364 326.243859 
L 241.699636 307.29597 
L 241.767273 213.893501 
L 241.834909 220.657475 
L 242.037818 371.816146 
L 242.240727 386.94016 
L 242.308364 386.681835 
L 242.511273 382.978795 
L 243.187636 369.179667 
L 243.593455 364.700261 
L 244.066909 361.813457 
L 244.743273 359.223947 
L 245.149091 358.213518 
L 245.487273 357.464773 
L 245.893091 355.781525 
L 246.637091 351.749329 
L 247.313455 348.160649 
L 247.786909 345.117206 
L 248.057455 342.223881 
L 248.328 336.928387 
L 248.530909 329.002941 
L 248.666182 315.151051 
L 248.733818 285.06146 
L 248.801455 164.482752 
L 249.004364 366.949233 
L 249.207273 389.343918 
L 249.274909 389.214203 
L 249.477818 385.161523 
L 250.154182 370.416944 
L 250.56 365.895537 
L 250.898182 364.08839 
L 253.197818 356.596858 
L 253.603636 355.396274 
L 254.077091 353.564615 
L 254.28 354.295182 
L 254.550545 355.088154 
L 254.685818 355.110143 
L 254.821091 354.856132 
L 255.091636 353.673111 
L 255.565091 350.411651 
L 256.038545 345.344691 
L 256.376727 339.467775 
L 256.647273 330.04565 
L 256.782545 317.641445 
L 256.850182 296.394995 
L 256.917818 151.826583 
L 257.120727 363.338758 
L 257.323636 388.780958 
L 257.391273 388.912269 
L 257.594182 385.370691 
L 258.338182 369.686836 
L 258.744 365.659706 
L 259.149818 363.695301 
L 259.690909 362.064984 
L 260.976 359.232998 
L 262.261091 354.192306 
L 263.140364 349.839312 
L 263.613818 347.077392 
L 263.952 343.437777 
L 264.222545 338.191737 
L 264.425455 330.804513 
L 264.560727 319.065724 
L 264.628364 300.26274 
L 264.696 149.034224 
L 264.898909 361.77825 
L 265.101818 389.738185 
L 265.169455 389.964793 
L 265.304727 387.903569 
L 266.251636 368.354995 
L 266.657455 364.959316 
L 267.130909 362.978837 
L 269.701091 354.512914 
L 270.580364 348.990922 
L 271.121455 344.670719 
L 271.459636 339.85819 
L 271.730182 333.161718 
L 271.933091 322.104604 
L 272.000727 312.816762 
L 272.068364 279.836365 
L 272.136 176.080254 
L 272.338909 365.689249 
L 272.541818 386.37405 
L 272.609455 386.486951 
L 272.812364 383.165381 
L 273.556364 368.026673 
L 273.962182 363.917979 
L 274.368 361.948615 
L 275.314909 358.622685 
L 277.073455 350.044404 
L 277.546909 345.50887 
L 277.885091 340.122024 
L 278.155636 332.119029 
L 278.290909 323.921573 
L 278.358545 315.461816 
L 278.426182 289.602734 
L 278.493818 161.753587 
L 278.696727 365.598359 
L 278.899636 388.463307 
L 278.967273 388.472327 
L 279.170182 384.813927 
L 279.846545 370.426319 
L 280.252364 366.023097 
L 280.658182 363.948906 
L 281.199273 362.239611 
L 282.890182 357.702094 
L 283.498909 354.632882 
L 284.513455 348.463324 
L 285.054545 343.598314 
L 285.866182 335.547322 
L 286.069091 333.849972 
L 286.272 330.689859 
L 286.474909 322.652282 
L 286.610182 301.901972 
L 286.677818 200.551381 
L 286.745455 240.965325 
L 286.948364 365.33137 
L 287.151273 380.37638 
L 287.218909 380.659636 
L 287.354182 379.343931 
L 288.571636 360.721353 
L 289.045091 357.731078 
L 289.924364 354.074055 
L 290.397818 351.666199 
L 291.006545 347.641658 
L 291.48 342.903469 
L 291.818182 336.938776 
L 292.021091 329.469345 
L 292.156364 316.669425 
L 292.224 292.892726 
L 292.291636 155.239721 
L 292.494545 364.151215 
L 292.697455 388.86371 
L 292.765091 388.983209 
L 292.968 385.306804 
L 293.644364 370.666545 
L 294.050182 366.040303 
L 294.456 363.570479 
L 294.929455 362.165964 
L 295.605818 359.983845 
L 296.890909 354.517604 
L 297.770182 349.182029 
L 298.176 347.127496 
L 298.514182 346.243707 
L 298.717091 344.994048 
L 298.987636 341.729058 
L 299.258182 335.366201 
L 299.461091 323.777306 
L 299.528727 313.501689 
L 299.664 180.719929 
L 299.866909 370.472156 
L 300.069818 389.688874 
L 300.137455 389.454483 
L 300.340364 385.446817 
L 301.016727 370.662774 
L 301.422545 366.093399 
L 301.828364 363.789726 
L 304.060364 355.739901 
L 304.601455 353.890941 
L 305.210182 350.720959 
L 305.954182 345.635921 
L 306.292364 341.323949 
L 306.562909 335.566391 
L 306.765818 327.071406 
L 306.901091 309.887626 
L 307.036364 203.122993 
L 307.239273 371.142896 
L 307.442182 387.976684 
L 307.509818 387.727156 
L 307.712727 383.866994 
L 308.389091 369.613861 
L 308.794909 365.218374 
L 309.133091 363.551026 
L 309.674182 362.27385 
L 310.824 359.449163 
L 311.297455 357.787635 
L 311.906182 354.553963 
L 313.056 347.841741 
L 313.732364 342.847807 
L 314.002909 342.112308 
L 314.205818 340.542439 
L 314.408727 337.114224 
L 314.611636 329.585779 
L 314.746909 316.120823 
L 314.814545 288.234936 
L 314.882182 157.867448 
L 315.085091 364.608392 
L 315.288 388.090132 
L 315.355636 388.196675 
L 315.558545 384.609047 
L 316.302545 369.098088 
L 316.708364 364.943856 
L 317.181818 362.374397 
L 317.790545 360.271704 
L 318.331636 358.405423 
L 319.278545 354.897843 
L 319.819636 352.945864 
L 320.901818 348.527149 
L 321.442909 344.119281 
L 321.781091 339.033076 
L 321.984 333.141104 
L 322.119273 325.374999 
L 322.186909 317.488872 
L 322.254545 295.330906 
L 322.322182 151.451021 
L 322.525091 363.219408 
L 322.728 388.993073 
L 322.795636 389.157523 
L 322.998545 385.526008 
L 323.742545 369.524264 
L 324.148364 365.139627 
L 324.621818 362.500631 
L 325.298182 360.124047 
L 325.974545 358.65283 
L 327.124364 354.665966 
L 327.868364 350.594682 
L 328.815273 344.994176 
L 329.221091 340.898216 
L 329.491636 335.707405 
L 329.694545 326.867561 
L 329.829818 306.112036 
L 329.897455 179.551227 
L 329.965091 231.41541 
L 330.168 374.242052 
L 330.370909 388.066665 
L 330.506182 386.648202 
L 331.656 365.676634 
L 332.061818 363.091173 
L 332.670545 360.759331 
L 334.767273 353.757537 
L 335.308364 351.312276 
L 335.781818 347.902402 
L 336.187636 343.009729 
L 336.728727 332.210881 
L 337.066909 321.830818 
L 337.202182 310.656816 
L 337.269818 295.127524 
L 337.337455 218.965487 
L 337.405091 266.164201 
L 337.608 357.520798 
L 337.810909 372.108717 
L 337.946182 373.05576 
L 338.081455 371.963877 
L 339.298909 356.649632 
L 340.786909 346.188936 
L 341.125091 342.6049 
L 341.395636 337.791148 
L 341.598545 330.943776 
L 341.733818 320.970989 
L 341.801455 308.07376 
L 341.869091 209.223066 
L 341.936727 218.006934 
L 342.139636 373.598326 
L 342.342545 388.854116 
L 342.477818 387.376239 
L 343.492364 367.666854 
L 343.898182 364.591245 
L 344.371636 362.588907 
L 344.980364 360.977269 
L 345.521455 359.399169 
L 346.197818 356.547872 
L 346.806545 353.190957 
L 347.888727 346.276599 
L 348.294545 340.805407 
L 348.632727 332.701898 
L 348.835636 323.811086 
L 348.970909 306.168175 
L 349.106182 217.565946 
L 349.309091 366.932241 
L 349.512 383.381711 
L 349.579636 383.503744 
L 349.714909 381.80606 
L 350.661818 365.03155 
L 351.067636 361.862802 
L 351.879273 357.848478 
L 352.420364 355.615231 
L 352.893818 354.402492 
L 353.299636 352.549172 
L 353.908364 348.241051 
L 354.381818 343.543755 
L 354.855273 335.852256 
L 355.058182 329.628547 
L 355.193455 321.006779 
L 355.261091 311.401949 
L 355.396364 182.982906 
L 355.599273 364.784703 
L 355.802182 384.825234 
L 355.869818 385.048929 
L 356.005091 383.370994 
L 357.019636 365.153927 
L 357.425455 362.196025 
L 357.831273 360.747308 
L 358.575273 358.403012 
L 358.981091 357.015553 
L 359.116364 357.044945 
L 359.386909 357.211909 
L 359.589818 356.910895 
L 359.860364 355.964474 
L 360.333818 353.285934 
L 361.010182 348.471044 
L 361.483636 343.394852 
L 361.821818 337.343235 
L 362.024727 330.494455 
L 362.16 320.278841 
L 362.227636 306.672884 
L 362.295273 196.223029 
L 362.362909 228.103227 
L 362.565818 374.343758 
L 362.768727 388.566228 
L 362.904 387.039736 
L 363.986182 366.386267 
L 364.392 363.617027 
L 364.933091 361.724524 
L 365.947636 358.832381 
L 366.488727 358.010011 
L 366.826909 356.901956 
L 367.503273 353.683473 
L 368.653091 346.851236 
L 369.126545 341.572743 
L 369.397091 336.361145 
L 369.6 328.598393 
L 369.735273 315.024795 
L 369.802909 287.029327 
L 369.870545 163.804011 
L 370.073455 365.179526 
L 370.276364 387.571866 
L 370.344 387.666873 
L 370.546909 384.226113 
L 371.290909 368.875 
L 371.696727 364.885218 
L 372.102545 362.873514 
L 372.914182 360.286455 
L 373.455273 358.588909 
L 374.064 355.664397 
L 374.808 350.985635 
L 375.416727 346.315798 
L 376.093091 338.734779 
L 376.363636 331.601821 
L 376.498909 323.784259 
L 376.566545 315.703075 
L 376.634182 292.540646 
L 376.701818 159.126578 
L 376.904727 362.260788 
L 377.107636 386.449438 
L 377.175273 386.774119 
L 377.310545 385.076116 
L 378.325091 366.293446 
L 378.730909 363.509208 
L 379.407273 360.91743 
L 381.098182 355.295751 
L 381.639273 352.149659 
L 383.194909 340.503568 
L 383.465455 335.433186 
L 383.668364 327.51002 
L 383.803636 312.426607 
L 383.938909 180.87715 
L 384.141818 366.769496 
L 384.344727 386.565037 
L 384.412364 386.627357 
L 384.615273 383.294796 
L 385.426909 367.302872 
L 385.765091 364.195372 
L 386.238545 361.948413 
L 386.982545 359.371923 
L 387.929455 356.250279 
L 389.282182 351.319899 
L 389.755636 349.424245 
L 390.093818 346.923251 
L 390.499636 341.997666 
L 390.770182 336.195574 
L 390.973091 327.113053 
L 391.108364 306.595997 
L 391.176 182.122139 
L 391.243636 230.051832 
L 391.446545 375.485715 
L 391.649455 389.313973 
L 391.784727 387.638502 
L 392.799273 367.385142 
L 393.205091 364.17712 
L 393.610909 362.544483 
L 394.760727 359.089209 
L 395.166545 357.791141 
L 395.572364 356.65985 
L 396.181091 353.915656 
L 396.722182 350.536249 
L 397.263273 345.430502 
L 397.669091 339.843144 
L 397.939636 333.925059 
L 398.142545 324.501004 
L 398.277818 300.951085 
L 398.345455 167.324133 
L 398.548364 357.130376 
L 398.751273 385.683568 
L 398.818909 386.347755 
L 398.886545 385.941779 
L 399.157091 380.595523 
L 399.765818 368.460873 
L 400.171636 364.334267 
L 400.577455 362.351677 
L 402.674182 355.099254 
L 403.282909 352.04387 
L 403.621091 350.581673 
L 403.959273 349.506266 
L 404.297455 347.725186 
L 404.703273 344.300404 
L 405.041455 340.058435 
L 405.379636 332.58028 
L 405.582545 322.678795 
L 405.650182 314.961357 
L 405.717818 294.346347 
L 405.785455 163.082915 
L 405.988364 358.471927 
L 406.191273 384.090033 
L 406.258909 384.726436 
L 406.326545 384.331604 
L 406.597091 379.099908 
L 407.205818 367.33481 
L 407.611636 363.188269 
L 408.085091 360.712637 
L 409.032 357.375862 
L 409.573091 355.038145 
L 410.655273 348.966604 
L 411.128727 345.164768 
L 411.466909 340.589835 
L 411.737455 334.503146 
L 411.940364 324.941935 
L 412.075636 300.069155 
L 412.143273 158.632971 
L 412.346182 358.888819 
L 412.549091 387.183872 
L 412.616727 387.726657 
L 412.752 386.06665 
L 413.766545 366.507206 
L 414.172364 363.407108 
L 414.578182 361.973546 
L 415.998545 357.630794 
L 417.351273 351.792771 
L 417.96 347.215903 
L 418.501091 341.006911 
L 418.771636 335.862577 
L 418.974545 328.66612 
L 419.109818 317.064283 
L 419.177455 298.613005 
L 419.245091 159.16776 
L 419.448 358.925948 
L 419.650909 386.232534 
L 419.718545 386.794787 
L 419.853818 385.278747 
L 420.936 365.571745 
L 421.341818 363.027621 
L 422.153455 360.072035 
L 422.829818 357.867906 
L 423.235636 356.499996 
L 423.979636 352.966903 
L 425.129455 346.903979 
L 425.467636 344.843977 
L 425.873455 342.575513 
L 426.144 339.243657 
L 426.346909 334.210693 
L 426.482182 327.62082 
L 426.617455 308.28444 
L 426.685091 199.954003 
L 426.752727 217.113683 
L 426.955636 373.536482 
L 427.158545 388.857314 
L 427.293818 387.353247 
L 428.308364 367.230449 
L 428.714182 364.233603 
L 429.322909 361.800886 
L 430.337455 358.423556 
L 430.472727 357.993119 
L 430.675636 384.51976 
L 431.013818 401.029309 
L 431.554909 415.577899 
L 432.366545 431.04327 
L 433.110545 441.343846 
L 433.719273 446.90231 
L 434.260364 450.056696 
L 434.801455 452.033915 
L 435.342545 453.250339 
L 435.951273 454.065104 
L 436.627636 454.569337 
L 437.439273 454.864551 
L 438.453818 454.976866 
L 439.806545 454.885106 
L 442.309091 454.424908 
L 444.676364 454.11312 
L 448.058182 453.930171 
L 454.957091 453.818093 
L 475.992 453.792197 
L 498.109091 453.792397 
L 498.109091 453.792397 
" clip-path="url(#pcc2c0fa7b1)" style="fill: none; stroke: #000000; stroke-width: 1.5; stroke-linecap: square"/>
   </g>
   <g id="line2d_14">
    <path d="M 497.973818 408.87 
" clip-path="url(#pcc2c0fa7b1)" style="fill: none; stroke: #000000; stroke-width: 1.5; stroke-linecap: square"/>
   </g>
   <g id="line2d_15">
    <path d="M 430.472727 368.1 
L 430.472727 365.382 
L 430.472727 362.664 
L 430.472727 359.946 
L 430.472727 357.228 
L 430.472727 354.51 
L 430.472727 351.792 
L 430.472727 349.074 
L 430.472727 346.356 
L 430.472727 343.638 
L 430.472727 340.92 
L 430.472727 338.202 
L 430.472727 335.484 
L 430.472727 332.766 
L 430.472727 330.048 
L 430.472727 327.33 
L 430.472727 324.612 
L 430.472727 321.894 
L 430.472727 319.176 
L 430.472727 316.458 
" clip-path="url(#pcc2c0fa7b1)" style="fill: none; stroke: #000000; stroke-width: 1.5; stroke-linecap: square"/>
   </g>
   <g id="patch_3">
    <path d="M 72 504 
L 72 69.12 
" style="fill: none; stroke: #000000; stroke-width: 0.8; stroke-linejoin: miter; stroke-linecap: square"/>
   </g>
   <g id="patch_4">
    <path d="M 518.4 504 
L 518.4 69.12 
" style="fill: none; stroke: #000000; stroke-width: 0.8; stroke-linejoin: miter; stroke-linecap: square"/>
   </g>
   <g id="patch_5">
    <path d="M 72 504 
L 518.4 504 
" style="fill: none; stroke: #000000; stroke-width: 0.8; stroke-linejoin: miter; stroke-linecap: square"/>
   </g>
   <g id="patch_6">
    <path d="M 72 69.12 
L 518.4 69.12 
" style="fill: none; stroke: #000000; stroke-width: 0.8; stroke-linejoin: miter; stroke-linecap: square"/>
   </g>
   <g id="text_15">
    <!-- 500 ms -->
    <g transform="translate(497.973818 406.152)scale(0.22 -0.22)">
     <defs>
      <path id="ArialMT-35" d="M 266 1200 
L 856 1250 
Q 922 819 1161 601 
Q 1400 384 1738 384 
Q 2144 384 2425 690 
Q 2706 997 2706 1503 
Q 2706 1984 2436 2262 
Q 2166 2541 1728 2541 
Q 1456 2541 1237 2417 
Q 1019 2294 894 2097 
L 366 2166 
L 809 4519 
L 3088 4519 
L 3088 3981 
L 1259 3981 
L 1013 2750 
Q 1425 3038 1878 3038 
Q 2478 3038 2890 2622 
Q 3303 2206 3303 1553 
Q 3303 931 2941 478 
Q 2500 -78 1738 -78 
Q 1113 -78 717 272 
Q 322 622 266 1200 
z
" transform="scale(0.015625)"/>
      <path id="ArialMT-30" d="M 266 2259 
Q 266 3072 433 3567 
Q 600 4063 929 4331 
Q 1259 4600 1759 4600 
Q 2128 4600 2406 4451 
Q 2684 4303 2865 4023 
Q 3047 3744 3150 3342 
Q 3253 2941 3253 2259 
Q 3253 1453 3087 958 
Q 2922 463 2592 192 
Q 2263 -78 1759 -78 
Q 1097 -78 719 397 
Q 266 969 266 2259 
z
M 844 2259 
Q 844 1131 1108 757 
Q 1372 384 1759 384 
Q 2147 384 2411 759 
Q 2675 1134 2675 2259 
Q 2675 3391 2411 3762 
Q 2147 4134 1753 4134 
Q 1366 4134 1134 3806 
Q 844 3388 844 2259 
z
" transform="scale(0.015625)"/>
     </defs>
     <use xlink:href="#ArialMT-35"/>
     <use xlink:href="#ArialMT-30" x="55.615234"/>
     <use xlink:href="#ArialMT-30" x="111.230469"/>
     <use xlink:href="#ArialMT-20" x="166.845703"/>
     <use xlink:href="#ArialMT-6d" x="194.628906"/>
     <use xlink:href="#ArialMT-73" x="277.929688"/>
    </g>
   </g>
   <g id="text_16">
    <!-- 20 mV -->
    <g transform="translate(504.737455 321.894)scale(0.22 -0.22)">
     <defs>
      <path id="ArialMT-32" d="M 3222 541 
L 3222 0 
L 194 0 
Q 188 203 259 391 
Q 375 700 629 1000 
Q 884 1300 1366 1694 
Q 2113 2306 2375 2664 
Q 2638 3022 2638 3341 
Q 2638 3675 2398 3904 
Q 2159 4134 1775 4134 
Q 1369 4134 1125 3890 
Q 881 3647 878 3216 
L 300 3275 
Q 359 3922 746 4261 
Q 1134 4600 1788 4600 
Q 2447 4600 2831 4234 
Q 3216 3869 3216 3328 
Q 3216 3053 3103 2787 
Q 2991 2522 2730 2228 
Q 2469 1934 1863 1422 
Q 1356 997 1212 845 
Q 1069 694 975 541 
L 3222 541 
z
" transform="scale(0.015625)"/>
     </defs>
     <use xlink:href="#ArialMT-32"/>
     <use xlink:href="#ArialMT-30" x="55.615234"/>
     <use xlink:href="#ArialMT-20" x="111.230469"/>
     <use xlink:href="#ArialMT-6d" x="139.013672"/>
     <use xlink:href="#ArialMT-56" x="222.314453"/>
    </g>
   </g>
   <g id="text_17">
    <!--  Plotting dSPN, trace number 2951  -->
    <g transform="translate(122.17 63.12)scale(0.22 -0.22)">
     <defs>
      <path id="ArialMT-50" d="M 494 0 
L 494 4581 
L 2222 4581 
Q 2678 4581 2919 4538 
Q 3256 4481 3484 4323 
Q 3713 4166 3852 3881 
Q 3991 3597 3991 3256 
Q 3991 2672 3619 2267 
Q 3247 1863 2275 1863 
L 1100 1863 
L 1100 0 
L 494 0 
z
M 1100 2403 
L 2284 2403 
Q 2872 2403 3119 2622 
Q 3366 2841 3366 3238 
Q 3366 3525 3220 3729 
Q 3075 3934 2838 4000 
Q 2684 4041 2272 4041 
L 1100 4041 
L 1100 2403 
z
" transform="scale(0.015625)"/>
      <path id="ArialMT-67" d="M 319 -275 
L 866 -356 
Q 900 -609 1056 -725 
Q 1266 -881 1628 -881 
Q 2019 -881 2231 -725 
Q 2444 -569 2519 -288 
Q 2563 -116 2559 434 
Q 2191 0 1641 0 
Q 956 0 581 494 
Q 206 988 206 1678 
Q 206 2153 378 2554 
Q 550 2956 876 3175 
Q 1203 3394 1644 3394 
Q 2231 3394 2613 2919 
L 2613 3319 
L 3131 3319 
L 3131 450 
Q 3131 -325 2973 -648 
Q 2816 -972 2473 -1159 
Q 2131 -1347 1631 -1347 
Q 1038 -1347 672 -1080 
Q 306 -813 319 -275 
z
M 784 1719 
Q 784 1066 1043 766 
Q 1303 466 1694 466 
Q 2081 466 2343 764 
Q 2606 1063 2606 1700 
Q 2606 2309 2336 2618 
Q 2066 2928 1684 2928 
Q 1309 2928 1046 2623 
Q 784 2319 784 1719 
z
" transform="scale(0.015625)"/>
      <path id="ArialMT-64" d="M 2575 0 
L 2575 419 
Q 2259 -75 1647 -75 
Q 1250 -75 917 144 
Q 584 363 401 755 
Q 219 1147 219 1656 
Q 219 2153 384 2558 
Q 550 2963 881 3178 
Q 1213 3394 1622 3394 
Q 1922 3394 2156 3267 
Q 2391 3141 2538 2938 
L 2538 4581 
L 3097 4581 
L 3097 0 
L 2575 0 
z
M 797 1656 
Q 797 1019 1065 703 
Q 1334 388 1700 388 
Q 2069 388 2326 689 
Q 2584 991 2584 1609 
Q 2584 2291 2321 2609 
Q 2059 2928 1675 2928 
Q 1300 2928 1048 2622 
Q 797 2316 797 1656 
z
" transform="scale(0.015625)"/>
      <path id="ArialMT-53" d="M 288 1472 
L 859 1522 
Q 900 1178 1048 958 
Q 1197 738 1509 602 
Q 1822 466 2213 466 
Q 2559 466 2825 569 
Q 3091 672 3220 851 
Q 3350 1031 3350 1244 
Q 3350 1459 3225 1620 
Q 3100 1781 2813 1891 
Q 2628 1963 1997 2114 
Q 1366 2266 1113 2400 
Q 784 2572 623 2826 
Q 463 3081 463 3397 
Q 463 3744 659 4045 
Q 856 4347 1234 4503 
Q 1613 4659 2075 4659 
Q 2584 4659 2973 4495 
Q 3363 4331 3572 4012 
Q 3781 3694 3797 3291 
L 3216 3247 
Q 3169 3681 2898 3903 
Q 2628 4125 2100 4125 
Q 1550 4125 1298 3923 
Q 1047 3722 1047 3438 
Q 1047 3191 1225 3031 
Q 1400 2872 2139 2705 
Q 2878 2538 3153 2413 
Q 3553 2228 3743 1945 
Q 3934 1663 3934 1294 
Q 3934 928 3725 604 
Q 3516 281 3123 101 
Q 2731 -78 2241 -78 
Q 1619 -78 1198 103 
Q 778 284 539 648 
Q 300 1013 288 1472 
z
" transform="scale(0.015625)"/>
      <path id="ArialMT-4e" d="M 488 0 
L 488 4581 
L 1109 4581 
L 3516 984 
L 3516 4581 
L 4097 4581 
L 4097 0 
L 3475 0 
L 1069 3600 
L 1069 0 
L 488 0 
z
" transform="scale(0.015625)"/>
      <path id="ArialMT-2c" d="M 569 0 
L 569 641 
L 1209 641 
L 1209 0 
Q 1209 -353 1084 -570 
Q 959 -788 688 -906 
L 531 -666 
Q 709 -588 793 -436 
Q 878 -284 888 0 
L 569 0 
z
" transform="scale(0.015625)"/>
      <path id="ArialMT-63" d="M 2588 1216 
L 3141 1144 
Q 3050 572 2676 248 
Q 2303 -75 1759 -75 
Q 1078 -75 664 370 
Q 250 816 250 1647 
Q 250 2184 428 2587 
Q 606 2991 970 3192 
Q 1334 3394 1763 3394 
Q 2303 3394 2647 3120 
Q 2991 2847 3088 2344 
L 2541 2259 
Q 2463 2594 2264 2762 
Q 2066 2931 1784 2931 
Q 1359 2931 1093 2626 
Q 828 2322 828 1663 
Q 828 994 1084 691 
Q 1341 388 1753 388 
Q 2084 388 2306 591 
Q 2528 794 2588 1216 
z
" transform="scale(0.015625)"/>
      <path id="ArialMT-75" d="M 2597 0 
L 2597 488 
Q 2209 -75 1544 -75 
Q 1250 -75 995 37 
Q 741 150 617 320 
Q 494 491 444 738 
Q 409 903 409 1263 
L 409 3319 
L 972 3319 
L 972 1478 
Q 972 1038 1006 884 
Q 1059 663 1231 536 
Q 1403 409 1656 409 
Q 1909 409 2131 539 
Q 2353 669 2445 892 
Q 2538 1116 2538 1541 
L 2538 3319 
L 3100 3319 
L 3100 0 
L 2597 0 
z
" transform="scale(0.015625)"/>
      <path id="ArialMT-39" d="M 350 1059 
L 891 1109 
Q 959 728 1153 556 
Q 1347 384 1650 384 
Q 1909 384 2104 503 
Q 2300 622 2425 820 
Q 2550 1019 2634 1356 
Q 2719 1694 2719 2044 
Q 2719 2081 2716 2156 
Q 2547 1888 2255 1720 
Q 1963 1553 1622 1553 
Q 1053 1553 659 1965 
Q 266 2378 266 3053 
Q 266 3750 677 4175 
Q 1088 4600 1706 4600 
Q 2153 4600 2523 4359 
Q 2894 4119 3086 3673 
Q 3278 3228 3278 2384 
Q 3278 1506 3087 986 
Q 2897 466 2520 194 
Q 2144 -78 1638 -78 
Q 1100 -78 759 220 
Q 419 519 350 1059 
z
M 2653 3081 
Q 2653 3566 2395 3850 
Q 2138 4134 1775 4134 
Q 1400 4134 1122 3828 
Q 844 3522 844 3034 
Q 844 2597 1108 2323 
Q 1372 2050 1759 2050 
Q 2150 2050 2401 2323 
Q 2653 2597 2653 3081 
z
" transform="scale(0.015625)"/>
      <path id="ArialMT-31" d="M 2384 0 
L 1822 0 
L 1822 3584 
Q 1619 3391 1289 3197 
Q 959 3003 697 2906 
L 697 3450 
Q 1169 3672 1522 3987 
Q 1875 4303 2022 4600 
L 2384 4600 
L 2384 0 
z
" transform="scale(0.015625)"/>
     </defs>
     <use xlink:href="#ArialMT-20"/>
     <use xlink:href="#ArialMT-50" x="27.783203"/>
     <use xlink:href="#ArialMT-6c" x="94.482422"/>
     <use xlink:href="#ArialMT-6f" x="116.699219"/>
     <use xlink:href="#ArialMT-74" x="172.314453"/>
     <use xlink:href="#ArialMT-74" x="200.097656"/>
     <use xlink:href="#ArialMT-69" x="227.880859"/>
     <use xlink:href="#ArialMT-6e" x="250.097656"/>
     <use xlink:href="#ArialMT-67" x="305.712891"/>
     <use xlink:href="#ArialMT-20" x="361.328125"/>
     <use xlink:href="#ArialMT-64" x="389.111328"/>
     <use xlink:href="#ArialMT-53" x="444.726562"/>
     <use xlink:href="#ArialMT-50" x="511.425781"/>
     <use xlink:href="#ArialMT-4e" x="578.125"/>
     <use xlink:href="#ArialMT-2c" x="650.341797"/>
     <use xlink:href="#ArialMT-20" x="678.125"/>
     <use xlink:href="#ArialMT-74" x="705.908203"/>
     <use xlink:href="#ArialMT-72" x="733.691406"/>
     <use xlink:href="#ArialMT-61" x="766.992188"/>
     <use xlink:href="#ArialMT-63" x="822.607422"/>
     <use xlink:href="#ArialMT-65" x="872.607422"/>
     <use xlink:href="#ArialMT-20" x="928.222656"/>
     <use xlink:href="#ArialMT-6e" x="956.005859"/>
     <use xlink:href="#ArialMT-75" x="1011.621094"/>
     <use xlink:href="#ArialMT-6d" x="1067.236328"/>
     <use xlink:href="#ArialMT-62" x="1150.537109"/>
     <use xlink:href="#ArialMT-65" x="1206.152344"/>
     <use xlink:href="#ArialMT-72" x="1261.767578"/>
     <use xlink:href="#ArialMT-20" x="1295.068359"/>
     <use xlink:href="#ArialMT-32" x="1322.851562"/>
     <use xlink:href="#ArialMT-39" x="1378.466797"/>
     <use xlink:href="#ArialMT-35" x="1434.082031"/>
     <use xlink:href="#ArialMT-31" x="1489.697266"/>
     <use xlink:href="#ArialMT-20" x="1545.3125"/>
    </g>
   </g>
  </g>
 </g>
 <defs>
  <clipPath id="pcc2c0fa7b1">
   <rect x="72" y="69.12" width="446.4" height="434.88"/>
  </clipPath>
 </defs>
</svg>
