<?xml version="1.0" encoding="utf-8" standalone="no"?>
<!DOCTYPE svg PUBLIC "-//W3C//DTD SVG 1.1//EN"
  "http://www.w3.org/Graphics/SVG/1.1/DTD/svg11.dtd">
<svg xmlns:xlink="http://www.w3.org/1999/xlink" width="576pt" height="576pt" viewBox="0 0 576 576" xmlns="http://www.w3.org/2000/svg" version="1.1">
 <metadata>
  <rdf:RDF xmlns:dc="http://purl.org/dc/elements/1.1/" xmlns:cc="http://creativecommons.org/ns#" xmlns:rdf="http://www.w3.org/1999/02/22-rdf-syntax-ns#">
   <cc:Work>
    <dc:type rdf:resource="http://purl.org/dc/dcmitype/StillImage"/>
    <dc:date>2022-10-30T19:57:10.743239</dc:date>
    <dc:format>image/svg+xml</dc:format>
    <dc:creator>
     <cc:Agent>
      <dc:title>Matplotlib v3.5.2, https://matplotlib.org/</dc:title>
     </cc:Agent>
    </dc:creator>
   </cc:Work>
  </rdf:RDF>
 </metadata>
 <defs>
  <style type="text/css">*{stroke-linejoin: round; stroke-linecap: butt}</style>
 </defs>
 <g id="figure_1">
  <g id="patch_1">
   <path d="M 0 576 
L 576 576 
L 576 0 
L 0 0 
L 0 576 
z
" style="fill: none"/>
  </g>
  <g id="axes_1">
   <g id="patch_2">
    <path d="M 72 504 
L 518.4 504 
L 518.4 69.12 
L 72 69.12 
z
" style="fill: #ffffff"/>
   </g>
   <g id="matplotlib.axis_1">
    <g id="xtick_1">
     <g id="line2d_1">
      <defs>
       <path id="mf0275027a2" d="M 0 0 
L 0 3.5 
" style="stroke: #000000; stroke-width: 0.8"/>
      </defs>
      <g>
       <use xlink:href="#mf0275027a2" x="92.290909" y="504" style="stroke: #000000; stroke-width: 0.8"/>
      </g>
     </g>
     <g id="text_1">
      <!-- 0 -->
      <g transform="translate(85.292159 527.716563)scale(0.22 -0.22)">
       <defs>
        <path id="DejaVuSans-30" d="M 2034 4250 
Q 1547 4250 1301 3770 
Q 1056 3291 1056 2328 
Q 1056 1369 1301 889 
Q 1547 409 2034 409 
Q 2525 409 2770 889 
Q 3016 1369 3016 2328 
Q 3016 3291 2770 3770 
Q 2525 4250 2034 4250 
z
M 2034 4750 
Q 2819 4750 3233 4129 
Q 3647 3509 3647 2328 
Q 3647 1150 3233 529 
Q 2819 -91 2034 -91 
Q 1250 -91 836 529 
Q 422 1150 422 2328 
Q 422 3509 836 4129 
Q 1250 4750 2034 4750 
z
" transform="scale(0.015625)"/>
       </defs>
       <use xlink:href="#DejaVuSans-30"/>
      </g>
     </g>
    </g>
    <g id="xtick_2">
     <g id="line2d_2">
      <g>
       <use xlink:href="#mf0275027a2" x="227.563636" y="504" style="stroke: #000000; stroke-width: 0.8"/>
      </g>
     </g>
     <g id="text_2">
      <!-- 1000 -->
      <g transform="translate(199.568636 527.716563)scale(0.22 -0.22)">
       <defs>
        <path id="DejaVuSans-31" d="M 794 531 
L 1825 531 
L 1825 4091 
L 703 3866 
L 703 4441 
L 1819 4666 
L 2450 4666 
L 2450 531 
L 3481 531 
L 3481 0 
L 794 0 
L 794 531 
z
" transform="scale(0.015625)"/>
       </defs>
       <use xlink:href="#DejaVuSans-31"/>
       <use xlink:href="#DejaVuSans-30" x="63.623047"/>
       <use xlink:href="#DejaVuSans-30" x="127.246094"/>
       <use xlink:href="#DejaVuSans-30" x="190.869141"/>
      </g>
     </g>
    </g>
    <g id="xtick_3">
     <g id="line2d_3">
      <g>
       <use xlink:href="#mf0275027a2" x="362.836364" y="504" style="stroke: #000000; stroke-width: 0.8"/>
      </g>
     </g>
     <g id="text_3">
      <!-- 2000 -->
      <g transform="translate(334.841364 527.716563)scale(0.22 -0.22)">
       <defs>
        <path id="DejaVuSans-32" d="M 1228 531 
L 3431 531 
L 3431 0 
L 469 0 
L 469 531 
Q 828 903 1448 1529 
Q 2069 2156 2228 2338 
Q 2531 2678 2651 2914 
Q 2772 3150 2772 3378 
Q 2772 3750 2511 3984 
Q 2250 4219 1831 4219 
Q 1534 4219 1204 4116 
Q 875 4013 500 3803 
L 500 4441 
Q 881 4594 1212 4672 
Q 1544 4750 1819 4750 
Q 2544 4750 2975 4387 
Q 3406 4025 3406 3419 
Q 3406 3131 3298 2873 
Q 3191 2616 2906 2266 
Q 2828 2175 2409 1742 
Q 1991 1309 1228 531 
z
" transform="scale(0.015625)"/>
       </defs>
       <use xlink:href="#DejaVuSans-32"/>
       <use xlink:href="#DejaVuSans-30" x="63.623047"/>
       <use xlink:href="#DejaVuSans-30" x="127.246094"/>
       <use xlink:href="#DejaVuSans-30" x="190.869141"/>
      </g>
     </g>
    </g>
    <g id="xtick_4">
     <g id="line2d_4">
      <g>
       <use xlink:href="#mf0275027a2" x="498.109091" y="504" style="stroke: #000000; stroke-width: 0.8"/>
      </g>
     </g>
     <g id="text_4">
      <!-- 3000 -->
      <g transform="translate(470.114091 527.716563)scale(0.22 -0.22)">
       <defs>
        <path id="DejaVuSans-33" d="M 2597 2516 
Q 3050 2419 3304 2112 
Q 3559 1806 3559 1356 
Q 3559 666 3084 287 
Q 2609 -91 1734 -91 
Q 1441 -91 1130 -33 
Q 819 25 488 141 
L 488 750 
Q 750 597 1062 519 
Q 1375 441 1716 441 
Q 2309 441 2620 675 
Q 2931 909 2931 1356 
Q 2931 1769 2642 2001 
Q 2353 2234 1838 2234 
L 1294 2234 
L 1294 2753 
L 1863 2753 
Q 2328 2753 2575 2939 
Q 2822 3125 2822 3475 
Q 2822 3834 2567 4026 
Q 2313 4219 1838 4219 
Q 1578 4219 1281 4162 
Q 984 4106 628 3988 
L 628 4550 
Q 988 4650 1302 4700 
Q 1616 4750 1894 4750 
Q 2613 4750 3031 4423 
Q 3450 4097 3450 3541 
Q 3450 3153 3228 2886 
Q 3006 2619 2597 2516 
z
" transform="scale(0.015625)"/>
       </defs>
       <use xlink:href="#DejaVuSans-33"/>
       <use xlink:href="#DejaVuSans-30" x="63.623047"/>
       <use xlink:href="#DejaVuSans-30" x="127.246094"/>
       <use xlink:href="#DejaVuSans-30" x="190.869141"/>
      </g>
     </g>
    </g>
    <g id="text_5">
     <!-- Time(ms) -->
     <g transform="translate(249.182187 552.307188)scale(0.22 -0.22)">
      <defs>
       <path id="ArialMT-54" d="M 1659 0 
L 1659 4041 
L 150 4041 
L 150 4581 
L 3781 4581 
L 3781 4041 
L 2266 4041 
L 2266 0 
L 1659 0 
z
" transform="scale(0.015625)"/>
       <path id="ArialMT-69" d="M 425 3934 
L 425 4581 
L 988 4581 
L 988 3934 
L 425 3934 
z
M 425 0 
L 425 3319 
L 988 3319 
L 988 0 
L 425 0 
z
" transform="scale(0.015625)"/>
       <path id="ArialMT-6d" d="M 422 0 
L 422 3319 
L 925 3319 
L 925 2853 
Q 1081 3097 1340 3245 
Q 1600 3394 1931 3394 
Q 2300 3394 2536 3241 
Q 2772 3088 2869 2813 
Q 3263 3394 3894 3394 
Q 4388 3394 4653 3120 
Q 4919 2847 4919 2278 
L 4919 0 
L 4359 0 
L 4359 2091 
Q 4359 2428 4304 2576 
Q 4250 2725 4106 2815 
Q 3963 2906 3769 2906 
Q 3419 2906 3187 2673 
Q 2956 2441 2956 1928 
L 2956 0 
L 2394 0 
L 2394 2156 
Q 2394 2531 2256 2718 
Q 2119 2906 1806 2906 
Q 1569 2906 1367 2781 
Q 1166 2656 1075 2415 
Q 984 2175 984 1722 
L 984 0 
L 422 0 
z
" transform="scale(0.015625)"/>
       <path id="ArialMT-65" d="M 2694 1069 
L 3275 997 
Q 3138 488 2766 206 
Q 2394 -75 1816 -75 
Q 1088 -75 661 373 
Q 234 822 234 1631 
Q 234 2469 665 2931 
Q 1097 3394 1784 3394 
Q 2450 3394 2872 2941 
Q 3294 2488 3294 1666 
Q 3294 1616 3291 1516 
L 816 1516 
Q 847 969 1125 678 
Q 1403 388 1819 388 
Q 2128 388 2347 550 
Q 2566 713 2694 1069 
z
M 847 1978 
L 2700 1978 
Q 2663 2397 2488 2606 
Q 2219 2931 1791 2931 
Q 1403 2931 1139 2672 
Q 875 2413 847 1978 
z
" transform="scale(0.015625)"/>
       <path id="ArialMT-28" d="M 1497 -1347 
Q 1031 -759 709 28 
Q 388 816 388 1659 
Q 388 2403 628 3084 
Q 909 3875 1497 4659 
L 1900 4659 
Q 1522 4009 1400 3731 
Q 1209 3300 1100 2831 
Q 966 2247 966 1656 
Q 966 153 1900 -1347 
L 1497 -1347 
z
" transform="scale(0.015625)"/>
       <path id="ArialMT-73" d="M 197 991 
L 753 1078 
Q 800 744 1014 566 
Q 1228 388 1613 388 
Q 2000 388 2187 545 
Q 2375 703 2375 916 
Q 2375 1106 2209 1216 
Q 2094 1291 1634 1406 
Q 1016 1563 777 1677 
Q 538 1791 414 1992 
Q 291 2194 291 2438 
Q 291 2659 392 2848 
Q 494 3038 669 3163 
Q 800 3259 1026 3326 
Q 1253 3394 1513 3394 
Q 1903 3394 2198 3281 
Q 2494 3169 2634 2976 
Q 2775 2784 2828 2463 
L 2278 2388 
Q 2241 2644 2061 2787 
Q 1881 2931 1553 2931 
Q 1166 2931 1000 2803 
Q 834 2675 834 2503 
Q 834 2394 903 2306 
Q 972 2216 1119 2156 
Q 1203 2125 1616 2013 
Q 2213 1853 2448 1751 
Q 2684 1650 2818 1456 
Q 2953 1263 2953 975 
Q 2953 694 2789 445 
Q 2625 197 2315 61 
Q 2006 -75 1616 -75 
Q 969 -75 630 194 
Q 291 463 197 991 
z
" transform="scale(0.015625)"/>
       <path id="ArialMT-29" d="M 791 -1347 
L 388 -1347 
Q 1322 153 1322 1656 
Q 1322 2244 1188 2822 
Q 1081 3291 891 3722 
Q 769 4003 388 4659 
L 791 4659 
Q 1378 3875 1659 3084 
Q 1900 2403 1900 1659 
Q 1900 816 1576 28 
Q 1253 -759 791 -1347 
z
" transform="scale(0.015625)"/>
      </defs>
      <use xlink:href="#ArialMT-54"/>
      <use xlink:href="#ArialMT-69" x="57.333984"/>
      <use xlink:href="#ArialMT-6d" x="79.550781"/>
      <use xlink:href="#ArialMT-65" x="162.851562"/>
      <use xlink:href="#ArialMT-28" x="218.466797"/>
      <use xlink:href="#ArialMT-6d" x="251.767578"/>
      <use xlink:href="#ArialMT-73" x="335.068359"/>
      <use xlink:href="#ArialMT-29" x="385.068359"/>
     </g>
    </g>
   </g>
   <g id="matplotlib.axis_2">
    <g id="ytick_1">
     <g id="line2d_5">
      <defs>
       <path id="m5e12d27d0c" d="M 0 0 
L -3.5 0 
" style="stroke: #000000; stroke-width: 0.8"/>
      </defs>
      <g>
       <use xlink:href="#m5e12d27d0c" x="72" y="476.82" style="stroke: #000000; stroke-width: 0.8"/>
      </g>
     </g>
     <g id="text_6">
      <!-- −100 -->
      <g transform="translate(4.572187 485.178281)scale(0.22 -0.22)">
       <defs>
        <path id="DejaVuSans-2212" d="M 678 2272 
L 4684 2272 
L 4684 1741 
L 678 1741 
L 678 2272 
z
" transform="scale(0.015625)"/>
       </defs>
       <use xlink:href="#DejaVuSans-2212"/>
       <use xlink:href="#DejaVuSans-31" x="83.789062"/>
       <use xlink:href="#DejaVuSans-30" x="147.412109"/>
       <use xlink:href="#DejaVuSans-30" x="211.035156"/>
      </g>
     </g>
    </g>
    <g id="ytick_2">
     <g id="line2d_6">
      <g>
       <use xlink:href="#m5e12d27d0c" x="72" y="422.46" style="stroke: #000000; stroke-width: 0.8"/>
      </g>
     </g>
     <g id="text_7">
      <!-- −80 -->
      <g transform="translate(18.569688 430.818281)scale(0.22 -0.22)">
       <defs>
        <path id="DejaVuSans-38" d="M 2034 2216 
Q 1584 2216 1326 1975 
Q 1069 1734 1069 1313 
Q 1069 891 1326 650 
Q 1584 409 2034 409 
Q 2484 409 2743 651 
Q 3003 894 3003 1313 
Q 3003 1734 2745 1975 
Q 2488 2216 2034 2216 
z
M 1403 2484 
Q 997 2584 770 2862 
Q 544 3141 544 3541 
Q 544 4100 942 4425 
Q 1341 4750 2034 4750 
Q 2731 4750 3128 4425 
Q 3525 4100 3525 3541 
Q 3525 3141 3298 2862 
Q 3072 2584 2669 2484 
Q 3125 2378 3379 2068 
Q 3634 1759 3634 1313 
Q 3634 634 3220 271 
Q 2806 -91 2034 -91 
Q 1263 -91 848 271 
Q 434 634 434 1313 
Q 434 1759 690 2068 
Q 947 2378 1403 2484 
z
M 1172 3481 
Q 1172 3119 1398 2916 
Q 1625 2713 2034 2713 
Q 2441 2713 2670 2916 
Q 2900 3119 2900 3481 
Q 2900 3844 2670 4047 
Q 2441 4250 2034 4250 
Q 1625 4250 1398 4047 
Q 1172 3844 1172 3481 
z
" transform="scale(0.015625)"/>
       </defs>
       <use xlink:href="#DejaVuSans-2212"/>
       <use xlink:href="#DejaVuSans-38" x="83.789062"/>
       <use xlink:href="#DejaVuSans-30" x="147.412109"/>
      </g>
     </g>
    </g>
    <g id="ytick_3">
     <g id="line2d_7">
      <g>
       <use xlink:href="#m5e12d27d0c" x="72" y="368.1" style="stroke: #000000; stroke-width: 0.8"/>
      </g>
     </g>
     <g id="text_8">
      <!-- −60 -->
      <g transform="translate(18.569688 376.458281)scale(0.22 -0.22)">
       <defs>
        <path id="DejaVuSans-36" d="M 2113 2584 
Q 1688 2584 1439 2293 
Q 1191 2003 1191 1497 
Q 1191 994 1439 701 
Q 1688 409 2113 409 
Q 2538 409 2786 701 
Q 3034 994 3034 1497 
Q 3034 2003 2786 2293 
Q 2538 2584 2113 2584 
z
M 3366 4563 
L 3366 3988 
Q 3128 4100 2886 4159 
Q 2644 4219 2406 4219 
Q 1781 4219 1451 3797 
Q 1122 3375 1075 2522 
Q 1259 2794 1537 2939 
Q 1816 3084 2150 3084 
Q 2853 3084 3261 2657 
Q 3669 2231 3669 1497 
Q 3669 778 3244 343 
Q 2819 -91 2113 -91 
Q 1303 -91 875 529 
Q 447 1150 447 2328 
Q 447 3434 972 4092 
Q 1497 4750 2381 4750 
Q 2619 4750 2861 4703 
Q 3103 4656 3366 4563 
z
" transform="scale(0.015625)"/>
       </defs>
       <use xlink:href="#DejaVuSans-2212"/>
       <use xlink:href="#DejaVuSans-36" x="83.789062"/>
       <use xlink:href="#DejaVuSans-30" x="147.412109"/>
      </g>
     </g>
    </g>
    <g id="ytick_4">
     <g id="line2d_8">
      <g>
       <use xlink:href="#m5e12d27d0c" x="72" y="313.74" style="stroke: #000000; stroke-width: 0.8"/>
      </g>
     </g>
     <g id="text_9">
      <!-- −40 -->
      <g transform="translate(18.569688 322.098281)scale(0.22 -0.22)">
       <defs>
        <path id="DejaVuSans-34" d="M 2419 4116 
L 825 1625 
L 2419 1625 
L 2419 4116 
z
M 2253 4666 
L 3047 4666 
L 3047 1625 
L 3713 1625 
L 3713 1100 
L 3047 1100 
L 3047 0 
L 2419 0 
L 2419 1100 
L 313 1100 
L 313 1709 
L 2253 4666 
z
" transform="scale(0.015625)"/>
       </defs>
       <use xlink:href="#DejaVuSans-2212"/>
       <use xlink:href="#DejaVuSans-34" x="83.789062"/>
       <use xlink:href="#DejaVuSans-30" x="147.412109"/>
      </g>
     </g>
    </g>
    <g id="ytick_5">
     <g id="line2d_9">
      <g>
       <use xlink:href="#m5e12d27d0c" x="72" y="259.38" style="stroke: #000000; stroke-width: 0.8"/>
      </g>
     </g>
     <g id="text_10">
      <!-- −20 -->
      <g transform="translate(18.569688 267.738281)scale(0.22 -0.22)">
       <use xlink:href="#DejaVuSans-2212"/>
       <use xlink:href="#DejaVuSans-32" x="83.789062"/>
       <use xlink:href="#DejaVuSans-30" x="147.412109"/>
      </g>
     </g>
    </g>
    <g id="ytick_6">
     <g id="line2d_10">
      <g>
       <use xlink:href="#m5e12d27d0c" x="72" y="205.02" style="stroke: #000000; stroke-width: 0.8"/>
      </g>
     </g>
     <g id="text_11">
      <!-- 0 -->
      <g transform="translate(51.0025 213.378281)scale(0.22 -0.22)">
       <use xlink:href="#DejaVuSans-30"/>
      </g>
     </g>
    </g>
    <g id="ytick_7">
     <g id="line2d_11">
      <g>
       <use xlink:href="#m5e12d27d0c" x="72" y="150.66" style="stroke: #000000; stroke-width: 0.8"/>
      </g>
     </g>
     <g id="text_12">
      <!-- 20 -->
      <g transform="translate(37.005 159.018281)scale(0.22 -0.22)">
       <use xlink:href="#DejaVuSans-32"/>
       <use xlink:href="#DejaVuSans-30" x="63.623047"/>
      </g>
     </g>
    </g>
    <g id="ytick_8">
     <g id="line2d_12">
      <g>
       <use xlink:href="#m5e12d27d0c" x="72" y="96.3" style="stroke: #000000; stroke-width: 0.8"/>
      </g>
     </g>
     <g id="text_13">
      <!-- 40 -->
      <g transform="translate(37.005 104.658281)scale(0.22 -0.22)">
       <use xlink:href="#DejaVuSans-34"/>
       <use xlink:href="#DejaVuSans-30" x="63.623047"/>
      </g>
     </g>
    </g>
    <g id="text_14">
     <!-- Membrane potential (mV) -->
     <g transform="translate(-4.058125 410.655469)rotate(-90)scale(0.22 -0.22)">
      <defs>
       <path id="ArialMT-4d" d="M 475 0 
L 475 4581 
L 1388 4581 
L 2472 1338 
Q 2622 884 2691 659 
Q 2769 909 2934 1394 
L 4031 4581 
L 4847 4581 
L 4847 0 
L 4263 0 
L 4263 3834 
L 2931 0 
L 2384 0 
L 1059 3900 
L 1059 0 
L 475 0 
z
" transform="scale(0.015625)"/>
       <path id="ArialMT-62" d="M 941 0 
L 419 0 
L 419 4581 
L 981 4581 
L 981 2947 
Q 1338 3394 1891 3394 
Q 2197 3394 2470 3270 
Q 2744 3147 2920 2923 
Q 3097 2700 3197 2384 
Q 3297 2069 3297 1709 
Q 3297 856 2875 390 
Q 2453 -75 1863 -75 
Q 1275 -75 941 416 
L 941 0 
z
M 934 1684 
Q 934 1088 1097 822 
Q 1363 388 1816 388 
Q 2184 388 2453 708 
Q 2722 1028 2722 1663 
Q 2722 2313 2464 2622 
Q 2206 2931 1841 2931 
Q 1472 2931 1203 2611 
Q 934 2291 934 1684 
z
" transform="scale(0.015625)"/>
       <path id="ArialMT-72" d="M 416 0 
L 416 3319 
L 922 3319 
L 922 2816 
Q 1116 3169 1280 3281 
Q 1444 3394 1641 3394 
Q 1925 3394 2219 3213 
L 2025 2691 
Q 1819 2813 1613 2813 
Q 1428 2813 1281 2702 
Q 1134 2591 1072 2394 
Q 978 2094 978 1738 
L 978 0 
L 416 0 
z
" transform="scale(0.015625)"/>
       <path id="ArialMT-61" d="M 2588 409 
Q 2275 144 1986 34 
Q 1697 -75 1366 -75 
Q 819 -75 525 192 
Q 231 459 231 875 
Q 231 1119 342 1320 
Q 453 1522 633 1644 
Q 813 1766 1038 1828 
Q 1203 1872 1538 1913 
Q 2219 1994 2541 2106 
Q 2544 2222 2544 2253 
Q 2544 2597 2384 2738 
Q 2169 2928 1744 2928 
Q 1347 2928 1158 2789 
Q 969 2650 878 2297 
L 328 2372 
Q 403 2725 575 2942 
Q 747 3159 1072 3276 
Q 1397 3394 1825 3394 
Q 2250 3394 2515 3294 
Q 2781 3194 2906 3042 
Q 3031 2891 3081 2659 
Q 3109 2516 3109 2141 
L 3109 1391 
Q 3109 606 3145 398 
Q 3181 191 3288 0 
L 2700 0 
Q 2613 175 2588 409 
z
M 2541 1666 
Q 2234 1541 1622 1453 
Q 1275 1403 1131 1340 
Q 988 1278 909 1158 
Q 831 1038 831 891 
Q 831 666 1001 516 
Q 1172 366 1500 366 
Q 1825 366 2078 508 
Q 2331 650 2450 897 
Q 2541 1088 2541 1459 
L 2541 1666 
z
" transform="scale(0.015625)"/>
       <path id="ArialMT-6e" d="M 422 0 
L 422 3319 
L 928 3319 
L 928 2847 
Q 1294 3394 1984 3394 
Q 2284 3394 2536 3286 
Q 2788 3178 2913 3003 
Q 3038 2828 3088 2588 
Q 3119 2431 3119 2041 
L 3119 0 
L 2556 0 
L 2556 2019 
Q 2556 2363 2490 2533 
Q 2425 2703 2258 2804 
Q 2091 2906 1866 2906 
Q 1506 2906 1245 2678 
Q 984 2450 984 1813 
L 984 0 
L 422 0 
z
" transform="scale(0.015625)"/>
       <path id="ArialMT-20" transform="scale(0.015625)"/>
       <path id="ArialMT-70" d="M 422 -1272 
L 422 3319 
L 934 3319 
L 934 2888 
Q 1116 3141 1344 3267 
Q 1572 3394 1897 3394 
Q 2322 3394 2647 3175 
Q 2972 2956 3137 2557 
Q 3303 2159 3303 1684 
Q 3303 1175 3120 767 
Q 2938 359 2589 142 
Q 2241 -75 1856 -75 
Q 1575 -75 1351 44 
Q 1128 163 984 344 
L 984 -1272 
L 422 -1272 
z
M 931 1641 
Q 931 1000 1190 694 
Q 1450 388 1819 388 
Q 2194 388 2461 705 
Q 2728 1022 2728 1688 
Q 2728 2322 2467 2637 
Q 2206 2953 1844 2953 
Q 1484 2953 1207 2617 
Q 931 2281 931 1641 
z
" transform="scale(0.015625)"/>
       <path id="ArialMT-6f" d="M 213 1659 
Q 213 2581 725 3025 
Q 1153 3394 1769 3394 
Q 2453 3394 2887 2945 
Q 3322 2497 3322 1706 
Q 3322 1066 3130 698 
Q 2938 331 2570 128 
Q 2203 -75 1769 -75 
Q 1072 -75 642 372 
Q 213 819 213 1659 
z
M 791 1659 
Q 791 1022 1069 705 
Q 1347 388 1769 388 
Q 2188 388 2466 706 
Q 2744 1025 2744 1678 
Q 2744 2294 2464 2611 
Q 2184 2928 1769 2928 
Q 1347 2928 1069 2612 
Q 791 2297 791 1659 
z
" transform="scale(0.015625)"/>
       <path id="ArialMT-74" d="M 1650 503 
L 1731 6 
Q 1494 -44 1306 -44 
Q 1000 -44 831 53 
Q 663 150 594 308 
Q 525 466 525 972 
L 525 2881 
L 113 2881 
L 113 3319 
L 525 3319 
L 525 4141 
L 1084 4478 
L 1084 3319 
L 1650 3319 
L 1650 2881 
L 1084 2881 
L 1084 941 
Q 1084 700 1114 631 
Q 1144 563 1211 522 
Q 1278 481 1403 481 
Q 1497 481 1650 503 
z
" transform="scale(0.015625)"/>
       <path id="ArialMT-6c" d="M 409 0 
L 409 4581 
L 972 4581 
L 972 0 
L 409 0 
z
" transform="scale(0.015625)"/>
       <path id="ArialMT-56" d="M 1803 0 
L 28 4581 
L 684 4581 
L 1875 1253 
Q 2019 853 2116 503 
Q 2222 878 2363 1253 
L 3600 4581 
L 4219 4581 
L 2425 0 
L 1803 0 
z
" transform="scale(0.015625)"/>
      </defs>
      <use xlink:href="#ArialMT-4d"/>
      <use xlink:href="#ArialMT-65" x="83.300781"/>
      <use xlink:href="#ArialMT-6d" x="138.916016"/>
      <use xlink:href="#ArialMT-62" x="222.216797"/>
      <use xlink:href="#ArialMT-72" x="277.832031"/>
      <use xlink:href="#ArialMT-61" x="311.132812"/>
      <use xlink:href="#ArialMT-6e" x="366.748047"/>
      <use xlink:href="#ArialMT-65" x="422.363281"/>
      <use xlink:href="#ArialMT-20" x="477.978516"/>
      <use xlink:href="#ArialMT-70" x="505.761719"/>
      <use xlink:href="#ArialMT-6f" x="561.376953"/>
      <use xlink:href="#ArialMT-74" x="616.992188"/>
      <use xlink:href="#ArialMT-65" x="644.775391"/>
      <use xlink:href="#ArialMT-6e" x="700.390625"/>
      <use xlink:href="#ArialMT-74" x="756.005859"/>
      <use xlink:href="#ArialMT-69" x="783.789062"/>
      <use xlink:href="#ArialMT-61" x="806.005859"/>
      <use xlink:href="#ArialMT-6c" x="861.621094"/>
      <use xlink:href="#ArialMT-20" x="883.837891"/>
      <use xlink:href="#ArialMT-28" x="911.621094"/>
      <use xlink:href="#ArialMT-6d" x="944.921875"/>
      <use xlink:href="#ArialMT-56" x="1028.222656"/>
      <use xlink:href="#ArialMT-29" x="1094.921875"/>
     </g>
    </g>
   </g>
   <g id="line2d_13">
    <path d="M 92.290909 430.614 
L 92.493818 433.404385 
L 92.899636 434.412848 
L 93.440727 435.168246 
L 94.117091 435.727319 
L 94.928727 436.087225 
L 96.010909 436.305492 
L 97.904727 436.421108 
L 103.721455 436.449795 
L 159.927273 436.450019 
L 160.130182 418.862523 
L 160.536 407.81199 
L 161.144727 397.259006 
L 162.024 385.911515 
L 164.120727 360.441555 
L 164.661818 349.856971 
L 165 338.698762 
L 165.202909 323.053562 
L 165.270545 309.254537 
L 165.405818 136.182014 
L 165.473455 209.041639 
L 165.676364 312.113318 
L 166.082182 379.947768 
L 166.285091 389.583472 
L 166.420364 390.964221 
L 166.488 390.792153 
L 166.690909 388.510757 
L 168.111273 368.06332 
L 169.328727 353.27223 
L 169.734545 344.804786 
L 170.005091 334.0893 
L 170.140364 322.128627 
L 170.208 307.982422 
L 170.343273 138.892712 
L 170.546182 295.216317 
L 171.019636 375.750574 
L 171.290182 387.559264 
L 171.425455 388.476968 
L 171.560727 387.860164 
L 171.898909 383.584985 
L 173.319273 363.841376 
L 174.063273 352.576323 
L 174.469091 343.12686 
L 174.739636 330.683052 
L 174.874909 313.954453 
L 174.942545 281.690105 
L 175.010182 130.328228 
L 175.077818 184.277469 
L 175.280727 305.202823 
L 175.686545 374.115145 
L 175.957091 387.668543 
L 176.092364 388.949732 
L 176.16 388.847321 
L 176.362909 386.924985 
L 178.730182 352.644929 
L 179.203636 343.989325 
L 179.474182 334.416648 
L 179.609455 324.106264 
L 179.677091 313.162203 
L 179.744727 278.416682 
L 179.812364 131.137629 
L 179.88 187.475694 
L 180.082909 302.800805 
L 180.556364 373.895595 
L 180.826909 385.700106 
L 181.029818 387.113512 
L 181.165091 386.366786 
L 181.503273 382.16851 
L 183.261818 358.066844 
L 183.802909 349.212716 
L 184.141091 340.259629 
L 184.344 329.731282 
L 184.479273 310.349774 
L 184.614545 134.1512 
L 184.682182 201.178532 
L 184.885091 305.674335 
L 185.358545 374.389568 
L 185.629091 385.123542 
L 185.832 386.22026 
L 185.967273 385.509073 
L 186.305455 381.75771 
L 188.672727 349.564369 
L 189.010909 340.997886 
L 189.213818 330.886504 
L 189.349091 313.299136 
L 189.416727 275.33646 
L 189.484364 128.927285 
L 189.552 188.159502 
L 189.754909 303.514076 
L 190.228364 371.059767 
L 190.498909 382.593499 
L 190.701818 384.912886 
L 190.769455 384.9805 
L 190.904727 384.459942 
L 191.175273 381.900993 
L 192.189818 368.457258 
L 192.663273 363.682348 
L 193.339636 356.255191 
L 193.813091 350.987386 
L 194.218909 348.554069 
L 194.489455 345.28023 
L 194.76 339.416872 
L 194.962909 330.714041 
L 195.098182 316.79267 
L 195.165818 296.336944 
L 195.233455 159.268857 
L 195.301091 165.047235 
L 195.504 296.53191 
L 196.045091 368.562691 
L 196.315636 380.002314 
L 196.518545 382.546326 
L 196.653818 382.74511 
L 196.789091 382.216791 
L 197.059636 379.890648 
L 197.803636 370.493148 
L 199.088727 352.391487 
L 199.494545 343.265259 
L 199.697455 334.945721 
L 199.832727 323.658182 
L 199.900364 310.879216 
L 200.035636 132.19321 
L 200.103273 199.118956 
L 200.306182 305.425807 
L 200.779636 373.441112 
L 201.050182 384.381575 
L 201.253091 386.04429 
L 201.388364 385.5412 
L 201.658909 382.743113 
L 203.079273 365.527361 
L 203.958545 354.956776 
L 204.432 346.24014 
L 204.702545 337.996636 
L 204.905455 324.466728 
L 204.973091 313.505017 
L 205.040727 278.555951 
L 205.108364 129.857004 
L 205.176 186.550425 
L 205.378909 303.898893 
L 205.852364 375.094008 
L 206.122909 386.017925 
L 206.258182 387.18218 
L 206.325818 387.156598 
L 206.461091 386.332161 
L 206.799273 382.085928 
L 209.166545 346.262357 
L 209.437091 338.746378 
L 209.64 327.321711 
L 209.775273 301.723462 
L 209.910545 153.10153 
L 210.113455 296.235145 
L 210.654545 373.57514 
L 210.925091 384.24237 
L 211.128 385.729912 
L 211.263273 385.203856 
L 211.533818 382.466396 
L 213.495273 356.081961 
L 213.968727 346.915082 
L 214.239273 337.990987 
L 214.442182 322.293598 
L 214.509818 307.503932 
L 214.645091 139.318812 
L 214.848 294.607174 
L 215.321455 366.699613 
L 215.592 380.683678 
L 215.794909 384.027804 
L 215.930182 384.472896 
L 216.065455 384.06139 
L 216.336 381.727281 
L 217.147636 371.199238 
L 218.365091 353.710944 
L 218.838545 343.961111 
L 219.109091 332.701385 
L 219.244364 318.623068 
L 219.312 298.079355 
L 219.379636 148.434889 
L 219.447273 159.22125 
L 219.650182 299.112545 
L 220.123636 371.853944 
L 220.394182 384.784373 
L 220.597091 386.957274 
L 220.664727 386.873975 
L 220.867636 385.284013 
L 221.476364 376.770649 
L 222.626182 362.045458 
L 223.234909 353.026867 
L 223.640727 343.363514 
L 223.843636 334.181688 
L 223.978909 320.663823 
L 224.046545 302.098821 
L 224.181818 149.983948 
L 224.384727 297.746444 
L 224.858182 370.162256 
L 225.128727 382.498549 
L 225.331636 384.957762 
L 225.399273 385.111641 
L 225.466909 385.03646 
L 225.669818 383.821688 
L 226.075636 379.136748 
L 227.157818 366.117183 
L 228.307636 352.290039 
L 228.645818 345.656102 
L 228.916364 336.034498 
L 229.051636 326.283253 
L 229.186909 291.429652 
L 229.254545 132.329741 
L 229.322182 170.32679 
L 229.525091 301.437179 
L 229.998545 372.548211 
L 230.269091 384.557209 
L 230.472 386.672564 
L 230.539636 386.612165 
L 230.674909 385.770383 
L 231.013091 381.586285 
L 233.583273 343.465897 
L 233.853818 331.802804 
L 233.989091 316.116426 
L 234.056727 289.001624 
L 234.124364 130.2441 
L 234.192 174.027212 
L 234.394909 302.91246 
L 234.800727 366.336955 
L 235.071273 380.486589 
L 235.341818 384.754526 
L 235.409455 384.928791 
L 235.477091 384.851402 
L 235.68 383.527 
L 236.153455 377.660661 
L 237.100364 366.122079 
L 238.047273 355.599391 
L 238.520727 348.063442 
L 238.858909 338.838039 
L 239.061818 326.615491 
L 239.197091 295.583107 
L 239.264727 142.524435 
L 239.332364 164.1094 
L 239.535273 299.628947 
L 240.008727 374.402102 
L 240.279273 386.790076 
L 240.414545 388.030313 
L 240.482182 387.973415 
L 240.617455 387.023904 
L 241.023273 381.42757 
L 242.376 362.263937 
L 243.12 350.884603 
L 243.458182 342.372507 
L 243.661091 332.883418 
L 243.796364 318.138017 
L 243.864 295.080117 
L 243.931636 134.627741 
L 243.999273 163.33926 
L 244.202182 299.239782 
L 244.675636 368.667556 
L 244.946182 382.618577 
L 245.149091 385.877821 
L 245.216727 386.102714 
L 245.284364 386.03002 
L 245.487273 384.601153 
L 246.028364 377.491573 
L 248.125091 346.698397 
L 248.395636 338.05993 
L 248.598545 323.807706 
L 248.666182 311.733522 
L 248.733818 266.01552 
L 248.801455 131.272221 
L 248.869091 195.457917 
L 249.072 305.134283 
L 249.545455 375.431928 
L 249.816 386.864693 
L 249.951273 388.066665 
L 250.018909 388.008532 
L 250.154182 387.055988 
L 250.56 381.4107 
L 251.912727 362.163641 
L 252.521455 351.826991 
L 252.859636 342.500106 
L 253.130182 327.847135 
L 253.265455 302.002794 
L 253.400727 152.200015 
L 253.603636 298.528326 
L 254.077091 373.769632 
L 254.347636 386.335798 
L 254.550545 387.721841 
L 254.685818 386.885089 
L 255.024 382.527354 
L 256.173818 366.898694 
L 257.120727 354.368184 
L 257.526545 346.146986 
L 257.797091 336.339574 
L 257.932364 326.341553 
L 258 316.28382 
L 258.067636 288.008096 
L 258.135273 127.230904 
L 258.202909 173.63374 
L 258.405818 301.730575 
L 258.879273 371.426584 
L 259.149818 384.106677 
L 259.352727 386.550461 
L 259.420364 386.570965 
L 259.555636 385.85669 
L 259.893818 381.82979 
L 262.328727 346.225845 
L 262.599273 337.150677 
L 262.802182 321.292339 
L 262.869818 306.161287 
L 263.005091 142.988168 
L 263.208 295.505988 
L 263.681455 370.763829 
L 263.952 383.833279 
L 264.154909 386.0071 
L 264.222545 385.987394 
L 264.357818 385.294943 
L 264.696 381.546594 
L 266.725091 353.13086 
L 267.130909 343.824097 
L 267.401455 331.286762 
L 267.536727 313.697851 
L 267.604364 275.735062 
L 267.672 127.606619 
L 267.739636 186.642453 
L 267.942545 303.69755 
L 268.416 374.894237 
L 268.686545 386.514757 
L 268.821818 387.744945 
L 268.889455 387.722112 
L 269.024727 386.873569 
L 269.362909 382.518254 
L 270.580364 365.905469 
L 271.459636 353.440331 
L 271.865455 344.559063 
L 272.136 333.097301 
L 272.271273 318.895821 
L 272.338909 297.982986 
L 272.406545 144.058792 
L 272.474182 158.749694 
L 272.677091 298.899669 
L 273.150545 369.879211 
L 273.421091 383.528979 
L 273.624 386.441603 
L 273.691636 386.542274 
L 273.826909 385.912057 
L 274.165091 381.938752 
L 276.464727 348.424048 
L 276.802909 338.560267 
L 277.005818 325.08996 
L 277.073455 314.306322 
L 277.141091 280.680574 
L 277.208727 128.15994 
L 277.276364 183.061073 
L 277.479273 302.302289 
L 277.952727 370.770079 
L 278.223273 383.731406 
L 278.426182 386.239251 
L 278.493818 386.271048 
L 278.629091 385.592894 
L 278.967273 381.711644 
L 281.131636 350.45356 
L 281.469818 341.57041 
L 281.672727 331.571723 
L 281.808 315.058843 
L 281.875636 283.784751 
L 281.943273 127.610988 
L 282.010909 179.500138 
L 282.213818 302.852032 
L 282.687273 373.69165 
L 282.957818 385.547054 
L 283.160727 387.195949 
L 283.296 386.554636 
L 283.634182 382.446806 
L 284.986909 364.291941 
L 285.798545 352.996992 
L 286.204364 345.093362 
L 286.474909 335.241174 
L 286.610182 324.753673 
L 286.677818 313.627743 
L 286.745455 277.338288 
L 286.813091 128.735042 
L 286.880727 186.631832 
L 287.083636 303.554251 
L 287.557091 371.919723 
L 287.827636 383.560456 
L 288.030545 385.456612 
L 288.098182 385.398033 
L 288.301091 384.107614 
L 288.774545 378.364277 
L 291.074182 345.64543 
L 291.412364 336.31536 
L 291.615273 322.909576 
L 291.682909 311.761978 
L 291.750545 275.620939 
L 291.818182 134.856035 
L 291.885818 192.508639 
L 292.088727 302.196398 
L 292.629818 378.334922 
L 292.900364 386.630444 
L 292.968 387.009931 
L 293.035636 386.9868 
L 293.170909 386.11126 
L 293.576727 380.705468 
L 294.794182 363.980877 
L 295.808727 349.728898 
L 296.146909 341.628111 
L 296.349818 332.247688 
L 296.485091 317.589051 
L 296.552727 294.781658 
L 296.620364 138.326914 
L 296.688 165.003662 
L 296.890909 299.579819 
L 297.364364 370.402764 
L 297.634909 383.615035 
L 297.837818 386.038876 
L 297.905455 386.058776 
L 298.040727 385.387837 
L 298.378909 381.583591 
L 300.610909 349.913608 
L 300.949091 341.119983 
L 301.152 330.454941 
L 301.287273 310.690948 
L 301.422545 132.513744 
L 301.490182 200.347325 
L 301.693091 306.644049 
L 302.098909 369.026923 
L 302.369455 382.629137 
L 302.572364 385.026445 
L 302.64 385.046433 
L 302.775273 384.444036 
L 303.113455 381.219945 
L 304.398545 364.887011 
L 305.277818 352.403404 
L 305.616 344.990567 
L 305.886545 333.859967 
L 306.021818 320.453113 
L 306.089455 302.164177 
L 306.224727 150.236144 
L 306.427636 296.995573 
L 306.901091 367.43785 
L 307.171636 381.177046 
L 307.374545 384.569582 
L 307.509818 384.930082 
L 307.645091 384.372812 
L 307.915636 381.708716 
L 310.350545 350.205161 
L 310.688727 341.204395 
L 310.891636 330.258377 
L 311.026909 309.215768 
L 311.162182 135.398575 
L 311.229818 206.339985 
L 311.432727 307.411705 
L 311.838545 368.427721 
L 312.109091 382.242864 
L 312.312 385.015351 
L 312.379636 385.162303 
L 312.447273 385.061909 
L 312.650182 383.777994 
L 313.123636 378.1766 
L 315.288 348.220301 
L 315.626182 339.23717 
L 315.829091 327.932571 
L 315.964364 303.783753 
L 316.099636 148.405969 
L 316.302545 295.695239 
L 316.776 369.438809 
L 317.046545 383.360082 
L 317.249455 385.803237 
L 317.317091 385.814441 
L 317.452364 385.140412 
L 317.790545 381.401103 
L 320.225455 347.704809 
L 320.496 340.581503 
L 320.698909 330.282891 
L 320.834182 311.565968 
L 320.901818 265.048609 
L 320.969455 131.584149 
L 321.037091 196.023059 
L 321.24 305.057536 
L 321.713455 374.027002 
L 321.984 384.619617 
L 322.186909 385.875657 
L 322.322182 385.263066 
L 322.660364 381.651275 
L 324.689455 353.763214 
L 325.230545 342.891442 
L 325.501091 332.558444 
L 325.636364 320.399522 
L 325.704 305.278576 
L 325.839273 145.981657 
L 326.042182 294.856662 
L 326.515636 367.588862 
L 326.786182 382.748314 
L 326.989091 385.899323 
L 327.056727 386.03344 
L 327.192 385.466248 
L 327.462545 382.531423 
L 329.626909 352.161983 
L 330.032727 342.47695 
L 330.235636 333.497641 
L 330.370909 320.420841 
L 330.438545 303.108359 
L 330.573818 149.027866 
L 330.776727 296.762601 
L 331.250182 370.727469 
L 331.520727 384.624371 
L 331.723636 387.021224 
L 331.791273 386.974519 
L 331.926545 386.129054 
L 332.264727 381.908118 
L 334.699636 345.243953 
L 334.970182 335.440123 
L 335.105455 325.223992 
L 335.173091 314.642246 
L 335.240727 282.684376 
L 335.308364 128.410389 
L 335.376 181.334714 
L 335.578909 303.508643 
L 336.052364 375.918266 
L 336.322909 386.51722 
L 336.458182 387.547174 
L 336.525818 387.486654 
L 336.661091 386.616703 
L 336.999273 382.264896 
L 338.554909 360.754472 
L 339.231273 350.660541 
L 339.569455 342.179226 
L 339.772364 332.554074 
L 339.907636 317.337028 
L 339.975273 292.38469 
L 340.042909 130.731517 
L 340.110545 167.747597 
L 340.313455 300.459683 
L 340.786909 369.902422 
L 341.057455 382.782474 
L 341.260364 385.864161 
L 341.328 386.083964 
L 341.395636 386.007873 
L 341.598545 384.548693 
L 342.139636 377.307631 
L 344.101091 348.176673 
L 344.439273 337.740754 
L 344.642182 322.218455 
L 344.709818 307.755383 
L 344.845091 139.067827 
L 345.048 295.043688 
L 345.521455 370.355622 
L 345.792 383.100585 
L 345.994909 385.592196 
L 346.062545 385.702606 
L 346.197818 385.235778 
L 346.468364 382.62621 
L 347.821091 364.307338 
L 349.038545 347.063176 
L 349.309091 339.457404 
L 349.512 328.010682 
L 349.647273 303.473236 
L 349.782545 149.002244 
L 349.985455 296.318374 
L 350.458909 370.036749 
L 350.729455 384.109497 
L 350.932364 386.588855 
L 351 386.573916 
L 351.135273 385.803457 
L 351.473455 381.718106 
L 353.434909 355.22821 
L 353.908364 348.222235 
L 354.246545 339.737699 
L 354.449455 329.189642 
L 354.584727 309.173429 
L 354.72 136.876081 
L 354.787636 205.761538 
L 354.990545 306.976297 
L 355.464 377.510149 
L 355.734545 386.730441 
L 355.869818 387.226036 
L 356.005091 386.444612 
L 356.343273 382.222392 
L 358.575273 348.885826 
L 358.913455 338.111627 
L 359.116364 321.889436 
L 359.184 306.327222 
L 359.319273 141.804808 
L 359.522182 296.733933 
L 359.995636 376.308577 
L 360.266182 388.357933 
L 360.401455 389.295862 
L 360.536727 388.555727 
L 360.874909 383.861407 
L 361.889455 369.122901 
L 363.039273 353.491683 
L 363.580364 342.809081 
L 363.850909 331.59752 
L 363.986182 317.230199 
L 364.053818 295.47324 
L 364.121455 146.281983 
L 364.189091 165.392748 
L 364.392 299.412482 
L 364.865455 370.627121 
L 365.136 383.899091 
L 365.338909 386.321588 
L 365.406545 386.309512 
L 365.541818 385.542945 
L 365.88 381.492114 
L 368.314909 345.449449 
L 368.585455 336.495634 
L 368.720727 327.571208 
L 368.856 299.999894 
L 368.991273 155.751067 
L 369.194182 297.554198 
L 369.667636 369.236414 
L 369.938182 384.205338 
L 370.141091 387.296186 
L 370.208727 387.358259 
L 370.344 386.597047 
L 370.682182 382.257579 
L 372.237818 360.518246 
L 372.846545 350.935281 
L 373.184727 342.372784 
L 373.387636 332.847156 
L 373.522909 318.040358 
L 373.590545 294.774052 
L 373.658182 134.083926 
L 373.725818 163.88474 
L 373.928727 299.653526 
L 374.402182 369.765167 
L 374.672727 383.574435 
L 374.875636 386.462888 
L 374.943273 386.573314 
L 375.078545 385.981218 
L 375.349091 382.986192 
L 377.986909 345.486817 
L 378.257455 337.983436 
L 378.460364 326.276475 
L 378.595636 299.446874 
L 378.730909 158.842501 
L 378.933818 297.670232 
L 379.474909 378.384337 
L 379.745455 387.392877 
L 379.813091 387.782364 
L 379.880727 387.737543 
L 380.016 386.771209 
L 380.421818 381.10103 
L 381.842182 360.83876 
L 382.518545 349.847323 
L 382.856727 341.511056 
L 383.059636 332.397046 
L 383.194909 318.665553 
L 383.262545 299.181446 
L 383.397818 157.844849 
L 383.600727 298.315929 
L 384.074182 371.175937 
L 384.344727 384.597002 
L 384.547636 386.766042 
L 384.615273 386.67848 
L 384.818182 385.102677 
L 385.426909 376.714905 
L 386.509091 362.886487 
L 387.253091 353.279631 
L 387.658909 345.020743 
L 387.929455 335.303064 
L 388.064727 325.165178 
L 388.132364 314.723006 
L 388.2 283.799578 
L 388.267636 129.170602 
L 388.335273 180.479739 
L 388.538182 302.20048 
L 389.011636 371.399796 
L 389.282182 384.030438 
L 389.485091 386.42382 
L 389.552727 386.413621 
L 389.688 385.647789 
L 390.026182 381.570522 
L 392.596364 343.512174 
L 392.866909 332.736484 
L 393.002182 319.63261 
L 393.069818 302.106847 
L 393.205091 151.989181 
L 393.408 297.104871 
L 393.881455 371.849321 
L 394.152 385.450176 
L 394.354909 387.43008 
L 394.490182 386.838155 
L 394.760727 383.678951 
L 397.533818 342.740652 
L 397.804364 331.958615 
L 397.939636 318.352899 
L 398.007273 299.1807 
L 398.142545 158.434148 
L 398.345455 298.078639 
L 398.818909 371.760942 
L 399.089455 385.043465 
L 399.292364 387.144961 
L 399.36 387.019449 
L 399.562909 385.289 
L 400.239273 375.510268 
L 401.456727 359.622313 
L 402.133091 350.116825 
L 402.471273 342.48454 
L 402.674182 334.048912 
L 402.809455 322.10271 
L 402.877091 307.693943 
L 403.012364 139.364752 
L 403.215273 293.68915 
L 403.688727 365.076114 
L 403.959273 380.463008 
L 404.162182 384.045534 
L 404.297455 384.340099 
L 404.432727 383.740693 
L 404.770909 380.494545 
L 406.123636 363.199964 
L 406.8 353.23502 
L 407.205818 343.630142 
L 407.408727 334.8485 
L 407.544 322.797188 
L 407.611636 308.3674 
L 407.746909 137.041835 
L 408.017455 306.964355 
L 408.423273 366.684776 
L 408.693818 381.597342 
L 408.896727 385.29293 
L 409.032 385.711024 
L 409.167273 385.13347 
L 409.437818 382.374909 
L 411.466909 355.162454 
L 411.872727 347.256536 
L 412.143273 338.319355 
L 412.346182 322.750405 
L 412.413818 308.293031 
L 412.549091 137.341827 
L 412.752 294.276308 
L 413.225455 368.03611 
L 413.496 381.884011 
L 413.698909 384.902636 
L 413.766545 385.140418 
L 413.834182 385.120495 
L 413.969455 384.501921 
L 414.307636 381.014654 
L 416.336727 353.768748 
L 416.742545 345.231274 
L 417.013091 335.962214 
L 417.148364 326.889232 
L 417.283636 298.30467 
L 417.351273 155.133732 
L 417.418909 159.801997 
L 417.621818 298.278654 
L 418.095273 369.24339 
L 418.365818 383.422301 
L 418.568727 386.096832 
L 418.636364 386.142668 
L 418.771636 385.478939 
L 419.109818 381.613112 
L 421.477091 347.76763 
L 421.747636 339.210283 
L 421.950545 325.0241 
L 422.018182 313.277746 
L 422.085818 270.854335 
L 422.153455 127.418831 
L 422.221091 189.235436 
L 422.424 305.25022 
L 422.829818 369.040613 
L 423.100364 383.036607 
L 423.303273 385.618434 
L 423.370909 385.678398 
L 423.506182 385.114141 
L 423.776727 382.480668 
L 426.008727 354.135515 
L 426.414545 346.382767 
L 426.685091 337.8955 
L 426.888 323.559292 
L 426.955636 311.372881 
L 427.023273 264.706173 
L 427.090909 132.127762 
L 427.158545 196.958844 
L 427.361455 306.251153 
L 427.834909 377.043389 
L 428.105455 387.509192 
L 428.240727 388.308267 
L 428.376 387.614275 
L 428.714182 383.190171 
L 430.134545 362.883916 
L 430.472727 357.964716 
L 430.675636 378.727613 
L 431.013818 391.339692 
L 431.487273 400.744108 
L 432.231273 410.836754 
L 433.110545 420.151877 
L 433.922182 426.500405 
L 434.598545 430.207038 
L 435.274909 432.733663 
L 435.951273 434.389917 
L 436.627636 435.45074 
L 437.304 436.122282 
L 438.115636 436.608938 
L 439.130182 436.936668 
L 440.550545 437.138366 
L 442.985455 437.223509 
L 446.096727 437.126937 
L 449.005091 436.783693 
L 451.845818 436.544458 
L 456.039273 436.465182 
L 479.644364 436.449601 
L 498.109091 436.449656 
L 498.109091 436.449656 
" clip-path="url(#pb4212189f1)" style="fill: none; stroke: #000000; stroke-width: 1.5; stroke-linecap: square"/>
   </g>
   <g id="line2d_14">
    <path d="M 497.973818 408.87 
" clip-path="url(#pb4212189f1)" style="fill: none; stroke: #000000; stroke-width: 1.5; stroke-linecap: square"/>
   </g>
   <g id="line2d_15">
    <path d="M 430.472727 368.1 
L 430.472727 365.382 
L 430.472727 362.664 
L 430.472727 359.946 
L 430.472727 357.228 
L 430.472727 354.51 
L 430.472727 351.792 
L 430.472727 349.074 
L 430.472727 346.356 
L 430.472727 343.638 
L 430.472727 340.92 
L 430.472727 338.202 
L 430.472727 335.484 
L 430.472727 332.766 
L 430.472727 330.048 
L 430.472727 327.33 
L 430.472727 324.612 
L 430.472727 321.894 
L 430.472727 319.176 
L 430.472727 316.458 
" clip-path="url(#pb4212189f1)" style="fill: none; stroke: #000000; stroke-width: 1.5; stroke-linecap: square"/>
   </g>
   <g id="patch_3">
    <path d="M 72 504 
L 72 69.12 
" style="fill: none; stroke: #000000; stroke-width: 0.8; stroke-linejoin: miter; stroke-linecap: square"/>
   </g>
   <g id="patch_4">
    <path d="M 518.4 504 
L 518.4 69.12 
" style="fill: none; stroke: #000000; stroke-width: 0.8; stroke-linejoin: miter; stroke-linecap: square"/>
   </g>
   <g id="patch_5">
    <path d="M 72 504 
L 518.4 504 
" style="fill: none; stroke: #000000; stroke-width: 0.8; stroke-linejoin: miter; stroke-linecap: square"/>
   </g>
   <g id="patch_6">
    <path d="M 72 69.12 
L 518.4 69.12 
" style="fill: none; stroke: #000000; stroke-width: 0.8; stroke-linejoin: miter; stroke-linecap: square"/>
   </g>
   <g id="text_15">
    <!-- 500 ms -->
    <g transform="translate(497.973818 406.152)scale(0.22 -0.22)">
     <defs>
      <path id="ArialMT-35" d="M 266 1200 
L 856 1250 
Q 922 819 1161 601 
Q 1400 384 1738 384 
Q 2144 384 2425 690 
Q 2706 997 2706 1503 
Q 2706 1984 2436 2262 
Q 2166 2541 1728 2541 
Q 1456 2541 1237 2417 
Q 1019 2294 894 2097 
L 366 2166 
L 809 4519 
L 3088 4519 
L 3088 3981 
L 1259 3981 
L 1013 2750 
Q 1425 3038 1878 3038 
Q 2478 3038 2890 2622 
Q 3303 2206 3303 1553 
Q 3303 931 2941 478 
Q 2500 -78 1738 -78 
Q 1113 -78 717 272 
Q 322 622 266 1200 
z
" transform="scale(0.015625)"/>
      <path id="ArialMT-30" d="M 266 2259 
Q 266 3072 433 3567 
Q 600 4063 929 4331 
Q 1259 4600 1759 4600 
Q 2128 4600 2406 4451 
Q 2684 4303 2865 4023 
Q 3047 3744 3150 3342 
Q 3253 2941 3253 2259 
Q 3253 1453 3087 958 
Q 2922 463 2592 192 
Q 2263 -78 1759 -78 
Q 1097 -78 719 397 
Q 266 969 266 2259 
z
M 844 2259 
Q 844 1131 1108 757 
Q 1372 384 1759 384 
Q 2147 384 2411 759 
Q 2675 1134 2675 2259 
Q 2675 3391 2411 3762 
Q 2147 4134 1753 4134 
Q 1366 4134 1134 3806 
Q 844 3388 844 2259 
z
" transform="scale(0.015625)"/>
     </defs>
     <use xlink:href="#ArialMT-35"/>
     <use xlink:href="#ArialMT-30" x="55.615234"/>
     <use xlink:href="#ArialMT-30" x="111.230469"/>
     <use xlink:href="#ArialMT-20" x="166.845703"/>
     <use xlink:href="#ArialMT-6d" x="194.628906"/>
     <use xlink:href="#ArialMT-73" x="277.929688"/>
    </g>
   </g>
   <g id="text_16">
    <!-- 20 mV -->
    <g transform="translate(504.737455 321.894)scale(0.22 -0.22)">
     <defs>
      <path id="ArialMT-32" d="M 3222 541 
L 3222 0 
L 194 0 
Q 188 203 259 391 
Q 375 700 629 1000 
Q 884 1300 1366 1694 
Q 2113 2306 2375 2664 
Q 2638 3022 2638 3341 
Q 2638 3675 2398 3904 
Q 2159 4134 1775 4134 
Q 1369 4134 1125 3890 
Q 881 3647 878 3216 
L 300 3275 
Q 359 3922 746 4261 
Q 1134 4600 1788 4600 
Q 2447 4600 2831 4234 
Q 3216 3869 3216 3328 
Q 3216 3053 3103 2787 
Q 2991 2522 2730 2228 
Q 2469 1934 1863 1422 
Q 1356 997 1212 845 
Q 1069 694 975 541 
L 3222 541 
z
" transform="scale(0.015625)"/>
     </defs>
     <use xlink:href="#ArialMT-32"/>
     <use xlink:href="#ArialMT-30" x="55.615234"/>
     <use xlink:href="#ArialMT-20" x="111.230469"/>
     <use xlink:href="#ArialMT-6d" x="139.013672"/>
     <use xlink:href="#ArialMT-56" x="222.314453"/>
    </g>
   </g>
   <g id="text_17">
    <!--  Plotting iSPN, trace number 9417  -->
    <g transform="translate(125.842969 63.12)scale(0.22 -0.22)">
     <defs>
      <path id="ArialMT-50" d="M 494 0 
L 494 4581 
L 2222 4581 
Q 2678 4581 2919 4538 
Q 3256 4481 3484 4323 
Q 3713 4166 3852 3881 
Q 3991 3597 3991 3256 
Q 3991 2672 3619 2267 
Q 3247 1863 2275 1863 
L 1100 1863 
L 1100 0 
L 494 0 
z
M 1100 2403 
L 2284 2403 
Q 2872 2403 3119 2622 
Q 3366 2841 3366 3238 
Q 3366 3525 3220 3729 
Q 3075 3934 2838 4000 
Q 2684 4041 2272 4041 
L 1100 4041 
L 1100 2403 
z
" transform="scale(0.015625)"/>
      <path id="ArialMT-67" d="M 319 -275 
L 866 -356 
Q 900 -609 1056 -725 
Q 1266 -881 1628 -881 
Q 2019 -881 2231 -725 
Q 2444 -569 2519 -288 
Q 2563 -116 2559 434 
Q 2191 0 1641 0 
Q 956 0 581 494 
Q 206 988 206 1678 
Q 206 2153 378 2554 
Q 550 2956 876 3175 
Q 1203 3394 1644 3394 
Q 2231 3394 2613 2919 
L 2613 3319 
L 3131 3319 
L 3131 450 
Q 3131 -325 2973 -648 
Q 2816 -972 2473 -1159 
Q 2131 -1347 1631 -1347 
Q 1038 -1347 672 -1080 
Q 306 -813 319 -275 
z
M 784 1719 
Q 784 1066 1043 766 
Q 1303 466 1694 466 
Q 2081 466 2343 764 
Q 2606 1063 2606 1700 
Q 2606 2309 2336 2618 
Q 2066 2928 1684 2928 
Q 1309 2928 1046 2623 
Q 784 2319 784 1719 
z
" transform="scale(0.015625)"/>
      <path id="ArialMT-53" d="M 288 1472 
L 859 1522 
Q 900 1178 1048 958 
Q 1197 738 1509 602 
Q 1822 466 2213 466 
Q 2559 466 2825 569 
Q 3091 672 3220 851 
Q 3350 1031 3350 1244 
Q 3350 1459 3225 1620 
Q 3100 1781 2813 1891 
Q 2628 1963 1997 2114 
Q 1366 2266 1113 2400 
Q 784 2572 623 2826 
Q 463 3081 463 3397 
Q 463 3744 659 4045 
Q 856 4347 1234 4503 
Q 1613 4659 2075 4659 
Q 2584 4659 2973 4495 
Q 3363 4331 3572 4012 
Q 3781 3694 3797 3291 
L 3216 3247 
Q 3169 3681 2898 3903 
Q 2628 4125 2100 4125 
Q 1550 4125 1298 3923 
Q 1047 3722 1047 3438 
Q 1047 3191 1225 3031 
Q 1400 2872 2139 2705 
Q 2878 2538 3153 2413 
Q 3553 2228 3743 1945 
Q 3934 1663 3934 1294 
Q 3934 928 3725 604 
Q 3516 281 3123 101 
Q 2731 -78 2241 -78 
Q 1619 -78 1198 103 
Q 778 284 539 648 
Q 300 1013 288 1472 
z
" transform="scale(0.015625)"/>
      <path id="ArialMT-4e" d="M 488 0 
L 488 4581 
L 1109 4581 
L 3516 984 
L 3516 4581 
L 4097 4581 
L 4097 0 
L 3475 0 
L 1069 3600 
L 1069 0 
L 488 0 
z
" transform="scale(0.015625)"/>
      <path id="ArialMT-2c" d="M 569 0 
L 569 641 
L 1209 641 
L 1209 0 
Q 1209 -353 1084 -570 
Q 959 -788 688 -906 
L 531 -666 
Q 709 -588 793 -436 
Q 878 -284 888 0 
L 569 0 
z
" transform="scale(0.015625)"/>
      <path id="ArialMT-63" d="M 2588 1216 
L 3141 1144 
Q 3050 572 2676 248 
Q 2303 -75 1759 -75 
Q 1078 -75 664 370 
Q 250 816 250 1647 
Q 250 2184 428 2587 
Q 606 2991 970 3192 
Q 1334 3394 1763 3394 
Q 2303 3394 2647 3120 
Q 2991 2847 3088 2344 
L 2541 2259 
Q 2463 2594 2264 2762 
Q 2066 2931 1784 2931 
Q 1359 2931 1093 2626 
Q 828 2322 828 1663 
Q 828 994 1084 691 
Q 1341 388 1753 388 
Q 2084 388 2306 591 
Q 2528 794 2588 1216 
z
" transform="scale(0.015625)"/>
      <path id="ArialMT-75" d="M 2597 0 
L 2597 488 
Q 2209 -75 1544 -75 
Q 1250 -75 995 37 
Q 741 150 617 320 
Q 494 491 444 738 
Q 409 903 409 1263 
L 409 3319 
L 972 3319 
L 972 1478 
Q 972 1038 1006 884 
Q 1059 663 1231 536 
Q 1403 409 1656 409 
Q 1909 409 2131 539 
Q 2353 669 2445 892 
Q 2538 1116 2538 1541 
L 2538 3319 
L 3100 3319 
L 3100 0 
L 2597 0 
z
" transform="scale(0.015625)"/>
      <path id="ArialMT-39" d="M 350 1059 
L 891 1109 
Q 959 728 1153 556 
Q 1347 384 1650 384 
Q 1909 384 2104 503 
Q 2300 622 2425 820 
Q 2550 1019 2634 1356 
Q 2719 1694 2719 2044 
Q 2719 2081 2716 2156 
Q 2547 1888 2255 1720 
Q 1963 1553 1622 1553 
Q 1053 1553 659 1965 
Q 266 2378 266 3053 
Q 266 3750 677 4175 
Q 1088 4600 1706 4600 
Q 2153 4600 2523 4359 
Q 2894 4119 3086 3673 
Q 3278 3228 3278 2384 
Q 3278 1506 3087 986 
Q 2897 466 2520 194 
Q 2144 -78 1638 -78 
Q 1100 -78 759 220 
Q 419 519 350 1059 
z
M 2653 3081 
Q 2653 3566 2395 3850 
Q 2138 4134 1775 4134 
Q 1400 4134 1122 3828 
Q 844 3522 844 3034 
Q 844 2597 1108 2323 
Q 1372 2050 1759 2050 
Q 2150 2050 2401 2323 
Q 2653 2597 2653 3081 
z
" transform="scale(0.015625)"/>
      <path id="ArialMT-34" d="M 2069 0 
L 2069 1097 
L 81 1097 
L 81 1613 
L 2172 4581 
L 2631 4581 
L 2631 1613 
L 3250 1613 
L 3250 1097 
L 2631 1097 
L 2631 0 
L 2069 0 
z
M 2069 1613 
L 2069 3678 
L 634 1613 
L 2069 1613 
z
" transform="scale(0.015625)"/>
      <path id="ArialMT-31" d="M 2384 0 
L 1822 0 
L 1822 3584 
Q 1619 3391 1289 3197 
Q 959 3003 697 2906 
L 697 3450 
Q 1169 3672 1522 3987 
Q 1875 4303 2022 4600 
L 2384 4600 
L 2384 0 
z
" transform="scale(0.015625)"/>
      <path id="ArialMT-37" d="M 303 3981 
L 303 4522 
L 3269 4522 
L 3269 4084 
Q 2831 3619 2401 2847 
Q 1972 2075 1738 1259 
Q 1569 684 1522 0 
L 944 0 
Q 953 541 1156 1306 
Q 1359 2072 1739 2783 
Q 2119 3494 2547 3981 
L 303 3981 
z
" transform="scale(0.015625)"/>
     </defs>
     <use xlink:href="#ArialMT-20"/>
     <use xlink:href="#ArialMT-50" x="27.783203"/>
     <use xlink:href="#ArialMT-6c" x="94.482422"/>
     <use xlink:href="#ArialMT-6f" x="116.699219"/>
     <use xlink:href="#ArialMT-74" x="172.314453"/>
     <use xlink:href="#ArialMT-74" x="200.097656"/>
     <use xlink:href="#ArialMT-69" x="227.880859"/>
     <use xlink:href="#ArialMT-6e" x="250.097656"/>
     <use xlink:href="#ArialMT-67" x="305.712891"/>
     <use xlink:href="#ArialMT-20" x="361.328125"/>
     <use xlink:href="#ArialMT-69" x="389.111328"/>
     <use xlink:href="#ArialMT-53" x="411.328125"/>
     <use xlink:href="#ArialMT-50" x="478.027344"/>
     <use xlink:href="#ArialMT-4e" x="544.726562"/>
     <use xlink:href="#ArialMT-2c" x="616.943359"/>
     <use xlink:href="#ArialMT-20" x="644.726562"/>
     <use xlink:href="#ArialMT-74" x="672.509766"/>
     <use xlink:href="#ArialMT-72" x="700.292969"/>
     <use xlink:href="#ArialMT-61" x="733.59375"/>
     <use xlink:href="#ArialMT-63" x="789.208984"/>
     <use xlink:href="#ArialMT-65" x="839.208984"/>
     <use xlink:href="#ArialMT-20" x="894.824219"/>
     <use xlink:href="#ArialMT-6e" x="922.607422"/>
     <use xlink:href="#ArialMT-75" x="978.222656"/>
     <use xlink:href="#ArialMT-6d" x="1033.837891"/>
     <use xlink:href="#ArialMT-62" x="1117.138672"/>
     <use xlink:href="#ArialMT-65" x="1172.753906"/>
     <use xlink:href="#ArialMT-72" x="1228.369141"/>
     <use xlink:href="#ArialMT-20" x="1261.669922"/>
     <use xlink:href="#ArialMT-39" x="1289.453125"/>
     <use xlink:href="#ArialMT-34" x="1345.068359"/>
     <use xlink:href="#ArialMT-31" x="1400.683594"/>
     <use xlink:href="#ArialMT-37" x="1456.298828"/>
     <use xlink:href="#ArialMT-20" x="1511.914062"/>
    </g>
   </g>
  </g>
 </g>
 <defs>
  <clipPath id="pb4212189f1">
   <rect x="72" y="69.12" width="446.4" height="434.88"/>
  </clipPath>
 </defs>
</svg>
