<?xml version="1.0" encoding="utf-8" standalone="no"?>
<!DOCTYPE svg PUBLIC "-//W3C//DTD SVG 1.1//EN"
  "http://www.w3.org/Graphics/SVG/1.1/DTD/svg11.dtd">
<svg xmlns:xlink="http://www.w3.org/1999/xlink" width="576pt" height="576pt" viewBox="0 0 576 576" xmlns="http://www.w3.org/2000/svg" version="1.1">
 <metadata>
  <rdf:RDF xmlns:dc="http://purl.org/dc/elements/1.1/" xmlns:cc="http://creativecommons.org/ns#" xmlns:rdf="http://www.w3.org/1999/02/22-rdf-syntax-ns#">
   <cc:Work>
    <dc:type rdf:resource="http://purl.org/dc/dcmitype/StillImage"/>
    <dc:date>2022-10-30T19:57:09.562636</dc:date>
    <dc:format>image/svg+xml</dc:format>
    <dc:creator>
     <cc:Agent>
      <dc:title>Matplotlib v3.5.2, https://matplotlib.org/</dc:title>
     </cc:Agent>
    </dc:creator>
   </cc:Work>
  </rdf:RDF>
 </metadata>
 <defs>
  <style type="text/css">*{stroke-linejoin: round; stroke-linecap: butt}</style>
 </defs>
 <g id="figure_1">
  <g id="patch_1">
   <path d="M 0 576 
L 576 576 
L 576 0 
L 0 0 
L 0 576 
z
" style="fill: none"/>
  </g>
  <g id="axes_1">
   <g id="patch_2">
    <path d="M 72 504 
L 518.4 504 
L 518.4 69.12 
L 72 69.12 
z
" style="fill: #ffffff"/>
   </g>
   <g id="matplotlib.axis_1">
    <g id="xtick_1">
     <g id="line2d_1">
      <defs>
       <path id="m875b90a24b" d="M 0 0 
L 0 3.5 
" style="stroke: #000000; stroke-width: 0.8"/>
      </defs>
      <g>
       <use xlink:href="#m875b90a24b" x="92.290909" y="504" style="stroke: #000000; stroke-width: 0.8"/>
      </g>
     </g>
     <g id="text_1">
      <!-- 0 -->
      <g transform="translate(85.292159 527.716563)scale(0.22 -0.22)">
       <defs>
        <path id="DejaVuSans-30" d="M 2034 4250 
Q 1547 4250 1301 3770 
Q 1056 3291 1056 2328 
Q 1056 1369 1301 889 
Q 1547 409 2034 409 
Q 2525 409 2770 889 
Q 3016 1369 3016 2328 
Q 3016 3291 2770 3770 
Q 2525 4250 2034 4250 
z
M 2034 4750 
Q 2819 4750 3233 4129 
Q 3647 3509 3647 2328 
Q 3647 1150 3233 529 
Q 2819 -91 2034 -91 
Q 1250 -91 836 529 
Q 422 1150 422 2328 
Q 422 3509 836 4129 
Q 1250 4750 2034 4750 
z
" transform="scale(0.015625)"/>
       </defs>
       <use xlink:href="#DejaVuSans-30"/>
      </g>
     </g>
    </g>
    <g id="xtick_2">
     <g id="line2d_2">
      <g>
       <use xlink:href="#m875b90a24b" x="227.563636" y="504" style="stroke: #000000; stroke-width: 0.8"/>
      </g>
     </g>
     <g id="text_2">
      <!-- 1000 -->
      <g transform="translate(199.568636 527.716563)scale(0.22 -0.22)">
       <defs>
        <path id="DejaVuSans-31" d="M 794 531 
L 1825 531 
L 1825 4091 
L 703 3866 
L 703 4441 
L 1819 4666 
L 2450 4666 
L 2450 531 
L 3481 531 
L 3481 0 
L 794 0 
L 794 531 
z
" transform="scale(0.015625)"/>
       </defs>
       <use xlink:href="#DejaVuSans-31"/>
       <use xlink:href="#DejaVuSans-30" x="63.623047"/>
       <use xlink:href="#DejaVuSans-30" x="127.246094"/>
       <use xlink:href="#DejaVuSans-30" x="190.869141"/>
      </g>
     </g>
    </g>
    <g id="xtick_3">
     <g id="line2d_3">
      <g>
       <use xlink:href="#m875b90a24b" x="362.836364" y="504" style="stroke: #000000; stroke-width: 0.8"/>
      </g>
     </g>
     <g id="text_3">
      <!-- 2000 -->
      <g transform="translate(334.841364 527.716563)scale(0.22 -0.22)">
       <defs>
        <path id="DejaVuSans-32" d="M 1228 531 
L 3431 531 
L 3431 0 
L 469 0 
L 469 531 
Q 828 903 1448 1529 
Q 2069 2156 2228 2338 
Q 2531 2678 2651 2914 
Q 2772 3150 2772 3378 
Q 2772 3750 2511 3984 
Q 2250 4219 1831 4219 
Q 1534 4219 1204 4116 
Q 875 4013 500 3803 
L 500 4441 
Q 881 4594 1212 4672 
Q 1544 4750 1819 4750 
Q 2544 4750 2975 4387 
Q 3406 4025 3406 3419 
Q 3406 3131 3298 2873 
Q 3191 2616 2906 2266 
Q 2828 2175 2409 1742 
Q 1991 1309 1228 531 
z
" transform="scale(0.015625)"/>
       </defs>
       <use xlink:href="#DejaVuSans-32"/>
       <use xlink:href="#DejaVuSans-30" x="63.623047"/>
       <use xlink:href="#DejaVuSans-30" x="127.246094"/>
       <use xlink:href="#DejaVuSans-30" x="190.869141"/>
      </g>
     </g>
    </g>
    <g id="xtick_4">
     <g id="line2d_4">
      <g>
       <use xlink:href="#m875b90a24b" x="498.109091" y="504" style="stroke: #000000; stroke-width: 0.8"/>
      </g>
     </g>
     <g id="text_4">
      <!-- 3000 -->
      <g transform="translate(470.114091 527.716563)scale(0.22 -0.22)">
       <defs>
        <path id="DejaVuSans-33" d="M 2597 2516 
Q 3050 2419 3304 2112 
Q 3559 1806 3559 1356 
Q 3559 666 3084 287 
Q 2609 -91 1734 -91 
Q 1441 -91 1130 -33 
Q 819 25 488 141 
L 488 750 
Q 750 597 1062 519 
Q 1375 441 1716 441 
Q 2309 441 2620 675 
Q 2931 909 2931 1356 
Q 2931 1769 2642 2001 
Q 2353 2234 1838 2234 
L 1294 2234 
L 1294 2753 
L 1863 2753 
Q 2328 2753 2575 2939 
Q 2822 3125 2822 3475 
Q 2822 3834 2567 4026 
Q 2313 4219 1838 4219 
Q 1578 4219 1281 4162 
Q 984 4106 628 3988 
L 628 4550 
Q 988 4650 1302 4700 
Q 1616 4750 1894 4750 
Q 2613 4750 3031 4423 
Q 3450 4097 3450 3541 
Q 3450 3153 3228 2886 
Q 3006 2619 2597 2516 
z
" transform="scale(0.015625)"/>
       </defs>
       <use xlink:href="#DejaVuSans-33"/>
       <use xlink:href="#DejaVuSans-30" x="63.623047"/>
       <use xlink:href="#DejaVuSans-30" x="127.246094"/>
       <use xlink:href="#DejaVuSans-30" x="190.869141"/>
      </g>
     </g>
    </g>
    <g id="text_5">
     <!-- Time(ms) -->
     <g transform="translate(249.182187 552.307188)scale(0.22 -0.22)">
      <defs>
       <path id="ArialMT-54" d="M 1659 0 
L 1659 4041 
L 150 4041 
L 150 4581 
L 3781 4581 
L 3781 4041 
L 2266 4041 
L 2266 0 
L 1659 0 
z
" transform="scale(0.015625)"/>
       <path id="ArialMT-69" d="M 425 3934 
L 425 4581 
L 988 4581 
L 988 3934 
L 425 3934 
z
M 425 0 
L 425 3319 
L 988 3319 
L 988 0 
L 425 0 
z
" transform="scale(0.015625)"/>
       <path id="ArialMT-6d" d="M 422 0 
L 422 3319 
L 925 3319 
L 925 2853 
Q 1081 3097 1340 3245 
Q 1600 3394 1931 3394 
Q 2300 3394 2536 3241 
Q 2772 3088 2869 2813 
Q 3263 3394 3894 3394 
Q 4388 3394 4653 3120 
Q 4919 2847 4919 2278 
L 4919 0 
L 4359 0 
L 4359 2091 
Q 4359 2428 4304 2576 
Q 4250 2725 4106 2815 
Q 3963 2906 3769 2906 
Q 3419 2906 3187 2673 
Q 2956 2441 2956 1928 
L 2956 0 
L 2394 0 
L 2394 2156 
Q 2394 2531 2256 2718 
Q 2119 2906 1806 2906 
Q 1569 2906 1367 2781 
Q 1166 2656 1075 2415 
Q 984 2175 984 1722 
L 984 0 
L 422 0 
z
" transform="scale(0.015625)"/>
       <path id="ArialMT-65" d="M 2694 1069 
L 3275 997 
Q 3138 488 2766 206 
Q 2394 -75 1816 -75 
Q 1088 -75 661 373 
Q 234 822 234 1631 
Q 234 2469 665 2931 
Q 1097 3394 1784 3394 
Q 2450 3394 2872 2941 
Q 3294 2488 3294 1666 
Q 3294 1616 3291 1516 
L 816 1516 
Q 847 969 1125 678 
Q 1403 388 1819 388 
Q 2128 388 2347 550 
Q 2566 713 2694 1069 
z
M 847 1978 
L 2700 1978 
Q 2663 2397 2488 2606 
Q 2219 2931 1791 2931 
Q 1403 2931 1139 2672 
Q 875 2413 847 1978 
z
" transform="scale(0.015625)"/>
       <path id="ArialMT-28" d="M 1497 -1347 
Q 1031 -759 709 28 
Q 388 816 388 1659 
Q 388 2403 628 3084 
Q 909 3875 1497 4659 
L 1900 4659 
Q 1522 4009 1400 3731 
Q 1209 3300 1100 2831 
Q 966 2247 966 1656 
Q 966 153 1900 -1347 
L 1497 -1347 
z
" transform="scale(0.015625)"/>
       <path id="ArialMT-73" d="M 197 991 
L 753 1078 
Q 800 744 1014 566 
Q 1228 388 1613 388 
Q 2000 388 2187 545 
Q 2375 703 2375 916 
Q 2375 1106 2209 1216 
Q 2094 1291 1634 1406 
Q 1016 1563 777 1677 
Q 538 1791 414 1992 
Q 291 2194 291 2438 
Q 291 2659 392 2848 
Q 494 3038 669 3163 
Q 800 3259 1026 3326 
Q 1253 3394 1513 3394 
Q 1903 3394 2198 3281 
Q 2494 3169 2634 2976 
Q 2775 2784 2828 2463 
L 2278 2388 
Q 2241 2644 2061 2787 
Q 1881 2931 1553 2931 
Q 1166 2931 1000 2803 
Q 834 2675 834 2503 
Q 834 2394 903 2306 
Q 972 2216 1119 2156 
Q 1203 2125 1616 2013 
Q 2213 1853 2448 1751 
Q 2684 1650 2818 1456 
Q 2953 1263 2953 975 
Q 2953 694 2789 445 
Q 2625 197 2315 61 
Q 2006 -75 1616 -75 
Q 969 -75 630 194 
Q 291 463 197 991 
z
" transform="scale(0.015625)"/>
       <path id="ArialMT-29" d="M 791 -1347 
L 388 -1347 
Q 1322 153 1322 1656 
Q 1322 2244 1188 2822 
Q 1081 3291 891 3722 
Q 769 4003 388 4659 
L 791 4659 
Q 1378 3875 1659 3084 
Q 1900 2403 1900 1659 
Q 1900 816 1576 28 
Q 1253 -759 791 -1347 
z
" transform="scale(0.015625)"/>
      </defs>
      <use xlink:href="#ArialMT-54"/>
      <use xlink:href="#ArialMT-69" x="57.333984"/>
      <use xlink:href="#ArialMT-6d" x="79.550781"/>
      <use xlink:href="#ArialMT-65" x="162.851562"/>
      <use xlink:href="#ArialMT-28" x="218.466797"/>
      <use xlink:href="#ArialMT-6d" x="251.767578"/>
      <use xlink:href="#ArialMT-73" x="335.068359"/>
      <use xlink:href="#ArialMT-29" x="385.068359"/>
     </g>
    </g>
   </g>
   <g id="matplotlib.axis_2">
    <g id="ytick_1">
     <g id="line2d_5">
      <defs>
       <path id="mdb848d4b13" d="M 0 0 
L -3.5 0 
" style="stroke: #000000; stroke-width: 0.8"/>
      </defs>
      <g>
       <use xlink:href="#mdb848d4b13" x="72" y="476.82" style="stroke: #000000; stroke-width: 0.8"/>
      </g>
     </g>
     <g id="text_6">
      <!-- −100 -->
      <g transform="translate(4.572187 485.178281)scale(0.22 -0.22)">
       <defs>
        <path id="DejaVuSans-2212" d="M 678 2272 
L 4684 2272 
L 4684 1741 
L 678 1741 
L 678 2272 
z
" transform="scale(0.015625)"/>
       </defs>
       <use xlink:href="#DejaVuSans-2212"/>
       <use xlink:href="#DejaVuSans-31" x="83.789062"/>
       <use xlink:href="#DejaVuSans-30" x="147.412109"/>
       <use xlink:href="#DejaVuSans-30" x="211.035156"/>
      </g>
     </g>
    </g>
    <g id="ytick_2">
     <g id="line2d_6">
      <g>
       <use xlink:href="#mdb848d4b13" x="72" y="422.46" style="stroke: #000000; stroke-width: 0.8"/>
      </g>
     </g>
     <g id="text_7">
      <!-- −80 -->
      <g transform="translate(18.569688 430.818281)scale(0.22 -0.22)">
       <defs>
        <path id="DejaVuSans-38" d="M 2034 2216 
Q 1584 2216 1326 1975 
Q 1069 1734 1069 1313 
Q 1069 891 1326 650 
Q 1584 409 2034 409 
Q 2484 409 2743 651 
Q 3003 894 3003 1313 
Q 3003 1734 2745 1975 
Q 2488 2216 2034 2216 
z
M 1403 2484 
Q 997 2584 770 2862 
Q 544 3141 544 3541 
Q 544 4100 942 4425 
Q 1341 4750 2034 4750 
Q 2731 4750 3128 4425 
Q 3525 4100 3525 3541 
Q 3525 3141 3298 2862 
Q 3072 2584 2669 2484 
Q 3125 2378 3379 2068 
Q 3634 1759 3634 1313 
Q 3634 634 3220 271 
Q 2806 -91 2034 -91 
Q 1263 -91 848 271 
Q 434 634 434 1313 
Q 434 1759 690 2068 
Q 947 2378 1403 2484 
z
M 1172 3481 
Q 1172 3119 1398 2916 
Q 1625 2713 2034 2713 
Q 2441 2713 2670 2916 
Q 2900 3119 2900 3481 
Q 2900 3844 2670 4047 
Q 2441 4250 2034 4250 
Q 1625 4250 1398 4047 
Q 1172 3844 1172 3481 
z
" transform="scale(0.015625)"/>
       </defs>
       <use xlink:href="#DejaVuSans-2212"/>
       <use xlink:href="#DejaVuSans-38" x="83.789062"/>
       <use xlink:href="#DejaVuSans-30" x="147.412109"/>
      </g>
     </g>
    </g>
    <g id="ytick_3">
     <g id="line2d_7">
      <g>
       <use xlink:href="#mdb848d4b13" x="72" y="368.1" style="stroke: #000000; stroke-width: 0.8"/>
      </g>
     </g>
     <g id="text_8">
      <!-- −60 -->
      <g transform="translate(18.569688 376.458281)scale(0.22 -0.22)">
       <defs>
        <path id="DejaVuSans-36" d="M 2113 2584 
Q 1688 2584 1439 2293 
Q 1191 2003 1191 1497 
Q 1191 994 1439 701 
Q 1688 409 2113 409 
Q 2538 409 2786 701 
Q 3034 994 3034 1497 
Q 3034 2003 2786 2293 
Q 2538 2584 2113 2584 
z
M 3366 4563 
L 3366 3988 
Q 3128 4100 2886 4159 
Q 2644 4219 2406 4219 
Q 1781 4219 1451 3797 
Q 1122 3375 1075 2522 
Q 1259 2794 1537 2939 
Q 1816 3084 2150 3084 
Q 2853 3084 3261 2657 
Q 3669 2231 3669 1497 
Q 3669 778 3244 343 
Q 2819 -91 2113 -91 
Q 1303 -91 875 529 
Q 447 1150 447 2328 
Q 447 3434 972 4092 
Q 1497 4750 2381 4750 
Q 2619 4750 2861 4703 
Q 3103 4656 3366 4563 
z
" transform="scale(0.015625)"/>
       </defs>
       <use xlink:href="#DejaVuSans-2212"/>
       <use xlink:href="#DejaVuSans-36" x="83.789062"/>
       <use xlink:href="#DejaVuSans-30" x="147.412109"/>
      </g>
     </g>
    </g>
    <g id="ytick_4">
     <g id="line2d_8">
      <g>
       <use xlink:href="#mdb848d4b13" x="72" y="313.74" style="stroke: #000000; stroke-width: 0.8"/>
      </g>
     </g>
     <g id="text_9">
      <!-- −40 -->
      <g transform="translate(18.569688 322.098281)scale(0.22 -0.22)">
       <defs>
        <path id="DejaVuSans-34" d="M 2419 4116 
L 825 1625 
L 2419 1625 
L 2419 4116 
z
M 2253 4666 
L 3047 4666 
L 3047 1625 
L 3713 1625 
L 3713 1100 
L 3047 1100 
L 3047 0 
L 2419 0 
L 2419 1100 
L 313 1100 
L 313 1709 
L 2253 4666 
z
" transform="scale(0.015625)"/>
       </defs>
       <use xlink:href="#DejaVuSans-2212"/>
       <use xlink:href="#DejaVuSans-34" x="83.789062"/>
       <use xlink:href="#DejaVuSans-30" x="147.412109"/>
      </g>
     </g>
    </g>
    <g id="ytick_5">
     <g id="line2d_9">
      <g>
       <use xlink:href="#mdb848d4b13" x="72" y="259.38" style="stroke: #000000; stroke-width: 0.8"/>
      </g>
     </g>
     <g id="text_10">
      <!-- −20 -->
      <g transform="translate(18.569688 267.738281)scale(0.22 -0.22)">
       <use xlink:href="#DejaVuSans-2212"/>
       <use xlink:href="#DejaVuSans-32" x="83.789062"/>
       <use xlink:href="#DejaVuSans-30" x="147.412109"/>
      </g>
     </g>
    </g>
    <g id="ytick_6">
     <g id="line2d_10">
      <g>
       <use xlink:href="#mdb848d4b13" x="72" y="205.02" style="stroke: #000000; stroke-width: 0.8"/>
      </g>
     </g>
     <g id="text_11">
      <!-- 0 -->
      <g transform="translate(51.0025 213.378281)scale(0.22 -0.22)">
       <use xlink:href="#DejaVuSans-30"/>
      </g>
     </g>
    </g>
    <g id="ytick_7">
     <g id="line2d_11">
      <g>
       <use xlink:href="#mdb848d4b13" x="72" y="150.66" style="stroke: #000000; stroke-width: 0.8"/>
      </g>
     </g>
     <g id="text_12">
      <!-- 20 -->
      <g transform="translate(37.005 159.018281)scale(0.22 -0.22)">
       <use xlink:href="#DejaVuSans-32"/>
       <use xlink:href="#DejaVuSans-30" x="63.623047"/>
      </g>
     </g>
    </g>
    <g id="ytick_8">
     <g id="line2d_12">
      <g>
       <use xlink:href="#mdb848d4b13" x="72" y="96.3" style="stroke: #000000; stroke-width: 0.8"/>
      </g>
     </g>
     <g id="text_13">
      <!-- 40 -->
      <g transform="translate(37.005 104.658281)scale(0.22 -0.22)">
       <use xlink:href="#DejaVuSans-34"/>
       <use xlink:href="#DejaVuSans-30" x="63.623047"/>
      </g>
     </g>
    </g>
    <g id="text_14">
     <!-- Membrane potential (mV) -->
     <g transform="translate(-4.058125 410.655469)rotate(-90)scale(0.22 -0.22)">
      <defs>
       <path id="ArialMT-4d" d="M 475 0 
L 475 4581 
L 1388 4581 
L 2472 1338 
Q 2622 884 2691 659 
Q 2769 909 2934 1394 
L 4031 4581 
L 4847 4581 
L 4847 0 
L 4263 0 
L 4263 3834 
L 2931 0 
L 2384 0 
L 1059 3900 
L 1059 0 
L 475 0 
z
" transform="scale(0.015625)"/>
       <path id="ArialMT-62" d="M 941 0 
L 419 0 
L 419 4581 
L 981 4581 
L 981 2947 
Q 1338 3394 1891 3394 
Q 2197 3394 2470 3270 
Q 2744 3147 2920 2923 
Q 3097 2700 3197 2384 
Q 3297 2069 3297 1709 
Q 3297 856 2875 390 
Q 2453 -75 1863 -75 
Q 1275 -75 941 416 
L 941 0 
z
M 934 1684 
Q 934 1088 1097 822 
Q 1363 388 1816 388 
Q 2184 388 2453 708 
Q 2722 1028 2722 1663 
Q 2722 2313 2464 2622 
Q 2206 2931 1841 2931 
Q 1472 2931 1203 2611 
Q 934 2291 934 1684 
z
" transform="scale(0.015625)"/>
       <path id="ArialMT-72" d="M 416 0 
L 416 3319 
L 922 3319 
L 922 2816 
Q 1116 3169 1280 3281 
Q 1444 3394 1641 3394 
Q 1925 3394 2219 3213 
L 2025 2691 
Q 1819 2813 1613 2813 
Q 1428 2813 1281 2702 
Q 1134 2591 1072 2394 
Q 978 2094 978 1738 
L 978 0 
L 416 0 
z
" transform="scale(0.015625)"/>
       <path id="ArialMT-61" d="M 2588 409 
Q 2275 144 1986 34 
Q 1697 -75 1366 -75 
Q 819 -75 525 192 
Q 231 459 231 875 
Q 231 1119 342 1320 
Q 453 1522 633 1644 
Q 813 1766 1038 1828 
Q 1203 1872 1538 1913 
Q 2219 1994 2541 2106 
Q 2544 2222 2544 2253 
Q 2544 2597 2384 2738 
Q 2169 2928 1744 2928 
Q 1347 2928 1158 2789 
Q 969 2650 878 2297 
L 328 2372 
Q 403 2725 575 2942 
Q 747 3159 1072 3276 
Q 1397 3394 1825 3394 
Q 2250 3394 2515 3294 
Q 2781 3194 2906 3042 
Q 3031 2891 3081 2659 
Q 3109 2516 3109 2141 
L 3109 1391 
Q 3109 606 3145 398 
Q 3181 191 3288 0 
L 2700 0 
Q 2613 175 2588 409 
z
M 2541 1666 
Q 2234 1541 1622 1453 
Q 1275 1403 1131 1340 
Q 988 1278 909 1158 
Q 831 1038 831 891 
Q 831 666 1001 516 
Q 1172 366 1500 366 
Q 1825 366 2078 508 
Q 2331 650 2450 897 
Q 2541 1088 2541 1459 
L 2541 1666 
z
" transform="scale(0.015625)"/>
       <path id="ArialMT-6e" d="M 422 0 
L 422 3319 
L 928 3319 
L 928 2847 
Q 1294 3394 1984 3394 
Q 2284 3394 2536 3286 
Q 2788 3178 2913 3003 
Q 3038 2828 3088 2588 
Q 3119 2431 3119 2041 
L 3119 0 
L 2556 0 
L 2556 2019 
Q 2556 2363 2490 2533 
Q 2425 2703 2258 2804 
Q 2091 2906 1866 2906 
Q 1506 2906 1245 2678 
Q 984 2450 984 1813 
L 984 0 
L 422 0 
z
" transform="scale(0.015625)"/>
       <path id="ArialMT-20" transform="scale(0.015625)"/>
       <path id="ArialMT-70" d="M 422 -1272 
L 422 3319 
L 934 3319 
L 934 2888 
Q 1116 3141 1344 3267 
Q 1572 3394 1897 3394 
Q 2322 3394 2647 3175 
Q 2972 2956 3137 2557 
Q 3303 2159 3303 1684 
Q 3303 1175 3120 767 
Q 2938 359 2589 142 
Q 2241 -75 1856 -75 
Q 1575 -75 1351 44 
Q 1128 163 984 344 
L 984 -1272 
L 422 -1272 
z
M 931 1641 
Q 931 1000 1190 694 
Q 1450 388 1819 388 
Q 2194 388 2461 705 
Q 2728 1022 2728 1688 
Q 2728 2322 2467 2637 
Q 2206 2953 1844 2953 
Q 1484 2953 1207 2617 
Q 931 2281 931 1641 
z
" transform="scale(0.015625)"/>
       <path id="ArialMT-6f" d="M 213 1659 
Q 213 2581 725 3025 
Q 1153 3394 1769 3394 
Q 2453 3394 2887 2945 
Q 3322 2497 3322 1706 
Q 3322 1066 3130 698 
Q 2938 331 2570 128 
Q 2203 -75 1769 -75 
Q 1072 -75 642 372 
Q 213 819 213 1659 
z
M 791 1659 
Q 791 1022 1069 705 
Q 1347 388 1769 388 
Q 2188 388 2466 706 
Q 2744 1025 2744 1678 
Q 2744 2294 2464 2611 
Q 2184 2928 1769 2928 
Q 1347 2928 1069 2612 
Q 791 2297 791 1659 
z
" transform="scale(0.015625)"/>
       <path id="ArialMT-74" d="M 1650 503 
L 1731 6 
Q 1494 -44 1306 -44 
Q 1000 -44 831 53 
Q 663 150 594 308 
Q 525 466 525 972 
L 525 2881 
L 113 2881 
L 113 3319 
L 525 3319 
L 525 4141 
L 1084 4478 
L 1084 3319 
L 1650 3319 
L 1650 2881 
L 1084 2881 
L 1084 941 
Q 1084 700 1114 631 
Q 1144 563 1211 522 
Q 1278 481 1403 481 
Q 1497 481 1650 503 
z
" transform="scale(0.015625)"/>
       <path id="ArialMT-6c" d="M 409 0 
L 409 4581 
L 972 4581 
L 972 0 
L 409 0 
z
" transform="scale(0.015625)"/>
       <path id="ArialMT-56" d="M 1803 0 
L 28 4581 
L 684 4581 
L 1875 1253 
Q 2019 853 2116 503 
Q 2222 878 2363 1253 
L 3600 4581 
L 4219 4581 
L 2425 0 
L 1803 0 
z
" transform="scale(0.015625)"/>
      </defs>
      <use xlink:href="#ArialMT-4d"/>
      <use xlink:href="#ArialMT-65" x="83.300781"/>
      <use xlink:href="#ArialMT-6d" x="138.916016"/>
      <use xlink:href="#ArialMT-62" x="222.216797"/>
      <use xlink:href="#ArialMT-72" x="277.832031"/>
      <use xlink:href="#ArialMT-61" x="311.132812"/>
      <use xlink:href="#ArialMT-6e" x="366.748047"/>
      <use xlink:href="#ArialMT-65" x="422.363281"/>
      <use xlink:href="#ArialMT-20" x="477.978516"/>
      <use xlink:href="#ArialMT-70" x="505.761719"/>
      <use xlink:href="#ArialMT-6f" x="561.376953"/>
      <use xlink:href="#ArialMT-74" x="616.992188"/>
      <use xlink:href="#ArialMT-65" x="644.775391"/>
      <use xlink:href="#ArialMT-6e" x="700.390625"/>
      <use xlink:href="#ArialMT-74" x="756.005859"/>
      <use xlink:href="#ArialMT-69" x="783.789062"/>
      <use xlink:href="#ArialMT-61" x="806.005859"/>
      <use xlink:href="#ArialMT-6c" x="861.621094"/>
      <use xlink:href="#ArialMT-20" x="883.837891"/>
      <use xlink:href="#ArialMT-28" x="911.621094"/>
      <use xlink:href="#ArialMT-6d" x="944.921875"/>
      <use xlink:href="#ArialMT-56" x="1028.222656"/>
      <use xlink:href="#ArialMT-29" x="1094.921875"/>
     </g>
    </g>
   </g>
   <g id="line2d_13">
    <path d="M 92.290909 430.614 
L 92.426182 431.263556 
L 92.899636 433.939943 
L 93.373091 435.383348 
L 93.914182 436.349782 
L 94.522909 436.970967 
L 95.199273 437.339948 
L 96.146182 437.574597 
L 97.701818 437.691675 
L 102.368727 437.723201 
L 159.927273 437.723646 
L 160.130182 419.136962 
L 160.468364 408.236784 
L 160.941818 400.136764 
L 161.618182 392.779051 
L 162.565091 385.175711 
L 163.985455 375.802037 
L 164.864727 369.603814 
L 165.541091 364.956954 
L 165.946909 363.358507 
L 166.826182 360.850561 
L 167.976 356.418602 
L 168.314182 356.251614 
L 168.517091 356.412449 
L 168.855273 356.72792 
L 169.058182 356.533188 
L 169.396364 355.733298 
L 170.140364 353.925254 
L 170.343273 353.868704 
L 170.546182 354.021667 
L 171.290182 354.906655 
L 171.628364 354.712766 
L 172.034182 354.081152 
L 172.507636 353.346263 
L 173.116364 352.683283 
L 173.589818 351.217463 
L 173.928 350.347474 
L 174.063273 350.430172 
L 174.333818 351.081956 
L 175.077818 353.105537 
L 175.280727 353.191112 
L 175.618909 352.990194 
L 175.957091 352.84532 
L 176.16 352.652927 
L 176.498182 351.823315 
L 177.309818 349.735321 
L 177.512727 349.818017 
L 178.662545 351.157454 
L 179.000727 351.608923 
L 179.271273 351.525154 
L 179.541818 351.144991 
L 179.947636 350.05035 
L 180.894545 346.961514 
L 181.097455 346.965492 
L 181.300364 347.266046 
L 181.570909 348.241898 
L 182.247273 351.035424 
L 182.450182 351.290666 
L 182.585455 351.234866 
L 182.788364 350.820899 
L 183.126545 349.530569 
L 183.870545 346.374293 
L 184.141091 345.96428 
L 184.276364 346.042972 
L 184.546909 346.697782 
L 184.749818 347.724102 
L 185.629091 354.542627 
L 185.899636 355.059201 
L 186.034909 355.071535 
L 186.237818 354.753351 
L 186.576 353.580413 
L 187.117091 350.970769 
L 187.455273 348.827424 
L 187.590545 351.128896 
L 188.199273 363.932304 
L 188.402182 364.357522 
L 188.605091 364.007991 
L 188.943273 362.643543 
L 189.687273 358.153226 
L 190.296 355.056729 
L 190.498909 354.420775 
L 190.634182 354.747734 
L 191.107636 356.298997 
L 191.919273 356.931316 
L 192.122182 356.711739 
L 192.257455 356.444484 
L 192.325091 356.481791 
L 192.933818 357.548606 
L 193.136727 357.277762 
L 193.407273 356.420219 
L 193.948364 353.719795 
L 194.557091 350.301242 
L 194.692364 350.869379 
L 195.436364 355.777453 
L 195.571636 355.807002 
L 195.774545 355.477124 
L 195.977455 354.771911 
L 196.045091 354.839909 
L 196.721455 359.046776 
L 196.856727 358.980274 
L 197.127273 358.324474 
L 198.615273 353.638968 
L 199.088727 352.658055 
L 199.224 352.856431 
L 200.170909 355.550139 
L 200.306182 355.437006 
L 201.050182 354.24956 
L 201.456 353.695527 
L 201.523636 353.760246 
L 201.861818 354.131007 
L 201.997091 354.162572 
L 202.267636 354.392095 
L 202.402909 354.345199 
L 202.605818 355.256567 
L 202.944 356.637523 
L 203.079273 356.730719 
L 203.214545 356.57838 
L 203.485091 355.688756 
L 204.026182 353.21465 
L 204.229091 355.278667 
L 204.567273 358.579548 
L 204.770182 359.247907 
L 204.973091 359.279378 
L 205.176 358.971328 
L 206.799273 355.030731 
L 207.408 352.401249 
L 207.543273 352.38949 
L 207.746182 352.713054 
L 208.152 353.367981 
L 208.287273 353.342164 
L 208.625455 352.85615 
L 208.963636 352.125603 
L 209.707636 349.538601 
L 210.113455 348.290717 
L 210.519273 347.819258 
L 211.128 347.400994 
L 211.330909 347.446346 
L 211.601455 347.904892 
L 212.413091 350.259886 
L 212.683636 350.370898 
L 212.886545 350.083925 
L 213.089455 349.686185 
L 213.157091 349.752549 
L 213.495273 350.594622 
L 214.306909 353.571211 
L 214.509818 353.276908 
L 215.389091 351.070057 
L 215.456727 351.115954 
L 216.336 352.126296 
L 216.674182 351.588865 
L 217.08 350.538118 
L 217.350545 349.72208 
L 217.418182 349.888986 
L 217.756364 352.247868 
L 218.094545 353.858772 
L 218.297455 354.022142 
L 218.500364 353.653514 
L 219.582545 351.028238 
L 220.056 350.101166 
L 220.664727 348.66592 
L 220.8 348.663509 
L 221.070545 349.073156 
L 221.341091 349.309672 
L 221.544 349.175288 
L 222.152727 348.235436 
L 222.558545 347.01319 
L 223.099636 345.520313 
L 223.167273 345.569112 
L 223.302545 346.24694 
L 224.249455 353.537413 
L 224.384727 353.586544 
L 224.587636 353.305423 
L 225.128727 351.57134 
L 225.602182 350.410411 
L 225.805091 350.205156 
L 226.075636 350.440563 
L 226.481455 350.825493 
L 226.684364 350.725927 
L 227.901818 348.924563 
L 229.119273 345.954097 
L 229.457455 343.741271 
L 229.795636 339.889569 
L 230.066182 334.033159 
L 230.269091 324.225779 
L 230.404364 299.139968 
L 230.539636 170.992302 
L 230.742545 329.515707 
L 231.013091 387.861458 
L 231.148364 392.659733 
L 231.216 392.422689 
L 231.486545 386.500414 
L 232.027636 375.451211 
L 232.501091 369.895136 
L 233.042182 366.026325 
L 233.650909 363.249876 
L 234.327273 360.981659 
L 235.003636 358.914356 
L 237.032727 352.355369 
L 237.235636 352.496979 
L 237.641455 352.806346 
L 237.912 352.896456 
L 238.453091 353.519231 
L 238.723636 353.494092 
L 239.061818 353.004539 
L 239.467636 352.4385 
L 240.482182 352.332146 
L 241.767273 350.904701 
L 242.105455 350.577543 
L 242.376 349.80306 
L 243.12 347.113431 
L 243.255273 347.105276 
L 243.458182 347.509948 
L 243.864 348.384997 
L 244.134545 348.52492 
L 244.405091 348.325292 
L 244.946182 347.809545 
L 245.149091 348.475139 
L 245.960727 352.067897 
L 246.231273 352.316881 
L 246.975273 352.598211 
L 247.245818 352.49391 
L 247.448727 352.901235 
L 247.854545 353.81096 
L 248.057455 353.794425 
L 248.328 353.43549 
L 249.207273 351.63066 
L 249.410182 351.575921 
L 249.748364 351.61998 
L 250.086545 351.385077 
L 251.168727 350.117434 
L 251.574545 349.815043 
L 251.845091 349.207139 
L 252.115636 347.857188 
L 252.994909 342.704991 
L 253.265455 342.393521 
L 253.400727 342.370159 
L 253.603636 342.871499 
L 253.941818 344.656796 
L 254.482909 347.518846 
L 254.888727 348.47515 
L 255.159273 348.655239 
L 255.362182 348.86913 
L 255.970909 351.053809 
L 256.376727 352.0773 
L 256.512 352.112466 
L 256.714909 351.824677 
L 257.053091 350.820267 
L 257.594182 349.285987 
L 257.729455 349.317321 
L 258.135273 349.647987 
L 258.338182 349.435313 
L 258.744 348.986668 
L 259.014545 348.690091 
L 259.352727 347.912648 
L 259.690909 346.518569 
L 260.096727 344.922934 
L 260.367273 344.562364 
L 260.570182 345.076705 
L 260.908364 346.720827 
L 261.990545 353.050378 
L 262.261091 353.401684 
L 262.734545 353.647817 
L 262.937455 353.50425 
L 263.749091 352.579643 
L 264.357818 352.686935 
L 264.696 352.376707 
L 265.169455 351.789772 
L 265.642909 351.075487 
L 265.778182 351.02044 
L 266.048727 351.328723 
L 266.657455 352.001038 
L 267.198545 351.879619 
L 267.604364 352.284704 
L 268.145455 352.243687 
L 268.483636 352.235739 
L 268.889455 352.835575 
L 269.227636 353.093688 
L 269.498182 352.89899 
L 269.768727 352.366198 
L 270.106909 351.011874 
L 271.324364 345.168648 
L 271.730182 344.85277 
L 271.933091 344.96241 
L 272.136 345.562164 
L 273.015273 349.183021 
L 273.285818 349.623854 
L 273.556364 349.596668 
L 273.826909 349.707637 
L 274.570909 350.008252 
L 274.841455 349.793666 
L 275.314909 349.02558 
L 276.464727 347.230222 
L 276.802909 346.932656 
L 276.938182 347.13475 
L 277.208727 348.272415 
L 277.817455 350.91818 
L 278.290909 352.765906 
L 278.426182 352.83164 
L 278.561455 352.70434 
L 278.832 351.946564 
L 279.170182 350.208663 
L 280.184727 342.962365 
L 281.334545 329.27041 
L 281.537455 325.369053 
L 281.672727 319.86132 
L 281.808 304.085817 
L 281.875636 272.656597 
L 281.943273 169.481895 
L 282.010909 230.055597 
L 282.213818 323.94442 
L 282.484364 376.150305 
L 282.687273 385.013644 
L 282.754909 385.141125 
L 282.890182 383.730477 
L 283.972364 367.299882 
L 284.513455 363.021853 
L 285.189818 359.704916 
L 285.866182 357.349193 
L 286.069091 356.986116 
L 286.272 357.046608 
L 287.083636 357.752464 
L 287.286545 357.506424 
L 287.624727 356.66341 
L 288.098182 354.752159 
L 288.706909 352.332462 
L 288.977455 351.854039 
L 289.112727 351.920156 
L 289.383273 352.447286 
L 289.721455 353.4903 
L 289.992 353.970467 
L 290.194909 353.945495 
L 290.465455 353.535412 
L 291.074182 352.484897 
L 291.547636 352.035284 
L 291.885818 351.983384 
L 292.629818 351.22939 
L 292.968 350.207406 
L 293.982545 346.975738 
L 294.117818 347.031934 
L 294.320727 347.673871 
L 294.591273 349.643259 
L 295.132364 354.559567 
L 295.335273 355.139536 
L 295.470545 355.157438 
L 295.673455 354.793802 
L 297.161455 350.660299 
L 297.432 350.423676 
L 297.770182 350.551714 
L 297.973091 350.88125 
L 298.311273 351.400994 
L 298.514182 351.367586 
L 298.92 350.829358 
L 299.393455 350.065302 
L 299.934545 349.099897 
L 300.137455 349.142413 
L 300.543273 349.495295 
L 301.625455 351.13557 
L 301.760727 351.210024 
L 302.707636 352.840521 
L 302.910545 353.040658 
L 303.992727 353.036568 
L 304.195636 352.751353 
L 304.466182 351.965221 
L 304.872 349.927241 
L 305.683636 345.996048 
L 306.021818 345.149222 
L 306.224727 344.995257 
L 306.36 345.083408 
L 306.562909 345.540418 
L 306.833455 347.079721 
L 307.645091 351.989924 
L 307.983273 353.142134 
L 308.321455 353.464527 
L 308.524364 353.441868 
L 308.727273 353.18347 
L 309.336 351.818176 
L 310.621091 348.600855 
L 312.109091 343.639255 
L 312.447273 343.718606 
L 312.582545 343.888999 
L 312.920727 345.198839 
L 313.529455 347.402568 
L 313.867636 347.99903 
L 314.205818 348.328217 
L 314.611636 349.327269 
L 315.152727 350.639345 
L 315.490909 350.860352 
L 315.693818 350.762807 
L 315.964364 350.319046 
L 316.302545 349.105202 
L 316.640727 346.986243 
L 317.249455 342.924182 
L 317.52 342.339252 
L 317.655273 342.396563 
L 317.858182 342.889684 
L 318.466909 345.468737 
L 319.075636 349.226366 
L 319.481455 351.415476 
L 319.752 351.875823 
L 319.954909 351.765973 
L 320.225455 351.255063 
L 320.698909 350.286665 
L 321.375273 349.75872 
L 321.645818 348.98701 
L 322.457455 346.068903 
L 322.592727 346.265065 
L 322.930909 347.504942 
L 323.877818 351.509706 
L 324.148364 351.746476 
L 324.486545 351.956807 
L 324.757091 352.084427 
L 324.96 351.95581 
L 325.298182 351.250007 
L 325.704 350.338434 
L 325.906909 350.30136 
L 326.448 350.458129 
L 327.056727 350.157026 
L 327.259636 350.436222 
L 328.003636 352.422587 
L 328.206545 352.355224 
L 328.409455 352.186223 
L 328.544727 352.440494 
L 329.153455 354.580804 
L 329.356364 354.596019 
L 329.559273 354.23441 
L 329.965091 352.910919 
L 331.047273 348.930337 
L 331.385455 348.44082 
L 331.926545 348.314751 
L 332.4 347.649475 
L 332.941091 346.489372 
L 333.346909 345.558585 
L 333.617455 345.377694 
L 333.955636 345.429158 
L 334.090909 345.59946 
L 334.293818 346.756754 
L 334.970182 351.461297 
L 335.240727 352.046487 
L 335.443636 352.165093 
L 335.646545 351.921848 
L 335.984727 350.892294 
L 336.931636 347.614375 
L 337.066909 347.744311 
L 337.337455 348.41572 
L 338.216727 352.574999 
L 338.352 352.549496 
L 338.554909 352.092346 
L 338.825455 350.778974 
L 339.569455 346.727274 
L 340.110545 345.563769 
L 340.313455 345.437849 
L 340.448727 345.650806 
L 340.719273 346.697145 
L 341.463273 349.819063 
L 341.733818 350.183675 
L 342.139636 350.420634 
L 342.613091 350.223589 
L 343.830545 348.539922 
L 344.168727 347.767712 
L 344.777455 346.912128 
L 345.318545 346.031757 
L 345.453818 346.246718 
L 345.656727 347.398642 
L 346.603636 354.697795 
L 346.806545 354.696389 
L 347.009455 354.410349 
L 347.28 353.543176 
L 347.888727 351.588071 
L 348.768 350.950546 
L 349.917818 349.269895 
L 350.323636 347.93533 
L 350.864727 346.644925 
L 351.135273 346.501332 
L 351.473455 346.492574 
L 351.676364 346.301239 
L 352.285091 345.417169 
L 352.555636 345.389119 
L 352.758545 345.671332 
L 353.029091 347.164921 
L 353.570182 350.361978 
L 353.840727 350.861833 
L 354.111273 350.93093 
L 354.381818 350.615096 
L 355.125818 349.456822 
L 355.328727 350.069711 
L 356.140364 353.019709 
L 356.343273 352.899315 
L 357.290182 351.866256 
L 357.628364 350.936679 
L 358.575273 347.200222 
L 359.184 344.681792 
L 359.386909 344.304171 
L 359.522182 344.327241 
L 359.792727 344.928217 
L 360.469091 346.920407 
L 361.010182 349.735223 
L 361.416 351.622963 
L 361.686545 352.036628 
L 361.889455 351.902721 
L 362.16 351.247232 
L 362.565818 349.549333 
L 363.309818 345.268866 
L 363.918545 342.422367 
L 364.121455 341.829531 
L 364.256727 342.044106 
L 364.527273 343.386844 
L 365.744727 351.051292 
L 366.150545 354.107967 
L 366.421091 354.963898 
L 366.556364 355.02955 
L 366.759273 354.809261 
L 367.165091 353.958137 
L 367.841455 352.168237 
L 368.112 352.228773 
L 368.382545 352.32414 
L 368.585455 352.149623 
L 369.058909 351.268309 
L 369.532364 350.575976 
L 369.667636 350.70182 
L 370.005818 351.7527 
L 370.614545 353.746713 
L 370.817455 353.808427 
L 371.088 353.590508 
L 371.358545 352.93877 
L 371.899636 350.766761 
L 372.981818 346.161603 
L 373.117091 346.187811 
L 373.32 346.545595 
L 373.590545 347.641082 
L 374.537455 352.474815 
L 374.740364 352.679033 
L 375.078545 352.505256 
L 375.349091 352.025337 
L 375.754909 350.625121 
L 376.160727 349.490792 
L 376.363636 349.175737 
L 376.566545 349.232855 
L 376.837091 349.591635 
L 377.175273 350.994502 
L 377.581091 352.347296 
L 377.784 352.545307 
L 377.919273 352.483289 
L 378.122182 352.103658 
L 378.460364 350.904921 
L 379.136727 348.246287 
L 379.339636 347.995277 
L 379.610182 348.315688 
L 380.016 349.082422 
L 380.76 350.841038 
L 380.962909 350.813778 
L 381.368727 350.537506 
L 381.842182 350.237018 
L 382.180364 349.794149 
L 383.262545 348.061594 
L 383.600727 348.294242 
L 383.736 348.6091 
L 384.141818 349.824078 
L 384.48 350.050295 
L 384.682909 349.942738 
L 385.494545 348.630003 
L 385.765091 348.224323 
L 385.900364 348.37213 
L 386.170909 349.068759 
L 386.712 350.528079 
L 387.388364 352.18491 
L 387.523636 352.102309 
L 387.861818 351.45175 
L 388.267636 350.833156 
L 388.470545 350.737777 
L 388.944 351.110992 
L 389.214545 350.981138 
L 389.890909 351.180579 
L 390.161455 350.652493 
L 390.567273 349.69006 
L 390.770182 349.71895 
L 391.040727 350.184993 
L 391.784727 351.890324 
L 392.122909 352.419332 
L 392.528727 352.585011 
L 392.799273 352.603726 
L 393.137455 352.228839 
L 393.678545 351.285266 
L 395.301818 347.397188 
L 395.504727 347.427873 
L 395.707636 347.788991 
L 395.978182 348.710948 
L 396.586909 351.216241 
L 396.789818 351.494741 
L 396.992727 351.413646 
L 397.263273 350.88827 
L 397.939636 348.377099 
L 398.345455 346.181851 
L 398.818909 342.079741 
L 399.495273 336.470294 
L 399.833455 334.814912 
L 399.968727 334.693274 
L 400.104 335.035557 
L 400.306909 336.333867 
L 400.577455 339.896547 
L 401.456727 352.754554 
L 401.727273 353.623066 
L 401.862545 353.693429 
L 402.133091 353.341115 
L 402.741818 352.704542 
L 403.012364 352.522652 
L 403.350545 351.919905 
L 404.838545 348.960679 
L 405.041455 349.051412 
L 405.582545 349.872955 
L 405.988364 350.726525 
L 406.326545 352.482911 
L 406.664727 353.872096 
L 406.867636 354.102867 
L 407.138182 353.973843 
L 407.544 353.498821 
L 407.814545 353.341611 
L 408.017455 353.51074 
L 408.288 353.762812 
L 408.490909 353.698023 
L 410.046545 352.11809 
L 410.722909 350.571725 
L 410.993455 350.41054 
L 411.264 350.513599 
L 411.805091 350.917578 
L 412.008 350.752741 
L 412.278545 350.226378 
L 412.684364 349.401559 
L 412.887273 349.683345 
L 413.293091 350.323524 
L 413.496 350.330637 
L 413.698909 350.070494 
L 414.037091 349.535854 
L 414.172364 349.725585 
L 414.578182 350.457796 
L 414.781091 350.369063 
L 415.051636 350.048707 
L 415.389818 349.309215 
L 416.133818 347.0487 
L 416.607273 344.846344 
L 417.013091 343.165155 
L 417.283636 342.770422 
L 417.418909 342.846247 
L 417.621818 343.613249 
L 418.704 349.197143 
L 418.974545 349.618347 
L 419.177455 349.583437 
L 419.921455 348.969322 
L 420.327273 349.114253 
L 420.597818 349.456594 
L 420.868364 350.375478 
L 421.274182 351.57405 
L 421.477091 351.641725 
L 421.68 351.401623 
L 422.288727 350.258443 
L 423.235636 348.953547 
L 423.709091 347.23415 
L 424.182545 345.703129 
L 424.250182 345.72322 
L 424.385455 346.119066 
L 424.723636 348.111887 
L 425.467636 352.5423 
L 425.805818 353.297224 
L 426.076364 353.431897 
L 426.346909 353.313713 
L 426.752727 352.708809 
L 427.090909 352.13145 
L 427.767273 352.091556 
L 428.037818 351.479956 
L 428.443636 350.529939 
L 429.458182 348.889591 
L 429.661091 349.235253 
L 430.202182 350.351542 
L 430.405091 350.370642 
L 430.472727 350.308155 
L 430.743273 379.229834 
L 431.013818 390.033159 
L 431.352 395.291286 
L 432.096 401.831078 
L 434.598545 422.317439 
L 435.477818 427.629696 
L 436.289455 431.226536 
L 437.033455 433.516542 
L 437.709818 434.934961 
L 438.386182 435.890852 
L 439.130182 436.57373 
L 440.009455 437.061817 
L 441.091636 437.388127 
L 442.647273 437.597369 
L 445.420364 437.702399 
L 454.957091 437.723614 
L 498.109091 437.723426 
L 498.109091 437.723426 
" clip-path="url(#pb8afccfa22)" style="fill: none; stroke: #000000; stroke-width: 1.5; stroke-linecap: square"/>
   </g>
   <g id="line2d_14">
    <path d="M 497.973818 408.87 
" clip-path="url(#pb8afccfa22)" style="fill: none; stroke: #000000; stroke-width: 1.5; stroke-linecap: square"/>
   </g>
   <g id="line2d_15">
    <path d="M 430.472727 368.1 
L 430.472727 365.382 
L 430.472727 362.664 
L 430.472727 359.946 
L 430.472727 357.228 
L 430.472727 354.51 
L 430.472727 351.792 
L 430.472727 349.074 
L 430.472727 346.356 
L 430.472727 343.638 
L 430.472727 340.92 
L 430.472727 338.202 
L 430.472727 335.484 
L 430.472727 332.766 
L 430.472727 330.048 
L 430.472727 327.33 
L 430.472727 324.612 
L 430.472727 321.894 
L 430.472727 319.176 
L 430.472727 316.458 
" clip-path="url(#pb8afccfa22)" style="fill: none; stroke: #000000; stroke-width: 1.5; stroke-linecap: square"/>
   </g>
   <g id="patch_3">
    <path d="M 72 504 
L 72 69.12 
" style="fill: none; stroke: #000000; stroke-width: 0.8; stroke-linejoin: miter; stroke-linecap: square"/>
   </g>
   <g id="patch_4">
    <path d="M 518.4 504 
L 518.4 69.12 
" style="fill: none; stroke: #000000; stroke-width: 0.8; stroke-linejoin: miter; stroke-linecap: square"/>
   </g>
   <g id="patch_5">
    <path d="M 72 504 
L 518.4 504 
" style="fill: none; stroke: #000000; stroke-width: 0.8; stroke-linejoin: miter; stroke-linecap: square"/>
   </g>
   <g id="patch_6">
    <path d="M 72 69.12 
L 518.4 69.12 
" style="fill: none; stroke: #000000; stroke-width: 0.8; stroke-linejoin: miter; stroke-linecap: square"/>
   </g>
   <g id="text_15">
    <!-- 500 ms -->
    <g transform="translate(497.973818 406.152)scale(0.22 -0.22)">
     <defs>
      <path id="ArialMT-35" d="M 266 1200 
L 856 1250 
Q 922 819 1161 601 
Q 1400 384 1738 384 
Q 2144 384 2425 690 
Q 2706 997 2706 1503 
Q 2706 1984 2436 2262 
Q 2166 2541 1728 2541 
Q 1456 2541 1237 2417 
Q 1019 2294 894 2097 
L 366 2166 
L 809 4519 
L 3088 4519 
L 3088 3981 
L 1259 3981 
L 1013 2750 
Q 1425 3038 1878 3038 
Q 2478 3038 2890 2622 
Q 3303 2206 3303 1553 
Q 3303 931 2941 478 
Q 2500 -78 1738 -78 
Q 1113 -78 717 272 
Q 322 622 266 1200 
z
" transform="scale(0.015625)"/>
      <path id="ArialMT-30" d="M 266 2259 
Q 266 3072 433 3567 
Q 600 4063 929 4331 
Q 1259 4600 1759 4600 
Q 2128 4600 2406 4451 
Q 2684 4303 2865 4023 
Q 3047 3744 3150 3342 
Q 3253 2941 3253 2259 
Q 3253 1453 3087 958 
Q 2922 463 2592 192 
Q 2263 -78 1759 -78 
Q 1097 -78 719 397 
Q 266 969 266 2259 
z
M 844 2259 
Q 844 1131 1108 757 
Q 1372 384 1759 384 
Q 2147 384 2411 759 
Q 2675 1134 2675 2259 
Q 2675 3391 2411 3762 
Q 2147 4134 1753 4134 
Q 1366 4134 1134 3806 
Q 844 3388 844 2259 
z
" transform="scale(0.015625)"/>
     </defs>
     <use xlink:href="#ArialMT-35"/>
     <use xlink:href="#ArialMT-30" x="55.615234"/>
     <use xlink:href="#ArialMT-30" x="111.230469"/>
     <use xlink:href="#ArialMT-20" x="166.845703"/>
     <use xlink:href="#ArialMT-6d" x="194.628906"/>
     <use xlink:href="#ArialMT-73" x="277.929688"/>
    </g>
   </g>
   <g id="text_16">
    <!-- 20 mV -->
    <g transform="translate(504.737455 321.894)scale(0.22 -0.22)">
     <defs>
      <path id="ArialMT-32" d="M 3222 541 
L 3222 0 
L 194 0 
Q 188 203 259 391 
Q 375 700 629 1000 
Q 884 1300 1366 1694 
Q 2113 2306 2375 2664 
Q 2638 3022 2638 3341 
Q 2638 3675 2398 3904 
Q 2159 4134 1775 4134 
Q 1369 4134 1125 3890 
Q 881 3647 878 3216 
L 300 3275 
Q 359 3922 746 4261 
Q 1134 4600 1788 4600 
Q 2447 4600 2831 4234 
Q 3216 3869 3216 3328 
Q 3216 3053 3103 2787 
Q 2991 2522 2730 2228 
Q 2469 1934 1863 1422 
Q 1356 997 1212 845 
Q 1069 694 975 541 
L 3222 541 
z
" transform="scale(0.015625)"/>
     </defs>
     <use xlink:href="#ArialMT-32"/>
     <use xlink:href="#ArialMT-30" x="55.615234"/>
     <use xlink:href="#ArialMT-20" x="111.230469"/>
     <use xlink:href="#ArialMT-6d" x="139.013672"/>
     <use xlink:href="#ArialMT-56" x="222.314453"/>
    </g>
   </g>
   <g id="text_17">
    <!--  Plotting iSPN, trace number 8840  -->
    <g transform="translate(125.842969 63.12)scale(0.22 -0.22)">
     <defs>
      <path id="ArialMT-50" d="M 494 0 
L 494 4581 
L 2222 4581 
Q 2678 4581 2919 4538 
Q 3256 4481 3484 4323 
Q 3713 4166 3852 3881 
Q 3991 3597 3991 3256 
Q 3991 2672 3619 2267 
Q 3247 1863 2275 1863 
L 1100 1863 
L 1100 0 
L 494 0 
z
M 1100 2403 
L 2284 2403 
Q 2872 2403 3119 2622 
Q 3366 2841 3366 3238 
Q 3366 3525 3220 3729 
Q 3075 3934 2838 4000 
Q 2684 4041 2272 4041 
L 1100 4041 
L 1100 2403 
z
" transform="scale(0.015625)"/>
      <path id="ArialMT-67" d="M 319 -275 
L 866 -356 
Q 900 -609 1056 -725 
Q 1266 -881 1628 -881 
Q 2019 -881 2231 -725 
Q 2444 -569 2519 -288 
Q 2563 -116 2559 434 
Q 2191 0 1641 0 
Q 956 0 581 494 
Q 206 988 206 1678 
Q 206 2153 378 2554 
Q 550 2956 876 3175 
Q 1203 3394 1644 3394 
Q 2231 3394 2613 2919 
L 2613 3319 
L 3131 3319 
L 3131 450 
Q 3131 -325 2973 -648 
Q 2816 -972 2473 -1159 
Q 2131 -1347 1631 -1347 
Q 1038 -1347 672 -1080 
Q 306 -813 319 -275 
z
M 784 1719 
Q 784 1066 1043 766 
Q 1303 466 1694 466 
Q 2081 466 2343 764 
Q 2606 1063 2606 1700 
Q 2606 2309 2336 2618 
Q 2066 2928 1684 2928 
Q 1309 2928 1046 2623 
Q 784 2319 784 1719 
z
" transform="scale(0.015625)"/>
      <path id="ArialMT-53" d="M 288 1472 
L 859 1522 
Q 900 1178 1048 958 
Q 1197 738 1509 602 
Q 1822 466 2213 466 
Q 2559 466 2825 569 
Q 3091 672 3220 851 
Q 3350 1031 3350 1244 
Q 3350 1459 3225 1620 
Q 3100 1781 2813 1891 
Q 2628 1963 1997 2114 
Q 1366 2266 1113 2400 
Q 784 2572 623 2826 
Q 463 3081 463 3397 
Q 463 3744 659 4045 
Q 856 4347 1234 4503 
Q 1613 4659 2075 4659 
Q 2584 4659 2973 4495 
Q 3363 4331 3572 4012 
Q 3781 3694 3797 3291 
L 3216 3247 
Q 3169 3681 2898 3903 
Q 2628 4125 2100 4125 
Q 1550 4125 1298 3923 
Q 1047 3722 1047 3438 
Q 1047 3191 1225 3031 
Q 1400 2872 2139 2705 
Q 2878 2538 3153 2413 
Q 3553 2228 3743 1945 
Q 3934 1663 3934 1294 
Q 3934 928 3725 604 
Q 3516 281 3123 101 
Q 2731 -78 2241 -78 
Q 1619 -78 1198 103 
Q 778 284 539 648 
Q 300 1013 288 1472 
z
" transform="scale(0.015625)"/>
      <path id="ArialMT-4e" d="M 488 0 
L 488 4581 
L 1109 4581 
L 3516 984 
L 3516 4581 
L 4097 4581 
L 4097 0 
L 3475 0 
L 1069 3600 
L 1069 0 
L 488 0 
z
" transform="scale(0.015625)"/>
      <path id="ArialMT-2c" d="M 569 0 
L 569 641 
L 1209 641 
L 1209 0 
Q 1209 -353 1084 -570 
Q 959 -788 688 -906 
L 531 -666 
Q 709 -588 793 -436 
Q 878 -284 888 0 
L 569 0 
z
" transform="scale(0.015625)"/>
      <path id="ArialMT-63" d="M 2588 1216 
L 3141 1144 
Q 3050 572 2676 248 
Q 2303 -75 1759 -75 
Q 1078 -75 664 370 
Q 250 816 250 1647 
Q 250 2184 428 2587 
Q 606 2991 970 3192 
Q 1334 3394 1763 3394 
Q 2303 3394 2647 3120 
Q 2991 2847 3088 2344 
L 2541 2259 
Q 2463 2594 2264 2762 
Q 2066 2931 1784 2931 
Q 1359 2931 1093 2626 
Q 828 2322 828 1663 
Q 828 994 1084 691 
Q 1341 388 1753 388 
Q 2084 388 2306 591 
Q 2528 794 2588 1216 
z
" transform="scale(0.015625)"/>
      <path id="ArialMT-75" d="M 2597 0 
L 2597 488 
Q 2209 -75 1544 -75 
Q 1250 -75 995 37 
Q 741 150 617 320 
Q 494 491 444 738 
Q 409 903 409 1263 
L 409 3319 
L 972 3319 
L 972 1478 
Q 972 1038 1006 884 
Q 1059 663 1231 536 
Q 1403 409 1656 409 
Q 1909 409 2131 539 
Q 2353 669 2445 892 
Q 2538 1116 2538 1541 
L 2538 3319 
L 3100 3319 
L 3100 0 
L 2597 0 
z
" transform="scale(0.015625)"/>
      <path id="ArialMT-38" d="M 1131 2484 
Q 781 2613 612 2850 
Q 444 3088 444 3419 
Q 444 3919 803 4259 
Q 1163 4600 1759 4600 
Q 2359 4600 2725 4251 
Q 3091 3903 3091 3403 
Q 3091 3084 2923 2848 
Q 2756 2613 2416 2484 
Q 2838 2347 3058 2040 
Q 3278 1734 3278 1309 
Q 3278 722 2862 322 
Q 2447 -78 1769 -78 
Q 1091 -78 675 323 
Q 259 725 259 1325 
Q 259 1772 486 2073 
Q 713 2375 1131 2484 
z
M 1019 3438 
Q 1019 3113 1228 2906 
Q 1438 2700 1772 2700 
Q 2097 2700 2305 2904 
Q 2513 3109 2513 3406 
Q 2513 3716 2298 3927 
Q 2084 4138 1766 4138 
Q 1444 4138 1231 3931 
Q 1019 3725 1019 3438 
z
M 838 1322 
Q 838 1081 952 856 
Q 1066 631 1291 507 
Q 1516 384 1775 384 
Q 2178 384 2440 643 
Q 2703 903 2703 1303 
Q 2703 1709 2433 1975 
Q 2163 2241 1756 2241 
Q 1359 2241 1098 1978 
Q 838 1716 838 1322 
z
" transform="scale(0.015625)"/>
      <path id="ArialMT-34" d="M 2069 0 
L 2069 1097 
L 81 1097 
L 81 1613 
L 2172 4581 
L 2631 4581 
L 2631 1613 
L 3250 1613 
L 3250 1097 
L 2631 1097 
L 2631 0 
L 2069 0 
z
M 2069 1613 
L 2069 3678 
L 634 1613 
L 2069 1613 
z
" transform="scale(0.015625)"/>
     </defs>
     <use xlink:href="#ArialMT-20"/>
     <use xlink:href="#ArialMT-50" x="27.783203"/>
     <use xlink:href="#ArialMT-6c" x="94.482422"/>
     <use xlink:href="#ArialMT-6f" x="116.699219"/>
     <use xlink:href="#ArialMT-74" x="172.314453"/>
     <use xlink:href="#ArialMT-74" x="200.097656"/>
     <use xlink:href="#ArialMT-69" x="227.880859"/>
     <use xlink:href="#ArialMT-6e" x="250.097656"/>
     <use xlink:href="#ArialMT-67" x="305.712891"/>
     <use xlink:href="#ArialMT-20" x="361.328125"/>
     <use xlink:href="#ArialMT-69" x="389.111328"/>
     <use xlink:href="#ArialMT-53" x="411.328125"/>
     <use xlink:href="#ArialMT-50" x="478.027344"/>
     <use xlink:href="#ArialMT-4e" x="544.726562"/>
     <use xlink:href="#ArialMT-2c" x="616.943359"/>
     <use xlink:href="#ArialMT-20" x="644.726562"/>
     <use xlink:href="#ArialMT-74" x="672.509766"/>
     <use xlink:href="#ArialMT-72" x="700.292969"/>
     <use xlink:href="#ArialMT-61" x="733.59375"/>
     <use xlink:href="#ArialMT-63" x="789.208984"/>
     <use xlink:href="#ArialMT-65" x="839.208984"/>
     <use xlink:href="#ArialMT-20" x="894.824219"/>
     <use xlink:href="#ArialMT-6e" x="922.607422"/>
     <use xlink:href="#ArialMT-75" x="978.222656"/>
     <use xlink:href="#ArialMT-6d" x="1033.837891"/>
     <use xlink:href="#ArialMT-62" x="1117.138672"/>
     <use xlink:href="#ArialMT-65" x="1172.753906"/>
     <use xlink:href="#ArialMT-72" x="1228.369141"/>
     <use xlink:href="#ArialMT-20" x="1261.669922"/>
     <use xlink:href="#ArialMT-38" x="1289.453125"/>
     <use xlink:href="#ArialMT-38" x="1345.068359"/>
     <use xlink:href="#ArialMT-34" x="1400.683594"/>
     <use xlink:href="#ArialMT-30" x="1456.298828"/>
     <use xlink:href="#ArialMT-20" x="1511.914062"/>
    </g>
   </g>
  </g>
 </g>
 <defs>
  <clipPath id="pb8afccfa22">
   <rect x="72" y="69.12" width="446.4" height="434.88"/>
  </clipPath>
 </defs>
</svg>
