<?xml version="1.0" encoding="utf-8" standalone="no"?>
<!DOCTYPE svg PUBLIC "-//W3C//DTD SVG 1.1//EN"
  "http://www.w3.org/Graphics/SVG/1.1/DTD/svg11.dtd">
<svg xmlns:xlink="http://www.w3.org/1999/xlink" width="576pt" height="576pt" viewBox="0 0 576 576" xmlns="http://www.w3.org/2000/svg" version="1.1">
 <metadata>
  <rdf:RDF xmlns:dc="http://purl.org/dc/elements/1.1/" xmlns:cc="http://creativecommons.org/ns#" xmlns:rdf="http://www.w3.org/1999/02/22-rdf-syntax-ns#">
   <cc:Work>
    <dc:type rdf:resource="http://purl.org/dc/dcmitype/StillImage"/>
    <dc:date>2022-10-30T19:57:18.065563</dc:date>
    <dc:format>image/svg+xml</dc:format>
    <dc:creator>
     <cc:Agent>
      <dc:title>Matplotlib v3.5.2, https://matplotlib.org/</dc:title>
     </cc:Agent>
    </dc:creator>
   </cc:Work>
  </rdf:RDF>
 </metadata>
 <defs>
  <style type="text/css">*{stroke-linejoin: round; stroke-linecap: butt}</style>
 </defs>
 <g id="figure_1">
  <g id="patch_1">
   <path d="M 0 576 
L 576 576 
L 576 0 
L 0 0 
L 0 576 
z
" style="fill: none"/>
  </g>
  <g id="axes_1">
   <g id="patch_2">
    <path d="M 72 504 
L 518.4 504 
L 518.4 69.12 
L 72 69.12 
z
" style="fill: #ffffff"/>
   </g>
   <g id="matplotlib.axis_1">
    <g id="xtick_1">
     <g id="line2d_1">
      <defs>
       <path id="m17c4d3d770" d="M 0 0 
L 0 3.5 
" style="stroke: #000000; stroke-width: 0.8"/>
      </defs>
      <g>
       <use xlink:href="#m17c4d3d770" x="92.290909" y="504" style="stroke: #000000; stroke-width: 0.8"/>
      </g>
     </g>
     <g id="text_1">
      <!-- 0 -->
      <g transform="translate(85.292159 527.716563)scale(0.22 -0.22)">
       <defs>
        <path id="DejaVuSans-30" d="M 2034 4250 
Q 1547 4250 1301 3770 
Q 1056 3291 1056 2328 
Q 1056 1369 1301 889 
Q 1547 409 2034 409 
Q 2525 409 2770 889 
Q 3016 1369 3016 2328 
Q 3016 3291 2770 3770 
Q 2525 4250 2034 4250 
z
M 2034 4750 
Q 2819 4750 3233 4129 
Q 3647 3509 3647 2328 
Q 3647 1150 3233 529 
Q 2819 -91 2034 -91 
Q 1250 -91 836 529 
Q 422 1150 422 2328 
Q 422 3509 836 4129 
Q 1250 4750 2034 4750 
z
" transform="scale(0.015625)"/>
       </defs>
       <use xlink:href="#DejaVuSans-30"/>
      </g>
     </g>
    </g>
    <g id="xtick_2">
     <g id="line2d_2">
      <g>
       <use xlink:href="#m17c4d3d770" x="227.563636" y="504" style="stroke: #000000; stroke-width: 0.8"/>
      </g>
     </g>
     <g id="text_2">
      <!-- 1000 -->
      <g transform="translate(199.568636 527.716563)scale(0.22 -0.22)">
       <defs>
        <path id="DejaVuSans-31" d="M 794 531 
L 1825 531 
L 1825 4091 
L 703 3866 
L 703 4441 
L 1819 4666 
L 2450 4666 
L 2450 531 
L 3481 531 
L 3481 0 
L 794 0 
L 794 531 
z
" transform="scale(0.015625)"/>
       </defs>
       <use xlink:href="#DejaVuSans-31"/>
       <use xlink:href="#DejaVuSans-30" x="63.623047"/>
       <use xlink:href="#DejaVuSans-30" x="127.246094"/>
       <use xlink:href="#DejaVuSans-30" x="190.869141"/>
      </g>
     </g>
    </g>
    <g id="xtick_3">
     <g id="line2d_3">
      <g>
       <use xlink:href="#m17c4d3d770" x="362.836364" y="504" style="stroke: #000000; stroke-width: 0.8"/>
      </g>
     </g>
     <g id="text_3">
      <!-- 2000 -->
      <g transform="translate(334.841364 527.716563)scale(0.22 -0.22)">
       <defs>
        <path id="DejaVuSans-32" d="M 1228 531 
L 3431 531 
L 3431 0 
L 469 0 
L 469 531 
Q 828 903 1448 1529 
Q 2069 2156 2228 2338 
Q 2531 2678 2651 2914 
Q 2772 3150 2772 3378 
Q 2772 3750 2511 3984 
Q 2250 4219 1831 4219 
Q 1534 4219 1204 4116 
Q 875 4013 500 3803 
L 500 4441 
Q 881 4594 1212 4672 
Q 1544 4750 1819 4750 
Q 2544 4750 2975 4387 
Q 3406 4025 3406 3419 
Q 3406 3131 3298 2873 
Q 3191 2616 2906 2266 
Q 2828 2175 2409 1742 
Q 1991 1309 1228 531 
z
" transform="scale(0.015625)"/>
       </defs>
       <use xlink:href="#DejaVuSans-32"/>
       <use xlink:href="#DejaVuSans-30" x="63.623047"/>
       <use xlink:href="#DejaVuSans-30" x="127.246094"/>
       <use xlink:href="#DejaVuSans-30" x="190.869141"/>
      </g>
     </g>
    </g>
    <g id="xtick_4">
     <g id="line2d_4">
      <g>
       <use xlink:href="#m17c4d3d770" x="498.109091" y="504" style="stroke: #000000; stroke-width: 0.8"/>
      </g>
     </g>
     <g id="text_4">
      <!-- 3000 -->
      <g transform="translate(470.114091 527.716563)scale(0.22 -0.22)">
       <defs>
        <path id="DejaVuSans-33" d="M 2597 2516 
Q 3050 2419 3304 2112 
Q 3559 1806 3559 1356 
Q 3559 666 3084 287 
Q 2609 -91 1734 -91 
Q 1441 -91 1130 -33 
Q 819 25 488 141 
L 488 750 
Q 750 597 1062 519 
Q 1375 441 1716 441 
Q 2309 441 2620 675 
Q 2931 909 2931 1356 
Q 2931 1769 2642 2001 
Q 2353 2234 1838 2234 
L 1294 2234 
L 1294 2753 
L 1863 2753 
Q 2328 2753 2575 2939 
Q 2822 3125 2822 3475 
Q 2822 3834 2567 4026 
Q 2313 4219 1838 4219 
Q 1578 4219 1281 4162 
Q 984 4106 628 3988 
L 628 4550 
Q 988 4650 1302 4700 
Q 1616 4750 1894 4750 
Q 2613 4750 3031 4423 
Q 3450 4097 3450 3541 
Q 3450 3153 3228 2886 
Q 3006 2619 2597 2516 
z
" transform="scale(0.015625)"/>
       </defs>
       <use xlink:href="#DejaVuSans-33"/>
       <use xlink:href="#DejaVuSans-30" x="63.623047"/>
       <use xlink:href="#DejaVuSans-30" x="127.246094"/>
       <use xlink:href="#DejaVuSans-30" x="190.869141"/>
      </g>
     </g>
    </g>
    <g id="text_5">
     <!-- Time(ms) -->
     <g transform="translate(249.182187 552.307188)scale(0.22 -0.22)">
      <defs>
       <path id="ArialMT-54" d="M 1659 0 
L 1659 4041 
L 150 4041 
L 150 4581 
L 3781 4581 
L 3781 4041 
L 2266 4041 
L 2266 0 
L 1659 0 
z
" transform="scale(0.015625)"/>
       <path id="ArialMT-69" d="M 425 3934 
L 425 4581 
L 988 4581 
L 988 3934 
L 425 3934 
z
M 425 0 
L 425 3319 
L 988 3319 
L 988 0 
L 425 0 
z
" transform="scale(0.015625)"/>
       <path id="ArialMT-6d" d="M 422 0 
L 422 3319 
L 925 3319 
L 925 2853 
Q 1081 3097 1340 3245 
Q 1600 3394 1931 3394 
Q 2300 3394 2536 3241 
Q 2772 3088 2869 2813 
Q 3263 3394 3894 3394 
Q 4388 3394 4653 3120 
Q 4919 2847 4919 2278 
L 4919 0 
L 4359 0 
L 4359 2091 
Q 4359 2428 4304 2576 
Q 4250 2725 4106 2815 
Q 3963 2906 3769 2906 
Q 3419 2906 3187 2673 
Q 2956 2441 2956 1928 
L 2956 0 
L 2394 0 
L 2394 2156 
Q 2394 2531 2256 2718 
Q 2119 2906 1806 2906 
Q 1569 2906 1367 2781 
Q 1166 2656 1075 2415 
Q 984 2175 984 1722 
L 984 0 
L 422 0 
z
" transform="scale(0.015625)"/>
       <path id="ArialMT-65" d="M 2694 1069 
L 3275 997 
Q 3138 488 2766 206 
Q 2394 -75 1816 -75 
Q 1088 -75 661 373 
Q 234 822 234 1631 
Q 234 2469 665 2931 
Q 1097 3394 1784 3394 
Q 2450 3394 2872 2941 
Q 3294 2488 3294 1666 
Q 3294 1616 3291 1516 
L 816 1516 
Q 847 969 1125 678 
Q 1403 388 1819 388 
Q 2128 388 2347 550 
Q 2566 713 2694 1069 
z
M 847 1978 
L 2700 1978 
Q 2663 2397 2488 2606 
Q 2219 2931 1791 2931 
Q 1403 2931 1139 2672 
Q 875 2413 847 1978 
z
" transform="scale(0.015625)"/>
       <path id="ArialMT-28" d="M 1497 -1347 
Q 1031 -759 709 28 
Q 388 816 388 1659 
Q 388 2403 628 3084 
Q 909 3875 1497 4659 
L 1900 4659 
Q 1522 4009 1400 3731 
Q 1209 3300 1100 2831 
Q 966 2247 966 1656 
Q 966 153 1900 -1347 
L 1497 -1347 
z
" transform="scale(0.015625)"/>
       <path id="ArialMT-73" d="M 197 991 
L 753 1078 
Q 800 744 1014 566 
Q 1228 388 1613 388 
Q 2000 388 2187 545 
Q 2375 703 2375 916 
Q 2375 1106 2209 1216 
Q 2094 1291 1634 1406 
Q 1016 1563 777 1677 
Q 538 1791 414 1992 
Q 291 2194 291 2438 
Q 291 2659 392 2848 
Q 494 3038 669 3163 
Q 800 3259 1026 3326 
Q 1253 3394 1513 3394 
Q 1903 3394 2198 3281 
Q 2494 3169 2634 2976 
Q 2775 2784 2828 2463 
L 2278 2388 
Q 2241 2644 2061 2787 
Q 1881 2931 1553 2931 
Q 1166 2931 1000 2803 
Q 834 2675 834 2503 
Q 834 2394 903 2306 
Q 972 2216 1119 2156 
Q 1203 2125 1616 2013 
Q 2213 1853 2448 1751 
Q 2684 1650 2818 1456 
Q 2953 1263 2953 975 
Q 2953 694 2789 445 
Q 2625 197 2315 61 
Q 2006 -75 1616 -75 
Q 969 -75 630 194 
Q 291 463 197 991 
z
" transform="scale(0.015625)"/>
       <path id="ArialMT-29" d="M 791 -1347 
L 388 -1347 
Q 1322 153 1322 1656 
Q 1322 2244 1188 2822 
Q 1081 3291 891 3722 
Q 769 4003 388 4659 
L 791 4659 
Q 1378 3875 1659 3084 
Q 1900 2403 1900 1659 
Q 1900 816 1576 28 
Q 1253 -759 791 -1347 
z
" transform="scale(0.015625)"/>
      </defs>
      <use xlink:href="#ArialMT-54"/>
      <use xlink:href="#ArialMT-69" x="57.333984"/>
      <use xlink:href="#ArialMT-6d" x="79.550781"/>
      <use xlink:href="#ArialMT-65" x="162.851562"/>
      <use xlink:href="#ArialMT-28" x="218.466797"/>
      <use xlink:href="#ArialMT-6d" x="251.767578"/>
      <use xlink:href="#ArialMT-73" x="335.068359"/>
      <use xlink:href="#ArialMT-29" x="385.068359"/>
     </g>
    </g>
   </g>
   <g id="matplotlib.axis_2">
    <g id="ytick_1">
     <g id="line2d_5">
      <defs>
       <path id="m1873fdc27f" d="M 0 0 
L -3.5 0 
" style="stroke: #000000; stroke-width: 0.8"/>
      </defs>
      <g>
       <use xlink:href="#m1873fdc27f" x="72" y="476.82" style="stroke: #000000; stroke-width: 0.8"/>
      </g>
     </g>
     <g id="text_6">
      <!-- −100 -->
      <g transform="translate(4.572187 485.178281)scale(0.22 -0.22)">
       <defs>
        <path id="DejaVuSans-2212" d="M 678 2272 
L 4684 2272 
L 4684 1741 
L 678 1741 
L 678 2272 
z
" transform="scale(0.015625)"/>
       </defs>
       <use xlink:href="#DejaVuSans-2212"/>
       <use xlink:href="#DejaVuSans-31" x="83.789062"/>
       <use xlink:href="#DejaVuSans-30" x="147.412109"/>
       <use xlink:href="#DejaVuSans-30" x="211.035156"/>
      </g>
     </g>
    </g>
    <g id="ytick_2">
     <g id="line2d_6">
      <g>
       <use xlink:href="#m1873fdc27f" x="72" y="422.46" style="stroke: #000000; stroke-width: 0.8"/>
      </g>
     </g>
     <g id="text_7">
      <!-- −80 -->
      <g transform="translate(18.569688 430.818281)scale(0.22 -0.22)">
       <defs>
        <path id="DejaVuSans-38" d="M 2034 2216 
Q 1584 2216 1326 1975 
Q 1069 1734 1069 1313 
Q 1069 891 1326 650 
Q 1584 409 2034 409 
Q 2484 409 2743 651 
Q 3003 894 3003 1313 
Q 3003 1734 2745 1975 
Q 2488 2216 2034 2216 
z
M 1403 2484 
Q 997 2584 770 2862 
Q 544 3141 544 3541 
Q 544 4100 942 4425 
Q 1341 4750 2034 4750 
Q 2731 4750 3128 4425 
Q 3525 4100 3525 3541 
Q 3525 3141 3298 2862 
Q 3072 2584 2669 2484 
Q 3125 2378 3379 2068 
Q 3634 1759 3634 1313 
Q 3634 634 3220 271 
Q 2806 -91 2034 -91 
Q 1263 -91 848 271 
Q 434 634 434 1313 
Q 434 1759 690 2068 
Q 947 2378 1403 2484 
z
M 1172 3481 
Q 1172 3119 1398 2916 
Q 1625 2713 2034 2713 
Q 2441 2713 2670 2916 
Q 2900 3119 2900 3481 
Q 2900 3844 2670 4047 
Q 2441 4250 2034 4250 
Q 1625 4250 1398 4047 
Q 1172 3844 1172 3481 
z
" transform="scale(0.015625)"/>
       </defs>
       <use xlink:href="#DejaVuSans-2212"/>
       <use xlink:href="#DejaVuSans-38" x="83.789062"/>
       <use xlink:href="#DejaVuSans-30" x="147.412109"/>
      </g>
     </g>
    </g>
    <g id="ytick_3">
     <g id="line2d_7">
      <g>
       <use xlink:href="#m1873fdc27f" x="72" y="368.1" style="stroke: #000000; stroke-width: 0.8"/>
      </g>
     </g>
     <g id="text_8">
      <!-- −60 -->
      <g transform="translate(18.569688 376.458281)scale(0.22 -0.22)">
       <defs>
        <path id="DejaVuSans-36" d="M 2113 2584 
Q 1688 2584 1439 2293 
Q 1191 2003 1191 1497 
Q 1191 994 1439 701 
Q 1688 409 2113 409 
Q 2538 409 2786 701 
Q 3034 994 3034 1497 
Q 3034 2003 2786 2293 
Q 2538 2584 2113 2584 
z
M 3366 4563 
L 3366 3988 
Q 3128 4100 2886 4159 
Q 2644 4219 2406 4219 
Q 1781 4219 1451 3797 
Q 1122 3375 1075 2522 
Q 1259 2794 1537 2939 
Q 1816 3084 2150 3084 
Q 2853 3084 3261 2657 
Q 3669 2231 3669 1497 
Q 3669 778 3244 343 
Q 2819 -91 2113 -91 
Q 1303 -91 875 529 
Q 447 1150 447 2328 
Q 447 3434 972 4092 
Q 1497 4750 2381 4750 
Q 2619 4750 2861 4703 
Q 3103 4656 3366 4563 
z
" transform="scale(0.015625)"/>
       </defs>
       <use xlink:href="#DejaVuSans-2212"/>
       <use xlink:href="#DejaVuSans-36" x="83.789062"/>
       <use xlink:href="#DejaVuSans-30" x="147.412109"/>
      </g>
     </g>
    </g>
    <g id="ytick_4">
     <g id="line2d_8">
      <g>
       <use xlink:href="#m1873fdc27f" x="72" y="313.74" style="stroke: #000000; stroke-width: 0.8"/>
      </g>
     </g>
     <g id="text_9">
      <!-- −40 -->
      <g transform="translate(18.569688 322.098281)scale(0.22 -0.22)">
       <defs>
        <path id="DejaVuSans-34" d="M 2419 4116 
L 825 1625 
L 2419 1625 
L 2419 4116 
z
M 2253 4666 
L 3047 4666 
L 3047 1625 
L 3713 1625 
L 3713 1100 
L 3047 1100 
L 3047 0 
L 2419 0 
L 2419 1100 
L 313 1100 
L 313 1709 
L 2253 4666 
z
" transform="scale(0.015625)"/>
       </defs>
       <use xlink:href="#DejaVuSans-2212"/>
       <use xlink:href="#DejaVuSans-34" x="83.789062"/>
       <use xlink:href="#DejaVuSans-30" x="147.412109"/>
      </g>
     </g>
    </g>
    <g id="ytick_5">
     <g id="line2d_9">
      <g>
       <use xlink:href="#m1873fdc27f" x="72" y="259.38" style="stroke: #000000; stroke-width: 0.8"/>
      </g>
     </g>
     <g id="text_10">
      <!-- −20 -->
      <g transform="translate(18.569688 267.738281)scale(0.22 -0.22)">
       <use xlink:href="#DejaVuSans-2212"/>
       <use xlink:href="#DejaVuSans-32" x="83.789062"/>
       <use xlink:href="#DejaVuSans-30" x="147.412109"/>
      </g>
     </g>
    </g>
    <g id="ytick_6">
     <g id="line2d_10">
      <g>
       <use xlink:href="#m1873fdc27f" x="72" y="205.02" style="stroke: #000000; stroke-width: 0.8"/>
      </g>
     </g>
     <g id="text_11">
      <!-- 0 -->
      <g transform="translate(51.0025 213.378281)scale(0.22 -0.22)">
       <use xlink:href="#DejaVuSans-30"/>
      </g>
     </g>
    </g>
    <g id="ytick_7">
     <g id="line2d_11">
      <g>
       <use xlink:href="#m1873fdc27f" x="72" y="150.66" style="stroke: #000000; stroke-width: 0.8"/>
      </g>
     </g>
     <g id="text_12">
      <!-- 20 -->
      <g transform="translate(37.005 159.018281)scale(0.22 -0.22)">
       <use xlink:href="#DejaVuSans-32"/>
       <use xlink:href="#DejaVuSans-30" x="63.623047"/>
      </g>
     </g>
    </g>
    <g id="ytick_8">
     <g id="line2d_12">
      <g>
       <use xlink:href="#m1873fdc27f" x="72" y="96.3" style="stroke: #000000; stroke-width: 0.8"/>
      </g>
     </g>
     <g id="text_13">
      <!-- 40 -->
      <g transform="translate(37.005 104.658281)scale(0.22 -0.22)">
       <use xlink:href="#DejaVuSans-34"/>
       <use xlink:href="#DejaVuSans-30" x="63.623047"/>
      </g>
     </g>
    </g>
    <g id="text_14">
     <!-- Membrane potential (mV) -->
     <g transform="translate(-4.058125 410.655469)rotate(-90)scale(0.22 -0.22)">
      <defs>
       <path id="ArialMT-4d" d="M 475 0 
L 475 4581 
L 1388 4581 
L 2472 1338 
Q 2622 884 2691 659 
Q 2769 909 2934 1394 
L 4031 4581 
L 4847 4581 
L 4847 0 
L 4263 0 
L 4263 3834 
L 2931 0 
L 2384 0 
L 1059 3900 
L 1059 0 
L 475 0 
z
" transform="scale(0.015625)"/>
       <path id="ArialMT-62" d="M 941 0 
L 419 0 
L 419 4581 
L 981 4581 
L 981 2947 
Q 1338 3394 1891 3394 
Q 2197 3394 2470 3270 
Q 2744 3147 2920 2923 
Q 3097 2700 3197 2384 
Q 3297 2069 3297 1709 
Q 3297 856 2875 390 
Q 2453 -75 1863 -75 
Q 1275 -75 941 416 
L 941 0 
z
M 934 1684 
Q 934 1088 1097 822 
Q 1363 388 1816 388 
Q 2184 388 2453 708 
Q 2722 1028 2722 1663 
Q 2722 2313 2464 2622 
Q 2206 2931 1841 2931 
Q 1472 2931 1203 2611 
Q 934 2291 934 1684 
z
" transform="scale(0.015625)"/>
       <path id="ArialMT-72" d="M 416 0 
L 416 3319 
L 922 3319 
L 922 2816 
Q 1116 3169 1280 3281 
Q 1444 3394 1641 3394 
Q 1925 3394 2219 3213 
L 2025 2691 
Q 1819 2813 1613 2813 
Q 1428 2813 1281 2702 
Q 1134 2591 1072 2394 
Q 978 2094 978 1738 
L 978 0 
L 416 0 
z
" transform="scale(0.015625)"/>
       <path id="ArialMT-61" d="M 2588 409 
Q 2275 144 1986 34 
Q 1697 -75 1366 -75 
Q 819 -75 525 192 
Q 231 459 231 875 
Q 231 1119 342 1320 
Q 453 1522 633 1644 
Q 813 1766 1038 1828 
Q 1203 1872 1538 1913 
Q 2219 1994 2541 2106 
Q 2544 2222 2544 2253 
Q 2544 2597 2384 2738 
Q 2169 2928 1744 2928 
Q 1347 2928 1158 2789 
Q 969 2650 878 2297 
L 328 2372 
Q 403 2725 575 2942 
Q 747 3159 1072 3276 
Q 1397 3394 1825 3394 
Q 2250 3394 2515 3294 
Q 2781 3194 2906 3042 
Q 3031 2891 3081 2659 
Q 3109 2516 3109 2141 
L 3109 1391 
Q 3109 606 3145 398 
Q 3181 191 3288 0 
L 2700 0 
Q 2613 175 2588 409 
z
M 2541 1666 
Q 2234 1541 1622 1453 
Q 1275 1403 1131 1340 
Q 988 1278 909 1158 
Q 831 1038 831 891 
Q 831 666 1001 516 
Q 1172 366 1500 366 
Q 1825 366 2078 508 
Q 2331 650 2450 897 
Q 2541 1088 2541 1459 
L 2541 1666 
z
" transform="scale(0.015625)"/>
       <path id="ArialMT-6e" d="M 422 0 
L 422 3319 
L 928 3319 
L 928 2847 
Q 1294 3394 1984 3394 
Q 2284 3394 2536 3286 
Q 2788 3178 2913 3003 
Q 3038 2828 3088 2588 
Q 3119 2431 3119 2041 
L 3119 0 
L 2556 0 
L 2556 2019 
Q 2556 2363 2490 2533 
Q 2425 2703 2258 2804 
Q 2091 2906 1866 2906 
Q 1506 2906 1245 2678 
Q 984 2450 984 1813 
L 984 0 
L 422 0 
z
" transform="scale(0.015625)"/>
       <path id="ArialMT-20" transform="scale(0.015625)"/>
       <path id="ArialMT-70" d="M 422 -1272 
L 422 3319 
L 934 3319 
L 934 2888 
Q 1116 3141 1344 3267 
Q 1572 3394 1897 3394 
Q 2322 3394 2647 3175 
Q 2972 2956 3137 2557 
Q 3303 2159 3303 1684 
Q 3303 1175 3120 767 
Q 2938 359 2589 142 
Q 2241 -75 1856 -75 
Q 1575 -75 1351 44 
Q 1128 163 984 344 
L 984 -1272 
L 422 -1272 
z
M 931 1641 
Q 931 1000 1190 694 
Q 1450 388 1819 388 
Q 2194 388 2461 705 
Q 2728 1022 2728 1688 
Q 2728 2322 2467 2637 
Q 2206 2953 1844 2953 
Q 1484 2953 1207 2617 
Q 931 2281 931 1641 
z
" transform="scale(0.015625)"/>
       <path id="ArialMT-6f" d="M 213 1659 
Q 213 2581 725 3025 
Q 1153 3394 1769 3394 
Q 2453 3394 2887 2945 
Q 3322 2497 3322 1706 
Q 3322 1066 3130 698 
Q 2938 331 2570 128 
Q 2203 -75 1769 -75 
Q 1072 -75 642 372 
Q 213 819 213 1659 
z
M 791 1659 
Q 791 1022 1069 705 
Q 1347 388 1769 388 
Q 2188 388 2466 706 
Q 2744 1025 2744 1678 
Q 2744 2294 2464 2611 
Q 2184 2928 1769 2928 
Q 1347 2928 1069 2612 
Q 791 2297 791 1659 
z
" transform="scale(0.015625)"/>
       <path id="ArialMT-74" d="M 1650 503 
L 1731 6 
Q 1494 -44 1306 -44 
Q 1000 -44 831 53 
Q 663 150 594 308 
Q 525 466 525 972 
L 525 2881 
L 113 2881 
L 113 3319 
L 525 3319 
L 525 4141 
L 1084 4478 
L 1084 3319 
L 1650 3319 
L 1650 2881 
L 1084 2881 
L 1084 941 
Q 1084 700 1114 631 
Q 1144 563 1211 522 
Q 1278 481 1403 481 
Q 1497 481 1650 503 
z
" transform="scale(0.015625)"/>
       <path id="ArialMT-6c" d="M 409 0 
L 409 4581 
L 972 4581 
L 972 0 
L 409 0 
z
" transform="scale(0.015625)"/>
       <path id="ArialMT-56" d="M 1803 0 
L 28 4581 
L 684 4581 
L 1875 1253 
Q 2019 853 2116 503 
Q 2222 878 2363 1253 
L 3600 4581 
L 4219 4581 
L 2425 0 
L 1803 0 
z
" transform="scale(0.015625)"/>
      </defs>
      <use xlink:href="#ArialMT-4d"/>
      <use xlink:href="#ArialMT-65" x="83.300781"/>
      <use xlink:href="#ArialMT-6d" x="138.916016"/>
      <use xlink:href="#ArialMT-62" x="222.216797"/>
      <use xlink:href="#ArialMT-72" x="277.832031"/>
      <use xlink:href="#ArialMT-61" x="311.132812"/>
      <use xlink:href="#ArialMT-6e" x="366.748047"/>
      <use xlink:href="#ArialMT-65" x="422.363281"/>
      <use xlink:href="#ArialMT-20" x="477.978516"/>
      <use xlink:href="#ArialMT-70" x="505.761719"/>
      <use xlink:href="#ArialMT-6f" x="561.376953"/>
      <use xlink:href="#ArialMT-74" x="616.992188"/>
      <use xlink:href="#ArialMT-65" x="644.775391"/>
      <use xlink:href="#ArialMT-6e" x="700.390625"/>
      <use xlink:href="#ArialMT-74" x="756.005859"/>
      <use xlink:href="#ArialMT-69" x="783.789062"/>
      <use xlink:href="#ArialMT-61" x="806.005859"/>
      <use xlink:href="#ArialMT-6c" x="861.621094"/>
      <use xlink:href="#ArialMT-20" x="883.837891"/>
      <use xlink:href="#ArialMT-28" x="911.621094"/>
      <use xlink:href="#ArialMT-6d" x="944.921875"/>
      <use xlink:href="#ArialMT-56" x="1028.222656"/>
      <use xlink:href="#ArialMT-29" x="1094.921875"/>
     </g>
    </g>
   </g>
   <g id="line2d_13">
    <path d="M 92.290909 436.05 
L 92.493818 446.766825 
L 92.899636 454.981282 
L 93.373091 460.680048 
L 93.846545 464.126716 
L 94.32 466.178138 
L 94.793455 467.381951 
L 95.334545 468.154176 
L 95.943273 468.602622 
L 96.687273 468.854691 
L 97.904727 468.993323 
L 101.016 469.036907 
L 159.927273 469.038243 
L 160.130182 447.764227 
L 160.468364 437.959535 
L 161.009455 428.80164 
L 161.685818 421.17889 
L 162.429818 415.231577 
L 163.309091 410.020812 
L 164.256 405.722492 
L 165.338182 401.852574 
L 166.488 398.538995 
L 167.773091 395.490759 
L 169.193455 392.674416 
L 170.816727 389.9435 
L 172.710545 387.197593 
L 175.145455 384.086825 
L 175.821818 383.110707 
L 176.633455 381.955436 
L 179.068364 378.801211 
L 179.338909 378.315936 
L 180.624 377.421123 
L 182.247273 375.699159 
L 184.141091 373.388773 
L 185.223273 371.801352 
L 185.561455 370.986193 
L 185.832 370.567587 
L 186.576 369.803988 
L 187.32 368.560111 
L 188.537455 365.924031 
L 189.687273 363.056658 
L 190.296 361.00736 
L 190.769455 359.114567 
L 191.378182 356.968107 
L 192.189818 353.788066 
L 192.460364 354.959956 
L 192.663273 355.433816 
L 192.798545 355.395728 
L 193.001455 354.956222 
L 193.339636 353.524201 
L 193.880727 349.977993 
L 194.354182 345.13441 
L 194.692364 339.321724 
L 194.962909 330.272999 
L 195.098182 320.303513 
L 195.165818 309.841639 
L 195.233455 279.766694 
L 195.301091 176.860193 
L 195.504 351.10332 
L 195.706909 379.7933 
L 195.842182 381.178764 
L 196.045091 378.974319 
L 196.789091 369.996428 
L 197.736 362.148806 
L 198.074182 360.440574 
L 198.885818 357.380319 
L 199.359273 354.49853 
L 199.697455 351.833446 
L 200.373818 350.25572 
L 200.712 348.15767 
L 201.117818 343.962882 
L 201.523636 336.743402 
L 201.794182 327.204765 
L 201.929455 315.844589 
L 201.997091 302.529403 
L 202.132364 206.149224 
L 202.335273 355.269292 
L 202.538182 378.809016 
L 202.605818 379.76735 
L 202.673455 379.702936 
L 202.876364 377.455944 
L 203.688 367.760861 
L 204.161455 363.844867 
L 205.243636 358.381969 
L 205.514182 356.091312 
L 205.784727 353.804457 
L 206.055273 353.203531 
L 206.393455 352.522665 
L 206.731636 351.105745 
L 207.137455 348.270792 
L 207.543273 343.751358 
L 207.881455 337.155021 
L 208.084364 329.566336 
L 208.219636 319.027639 
L 208.287273 307.528454 
L 208.422545 184.306906 
L 208.625455 353.354833 
L 208.828364 379.844634 
L 208.896 380.975727 
L 208.963636 380.965616 
L 209.166545 378.703044 
L 209.910545 369.650612 
L 210.654545 363.412383 
L 212.413091 351.40643 
L 212.616 350.746964 
L 212.886545 348.923714 
L 213.157091 345.625201 
L 214.036364 325.358949 
L 214.171636 316.73526 
L 214.306909 289.91834 
L 214.374545 230.008056 
L 214.442182 257.954757 
L 214.645091 349.267685 
L 214.848 367.513673 
L 214.983273 368.835219 
L 215.118545 367.921754 
L 216.268364 353.669428 
L 216.809455 345.602891 
L 217.147636 338.323665 
L 217.418182 327.014176 
L 217.553455 315.561842 
L 217.621091 302.944273 
L 217.756364 205.929996 
L 217.959273 353.719729 
L 218.162182 377.062472 
L 218.229818 377.960678 
L 218.297455 377.803263 
L 218.568 374.084192 
L 219.312 363.73928 
L 220.258909 352.206689 
L 220.867636 343.213861 
L 221.205818 339.692943 
L 221.476364 334.554242 
L 221.679273 327.422772 
L 221.814545 317.241032 
L 221.882182 306.216967 
L 222.017455 193.915189 
L 222.220364 348.449077 
L 222.423273 375.260744 
L 222.558545 377.035992 
L 222.693818 375.925118 
L 224.046545 359.468763 
L 224.925818 350.985127 
L 225.399273 344.46979 
L 225.737455 336.539739 
L 225.940364 326.746123 
L 226.075636 309.674847 
L 226.143273 276.206999 
L 226.210909 176.246758 
L 226.413818 353.282267 
L 226.616727 379.72913 
L 226.684364 380.754733 
L 226.752 380.717493 
L 226.954909 378.48616 
L 227.834182 367.592227 
L 228.578182 362.000225 
L 230.269091 349.698405 
L 230.674909 344.051041 
L 230.945455 337.788839 
L 231.148364 328.740764 
L 231.283636 316.563685 
L 231.351273 302.769548 
L 231.486545 206.820414 
L 231.689455 358.814767 
L 231.892364 381.02022 
L 231.96 381.626452 
L 232.027636 381.276965 
L 232.433455 375.265138 
L 233.109818 366.918688 
L 233.786182 360.49858 
L 234.259636 358.881817 
L 234.665455 356.450734 
L 235.341818 351.35117 
L 235.747636 346.810988 
L 236.085818 340.181521 
L 236.424 330.711622 
L 236.626909 317.408415 
L 236.694545 306.489344 
L 236.762182 275.542638 
L 236.829818 193.244703 
L 237.032727 349.06678 
L 237.235636 376.014155 
L 237.370909 377.740544 
L 237.506182 376.706219 
L 238.723636 363.122227 
L 240.346909 349.07369 
L 240.752727 342.695239 
L 241.158545 331.635631 
L 241.361455 319.424545 
L 241.496727 289.976856 
L 241.564364 202.583143 
L 241.834909 359.774411 
L 242.037818 376.2859 
L 242.105455 376.778377 
L 242.173091 376.538592 
L 242.443636 373.384545 
L 243.187636 364.833897 
L 243.864 359.396033 
L 244.743273 352.564139 
L 245.825455 341.771656 
L 246.096 334.458377 
L 246.298909 323.547746 
L 246.434182 301.447253 
L 246.569455 212.931732 
L 246.772364 358.621658 
L 246.975273 379.830375 
L 247.042909 380.361068 
L 247.178182 378.809994 
L 247.989818 367.888723 
L 248.598545 363.505496 
L 250.424727 352.526976 
L 250.695273 351.597832 
L 250.965818 349.612337 
L 251.506909 343.21911 
L 251.845091 335.757085 
L 252.048 326.719382 
L 252.183273 312.272289 
L 252.250909 290.509159 
L 252.318545 184.858424 
L 252.589091 363.467287 
L 252.792 379.708509 
L 252.859636 379.878238 
L 253.062545 377.462675 
L 254.009455 364.365419 
L 255.091636 356.776 
L 255.632727 353.168034 
L 256.173818 349.115557 
L 256.647273 343.397165 
L 256.985455 336.148295 
L 257.188364 327.382614 
L 257.323636 313.502889 
L 257.391273 293.489307 
L 257.458909 188.958064 
L 257.526545 248.062507 
L 257.729455 364.212799 
L 257.932364 382.087299 
L 258 382.312222 
L 258.202909 379.861513 
L 258.879273 370.395786 
L 259.623273 363.941223 
L 260.976 353.200023 
L 261.449455 346.840289 
L 261.922909 341.702705 
L 262.193455 336.152143 
L 262.396364 328.152906 
L 262.531636 316.382706 
L 262.599273 302.18805 
L 262.734545 208.929214 
L 262.937455 357.024417 
L 263.140364 378.856183 
L 263.208 379.530269 
L 263.275636 379.285754 
L 263.546182 375.734784 
L 264.290182 366.208908 
L 265.169455 358.139678 
L 266.116364 349.949674 
L 266.522182 344.309959 
L 266.792727 337.931886 
L 266.995636 328.776993 
L 267.130909 314.938879 
L 267.198545 295.355826 
L 267.266182 184.032808 
L 267.333818 242.686162 
L 267.536727 365.05162 
L 267.739636 381.904378 
L 267.807273 381.927501 
L 268.010182 379.345741 
L 268.686545 369.727339 
L 271.392 350.281571 
L 271.865455 343.775264 
L 272.271273 334.298437 
L 272.474182 324.32448 
L 272.609455 305.910819 
L 272.744727 192.017497 
L 272.947636 353.325618 
L 273.150545 378.096769 
L 273.218182 379.026723 
L 273.285818 378.84333 
L 273.556364 374.860024 
L 274.368 362.060749 
L 274.706182 359.67744 
L 275.247273 356.307221 
L 275.788364 351.522051 
L 276.261818 345.490193 
L 276.6 338.75893 
L 276.870545 328.280868 
L 277.005818 315.343146 
L 277.073455 298.966647 
L 277.141091 218.129498 
L 277.208727 225.75087 
L 277.411636 361.10419 
L 277.614545 380.39414 
L 277.682182 380.76947 
L 277.817455 379.512047 
L 279.034909 363.174755 
L 279.846545 355.274838 
L 280.32 350.57533 
L 280.590545 346.223786 
L 280.928727 340.774269 
L 281.402182 337.051327 
L 281.605091 333.20002 
L 281.808 325.087749 
L 281.943273 311.481272 
L 282.010909 292.44701 
L 282.078545 208.072218 
L 282.146182 249.176965 
L 282.349091 358.315245 
L 282.552 376.585572 
L 282.619636 377.149167 
L 282.687273 376.845339 
L 283.025455 372.082869 
L 283.769455 362.318932 
L 285.189818 346.291575 
L 285.460364 340.403917 
L 285.730909 328.930689 
L 285.866182 317.787796 
L 285.933818 306.472584 
L 286.069091 191.555976 
L 286.272 353.023963 
L 286.474909 378.659119 
L 286.542545 379.715638 
L 286.610182 379.666899 
L 286.813091 377.326286 
L 287.624727 367.116899 
L 288.639273 357.885078 
L 289.045091 355.787106 
L 289.653818 352.594795 
L 289.924364 351.586052 
L 290.262545 349.382979 
L 290.668364 344.973061 
L 291.006545 339.113923 
L 291.277091 330.224421 
L 291.412364 320.563618 
L 291.48 310.671357 
L 291.547636 284.306091 
L 291.615273 177.920262 
L 291.818182 349.090659 
L 292.021091 378.92949 
L 292.088727 380.26732 
L 292.156364 380.24696 
L 292.359273 377.154896 
L 292.968 368.144008 
L 293.441455 364.295945 
L 295.335273 349.647691 
L 295.673455 344.879303 
L 296.214545 330.724309 
L 296.417455 318.582221 
L 296.552727 287.948313 
L 296.620364 203.137904 
L 296.890909 358.815502 
L 297.093818 374.976828 
L 297.161455 375.466302 
L 297.229091 375.203515 
L 297.499636 371.799791 
L 298.311273 361.605437 
L 299.596364 348.570543 
L 300.069818 340.058395 
L 300.340364 331.576282 
L 300.543273 319.055336 
L 300.678545 289.835274 
L 300.746182 206.439524 
L 301.016727 358.828113 
L 301.219636 374.88869 
L 301.287273 375.242141 
L 301.422545 374.05829 
L 301.963636 366.737366 
L 302.842909 360.377667 
L 303.789818 353.35011 
L 304.330909 347.749858 
L 304.736727 341.137019 
L 305.007273 333.275813 
L 305.210182 319.52352 
L 305.277818 307.978958 
L 305.413091 182.729843 
L 305.616 354.220987 
L 305.818909 380.042104 
L 305.886545 380.952212 
L 305.954182 380.738434 
L 306.224727 376.473801 
L 306.833455 367.693235 
L 307.780364 358.499589 
L 308.253818 355.111072 
L 308.389091 355.222543 
L 308.592 355.325147 
L 308.727273 355.107695 
L 308.997818 354.056389 
L 309.403636 351.365264 
L 309.877091 346.594043 
L 310.215273 341.109683 
L 310.485818 333.326081 
L 310.688727 319.607105 
L 310.756364 308.05127 
L 310.891636 182.072296 
L 311.094545 354.088571 
L 311.297455 380.365424 
L 311.365091 381.404528 
L 311.432727 381.310543 
L 311.703273 377.799962 
L 312.312 370.033084 
L 312.988364 364.252495 
L 314.476364 352.666293 
L 314.882182 347.469221 
L 315.085091 342.411488 
L 315.626182 323.198775 
L 315.761455 308.43504 
L 315.829091 286.928569 
L 315.896727 208.673192 
L 316.167273 356.87918 
L 316.370182 372.639621 
L 316.437818 373.218925 
L 316.505455 373.055634 
L 316.776 370.048009 
L 317.722909 358.759884 
L 318.128727 355.462446 
L 318.534545 351.637946 
L 318.940364 345.659392 
L 319.346182 336.849311 
L 319.549091 328.05333 
L 319.684364 314.548753 
L 319.752 295.841227 
L 319.819636 194.396732 
L 319.887273 240.102081 
L 320.090182 362.769382 
L 320.293091 380.141178 
L 320.360727 380.211093 
L 321.104727 370.018458 
L 321.848727 361.743758 
L 322.863273 355.201436 
L 323.742545 349.993291 
L 324.148364 346.041734 
L 324.486545 340.785434 
L 324.757091 333.249372 
L 324.96 320.154293 
L 325.027636 309.564421 
L 325.095273 278.794065 
L 325.162909 177.653528 
L 325.365818 351.381159 
L 325.568727 379.67079 
L 325.704 380.999198 
L 325.906909 378.589969 
L 326.650909 368.761469 
L 327.394909 362.579586 
L 327.936 360.024229 
L 328.477091 356.367416 
L 329.153455 349.644267 
L 329.762182 338.70564 
L 330.032727 329.62768 
L 330.168 319.638178 
L 330.235636 309.174446 
L 330.303273 279.708339 
L 330.370909 181.308736 
L 330.573818 350.414254 
L 330.776727 378.625875 
L 330.912 380.051551 
L 331.114909 377.738856 
L 331.926545 367.062663 
L 333.008727 356.771718 
L 333.617455 351.553534 
L 333.955636 346.615956 
L 334.158545 344.553777 
L 334.293818 345.068423 
L 334.564364 346.280335 
L 334.632 346.301406 
L 334.767273 345.957467 
L 334.970182 344.562431 
L 335.308364 340.201392 
L 335.578909 333.676712 
L 335.781818 322.973957 
L 335.917091 300.110337 
L 336.052364 217.653807 
L 336.255273 358.041272 
L 336.458182 378.927293 
L 336.525818 379.321568 
L 336.661091 378.025752 
L 337.878545 361.926519 
L 339.569455 345.408616 
L 339.907636 337.859817 
L 340.178182 322.911051 
L 340.313455 297.28137 
L 340.381091 204.988378 
L 340.448727 234.112731 
L 340.651636 362.492818 
L 340.854545 380.78047 
L 340.922182 381.0852 
L 341.057455 379.837879 
L 342.139636 365.772302 
L 342.951273 359.223607 
L 343.762909 355.16603 
L 344.101091 352.391522 
L 345.048 339.263316 
L 345.318545 330.821099 
L 345.453818 322.130808 
L 345.589091 295.481542 
L 345.656727 201.203213 
L 345.724364 240.022211 
L 345.927273 361.381104 
L 346.130182 380.345606 
L 346.197818 380.784107 
L 346.333091 379.481373 
L 346.874182 371.372485 
L 347.482909 366.069166 
L 348.497455 359.513334 
L 349.106182 354.935941 
L 349.917818 347.02925 
L 350.256 341.46233 
L 350.526545 333.778651 
L 350.729455 320.959951 
L 350.797091 310.887161 
L 350.864727 283.282145 
L 350.932364 174.944298 
L 351.135273 350.47994 
L 351.338182 379.794489 
L 351.405818 381.019334 
L 351.473455 380.951586 
L 351.676364 378.005073 
L 352.149818 371.023978 
L 352.826182 364.440814 
L 354.111273 354.727006 
L 354.584727 352.089315 
L 354.990545 348.982377 
L 355.937455 339.027102 
L 356.208 331.059138 
L 356.410909 315.503932 
L 356.478545 300.471885 
L 356.613818 216.277325 
L 356.816727 358.027712 
L 357.019636 379.481575 
L 357.087273 380.14189 
L 357.154909 379.854239 
L 357.493091 374.910779 
L 358.237091 364.955169 
L 359.657455 350.066174 
L 359.928 346.526385 
L 360.739636 330.092846 
L 360.874909 321.914179 
L 361.010182 298.547883 
L 361.145455 225.329399 
L 361.348364 357.028814 
L 361.551273 377.119917 
L 361.618909 377.749124 
L 361.686545 377.470715 
L 361.957091 373.636966 
L 362.768727 361.804431 
L 364.053818 347.415168 
L 364.392 340.69281 
L 364.662545 330.052476 
L 364.797818 316.322604 
L 364.865455 297.238686 
L 364.933091 181.105248 
L 365.000727 236.161059 
L 365.203636 365.936662 
L 365.406545 382.845666 
L 365.474182 382.828492 
L 365.677091 380.301293 
L 366.488727 369.419772 
L 367.300364 362.934001 
L 367.773818 360.848046 
L 368.179636 359.382334 
L 368.720727 356.448852 
L 369.261818 352.40172 
L 369.667636 347.595769 
L 370.073455 340.634629 
L 370.344 332.100552 
L 370.479273 323.433128 
L 370.614545 297.323406 
L 370.682182 197.955312 
L 370.749818 233.637246 
L 370.952727 362.492217 
L 371.155636 380.467551 
L 371.223273 380.489248 
L 371.493818 376.557655 
L 372.237818 366.301059 
L 373.049455 357.803848 
L 373.658182 352.90955 
L 374.266909 347.034475 
L 374.672727 340.530474 
L 374.943273 332.972166 
L 375.213818 318.712272 
L 375.349091 294.386462 
L 375.416727 235.611263 
L 375.484364 242.73994 
L 375.687273 351.91795 
L 375.890182 370.632832 
L 375.957818 371.494579 
L 376.025455 371.449943 
L 376.228364 369.205482 
L 377.851636 344.191742 
L 378.122182 335.145024 
L 378.325091 321.300899 
L 378.392727 310.266962 
L 378.460364 275.487274 
L 378.528 173.607676 
L 378.730909 355.39267 
L 378.933818 381.741667 
L 379.001455 382.480895 
L 379.069091 382.121163 
L 379.474909 375.63611 
L 380.151273 366.505521 
L 381.504 356.623152 
L 382.045091 352.761085 
L 382.450909 348.337416 
L 382.789091 342.556558 
L 383.059636 334.62969 
L 383.262545 322.030839 
L 383.397818 293.712958 
L 383.465455 192.422883 
L 383.533091 248.806964 
L 383.736 363.448675 
L 383.938909 379.476851 
L 384.006545 379.534527 
L 384.209455 377.114426 
L 385.088727 365.263765 
L 386.576727 349.052511 
L 387.456 336.588678 
L 387.658909 328.243557 
L 387.794182 315.479746 
L 387.861818 298.739672 
L 387.929455 211.617786 
L 387.997091 226.449355 
L 388.2 360.950554 
L 388.402909 380.428625 
L 388.470545 380.852949 
L 388.605818 379.646605 
L 389.688 365.469264 
L 390.702545 356.268801 
L 391.717091 347.577233 
L 392.055273 342.09174 
L 392.325818 334.429014 
L 392.528727 321.142222 
L 392.664 288.670121 
L 392.731636 181.240042 
L 392.934545 348.288072 
L 393.137455 379.398277 
L 393.272727 380.865543 
L 393.475636 378.205611 
L 394.219636 367.346542 
L 395.166545 357.524577 
L 395.64 352.384241 
L 396.384 342.938402 
L 396.654545 336.314081 
L 396.857455 326.51322 
L 396.992727 309.296586 
L 397.060364 275.145684 
L 397.128 177.651982 
L 397.330909 353.500616 
L 397.533818 380.272861 
L 397.601455 381.260817 
L 397.669091 381.098501 
L 397.939636 377.243701 
L 398.683636 366.427397 
L 399.562909 357.85305 
L 400.104 354.124721 
L 400.645091 350.349933 
L 400.915636 349.782803 
L 401.118545 348.685846 
L 401.456727 345.176611 
L 401.727273 340.5533 
L 401.930182 333.970599 
L 402.133091 320.06195 
L 402.200727 308.870274 
L 402.268364 273.631076 
L 402.336 178.537917 
L 402.538909 354.081158 
L 402.741818 381.041608 
L 402.809455 382.034857 
L 402.877091 381.875742 
L 403.147636 378.028768 
L 403.891636 367.394179 
L 404.568 360.436949 
L 405.379636 352.264071 
L 405.988364 342.610002 
L 406.529455 327.549903 
L 406.664727 317.393223 
L 406.732364 306.528356 
L 406.8 276.117445 
L 406.867636 194.087091 
L 407.070545 348.140655 
L 407.273455 374.237488 
L 407.408727 375.630703 
L 407.544 374.140521 
L 408.152727 364.963449 
L 408.964364 356.458033 
L 409.505455 352.328339 
L 409.911273 347.092429 
L 410.317091 339.590672 
L 410.587636 329.64211 
L 410.722909 318.086037 
L 410.790545 304.496932 
L 410.925818 199.537701 
L 411.128727 357.980778 
L 411.331636 380.199673 
L 411.399273 380.761849 
L 411.534545 379.53435 
L 412.481455 366.245215 
L 414.781091 344.085066 
L 415.119273 337.111157 
L 415.322182 329.587571 
L 415.457455 319.37117 
L 415.525091 308.504768 
L 415.592727 276.353678 
L 415.660364 182.121345 
L 415.863273 351.663386 
L 416.066182 378.759541 
L 416.133818 379.877474 
L 416.201455 379.79021 
L 416.404364 377.107031 
L 417.216 365.420678 
L 417.96 358.776081 
L 418.501091 354.766589 
L 418.974545 349.382381 
L 419.448 339.945269 
L 419.786182 328.634757 
L 419.921455 318.461148 
L 419.989091 307.786218 
L 420.056727 277.838257 
L 420.124364 188.100764 
L 420.327273 349.724281 
L 420.530182 376.655394 
L 420.665455 378.02101 
L 420.868364 375.622261 
L 421.544727 366.031631 
L 422.626909 355.405585 
L 423.235636 348.318078 
L 423.641455 341.015329 
L 423.912 331.894213 
L 424.047273 322.375485 
L 424.182545 288.727908 
L 424.250182 172.392835 
L 424.453091 350.559453 
L 424.656 381.34656 
L 424.723636 382.447229 
L 424.791273 382.219913 
L 425.061818 377.815393 
L 425.738182 366.8785 
L 426.617455 360.781065 
L 427.158545 357.870845 
L 427.564364 355.579958 
L 428.173091 350.584021 
L 428.578909 345.280103 
L 428.917091 339.08889 
L 429.187636 329.388979 
L 429.322909 318.221518 
L 429.390545 305.468709 
L 429.525818 193.894712 
L 429.728727 356.168836 
L 429.931636 380.026964 
L 429.999273 380.796509 
L 430.066909 380.529825 
L 430.337455 376.570998 
L 430.472727 374.353249 
L 430.675636 395.455076 
L 431.081455 407.795216 
L 432.569455 443.078184 
L 433.245818 454.384891 
L 433.786909 460.291148 
L 434.328 463.983066 
L 434.869091 466.174183 
L 435.410182 467.435136 
L 435.951273 468.147899 
L 436.56 468.58201 
L 437.371636 468.853449 
L 438.589091 468.992969 
L 441.565091 469.039119 
L 498.109091 469.037917 
L 498.109091 469.037917 
" clip-path="url(#pccfc2062cd)" style="fill: none; stroke: #000000; stroke-width: 1.5; stroke-linecap: square"/>
   </g>
   <g id="line2d_14">
    <path d="M 497.973818 408.87 
" clip-path="url(#pccfc2062cd)" style="fill: none; stroke: #000000; stroke-width: 1.5; stroke-linecap: square"/>
   </g>
   <g id="line2d_15">
    <path d="M 430.472727 368.1 
L 430.472727 365.382 
L 430.472727 362.664 
L 430.472727 359.946 
L 430.472727 357.228 
L 430.472727 354.51 
L 430.472727 351.792 
L 430.472727 349.074 
L 430.472727 346.356 
L 430.472727 343.638 
L 430.472727 340.92 
L 430.472727 338.202 
L 430.472727 335.484 
L 430.472727 332.766 
L 430.472727 330.048 
L 430.472727 327.33 
L 430.472727 324.612 
L 430.472727 321.894 
L 430.472727 319.176 
L 430.472727 316.458 
" clip-path="url(#pccfc2062cd)" style="fill: none; stroke: #000000; stroke-width: 1.5; stroke-linecap: square"/>
   </g>
   <g id="patch_3">
    <path d="M 72 504 
L 72 69.12 
" style="fill: none; stroke: #000000; stroke-width: 0.8; stroke-linejoin: miter; stroke-linecap: square"/>
   </g>
   <g id="patch_4">
    <path d="M 518.4 504 
L 518.4 69.12 
" style="fill: none; stroke: #000000; stroke-width: 0.8; stroke-linejoin: miter; stroke-linecap: square"/>
   </g>
   <g id="patch_5">
    <path d="M 72 504 
L 518.4 504 
" style="fill: none; stroke: #000000; stroke-width: 0.8; stroke-linejoin: miter; stroke-linecap: square"/>
   </g>
   <g id="patch_6">
    <path d="M 72 69.12 
L 518.4 69.12 
" style="fill: none; stroke: #000000; stroke-width: 0.8; stroke-linejoin: miter; stroke-linecap: square"/>
   </g>
   <g id="text_15">
    <!-- 500 ms -->
    <g transform="translate(497.973818 406.152)scale(0.22 -0.22)">
     <defs>
      <path id="ArialMT-35" d="M 266 1200 
L 856 1250 
Q 922 819 1161 601 
Q 1400 384 1738 384 
Q 2144 384 2425 690 
Q 2706 997 2706 1503 
Q 2706 1984 2436 2262 
Q 2166 2541 1728 2541 
Q 1456 2541 1237 2417 
Q 1019 2294 894 2097 
L 366 2166 
L 809 4519 
L 3088 4519 
L 3088 3981 
L 1259 3981 
L 1013 2750 
Q 1425 3038 1878 3038 
Q 2478 3038 2890 2622 
Q 3303 2206 3303 1553 
Q 3303 931 2941 478 
Q 2500 -78 1738 -78 
Q 1113 -78 717 272 
Q 322 622 266 1200 
z
" transform="scale(0.015625)"/>
      <path id="ArialMT-30" d="M 266 2259 
Q 266 3072 433 3567 
Q 600 4063 929 4331 
Q 1259 4600 1759 4600 
Q 2128 4600 2406 4451 
Q 2684 4303 2865 4023 
Q 3047 3744 3150 3342 
Q 3253 2941 3253 2259 
Q 3253 1453 3087 958 
Q 2922 463 2592 192 
Q 2263 -78 1759 -78 
Q 1097 -78 719 397 
Q 266 969 266 2259 
z
M 844 2259 
Q 844 1131 1108 757 
Q 1372 384 1759 384 
Q 2147 384 2411 759 
Q 2675 1134 2675 2259 
Q 2675 3391 2411 3762 
Q 2147 4134 1753 4134 
Q 1366 4134 1134 3806 
Q 844 3388 844 2259 
z
" transform="scale(0.015625)"/>
     </defs>
     <use xlink:href="#ArialMT-35"/>
     <use xlink:href="#ArialMT-30" x="55.615234"/>
     <use xlink:href="#ArialMT-30" x="111.230469"/>
     <use xlink:href="#ArialMT-20" x="166.845703"/>
     <use xlink:href="#ArialMT-6d" x="194.628906"/>
     <use xlink:href="#ArialMT-73" x="277.929688"/>
    </g>
   </g>
   <g id="text_16">
    <!-- 20 mV -->
    <g transform="translate(504.737455 321.894)scale(0.22 -0.22)">
     <defs>
      <path id="ArialMT-32" d="M 3222 541 
L 3222 0 
L 194 0 
Q 188 203 259 391 
Q 375 700 629 1000 
Q 884 1300 1366 1694 
Q 2113 2306 2375 2664 
Q 2638 3022 2638 3341 
Q 2638 3675 2398 3904 
Q 2159 4134 1775 4134 
Q 1369 4134 1125 3890 
Q 881 3647 878 3216 
L 300 3275 
Q 359 3922 746 4261 
Q 1134 4600 1788 4600 
Q 2447 4600 2831 4234 
Q 3216 3869 3216 3328 
Q 3216 3053 3103 2787 
Q 2991 2522 2730 2228 
Q 2469 1934 1863 1422 
Q 1356 997 1212 845 
Q 1069 694 975 541 
L 3222 541 
z
" transform="scale(0.015625)"/>
     </defs>
     <use xlink:href="#ArialMT-32"/>
     <use xlink:href="#ArialMT-30" x="55.615234"/>
     <use xlink:href="#ArialMT-20" x="111.230469"/>
     <use xlink:href="#ArialMT-6d" x="139.013672"/>
     <use xlink:href="#ArialMT-56" x="222.314453"/>
    </g>
   </g>
   <g id="text_17">
    <!--  Plotting FS, trace number 8188  -->
    <g transform="translate(136.849844 63.12)scale(0.22 -0.22)">
     <defs>
      <path id="ArialMT-50" d="M 494 0 
L 494 4581 
L 2222 4581 
Q 2678 4581 2919 4538 
Q 3256 4481 3484 4323 
Q 3713 4166 3852 3881 
Q 3991 3597 3991 3256 
Q 3991 2672 3619 2267 
Q 3247 1863 2275 1863 
L 1100 1863 
L 1100 0 
L 494 0 
z
M 1100 2403 
L 2284 2403 
Q 2872 2403 3119 2622 
Q 3366 2841 3366 3238 
Q 3366 3525 3220 3729 
Q 3075 3934 2838 4000 
Q 2684 4041 2272 4041 
L 1100 4041 
L 1100 2403 
z
" transform="scale(0.015625)"/>
      <path id="ArialMT-67" d="M 319 -275 
L 866 -356 
Q 900 -609 1056 -725 
Q 1266 -881 1628 -881 
Q 2019 -881 2231 -725 
Q 2444 -569 2519 -288 
Q 2563 -116 2559 434 
Q 2191 0 1641 0 
Q 956 0 581 494 
Q 206 988 206 1678 
Q 206 2153 378 2554 
Q 550 2956 876 3175 
Q 1203 3394 1644 3394 
Q 2231 3394 2613 2919 
L 2613 3319 
L 3131 3319 
L 3131 450 
Q 3131 -325 2973 -648 
Q 2816 -972 2473 -1159 
Q 2131 -1347 1631 -1347 
Q 1038 -1347 672 -1080 
Q 306 -813 319 -275 
z
M 784 1719 
Q 784 1066 1043 766 
Q 1303 466 1694 466 
Q 2081 466 2343 764 
Q 2606 1063 2606 1700 
Q 2606 2309 2336 2618 
Q 2066 2928 1684 2928 
Q 1309 2928 1046 2623 
Q 784 2319 784 1719 
z
" transform="scale(0.015625)"/>
      <path id="ArialMT-46" d="M 525 0 
L 525 4581 
L 3616 4581 
L 3616 4041 
L 1131 4041 
L 1131 2622 
L 3281 2622 
L 3281 2081 
L 1131 2081 
L 1131 0 
L 525 0 
z
" transform="scale(0.015625)"/>
      <path id="ArialMT-53" d="M 288 1472 
L 859 1522 
Q 900 1178 1048 958 
Q 1197 738 1509 602 
Q 1822 466 2213 466 
Q 2559 466 2825 569 
Q 3091 672 3220 851 
Q 3350 1031 3350 1244 
Q 3350 1459 3225 1620 
Q 3100 1781 2813 1891 
Q 2628 1963 1997 2114 
Q 1366 2266 1113 2400 
Q 784 2572 623 2826 
Q 463 3081 463 3397 
Q 463 3744 659 4045 
Q 856 4347 1234 4503 
Q 1613 4659 2075 4659 
Q 2584 4659 2973 4495 
Q 3363 4331 3572 4012 
Q 3781 3694 3797 3291 
L 3216 3247 
Q 3169 3681 2898 3903 
Q 2628 4125 2100 4125 
Q 1550 4125 1298 3923 
Q 1047 3722 1047 3438 
Q 1047 3191 1225 3031 
Q 1400 2872 2139 2705 
Q 2878 2538 3153 2413 
Q 3553 2228 3743 1945 
Q 3934 1663 3934 1294 
Q 3934 928 3725 604 
Q 3516 281 3123 101 
Q 2731 -78 2241 -78 
Q 1619 -78 1198 103 
Q 778 284 539 648 
Q 300 1013 288 1472 
z
" transform="scale(0.015625)"/>
      <path id="ArialMT-2c" d="M 569 0 
L 569 641 
L 1209 641 
L 1209 0 
Q 1209 -353 1084 -570 
Q 959 -788 688 -906 
L 531 -666 
Q 709 -588 793 -436 
Q 878 -284 888 0 
L 569 0 
z
" transform="scale(0.015625)"/>
      <path id="ArialMT-63" d="M 2588 1216 
L 3141 1144 
Q 3050 572 2676 248 
Q 2303 -75 1759 -75 
Q 1078 -75 664 370 
Q 250 816 250 1647 
Q 250 2184 428 2587 
Q 606 2991 970 3192 
Q 1334 3394 1763 3394 
Q 2303 3394 2647 3120 
Q 2991 2847 3088 2344 
L 2541 2259 
Q 2463 2594 2264 2762 
Q 2066 2931 1784 2931 
Q 1359 2931 1093 2626 
Q 828 2322 828 1663 
Q 828 994 1084 691 
Q 1341 388 1753 388 
Q 2084 388 2306 591 
Q 2528 794 2588 1216 
z
" transform="scale(0.015625)"/>
      <path id="ArialMT-75" d="M 2597 0 
L 2597 488 
Q 2209 -75 1544 -75 
Q 1250 -75 995 37 
Q 741 150 617 320 
Q 494 491 444 738 
Q 409 903 409 1263 
L 409 3319 
L 972 3319 
L 972 1478 
Q 972 1038 1006 884 
Q 1059 663 1231 536 
Q 1403 409 1656 409 
Q 1909 409 2131 539 
Q 2353 669 2445 892 
Q 2538 1116 2538 1541 
L 2538 3319 
L 3100 3319 
L 3100 0 
L 2597 0 
z
" transform="scale(0.015625)"/>
      <path id="ArialMT-38" d="M 1131 2484 
Q 781 2613 612 2850 
Q 444 3088 444 3419 
Q 444 3919 803 4259 
Q 1163 4600 1759 4600 
Q 2359 4600 2725 4251 
Q 3091 3903 3091 3403 
Q 3091 3084 2923 2848 
Q 2756 2613 2416 2484 
Q 2838 2347 3058 2040 
Q 3278 1734 3278 1309 
Q 3278 722 2862 322 
Q 2447 -78 1769 -78 
Q 1091 -78 675 323 
Q 259 725 259 1325 
Q 259 1772 486 2073 
Q 713 2375 1131 2484 
z
M 1019 3438 
Q 1019 3113 1228 2906 
Q 1438 2700 1772 2700 
Q 2097 2700 2305 2904 
Q 2513 3109 2513 3406 
Q 2513 3716 2298 3927 
Q 2084 4138 1766 4138 
Q 1444 4138 1231 3931 
Q 1019 3725 1019 3438 
z
M 838 1322 
Q 838 1081 952 856 
Q 1066 631 1291 507 
Q 1516 384 1775 384 
Q 2178 384 2440 643 
Q 2703 903 2703 1303 
Q 2703 1709 2433 1975 
Q 2163 2241 1756 2241 
Q 1359 2241 1098 1978 
Q 838 1716 838 1322 
z
" transform="scale(0.015625)"/>
      <path id="ArialMT-31" d="M 2384 0 
L 1822 0 
L 1822 3584 
Q 1619 3391 1289 3197 
Q 959 3003 697 2906 
L 697 3450 
Q 1169 3672 1522 3987 
Q 1875 4303 2022 4600 
L 2384 4600 
L 2384 0 
z
" transform="scale(0.015625)"/>
     </defs>
     <use xlink:href="#ArialMT-20"/>
     <use xlink:href="#ArialMT-50" x="27.783203"/>
     <use xlink:href="#ArialMT-6c" x="94.482422"/>
     <use xlink:href="#ArialMT-6f" x="116.699219"/>
     <use xlink:href="#ArialMT-74" x="172.314453"/>
     <use xlink:href="#ArialMT-74" x="200.097656"/>
     <use xlink:href="#ArialMT-69" x="227.880859"/>
     <use xlink:href="#ArialMT-6e" x="250.097656"/>
     <use xlink:href="#ArialMT-67" x="305.712891"/>
     <use xlink:href="#ArialMT-20" x="361.328125"/>
     <use xlink:href="#ArialMT-46" x="389.111328"/>
     <use xlink:href="#ArialMT-53" x="450.195312"/>
     <use xlink:href="#ArialMT-2c" x="516.894531"/>
     <use xlink:href="#ArialMT-20" x="544.677734"/>
     <use xlink:href="#ArialMT-74" x="572.460938"/>
     <use xlink:href="#ArialMT-72" x="600.244141"/>
     <use xlink:href="#ArialMT-61" x="633.544922"/>
     <use xlink:href="#ArialMT-63" x="689.160156"/>
     <use xlink:href="#ArialMT-65" x="739.160156"/>
     <use xlink:href="#ArialMT-20" x="794.775391"/>
     <use xlink:href="#ArialMT-6e" x="822.558594"/>
     <use xlink:href="#ArialMT-75" x="878.173828"/>
     <use xlink:href="#ArialMT-6d" x="933.789062"/>
     <use xlink:href="#ArialMT-62" x="1017.089844"/>
     <use xlink:href="#ArialMT-65" x="1072.705078"/>
     <use xlink:href="#ArialMT-72" x="1128.320312"/>
     <use xlink:href="#ArialMT-20" x="1161.621094"/>
     <use xlink:href="#ArialMT-38" x="1189.404297"/>
     <use xlink:href="#ArialMT-31" x="1245.019531"/>
     <use xlink:href="#ArialMT-38" x="1300.634766"/>
     <use xlink:href="#ArialMT-38" x="1356.25"/>
     <use xlink:href="#ArialMT-20" x="1411.865234"/>
    </g>
   </g>
  </g>
 </g>
 <defs>
  <clipPath id="pccfc2062cd">
   <rect x="72" y="69.12" width="446.4" height="434.88"/>
  </clipPath>
 </defs>
</svg>
