<?xml version="1.0" encoding="utf-8" standalone="no"?>
<!DOCTYPE svg PUBLIC "-//W3C//DTD SVG 1.1//EN"
  "http://www.w3.org/Graphics/SVG/1.1/DTD/svg11.dtd">
<svg xmlns:xlink="http://www.w3.org/1999/xlink" width="576pt" height="576pt" viewBox="0 0 576 576" xmlns="http://www.w3.org/2000/svg" version="1.1">
 <metadata>
  <rdf:RDF xmlns:dc="http://purl.org/dc/elements/1.1/" xmlns:cc="http://creativecommons.org/ns#" xmlns:rdf="http://www.w3.org/1999/02/22-rdf-syntax-ns#">
   <cc:Work>
    <dc:type rdf:resource="http://purl.org/dc/dcmitype/StillImage"/>
    <dc:date>2022-10-30T19:57:11.021512</dc:date>
    <dc:format>image/svg+xml</dc:format>
    <dc:creator>
     <cc:Agent>
      <dc:title>Matplotlib v3.5.2, https://matplotlib.org/</dc:title>
     </cc:Agent>
    </dc:creator>
   </cc:Work>
  </rdf:RDF>
 </metadata>
 <defs>
  <style type="text/css">*{stroke-linejoin: round; stroke-linecap: butt}</style>
 </defs>
 <g id="figure_1">
  <g id="patch_1">
   <path d="M 0 576 
L 576 576 
L 576 0 
L 0 0 
L 0 576 
z
" style="fill: none"/>
  </g>
  <g id="axes_1">
   <g id="patch_2">
    <path d="M 72 504 
L 518.4 504 
L 518.4 69.12 
L 72 69.12 
z
" style="fill: #ffffff"/>
   </g>
   <g id="matplotlib.axis_1">
    <g id="xtick_1">
     <g id="line2d_1">
      <defs>
       <path id="mdab0f175af" d="M 0 0 
L 0 3.5 
" style="stroke: #000000; stroke-width: 0.8"/>
      </defs>
      <g>
       <use xlink:href="#mdab0f175af" x="92.290909" y="504" style="stroke: #000000; stroke-width: 0.8"/>
      </g>
     </g>
     <g id="text_1">
      <!-- 0 -->
      <g transform="translate(85.292159 527.716563)scale(0.22 -0.22)">
       <defs>
        <path id="DejaVuSans-30" d="M 2034 4250 
Q 1547 4250 1301 3770 
Q 1056 3291 1056 2328 
Q 1056 1369 1301 889 
Q 1547 409 2034 409 
Q 2525 409 2770 889 
Q 3016 1369 3016 2328 
Q 3016 3291 2770 3770 
Q 2525 4250 2034 4250 
z
M 2034 4750 
Q 2819 4750 3233 4129 
Q 3647 3509 3647 2328 
Q 3647 1150 3233 529 
Q 2819 -91 2034 -91 
Q 1250 -91 836 529 
Q 422 1150 422 2328 
Q 422 3509 836 4129 
Q 1250 4750 2034 4750 
z
" transform="scale(0.015625)"/>
       </defs>
       <use xlink:href="#DejaVuSans-30"/>
      </g>
     </g>
    </g>
    <g id="xtick_2">
     <g id="line2d_2">
      <g>
       <use xlink:href="#mdab0f175af" x="227.563636" y="504" style="stroke: #000000; stroke-width: 0.8"/>
      </g>
     </g>
     <g id="text_2">
      <!-- 1000 -->
      <g transform="translate(199.568636 527.716563)scale(0.22 -0.22)">
       <defs>
        <path id="DejaVuSans-31" d="M 794 531 
L 1825 531 
L 1825 4091 
L 703 3866 
L 703 4441 
L 1819 4666 
L 2450 4666 
L 2450 531 
L 3481 531 
L 3481 0 
L 794 0 
L 794 531 
z
" transform="scale(0.015625)"/>
       </defs>
       <use xlink:href="#DejaVuSans-31"/>
       <use xlink:href="#DejaVuSans-30" x="63.623047"/>
       <use xlink:href="#DejaVuSans-30" x="127.246094"/>
       <use xlink:href="#DejaVuSans-30" x="190.869141"/>
      </g>
     </g>
    </g>
    <g id="xtick_3">
     <g id="line2d_3">
      <g>
       <use xlink:href="#mdab0f175af" x="362.836364" y="504" style="stroke: #000000; stroke-width: 0.8"/>
      </g>
     </g>
     <g id="text_3">
      <!-- 2000 -->
      <g transform="translate(334.841364 527.716563)scale(0.22 -0.22)">
       <defs>
        <path id="DejaVuSans-32" d="M 1228 531 
L 3431 531 
L 3431 0 
L 469 0 
L 469 531 
Q 828 903 1448 1529 
Q 2069 2156 2228 2338 
Q 2531 2678 2651 2914 
Q 2772 3150 2772 3378 
Q 2772 3750 2511 3984 
Q 2250 4219 1831 4219 
Q 1534 4219 1204 4116 
Q 875 4013 500 3803 
L 500 4441 
Q 881 4594 1212 4672 
Q 1544 4750 1819 4750 
Q 2544 4750 2975 4387 
Q 3406 4025 3406 3419 
Q 3406 3131 3298 2873 
Q 3191 2616 2906 2266 
Q 2828 2175 2409 1742 
Q 1991 1309 1228 531 
z
" transform="scale(0.015625)"/>
       </defs>
       <use xlink:href="#DejaVuSans-32"/>
       <use xlink:href="#DejaVuSans-30" x="63.623047"/>
       <use xlink:href="#DejaVuSans-30" x="127.246094"/>
       <use xlink:href="#DejaVuSans-30" x="190.869141"/>
      </g>
     </g>
    </g>
    <g id="xtick_4">
     <g id="line2d_4">
      <g>
       <use xlink:href="#mdab0f175af" x="498.109091" y="504" style="stroke: #000000; stroke-width: 0.8"/>
      </g>
     </g>
     <g id="text_4">
      <!-- 3000 -->
      <g transform="translate(470.114091 527.716563)scale(0.22 -0.22)">
       <defs>
        <path id="DejaVuSans-33" d="M 2597 2516 
Q 3050 2419 3304 2112 
Q 3559 1806 3559 1356 
Q 3559 666 3084 287 
Q 2609 -91 1734 -91 
Q 1441 -91 1130 -33 
Q 819 25 488 141 
L 488 750 
Q 750 597 1062 519 
Q 1375 441 1716 441 
Q 2309 441 2620 675 
Q 2931 909 2931 1356 
Q 2931 1769 2642 2001 
Q 2353 2234 1838 2234 
L 1294 2234 
L 1294 2753 
L 1863 2753 
Q 2328 2753 2575 2939 
Q 2822 3125 2822 3475 
Q 2822 3834 2567 4026 
Q 2313 4219 1838 4219 
Q 1578 4219 1281 4162 
Q 984 4106 628 3988 
L 628 4550 
Q 988 4650 1302 4700 
Q 1616 4750 1894 4750 
Q 2613 4750 3031 4423 
Q 3450 4097 3450 3541 
Q 3450 3153 3228 2886 
Q 3006 2619 2597 2516 
z
" transform="scale(0.015625)"/>
       </defs>
       <use xlink:href="#DejaVuSans-33"/>
       <use xlink:href="#DejaVuSans-30" x="63.623047"/>
       <use xlink:href="#DejaVuSans-30" x="127.246094"/>
       <use xlink:href="#DejaVuSans-30" x="190.869141"/>
      </g>
     </g>
    </g>
    <g id="text_5">
     <!-- Time(ms) -->
     <g transform="translate(249.182187 552.307188)scale(0.22 -0.22)">
      <defs>
       <path id="ArialMT-54" d="M 1659 0 
L 1659 4041 
L 150 4041 
L 150 4581 
L 3781 4581 
L 3781 4041 
L 2266 4041 
L 2266 0 
L 1659 0 
z
" transform="scale(0.015625)"/>
       <path id="ArialMT-69" d="M 425 3934 
L 425 4581 
L 988 4581 
L 988 3934 
L 425 3934 
z
M 425 0 
L 425 3319 
L 988 3319 
L 988 0 
L 425 0 
z
" transform="scale(0.015625)"/>
       <path id="ArialMT-6d" d="M 422 0 
L 422 3319 
L 925 3319 
L 925 2853 
Q 1081 3097 1340 3245 
Q 1600 3394 1931 3394 
Q 2300 3394 2536 3241 
Q 2772 3088 2869 2813 
Q 3263 3394 3894 3394 
Q 4388 3394 4653 3120 
Q 4919 2847 4919 2278 
L 4919 0 
L 4359 0 
L 4359 2091 
Q 4359 2428 4304 2576 
Q 4250 2725 4106 2815 
Q 3963 2906 3769 2906 
Q 3419 2906 3187 2673 
Q 2956 2441 2956 1928 
L 2956 0 
L 2394 0 
L 2394 2156 
Q 2394 2531 2256 2718 
Q 2119 2906 1806 2906 
Q 1569 2906 1367 2781 
Q 1166 2656 1075 2415 
Q 984 2175 984 1722 
L 984 0 
L 422 0 
z
" transform="scale(0.015625)"/>
       <path id="ArialMT-65" d="M 2694 1069 
L 3275 997 
Q 3138 488 2766 206 
Q 2394 -75 1816 -75 
Q 1088 -75 661 373 
Q 234 822 234 1631 
Q 234 2469 665 2931 
Q 1097 3394 1784 3394 
Q 2450 3394 2872 2941 
Q 3294 2488 3294 1666 
Q 3294 1616 3291 1516 
L 816 1516 
Q 847 969 1125 678 
Q 1403 388 1819 388 
Q 2128 388 2347 550 
Q 2566 713 2694 1069 
z
M 847 1978 
L 2700 1978 
Q 2663 2397 2488 2606 
Q 2219 2931 1791 2931 
Q 1403 2931 1139 2672 
Q 875 2413 847 1978 
z
" transform="scale(0.015625)"/>
       <path id="ArialMT-28" d="M 1497 -1347 
Q 1031 -759 709 28 
Q 388 816 388 1659 
Q 388 2403 628 3084 
Q 909 3875 1497 4659 
L 1900 4659 
Q 1522 4009 1400 3731 
Q 1209 3300 1100 2831 
Q 966 2247 966 1656 
Q 966 153 1900 -1347 
L 1497 -1347 
z
" transform="scale(0.015625)"/>
       <path id="ArialMT-73" d="M 197 991 
L 753 1078 
Q 800 744 1014 566 
Q 1228 388 1613 388 
Q 2000 388 2187 545 
Q 2375 703 2375 916 
Q 2375 1106 2209 1216 
Q 2094 1291 1634 1406 
Q 1016 1563 777 1677 
Q 538 1791 414 1992 
Q 291 2194 291 2438 
Q 291 2659 392 2848 
Q 494 3038 669 3163 
Q 800 3259 1026 3326 
Q 1253 3394 1513 3394 
Q 1903 3394 2198 3281 
Q 2494 3169 2634 2976 
Q 2775 2784 2828 2463 
L 2278 2388 
Q 2241 2644 2061 2787 
Q 1881 2931 1553 2931 
Q 1166 2931 1000 2803 
Q 834 2675 834 2503 
Q 834 2394 903 2306 
Q 972 2216 1119 2156 
Q 1203 2125 1616 2013 
Q 2213 1853 2448 1751 
Q 2684 1650 2818 1456 
Q 2953 1263 2953 975 
Q 2953 694 2789 445 
Q 2625 197 2315 61 
Q 2006 -75 1616 -75 
Q 969 -75 630 194 
Q 291 463 197 991 
z
" transform="scale(0.015625)"/>
       <path id="ArialMT-29" d="M 791 -1347 
L 388 -1347 
Q 1322 153 1322 1656 
Q 1322 2244 1188 2822 
Q 1081 3291 891 3722 
Q 769 4003 388 4659 
L 791 4659 
Q 1378 3875 1659 3084 
Q 1900 2403 1900 1659 
Q 1900 816 1576 28 
Q 1253 -759 791 -1347 
z
" transform="scale(0.015625)"/>
      </defs>
      <use xlink:href="#ArialMT-54"/>
      <use xlink:href="#ArialMT-69" x="57.333984"/>
      <use xlink:href="#ArialMT-6d" x="79.550781"/>
      <use xlink:href="#ArialMT-65" x="162.851562"/>
      <use xlink:href="#ArialMT-28" x="218.466797"/>
      <use xlink:href="#ArialMT-6d" x="251.767578"/>
      <use xlink:href="#ArialMT-73" x="335.068359"/>
      <use xlink:href="#ArialMT-29" x="385.068359"/>
     </g>
    </g>
   </g>
   <g id="matplotlib.axis_2">
    <g id="ytick_1">
     <g id="line2d_5">
      <defs>
       <path id="mc32b14098d" d="M 0 0 
L -3.5 0 
" style="stroke: #000000; stroke-width: 0.8"/>
      </defs>
      <g>
       <use xlink:href="#mc32b14098d" x="72" y="476.82" style="stroke: #000000; stroke-width: 0.8"/>
      </g>
     </g>
     <g id="text_6">
      <!-- −100 -->
      <g transform="translate(4.572187 485.178281)scale(0.22 -0.22)">
       <defs>
        <path id="DejaVuSans-2212" d="M 678 2272 
L 4684 2272 
L 4684 1741 
L 678 1741 
L 678 2272 
z
" transform="scale(0.015625)"/>
       </defs>
       <use xlink:href="#DejaVuSans-2212"/>
       <use xlink:href="#DejaVuSans-31" x="83.789062"/>
       <use xlink:href="#DejaVuSans-30" x="147.412109"/>
       <use xlink:href="#DejaVuSans-30" x="211.035156"/>
      </g>
     </g>
    </g>
    <g id="ytick_2">
     <g id="line2d_6">
      <g>
       <use xlink:href="#mc32b14098d" x="72" y="422.46" style="stroke: #000000; stroke-width: 0.8"/>
      </g>
     </g>
     <g id="text_7">
      <!-- −80 -->
      <g transform="translate(18.569688 430.818281)scale(0.22 -0.22)">
       <defs>
        <path id="DejaVuSans-38" d="M 2034 2216 
Q 1584 2216 1326 1975 
Q 1069 1734 1069 1313 
Q 1069 891 1326 650 
Q 1584 409 2034 409 
Q 2484 409 2743 651 
Q 3003 894 3003 1313 
Q 3003 1734 2745 1975 
Q 2488 2216 2034 2216 
z
M 1403 2484 
Q 997 2584 770 2862 
Q 544 3141 544 3541 
Q 544 4100 942 4425 
Q 1341 4750 2034 4750 
Q 2731 4750 3128 4425 
Q 3525 4100 3525 3541 
Q 3525 3141 3298 2862 
Q 3072 2584 2669 2484 
Q 3125 2378 3379 2068 
Q 3634 1759 3634 1313 
Q 3634 634 3220 271 
Q 2806 -91 2034 -91 
Q 1263 -91 848 271 
Q 434 634 434 1313 
Q 434 1759 690 2068 
Q 947 2378 1403 2484 
z
M 1172 3481 
Q 1172 3119 1398 2916 
Q 1625 2713 2034 2713 
Q 2441 2713 2670 2916 
Q 2900 3119 2900 3481 
Q 2900 3844 2670 4047 
Q 2441 4250 2034 4250 
Q 1625 4250 1398 4047 
Q 1172 3844 1172 3481 
z
" transform="scale(0.015625)"/>
       </defs>
       <use xlink:href="#DejaVuSans-2212"/>
       <use xlink:href="#DejaVuSans-38" x="83.789062"/>
       <use xlink:href="#DejaVuSans-30" x="147.412109"/>
      </g>
     </g>
    </g>
    <g id="ytick_3">
     <g id="line2d_7">
      <g>
       <use xlink:href="#mc32b14098d" x="72" y="368.1" style="stroke: #000000; stroke-width: 0.8"/>
      </g>
     </g>
     <g id="text_8">
      <!-- −60 -->
      <g transform="translate(18.569688 376.458281)scale(0.22 -0.22)">
       <defs>
        <path id="DejaVuSans-36" d="M 2113 2584 
Q 1688 2584 1439 2293 
Q 1191 2003 1191 1497 
Q 1191 994 1439 701 
Q 1688 409 2113 409 
Q 2538 409 2786 701 
Q 3034 994 3034 1497 
Q 3034 2003 2786 2293 
Q 2538 2584 2113 2584 
z
M 3366 4563 
L 3366 3988 
Q 3128 4100 2886 4159 
Q 2644 4219 2406 4219 
Q 1781 4219 1451 3797 
Q 1122 3375 1075 2522 
Q 1259 2794 1537 2939 
Q 1816 3084 2150 3084 
Q 2853 3084 3261 2657 
Q 3669 2231 3669 1497 
Q 3669 778 3244 343 
Q 2819 -91 2113 -91 
Q 1303 -91 875 529 
Q 447 1150 447 2328 
Q 447 3434 972 4092 
Q 1497 4750 2381 4750 
Q 2619 4750 2861 4703 
Q 3103 4656 3366 4563 
z
" transform="scale(0.015625)"/>
       </defs>
       <use xlink:href="#DejaVuSans-2212"/>
       <use xlink:href="#DejaVuSans-36" x="83.789062"/>
       <use xlink:href="#DejaVuSans-30" x="147.412109"/>
      </g>
     </g>
    </g>
    <g id="ytick_4">
     <g id="line2d_8">
      <g>
       <use xlink:href="#mc32b14098d" x="72" y="313.74" style="stroke: #000000; stroke-width: 0.8"/>
      </g>
     </g>
     <g id="text_9">
      <!-- −40 -->
      <g transform="translate(18.569688 322.098281)scale(0.22 -0.22)">
       <defs>
        <path id="DejaVuSans-34" d="M 2419 4116 
L 825 1625 
L 2419 1625 
L 2419 4116 
z
M 2253 4666 
L 3047 4666 
L 3047 1625 
L 3713 1625 
L 3713 1100 
L 3047 1100 
L 3047 0 
L 2419 0 
L 2419 1100 
L 313 1100 
L 313 1709 
L 2253 4666 
z
" transform="scale(0.015625)"/>
       </defs>
       <use xlink:href="#DejaVuSans-2212"/>
       <use xlink:href="#DejaVuSans-34" x="83.789062"/>
       <use xlink:href="#DejaVuSans-30" x="147.412109"/>
      </g>
     </g>
    </g>
    <g id="ytick_5">
     <g id="line2d_9">
      <g>
       <use xlink:href="#mc32b14098d" x="72" y="259.38" style="stroke: #000000; stroke-width: 0.8"/>
      </g>
     </g>
     <g id="text_10">
      <!-- −20 -->
      <g transform="translate(18.569688 267.738281)scale(0.22 -0.22)">
       <use xlink:href="#DejaVuSans-2212"/>
       <use xlink:href="#DejaVuSans-32" x="83.789062"/>
       <use xlink:href="#DejaVuSans-30" x="147.412109"/>
      </g>
     </g>
    </g>
    <g id="ytick_6">
     <g id="line2d_10">
      <g>
       <use xlink:href="#mc32b14098d" x="72" y="205.02" style="stroke: #000000; stroke-width: 0.8"/>
      </g>
     </g>
     <g id="text_11">
      <!-- 0 -->
      <g transform="translate(51.0025 213.378281)scale(0.22 -0.22)">
       <use xlink:href="#DejaVuSans-30"/>
      </g>
     </g>
    </g>
    <g id="ytick_7">
     <g id="line2d_11">
      <g>
       <use xlink:href="#mc32b14098d" x="72" y="150.66" style="stroke: #000000; stroke-width: 0.8"/>
      </g>
     </g>
     <g id="text_12">
      <!-- 20 -->
      <g transform="translate(37.005 159.018281)scale(0.22 -0.22)">
       <use xlink:href="#DejaVuSans-32"/>
       <use xlink:href="#DejaVuSans-30" x="63.623047"/>
      </g>
     </g>
    </g>
    <g id="ytick_8">
     <g id="line2d_12">
      <g>
       <use xlink:href="#mc32b14098d" x="72" y="96.3" style="stroke: #000000; stroke-width: 0.8"/>
      </g>
     </g>
     <g id="text_13">
      <!-- 40 -->
      <g transform="translate(37.005 104.658281)scale(0.22 -0.22)">
       <use xlink:href="#DejaVuSans-34"/>
       <use xlink:href="#DejaVuSans-30" x="63.623047"/>
      </g>
     </g>
    </g>
    <g id="text_14">
     <!-- Membrane potential (mV) -->
     <g transform="translate(-4.058125 410.655469)rotate(-90)scale(0.22 -0.22)">
      <defs>
       <path id="ArialMT-4d" d="M 475 0 
L 475 4581 
L 1388 4581 
L 2472 1338 
Q 2622 884 2691 659 
Q 2769 909 2934 1394 
L 4031 4581 
L 4847 4581 
L 4847 0 
L 4263 0 
L 4263 3834 
L 2931 0 
L 2384 0 
L 1059 3900 
L 1059 0 
L 475 0 
z
" transform="scale(0.015625)"/>
       <path id="ArialMT-62" d="M 941 0 
L 419 0 
L 419 4581 
L 981 4581 
L 981 2947 
Q 1338 3394 1891 3394 
Q 2197 3394 2470 3270 
Q 2744 3147 2920 2923 
Q 3097 2700 3197 2384 
Q 3297 2069 3297 1709 
Q 3297 856 2875 390 
Q 2453 -75 1863 -75 
Q 1275 -75 941 416 
L 941 0 
z
M 934 1684 
Q 934 1088 1097 822 
Q 1363 388 1816 388 
Q 2184 388 2453 708 
Q 2722 1028 2722 1663 
Q 2722 2313 2464 2622 
Q 2206 2931 1841 2931 
Q 1472 2931 1203 2611 
Q 934 2291 934 1684 
z
" transform="scale(0.015625)"/>
       <path id="ArialMT-72" d="M 416 0 
L 416 3319 
L 922 3319 
L 922 2816 
Q 1116 3169 1280 3281 
Q 1444 3394 1641 3394 
Q 1925 3394 2219 3213 
L 2025 2691 
Q 1819 2813 1613 2813 
Q 1428 2813 1281 2702 
Q 1134 2591 1072 2394 
Q 978 2094 978 1738 
L 978 0 
L 416 0 
z
" transform="scale(0.015625)"/>
       <path id="ArialMT-61" d="M 2588 409 
Q 2275 144 1986 34 
Q 1697 -75 1366 -75 
Q 819 -75 525 192 
Q 231 459 231 875 
Q 231 1119 342 1320 
Q 453 1522 633 1644 
Q 813 1766 1038 1828 
Q 1203 1872 1538 1913 
Q 2219 1994 2541 2106 
Q 2544 2222 2544 2253 
Q 2544 2597 2384 2738 
Q 2169 2928 1744 2928 
Q 1347 2928 1158 2789 
Q 969 2650 878 2297 
L 328 2372 
Q 403 2725 575 2942 
Q 747 3159 1072 3276 
Q 1397 3394 1825 3394 
Q 2250 3394 2515 3294 
Q 2781 3194 2906 3042 
Q 3031 2891 3081 2659 
Q 3109 2516 3109 2141 
L 3109 1391 
Q 3109 606 3145 398 
Q 3181 191 3288 0 
L 2700 0 
Q 2613 175 2588 409 
z
M 2541 1666 
Q 2234 1541 1622 1453 
Q 1275 1403 1131 1340 
Q 988 1278 909 1158 
Q 831 1038 831 891 
Q 831 666 1001 516 
Q 1172 366 1500 366 
Q 1825 366 2078 508 
Q 2331 650 2450 897 
Q 2541 1088 2541 1459 
L 2541 1666 
z
" transform="scale(0.015625)"/>
       <path id="ArialMT-6e" d="M 422 0 
L 422 3319 
L 928 3319 
L 928 2847 
Q 1294 3394 1984 3394 
Q 2284 3394 2536 3286 
Q 2788 3178 2913 3003 
Q 3038 2828 3088 2588 
Q 3119 2431 3119 2041 
L 3119 0 
L 2556 0 
L 2556 2019 
Q 2556 2363 2490 2533 
Q 2425 2703 2258 2804 
Q 2091 2906 1866 2906 
Q 1506 2906 1245 2678 
Q 984 2450 984 1813 
L 984 0 
L 422 0 
z
" transform="scale(0.015625)"/>
       <path id="ArialMT-20" transform="scale(0.015625)"/>
       <path id="ArialMT-70" d="M 422 -1272 
L 422 3319 
L 934 3319 
L 934 2888 
Q 1116 3141 1344 3267 
Q 1572 3394 1897 3394 
Q 2322 3394 2647 3175 
Q 2972 2956 3137 2557 
Q 3303 2159 3303 1684 
Q 3303 1175 3120 767 
Q 2938 359 2589 142 
Q 2241 -75 1856 -75 
Q 1575 -75 1351 44 
Q 1128 163 984 344 
L 984 -1272 
L 422 -1272 
z
M 931 1641 
Q 931 1000 1190 694 
Q 1450 388 1819 388 
Q 2194 388 2461 705 
Q 2728 1022 2728 1688 
Q 2728 2322 2467 2637 
Q 2206 2953 1844 2953 
Q 1484 2953 1207 2617 
Q 931 2281 931 1641 
z
" transform="scale(0.015625)"/>
       <path id="ArialMT-6f" d="M 213 1659 
Q 213 2581 725 3025 
Q 1153 3394 1769 3394 
Q 2453 3394 2887 2945 
Q 3322 2497 3322 1706 
Q 3322 1066 3130 698 
Q 2938 331 2570 128 
Q 2203 -75 1769 -75 
Q 1072 -75 642 372 
Q 213 819 213 1659 
z
M 791 1659 
Q 791 1022 1069 705 
Q 1347 388 1769 388 
Q 2188 388 2466 706 
Q 2744 1025 2744 1678 
Q 2744 2294 2464 2611 
Q 2184 2928 1769 2928 
Q 1347 2928 1069 2612 
Q 791 2297 791 1659 
z
" transform="scale(0.015625)"/>
       <path id="ArialMT-74" d="M 1650 503 
L 1731 6 
Q 1494 -44 1306 -44 
Q 1000 -44 831 53 
Q 663 150 594 308 
Q 525 466 525 972 
L 525 2881 
L 113 2881 
L 113 3319 
L 525 3319 
L 525 4141 
L 1084 4478 
L 1084 3319 
L 1650 3319 
L 1650 2881 
L 1084 2881 
L 1084 941 
Q 1084 700 1114 631 
Q 1144 563 1211 522 
Q 1278 481 1403 481 
Q 1497 481 1650 503 
z
" transform="scale(0.015625)"/>
       <path id="ArialMT-6c" d="M 409 0 
L 409 4581 
L 972 4581 
L 972 0 
L 409 0 
z
" transform="scale(0.015625)"/>
       <path id="ArialMT-56" d="M 1803 0 
L 28 4581 
L 684 4581 
L 1875 1253 
Q 2019 853 2116 503 
Q 2222 878 2363 1253 
L 3600 4581 
L 4219 4581 
L 2425 0 
L 1803 0 
z
" transform="scale(0.015625)"/>
      </defs>
      <use xlink:href="#ArialMT-4d"/>
      <use xlink:href="#ArialMT-65" x="83.300781"/>
      <use xlink:href="#ArialMT-6d" x="138.916016"/>
      <use xlink:href="#ArialMT-62" x="222.216797"/>
      <use xlink:href="#ArialMT-72" x="277.832031"/>
      <use xlink:href="#ArialMT-61" x="311.132812"/>
      <use xlink:href="#ArialMT-6e" x="366.748047"/>
      <use xlink:href="#ArialMT-65" x="422.363281"/>
      <use xlink:href="#ArialMT-20" x="477.978516"/>
      <use xlink:href="#ArialMT-70" x="505.761719"/>
      <use xlink:href="#ArialMT-6f" x="561.376953"/>
      <use xlink:href="#ArialMT-74" x="616.992188"/>
      <use xlink:href="#ArialMT-65" x="644.775391"/>
      <use xlink:href="#ArialMT-6e" x="700.390625"/>
      <use xlink:href="#ArialMT-74" x="756.005859"/>
      <use xlink:href="#ArialMT-69" x="783.789062"/>
      <use xlink:href="#ArialMT-61" x="806.005859"/>
      <use xlink:href="#ArialMT-6c" x="861.621094"/>
      <use xlink:href="#ArialMT-20" x="883.837891"/>
      <use xlink:href="#ArialMT-28" x="911.621094"/>
      <use xlink:href="#ArialMT-6d" x="944.921875"/>
      <use xlink:href="#ArialMT-56" x="1028.222656"/>
      <use xlink:href="#ArialMT-29" x="1094.921875"/>
     </g>
    </g>
   </g>
   <g id="line2d_13">
    <path d="M 92.290909 430.614 
L 92.426182 433.931366 
L 92.696727 434.572634 
L 93.237818 435.022904 
L 94.049455 435.398046 
L 95.131636 435.624714 
L 96.957818 435.738063 
L 102.706909 435.766126 
L 159.927273 435.766214 
L 160.130182 417.723281 
L 160.536 406.359512 
L 161.144727 395.722772 
L 162.091636 383.511436 
L 163.850182 361.799711 
L 164.391273 351.602765 
L 164.729455 341.178215 
L 164.932364 329.116499 
L 165.067636 304.428344 
L 165.202909 147.947065 
L 165.405818 302.184521 
L 165.811636 387.906969 
L 166.014545 395.926801 
L 166.082182 395.858945 
L 166.285091 392.708206 
L 167.096727 377.531023 
L 167.840727 368.40334 
L 169.396364 351.775303 
L 169.869818 342.454001 
L 170.140364 332.363883 
L 170.275636 320.876644 
L 170.343273 307.407162 
L 170.478545 143.073646 
L 170.546182 212.28039 
L 170.749091 312.336422 
L 171.154909 387.042543 
L 171.357818 393.502974 
L 171.425455 393.492243 
L 171.560727 391.970949 
L 172.981091 369.172312 
L 174.333818 355.772565 
L 175.213091 347.033578 
L 175.551273 340.729141 
L 175.821818 330.464732 
L 175.957091 317.852051 
L 176.024727 301.542047 
L 176.16 156.684262 
L 176.362909 298.951122 
L 176.836364 386.207789 
L 177.039273 391.966808 
L 177.106909 391.932203 
L 177.309818 389.476111 
L 178.527273 369.949031 
L 180.285818 347.762271 
L 180.624 338.767267 
L 180.826909 327.640236 
L 180.962182 304.82607 
L 181.097455 148.226283 
L 181.300364 299.203454 
L 181.706182 383.422057 
L 181.909091 393.282712 
L 181.976727 393.828765 
L 182.044364 393.641848 
L 182.247273 390.779321 
L 183.329455 372.139914 
L 184.208727 361.966372 
L 185.088 351.600392 
L 185.493818 343.931268 
L 185.764364 334.231543 
L 185.899636 323.689875 
L 185.967273 312.37452 
L 186.034909 274.997964 
L 186.102545 133.27721 
L 186.170182 192.144099 
L 186.373091 309.238748 
L 186.778909 384.983606 
L 186.981818 392.836199 
L 187.049455 393.182547 
L 187.184727 392.135672 
L 187.658182 383.494503 
L 188.334545 372.973636 
L 189.349091 361.133438 
L 190.093091 351.714096 
L 190.498909 344.437403 
L 190.769455 335.858287 
L 190.972364 320.626012 
L 191.04 306.597459 
L 191.175273 144.696486 
L 191.445818 313.825202 
L 191.784 380.707446 
L 191.986909 391.797037 
L 192.122182 392.758017 
L 192.257455 391.481984 
L 193.001455 378.206461 
L 193.745455 368.192287 
L 194.421818 362.202715 
L 195.233455 354.040206 
L 195.639273 347.957076 
L 195.977455 339.50027 
L 196.180364 329.248183 
L 196.315636 310.88349 
L 196.383273 268.400513 
L 196.450909 135.868431 
L 196.518545 198.672762 
L 196.721455 310.675752 
L 197.127273 384.295634 
L 197.330182 391.752647 
L 197.397818 392.153484 
L 197.465455 391.982882 
L 197.668364 389.562053 
L 199.088727 367.574812 
L 200.644364 347.187429 
L 200.982545 337.955924 
L 201.185455 325.797534 
L 201.320727 296.570918 
L 201.388364 157.466999 
L 201.456 165.552365 
L 201.658909 304.040335 
L 202.064727 384.497506 
L 202.267636 392.758963 
L 202.335273 393.105665 
L 202.470545 392.09523 
L 202.944 383.500368 
L 203.688 371.861538 
L 204.770182 359.128454 
L 205.446545 351.075415 
L 205.852364 344.12506 
L 206.122909 335.379544 
L 206.258182 326.512061 
L 206.393455 299.216293 
L 206.528727 160.123872 
L 206.731636 301.56964 
L 207.137455 381.334372 
L 207.340364 391.692372 
L 207.475636 392.534763 
L 207.610909 391.272813 
L 208.219636 380.569603 
L 208.963636 369.98714 
L 210.789818 347.525547 
L 211.128 338.790501 
L 211.330909 327.37134 
L 211.466182 302.21583 
L 211.601455 153.649885 
L 211.804364 299.957568 
L 212.277818 385.882893 
L 212.480727 392.431512 
L 212.548364 392.65104 
L 212.683636 391.586091 
L 213.157091 383.167142 
L 213.833455 372.673488 
L 214.577455 364.395689 
L 215.389091 355.255139 
L 215.862545 347.666627 
L 216.200727 339.391965 
L 216.403636 330.564906 
L 216.538909 317.020291 
L 216.606545 297.843495 
L 216.741818 163.837785 
L 216.944727 301.366276 
L 217.418182 387.200415 
L 217.621091 392.771377 
L 217.688727 392.701886 
L 217.891636 390.160065 
L 219.109091 370.046387 
L 220.056 359.328359 
L 220.732364 350.962664 
L 221.138182 343.063512 
L 221.408727 332.962037 
L 221.544 321.698369 
L 221.611636 308.774827 
L 221.746909 139.876966 
L 221.814545 207.268244 
L 222.017455 311.663004 
L 222.423273 386.022961 
L 222.626182 393.113548 
L 222.693818 393.293706 
L 222.829091 392.086519 
L 223.370182 381.923751 
L 224.046545 371.588832 
L 226.008 345.522549 
L 226.278545 337.819615 
L 226.481455 326.003917 
L 226.616727 298.393798 
L 226.752 162.22788 
L 226.954909 302.105569 
L 227.360727 381.687708 
L 227.563636 391.726076 
L 227.698909 392.50011 
L 227.834182 391.204314 
L 229.863273 361.488774 
L 230.742545 350.55239 
L 231.148364 342.45478 
L 231.418909 331.157211 
L 231.554182 316.495552 
L 231.621818 293.873128 
L 231.689455 145.527496 
L 231.757091 169.928205 
L 231.96 304.86517 
L 232.365818 383.559211 
L 232.568727 392.374456 
L 232.636364 392.888787 
L 232.704 392.738593 
L 232.906909 390.133763 
L 234.056727 371.333112 
L 235.882909 347.437314 
L 236.221091 337.521691 
L 236.424 324.090715 
L 236.491636 313.528361 
L 236.559273 282.111983 
L 236.626909 133.781856 
L 236.694545 185.914312 
L 236.897455 308.158495 
L 237.303273 384.922152 
L 237.506182 392.677144 
L 237.573818 393.012476 
L 237.709091 392.084856 
L 238.114909 385.080026 
L 238.858909 372.971492 
L 239.738182 362.555982 
L 240.617455 352.468838 
L 241.090909 343.938687 
L 241.361455 334.543835 
L 241.496727 324.662797 
L 241.564364 314.592515 
L 241.632 286.497874 
L 241.699636 135.01243 
L 241.767273 180.555177 
L 241.970182 306.677506 
L 242.376 383.372701 
L 242.578909 391.924918 
L 242.646545 392.460612 
L 242.714182 392.359381 
L 242.917091 389.954849 
L 244.202182 369.702515 
L 245.825455 349.533163 
L 246.163636 341.456475 
L 246.366545 332.820599 
L 246.501818 320.693532 
L 246.569455 305.970978 
L 246.704727 145.594961 
L 246.907636 298.619377 
L 247.313455 381.426643 
L 247.516364 391.987204 
L 247.651636 392.894218 
L 247.786909 391.671614 
L 248.260364 383.114357 
L 248.936727 372.55102 
L 249.951273 360.987735 
L 251.168727 346.447669 
L 251.439273 339.675872 
L 251.642182 330.041666 
L 251.777455 313.93079 
L 251.845091 284.838087 
L 251.912727 135.712132 
L 251.980364 183.21141 
L 252.183273 306.300881 
L 252.589091 382.511741 
L 252.792 391.630326 
L 252.859636 392.278173 
L 252.927273 392.255691 
L 253.062545 390.966003 
L 253.671273 380.216517 
L 254.415273 369.416417 
L 256.106182 347.015038 
L 256.444364 338.177259 
L 256.647273 328.015639 
L 256.782545 309.571422 
L 256.850182 266.640405 
L 256.917818 139.731974 
L 256.985455 202.458672 
L 257.188364 308.707164 
L 257.594182 382.979937 
L 257.797091 391.23161 
L 257.864727 391.722809 
L 257.932364 391.589467 
L 258.135273 389.140023 
L 259.420364 368.981459 
L 260.976 348.155347 
L 261.314182 338.401826 
L 261.517091 325.381737 
L 261.584727 315.509151 
L 261.652364 288.764291 
L 261.72 134.169424 
L 261.787636 176.713535 
L 261.990545 307.522316 
L 262.396364 386.009554 
L 262.599273 393.680583 
L 262.666909 393.894097 
L 262.802182 392.679629 
L 263.410909 381.199135 
L 264.087273 371.326456 
L 265.981091 347.260376 
L 266.319273 337.719014 
L 266.522182 324.80596 
L 266.589818 314.863155 
L 266.657455 287.607436 
L 266.725091 135.613986 
L 266.792727 179.030027 
L 266.995636 306.217052 
L 267.401455 383.661489 
L 267.604364 392.518808 
L 267.672 393.073756 
L 267.739636 392.958303 
L 267.942545 390.420246 
L 269.16 370.52743 
L 270.174545 359.332468 
L 270.850909 350.508787 
L 271.256727 342.378078 
L 271.459636 334.903273 
L 271.594909 325.240817 
L 271.662545 315.567561 
L 271.730182 289.928916 
L 271.797818 137.094587 
L 271.865455 175.501582 
L 272.068364 305.155696 
L 272.474182 381.833032 
L 272.677091 391.319177 
L 272.812364 392.180146 
L 272.947636 391.064338 
L 273.421091 382.953332 
L 274.165091 371.674493 
L 275.044364 362.004366 
L 275.788364 353.317897 
L 276.194182 346.392679 
L 276.532364 336.462926 
L 276.735273 321.658001 
L 276.802909 308.369757 
L 276.938182 140.485674 
L 277.005818 209.232513 
L 277.208727 312.408393 
L 277.614545 385.660596 
L 277.817455 392.549452 
L 277.885091 392.742137 
L 278.020364 391.620895 
L 278.493818 383.168422 
L 279.237818 371.599979 
L 281.266909 343.822053 
L 281.537455 335.069579 
L 281.740364 318.479058 
L 281.808 301.075789 
L 281.943273 156.770509 
L 282.146182 299.923049 
L 282.619636 385.400491 
L 282.822545 392.122068 
L 282.890182 392.344227 
L 283.025455 391.309732 
L 283.431273 384.199062 
L 284.175273 372.420449 
L 285.122182 361.807637 
L 286.001455 350.82018 
L 286.474909 343.190072 
L 286.745455 334.862501 
L 286.948364 319.310495 
L 287.016 304.281734 
L 287.151273 150.272116 
L 287.354182 297.764069 
L 287.827636 386.22607 
L 288.030545 392.611615 
L 288.098182 392.657457 
L 288.233455 391.315848 
L 290.059636 363.842156 
L 290.938909 352.361245 
L 291.344727 343.63126 
L 291.615273 332.509125 
L 291.750545 319.450696 
L 291.818182 302.205614 
L 291.953455 153.587106 
L 292.156364 301.27186 
L 292.562182 383.336778 
L 292.765091 392.904015 
L 292.832727 393.448896 
L 292.900364 393.28583 
L 293.103273 390.585055 
L 294.253091 371.557057 
L 296.079273 346.921437 
L 296.417455 336.755001 
L 296.620364 322.112518 
L 296.688 309.204228 
L 296.823273 138.56704 
L 296.890909 205.915708 
L 297.093818 311.176804 
L 297.499636 384.168776 
L 297.702545 392.186749 
L 297.770182 392.67502 
L 297.837818 392.541173 
L 298.040727 390.067615 
L 299.325818 369.563753 
L 301.152 346.747297 
L 301.490182 338.389576 
L 301.693091 327.741755 
L 301.828364 306.760302 
L 301.963636 144.380317 
L 302.031273 214.746155 
L 302.234182 312.159039 
L 302.64 385.063487 
L 302.842909 392.280236 
L 302.910545 392.540422 
L 303.045818 391.500789 
L 303.519273 383.11459 
L 304.263273 371.523603 
L 305.074909 362.369667 
L 306.292364 349.808933 
L 306.698182 341.681485 
L 306.968727 330.674979 
L 307.104 316.727408 
L 307.171636 296.404037 
L 307.239273 161.16001 
L 307.306909 166.391561 
L 307.509818 302.484674 
L 307.915636 381.820454 
L 308.118545 391.26449 
L 308.186182 391.915934 
L 308.253818 391.892755 
L 308.389091 390.615454 
L 308.997818 380.077473 
L 309.809455 368.411352 
L 311.162182 350.739876 
L 311.635636 341.004577 
L 311.906182 329.143072 
L 312.041455 312.614977 
L 312.109091 281.413141 
L 312.176727 137.463809 
L 312.244364 188.549576 
L 312.447273 306.839183 
L 312.853091 382.954283 
L 313.056 391.608964 
L 313.123636 392.16216 
L 313.191273 392.077993 
L 313.394182 389.722125 
L 314.882182 366.370508 
L 316.437818 345.771235 
L 316.708364 337.433476 
L 316.911273 323.047895 
L 316.978909 310.662288 
L 317.046545 262.572748 
L 317.114182 135.248007 
L 317.181818 200.386717 
L 317.384727 311.519366 
L 317.790545 385.674389 
L 317.993455 392.860827 
L 318.061091 393.103253 
L 318.196364 392.027219 
L 318.669818 383.551486 
L 319.413818 372.003214 
L 320.563636 358.51377 
L 321.172364 349.939887 
L 321.645818 339.249017 
L 321.848727 330.731463 
L 321.984 318.102274 
L 322.051636 301.627058 
L 322.186909 156.285289 
L 322.389818 298.795718 
L 322.863273 385.690586 
L 323.066182 392.175188 
L 323.133818 392.298587 
L 323.269091 391.103738 
L 323.742545 382.534029 
L 324.418909 372.018456 
L 326.448 344.875097 
L 326.718545 336.141063 
L 326.921455 320.067013 
L 326.989091 304.217361 
L 327.124364 149.468585 
L 327.327273 299.864234 
L 327.733091 382.910621 
L 327.936 392.673455 
L 328.003636 393.260653 
L 328.071273 393.13705 
L 328.274182 390.500062 
L 329.424 371.389464 
L 330.506182 358.845089 
L 331.182545 349.772956 
L 331.520727 342.471295 
L 331.791273 330.597869 
L 331.926545 314.260741 
L 331.994182 284.129184 
L 332.061818 132.90733 
L 332.129455 182.821221 
L 332.332364 307.74423 
L 332.738182 384.407024 
L 332.941091 392.46726 
L 333.008727 392.902262 
L 333.076364 392.713078 
L 333.279273 390.110684 
L 334.496727 370.38957 
L 336.525818 343.654065 
L 336.796364 334.519482 
L 336.931636 325.501795 
L 337.066909 297.308585 
L 337.202182 164.787853 
L 337.405091 303.010546 
L 337.810909 383.550682 
L 338.013818 392.199133 
L 338.081455 392.604107 
L 338.149091 392.363634 
L 338.352 389.640376 
L 339.501818 371.076698 
L 341.666182 343.48143 
L 341.936727 335.334526 
L 342.139636 320.497761 
L 342.207273 306.834837 
L 342.342545 144.444865 
L 342.410182 213.796116 
L 342.613091 311.014102 
L 343.018909 384.155848 
L 343.221818 391.997954 
L 343.289455 392.366526 
L 343.357091 392.121775 
L 343.56 389.42778 
L 344.709818 370.722139 
L 345.724364 359.496763 
L 346.333091 352.065506 
L 346.738909 343.990814 
L 347.009455 333.906034 
L 347.144727 322.815445 
L 347.212364 310.395421 
L 347.347636 135.935153 
L 347.415273 201.279512 
L 347.618182 311.422571 
L 348.024 385.627193 
L 348.226909 392.88606 
L 348.294545 393.149352 
L 348.429818 392.114487 
L 348.835636 384.951379 
L 349.579636 372.871669 
L 350.594182 360.860036 
L 351.473455 351.001317 
L 351.879273 343.264783 
L 352.149818 333.295787 
L 352.285091 322.144282 
L 352.352727 309.549185 
L 352.488 138.180866 
L 352.555636 204.370575 
L 352.758545 311.901297 
L 353.164364 385.714072 
L 353.367273 392.438197 
L 353.434909 392.605648 
L 353.570182 391.487238 
L 354.043636 383.193063 
L 354.787636 371.641969 
L 356.884364 343.827731 
L 357.154909 336.637696 
L 357.357818 325.542558 
L 357.493091 300.969981 
L 357.628364 157.890705 
L 357.831273 298.337674 
L 358.304727 384.764517 
L 358.507636 391.598264 
L 358.575273 391.792405 
L 358.710545 390.730251 
L 359.184 382.524694 
L 359.928 371.157812 
L 360.807273 361.493383 
L 361.483636 353.733286 
L 361.957091 345.422985 
L 362.295273 335.088432 
L 362.498182 320.990713 
L 362.565818 308.936735 
L 362.633455 265.766017 
L 362.701091 141.642091 
L 362.768727 204.568268 
L 362.971636 309.395708 
L 363.377455 383.93195 
L 363.580364 391.520367 
L 363.648 391.838696 
L 363.783273 390.905821 
L 364.189091 383.967407 
L 364.933091 372.202008 
L 366.150545 357.406867 
L 366.691636 349.196906 
L 367.029818 340.88521 
L 367.232727 331.254195 
L 367.368 315.577362 
L 367.435636 288.602559 
L 367.503273 133.501796 
L 367.570909 176.445368 
L 367.773818 306.234489 
L 368.179636 383.550041 
L 368.382545 392.307676 
L 368.450182 392.864167 
L 368.517818 392.770293 
L 368.720727 390.350649 
L 370.005818 370.003072 
L 371.899636 346.895093 
L 372.237818 337.8632 
L 372.440727 325.512836 
L 372.576 293.240673 
L 372.643636 144.131834 
L 372.711273 170.843926 
L 372.914182 304.518619 
L 373.32 383.640332 
L 373.522909 392.482639 
L 373.590545 392.968371 
L 373.658182 392.799497 
L 373.861091 390.200779 
L 375.078545 370.312225 
L 375.957818 360.713845 
L 376.837091 350.492002 
L 377.175273 343.935405 
L 377.445818 334.563173 
L 377.581091 324.774511 
L 377.648727 314.869307 
L 377.716364 287.836377 
L 377.784 136.158326 
L 377.851636 178.800519 
L 378.054545 305.708223 
L 378.460364 382.565644 
L 378.663273 391.979793 
L 378.798545 392.684807 
L 378.933818 391.357974 
L 379.610182 379.215532 
L 380.354182 368.764193 
L 381.774545 350.171198 
L 382.180364 341.801224 
L 382.383273 334.045654 
L 382.518545 323.666437 
L 382.586182 312.689414 
L 382.653818 278.289686 
L 382.721455 134.10464 
L 382.789091 190.223486 
L 382.992 309.062437 
L 383.397818 385.24251 
L 383.600727 392.916332 
L 383.668364 393.202139 
L 383.803636 392.12694 
L 384.277091 383.469153 
L 385.021091 371.7874 
L 386.306182 356.090265 
L 386.914909 347.469559 
L 387.253091 339.508749 
L 387.456 330.899438 
L 387.591273 318.07348 
L 387.658909 301.082166 
L 387.794182 157.284435 
L 387.997091 299.727004 
L 388.470545 386.099393 
L 388.673455 392.265125 
L 388.741091 392.329874 
L 388.876364 391.066988 
L 389.485091 380.247883 
L 390.229091 369.307784 
L 391.784727 348.664259 
L 392.122909 340.060867 
L 392.325818 329.532028 
L 392.461091 310.254449 
L 392.596364 136.051654 
L 392.664 202.101173 
L 392.866909 312.235409 
L 393.205091 380.763397 
L 393.408 392.223951 
L 393.543273 393.276082 
L 393.678545 392.073473 
L 394.219636 382.293679 
L 394.896 372.01082 
L 396.045818 358.796793 
L 396.722182 349.659761 
L 397.128 341.753308 
L 397.398545 331.798885 
L 397.533818 320.738265 
L 397.601455 308.12199 
L 397.736727 142.60653 
L 397.804364 208.261913 
L 398.007273 309.426276 
L 398.413091 382.937502 
L 398.616 391.075367 
L 398.683636 391.559218 
L 398.751273 391.426352 
L 398.954182 389.010316 
L 400.306909 368.162395 
L 401.794909 348.747291 
L 402.133091 341.293546 
L 402.336 332.992059 
L 402.471273 321.310905 
L 402.538909 307.505961 
L 402.674182 142.262876 
L 402.741818 212.473263 
L 402.944727 312.513883 
L 403.350545 384.217233 
L 403.553455 391.585698 
L 403.621091 391.996044 
L 403.688727 391.843935 
L 403.891636 389.494386 
L 405.312 367.825467 
L 407.002909 347.102605 
L 407.341091 339.129012 
L 407.544 329.215616 
L 407.679273 311.528941 
L 407.746909 273.583673 
L 407.814545 135.706582 
L 407.882182 195.026862 
L 408.085091 308.309106 
L 408.490909 383.321887 
L 408.693818 391.964087 
L 408.761455 392.487329 
L 408.829091 392.356371 
L 409.032 389.848755 
L 410.384727 368.181197 
L 411.872727 347.79391 
L 412.210909 339.309288 
L 412.413818 329.026866 
L 412.549091 310.119099 
L 412.616727 263.251503 
L 412.684364 137.068294 
L 412.752 201.852751 
L 412.954909 310.629395 
L 413.360727 384.914662 
L 413.563636 392.602445 
L 413.631273 392.942333 
L 413.766545 391.989093 
L 414.172364 384.791679 
L 414.916364 372.773765 
L 416.945455 344.380121 
L 417.216 335.257263 
L 417.351273 326.062255 
L 417.486545 295.850268 
L 417.554182 150.5565 
L 417.621818 166.165937 
L 417.824727 303.206342 
L 418.230545 382.008806 
L 418.433455 391.752985 
L 418.568727 392.555914 
L 418.704 391.349795 
L 419.245091 381.809899 
L 419.989091 370.658001 
L 421.747636 347.604619 
L 422.085818 338.169327 
L 422.288727 326.531524 
L 422.424 300.962026 
L 422.559273 156.90543 
L 422.762182 300.818777 
L 423.168 382.255806 
L 423.370909 392.505592 
L 423.438545 393.191894 
L 423.506182 393.122234 
L 423.709091 390.4672 
L 424.791273 372.228035 
L 425.805818 360.235361 
L 426.752727 348.016998 
L 427.090909 339.878535 
L 427.293818 330.71849 
L 427.429091 316.5832 
L 427.496727 295.711795 
L 427.564364 156.876471 
L 427.632 167.471864 
L 427.834909 303.181542 
L 428.240727 384.044888 
L 428.443636 392.661644 
L 428.511273 393.032964 
L 428.646545 392.058303 
L 429.052364 384.835096 
L 429.796364 372.725934 
L 430.472727 364.103042 
L 430.675636 384.550081 
L 431.013818 395.781625 
L 431.487273 403.629029 
L 432.298909 412.82308 
L 433.245818 421.218472 
L 434.057455 426.521654 
L 434.801455 429.95057 
L 435.477818 432.102028 
L 436.154182 433.566666 
L 436.830545 434.543205 
L 437.574545 435.235411 
L 438.386182 435.69537 
L 439.400727 436.010609 
L 440.821091 436.195961 
L 443.120727 436.235826 
L 447.449455 436.058822 
L 453.063273 435.839586 
L 463.614545 435.771219 
L 498.109091 435.765066 
L 498.109091 435.765066 
" clip-path="url(#p5a961c6b2d)" style="fill: none; stroke: #000000; stroke-width: 1.5; stroke-linecap: square"/>
   </g>
   <g id="line2d_14">
    <path d="M 497.973818 408.87 
" clip-path="url(#p5a961c6b2d)" style="fill: none; stroke: #000000; stroke-width: 1.5; stroke-linecap: square"/>
   </g>
   <g id="line2d_15">
    <path d="M 430.472727 368.1 
L 430.472727 365.382 
L 430.472727 362.664 
L 430.472727 359.946 
L 430.472727 357.228 
L 430.472727 354.51 
L 430.472727 351.792 
L 430.472727 349.074 
L 430.472727 346.356 
L 430.472727 343.638 
L 430.472727 340.92 
L 430.472727 338.202 
L 430.472727 335.484 
L 430.472727 332.766 
L 430.472727 330.048 
L 430.472727 327.33 
L 430.472727 324.612 
L 430.472727 321.894 
L 430.472727 319.176 
L 430.472727 316.458 
" clip-path="url(#p5a961c6b2d)" style="fill: none; stroke: #000000; stroke-width: 1.5; stroke-linecap: square"/>
   </g>
   <g id="patch_3">
    <path d="M 72 504 
L 72 69.12 
" style="fill: none; stroke: #000000; stroke-width: 0.8; stroke-linejoin: miter; stroke-linecap: square"/>
   </g>
   <g id="patch_4">
    <path d="M 518.4 504 
L 518.4 69.12 
" style="fill: none; stroke: #000000; stroke-width: 0.8; stroke-linejoin: miter; stroke-linecap: square"/>
   </g>
   <g id="patch_5">
    <path d="M 72 504 
L 518.4 504 
" style="fill: none; stroke: #000000; stroke-width: 0.8; stroke-linejoin: miter; stroke-linecap: square"/>
   </g>
   <g id="patch_6">
    <path d="M 72 69.12 
L 518.4 69.12 
" style="fill: none; stroke: #000000; stroke-width: 0.8; stroke-linejoin: miter; stroke-linecap: square"/>
   </g>
   <g id="text_15">
    <!-- 500 ms -->
    <g transform="translate(497.973818 406.152)scale(0.22 -0.22)">
     <defs>
      <path id="ArialMT-35" d="M 266 1200 
L 856 1250 
Q 922 819 1161 601 
Q 1400 384 1738 384 
Q 2144 384 2425 690 
Q 2706 997 2706 1503 
Q 2706 1984 2436 2262 
Q 2166 2541 1728 2541 
Q 1456 2541 1237 2417 
Q 1019 2294 894 2097 
L 366 2166 
L 809 4519 
L 3088 4519 
L 3088 3981 
L 1259 3981 
L 1013 2750 
Q 1425 3038 1878 3038 
Q 2478 3038 2890 2622 
Q 3303 2206 3303 1553 
Q 3303 931 2941 478 
Q 2500 -78 1738 -78 
Q 1113 -78 717 272 
Q 322 622 266 1200 
z
" transform="scale(0.015625)"/>
      <path id="ArialMT-30" d="M 266 2259 
Q 266 3072 433 3567 
Q 600 4063 929 4331 
Q 1259 4600 1759 4600 
Q 2128 4600 2406 4451 
Q 2684 4303 2865 4023 
Q 3047 3744 3150 3342 
Q 3253 2941 3253 2259 
Q 3253 1453 3087 958 
Q 2922 463 2592 192 
Q 2263 -78 1759 -78 
Q 1097 -78 719 397 
Q 266 969 266 2259 
z
M 844 2259 
Q 844 1131 1108 757 
Q 1372 384 1759 384 
Q 2147 384 2411 759 
Q 2675 1134 2675 2259 
Q 2675 3391 2411 3762 
Q 2147 4134 1753 4134 
Q 1366 4134 1134 3806 
Q 844 3388 844 2259 
z
" transform="scale(0.015625)"/>
     </defs>
     <use xlink:href="#ArialMT-35"/>
     <use xlink:href="#ArialMT-30" x="55.615234"/>
     <use xlink:href="#ArialMT-30" x="111.230469"/>
     <use xlink:href="#ArialMT-20" x="166.845703"/>
     <use xlink:href="#ArialMT-6d" x="194.628906"/>
     <use xlink:href="#ArialMT-73" x="277.929688"/>
    </g>
   </g>
   <g id="text_16">
    <!-- 20 mV -->
    <g transform="translate(504.737455 321.894)scale(0.22 -0.22)">
     <defs>
      <path id="ArialMT-32" d="M 3222 541 
L 3222 0 
L 194 0 
Q 188 203 259 391 
Q 375 700 629 1000 
Q 884 1300 1366 1694 
Q 2113 2306 2375 2664 
Q 2638 3022 2638 3341 
Q 2638 3675 2398 3904 
Q 2159 4134 1775 4134 
Q 1369 4134 1125 3890 
Q 881 3647 878 3216 
L 300 3275 
Q 359 3922 746 4261 
Q 1134 4600 1788 4600 
Q 2447 4600 2831 4234 
Q 3216 3869 3216 3328 
Q 3216 3053 3103 2787 
Q 2991 2522 2730 2228 
Q 2469 1934 1863 1422 
Q 1356 997 1212 845 
Q 1069 694 975 541 
L 3222 541 
z
" transform="scale(0.015625)"/>
     </defs>
     <use xlink:href="#ArialMT-32"/>
     <use xlink:href="#ArialMT-30" x="55.615234"/>
     <use xlink:href="#ArialMT-20" x="111.230469"/>
     <use xlink:href="#ArialMT-6d" x="139.013672"/>
     <use xlink:href="#ArialMT-56" x="222.314453"/>
    </g>
   </g>
   <g id="text_17">
    <!--  Plotting iSPN, trace number 19545  -->
    <g transform="translate(119.725937 63.12)scale(0.22 -0.22)">
     <defs>
      <path id="ArialMT-50" d="M 494 0 
L 494 4581 
L 2222 4581 
Q 2678 4581 2919 4538 
Q 3256 4481 3484 4323 
Q 3713 4166 3852 3881 
Q 3991 3597 3991 3256 
Q 3991 2672 3619 2267 
Q 3247 1863 2275 1863 
L 1100 1863 
L 1100 0 
L 494 0 
z
M 1100 2403 
L 2284 2403 
Q 2872 2403 3119 2622 
Q 3366 2841 3366 3238 
Q 3366 3525 3220 3729 
Q 3075 3934 2838 4000 
Q 2684 4041 2272 4041 
L 1100 4041 
L 1100 2403 
z
" transform="scale(0.015625)"/>
      <path id="ArialMT-67" d="M 319 -275 
L 866 -356 
Q 900 -609 1056 -725 
Q 1266 -881 1628 -881 
Q 2019 -881 2231 -725 
Q 2444 -569 2519 -288 
Q 2563 -116 2559 434 
Q 2191 0 1641 0 
Q 956 0 581 494 
Q 206 988 206 1678 
Q 206 2153 378 2554 
Q 550 2956 876 3175 
Q 1203 3394 1644 3394 
Q 2231 3394 2613 2919 
L 2613 3319 
L 3131 3319 
L 3131 450 
Q 3131 -325 2973 -648 
Q 2816 -972 2473 -1159 
Q 2131 -1347 1631 -1347 
Q 1038 -1347 672 -1080 
Q 306 -813 319 -275 
z
M 784 1719 
Q 784 1066 1043 766 
Q 1303 466 1694 466 
Q 2081 466 2343 764 
Q 2606 1063 2606 1700 
Q 2606 2309 2336 2618 
Q 2066 2928 1684 2928 
Q 1309 2928 1046 2623 
Q 784 2319 784 1719 
z
" transform="scale(0.015625)"/>
      <path id="ArialMT-53" d="M 288 1472 
L 859 1522 
Q 900 1178 1048 958 
Q 1197 738 1509 602 
Q 1822 466 2213 466 
Q 2559 466 2825 569 
Q 3091 672 3220 851 
Q 3350 1031 3350 1244 
Q 3350 1459 3225 1620 
Q 3100 1781 2813 1891 
Q 2628 1963 1997 2114 
Q 1366 2266 1113 2400 
Q 784 2572 623 2826 
Q 463 3081 463 3397 
Q 463 3744 659 4045 
Q 856 4347 1234 4503 
Q 1613 4659 2075 4659 
Q 2584 4659 2973 4495 
Q 3363 4331 3572 4012 
Q 3781 3694 3797 3291 
L 3216 3247 
Q 3169 3681 2898 3903 
Q 2628 4125 2100 4125 
Q 1550 4125 1298 3923 
Q 1047 3722 1047 3438 
Q 1047 3191 1225 3031 
Q 1400 2872 2139 2705 
Q 2878 2538 3153 2413 
Q 3553 2228 3743 1945 
Q 3934 1663 3934 1294 
Q 3934 928 3725 604 
Q 3516 281 3123 101 
Q 2731 -78 2241 -78 
Q 1619 -78 1198 103 
Q 778 284 539 648 
Q 300 1013 288 1472 
z
" transform="scale(0.015625)"/>
      <path id="ArialMT-4e" d="M 488 0 
L 488 4581 
L 1109 4581 
L 3516 984 
L 3516 4581 
L 4097 4581 
L 4097 0 
L 3475 0 
L 1069 3600 
L 1069 0 
L 488 0 
z
" transform="scale(0.015625)"/>
      <path id="ArialMT-2c" d="M 569 0 
L 569 641 
L 1209 641 
L 1209 0 
Q 1209 -353 1084 -570 
Q 959 -788 688 -906 
L 531 -666 
Q 709 -588 793 -436 
Q 878 -284 888 0 
L 569 0 
z
" transform="scale(0.015625)"/>
      <path id="ArialMT-63" d="M 2588 1216 
L 3141 1144 
Q 3050 572 2676 248 
Q 2303 -75 1759 -75 
Q 1078 -75 664 370 
Q 250 816 250 1647 
Q 250 2184 428 2587 
Q 606 2991 970 3192 
Q 1334 3394 1763 3394 
Q 2303 3394 2647 3120 
Q 2991 2847 3088 2344 
L 2541 2259 
Q 2463 2594 2264 2762 
Q 2066 2931 1784 2931 
Q 1359 2931 1093 2626 
Q 828 2322 828 1663 
Q 828 994 1084 691 
Q 1341 388 1753 388 
Q 2084 388 2306 591 
Q 2528 794 2588 1216 
z
" transform="scale(0.015625)"/>
      <path id="ArialMT-75" d="M 2597 0 
L 2597 488 
Q 2209 -75 1544 -75 
Q 1250 -75 995 37 
Q 741 150 617 320 
Q 494 491 444 738 
Q 409 903 409 1263 
L 409 3319 
L 972 3319 
L 972 1478 
Q 972 1038 1006 884 
Q 1059 663 1231 536 
Q 1403 409 1656 409 
Q 1909 409 2131 539 
Q 2353 669 2445 892 
Q 2538 1116 2538 1541 
L 2538 3319 
L 3100 3319 
L 3100 0 
L 2597 0 
z
" transform="scale(0.015625)"/>
      <path id="ArialMT-31" d="M 2384 0 
L 1822 0 
L 1822 3584 
Q 1619 3391 1289 3197 
Q 959 3003 697 2906 
L 697 3450 
Q 1169 3672 1522 3987 
Q 1875 4303 2022 4600 
L 2384 4600 
L 2384 0 
z
" transform="scale(0.015625)"/>
      <path id="ArialMT-39" d="M 350 1059 
L 891 1109 
Q 959 728 1153 556 
Q 1347 384 1650 384 
Q 1909 384 2104 503 
Q 2300 622 2425 820 
Q 2550 1019 2634 1356 
Q 2719 1694 2719 2044 
Q 2719 2081 2716 2156 
Q 2547 1888 2255 1720 
Q 1963 1553 1622 1553 
Q 1053 1553 659 1965 
Q 266 2378 266 3053 
Q 266 3750 677 4175 
Q 1088 4600 1706 4600 
Q 2153 4600 2523 4359 
Q 2894 4119 3086 3673 
Q 3278 3228 3278 2384 
Q 3278 1506 3087 986 
Q 2897 466 2520 194 
Q 2144 -78 1638 -78 
Q 1100 -78 759 220 
Q 419 519 350 1059 
z
M 2653 3081 
Q 2653 3566 2395 3850 
Q 2138 4134 1775 4134 
Q 1400 4134 1122 3828 
Q 844 3522 844 3034 
Q 844 2597 1108 2323 
Q 1372 2050 1759 2050 
Q 2150 2050 2401 2323 
Q 2653 2597 2653 3081 
z
" transform="scale(0.015625)"/>
      <path id="ArialMT-34" d="M 2069 0 
L 2069 1097 
L 81 1097 
L 81 1613 
L 2172 4581 
L 2631 4581 
L 2631 1613 
L 3250 1613 
L 3250 1097 
L 2631 1097 
L 2631 0 
L 2069 0 
z
M 2069 1613 
L 2069 3678 
L 634 1613 
L 2069 1613 
z
" transform="scale(0.015625)"/>
     </defs>
     <use xlink:href="#ArialMT-20"/>
     <use xlink:href="#ArialMT-50" x="27.783203"/>
     <use xlink:href="#ArialMT-6c" x="94.482422"/>
     <use xlink:href="#ArialMT-6f" x="116.699219"/>
     <use xlink:href="#ArialMT-74" x="172.314453"/>
     <use xlink:href="#ArialMT-74" x="200.097656"/>
     <use xlink:href="#ArialMT-69" x="227.880859"/>
     <use xlink:href="#ArialMT-6e" x="250.097656"/>
     <use xlink:href="#ArialMT-67" x="305.712891"/>
     <use xlink:href="#ArialMT-20" x="361.328125"/>
     <use xlink:href="#ArialMT-69" x="389.111328"/>
     <use xlink:href="#ArialMT-53" x="411.328125"/>
     <use xlink:href="#ArialMT-50" x="478.027344"/>
     <use xlink:href="#ArialMT-4e" x="544.726562"/>
     <use xlink:href="#ArialMT-2c" x="616.943359"/>
     <use xlink:href="#ArialMT-20" x="644.726562"/>
     <use xlink:href="#ArialMT-74" x="672.509766"/>
     <use xlink:href="#ArialMT-72" x="700.292969"/>
     <use xlink:href="#ArialMT-61" x="733.59375"/>
     <use xlink:href="#ArialMT-63" x="789.208984"/>
     <use xlink:href="#ArialMT-65" x="839.208984"/>
     <use xlink:href="#ArialMT-20" x="894.824219"/>
     <use xlink:href="#ArialMT-6e" x="922.607422"/>
     <use xlink:href="#ArialMT-75" x="978.222656"/>
     <use xlink:href="#ArialMT-6d" x="1033.837891"/>
     <use xlink:href="#ArialMT-62" x="1117.138672"/>
     <use xlink:href="#ArialMT-65" x="1172.753906"/>
     <use xlink:href="#ArialMT-72" x="1228.369141"/>
     <use xlink:href="#ArialMT-20" x="1261.669922"/>
     <use xlink:href="#ArialMT-31" x="1289.453125"/>
     <use xlink:href="#ArialMT-39" x="1345.068359"/>
     <use xlink:href="#ArialMT-35" x="1400.683594"/>
     <use xlink:href="#ArialMT-34" x="1456.298828"/>
     <use xlink:href="#ArialMT-35" x="1511.914062"/>
     <use xlink:href="#ArialMT-20" x="1567.529297"/>
    </g>
   </g>
  </g>
 </g>
 <defs>
  <clipPath id="p5a961c6b2d">
   <rect x="72" y="69.12" width="446.4" height="434.88"/>
  </clipPath>
 </defs>
</svg>
