<?xml version="1.0" encoding="utf-8" standalone="no"?>
<!DOCTYPE svg PUBLIC "-//W3C//DTD SVG 1.1//EN"
  "http://www.w3.org/Graphics/SVG/1.1/DTD/svg11.dtd">
<svg xmlns:xlink="http://www.w3.org/1999/xlink" width="576pt" height="576pt" viewBox="0 0 576 576" xmlns="http://www.w3.org/2000/svg" version="1.1">
 <metadata>
  <rdf:RDF xmlns:dc="http://purl.org/dc/elements/1.1/" xmlns:cc="http://creativecommons.org/ns#" xmlns:rdf="http://www.w3.org/1999/02/22-rdf-syntax-ns#">
   <cc:Work>
    <dc:type rdf:resource="http://purl.org/dc/dcmitype/StillImage"/>
    <dc:date>2022-10-30T19:57:09.741251</dc:date>
    <dc:format>image/svg+xml</dc:format>
    <dc:creator>
     <cc:Agent>
      <dc:title>Matplotlib v3.5.2, https://matplotlib.org/</dc:title>
     </cc:Agent>
    </dc:creator>
   </cc:Work>
  </rdf:RDF>
 </metadata>
 <defs>
  <style type="text/css">*{stroke-linejoin: round; stroke-linecap: butt}</style>
 </defs>
 <g id="figure_1">
  <g id="patch_1">
   <path d="M 0 576 
L 576 576 
L 576 0 
L 0 0 
L 0 576 
z
" style="fill: none"/>
  </g>
  <g id="axes_1">
   <g id="patch_2">
    <path d="M 72 504 
L 518.4 504 
L 518.4 69.12 
L 72 69.12 
z
" style="fill: #ffffff"/>
   </g>
   <g id="matplotlib.axis_1">
    <g id="xtick_1">
     <g id="line2d_1">
      <defs>
       <path id="m316385b510" d="M 0 0 
L 0 3.5 
" style="stroke: #000000; stroke-width: 0.8"/>
      </defs>
      <g>
       <use xlink:href="#m316385b510" x="92.290909" y="504" style="stroke: #000000; stroke-width: 0.8"/>
      </g>
     </g>
     <g id="text_1">
      <!-- 0 -->
      <g transform="translate(85.292159 527.716563)scale(0.22 -0.22)">
       <defs>
        <path id="DejaVuSans-30" d="M 2034 4250 
Q 1547 4250 1301 3770 
Q 1056 3291 1056 2328 
Q 1056 1369 1301 889 
Q 1547 409 2034 409 
Q 2525 409 2770 889 
Q 3016 1369 3016 2328 
Q 3016 3291 2770 3770 
Q 2525 4250 2034 4250 
z
M 2034 4750 
Q 2819 4750 3233 4129 
Q 3647 3509 3647 2328 
Q 3647 1150 3233 529 
Q 2819 -91 2034 -91 
Q 1250 -91 836 529 
Q 422 1150 422 2328 
Q 422 3509 836 4129 
Q 1250 4750 2034 4750 
z
" transform="scale(0.015625)"/>
       </defs>
       <use xlink:href="#DejaVuSans-30"/>
      </g>
     </g>
    </g>
    <g id="xtick_2">
     <g id="line2d_2">
      <g>
       <use xlink:href="#m316385b510" x="227.563636" y="504" style="stroke: #000000; stroke-width: 0.8"/>
      </g>
     </g>
     <g id="text_2">
      <!-- 1000 -->
      <g transform="translate(199.568636 527.716563)scale(0.22 -0.22)">
       <defs>
        <path id="DejaVuSans-31" d="M 794 531 
L 1825 531 
L 1825 4091 
L 703 3866 
L 703 4441 
L 1819 4666 
L 2450 4666 
L 2450 531 
L 3481 531 
L 3481 0 
L 794 0 
L 794 531 
z
" transform="scale(0.015625)"/>
       </defs>
       <use xlink:href="#DejaVuSans-31"/>
       <use xlink:href="#DejaVuSans-30" x="63.623047"/>
       <use xlink:href="#DejaVuSans-30" x="127.246094"/>
       <use xlink:href="#DejaVuSans-30" x="190.869141"/>
      </g>
     </g>
    </g>
    <g id="xtick_3">
     <g id="line2d_3">
      <g>
       <use xlink:href="#m316385b510" x="362.836364" y="504" style="stroke: #000000; stroke-width: 0.8"/>
      </g>
     </g>
     <g id="text_3">
      <!-- 2000 -->
      <g transform="translate(334.841364 527.716563)scale(0.22 -0.22)">
       <defs>
        <path id="DejaVuSans-32" d="M 1228 531 
L 3431 531 
L 3431 0 
L 469 0 
L 469 531 
Q 828 903 1448 1529 
Q 2069 2156 2228 2338 
Q 2531 2678 2651 2914 
Q 2772 3150 2772 3378 
Q 2772 3750 2511 3984 
Q 2250 4219 1831 4219 
Q 1534 4219 1204 4116 
Q 875 4013 500 3803 
L 500 4441 
Q 881 4594 1212 4672 
Q 1544 4750 1819 4750 
Q 2544 4750 2975 4387 
Q 3406 4025 3406 3419 
Q 3406 3131 3298 2873 
Q 3191 2616 2906 2266 
Q 2828 2175 2409 1742 
Q 1991 1309 1228 531 
z
" transform="scale(0.015625)"/>
       </defs>
       <use xlink:href="#DejaVuSans-32"/>
       <use xlink:href="#DejaVuSans-30" x="63.623047"/>
       <use xlink:href="#DejaVuSans-30" x="127.246094"/>
       <use xlink:href="#DejaVuSans-30" x="190.869141"/>
      </g>
     </g>
    </g>
    <g id="xtick_4">
     <g id="line2d_4">
      <g>
       <use xlink:href="#m316385b510" x="498.109091" y="504" style="stroke: #000000; stroke-width: 0.8"/>
      </g>
     </g>
     <g id="text_4">
      <!-- 3000 -->
      <g transform="translate(470.114091 527.716563)scale(0.22 -0.22)">
       <defs>
        <path id="DejaVuSans-33" d="M 2597 2516 
Q 3050 2419 3304 2112 
Q 3559 1806 3559 1356 
Q 3559 666 3084 287 
Q 2609 -91 1734 -91 
Q 1441 -91 1130 -33 
Q 819 25 488 141 
L 488 750 
Q 750 597 1062 519 
Q 1375 441 1716 441 
Q 2309 441 2620 675 
Q 2931 909 2931 1356 
Q 2931 1769 2642 2001 
Q 2353 2234 1838 2234 
L 1294 2234 
L 1294 2753 
L 1863 2753 
Q 2328 2753 2575 2939 
Q 2822 3125 2822 3475 
Q 2822 3834 2567 4026 
Q 2313 4219 1838 4219 
Q 1578 4219 1281 4162 
Q 984 4106 628 3988 
L 628 4550 
Q 988 4650 1302 4700 
Q 1616 4750 1894 4750 
Q 2613 4750 3031 4423 
Q 3450 4097 3450 3541 
Q 3450 3153 3228 2886 
Q 3006 2619 2597 2516 
z
" transform="scale(0.015625)"/>
       </defs>
       <use xlink:href="#DejaVuSans-33"/>
       <use xlink:href="#DejaVuSans-30" x="63.623047"/>
       <use xlink:href="#DejaVuSans-30" x="127.246094"/>
       <use xlink:href="#DejaVuSans-30" x="190.869141"/>
      </g>
     </g>
    </g>
    <g id="text_5">
     <!-- Time(ms) -->
     <g transform="translate(249.182187 552.307188)scale(0.22 -0.22)">
      <defs>
       <path id="ArialMT-54" d="M 1659 0 
L 1659 4041 
L 150 4041 
L 150 4581 
L 3781 4581 
L 3781 4041 
L 2266 4041 
L 2266 0 
L 1659 0 
z
" transform="scale(0.015625)"/>
       <path id="ArialMT-69" d="M 425 3934 
L 425 4581 
L 988 4581 
L 988 3934 
L 425 3934 
z
M 425 0 
L 425 3319 
L 988 3319 
L 988 0 
L 425 0 
z
" transform="scale(0.015625)"/>
       <path id="ArialMT-6d" d="M 422 0 
L 422 3319 
L 925 3319 
L 925 2853 
Q 1081 3097 1340 3245 
Q 1600 3394 1931 3394 
Q 2300 3394 2536 3241 
Q 2772 3088 2869 2813 
Q 3263 3394 3894 3394 
Q 4388 3394 4653 3120 
Q 4919 2847 4919 2278 
L 4919 0 
L 4359 0 
L 4359 2091 
Q 4359 2428 4304 2576 
Q 4250 2725 4106 2815 
Q 3963 2906 3769 2906 
Q 3419 2906 3187 2673 
Q 2956 2441 2956 1928 
L 2956 0 
L 2394 0 
L 2394 2156 
Q 2394 2531 2256 2718 
Q 2119 2906 1806 2906 
Q 1569 2906 1367 2781 
Q 1166 2656 1075 2415 
Q 984 2175 984 1722 
L 984 0 
L 422 0 
z
" transform="scale(0.015625)"/>
       <path id="ArialMT-65" d="M 2694 1069 
L 3275 997 
Q 3138 488 2766 206 
Q 2394 -75 1816 -75 
Q 1088 -75 661 373 
Q 234 822 234 1631 
Q 234 2469 665 2931 
Q 1097 3394 1784 3394 
Q 2450 3394 2872 2941 
Q 3294 2488 3294 1666 
Q 3294 1616 3291 1516 
L 816 1516 
Q 847 969 1125 678 
Q 1403 388 1819 388 
Q 2128 388 2347 550 
Q 2566 713 2694 1069 
z
M 847 1978 
L 2700 1978 
Q 2663 2397 2488 2606 
Q 2219 2931 1791 2931 
Q 1403 2931 1139 2672 
Q 875 2413 847 1978 
z
" transform="scale(0.015625)"/>
       <path id="ArialMT-28" d="M 1497 -1347 
Q 1031 -759 709 28 
Q 388 816 388 1659 
Q 388 2403 628 3084 
Q 909 3875 1497 4659 
L 1900 4659 
Q 1522 4009 1400 3731 
Q 1209 3300 1100 2831 
Q 966 2247 966 1656 
Q 966 153 1900 -1347 
L 1497 -1347 
z
" transform="scale(0.015625)"/>
       <path id="ArialMT-73" d="M 197 991 
L 753 1078 
Q 800 744 1014 566 
Q 1228 388 1613 388 
Q 2000 388 2187 545 
Q 2375 703 2375 916 
Q 2375 1106 2209 1216 
Q 2094 1291 1634 1406 
Q 1016 1563 777 1677 
Q 538 1791 414 1992 
Q 291 2194 291 2438 
Q 291 2659 392 2848 
Q 494 3038 669 3163 
Q 800 3259 1026 3326 
Q 1253 3394 1513 3394 
Q 1903 3394 2198 3281 
Q 2494 3169 2634 2976 
Q 2775 2784 2828 2463 
L 2278 2388 
Q 2241 2644 2061 2787 
Q 1881 2931 1553 2931 
Q 1166 2931 1000 2803 
Q 834 2675 834 2503 
Q 834 2394 903 2306 
Q 972 2216 1119 2156 
Q 1203 2125 1616 2013 
Q 2213 1853 2448 1751 
Q 2684 1650 2818 1456 
Q 2953 1263 2953 975 
Q 2953 694 2789 445 
Q 2625 197 2315 61 
Q 2006 -75 1616 -75 
Q 969 -75 630 194 
Q 291 463 197 991 
z
" transform="scale(0.015625)"/>
       <path id="ArialMT-29" d="M 791 -1347 
L 388 -1347 
Q 1322 153 1322 1656 
Q 1322 2244 1188 2822 
Q 1081 3291 891 3722 
Q 769 4003 388 4659 
L 791 4659 
Q 1378 3875 1659 3084 
Q 1900 2403 1900 1659 
Q 1900 816 1576 28 
Q 1253 -759 791 -1347 
z
" transform="scale(0.015625)"/>
      </defs>
      <use xlink:href="#ArialMT-54"/>
      <use xlink:href="#ArialMT-69" x="57.333984"/>
      <use xlink:href="#ArialMT-6d" x="79.550781"/>
      <use xlink:href="#ArialMT-65" x="162.851562"/>
      <use xlink:href="#ArialMT-28" x="218.466797"/>
      <use xlink:href="#ArialMT-6d" x="251.767578"/>
      <use xlink:href="#ArialMT-73" x="335.068359"/>
      <use xlink:href="#ArialMT-29" x="385.068359"/>
     </g>
    </g>
   </g>
   <g id="matplotlib.axis_2">
    <g id="ytick_1">
     <g id="line2d_5">
      <defs>
       <path id="m0c1edf32bb" d="M 0 0 
L -3.5 0 
" style="stroke: #000000; stroke-width: 0.8"/>
      </defs>
      <g>
       <use xlink:href="#m0c1edf32bb" x="72" y="476.82" style="stroke: #000000; stroke-width: 0.8"/>
      </g>
     </g>
     <g id="text_6">
      <!-- −100 -->
      <g transform="translate(4.572187 485.178281)scale(0.22 -0.22)">
       <defs>
        <path id="DejaVuSans-2212" d="M 678 2272 
L 4684 2272 
L 4684 1741 
L 678 1741 
L 678 2272 
z
" transform="scale(0.015625)"/>
       </defs>
       <use xlink:href="#DejaVuSans-2212"/>
       <use xlink:href="#DejaVuSans-31" x="83.789062"/>
       <use xlink:href="#DejaVuSans-30" x="147.412109"/>
       <use xlink:href="#DejaVuSans-30" x="211.035156"/>
      </g>
     </g>
    </g>
    <g id="ytick_2">
     <g id="line2d_6">
      <g>
       <use xlink:href="#m0c1edf32bb" x="72" y="422.46" style="stroke: #000000; stroke-width: 0.8"/>
      </g>
     </g>
     <g id="text_7">
      <!-- −80 -->
      <g transform="translate(18.569688 430.818281)scale(0.22 -0.22)">
       <defs>
        <path id="DejaVuSans-38" d="M 2034 2216 
Q 1584 2216 1326 1975 
Q 1069 1734 1069 1313 
Q 1069 891 1326 650 
Q 1584 409 2034 409 
Q 2484 409 2743 651 
Q 3003 894 3003 1313 
Q 3003 1734 2745 1975 
Q 2488 2216 2034 2216 
z
M 1403 2484 
Q 997 2584 770 2862 
Q 544 3141 544 3541 
Q 544 4100 942 4425 
Q 1341 4750 2034 4750 
Q 2731 4750 3128 4425 
Q 3525 4100 3525 3541 
Q 3525 3141 3298 2862 
Q 3072 2584 2669 2484 
Q 3125 2378 3379 2068 
Q 3634 1759 3634 1313 
Q 3634 634 3220 271 
Q 2806 -91 2034 -91 
Q 1263 -91 848 271 
Q 434 634 434 1313 
Q 434 1759 690 2068 
Q 947 2378 1403 2484 
z
M 1172 3481 
Q 1172 3119 1398 2916 
Q 1625 2713 2034 2713 
Q 2441 2713 2670 2916 
Q 2900 3119 2900 3481 
Q 2900 3844 2670 4047 
Q 2441 4250 2034 4250 
Q 1625 4250 1398 4047 
Q 1172 3844 1172 3481 
z
" transform="scale(0.015625)"/>
       </defs>
       <use xlink:href="#DejaVuSans-2212"/>
       <use xlink:href="#DejaVuSans-38" x="83.789062"/>
       <use xlink:href="#DejaVuSans-30" x="147.412109"/>
      </g>
     </g>
    </g>
    <g id="ytick_3">
     <g id="line2d_7">
      <g>
       <use xlink:href="#m0c1edf32bb" x="72" y="368.1" style="stroke: #000000; stroke-width: 0.8"/>
      </g>
     </g>
     <g id="text_8">
      <!-- −60 -->
      <g transform="translate(18.569688 376.458281)scale(0.22 -0.22)">
       <defs>
        <path id="DejaVuSans-36" d="M 2113 2584 
Q 1688 2584 1439 2293 
Q 1191 2003 1191 1497 
Q 1191 994 1439 701 
Q 1688 409 2113 409 
Q 2538 409 2786 701 
Q 3034 994 3034 1497 
Q 3034 2003 2786 2293 
Q 2538 2584 2113 2584 
z
M 3366 4563 
L 3366 3988 
Q 3128 4100 2886 4159 
Q 2644 4219 2406 4219 
Q 1781 4219 1451 3797 
Q 1122 3375 1075 2522 
Q 1259 2794 1537 2939 
Q 1816 3084 2150 3084 
Q 2853 3084 3261 2657 
Q 3669 2231 3669 1497 
Q 3669 778 3244 343 
Q 2819 -91 2113 -91 
Q 1303 -91 875 529 
Q 447 1150 447 2328 
Q 447 3434 972 4092 
Q 1497 4750 2381 4750 
Q 2619 4750 2861 4703 
Q 3103 4656 3366 4563 
z
" transform="scale(0.015625)"/>
       </defs>
       <use xlink:href="#DejaVuSans-2212"/>
       <use xlink:href="#DejaVuSans-36" x="83.789062"/>
       <use xlink:href="#DejaVuSans-30" x="147.412109"/>
      </g>
     </g>
    </g>
    <g id="ytick_4">
     <g id="line2d_8">
      <g>
       <use xlink:href="#m0c1edf32bb" x="72" y="313.74" style="stroke: #000000; stroke-width: 0.8"/>
      </g>
     </g>
     <g id="text_9">
      <!-- −40 -->
      <g transform="translate(18.569688 322.098281)scale(0.22 -0.22)">
       <defs>
        <path id="DejaVuSans-34" d="M 2419 4116 
L 825 1625 
L 2419 1625 
L 2419 4116 
z
M 2253 4666 
L 3047 4666 
L 3047 1625 
L 3713 1625 
L 3713 1100 
L 3047 1100 
L 3047 0 
L 2419 0 
L 2419 1100 
L 313 1100 
L 313 1709 
L 2253 4666 
z
" transform="scale(0.015625)"/>
       </defs>
       <use xlink:href="#DejaVuSans-2212"/>
       <use xlink:href="#DejaVuSans-34" x="83.789062"/>
       <use xlink:href="#DejaVuSans-30" x="147.412109"/>
      </g>
     </g>
    </g>
    <g id="ytick_5">
     <g id="line2d_9">
      <g>
       <use xlink:href="#m0c1edf32bb" x="72" y="259.38" style="stroke: #000000; stroke-width: 0.8"/>
      </g>
     </g>
     <g id="text_10">
      <!-- −20 -->
      <g transform="translate(18.569688 267.738281)scale(0.22 -0.22)">
       <use xlink:href="#DejaVuSans-2212"/>
       <use xlink:href="#DejaVuSans-32" x="83.789062"/>
       <use xlink:href="#DejaVuSans-30" x="147.412109"/>
      </g>
     </g>
    </g>
    <g id="ytick_6">
     <g id="line2d_10">
      <g>
       <use xlink:href="#m0c1edf32bb" x="72" y="205.02" style="stroke: #000000; stroke-width: 0.8"/>
      </g>
     </g>
     <g id="text_11">
      <!-- 0 -->
      <g transform="translate(51.0025 213.378281)scale(0.22 -0.22)">
       <use xlink:href="#DejaVuSans-30"/>
      </g>
     </g>
    </g>
    <g id="ytick_7">
     <g id="line2d_11">
      <g>
       <use xlink:href="#m0c1edf32bb" x="72" y="150.66" style="stroke: #000000; stroke-width: 0.8"/>
      </g>
     </g>
     <g id="text_12">
      <!-- 20 -->
      <g transform="translate(37.005 159.018281)scale(0.22 -0.22)">
       <use xlink:href="#DejaVuSans-32"/>
       <use xlink:href="#DejaVuSans-30" x="63.623047"/>
      </g>
     </g>
    </g>
    <g id="ytick_8">
     <g id="line2d_12">
      <g>
       <use xlink:href="#m0c1edf32bb" x="72" y="96.3" style="stroke: #000000; stroke-width: 0.8"/>
      </g>
     </g>
     <g id="text_13">
      <!-- 40 -->
      <g transform="translate(37.005 104.658281)scale(0.22 -0.22)">
       <use xlink:href="#DejaVuSans-34"/>
       <use xlink:href="#DejaVuSans-30" x="63.623047"/>
      </g>
     </g>
    </g>
    <g id="text_14">
     <!-- Membrane potential (mV) -->
     <g transform="translate(-4.058125 410.655469)rotate(-90)scale(0.22 -0.22)">
      <defs>
       <path id="ArialMT-4d" d="M 475 0 
L 475 4581 
L 1388 4581 
L 2472 1338 
Q 2622 884 2691 659 
Q 2769 909 2934 1394 
L 4031 4581 
L 4847 4581 
L 4847 0 
L 4263 0 
L 4263 3834 
L 2931 0 
L 2384 0 
L 1059 3900 
L 1059 0 
L 475 0 
z
" transform="scale(0.015625)"/>
       <path id="ArialMT-62" d="M 941 0 
L 419 0 
L 419 4581 
L 981 4581 
L 981 2947 
Q 1338 3394 1891 3394 
Q 2197 3394 2470 3270 
Q 2744 3147 2920 2923 
Q 3097 2700 3197 2384 
Q 3297 2069 3297 1709 
Q 3297 856 2875 390 
Q 2453 -75 1863 -75 
Q 1275 -75 941 416 
L 941 0 
z
M 934 1684 
Q 934 1088 1097 822 
Q 1363 388 1816 388 
Q 2184 388 2453 708 
Q 2722 1028 2722 1663 
Q 2722 2313 2464 2622 
Q 2206 2931 1841 2931 
Q 1472 2931 1203 2611 
Q 934 2291 934 1684 
z
" transform="scale(0.015625)"/>
       <path id="ArialMT-72" d="M 416 0 
L 416 3319 
L 922 3319 
L 922 2816 
Q 1116 3169 1280 3281 
Q 1444 3394 1641 3394 
Q 1925 3394 2219 3213 
L 2025 2691 
Q 1819 2813 1613 2813 
Q 1428 2813 1281 2702 
Q 1134 2591 1072 2394 
Q 978 2094 978 1738 
L 978 0 
L 416 0 
z
" transform="scale(0.015625)"/>
       <path id="ArialMT-61" d="M 2588 409 
Q 2275 144 1986 34 
Q 1697 -75 1366 -75 
Q 819 -75 525 192 
Q 231 459 231 875 
Q 231 1119 342 1320 
Q 453 1522 633 1644 
Q 813 1766 1038 1828 
Q 1203 1872 1538 1913 
Q 2219 1994 2541 2106 
Q 2544 2222 2544 2253 
Q 2544 2597 2384 2738 
Q 2169 2928 1744 2928 
Q 1347 2928 1158 2789 
Q 969 2650 878 2297 
L 328 2372 
Q 403 2725 575 2942 
Q 747 3159 1072 3276 
Q 1397 3394 1825 3394 
Q 2250 3394 2515 3294 
Q 2781 3194 2906 3042 
Q 3031 2891 3081 2659 
Q 3109 2516 3109 2141 
L 3109 1391 
Q 3109 606 3145 398 
Q 3181 191 3288 0 
L 2700 0 
Q 2613 175 2588 409 
z
M 2541 1666 
Q 2234 1541 1622 1453 
Q 1275 1403 1131 1340 
Q 988 1278 909 1158 
Q 831 1038 831 891 
Q 831 666 1001 516 
Q 1172 366 1500 366 
Q 1825 366 2078 508 
Q 2331 650 2450 897 
Q 2541 1088 2541 1459 
L 2541 1666 
z
" transform="scale(0.015625)"/>
       <path id="ArialMT-6e" d="M 422 0 
L 422 3319 
L 928 3319 
L 928 2847 
Q 1294 3394 1984 3394 
Q 2284 3394 2536 3286 
Q 2788 3178 2913 3003 
Q 3038 2828 3088 2588 
Q 3119 2431 3119 2041 
L 3119 0 
L 2556 0 
L 2556 2019 
Q 2556 2363 2490 2533 
Q 2425 2703 2258 2804 
Q 2091 2906 1866 2906 
Q 1506 2906 1245 2678 
Q 984 2450 984 1813 
L 984 0 
L 422 0 
z
" transform="scale(0.015625)"/>
       <path id="ArialMT-20" transform="scale(0.015625)"/>
       <path id="ArialMT-70" d="M 422 -1272 
L 422 3319 
L 934 3319 
L 934 2888 
Q 1116 3141 1344 3267 
Q 1572 3394 1897 3394 
Q 2322 3394 2647 3175 
Q 2972 2956 3137 2557 
Q 3303 2159 3303 1684 
Q 3303 1175 3120 767 
Q 2938 359 2589 142 
Q 2241 -75 1856 -75 
Q 1575 -75 1351 44 
Q 1128 163 984 344 
L 984 -1272 
L 422 -1272 
z
M 931 1641 
Q 931 1000 1190 694 
Q 1450 388 1819 388 
Q 2194 388 2461 705 
Q 2728 1022 2728 1688 
Q 2728 2322 2467 2637 
Q 2206 2953 1844 2953 
Q 1484 2953 1207 2617 
Q 931 2281 931 1641 
z
" transform="scale(0.015625)"/>
       <path id="ArialMT-6f" d="M 213 1659 
Q 213 2581 725 3025 
Q 1153 3394 1769 3394 
Q 2453 3394 2887 2945 
Q 3322 2497 3322 1706 
Q 3322 1066 3130 698 
Q 2938 331 2570 128 
Q 2203 -75 1769 -75 
Q 1072 -75 642 372 
Q 213 819 213 1659 
z
M 791 1659 
Q 791 1022 1069 705 
Q 1347 388 1769 388 
Q 2188 388 2466 706 
Q 2744 1025 2744 1678 
Q 2744 2294 2464 2611 
Q 2184 2928 1769 2928 
Q 1347 2928 1069 2612 
Q 791 2297 791 1659 
z
" transform="scale(0.015625)"/>
       <path id="ArialMT-74" d="M 1650 503 
L 1731 6 
Q 1494 -44 1306 -44 
Q 1000 -44 831 53 
Q 663 150 594 308 
Q 525 466 525 972 
L 525 2881 
L 113 2881 
L 113 3319 
L 525 3319 
L 525 4141 
L 1084 4478 
L 1084 3319 
L 1650 3319 
L 1650 2881 
L 1084 2881 
L 1084 941 
Q 1084 700 1114 631 
Q 1144 563 1211 522 
Q 1278 481 1403 481 
Q 1497 481 1650 503 
z
" transform="scale(0.015625)"/>
       <path id="ArialMT-6c" d="M 409 0 
L 409 4581 
L 972 4581 
L 972 0 
L 409 0 
z
" transform="scale(0.015625)"/>
       <path id="ArialMT-56" d="M 1803 0 
L 28 4581 
L 684 4581 
L 1875 1253 
Q 2019 853 2116 503 
Q 2222 878 2363 1253 
L 3600 4581 
L 4219 4581 
L 2425 0 
L 1803 0 
z
" transform="scale(0.015625)"/>
      </defs>
      <use xlink:href="#ArialMT-4d"/>
      <use xlink:href="#ArialMT-65" x="83.300781"/>
      <use xlink:href="#ArialMT-6d" x="138.916016"/>
      <use xlink:href="#ArialMT-62" x="222.216797"/>
      <use xlink:href="#ArialMT-72" x="277.832031"/>
      <use xlink:href="#ArialMT-61" x="311.132812"/>
      <use xlink:href="#ArialMT-6e" x="366.748047"/>
      <use xlink:href="#ArialMT-65" x="422.363281"/>
      <use xlink:href="#ArialMT-20" x="477.978516"/>
      <use xlink:href="#ArialMT-70" x="505.761719"/>
      <use xlink:href="#ArialMT-6f" x="561.376953"/>
      <use xlink:href="#ArialMT-74" x="616.992188"/>
      <use xlink:href="#ArialMT-65" x="644.775391"/>
      <use xlink:href="#ArialMT-6e" x="700.390625"/>
      <use xlink:href="#ArialMT-74" x="756.005859"/>
      <use xlink:href="#ArialMT-69" x="783.789062"/>
      <use xlink:href="#ArialMT-61" x="806.005859"/>
      <use xlink:href="#ArialMT-6c" x="861.621094"/>
      <use xlink:href="#ArialMT-20" x="883.837891"/>
      <use xlink:href="#ArialMT-28" x="911.621094"/>
      <use xlink:href="#ArialMT-6d" x="944.921875"/>
      <use xlink:href="#ArialMT-56" x="1028.222656"/>
      <use xlink:href="#ArialMT-29" x="1094.921875"/>
     </g>
    </g>
   </g>
   <g id="line2d_13">
    <path d="M 92.290909 438.768 
L 92.561455 443.476134 
L 93.034909 447.885304 
L 93.576 451.011812 
L 94.117091 452.897497 
L 94.658182 454.012556 
L 95.199273 454.661369 
L 95.808 455.069012 
L 96.619636 455.334129 
L 97.904727 455.482951 
L 100.880727 455.535515 
L 141.394909 455.539304 
L 159.927273 455.539484 
L 160.130182 433.6369 
L 160.603636 411.58959 
L 161.144727 396.060248 
L 161.821091 383.269376 
L 162.768 370.100785 
L 163.782545 355.599948 
L 164.188364 347.027238 
L 164.458909 337.312082 
L 164.661818 319.221901 
L 164.729455 298.727488 
L 164.797091 152.073714 
L 164.864727 217.857268 
L 165.067636 363.840915 
L 165.270545 389.300667 
L 165.473455 394.245996 
L 165.541091 394.40245 
L 165.676364 393.630813 
L 166.082182 388.089068 
L 166.758545 379.748741 
L 167.570182 372.533282 
L 168.449455 366.481424 
L 171.222545 352.642563 
L 171.628364 350.679256 
L 171.966545 347.951927 
L 172.304727 343.420507 
L 172.575273 336.742435 
L 172.778182 325.633413 
L 172.913455 298.760937 
L 172.981091 173.450704 
L 173.048727 193.52027 
L 173.251636 341.762594 
L 173.522182 383.290918 
L 173.792727 393.411604 
L 173.928 394.08362 
L 174.063273 393.413885 
L 174.401455 389.255158 
L 175.280727 377.671547 
L 175.957091 372.020089 
L 177.242182 363.988862 
L 179.271273 350.55103 
L 179.677091 345.708192 
L 180.015273 338.886342 
L 180.218182 330.732007 
L 180.353455 318.173591 
L 180.421091 301.314077 
L 180.556364 185.966482 
L 180.759273 341.671884 
L 181.029818 383.360726 
L 181.232727 391.862454 
L 181.435636 393.294366 
L 181.570909 392.478244 
L 181.976727 387.51733 
L 182.856 377.210463 
L 183.735273 369.679765 
L 184.682182 363.261714 
L 185.426182 360.482573 
L 185.967273 357.556624 
L 186.778909 351.626265 
L 187.184727 347.120239 
L 187.522909 341.231327 
L 187.793455 331.789708 
L 187.928727 320.711459 
L 187.996364 308.015919 
L 188.131636 159.294003 
L 188.334545 335.799651 
L 188.605091 380.705766 
L 188.875636 391.475405 
L 189.010909 392.388397 
L 189.078545 392.311456 
L 189.281455 390.894487 
L 190.025455 382.042033 
L 190.837091 373.747661 
L 191.648727 367.581367 
L 192.730909 361.156308 
L 193.542545 354.845576 
L 194.151273 348.364747 
L 194.557091 342.104048 
L 194.827636 333.892719 
L 194.962909 325.383347 
L 195.098182 298.523077 
L 195.165818 175.700355 
L 195.233455 197.142006 
L 195.436364 343.347137 
L 195.706909 382.199392 
L 195.977455 391.859801 
L 196.112727 392.686543 
L 196.180364 392.579617 
L 196.383273 391.002061 
L 197.262545 379.687349 
L 197.803636 374.316014 
L 198.615273 368.712103 
L 200.103273 358.522615 
L 200.914909 352.349739 
L 201.388364 346.520009 
L 201.726545 339.002387 
L 201.929455 329.447631 
L 202.064727 312.136621 
L 202.132364 274.415526 
L 202.2 145.797753 
L 202.402909 335.258064 
L 202.673455 382.346548 
L 202.944 393.302518 
L 203.079273 394.173948 
L 203.146909 394.058551 
L 203.349818 392.435289 
L 205.243636 371.328156 
L 206.325818 363.736845 
L 206.799273 361.761024 
L 207.340364 359.094255 
L 207.881455 355.205995 
L 208.354909 350.421381 
L 209.031273 340.447997 
L 209.301818 331.835526 
L 209.437091 321.827895 
L 209.504727 310.862025 
L 209.572364 275.668632 
L 209.64 151.181696 
L 209.842909 330.6416 
L 210.113455 377.556543 
L 210.384 389.984374 
L 210.586909 391.446996 
L 210.722182 390.848557 
L 211.060364 387.244121 
L 212.074909 375.597679 
L 213.089455 367.05485 
L 213.765818 362.791746 
L 215.050909 355.126128 
L 215.659636 349.658062 
L 216.065455 344.147275 
L 216.336 337.990083 
L 216.538909 328.886708 
L 216.674182 312.843495 
L 216.741818 282.650308 
L 216.809455 146.821708 
L 217.012364 330.309897 
L 217.282909 379.129976 
L 217.553455 391.132166 
L 217.756364 392.30476 
L 217.891636 391.606472 
L 218.229818 387.91939 
L 219.379636 374.731723 
L 220.258909 367.411995 
L 221.273455 360.824245 
L 222.558545 352.067143 
L 223.032 347.262159 
L 223.370182 341.356021 
L 223.640727 332.212016 
L 223.776 322.010746 
L 223.843636 310.772678 
L 223.911273 272.993437 
L 223.978909 150.413846 
L 224.181818 332.506447 
L 224.452364 379.294041 
L 224.722909 391.053257 
L 224.925818 392.249437 
L 225.061091 391.538634 
L 225.399273 387.736099 
L 226.481455 375.161759 
L 227.428364 367.117588 
L 228.916364 354.881507 
L 229.863273 343.769173 
L 230.201455 337.747997 
L 230.472 328.182439 
L 230.607273 315.839093 
L 230.674909 299.366828 
L 230.810182 191.869653 
L 231.013091 335.055443 
L 231.283636 374.699615 
L 231.554182 386.352099 
L 231.757091 388.141702 
L 231.824727 388.109269 
L 231.96 387.483554 
L 232.298182 384.288958 
L 233.718545 369.731266 
L 236.356364 346.661234 
L 236.829818 340.053559 
L 237.100364 332.903365 
L 237.303273 318.685011 
L 237.370909 305.046241 
L 237.506182 170.085285 
L 237.709091 332.770793 
L 237.979636 375.345743 
L 238.250182 387.671985 
L 238.453091 389.620333 
L 238.520727 389.606802 
L 238.656 388.978808 
L 238.994182 385.487256 
L 240.144 372.851867 
L 241.023273 366.013569 
L 242.376 357.201436 
L 243.052364 352.524685 
L 243.458182 348.621326 
L 243.796364 343.311911 
L 244.066909 335.293472 
L 244.202182 327.089257 
L 244.337455 302.628567 
L 244.472727 182.027273 
L 244.675636 343.152513 
L 244.946182 384.081777 
L 245.149091 392.327753 
L 245.352 393.813947 
L 245.487273 393.09444 
L 245.825455 389.1037 
L 246.84 376.640443 
L 247.719273 368.955852 
L 249.816 351.636858 
L 250.56 344.616698 
L 251.101091 337.681943 
L 251.304 332.543419 
L 251.506909 320.1621 
L 251.574545 309.572058 
L 251.642182 277.875405 
L 251.709818 158.668699 
L 251.912727 323.876131 
L 252.183273 370.408166 
L 252.453818 385.298686 
L 252.656727 388.035076 
L 252.724364 388.163438 
L 252.859636 387.735017 
L 253.130182 385.413143 
L 254.888727 367.87385 
L 255.903273 360.673951 
L 256.647273 355.594155 
L 257.188364 350.384308 
L 257.864727 340.735493 
L 258.135273 333.693275 
L 258.338182 319.90037 
L 258.405818 307.129981 
L 258.541091 162.571218 
L 258.744 332.564638 
L 259.014545 376.049576 
L 259.285091 388.363372 
L 259.488 390.265016 
L 259.555636 390.237014 
L 259.690909 389.601145 
L 260.029091 386.256085 
L 261.449455 370.814695 
L 264.222545 346.210913 
L 264.560727 339.680993 
L 264.763636 332.220375 
L 264.898909 321.549134 
L 264.966545 309.287766 
L 265.101818 155.319409 
L 265.304727 335.420112 
L 265.575273 379.734935 
L 265.845818 390.940534 
L 266.048727 392.247438 
L 266.184 391.671768 
L 266.522182 388.091629 
L 267.739636 373.953439 
L 268.618909 366.664661 
L 270.715636 351.38443 
L 271.121455 346.103872 
L 271.459636 339.689017 
L 271.662545 332.739969 
L 271.797818 323.374449 
L 271.865455 313.70657 
L 271.933091 287.324202 
L 272.000727 149.545058 
L 272.068364 228.694056 
L 272.271273 347.140832 
L 272.541818 382.801032 
L 272.744727 389.997564 
L 272.947636 391.278776 
L 273.082909 390.660752 
L 273.421091 387.18361 
L 274.706182 372.809059 
L 275.653091 365.162201 
L 276.870545 355.930404 
L 277.682182 347.185064 
L 278.020364 341.738483 
L 278.290909 333.546061 
L 278.426182 324.710649 
L 278.561455 294.025192 
L 278.629091 156.498514 
L 278.696727 211.500779 
L 278.899636 344.926363 
L 279.170182 381.84868 
L 279.440727 391.040364 
L 279.576 391.830449 
L 279.643636 391.744309 
L 279.846545 390.342071 
L 280.387636 383.615893 
L 281.266909 373.718079 
L 282.146182 366.455234 
L 283.634182 354.771191 
L 284.445818 346.351912 
L 284.784 340.193629 
L 284.986909 333.153272 
L 285.122182 323.469111 
L 285.189818 313.178434 
L 285.257455 282.61939 
L 285.325091 145.419191 
L 285.528 330.92238 
L 285.798545 378.906826 
L 286.069091 390.845614 
L 286.272 392.116227 
L 286.407273 391.453222 
L 286.745455 387.716936 
L 287.895273 374.260849 
L 288.909818 365.673651 
L 291.209455 347.411934 
L 291.547636 341.453788 
L 291.818182 333.326136 
L 292.021091 318.457555 
L 292.088727 304.08872 
L 292.224 174.671534 
L 292.426909 336.086806 
L 292.697455 377.550446 
L 292.968 388.297434 
L 293.170909 389.442393 
L 293.306182 388.786998 
L 293.644364 385.226477 
L 294.658909 374.056941 
L 295.673455 365.692895 
L 297.432 352.408459 
L 297.905455 346.21262 
L 298.176 340.232481 
L 298.378909 331.915156 
L 298.514182 319.152263 
L 298.581818 301.742502 
L 298.649455 182.740366 
L 298.717091 186.669769 
L 298.92 344.492889 
L 299.190545 383.550652 
L 299.461091 392.669719 
L 299.596364 393.408209 
L 299.664 393.294223 
L 299.866909 391.83725 
L 300.408 385.050134 
L 301.219636 375.371751 
L 302.098909 367.831718 
L 304.330909 349.887852 
L 304.669091 344.451662 
L 304.939636 336.824007 
L 305.142545 323.601154 
L 305.210182 312.703967 
L 305.277818 277.501475 
L 305.345455 144.622203 
L 305.548364 335.298662 
L 305.818909 382.313485 
L 306.021818 391.396659 
L 306.224727 393.202318 
L 306.36 392.642812 
L 306.698182 388.869898 
L 307.848 374.937279 
L 308.862545 366.079224 
L 311.297455 346.65594 
L 311.635636 341.047885 
L 311.906182 332.144003 
L 312.041455 322.248164 
L 312.109091 311.516936 
L 312.176727 278.03104 
L 312.244364 149.431428 
L 312.447273 330.328458 
L 312.717818 376.97822 
L 312.988364 389.123959 
L 313.191273 390.600628 
L 313.326545 390.090662 
L 313.664727 386.735716 
L 315.017455 371.801452 
L 315.829091 365.436101 
L 317.114182 355.884288 
L 317.722909 349.405214 
L 318.128727 342.696816 
L 318.399273 335.070057 
L 318.602182 321.879613 
L 318.669818 310.688205 
L 318.737455 273.608705 
L 318.805091 151.697585 
L 319.008 332.632987 
L 319.278545 377.730478 
L 319.549091 389.217242 
L 319.752 390.645217 
L 319.887273 390.163194 
L 320.157818 387.646627 
L 321.781091 369.849575 
L 323.066182 359.950449 
L 323.810182 353.21201 
L 324.486545 344.769 
L 324.824727 338.073702 
L 325.095273 327.744076 
L 325.230545 313.654349 
L 325.298182 291.850828 
L 325.365818 168.29454 
L 325.433455 217.420355 
L 325.636364 340.562623 
L 325.906909 376.653568 
L 326.177455 386.570258 
L 326.380364 387.857814 
L 326.515636 387.422022 
L 326.786182 385.128312 
L 328.747636 365.461678 
L 330.641455 348.874403 
L 331.114909 342.786888 
L 331.453091 335.033591 
L 331.656 323.681733 
L 331.791273 293.515457 
L 331.858909 163.977795 
L 331.926545 211.62175 
L 332.129455 341.435577 
L 332.4 378.907514 
L 332.670545 388.952176 
L 332.873455 389.951791 
L 333.008727 389.290823 
L 333.346909 385.842423 
L 334.632 371.759378 
L 336.12 359.277692 
L 337.066909 350.833867 
L 337.540364 343.544763 
L 337.810909 335.914997 
L 338.013818 321.889464 
L 338.081455 309.370039 
L 338.216727 155.53461 
L 338.419636 337.763591 
L 338.690182 381.642813 
L 338.960727 391.674929 
L 339.096 392.377722 
L 339.231273 391.782641 
L 339.569455 387.933638 
L 340.584 375.686559 
L 341.463273 368.086997 
L 343.56 350.774992 
L 344.101091 343.681654 
L 344.371636 337.226111 
L 344.574545 327.115109 
L 344.709818 306.312824 
L 344.845091 166.896701 
L 345.048 337.728818 
L 345.318545 379.969848 
L 345.589091 390.422695 
L 345.792 391.453842 
L 345.927273 390.781805 
L 346.265455 387.06412 
L 347.415273 373.679564 
L 348.362182 365.658587 
L 349.714909 356.126619 
L 350.256 351.529366 
L 350.797091 344.499434 
L 351.135273 337.863462 
L 351.338182 330.399337 
L 351.473455 319.321916 
L 351.541091 305.926249 
L 351.676364 167.354071 
L 351.879273 333.740778 
L 352.149818 375.831068 
L 352.420364 387.61591 
L 352.623273 389.321224 
L 352.690909 389.254176 
L 352.893818 388.025379 
L 353.367273 382.741005 
L 354.314182 372.380186 
L 355.193455 365.224507 
L 356.681455 353.951686 
L 357.154909 348.660617 
L 357.493091 342.684789 
L 357.763636 333.423536 
L 357.898909 323.053984 
L 357.966545 311.611464 
L 358.034182 271.487925 
L 358.101818 147.458874 
L 358.304727 335.79177 
L 358.575273 381.32467 
L 358.845818 391.855677 
L 358.981091 392.717185 
L 359.048727 392.614092 
L 359.251636 391.133769 
L 359.792727 384.122705 
L 360.536727 375.308735 
L 361.213091 369.686312 
L 363.242182 354.559735 
L 363.783273 348.546947 
L 364.189091 341.473234 
L 364.459636 333.621683 
L 364.662545 318.995474 
L 364.730182 305.143322 
L 364.865455 171.177794 
L 365.068364 336.351997 
L 365.338909 377.915178 
L 365.609455 388.21536 
L 365.744727 389.18522 
L 365.812364 389.155152 
L 365.947636 388.457597 
L 366.353455 384.201149 
L 367.503273 371.829655 
L 368.382545 364.837332 
L 369.735273 353.789345 
L 370.276364 347.624329 
L 370.614545 341.035365 
L 370.817455 333.870354 
L 370.952727 324.31304 
L 371.020364 314.362233 
L 371.088 286.050147 
L 371.155636 143.356174 
L 371.223273 231.76081 
L 371.426182 350.070765 
L 371.696727 384.462094 
L 371.899636 391.351807 
L 372.034909 392.494612 
L 372.102545 392.485222 
L 372.237818 391.742144 
L 372.643636 387.077281 
L 373.725818 374.200259 
L 374.605091 366.705386 
L 376.498909 351.445604 
L 377.04 345.20946 
L 377.310545 339.867778 
L 377.513455 332.398219 
L 377.648727 321.573341 
L 377.716364 308.94046 
L 377.851636 156.648184 
L 378.054545 336.628975 
L 378.325091 380.654432 
L 378.595636 391.083172 
L 378.730909 392.006935 
L 378.798545 391.950746 
L 378.933818 391.1981 
L 379.272 387.414562 
L 380.286545 374.771256 
L 381.098182 367.983778 
L 382.653818 355.756299 
L 383.194909 349.650568 
L 383.533091 343.684792 
L 383.803636 335.081289 
L 383.938909 326.299902 
L 384.074182 297.721049 
L 384.141818 159.03703 
L 384.209455 202.016315 
L 384.412364 348.138622 
L 384.682909 385.190828 
L 384.885818 392.008178 
L 385.021091 392.971106 
L 385.088727 392.861496 
L 385.291636 391.235362 
L 387.320727 368.917205 
L 389.417455 350.771211 
L 390.093818 341.752963 
L 390.364364 335.835029 
L 390.567273 326.787113 
L 390.702545 309.750463 
L 390.770182 274.528967 
L 390.837818 155.915932 
L 391.040727 328.809141 
L 391.311273 374.06651 
L 391.581818 386.711362 
L 391.784727 388.605161 
L 391.852364 388.549887 
L 392.055273 387.291841 
L 392.664 380.55069 
L 393.678545 370.231933 
L 395.369455 356.16381 
L 396.519273 346.90409 
L 396.857455 342.318485 
L 397.128 335.508064 
L 397.330909 323.282018 
L 397.398545 313.494005 
L 397.466182 286.352204 
L 397.533818 148.445646 
L 397.601455 229.04703 
L 397.804364 345.476147 
L 398.074909 381.21452 
L 398.345455 390.143202 
L 398.480727 390.876293 
L 398.548364 390.776254 
L 398.751273 389.397436 
L 399.292364 382.93593 
L 400.171636 373.094884 
L 401.118545 365.079522 
L 402.268364 355.473632 
L 402.877091 348.355932 
L 403.282909 340.740699 
L 403.553455 330.165439 
L 403.688727 316.077596 
L 403.756364 294.334206 
L 403.824 156.14731 
L 403.891636 211.879412 
L 404.094545 346.669673 
L 404.365091 382.811965 
L 404.635636 390.87419 
L 404.770909 391.342821 
L 404.906182 390.751437 
L 405.244364 387.205501 
L 406.461818 373.089929 
L 407.611636 363.616072 
L 408.558545 355.203181 
L 409.167273 347.384133 
L 409.573091 339.548553 
L 409.776 332.023458 
L 409.911273 321.579537 
L 409.978909 309.921961 
L 410.046545 268.679571 
L 410.114182 154.049795 
L 410.317091 334.757648 
L 410.587636 379.233406 
L 410.858182 389.698035 
L 410.993455 390.59973 
L 411.061091 390.53612 
L 411.196364 389.741234 
L 411.602182 385.031491 
L 412.549091 374.279606 
L 413.563636 365.438784 
L 415.254545 351.029619 
L 415.795636 344.024349 
L 416.133818 336.650616 
L 416.336727 328.046329 
L 416.472 313.830844 
L 416.539636 291.520496 
L 416.607273 164.250404 
L 416.674909 218.134654 
L 416.877818 341.526504 
L 417.148364 377.913863 
L 417.418909 387.445653 
L 417.621818 388.41765 
L 417.757091 387.792067 
L 418.095273 384.494403 
L 419.515636 369.440844 
L 421.274182 352.661716 
L 421.950545 344.179063 
L 422.288727 336.820906 
L 422.491636 327.830822 
L 422.626909 312.336095 
L 422.694545 284.992025 
L 422.762182 153.899295 
L 422.829818 234.766682 
L 423.032727 344.826148 
L 423.303273 379.109647 
L 423.573818 388.038957 
L 423.709091 388.910957 
L 423.776727 388.886169 
L 423.912 388.248637 
L 424.250182 384.842676 
L 425.467636 371.42769 
L 426.549818 362.528093 
L 427.902545 351.677915 
L 428.308364 346.684153 
L 428.646545 339.390207 
L 428.849455 330.631655 
L 428.984727 316.45238 
L 429.052364 294.455993 
L 429.12 152.445183 
L 429.187636 210.604186 
L 429.390545 347.222182 
L 429.661091 383.932832 
L 429.864 391.142089 
L 429.999273 392.299855 
L 430.066909 392.268085 
L 430.202182 391.449831 
L 430.472727 388.304954 
L 430.675636 407.974762 
L 431.013818 419.108397 
L 431.554909 428.672118 
L 432.366545 438.747435 
L 433.110545 445.370237 
L 433.786909 449.566234 
L 434.463273 452.437471 
L 435.139636 454.36436 
L 435.816 455.642449 
L 436.492364 456.481937 
L 437.236364 457.068978 
L 438.115636 457.472186 
L 439.197818 457.710707 
L 440.618182 457.787635 
L 442.444364 457.661108 
L 444.135273 457.333771 
L 445.961455 456.734106 
L 448.193455 456.033161 
L 449.884364 455.759634 
L 452.386909 455.610319 
L 458.541818 455.537458 
L 488.572364 455.526405 
L 498.109091 455.527963 
L 498.109091 455.527963 
" clip-path="url(#p4befe12429)" style="fill: none; stroke: #000000; stroke-width: 1.5; stroke-linecap: square"/>
   </g>
   <g id="line2d_14">
    <path d="M 497.973818 408.87 
" clip-path="url(#p4befe12429)" style="fill: none; stroke: #000000; stroke-width: 1.5; stroke-linecap: square"/>
   </g>
   <g id="line2d_15">
    <path d="M 430.472727 368.1 
L 430.472727 365.382 
L 430.472727 362.664 
L 430.472727 359.946 
L 430.472727 357.228 
L 430.472727 354.51 
L 430.472727 351.792 
L 430.472727 349.074 
L 430.472727 346.356 
L 430.472727 343.638 
L 430.472727 340.92 
L 430.472727 338.202 
L 430.472727 335.484 
L 430.472727 332.766 
L 430.472727 330.048 
L 430.472727 327.33 
L 430.472727 324.612 
L 430.472727 321.894 
L 430.472727 319.176 
L 430.472727 316.458 
" clip-path="url(#p4befe12429)" style="fill: none; stroke: #000000; stroke-width: 1.5; stroke-linecap: square"/>
   </g>
   <g id="patch_3">
    <path d="M 72 504 
L 72 69.12 
" style="fill: none; stroke: #000000; stroke-width: 0.8; stroke-linejoin: miter; stroke-linecap: square"/>
   </g>
   <g id="patch_4">
    <path d="M 518.4 504 
L 518.4 69.12 
" style="fill: none; stroke: #000000; stroke-width: 0.8; stroke-linejoin: miter; stroke-linecap: square"/>
   </g>
   <g id="patch_5">
    <path d="M 72 504 
L 518.4 504 
" style="fill: none; stroke: #000000; stroke-width: 0.8; stroke-linejoin: miter; stroke-linecap: square"/>
   </g>
   <g id="patch_6">
    <path d="M 72 69.12 
L 518.4 69.12 
" style="fill: none; stroke: #000000; stroke-width: 0.8; stroke-linejoin: miter; stroke-linecap: square"/>
   </g>
   <g id="text_15">
    <!-- 500 ms -->
    <g transform="translate(497.973818 406.152)scale(0.22 -0.22)">
     <defs>
      <path id="ArialMT-35" d="M 266 1200 
L 856 1250 
Q 922 819 1161 601 
Q 1400 384 1738 384 
Q 2144 384 2425 690 
Q 2706 997 2706 1503 
Q 2706 1984 2436 2262 
Q 2166 2541 1728 2541 
Q 1456 2541 1237 2417 
Q 1019 2294 894 2097 
L 366 2166 
L 809 4519 
L 3088 4519 
L 3088 3981 
L 1259 3981 
L 1013 2750 
Q 1425 3038 1878 3038 
Q 2478 3038 2890 2622 
Q 3303 2206 3303 1553 
Q 3303 931 2941 478 
Q 2500 -78 1738 -78 
Q 1113 -78 717 272 
Q 322 622 266 1200 
z
" transform="scale(0.015625)"/>
      <path id="ArialMT-30" d="M 266 2259 
Q 266 3072 433 3567 
Q 600 4063 929 4331 
Q 1259 4600 1759 4600 
Q 2128 4600 2406 4451 
Q 2684 4303 2865 4023 
Q 3047 3744 3150 3342 
Q 3253 2941 3253 2259 
Q 3253 1453 3087 958 
Q 2922 463 2592 192 
Q 2263 -78 1759 -78 
Q 1097 -78 719 397 
Q 266 969 266 2259 
z
M 844 2259 
Q 844 1131 1108 757 
Q 1372 384 1759 384 
Q 2147 384 2411 759 
Q 2675 1134 2675 2259 
Q 2675 3391 2411 3762 
Q 2147 4134 1753 4134 
Q 1366 4134 1134 3806 
Q 844 3388 844 2259 
z
" transform="scale(0.015625)"/>
     </defs>
     <use xlink:href="#ArialMT-35"/>
     <use xlink:href="#ArialMT-30" x="55.615234"/>
     <use xlink:href="#ArialMT-30" x="111.230469"/>
     <use xlink:href="#ArialMT-20" x="166.845703"/>
     <use xlink:href="#ArialMT-6d" x="194.628906"/>
     <use xlink:href="#ArialMT-73" x="277.929688"/>
    </g>
   </g>
   <g id="text_16">
    <!-- 20 mV -->
    <g transform="translate(504.737455 321.894)scale(0.22 -0.22)">
     <defs>
      <path id="ArialMT-32" d="M 3222 541 
L 3222 0 
L 194 0 
Q 188 203 259 391 
Q 375 700 629 1000 
Q 884 1300 1366 1694 
Q 2113 2306 2375 2664 
Q 2638 3022 2638 3341 
Q 2638 3675 2398 3904 
Q 2159 4134 1775 4134 
Q 1369 4134 1125 3890 
Q 881 3647 878 3216 
L 300 3275 
Q 359 3922 746 4261 
Q 1134 4600 1788 4600 
Q 2447 4600 2831 4234 
Q 3216 3869 3216 3328 
Q 3216 3053 3103 2787 
Q 2991 2522 2730 2228 
Q 2469 1934 1863 1422 
Q 1356 997 1212 845 
Q 1069 694 975 541 
L 3222 541 
z
" transform="scale(0.015625)"/>
     </defs>
     <use xlink:href="#ArialMT-32"/>
     <use xlink:href="#ArialMT-30" x="55.615234"/>
     <use xlink:href="#ArialMT-20" x="111.230469"/>
     <use xlink:href="#ArialMT-6d" x="139.013672"/>
     <use xlink:href="#ArialMT-56" x="222.314453"/>
    </g>
   </g>
   <g id="text_17">
    <!--  Plotting iSPN, trace number 13837  -->
    <g transform="translate(119.725937 63.12)scale(0.22 -0.22)">
     <defs>
      <path id="ArialMT-50" d="M 494 0 
L 494 4581 
L 2222 4581 
Q 2678 4581 2919 4538 
Q 3256 4481 3484 4323 
Q 3713 4166 3852 3881 
Q 3991 3597 3991 3256 
Q 3991 2672 3619 2267 
Q 3247 1863 2275 1863 
L 1100 1863 
L 1100 0 
L 494 0 
z
M 1100 2403 
L 2284 2403 
Q 2872 2403 3119 2622 
Q 3366 2841 3366 3238 
Q 3366 3525 3220 3729 
Q 3075 3934 2838 4000 
Q 2684 4041 2272 4041 
L 1100 4041 
L 1100 2403 
z
" transform="scale(0.015625)"/>
      <path id="ArialMT-67" d="M 319 -275 
L 866 -356 
Q 900 -609 1056 -725 
Q 1266 -881 1628 -881 
Q 2019 -881 2231 -725 
Q 2444 -569 2519 -288 
Q 2563 -116 2559 434 
Q 2191 0 1641 0 
Q 956 0 581 494 
Q 206 988 206 1678 
Q 206 2153 378 2554 
Q 550 2956 876 3175 
Q 1203 3394 1644 3394 
Q 2231 3394 2613 2919 
L 2613 3319 
L 3131 3319 
L 3131 450 
Q 3131 -325 2973 -648 
Q 2816 -972 2473 -1159 
Q 2131 -1347 1631 -1347 
Q 1038 -1347 672 -1080 
Q 306 -813 319 -275 
z
M 784 1719 
Q 784 1066 1043 766 
Q 1303 466 1694 466 
Q 2081 466 2343 764 
Q 2606 1063 2606 1700 
Q 2606 2309 2336 2618 
Q 2066 2928 1684 2928 
Q 1309 2928 1046 2623 
Q 784 2319 784 1719 
z
" transform="scale(0.015625)"/>
      <path id="ArialMT-53" d="M 288 1472 
L 859 1522 
Q 900 1178 1048 958 
Q 1197 738 1509 602 
Q 1822 466 2213 466 
Q 2559 466 2825 569 
Q 3091 672 3220 851 
Q 3350 1031 3350 1244 
Q 3350 1459 3225 1620 
Q 3100 1781 2813 1891 
Q 2628 1963 1997 2114 
Q 1366 2266 1113 2400 
Q 784 2572 623 2826 
Q 463 3081 463 3397 
Q 463 3744 659 4045 
Q 856 4347 1234 4503 
Q 1613 4659 2075 4659 
Q 2584 4659 2973 4495 
Q 3363 4331 3572 4012 
Q 3781 3694 3797 3291 
L 3216 3247 
Q 3169 3681 2898 3903 
Q 2628 4125 2100 4125 
Q 1550 4125 1298 3923 
Q 1047 3722 1047 3438 
Q 1047 3191 1225 3031 
Q 1400 2872 2139 2705 
Q 2878 2538 3153 2413 
Q 3553 2228 3743 1945 
Q 3934 1663 3934 1294 
Q 3934 928 3725 604 
Q 3516 281 3123 101 
Q 2731 -78 2241 -78 
Q 1619 -78 1198 103 
Q 778 284 539 648 
Q 300 1013 288 1472 
z
" transform="scale(0.015625)"/>
      <path id="ArialMT-4e" d="M 488 0 
L 488 4581 
L 1109 4581 
L 3516 984 
L 3516 4581 
L 4097 4581 
L 4097 0 
L 3475 0 
L 1069 3600 
L 1069 0 
L 488 0 
z
" transform="scale(0.015625)"/>
      <path id="ArialMT-2c" d="M 569 0 
L 569 641 
L 1209 641 
L 1209 0 
Q 1209 -353 1084 -570 
Q 959 -788 688 -906 
L 531 -666 
Q 709 -588 793 -436 
Q 878 -284 888 0 
L 569 0 
z
" transform="scale(0.015625)"/>
      <path id="ArialMT-63" d="M 2588 1216 
L 3141 1144 
Q 3050 572 2676 248 
Q 2303 -75 1759 -75 
Q 1078 -75 664 370 
Q 250 816 250 1647 
Q 250 2184 428 2587 
Q 606 2991 970 3192 
Q 1334 3394 1763 3394 
Q 2303 3394 2647 3120 
Q 2991 2847 3088 2344 
L 2541 2259 
Q 2463 2594 2264 2762 
Q 2066 2931 1784 2931 
Q 1359 2931 1093 2626 
Q 828 2322 828 1663 
Q 828 994 1084 691 
Q 1341 388 1753 388 
Q 2084 388 2306 591 
Q 2528 794 2588 1216 
z
" transform="scale(0.015625)"/>
      <path id="ArialMT-75" d="M 2597 0 
L 2597 488 
Q 2209 -75 1544 -75 
Q 1250 -75 995 37 
Q 741 150 617 320 
Q 494 491 444 738 
Q 409 903 409 1263 
L 409 3319 
L 972 3319 
L 972 1478 
Q 972 1038 1006 884 
Q 1059 663 1231 536 
Q 1403 409 1656 409 
Q 1909 409 2131 539 
Q 2353 669 2445 892 
Q 2538 1116 2538 1541 
L 2538 3319 
L 3100 3319 
L 3100 0 
L 2597 0 
z
" transform="scale(0.015625)"/>
      <path id="ArialMT-31" d="M 2384 0 
L 1822 0 
L 1822 3584 
Q 1619 3391 1289 3197 
Q 959 3003 697 2906 
L 697 3450 
Q 1169 3672 1522 3987 
Q 1875 4303 2022 4600 
L 2384 4600 
L 2384 0 
z
" transform="scale(0.015625)"/>
      <path id="ArialMT-33" d="M 269 1209 
L 831 1284 
Q 928 806 1161 595 
Q 1394 384 1728 384 
Q 2125 384 2398 659 
Q 2672 934 2672 1341 
Q 2672 1728 2419 1979 
Q 2166 2231 1775 2231 
Q 1616 2231 1378 2169 
L 1441 2663 
Q 1497 2656 1531 2656 
Q 1891 2656 2178 2843 
Q 2466 3031 2466 3422 
Q 2466 3731 2256 3934 
Q 2047 4138 1716 4138 
Q 1388 4138 1169 3931 
Q 950 3725 888 3313 
L 325 3413 
Q 428 3978 793 4289 
Q 1159 4600 1703 4600 
Q 2078 4600 2393 4439 
Q 2709 4278 2876 4000 
Q 3044 3722 3044 3409 
Q 3044 3113 2884 2869 
Q 2725 2625 2413 2481 
Q 2819 2388 3044 2092 
Q 3269 1797 3269 1353 
Q 3269 753 2831 336 
Q 2394 -81 1725 -81 
Q 1122 -81 723 278 
Q 325 638 269 1209 
z
" transform="scale(0.015625)"/>
      <path id="ArialMT-38" d="M 1131 2484 
Q 781 2613 612 2850 
Q 444 3088 444 3419 
Q 444 3919 803 4259 
Q 1163 4600 1759 4600 
Q 2359 4600 2725 4251 
Q 3091 3903 3091 3403 
Q 3091 3084 2923 2848 
Q 2756 2613 2416 2484 
Q 2838 2347 3058 2040 
Q 3278 1734 3278 1309 
Q 3278 722 2862 322 
Q 2447 -78 1769 -78 
Q 1091 -78 675 323 
Q 259 725 259 1325 
Q 259 1772 486 2073 
Q 713 2375 1131 2484 
z
M 1019 3438 
Q 1019 3113 1228 2906 
Q 1438 2700 1772 2700 
Q 2097 2700 2305 2904 
Q 2513 3109 2513 3406 
Q 2513 3716 2298 3927 
Q 2084 4138 1766 4138 
Q 1444 4138 1231 3931 
Q 1019 3725 1019 3438 
z
M 838 1322 
Q 838 1081 952 856 
Q 1066 631 1291 507 
Q 1516 384 1775 384 
Q 2178 384 2440 643 
Q 2703 903 2703 1303 
Q 2703 1709 2433 1975 
Q 2163 2241 1756 2241 
Q 1359 2241 1098 1978 
Q 838 1716 838 1322 
z
" transform="scale(0.015625)"/>
      <path id="ArialMT-37" d="M 303 3981 
L 303 4522 
L 3269 4522 
L 3269 4084 
Q 2831 3619 2401 2847 
Q 1972 2075 1738 1259 
Q 1569 684 1522 0 
L 944 0 
Q 953 541 1156 1306 
Q 1359 2072 1739 2783 
Q 2119 3494 2547 3981 
L 303 3981 
z
" transform="scale(0.015625)"/>
     </defs>
     <use xlink:href="#ArialMT-20"/>
     <use xlink:href="#ArialMT-50" x="27.783203"/>
     <use xlink:href="#ArialMT-6c" x="94.482422"/>
     <use xlink:href="#ArialMT-6f" x="116.699219"/>
     <use xlink:href="#ArialMT-74" x="172.314453"/>
     <use xlink:href="#ArialMT-74" x="200.097656"/>
     <use xlink:href="#ArialMT-69" x="227.880859"/>
     <use xlink:href="#ArialMT-6e" x="250.097656"/>
     <use xlink:href="#ArialMT-67" x="305.712891"/>
     <use xlink:href="#ArialMT-20" x="361.328125"/>
     <use xlink:href="#ArialMT-69" x="389.111328"/>
     <use xlink:href="#ArialMT-53" x="411.328125"/>
     <use xlink:href="#ArialMT-50" x="478.027344"/>
     <use xlink:href="#ArialMT-4e" x="544.726562"/>
     <use xlink:href="#ArialMT-2c" x="616.943359"/>
     <use xlink:href="#ArialMT-20" x="644.726562"/>
     <use xlink:href="#ArialMT-74" x="672.509766"/>
     <use xlink:href="#ArialMT-72" x="700.292969"/>
     <use xlink:href="#ArialMT-61" x="733.59375"/>
     <use xlink:href="#ArialMT-63" x="789.208984"/>
     <use xlink:href="#ArialMT-65" x="839.208984"/>
     <use xlink:href="#ArialMT-20" x="894.824219"/>
     <use xlink:href="#ArialMT-6e" x="922.607422"/>
     <use xlink:href="#ArialMT-75" x="978.222656"/>
     <use xlink:href="#ArialMT-6d" x="1033.837891"/>
     <use xlink:href="#ArialMT-62" x="1117.138672"/>
     <use xlink:href="#ArialMT-65" x="1172.753906"/>
     <use xlink:href="#ArialMT-72" x="1228.369141"/>
     <use xlink:href="#ArialMT-20" x="1261.669922"/>
     <use xlink:href="#ArialMT-31" x="1289.453125"/>
     <use xlink:href="#ArialMT-33" x="1345.068359"/>
     <use xlink:href="#ArialMT-38" x="1400.683594"/>
     <use xlink:href="#ArialMT-33" x="1456.298828"/>
     <use xlink:href="#ArialMT-37" x="1511.914062"/>
     <use xlink:href="#ArialMT-20" x="1567.529297"/>
    </g>
   </g>
  </g>
 </g>
 <defs>
  <clipPath id="p4befe12429">
   <rect x="72" y="69.12" width="446.4" height="434.88"/>
  </clipPath>
 </defs>
</svg>
