<?xml version="1.0" encoding="utf-8" standalone="no"?>
<!DOCTYPE svg PUBLIC "-//W3C//DTD SVG 1.1//EN"
  "http://www.w3.org/Graphics/SVG/1.1/DTD/svg11.dtd">
<svg xmlns:xlink="http://www.w3.org/1999/xlink" width="576pt" height="576pt" viewBox="0 0 576 576" xmlns="http://www.w3.org/2000/svg" version="1.1">
 <metadata>
  <rdf:RDF xmlns:dc="http://purl.org/dc/elements/1.1/" xmlns:cc="http://creativecommons.org/ns#" xmlns:rdf="http://www.w3.org/1999/02/22-rdf-syntax-ns#">
   <cc:Work>
    <dc:type rdf:resource="http://purl.org/dc/dcmitype/StillImage"/>
    <dc:date>2022-10-30T19:57:17.873737</dc:date>
    <dc:format>image/svg+xml</dc:format>
    <dc:creator>
     <cc:Agent>
      <dc:title>Matplotlib v3.5.2, https://matplotlib.org/</dc:title>
     </cc:Agent>
    </dc:creator>
   </cc:Work>
  </rdf:RDF>
 </metadata>
 <defs>
  <style type="text/css">*{stroke-linejoin: round; stroke-linecap: butt}</style>
 </defs>
 <g id="figure_1">
  <g id="patch_1">
   <path d="M 0 576 
L 576 576 
L 576 0 
L 0 0 
L 0 576 
z
" style="fill: none"/>
  </g>
  <g id="axes_1">
   <g id="patch_2">
    <path d="M 72 504 
L 518.4 504 
L 518.4 69.12 
L 72 69.12 
z
" style="fill: #ffffff"/>
   </g>
   <g id="matplotlib.axis_1">
    <g id="xtick_1">
     <g id="line2d_1">
      <defs>
       <path id="m0193c1c1db" d="M 0 0 
L 0 3.5 
" style="stroke: #000000; stroke-width: 0.8"/>
      </defs>
      <g>
       <use xlink:href="#m0193c1c1db" x="92.290909" y="504" style="stroke: #000000; stroke-width: 0.8"/>
      </g>
     </g>
     <g id="text_1">
      <!-- 0 -->
      <g transform="translate(85.292159 527.716563)scale(0.22 -0.22)">
       <defs>
        <path id="DejaVuSans-30" d="M 2034 4250 
Q 1547 4250 1301 3770 
Q 1056 3291 1056 2328 
Q 1056 1369 1301 889 
Q 1547 409 2034 409 
Q 2525 409 2770 889 
Q 3016 1369 3016 2328 
Q 3016 3291 2770 3770 
Q 2525 4250 2034 4250 
z
M 2034 4750 
Q 2819 4750 3233 4129 
Q 3647 3509 3647 2328 
Q 3647 1150 3233 529 
Q 2819 -91 2034 -91 
Q 1250 -91 836 529 
Q 422 1150 422 2328 
Q 422 3509 836 4129 
Q 1250 4750 2034 4750 
z
" transform="scale(0.015625)"/>
       </defs>
       <use xlink:href="#DejaVuSans-30"/>
      </g>
     </g>
    </g>
    <g id="xtick_2">
     <g id="line2d_2">
      <g>
       <use xlink:href="#m0193c1c1db" x="227.563636" y="504" style="stroke: #000000; stroke-width: 0.8"/>
      </g>
     </g>
     <g id="text_2">
      <!-- 1000 -->
      <g transform="translate(199.568636 527.716563)scale(0.22 -0.22)">
       <defs>
        <path id="DejaVuSans-31" d="M 794 531 
L 1825 531 
L 1825 4091 
L 703 3866 
L 703 4441 
L 1819 4666 
L 2450 4666 
L 2450 531 
L 3481 531 
L 3481 0 
L 794 0 
L 794 531 
z
" transform="scale(0.015625)"/>
       </defs>
       <use xlink:href="#DejaVuSans-31"/>
       <use xlink:href="#DejaVuSans-30" x="63.623047"/>
       <use xlink:href="#DejaVuSans-30" x="127.246094"/>
       <use xlink:href="#DejaVuSans-30" x="190.869141"/>
      </g>
     </g>
    </g>
    <g id="xtick_3">
     <g id="line2d_3">
      <g>
       <use xlink:href="#m0193c1c1db" x="362.836364" y="504" style="stroke: #000000; stroke-width: 0.8"/>
      </g>
     </g>
     <g id="text_3">
      <!-- 2000 -->
      <g transform="translate(334.841364 527.716563)scale(0.22 -0.22)">
       <defs>
        <path id="DejaVuSans-32" d="M 1228 531 
L 3431 531 
L 3431 0 
L 469 0 
L 469 531 
Q 828 903 1448 1529 
Q 2069 2156 2228 2338 
Q 2531 2678 2651 2914 
Q 2772 3150 2772 3378 
Q 2772 3750 2511 3984 
Q 2250 4219 1831 4219 
Q 1534 4219 1204 4116 
Q 875 4013 500 3803 
L 500 4441 
Q 881 4594 1212 4672 
Q 1544 4750 1819 4750 
Q 2544 4750 2975 4387 
Q 3406 4025 3406 3419 
Q 3406 3131 3298 2873 
Q 3191 2616 2906 2266 
Q 2828 2175 2409 1742 
Q 1991 1309 1228 531 
z
" transform="scale(0.015625)"/>
       </defs>
       <use xlink:href="#DejaVuSans-32"/>
       <use xlink:href="#DejaVuSans-30" x="63.623047"/>
       <use xlink:href="#DejaVuSans-30" x="127.246094"/>
       <use xlink:href="#DejaVuSans-30" x="190.869141"/>
      </g>
     </g>
    </g>
    <g id="xtick_4">
     <g id="line2d_4">
      <g>
       <use xlink:href="#m0193c1c1db" x="498.109091" y="504" style="stroke: #000000; stroke-width: 0.8"/>
      </g>
     </g>
     <g id="text_4">
      <!-- 3000 -->
      <g transform="translate(470.114091 527.716563)scale(0.22 -0.22)">
       <defs>
        <path id="DejaVuSans-33" d="M 2597 2516 
Q 3050 2419 3304 2112 
Q 3559 1806 3559 1356 
Q 3559 666 3084 287 
Q 2609 -91 1734 -91 
Q 1441 -91 1130 -33 
Q 819 25 488 141 
L 488 750 
Q 750 597 1062 519 
Q 1375 441 1716 441 
Q 2309 441 2620 675 
Q 2931 909 2931 1356 
Q 2931 1769 2642 2001 
Q 2353 2234 1838 2234 
L 1294 2234 
L 1294 2753 
L 1863 2753 
Q 2328 2753 2575 2939 
Q 2822 3125 2822 3475 
Q 2822 3834 2567 4026 
Q 2313 4219 1838 4219 
Q 1578 4219 1281 4162 
Q 984 4106 628 3988 
L 628 4550 
Q 988 4650 1302 4700 
Q 1616 4750 1894 4750 
Q 2613 4750 3031 4423 
Q 3450 4097 3450 3541 
Q 3450 3153 3228 2886 
Q 3006 2619 2597 2516 
z
" transform="scale(0.015625)"/>
       </defs>
       <use xlink:href="#DejaVuSans-33"/>
       <use xlink:href="#DejaVuSans-30" x="63.623047"/>
       <use xlink:href="#DejaVuSans-30" x="127.246094"/>
       <use xlink:href="#DejaVuSans-30" x="190.869141"/>
      </g>
     </g>
    </g>
    <g id="text_5">
     <!-- Time(ms) -->
     <g transform="translate(249.182187 552.307188)scale(0.22 -0.22)">
      <defs>
       <path id="ArialMT-54" d="M 1659 0 
L 1659 4041 
L 150 4041 
L 150 4581 
L 3781 4581 
L 3781 4041 
L 2266 4041 
L 2266 0 
L 1659 0 
z
" transform="scale(0.015625)"/>
       <path id="ArialMT-69" d="M 425 3934 
L 425 4581 
L 988 4581 
L 988 3934 
L 425 3934 
z
M 425 0 
L 425 3319 
L 988 3319 
L 988 0 
L 425 0 
z
" transform="scale(0.015625)"/>
       <path id="ArialMT-6d" d="M 422 0 
L 422 3319 
L 925 3319 
L 925 2853 
Q 1081 3097 1340 3245 
Q 1600 3394 1931 3394 
Q 2300 3394 2536 3241 
Q 2772 3088 2869 2813 
Q 3263 3394 3894 3394 
Q 4388 3394 4653 3120 
Q 4919 2847 4919 2278 
L 4919 0 
L 4359 0 
L 4359 2091 
Q 4359 2428 4304 2576 
Q 4250 2725 4106 2815 
Q 3963 2906 3769 2906 
Q 3419 2906 3187 2673 
Q 2956 2441 2956 1928 
L 2956 0 
L 2394 0 
L 2394 2156 
Q 2394 2531 2256 2718 
Q 2119 2906 1806 2906 
Q 1569 2906 1367 2781 
Q 1166 2656 1075 2415 
Q 984 2175 984 1722 
L 984 0 
L 422 0 
z
" transform="scale(0.015625)"/>
       <path id="ArialMT-65" d="M 2694 1069 
L 3275 997 
Q 3138 488 2766 206 
Q 2394 -75 1816 -75 
Q 1088 -75 661 373 
Q 234 822 234 1631 
Q 234 2469 665 2931 
Q 1097 3394 1784 3394 
Q 2450 3394 2872 2941 
Q 3294 2488 3294 1666 
Q 3294 1616 3291 1516 
L 816 1516 
Q 847 969 1125 678 
Q 1403 388 1819 388 
Q 2128 388 2347 550 
Q 2566 713 2694 1069 
z
M 847 1978 
L 2700 1978 
Q 2663 2397 2488 2606 
Q 2219 2931 1791 2931 
Q 1403 2931 1139 2672 
Q 875 2413 847 1978 
z
" transform="scale(0.015625)"/>
       <path id="ArialMT-28" d="M 1497 -1347 
Q 1031 -759 709 28 
Q 388 816 388 1659 
Q 388 2403 628 3084 
Q 909 3875 1497 4659 
L 1900 4659 
Q 1522 4009 1400 3731 
Q 1209 3300 1100 2831 
Q 966 2247 966 1656 
Q 966 153 1900 -1347 
L 1497 -1347 
z
" transform="scale(0.015625)"/>
       <path id="ArialMT-73" d="M 197 991 
L 753 1078 
Q 800 744 1014 566 
Q 1228 388 1613 388 
Q 2000 388 2187 545 
Q 2375 703 2375 916 
Q 2375 1106 2209 1216 
Q 2094 1291 1634 1406 
Q 1016 1563 777 1677 
Q 538 1791 414 1992 
Q 291 2194 291 2438 
Q 291 2659 392 2848 
Q 494 3038 669 3163 
Q 800 3259 1026 3326 
Q 1253 3394 1513 3394 
Q 1903 3394 2198 3281 
Q 2494 3169 2634 2976 
Q 2775 2784 2828 2463 
L 2278 2388 
Q 2241 2644 2061 2787 
Q 1881 2931 1553 2931 
Q 1166 2931 1000 2803 
Q 834 2675 834 2503 
Q 834 2394 903 2306 
Q 972 2216 1119 2156 
Q 1203 2125 1616 2013 
Q 2213 1853 2448 1751 
Q 2684 1650 2818 1456 
Q 2953 1263 2953 975 
Q 2953 694 2789 445 
Q 2625 197 2315 61 
Q 2006 -75 1616 -75 
Q 969 -75 630 194 
Q 291 463 197 991 
z
" transform="scale(0.015625)"/>
       <path id="ArialMT-29" d="M 791 -1347 
L 388 -1347 
Q 1322 153 1322 1656 
Q 1322 2244 1188 2822 
Q 1081 3291 891 3722 
Q 769 4003 388 4659 
L 791 4659 
Q 1378 3875 1659 3084 
Q 1900 2403 1900 1659 
Q 1900 816 1576 28 
Q 1253 -759 791 -1347 
z
" transform="scale(0.015625)"/>
      </defs>
      <use xlink:href="#ArialMT-54"/>
      <use xlink:href="#ArialMT-69" x="57.333984"/>
      <use xlink:href="#ArialMT-6d" x="79.550781"/>
      <use xlink:href="#ArialMT-65" x="162.851562"/>
      <use xlink:href="#ArialMT-28" x="218.466797"/>
      <use xlink:href="#ArialMT-6d" x="251.767578"/>
      <use xlink:href="#ArialMT-73" x="335.068359"/>
      <use xlink:href="#ArialMT-29" x="385.068359"/>
     </g>
    </g>
   </g>
   <g id="matplotlib.axis_2">
    <g id="ytick_1">
     <g id="line2d_5">
      <defs>
       <path id="m5aecce288f" d="M 0 0 
L -3.5 0 
" style="stroke: #000000; stroke-width: 0.8"/>
      </defs>
      <g>
       <use xlink:href="#m5aecce288f" x="72" y="476.82" style="stroke: #000000; stroke-width: 0.8"/>
      </g>
     </g>
     <g id="text_6">
      <!-- −100 -->
      <g transform="translate(4.572187 485.178281)scale(0.22 -0.22)">
       <defs>
        <path id="DejaVuSans-2212" d="M 678 2272 
L 4684 2272 
L 4684 1741 
L 678 1741 
L 678 2272 
z
" transform="scale(0.015625)"/>
       </defs>
       <use xlink:href="#DejaVuSans-2212"/>
       <use xlink:href="#DejaVuSans-31" x="83.789062"/>
       <use xlink:href="#DejaVuSans-30" x="147.412109"/>
       <use xlink:href="#DejaVuSans-30" x="211.035156"/>
      </g>
     </g>
    </g>
    <g id="ytick_2">
     <g id="line2d_6">
      <g>
       <use xlink:href="#m5aecce288f" x="72" y="422.46" style="stroke: #000000; stroke-width: 0.8"/>
      </g>
     </g>
     <g id="text_7">
      <!-- −80 -->
      <g transform="translate(18.569688 430.818281)scale(0.22 -0.22)">
       <defs>
        <path id="DejaVuSans-38" d="M 2034 2216 
Q 1584 2216 1326 1975 
Q 1069 1734 1069 1313 
Q 1069 891 1326 650 
Q 1584 409 2034 409 
Q 2484 409 2743 651 
Q 3003 894 3003 1313 
Q 3003 1734 2745 1975 
Q 2488 2216 2034 2216 
z
M 1403 2484 
Q 997 2584 770 2862 
Q 544 3141 544 3541 
Q 544 4100 942 4425 
Q 1341 4750 2034 4750 
Q 2731 4750 3128 4425 
Q 3525 4100 3525 3541 
Q 3525 3141 3298 2862 
Q 3072 2584 2669 2484 
Q 3125 2378 3379 2068 
Q 3634 1759 3634 1313 
Q 3634 634 3220 271 
Q 2806 -91 2034 -91 
Q 1263 -91 848 271 
Q 434 634 434 1313 
Q 434 1759 690 2068 
Q 947 2378 1403 2484 
z
M 1172 3481 
Q 1172 3119 1398 2916 
Q 1625 2713 2034 2713 
Q 2441 2713 2670 2916 
Q 2900 3119 2900 3481 
Q 2900 3844 2670 4047 
Q 2441 4250 2034 4250 
Q 1625 4250 1398 4047 
Q 1172 3844 1172 3481 
z
" transform="scale(0.015625)"/>
       </defs>
       <use xlink:href="#DejaVuSans-2212"/>
       <use xlink:href="#DejaVuSans-38" x="83.789062"/>
       <use xlink:href="#DejaVuSans-30" x="147.412109"/>
      </g>
     </g>
    </g>
    <g id="ytick_3">
     <g id="line2d_7">
      <g>
       <use xlink:href="#m5aecce288f" x="72" y="368.1" style="stroke: #000000; stroke-width: 0.8"/>
      </g>
     </g>
     <g id="text_8">
      <!-- −60 -->
      <g transform="translate(18.569688 376.458281)scale(0.22 -0.22)">
       <defs>
        <path id="DejaVuSans-36" d="M 2113 2584 
Q 1688 2584 1439 2293 
Q 1191 2003 1191 1497 
Q 1191 994 1439 701 
Q 1688 409 2113 409 
Q 2538 409 2786 701 
Q 3034 994 3034 1497 
Q 3034 2003 2786 2293 
Q 2538 2584 2113 2584 
z
M 3366 4563 
L 3366 3988 
Q 3128 4100 2886 4159 
Q 2644 4219 2406 4219 
Q 1781 4219 1451 3797 
Q 1122 3375 1075 2522 
Q 1259 2794 1537 2939 
Q 1816 3084 2150 3084 
Q 2853 3084 3261 2657 
Q 3669 2231 3669 1497 
Q 3669 778 3244 343 
Q 2819 -91 2113 -91 
Q 1303 -91 875 529 
Q 447 1150 447 2328 
Q 447 3434 972 4092 
Q 1497 4750 2381 4750 
Q 2619 4750 2861 4703 
Q 3103 4656 3366 4563 
z
" transform="scale(0.015625)"/>
       </defs>
       <use xlink:href="#DejaVuSans-2212"/>
       <use xlink:href="#DejaVuSans-36" x="83.789062"/>
       <use xlink:href="#DejaVuSans-30" x="147.412109"/>
      </g>
     </g>
    </g>
    <g id="ytick_4">
     <g id="line2d_8">
      <g>
       <use xlink:href="#m5aecce288f" x="72" y="313.74" style="stroke: #000000; stroke-width: 0.8"/>
      </g>
     </g>
     <g id="text_9">
      <!-- −40 -->
      <g transform="translate(18.569688 322.098281)scale(0.22 -0.22)">
       <defs>
        <path id="DejaVuSans-34" d="M 2419 4116 
L 825 1625 
L 2419 1625 
L 2419 4116 
z
M 2253 4666 
L 3047 4666 
L 3047 1625 
L 3713 1625 
L 3713 1100 
L 3047 1100 
L 3047 0 
L 2419 0 
L 2419 1100 
L 313 1100 
L 313 1709 
L 2253 4666 
z
" transform="scale(0.015625)"/>
       </defs>
       <use xlink:href="#DejaVuSans-2212"/>
       <use xlink:href="#DejaVuSans-34" x="83.789062"/>
       <use xlink:href="#DejaVuSans-30" x="147.412109"/>
      </g>
     </g>
    </g>
    <g id="ytick_5">
     <g id="line2d_9">
      <g>
       <use xlink:href="#m5aecce288f" x="72" y="259.38" style="stroke: #000000; stroke-width: 0.8"/>
      </g>
     </g>
     <g id="text_10">
      <!-- −20 -->
      <g transform="translate(18.569688 267.738281)scale(0.22 -0.22)">
       <use xlink:href="#DejaVuSans-2212"/>
       <use xlink:href="#DejaVuSans-32" x="83.789062"/>
       <use xlink:href="#DejaVuSans-30" x="147.412109"/>
      </g>
     </g>
    </g>
    <g id="ytick_6">
     <g id="line2d_10">
      <g>
       <use xlink:href="#m5aecce288f" x="72" y="205.02" style="stroke: #000000; stroke-width: 0.8"/>
      </g>
     </g>
     <g id="text_11">
      <!-- 0 -->
      <g transform="translate(51.0025 213.378281)scale(0.22 -0.22)">
       <use xlink:href="#DejaVuSans-30"/>
      </g>
     </g>
    </g>
    <g id="ytick_7">
     <g id="line2d_11">
      <g>
       <use xlink:href="#m5aecce288f" x="72" y="150.66" style="stroke: #000000; stroke-width: 0.8"/>
      </g>
     </g>
     <g id="text_12">
      <!-- 20 -->
      <g transform="translate(37.005 159.018281)scale(0.22 -0.22)">
       <use xlink:href="#DejaVuSans-32"/>
       <use xlink:href="#DejaVuSans-30" x="63.623047"/>
      </g>
     </g>
    </g>
    <g id="ytick_8">
     <g id="line2d_12">
      <g>
       <use xlink:href="#m5aecce288f" x="72" y="96.3" style="stroke: #000000; stroke-width: 0.8"/>
      </g>
     </g>
     <g id="text_13">
      <!-- 40 -->
      <g transform="translate(37.005 104.658281)scale(0.22 -0.22)">
       <use xlink:href="#DejaVuSans-34"/>
       <use xlink:href="#DejaVuSans-30" x="63.623047"/>
      </g>
     </g>
    </g>
    <g id="text_14">
     <!-- Membrane potential (mV) -->
     <g transform="translate(-4.058125 410.655469)rotate(-90)scale(0.22 -0.22)">
      <defs>
       <path id="ArialMT-4d" d="M 475 0 
L 475 4581 
L 1388 4581 
L 2472 1338 
Q 2622 884 2691 659 
Q 2769 909 2934 1394 
L 4031 4581 
L 4847 4581 
L 4847 0 
L 4263 0 
L 4263 3834 
L 2931 0 
L 2384 0 
L 1059 3900 
L 1059 0 
L 475 0 
z
" transform="scale(0.015625)"/>
       <path id="ArialMT-62" d="M 941 0 
L 419 0 
L 419 4581 
L 981 4581 
L 981 2947 
Q 1338 3394 1891 3394 
Q 2197 3394 2470 3270 
Q 2744 3147 2920 2923 
Q 3097 2700 3197 2384 
Q 3297 2069 3297 1709 
Q 3297 856 2875 390 
Q 2453 -75 1863 -75 
Q 1275 -75 941 416 
L 941 0 
z
M 934 1684 
Q 934 1088 1097 822 
Q 1363 388 1816 388 
Q 2184 388 2453 708 
Q 2722 1028 2722 1663 
Q 2722 2313 2464 2622 
Q 2206 2931 1841 2931 
Q 1472 2931 1203 2611 
Q 934 2291 934 1684 
z
" transform="scale(0.015625)"/>
       <path id="ArialMT-72" d="M 416 0 
L 416 3319 
L 922 3319 
L 922 2816 
Q 1116 3169 1280 3281 
Q 1444 3394 1641 3394 
Q 1925 3394 2219 3213 
L 2025 2691 
Q 1819 2813 1613 2813 
Q 1428 2813 1281 2702 
Q 1134 2591 1072 2394 
Q 978 2094 978 1738 
L 978 0 
L 416 0 
z
" transform="scale(0.015625)"/>
       <path id="ArialMT-61" d="M 2588 409 
Q 2275 144 1986 34 
Q 1697 -75 1366 -75 
Q 819 -75 525 192 
Q 231 459 231 875 
Q 231 1119 342 1320 
Q 453 1522 633 1644 
Q 813 1766 1038 1828 
Q 1203 1872 1538 1913 
Q 2219 1994 2541 2106 
Q 2544 2222 2544 2253 
Q 2544 2597 2384 2738 
Q 2169 2928 1744 2928 
Q 1347 2928 1158 2789 
Q 969 2650 878 2297 
L 328 2372 
Q 403 2725 575 2942 
Q 747 3159 1072 3276 
Q 1397 3394 1825 3394 
Q 2250 3394 2515 3294 
Q 2781 3194 2906 3042 
Q 3031 2891 3081 2659 
Q 3109 2516 3109 2141 
L 3109 1391 
Q 3109 606 3145 398 
Q 3181 191 3288 0 
L 2700 0 
Q 2613 175 2588 409 
z
M 2541 1666 
Q 2234 1541 1622 1453 
Q 1275 1403 1131 1340 
Q 988 1278 909 1158 
Q 831 1038 831 891 
Q 831 666 1001 516 
Q 1172 366 1500 366 
Q 1825 366 2078 508 
Q 2331 650 2450 897 
Q 2541 1088 2541 1459 
L 2541 1666 
z
" transform="scale(0.015625)"/>
       <path id="ArialMT-6e" d="M 422 0 
L 422 3319 
L 928 3319 
L 928 2847 
Q 1294 3394 1984 3394 
Q 2284 3394 2536 3286 
Q 2788 3178 2913 3003 
Q 3038 2828 3088 2588 
Q 3119 2431 3119 2041 
L 3119 0 
L 2556 0 
L 2556 2019 
Q 2556 2363 2490 2533 
Q 2425 2703 2258 2804 
Q 2091 2906 1866 2906 
Q 1506 2906 1245 2678 
Q 984 2450 984 1813 
L 984 0 
L 422 0 
z
" transform="scale(0.015625)"/>
       <path id="ArialMT-20" transform="scale(0.015625)"/>
       <path id="ArialMT-70" d="M 422 -1272 
L 422 3319 
L 934 3319 
L 934 2888 
Q 1116 3141 1344 3267 
Q 1572 3394 1897 3394 
Q 2322 3394 2647 3175 
Q 2972 2956 3137 2557 
Q 3303 2159 3303 1684 
Q 3303 1175 3120 767 
Q 2938 359 2589 142 
Q 2241 -75 1856 -75 
Q 1575 -75 1351 44 
Q 1128 163 984 344 
L 984 -1272 
L 422 -1272 
z
M 931 1641 
Q 931 1000 1190 694 
Q 1450 388 1819 388 
Q 2194 388 2461 705 
Q 2728 1022 2728 1688 
Q 2728 2322 2467 2637 
Q 2206 2953 1844 2953 
Q 1484 2953 1207 2617 
Q 931 2281 931 1641 
z
" transform="scale(0.015625)"/>
       <path id="ArialMT-6f" d="M 213 1659 
Q 213 2581 725 3025 
Q 1153 3394 1769 3394 
Q 2453 3394 2887 2945 
Q 3322 2497 3322 1706 
Q 3322 1066 3130 698 
Q 2938 331 2570 128 
Q 2203 -75 1769 -75 
Q 1072 -75 642 372 
Q 213 819 213 1659 
z
M 791 1659 
Q 791 1022 1069 705 
Q 1347 388 1769 388 
Q 2188 388 2466 706 
Q 2744 1025 2744 1678 
Q 2744 2294 2464 2611 
Q 2184 2928 1769 2928 
Q 1347 2928 1069 2612 
Q 791 2297 791 1659 
z
" transform="scale(0.015625)"/>
       <path id="ArialMT-74" d="M 1650 503 
L 1731 6 
Q 1494 -44 1306 -44 
Q 1000 -44 831 53 
Q 663 150 594 308 
Q 525 466 525 972 
L 525 2881 
L 113 2881 
L 113 3319 
L 525 3319 
L 525 4141 
L 1084 4478 
L 1084 3319 
L 1650 3319 
L 1650 2881 
L 1084 2881 
L 1084 941 
Q 1084 700 1114 631 
Q 1144 563 1211 522 
Q 1278 481 1403 481 
Q 1497 481 1650 503 
z
" transform="scale(0.015625)"/>
       <path id="ArialMT-6c" d="M 409 0 
L 409 4581 
L 972 4581 
L 972 0 
L 409 0 
z
" transform="scale(0.015625)"/>
       <path id="ArialMT-56" d="M 1803 0 
L 28 4581 
L 684 4581 
L 1875 1253 
Q 2019 853 2116 503 
Q 2222 878 2363 1253 
L 3600 4581 
L 4219 4581 
L 2425 0 
L 1803 0 
z
" transform="scale(0.015625)"/>
      </defs>
      <use xlink:href="#ArialMT-4d"/>
      <use xlink:href="#ArialMT-65" x="83.300781"/>
      <use xlink:href="#ArialMT-6d" x="138.916016"/>
      <use xlink:href="#ArialMT-62" x="222.216797"/>
      <use xlink:href="#ArialMT-72" x="277.832031"/>
      <use xlink:href="#ArialMT-61" x="311.132812"/>
      <use xlink:href="#ArialMT-6e" x="366.748047"/>
      <use xlink:href="#ArialMT-65" x="422.363281"/>
      <use xlink:href="#ArialMT-20" x="477.978516"/>
      <use xlink:href="#ArialMT-70" x="505.761719"/>
      <use xlink:href="#ArialMT-6f" x="561.376953"/>
      <use xlink:href="#ArialMT-74" x="616.992188"/>
      <use xlink:href="#ArialMT-65" x="644.775391"/>
      <use xlink:href="#ArialMT-6e" x="700.390625"/>
      <use xlink:href="#ArialMT-74" x="756.005859"/>
      <use xlink:href="#ArialMT-69" x="783.789062"/>
      <use xlink:href="#ArialMT-61" x="806.005859"/>
      <use xlink:href="#ArialMT-6c" x="861.621094"/>
      <use xlink:href="#ArialMT-20" x="883.837891"/>
      <use xlink:href="#ArialMT-28" x="911.621094"/>
      <use xlink:href="#ArialMT-6d" x="944.921875"/>
      <use xlink:href="#ArialMT-56" x="1028.222656"/>
      <use xlink:href="#ArialMT-29" x="1094.921875"/>
     </g>
    </g>
   </g>
   <g id="line2d_13">
    <path d="M 92.290909 452.6298 
L 92.493818 463.553832 
L 92.832 469.653781 
L 93.170182 472.286944 
L 93.508364 473.503083 
L 93.914182 474.149592 
L 94.387636 474.450543 
L 95.131636 474.602597 
L 96.957818 474.660729 
L 115.828364 474.665592 
L 159.927273 474.665636 
L 160.130182 449.358044 
L 160.468364 435.727596 
L 160.941818 426.192225 
L 161.550545 418.679258 
L 162.294545 412.417559 
L 163.106182 407.432565 
L 164.053091 403.011784 
L 165.067636 399.314834 
L 166.217455 395.971506 
L 167.434909 393.093646 
L 168.787636 390.444252 
L 170.343273 387.8874 
L 172.169455 385.330002 
L 174.469091 382.513778 
L 178.865455 377.246184 
L 180.285818 374.999906 
L 183.261818 371.274905 
L 184.885091 368.534711 
L 185.493818 366.977324 
L 186.373091 363.899469 
L 186.846545 361.380535 
L 187.32 357.453052 
L 187.793455 351.24833 
L 188.064 344.645597 
L 188.199273 337.223341 
L 188.266909 329.528714 
L 188.334545 308.126203 
L 188.402182 148.7267 
L 188.605091 370.336605 
L 188.808 385.55138 
L 188.943273 384.492305 
L 189.349091 381.049953 
L 189.754909 379.345803 
L 190.296 377.973605 
L 190.972364 376.844655 
L 193.745455 373.086336 
L 195.098182 370.556662 
L 197.059636 365.228518 
L 197.465455 364.100785 
L 197.938909 362.709627 
L 198.412364 360.478285 
L 198.818182 357.539272 
L 199.156364 353.591398 
L 199.426909 347.941529 
L 199.629818 338.338012 
L 199.765091 312.277489 
L 199.832727 137.918215 
L 200.035636 369.175546 
L 200.238545 385.213779 
L 200.373818 384.15498 
L 200.779636 380.968015 
L 201.253091 379.093569 
L 201.929455 377.331341 
L 202.944 375.292799 
L 205.108364 371.473708 
L 205.784727 370.549395 
L 206.393455 369.377685 
L 208.152 364.879282 
L 208.693091 362.552243 
L 209.166545 359.500179 
L 209.572364 355.191337 
L 209.910545 349.594531 
L 210.113455 342.844732 
L 210.248727 331.977381 
L 210.316364 316.001451 
L 210.384 134.706809 
L 210.586909 366.666026 
L 210.789818 384.576612 
L 210.925091 383.578802 
L 211.330909 380.234871 
L 211.804364 378.306533 
L 212.616 376.126674 
L 213.698182 374.069928 
L 214.915636 372.283042 
L 216.877091 368.834202 
L 217.485818 367.105856 
L 218.162182 364.840568 
L 218.703273 362.294411 
L 219.176727 358.993706 
L 219.582545 354.313021 
L 219.853091 348.774296 
L 220.056 339.844218 
L 220.191273 319.809503 
L 220.258909 157.017122 
L 220.326545 261.269255 
L 220.529455 378.720419 
L 220.664727 384.958819 
L 220.8 383.915014 
L 221.205818 380.330262 
L 221.679273 378.404784 
L 222.288 376.897856 
L 223.099636 375.486667 
L 224.046545 374.092584 
L 225.128727 372.291318 
L 225.805091 370.760257 
L 227.157818 366.937649 
L 227.631273 364.982253 
L 228.307636 362.226438 
L 228.781091 360.390207 
L 229.186909 357.664927 
L 229.525091 353.872188 
L 229.795636 348.370119 
L 229.998545 339.232818 
L 230.133818 317.283493 
L 230.201455 136.210862 
L 230.404364 366.349927 
L 230.607273 384.94934 
L 230.742545 383.895166 
L 231.148364 380.352044 
L 231.621818 378.305051 
L 232.230545 376.510015 
L 232.974545 375.139163 
L 234.327273 372.586725 
L 235.003636 370.912091 
L 235.68 369.399772 
L 236.694545 367.087165 
L 237.303273 365.16706 
L 237.844364 362.788704 
L 238.317818 359.711577 
L 238.723636 355.44716 
L 238.994182 350.717636 
L 239.197091 344.134733 
L 239.332364 334.363605 
L 239.4 321.999384 
L 239.467636 204.720995 
L 239.535273 241.411357 
L 239.738182 377.657112 
L 239.873455 384.644773 
L 239.941091 384.383718 
L 240.414545 380.23942 
L 240.888 378.360815 
L 241.699636 376.227216 
L 242.984727 373.230841 
L 243.999273 371.23316 
L 245.960727 365.878257 
L 246.569455 363.353345 
L 247.178182 359.843534 
L 247.584 355.996461 
L 247.922182 350.2981 
L 248.125091 343.286391 
L 248.260364 332.126461 
L 248.328 315.507597 
L 248.395636 132.93448 
L 248.598545 367.613039 
L 248.801455 384.445536 
L 249.004364 382.120675 
L 249.410182 378.406843 
L 249.748364 377.07337 
L 250.424727 375.51203 
L 253.197818 369.600263 
L 254.550545 366.236456 
L 255.159273 363.747224 
L 255.700364 360.554895 
L 256.106182 356.715758 
L 256.444364 350.906484 
L 256.714909 341.848128 
L 256.850182 329.137516 
L 256.917818 305.339489 
L 256.985455 156.817277 
L 257.120727 350.182954 
L 257.323636 384.589342 
L 257.391273 384.964732 
L 258.405818 377.387533 
L 259.149818 374.99849 
L 260.570182 371.583372 
L 261.246545 370.389871 
L 261.922909 368.688992 
L 262.599273 366.569392 
L 264.019636 360.188187 
L 264.425455 356.561717 
L 264.763636 351.386482 
L 264.966545 345.496294 
L 265.101818 337.528151 
L 265.169455 329.174834 
L 265.237091 303.679899 
L 265.304727 160.956788 
L 265.44 351.283285 
L 265.642909 384.338612 
L 265.710545 384.567438 
L 266.522182 378.175077 
L 267.198545 375.856363 
L 268.551273 371.580461 
L 268.821818 369.806791 
L 269.024727 367.917103 
L 269.227636 367.6973 
L 269.430545 367.588206 
L 269.633455 367.160021 
L 270.783273 363.487221 
L 271.324364 360.785012 
L 271.865455 356.732767 
L 272.203636 351.961321 
L 272.474182 343.854668 
L 272.609455 333.827735 
L 272.677091 320.739273 
L 272.744727 175.752929 
L 272.812364 252.437827 
L 273.015273 378.028097 
L 273.150545 384.599679 
L 273.285818 383.599474 
L 273.691636 379.992407 
L 274.232727 377.578876 
L 274.909091 375.53244 
L 276.261818 371.905317 
L 277.073455 369.182736 
L 278.358545 365.566736 
L 278.832 363.302736 
L 279.237818 360.437795 
L 279.711273 355.835365 
L 280.049455 349.960069 
L 280.252364 342.531009 
L 280.387636 329.896469 
L 280.455273 306.973466 
L 280.522909 152.217611 
L 280.658182 349.604894 
L 280.861091 384.015521 
L 280.928727 384.26777 
L 281.199273 380.750958 
L 281.469818 377.64846 
L 281.943273 375.312048 
L 282.146182 373.47981 
L 282.349091 373.287758 
L 282.552 373.14726 
L 282.822545 372.57224 
L 283.701818 370.059987 
L 285.189818 365.833084 
L 285.933818 362.033781 
L 286.542545 357.429794 
L 286.880727 353.145067 
L 287.151273 346.622864 
L 287.354182 333.766054 
L 287.421818 320.51678 
L 287.489455 170.30475 
L 287.557091 254.647303 
L 287.76 378.107059 
L 287.895273 384.54025 
L 288.030545 383.492092 
L 288.436364 379.790513 
L 288.977455 377.258983 
L 290.194909 373.040957 
L 291.682909 369.870941 
L 292.832727 366.427465 
L 293.373818 364.049825 
L 293.982545 360.50421 
L 294.388364 356.805094 
L 294.726545 351.538715 
L 294.929455 345.563591 
L 295.064727 337.460341 
L 295.132364 328.907932 
L 295.2 301.883564 
L 295.267636 165.433934 
L 295.402909 352.156497 
L 295.605818 384.13131 
L 295.673455 384.220637 
L 296.011636 379.465747 
L 296.282182 377.068273 
L 297.093818 373.088801 
L 297.296727 371.676956 
L 297.770182 370.229666 
L 298.108364 367.720327 
L 298.378909 366.828553 
L 298.514182 365.874748 
L 298.852364 362.724997 
L 299.055273 360.986552 
L 299.596364 351.608789 
L 299.799273 344.370958 
L 299.934545 333.603144 
L 300.002182 318.988128 
L 300.069818 140.624076 
L 300.272727 366.37089 
L 300.475636 384.145387 
L 301.490182 374.010846 
L 303.451636 362.100418 
L 303.925091 356.852924 
L 304.263273 350.127369 
L 304.466182 341.657671 
L 304.601455 325.75532 
L 304.736727 206.216514 
L 304.939636 375.970012 
L 305.074909 384.154693 
L 305.210182 382.826202 
L 305.683636 377.121273 
L 306.495273 371.455017 
L 307.577455 364.746808 
L 308.050909 360.667552 
L 308.524364 354.149392 
L 308.794909 347.824816 
L 308.997818 336.858389 
L 309.065455 327.725353 
L 309.133091 295.335476 
L 309.200727 179.849147 
L 309.403636 373.609172 
L 309.538909 383.761247 
L 309.606545 383.638235 
L 310.350545 375.821148 
L 311.432727 369.267584 
L 312.109091 365.551616 
L 312.650182 361.366189 
L 313.056 356.596325 
L 313.394182 349.493667 
L 313.597091 339.943962 
L 313.732364 317.859998 
L 313.8 134.739397 
L 314.002909 367.026155 
L 314.205818 384.205647 
L 314.544 379.621458 
L 315.017455 375.411232 
L 317.317091 359.275931 
L 317.655273 354.613813 
L 317.925818 348.040135 
L 318.128727 336.482167 
L 318.196364 326.519669 
L 318.331636 197.148719 
L 318.534545 375.31011 
L 318.669818 384.129852 
L 318.737455 383.819553 
L 319.346182 376.722062 
L 320.022545 372.292885 
L 321.645818 362.308294 
L 322.119273 357.338372 
L 322.457455 351.093493 
L 322.660364 343.650571 
L 322.795636 331.936285 
L 322.863273 313.89847 
L 322.930909 134.484901 
L 323.133818 369.269313 
L 323.269091 383.969581 
L 323.336727 384.252204 
L 324.351273 373.763677 
L 326.312727 361.85689 
L 326.786182 356.776533 
L 327.124364 350.276549 
L 327.327273 342.216574 
L 327.462545 328.010571 
L 327.530182 295.826585 
L 327.597818 178.704013 
L 327.800727 373.922667 
L 327.936 384.0631 
L 328.003636 383.896596 
L 328.68 376.365142 
L 329.559273 370.886504 
L 330.573818 364.199595 
L 331.114909 359.554261 
L 331.453091 354.924333 
L 331.723636 348.465334 
L 331.926545 337.724508 
L 331.994182 329.33648 
L 332.061818 304.061802 
L 332.129455 160.537649 
L 332.264727 351.65542 
L 332.467636 383.814348 
L 332.535273 383.752313 
L 333.279273 375.342365 
L 335.714182 357.895805 
L 336.052364 352.554913 
L 336.322909 343.955294 
L 336.458182 333.213561 
L 336.525818 318.383215 
L 336.593455 138.945506 
L 336.796364 366.258761 
L 336.999273 384.244509 
L 337.202182 381.583402 
L 337.608 377.008464 
L 338.284364 372.353552 
L 339.366545 364.980793 
L 340.042909 358.348953 
L 340.448727 351.193911 
L 340.651636 344.358859 
L 340.786909 334.44653 
L 340.854545 321.997787 
L 340.922182 202.267493 
L 340.989818 242.632013 
L 341.192727 377.780867 
L 341.328 384.145359 
L 341.463273 382.640186 
L 341.869091 377.629907 
L 342.477818 373.339288 
L 344.033455 363.289167 
L 344.574545 357.579611 
L 344.912727 352.338448 
L 345.183273 343.657635 
L 345.318545 332.633179 
L 345.386182 316.835203 
L 345.453818 133.708067 
L 345.656727 367.09911 
L 345.792 383.297076 
L 345.859636 383.636146 
L 346.536 375.264432 
L 348.429818 364.212199 
L 348.903273 359.804236 
L 349.309091 353.923034 
L 349.579636 346.582424 
L 349.782545 333.284836 
L 349.850182 319.411543 
L 349.917818 154.342196 
L 350.120727 365.148232 
L 350.323636 384.406712 
L 350.526545 381.779746 
L 350.932364 377.123727 
L 351.608727 372.420431 
L 352.690909 365.177328 
L 353.367273 358.854068 
L 353.705455 353.606078 
L 353.976 345.433553 
L 354.111273 336.835308 
L 354.178909 327.638029 
L 354.246545 294.660569 
L 354.314182 181.38785 
L 354.517091 374.397043 
L 354.652364 384.488319 
L 354.72 384.264221 
L 355.396364 376.254888 
L 356.140364 371.586365 
L 357.290182 364.343536 
L 357.831273 359.302752 
L 358.169455 354.272333 
L 358.44 346.863081 
L 358.575273 339.233493 
L 358.710545 313.268483 
L 358.778182 135.790493 
L 358.981091 369.610794 
L 359.116364 384.040607 
L 359.184 384.334182 
L 360.333818 372.770717 
L 361.754182 362.769533 
L 362.362909 356.298979 
L 362.633455 351.373563 
L 362.836364 344.571422 
L 362.971636 334.656227 
L 363.039273 322.261681 
L 363.106909 204.967306 
L 363.174545 240.865508 
L 363.377455 377.548625 
L 363.512727 383.747158 
L 363.715636 381.203441 
L 364.121455 376.696133 
L 364.865455 371.626471 
L 366.150545 363.192916 
L 366.624 358.379826 
L 366.962182 352.687158 
L 367.232727 343.326337 
L 367.368 330.763089 
L 367.435636 309.150226 
L 367.503273 146.665113 
L 367.638545 349.258137 
L 367.841455 383.69486 
L 367.909091 383.594171 
L 368.517818 375.674905 
L 368.991273 373.549323 
L 370.276364 366.4527 
L 370.885091 361.813167 
L 371.290909 357.185908 
L 371.629091 350.419499 
L 371.832 342.122529 
L 371.967273 327.280431 
L 372.034909 289.718121 
L 372.102545 188.987221 
L 372.305455 374.806936 
L 372.440727 384.044189 
L 372.508364 383.751592 
L 373.117091 376.587302 
L 373.928727 371.181885 
L 375.010909 364.749574 
L 375.484364 360.570691 
L 375.890182 355.171507 
L 376.160727 348.797069 
L 376.363636 338.220521 
L 376.431273 330.008997 
L 376.498909 306.21261 
L 376.566545 154.795713 
L 376.701818 350.836314 
L 376.904727 383.836049 
L 376.972364 383.740754 
L 377.851636 372.716166 
L 378.933818 362.453533 
L 379.272 357.738564 
L 379.610182 349.646171 
L 379.813091 338.9872 
L 379.880727 330.99539 
L 379.948364 309.233346 
L 380.016 146.944965 
L 380.151273 350.007393 
L 380.354182 383.850401 
L 380.421818 383.573113 
L 381.165818 373.300395 
L 382.518545 359.730889 
L 382.856727 353.50146 
L 383.127273 344.174618 
L 383.262545 332.877779 
L 383.330182 316.821417 
L 383.397818 132.472234 
L 383.600727 368.151574 
L 383.736 384.007614 
L 383.803636 384.350918 
L 384.682909 375.020938 
L 386.712 363.965456 
L 387.185455 359.795195 
L 387.591273 354.056908 
L 387.861818 346.589762 
L 387.997091 338.857627 
L 388.132364 311.381912 
L 388.2 140.46179 
L 388.402909 370.211593 
L 388.538182 383.728464 
L 388.605818 383.869786 
L 389.485091 374.499431 
L 391.581818 360.177926 
L 391.987636 354.526125 
L 392.258182 347.953634 
L 392.461091 336.208698 
L 392.528727 325.875254 
L 392.664 204.574389 
L 392.866909 375.545501 
L 393.002182 383.658252 
L 393.137455 382.212541 
L 393.610909 375.792016 
L 394.084364 372.541838 
L 395.369455 364.803417 
L 395.910545 359.856341 
L 396.316364 353.652671 
L 396.586909 345.738978 
L 396.722182 337.151587 
L 396.789818 327.916278 
L 396.857455 294.771397 
L 396.925091 180.766243 
L 397.128 374.139486 
L 397.263273 383.954722 
L 397.330909 383.715476 
L 398.007273 375.992719 
L 399.021818 369.343996 
L 399.833455 364.11363 
L 400.306909 359.758814 
L 400.645091 354.907195 
L 400.915636 348.086291 
L 401.118545 335.756246 
L 401.186182 324.504317 
L 401.321455 220.942885 
L 401.524364 376.895698 
L 401.659636 383.926429 
L 401.794909 382.331698 
L 402.200727 377.079367 
L 402.809455 372.69146 
L 404.635636 360.610881 
L 405.041455 355.41939 
L 405.312 349.450338 
L 405.514909 340.082147 
L 405.650182 318.978319 
L 405.717818 141.947776 
L 405.920727 365.959109 
L 406.123636 383.934433 
L 406.394182 380.196437 
L 406.867636 375.486664 
L 407.814545 368.955076 
L 408.761455 361.719292 
L 409.167273 356.867402 
L 409.505455 350.078674 
L 409.708364 342.045812 
L 409.843636 327.926874 
L 409.911273 296.271795 
L 409.978909 178.151404 
L 410.181818 373.543443 
L 410.317091 383.61043 
L 410.384727 383.414616 
L 411.061091 375.701577 
L 411.940364 370.019967 
L 412.752 364.33371 
L 413.360727 359.063851 
L 413.698909 354.180649 
L 413.969455 346.982964 
L 414.104727 339.701611 
L 414.24 316.978118 
L 414.307636 132.904395 
L 414.510545 367.441405 
L 414.713455 384.110167 
L 415.998545 371.153692 
L 417.216 360.976744 
L 417.621818 356.041604 
L 417.892364 350.394869 
L 418.095273 342.252536 
L 418.230545 327.995952 
L 418.298182 295.595539 
L 418.365818 179.252654 
L 418.568727 374.032006 
L 418.704 383.998319 
L 418.771636 383.755401 
L 419.448 375.563472 
L 421.003636 362.255552 
L 421.409455 359.613314 
L 421.747636 356.474519 
L 422.018182 352.106611 
L 422.221091 346.335909 
L 422.356364 338.900134 
L 422.491636 313.559741 
L 422.559273 135.192881 
L 422.762182 368.813349 
L 422.897455 383.665331 
L 422.965091 384.050011 
L 424.114909 373.38577 
L 425.535273 364.260038 
L 426.076364 359.100245 
L 426.414545 353.831937 
L 426.685091 346.651313 
L 426.888 333.287346 
L 426.955636 319.161037 
L 427.023273 149.206289 
L 427.226182 365.360359 
L 427.429091 384.104539 
L 427.632 381.347677 
L 428.037818 376.514792 
L 428.646545 372.109226 
L 429.728727 364.787392 
L 430.202182 360.143787 
L 430.472727 356.476981 
L 430.743273 394.726231 
L 431.216727 422.223961 
L 431.960727 452.612878 
L 432.434182 464.176167 
L 432.84 469.29738 
L 433.245818 471.849472 
L 433.651636 473.128791 
L 434.125091 473.874883 
L 434.666182 474.283733 
L 435.410182 474.524525 
L 436.627636 474.643243 
L 440.144727 474.670842 
L 498.109091 474.664943 
L 498.109091 474.664943 
" clip-path="url(#pe628a52c9c)" style="fill: none; stroke: #000000; stroke-width: 1.5; stroke-linecap: square"/>
   </g>
   <g id="line2d_14">
    <path d="M 497.973818 408.87 
" clip-path="url(#pe628a52c9c)" style="fill: none; stroke: #000000; stroke-width: 1.5; stroke-linecap: square"/>
   </g>
   <g id="line2d_15">
    <path d="M 430.472727 368.1 
L 430.472727 365.382 
L 430.472727 362.664 
L 430.472727 359.946 
L 430.472727 357.228 
L 430.472727 354.51 
L 430.472727 351.792 
L 430.472727 349.074 
L 430.472727 346.356 
L 430.472727 343.638 
L 430.472727 340.92 
L 430.472727 338.202 
L 430.472727 335.484 
L 430.472727 332.766 
L 430.472727 330.048 
L 430.472727 327.33 
L 430.472727 324.612 
L 430.472727 321.894 
L 430.472727 319.176 
L 430.472727 316.458 
" clip-path="url(#pe628a52c9c)" style="fill: none; stroke: #000000; stroke-width: 1.5; stroke-linecap: square"/>
   </g>
   <g id="patch_3">
    <path d="M 72 504 
L 72 69.12 
" style="fill: none; stroke: #000000; stroke-width: 0.8; stroke-linejoin: miter; stroke-linecap: square"/>
   </g>
   <g id="patch_4">
    <path d="M 518.4 504 
L 518.4 69.12 
" style="fill: none; stroke: #000000; stroke-width: 0.8; stroke-linejoin: miter; stroke-linecap: square"/>
   </g>
   <g id="patch_5">
    <path d="M 72 504 
L 518.4 504 
" style="fill: none; stroke: #000000; stroke-width: 0.8; stroke-linejoin: miter; stroke-linecap: square"/>
   </g>
   <g id="patch_6">
    <path d="M 72 69.12 
L 518.4 69.12 
" style="fill: none; stroke: #000000; stroke-width: 0.8; stroke-linejoin: miter; stroke-linecap: square"/>
   </g>
   <g id="text_15">
    <!-- 500 ms -->
    <g transform="translate(497.973818 406.152)scale(0.22 -0.22)">
     <defs>
      <path id="ArialMT-35" d="M 266 1200 
L 856 1250 
Q 922 819 1161 601 
Q 1400 384 1738 384 
Q 2144 384 2425 690 
Q 2706 997 2706 1503 
Q 2706 1984 2436 2262 
Q 2166 2541 1728 2541 
Q 1456 2541 1237 2417 
Q 1019 2294 894 2097 
L 366 2166 
L 809 4519 
L 3088 4519 
L 3088 3981 
L 1259 3981 
L 1013 2750 
Q 1425 3038 1878 3038 
Q 2478 3038 2890 2622 
Q 3303 2206 3303 1553 
Q 3303 931 2941 478 
Q 2500 -78 1738 -78 
Q 1113 -78 717 272 
Q 322 622 266 1200 
z
" transform="scale(0.015625)"/>
      <path id="ArialMT-30" d="M 266 2259 
Q 266 3072 433 3567 
Q 600 4063 929 4331 
Q 1259 4600 1759 4600 
Q 2128 4600 2406 4451 
Q 2684 4303 2865 4023 
Q 3047 3744 3150 3342 
Q 3253 2941 3253 2259 
Q 3253 1453 3087 958 
Q 2922 463 2592 192 
Q 2263 -78 1759 -78 
Q 1097 -78 719 397 
Q 266 969 266 2259 
z
M 844 2259 
Q 844 1131 1108 757 
Q 1372 384 1759 384 
Q 2147 384 2411 759 
Q 2675 1134 2675 2259 
Q 2675 3391 2411 3762 
Q 2147 4134 1753 4134 
Q 1366 4134 1134 3806 
Q 844 3388 844 2259 
z
" transform="scale(0.015625)"/>
     </defs>
     <use xlink:href="#ArialMT-35"/>
     <use xlink:href="#ArialMT-30" x="55.615234"/>
     <use xlink:href="#ArialMT-30" x="111.230469"/>
     <use xlink:href="#ArialMT-20" x="166.845703"/>
     <use xlink:href="#ArialMT-6d" x="194.628906"/>
     <use xlink:href="#ArialMT-73" x="277.929688"/>
    </g>
   </g>
   <g id="text_16">
    <!-- 20 mV -->
    <g transform="translate(504.737455 321.894)scale(0.22 -0.22)">
     <defs>
      <path id="ArialMT-32" d="M 3222 541 
L 3222 0 
L 194 0 
Q 188 203 259 391 
Q 375 700 629 1000 
Q 884 1300 1366 1694 
Q 2113 2306 2375 2664 
Q 2638 3022 2638 3341 
Q 2638 3675 2398 3904 
Q 2159 4134 1775 4134 
Q 1369 4134 1125 3890 
Q 881 3647 878 3216 
L 300 3275 
Q 359 3922 746 4261 
Q 1134 4600 1788 4600 
Q 2447 4600 2831 4234 
Q 3216 3869 3216 3328 
Q 3216 3053 3103 2787 
Q 2991 2522 2730 2228 
Q 2469 1934 1863 1422 
Q 1356 997 1212 845 
Q 1069 694 975 541 
L 3222 541 
z
" transform="scale(0.015625)"/>
     </defs>
     <use xlink:href="#ArialMT-32"/>
     <use xlink:href="#ArialMT-30" x="55.615234"/>
     <use xlink:href="#ArialMT-20" x="111.230469"/>
     <use xlink:href="#ArialMT-6d" x="139.013672"/>
     <use xlink:href="#ArialMT-56" x="222.314453"/>
    </g>
   </g>
   <g id="text_17">
    <!--  Plotting FS, trace number 5354  -->
    <g transform="translate(136.849844 63.12)scale(0.22 -0.22)">
     <defs>
      <path id="ArialMT-50" d="M 494 0 
L 494 4581 
L 2222 4581 
Q 2678 4581 2919 4538 
Q 3256 4481 3484 4323 
Q 3713 4166 3852 3881 
Q 3991 3597 3991 3256 
Q 3991 2672 3619 2267 
Q 3247 1863 2275 1863 
L 1100 1863 
L 1100 0 
L 494 0 
z
M 1100 2403 
L 2284 2403 
Q 2872 2403 3119 2622 
Q 3366 2841 3366 3238 
Q 3366 3525 3220 3729 
Q 3075 3934 2838 4000 
Q 2684 4041 2272 4041 
L 1100 4041 
L 1100 2403 
z
" transform="scale(0.015625)"/>
      <path id="ArialMT-67" d="M 319 -275 
L 866 -356 
Q 900 -609 1056 -725 
Q 1266 -881 1628 -881 
Q 2019 -881 2231 -725 
Q 2444 -569 2519 -288 
Q 2563 -116 2559 434 
Q 2191 0 1641 0 
Q 956 0 581 494 
Q 206 988 206 1678 
Q 206 2153 378 2554 
Q 550 2956 876 3175 
Q 1203 3394 1644 3394 
Q 2231 3394 2613 2919 
L 2613 3319 
L 3131 3319 
L 3131 450 
Q 3131 -325 2973 -648 
Q 2816 -972 2473 -1159 
Q 2131 -1347 1631 -1347 
Q 1038 -1347 672 -1080 
Q 306 -813 319 -275 
z
M 784 1719 
Q 784 1066 1043 766 
Q 1303 466 1694 466 
Q 2081 466 2343 764 
Q 2606 1063 2606 1700 
Q 2606 2309 2336 2618 
Q 2066 2928 1684 2928 
Q 1309 2928 1046 2623 
Q 784 2319 784 1719 
z
" transform="scale(0.015625)"/>
      <path id="ArialMT-46" d="M 525 0 
L 525 4581 
L 3616 4581 
L 3616 4041 
L 1131 4041 
L 1131 2622 
L 3281 2622 
L 3281 2081 
L 1131 2081 
L 1131 0 
L 525 0 
z
" transform="scale(0.015625)"/>
      <path id="ArialMT-53" d="M 288 1472 
L 859 1522 
Q 900 1178 1048 958 
Q 1197 738 1509 602 
Q 1822 466 2213 466 
Q 2559 466 2825 569 
Q 3091 672 3220 851 
Q 3350 1031 3350 1244 
Q 3350 1459 3225 1620 
Q 3100 1781 2813 1891 
Q 2628 1963 1997 2114 
Q 1366 2266 1113 2400 
Q 784 2572 623 2826 
Q 463 3081 463 3397 
Q 463 3744 659 4045 
Q 856 4347 1234 4503 
Q 1613 4659 2075 4659 
Q 2584 4659 2973 4495 
Q 3363 4331 3572 4012 
Q 3781 3694 3797 3291 
L 3216 3247 
Q 3169 3681 2898 3903 
Q 2628 4125 2100 4125 
Q 1550 4125 1298 3923 
Q 1047 3722 1047 3438 
Q 1047 3191 1225 3031 
Q 1400 2872 2139 2705 
Q 2878 2538 3153 2413 
Q 3553 2228 3743 1945 
Q 3934 1663 3934 1294 
Q 3934 928 3725 604 
Q 3516 281 3123 101 
Q 2731 -78 2241 -78 
Q 1619 -78 1198 103 
Q 778 284 539 648 
Q 300 1013 288 1472 
z
" transform="scale(0.015625)"/>
      <path id="ArialMT-2c" d="M 569 0 
L 569 641 
L 1209 641 
L 1209 0 
Q 1209 -353 1084 -570 
Q 959 -788 688 -906 
L 531 -666 
Q 709 -588 793 -436 
Q 878 -284 888 0 
L 569 0 
z
" transform="scale(0.015625)"/>
      <path id="ArialMT-63" d="M 2588 1216 
L 3141 1144 
Q 3050 572 2676 248 
Q 2303 -75 1759 -75 
Q 1078 -75 664 370 
Q 250 816 250 1647 
Q 250 2184 428 2587 
Q 606 2991 970 3192 
Q 1334 3394 1763 3394 
Q 2303 3394 2647 3120 
Q 2991 2847 3088 2344 
L 2541 2259 
Q 2463 2594 2264 2762 
Q 2066 2931 1784 2931 
Q 1359 2931 1093 2626 
Q 828 2322 828 1663 
Q 828 994 1084 691 
Q 1341 388 1753 388 
Q 2084 388 2306 591 
Q 2528 794 2588 1216 
z
" transform="scale(0.015625)"/>
      <path id="ArialMT-75" d="M 2597 0 
L 2597 488 
Q 2209 -75 1544 -75 
Q 1250 -75 995 37 
Q 741 150 617 320 
Q 494 491 444 738 
Q 409 903 409 1263 
L 409 3319 
L 972 3319 
L 972 1478 
Q 972 1038 1006 884 
Q 1059 663 1231 536 
Q 1403 409 1656 409 
Q 1909 409 2131 539 
Q 2353 669 2445 892 
Q 2538 1116 2538 1541 
L 2538 3319 
L 3100 3319 
L 3100 0 
L 2597 0 
z
" transform="scale(0.015625)"/>
      <path id="ArialMT-33" d="M 269 1209 
L 831 1284 
Q 928 806 1161 595 
Q 1394 384 1728 384 
Q 2125 384 2398 659 
Q 2672 934 2672 1341 
Q 2672 1728 2419 1979 
Q 2166 2231 1775 2231 
Q 1616 2231 1378 2169 
L 1441 2663 
Q 1497 2656 1531 2656 
Q 1891 2656 2178 2843 
Q 2466 3031 2466 3422 
Q 2466 3731 2256 3934 
Q 2047 4138 1716 4138 
Q 1388 4138 1169 3931 
Q 950 3725 888 3313 
L 325 3413 
Q 428 3978 793 4289 
Q 1159 4600 1703 4600 
Q 2078 4600 2393 4439 
Q 2709 4278 2876 4000 
Q 3044 3722 3044 3409 
Q 3044 3113 2884 2869 
Q 2725 2625 2413 2481 
Q 2819 2388 3044 2092 
Q 3269 1797 3269 1353 
Q 3269 753 2831 336 
Q 2394 -81 1725 -81 
Q 1122 -81 723 278 
Q 325 638 269 1209 
z
" transform="scale(0.015625)"/>
      <path id="ArialMT-34" d="M 2069 0 
L 2069 1097 
L 81 1097 
L 81 1613 
L 2172 4581 
L 2631 4581 
L 2631 1613 
L 3250 1613 
L 3250 1097 
L 2631 1097 
L 2631 0 
L 2069 0 
z
M 2069 1613 
L 2069 3678 
L 634 1613 
L 2069 1613 
z
" transform="scale(0.015625)"/>
     </defs>
     <use xlink:href="#ArialMT-20"/>
     <use xlink:href="#ArialMT-50" x="27.783203"/>
     <use xlink:href="#ArialMT-6c" x="94.482422"/>
     <use xlink:href="#ArialMT-6f" x="116.699219"/>
     <use xlink:href="#ArialMT-74" x="172.314453"/>
     <use xlink:href="#ArialMT-74" x="200.097656"/>
     <use xlink:href="#ArialMT-69" x="227.880859"/>
     <use xlink:href="#ArialMT-6e" x="250.097656"/>
     <use xlink:href="#ArialMT-67" x="305.712891"/>
     <use xlink:href="#ArialMT-20" x="361.328125"/>
     <use xlink:href="#ArialMT-46" x="389.111328"/>
     <use xlink:href="#ArialMT-53" x="450.195312"/>
     <use xlink:href="#ArialMT-2c" x="516.894531"/>
     <use xlink:href="#ArialMT-20" x="544.677734"/>
     <use xlink:href="#ArialMT-74" x="572.460938"/>
     <use xlink:href="#ArialMT-72" x="600.244141"/>
     <use xlink:href="#ArialMT-61" x="633.544922"/>
     <use xlink:href="#ArialMT-63" x="689.160156"/>
     <use xlink:href="#ArialMT-65" x="739.160156"/>
     <use xlink:href="#ArialMT-20" x="794.775391"/>
     <use xlink:href="#ArialMT-6e" x="822.558594"/>
     <use xlink:href="#ArialMT-75" x="878.173828"/>
     <use xlink:href="#ArialMT-6d" x="933.789062"/>
     <use xlink:href="#ArialMT-62" x="1017.089844"/>
     <use xlink:href="#ArialMT-65" x="1072.705078"/>
     <use xlink:href="#ArialMT-72" x="1128.320312"/>
     <use xlink:href="#ArialMT-20" x="1161.621094"/>
     <use xlink:href="#ArialMT-35" x="1189.404297"/>
     <use xlink:href="#ArialMT-33" x="1245.019531"/>
     <use xlink:href="#ArialMT-35" x="1300.634766"/>
     <use xlink:href="#ArialMT-34" x="1356.25"/>
     <use xlink:href="#ArialMT-20" x="1411.865234"/>
    </g>
   </g>
  </g>
 </g>
 <defs>
  <clipPath id="pe628a52c9c">
   <rect x="72" y="69.12" width="446.4" height="434.88"/>
  </clipPath>
 </defs>
</svg>
