<?xml version="1.0" encoding="utf-8" standalone="no"?>
<!DOCTYPE svg PUBLIC "-//W3C//DTD SVG 1.1//EN"
  "http://www.w3.org/Graphics/SVG/1.1/DTD/svg11.dtd">
<svg xmlns:xlink="http://www.w3.org/1999/xlink" width="576pt" height="576pt" viewBox="0 0 576 576" xmlns="http://www.w3.org/2000/svg" version="1.1">
 <metadata>
  <rdf:RDF xmlns:dc="http://purl.org/dc/elements/1.1/" xmlns:cc="http://creativecommons.org/ns#" xmlns:rdf="http://www.w3.org/1999/02/22-rdf-syntax-ns#">
   <cc:Work>
    <dc:type rdf:resource="http://purl.org/dc/dcmitype/StillImage"/>
    <dc:date>2022-10-30T19:57:15.841166</dc:date>
    <dc:format>image/svg+xml</dc:format>
    <dc:creator>
     <cc:Agent>
      <dc:title>Matplotlib v3.5.2, https://matplotlib.org/</dc:title>
     </cc:Agent>
    </dc:creator>
   </cc:Work>
  </rdf:RDF>
 </metadata>
 <defs>
  <style type="text/css">*{stroke-linejoin: round; stroke-linecap: butt}</style>
 </defs>
 <g id="figure_1">
  <g id="patch_1">
   <path d="M 0 576 
L 576 576 
L 576 0 
L 0 0 
L 0 576 
z
" style="fill: none"/>
  </g>
  <g id="axes_1">
   <g id="patch_2">
    <path d="M 72 504 
L 518.4 504 
L 518.4 69.12 
L 72 69.12 
z
" style="fill: #ffffff"/>
   </g>
   <g id="matplotlib.axis_1">
    <g id="xtick_1">
     <g id="line2d_1">
      <defs>
       <path id="m448de3e618" d="M 0 0 
L 0 3.5 
" style="stroke: #000000; stroke-width: 0.8"/>
      </defs>
      <g>
       <use xlink:href="#m448de3e618" x="92.290909" y="504" style="stroke: #000000; stroke-width: 0.8"/>
      </g>
     </g>
     <g id="text_1">
      <!-- 0 -->
      <g transform="translate(85.292159 527.716563)scale(0.22 -0.22)">
       <defs>
        <path id="DejaVuSans-30" d="M 2034 4250 
Q 1547 4250 1301 3770 
Q 1056 3291 1056 2328 
Q 1056 1369 1301 889 
Q 1547 409 2034 409 
Q 2525 409 2770 889 
Q 3016 1369 3016 2328 
Q 3016 3291 2770 3770 
Q 2525 4250 2034 4250 
z
M 2034 4750 
Q 2819 4750 3233 4129 
Q 3647 3509 3647 2328 
Q 3647 1150 3233 529 
Q 2819 -91 2034 -91 
Q 1250 -91 836 529 
Q 422 1150 422 2328 
Q 422 3509 836 4129 
Q 1250 4750 2034 4750 
z
" transform="scale(0.015625)"/>
       </defs>
       <use xlink:href="#DejaVuSans-30"/>
      </g>
     </g>
    </g>
    <g id="xtick_2">
     <g id="line2d_2">
      <g>
       <use xlink:href="#m448de3e618" x="227.563636" y="504" style="stroke: #000000; stroke-width: 0.8"/>
      </g>
     </g>
     <g id="text_2">
      <!-- 1000 -->
      <g transform="translate(199.568636 527.716563)scale(0.22 -0.22)">
       <defs>
        <path id="DejaVuSans-31" d="M 794 531 
L 1825 531 
L 1825 4091 
L 703 3866 
L 703 4441 
L 1819 4666 
L 2450 4666 
L 2450 531 
L 3481 531 
L 3481 0 
L 794 0 
L 794 531 
z
" transform="scale(0.015625)"/>
       </defs>
       <use xlink:href="#DejaVuSans-31"/>
       <use xlink:href="#DejaVuSans-30" x="63.623047"/>
       <use xlink:href="#DejaVuSans-30" x="127.246094"/>
       <use xlink:href="#DejaVuSans-30" x="190.869141"/>
      </g>
     </g>
    </g>
    <g id="xtick_3">
     <g id="line2d_3">
      <g>
       <use xlink:href="#m448de3e618" x="362.836364" y="504" style="stroke: #000000; stroke-width: 0.8"/>
      </g>
     </g>
     <g id="text_3">
      <!-- 2000 -->
      <g transform="translate(334.841364 527.716563)scale(0.22 -0.22)">
       <defs>
        <path id="DejaVuSans-32" d="M 1228 531 
L 3431 531 
L 3431 0 
L 469 0 
L 469 531 
Q 828 903 1448 1529 
Q 2069 2156 2228 2338 
Q 2531 2678 2651 2914 
Q 2772 3150 2772 3378 
Q 2772 3750 2511 3984 
Q 2250 4219 1831 4219 
Q 1534 4219 1204 4116 
Q 875 4013 500 3803 
L 500 4441 
Q 881 4594 1212 4672 
Q 1544 4750 1819 4750 
Q 2544 4750 2975 4387 
Q 3406 4025 3406 3419 
Q 3406 3131 3298 2873 
Q 3191 2616 2906 2266 
Q 2828 2175 2409 1742 
Q 1991 1309 1228 531 
z
" transform="scale(0.015625)"/>
       </defs>
       <use xlink:href="#DejaVuSans-32"/>
       <use xlink:href="#DejaVuSans-30" x="63.623047"/>
       <use xlink:href="#DejaVuSans-30" x="127.246094"/>
       <use xlink:href="#DejaVuSans-30" x="190.869141"/>
      </g>
     </g>
    </g>
    <g id="xtick_4">
     <g id="line2d_4">
      <g>
       <use xlink:href="#m448de3e618" x="498.109091" y="504" style="stroke: #000000; stroke-width: 0.8"/>
      </g>
     </g>
     <g id="text_4">
      <!-- 3000 -->
      <g transform="translate(470.114091 527.716563)scale(0.22 -0.22)">
       <defs>
        <path id="DejaVuSans-33" d="M 2597 2516 
Q 3050 2419 3304 2112 
Q 3559 1806 3559 1356 
Q 3559 666 3084 287 
Q 2609 -91 1734 -91 
Q 1441 -91 1130 -33 
Q 819 25 488 141 
L 488 750 
Q 750 597 1062 519 
Q 1375 441 1716 441 
Q 2309 441 2620 675 
Q 2931 909 2931 1356 
Q 2931 1769 2642 2001 
Q 2353 2234 1838 2234 
L 1294 2234 
L 1294 2753 
L 1863 2753 
Q 2328 2753 2575 2939 
Q 2822 3125 2822 3475 
Q 2822 3834 2567 4026 
Q 2313 4219 1838 4219 
Q 1578 4219 1281 4162 
Q 984 4106 628 3988 
L 628 4550 
Q 988 4650 1302 4700 
Q 1616 4750 1894 4750 
Q 2613 4750 3031 4423 
Q 3450 4097 3450 3541 
Q 3450 3153 3228 2886 
Q 3006 2619 2597 2516 
z
" transform="scale(0.015625)"/>
       </defs>
       <use xlink:href="#DejaVuSans-33"/>
       <use xlink:href="#DejaVuSans-30" x="63.623047"/>
       <use xlink:href="#DejaVuSans-30" x="127.246094"/>
       <use xlink:href="#DejaVuSans-30" x="190.869141"/>
      </g>
     </g>
    </g>
    <g id="text_5">
     <!-- Time(ms) -->
     <g transform="translate(249.182187 552.307188)scale(0.22 -0.22)">
      <defs>
       <path id="ArialMT-54" d="M 1659 0 
L 1659 4041 
L 150 4041 
L 150 4581 
L 3781 4581 
L 3781 4041 
L 2266 4041 
L 2266 0 
L 1659 0 
z
" transform="scale(0.015625)"/>
       <path id="ArialMT-69" d="M 425 3934 
L 425 4581 
L 988 4581 
L 988 3934 
L 425 3934 
z
M 425 0 
L 425 3319 
L 988 3319 
L 988 0 
L 425 0 
z
" transform="scale(0.015625)"/>
       <path id="ArialMT-6d" d="M 422 0 
L 422 3319 
L 925 3319 
L 925 2853 
Q 1081 3097 1340 3245 
Q 1600 3394 1931 3394 
Q 2300 3394 2536 3241 
Q 2772 3088 2869 2813 
Q 3263 3394 3894 3394 
Q 4388 3394 4653 3120 
Q 4919 2847 4919 2278 
L 4919 0 
L 4359 0 
L 4359 2091 
Q 4359 2428 4304 2576 
Q 4250 2725 4106 2815 
Q 3963 2906 3769 2906 
Q 3419 2906 3187 2673 
Q 2956 2441 2956 1928 
L 2956 0 
L 2394 0 
L 2394 2156 
Q 2394 2531 2256 2718 
Q 2119 2906 1806 2906 
Q 1569 2906 1367 2781 
Q 1166 2656 1075 2415 
Q 984 2175 984 1722 
L 984 0 
L 422 0 
z
" transform="scale(0.015625)"/>
       <path id="ArialMT-65" d="M 2694 1069 
L 3275 997 
Q 3138 488 2766 206 
Q 2394 -75 1816 -75 
Q 1088 -75 661 373 
Q 234 822 234 1631 
Q 234 2469 665 2931 
Q 1097 3394 1784 3394 
Q 2450 3394 2872 2941 
Q 3294 2488 3294 1666 
Q 3294 1616 3291 1516 
L 816 1516 
Q 847 969 1125 678 
Q 1403 388 1819 388 
Q 2128 388 2347 550 
Q 2566 713 2694 1069 
z
M 847 1978 
L 2700 1978 
Q 2663 2397 2488 2606 
Q 2219 2931 1791 2931 
Q 1403 2931 1139 2672 
Q 875 2413 847 1978 
z
" transform="scale(0.015625)"/>
       <path id="ArialMT-28" d="M 1497 -1347 
Q 1031 -759 709 28 
Q 388 816 388 1659 
Q 388 2403 628 3084 
Q 909 3875 1497 4659 
L 1900 4659 
Q 1522 4009 1400 3731 
Q 1209 3300 1100 2831 
Q 966 2247 966 1656 
Q 966 153 1900 -1347 
L 1497 -1347 
z
" transform="scale(0.015625)"/>
       <path id="ArialMT-73" d="M 197 991 
L 753 1078 
Q 800 744 1014 566 
Q 1228 388 1613 388 
Q 2000 388 2187 545 
Q 2375 703 2375 916 
Q 2375 1106 2209 1216 
Q 2094 1291 1634 1406 
Q 1016 1563 777 1677 
Q 538 1791 414 1992 
Q 291 2194 291 2438 
Q 291 2659 392 2848 
Q 494 3038 669 3163 
Q 800 3259 1026 3326 
Q 1253 3394 1513 3394 
Q 1903 3394 2198 3281 
Q 2494 3169 2634 2976 
Q 2775 2784 2828 2463 
L 2278 2388 
Q 2241 2644 2061 2787 
Q 1881 2931 1553 2931 
Q 1166 2931 1000 2803 
Q 834 2675 834 2503 
Q 834 2394 903 2306 
Q 972 2216 1119 2156 
Q 1203 2125 1616 2013 
Q 2213 1853 2448 1751 
Q 2684 1650 2818 1456 
Q 2953 1263 2953 975 
Q 2953 694 2789 445 
Q 2625 197 2315 61 
Q 2006 -75 1616 -75 
Q 969 -75 630 194 
Q 291 463 197 991 
z
" transform="scale(0.015625)"/>
       <path id="ArialMT-29" d="M 791 -1347 
L 388 -1347 
Q 1322 153 1322 1656 
Q 1322 2244 1188 2822 
Q 1081 3291 891 3722 
Q 769 4003 388 4659 
L 791 4659 
Q 1378 3875 1659 3084 
Q 1900 2403 1900 1659 
Q 1900 816 1576 28 
Q 1253 -759 791 -1347 
z
" transform="scale(0.015625)"/>
      </defs>
      <use xlink:href="#ArialMT-54"/>
      <use xlink:href="#ArialMT-69" x="57.333984"/>
      <use xlink:href="#ArialMT-6d" x="79.550781"/>
      <use xlink:href="#ArialMT-65" x="162.851562"/>
      <use xlink:href="#ArialMT-28" x="218.466797"/>
      <use xlink:href="#ArialMT-6d" x="251.767578"/>
      <use xlink:href="#ArialMT-73" x="335.068359"/>
      <use xlink:href="#ArialMT-29" x="385.068359"/>
     </g>
    </g>
   </g>
   <g id="matplotlib.axis_2">
    <g id="ytick_1">
     <g id="line2d_5">
      <defs>
       <path id="m988ac98267" d="M 0 0 
L -3.5 0 
" style="stroke: #000000; stroke-width: 0.8"/>
      </defs>
      <g>
       <use xlink:href="#m988ac98267" x="72" y="476.82" style="stroke: #000000; stroke-width: 0.8"/>
      </g>
     </g>
     <g id="text_6">
      <!-- −100 -->
      <g transform="translate(4.572187 485.178281)scale(0.22 -0.22)">
       <defs>
        <path id="DejaVuSans-2212" d="M 678 2272 
L 4684 2272 
L 4684 1741 
L 678 1741 
L 678 2272 
z
" transform="scale(0.015625)"/>
       </defs>
       <use xlink:href="#DejaVuSans-2212"/>
       <use xlink:href="#DejaVuSans-31" x="83.789062"/>
       <use xlink:href="#DejaVuSans-30" x="147.412109"/>
       <use xlink:href="#DejaVuSans-30" x="211.035156"/>
      </g>
     </g>
    </g>
    <g id="ytick_2">
     <g id="line2d_6">
      <g>
       <use xlink:href="#m988ac98267" x="72" y="422.46" style="stroke: #000000; stroke-width: 0.8"/>
      </g>
     </g>
     <g id="text_7">
      <!-- −80 -->
      <g transform="translate(18.569688 430.818281)scale(0.22 -0.22)">
       <defs>
        <path id="DejaVuSans-38" d="M 2034 2216 
Q 1584 2216 1326 1975 
Q 1069 1734 1069 1313 
Q 1069 891 1326 650 
Q 1584 409 2034 409 
Q 2484 409 2743 651 
Q 3003 894 3003 1313 
Q 3003 1734 2745 1975 
Q 2488 2216 2034 2216 
z
M 1403 2484 
Q 997 2584 770 2862 
Q 544 3141 544 3541 
Q 544 4100 942 4425 
Q 1341 4750 2034 4750 
Q 2731 4750 3128 4425 
Q 3525 4100 3525 3541 
Q 3525 3141 3298 2862 
Q 3072 2584 2669 2484 
Q 3125 2378 3379 2068 
Q 3634 1759 3634 1313 
Q 3634 634 3220 271 
Q 2806 -91 2034 -91 
Q 1263 -91 848 271 
Q 434 634 434 1313 
Q 434 1759 690 2068 
Q 947 2378 1403 2484 
z
M 1172 3481 
Q 1172 3119 1398 2916 
Q 1625 2713 2034 2713 
Q 2441 2713 2670 2916 
Q 2900 3119 2900 3481 
Q 2900 3844 2670 4047 
Q 2441 4250 2034 4250 
Q 1625 4250 1398 4047 
Q 1172 3844 1172 3481 
z
" transform="scale(0.015625)"/>
       </defs>
       <use xlink:href="#DejaVuSans-2212"/>
       <use xlink:href="#DejaVuSans-38" x="83.789062"/>
       <use xlink:href="#DejaVuSans-30" x="147.412109"/>
      </g>
     </g>
    </g>
    <g id="ytick_3">
     <g id="line2d_7">
      <g>
       <use xlink:href="#m988ac98267" x="72" y="368.1" style="stroke: #000000; stroke-width: 0.8"/>
      </g>
     </g>
     <g id="text_8">
      <!-- −60 -->
      <g transform="translate(18.569688 376.458281)scale(0.22 -0.22)">
       <defs>
        <path id="DejaVuSans-36" d="M 2113 2584 
Q 1688 2584 1439 2293 
Q 1191 2003 1191 1497 
Q 1191 994 1439 701 
Q 1688 409 2113 409 
Q 2538 409 2786 701 
Q 3034 994 3034 1497 
Q 3034 2003 2786 2293 
Q 2538 2584 2113 2584 
z
M 3366 4563 
L 3366 3988 
Q 3128 4100 2886 4159 
Q 2644 4219 2406 4219 
Q 1781 4219 1451 3797 
Q 1122 3375 1075 2522 
Q 1259 2794 1537 2939 
Q 1816 3084 2150 3084 
Q 2853 3084 3261 2657 
Q 3669 2231 3669 1497 
Q 3669 778 3244 343 
Q 2819 -91 2113 -91 
Q 1303 -91 875 529 
Q 447 1150 447 2328 
Q 447 3434 972 4092 
Q 1497 4750 2381 4750 
Q 2619 4750 2861 4703 
Q 3103 4656 3366 4563 
z
" transform="scale(0.015625)"/>
       </defs>
       <use xlink:href="#DejaVuSans-2212"/>
       <use xlink:href="#DejaVuSans-36" x="83.789062"/>
       <use xlink:href="#DejaVuSans-30" x="147.412109"/>
      </g>
     </g>
    </g>
    <g id="ytick_4">
     <g id="line2d_8">
      <g>
       <use xlink:href="#m988ac98267" x="72" y="313.74" style="stroke: #000000; stroke-width: 0.8"/>
      </g>
     </g>
     <g id="text_9">
      <!-- −40 -->
      <g transform="translate(18.569688 322.098281)scale(0.22 -0.22)">
       <defs>
        <path id="DejaVuSans-34" d="M 2419 4116 
L 825 1625 
L 2419 1625 
L 2419 4116 
z
M 2253 4666 
L 3047 4666 
L 3047 1625 
L 3713 1625 
L 3713 1100 
L 3047 1100 
L 3047 0 
L 2419 0 
L 2419 1100 
L 313 1100 
L 313 1709 
L 2253 4666 
z
" transform="scale(0.015625)"/>
       </defs>
       <use xlink:href="#DejaVuSans-2212"/>
       <use xlink:href="#DejaVuSans-34" x="83.789062"/>
       <use xlink:href="#DejaVuSans-30" x="147.412109"/>
      </g>
     </g>
    </g>
    <g id="ytick_5">
     <g id="line2d_9">
      <g>
       <use xlink:href="#m988ac98267" x="72" y="259.38" style="stroke: #000000; stroke-width: 0.8"/>
      </g>
     </g>
     <g id="text_10">
      <!-- −20 -->
      <g transform="translate(18.569688 267.738281)scale(0.22 -0.22)">
       <use xlink:href="#DejaVuSans-2212"/>
       <use xlink:href="#DejaVuSans-32" x="83.789062"/>
       <use xlink:href="#DejaVuSans-30" x="147.412109"/>
      </g>
     </g>
    </g>
    <g id="ytick_6">
     <g id="line2d_10">
      <g>
       <use xlink:href="#m988ac98267" x="72" y="205.02" style="stroke: #000000; stroke-width: 0.8"/>
      </g>
     </g>
     <g id="text_11">
      <!-- 0 -->
      <g transform="translate(51.0025 213.378281)scale(0.22 -0.22)">
       <use xlink:href="#DejaVuSans-30"/>
      </g>
     </g>
    </g>
    <g id="ytick_7">
     <g id="line2d_11">
      <g>
       <use xlink:href="#m988ac98267" x="72" y="150.66" style="stroke: #000000; stroke-width: 0.8"/>
      </g>
     </g>
     <g id="text_12">
      <!-- 20 -->
      <g transform="translate(37.005 159.018281)scale(0.22 -0.22)">
       <use xlink:href="#DejaVuSans-32"/>
       <use xlink:href="#DejaVuSans-30" x="63.623047"/>
      </g>
     </g>
    </g>
    <g id="ytick_8">
     <g id="line2d_12">
      <g>
       <use xlink:href="#m988ac98267" x="72" y="96.3" style="stroke: #000000; stroke-width: 0.8"/>
      </g>
     </g>
     <g id="text_13">
      <!-- 40 -->
      <g transform="translate(37.005 104.658281)scale(0.22 -0.22)">
       <use xlink:href="#DejaVuSans-34"/>
       <use xlink:href="#DejaVuSans-30" x="63.623047"/>
      </g>
     </g>
    </g>
    <g id="text_14">
     <!-- Membrane potential (mV) -->
     <g transform="translate(-4.058125 410.655469)rotate(-90)scale(0.22 -0.22)">
      <defs>
       <path id="ArialMT-4d" d="M 475 0 
L 475 4581 
L 1388 4581 
L 2472 1338 
Q 2622 884 2691 659 
Q 2769 909 2934 1394 
L 4031 4581 
L 4847 4581 
L 4847 0 
L 4263 0 
L 4263 3834 
L 2931 0 
L 2384 0 
L 1059 3900 
L 1059 0 
L 475 0 
z
" transform="scale(0.015625)"/>
       <path id="ArialMT-62" d="M 941 0 
L 419 0 
L 419 4581 
L 981 4581 
L 981 2947 
Q 1338 3394 1891 3394 
Q 2197 3394 2470 3270 
Q 2744 3147 2920 2923 
Q 3097 2700 3197 2384 
Q 3297 2069 3297 1709 
Q 3297 856 2875 390 
Q 2453 -75 1863 -75 
Q 1275 -75 941 416 
L 941 0 
z
M 934 1684 
Q 934 1088 1097 822 
Q 1363 388 1816 388 
Q 2184 388 2453 708 
Q 2722 1028 2722 1663 
Q 2722 2313 2464 2622 
Q 2206 2931 1841 2931 
Q 1472 2931 1203 2611 
Q 934 2291 934 1684 
z
" transform="scale(0.015625)"/>
       <path id="ArialMT-72" d="M 416 0 
L 416 3319 
L 922 3319 
L 922 2816 
Q 1116 3169 1280 3281 
Q 1444 3394 1641 3394 
Q 1925 3394 2219 3213 
L 2025 2691 
Q 1819 2813 1613 2813 
Q 1428 2813 1281 2702 
Q 1134 2591 1072 2394 
Q 978 2094 978 1738 
L 978 0 
L 416 0 
z
" transform="scale(0.015625)"/>
       <path id="ArialMT-61" d="M 2588 409 
Q 2275 144 1986 34 
Q 1697 -75 1366 -75 
Q 819 -75 525 192 
Q 231 459 231 875 
Q 231 1119 342 1320 
Q 453 1522 633 1644 
Q 813 1766 1038 1828 
Q 1203 1872 1538 1913 
Q 2219 1994 2541 2106 
Q 2544 2222 2544 2253 
Q 2544 2597 2384 2738 
Q 2169 2928 1744 2928 
Q 1347 2928 1158 2789 
Q 969 2650 878 2297 
L 328 2372 
Q 403 2725 575 2942 
Q 747 3159 1072 3276 
Q 1397 3394 1825 3394 
Q 2250 3394 2515 3294 
Q 2781 3194 2906 3042 
Q 3031 2891 3081 2659 
Q 3109 2516 3109 2141 
L 3109 1391 
Q 3109 606 3145 398 
Q 3181 191 3288 0 
L 2700 0 
Q 2613 175 2588 409 
z
M 2541 1666 
Q 2234 1541 1622 1453 
Q 1275 1403 1131 1340 
Q 988 1278 909 1158 
Q 831 1038 831 891 
Q 831 666 1001 516 
Q 1172 366 1500 366 
Q 1825 366 2078 508 
Q 2331 650 2450 897 
Q 2541 1088 2541 1459 
L 2541 1666 
z
" transform="scale(0.015625)"/>
       <path id="ArialMT-6e" d="M 422 0 
L 422 3319 
L 928 3319 
L 928 2847 
Q 1294 3394 1984 3394 
Q 2284 3394 2536 3286 
Q 2788 3178 2913 3003 
Q 3038 2828 3088 2588 
Q 3119 2431 3119 2041 
L 3119 0 
L 2556 0 
L 2556 2019 
Q 2556 2363 2490 2533 
Q 2425 2703 2258 2804 
Q 2091 2906 1866 2906 
Q 1506 2906 1245 2678 
Q 984 2450 984 1813 
L 984 0 
L 422 0 
z
" transform="scale(0.015625)"/>
       <path id="ArialMT-20" transform="scale(0.015625)"/>
       <path id="ArialMT-70" d="M 422 -1272 
L 422 3319 
L 934 3319 
L 934 2888 
Q 1116 3141 1344 3267 
Q 1572 3394 1897 3394 
Q 2322 3394 2647 3175 
Q 2972 2956 3137 2557 
Q 3303 2159 3303 1684 
Q 3303 1175 3120 767 
Q 2938 359 2589 142 
Q 2241 -75 1856 -75 
Q 1575 -75 1351 44 
Q 1128 163 984 344 
L 984 -1272 
L 422 -1272 
z
M 931 1641 
Q 931 1000 1190 694 
Q 1450 388 1819 388 
Q 2194 388 2461 705 
Q 2728 1022 2728 1688 
Q 2728 2322 2467 2637 
Q 2206 2953 1844 2953 
Q 1484 2953 1207 2617 
Q 931 2281 931 1641 
z
" transform="scale(0.015625)"/>
       <path id="ArialMT-6f" d="M 213 1659 
Q 213 2581 725 3025 
Q 1153 3394 1769 3394 
Q 2453 3394 2887 2945 
Q 3322 2497 3322 1706 
Q 3322 1066 3130 698 
Q 2938 331 2570 128 
Q 2203 -75 1769 -75 
Q 1072 -75 642 372 
Q 213 819 213 1659 
z
M 791 1659 
Q 791 1022 1069 705 
Q 1347 388 1769 388 
Q 2188 388 2466 706 
Q 2744 1025 2744 1678 
Q 2744 2294 2464 2611 
Q 2184 2928 1769 2928 
Q 1347 2928 1069 2612 
Q 791 2297 791 1659 
z
" transform="scale(0.015625)"/>
       <path id="ArialMT-74" d="M 1650 503 
L 1731 6 
Q 1494 -44 1306 -44 
Q 1000 -44 831 53 
Q 663 150 594 308 
Q 525 466 525 972 
L 525 2881 
L 113 2881 
L 113 3319 
L 525 3319 
L 525 4141 
L 1084 4478 
L 1084 3319 
L 1650 3319 
L 1650 2881 
L 1084 2881 
L 1084 941 
Q 1084 700 1114 631 
Q 1144 563 1211 522 
Q 1278 481 1403 481 
Q 1497 481 1650 503 
z
" transform="scale(0.015625)"/>
       <path id="ArialMT-6c" d="M 409 0 
L 409 4581 
L 972 4581 
L 972 0 
L 409 0 
z
" transform="scale(0.015625)"/>
       <path id="ArialMT-56" d="M 1803 0 
L 28 4581 
L 684 4581 
L 1875 1253 
Q 2019 853 2116 503 
Q 2222 878 2363 1253 
L 3600 4581 
L 4219 4581 
L 2425 0 
L 1803 0 
z
" transform="scale(0.015625)"/>
      </defs>
      <use xlink:href="#ArialMT-4d"/>
      <use xlink:href="#ArialMT-65" x="83.300781"/>
      <use xlink:href="#ArialMT-6d" x="138.916016"/>
      <use xlink:href="#ArialMT-62" x="222.216797"/>
      <use xlink:href="#ArialMT-72" x="277.832031"/>
      <use xlink:href="#ArialMT-61" x="311.132812"/>
      <use xlink:href="#ArialMT-6e" x="366.748047"/>
      <use xlink:href="#ArialMT-65" x="422.363281"/>
      <use xlink:href="#ArialMT-20" x="477.978516"/>
      <use xlink:href="#ArialMT-70" x="505.761719"/>
      <use xlink:href="#ArialMT-6f" x="561.376953"/>
      <use xlink:href="#ArialMT-74" x="616.992188"/>
      <use xlink:href="#ArialMT-65" x="644.775391"/>
      <use xlink:href="#ArialMT-6e" x="700.390625"/>
      <use xlink:href="#ArialMT-74" x="756.005859"/>
      <use xlink:href="#ArialMT-69" x="783.789062"/>
      <use xlink:href="#ArialMT-61" x="806.005859"/>
      <use xlink:href="#ArialMT-6c" x="861.621094"/>
      <use xlink:href="#ArialMT-20" x="883.837891"/>
      <use xlink:href="#ArialMT-28" x="911.621094"/>
      <use xlink:href="#ArialMT-6d" x="944.921875"/>
      <use xlink:href="#ArialMT-56" x="1028.222656"/>
      <use xlink:href="#ArialMT-29" x="1094.921875"/>
     </g>
    </g>
   </g>
   <g id="line2d_13">
    <path d="M 92.290909 436.05 
L 92.493818 440.758606 
L 92.899636 444.703626 
L 93.373091 447.31328 
L 93.846545 448.850396 
L 94.387636 449.859785 
L 94.928727 450.413369 
L 95.605091 450.766331 
L 96.552 450.969479 
L 98.310545 451.061948 
L 106.088727 451.077078 
L 159.927273 451.077492 
L 160.197818 432.550802 
L 160.603636 420.035095 
L 161.077091 411.783506 
L 161.685818 405.088224 
L 162.429818 399.495922 
L 163.241455 395.093357 
L 164.120727 391.522596 
L 165.067636 388.574302 
L 166.082182 386.106073 
L 167.232 383.897922 
L 168.449455 382.030985 
L 169.802182 380.348727 
L 171.357818 378.762162 
L 173.251636 377.158084 
L 175.483636 375.549539 
L 176.362909 375.416069 
L 177.377455 374.80717 
L 179.609455 373.143439 
L 182.585455 370.721995 
L 184.005818 369.251225 
L 185.020364 367.882504 
L 185.561455 367.148446 
L 185.696727 367.386895 
L 186.034909 368.147905 
L 186.237818 368.215578 
L 186.440727 367.999041 
L 186.643636 367.485309 
L 186.778909 366.422513 
L 186.981818 364.876178 
L 187.117091 365.322042 
L 187.658182 367.718552 
L 187.928727 368.097421 
L 188.199273 368.173676 
L 188.605091 368.015141 
L 189.281455 367.443865 
L 190.228364 366.338852 
L 191.175273 364.877426 
L 191.851636 363.439592 
L 192.325091 362.425561 
L 192.595636 362.34302 
L 192.798545 361.970196 
L 193.001455 361.153958 
L 193.339636 357.968748 
L 193.474909 358.439057 
L 193.948364 360.601881 
L 194.218909 361.011428 
L 194.421818 361.036579 
L 194.692364 360.833917 
L 195.098182 360.189391 
L 195.571636 359.162848 
L 195.639273 359.203159 
L 196.045091 359.59467 
L 196.248 359.447955 
L 196.518545 358.912197 
L 196.924364 357.516642 
L 197.330182 356.166613 
L 197.533091 355.968095 
L 197.736 355.437366 
L 198.006545 353.917019 
L 198.615273 349.276058 
L 198.818182 347.021223 
L 198.953455 343.665149 
L 199.224 330.468113 
L 199.359273 315.274622 
L 199.494545 258.256531 
L 199.697455 344.519458 
L 199.900364 366.124324 
L 200.103273 370.955114 
L 200.238545 371.391615 
L 200.373818 371.044672 
L 201.253091 367.685855 
L 202.402909 365.164103 
L 202.808727 364.886578 
L 203.079273 364.241381 
L 203.349818 363.020319 
L 203.620364 360.210929 
L 203.688 360.263196 
L 203.958545 361.85313 
L 204.296727 363.198694 
L 204.499636 363.351193 
L 204.634909 363.236667 
L 204.770182 362.890429 
L 205.311273 360.974549 
L 206.325818 359.076588 
L 206.799273 357.499363 
L 207.272727 355.025368 
L 207.678545 351.471182 
L 208.016727 346.061098 
L 208.287273 336.916908 
L 208.422545 327.156725 
L 208.490182 316.006161 
L 208.625455 250.651951 
L 208.828364 376.797653 
L 209.031273 391.395648 
L 209.098909 391.582808 
L 209.234182 390.059837 
L 209.910545 379.834993 
L 210.316364 376.983979 
L 210.857455 374.766356 
L 212.548364 368.862245 
L 212.954182 366.813066 
L 213.427636 365.794695 
L 213.833455 364.750935 
L 214.171636 363.266506 
L 214.442182 360.590207 
L 214.509818 360.676763 
L 214.712727 361.985888 
L 215.118545 364.734776 
L 215.389091 365.387955 
L 215.659636 365.50307 
L 215.930182 365.34027 
L 216.403636 364.717936 
L 217.012364 363.503465 
L 217.688727 361.594746 
L 218.229818 360.086035 
L 218.500364 359.441865 
L 219.312 356.481439 
L 219.717818 351.959597 
L 219.785455 351.9911 
L 220.056 353.309627 
L 220.258909 353.94916 
L 220.326545 353.969322 
L 220.461818 353.570307 
L 220.867636 350.690574 
L 221.205818 347.142509 
L 221.476364 341.757026 
L 221.679273 332.658893 
L 221.814545 315.385564 
L 221.949818 252.31862 
L 222.152727 373.149503 
L 222.355636 389.280374 
L 222.423273 389.977907 
L 222.490909 389.832361 
L 222.693818 387.176588 
L 223.302545 378.811852 
L 223.708364 376.051978 
L 224.249455 373.844599 
L 226.075636 367.288249 
L 226.346182 365.037332 
L 226.481455 365.414267 
L 226.954909 367.480409 
L 227.225455 367.736869 
L 227.428364 367.643565 
L 227.766545 367.20156 
L 227.969455 367.057763 
L 228.24 367.075554 
L 228.510545 366.833756 
L 228.848727 366.140502 
L 229.592727 363.754905 
L 230.336727 362.817764 
L 230.810182 361.751445 
L 231.351273 359.916892 
L 231.757091 358.613608 
L 232.027636 358.42278 
L 232.230545 357.848327 
L 232.433455 356.32127 
L 232.704 352.439127 
L 232.906909 351.898429 
L 233.109818 351.696002 
L 233.312727 351.008539 
L 233.583273 348.851108 
L 233.853818 344.537198 
L 234.056727 338.123034 
L 234.192 329.203417 
L 234.327273 299.605503 
L 234.394909 231.23039 
L 234.597818 370.56555 
L 234.800727 390.221246 
L 234.868364 391.158875 
L 234.936 391.12047 
L 235.138909 388.381514 
L 235.747636 378.989251 
L 236.221091 375.34383 
L 236.965091 371.82834 
L 237.438545 370.202193 
L 237.844364 369.334772 
L 238.182545 368.651257 
L 238.317818 368.152657 
L 238.656 365.627579 
L 238.858909 366.278034 
L 239.197091 367.317056 
L 239.467636 367.570135 
L 239.738182 367.478917 
L 240.144 367.017217 
L 240.888 365.742467 
L 241.699636 363.908758 
L 241.970182 363.413046 
L 242.308364 362.947993 
L 242.578909 362.554878 
L 242.849455 362.295856 
L 243.12 361.707062 
L 243.525818 360.171607 
L 243.931636 357.738071 
L 244.269818 354.237691 
L 244.946182 337.374237 
L 245.081455 329.601598 
L 245.216727 308.170092 
L 245.284364 265.219793 
L 245.352 284.516198 
L 245.554909 365.383447 
L 245.757818 379.89049 
L 245.893091 381.280454 
L 245.960727 381.125759 
L 246.231273 378.630834 
L 246.704727 374.435809 
L 247.042909 372.914005 
L 247.448727 371.971506 
L 248.530909 370.465157 
L 249.207273 368.80461 
L 249.816 366.767303 
L 250.154182 364.844305 
L 250.424727 361.963787 
L 250.492364 361.924326 
L 250.695273 362.394556 
L 251.033455 363.026353 
L 251.236364 363.033735 
L 251.506909 362.751626 
L 251.912727 361.896889 
L 252.453818 360.141774 
L 252.859636 358.943264 
L 253.197818 357.661576 
L 253.874182 354.250039 
L 254.144727 350.552243 
L 254.482909 342.460458 
L 254.685818 330.712338 
L 254.821091 298.050899 
L 254.888727 222.153721 
L 255.091636 382.475364 
L 255.294545 398.480677 
L 255.362182 398.551442 
L 255.565091 394.990131 
L 256.106182 384.266206 
L 256.512 380.335283 
L 256.985455 377.858392 
L 257.797091 374.989367 
L 260.164364 368.585744 
L 260.637818 366.554405 
L 260.773091 365.440194 
L 261.043636 362.743063 
L 261.111273 362.732157 
L 261.381818 363.34806 
L 261.652364 363.733169 
L 261.855273 363.708363 
L 262.125818 363.361775 
L 262.531636 362.408845 
L 263.410909 359.502989 
L 264.628364 350.920858 
L 264.898909 347.04014 
L 265.169455 339.524036 
L 265.372364 327.126686 
L 265.507636 295.582483 
L 265.575273 243.047302 
L 265.778182 361.520595 
L 265.981091 381.35543 
L 266.116364 383.013848 
L 266.251636 382.099542 
L 266.860364 373.187172 
L 267.063273 370.776796 
L 267.198545 370.508718 
L 267.469091 370.69866 
L 267.874909 370.915659 
L 268.145455 370.687628 
L 268.618909 369.848914 
L 269.701091 367.272612 
L 270.445091 365.062541 
L 271.256727 361.980337 
L 271.730182 359.31534 
L 272.068364 356.425136 
L 272.744727 347.783401 
L 273.082909 344.29314 
L 273.285818 340.709134 
L 273.488727 332.768849 
L 273.624 318.142523 
L 273.759273 239.315157 
L 273.962182 362.959183 
L 274.165091 383.23302 
L 274.300364 385.083395 
L 274.368 384.89546 
L 274.570909 382.653176 
L 275.179636 375.656728 
L 275.653091 372.914193 
L 276.058909 371.54187 
L 276.938182 369.614203 
L 277.817455 366.964096 
L 277.952727 366.045245 
L 278.223273 363.511522 
L 278.290909 363.538801 
L 278.967273 364.854296 
L 279.643636 364.671474 
L 279.914182 364.240259 
L 280.32 363.121689 
L 280.725818 361.385995 
L 282.078545 351.796226 
L 282.416727 346.807798 
L 282.687273 339.904615 
L 282.890182 326.502588 
L 282.957818 314.903256 
L 283.093091 257.63868 
L 283.296 373.938763 
L 283.498909 388.971074 
L 283.566545 389.612863 
L 283.634182 389.462617 
L 283.837091 386.904561 
L 284.445818 378.846087 
L 284.851636 376.265518 
L 285.460364 374.019104 
L 286.474909 371.128037 
L 286.745455 370.795774 
L 287.083636 370.314706 
L 287.557091 369.142056 
L 288.233455 366.917572 
L 288.706909 364.551932 
L 289.045091 361.188063 
L 289.315636 357.656173 
L 289.383273 357.543017 
L 289.450909 357.600117 
L 290.397818 359.495259 
L 290.600727 359.265731 
L 290.938909 358.411617 
L 291.344727 356.725317 
L 291.750545 354.101025 
L 292.359273 348.119489 
L 292.629818 342.171533 
L 292.832727 331.947916 
L 292.968 310.729949 
L 293.035636 262.06959 
L 293.103273 284.646344 
L 293.306182 379.786575 
L 293.509091 391.433976 
L 293.576727 391.472497 
L 293.712 389.699016 
L 294.388364 377.47058 
L 294.794182 375.265769 
L 295.538182 372.662756 
L 297.026182 368.182288 
L 297.567273 368.132637 
L 298.514182 367.287883 
L 298.92 366.31402 
L 299.528727 364.184584 
L 299.866909 362.394759 
L 300.002182 360.71976 
L 300.272727 358.003358 
L 300.408 357.987915 
L 300.746182 358.28139 
L 300.949091 358.071516 
L 301.557818 357.00992 
L 301.896 355.479083 
L 302.301818 352.404762 
L 302.64 347.99522 
L 302.910545 341.23042 
L 303.113455 329.007994 
L 303.248727 296.200912 
L 303.316364 230.374085 
L 303.519273 374.458681 
L 303.722182 391.806212 
L 303.789818 392.349537 
L 303.925091 390.965277 
L 304.669091 378.306692 
L 305.074909 375.450901 
L 305.751273 372.67506 
L 306.157091 370.879353 
L 306.427636 368.278074 
L 306.495273 368.248342 
L 306.698182 368.686159 
L 307.239273 369.774615 
L 307.509818 369.878383 
L 307.780364 369.705563 
L 308.253818 369.089244 
L 310.012364 366.078585 
L 310.688727 363.956034 
L 311.703273 359.685814 
L 311.973818 357.316515 
L 312.379636 351.650176 
L 313.056 332.672473 
L 313.191273 319.777354 
L 313.258909 302.596577 
L 313.326545 251.744285 
L 313.597091 364.936667 
L 313.8 378.108463 
L 313.935273 379.430061 
L 314.002909 379.296359 
L 314.205818 377.663342 
L 314.814545 372.619532 
L 315.152727 371.334042 
L 316.234909 368.747747 
L 316.640727 368.271603 
L 316.911273 368.172396 
L 317.249455 367.706805 
L 317.722909 366.564976 
L 318.196364 364.889961 
L 318.466909 363.317135 
L 318.805091 359.828085 
L 318.940364 359.932361 
L 319.278545 360.484858 
L 319.481455 360.438396 
L 319.752 359.94195 
L 320.901818 356.471478 
L 321.172364 354.871319 
L 321.442909 351.819878 
L 321.781091 345.3029 
L 321.984 338.518496 
L 322.119273 329.579908 
L 322.254545 301.108403 
L 322.322182 233.180133 
L 322.525091 369.609356 
L 322.728 389.099889 
L 322.795636 389.91336 
L 322.863273 389.695978 
L 323.674909 377.68694 
L 324.148364 375.177277 
L 324.621818 373.729639 
L 325.636364 371.361845 
L 325.974545 371.006744 
L 326.448 370.053135 
L 327.124364 368.118924 
L 327.733091 365.683418 
L 328.003636 364.03173 
L 328.341818 360.232015 
L 328.477091 360.186895 
L 328.815273 360.460433 
L 329.018182 360.212335 
L 329.288727 359.333531 
L 330.235636 354.921422 
L 330.641455 352.052747 
L 331.047273 347.943 
L 331.317818 342.182069 
L 331.520727 332.224646 
L 331.656 311.973221 
L 331.723636 267.957081 
L 331.791273 278.204631 
L 331.994182 378.942367 
L 332.197091 391.199524 
L 332.264727 391.243047 
L 332.4 388.73527 
L 332.805818 381.133038 
L 333.211636 377.2494 
L 333.752727 374.412822 
L 334.429091 372.125134 
L 335.781818 368.227517 
L 336.187636 366.523042 
L 336.458182 366.170103 
L 336.728727 365.873841 
L 336.999273 365.271857 
L 337.269818 364.232108 
L 337.405091 363.177645 
L 337.675636 360.253624 
L 337.810909 360.257301 
L 338.284364 361.017898 
L 338.487273 360.917185 
L 338.757818 360.417273 
L 339.163636 359.061456 
L 340.110545 354.559476 
L 340.448727 351.63163 
L 340.786909 346.62028 
L 341.057455 339.132078 
L 341.192727 330.537297 
L 341.328 303.782177 
L 341.395636 233.776642 
L 341.598545 371.244699 
L 341.801455 391.508327 
L 341.869091 392.326465 
L 341.936727 392.152484 
L 342.139636 388.995616 
L 342.883636 375.652586 
L 343.154182 374.829891 
L 343.830545 373.462165 
L 344.709818 371.518455 
L 345.386182 370.432209 
L 346.738909 366.923735 
L 347.144727 365.040774 
L 347.28 363.51741 
L 347.482909 361.306895 
L 347.618182 361.142965 
L 348.159273 361.696937 
L 348.362182 361.44823 
L 348.700364 360.536278 
L 349.106182 358.728943 
L 349.376727 356.754684 
L 350.053091 348.874013 
L 350.323636 343.428069 
L 350.526545 335.080629 
L 350.661818 321.65054 
L 350.729455 304.217785 
L 350.797091 243.097171 
L 351 364.728739 
L 351.202909 386.44785 
L 351.338182 387.791809 
L 351.473455 386.46952 
L 352.285091 375.418876 
L 352.826182 371.896748 
L 353.164364 369.4894 
L 353.367273 367.158485 
L 353.502545 366.965038 
L 354.178909 367.682371 
L 354.72 367.403543 
L 354.990545 367.549503 
L 355.193455 367.438655 
L 355.464 367.001415 
L 355.802182 366.002768 
L 356.478545 363.145314 
L 357.019636 362.195665 
L 357.357818 361.6682 
L 357.763636 360.487521 
L 358.237091 358.345355 
L 358.710545 355.021029 
L 359.048727 351.08382 
L 359.251636 347.042513 
L 359.454545 337.466002 
L 359.589818 325.658747 
L 359.657455 313.359906 
L 359.792727 266.698429 
L 359.995636 372.456601 
L 360.198545 386.667208 
L 360.266182 387.234677 
L 360.333818 387.051683 
L 360.536727 384.522099 
L 361.145455 376.598034 
L 361.551273 373.888717 
L 362.904 367.86873 
L 364.121455 365.220554 
L 365.474182 361.276767 
L 365.744727 358.717545 
L 365.812364 358.7349 
L 366.082909 359.918995 
L 366.421091 360.890508 
L 366.624 360.919769 
L 366.826909 360.641791 
L 367.165091 359.661956 
L 367.570909 357.653512 
L 367.976727 354.498993 
L 368.314909 349.538868 
L 368.653091 341.067624 
L 368.856 329.010491 
L 368.991273 298.21968 
L 369.058909 232.352716 
L 369.261818 370.827856 
L 369.464727 389.447661 
L 369.532364 390.297552 
L 369.6 390.212597 
L 369.802909 387.438759 
L 370.411636 378.035153 
L 370.885091 374.210932 
L 371.561455 369.887577 
L 371.764364 367.884153 
L 371.832 367.775467 
L 371.899636 367.840485 
L 372.440727 368.882355 
L 372.643636 368.781863 
L 372.981818 368.209167 
L 373.455273 366.855811 
L 373.725818 365.58258 
L 374.131636 363.473814 
L 374.469818 362.672932 
L 374.605091 362.722125 
L 374.943273 362.977634 
L 375.146182 362.914784 
L 375.416727 362.591457 
L 376.363636 360.822211 
L 376.769455 359.205794 
L 377.175273 356.721885 
L 377.513455 353.445307 
L 377.716364 349.806696 
L 378.189818 331.600745 
L 378.325091 318.629848 
L 378.460364 261.065256 
L 378.528 292.946105 
L 378.730909 353.802298 
L 378.933818 367.876991 
L 379.136727 370.235827 
L 379.204364 370.13188 
L 379.407273 368.720365 
L 379.880727 364.779877 
L 380.218909 363.721983 
L 381.504 360.992008 
L 382.045091 359.050372 
L 382.518545 356.591491 
L 382.924364 353.302234 
L 383.330182 348.70766 
L 383.533091 342.501478 
L 383.803636 325.892245 
L 383.938909 295.944074 
L 384.006545 256.039928 
L 384.209455 348.924617 
L 384.412364 370.337363 
L 384.615273 374.130774 
L 384.682909 374.189342 
L 384.818182 373.620725 
L 385.562182 369.269862 
L 386.170909 367.469685 
L 387.185455 364.594288 
L 387.658909 362.65372 
L 388.538182 357.917074 
L 388.876364 356.676334 
L 389.214545 354.560872 
L 389.552727 351.028182 
L 389.890909 344.96794 
L 390.093818 335.929409 
L 390.229091 322.110899 
L 390.296727 305.356192 
L 390.364364 248.119483 
L 390.634909 376.501926 
L 390.837818 387.439829 
L 390.905455 387.720194 
L 391.040727 386.657738 
L 391.92 376.041773 
L 392.393455 373.508112 
L 393.069818 371.141184 
L 394.828364 366.446643 
L 395.504727 363.244797 
L 396.181091 360.971614 
L 396.451636 358.170615 
L 396.519273 358.123435 
L 396.722182 358.54426 
L 396.992727 359.024825 
L 397.195636 358.992682 
L 397.804364 358.125705 
L 398.142545 356.934599 
L 398.548364 354.537358 
L 398.886545 351.314011 
L 399.224727 345.594611 
L 399.427636 338.831653 
L 399.562909 329.643472 
L 399.698182 299.008898 
L 399.765818 227.889545 
L 399.968727 374.360686 
L 400.171636 392.369395 
L 400.239273 392.936406 
L 400.306909 392.579139 
L 400.577455 387.592584 
L 401.186182 376.623723 
L 401.592 373.412076 
L 401.794909 371.409935 
L 401.997818 369.771322 
L 402.133091 369.819576 
L 402.606545 370.499533 
L 403.215273 370.803564 
L 403.553455 370.417021 
L 404.094545 369.373441 
L 405.041455 367.011461 
L 405.785455 364.537491 
L 406.326545 362.054048 
L 407.544 354.377836 
L 408.355636 341.591829 
L 408.558545 334.039692 
L 408.693818 320.848603 
L 408.761455 302.790782 
L 408.829091 240.935861 
L 409.032 363.297741 
L 409.234909 385.422017 
L 409.370182 387.181731 
L 409.505455 386.191982 
L 410.384727 375.380152 
L 410.925818 372.479756 
L 411.534545 370.339587 
L 412.346182 368.075576 
L 412.616727 367.523848 
L 412.887273 366.512316 
L 413.157818 364.497538 
L 413.496 360.655992 
L 413.563636 360.697413 
L 413.901818 361.922394 
L 414.24 362.613111 
L 414.442909 362.654976 
L 414.713455 362.422911 
L 415.119273 361.671828 
L 415.660364 360.111489 
L 416.742545 355.898714 
L 417.148364 352.471959 
L 417.621818 345.991539 
L 417.824727 340.544179 
L 418.027636 327.731836 
L 418.162909 289.202088 
L 418.230545 242.453996 
L 418.433455 374.914456 
L 418.636364 390.212574 
L 418.704 390.519384 
L 418.839273 388.796853 
L 419.380364 377.554652 
L 419.718545 375.301841 
L 420.192 373.641368 
L 420.597818 372.997057 
L 421.071273 372.167309 
L 421.882909 370.208234 
L 422.762182 367.504347 
L 423.844364 363.17882 
L 424.656 356.586435 
L 424.926545 353.924606 
L 425.061818 353.908146 
L 425.332364 354.075746 
L 425.467636 353.880752 
L 425.670545 353.113539 
L 425.941091 351.13913 
L 426.211636 347.686875 
L 426.482182 341.100791 
L 426.685091 329.070617 
L 426.820364 297.085536 
L 426.888 229.660579 
L 427.090909 373.848842 
L 427.293818 391.899983 
L 427.361455 392.591624 
L 427.429091 392.365786 
L 427.632 389.251556 
L 428.240727 379.34309 
L 428.714182 375.420063 
L 429.390545 371.915916 
L 430.134545 368.777262 
L 430.405091 368.44367 
L 430.472727 368.391412 
L 430.743273 389.37171 
L 431.149091 404.175895 
L 431.757818 417.815116 
L 432.569455 431.310873 
L 433.245818 439.577646 
L 433.854545 444.545311 
L 434.395636 447.298814 
L 434.936727 448.949389 
L 435.477818 449.897836 
L 436.018909 450.429154 
L 436.695273 450.772135 
L 437.642182 450.97051 
L 439.400727 451.059575 
L 447.517091 451.070609 
L 498.109091 451.07371 
L 498.109091 451.07371 
" clip-path="url(#p90892a381e)" style="fill: none; stroke: #000000; stroke-width: 1.5; stroke-linecap: square"/>
   </g>
   <g id="line2d_14">
    <path d="M 497.973818 408.87 
" clip-path="url(#p90892a381e)" style="fill: none; stroke: #000000; stroke-width: 1.5; stroke-linecap: square"/>
   </g>
   <g id="line2d_15">
    <path d="M 430.472727 368.1 
L 430.472727 365.382 
L 430.472727 362.664 
L 430.472727 359.946 
L 430.472727 357.228 
L 430.472727 354.51 
L 430.472727 351.792 
L 430.472727 349.074 
L 430.472727 346.356 
L 430.472727 343.638 
L 430.472727 340.92 
L 430.472727 338.202 
L 430.472727 335.484 
L 430.472727 332.766 
L 430.472727 330.048 
L 430.472727 327.33 
L 430.472727 324.612 
L 430.472727 321.894 
L 430.472727 319.176 
L 430.472727 316.458 
" clip-path="url(#p90892a381e)" style="fill: none; stroke: #000000; stroke-width: 1.5; stroke-linecap: square"/>
   </g>
   <g id="patch_3">
    <path d="M 72 504 
L 72 69.12 
" style="fill: none; stroke: #000000; stroke-width: 0.8; stroke-linejoin: miter; stroke-linecap: square"/>
   </g>
   <g id="patch_4">
    <path d="M 518.4 504 
L 518.4 69.12 
" style="fill: none; stroke: #000000; stroke-width: 0.8; stroke-linejoin: miter; stroke-linecap: square"/>
   </g>
   <g id="patch_5">
    <path d="M 72 504 
L 518.4 504 
" style="fill: none; stroke: #000000; stroke-width: 0.8; stroke-linejoin: miter; stroke-linecap: square"/>
   </g>
   <g id="patch_6">
    <path d="M 72 69.12 
L 518.4 69.12 
" style="fill: none; stroke: #000000; stroke-width: 0.8; stroke-linejoin: miter; stroke-linecap: square"/>
   </g>
   <g id="text_15">
    <!-- 500 ms -->
    <g transform="translate(497.973818 406.152)scale(0.22 -0.22)">
     <defs>
      <path id="ArialMT-35" d="M 266 1200 
L 856 1250 
Q 922 819 1161 601 
Q 1400 384 1738 384 
Q 2144 384 2425 690 
Q 2706 997 2706 1503 
Q 2706 1984 2436 2262 
Q 2166 2541 1728 2541 
Q 1456 2541 1237 2417 
Q 1019 2294 894 2097 
L 366 2166 
L 809 4519 
L 3088 4519 
L 3088 3981 
L 1259 3981 
L 1013 2750 
Q 1425 3038 1878 3038 
Q 2478 3038 2890 2622 
Q 3303 2206 3303 1553 
Q 3303 931 2941 478 
Q 2500 -78 1738 -78 
Q 1113 -78 717 272 
Q 322 622 266 1200 
z
" transform="scale(0.015625)"/>
      <path id="ArialMT-30" d="M 266 2259 
Q 266 3072 433 3567 
Q 600 4063 929 4331 
Q 1259 4600 1759 4600 
Q 2128 4600 2406 4451 
Q 2684 4303 2865 4023 
Q 3047 3744 3150 3342 
Q 3253 2941 3253 2259 
Q 3253 1453 3087 958 
Q 2922 463 2592 192 
Q 2263 -78 1759 -78 
Q 1097 -78 719 397 
Q 266 969 266 2259 
z
M 844 2259 
Q 844 1131 1108 757 
Q 1372 384 1759 384 
Q 2147 384 2411 759 
Q 2675 1134 2675 2259 
Q 2675 3391 2411 3762 
Q 2147 4134 1753 4134 
Q 1366 4134 1134 3806 
Q 844 3388 844 2259 
z
" transform="scale(0.015625)"/>
     </defs>
     <use xlink:href="#ArialMT-35"/>
     <use xlink:href="#ArialMT-30" x="55.615234"/>
     <use xlink:href="#ArialMT-30" x="111.230469"/>
     <use xlink:href="#ArialMT-20" x="166.845703"/>
     <use xlink:href="#ArialMT-6d" x="194.628906"/>
     <use xlink:href="#ArialMT-73" x="277.929688"/>
    </g>
   </g>
   <g id="text_16">
    <!-- 20 mV -->
    <g transform="translate(504.737455 321.894)scale(0.22 -0.22)">
     <defs>
      <path id="ArialMT-32" d="M 3222 541 
L 3222 0 
L 194 0 
Q 188 203 259 391 
Q 375 700 629 1000 
Q 884 1300 1366 1694 
Q 2113 2306 2375 2664 
Q 2638 3022 2638 3341 
Q 2638 3675 2398 3904 
Q 2159 4134 1775 4134 
Q 1369 4134 1125 3890 
Q 881 3647 878 3216 
L 300 3275 
Q 359 3922 746 4261 
Q 1134 4600 1788 4600 
Q 2447 4600 2831 4234 
Q 3216 3869 3216 3328 
Q 3216 3053 3103 2787 
Q 2991 2522 2730 2228 
Q 2469 1934 1863 1422 
Q 1356 997 1212 845 
Q 1069 694 975 541 
L 3222 541 
z
" transform="scale(0.015625)"/>
     </defs>
     <use xlink:href="#ArialMT-32"/>
     <use xlink:href="#ArialMT-30" x="55.615234"/>
     <use xlink:href="#ArialMT-20" x="111.230469"/>
     <use xlink:href="#ArialMT-6d" x="139.013672"/>
     <use xlink:href="#ArialMT-56" x="222.314453"/>
    </g>
   </g>
   <g id="text_17">
    <!--  Plotting FS, trace number 12417  -->
    <g transform="translate(130.732812 63.12)scale(0.22 -0.22)">
     <defs>
      <path id="ArialMT-50" d="M 494 0 
L 494 4581 
L 2222 4581 
Q 2678 4581 2919 4538 
Q 3256 4481 3484 4323 
Q 3713 4166 3852 3881 
Q 3991 3597 3991 3256 
Q 3991 2672 3619 2267 
Q 3247 1863 2275 1863 
L 1100 1863 
L 1100 0 
L 494 0 
z
M 1100 2403 
L 2284 2403 
Q 2872 2403 3119 2622 
Q 3366 2841 3366 3238 
Q 3366 3525 3220 3729 
Q 3075 3934 2838 4000 
Q 2684 4041 2272 4041 
L 1100 4041 
L 1100 2403 
z
" transform="scale(0.015625)"/>
      <path id="ArialMT-67" d="M 319 -275 
L 866 -356 
Q 900 -609 1056 -725 
Q 1266 -881 1628 -881 
Q 2019 -881 2231 -725 
Q 2444 -569 2519 -288 
Q 2563 -116 2559 434 
Q 2191 0 1641 0 
Q 956 0 581 494 
Q 206 988 206 1678 
Q 206 2153 378 2554 
Q 550 2956 876 3175 
Q 1203 3394 1644 3394 
Q 2231 3394 2613 2919 
L 2613 3319 
L 3131 3319 
L 3131 450 
Q 3131 -325 2973 -648 
Q 2816 -972 2473 -1159 
Q 2131 -1347 1631 -1347 
Q 1038 -1347 672 -1080 
Q 306 -813 319 -275 
z
M 784 1719 
Q 784 1066 1043 766 
Q 1303 466 1694 466 
Q 2081 466 2343 764 
Q 2606 1063 2606 1700 
Q 2606 2309 2336 2618 
Q 2066 2928 1684 2928 
Q 1309 2928 1046 2623 
Q 784 2319 784 1719 
z
" transform="scale(0.015625)"/>
      <path id="ArialMT-46" d="M 525 0 
L 525 4581 
L 3616 4581 
L 3616 4041 
L 1131 4041 
L 1131 2622 
L 3281 2622 
L 3281 2081 
L 1131 2081 
L 1131 0 
L 525 0 
z
" transform="scale(0.015625)"/>
      <path id="ArialMT-53" d="M 288 1472 
L 859 1522 
Q 900 1178 1048 958 
Q 1197 738 1509 602 
Q 1822 466 2213 466 
Q 2559 466 2825 569 
Q 3091 672 3220 851 
Q 3350 1031 3350 1244 
Q 3350 1459 3225 1620 
Q 3100 1781 2813 1891 
Q 2628 1963 1997 2114 
Q 1366 2266 1113 2400 
Q 784 2572 623 2826 
Q 463 3081 463 3397 
Q 463 3744 659 4045 
Q 856 4347 1234 4503 
Q 1613 4659 2075 4659 
Q 2584 4659 2973 4495 
Q 3363 4331 3572 4012 
Q 3781 3694 3797 3291 
L 3216 3247 
Q 3169 3681 2898 3903 
Q 2628 4125 2100 4125 
Q 1550 4125 1298 3923 
Q 1047 3722 1047 3438 
Q 1047 3191 1225 3031 
Q 1400 2872 2139 2705 
Q 2878 2538 3153 2413 
Q 3553 2228 3743 1945 
Q 3934 1663 3934 1294 
Q 3934 928 3725 604 
Q 3516 281 3123 101 
Q 2731 -78 2241 -78 
Q 1619 -78 1198 103 
Q 778 284 539 648 
Q 300 1013 288 1472 
z
" transform="scale(0.015625)"/>
      <path id="ArialMT-2c" d="M 569 0 
L 569 641 
L 1209 641 
L 1209 0 
Q 1209 -353 1084 -570 
Q 959 -788 688 -906 
L 531 -666 
Q 709 -588 793 -436 
Q 878 -284 888 0 
L 569 0 
z
" transform="scale(0.015625)"/>
      <path id="ArialMT-63" d="M 2588 1216 
L 3141 1144 
Q 3050 572 2676 248 
Q 2303 -75 1759 -75 
Q 1078 -75 664 370 
Q 250 816 250 1647 
Q 250 2184 428 2587 
Q 606 2991 970 3192 
Q 1334 3394 1763 3394 
Q 2303 3394 2647 3120 
Q 2991 2847 3088 2344 
L 2541 2259 
Q 2463 2594 2264 2762 
Q 2066 2931 1784 2931 
Q 1359 2931 1093 2626 
Q 828 2322 828 1663 
Q 828 994 1084 691 
Q 1341 388 1753 388 
Q 2084 388 2306 591 
Q 2528 794 2588 1216 
z
" transform="scale(0.015625)"/>
      <path id="ArialMT-75" d="M 2597 0 
L 2597 488 
Q 2209 -75 1544 -75 
Q 1250 -75 995 37 
Q 741 150 617 320 
Q 494 491 444 738 
Q 409 903 409 1263 
L 409 3319 
L 972 3319 
L 972 1478 
Q 972 1038 1006 884 
Q 1059 663 1231 536 
Q 1403 409 1656 409 
Q 1909 409 2131 539 
Q 2353 669 2445 892 
Q 2538 1116 2538 1541 
L 2538 3319 
L 3100 3319 
L 3100 0 
L 2597 0 
z
" transform="scale(0.015625)"/>
      <path id="ArialMT-31" d="M 2384 0 
L 1822 0 
L 1822 3584 
Q 1619 3391 1289 3197 
Q 959 3003 697 2906 
L 697 3450 
Q 1169 3672 1522 3987 
Q 1875 4303 2022 4600 
L 2384 4600 
L 2384 0 
z
" transform="scale(0.015625)"/>
      <path id="ArialMT-34" d="M 2069 0 
L 2069 1097 
L 81 1097 
L 81 1613 
L 2172 4581 
L 2631 4581 
L 2631 1613 
L 3250 1613 
L 3250 1097 
L 2631 1097 
L 2631 0 
L 2069 0 
z
M 2069 1613 
L 2069 3678 
L 634 1613 
L 2069 1613 
z
" transform="scale(0.015625)"/>
      <path id="ArialMT-37" d="M 303 3981 
L 303 4522 
L 3269 4522 
L 3269 4084 
Q 2831 3619 2401 2847 
Q 1972 2075 1738 1259 
Q 1569 684 1522 0 
L 944 0 
Q 953 541 1156 1306 
Q 1359 2072 1739 2783 
Q 2119 3494 2547 3981 
L 303 3981 
z
" transform="scale(0.015625)"/>
     </defs>
     <use xlink:href="#ArialMT-20"/>
     <use xlink:href="#ArialMT-50" x="27.783203"/>
     <use xlink:href="#ArialMT-6c" x="94.482422"/>
     <use xlink:href="#ArialMT-6f" x="116.699219"/>
     <use xlink:href="#ArialMT-74" x="172.314453"/>
     <use xlink:href="#ArialMT-74" x="200.097656"/>
     <use xlink:href="#ArialMT-69" x="227.880859"/>
     <use xlink:href="#ArialMT-6e" x="250.097656"/>
     <use xlink:href="#ArialMT-67" x="305.712891"/>
     <use xlink:href="#ArialMT-20" x="361.328125"/>
     <use xlink:href="#ArialMT-46" x="389.111328"/>
     <use xlink:href="#ArialMT-53" x="450.195312"/>
     <use xlink:href="#ArialMT-2c" x="516.894531"/>
     <use xlink:href="#ArialMT-20" x="544.677734"/>
     <use xlink:href="#ArialMT-74" x="572.460938"/>
     <use xlink:href="#ArialMT-72" x="600.244141"/>
     <use xlink:href="#ArialMT-61" x="633.544922"/>
     <use xlink:href="#ArialMT-63" x="689.160156"/>
     <use xlink:href="#ArialMT-65" x="739.160156"/>
     <use xlink:href="#ArialMT-20" x="794.775391"/>
     <use xlink:href="#ArialMT-6e" x="822.558594"/>
     <use xlink:href="#ArialMT-75" x="878.173828"/>
     <use xlink:href="#ArialMT-6d" x="933.789062"/>
     <use xlink:href="#ArialMT-62" x="1017.089844"/>
     <use xlink:href="#ArialMT-65" x="1072.705078"/>
     <use xlink:href="#ArialMT-72" x="1128.320312"/>
     <use xlink:href="#ArialMT-20" x="1161.621094"/>
     <use xlink:href="#ArialMT-31" x="1189.404297"/>
     <use xlink:href="#ArialMT-32" x="1245.019531"/>
     <use xlink:href="#ArialMT-34" x="1300.634766"/>
     <use xlink:href="#ArialMT-31" x="1356.25"/>
     <use xlink:href="#ArialMT-37" x="1411.865234"/>
     <use xlink:href="#ArialMT-20" x="1467.480469"/>
    </g>
   </g>
  </g>
 </g>
 <defs>
  <clipPath id="p90892a381e">
   <rect x="72" y="69.12" width="446.4" height="434.88"/>
  </clipPath>
 </defs>
</svg>
