<?xml version="1.0" encoding="utf-8" standalone="no"?>
<!DOCTYPE svg PUBLIC "-//W3C//DTD SVG 1.1//EN"
  "http://www.w3.org/Graphics/SVG/1.1/DTD/svg11.dtd">
<svg xmlns:xlink="http://www.w3.org/1999/xlink" width="576pt" height="576pt" viewBox="0 0 576 576" xmlns="http://www.w3.org/2000/svg" version="1.1">
 <metadata>
  <rdf:RDF xmlns:dc="http://purl.org/dc/elements/1.1/" xmlns:cc="http://creativecommons.org/ns#" xmlns:rdf="http://www.w3.org/1999/02/22-rdf-syntax-ns#">
   <cc:Work>
    <dc:type rdf:resource="http://purl.org/dc/dcmitype/StillImage"/>
    <dc:date>2022-10-30T19:57:16.548322</dc:date>
    <dc:format>image/svg+xml</dc:format>
    <dc:creator>
     <cc:Agent>
      <dc:title>Matplotlib v3.5.2, https://matplotlib.org/</dc:title>
     </cc:Agent>
    </dc:creator>
   </cc:Work>
  </rdf:RDF>
 </metadata>
 <defs>
  <style type="text/css">*{stroke-linejoin: round; stroke-linecap: butt}</style>
 </defs>
 <g id="figure_1">
  <g id="patch_1">
   <path d="M 0 576 
L 576 576 
L 576 0 
L 0 0 
L 0 576 
z
" style="fill: none"/>
  </g>
  <g id="axes_1">
   <g id="patch_2">
    <path d="M 72 504 
L 518.4 504 
L 518.4 69.12 
L 72 69.12 
z
" style="fill: #ffffff"/>
   </g>
   <g id="matplotlib.axis_1">
    <g id="xtick_1">
     <g id="line2d_1">
      <defs>
       <path id="m24f8f2efb2" d="M 0 0 
L 0 3.5 
" style="stroke: #000000; stroke-width: 0.8"/>
      </defs>
      <g>
       <use xlink:href="#m24f8f2efb2" x="92.290909" y="504" style="stroke: #000000; stroke-width: 0.8"/>
      </g>
     </g>
     <g id="text_1">
      <!-- 0 -->
      <g transform="translate(85.292159 527.716563)scale(0.22 -0.22)">
       <defs>
        <path id="DejaVuSans-30" d="M 2034 4250 
Q 1547 4250 1301 3770 
Q 1056 3291 1056 2328 
Q 1056 1369 1301 889 
Q 1547 409 2034 409 
Q 2525 409 2770 889 
Q 3016 1369 3016 2328 
Q 3016 3291 2770 3770 
Q 2525 4250 2034 4250 
z
M 2034 4750 
Q 2819 4750 3233 4129 
Q 3647 3509 3647 2328 
Q 3647 1150 3233 529 
Q 2819 -91 2034 -91 
Q 1250 -91 836 529 
Q 422 1150 422 2328 
Q 422 3509 836 4129 
Q 1250 4750 2034 4750 
z
" transform="scale(0.015625)"/>
       </defs>
       <use xlink:href="#DejaVuSans-30"/>
      </g>
     </g>
    </g>
    <g id="xtick_2">
     <g id="line2d_2">
      <g>
       <use xlink:href="#m24f8f2efb2" x="227.563636" y="504" style="stroke: #000000; stroke-width: 0.8"/>
      </g>
     </g>
     <g id="text_2">
      <!-- 1000 -->
      <g transform="translate(199.568636 527.716563)scale(0.22 -0.22)">
       <defs>
        <path id="DejaVuSans-31" d="M 794 531 
L 1825 531 
L 1825 4091 
L 703 3866 
L 703 4441 
L 1819 4666 
L 2450 4666 
L 2450 531 
L 3481 531 
L 3481 0 
L 794 0 
L 794 531 
z
" transform="scale(0.015625)"/>
       </defs>
       <use xlink:href="#DejaVuSans-31"/>
       <use xlink:href="#DejaVuSans-30" x="63.623047"/>
       <use xlink:href="#DejaVuSans-30" x="127.246094"/>
       <use xlink:href="#DejaVuSans-30" x="190.869141"/>
      </g>
     </g>
    </g>
    <g id="xtick_3">
     <g id="line2d_3">
      <g>
       <use xlink:href="#m24f8f2efb2" x="362.836364" y="504" style="stroke: #000000; stroke-width: 0.8"/>
      </g>
     </g>
     <g id="text_3">
      <!-- 2000 -->
      <g transform="translate(334.841364 527.716563)scale(0.22 -0.22)">
       <defs>
        <path id="DejaVuSans-32" d="M 1228 531 
L 3431 531 
L 3431 0 
L 469 0 
L 469 531 
Q 828 903 1448 1529 
Q 2069 2156 2228 2338 
Q 2531 2678 2651 2914 
Q 2772 3150 2772 3378 
Q 2772 3750 2511 3984 
Q 2250 4219 1831 4219 
Q 1534 4219 1204 4116 
Q 875 4013 500 3803 
L 500 4441 
Q 881 4594 1212 4672 
Q 1544 4750 1819 4750 
Q 2544 4750 2975 4387 
Q 3406 4025 3406 3419 
Q 3406 3131 3298 2873 
Q 3191 2616 2906 2266 
Q 2828 2175 2409 1742 
Q 1991 1309 1228 531 
z
" transform="scale(0.015625)"/>
       </defs>
       <use xlink:href="#DejaVuSans-32"/>
       <use xlink:href="#DejaVuSans-30" x="63.623047"/>
       <use xlink:href="#DejaVuSans-30" x="127.246094"/>
       <use xlink:href="#DejaVuSans-30" x="190.869141"/>
      </g>
     </g>
    </g>
    <g id="xtick_4">
     <g id="line2d_4">
      <g>
       <use xlink:href="#m24f8f2efb2" x="498.109091" y="504" style="stroke: #000000; stroke-width: 0.8"/>
      </g>
     </g>
     <g id="text_4">
      <!-- 3000 -->
      <g transform="translate(470.114091 527.716563)scale(0.22 -0.22)">
       <defs>
        <path id="DejaVuSans-33" d="M 2597 2516 
Q 3050 2419 3304 2112 
Q 3559 1806 3559 1356 
Q 3559 666 3084 287 
Q 2609 -91 1734 -91 
Q 1441 -91 1130 -33 
Q 819 25 488 141 
L 488 750 
Q 750 597 1062 519 
Q 1375 441 1716 441 
Q 2309 441 2620 675 
Q 2931 909 2931 1356 
Q 2931 1769 2642 2001 
Q 2353 2234 1838 2234 
L 1294 2234 
L 1294 2753 
L 1863 2753 
Q 2328 2753 2575 2939 
Q 2822 3125 2822 3475 
Q 2822 3834 2567 4026 
Q 2313 4219 1838 4219 
Q 1578 4219 1281 4162 
Q 984 4106 628 3988 
L 628 4550 
Q 988 4650 1302 4700 
Q 1616 4750 1894 4750 
Q 2613 4750 3031 4423 
Q 3450 4097 3450 3541 
Q 3450 3153 3228 2886 
Q 3006 2619 2597 2516 
z
" transform="scale(0.015625)"/>
       </defs>
       <use xlink:href="#DejaVuSans-33"/>
       <use xlink:href="#DejaVuSans-30" x="63.623047"/>
       <use xlink:href="#DejaVuSans-30" x="127.246094"/>
       <use xlink:href="#DejaVuSans-30" x="190.869141"/>
      </g>
     </g>
    </g>
    <g id="text_5">
     <!-- Time(ms) -->
     <g transform="translate(249.182187 552.307188)scale(0.22 -0.22)">
      <defs>
       <path id="ArialMT-54" d="M 1659 0 
L 1659 4041 
L 150 4041 
L 150 4581 
L 3781 4581 
L 3781 4041 
L 2266 4041 
L 2266 0 
L 1659 0 
z
" transform="scale(0.015625)"/>
       <path id="ArialMT-69" d="M 425 3934 
L 425 4581 
L 988 4581 
L 988 3934 
L 425 3934 
z
M 425 0 
L 425 3319 
L 988 3319 
L 988 0 
L 425 0 
z
" transform="scale(0.015625)"/>
       <path id="ArialMT-6d" d="M 422 0 
L 422 3319 
L 925 3319 
L 925 2853 
Q 1081 3097 1340 3245 
Q 1600 3394 1931 3394 
Q 2300 3394 2536 3241 
Q 2772 3088 2869 2813 
Q 3263 3394 3894 3394 
Q 4388 3394 4653 3120 
Q 4919 2847 4919 2278 
L 4919 0 
L 4359 0 
L 4359 2091 
Q 4359 2428 4304 2576 
Q 4250 2725 4106 2815 
Q 3963 2906 3769 2906 
Q 3419 2906 3187 2673 
Q 2956 2441 2956 1928 
L 2956 0 
L 2394 0 
L 2394 2156 
Q 2394 2531 2256 2718 
Q 2119 2906 1806 2906 
Q 1569 2906 1367 2781 
Q 1166 2656 1075 2415 
Q 984 2175 984 1722 
L 984 0 
L 422 0 
z
" transform="scale(0.015625)"/>
       <path id="ArialMT-65" d="M 2694 1069 
L 3275 997 
Q 3138 488 2766 206 
Q 2394 -75 1816 -75 
Q 1088 -75 661 373 
Q 234 822 234 1631 
Q 234 2469 665 2931 
Q 1097 3394 1784 3394 
Q 2450 3394 2872 2941 
Q 3294 2488 3294 1666 
Q 3294 1616 3291 1516 
L 816 1516 
Q 847 969 1125 678 
Q 1403 388 1819 388 
Q 2128 388 2347 550 
Q 2566 713 2694 1069 
z
M 847 1978 
L 2700 1978 
Q 2663 2397 2488 2606 
Q 2219 2931 1791 2931 
Q 1403 2931 1139 2672 
Q 875 2413 847 1978 
z
" transform="scale(0.015625)"/>
       <path id="ArialMT-28" d="M 1497 -1347 
Q 1031 -759 709 28 
Q 388 816 388 1659 
Q 388 2403 628 3084 
Q 909 3875 1497 4659 
L 1900 4659 
Q 1522 4009 1400 3731 
Q 1209 3300 1100 2831 
Q 966 2247 966 1656 
Q 966 153 1900 -1347 
L 1497 -1347 
z
" transform="scale(0.015625)"/>
       <path id="ArialMT-73" d="M 197 991 
L 753 1078 
Q 800 744 1014 566 
Q 1228 388 1613 388 
Q 2000 388 2187 545 
Q 2375 703 2375 916 
Q 2375 1106 2209 1216 
Q 2094 1291 1634 1406 
Q 1016 1563 777 1677 
Q 538 1791 414 1992 
Q 291 2194 291 2438 
Q 291 2659 392 2848 
Q 494 3038 669 3163 
Q 800 3259 1026 3326 
Q 1253 3394 1513 3394 
Q 1903 3394 2198 3281 
Q 2494 3169 2634 2976 
Q 2775 2784 2828 2463 
L 2278 2388 
Q 2241 2644 2061 2787 
Q 1881 2931 1553 2931 
Q 1166 2931 1000 2803 
Q 834 2675 834 2503 
Q 834 2394 903 2306 
Q 972 2216 1119 2156 
Q 1203 2125 1616 2013 
Q 2213 1853 2448 1751 
Q 2684 1650 2818 1456 
Q 2953 1263 2953 975 
Q 2953 694 2789 445 
Q 2625 197 2315 61 
Q 2006 -75 1616 -75 
Q 969 -75 630 194 
Q 291 463 197 991 
z
" transform="scale(0.015625)"/>
       <path id="ArialMT-29" d="M 791 -1347 
L 388 -1347 
Q 1322 153 1322 1656 
Q 1322 2244 1188 2822 
Q 1081 3291 891 3722 
Q 769 4003 388 4659 
L 791 4659 
Q 1378 3875 1659 3084 
Q 1900 2403 1900 1659 
Q 1900 816 1576 28 
Q 1253 -759 791 -1347 
z
" transform="scale(0.015625)"/>
      </defs>
      <use xlink:href="#ArialMT-54"/>
      <use xlink:href="#ArialMT-69" x="57.333984"/>
      <use xlink:href="#ArialMT-6d" x="79.550781"/>
      <use xlink:href="#ArialMT-65" x="162.851562"/>
      <use xlink:href="#ArialMT-28" x="218.466797"/>
      <use xlink:href="#ArialMT-6d" x="251.767578"/>
      <use xlink:href="#ArialMT-73" x="335.068359"/>
      <use xlink:href="#ArialMT-29" x="385.068359"/>
     </g>
    </g>
   </g>
   <g id="matplotlib.axis_2">
    <g id="ytick_1">
     <g id="line2d_5">
      <defs>
       <path id="mda3208cefb" d="M 0 0 
L -3.5 0 
" style="stroke: #000000; stroke-width: 0.8"/>
      </defs>
      <g>
       <use xlink:href="#mda3208cefb" x="72" y="476.82" style="stroke: #000000; stroke-width: 0.8"/>
      </g>
     </g>
     <g id="text_6">
      <!-- −100 -->
      <g transform="translate(4.572187 485.178281)scale(0.22 -0.22)">
       <defs>
        <path id="DejaVuSans-2212" d="M 678 2272 
L 4684 2272 
L 4684 1741 
L 678 1741 
L 678 2272 
z
" transform="scale(0.015625)"/>
       </defs>
       <use xlink:href="#DejaVuSans-2212"/>
       <use xlink:href="#DejaVuSans-31" x="83.789062"/>
       <use xlink:href="#DejaVuSans-30" x="147.412109"/>
       <use xlink:href="#DejaVuSans-30" x="211.035156"/>
      </g>
     </g>
    </g>
    <g id="ytick_2">
     <g id="line2d_6">
      <g>
       <use xlink:href="#mda3208cefb" x="72" y="422.46" style="stroke: #000000; stroke-width: 0.8"/>
      </g>
     </g>
     <g id="text_7">
      <!-- −80 -->
      <g transform="translate(18.569688 430.818281)scale(0.22 -0.22)">
       <defs>
        <path id="DejaVuSans-38" d="M 2034 2216 
Q 1584 2216 1326 1975 
Q 1069 1734 1069 1313 
Q 1069 891 1326 650 
Q 1584 409 2034 409 
Q 2484 409 2743 651 
Q 3003 894 3003 1313 
Q 3003 1734 2745 1975 
Q 2488 2216 2034 2216 
z
M 1403 2484 
Q 997 2584 770 2862 
Q 544 3141 544 3541 
Q 544 4100 942 4425 
Q 1341 4750 2034 4750 
Q 2731 4750 3128 4425 
Q 3525 4100 3525 3541 
Q 3525 3141 3298 2862 
Q 3072 2584 2669 2484 
Q 3125 2378 3379 2068 
Q 3634 1759 3634 1313 
Q 3634 634 3220 271 
Q 2806 -91 2034 -91 
Q 1263 -91 848 271 
Q 434 634 434 1313 
Q 434 1759 690 2068 
Q 947 2378 1403 2484 
z
M 1172 3481 
Q 1172 3119 1398 2916 
Q 1625 2713 2034 2713 
Q 2441 2713 2670 2916 
Q 2900 3119 2900 3481 
Q 2900 3844 2670 4047 
Q 2441 4250 2034 4250 
Q 1625 4250 1398 4047 
Q 1172 3844 1172 3481 
z
" transform="scale(0.015625)"/>
       </defs>
       <use xlink:href="#DejaVuSans-2212"/>
       <use xlink:href="#DejaVuSans-38" x="83.789062"/>
       <use xlink:href="#DejaVuSans-30" x="147.412109"/>
      </g>
     </g>
    </g>
    <g id="ytick_3">
     <g id="line2d_7">
      <g>
       <use xlink:href="#mda3208cefb" x="72" y="368.1" style="stroke: #000000; stroke-width: 0.8"/>
      </g>
     </g>
     <g id="text_8">
      <!-- −60 -->
      <g transform="translate(18.569688 376.458281)scale(0.22 -0.22)">
       <defs>
        <path id="DejaVuSans-36" d="M 2113 2584 
Q 1688 2584 1439 2293 
Q 1191 2003 1191 1497 
Q 1191 994 1439 701 
Q 1688 409 2113 409 
Q 2538 409 2786 701 
Q 3034 994 3034 1497 
Q 3034 2003 2786 2293 
Q 2538 2584 2113 2584 
z
M 3366 4563 
L 3366 3988 
Q 3128 4100 2886 4159 
Q 2644 4219 2406 4219 
Q 1781 4219 1451 3797 
Q 1122 3375 1075 2522 
Q 1259 2794 1537 2939 
Q 1816 3084 2150 3084 
Q 2853 3084 3261 2657 
Q 3669 2231 3669 1497 
Q 3669 778 3244 343 
Q 2819 -91 2113 -91 
Q 1303 -91 875 529 
Q 447 1150 447 2328 
Q 447 3434 972 4092 
Q 1497 4750 2381 4750 
Q 2619 4750 2861 4703 
Q 3103 4656 3366 4563 
z
" transform="scale(0.015625)"/>
       </defs>
       <use xlink:href="#DejaVuSans-2212"/>
       <use xlink:href="#DejaVuSans-36" x="83.789062"/>
       <use xlink:href="#DejaVuSans-30" x="147.412109"/>
      </g>
     </g>
    </g>
    <g id="ytick_4">
     <g id="line2d_8">
      <g>
       <use xlink:href="#mda3208cefb" x="72" y="313.74" style="stroke: #000000; stroke-width: 0.8"/>
      </g>
     </g>
     <g id="text_9">
      <!-- −40 -->
      <g transform="translate(18.569688 322.098281)scale(0.22 -0.22)">
       <defs>
        <path id="DejaVuSans-34" d="M 2419 4116 
L 825 1625 
L 2419 1625 
L 2419 4116 
z
M 2253 4666 
L 3047 4666 
L 3047 1625 
L 3713 1625 
L 3713 1100 
L 3047 1100 
L 3047 0 
L 2419 0 
L 2419 1100 
L 313 1100 
L 313 1709 
L 2253 4666 
z
" transform="scale(0.015625)"/>
       </defs>
       <use xlink:href="#DejaVuSans-2212"/>
       <use xlink:href="#DejaVuSans-34" x="83.789062"/>
       <use xlink:href="#DejaVuSans-30" x="147.412109"/>
      </g>
     </g>
    </g>
    <g id="ytick_5">
     <g id="line2d_9">
      <g>
       <use xlink:href="#mda3208cefb" x="72" y="259.38" style="stroke: #000000; stroke-width: 0.8"/>
      </g>
     </g>
     <g id="text_10">
      <!-- −20 -->
      <g transform="translate(18.569688 267.738281)scale(0.22 -0.22)">
       <use xlink:href="#DejaVuSans-2212"/>
       <use xlink:href="#DejaVuSans-32" x="83.789062"/>
       <use xlink:href="#DejaVuSans-30" x="147.412109"/>
      </g>
     </g>
    </g>
    <g id="ytick_6">
     <g id="line2d_10">
      <g>
       <use xlink:href="#mda3208cefb" x="72" y="205.02" style="stroke: #000000; stroke-width: 0.8"/>
      </g>
     </g>
     <g id="text_11">
      <!-- 0 -->
      <g transform="translate(51.0025 213.378281)scale(0.22 -0.22)">
       <use xlink:href="#DejaVuSans-30"/>
      </g>
     </g>
    </g>
    <g id="ytick_7">
     <g id="line2d_11">
      <g>
       <use xlink:href="#mda3208cefb" x="72" y="150.66" style="stroke: #000000; stroke-width: 0.8"/>
      </g>
     </g>
     <g id="text_12">
      <!-- 20 -->
      <g transform="translate(37.005 159.018281)scale(0.22 -0.22)">
       <use xlink:href="#DejaVuSans-32"/>
       <use xlink:href="#DejaVuSans-30" x="63.623047"/>
      </g>
     </g>
    </g>
    <g id="ytick_8">
     <g id="line2d_12">
      <g>
       <use xlink:href="#mda3208cefb" x="72" y="96.3" style="stroke: #000000; stroke-width: 0.8"/>
      </g>
     </g>
     <g id="text_13">
      <!-- 40 -->
      <g transform="translate(37.005 104.658281)scale(0.22 -0.22)">
       <use xlink:href="#DejaVuSans-34"/>
       <use xlink:href="#DejaVuSans-30" x="63.623047"/>
      </g>
     </g>
    </g>
    <g id="text_14">
     <!-- Membrane potential (mV) -->
     <g transform="translate(-4.058125 410.655469)rotate(-90)scale(0.22 -0.22)">
      <defs>
       <path id="ArialMT-4d" d="M 475 0 
L 475 4581 
L 1388 4581 
L 2472 1338 
Q 2622 884 2691 659 
Q 2769 909 2934 1394 
L 4031 4581 
L 4847 4581 
L 4847 0 
L 4263 0 
L 4263 3834 
L 2931 0 
L 2384 0 
L 1059 3900 
L 1059 0 
L 475 0 
z
" transform="scale(0.015625)"/>
       <path id="ArialMT-62" d="M 941 0 
L 419 0 
L 419 4581 
L 981 4581 
L 981 2947 
Q 1338 3394 1891 3394 
Q 2197 3394 2470 3270 
Q 2744 3147 2920 2923 
Q 3097 2700 3197 2384 
Q 3297 2069 3297 1709 
Q 3297 856 2875 390 
Q 2453 -75 1863 -75 
Q 1275 -75 941 416 
L 941 0 
z
M 934 1684 
Q 934 1088 1097 822 
Q 1363 388 1816 388 
Q 2184 388 2453 708 
Q 2722 1028 2722 1663 
Q 2722 2313 2464 2622 
Q 2206 2931 1841 2931 
Q 1472 2931 1203 2611 
Q 934 2291 934 1684 
z
" transform="scale(0.015625)"/>
       <path id="ArialMT-72" d="M 416 0 
L 416 3319 
L 922 3319 
L 922 2816 
Q 1116 3169 1280 3281 
Q 1444 3394 1641 3394 
Q 1925 3394 2219 3213 
L 2025 2691 
Q 1819 2813 1613 2813 
Q 1428 2813 1281 2702 
Q 1134 2591 1072 2394 
Q 978 2094 978 1738 
L 978 0 
L 416 0 
z
" transform="scale(0.015625)"/>
       <path id="ArialMT-61" d="M 2588 409 
Q 2275 144 1986 34 
Q 1697 -75 1366 -75 
Q 819 -75 525 192 
Q 231 459 231 875 
Q 231 1119 342 1320 
Q 453 1522 633 1644 
Q 813 1766 1038 1828 
Q 1203 1872 1538 1913 
Q 2219 1994 2541 2106 
Q 2544 2222 2544 2253 
Q 2544 2597 2384 2738 
Q 2169 2928 1744 2928 
Q 1347 2928 1158 2789 
Q 969 2650 878 2297 
L 328 2372 
Q 403 2725 575 2942 
Q 747 3159 1072 3276 
Q 1397 3394 1825 3394 
Q 2250 3394 2515 3294 
Q 2781 3194 2906 3042 
Q 3031 2891 3081 2659 
Q 3109 2516 3109 2141 
L 3109 1391 
Q 3109 606 3145 398 
Q 3181 191 3288 0 
L 2700 0 
Q 2613 175 2588 409 
z
M 2541 1666 
Q 2234 1541 1622 1453 
Q 1275 1403 1131 1340 
Q 988 1278 909 1158 
Q 831 1038 831 891 
Q 831 666 1001 516 
Q 1172 366 1500 366 
Q 1825 366 2078 508 
Q 2331 650 2450 897 
Q 2541 1088 2541 1459 
L 2541 1666 
z
" transform="scale(0.015625)"/>
       <path id="ArialMT-6e" d="M 422 0 
L 422 3319 
L 928 3319 
L 928 2847 
Q 1294 3394 1984 3394 
Q 2284 3394 2536 3286 
Q 2788 3178 2913 3003 
Q 3038 2828 3088 2588 
Q 3119 2431 3119 2041 
L 3119 0 
L 2556 0 
L 2556 2019 
Q 2556 2363 2490 2533 
Q 2425 2703 2258 2804 
Q 2091 2906 1866 2906 
Q 1506 2906 1245 2678 
Q 984 2450 984 1813 
L 984 0 
L 422 0 
z
" transform="scale(0.015625)"/>
       <path id="ArialMT-20" transform="scale(0.015625)"/>
       <path id="ArialMT-70" d="M 422 -1272 
L 422 3319 
L 934 3319 
L 934 2888 
Q 1116 3141 1344 3267 
Q 1572 3394 1897 3394 
Q 2322 3394 2647 3175 
Q 2972 2956 3137 2557 
Q 3303 2159 3303 1684 
Q 3303 1175 3120 767 
Q 2938 359 2589 142 
Q 2241 -75 1856 -75 
Q 1575 -75 1351 44 
Q 1128 163 984 344 
L 984 -1272 
L 422 -1272 
z
M 931 1641 
Q 931 1000 1190 694 
Q 1450 388 1819 388 
Q 2194 388 2461 705 
Q 2728 1022 2728 1688 
Q 2728 2322 2467 2637 
Q 2206 2953 1844 2953 
Q 1484 2953 1207 2617 
Q 931 2281 931 1641 
z
" transform="scale(0.015625)"/>
       <path id="ArialMT-6f" d="M 213 1659 
Q 213 2581 725 3025 
Q 1153 3394 1769 3394 
Q 2453 3394 2887 2945 
Q 3322 2497 3322 1706 
Q 3322 1066 3130 698 
Q 2938 331 2570 128 
Q 2203 -75 1769 -75 
Q 1072 -75 642 372 
Q 213 819 213 1659 
z
M 791 1659 
Q 791 1022 1069 705 
Q 1347 388 1769 388 
Q 2188 388 2466 706 
Q 2744 1025 2744 1678 
Q 2744 2294 2464 2611 
Q 2184 2928 1769 2928 
Q 1347 2928 1069 2612 
Q 791 2297 791 1659 
z
" transform="scale(0.015625)"/>
       <path id="ArialMT-74" d="M 1650 503 
L 1731 6 
Q 1494 -44 1306 -44 
Q 1000 -44 831 53 
Q 663 150 594 308 
Q 525 466 525 972 
L 525 2881 
L 113 2881 
L 113 3319 
L 525 3319 
L 525 4141 
L 1084 4478 
L 1084 3319 
L 1650 3319 
L 1650 2881 
L 1084 2881 
L 1084 941 
Q 1084 700 1114 631 
Q 1144 563 1211 522 
Q 1278 481 1403 481 
Q 1497 481 1650 503 
z
" transform="scale(0.015625)"/>
       <path id="ArialMT-6c" d="M 409 0 
L 409 4581 
L 972 4581 
L 972 0 
L 409 0 
z
" transform="scale(0.015625)"/>
       <path id="ArialMT-56" d="M 1803 0 
L 28 4581 
L 684 4581 
L 1875 1253 
Q 2019 853 2116 503 
Q 2222 878 2363 1253 
L 3600 4581 
L 4219 4581 
L 2425 0 
L 1803 0 
z
" transform="scale(0.015625)"/>
      </defs>
      <use xlink:href="#ArialMT-4d"/>
      <use xlink:href="#ArialMT-65" x="83.300781"/>
      <use xlink:href="#ArialMT-6d" x="138.916016"/>
      <use xlink:href="#ArialMT-62" x="222.216797"/>
      <use xlink:href="#ArialMT-72" x="277.832031"/>
      <use xlink:href="#ArialMT-61" x="311.132812"/>
      <use xlink:href="#ArialMT-6e" x="366.748047"/>
      <use xlink:href="#ArialMT-65" x="422.363281"/>
      <use xlink:href="#ArialMT-20" x="477.978516"/>
      <use xlink:href="#ArialMT-70" x="505.761719"/>
      <use xlink:href="#ArialMT-6f" x="561.376953"/>
      <use xlink:href="#ArialMT-74" x="616.992188"/>
      <use xlink:href="#ArialMT-65" x="644.775391"/>
      <use xlink:href="#ArialMT-6e" x="700.390625"/>
      <use xlink:href="#ArialMT-74" x="756.005859"/>
      <use xlink:href="#ArialMT-69" x="783.789062"/>
      <use xlink:href="#ArialMT-61" x="806.005859"/>
      <use xlink:href="#ArialMT-6c" x="861.621094"/>
      <use xlink:href="#ArialMT-20" x="883.837891"/>
      <use xlink:href="#ArialMT-28" x="911.621094"/>
      <use xlink:href="#ArialMT-6d" x="944.921875"/>
      <use xlink:href="#ArialMT-56" x="1028.222656"/>
      <use xlink:href="#ArialMT-29" x="1094.921875"/>
     </g>
    </g>
   </g>
   <g id="line2d_13">
    <path d="M 92.290909 436.05 
L 92.493818 447.725333 
L 92.899636 456.364564 
L 93.373091 461.536783 
L 93.846545 464.249344 
L 94.32 465.681804 
L 94.793455 466.443315 
L 95.334545 466.892316 
L 96.010909 467.151584 
L 97.093091 467.296362 
L 99.730909 467.349236 
L 136.322182 467.352289 
L 159.927273 467.35231 
L 160.130182 446.056099 
L 160.536 434.43479 
L 161.077091 425.231653 
L 161.753455 417.545131 
L 162.497455 411.55264 
L 163.376727 406.297908 
L 164.323636 401.957308 
L 165.405818 398.042453 
L 166.623273 394.503244 
L 167.976 391.280267 
L 169.464 388.310133 
L 171.222545 385.309412 
L 173.386909 382.075671 
L 176.092364 378.063986 
L 176.971636 376.708497 
L 179.338909 373.22986 
L 180.218182 371.512036 
L 180.556364 370.499954 
L 180.759273 368.160414 
L 180.826909 368.351667 
L 181.165091 369.329881 
L 181.300364 369.27927 
L 181.503273 368.914756 
L 182.179636 368.992168 
L 182.585455 368.604422 
L 183.058909 367.83821 
L 184.073455 365.197316 
L 184.344 364.02969 
L 185.155636 360.759442 
L 185.290909 360.355373 
L 185.493818 359.223005 
L 185.561455 359.238971 
L 185.832 359.985528 
L 186.102545 360.450615 
L 186.237818 360.426274 
L 186.508364 360.042499 
L 186.846545 359.408563 
L 187.049455 359.047923 
L 187.455273 357.842248 
L 187.793455 357.20347 
L 188.131636 356.251035 
L 188.334545 353.822967 
L 188.469818 354.368565 
L 188.808 355.872323 
L 188.943273 355.974982 
L 189.078545 355.82512 
L 189.281455 355.193334 
L 189.416727 354.191914 
L 190.025455 348.868 
L 190.160727 349.098206 
L 190.498909 349.966339 
L 190.634182 349.904252 
L 190.837091 349.345738 
L 191.107636 347.772294 
L 191.310545 345.55322 
L 191.445818 342.504212 
L 191.919273 329.152723 
L 192.189818 320.991403 
L 192.392727 304.28576 
L 192.528 263.764903 
L 192.595636 268.983724 
L 192.798545 325.773118 
L 193.069091 347.553921 
L 193.272 351.299125 
L 193.474909 351.874006 
L 193.610182 351.484939 
L 194.354182 346.69452 
L 194.692364 344.110045 
L 194.76 343.493101 
L 194.962909 339.911037 
L 195.030545 339.893561 
L 195.233455 341.703718 
L 195.571636 344.471418 
L 195.706909 344.725619 
L 195.842182 344.576942 
L 196.045091 343.737802 
L 196.315636 341.59622 
L 196.518545 338.27969 
L 196.924364 328.316965 
L 197.127273 316.651904 
L 197.262545 287.638413 
L 197.330182 219.092899 
L 197.600727 354.412062 
L 197.803636 368.256836 
L 197.871273 368.813148 
L 197.938909 368.74531 
L 198.141818 367.067975 
L 199.088727 357.834552 
L 200.306182 349.258855 
L 200.712 346.370631 
L 200.914909 345.99485 
L 201.117818 345.509116 
L 201.320727 343.652286 
L 201.523636 342.61886 
L 201.726545 342.431769 
L 201.861818 339.514057 
L 202.064727 337.527703 
L 202.2 338.481165 
L 202.605818 342.264012 
L 202.673455 342.318554 
L 202.876364 341.377141 
L 203.146909 338.848712 
L 203.417455 333.03213 
L 203.620364 325.006477 
L 203.755636 312.735348 
L 203.823273 297.983616 
L 203.958545 226.372299 
L 204.161455 354.117707 
L 204.364364 374.847251 
L 204.432 375.613882 
L 204.499636 375.421449 
L 204.770182 371.59997 
L 205.446545 362.61725 
L 206.055273 358.865506 
L 206.325818 358.133754 
L 206.528727 357.764932 
L 206.934545 357.05228 
L 207.205091 356.306685 
L 207.881455 353.071323 
L 208.219636 352.221897 
L 208.490182 350.774223 
L 209.234182 344.843455 
L 209.572364 335.886705 
L 209.64 335.764671 
L 209.775273 336.971982 
L 210.181091 341.807879 
L 210.316364 341.916846 
L 210.519273 341.204835 
L 210.722182 339.404755 
L 211.195636 329.958474 
L 211.398545 320.474478 
L 211.533818 297.355639 
L 211.669091 229.521332 
L 211.872 357.417108 
L 212.074909 377.223293 
L 212.142545 377.426068 
L 212.345455 374.438151 
L 212.954182 364.967639 
L 214.036364 353.209207 
L 214.645091 350.428305 
L 214.915636 350.031977 
L 215.186182 349.263032 
L 215.592 347.180091 
L 215.930182 345.649049 
L 216.200727 343.435095 
L 216.336 340.639067 
L 216.877091 324.041654 
L 217.215273 313.370451 
L 217.350545 301.972063 
L 217.485818 275.038945 
L 217.553455 279.201718 
L 217.756364 314.253089 
L 218.026909 328.508952 
L 218.297455 332.507789 
L 218.432727 333.004075 
L 218.500364 332.938941 
L 218.635636 332.262059 
L 218.838545 329.697851 
L 219.041455 324.063137 
L 219.176727 316.242034 
L 219.312 293.573306 
L 219.447273 243.550131 
L 219.650182 343.942779 
L 219.853091 364.563644 
L 219.988364 365.940564 
L 220.123636 364.620328 
L 220.529455 356.409287 
L 221.341091 340.802589 
L 221.544 340.536555 
L 221.679273 340.453388 
L 221.949818 339.407981 
L 222.152727 337.776695 
L 222.423273 332.71895 
L 222.626182 325.309902 
L 222.761455 314.101478 
L 222.829091 300.836875 
L 222.964364 215.245557 
L 223.167273 355.160899 
L 223.370182 376.927395 
L 223.437818 377.292291 
L 223.573091 375.501171 
L 224.249455 362.979092 
L 225.602182 352.99038 
L 225.805091 351.701806 
L 226.210909 346.006108 
L 226.616727 343.502912 
L 226.752 343.566411 
L 227.090182 344.041055 
L 227.225455 343.912481 
L 227.428364 343.047042 
L 227.766545 339.67924 
L 228.037091 335.621293 
L 228.307636 327.187362 
L 228.510545 312.185391 
L 228.578182 299.280893 
L 228.713455 223.516867 
L 228.916364 348.132537 
L 229.119273 369.804586 
L 229.186909 370.786288 
L 229.254545 370.724393 
L 229.457455 368.144141 
L 230.133818 358.118952 
L 230.472 355.319097 
L 230.810182 350.41393 
L 231.080727 345.716281 
L 231.216 345.27627 
L 231.486545 345.370935 
L 231.757091 343.945259 
L 231.96 341.746107 
L 232.906909 319.810885 
L 233.109818 305.876751 
L 233.312727 269.609884 
L 233.515636 314.156485 
L 233.718545 326.660967 
L 233.853818 327.989774 
L 233.989091 325.351515 
L 234.124364 317.162824 
L 234.192 307.204299 
L 234.259636 280.093932 
L 234.327273 192.83869 
L 234.530182 342.48415 
L 234.733091 373.256076 
L 234.868364 374.967389 
L 235.071273 372.27451 
L 235.409455 365.648049 
L 235.68 359.287229 
L 235.882909 358.743102 
L 236.356364 358.748803 
L 236.559273 358.240737 
L 237.641455 353.959702 
L 238.047273 350.565364 
L 238.588364 345.433992 
L 238.994182 337.525702 
L 239.129455 332.897257 
L 239.264727 321.343606 
L 239.332364 307.759682 
L 239.467636 186.705839 
L 239.670545 363.850048 
L 239.873455 386.418667 
L 239.941091 386.01294 
L 241.090909 364.708549 
L 241.429091 361.037579 
L 241.902545 359.023861 
L 242.240727 357.100729 
L 242.308364 356.449194 
L 242.511273 352.695987 
L 242.714182 352.153161 
L 242.849455 351.834234 
L 243.187636 349.349995 
L 243.728727 344.323088 
L 243.864 340.474948 
L 244.337455 313.903844 
L 244.472727 293.895018 
L 244.608 267.737241 
L 244.810909 325.621149 
L 245.081455 345.152691 
L 245.284364 347.086605 
L 245.419636 346.308281 
L 245.690182 342.227021 
L 245.960727 332.612407 
L 246.163636 319.102766 
L 246.298909 285.885753 
L 246.366545 187.061541 
L 246.569455 348.152839 
L 246.772364 377.891316 
L 246.84 378.692879 
L 246.975273 376.717861 
L 247.245818 368.309286 
L 247.516364 360.714012 
L 247.854545 357.276588 
L 248.260364 355.419626 
L 248.598545 353.515449 
L 248.801455 351.710264 
L 249.004364 347.828631 
L 249.207273 347.39223 
L 249.342545 347.346903 
L 249.477818 347.030031 
L 249.680727 345.723087 
L 249.951273 341.489077 
L 250.830545 318.916018 
L 250.965818 308.496664 
L 251.168727 261.899656 
L 251.439273 324.995182 
L 251.642182 334.171298 
L 251.845091 336.370655 
L 252.250909 337.904108 
L 252.386182 337.954022 
L 252.521455 337.482186 
L 252.724364 335.522173 
L 253.062545 329.366135 
L 253.265455 322.424168 
L 253.400727 311.303594 
L 253.468364 298.200894 
L 253.603636 227.093509 
L 253.806545 344.834727 
L 254.009455 367.516541 
L 254.144727 368.80152 
L 254.347636 366.005711 
L 254.888727 352.904596 
L 255.091636 348.740743 
L 255.565091 345.700146 
L 255.835636 344.393208 
L 256.106182 341.236508 
L 256.512 334.158253 
L 256.782545 323.808948 
L 256.917818 313.933644 
L 257.053091 276.739709 
L 257.120727 217.289515 
L 257.323636 342.191702 
L 257.526545 367.874101 
L 257.661818 370.137847 
L 257.729455 369.954933 
L 258 366.864217 
L 259.014545 354.703037 
L 260.029091 349.29528 
L 260.367273 344.326465 
L 260.976 333.418063 
L 261.178909 323.658138 
L 261.314182 308.067048 
L 261.381818 281.184231 
L 261.449455 191.820525 
L 261.652364 349.627762 
L 261.855273 376.31127 
L 261.922909 377.380546 
L 261.990545 377.256699 
L 262.193455 374.407874 
L 262.937455 362.409931 
L 263.208 361.14577 
L 263.410909 360.507315 
L 263.681455 359.238824 
L 264.087273 358.83838 
L 264.357818 358.065792 
L 264.560727 356.935762 
L 265.034182 354.182349 
L 265.304727 353.339184 
L 265.507636 351.781182 
L 265.845818 349.207825 
L 266.116364 348.072512 
L 266.454545 347.616399 
L 266.657455 346.671961 
L 266.928 344.268806 
L 267.198545 339.964379 
L 267.536727 328.209423 
L 267.672 316.383607 
L 267.739636 299.94282 
L 267.807273 212.667293 
L 267.874909 222.493303 
L 268.077818 361.932677 
L 268.280727 380.80772 
L 268.348364 380.792229 
L 268.551273 376.921219 
L 268.957091 369.21128 
L 269.430545 365.798587 
L 270.648 358.428278 
L 271.797818 349.801625 
L 272.203636 346.887468 
L 272.474182 344.864429 
L 272.88 342.81587 
L 273.150545 339.669172 
L 273.421091 332.986888 
L 273.556364 325.372822 
L 273.691636 301.104733 
L 273.759273 205.673669 
L 273.826909 217.480596 
L 274.029818 364.322421 
L 274.232727 383.033374 
L 274.300364 382.689666 
L 274.503273 377.838621 
L 274.909091 368.254101 
L 277.276364 357.60299 
L 277.682182 355.698289 
L 278.223273 351.945172 
L 278.629091 349.108182 
L 278.899636 345.579937 
L 279.237818 336.743512 
L 279.440727 324.56286 
L 279.576 304.160909 
L 279.711273 201.541631 
L 279.914182 361.244854 
L 280.117091 380.703095 
L 280.184727 380.451589 
L 280.522909 374.530956 
L 281.131636 364.999752 
L 281.537455 360.290153 
L 281.672727 360.259938 
L 281.943273 358.818335 
L 282.010909 358.830028 
L 282.484364 359.325666 
L 282.687273 359.076197 
L 283.025455 358.103856 
L 283.431273 356.156291 
L 284.310545 350.159452 
L 284.716364 348.166582 
L 285.054545 345.954945 
L 285.257455 343.439355 
L 285.663273 335.10713 
L 285.933818 324.993874 
L 286.069091 310.539235 
L 286.136727 286.675513 
L 286.204364 186.722143 
L 286.407273 347.861551 
L 286.610182 376.998795 
L 286.677818 378.000112 
L 286.745455 377.621451 
L 288.030545 359.62393 
L 288.233455 359.191325 
L 288.571636 357.520318 
L 288.842182 356.552793 
L 289.248 354.195331 
L 289.450909 353.38362 
L 289.721455 352.554618 
L 289.992 352.144161 
L 290.397818 350.228339 
L 291.48 343.270984 
L 291.750545 338.094749 
L 292.021091 329.434877 
L 292.156364 317.376526 
L 292.224 302.063904 
L 292.359273 212.392989 
L 292.562182 363.134823 
L 292.765091 381.432408 
L 292.832727 381.070275 
L 293.914909 366.906265 
L 294.658909 360.127572 
L 294.794182 358.522697 
L 294.861818 358.488113 
L 295.132364 358.794811 
L 295.267636 358.589445 
L 295.673455 356.518439 
L 296.011636 353.797191 
L 296.146909 353.720632 
L 296.485091 353.978894 
L 296.620364 353.827778 
L 296.890909 352.909107 
L 297.567273 349.556991 
L 297.702545 349.035369 
L 298.040727 347.284607 
L 298.446545 346.146205 
L 298.717091 344.370714 
L 299.055273 340.27902 
L 299.258182 335.241331 
L 299.461091 317.57752 
L 299.528727 299.831077 
L 299.596364 184.189463 
L 299.664 224.281263 
L 299.866909 367.749545 
L 300.069818 384.907559 
L 300.205091 382.788818 
L 300.746182 371.546846 
L 301.490182 362.270249 
L 301.693091 362.211158 
L 301.963636 361.646165 
L 302.369455 360.085873 
L 302.707636 357.975955 
L 303.316364 353.498073 
L 303.451636 353.232778 
L 303.586909 353.472244 
L 303.992727 354.552955 
L 304.128 354.553484 
L 304.330909 354.170791 
L 304.601455 352.940947 
L 304.872 350.791547 
L 305.480727 344.316978 
L 306.021818 331.633299 
L 306.224727 315.976361 
L 306.292364 302.628278 
L 306.427636 207.274276 
L 306.630545 359.27205 
L 306.833455 380.937233 
L 306.901091 381.06312 
L 307.104 377.563236 
L 308.050909 358.863367 
L 308.253818 358.579572 
L 308.592 358.566085 
L 308.794909 358.214729 
L 308.997818 357.421043 
L 309.538909 354.384059 
L 309.944727 353.279982 
L 310.08 352.481216 
L 310.485818 348.964859 
L 311.229818 343.400956 
L 311.906182 330.253215 
L 312.109091 322.398437 
L 312.244364 308.978063 
L 312.312 289.696519 
L 312.379636 219.467328 
L 312.447273 261.307222 
L 312.650182 355.827242 
L 312.853091 372.357578 
L 312.920727 372.723558 
L 313.056 371.415468 
L 313.597091 360.967741 
L 314.070545 354.713706 
L 314.341091 350.236412 
L 314.611636 343.82891 
L 314.814545 343.130623 
L 314.949818 343.2737 
L 315.085091 342.795295 
L 315.355636 340.127065 
L 315.896727 333.090786 
L 316.099636 326.551733 
L 316.234909 315.194006 
L 316.302545 299.331764 
L 316.437818 222.819015 
L 316.640727 360.452765 
L 316.843636 380.609907 
L 316.911273 380.747548 
L 317.114182 377.465597 
L 318.128727 358.73949 
L 318.534545 354.258305 
L 318.737455 353.94335 
L 318.940364 353.862697 
L 319.143273 353.383503 
L 319.413818 352.081851 
L 320.022545 347.821086 
L 320.631273 340.026151 
L 320.834182 335.307508 
L 321.037091 322.116628 
L 321.172364 291.901421 
L 321.24 180.252147 
L 321.510545 368.69054 
L 321.713455 383.887193 
L 321.848727 382.391112 
L 322.660364 368.272189 
L 323.607273 357.47154 
L 323.945455 355.866236 
L 324.283636 354.240189 
L 324.824727 350.309104 
L 325.162909 346.367284 
L 325.501091 340.381047 
L 325.771636 329.939994 
L 325.974545 317.879823 
L 326.109818 295.154734 
L 326.245091 242.30376 
L 326.448 350.302487 
L 326.650909 368.498952 
L 326.718545 368.871202 
L 326.989091 364.27827 
L 327.327273 358.537063 
L 327.868364 356.422439 
L 328.138909 354.33866 
L 328.747636 348.531634 
L 329.153455 344.829088 
L 329.829818 334.916456 
L 330.032727 327.35672 
L 330.168 314.794654 
L 330.235636 297.149957 
L 330.303273 205.128802 
L 330.370909 234.193269 
L 330.573818 362.44059 
L 330.776727 379.178654 
L 330.844364 379.194968 
L 331.047273 376.883826 
L 331.858909 366.65732 
L 332.4 363.898482 
L 333.549818 357.995036 
L 333.820364 355.419809 
L 334.023273 351.78559 
L 334.293818 350.90449 
L 334.429091 351.045062 
L 334.699636 351.412762 
L 334.834909 351.061395 
L 335.511273 347.939553 
L 335.714182 347.368114 
L 336.052364 344.705496 
L 336.390545 340.280879 
L 336.661091 333.226614 
L 336.864 323.489381 
L 336.999273 302.62903 
L 337.134545 207.31725 
L 337.337455 358.561129 
L 337.540364 379.04765 
L 337.608 378.962362 
L 337.878545 374.346095 
L 338.352 365.890174 
L 338.757818 363.237647 
L 339.501818 360.522278 
L 340.110545 357.304139 
L 340.516364 354.408228 
L 340.719273 350.739535 
L 340.786909 350.674932 
L 340.989818 351.534643 
L 341.260364 352.317804 
L 341.328 352.278679 
L 341.598545 351.028764 
L 342.139636 348.353275 
L 342.477818 345.506989 
L 342.748364 343.998642 
L 343.018909 340.316336 
L 343.221818 335.712529 
L 343.357091 328.649168 
L 343.492364 313.398718 
L 343.56 288.107663 
L 343.627636 165.34213 
L 343.830545 353.35291 
L 344.033455 384.758696 
L 344.101091 385.342772 
L 344.304 381.748734 
L 345.115636 365.912697 
L 345.386182 363.944466 
L 347.144727 357.624961 
L 347.415273 355.848312 
L 347.618182 352.695304 
L 347.685818 352.731734 
L 348.091636 353.810525 
L 348.226909 353.405831 
L 348.565091 352.084217 
L 348.835636 351.108087 
L 349.241455 347.776232 
L 349.850182 340.859818 
L 350.188364 330.543288 
L 350.391273 319.308785 
L 350.526545 291.970507 
L 350.594182 214.869188 
L 350.661818 254.683042 
L 350.864727 359.975453 
L 351.067636 377.006047 
L 351.135273 377.22371 
L 351.270545 375.662149 
L 352.014545 363.891131 
L 352.826182 355.84948 
L 353.637818 352.138656 
L 353.773091 349.768962 
L 353.976 345.799933 
L 354.178909 344.759019 
L 354.449455 344.924357 
L 354.584727 344.654574 
L 354.72 343.929059 
L 355.193455 339.050781 
L 355.599273 337.235903 
L 355.802182 334.742994 
L 356.005091 329.195374 
L 356.140364 320.898869 
L 356.275636 287.217365 
L 356.343273 180.473451 
L 356.546182 349.082231 
L 356.749091 381.022924 
L 356.816727 382.09861 
L 356.884364 381.580245 
L 357.966545 364.334844 
L 359.251636 353.972372 
L 359.589818 352.921455 
L 360.063273 350.392868 
L 360.266182 347.674418 
L 360.874909 335.892083 
L 361.416 337.91824 
L 361.551273 337.860105 
L 361.686545 337.36474 
L 361.889455 335.396911 
L 362.092364 330.380624 
L 362.295273 312.403318 
L 362.362909 293.427644 
L 362.430545 199.617274 
L 362.498182 246.315131 
L 362.701091 362.591187 
L 362.904 378.964407 
L 363.039273 377.024236 
L 363.580364 367.641283 
L 363.986182 363.398779 
L 365.271273 354.097178 
L 365.474182 353.78275 
L 365.677091 352.858069 
L 366.759273 346.111207 
L 367.029818 342.088103 
L 367.232727 335.519923 
L 367.368 324.550934 
L 367.435636 313.490495 
L 367.503273 279.707407 
L 367.570909 158.314506 
L 367.773818 360.263323 
L 367.976727 388.443842 
L 368.044364 388.336183 
L 368.314909 382.890823 
L 368.923636 371.677144 
L 369.667636 363.238177 
L 369.938182 362.495379 
L 370.479273 362.041971 
L 370.749818 361.211585 
L 371.088 359.321079 
L 371.629091 354.268644 
L 371.967273 352.188384 
L 372.237818 351.95096 
L 372.440727 351.599315 
L 372.643636 350.702414 
L 372.846545 348.995656 
L 373.590545 336.741055 
L 373.793455 324.910056 
L 373.928727 307.00929 
L 374.064 186.947256 
L 374.266909 357.343831 
L 374.469818 382.714525 
L 374.537455 383.094889 
L 374.740364 379.752506 
L 375.349091 368.519119 
L 376.093091 360.472915 
L 376.296 359.572312 
L 376.837091 358.85128 
L 377.919273 354.710698 
L 378.257455 352.332416 
L 378.528 350.888999 
L 378.933818 348.769211 
L 379.272 346.670759 
L 379.542545 343.106282 
L 379.880727 336.083525 
L 380.083636 324.854081 
L 380.218909 303.178531 
L 380.354182 206.36769 
L 380.557091 361.581389 
L 380.76 381.744978 
L 380.827636 382.308768 
L 380.895273 381.964274 
L 381.165818 377.799725 
L 381.842182 367.495464 
L 382.992 359.286452 
L 383.465455 358.571194 
L 383.736 357.801869 
L 384.885818 352.708871 
L 385.359273 349.132937 
L 386.035636 346.517294 
L 386.712 339.610444 
L 387.050182 327.977755 
L 387.185455 319.22893 
L 387.320727 289.32929 
L 387.388364 199.366471 
L 387.658909 362.010624 
L 387.861818 378.269722 
L 387.929455 378.279878 
L 388.132364 374.651892 
L 388.538182 367.883222 
L 389.349818 360.154422 
L 389.755636 356.522288 
L 390.161455 352.35652 
L 390.296727 352.114637 
L 390.634909 352.094609 
L 391.176 351.003072 
L 391.514182 349.552741 
L 391.717091 347.792851 
L 392.664 334.89571 
L 392.799273 329.96694 
L 392.934545 319.049874 
L 393.002182 307.327691 
L 393.137455 185.018388 
L 393.340364 356.638021 
L 393.543273 381.859324 
L 393.610909 382.070284 
L 393.813818 378.372224 
L 394.219636 369.698358 
L 395.031273 361.796305 
L 395.978182 357.024428 
L 396.248727 356.106305 
L 396.925091 353.240469 
L 397.128 352.456516 
L 397.330909 350.863291 
L 398.142545 340.144098 
L 398.413091 334.006032 
L 398.616 323.765085 
L 398.751273 301.857707 
L 398.886545 211.916767 
L 399.089455 360.146406 
L 399.292364 379.447279 
L 399.36 379.226572 
L 399.630545 374.94771 
L 400.306909 363.618319 
L 400.509818 363.243325 
L 401.050909 361.385664 
L 402.606545 353.680163 
L 402.944727 352.925865 
L 403.282909 351.469062 
L 403.485818 349.58203 
L 403.891636 346.685488 
L 404.432727 342.370276 
L 404.635636 338.86832 
L 404.906182 325.081354 
L 405.041455 309.162322 
L 405.109091 282.716964 
L 405.176727 183.886222 
L 405.379636 350.505457 
L 405.582545 377.231223 
L 405.650182 377.594467 
L 405.853091 375.126037 
L 406.732364 363.212184 
L 407.476364 360.014409 
L 408.085091 356.545065 
L 408.490909 355.035093 
L 408.761455 353.279439 
L 409.032 351.753466 
L 409.505455 350.31387 
L 409.776 348.513756 
L 410.181818 343.465503 
L 410.452364 337.653121 
L 410.655273 328.697647 
L 410.790545 313.476515 
L 410.858182 290.601491 
L 410.925818 170.565712 
L 411.128727 350.907557 
L 411.331636 380.981181 
L 411.399273 381.510948 
L 411.534545 379.424303 
L 411.940364 371.19461 
L 412.413818 365.599695 
L 412.616727 363.780555 
L 412.819636 360.565831 
L 413.022545 359.723983 
L 413.428364 359.637953 
L 413.563636 359.236332 
L 413.969455 357.69454 
L 414.442909 356.404002 
L 414.916364 354.33381 
L 415.322182 352.711601 
L 415.592727 350.574806 
L 416.269091 343.288762 
L 416.539636 340.550944 
L 416.742545 336.386581 
L 416.877818 328.433999 
L 417.013091 310.479551 
L 417.080727 273.338433 
L 417.148364 170.627179 
L 417.351273 358.847549 
L 417.554182 385.8998 
L 417.621818 386.100141 
L 417.824727 382.404938 
L 418.433455 371.363012 
L 419.448 357.891162 
L 419.515636 357.896158 
L 419.853818 358.121143 
L 419.989091 357.775226 
L 420.327273 356.025827 
L 420.462545 356.050675 
L 420.733091 356.222164 
L 420.936 356.058085 
L 421.138909 355.552308 
L 421.882909 352.74223 
L 422.288727 350.17454 
L 423.235636 340.192125 
L 423.438545 337.134679 
L 423.641455 327.773852 
L 423.776727 316.562439 
L 423.844364 304.831146 
L 423.979636 197.134298 
L 424.182545 354.995912 
L 424.385455 379.182579 
L 424.453091 379.689007 
L 424.588364 377.918763 
L 425.535273 359.39842 
L 425.873455 357.746781 
L 426.346909 356.633957 
L 426.617455 355.185604 
L 427.023273 351.460164 
L 427.361455 348.525108 
L 427.699636 345.309338 
L 428.037818 341.691638 
L 428.714182 336.576692 
L 428.917091 332.298475 
L 429.052364 324.523511 
L 429.187636 298.95194 
L 429.255273 200.098105 
L 429.322909 225.817304 
L 429.525818 366.187889 
L 429.728727 385.965404 
L 429.796364 385.909585 
L 430.066909 381.221533 
L 430.472727 374.080164 
L 430.675636 395.961913 
L 431.149091 411.658897 
L 432.298909 441.139482 
L 432.975273 453.095264 
L 433.516364 459.088752 
L 434.057455 462.686178 
L 434.530909 464.549526 
L 435.072 465.793417 
L 435.613091 466.486827 
L 436.221818 466.90739 
L 437.033455 467.172255 
L 438.318545 467.315433 
L 441.362182 467.359007 
L 498.109091 467.351945 
L 498.109091 467.351945 
" clip-path="url(#pd755b6ab30)" style="fill: none; stroke: #000000; stroke-width: 1.5; stroke-linecap: square"/>
   </g>
   <g id="line2d_14">
    <path d="M 497.973818 408.87 
" clip-path="url(#pd755b6ab30)" style="fill: none; stroke: #000000; stroke-width: 1.5; stroke-linecap: square"/>
   </g>
   <g id="line2d_15">
    <path d="M 430.472727 368.1 
L 430.472727 365.382 
L 430.472727 362.664 
L 430.472727 359.946 
L 430.472727 357.228 
L 430.472727 354.51 
L 430.472727 351.792 
L 430.472727 349.074 
L 430.472727 346.356 
L 430.472727 343.638 
L 430.472727 340.92 
L 430.472727 338.202 
L 430.472727 335.484 
L 430.472727 332.766 
L 430.472727 330.048 
L 430.472727 327.33 
L 430.472727 324.612 
L 430.472727 321.894 
L 430.472727 319.176 
L 430.472727 316.458 
" clip-path="url(#pd755b6ab30)" style="fill: none; stroke: #000000; stroke-width: 1.5; stroke-linecap: square"/>
   </g>
   <g id="patch_3">
    <path d="M 72 504 
L 72 69.12 
" style="fill: none; stroke: #000000; stroke-width: 0.8; stroke-linejoin: miter; stroke-linecap: square"/>
   </g>
   <g id="patch_4">
    <path d="M 518.4 504 
L 518.4 69.12 
" style="fill: none; stroke: #000000; stroke-width: 0.8; stroke-linejoin: miter; stroke-linecap: square"/>
   </g>
   <g id="patch_5">
    <path d="M 72 504 
L 518.4 504 
" style="fill: none; stroke: #000000; stroke-width: 0.8; stroke-linejoin: miter; stroke-linecap: square"/>
   </g>
   <g id="patch_6">
    <path d="M 72 69.12 
L 518.4 69.12 
" style="fill: none; stroke: #000000; stroke-width: 0.8; stroke-linejoin: miter; stroke-linecap: square"/>
   </g>
   <g id="text_15">
    <!-- 500 ms -->
    <g transform="translate(497.973818 406.152)scale(0.22 -0.22)">
     <defs>
      <path id="ArialMT-35" d="M 266 1200 
L 856 1250 
Q 922 819 1161 601 
Q 1400 384 1738 384 
Q 2144 384 2425 690 
Q 2706 997 2706 1503 
Q 2706 1984 2436 2262 
Q 2166 2541 1728 2541 
Q 1456 2541 1237 2417 
Q 1019 2294 894 2097 
L 366 2166 
L 809 4519 
L 3088 4519 
L 3088 3981 
L 1259 3981 
L 1013 2750 
Q 1425 3038 1878 3038 
Q 2478 3038 2890 2622 
Q 3303 2206 3303 1553 
Q 3303 931 2941 478 
Q 2500 -78 1738 -78 
Q 1113 -78 717 272 
Q 322 622 266 1200 
z
" transform="scale(0.015625)"/>
      <path id="ArialMT-30" d="M 266 2259 
Q 266 3072 433 3567 
Q 600 4063 929 4331 
Q 1259 4600 1759 4600 
Q 2128 4600 2406 4451 
Q 2684 4303 2865 4023 
Q 3047 3744 3150 3342 
Q 3253 2941 3253 2259 
Q 3253 1453 3087 958 
Q 2922 463 2592 192 
Q 2263 -78 1759 -78 
Q 1097 -78 719 397 
Q 266 969 266 2259 
z
M 844 2259 
Q 844 1131 1108 757 
Q 1372 384 1759 384 
Q 2147 384 2411 759 
Q 2675 1134 2675 2259 
Q 2675 3391 2411 3762 
Q 2147 4134 1753 4134 
Q 1366 4134 1134 3806 
Q 844 3388 844 2259 
z
" transform="scale(0.015625)"/>
     </defs>
     <use xlink:href="#ArialMT-35"/>
     <use xlink:href="#ArialMT-30" x="55.615234"/>
     <use xlink:href="#ArialMT-30" x="111.230469"/>
     <use xlink:href="#ArialMT-20" x="166.845703"/>
     <use xlink:href="#ArialMT-6d" x="194.628906"/>
     <use xlink:href="#ArialMT-73" x="277.929688"/>
    </g>
   </g>
   <g id="text_16">
    <!-- 20 mV -->
    <g transform="translate(504.737455 321.894)scale(0.22 -0.22)">
     <defs>
      <path id="ArialMT-32" d="M 3222 541 
L 3222 0 
L 194 0 
Q 188 203 259 391 
Q 375 700 629 1000 
Q 884 1300 1366 1694 
Q 2113 2306 2375 2664 
Q 2638 3022 2638 3341 
Q 2638 3675 2398 3904 
Q 2159 4134 1775 4134 
Q 1369 4134 1125 3890 
Q 881 3647 878 3216 
L 300 3275 
Q 359 3922 746 4261 
Q 1134 4600 1788 4600 
Q 2447 4600 2831 4234 
Q 3216 3869 3216 3328 
Q 3216 3053 3103 2787 
Q 2991 2522 2730 2228 
Q 2469 1934 1863 1422 
Q 1356 997 1212 845 
Q 1069 694 975 541 
L 3222 541 
z
" transform="scale(0.015625)"/>
     </defs>
     <use xlink:href="#ArialMT-32"/>
     <use xlink:href="#ArialMT-30" x="55.615234"/>
     <use xlink:href="#ArialMT-20" x="111.230469"/>
     <use xlink:href="#ArialMT-6d" x="139.013672"/>
     <use xlink:href="#ArialMT-56" x="222.314453"/>
    </g>
   </g>
   <g id="text_17">
    <!--  Plotting FS, trace number 9764  -->
    <g transform="translate(136.849844 63.12)scale(0.22 -0.22)">
     <defs>
      <path id="ArialMT-50" d="M 494 0 
L 494 4581 
L 2222 4581 
Q 2678 4581 2919 4538 
Q 3256 4481 3484 4323 
Q 3713 4166 3852 3881 
Q 3991 3597 3991 3256 
Q 3991 2672 3619 2267 
Q 3247 1863 2275 1863 
L 1100 1863 
L 1100 0 
L 494 0 
z
M 1100 2403 
L 2284 2403 
Q 2872 2403 3119 2622 
Q 3366 2841 3366 3238 
Q 3366 3525 3220 3729 
Q 3075 3934 2838 4000 
Q 2684 4041 2272 4041 
L 1100 4041 
L 1100 2403 
z
" transform="scale(0.015625)"/>
      <path id="ArialMT-67" d="M 319 -275 
L 866 -356 
Q 900 -609 1056 -725 
Q 1266 -881 1628 -881 
Q 2019 -881 2231 -725 
Q 2444 -569 2519 -288 
Q 2563 -116 2559 434 
Q 2191 0 1641 0 
Q 956 0 581 494 
Q 206 988 206 1678 
Q 206 2153 378 2554 
Q 550 2956 876 3175 
Q 1203 3394 1644 3394 
Q 2231 3394 2613 2919 
L 2613 3319 
L 3131 3319 
L 3131 450 
Q 3131 -325 2973 -648 
Q 2816 -972 2473 -1159 
Q 2131 -1347 1631 -1347 
Q 1038 -1347 672 -1080 
Q 306 -813 319 -275 
z
M 784 1719 
Q 784 1066 1043 766 
Q 1303 466 1694 466 
Q 2081 466 2343 764 
Q 2606 1063 2606 1700 
Q 2606 2309 2336 2618 
Q 2066 2928 1684 2928 
Q 1309 2928 1046 2623 
Q 784 2319 784 1719 
z
" transform="scale(0.015625)"/>
      <path id="ArialMT-46" d="M 525 0 
L 525 4581 
L 3616 4581 
L 3616 4041 
L 1131 4041 
L 1131 2622 
L 3281 2622 
L 3281 2081 
L 1131 2081 
L 1131 0 
L 525 0 
z
" transform="scale(0.015625)"/>
      <path id="ArialMT-53" d="M 288 1472 
L 859 1522 
Q 900 1178 1048 958 
Q 1197 738 1509 602 
Q 1822 466 2213 466 
Q 2559 466 2825 569 
Q 3091 672 3220 851 
Q 3350 1031 3350 1244 
Q 3350 1459 3225 1620 
Q 3100 1781 2813 1891 
Q 2628 1963 1997 2114 
Q 1366 2266 1113 2400 
Q 784 2572 623 2826 
Q 463 3081 463 3397 
Q 463 3744 659 4045 
Q 856 4347 1234 4503 
Q 1613 4659 2075 4659 
Q 2584 4659 2973 4495 
Q 3363 4331 3572 4012 
Q 3781 3694 3797 3291 
L 3216 3247 
Q 3169 3681 2898 3903 
Q 2628 4125 2100 4125 
Q 1550 4125 1298 3923 
Q 1047 3722 1047 3438 
Q 1047 3191 1225 3031 
Q 1400 2872 2139 2705 
Q 2878 2538 3153 2413 
Q 3553 2228 3743 1945 
Q 3934 1663 3934 1294 
Q 3934 928 3725 604 
Q 3516 281 3123 101 
Q 2731 -78 2241 -78 
Q 1619 -78 1198 103 
Q 778 284 539 648 
Q 300 1013 288 1472 
z
" transform="scale(0.015625)"/>
      <path id="ArialMT-2c" d="M 569 0 
L 569 641 
L 1209 641 
L 1209 0 
Q 1209 -353 1084 -570 
Q 959 -788 688 -906 
L 531 -666 
Q 709 -588 793 -436 
Q 878 -284 888 0 
L 569 0 
z
" transform="scale(0.015625)"/>
      <path id="ArialMT-63" d="M 2588 1216 
L 3141 1144 
Q 3050 572 2676 248 
Q 2303 -75 1759 -75 
Q 1078 -75 664 370 
Q 250 816 250 1647 
Q 250 2184 428 2587 
Q 606 2991 970 3192 
Q 1334 3394 1763 3394 
Q 2303 3394 2647 3120 
Q 2991 2847 3088 2344 
L 2541 2259 
Q 2463 2594 2264 2762 
Q 2066 2931 1784 2931 
Q 1359 2931 1093 2626 
Q 828 2322 828 1663 
Q 828 994 1084 691 
Q 1341 388 1753 388 
Q 2084 388 2306 591 
Q 2528 794 2588 1216 
z
" transform="scale(0.015625)"/>
      <path id="ArialMT-75" d="M 2597 0 
L 2597 488 
Q 2209 -75 1544 -75 
Q 1250 -75 995 37 
Q 741 150 617 320 
Q 494 491 444 738 
Q 409 903 409 1263 
L 409 3319 
L 972 3319 
L 972 1478 
Q 972 1038 1006 884 
Q 1059 663 1231 536 
Q 1403 409 1656 409 
Q 1909 409 2131 539 
Q 2353 669 2445 892 
Q 2538 1116 2538 1541 
L 2538 3319 
L 3100 3319 
L 3100 0 
L 2597 0 
z
" transform="scale(0.015625)"/>
      <path id="ArialMT-39" d="M 350 1059 
L 891 1109 
Q 959 728 1153 556 
Q 1347 384 1650 384 
Q 1909 384 2104 503 
Q 2300 622 2425 820 
Q 2550 1019 2634 1356 
Q 2719 1694 2719 2044 
Q 2719 2081 2716 2156 
Q 2547 1888 2255 1720 
Q 1963 1553 1622 1553 
Q 1053 1553 659 1965 
Q 266 2378 266 3053 
Q 266 3750 677 4175 
Q 1088 4600 1706 4600 
Q 2153 4600 2523 4359 
Q 2894 4119 3086 3673 
Q 3278 3228 3278 2384 
Q 3278 1506 3087 986 
Q 2897 466 2520 194 
Q 2144 -78 1638 -78 
Q 1100 -78 759 220 
Q 419 519 350 1059 
z
M 2653 3081 
Q 2653 3566 2395 3850 
Q 2138 4134 1775 4134 
Q 1400 4134 1122 3828 
Q 844 3522 844 3034 
Q 844 2597 1108 2323 
Q 1372 2050 1759 2050 
Q 2150 2050 2401 2323 
Q 2653 2597 2653 3081 
z
" transform="scale(0.015625)"/>
      <path id="ArialMT-37" d="M 303 3981 
L 303 4522 
L 3269 4522 
L 3269 4084 
Q 2831 3619 2401 2847 
Q 1972 2075 1738 1259 
Q 1569 684 1522 0 
L 944 0 
Q 953 541 1156 1306 
Q 1359 2072 1739 2783 
Q 2119 3494 2547 3981 
L 303 3981 
z
" transform="scale(0.015625)"/>
      <path id="ArialMT-36" d="M 3184 3459 
L 2625 3416 
Q 2550 3747 2413 3897 
Q 2184 4138 1850 4138 
Q 1581 4138 1378 3988 
Q 1113 3794 959 3422 
Q 806 3050 800 2363 
Q 1003 2672 1297 2822 
Q 1591 2972 1913 2972 
Q 2475 2972 2870 2558 
Q 3266 2144 3266 1488 
Q 3266 1056 3080 686 
Q 2894 316 2569 119 
Q 2244 -78 1831 -78 
Q 1128 -78 684 439 
Q 241 956 241 2144 
Q 241 3472 731 4075 
Q 1159 4600 1884 4600 
Q 2425 4600 2770 4297 
Q 3116 3994 3184 3459 
z
M 888 1484 
Q 888 1194 1011 928 
Q 1134 663 1356 523 
Q 1578 384 1822 384 
Q 2178 384 2434 671 
Q 2691 959 2691 1453 
Q 2691 1928 2437 2201 
Q 2184 2475 1800 2475 
Q 1419 2475 1153 2201 
Q 888 1928 888 1484 
z
" transform="scale(0.015625)"/>
      <path id="ArialMT-34" d="M 2069 0 
L 2069 1097 
L 81 1097 
L 81 1613 
L 2172 4581 
L 2631 4581 
L 2631 1613 
L 3250 1613 
L 3250 1097 
L 2631 1097 
L 2631 0 
L 2069 0 
z
M 2069 1613 
L 2069 3678 
L 634 1613 
L 2069 1613 
z
" transform="scale(0.015625)"/>
     </defs>
     <use xlink:href="#ArialMT-20"/>
     <use xlink:href="#ArialMT-50" x="27.783203"/>
     <use xlink:href="#ArialMT-6c" x="94.482422"/>
     <use xlink:href="#ArialMT-6f" x="116.699219"/>
     <use xlink:href="#ArialMT-74" x="172.314453"/>
     <use xlink:href="#ArialMT-74" x="200.097656"/>
     <use xlink:href="#ArialMT-69" x="227.880859"/>
     <use xlink:href="#ArialMT-6e" x="250.097656"/>
     <use xlink:href="#ArialMT-67" x="305.712891"/>
     <use xlink:href="#ArialMT-20" x="361.328125"/>
     <use xlink:href="#ArialMT-46" x="389.111328"/>
     <use xlink:href="#ArialMT-53" x="450.195312"/>
     <use xlink:href="#ArialMT-2c" x="516.894531"/>
     <use xlink:href="#ArialMT-20" x="544.677734"/>
     <use xlink:href="#ArialMT-74" x="572.460938"/>
     <use xlink:href="#ArialMT-72" x="600.244141"/>
     <use xlink:href="#ArialMT-61" x="633.544922"/>
     <use xlink:href="#ArialMT-63" x="689.160156"/>
     <use xlink:href="#ArialMT-65" x="739.160156"/>
     <use xlink:href="#ArialMT-20" x="794.775391"/>
     <use xlink:href="#ArialMT-6e" x="822.558594"/>
     <use xlink:href="#ArialMT-75" x="878.173828"/>
     <use xlink:href="#ArialMT-6d" x="933.789062"/>
     <use xlink:href="#ArialMT-62" x="1017.089844"/>
     <use xlink:href="#ArialMT-65" x="1072.705078"/>
     <use xlink:href="#ArialMT-72" x="1128.320312"/>
     <use xlink:href="#ArialMT-20" x="1161.621094"/>
     <use xlink:href="#ArialMT-39" x="1189.404297"/>
     <use xlink:href="#ArialMT-37" x="1245.019531"/>
     <use xlink:href="#ArialMT-36" x="1300.634766"/>
     <use xlink:href="#ArialMT-34" x="1356.25"/>
     <use xlink:href="#ArialMT-20" x="1411.865234"/>
    </g>
   </g>
  </g>
 </g>
 <defs>
  <clipPath id="pd755b6ab30">
   <rect x="72" y="69.12" width="446.4" height="434.88"/>
  </clipPath>
 </defs>
</svg>
