<?xml version="1.0" encoding="utf-8" standalone="no"?>
<!DOCTYPE svg PUBLIC "-//W3C//DTD SVG 1.1//EN"
  "http://www.w3.org/Graphics/SVG/1.1/DTD/svg11.dtd">
<svg xmlns:xlink="http://www.w3.org/1999/xlink" width="576pt" height="576pt" viewBox="0 0 576 576" xmlns="http://www.w3.org/2000/svg" version="1.1">
 <metadata>
  <rdf:RDF xmlns:dc="http://purl.org/dc/elements/1.1/" xmlns:cc="http://creativecommons.org/ns#" xmlns:rdf="http://www.w3.org/1999/02/22-rdf-syntax-ns#">
   <cc:Work>
    <dc:type rdf:resource="http://purl.org/dc/dcmitype/StillImage"/>
    <dc:date>2022-10-30T19:57:17.388196</dc:date>
    <dc:format>image/svg+xml</dc:format>
    <dc:creator>
     <cc:Agent>
      <dc:title>Matplotlib v3.5.2, https://matplotlib.org/</dc:title>
     </cc:Agent>
    </dc:creator>
   </cc:Work>
  </rdf:RDF>
 </metadata>
 <defs>
  <style type="text/css">*{stroke-linejoin: round; stroke-linecap: butt}</style>
 </defs>
 <g id="figure_1">
  <g id="patch_1">
   <path d="M 0 576 
L 576 576 
L 576 0 
L 0 0 
L 0 576 
z
" style="fill: none"/>
  </g>
  <g id="axes_1">
   <g id="patch_2">
    <path d="M 72 504 
L 518.4 504 
L 518.4 69.12 
L 72 69.12 
z
" style="fill: #ffffff"/>
   </g>
   <g id="matplotlib.axis_1">
    <g id="xtick_1">
     <g id="line2d_1">
      <defs>
       <path id="mb359580754" d="M 0 0 
L 0 3.5 
" style="stroke: #000000; stroke-width: 0.8"/>
      </defs>
      <g>
       <use xlink:href="#mb359580754" x="92.290909" y="504" style="stroke: #000000; stroke-width: 0.8"/>
      </g>
     </g>
     <g id="text_1">
      <!-- 0 -->
      <g transform="translate(85.292159 527.716563)scale(0.22 -0.22)">
       <defs>
        <path id="DejaVuSans-30" d="M 2034 4250 
Q 1547 4250 1301 3770 
Q 1056 3291 1056 2328 
Q 1056 1369 1301 889 
Q 1547 409 2034 409 
Q 2525 409 2770 889 
Q 3016 1369 3016 2328 
Q 3016 3291 2770 3770 
Q 2525 4250 2034 4250 
z
M 2034 4750 
Q 2819 4750 3233 4129 
Q 3647 3509 3647 2328 
Q 3647 1150 3233 529 
Q 2819 -91 2034 -91 
Q 1250 -91 836 529 
Q 422 1150 422 2328 
Q 422 3509 836 4129 
Q 1250 4750 2034 4750 
z
" transform="scale(0.015625)"/>
       </defs>
       <use xlink:href="#DejaVuSans-30"/>
      </g>
     </g>
    </g>
    <g id="xtick_2">
     <g id="line2d_2">
      <g>
       <use xlink:href="#mb359580754" x="227.563636" y="504" style="stroke: #000000; stroke-width: 0.8"/>
      </g>
     </g>
     <g id="text_2">
      <!-- 1000 -->
      <g transform="translate(199.568636 527.716563)scale(0.22 -0.22)">
       <defs>
        <path id="DejaVuSans-31" d="M 794 531 
L 1825 531 
L 1825 4091 
L 703 3866 
L 703 4441 
L 1819 4666 
L 2450 4666 
L 2450 531 
L 3481 531 
L 3481 0 
L 794 0 
L 794 531 
z
" transform="scale(0.015625)"/>
       </defs>
       <use xlink:href="#DejaVuSans-31"/>
       <use xlink:href="#DejaVuSans-30" x="63.623047"/>
       <use xlink:href="#DejaVuSans-30" x="127.246094"/>
       <use xlink:href="#DejaVuSans-30" x="190.869141"/>
      </g>
     </g>
    </g>
    <g id="xtick_3">
     <g id="line2d_3">
      <g>
       <use xlink:href="#mb359580754" x="362.836364" y="504" style="stroke: #000000; stroke-width: 0.8"/>
      </g>
     </g>
     <g id="text_3">
      <!-- 2000 -->
      <g transform="translate(334.841364 527.716563)scale(0.22 -0.22)">
       <defs>
        <path id="DejaVuSans-32" d="M 1228 531 
L 3431 531 
L 3431 0 
L 469 0 
L 469 531 
Q 828 903 1448 1529 
Q 2069 2156 2228 2338 
Q 2531 2678 2651 2914 
Q 2772 3150 2772 3378 
Q 2772 3750 2511 3984 
Q 2250 4219 1831 4219 
Q 1534 4219 1204 4116 
Q 875 4013 500 3803 
L 500 4441 
Q 881 4594 1212 4672 
Q 1544 4750 1819 4750 
Q 2544 4750 2975 4387 
Q 3406 4025 3406 3419 
Q 3406 3131 3298 2873 
Q 3191 2616 2906 2266 
Q 2828 2175 2409 1742 
Q 1991 1309 1228 531 
z
" transform="scale(0.015625)"/>
       </defs>
       <use xlink:href="#DejaVuSans-32"/>
       <use xlink:href="#DejaVuSans-30" x="63.623047"/>
       <use xlink:href="#DejaVuSans-30" x="127.246094"/>
       <use xlink:href="#DejaVuSans-30" x="190.869141"/>
      </g>
     </g>
    </g>
    <g id="xtick_4">
     <g id="line2d_4">
      <g>
       <use xlink:href="#mb359580754" x="498.109091" y="504" style="stroke: #000000; stroke-width: 0.8"/>
      </g>
     </g>
     <g id="text_4">
      <!-- 3000 -->
      <g transform="translate(470.114091 527.716563)scale(0.22 -0.22)">
       <defs>
        <path id="DejaVuSans-33" d="M 2597 2516 
Q 3050 2419 3304 2112 
Q 3559 1806 3559 1356 
Q 3559 666 3084 287 
Q 2609 -91 1734 -91 
Q 1441 -91 1130 -33 
Q 819 25 488 141 
L 488 750 
Q 750 597 1062 519 
Q 1375 441 1716 441 
Q 2309 441 2620 675 
Q 2931 909 2931 1356 
Q 2931 1769 2642 2001 
Q 2353 2234 1838 2234 
L 1294 2234 
L 1294 2753 
L 1863 2753 
Q 2328 2753 2575 2939 
Q 2822 3125 2822 3475 
Q 2822 3834 2567 4026 
Q 2313 4219 1838 4219 
Q 1578 4219 1281 4162 
Q 984 4106 628 3988 
L 628 4550 
Q 988 4650 1302 4700 
Q 1616 4750 1894 4750 
Q 2613 4750 3031 4423 
Q 3450 4097 3450 3541 
Q 3450 3153 3228 2886 
Q 3006 2619 2597 2516 
z
" transform="scale(0.015625)"/>
       </defs>
       <use xlink:href="#DejaVuSans-33"/>
       <use xlink:href="#DejaVuSans-30" x="63.623047"/>
       <use xlink:href="#DejaVuSans-30" x="127.246094"/>
       <use xlink:href="#DejaVuSans-30" x="190.869141"/>
      </g>
     </g>
    </g>
    <g id="text_5">
     <!-- Time(ms) -->
     <g transform="translate(249.182187 552.307188)scale(0.22 -0.22)">
      <defs>
       <path id="ArialMT-54" d="M 1659 0 
L 1659 4041 
L 150 4041 
L 150 4581 
L 3781 4581 
L 3781 4041 
L 2266 4041 
L 2266 0 
L 1659 0 
z
" transform="scale(0.015625)"/>
       <path id="ArialMT-69" d="M 425 3934 
L 425 4581 
L 988 4581 
L 988 3934 
L 425 3934 
z
M 425 0 
L 425 3319 
L 988 3319 
L 988 0 
L 425 0 
z
" transform="scale(0.015625)"/>
       <path id="ArialMT-6d" d="M 422 0 
L 422 3319 
L 925 3319 
L 925 2853 
Q 1081 3097 1340 3245 
Q 1600 3394 1931 3394 
Q 2300 3394 2536 3241 
Q 2772 3088 2869 2813 
Q 3263 3394 3894 3394 
Q 4388 3394 4653 3120 
Q 4919 2847 4919 2278 
L 4919 0 
L 4359 0 
L 4359 2091 
Q 4359 2428 4304 2576 
Q 4250 2725 4106 2815 
Q 3963 2906 3769 2906 
Q 3419 2906 3187 2673 
Q 2956 2441 2956 1928 
L 2956 0 
L 2394 0 
L 2394 2156 
Q 2394 2531 2256 2718 
Q 2119 2906 1806 2906 
Q 1569 2906 1367 2781 
Q 1166 2656 1075 2415 
Q 984 2175 984 1722 
L 984 0 
L 422 0 
z
" transform="scale(0.015625)"/>
       <path id="ArialMT-65" d="M 2694 1069 
L 3275 997 
Q 3138 488 2766 206 
Q 2394 -75 1816 -75 
Q 1088 -75 661 373 
Q 234 822 234 1631 
Q 234 2469 665 2931 
Q 1097 3394 1784 3394 
Q 2450 3394 2872 2941 
Q 3294 2488 3294 1666 
Q 3294 1616 3291 1516 
L 816 1516 
Q 847 969 1125 678 
Q 1403 388 1819 388 
Q 2128 388 2347 550 
Q 2566 713 2694 1069 
z
M 847 1978 
L 2700 1978 
Q 2663 2397 2488 2606 
Q 2219 2931 1791 2931 
Q 1403 2931 1139 2672 
Q 875 2413 847 1978 
z
" transform="scale(0.015625)"/>
       <path id="ArialMT-28" d="M 1497 -1347 
Q 1031 -759 709 28 
Q 388 816 388 1659 
Q 388 2403 628 3084 
Q 909 3875 1497 4659 
L 1900 4659 
Q 1522 4009 1400 3731 
Q 1209 3300 1100 2831 
Q 966 2247 966 1656 
Q 966 153 1900 -1347 
L 1497 -1347 
z
" transform="scale(0.015625)"/>
       <path id="ArialMT-73" d="M 197 991 
L 753 1078 
Q 800 744 1014 566 
Q 1228 388 1613 388 
Q 2000 388 2187 545 
Q 2375 703 2375 916 
Q 2375 1106 2209 1216 
Q 2094 1291 1634 1406 
Q 1016 1563 777 1677 
Q 538 1791 414 1992 
Q 291 2194 291 2438 
Q 291 2659 392 2848 
Q 494 3038 669 3163 
Q 800 3259 1026 3326 
Q 1253 3394 1513 3394 
Q 1903 3394 2198 3281 
Q 2494 3169 2634 2976 
Q 2775 2784 2828 2463 
L 2278 2388 
Q 2241 2644 2061 2787 
Q 1881 2931 1553 2931 
Q 1166 2931 1000 2803 
Q 834 2675 834 2503 
Q 834 2394 903 2306 
Q 972 2216 1119 2156 
Q 1203 2125 1616 2013 
Q 2213 1853 2448 1751 
Q 2684 1650 2818 1456 
Q 2953 1263 2953 975 
Q 2953 694 2789 445 
Q 2625 197 2315 61 
Q 2006 -75 1616 -75 
Q 969 -75 630 194 
Q 291 463 197 991 
z
" transform="scale(0.015625)"/>
       <path id="ArialMT-29" d="M 791 -1347 
L 388 -1347 
Q 1322 153 1322 1656 
Q 1322 2244 1188 2822 
Q 1081 3291 891 3722 
Q 769 4003 388 4659 
L 791 4659 
Q 1378 3875 1659 3084 
Q 1900 2403 1900 1659 
Q 1900 816 1576 28 
Q 1253 -759 791 -1347 
z
" transform="scale(0.015625)"/>
      </defs>
      <use xlink:href="#ArialMT-54"/>
      <use xlink:href="#ArialMT-69" x="57.333984"/>
      <use xlink:href="#ArialMT-6d" x="79.550781"/>
      <use xlink:href="#ArialMT-65" x="162.851562"/>
      <use xlink:href="#ArialMT-28" x="218.466797"/>
      <use xlink:href="#ArialMT-6d" x="251.767578"/>
      <use xlink:href="#ArialMT-73" x="335.068359"/>
      <use xlink:href="#ArialMT-29" x="385.068359"/>
     </g>
    </g>
   </g>
   <g id="matplotlib.axis_2">
    <g id="ytick_1">
     <g id="line2d_5">
      <defs>
       <path id="m3a68ec7d6e" d="M 0 0 
L -3.5 0 
" style="stroke: #000000; stroke-width: 0.8"/>
      </defs>
      <g>
       <use xlink:href="#m3a68ec7d6e" x="72" y="476.82" style="stroke: #000000; stroke-width: 0.8"/>
      </g>
     </g>
     <g id="text_6">
      <!-- −100 -->
      <g transform="translate(4.572187 485.178281)scale(0.22 -0.22)">
       <defs>
        <path id="DejaVuSans-2212" d="M 678 2272 
L 4684 2272 
L 4684 1741 
L 678 1741 
L 678 2272 
z
" transform="scale(0.015625)"/>
       </defs>
       <use xlink:href="#DejaVuSans-2212"/>
       <use xlink:href="#DejaVuSans-31" x="83.789062"/>
       <use xlink:href="#DejaVuSans-30" x="147.412109"/>
       <use xlink:href="#DejaVuSans-30" x="211.035156"/>
      </g>
     </g>
    </g>
    <g id="ytick_2">
     <g id="line2d_6">
      <g>
       <use xlink:href="#m3a68ec7d6e" x="72" y="422.46" style="stroke: #000000; stroke-width: 0.8"/>
      </g>
     </g>
     <g id="text_7">
      <!-- −80 -->
      <g transform="translate(18.569688 430.818281)scale(0.22 -0.22)">
       <defs>
        <path id="DejaVuSans-38" d="M 2034 2216 
Q 1584 2216 1326 1975 
Q 1069 1734 1069 1313 
Q 1069 891 1326 650 
Q 1584 409 2034 409 
Q 2484 409 2743 651 
Q 3003 894 3003 1313 
Q 3003 1734 2745 1975 
Q 2488 2216 2034 2216 
z
M 1403 2484 
Q 997 2584 770 2862 
Q 544 3141 544 3541 
Q 544 4100 942 4425 
Q 1341 4750 2034 4750 
Q 2731 4750 3128 4425 
Q 3525 4100 3525 3541 
Q 3525 3141 3298 2862 
Q 3072 2584 2669 2484 
Q 3125 2378 3379 2068 
Q 3634 1759 3634 1313 
Q 3634 634 3220 271 
Q 2806 -91 2034 -91 
Q 1263 -91 848 271 
Q 434 634 434 1313 
Q 434 1759 690 2068 
Q 947 2378 1403 2484 
z
M 1172 3481 
Q 1172 3119 1398 2916 
Q 1625 2713 2034 2713 
Q 2441 2713 2670 2916 
Q 2900 3119 2900 3481 
Q 2900 3844 2670 4047 
Q 2441 4250 2034 4250 
Q 1625 4250 1398 4047 
Q 1172 3844 1172 3481 
z
" transform="scale(0.015625)"/>
       </defs>
       <use xlink:href="#DejaVuSans-2212"/>
       <use xlink:href="#DejaVuSans-38" x="83.789062"/>
       <use xlink:href="#DejaVuSans-30" x="147.412109"/>
      </g>
     </g>
    </g>
    <g id="ytick_3">
     <g id="line2d_7">
      <g>
       <use xlink:href="#m3a68ec7d6e" x="72" y="368.1" style="stroke: #000000; stroke-width: 0.8"/>
      </g>
     </g>
     <g id="text_8">
      <!-- −60 -->
      <g transform="translate(18.569688 376.458281)scale(0.22 -0.22)">
       <defs>
        <path id="DejaVuSans-36" d="M 2113 2584 
Q 1688 2584 1439 2293 
Q 1191 2003 1191 1497 
Q 1191 994 1439 701 
Q 1688 409 2113 409 
Q 2538 409 2786 701 
Q 3034 994 3034 1497 
Q 3034 2003 2786 2293 
Q 2538 2584 2113 2584 
z
M 3366 4563 
L 3366 3988 
Q 3128 4100 2886 4159 
Q 2644 4219 2406 4219 
Q 1781 4219 1451 3797 
Q 1122 3375 1075 2522 
Q 1259 2794 1537 2939 
Q 1816 3084 2150 3084 
Q 2853 3084 3261 2657 
Q 3669 2231 3669 1497 
Q 3669 778 3244 343 
Q 2819 -91 2113 -91 
Q 1303 -91 875 529 
Q 447 1150 447 2328 
Q 447 3434 972 4092 
Q 1497 4750 2381 4750 
Q 2619 4750 2861 4703 
Q 3103 4656 3366 4563 
z
" transform="scale(0.015625)"/>
       </defs>
       <use xlink:href="#DejaVuSans-2212"/>
       <use xlink:href="#DejaVuSans-36" x="83.789062"/>
       <use xlink:href="#DejaVuSans-30" x="147.412109"/>
      </g>
     </g>
    </g>
    <g id="ytick_4">
     <g id="line2d_8">
      <g>
       <use xlink:href="#m3a68ec7d6e" x="72" y="313.74" style="stroke: #000000; stroke-width: 0.8"/>
      </g>
     </g>
     <g id="text_9">
      <!-- −40 -->
      <g transform="translate(18.569688 322.098281)scale(0.22 -0.22)">
       <defs>
        <path id="DejaVuSans-34" d="M 2419 4116 
L 825 1625 
L 2419 1625 
L 2419 4116 
z
M 2253 4666 
L 3047 4666 
L 3047 1625 
L 3713 1625 
L 3713 1100 
L 3047 1100 
L 3047 0 
L 2419 0 
L 2419 1100 
L 313 1100 
L 313 1709 
L 2253 4666 
z
" transform="scale(0.015625)"/>
       </defs>
       <use xlink:href="#DejaVuSans-2212"/>
       <use xlink:href="#DejaVuSans-34" x="83.789062"/>
       <use xlink:href="#DejaVuSans-30" x="147.412109"/>
      </g>
     </g>
    </g>
    <g id="ytick_5">
     <g id="line2d_9">
      <g>
       <use xlink:href="#m3a68ec7d6e" x="72" y="259.38" style="stroke: #000000; stroke-width: 0.8"/>
      </g>
     </g>
     <g id="text_10">
      <!-- −20 -->
      <g transform="translate(18.569688 267.738281)scale(0.22 -0.22)">
       <use xlink:href="#DejaVuSans-2212"/>
       <use xlink:href="#DejaVuSans-32" x="83.789062"/>
       <use xlink:href="#DejaVuSans-30" x="147.412109"/>
      </g>
     </g>
    </g>
    <g id="ytick_6">
     <g id="line2d_10">
      <g>
       <use xlink:href="#m3a68ec7d6e" x="72" y="205.02" style="stroke: #000000; stroke-width: 0.8"/>
      </g>
     </g>
     <g id="text_11">
      <!-- 0 -->
      <g transform="translate(51.0025 213.378281)scale(0.22 -0.22)">
       <use xlink:href="#DejaVuSans-30"/>
      </g>
     </g>
    </g>
    <g id="ytick_7">
     <g id="line2d_11">
      <g>
       <use xlink:href="#m3a68ec7d6e" x="72" y="150.66" style="stroke: #000000; stroke-width: 0.8"/>
      </g>
     </g>
     <g id="text_12">
      <!-- 20 -->
      <g transform="translate(37.005 159.018281)scale(0.22 -0.22)">
       <use xlink:href="#DejaVuSans-32"/>
       <use xlink:href="#DejaVuSans-30" x="63.623047"/>
      </g>
     </g>
    </g>
    <g id="ytick_8">
     <g id="line2d_12">
      <g>
       <use xlink:href="#m3a68ec7d6e" x="72" y="96.3" style="stroke: #000000; stroke-width: 0.8"/>
      </g>
     </g>
     <g id="text_13">
      <!-- 40 -->
      <g transform="translate(37.005 104.658281)scale(0.22 -0.22)">
       <use xlink:href="#DejaVuSans-34"/>
       <use xlink:href="#DejaVuSans-30" x="63.623047"/>
      </g>
     </g>
    </g>
    <g id="text_14">
     <!-- Membrane potential (mV) -->
     <g transform="translate(-4.058125 410.655469)rotate(-90)scale(0.22 -0.22)">
      <defs>
       <path id="ArialMT-4d" d="M 475 0 
L 475 4581 
L 1388 4581 
L 2472 1338 
Q 2622 884 2691 659 
Q 2769 909 2934 1394 
L 4031 4581 
L 4847 4581 
L 4847 0 
L 4263 0 
L 4263 3834 
L 2931 0 
L 2384 0 
L 1059 3900 
L 1059 0 
L 475 0 
z
" transform="scale(0.015625)"/>
       <path id="ArialMT-62" d="M 941 0 
L 419 0 
L 419 4581 
L 981 4581 
L 981 2947 
Q 1338 3394 1891 3394 
Q 2197 3394 2470 3270 
Q 2744 3147 2920 2923 
Q 3097 2700 3197 2384 
Q 3297 2069 3297 1709 
Q 3297 856 2875 390 
Q 2453 -75 1863 -75 
Q 1275 -75 941 416 
L 941 0 
z
M 934 1684 
Q 934 1088 1097 822 
Q 1363 388 1816 388 
Q 2184 388 2453 708 
Q 2722 1028 2722 1663 
Q 2722 2313 2464 2622 
Q 2206 2931 1841 2931 
Q 1472 2931 1203 2611 
Q 934 2291 934 1684 
z
" transform="scale(0.015625)"/>
       <path id="ArialMT-72" d="M 416 0 
L 416 3319 
L 922 3319 
L 922 2816 
Q 1116 3169 1280 3281 
Q 1444 3394 1641 3394 
Q 1925 3394 2219 3213 
L 2025 2691 
Q 1819 2813 1613 2813 
Q 1428 2813 1281 2702 
Q 1134 2591 1072 2394 
Q 978 2094 978 1738 
L 978 0 
L 416 0 
z
" transform="scale(0.015625)"/>
       <path id="ArialMT-61" d="M 2588 409 
Q 2275 144 1986 34 
Q 1697 -75 1366 -75 
Q 819 -75 525 192 
Q 231 459 231 875 
Q 231 1119 342 1320 
Q 453 1522 633 1644 
Q 813 1766 1038 1828 
Q 1203 1872 1538 1913 
Q 2219 1994 2541 2106 
Q 2544 2222 2544 2253 
Q 2544 2597 2384 2738 
Q 2169 2928 1744 2928 
Q 1347 2928 1158 2789 
Q 969 2650 878 2297 
L 328 2372 
Q 403 2725 575 2942 
Q 747 3159 1072 3276 
Q 1397 3394 1825 3394 
Q 2250 3394 2515 3294 
Q 2781 3194 2906 3042 
Q 3031 2891 3081 2659 
Q 3109 2516 3109 2141 
L 3109 1391 
Q 3109 606 3145 398 
Q 3181 191 3288 0 
L 2700 0 
Q 2613 175 2588 409 
z
M 2541 1666 
Q 2234 1541 1622 1453 
Q 1275 1403 1131 1340 
Q 988 1278 909 1158 
Q 831 1038 831 891 
Q 831 666 1001 516 
Q 1172 366 1500 366 
Q 1825 366 2078 508 
Q 2331 650 2450 897 
Q 2541 1088 2541 1459 
L 2541 1666 
z
" transform="scale(0.015625)"/>
       <path id="ArialMT-6e" d="M 422 0 
L 422 3319 
L 928 3319 
L 928 2847 
Q 1294 3394 1984 3394 
Q 2284 3394 2536 3286 
Q 2788 3178 2913 3003 
Q 3038 2828 3088 2588 
Q 3119 2431 3119 2041 
L 3119 0 
L 2556 0 
L 2556 2019 
Q 2556 2363 2490 2533 
Q 2425 2703 2258 2804 
Q 2091 2906 1866 2906 
Q 1506 2906 1245 2678 
Q 984 2450 984 1813 
L 984 0 
L 422 0 
z
" transform="scale(0.015625)"/>
       <path id="ArialMT-20" transform="scale(0.015625)"/>
       <path id="ArialMT-70" d="M 422 -1272 
L 422 3319 
L 934 3319 
L 934 2888 
Q 1116 3141 1344 3267 
Q 1572 3394 1897 3394 
Q 2322 3394 2647 3175 
Q 2972 2956 3137 2557 
Q 3303 2159 3303 1684 
Q 3303 1175 3120 767 
Q 2938 359 2589 142 
Q 2241 -75 1856 -75 
Q 1575 -75 1351 44 
Q 1128 163 984 344 
L 984 -1272 
L 422 -1272 
z
M 931 1641 
Q 931 1000 1190 694 
Q 1450 388 1819 388 
Q 2194 388 2461 705 
Q 2728 1022 2728 1688 
Q 2728 2322 2467 2637 
Q 2206 2953 1844 2953 
Q 1484 2953 1207 2617 
Q 931 2281 931 1641 
z
" transform="scale(0.015625)"/>
       <path id="ArialMT-6f" d="M 213 1659 
Q 213 2581 725 3025 
Q 1153 3394 1769 3394 
Q 2453 3394 2887 2945 
Q 3322 2497 3322 1706 
Q 3322 1066 3130 698 
Q 2938 331 2570 128 
Q 2203 -75 1769 -75 
Q 1072 -75 642 372 
Q 213 819 213 1659 
z
M 791 1659 
Q 791 1022 1069 705 
Q 1347 388 1769 388 
Q 2188 388 2466 706 
Q 2744 1025 2744 1678 
Q 2744 2294 2464 2611 
Q 2184 2928 1769 2928 
Q 1347 2928 1069 2612 
Q 791 2297 791 1659 
z
" transform="scale(0.015625)"/>
       <path id="ArialMT-74" d="M 1650 503 
L 1731 6 
Q 1494 -44 1306 -44 
Q 1000 -44 831 53 
Q 663 150 594 308 
Q 525 466 525 972 
L 525 2881 
L 113 2881 
L 113 3319 
L 525 3319 
L 525 4141 
L 1084 4478 
L 1084 3319 
L 1650 3319 
L 1650 2881 
L 1084 2881 
L 1084 941 
Q 1084 700 1114 631 
Q 1144 563 1211 522 
Q 1278 481 1403 481 
Q 1497 481 1650 503 
z
" transform="scale(0.015625)"/>
       <path id="ArialMT-6c" d="M 409 0 
L 409 4581 
L 972 4581 
L 972 0 
L 409 0 
z
" transform="scale(0.015625)"/>
       <path id="ArialMT-56" d="M 1803 0 
L 28 4581 
L 684 4581 
L 1875 1253 
Q 2019 853 2116 503 
Q 2222 878 2363 1253 
L 3600 4581 
L 4219 4581 
L 2425 0 
L 1803 0 
z
" transform="scale(0.015625)"/>
      </defs>
      <use xlink:href="#ArialMT-4d"/>
      <use xlink:href="#ArialMT-65" x="83.300781"/>
      <use xlink:href="#ArialMT-6d" x="138.916016"/>
      <use xlink:href="#ArialMT-62" x="222.216797"/>
      <use xlink:href="#ArialMT-72" x="277.832031"/>
      <use xlink:href="#ArialMT-61" x="311.132812"/>
      <use xlink:href="#ArialMT-6e" x="366.748047"/>
      <use xlink:href="#ArialMT-65" x="422.363281"/>
      <use xlink:href="#ArialMT-20" x="477.978516"/>
      <use xlink:href="#ArialMT-70" x="505.761719"/>
      <use xlink:href="#ArialMT-6f" x="561.376953"/>
      <use xlink:href="#ArialMT-74" x="616.992188"/>
      <use xlink:href="#ArialMT-65" x="644.775391"/>
      <use xlink:href="#ArialMT-6e" x="700.390625"/>
      <use xlink:href="#ArialMT-74" x="756.005859"/>
      <use xlink:href="#ArialMT-69" x="783.789062"/>
      <use xlink:href="#ArialMT-61" x="806.005859"/>
      <use xlink:href="#ArialMT-6c" x="861.621094"/>
      <use xlink:href="#ArialMT-20" x="883.837891"/>
      <use xlink:href="#ArialMT-28" x="911.621094"/>
      <use xlink:href="#ArialMT-6d" x="944.921875"/>
      <use xlink:href="#ArialMT-56" x="1028.222656"/>
      <use xlink:href="#ArialMT-29" x="1094.921875"/>
     </g>
    </g>
   </g>
   <g id="line2d_13">
    <path d="M 92.290909 436.05 
L 92.493818 447.441345 
L 92.899636 454.674041 
L 93.373091 459.623752 
L 93.846545 462.418224 
L 94.32 463.948125 
L 94.793455 464.770463 
L 95.334545 465.25188 
L 96.010909 465.522781 
L 97.093091 465.66575 
L 99.798545 465.711806 
L 155.057455 465.713731 
L 159.927273 465.713736 
L 160.130182 449.133047 
L 160.536 439.340257 
L 161.077091 431.17609 
L 161.753455 424.353048 
L 162.497455 419.007019 
L 163.376727 414.262864 
L 164.391273 410.025869 
L 165.541091 406.208364 
L 166.826182 402.735318 
L 168.246545 399.542612 
L 169.869818 396.454096 
L 171.696 393.461651 
L 173.860364 390.34482 
L 176.836364 386.47827 
L 181.773818 380.105376 
L 184.614545 375.89544 
L 185.764364 373.387332 
L 186.711273 370.719597 
L 186.981818 369.518711 
L 187.252364 368.568946 
L 187.928727 367.094029 
L 188.402182 365.395572 
L 188.740364 363.636851 
L 189.010909 360.6272 
L 189.078545 360.630659 
L 189.349091 361.354775 
L 189.687273 362.011018 
L 189.890182 362.023666 
L 190.160727 361.795062 
L 190.498909 361.208696 
L 190.972364 359.871501 
L 191.107636 359.446471 
L 191.648727 361.876082 
L 191.784 361.820064 
L 191.986909 361.353154 
L 192.325091 359.602703 
L 193.339636 354.011209 
L 193.677818 350.838034 
L 193.880727 346.978677 
L 194.692364 327.685269 
L 194.827636 318.579619 
L 194.962909 290.377123 
L 195.030545 211.337308 
L 195.098182 258.727546 
L 195.301091 351.384706 
L 195.504 368.012403 
L 195.706909 371.742619 
L 195.909818 372.426546 
L 196.045091 372.163847 
L 196.383273 370.594245 
L 197.194909 365.23549 
L 197.668364 362.796263 
L 198.141818 360.59139 
L 198.209455 360.700922 
L 198.547636 361.814159 
L 198.615273 361.781153 
L 199.088727 360.918078 
L 199.224 360.817095 
L 199.494545 360.171406 
L 199.832727 358.740831 
L 200.170909 356.738335 
L 200.712 351.519214 
L 201.117818 349.346639 
L 201.388364 346.847646 
L 201.794182 340.139246 
L 202.064727 332.121613 
L 202.2 324.038763 
L 202.335273 299.296852 
L 202.402909 199.710716 
L 202.470545 224.936196 
L 202.673455 358.043642 
L 202.876364 377.987867 
L 203.079273 381.008944 
L 203.214545 381.176121 
L 203.349818 380.735188 
L 203.688 378.387728 
L 204.837818 369.708499 
L 205.176 369.673081 
L 205.378909 369.304659 
L 205.852364 368.081957 
L 206.258182 367.135276 
L 206.664 365.563927 
L 207.137455 362.69712 
L 207.408 359.826902 
L 207.610909 359.275405 
L 208.084364 358.62873 
L 208.422545 357.60413 
L 208.828364 355.671985 
L 209.234182 352.715022 
L 209.64 347.896282 
L 209.842909 342.55263 
L 210.181091 323.149064 
L 210.316364 293.543885 
L 210.384 174.6071 
L 210.451636 250.481674 
L 210.654545 364.25771 
L 210.857455 381.492993 
L 211.060364 383.133439 
L 211.195636 382.729746 
L 211.533818 380.289255 
L 212.954182 368.567437 
L 213.36 365.199229 
L 213.833455 360.32607 
L 214.036364 360.81023 
L 214.306909 361.379099 
L 214.577455 361.528267 
L 214.780364 361.42892 
L 215.050909 361.003413 
L 215.524364 359.658497 
L 215.997818 358.162829 
L 216.065455 358.411099 
L 216.403636 359.547542 
L 216.538909 359.466766 
L 216.741818 358.854104 
L 217.012364 357.241496 
L 217.215273 354.780347 
L 217.485818 350.243355 
L 218.568 343.667989 
L 218.906182 338.909668 
L 219.176727 331.345287 
L 219.379636 316.58883 
L 219.447273 302.6682 
L 219.582545 206.352214 
L 219.785455 352.305771 
L 219.988364 374.565829 
L 220.191273 378.107599 
L 220.258909 378.298209 
L 220.326545 378.252914 
L 220.461818 377.574436 
L 221.205818 372.286363 
L 221.814545 368.714217 
L 221.949818 368.472313 
L 222.152727 368.352611 
L 222.423273 367.746108 
L 222.693818 366.492618 
L 223.234909 364.337683 
L 223.776 361.84699 
L 224.317091 358.123951 
L 224.790545 352.265405 
L 225.128727 350.865791 
L 225.872727 349.294318 
L 226.143273 347.738349 
L 226.481455 344.327793 
L 226.752 339.610359 
L 227.022545 330.141775 
L 227.157818 317.517112 
L 227.225455 301.164398 
L 227.293091 204.189987 
L 227.360727 215.871711 
L 227.563636 358.364709 
L 227.766545 378.465279 
L 227.969455 380.708119 
L 228.104727 380.771795 
L 228.24 380.429287 
L 228.578182 378.512617 
L 229.795636 370.982686 
L 231.418909 361.837486 
L 231.757091 357.394947 
L 232.095273 357.162484 
L 232.230545 357.268585 
L 232.636364 357.745152 
L 232.839273 357.508777 
L 233.109818 356.60041 
L 233.515636 353.693226 
L 233.650909 352.735444 
L 233.718545 352.764668 
L 233.921455 353.161086 
L 234.124364 352.182432 
L 234.259636 352.18917 
L 234.665455 352.634506 
L 234.800727 352.505747 
L 235.003636 351.97346 
L 235.341818 350.283155 
L 235.747636 346.847311 
L 236.085818 342.128204 
L 236.356364 335.734315 
L 236.559273 326.608606 
L 236.694545 311.772632 
L 236.762182 288.304748 
L 236.829818 178.645404 
L 237.032727 343.705172 
L 237.235636 372.230415 
L 237.438545 374.453164 
L 237.709091 375.411059 
L 237.844364 375.3251 
L 238.047273 374.668848 
L 238.520727 372.027294 
L 239.332364 367.197756 
L 239.738182 366.689928 
L 240.346909 364.442235 
L 240.482182 363.540795 
L 240.752727 361.110236 
L 240.955636 360.846261 
L 241.158545 360.785347 
L 241.902545 359.461849 
L 242.376 357.772991 
L 242.849455 355.221119 
L 243.322909 351.40499 
L 243.728727 346.757021 
L 244.066909 339.983254 
L 244.337455 329.531568 
L 244.472727 316.796846 
L 244.540364 301.366639 
L 244.675636 215.257814 
L 244.878545 358.315765 
L 245.081455 378.890017 
L 245.284364 381.489602 
L 245.419636 381.207993 
L 245.690182 380.007807 
L 246.366545 375.335871 
L 247.381091 368.087448 
L 247.584 365.947779 
L 247.786909 365.453273 
L 248.328 365.084127 
L 248.666182 364.371263 
L 249.004364 363.14243 
L 249.613091 360.181166 
L 249.951273 358.46414 
L 250.424727 356.605123 
L 250.830545 353.948592 
L 251.371636 349.429897 
L 251.506909 349.611854 
L 251.777455 350.115887 
L 251.912727 350.029783 
L 252.115636 349.377502 
L 252.318545 347.937964 
L 252.859636 340.044365 
L 253.130182 332.461943 
L 253.333091 318.152136 
L 253.400727 305.584308 
L 253.536 192.73177 
L 253.738909 350.913217 
L 253.941818 373.36365 
L 254.144727 376.898413 
L 254.28 377.236646 
L 254.415273 376.897469 
L 254.685818 375.100296 
L 256.309091 362.239059 
L 256.579636 361.558095 
L 256.850182 360.204452 
L 257.120727 357.888775 
L 257.323636 353.847924 
L 257.594182 349.909859 
L 257.932364 348.829861 
L 258.135273 347.91961 
L 258.608727 343.93475 
L 258.811636 340.770011 
L 259.149818 331.263074 
L 259.352727 317.182178 
L 259.420364 305.02351 
L 259.555636 195.522436 
L 259.758545 348.96 
L 259.961455 371.871686 
L 260.164364 373.826844 
L 260.299636 373.840369 
L 260.434909 373.35212 
L 260.976 369.372288 
L 261.990545 363.004584 
L 262.261091 362.447647 
L 262.599273 361.024444 
L 263.072727 358.124569 
L 263.478545 354.299734 
L 263.681455 350.289132 
L 263.952 346.254547 
L 264.763636 338.612659 
L 265.034182 331.399332 
L 265.237091 316.151372 
L 265.304727 301.957248 
L 265.44 209.534297 
L 265.642909 352.670628 
L 265.845818 374.136396 
L 266.048727 376.990975 
L 266.116364 376.992378 
L 266.251636 376.378149 
L 266.589818 373.000398 
L 268.010182 355.871647 
L 268.077818 355.924521 
L 268.280727 356.218117 
L 268.416 356.07814 
L 268.551273 355.554689 
L 268.686545 353.982439 
L 268.957091 350.410109 
L 269.295273 349.389702 
L 269.565818 348.306016 
L 269.836364 346.297609 
L 270.174545 341.631107 
L 270.512727 332.573711 
L 270.715636 321.698449 
L 270.850909 300.204173 
L 270.986182 217.441105 
L 271.189091 350.714719 
L 271.392 371.212472 
L 271.594909 374.299505 
L 271.662545 374.395131 
L 271.797818 373.971821 
L 272.068364 371.810041 
L 272.812364 363.163081 
L 273.624 354.140018 
L 274.368 348.805067 
L 274.706182 341.901976 
L 275.314909 334.219105 
L 275.517818 327.724148 
L 275.653091 318.680669 
L 275.788364 288.295023 
L 275.856 200.676771 
L 276.126545 353.624882 
L 276.329455 370.509844 
L 276.532364 373.232857 
L 276.6 373.272612 
L 276.735273 372.68546 
L 277.141091 368.53848 
L 277.614545 363.949717 
L 278.561455 355.336608 
L 278.967273 349.755505 
L 279.440727 340.160591 
L 279.508364 340.010598 
L 279.576 340.043333 
L 279.711273 340.117583 
L 279.846545 339.68912 
L 279.981818 338.411737 
L 280.117091 335.416958 
L 280.32 324.165563 
L 280.455273 305.751724 
L 280.590545 191.873679 
L 280.793455 349.289512 
L 280.996364 374.234041 
L 281.199273 378.099676 
L 281.266909 378.320129 
L 281.334545 378.296207 
L 281.469818 377.770995 
L 281.808 375.143351 
L 284.04 355.722194 
L 284.784 350.946659 
L 284.919273 350.792456 
L 285.122182 349.895175 
L 285.392727 347.062769 
L 285.595636 342.806963 
L 285.798545 331.699488 
L 285.933818 316.321986 
L 286.001455 293.021719 
L 286.069091 153.761616 
L 286.272 349.468712 
L 286.474909 381.746116 
L 286.677818 385.521248 
L 286.745455 385.645478 
L 286.880727 385.15676 
L 287.421818 380.651534 
L 288.368727 373.134999 
L 290.127273 363.181828 
L 290.330182 362.876063 
L 290.600727 361.743393 
L 291.141818 359.167333 
L 291.48 357.311101 
L 291.885818 353.83569 
L 292.156364 350.146754 
L 292.426909 341.21235 
L 292.765091 322.97291 
L 292.900364 302.799621 
L 293.035636 207.670326 
L 293.238545 353.352601 
L 293.441455 375.338668 
L 293.644364 378.582346 
L 293.712 378.717883 
L 293.779636 378.625982 
L 293.982545 377.374313 
L 295.132364 368.396855 
L 295.673455 366.644604 
L 296.011636 364.612981 
L 296.417455 362.222978 
L 296.958545 359.122925 
L 297.364364 355.568003 
L 298.176 348.131855 
L 298.514182 342.248647 
L 298.717091 335.438248 
L 298.92 315.743337 
L 298.987636 292.547412 
L 299.055273 157.864999 
L 299.258182 348.549048 
L 299.461091 379.896501 
L 299.664 383.394242 
L 299.731636 383.427565 
L 299.866909 382.835895 
L 300.137455 380.118829 
L 301.287273 367.589357 
L 302.301818 362.327733 
L 304.128 349.583775 
L 304.398545 345.433576 
L 304.669091 336.179226 
L 304.872 325.013917 
L 305.007273 300.077348 
L 305.074909 197.979633 
L 305.142545 223.212933 
L 305.345455 360.470958 
L 305.548364 380.009129 
L 305.751273 382.486144 
L 305.818909 382.517809 
L 305.954182 382.040159 
L 306.292364 379.320415 
L 307.104 372.332632 
L 309.741818 355.381135 
L 310.553455 346.43586 
L 310.824 341.13404 
L 311.026909 332.242792 
L 311.162182 320.810589 
L 311.229818 308.444415 
L 311.365091 181.581902 
L 311.568 354.475344 
L 311.770909 378.646904 
L 311.973818 382.318981 
L 312.041455 382.513355 
L 312.109091 382.46927 
L 312.312 381.673261 
L 312.717818 378.50587 
L 313.867636 369.032149 
L 316.302545 355.33121 
L 316.708364 351.348147 
L 317.114182 347.529766 
L 317.317091 347.323191 
L 317.452364 346.782949 
L 317.655273 344.879118 
L 317.925818 339.930439 
L 318.128727 331.107472 
L 318.264 318.375784 
L 318.331636 301.410249 
L 318.399273 189.780973 
L 318.466909 216.586961 
L 318.669818 360.599279 
L 318.872727 380.94265 
L 319.075636 383.589219 
L 319.143273 383.65318 
L 319.278545 383.228734 
L 319.549091 381.115376 
L 320.428364 373.317795 
L 321.713455 365.259496 
L 322.322182 361.888714 
L 323.472 354.962769 
L 323.742545 353.700533 
L 324.013091 351.387453 
L 324.418909 345.841875 
L 324.757091 341.472852 
L 324.96 333.960733 
L 325.162909 321.352675 
L 325.298182 293.94554 
L 325.365818 196.998505 
L 325.433455 246.780612 
L 325.636364 357.816465 
L 325.839273 375.49056 
L 326.042182 377.881481 
L 326.109818 377.880293 
L 326.245091 377.314621 
L 326.515636 374.730736 
L 327.462545 365.097026 
L 327.936 361.779951 
L 328.138909 360.80263 
L 328.409455 360.639079 
L 328.612364 360.0725 
L 328.950545 358.173548 
L 329.356364 354.639138 
L 329.694545 349.99143 
L 329.897455 344.565276 
L 330.168 330.234329 
L 330.303273 311.618123 
L 330.438545 167.962766 
L 330.641455 357.848509 
L 330.844364 383.540186 
L 331.047273 386.310633 
L 331.114909 386.301574 
L 331.317818 385.396493 
L 331.723636 382.044529 
L 332.670545 374.015912 
L 333.549818 368.863988 
L 333.888 367.81879 
L 334.361455 366.497899 
L 334.970182 363.973101 
L 335.578909 360.501218 
L 336.187636 355.696916 
L 336.931636 347.719896 
L 337.472727 334.664869 
L 337.810909 332.388638 
L 337.946182 329.378247 
L 338.149091 316.717748 
L 338.284364 281.420715 
L 338.352 202.494361 
L 338.554909 338.962107 
L 338.757818 365.709926 
L 338.960727 370.536949 
L 339.096 370.928285 
L 339.231273 370.393334 
L 339.434182 368.321046 
L 340.245818 359.138133 
L 340.786909 352.491709 
L 341.192727 344.41055 
L 342.139636 330.049314 
L 342.342545 319.120549 
L 342.477818 291.150082 
L 342.545455 206.947756 
L 342.613091 254.529613 
L 342.816 351.918255 
L 343.018909 369.892931 
L 343.221818 373.318254 
L 343.357091 373.635275 
L 343.492364 373.252411 
L 343.762909 371.380638 
L 345.792 354.286398 
L 346.062545 354.043974 
L 346.265455 353.217816 
L 346.468364 351.444305 
L 346.671273 347.772737 
L 347.077091 340.33306 
L 347.415273 334.327533 
L 347.618182 327.161458 
L 347.753455 316.868676 
L 347.821091 305.721877 
L 347.956364 195.535487 
L 348.159273 344.666601 
L 348.362182 368.887844 
L 348.497455 370.896161 
L 348.632727 370.59232 
L 348.768 370.589524 
L 348.903273 370.32772 
L 349.173818 368.85516 
L 349.647273 365.140115 
L 351.608727 350.512607 
L 351.811636 350.483916 
L 351.946909 350.199957 
L 352.149818 349.139466 
L 352.488 345.69534 
L 352.758545 340.866303 
L 353.029091 331.250426 
L 353.164364 320.220268 
L 353.232 308.246821 
L 353.367273 181.054025 
L 353.570182 352.220441 
L 353.773091 376.29288 
L 353.976 379.240793 
L 354.043636 379.188821 
L 354.178909 377.895952 
L 354.449455 374.884956 
L 355.328727 368.855758 
L 356.546182 360.041927 
L 356.749091 358.587918 
L 356.952 358.450514 
L 357.154909 358.323602 
L 357.357818 357.983201 
L 357.560727 357.164626 
L 358.237091 352.540623 
L 358.642909 348.358829 
L 358.981091 342.491615 
L 359.251636 333.231973 
L 359.386909 321.410622 
L 359.454545 308.236602 
L 359.589818 183.833437 
L 359.792727 356.083223 
L 359.995636 378.317887 
L 360.198545 381.580782 
L 360.333818 381.986953 
L 360.469091 381.769657 
L 360.739636 380.283339 
L 362.498182 368.18296 
L 362.904 366.864424 
L 363.445091 364.075193 
L 363.850909 362.058941 
L 364.256727 360.148172 
L 364.662545 358.41018 
L 365.068364 355.616701 
L 365.541818 350.572957 
L 365.88 345.052233 
L 366.218182 332.667584 
L 366.421091 315.490078 
L 366.488727 297.259411 
L 366.556364 188.796231 
L 366.624 235.293048 
L 366.826909 359.496566 
L 367.029818 377.338248 
L 367.232727 379.530232 
L 367.300364 379.534983 
L 367.435636 379.205176 
L 367.706182 377.565688 
L 370.344 355.949788 
L 370.614545 351.492833 
L 370.885091 349.776092 
L 371.290909 347.641236 
L 371.561455 344.907005 
L 371.899636 338.86493 
L 372.170182 329.52301 
L 372.305455 318.983327 
L 372.373091 307.471914 
L 372.508364 184.793951 
L 372.711273 348.4544 
L 372.914182 372.79513 
L 373.117091 377.019295 
L 373.252364 377.555607 
L 373.32 377.51605 
L 373.522909 376.645564 
L 373.928727 373.308716 
L 375.078545 363.068517 
L 376.431273 353.319308 
L 376.837091 347.810373 
L 377.107636 340.097291 
L 377.378182 328.663273 
L 377.513455 316.303216 
L 377.581091 301.324591 
L 377.716364 215.903866 
L 377.919273 356.033332 
L 378.122182 375.225901 
L 378.325091 376.053592 
L 378.528 376.416375 
L 378.663273 376.206774 
L 378.933818 374.881447 
L 379.745455 368.970365 
L 380.421818 363.144152 
L 380.895273 359.134553 
L 381.909818 351.745093 
L 382.383273 347.192813 
L 382.586182 342.883765 
L 382.992 329.7957 
L 383.194909 313.340293 
L 383.262545 296.791235 
L 383.330182 220.136927 
L 383.397818 234.472893 
L 383.600727 353.715456 
L 383.803636 371.88304 
L 384.006545 373.707309 
L 384.141818 373.30747 
L 384.48 370.765068 
L 384.818182 366.128398 
L 385.832727 359.933605 
L 386.779636 351.817739 
L 387.117818 347.50954 
L 387.456 338.015552 
L 387.794182 323.494242 
L 387.929455 307.688854 
L 387.997091 282.327905 
L 388.064727 196.26808 
L 388.267636 342.688938 
L 388.470545 369.04417 
L 388.673455 373.255033 
L 388.741091 373.483023 
L 388.808727 373.441156 
L 388.944 372.81434 
L 389.349818 369.011553 
L 389.688 365.43079 
L 389.958545 360.732452 
L 390.229091 359.744081 
L 390.567273 358.864786 
L 390.837818 357.357865 
L 391.92 349.56712 
L 392.258182 344.431492 
L 392.596364 334.885944 
L 392.799273 323.708173 
L 392.934545 300.911433 
L 393.069818 216.940011 
L 393.272727 355.484145 
L 393.475636 374.809744 
L 393.610909 376.507062 
L 393.678545 376.291456 
L 394.084364 372.123706 
L 394.557818 369.503893 
L 395.031273 366.615388 
L 395.504727 362.408654 
L 395.842909 357.40482 
L 396.181091 356.240802 
L 396.586909 355.006372 
L 396.925091 353.174082 
L 397.263273 349.970864 
L 397.804364 342.616024 
L 398.074909 335.678193 
L 398.277818 326.150195 
L 398.413091 311.514117 
L 398.480727 289.271228 
L 398.548364 184.899497 
L 398.751273 343.019437 
L 398.954182 372.174054 
L 399.157091 376.113187 
L 399.224727 376.200567 
L 399.36 375.704685 
L 399.630545 373.496415 
L 399.968727 368.989566 
L 400.306909 363.977578 
L 400.712727 358.702519 
L 400.983273 354.743683 
L 401.253818 354.045776 
L 401.456727 353.402603 
L 402.065455 349.913129 
L 402.403636 347.009081 
L 402.741818 342.144714 
L 403.012364 335.255806 
L 403.215273 324.346755 
L 403.350545 301.32891 
L 403.485818 214.73785 
L 403.688727 355.868231 
L 403.891636 374.802256 
L 404.094545 376.288583 
L 404.229818 376.412615 
L 404.365091 376.265234 
L 404.568 375.384183 
L 405.041455 371.723506 
L 406.056 362.925711 
L 406.258909 360.716555 
L 406.529455 356.421267 
L 406.867636 355.413787 
L 407.746909 352.282367 
L 408.152727 349.327142 
L 408.558545 344.47027 
L 408.829091 341.621185 
L 409.099636 339.968981 
L 409.302545 337.322974 
L 409.505455 332.178251 
L 409.708364 320.537645 
L 409.843636 292.196634 
L 409.911273 197.747175 
L 409.978909 250.526214 
L 410.181818 354.346201 
L 410.384727 371.49691 
L 410.587636 373.838941 
L 410.655273 373.777687 
L 410.790545 373.030998 
L 411.061091 369.701093 
L 411.399273 364.195273 
L 411.669818 360.28137 
L 411.940364 356.212882 
L 412.278545 354.913117 
L 412.752 352.888057 
L 413.157818 350.076584 
L 413.360727 349.077312 
L 413.496 348.907333 
L 413.766545 347.667405 
L 414.172364 344.468986 
L 414.510545 339.916326 
L 414.781091 332.743046 
L 414.984 320.155891 
L 415.051636 310.319834 
L 415.119273 284.183038 
L 415.186909 179.423857 
L 415.389818 344.531277 
L 415.592727 372.168166 
L 415.795636 375.622385 
L 415.863273 375.582398 
L 415.998545 374.569388 
L 416.472 367.73242 
L 417.013091 357.202889 
L 417.216 356.341116 
L 417.486545 355.907751 
L 417.892364 354.298777 
L 417.96 354.498156 
L 418.230545 355.119768 
L 418.433455 355.06159 
L 418.636364 354.662155 
L 418.906909 353.470798 
L 419.312727 350.399569 
L 419.718545 345.352733 
L 419.989091 339.67856 
L 420.192 331.98015 
L 420.327273 322.11607 
L 420.394909 312.326702 
L 420.462545 285.855756 
L 420.530182 168.552223 
L 420.733091 347.324797 
L 420.936 375.220257 
L 421.071273 377.668916 
L 421.341818 376.089605 
L 421.68 372.542585 
L 422.221091 366.110306 
L 422.559273 365.538504 
L 422.626909 365.58632 
L 422.829818 365.630572 
L 423.032727 365.252073 
L 423.370909 363.883082 
L 424.250182 359.014024 
L 424.723636 355.819537 
L 425.264727 350.764508 
L 425.738182 344.597892 
L 426.076364 336.687414 
L 426.279273 327.258025 
L 426.414545 309.346724 
L 426.549818 176.932276 
L 426.752727 351.969394 
L 426.955636 376.31435 
L 427.158545 378.866588 
L 427.429091 377.079407 
L 429.931636 361.887444 
L 430.472727 357.908293 
L 430.675636 379.418541 
L 431.149091 398.977327 
L 432.096 427.787725 
L 432.907636 446.936068 
L 433.448727 455.206647 
L 433.922182 459.663192 
L 434.395636 462.301055 
L 434.869091 463.805084 
L 435.342545 464.647698 
L 435.883636 465.164241 
L 436.56 465.472116 
L 437.574545 465.642878 
L 439.671273 465.709634 
L 456.106909 465.712922 
L 498.109091 465.713268 
L 498.109091 465.713268 
" clip-path="url(#p10fb0031b9)" style="fill: none; stroke: #000000; stroke-width: 1.5; stroke-linecap: square"/>
   </g>
   <g id="line2d_14">
    <path d="M 497.973818 408.87 
" clip-path="url(#p10fb0031b9)" style="fill: none; stroke: #000000; stroke-width: 1.5; stroke-linecap: square"/>
   </g>
   <g id="line2d_15">
    <path d="M 430.472727 368.1 
L 430.472727 365.382 
L 430.472727 362.664 
L 430.472727 359.946 
L 430.472727 357.228 
L 430.472727 354.51 
L 430.472727 351.792 
L 430.472727 349.074 
L 430.472727 346.356 
L 430.472727 343.638 
L 430.472727 340.92 
L 430.472727 338.202 
L 430.472727 335.484 
L 430.472727 332.766 
L 430.472727 330.048 
L 430.472727 327.33 
L 430.472727 324.612 
L 430.472727 321.894 
L 430.472727 319.176 
L 430.472727 316.458 
" clip-path="url(#p10fb0031b9)" style="fill: none; stroke: #000000; stroke-width: 1.5; stroke-linecap: square"/>
   </g>
   <g id="patch_3">
    <path d="M 72 504 
L 72 69.12 
" style="fill: none; stroke: #000000; stroke-width: 0.8; stroke-linejoin: miter; stroke-linecap: square"/>
   </g>
   <g id="patch_4">
    <path d="M 518.4 504 
L 518.4 69.12 
" style="fill: none; stroke: #000000; stroke-width: 0.8; stroke-linejoin: miter; stroke-linecap: square"/>
   </g>
   <g id="patch_5">
    <path d="M 72 504 
L 518.4 504 
" style="fill: none; stroke: #000000; stroke-width: 0.8; stroke-linejoin: miter; stroke-linecap: square"/>
   </g>
   <g id="patch_6">
    <path d="M 72 69.12 
L 518.4 69.12 
" style="fill: none; stroke: #000000; stroke-width: 0.8; stroke-linejoin: miter; stroke-linecap: square"/>
   </g>
   <g id="text_15">
    <!-- 500 ms -->
    <g transform="translate(497.973818 406.152)scale(0.22 -0.22)">
     <defs>
      <path id="ArialMT-35" d="M 266 1200 
L 856 1250 
Q 922 819 1161 601 
Q 1400 384 1738 384 
Q 2144 384 2425 690 
Q 2706 997 2706 1503 
Q 2706 1984 2436 2262 
Q 2166 2541 1728 2541 
Q 1456 2541 1237 2417 
Q 1019 2294 894 2097 
L 366 2166 
L 809 4519 
L 3088 4519 
L 3088 3981 
L 1259 3981 
L 1013 2750 
Q 1425 3038 1878 3038 
Q 2478 3038 2890 2622 
Q 3303 2206 3303 1553 
Q 3303 931 2941 478 
Q 2500 -78 1738 -78 
Q 1113 -78 717 272 
Q 322 622 266 1200 
z
" transform="scale(0.015625)"/>
      <path id="ArialMT-30" d="M 266 2259 
Q 266 3072 433 3567 
Q 600 4063 929 4331 
Q 1259 4600 1759 4600 
Q 2128 4600 2406 4451 
Q 2684 4303 2865 4023 
Q 3047 3744 3150 3342 
Q 3253 2941 3253 2259 
Q 3253 1453 3087 958 
Q 2922 463 2592 192 
Q 2263 -78 1759 -78 
Q 1097 -78 719 397 
Q 266 969 266 2259 
z
M 844 2259 
Q 844 1131 1108 757 
Q 1372 384 1759 384 
Q 2147 384 2411 759 
Q 2675 1134 2675 2259 
Q 2675 3391 2411 3762 
Q 2147 4134 1753 4134 
Q 1366 4134 1134 3806 
Q 844 3388 844 2259 
z
" transform="scale(0.015625)"/>
     </defs>
     <use xlink:href="#ArialMT-35"/>
     <use xlink:href="#ArialMT-30" x="55.615234"/>
     <use xlink:href="#ArialMT-30" x="111.230469"/>
     <use xlink:href="#ArialMT-20" x="166.845703"/>
     <use xlink:href="#ArialMT-6d" x="194.628906"/>
     <use xlink:href="#ArialMT-73" x="277.929688"/>
    </g>
   </g>
   <g id="text_16">
    <!-- 20 mV -->
    <g transform="translate(504.737455 321.894)scale(0.22 -0.22)">
     <defs>
      <path id="ArialMT-32" d="M 3222 541 
L 3222 0 
L 194 0 
Q 188 203 259 391 
Q 375 700 629 1000 
Q 884 1300 1366 1694 
Q 2113 2306 2375 2664 
Q 2638 3022 2638 3341 
Q 2638 3675 2398 3904 
Q 2159 4134 1775 4134 
Q 1369 4134 1125 3890 
Q 881 3647 878 3216 
L 300 3275 
Q 359 3922 746 4261 
Q 1134 4600 1788 4600 
Q 2447 4600 2831 4234 
Q 3216 3869 3216 3328 
Q 3216 3053 3103 2787 
Q 2991 2522 2730 2228 
Q 2469 1934 1863 1422 
Q 1356 997 1212 845 
Q 1069 694 975 541 
L 3222 541 
z
" transform="scale(0.015625)"/>
     </defs>
     <use xlink:href="#ArialMT-32"/>
     <use xlink:href="#ArialMT-30" x="55.615234"/>
     <use xlink:href="#ArialMT-20" x="111.230469"/>
     <use xlink:href="#ArialMT-6d" x="139.013672"/>
     <use xlink:href="#ArialMT-56" x="222.314453"/>
    </g>
   </g>
   <g id="text_17">
    <!--  Plotting FS, trace number 9168  -->
    <g transform="translate(136.849844 63.12)scale(0.22 -0.22)">
     <defs>
      <path id="ArialMT-50" d="M 494 0 
L 494 4581 
L 2222 4581 
Q 2678 4581 2919 4538 
Q 3256 4481 3484 4323 
Q 3713 4166 3852 3881 
Q 3991 3597 3991 3256 
Q 3991 2672 3619 2267 
Q 3247 1863 2275 1863 
L 1100 1863 
L 1100 0 
L 494 0 
z
M 1100 2403 
L 2284 2403 
Q 2872 2403 3119 2622 
Q 3366 2841 3366 3238 
Q 3366 3525 3220 3729 
Q 3075 3934 2838 4000 
Q 2684 4041 2272 4041 
L 1100 4041 
L 1100 2403 
z
" transform="scale(0.015625)"/>
      <path id="ArialMT-67" d="M 319 -275 
L 866 -356 
Q 900 -609 1056 -725 
Q 1266 -881 1628 -881 
Q 2019 -881 2231 -725 
Q 2444 -569 2519 -288 
Q 2563 -116 2559 434 
Q 2191 0 1641 0 
Q 956 0 581 494 
Q 206 988 206 1678 
Q 206 2153 378 2554 
Q 550 2956 876 3175 
Q 1203 3394 1644 3394 
Q 2231 3394 2613 2919 
L 2613 3319 
L 3131 3319 
L 3131 450 
Q 3131 -325 2973 -648 
Q 2816 -972 2473 -1159 
Q 2131 -1347 1631 -1347 
Q 1038 -1347 672 -1080 
Q 306 -813 319 -275 
z
M 784 1719 
Q 784 1066 1043 766 
Q 1303 466 1694 466 
Q 2081 466 2343 764 
Q 2606 1063 2606 1700 
Q 2606 2309 2336 2618 
Q 2066 2928 1684 2928 
Q 1309 2928 1046 2623 
Q 784 2319 784 1719 
z
" transform="scale(0.015625)"/>
      <path id="ArialMT-46" d="M 525 0 
L 525 4581 
L 3616 4581 
L 3616 4041 
L 1131 4041 
L 1131 2622 
L 3281 2622 
L 3281 2081 
L 1131 2081 
L 1131 0 
L 525 0 
z
" transform="scale(0.015625)"/>
      <path id="ArialMT-53" d="M 288 1472 
L 859 1522 
Q 900 1178 1048 958 
Q 1197 738 1509 602 
Q 1822 466 2213 466 
Q 2559 466 2825 569 
Q 3091 672 3220 851 
Q 3350 1031 3350 1244 
Q 3350 1459 3225 1620 
Q 3100 1781 2813 1891 
Q 2628 1963 1997 2114 
Q 1366 2266 1113 2400 
Q 784 2572 623 2826 
Q 463 3081 463 3397 
Q 463 3744 659 4045 
Q 856 4347 1234 4503 
Q 1613 4659 2075 4659 
Q 2584 4659 2973 4495 
Q 3363 4331 3572 4012 
Q 3781 3694 3797 3291 
L 3216 3247 
Q 3169 3681 2898 3903 
Q 2628 4125 2100 4125 
Q 1550 4125 1298 3923 
Q 1047 3722 1047 3438 
Q 1047 3191 1225 3031 
Q 1400 2872 2139 2705 
Q 2878 2538 3153 2413 
Q 3553 2228 3743 1945 
Q 3934 1663 3934 1294 
Q 3934 928 3725 604 
Q 3516 281 3123 101 
Q 2731 -78 2241 -78 
Q 1619 -78 1198 103 
Q 778 284 539 648 
Q 300 1013 288 1472 
z
" transform="scale(0.015625)"/>
      <path id="ArialMT-2c" d="M 569 0 
L 569 641 
L 1209 641 
L 1209 0 
Q 1209 -353 1084 -570 
Q 959 -788 688 -906 
L 531 -666 
Q 709 -588 793 -436 
Q 878 -284 888 0 
L 569 0 
z
" transform="scale(0.015625)"/>
      <path id="ArialMT-63" d="M 2588 1216 
L 3141 1144 
Q 3050 572 2676 248 
Q 2303 -75 1759 -75 
Q 1078 -75 664 370 
Q 250 816 250 1647 
Q 250 2184 428 2587 
Q 606 2991 970 3192 
Q 1334 3394 1763 3394 
Q 2303 3394 2647 3120 
Q 2991 2847 3088 2344 
L 2541 2259 
Q 2463 2594 2264 2762 
Q 2066 2931 1784 2931 
Q 1359 2931 1093 2626 
Q 828 2322 828 1663 
Q 828 994 1084 691 
Q 1341 388 1753 388 
Q 2084 388 2306 591 
Q 2528 794 2588 1216 
z
" transform="scale(0.015625)"/>
      <path id="ArialMT-75" d="M 2597 0 
L 2597 488 
Q 2209 -75 1544 -75 
Q 1250 -75 995 37 
Q 741 150 617 320 
Q 494 491 444 738 
Q 409 903 409 1263 
L 409 3319 
L 972 3319 
L 972 1478 
Q 972 1038 1006 884 
Q 1059 663 1231 536 
Q 1403 409 1656 409 
Q 1909 409 2131 539 
Q 2353 669 2445 892 
Q 2538 1116 2538 1541 
L 2538 3319 
L 3100 3319 
L 3100 0 
L 2597 0 
z
" transform="scale(0.015625)"/>
      <path id="ArialMT-39" d="M 350 1059 
L 891 1109 
Q 959 728 1153 556 
Q 1347 384 1650 384 
Q 1909 384 2104 503 
Q 2300 622 2425 820 
Q 2550 1019 2634 1356 
Q 2719 1694 2719 2044 
Q 2719 2081 2716 2156 
Q 2547 1888 2255 1720 
Q 1963 1553 1622 1553 
Q 1053 1553 659 1965 
Q 266 2378 266 3053 
Q 266 3750 677 4175 
Q 1088 4600 1706 4600 
Q 2153 4600 2523 4359 
Q 2894 4119 3086 3673 
Q 3278 3228 3278 2384 
Q 3278 1506 3087 986 
Q 2897 466 2520 194 
Q 2144 -78 1638 -78 
Q 1100 -78 759 220 
Q 419 519 350 1059 
z
M 2653 3081 
Q 2653 3566 2395 3850 
Q 2138 4134 1775 4134 
Q 1400 4134 1122 3828 
Q 844 3522 844 3034 
Q 844 2597 1108 2323 
Q 1372 2050 1759 2050 
Q 2150 2050 2401 2323 
Q 2653 2597 2653 3081 
z
" transform="scale(0.015625)"/>
      <path id="ArialMT-31" d="M 2384 0 
L 1822 0 
L 1822 3584 
Q 1619 3391 1289 3197 
Q 959 3003 697 2906 
L 697 3450 
Q 1169 3672 1522 3987 
Q 1875 4303 2022 4600 
L 2384 4600 
L 2384 0 
z
" transform="scale(0.015625)"/>
      <path id="ArialMT-36" d="M 3184 3459 
L 2625 3416 
Q 2550 3747 2413 3897 
Q 2184 4138 1850 4138 
Q 1581 4138 1378 3988 
Q 1113 3794 959 3422 
Q 806 3050 800 2363 
Q 1003 2672 1297 2822 
Q 1591 2972 1913 2972 
Q 2475 2972 2870 2558 
Q 3266 2144 3266 1488 
Q 3266 1056 3080 686 
Q 2894 316 2569 119 
Q 2244 -78 1831 -78 
Q 1128 -78 684 439 
Q 241 956 241 2144 
Q 241 3472 731 4075 
Q 1159 4600 1884 4600 
Q 2425 4600 2770 4297 
Q 3116 3994 3184 3459 
z
M 888 1484 
Q 888 1194 1011 928 
Q 1134 663 1356 523 
Q 1578 384 1822 384 
Q 2178 384 2434 671 
Q 2691 959 2691 1453 
Q 2691 1928 2437 2201 
Q 2184 2475 1800 2475 
Q 1419 2475 1153 2201 
Q 888 1928 888 1484 
z
" transform="scale(0.015625)"/>
      <path id="ArialMT-38" d="M 1131 2484 
Q 781 2613 612 2850 
Q 444 3088 444 3419 
Q 444 3919 803 4259 
Q 1163 4600 1759 4600 
Q 2359 4600 2725 4251 
Q 3091 3903 3091 3403 
Q 3091 3084 2923 2848 
Q 2756 2613 2416 2484 
Q 2838 2347 3058 2040 
Q 3278 1734 3278 1309 
Q 3278 722 2862 322 
Q 2447 -78 1769 -78 
Q 1091 -78 675 323 
Q 259 725 259 1325 
Q 259 1772 486 2073 
Q 713 2375 1131 2484 
z
M 1019 3438 
Q 1019 3113 1228 2906 
Q 1438 2700 1772 2700 
Q 2097 2700 2305 2904 
Q 2513 3109 2513 3406 
Q 2513 3716 2298 3927 
Q 2084 4138 1766 4138 
Q 1444 4138 1231 3931 
Q 1019 3725 1019 3438 
z
M 838 1322 
Q 838 1081 952 856 
Q 1066 631 1291 507 
Q 1516 384 1775 384 
Q 2178 384 2440 643 
Q 2703 903 2703 1303 
Q 2703 1709 2433 1975 
Q 2163 2241 1756 2241 
Q 1359 2241 1098 1978 
Q 838 1716 838 1322 
z
" transform="scale(0.015625)"/>
     </defs>
     <use xlink:href="#ArialMT-20"/>
     <use xlink:href="#ArialMT-50" x="27.783203"/>
     <use xlink:href="#ArialMT-6c" x="94.482422"/>
     <use xlink:href="#ArialMT-6f" x="116.699219"/>
     <use xlink:href="#ArialMT-74" x="172.314453"/>
     <use xlink:href="#ArialMT-74" x="200.097656"/>
     <use xlink:href="#ArialMT-69" x="227.880859"/>
     <use xlink:href="#ArialMT-6e" x="250.097656"/>
     <use xlink:href="#ArialMT-67" x="305.712891"/>
     <use xlink:href="#ArialMT-20" x="361.328125"/>
     <use xlink:href="#ArialMT-46" x="389.111328"/>
     <use xlink:href="#ArialMT-53" x="450.195312"/>
     <use xlink:href="#ArialMT-2c" x="516.894531"/>
     <use xlink:href="#ArialMT-20" x="544.677734"/>
     <use xlink:href="#ArialMT-74" x="572.460938"/>
     <use xlink:href="#ArialMT-72" x="600.244141"/>
     <use xlink:href="#ArialMT-61" x="633.544922"/>
     <use xlink:href="#ArialMT-63" x="689.160156"/>
     <use xlink:href="#ArialMT-65" x="739.160156"/>
     <use xlink:href="#ArialMT-20" x="794.775391"/>
     <use xlink:href="#ArialMT-6e" x="822.558594"/>
     <use xlink:href="#ArialMT-75" x="878.173828"/>
     <use xlink:href="#ArialMT-6d" x="933.789062"/>
     <use xlink:href="#ArialMT-62" x="1017.089844"/>
     <use xlink:href="#ArialMT-65" x="1072.705078"/>
     <use xlink:href="#ArialMT-72" x="1128.320312"/>
     <use xlink:href="#ArialMT-20" x="1161.621094"/>
     <use xlink:href="#ArialMT-39" x="1189.404297"/>
     <use xlink:href="#ArialMT-31" x="1245.019531"/>
     <use xlink:href="#ArialMT-36" x="1300.634766"/>
     <use xlink:href="#ArialMT-38" x="1356.25"/>
     <use xlink:href="#ArialMT-20" x="1411.865234"/>
    </g>
   </g>
  </g>
 </g>
 <defs>
  <clipPath id="p10fb0031b9">
   <rect x="72" y="69.12" width="446.4" height="434.88"/>
  </clipPath>
 </defs>
</svg>
