<?xml version="1.0" encoding="utf-8" standalone="no"?>
<!DOCTYPE svg PUBLIC "-//W3C//DTD SVG 1.1//EN"
  "http://www.w3.org/Graphics/SVG/1.1/DTD/svg11.dtd">
<svg xmlns:xlink="http://www.w3.org/1999/xlink" width="576pt" height="576pt" viewBox="0 0 576 576" xmlns="http://www.w3.org/2000/svg" version="1.1">
 <metadata>
  <rdf:RDF xmlns:dc="http://purl.org/dc/elements/1.1/" xmlns:cc="http://creativecommons.org/ns#" xmlns:rdf="http://www.w3.org/1999/02/22-rdf-syntax-ns#">
   <cc:Work>
    <dc:type rdf:resource="http://purl.org/dc/dcmitype/StillImage"/>
    <dc:date>2022-10-30T19:57:16.122966</dc:date>
    <dc:format>image/svg+xml</dc:format>
    <dc:creator>
     <cc:Agent>
      <dc:title>Matplotlib v3.5.2, https://matplotlib.org/</dc:title>
     </cc:Agent>
    </dc:creator>
   </cc:Work>
  </rdf:RDF>
 </metadata>
 <defs>
  <style type="text/css">*{stroke-linejoin: round; stroke-linecap: butt}</style>
 </defs>
 <g id="figure_1">
  <g id="patch_1">
   <path d="M 0 576 
L 576 576 
L 576 0 
L 0 0 
L 0 576 
z
" style="fill: none"/>
  </g>
  <g id="axes_1">
   <g id="patch_2">
    <path d="M 72 504 
L 518.4 504 
L 518.4 69.12 
L 72 69.12 
z
" style="fill: #ffffff"/>
   </g>
   <g id="matplotlib.axis_1">
    <g id="xtick_1">
     <g id="line2d_1">
      <defs>
       <path id="m30cea333fe" d="M 0 0 
L 0 3.5 
" style="stroke: #000000; stroke-width: 0.8"/>
      </defs>
      <g>
       <use xlink:href="#m30cea333fe" x="92.290909" y="504" style="stroke: #000000; stroke-width: 0.8"/>
      </g>
     </g>
     <g id="text_1">
      <!-- 0 -->
      <g transform="translate(85.292159 527.716563)scale(0.22 -0.22)">
       <defs>
        <path id="DejaVuSans-30" d="M 2034 4250 
Q 1547 4250 1301 3770 
Q 1056 3291 1056 2328 
Q 1056 1369 1301 889 
Q 1547 409 2034 409 
Q 2525 409 2770 889 
Q 3016 1369 3016 2328 
Q 3016 3291 2770 3770 
Q 2525 4250 2034 4250 
z
M 2034 4750 
Q 2819 4750 3233 4129 
Q 3647 3509 3647 2328 
Q 3647 1150 3233 529 
Q 2819 -91 2034 -91 
Q 1250 -91 836 529 
Q 422 1150 422 2328 
Q 422 3509 836 4129 
Q 1250 4750 2034 4750 
z
" transform="scale(0.015625)"/>
       </defs>
       <use xlink:href="#DejaVuSans-30"/>
      </g>
     </g>
    </g>
    <g id="xtick_2">
     <g id="line2d_2">
      <g>
       <use xlink:href="#m30cea333fe" x="227.563636" y="504" style="stroke: #000000; stroke-width: 0.8"/>
      </g>
     </g>
     <g id="text_2">
      <!-- 1000 -->
      <g transform="translate(199.568636 527.716563)scale(0.22 -0.22)">
       <defs>
        <path id="DejaVuSans-31" d="M 794 531 
L 1825 531 
L 1825 4091 
L 703 3866 
L 703 4441 
L 1819 4666 
L 2450 4666 
L 2450 531 
L 3481 531 
L 3481 0 
L 794 0 
L 794 531 
z
" transform="scale(0.015625)"/>
       </defs>
       <use xlink:href="#DejaVuSans-31"/>
       <use xlink:href="#DejaVuSans-30" x="63.623047"/>
       <use xlink:href="#DejaVuSans-30" x="127.246094"/>
       <use xlink:href="#DejaVuSans-30" x="190.869141"/>
      </g>
     </g>
    </g>
    <g id="xtick_3">
     <g id="line2d_3">
      <g>
       <use xlink:href="#m30cea333fe" x="362.836364" y="504" style="stroke: #000000; stroke-width: 0.8"/>
      </g>
     </g>
     <g id="text_3">
      <!-- 2000 -->
      <g transform="translate(334.841364 527.716563)scale(0.22 -0.22)">
       <defs>
        <path id="DejaVuSans-32" d="M 1228 531 
L 3431 531 
L 3431 0 
L 469 0 
L 469 531 
Q 828 903 1448 1529 
Q 2069 2156 2228 2338 
Q 2531 2678 2651 2914 
Q 2772 3150 2772 3378 
Q 2772 3750 2511 3984 
Q 2250 4219 1831 4219 
Q 1534 4219 1204 4116 
Q 875 4013 500 3803 
L 500 4441 
Q 881 4594 1212 4672 
Q 1544 4750 1819 4750 
Q 2544 4750 2975 4387 
Q 3406 4025 3406 3419 
Q 3406 3131 3298 2873 
Q 3191 2616 2906 2266 
Q 2828 2175 2409 1742 
Q 1991 1309 1228 531 
z
" transform="scale(0.015625)"/>
       </defs>
       <use xlink:href="#DejaVuSans-32"/>
       <use xlink:href="#DejaVuSans-30" x="63.623047"/>
       <use xlink:href="#DejaVuSans-30" x="127.246094"/>
       <use xlink:href="#DejaVuSans-30" x="190.869141"/>
      </g>
     </g>
    </g>
    <g id="xtick_4">
     <g id="line2d_4">
      <g>
       <use xlink:href="#m30cea333fe" x="498.109091" y="504" style="stroke: #000000; stroke-width: 0.8"/>
      </g>
     </g>
     <g id="text_4">
      <!-- 3000 -->
      <g transform="translate(470.114091 527.716563)scale(0.22 -0.22)">
       <defs>
        <path id="DejaVuSans-33" d="M 2597 2516 
Q 3050 2419 3304 2112 
Q 3559 1806 3559 1356 
Q 3559 666 3084 287 
Q 2609 -91 1734 -91 
Q 1441 -91 1130 -33 
Q 819 25 488 141 
L 488 750 
Q 750 597 1062 519 
Q 1375 441 1716 441 
Q 2309 441 2620 675 
Q 2931 909 2931 1356 
Q 2931 1769 2642 2001 
Q 2353 2234 1838 2234 
L 1294 2234 
L 1294 2753 
L 1863 2753 
Q 2328 2753 2575 2939 
Q 2822 3125 2822 3475 
Q 2822 3834 2567 4026 
Q 2313 4219 1838 4219 
Q 1578 4219 1281 4162 
Q 984 4106 628 3988 
L 628 4550 
Q 988 4650 1302 4700 
Q 1616 4750 1894 4750 
Q 2613 4750 3031 4423 
Q 3450 4097 3450 3541 
Q 3450 3153 3228 2886 
Q 3006 2619 2597 2516 
z
" transform="scale(0.015625)"/>
       </defs>
       <use xlink:href="#DejaVuSans-33"/>
       <use xlink:href="#DejaVuSans-30" x="63.623047"/>
       <use xlink:href="#DejaVuSans-30" x="127.246094"/>
       <use xlink:href="#DejaVuSans-30" x="190.869141"/>
      </g>
     </g>
    </g>
    <g id="text_5">
     <!-- Time(ms) -->
     <g transform="translate(249.182187 552.307188)scale(0.22 -0.22)">
      <defs>
       <path id="ArialMT-54" d="M 1659 0 
L 1659 4041 
L 150 4041 
L 150 4581 
L 3781 4581 
L 3781 4041 
L 2266 4041 
L 2266 0 
L 1659 0 
z
" transform="scale(0.015625)"/>
       <path id="ArialMT-69" d="M 425 3934 
L 425 4581 
L 988 4581 
L 988 3934 
L 425 3934 
z
M 425 0 
L 425 3319 
L 988 3319 
L 988 0 
L 425 0 
z
" transform="scale(0.015625)"/>
       <path id="ArialMT-6d" d="M 422 0 
L 422 3319 
L 925 3319 
L 925 2853 
Q 1081 3097 1340 3245 
Q 1600 3394 1931 3394 
Q 2300 3394 2536 3241 
Q 2772 3088 2869 2813 
Q 3263 3394 3894 3394 
Q 4388 3394 4653 3120 
Q 4919 2847 4919 2278 
L 4919 0 
L 4359 0 
L 4359 2091 
Q 4359 2428 4304 2576 
Q 4250 2725 4106 2815 
Q 3963 2906 3769 2906 
Q 3419 2906 3187 2673 
Q 2956 2441 2956 1928 
L 2956 0 
L 2394 0 
L 2394 2156 
Q 2394 2531 2256 2718 
Q 2119 2906 1806 2906 
Q 1569 2906 1367 2781 
Q 1166 2656 1075 2415 
Q 984 2175 984 1722 
L 984 0 
L 422 0 
z
" transform="scale(0.015625)"/>
       <path id="ArialMT-65" d="M 2694 1069 
L 3275 997 
Q 3138 488 2766 206 
Q 2394 -75 1816 -75 
Q 1088 -75 661 373 
Q 234 822 234 1631 
Q 234 2469 665 2931 
Q 1097 3394 1784 3394 
Q 2450 3394 2872 2941 
Q 3294 2488 3294 1666 
Q 3294 1616 3291 1516 
L 816 1516 
Q 847 969 1125 678 
Q 1403 388 1819 388 
Q 2128 388 2347 550 
Q 2566 713 2694 1069 
z
M 847 1978 
L 2700 1978 
Q 2663 2397 2488 2606 
Q 2219 2931 1791 2931 
Q 1403 2931 1139 2672 
Q 875 2413 847 1978 
z
" transform="scale(0.015625)"/>
       <path id="ArialMT-28" d="M 1497 -1347 
Q 1031 -759 709 28 
Q 388 816 388 1659 
Q 388 2403 628 3084 
Q 909 3875 1497 4659 
L 1900 4659 
Q 1522 4009 1400 3731 
Q 1209 3300 1100 2831 
Q 966 2247 966 1656 
Q 966 153 1900 -1347 
L 1497 -1347 
z
" transform="scale(0.015625)"/>
       <path id="ArialMT-73" d="M 197 991 
L 753 1078 
Q 800 744 1014 566 
Q 1228 388 1613 388 
Q 2000 388 2187 545 
Q 2375 703 2375 916 
Q 2375 1106 2209 1216 
Q 2094 1291 1634 1406 
Q 1016 1563 777 1677 
Q 538 1791 414 1992 
Q 291 2194 291 2438 
Q 291 2659 392 2848 
Q 494 3038 669 3163 
Q 800 3259 1026 3326 
Q 1253 3394 1513 3394 
Q 1903 3394 2198 3281 
Q 2494 3169 2634 2976 
Q 2775 2784 2828 2463 
L 2278 2388 
Q 2241 2644 2061 2787 
Q 1881 2931 1553 2931 
Q 1166 2931 1000 2803 
Q 834 2675 834 2503 
Q 834 2394 903 2306 
Q 972 2216 1119 2156 
Q 1203 2125 1616 2013 
Q 2213 1853 2448 1751 
Q 2684 1650 2818 1456 
Q 2953 1263 2953 975 
Q 2953 694 2789 445 
Q 2625 197 2315 61 
Q 2006 -75 1616 -75 
Q 969 -75 630 194 
Q 291 463 197 991 
z
" transform="scale(0.015625)"/>
       <path id="ArialMT-29" d="M 791 -1347 
L 388 -1347 
Q 1322 153 1322 1656 
Q 1322 2244 1188 2822 
Q 1081 3291 891 3722 
Q 769 4003 388 4659 
L 791 4659 
Q 1378 3875 1659 3084 
Q 1900 2403 1900 1659 
Q 1900 816 1576 28 
Q 1253 -759 791 -1347 
z
" transform="scale(0.015625)"/>
      </defs>
      <use xlink:href="#ArialMT-54"/>
      <use xlink:href="#ArialMT-69" x="57.333984"/>
      <use xlink:href="#ArialMT-6d" x="79.550781"/>
      <use xlink:href="#ArialMT-65" x="162.851562"/>
      <use xlink:href="#ArialMT-28" x="218.466797"/>
      <use xlink:href="#ArialMT-6d" x="251.767578"/>
      <use xlink:href="#ArialMT-73" x="335.068359"/>
      <use xlink:href="#ArialMT-29" x="385.068359"/>
     </g>
    </g>
   </g>
   <g id="matplotlib.axis_2">
    <g id="ytick_1">
     <g id="line2d_5">
      <defs>
       <path id="m8bba60494f" d="M 0 0 
L -3.5 0 
" style="stroke: #000000; stroke-width: 0.8"/>
      </defs>
      <g>
       <use xlink:href="#m8bba60494f" x="72" y="476.82" style="stroke: #000000; stroke-width: 0.8"/>
      </g>
     </g>
     <g id="text_6">
      <!-- −100 -->
      <g transform="translate(4.572187 485.178281)scale(0.22 -0.22)">
       <defs>
        <path id="DejaVuSans-2212" d="M 678 2272 
L 4684 2272 
L 4684 1741 
L 678 1741 
L 678 2272 
z
" transform="scale(0.015625)"/>
       </defs>
       <use xlink:href="#DejaVuSans-2212"/>
       <use xlink:href="#DejaVuSans-31" x="83.789062"/>
       <use xlink:href="#DejaVuSans-30" x="147.412109"/>
       <use xlink:href="#DejaVuSans-30" x="211.035156"/>
      </g>
     </g>
    </g>
    <g id="ytick_2">
     <g id="line2d_6">
      <g>
       <use xlink:href="#m8bba60494f" x="72" y="422.46" style="stroke: #000000; stroke-width: 0.8"/>
      </g>
     </g>
     <g id="text_7">
      <!-- −80 -->
      <g transform="translate(18.569688 430.818281)scale(0.22 -0.22)">
       <defs>
        <path id="DejaVuSans-38" d="M 2034 2216 
Q 1584 2216 1326 1975 
Q 1069 1734 1069 1313 
Q 1069 891 1326 650 
Q 1584 409 2034 409 
Q 2484 409 2743 651 
Q 3003 894 3003 1313 
Q 3003 1734 2745 1975 
Q 2488 2216 2034 2216 
z
M 1403 2484 
Q 997 2584 770 2862 
Q 544 3141 544 3541 
Q 544 4100 942 4425 
Q 1341 4750 2034 4750 
Q 2731 4750 3128 4425 
Q 3525 4100 3525 3541 
Q 3525 3141 3298 2862 
Q 3072 2584 2669 2484 
Q 3125 2378 3379 2068 
Q 3634 1759 3634 1313 
Q 3634 634 3220 271 
Q 2806 -91 2034 -91 
Q 1263 -91 848 271 
Q 434 634 434 1313 
Q 434 1759 690 2068 
Q 947 2378 1403 2484 
z
M 1172 3481 
Q 1172 3119 1398 2916 
Q 1625 2713 2034 2713 
Q 2441 2713 2670 2916 
Q 2900 3119 2900 3481 
Q 2900 3844 2670 4047 
Q 2441 4250 2034 4250 
Q 1625 4250 1398 4047 
Q 1172 3844 1172 3481 
z
" transform="scale(0.015625)"/>
       </defs>
       <use xlink:href="#DejaVuSans-2212"/>
       <use xlink:href="#DejaVuSans-38" x="83.789062"/>
       <use xlink:href="#DejaVuSans-30" x="147.412109"/>
      </g>
     </g>
    </g>
    <g id="ytick_3">
     <g id="line2d_7">
      <g>
       <use xlink:href="#m8bba60494f" x="72" y="368.1" style="stroke: #000000; stroke-width: 0.8"/>
      </g>
     </g>
     <g id="text_8">
      <!-- −60 -->
      <g transform="translate(18.569688 376.458281)scale(0.22 -0.22)">
       <defs>
        <path id="DejaVuSans-36" d="M 2113 2584 
Q 1688 2584 1439 2293 
Q 1191 2003 1191 1497 
Q 1191 994 1439 701 
Q 1688 409 2113 409 
Q 2538 409 2786 701 
Q 3034 994 3034 1497 
Q 3034 2003 2786 2293 
Q 2538 2584 2113 2584 
z
M 3366 4563 
L 3366 3988 
Q 3128 4100 2886 4159 
Q 2644 4219 2406 4219 
Q 1781 4219 1451 3797 
Q 1122 3375 1075 2522 
Q 1259 2794 1537 2939 
Q 1816 3084 2150 3084 
Q 2853 3084 3261 2657 
Q 3669 2231 3669 1497 
Q 3669 778 3244 343 
Q 2819 -91 2113 -91 
Q 1303 -91 875 529 
Q 447 1150 447 2328 
Q 447 3434 972 4092 
Q 1497 4750 2381 4750 
Q 2619 4750 2861 4703 
Q 3103 4656 3366 4563 
z
" transform="scale(0.015625)"/>
       </defs>
       <use xlink:href="#DejaVuSans-2212"/>
       <use xlink:href="#DejaVuSans-36" x="83.789062"/>
       <use xlink:href="#DejaVuSans-30" x="147.412109"/>
      </g>
     </g>
    </g>
    <g id="ytick_4">
     <g id="line2d_8">
      <g>
       <use xlink:href="#m8bba60494f" x="72" y="313.74" style="stroke: #000000; stroke-width: 0.8"/>
      </g>
     </g>
     <g id="text_9">
      <!-- −40 -->
      <g transform="translate(18.569688 322.098281)scale(0.22 -0.22)">
       <defs>
        <path id="DejaVuSans-34" d="M 2419 4116 
L 825 1625 
L 2419 1625 
L 2419 4116 
z
M 2253 4666 
L 3047 4666 
L 3047 1625 
L 3713 1625 
L 3713 1100 
L 3047 1100 
L 3047 0 
L 2419 0 
L 2419 1100 
L 313 1100 
L 313 1709 
L 2253 4666 
z
" transform="scale(0.015625)"/>
       </defs>
       <use xlink:href="#DejaVuSans-2212"/>
       <use xlink:href="#DejaVuSans-34" x="83.789062"/>
       <use xlink:href="#DejaVuSans-30" x="147.412109"/>
      </g>
     </g>
    </g>
    <g id="ytick_5">
     <g id="line2d_9">
      <g>
       <use xlink:href="#m8bba60494f" x="72" y="259.38" style="stroke: #000000; stroke-width: 0.8"/>
      </g>
     </g>
     <g id="text_10">
      <!-- −20 -->
      <g transform="translate(18.569688 267.738281)scale(0.22 -0.22)">
       <use xlink:href="#DejaVuSans-2212"/>
       <use xlink:href="#DejaVuSans-32" x="83.789062"/>
       <use xlink:href="#DejaVuSans-30" x="147.412109"/>
      </g>
     </g>
    </g>
    <g id="ytick_6">
     <g id="line2d_10">
      <g>
       <use xlink:href="#m8bba60494f" x="72" y="205.02" style="stroke: #000000; stroke-width: 0.8"/>
      </g>
     </g>
     <g id="text_11">
      <!-- 0 -->
      <g transform="translate(51.0025 213.378281)scale(0.22 -0.22)">
       <use xlink:href="#DejaVuSans-30"/>
      </g>
     </g>
    </g>
    <g id="ytick_7">
     <g id="line2d_11">
      <g>
       <use xlink:href="#m8bba60494f" x="72" y="150.66" style="stroke: #000000; stroke-width: 0.8"/>
      </g>
     </g>
     <g id="text_12">
      <!-- 20 -->
      <g transform="translate(37.005 159.018281)scale(0.22 -0.22)">
       <use xlink:href="#DejaVuSans-32"/>
       <use xlink:href="#DejaVuSans-30" x="63.623047"/>
      </g>
     </g>
    </g>
    <g id="ytick_8">
     <g id="line2d_12">
      <g>
       <use xlink:href="#m8bba60494f" x="72" y="96.3" style="stroke: #000000; stroke-width: 0.8"/>
      </g>
     </g>
     <g id="text_13">
      <!-- 40 -->
      <g transform="translate(37.005 104.658281)scale(0.22 -0.22)">
       <use xlink:href="#DejaVuSans-34"/>
       <use xlink:href="#DejaVuSans-30" x="63.623047"/>
      </g>
     </g>
    </g>
    <g id="text_14">
     <!-- Membrane potential (mV) -->
     <g transform="translate(-4.058125 410.655469)rotate(-90)scale(0.22 -0.22)">
      <defs>
       <path id="ArialMT-4d" d="M 475 0 
L 475 4581 
L 1388 4581 
L 2472 1338 
Q 2622 884 2691 659 
Q 2769 909 2934 1394 
L 4031 4581 
L 4847 4581 
L 4847 0 
L 4263 0 
L 4263 3834 
L 2931 0 
L 2384 0 
L 1059 3900 
L 1059 0 
L 475 0 
z
" transform="scale(0.015625)"/>
       <path id="ArialMT-62" d="M 941 0 
L 419 0 
L 419 4581 
L 981 4581 
L 981 2947 
Q 1338 3394 1891 3394 
Q 2197 3394 2470 3270 
Q 2744 3147 2920 2923 
Q 3097 2700 3197 2384 
Q 3297 2069 3297 1709 
Q 3297 856 2875 390 
Q 2453 -75 1863 -75 
Q 1275 -75 941 416 
L 941 0 
z
M 934 1684 
Q 934 1088 1097 822 
Q 1363 388 1816 388 
Q 2184 388 2453 708 
Q 2722 1028 2722 1663 
Q 2722 2313 2464 2622 
Q 2206 2931 1841 2931 
Q 1472 2931 1203 2611 
Q 934 2291 934 1684 
z
" transform="scale(0.015625)"/>
       <path id="ArialMT-72" d="M 416 0 
L 416 3319 
L 922 3319 
L 922 2816 
Q 1116 3169 1280 3281 
Q 1444 3394 1641 3394 
Q 1925 3394 2219 3213 
L 2025 2691 
Q 1819 2813 1613 2813 
Q 1428 2813 1281 2702 
Q 1134 2591 1072 2394 
Q 978 2094 978 1738 
L 978 0 
L 416 0 
z
" transform="scale(0.015625)"/>
       <path id="ArialMT-61" d="M 2588 409 
Q 2275 144 1986 34 
Q 1697 -75 1366 -75 
Q 819 -75 525 192 
Q 231 459 231 875 
Q 231 1119 342 1320 
Q 453 1522 633 1644 
Q 813 1766 1038 1828 
Q 1203 1872 1538 1913 
Q 2219 1994 2541 2106 
Q 2544 2222 2544 2253 
Q 2544 2597 2384 2738 
Q 2169 2928 1744 2928 
Q 1347 2928 1158 2789 
Q 969 2650 878 2297 
L 328 2372 
Q 403 2725 575 2942 
Q 747 3159 1072 3276 
Q 1397 3394 1825 3394 
Q 2250 3394 2515 3294 
Q 2781 3194 2906 3042 
Q 3031 2891 3081 2659 
Q 3109 2516 3109 2141 
L 3109 1391 
Q 3109 606 3145 398 
Q 3181 191 3288 0 
L 2700 0 
Q 2613 175 2588 409 
z
M 2541 1666 
Q 2234 1541 1622 1453 
Q 1275 1403 1131 1340 
Q 988 1278 909 1158 
Q 831 1038 831 891 
Q 831 666 1001 516 
Q 1172 366 1500 366 
Q 1825 366 2078 508 
Q 2331 650 2450 897 
Q 2541 1088 2541 1459 
L 2541 1666 
z
" transform="scale(0.015625)"/>
       <path id="ArialMT-6e" d="M 422 0 
L 422 3319 
L 928 3319 
L 928 2847 
Q 1294 3394 1984 3394 
Q 2284 3394 2536 3286 
Q 2788 3178 2913 3003 
Q 3038 2828 3088 2588 
Q 3119 2431 3119 2041 
L 3119 0 
L 2556 0 
L 2556 2019 
Q 2556 2363 2490 2533 
Q 2425 2703 2258 2804 
Q 2091 2906 1866 2906 
Q 1506 2906 1245 2678 
Q 984 2450 984 1813 
L 984 0 
L 422 0 
z
" transform="scale(0.015625)"/>
       <path id="ArialMT-20" transform="scale(0.015625)"/>
       <path id="ArialMT-70" d="M 422 -1272 
L 422 3319 
L 934 3319 
L 934 2888 
Q 1116 3141 1344 3267 
Q 1572 3394 1897 3394 
Q 2322 3394 2647 3175 
Q 2972 2956 3137 2557 
Q 3303 2159 3303 1684 
Q 3303 1175 3120 767 
Q 2938 359 2589 142 
Q 2241 -75 1856 -75 
Q 1575 -75 1351 44 
Q 1128 163 984 344 
L 984 -1272 
L 422 -1272 
z
M 931 1641 
Q 931 1000 1190 694 
Q 1450 388 1819 388 
Q 2194 388 2461 705 
Q 2728 1022 2728 1688 
Q 2728 2322 2467 2637 
Q 2206 2953 1844 2953 
Q 1484 2953 1207 2617 
Q 931 2281 931 1641 
z
" transform="scale(0.015625)"/>
       <path id="ArialMT-6f" d="M 213 1659 
Q 213 2581 725 3025 
Q 1153 3394 1769 3394 
Q 2453 3394 2887 2945 
Q 3322 2497 3322 1706 
Q 3322 1066 3130 698 
Q 2938 331 2570 128 
Q 2203 -75 1769 -75 
Q 1072 -75 642 372 
Q 213 819 213 1659 
z
M 791 1659 
Q 791 1022 1069 705 
Q 1347 388 1769 388 
Q 2188 388 2466 706 
Q 2744 1025 2744 1678 
Q 2744 2294 2464 2611 
Q 2184 2928 1769 2928 
Q 1347 2928 1069 2612 
Q 791 2297 791 1659 
z
" transform="scale(0.015625)"/>
       <path id="ArialMT-74" d="M 1650 503 
L 1731 6 
Q 1494 -44 1306 -44 
Q 1000 -44 831 53 
Q 663 150 594 308 
Q 525 466 525 972 
L 525 2881 
L 113 2881 
L 113 3319 
L 525 3319 
L 525 4141 
L 1084 4478 
L 1084 3319 
L 1650 3319 
L 1650 2881 
L 1084 2881 
L 1084 941 
Q 1084 700 1114 631 
Q 1144 563 1211 522 
Q 1278 481 1403 481 
Q 1497 481 1650 503 
z
" transform="scale(0.015625)"/>
       <path id="ArialMT-6c" d="M 409 0 
L 409 4581 
L 972 4581 
L 972 0 
L 409 0 
z
" transform="scale(0.015625)"/>
       <path id="ArialMT-56" d="M 1803 0 
L 28 4581 
L 684 4581 
L 1875 1253 
Q 2019 853 2116 503 
Q 2222 878 2363 1253 
L 3600 4581 
L 4219 4581 
L 2425 0 
L 1803 0 
z
" transform="scale(0.015625)"/>
      </defs>
      <use xlink:href="#ArialMT-4d"/>
      <use xlink:href="#ArialMT-65" x="83.300781"/>
      <use xlink:href="#ArialMT-6d" x="138.916016"/>
      <use xlink:href="#ArialMT-62" x="222.216797"/>
      <use xlink:href="#ArialMT-72" x="277.832031"/>
      <use xlink:href="#ArialMT-61" x="311.132812"/>
      <use xlink:href="#ArialMT-6e" x="366.748047"/>
      <use xlink:href="#ArialMT-65" x="422.363281"/>
      <use xlink:href="#ArialMT-20" x="477.978516"/>
      <use xlink:href="#ArialMT-70" x="505.761719"/>
      <use xlink:href="#ArialMT-6f" x="561.376953"/>
      <use xlink:href="#ArialMT-74" x="616.992188"/>
      <use xlink:href="#ArialMT-65" x="644.775391"/>
      <use xlink:href="#ArialMT-6e" x="700.390625"/>
      <use xlink:href="#ArialMT-74" x="756.005859"/>
      <use xlink:href="#ArialMT-69" x="783.789062"/>
      <use xlink:href="#ArialMT-61" x="806.005859"/>
      <use xlink:href="#ArialMT-6c" x="861.621094"/>
      <use xlink:href="#ArialMT-20" x="883.837891"/>
      <use xlink:href="#ArialMT-28" x="911.621094"/>
      <use xlink:href="#ArialMT-6d" x="944.921875"/>
      <use xlink:href="#ArialMT-56" x="1028.222656"/>
      <use xlink:href="#ArialMT-29" x="1094.921875"/>
     </g>
    </g>
   </g>
   <g id="line2d_13">
    <path d="M 92.290909 436.05 
L 92.561455 441.765234 
L 92.967273 445.566345 
L 93.440727 448.14095 
L 93.914182 449.656104 
L 94.455273 450.639701 
L 94.996364 451.171098 
L 95.672727 451.504958 
L 96.619636 451.695023 
L 98.445818 451.783676 
L 106.832727 451.798587 
L 159.927273 451.798855 
L 160.197818 433.673469 
L 160.603636 421.939533 
L 161.144727 412.957208 
L 161.753455 406.465006 
L 162.497455 400.896105 
L 163.309091 396.436265 
L 164.188364 392.758186 
L 165.202909 389.473532 
L 166.285091 386.723428 
L 167.502545 384.256405 
L 168.787636 382.144338 
L 170.275636 380.125709 
L 172.034182 378.123978 
L 174.401455 375.792841 
L 178.256727 372.031582 
L 179.406545 370.589787 
L 180.150545 369.347843 
L 180.556364 368.309763 
L 180.826909 366.977891 
L 181.029818 367.363327 
L 181.232727 367.665749 
L 181.503273 366.905227 
L 181.570909 366.949329 
L 182.450182 368.273999 
L 182.856 368.297698 
L 183.464727 368.086493 
L 184.344 367.526695 
L 185.155636 366.762571 
L 185.832 365.83876 
L 186.373091 364.746076 
L 186.576 364.073095 
L 186.778909 364.793261 
L 187.117091 365.933548 
L 187.387636 366.181884 
L 187.590545 366.077927 
L 187.793455 365.742121 
L 188.199273 364.059726 
L 188.266909 364.086018 
L 188.875636 364.575911 
L 189.213818 364.47585 
L 189.687273 364.075626 
L 190.363636 363.184619 
L 190.904727 362.185185 
L 191.175273 361.306065 
L 191.445818 359.944629 
L 191.648727 360.47142 
L 191.986909 361.265909 
L 192.257455 361.628852 
L 192.663273 362.253318 
L 192.933818 362.249002 
L 193.204364 361.953048 
L 193.407273 361.507684 
L 193.610182 360.171419 
L 193.813091 359.387248 
L 194.016 359.335817 
L 194.421818 359.383125 
L 194.692364 359.143902 
L 195.165818 358.364404 
L 195.842182 356.65345 
L 196.518545 354.548659 
L 196.789091 352.8766 
L 196.924364 353.055992 
L 197.736 355.072627 
L 197.871273 355.037993 
L 198.074182 354.68253 
L 198.344727 353.587536 
L 199.562182 341.903967 
L 199.832727 334.328235 
L 200.035636 318.741912 
L 200.103273 303.987814 
L 200.238545 228.469026 
L 200.441455 344.129304 
L 200.644364 359.930971 
L 200.847273 362.878392 
L 200.982545 363.014908 
L 201.117818 362.485557 
L 201.320727 361.244859 
L 201.456 361.270263 
L 201.997091 362.177986 
L 202.267636 362.04614 
L 202.402909 361.87004 
L 202.673455 361.161436 
L 202.876364 360.214453 
L 203.011636 360.260719 
L 203.823273 361.817819 
L 204.973091 362.2111 
L 205.311273 361.893099 
L 205.717091 361.131939 
L 205.987636 360.287648 
L 206.258182 358.604392 
L 206.325818 358.702873 
L 207.069818 362.020566 
L 207.272727 362.025197 
L 207.475636 361.94973 
L 207.813818 360.817458 
L 207.881455 360.852102 
L 208.422545 361.381081 
L 208.625455 361.26158 
L 208.896 360.841526 
L 209.301818 359.714152 
L 209.572364 358.312435 
L 209.910545 356.115287 
L 210.451636 354.606307 
L 210.857455 352.944847 
L 211.128 351.129234 
L 212.007273 340.166677 
L 212.277818 333.142147 
L 212.480727 320.689036 
L 212.616 286.769828 
L 212.683636 211.922005 
L 212.886545 331.357364 
L 213.089455 351.689252 
L 213.36 358.022879 
L 213.630545 359.427576 
L 213.968727 360.012065 
L 214.442182 360.416008 
L 214.780364 360.435159 
L 215.118545 360.184941 
L 215.456727 359.605892 
L 215.659636 358.879909 
L 215.930182 357.280067 
L 216.065455 357.293022 
L 216.200727 357.272594 
L 216.538909 356.177746 
L 216.741818 356.368455 
L 217.08 356.709369 
L 217.350545 356.691282 
L 217.688727 356.37002 
L 217.891636 356.168301 
L 218.500364 356.307289 
L 218.770909 355.978683 
L 219.109091 355.187486 
L 219.514909 353.606034 
L 219.920727 351.021199 
L 220.258909 347.477122 
L 220.461818 343.68735 
L 220.732364 332.549789 
L 220.867636 319.682585 
L 220.935273 305.204376 
L 221.070545 225.720493 
L 221.273455 350.218774 
L 221.476364 367.488063 
L 221.679273 370.055191 
L 221.814545 370.050184 
L 222.693818 368.942018 
L 222.964364 368.837441 
L 223.370182 368.80167 
L 223.708364 368.50124 
L 224.181818 367.758097 
L 224.722909 366.496543 
L 224.925818 365.770153 
L 225.264 363.714022 
L 225.534545 363.464698 
L 225.669818 363.305057 
L 226.008 362.112206 
L 226.075636 362.235347 
L 226.616727 363.491863 
L 226.887273 363.617632 
L 227.225455 363.472788 
L 227.969455 363.005675 
L 228.24 362.898053 
L 228.578182 362.479371 
L 229.051636 361.393657 
L 229.525091 359.780952 
L 229.795636 358.225628 
L 230.066182 356.487121 
L 230.810182 354.045641 
L 231.148364 351.442663 
L 231.757091 350.014274 
L 232.027636 348.922659 
L 232.365818 348.301144 
L 232.636364 346.905848 
L 233.042182 343.938336 
L 233.245091 340.784048 
L 233.448 334.584166 
L 233.583273 326.366227 
L 233.718545 303.485253 
L 233.853818 231.490276 
L 234.056727 344.419692 
L 234.259636 359.454298 
L 234.462545 362.231551 
L 234.597818 362.372948 
L 234.800727 361.833562 
L 235.341818 359.432343 
L 235.68 357.160579 
L 235.882909 357.138679 
L 236.085818 357.130058 
L 236.288727 356.84653 
L 236.559273 356.012479 
L 237.032727 353.55896 
L 237.506182 350.212641 
L 237.776727 346.549881 
L 238.250182 334.982307 
L 238.453091 324.567012 
L 238.588364 303.836246 
L 238.723636 226.63816 
L 238.926545 337.044116 
L 239.129455 352.892467 
L 239.332364 356.228027 
L 239.467636 356.454633 
L 239.602909 356.074861 
L 239.941091 354.123172 
L 240.144 352.165595 
L 240.414545 349.645815 
L 240.955636 346.9391 
L 241.226182 343.459 
L 241.496727 334.588013 
L 241.699636 318.628632 
L 241.767273 304.004413 
L 241.902545 228.45595 
L 242.105455 344.325029 
L 242.308364 360.384054 
L 242.511273 363.65451 
L 242.714182 364.110975 
L 242.917091 363.966628 
L 243.458182 363.441317 
L 244.066909 364.399807 
L 244.269818 364.093088 
L 244.608 363.1123 
L 245.013818 361.156934 
L 245.352 357.916907 
L 245.487273 357.965806 
L 245.893091 358.622708 
L 246.096 358.492818 
L 246.366545 357.88657 
L 246.772364 356.200373 
L 247.584 351.422103 
L 247.922182 347.996681 
L 248.260364 342.423611 
L 248.530909 334.620717 
L 248.733818 319.133433 
L 248.801455 304.602064 
L 248.936727 226.786982 
L 249.139636 344.735329 
L 249.342545 360.268582 
L 249.545455 362.607189 
L 249.883636 361.568603 
L 250.492364 361.120353 
L 250.898182 360.261648 
L 251.371636 358.63357 
L 251.845091 356.249795 
L 252.521455 351.37333 
L 253.333091 338.415004 
L 253.536 331.967835 
L 253.671273 323.255584 
L 253.806545 296.694555 
L 253.874182 227.649319 
L 253.941818 257.464009 
L 254.144727 341.492207 
L 254.347636 354.945373 
L 254.550545 357.507676 
L 254.821091 357.898415 
L 255.159273 358.581057 
L 255.362182 358.594911 
L 255.565091 358.30006 
L 255.903273 357.343502 
L 256.106182 356.419618 
L 256.579636 352.870413 
L 257.053091 350.654462 
L 257.391273 347.768204 
L 257.729455 342.580313 
L 258 334.411393 
L 258.135273 325.918703 
L 258.270545 302.096262 
L 258.338182 238.463056 
L 258.405818 239.004355 
L 258.608727 346.310392 
L 258.811636 361.414536 
L 258.946909 363.122132 
L 259.082182 363.060708 
L 259.420364 362.888377 
L 259.690909 362.666935 
L 259.826182 362.388314 
L 260.367273 360.278034 
L 260.976 360.209237 
L 261.246545 359.733336 
L 261.652364 358.397043 
L 262.125818 356.181203 
L 262.666909 352.266073 
L 263.140364 347.265526 
L 263.410909 342.359673 
L 263.613818 334.888007 
L 263.749091 324.650337 
L 263.884364 291.097347 
L 263.952 190.505182 
L 264.154909 342.346982 
L 264.357818 364.310562 
L 264.560727 368.229637 
L 264.696 368.571678 
L 264.831273 368.346671 
L 265.304727 366.561714 
L 266.928 360.594977 
L 267.198545 359.917473 
L 267.401455 358.940637 
L 267.807273 355.838027 
L 268.348364 353.234469 
L 268.754182 350.426525 
L 269.295273 344.505425 
L 269.633455 340.714282 
L 269.836364 336.148886 
L 270.039273 325.981068 
L 270.174545 304.983063 
L 270.309818 221.611634 
L 270.512727 340.803688 
L 270.715636 356.688883 
L 270.918545 359.171088 
L 272.541818 350.601319 
L 272.88 346.723408 
L 273.150545 341.687123 
L 273.353455 334.141595 
L 273.556364 317.495893 
L 273.624 302.318719 
L 273.759273 236.009063 
L 273.962182 343.255811 
L 274.165091 358.40907 
L 274.368 361.250484 
L 274.435636 361.406011 
L 274.503273 361.37203 
L 274.976727 359.453127 
L 275.517818 359.403011 
L 275.788364 358.937426 
L 276.058909 358.386896 
L 276.6 358.625948 
L 276.870545 358.064796 
L 277.208727 356.729132 
L 277.546909 354.454763 
L 278.426182 343.447496 
L 278.764364 334.891557 
L 278.967273 322.169759 
L 279.102545 287.428239 
L 279.170182 202.297267 
L 279.373091 336.022898 
L 279.576 355.631617 
L 279.778909 359.414279 
L 279.981818 359.949545 
L 280.184727 359.659736 
L 280.658182 358.332046 
L 281.131636 356.31098 
L 281.537455 353.579248 
L 281.740364 351.124267 
L 282.349091 338.88358 
L 282.619636 325.589248 
L 282.754909 306.177481 
L 282.890182 217.800314 
L 283.093091 337.392546 
L 283.296 353.712398 
L 283.498909 357.023942 
L 283.634182 357.326864 
L 283.837091 357.111114 
L 284.445818 356.006726 
L 285.122182 354.089887 
L 285.325091 352.121311 
L 285.798545 347.946544 
L 286.136727 344.097504 
L 286.542545 336.910592 
L 286.745455 328.711914 
L 286.880727 314.999211 
L 286.948364 296.52902 
L 287.016 222.667226 
L 287.083636 258.866852 
L 287.286545 343.517226 
L 287.489455 357.889624 
L 287.692364 361.055935 
L 287.895273 361.44269 
L 288.098182 361.065099 
L 288.571636 359.479349 
L 288.842182 358.122464 
L 289.180364 355.379585 
L 289.383273 355.139906 
L 289.653818 354.996623 
L 289.856727 354.604247 
L 290.127273 353.573007 
L 290.533091 350.871901 
L 291.006545 346.298189 
L 291.277091 341.648169 
L 291.48 335.211954 
L 291.682909 319.233518 
L 291.750545 303.855743 
L 291.885818 232.664804 
L 292.088727 347.577124 
L 292.291636 362.612496 
L 292.494545 364.403455 
L 292.697455 364.498453 
L 292.968 364.19446 
L 293.373818 363.343487 
L 294.185455 361.468853 
L 294.456 361.107432 
L 294.794182 360.135245 
L 296.146909 355.40425 
L 296.349818 353.758128 
L 296.890909 346.194354 
L 297.229091 342.740668 
L 297.499636 336.66471 
L 297.702545 325.641672 
L 297.837818 301.31316 
L 297.905455 234.078183 
L 297.973091 242.062319 
L 298.176 344.951257 
L 298.378909 359.339713 
L 298.581818 361.913679 
L 298.717091 362.024333 
L 298.92 361.645804 
L 299.393455 360.013644 
L 299.799273 357.837427 
L 300.205091 354.155606 
L 300.813818 350.340608 
L 301.354909 343.967175 
L 301.625455 340.119124 
L 301.828364 334.429403 
L 302.031273 320.080872 
L 302.098909 307.328782 
L 302.234182 211.018028 
L 302.437091 340.776483 
L 302.64 357.551384 
L 302.842909 360.447292 
L 302.910545 360.527104 
L 303.045818 360.175459 
L 303.384 358.185257 
L 303.722182 355.687807 
L 303.992727 355.207361 
L 304.330909 354.719562 
L 304.669091 353.635227 
L 305.007273 351.769978 
L 305.277818 349.294702 
L 306.292364 334.760092 
L 306.495273 324.624277 
L 306.630545 302.363119 
L 306.765818 232.10609 
L 306.968727 338.116053 
L 307.171636 352.664 
L 307.374545 355.791715 
L 307.509818 356.112097 
L 307.645091 355.899224 
L 308.050909 354.394809 
L 308.659636 352.116279 
L 308.930182 351.366274 
L 309.200727 349.94391 
L 309.538909 346.695896 
L 309.809455 341.952096 
L 310.012364 334.875866 
L 310.147636 325.025612 
L 310.282909 295.368907 
L 310.350545 202.555079 
L 310.553455 338.181243 
L 310.756364 360.675081 
L 310.959273 364.934209 
L 311.162182 365.399786 
L 311.365091 364.985178 
L 312.041455 363.437543 
L 312.514909 362.157157 
L 313.867636 357.149855 
L 314.070545 355.095726 
L 314.814545 347.035488 
L 315.288 342.685663 
L 315.490909 338.527272 
L 315.693818 329.993113 
L 315.829091 315.962121 
L 315.896727 296.872771 
L 315.964364 213.075886 
L 316.032 260.902411 
L 316.234909 346.63852 
L 316.437818 359.794311 
L 316.640727 361.934988 
L 316.776 362.053459 
L 316.978909 361.584314 
L 317.317091 360.078026 
L 317.722909 357.639544 
L 318.399273 356.882818 
L 318.669818 355.834569 
L 319.008 353.624526 
L 320.022545 342.497703 
L 320.293091 334.559382 
L 320.428364 325.885065 
L 320.563636 300.481257 
L 320.631273 224.977844 
L 320.698909 247.798474 
L 320.901818 347.084994 
L 321.104727 360.422525 
L 321.307636 362.845819 
L 321.442909 363.075921 
L 321.578182 362.94674 
L 321.984 361.972956 
L 322.660364 359.804361 
L 323.607273 355.826078 
L 323.945455 352.868364 
L 324.486545 350.245969 
L 324.757091 347.26932 
L 325.095273 338.676666 
L 325.298182 329.548076 
L 325.433455 315.19015 
L 325.501091 295.493367 
L 325.568727 212.12073 
L 325.839273 346.772393 
L 326.042182 359.43764 
L 326.245091 361.371654 
L 326.312727 361.335972 
L 326.515636 360.555661 
L 327.327273 355.719394 
L 327.665455 353.996972 
L 328.003636 352.100231 
L 328.612364 346.668393 
L 328.882909 346.197176 
L 329.085818 345.106679 
L 329.356364 341.808419 
L 329.559273 336.906752 
L 329.762182 326.231606 
L 329.897455 303.682815 
L 330.032727 229.756212 
L 330.235636 344.224041 
L 330.438545 359.807592 
L 330.641455 362.51597 
L 330.709091 362.598439 
L 330.844364 362.282284 
L 331.250182 360.070051 
L 331.588364 357.613806 
L 331.994182 353.879532 
L 332.332364 351.78291 
L 332.738182 347.69712 
L 333.211636 344.14034 
L 333.482182 340.469312 
L 333.685091 335.007663 
L 333.888 321.799097 
L 333.955636 310.865306 
L 334.023273 281.820466 
L 334.090909 198.402418 
L 334.293818 338.33809 
L 334.496727 357.116788 
L 334.699636 359.502026 
L 335.037818 358.736589 
L 335.578909 357.885365 
L 335.917091 357.370022 
L 336.255273 356.484534 
L 336.661091 354.644976 
L 337.202182 350.732282 
L 337.472727 349.332749 
L 337.743273 348.011283 
L 337.946182 345.313305 
L 338.419636 334.809063 
L 338.622545 323.698057 
L 338.757818 298.537492 
L 338.825455 234.703982 
L 338.893091 250.131937 
L 339.096 340.748659 
L 339.298909 354.579442 
L 339.501818 357.15739 
L 339.569455 357.252403 
L 339.637091 357.168548 
L 339.84 356.366233 
L 340.381091 353.064511 
L 340.786909 349.277797 
L 340.989818 345.512243 
L 341.328 335.533627 
L 341.530909 320.997597 
L 341.598545 308.125316 
L 341.733818 209.620169 
L 341.936727 345.608067 
L 342.139636 363.451054 
L 342.342545 366.795952 
L 342.477818 367.073281 
L 342.613091 366.840691 
L 343.965818 362.564736 
L 344.304 360.058716 
L 344.642182 359.480121 
L 344.912727 358.841141 
L 345.386182 356.751767 
L 346.468364 350.528635 
L 347.144727 337.948195 
L 347.347636 326.396117 
L 347.482909 302.713149 
L 347.618182 237.419544 
L 347.821091 346.773604 
L 348.024 361.149511 
L 348.226909 363.271132 
L 348.362182 363.320339 
L 348.565091 362.920088 
L 349.647273 359.604517 
L 350.053091 357.444154 
L 350.256 355.611457 
L 350.729455 350.186329 
L 351 346.187042 
L 351.541091 334.055435 
L 351.744 319.67955 
L 351.811636 307.003251 
L 351.946909 213.099195 
L 352.149818 339.676487 
L 352.352727 356.05939 
L 352.555636 358.923978 
L 352.623273 359.002433 
L 352.690909 358.916685 
L 352.961455 358.059947 
L 353.232 356.396652 
L 353.570182 353.569508 
L 354.246545 350.249605 
L 354.652364 346.175996 
L 354.990545 342.062678 
L 355.193455 337.224068 
L 355.396364 325.252084 
L 355.531636 300.448414 
L 355.599273 233.748748 
L 355.666909 245.331212 
L 355.869818 345.932296 
L 356.072727 360.891702 
L 356.275636 363.029648 
L 356.749091 361.292314 
L 357.290182 360.375153 
L 357.696 360.224266 
L 357.966545 359.765464 
L 358.304727 358.664242 
L 358.845818 355.758947 
L 359.251636 352.427868 
L 359.522182 348.356813 
L 359.928 337.804237 
L 360.130909 325.768252 
L 360.266182 296.629706 
L 360.333818 202.580745 
L 360.536727 339.877557 
L 360.739636 362.484915 
L 360.942545 366.104509 
L 361.010182 366.274964 
L 361.077818 366.241747 
L 361.280727 365.573921 
L 362.430545 360.03366 
L 363.039273 356.277605 
L 363.309818 356.14816 
L 363.512727 355.733415 
L 363.783273 354.627874 
L 364.189091 351.793555 
L 364.933091 344.211008 
L 365.203636 340.425447 
L 365.406545 334.923389 
L 365.609455 321.082477 
L 365.677091 308.615996 
L 365.812364 205.574118 
L 366.015273 342.164235 
L 366.218182 359.54062 
L 366.421091 362.607518 
L 366.488727 362.75062 
L 366.556364 362.704814 
L 366.759273 362.008947 
L 367.841455 356.400631 
L 368.382545 352.461943 
L 368.720727 349.307103 
L 369.126545 341.075571 
L 369.464727 327.690391 
L 369.6 314.182011 
L 369.667636 297.070121 
L 369.735273 238.58695 
L 369.802909 255.000883 
L 370.005818 337.761294 
L 370.208727 350.750542 
L 370.411636 353.130817 
L 370.479273 353.135636 
L 370.614545 352.602729 
L 370.952727 349.660671 
L 371.358545 343.785841 
L 371.629091 336.185637 
L 371.764364 328.133955 
L 371.899636 305.945447 
L 372.034909 222.626385 
L 372.237818 348.596052 
L 372.440727 364.720781 
L 372.643636 367.377309 
L 372.778909 367.465827 
L 372.981818 366.925993 
L 373.928727 363.166618 
L 374.131636 362.292841 
L 374.334545 362.220368 
L 374.672727 362.492303 
L 374.808 362.298647 
L 374.943273 361.561202 
L 375.213818 359.967284 
L 375.552 359.375194 
L 375.890182 358.6809 
L 376.363636 357.284687 
L 376.769455 355.2948 
L 377.175273 352.224265 
L 377.581091 347.25268 
L 377.851636 341.618721 
L 378.054545 333.631016 
L 378.189818 321.028507 
L 378.257455 306.122561 
L 378.392727 225.230974 
L 378.595636 350.899883 
L 378.798545 365.484483 
L 379.001455 367.84728 
L 379.136727 367.999865 
L 379.339636 367.580931 
L 379.880727 365.536379 
L 380.76 361.521231 
L 381.233455 358.578913 
L 381.571636 355.740737 
L 382.180364 352.271122 
L 382.586182 348.340331 
L 382.924364 342.325973 
L 383.194909 332.258513 
L 383.330182 320.16069 
L 383.397818 305.692028 
L 383.533091 224.071293 
L 383.736 349.120698 
L 383.938909 365.639476 
L 384.141818 368.017547 
L 384.277091 367.219859 
L 384.615273 365.380102 
L 386.373818 360.064118 
L 386.914909 356.920398 
L 387.320727 353.391931 
L 387.591273 348.891751 
L 388.064727 337.617649 
L 388.267636 324.60079 
L 388.402909 290.106975 
L 388.470545 190.51771 
L 388.673455 342.381958 
L 388.876364 362.666548 
L 389.079273 365.70105 
L 389.214545 365.794919 
L 389.417455 365.207796 
L 390.432 361.276186 
L 390.837818 358.359683 
L 391.514182 356.024992 
L 391.92 353.459783 
L 392.325818 349.252567 
L 392.664 343.201562 
L 392.934545 331.639636 
L 393.069818 319.772678 
L 393.137455 307.26873 
L 393.272727 213.161194 
L 393.475636 341.529193 
L 393.678545 357.08171 
L 393.881455 359.816577 
L 394.084364 360.319971 
L 394.287273 360.247332 
L 394.557818 359.831339 
L 394.963636 358.739133 
L 395.369455 356.975659 
L 395.978182 353.307188 
L 396.451636 349.165589 
L 396.722182 345.041786 
L 396.992727 335.634115 
L 397.128 326.349349 
L 397.263273 297.410701 
L 397.330909 198.630624 
L 397.533818 341.27709 
L 397.736727 364.505027 
L 397.939636 368.044485 
L 398.007273 368.158863 
L 398.074909 368.063431 
L 398.345455 366.825075 
L 398.683636 365.393659 
L 399.495273 362.964911 
L 399.833455 361.235835 
L 400.239273 358.089427 
L 400.915636 355.22827 
L 401.321455 352.237952 
L 401.659636 348.353548 
L 401.930182 343.174158 
L 402.133091 335.286074 
L 402.336 316.162013 
L 402.403636 295.732296 
L 402.471273 201.771433 
L 402.674182 340.649539 
L 402.877091 362.867132 
L 403.08 365.841547 
L 403.282909 366.286197 
L 403.418182 366.237201 
L 403.688727 365.810025 
L 404.229818 364.417398 
L 404.838545 362.166543 
L 405.447273 359.007092 
L 405.988364 355.061163 
L 406.258909 351.480393 
L 406.867636 338.711239 
L 407.138182 324.906253 
L 407.273455 302.452464 
L 407.408727 235.059195 
L 407.611636 340.913647 
L 407.814545 355.047502 
L 408.017455 357.240018 
L 408.085091 357.178234 
L 408.288 356.120782 
L 409.167273 349.065489 
L 409.640727 339.628664 
L 409.843636 332.557357 
L 409.978909 322.851277 
L 410.114182 289.178265 
L 410.181818 200.340526 
L 410.384727 336.922389 
L 410.587636 357.507799 
L 410.790545 361.382745 
L 410.858182 361.600544 
L 410.925818 361.574522 
L 411.128727 360.690887 
L 411.737455 356.92166 
L 412.075636 356.189007 
L 412.210909 355.4109 
L 412.549091 352.597935 
L 412.684364 352.401559 
L 412.819636 352.630063 
L 413.225455 353.52501 
L 413.360727 353.450709 
L 413.563636 352.946509 
L 413.834182 351.605456 
L 414.172364 348.767708 
L 414.510545 343.750318 
L 414.781091 335.808971 
L 414.984 320.638022 
L 415.051636 307.028736 
L 415.186909 215.444176 
L 415.389818 345.029827 
L 415.592727 359.878936 
L 415.795636 361.85547 
L 415.998545 362.258146 
L 416.201455 362.251578 
L 416.472 361.888984 
L 416.945455 360.6431 
L 418.365818 356.006165 
L 418.568727 353.818689 
L 418.974545 350.047553 
L 419.380364 346.300848 
L 419.650909 341.64413 
L 419.853818 335.054797 
L 419.989091 326.397182 
L 420.124364 301.345474 
L 420.192 225.782838 
L 420.259636 245.353752 
L 420.462545 348.133342 
L 420.665455 361.142824 
L 420.868364 362.424002 
L 421.003636 362.285481 
L 421.477091 360.808874 
L 421.747636 359.440121 
L 422.694545 357.89108 
L 423.776727 354.708599 
L 424.114909 352.666908 
L 424.453091 349.198689 
L 424.656 345.281236 
L 424.994182 333.496581 
L 425.129455 323.097711 
L 425.264727 284.228847 
L 425.332364 193.111863 
L 425.535273 341.792985 
L 425.738182 359.808118 
L 425.941091 362.95801 
L 426.076364 363.230081 
L 426.211636 363.023384 
L 426.617455 361.607138 
L 427.361455 358.423211 
L 427.632 356.343011 
L 428.037818 352.355794 
L 428.578909 348.101527 
L 428.917091 344.268744 
L 429.187636 338.648496 
L 429.390545 329.674758 
L 429.525818 314.381095 
L 429.593455 291.55225 
L 429.661091 196.497383 
L 429.864 338.095843 
L 430.066909 358.430311 
L 430.269818 361.066537 
L 430.405091 361.226179 
L 430.472727 361.127593 
L 430.743273 381.318703 
L 431.216727 399.986528 
L 431.825455 414.666511 
L 432.704727 430.174447 
L 433.448727 439.753272 
L 434.057455 444.924931 
L 434.598545 447.810253 
L 435.139636 449.554401 
L 435.680727 450.567878 
L 436.221818 451.143661 
L 436.898182 451.52184 
L 437.777455 451.735185 
L 439.265455 451.833789 
L 444.135273 451.819224 
L 466.184727 451.793528 
L 498.109091 451.795382 
L 498.109091 451.795382 
" clip-path="url(#pac632eda42)" style="fill: none; stroke: #000000; stroke-width: 1.5; stroke-linecap: square"/>
   </g>
   <g id="line2d_14">
    <path d="M 497.973818 408.87 
" clip-path="url(#pac632eda42)" style="fill: none; stroke: #000000; stroke-width: 1.5; stroke-linecap: square"/>
   </g>
   <g id="line2d_15">
    <path d="M 430.472727 368.1 
L 430.472727 365.382 
L 430.472727 362.664 
L 430.472727 359.946 
L 430.472727 357.228 
L 430.472727 354.51 
L 430.472727 351.792 
L 430.472727 349.074 
L 430.472727 346.356 
L 430.472727 343.638 
L 430.472727 340.92 
L 430.472727 338.202 
L 430.472727 335.484 
L 430.472727 332.766 
L 430.472727 330.048 
L 430.472727 327.33 
L 430.472727 324.612 
L 430.472727 321.894 
L 430.472727 319.176 
L 430.472727 316.458 
" clip-path="url(#pac632eda42)" style="fill: none; stroke: #000000; stroke-width: 1.5; stroke-linecap: square"/>
   </g>
   <g id="patch_3">
    <path d="M 72 504 
L 72 69.12 
" style="fill: none; stroke: #000000; stroke-width: 0.8; stroke-linejoin: miter; stroke-linecap: square"/>
   </g>
   <g id="patch_4">
    <path d="M 518.4 504 
L 518.4 69.12 
" style="fill: none; stroke: #000000; stroke-width: 0.8; stroke-linejoin: miter; stroke-linecap: square"/>
   </g>
   <g id="patch_5">
    <path d="M 72 504 
L 518.4 504 
" style="fill: none; stroke: #000000; stroke-width: 0.8; stroke-linejoin: miter; stroke-linecap: square"/>
   </g>
   <g id="patch_6">
    <path d="M 72 69.12 
L 518.4 69.12 
" style="fill: none; stroke: #000000; stroke-width: 0.8; stroke-linejoin: miter; stroke-linecap: square"/>
   </g>
   <g id="text_15">
    <!-- 500 ms -->
    <g transform="translate(497.973818 406.152)scale(0.22 -0.22)">
     <defs>
      <path id="ArialMT-35" d="M 266 1200 
L 856 1250 
Q 922 819 1161 601 
Q 1400 384 1738 384 
Q 2144 384 2425 690 
Q 2706 997 2706 1503 
Q 2706 1984 2436 2262 
Q 2166 2541 1728 2541 
Q 1456 2541 1237 2417 
Q 1019 2294 894 2097 
L 366 2166 
L 809 4519 
L 3088 4519 
L 3088 3981 
L 1259 3981 
L 1013 2750 
Q 1425 3038 1878 3038 
Q 2478 3038 2890 2622 
Q 3303 2206 3303 1553 
Q 3303 931 2941 478 
Q 2500 -78 1738 -78 
Q 1113 -78 717 272 
Q 322 622 266 1200 
z
" transform="scale(0.015625)"/>
      <path id="ArialMT-30" d="M 266 2259 
Q 266 3072 433 3567 
Q 600 4063 929 4331 
Q 1259 4600 1759 4600 
Q 2128 4600 2406 4451 
Q 2684 4303 2865 4023 
Q 3047 3744 3150 3342 
Q 3253 2941 3253 2259 
Q 3253 1453 3087 958 
Q 2922 463 2592 192 
Q 2263 -78 1759 -78 
Q 1097 -78 719 397 
Q 266 969 266 2259 
z
M 844 2259 
Q 844 1131 1108 757 
Q 1372 384 1759 384 
Q 2147 384 2411 759 
Q 2675 1134 2675 2259 
Q 2675 3391 2411 3762 
Q 2147 4134 1753 4134 
Q 1366 4134 1134 3806 
Q 844 3388 844 2259 
z
" transform="scale(0.015625)"/>
     </defs>
     <use xlink:href="#ArialMT-35"/>
     <use xlink:href="#ArialMT-30" x="55.615234"/>
     <use xlink:href="#ArialMT-30" x="111.230469"/>
     <use xlink:href="#ArialMT-20" x="166.845703"/>
     <use xlink:href="#ArialMT-6d" x="194.628906"/>
     <use xlink:href="#ArialMT-73" x="277.929688"/>
    </g>
   </g>
   <g id="text_16">
    <!-- 20 mV -->
    <g transform="translate(504.737455 321.894)scale(0.22 -0.22)">
     <defs>
      <path id="ArialMT-32" d="M 3222 541 
L 3222 0 
L 194 0 
Q 188 203 259 391 
Q 375 700 629 1000 
Q 884 1300 1366 1694 
Q 2113 2306 2375 2664 
Q 2638 3022 2638 3341 
Q 2638 3675 2398 3904 
Q 2159 4134 1775 4134 
Q 1369 4134 1125 3890 
Q 881 3647 878 3216 
L 300 3275 
Q 359 3922 746 4261 
Q 1134 4600 1788 4600 
Q 2447 4600 2831 4234 
Q 3216 3869 3216 3328 
Q 3216 3053 3103 2787 
Q 2991 2522 2730 2228 
Q 2469 1934 1863 1422 
Q 1356 997 1212 845 
Q 1069 694 975 541 
L 3222 541 
z
" transform="scale(0.015625)"/>
     </defs>
     <use xlink:href="#ArialMT-32"/>
     <use xlink:href="#ArialMT-30" x="55.615234"/>
     <use xlink:href="#ArialMT-20" x="111.230469"/>
     <use xlink:href="#ArialMT-6d" x="139.013672"/>
     <use xlink:href="#ArialMT-56" x="222.314453"/>
    </g>
   </g>
   <g id="text_17">
    <!--  Plotting FS, trace number 14615  -->
    <g transform="translate(130.732812 63.12)scale(0.22 -0.22)">
     <defs>
      <path id="ArialMT-50" d="M 494 0 
L 494 4581 
L 2222 4581 
Q 2678 4581 2919 4538 
Q 3256 4481 3484 4323 
Q 3713 4166 3852 3881 
Q 3991 3597 3991 3256 
Q 3991 2672 3619 2267 
Q 3247 1863 2275 1863 
L 1100 1863 
L 1100 0 
L 494 0 
z
M 1100 2403 
L 2284 2403 
Q 2872 2403 3119 2622 
Q 3366 2841 3366 3238 
Q 3366 3525 3220 3729 
Q 3075 3934 2838 4000 
Q 2684 4041 2272 4041 
L 1100 4041 
L 1100 2403 
z
" transform="scale(0.015625)"/>
      <path id="ArialMT-67" d="M 319 -275 
L 866 -356 
Q 900 -609 1056 -725 
Q 1266 -881 1628 -881 
Q 2019 -881 2231 -725 
Q 2444 -569 2519 -288 
Q 2563 -116 2559 434 
Q 2191 0 1641 0 
Q 956 0 581 494 
Q 206 988 206 1678 
Q 206 2153 378 2554 
Q 550 2956 876 3175 
Q 1203 3394 1644 3394 
Q 2231 3394 2613 2919 
L 2613 3319 
L 3131 3319 
L 3131 450 
Q 3131 -325 2973 -648 
Q 2816 -972 2473 -1159 
Q 2131 -1347 1631 -1347 
Q 1038 -1347 672 -1080 
Q 306 -813 319 -275 
z
M 784 1719 
Q 784 1066 1043 766 
Q 1303 466 1694 466 
Q 2081 466 2343 764 
Q 2606 1063 2606 1700 
Q 2606 2309 2336 2618 
Q 2066 2928 1684 2928 
Q 1309 2928 1046 2623 
Q 784 2319 784 1719 
z
" transform="scale(0.015625)"/>
      <path id="ArialMT-46" d="M 525 0 
L 525 4581 
L 3616 4581 
L 3616 4041 
L 1131 4041 
L 1131 2622 
L 3281 2622 
L 3281 2081 
L 1131 2081 
L 1131 0 
L 525 0 
z
" transform="scale(0.015625)"/>
      <path id="ArialMT-53" d="M 288 1472 
L 859 1522 
Q 900 1178 1048 958 
Q 1197 738 1509 602 
Q 1822 466 2213 466 
Q 2559 466 2825 569 
Q 3091 672 3220 851 
Q 3350 1031 3350 1244 
Q 3350 1459 3225 1620 
Q 3100 1781 2813 1891 
Q 2628 1963 1997 2114 
Q 1366 2266 1113 2400 
Q 784 2572 623 2826 
Q 463 3081 463 3397 
Q 463 3744 659 4045 
Q 856 4347 1234 4503 
Q 1613 4659 2075 4659 
Q 2584 4659 2973 4495 
Q 3363 4331 3572 4012 
Q 3781 3694 3797 3291 
L 3216 3247 
Q 3169 3681 2898 3903 
Q 2628 4125 2100 4125 
Q 1550 4125 1298 3923 
Q 1047 3722 1047 3438 
Q 1047 3191 1225 3031 
Q 1400 2872 2139 2705 
Q 2878 2538 3153 2413 
Q 3553 2228 3743 1945 
Q 3934 1663 3934 1294 
Q 3934 928 3725 604 
Q 3516 281 3123 101 
Q 2731 -78 2241 -78 
Q 1619 -78 1198 103 
Q 778 284 539 648 
Q 300 1013 288 1472 
z
" transform="scale(0.015625)"/>
      <path id="ArialMT-2c" d="M 569 0 
L 569 641 
L 1209 641 
L 1209 0 
Q 1209 -353 1084 -570 
Q 959 -788 688 -906 
L 531 -666 
Q 709 -588 793 -436 
Q 878 -284 888 0 
L 569 0 
z
" transform="scale(0.015625)"/>
      <path id="ArialMT-63" d="M 2588 1216 
L 3141 1144 
Q 3050 572 2676 248 
Q 2303 -75 1759 -75 
Q 1078 -75 664 370 
Q 250 816 250 1647 
Q 250 2184 428 2587 
Q 606 2991 970 3192 
Q 1334 3394 1763 3394 
Q 2303 3394 2647 3120 
Q 2991 2847 3088 2344 
L 2541 2259 
Q 2463 2594 2264 2762 
Q 2066 2931 1784 2931 
Q 1359 2931 1093 2626 
Q 828 2322 828 1663 
Q 828 994 1084 691 
Q 1341 388 1753 388 
Q 2084 388 2306 591 
Q 2528 794 2588 1216 
z
" transform="scale(0.015625)"/>
      <path id="ArialMT-75" d="M 2597 0 
L 2597 488 
Q 2209 -75 1544 -75 
Q 1250 -75 995 37 
Q 741 150 617 320 
Q 494 491 444 738 
Q 409 903 409 1263 
L 409 3319 
L 972 3319 
L 972 1478 
Q 972 1038 1006 884 
Q 1059 663 1231 536 
Q 1403 409 1656 409 
Q 1909 409 2131 539 
Q 2353 669 2445 892 
Q 2538 1116 2538 1541 
L 2538 3319 
L 3100 3319 
L 3100 0 
L 2597 0 
z
" transform="scale(0.015625)"/>
      <path id="ArialMT-31" d="M 2384 0 
L 1822 0 
L 1822 3584 
Q 1619 3391 1289 3197 
Q 959 3003 697 2906 
L 697 3450 
Q 1169 3672 1522 3987 
Q 1875 4303 2022 4600 
L 2384 4600 
L 2384 0 
z
" transform="scale(0.015625)"/>
      <path id="ArialMT-34" d="M 2069 0 
L 2069 1097 
L 81 1097 
L 81 1613 
L 2172 4581 
L 2631 4581 
L 2631 1613 
L 3250 1613 
L 3250 1097 
L 2631 1097 
L 2631 0 
L 2069 0 
z
M 2069 1613 
L 2069 3678 
L 634 1613 
L 2069 1613 
z
" transform="scale(0.015625)"/>
      <path id="ArialMT-36" d="M 3184 3459 
L 2625 3416 
Q 2550 3747 2413 3897 
Q 2184 4138 1850 4138 
Q 1581 4138 1378 3988 
Q 1113 3794 959 3422 
Q 806 3050 800 2363 
Q 1003 2672 1297 2822 
Q 1591 2972 1913 2972 
Q 2475 2972 2870 2558 
Q 3266 2144 3266 1488 
Q 3266 1056 3080 686 
Q 2894 316 2569 119 
Q 2244 -78 1831 -78 
Q 1128 -78 684 439 
Q 241 956 241 2144 
Q 241 3472 731 4075 
Q 1159 4600 1884 4600 
Q 2425 4600 2770 4297 
Q 3116 3994 3184 3459 
z
M 888 1484 
Q 888 1194 1011 928 
Q 1134 663 1356 523 
Q 1578 384 1822 384 
Q 2178 384 2434 671 
Q 2691 959 2691 1453 
Q 2691 1928 2437 2201 
Q 2184 2475 1800 2475 
Q 1419 2475 1153 2201 
Q 888 1928 888 1484 
z
" transform="scale(0.015625)"/>
     </defs>
     <use xlink:href="#ArialMT-20"/>
     <use xlink:href="#ArialMT-50" x="27.783203"/>
     <use xlink:href="#ArialMT-6c" x="94.482422"/>
     <use xlink:href="#ArialMT-6f" x="116.699219"/>
     <use xlink:href="#ArialMT-74" x="172.314453"/>
     <use xlink:href="#ArialMT-74" x="200.097656"/>
     <use xlink:href="#ArialMT-69" x="227.880859"/>
     <use xlink:href="#ArialMT-6e" x="250.097656"/>
     <use xlink:href="#ArialMT-67" x="305.712891"/>
     <use xlink:href="#ArialMT-20" x="361.328125"/>
     <use xlink:href="#ArialMT-46" x="389.111328"/>
     <use xlink:href="#ArialMT-53" x="450.195312"/>
     <use xlink:href="#ArialMT-2c" x="516.894531"/>
     <use xlink:href="#ArialMT-20" x="544.677734"/>
     <use xlink:href="#ArialMT-74" x="572.460938"/>
     <use xlink:href="#ArialMT-72" x="600.244141"/>
     <use xlink:href="#ArialMT-61" x="633.544922"/>
     <use xlink:href="#ArialMT-63" x="689.160156"/>
     <use xlink:href="#ArialMT-65" x="739.160156"/>
     <use xlink:href="#ArialMT-20" x="794.775391"/>
     <use xlink:href="#ArialMT-6e" x="822.558594"/>
     <use xlink:href="#ArialMT-75" x="878.173828"/>
     <use xlink:href="#ArialMT-6d" x="933.789062"/>
     <use xlink:href="#ArialMT-62" x="1017.089844"/>
     <use xlink:href="#ArialMT-65" x="1072.705078"/>
     <use xlink:href="#ArialMT-72" x="1128.320312"/>
     <use xlink:href="#ArialMT-20" x="1161.621094"/>
     <use xlink:href="#ArialMT-31" x="1189.404297"/>
     <use xlink:href="#ArialMT-34" x="1245.019531"/>
     <use xlink:href="#ArialMT-36" x="1300.634766"/>
     <use xlink:href="#ArialMT-31" x="1356.25"/>
     <use xlink:href="#ArialMT-35" x="1411.865234"/>
     <use xlink:href="#ArialMT-20" x="1467.480469"/>
    </g>
   </g>
  </g>
 </g>
 <defs>
  <clipPath id="pac632eda42">
   <rect x="72" y="69.12" width="446.4" height="434.88"/>
  </clipPath>
 </defs>
</svg>
