<?xml version="1.0" encoding="utf-8" standalone="no"?>
<!DOCTYPE svg PUBLIC "-//W3C//DTD SVG 1.1//EN"
  "http://www.w3.org/Graphics/SVG/1.1/DTD/svg11.dtd">
<svg xmlns:xlink="http://www.w3.org/1999/xlink" width="576pt" height="576pt" viewBox="0 0 576 576" xmlns="http://www.w3.org/2000/svg" version="1.1">
 <metadata>
  <rdf:RDF xmlns:dc="http://purl.org/dc/elements/1.1/" xmlns:cc="http://creativecommons.org/ns#" xmlns:rdf="http://www.w3.org/1999/02/22-rdf-syntax-ns#">
   <cc:Work>
    <dc:type rdf:resource="http://purl.org/dc/dcmitype/StillImage"/>
    <dc:date>2022-10-30T19:57:17.566847</dc:date>
    <dc:format>image/svg+xml</dc:format>
    <dc:creator>
     <cc:Agent>
      <dc:title>Matplotlib v3.5.2, https://matplotlib.org/</dc:title>
     </cc:Agent>
    </dc:creator>
   </cc:Work>
  </rdf:RDF>
 </metadata>
 <defs>
  <style type="text/css">*{stroke-linejoin: round; stroke-linecap: butt}</style>
 </defs>
 <g id="figure_1">
  <g id="patch_1">
   <path d="M 0 576 
L 576 576 
L 576 0 
L 0 0 
L 0 576 
z
" style="fill: none"/>
  </g>
  <g id="axes_1">
   <g id="patch_2">
    <path d="M 72 504 
L 518.4 504 
L 518.4 69.12 
L 72 69.12 
z
" style="fill: #ffffff"/>
   </g>
   <g id="matplotlib.axis_1">
    <g id="xtick_1">
     <g id="line2d_1">
      <defs>
       <path id="mb748c92aee" d="M 0 0 
L 0 3.5 
" style="stroke: #000000; stroke-width: 0.8"/>
      </defs>
      <g>
       <use xlink:href="#mb748c92aee" x="92.290909" y="504" style="stroke: #000000; stroke-width: 0.8"/>
      </g>
     </g>
     <g id="text_1">
      <!-- 0 -->
      <g transform="translate(85.292159 527.716563)scale(0.22 -0.22)">
       <defs>
        <path id="DejaVuSans-30" d="M 2034 4250 
Q 1547 4250 1301 3770 
Q 1056 3291 1056 2328 
Q 1056 1369 1301 889 
Q 1547 409 2034 409 
Q 2525 409 2770 889 
Q 3016 1369 3016 2328 
Q 3016 3291 2770 3770 
Q 2525 4250 2034 4250 
z
M 2034 4750 
Q 2819 4750 3233 4129 
Q 3647 3509 3647 2328 
Q 3647 1150 3233 529 
Q 2819 -91 2034 -91 
Q 1250 -91 836 529 
Q 422 1150 422 2328 
Q 422 3509 836 4129 
Q 1250 4750 2034 4750 
z
" transform="scale(0.015625)"/>
       </defs>
       <use xlink:href="#DejaVuSans-30"/>
      </g>
     </g>
    </g>
    <g id="xtick_2">
     <g id="line2d_2">
      <g>
       <use xlink:href="#mb748c92aee" x="227.563636" y="504" style="stroke: #000000; stroke-width: 0.8"/>
      </g>
     </g>
     <g id="text_2">
      <!-- 1000 -->
      <g transform="translate(199.568636 527.716563)scale(0.22 -0.22)">
       <defs>
        <path id="DejaVuSans-31" d="M 794 531 
L 1825 531 
L 1825 4091 
L 703 3866 
L 703 4441 
L 1819 4666 
L 2450 4666 
L 2450 531 
L 3481 531 
L 3481 0 
L 794 0 
L 794 531 
z
" transform="scale(0.015625)"/>
       </defs>
       <use xlink:href="#DejaVuSans-31"/>
       <use xlink:href="#DejaVuSans-30" x="63.623047"/>
       <use xlink:href="#DejaVuSans-30" x="127.246094"/>
       <use xlink:href="#DejaVuSans-30" x="190.869141"/>
      </g>
     </g>
    </g>
    <g id="xtick_3">
     <g id="line2d_3">
      <g>
       <use xlink:href="#mb748c92aee" x="362.836364" y="504" style="stroke: #000000; stroke-width: 0.8"/>
      </g>
     </g>
     <g id="text_3">
      <!-- 2000 -->
      <g transform="translate(334.841364 527.716563)scale(0.22 -0.22)">
       <defs>
        <path id="DejaVuSans-32" d="M 1228 531 
L 3431 531 
L 3431 0 
L 469 0 
L 469 531 
Q 828 903 1448 1529 
Q 2069 2156 2228 2338 
Q 2531 2678 2651 2914 
Q 2772 3150 2772 3378 
Q 2772 3750 2511 3984 
Q 2250 4219 1831 4219 
Q 1534 4219 1204 4116 
Q 875 4013 500 3803 
L 500 4441 
Q 881 4594 1212 4672 
Q 1544 4750 1819 4750 
Q 2544 4750 2975 4387 
Q 3406 4025 3406 3419 
Q 3406 3131 3298 2873 
Q 3191 2616 2906 2266 
Q 2828 2175 2409 1742 
Q 1991 1309 1228 531 
z
" transform="scale(0.015625)"/>
       </defs>
       <use xlink:href="#DejaVuSans-32"/>
       <use xlink:href="#DejaVuSans-30" x="63.623047"/>
       <use xlink:href="#DejaVuSans-30" x="127.246094"/>
       <use xlink:href="#DejaVuSans-30" x="190.869141"/>
      </g>
     </g>
    </g>
    <g id="xtick_4">
     <g id="line2d_4">
      <g>
       <use xlink:href="#mb748c92aee" x="498.109091" y="504" style="stroke: #000000; stroke-width: 0.8"/>
      </g>
     </g>
     <g id="text_4">
      <!-- 3000 -->
      <g transform="translate(470.114091 527.716563)scale(0.22 -0.22)">
       <defs>
        <path id="DejaVuSans-33" d="M 2597 2516 
Q 3050 2419 3304 2112 
Q 3559 1806 3559 1356 
Q 3559 666 3084 287 
Q 2609 -91 1734 -91 
Q 1441 -91 1130 -33 
Q 819 25 488 141 
L 488 750 
Q 750 597 1062 519 
Q 1375 441 1716 441 
Q 2309 441 2620 675 
Q 2931 909 2931 1356 
Q 2931 1769 2642 2001 
Q 2353 2234 1838 2234 
L 1294 2234 
L 1294 2753 
L 1863 2753 
Q 2328 2753 2575 2939 
Q 2822 3125 2822 3475 
Q 2822 3834 2567 4026 
Q 2313 4219 1838 4219 
Q 1578 4219 1281 4162 
Q 984 4106 628 3988 
L 628 4550 
Q 988 4650 1302 4700 
Q 1616 4750 1894 4750 
Q 2613 4750 3031 4423 
Q 3450 4097 3450 3541 
Q 3450 3153 3228 2886 
Q 3006 2619 2597 2516 
z
" transform="scale(0.015625)"/>
       </defs>
       <use xlink:href="#DejaVuSans-33"/>
       <use xlink:href="#DejaVuSans-30" x="63.623047"/>
       <use xlink:href="#DejaVuSans-30" x="127.246094"/>
       <use xlink:href="#DejaVuSans-30" x="190.869141"/>
      </g>
     </g>
    </g>
    <g id="text_5">
     <!-- Time(ms) -->
     <g transform="translate(249.182187 552.307188)scale(0.22 -0.22)">
      <defs>
       <path id="ArialMT-54" d="M 1659 0 
L 1659 4041 
L 150 4041 
L 150 4581 
L 3781 4581 
L 3781 4041 
L 2266 4041 
L 2266 0 
L 1659 0 
z
" transform="scale(0.015625)"/>
       <path id="ArialMT-69" d="M 425 3934 
L 425 4581 
L 988 4581 
L 988 3934 
L 425 3934 
z
M 425 0 
L 425 3319 
L 988 3319 
L 988 0 
L 425 0 
z
" transform="scale(0.015625)"/>
       <path id="ArialMT-6d" d="M 422 0 
L 422 3319 
L 925 3319 
L 925 2853 
Q 1081 3097 1340 3245 
Q 1600 3394 1931 3394 
Q 2300 3394 2536 3241 
Q 2772 3088 2869 2813 
Q 3263 3394 3894 3394 
Q 4388 3394 4653 3120 
Q 4919 2847 4919 2278 
L 4919 0 
L 4359 0 
L 4359 2091 
Q 4359 2428 4304 2576 
Q 4250 2725 4106 2815 
Q 3963 2906 3769 2906 
Q 3419 2906 3187 2673 
Q 2956 2441 2956 1928 
L 2956 0 
L 2394 0 
L 2394 2156 
Q 2394 2531 2256 2718 
Q 2119 2906 1806 2906 
Q 1569 2906 1367 2781 
Q 1166 2656 1075 2415 
Q 984 2175 984 1722 
L 984 0 
L 422 0 
z
" transform="scale(0.015625)"/>
       <path id="ArialMT-65" d="M 2694 1069 
L 3275 997 
Q 3138 488 2766 206 
Q 2394 -75 1816 -75 
Q 1088 -75 661 373 
Q 234 822 234 1631 
Q 234 2469 665 2931 
Q 1097 3394 1784 3394 
Q 2450 3394 2872 2941 
Q 3294 2488 3294 1666 
Q 3294 1616 3291 1516 
L 816 1516 
Q 847 969 1125 678 
Q 1403 388 1819 388 
Q 2128 388 2347 550 
Q 2566 713 2694 1069 
z
M 847 1978 
L 2700 1978 
Q 2663 2397 2488 2606 
Q 2219 2931 1791 2931 
Q 1403 2931 1139 2672 
Q 875 2413 847 1978 
z
" transform="scale(0.015625)"/>
       <path id="ArialMT-28" d="M 1497 -1347 
Q 1031 -759 709 28 
Q 388 816 388 1659 
Q 388 2403 628 3084 
Q 909 3875 1497 4659 
L 1900 4659 
Q 1522 4009 1400 3731 
Q 1209 3300 1100 2831 
Q 966 2247 966 1656 
Q 966 153 1900 -1347 
L 1497 -1347 
z
" transform="scale(0.015625)"/>
       <path id="ArialMT-73" d="M 197 991 
L 753 1078 
Q 800 744 1014 566 
Q 1228 388 1613 388 
Q 2000 388 2187 545 
Q 2375 703 2375 916 
Q 2375 1106 2209 1216 
Q 2094 1291 1634 1406 
Q 1016 1563 777 1677 
Q 538 1791 414 1992 
Q 291 2194 291 2438 
Q 291 2659 392 2848 
Q 494 3038 669 3163 
Q 800 3259 1026 3326 
Q 1253 3394 1513 3394 
Q 1903 3394 2198 3281 
Q 2494 3169 2634 2976 
Q 2775 2784 2828 2463 
L 2278 2388 
Q 2241 2644 2061 2787 
Q 1881 2931 1553 2931 
Q 1166 2931 1000 2803 
Q 834 2675 834 2503 
Q 834 2394 903 2306 
Q 972 2216 1119 2156 
Q 1203 2125 1616 2013 
Q 2213 1853 2448 1751 
Q 2684 1650 2818 1456 
Q 2953 1263 2953 975 
Q 2953 694 2789 445 
Q 2625 197 2315 61 
Q 2006 -75 1616 -75 
Q 969 -75 630 194 
Q 291 463 197 991 
z
" transform="scale(0.015625)"/>
       <path id="ArialMT-29" d="M 791 -1347 
L 388 -1347 
Q 1322 153 1322 1656 
Q 1322 2244 1188 2822 
Q 1081 3291 891 3722 
Q 769 4003 388 4659 
L 791 4659 
Q 1378 3875 1659 3084 
Q 1900 2403 1900 1659 
Q 1900 816 1576 28 
Q 1253 -759 791 -1347 
z
" transform="scale(0.015625)"/>
      </defs>
      <use xlink:href="#ArialMT-54"/>
      <use xlink:href="#ArialMT-69" x="57.333984"/>
      <use xlink:href="#ArialMT-6d" x="79.550781"/>
      <use xlink:href="#ArialMT-65" x="162.851562"/>
      <use xlink:href="#ArialMT-28" x="218.466797"/>
      <use xlink:href="#ArialMT-6d" x="251.767578"/>
      <use xlink:href="#ArialMT-73" x="335.068359"/>
      <use xlink:href="#ArialMT-29" x="385.068359"/>
     </g>
    </g>
   </g>
   <g id="matplotlib.axis_2">
    <g id="ytick_1">
     <g id="line2d_5">
      <defs>
       <path id="m095a818ea7" d="M 0 0 
L -3.5 0 
" style="stroke: #000000; stroke-width: 0.8"/>
      </defs>
      <g>
       <use xlink:href="#m095a818ea7" x="72" y="476.82" style="stroke: #000000; stroke-width: 0.8"/>
      </g>
     </g>
     <g id="text_6">
      <!-- −100 -->
      <g transform="translate(4.572187 485.178281)scale(0.22 -0.22)">
       <defs>
        <path id="DejaVuSans-2212" d="M 678 2272 
L 4684 2272 
L 4684 1741 
L 678 1741 
L 678 2272 
z
" transform="scale(0.015625)"/>
       </defs>
       <use xlink:href="#DejaVuSans-2212"/>
       <use xlink:href="#DejaVuSans-31" x="83.789062"/>
       <use xlink:href="#DejaVuSans-30" x="147.412109"/>
       <use xlink:href="#DejaVuSans-30" x="211.035156"/>
      </g>
     </g>
    </g>
    <g id="ytick_2">
     <g id="line2d_6">
      <g>
       <use xlink:href="#m095a818ea7" x="72" y="422.46" style="stroke: #000000; stroke-width: 0.8"/>
      </g>
     </g>
     <g id="text_7">
      <!-- −80 -->
      <g transform="translate(18.569688 430.818281)scale(0.22 -0.22)">
       <defs>
        <path id="DejaVuSans-38" d="M 2034 2216 
Q 1584 2216 1326 1975 
Q 1069 1734 1069 1313 
Q 1069 891 1326 650 
Q 1584 409 2034 409 
Q 2484 409 2743 651 
Q 3003 894 3003 1313 
Q 3003 1734 2745 1975 
Q 2488 2216 2034 2216 
z
M 1403 2484 
Q 997 2584 770 2862 
Q 544 3141 544 3541 
Q 544 4100 942 4425 
Q 1341 4750 2034 4750 
Q 2731 4750 3128 4425 
Q 3525 4100 3525 3541 
Q 3525 3141 3298 2862 
Q 3072 2584 2669 2484 
Q 3125 2378 3379 2068 
Q 3634 1759 3634 1313 
Q 3634 634 3220 271 
Q 2806 -91 2034 -91 
Q 1263 -91 848 271 
Q 434 634 434 1313 
Q 434 1759 690 2068 
Q 947 2378 1403 2484 
z
M 1172 3481 
Q 1172 3119 1398 2916 
Q 1625 2713 2034 2713 
Q 2441 2713 2670 2916 
Q 2900 3119 2900 3481 
Q 2900 3844 2670 4047 
Q 2441 4250 2034 4250 
Q 1625 4250 1398 4047 
Q 1172 3844 1172 3481 
z
" transform="scale(0.015625)"/>
       </defs>
       <use xlink:href="#DejaVuSans-2212"/>
       <use xlink:href="#DejaVuSans-38" x="83.789062"/>
       <use xlink:href="#DejaVuSans-30" x="147.412109"/>
      </g>
     </g>
    </g>
    <g id="ytick_3">
     <g id="line2d_7">
      <g>
       <use xlink:href="#m095a818ea7" x="72" y="368.1" style="stroke: #000000; stroke-width: 0.8"/>
      </g>
     </g>
     <g id="text_8">
      <!-- −60 -->
      <g transform="translate(18.569688 376.458281)scale(0.22 -0.22)">
       <defs>
        <path id="DejaVuSans-36" d="M 2113 2584 
Q 1688 2584 1439 2293 
Q 1191 2003 1191 1497 
Q 1191 994 1439 701 
Q 1688 409 2113 409 
Q 2538 409 2786 701 
Q 3034 994 3034 1497 
Q 3034 2003 2786 2293 
Q 2538 2584 2113 2584 
z
M 3366 4563 
L 3366 3988 
Q 3128 4100 2886 4159 
Q 2644 4219 2406 4219 
Q 1781 4219 1451 3797 
Q 1122 3375 1075 2522 
Q 1259 2794 1537 2939 
Q 1816 3084 2150 3084 
Q 2853 3084 3261 2657 
Q 3669 2231 3669 1497 
Q 3669 778 3244 343 
Q 2819 -91 2113 -91 
Q 1303 -91 875 529 
Q 447 1150 447 2328 
Q 447 3434 972 4092 
Q 1497 4750 2381 4750 
Q 2619 4750 2861 4703 
Q 3103 4656 3366 4563 
z
" transform="scale(0.015625)"/>
       </defs>
       <use xlink:href="#DejaVuSans-2212"/>
       <use xlink:href="#DejaVuSans-36" x="83.789062"/>
       <use xlink:href="#DejaVuSans-30" x="147.412109"/>
      </g>
     </g>
    </g>
    <g id="ytick_4">
     <g id="line2d_8">
      <g>
       <use xlink:href="#m095a818ea7" x="72" y="313.74" style="stroke: #000000; stroke-width: 0.8"/>
      </g>
     </g>
     <g id="text_9">
      <!-- −40 -->
      <g transform="translate(18.569688 322.098281)scale(0.22 -0.22)">
       <defs>
        <path id="DejaVuSans-34" d="M 2419 4116 
L 825 1625 
L 2419 1625 
L 2419 4116 
z
M 2253 4666 
L 3047 4666 
L 3047 1625 
L 3713 1625 
L 3713 1100 
L 3047 1100 
L 3047 0 
L 2419 0 
L 2419 1100 
L 313 1100 
L 313 1709 
L 2253 4666 
z
" transform="scale(0.015625)"/>
       </defs>
       <use xlink:href="#DejaVuSans-2212"/>
       <use xlink:href="#DejaVuSans-34" x="83.789062"/>
       <use xlink:href="#DejaVuSans-30" x="147.412109"/>
      </g>
     </g>
    </g>
    <g id="ytick_5">
     <g id="line2d_9">
      <g>
       <use xlink:href="#m095a818ea7" x="72" y="259.38" style="stroke: #000000; stroke-width: 0.8"/>
      </g>
     </g>
     <g id="text_10">
      <!-- −20 -->
      <g transform="translate(18.569688 267.738281)scale(0.22 -0.22)">
       <use xlink:href="#DejaVuSans-2212"/>
       <use xlink:href="#DejaVuSans-32" x="83.789062"/>
       <use xlink:href="#DejaVuSans-30" x="147.412109"/>
      </g>
     </g>
    </g>
    <g id="ytick_6">
     <g id="line2d_10">
      <g>
       <use xlink:href="#m095a818ea7" x="72" y="205.02" style="stroke: #000000; stroke-width: 0.8"/>
      </g>
     </g>
     <g id="text_11">
      <!-- 0 -->
      <g transform="translate(51.0025 213.378281)scale(0.22 -0.22)">
       <use xlink:href="#DejaVuSans-30"/>
      </g>
     </g>
    </g>
    <g id="ytick_7">
     <g id="line2d_11">
      <g>
       <use xlink:href="#m095a818ea7" x="72" y="150.66" style="stroke: #000000; stroke-width: 0.8"/>
      </g>
     </g>
     <g id="text_12">
      <!-- 20 -->
      <g transform="translate(37.005 159.018281)scale(0.22 -0.22)">
       <use xlink:href="#DejaVuSans-32"/>
       <use xlink:href="#DejaVuSans-30" x="63.623047"/>
      </g>
     </g>
    </g>
    <g id="ytick_8">
     <g id="line2d_12">
      <g>
       <use xlink:href="#m095a818ea7" x="72" y="96.3" style="stroke: #000000; stroke-width: 0.8"/>
      </g>
     </g>
     <g id="text_13">
      <!-- 40 -->
      <g transform="translate(37.005 104.658281)scale(0.22 -0.22)">
       <use xlink:href="#DejaVuSans-34"/>
       <use xlink:href="#DejaVuSans-30" x="63.623047"/>
      </g>
     </g>
    </g>
    <g id="text_14">
     <!-- Membrane potential (mV) -->
     <g transform="translate(-4.058125 410.655469)rotate(-90)scale(0.22 -0.22)">
      <defs>
       <path id="ArialMT-4d" d="M 475 0 
L 475 4581 
L 1388 4581 
L 2472 1338 
Q 2622 884 2691 659 
Q 2769 909 2934 1394 
L 4031 4581 
L 4847 4581 
L 4847 0 
L 4263 0 
L 4263 3834 
L 2931 0 
L 2384 0 
L 1059 3900 
L 1059 0 
L 475 0 
z
" transform="scale(0.015625)"/>
       <path id="ArialMT-62" d="M 941 0 
L 419 0 
L 419 4581 
L 981 4581 
L 981 2947 
Q 1338 3394 1891 3394 
Q 2197 3394 2470 3270 
Q 2744 3147 2920 2923 
Q 3097 2700 3197 2384 
Q 3297 2069 3297 1709 
Q 3297 856 2875 390 
Q 2453 -75 1863 -75 
Q 1275 -75 941 416 
L 941 0 
z
M 934 1684 
Q 934 1088 1097 822 
Q 1363 388 1816 388 
Q 2184 388 2453 708 
Q 2722 1028 2722 1663 
Q 2722 2313 2464 2622 
Q 2206 2931 1841 2931 
Q 1472 2931 1203 2611 
Q 934 2291 934 1684 
z
" transform="scale(0.015625)"/>
       <path id="ArialMT-72" d="M 416 0 
L 416 3319 
L 922 3319 
L 922 2816 
Q 1116 3169 1280 3281 
Q 1444 3394 1641 3394 
Q 1925 3394 2219 3213 
L 2025 2691 
Q 1819 2813 1613 2813 
Q 1428 2813 1281 2702 
Q 1134 2591 1072 2394 
Q 978 2094 978 1738 
L 978 0 
L 416 0 
z
" transform="scale(0.015625)"/>
       <path id="ArialMT-61" d="M 2588 409 
Q 2275 144 1986 34 
Q 1697 -75 1366 -75 
Q 819 -75 525 192 
Q 231 459 231 875 
Q 231 1119 342 1320 
Q 453 1522 633 1644 
Q 813 1766 1038 1828 
Q 1203 1872 1538 1913 
Q 2219 1994 2541 2106 
Q 2544 2222 2544 2253 
Q 2544 2597 2384 2738 
Q 2169 2928 1744 2928 
Q 1347 2928 1158 2789 
Q 969 2650 878 2297 
L 328 2372 
Q 403 2725 575 2942 
Q 747 3159 1072 3276 
Q 1397 3394 1825 3394 
Q 2250 3394 2515 3294 
Q 2781 3194 2906 3042 
Q 3031 2891 3081 2659 
Q 3109 2516 3109 2141 
L 3109 1391 
Q 3109 606 3145 398 
Q 3181 191 3288 0 
L 2700 0 
Q 2613 175 2588 409 
z
M 2541 1666 
Q 2234 1541 1622 1453 
Q 1275 1403 1131 1340 
Q 988 1278 909 1158 
Q 831 1038 831 891 
Q 831 666 1001 516 
Q 1172 366 1500 366 
Q 1825 366 2078 508 
Q 2331 650 2450 897 
Q 2541 1088 2541 1459 
L 2541 1666 
z
" transform="scale(0.015625)"/>
       <path id="ArialMT-6e" d="M 422 0 
L 422 3319 
L 928 3319 
L 928 2847 
Q 1294 3394 1984 3394 
Q 2284 3394 2536 3286 
Q 2788 3178 2913 3003 
Q 3038 2828 3088 2588 
Q 3119 2431 3119 2041 
L 3119 0 
L 2556 0 
L 2556 2019 
Q 2556 2363 2490 2533 
Q 2425 2703 2258 2804 
Q 2091 2906 1866 2906 
Q 1506 2906 1245 2678 
Q 984 2450 984 1813 
L 984 0 
L 422 0 
z
" transform="scale(0.015625)"/>
       <path id="ArialMT-20" transform="scale(0.015625)"/>
       <path id="ArialMT-70" d="M 422 -1272 
L 422 3319 
L 934 3319 
L 934 2888 
Q 1116 3141 1344 3267 
Q 1572 3394 1897 3394 
Q 2322 3394 2647 3175 
Q 2972 2956 3137 2557 
Q 3303 2159 3303 1684 
Q 3303 1175 3120 767 
Q 2938 359 2589 142 
Q 2241 -75 1856 -75 
Q 1575 -75 1351 44 
Q 1128 163 984 344 
L 984 -1272 
L 422 -1272 
z
M 931 1641 
Q 931 1000 1190 694 
Q 1450 388 1819 388 
Q 2194 388 2461 705 
Q 2728 1022 2728 1688 
Q 2728 2322 2467 2637 
Q 2206 2953 1844 2953 
Q 1484 2953 1207 2617 
Q 931 2281 931 1641 
z
" transform="scale(0.015625)"/>
       <path id="ArialMT-6f" d="M 213 1659 
Q 213 2581 725 3025 
Q 1153 3394 1769 3394 
Q 2453 3394 2887 2945 
Q 3322 2497 3322 1706 
Q 3322 1066 3130 698 
Q 2938 331 2570 128 
Q 2203 -75 1769 -75 
Q 1072 -75 642 372 
Q 213 819 213 1659 
z
M 791 1659 
Q 791 1022 1069 705 
Q 1347 388 1769 388 
Q 2188 388 2466 706 
Q 2744 1025 2744 1678 
Q 2744 2294 2464 2611 
Q 2184 2928 1769 2928 
Q 1347 2928 1069 2612 
Q 791 2297 791 1659 
z
" transform="scale(0.015625)"/>
       <path id="ArialMT-74" d="M 1650 503 
L 1731 6 
Q 1494 -44 1306 -44 
Q 1000 -44 831 53 
Q 663 150 594 308 
Q 525 466 525 972 
L 525 2881 
L 113 2881 
L 113 3319 
L 525 3319 
L 525 4141 
L 1084 4478 
L 1084 3319 
L 1650 3319 
L 1650 2881 
L 1084 2881 
L 1084 941 
Q 1084 700 1114 631 
Q 1144 563 1211 522 
Q 1278 481 1403 481 
Q 1497 481 1650 503 
z
" transform="scale(0.015625)"/>
       <path id="ArialMT-6c" d="M 409 0 
L 409 4581 
L 972 4581 
L 972 0 
L 409 0 
z
" transform="scale(0.015625)"/>
       <path id="ArialMT-56" d="M 1803 0 
L 28 4581 
L 684 4581 
L 1875 1253 
Q 2019 853 2116 503 
Q 2222 878 2363 1253 
L 3600 4581 
L 4219 4581 
L 2425 0 
L 1803 0 
z
" transform="scale(0.015625)"/>
      </defs>
      <use xlink:href="#ArialMT-4d"/>
      <use xlink:href="#ArialMT-65" x="83.300781"/>
      <use xlink:href="#ArialMT-6d" x="138.916016"/>
      <use xlink:href="#ArialMT-62" x="222.216797"/>
      <use xlink:href="#ArialMT-72" x="277.832031"/>
      <use xlink:href="#ArialMT-61" x="311.132812"/>
      <use xlink:href="#ArialMT-6e" x="366.748047"/>
      <use xlink:href="#ArialMT-65" x="422.363281"/>
      <use xlink:href="#ArialMT-20" x="477.978516"/>
      <use xlink:href="#ArialMT-70" x="505.761719"/>
      <use xlink:href="#ArialMT-6f" x="561.376953"/>
      <use xlink:href="#ArialMT-74" x="616.992188"/>
      <use xlink:href="#ArialMT-65" x="644.775391"/>
      <use xlink:href="#ArialMT-6e" x="700.390625"/>
      <use xlink:href="#ArialMT-74" x="756.005859"/>
      <use xlink:href="#ArialMT-69" x="783.789062"/>
      <use xlink:href="#ArialMT-61" x="806.005859"/>
      <use xlink:href="#ArialMT-6c" x="861.621094"/>
      <use xlink:href="#ArialMT-20" x="883.837891"/>
      <use xlink:href="#ArialMT-28" x="911.621094"/>
      <use xlink:href="#ArialMT-6d" x="944.921875"/>
      <use xlink:href="#ArialMT-56" x="1028.222656"/>
      <use xlink:href="#ArialMT-29" x="1094.921875"/>
     </g>
    </g>
   </g>
   <g id="line2d_13">
    <path d="M 92.290909 436.05 
L 92.493818 446.088555 
L 92.899636 453.225606 
L 93.373091 458.186784 
L 93.846545 461.151191 
L 94.32 462.888545 
L 94.793455 463.889566 
L 95.334545 464.518355 
L 95.943273 464.874697 
L 96.754909 465.079954 
L 98.242909 465.183188 
L 103.721455 465.204429 
L 159.927273 465.204543 
L 160.130182 445.805157 
L 160.536 435.052925 
L 161.077091 426.365749 
L 161.753455 419.093496 
L 162.497455 413.44488 
L 163.376727 408.525734 
L 164.323636 404.50165 
L 165.338182 401.11941 
L 166.488 398.057873 
L 167.705455 395.429366 
L 169.058182 393.025421 
L 170.546182 390.825763 
L 172.237091 388.725302 
L 174.198545 386.656931 
L 176.565818 384.503551 
L 180.082909 381.647752 
L 183.802909 378.578824 
L 185.696727 376.751608 
L 186.711273 375.625814 
L 187.928727 373.675436 
L 188.064 372.761976 
L 188.199273 372.35393 
L 188.605091 372.69226 
L 188.943273 372.549019 
L 189.484364 372.053768 
L 191.513455 369.510997 
L 191.851636 368.764738 
L 192.257455 367.888594 
L 193.136727 366.727646 
L 193.542545 366.583083 
L 193.948364 366.098784 
L 194.489455 365.156604 
L 195.030545 363.858207 
L 195.774545 362.649836 
L 196.518545 361.023619 
L 196.992 359.502044 
L 197.127273 358.414159 
L 197.330182 357.09347 
L 197.600727 356.381501 
L 197.938909 355.58645 
L 198.48 354.743749 
L 198.818182 353.701284 
L 199.494545 350.575145 
L 199.900364 346.9779 
L 200.238545 341.757947 
L 200.509091 333.801172 
L 200.712 320.567951 
L 200.779636 309.664633 
L 200.847273 273.835446 
L 200.914909 176.296018 
L 201.117818 354.100895 
L 201.320727 378.193326 
L 201.388364 378.93707 
L 201.456 378.794947 
L 201.726545 375.975497 
L 202.470545 368.232629 
L 203.214545 362.926834 
L 203.620364 361.942844 
L 204.634909 359.964259 
L 204.973091 358.23783 
L 205.176 358.204531 
L 205.446545 357.815208 
L 205.784727 356.841898 
L 206.325818 354.844921 
L 207.340364 352.605728 
L 207.813818 350.531862 
L 208.354909 346.931954 
L 208.760727 342.802744 
L 209.098909 336.612613 
L 209.301818 329.255677 
L 209.437091 318.632719 
L 209.504727 306.3195 
L 209.64 191.339302 
L 209.842909 355.145145 
L 210.045818 376.993519 
L 210.113455 377.700332 
L 210.181091 377.571458 
L 210.451636 374.909207 
L 211.533818 363.337473 
L 212.480727 360.385498 
L 212.886545 359.099386 
L 213.292364 357.382953 
L 213.698182 356.003317 
L 213.968727 354.375531 
L 214.306909 352.10269 
L 214.712727 350.988623 
L 214.915636 351.02965 
L 215.253818 351.134478 
L 215.456727 350.80146 
L 215.727273 349.756885 
L 216.065455 347.402579 
L 216.403636 343.372754 
L 216.674182 337.330105 
L 216.877091 327.083797 
L 217.012364 310.409044 
L 217.08 275.832999 
L 217.147636 172.630393 
L 217.350545 353.806301 
L 217.553455 378.377787 
L 217.621091 379.161715 
L 217.688727 379.03681 
L 217.959273 376.047852 
L 218.635636 368.266299 
L 219.244364 363.173888 
L 220.529455 355.440185 
L 221.341091 349.985311 
L 221.544 348.508707 
L 221.746909 346.981815 
L 222.085091 345.638617 
L 222.355636 343.395269 
L 222.626182 339.510184 
L 222.896727 332.202499 
L 223.099636 318.290091 
L 223.167273 305.603 
L 223.302545 194.772481 
L 223.505455 355.764589 
L 223.708364 377.187945 
L 223.776 377.878426 
L 223.843636 377.752634 
L 224.114182 374.999969 
L 224.925818 366.056851 
L 225.399273 363.231652 
L 226.008 359.479246 
L 226.887273 352.206303 
L 227.225455 350.4445 
L 228.24 342.962346 
L 228.578182 337.014724 
L 228.781091 330.076205 
L 228.916364 320.120859 
L 228.984 309.077691 
L 229.119273 178.554232 
L 229.322182 353.382181 
L 229.525091 378.005557 
L 229.660364 378.9374 
L 229.863273 377.149848 
L 231.080727 364.460431 
L 231.351273 363.664821 
L 231.824727 362.199805 
L 232.704 358.784281 
L 233.245091 355.904685 
L 234.665455 345.153312 
L 235.071273 340.37751 
L 235.341818 333.982863 
L 235.544727 322.851122 
L 235.68 294.17652 
L 235.747636 178.838406 
L 235.815273 249.061439 
L 236.018182 363.465775 
L 236.221091 378.950435 
L 236.288727 379.128087 
L 236.424 377.971917 
L 236.897455 372.985233 
L 237.776727 366.631419 
L 238.385455 364.189592 
L 239.129455 360.822716 
L 239.738182 357.376019 
L 240.617455 352.914778 
L 240.955636 350.222878 
L 241.293818 346.84732 
L 241.699636 344.060853 
L 241.970182 340.500573 
L 242.240727 333.713389 
L 242.443636 322.310307 
L 242.578909 295.729767 
L 242.646545 192.893756 
L 242.714182 242.657213 
L 242.917091 360.901538 
L 243.12 376.286378 
L 243.187636 376.372541 
L 243.999273 367.073294 
L 244.675636 361.459095 
L 245.825455 354.985358 
L 245.960727 354.478182 
L 246.096 355.017902 
L 246.366545 356.452578 
L 246.501818 356.482911 
L 246.772364 355.626813 
L 247.042909 353.854146 
L 247.651636 347.427947 
L 248.057455 340.817011 
L 248.328 332.267748 
L 248.463273 323.348319 
L 248.598545 292.92023 
L 248.666182 169.658402 
L 248.869091 347.894356 
L 249.072 377.058931 
L 249.139636 378.038832 
L 249.207273 377.874474 
L 249.477818 374.184516 
L 249.816 368.760301 
L 250.627636 361.695336 
L 251.709818 352.837731 
L 252.521455 343.623487 
L 252.859636 336.041216 
L 253.130182 329.932508 
L 253.468364 325.643347 
L 253.603636 320.711051 
L 253.738909 308.59594 
L 253.806545 293.231343 
L 253.874182 247.958564 
L 253.941818 249.205618 
L 254.144727 339.180547 
L 254.347636 355.481869 
L 254.482909 356.947502 
L 254.618182 356.035004 
L 255.024 350.317683 
L 255.497455 341.260576 
L 255.700364 333.218426 
L 255.835636 323.281422 
L 255.903273 313.360814 
L 255.970909 284.085799 
L 256.038545 160.423804 
L 256.241455 353.102193 
L 256.444364 380.013158 
L 256.512 380.763427 
L 256.579636 380.522934 
L 256.917818 376.198127 
L 257.661818 367.199649 
L 258.541091 359.884016 
L 259.217455 356.491573 
L 260.299636 352.075907 
L 260.705455 348.949989 
L 260.908364 346.278693 
L 261.652364 327.035935 
L 261.787636 315.898586 
L 261.855273 302.641005 
L 261.990545 208.830912 
L 262.193455 354.452118 
L 262.396364 374.787046 
L 262.531636 375.628829 
L 262.734545 373.995713 
L 263.749091 364.20302 
L 265.372364 352.528857 
L 265.845818 345.539057 
L 266.184 340.182631 
L 266.454545 332.197905 
L 266.657455 316.097654 
L 266.725091 299.042042 
L 266.792727 197.843788 
L 266.860364 230.191488 
L 267.063273 361.488472 
L 267.266182 377.372967 
L 267.333818 377.4098 
L 267.536727 375.127691 
L 268.416 364.242471 
L 269.227636 358.467138 
L 269.768727 354.708905 
L 269.971636 352.587163 
L 270.309818 348.136294 
L 270.648 343.935099 
L 270.918545 337.868104 
L 271.121455 329.73357 
L 271.256727 318.09438 
L 271.324364 303.745791 
L 271.459636 207.486797 
L 271.662545 359.344789 
L 271.865455 377.514015 
L 271.933091 377.728123 
L 272.136 375.698513 
L 273.015273 365.51202 
L 274.435636 352.850911 
L 274.706182 350.468752 
L 274.976727 347.175107 
L 275.382545 342.866994 
L 275.653091 337.630099 
L 275.856 330.398349 
L 275.991273 320.434024 
L 276.058909 309.652121 
L 276.126545 275.083287 
L 276.194182 176.6117 
L 276.397091 352.764415 
L 276.6 376.552847 
L 276.667636 377.288588 
L 276.735273 377.113745 
L 277.005818 374.006004 
L 277.817455 364.535067 
L 280.049455 342.83814 
L 280.32 337.680769 
L 280.522909 330.287063 
L 280.658182 320.046919 
L 280.725818 308.787951 
L 280.861091 180.290335 
L 281.064 354.052161 
L 281.266909 377.125472 
L 281.334545 377.84283 
L 281.402182 377.686551 
L 281.672727 374.699794 
L 282.552 364.584956 
L 284.919273 340.536213 
L 285.189818 332.044898 
L 285.392727 314.691948 
L 285.460364 298.233543 
L 285.528 213.700994 
L 285.595636 232.348636 
L 285.798545 360.805852 
L 286.001455 376.195183 
L 286.069091 376.284738 
L 286.272 374.451633 
L 287.286545 364.097453 
L 289.450909 346.905209 
L 289.653818 343.953738 
L 290.059636 331.344699 
L 290.194909 322.667689 
L 290.330182 294.313264 
L 290.397818 181.091795 
L 290.465455 250.278442 
L 290.668364 362.637479 
L 290.871273 376.665373 
L 290.938909 376.686031 
L 291.141818 374.54592 
L 292.291636 360.294962 
L 293.103273 353.83954 
L 293.373818 353.098869 
L 293.509091 353.84722 
L 293.914909 356.59933 
L 294.117818 356.800081 
L 294.320727 356.62827 
L 294.658909 355.859136 
L 295.064727 354.263927 
L 295.402909 352.072073 
L 295.673455 349.041676 
L 296.146909 345.434553 
L 296.485091 340.753476 
L 296.755636 334.052046 
L 296.958545 323.056734 
L 297.093818 296.887776 
L 297.161455 191.032314 
L 297.229091 238.133497 
L 297.432 361.199208 
L 297.634909 376.9517 
L 297.702545 377.176595 
L 297.837818 376.242103 
L 298.987636 365.53574 
L 301.287273 350.307417 
L 301.422545 351.145938 
L 301.760727 353.753255 
L 301.963636 354.093247 
L 302.098909 353.948583 
L 302.369455 353.088236 
L 302.707636 351.197975 
L 303.113455 347.589797 
L 303.519273 341.530228 
L 303.789818 334.760841 
L 303.992727 323.95906 
L 304.128 299.451756 
L 304.195636 199.760586 
L 304.263273 227.412651 
L 304.466182 360.581636 
L 304.669091 376.957936 
L 304.736727 377.22959 
L 304.872 376.261606 
L 306.157091 360.641079 
L 306.427636 358.520897 
L 306.495273 358.441369 
L 306.698182 359.228079 
L 306.968727 360.021111 
L 307.171636 360.24657 
L 307.374545 360.371633 
L 307.577455 360.200608 
L 307.848 359.577021 
L 308.321455 357.816815 
L 308.794909 355.2701 
L 309.200727 351.690831 
L 310.012364 342.47017 
L 310.282909 336.241121 
L 310.485818 326.090067 
L 310.621091 305.723515 
L 310.756364 197.101805 
L 310.959273 358.604221 
L 311.162182 378.059361 
L 311.229818 378.284118 
L 311.365091 376.98203 
L 311.906182 369.913387 
L 312.650182 365.54942 
L 313.191273 363.21208 
L 314.002909 359.338182 
L 314.341091 357.947041 
L 314.679273 358.333036 
L 314.746909 358.246561 
L 314.882182 357.805976 
L 315.761455 351.754356 
L 316.099636 348.574153 
L 316.911273 344.754876 
L 317.181818 341.728145 
L 317.452364 336.171612 
L 317.655273 325.694943 
L 317.790545 307.010514 
L 317.925818 188.051145 
L 318.128727 355.884753 
L 318.331636 377.65055 
L 318.399273 378.258303 
L 318.466909 378.051983 
L 318.737455 375.013175 
L 319.549091 365.549001 
L 320.022545 361.336183 
L 320.563636 359.544515 
L 321.24 356.922235 
L 321.375273 356.998741 
L 321.713455 357.397139 
L 321.848727 357.320073 
L 322.119273 356.79724 
L 322.389818 355.770814 
L 322.660364 353.842542 
L 322.863273 352.329071 
L 323.201455 353.285653 
L 323.336727 352.981917 
L 323.674909 351.000417 
L 324.080727 347.310987 
L 324.418909 341.636827 
L 324.689455 334.629275 
L 324.892364 324.489244 
L 325.027636 304.964038 
L 325.162909 198.851389 
L 325.365818 355.973756 
L 325.568727 376.008431 
L 325.636364 376.51327 
L 325.704 376.251398 
L 325.974545 373.099945 
L 326.583273 365.713545 
L 327.124364 362.647013 
L 328.274182 356.510676 
L 328.612364 353.719645 
L 328.882909 350.320508 
L 329.356364 345.562669 
L 329.694545 339.18454 
L 329.897455 331.626063 
L 330.032727 322.004195 
L 330.100364 312.283009 
L 330.168 285.07897 
L 330.235636 168.125251 
L 330.438545 351.230589 
L 330.641455 378.00156 
L 330.776727 379.072804 
L 330.979636 377.30608 
L 331.926545 367.610915 
L 332.4 365.234139 
L 333.008727 364.416345 
L 333.482182 363.027547 
L 333.955636 360.969782 
L 334.090909 360.02778 
L 334.293818 358.130694 
L 334.834909 355.996286 
L 335.240727 353.731585 
L 335.646545 352.284835 
L 336.052364 349.789247 
L 336.458182 345.989665 
L 336.796364 340.841871 
L 337.066909 333.112304 
L 337.269818 318.495751 
L 337.337455 304.492331 
L 337.472727 202.828282 
L 337.675636 359.139815 
L 337.878545 379.275906 
L 337.946182 379.825123 
L 338.013818 379.627598 
L 338.352 376.121622 
L 339.231273 367.405317 
L 340.042909 362.526333 
L 340.381091 361.610594 
L 340.989818 359.9161 
L 341.530909 358.043319 
L 342.139636 355.070072 
L 342.613091 352.833607 
L 342.883636 353.081122 
L 343.018909 352.662666 
L 343.627636 348.646558 
L 344.033455 343.33882 
L 344.439273 333.627637 
L 344.642182 321.31494 
L 344.709818 311.49984 
L 344.777455 283.827753 
L 344.845091 171.372911 
L 345.048 350.383227 
L 345.250909 376.603919 
L 345.318545 377.455448 
L 345.386182 376.916088 
L 346.265455 368.820108 
L 347.009455 364.246147 
L 348.768 354.500554 
L 349.106182 352.316629 
L 349.444364 352.731212 
L 349.512 352.654114 
L 349.714909 351.965062 
L 349.917818 350.548414 
L 350.526545 344.793345 
L 350.797091 341.597198 
L 351 336.361458 
L 351.270545 326.151003 
L 351.405818 315.032483 
L 351.473455 301.858644 
L 351.608727 211.881134 
L 351.811636 352.543936 
L 352.014545 372.277577 
L 352.149818 373.09074 
L 352.352727 371.273425 
L 353.164364 362.666359 
L 353.570182 359.308936 
L 354.246545 354.578701 
L 354.787636 348.836284 
L 355.193455 343.041693 
L 355.464 336.592105 
L 355.666909 327.110853 
L 355.802182 310.116521 
L 355.869818 273.306442 
L 355.937455 174.759975 
L 356.140364 353.777762 
L 356.343273 377.749549 
L 356.478545 378.805532 
L 356.681455 377.355578 
L 357.560727 369.816489 
L 358.304727 365.839587 
L 359.725091 358.794886 
L 360.401455 353.197375 
L 361.618909 337.697635 
L 361.821818 332.101724 
L 362.024727 318.445092 
L 362.092364 306.05266 
L 362.227636 192.866119 
L 362.430545 354.769788 
L 362.633455 376.057466 
L 362.701091 376.711515 
L 362.768727 376.501518 
L 363.242182 371.210217 
L 363.850909 365.153074 
L 364.797818 360.122362 
L 365.000727 358.488763 
L 365.271273 355.633437 
L 365.744727 352.684643 
L 366.218182 348.226019 
L 366.556364 342.766671 
L 366.894545 332.509772 
L 367.029818 323.954523 
L 367.165091 297.434626 
L 367.232727 184.071362 
L 367.300364 238.187872 
L 367.503273 363.124289 
L 367.706182 378.425477 
L 367.773818 378.659866 
L 367.909091 377.762712 
L 368.923636 367.951745 
L 369.802909 362.211126 
L 370.344 359.980949 
L 370.817455 357.117167 
L 372.237818 347.541266 
L 372.576 342.725875 
L 372.846545 335.307448 
L 373.049455 323.723794 
L 373.184727 295.040553 
L 373.252364 172.999962 
L 373.32 247.209608 
L 373.522909 363.69391 
L 373.725818 376.981384 
L 373.793455 377.338742 
L 373.861091 377.273533 
L 374.064 376.023955 
L 375.010909 369.079422 
L 375.754909 365.624856 
L 376.769455 362.081091 
L 377.648727 358.649414 
L 377.986909 356.722319 
L 378.257455 354.036806 
L 378.798545 351.467198 
L 379.204364 348.121392 
L 379.542545 343.818719 
L 379.813091 337.80653 
L 380.016 329.171991 
L 380.151273 315.469565 
L 380.218909 294.72111 
L 380.286545 169.378733 
L 380.354182 248.497181 
L 380.557091 365.087183 
L 380.76 379.700302 
L 380.827636 379.795137 
L 381.030545 377.968301 
L 381.842182 369.744599 
L 382.721455 363.427543 
L 383.127273 362.025859 
L 383.803636 358.805299 
L 384.953455 351.127162 
L 385.359273 346.945891 
L 385.697455 340.452061 
L 385.968 331.217152 
L 386.103273 320.854476 
L 386.170909 309.356238 
L 386.306182 178.348677 
L 386.509091 355.595903 
L 386.712 377.092724 
L 386.779636 377.568316 
L 386.847273 377.443106 
L 387.050182 375.662121 
L 387.726545 368.525996 
L 388.605818 364.678218 
L 390.296727 357.596003 
L 390.973091 353.525972 
L 391.243636 351.275464 
L 392.122909 335.758138 
L 392.325818 325.599996 
L 392.461091 305.533684 
L 392.596364 197.598405 
L 392.799273 358.098074 
L 393.002182 377.814389 
L 393.069818 378.143718 
L 393.205091 377.033511 
L 393.881455 369.736177 
L 394.557818 365.180909 
L 395.437091 359.521043 
L 395.64 358.030432 
L 396.113455 356.285411 
L 396.586909 353.381326 
L 397.060364 349.190254 
L 397.398545 343.496206 
L 397.736727 335.388767 
L 397.939636 325.601315 
L 398.074909 308.175583 
L 398.210182 183.38133 
L 398.413091 353.538425 
L 398.616 375.966213 
L 398.683636 376.626269 
L 398.751273 376.401391 
L 399.765818 365.141825 
L 400.036364 361.923759 
L 400.306909 360.789358 
L 400.712727 359.261331 
L 401.321455 355.922816 
L 401.794909 352.159939 
L 402.471273 344.801729 
L 402.741818 339.842246 
L 403.012364 329.231065 
L 403.147636 316.673762 
L 403.215273 299.921473 
L 403.282909 198.092026 
L 403.350545 226.419261 
L 403.553455 361.863621 
L 403.756364 378.204486 
L 403.824 378.281397 
L 404.026909 375.634125 
L 404.297455 372.319239 
L 405.244364 364.575335 
L 405.785455 361.689288 
L 406.8 356.886622 
L 408.017455 347.539497 
L 408.288 342.500289 
L 408.693818 326.716925 
L 408.829091 311.943836 
L 408.896727 287.35544 
L 408.964364 174.388287 
L 409.167273 348.961773 
L 409.370182 375.942862 
L 409.505455 377.00031 
L 409.708364 375.0305 
L 410.587636 364.733821 
L 411.602182 357.284227 
L 411.872727 357.003472 
L 412.143273 356.350959 
L 412.481455 354.886139 
L 412.819636 351.98146 
L 413.225455 350.019848 
L 413.631273 346.54194 
L 413.969455 341.81126 
L 414.24 335.190069 
L 414.442909 324.650526 
L 414.578182 302.052252 
L 414.713455 215.006147 
L 414.916364 359.979832 
L 415.119273 377.92344 
L 415.186909 378.221019 
L 415.322182 377.20294 
L 417.080727 357.832388 
L 418.230545 354.380355 
L 418.704 351.875231 
L 419.109818 348.584303 
L 419.448 344.323424 
L 419.718545 338.46769 
L 419.989091 326.96097 
L 420.124364 312.619115 
L 420.192 289.93017 
L 420.259636 176.026146 
L 420.462545 347.615088 
L 420.665455 375.690628 
L 420.733091 376.760832 
L 420.800727 376.721194 
L 421.003636 374.549029 
L 421.815273 364.393461 
L 422.424 360.380859 
L 422.965091 356.10999 
L 423.709091 350.891729 
L 424.182545 346.709235 
L 424.588364 340.840206 
L 424.858909 333.847629 
L 425.061818 323.214905 
L 425.197091 299.72646 
L 425.264727 211.763875 
L 425.332364 225.69966 
L 425.535273 359.346353 
L 425.738182 376.074495 
L 425.805818 376.394866 
L 425.941091 375.582778 
L 426.482182 368.93498 
L 426.955636 364.450652 
L 428.511273 352.77621 
L 428.849455 349.925183 
L 429.255273 347.629112 
L 429.593455 344.934614 
L 429.931636 340.816844 
L 430.202182 337.36344 
L 430.405091 332.5427 
L 430.472727 330.037161 
L 430.743273 365.836216 
L 431.149091 388.328682 
L 431.825455 411.845726 
L 432.772364 437.086143 
L 433.448727 449.892701 
L 433.989818 456.442391 
L 434.530909 460.378087 
L 435.004364 462.388089 
L 435.477818 463.57336 
L 436.018909 464.33379 
L 436.627636 464.775013 
L 437.371636 465.023278 
L 438.589091 465.160796 
L 441.632727 465.204419 
L 498.109091 465.204097 
L 498.109091 465.204097 
" clip-path="url(#p37db940708)" style="fill: none; stroke: #000000; stroke-width: 1.5; stroke-linecap: square"/>
   </g>
   <g id="line2d_14">
    <path d="M 497.973818 408.87 
" clip-path="url(#p37db940708)" style="fill: none; stroke: #000000; stroke-width: 1.5; stroke-linecap: square"/>
   </g>
   <g id="line2d_15">
    <path d="M 430.472727 368.1 
L 430.472727 365.382 
L 430.472727 362.664 
L 430.472727 359.946 
L 430.472727 357.228 
L 430.472727 354.51 
L 430.472727 351.792 
L 430.472727 349.074 
L 430.472727 346.356 
L 430.472727 343.638 
L 430.472727 340.92 
L 430.472727 338.202 
L 430.472727 335.484 
L 430.472727 332.766 
L 430.472727 330.048 
L 430.472727 327.33 
L 430.472727 324.612 
L 430.472727 321.894 
L 430.472727 319.176 
L 430.472727 316.458 
" clip-path="url(#p37db940708)" style="fill: none; stroke: #000000; stroke-width: 1.5; stroke-linecap: square"/>
   </g>
   <g id="patch_3">
    <path d="M 72 504 
L 72 69.12 
" style="fill: none; stroke: #000000; stroke-width: 0.8; stroke-linejoin: miter; stroke-linecap: square"/>
   </g>
   <g id="patch_4">
    <path d="M 518.4 504 
L 518.4 69.12 
" style="fill: none; stroke: #000000; stroke-width: 0.8; stroke-linejoin: miter; stroke-linecap: square"/>
   </g>
   <g id="patch_5">
    <path d="M 72 504 
L 518.4 504 
" style="fill: none; stroke: #000000; stroke-width: 0.8; stroke-linejoin: miter; stroke-linecap: square"/>
   </g>
   <g id="patch_6">
    <path d="M 72 69.12 
L 518.4 69.12 
" style="fill: none; stroke: #000000; stroke-width: 0.8; stroke-linejoin: miter; stroke-linecap: square"/>
   </g>
   <g id="text_15">
    <!-- 500 ms -->
    <g transform="translate(497.973818 406.152)scale(0.22 -0.22)">
     <defs>
      <path id="ArialMT-35" d="M 266 1200 
L 856 1250 
Q 922 819 1161 601 
Q 1400 384 1738 384 
Q 2144 384 2425 690 
Q 2706 997 2706 1503 
Q 2706 1984 2436 2262 
Q 2166 2541 1728 2541 
Q 1456 2541 1237 2417 
Q 1019 2294 894 2097 
L 366 2166 
L 809 4519 
L 3088 4519 
L 3088 3981 
L 1259 3981 
L 1013 2750 
Q 1425 3038 1878 3038 
Q 2478 3038 2890 2622 
Q 3303 2206 3303 1553 
Q 3303 931 2941 478 
Q 2500 -78 1738 -78 
Q 1113 -78 717 272 
Q 322 622 266 1200 
z
" transform="scale(0.015625)"/>
      <path id="ArialMT-30" d="M 266 2259 
Q 266 3072 433 3567 
Q 600 4063 929 4331 
Q 1259 4600 1759 4600 
Q 2128 4600 2406 4451 
Q 2684 4303 2865 4023 
Q 3047 3744 3150 3342 
Q 3253 2941 3253 2259 
Q 3253 1453 3087 958 
Q 2922 463 2592 192 
Q 2263 -78 1759 -78 
Q 1097 -78 719 397 
Q 266 969 266 2259 
z
M 844 2259 
Q 844 1131 1108 757 
Q 1372 384 1759 384 
Q 2147 384 2411 759 
Q 2675 1134 2675 2259 
Q 2675 3391 2411 3762 
Q 2147 4134 1753 4134 
Q 1366 4134 1134 3806 
Q 844 3388 844 2259 
z
" transform="scale(0.015625)"/>
     </defs>
     <use xlink:href="#ArialMT-35"/>
     <use xlink:href="#ArialMT-30" x="55.615234"/>
     <use xlink:href="#ArialMT-30" x="111.230469"/>
     <use xlink:href="#ArialMT-20" x="166.845703"/>
     <use xlink:href="#ArialMT-6d" x="194.628906"/>
     <use xlink:href="#ArialMT-73" x="277.929688"/>
    </g>
   </g>
   <g id="text_16">
    <!-- 20 mV -->
    <g transform="translate(504.737455 321.894)scale(0.22 -0.22)">
     <defs>
      <path id="ArialMT-32" d="M 3222 541 
L 3222 0 
L 194 0 
Q 188 203 259 391 
Q 375 700 629 1000 
Q 884 1300 1366 1694 
Q 2113 2306 2375 2664 
Q 2638 3022 2638 3341 
Q 2638 3675 2398 3904 
Q 2159 4134 1775 4134 
Q 1369 4134 1125 3890 
Q 881 3647 878 3216 
L 300 3275 
Q 359 3922 746 4261 
Q 1134 4600 1788 4600 
Q 2447 4600 2831 4234 
Q 3216 3869 3216 3328 
Q 3216 3053 3103 2787 
Q 2991 2522 2730 2228 
Q 2469 1934 1863 1422 
Q 1356 997 1212 845 
Q 1069 694 975 541 
L 3222 541 
z
" transform="scale(0.015625)"/>
     </defs>
     <use xlink:href="#ArialMT-32"/>
     <use xlink:href="#ArialMT-30" x="55.615234"/>
     <use xlink:href="#ArialMT-20" x="111.230469"/>
     <use xlink:href="#ArialMT-6d" x="139.013672"/>
     <use xlink:href="#ArialMT-56" x="222.314453"/>
    </g>
   </g>
   <g id="text_17">
    <!--  Plotting FS, trace number 12245  -->
    <g transform="translate(130.732812 63.12)scale(0.22 -0.22)">
     <defs>
      <path id="ArialMT-50" d="M 494 0 
L 494 4581 
L 2222 4581 
Q 2678 4581 2919 4538 
Q 3256 4481 3484 4323 
Q 3713 4166 3852 3881 
Q 3991 3597 3991 3256 
Q 3991 2672 3619 2267 
Q 3247 1863 2275 1863 
L 1100 1863 
L 1100 0 
L 494 0 
z
M 1100 2403 
L 2284 2403 
Q 2872 2403 3119 2622 
Q 3366 2841 3366 3238 
Q 3366 3525 3220 3729 
Q 3075 3934 2838 4000 
Q 2684 4041 2272 4041 
L 1100 4041 
L 1100 2403 
z
" transform="scale(0.015625)"/>
      <path id="ArialMT-67" d="M 319 -275 
L 866 -356 
Q 900 -609 1056 -725 
Q 1266 -881 1628 -881 
Q 2019 -881 2231 -725 
Q 2444 -569 2519 -288 
Q 2563 -116 2559 434 
Q 2191 0 1641 0 
Q 956 0 581 494 
Q 206 988 206 1678 
Q 206 2153 378 2554 
Q 550 2956 876 3175 
Q 1203 3394 1644 3394 
Q 2231 3394 2613 2919 
L 2613 3319 
L 3131 3319 
L 3131 450 
Q 3131 -325 2973 -648 
Q 2816 -972 2473 -1159 
Q 2131 -1347 1631 -1347 
Q 1038 -1347 672 -1080 
Q 306 -813 319 -275 
z
M 784 1719 
Q 784 1066 1043 766 
Q 1303 466 1694 466 
Q 2081 466 2343 764 
Q 2606 1063 2606 1700 
Q 2606 2309 2336 2618 
Q 2066 2928 1684 2928 
Q 1309 2928 1046 2623 
Q 784 2319 784 1719 
z
" transform="scale(0.015625)"/>
      <path id="ArialMT-46" d="M 525 0 
L 525 4581 
L 3616 4581 
L 3616 4041 
L 1131 4041 
L 1131 2622 
L 3281 2622 
L 3281 2081 
L 1131 2081 
L 1131 0 
L 525 0 
z
" transform="scale(0.015625)"/>
      <path id="ArialMT-53" d="M 288 1472 
L 859 1522 
Q 900 1178 1048 958 
Q 1197 738 1509 602 
Q 1822 466 2213 466 
Q 2559 466 2825 569 
Q 3091 672 3220 851 
Q 3350 1031 3350 1244 
Q 3350 1459 3225 1620 
Q 3100 1781 2813 1891 
Q 2628 1963 1997 2114 
Q 1366 2266 1113 2400 
Q 784 2572 623 2826 
Q 463 3081 463 3397 
Q 463 3744 659 4045 
Q 856 4347 1234 4503 
Q 1613 4659 2075 4659 
Q 2584 4659 2973 4495 
Q 3363 4331 3572 4012 
Q 3781 3694 3797 3291 
L 3216 3247 
Q 3169 3681 2898 3903 
Q 2628 4125 2100 4125 
Q 1550 4125 1298 3923 
Q 1047 3722 1047 3438 
Q 1047 3191 1225 3031 
Q 1400 2872 2139 2705 
Q 2878 2538 3153 2413 
Q 3553 2228 3743 1945 
Q 3934 1663 3934 1294 
Q 3934 928 3725 604 
Q 3516 281 3123 101 
Q 2731 -78 2241 -78 
Q 1619 -78 1198 103 
Q 778 284 539 648 
Q 300 1013 288 1472 
z
" transform="scale(0.015625)"/>
      <path id="ArialMT-2c" d="M 569 0 
L 569 641 
L 1209 641 
L 1209 0 
Q 1209 -353 1084 -570 
Q 959 -788 688 -906 
L 531 -666 
Q 709 -588 793 -436 
Q 878 -284 888 0 
L 569 0 
z
" transform="scale(0.015625)"/>
      <path id="ArialMT-63" d="M 2588 1216 
L 3141 1144 
Q 3050 572 2676 248 
Q 2303 -75 1759 -75 
Q 1078 -75 664 370 
Q 250 816 250 1647 
Q 250 2184 428 2587 
Q 606 2991 970 3192 
Q 1334 3394 1763 3394 
Q 2303 3394 2647 3120 
Q 2991 2847 3088 2344 
L 2541 2259 
Q 2463 2594 2264 2762 
Q 2066 2931 1784 2931 
Q 1359 2931 1093 2626 
Q 828 2322 828 1663 
Q 828 994 1084 691 
Q 1341 388 1753 388 
Q 2084 388 2306 591 
Q 2528 794 2588 1216 
z
" transform="scale(0.015625)"/>
      <path id="ArialMT-75" d="M 2597 0 
L 2597 488 
Q 2209 -75 1544 -75 
Q 1250 -75 995 37 
Q 741 150 617 320 
Q 494 491 444 738 
Q 409 903 409 1263 
L 409 3319 
L 972 3319 
L 972 1478 
Q 972 1038 1006 884 
Q 1059 663 1231 536 
Q 1403 409 1656 409 
Q 1909 409 2131 539 
Q 2353 669 2445 892 
Q 2538 1116 2538 1541 
L 2538 3319 
L 3100 3319 
L 3100 0 
L 2597 0 
z
" transform="scale(0.015625)"/>
      <path id="ArialMT-31" d="M 2384 0 
L 1822 0 
L 1822 3584 
Q 1619 3391 1289 3197 
Q 959 3003 697 2906 
L 697 3450 
Q 1169 3672 1522 3987 
Q 1875 4303 2022 4600 
L 2384 4600 
L 2384 0 
z
" transform="scale(0.015625)"/>
      <path id="ArialMT-34" d="M 2069 0 
L 2069 1097 
L 81 1097 
L 81 1613 
L 2172 4581 
L 2631 4581 
L 2631 1613 
L 3250 1613 
L 3250 1097 
L 2631 1097 
L 2631 0 
L 2069 0 
z
M 2069 1613 
L 2069 3678 
L 634 1613 
L 2069 1613 
z
" transform="scale(0.015625)"/>
     </defs>
     <use xlink:href="#ArialMT-20"/>
     <use xlink:href="#ArialMT-50" x="27.783203"/>
     <use xlink:href="#ArialMT-6c" x="94.482422"/>
     <use xlink:href="#ArialMT-6f" x="116.699219"/>
     <use xlink:href="#ArialMT-74" x="172.314453"/>
     <use xlink:href="#ArialMT-74" x="200.097656"/>
     <use xlink:href="#ArialMT-69" x="227.880859"/>
     <use xlink:href="#ArialMT-6e" x="250.097656"/>
     <use xlink:href="#ArialMT-67" x="305.712891"/>
     <use xlink:href="#ArialMT-20" x="361.328125"/>
     <use xlink:href="#ArialMT-46" x="389.111328"/>
     <use xlink:href="#ArialMT-53" x="450.195312"/>
     <use xlink:href="#ArialMT-2c" x="516.894531"/>
     <use xlink:href="#ArialMT-20" x="544.677734"/>
     <use xlink:href="#ArialMT-74" x="572.460938"/>
     <use xlink:href="#ArialMT-72" x="600.244141"/>
     <use xlink:href="#ArialMT-61" x="633.544922"/>
     <use xlink:href="#ArialMT-63" x="689.160156"/>
     <use xlink:href="#ArialMT-65" x="739.160156"/>
     <use xlink:href="#ArialMT-20" x="794.775391"/>
     <use xlink:href="#ArialMT-6e" x="822.558594"/>
     <use xlink:href="#ArialMT-75" x="878.173828"/>
     <use xlink:href="#ArialMT-6d" x="933.789062"/>
     <use xlink:href="#ArialMT-62" x="1017.089844"/>
     <use xlink:href="#ArialMT-65" x="1072.705078"/>
     <use xlink:href="#ArialMT-72" x="1128.320312"/>
     <use xlink:href="#ArialMT-20" x="1161.621094"/>
     <use xlink:href="#ArialMT-31" x="1189.404297"/>
     <use xlink:href="#ArialMT-32" x="1245.019531"/>
     <use xlink:href="#ArialMT-32" x="1300.634766"/>
     <use xlink:href="#ArialMT-34" x="1356.25"/>
     <use xlink:href="#ArialMT-35" x="1411.865234"/>
     <use xlink:href="#ArialMT-20" x="1467.480469"/>
    </g>
   </g>
  </g>
 </g>
 <defs>
  <clipPath id="p37db940708">
   <rect x="72" y="69.12" width="446.4" height="434.88"/>
  </clipPath>
 </defs>
</svg>
